%TF.GenerationSoftware,KiCad,Pcbnew,7.0.9*%
%TF.CreationDate,2024-06-24T14:49:53-04:00*%
%TF.ProjectId,IO,494f2e6b-6963-4616-945f-706362585858,rev?*%
%TF.SameCoordinates,Original*%
%TF.FileFunction,Legend,Bot*%
%TF.FilePolarity,Positive*%
%FSLAX46Y46*%
G04 Gerber Fmt 4.6, Leading zero omitted, Abs format (unit mm)*
G04 Created by KiCad (PCBNEW 7.0.9) date 2024-06-24 14:49:53*
%MOMM*%
%LPD*%
G01*
G04 APERTURE LIST*
%ADD10C,0.150000*%
%ADD11C,0.120000*%
G04 APERTURE END LIST*
D10*
X178170180Y-111091792D02*
X178646371Y-111425125D01*
X178170180Y-111663220D02*
X179170180Y-111663220D01*
X179170180Y-111663220D02*
X179170180Y-111282268D01*
X179170180Y-111282268D02*
X179122561Y-111187030D01*
X179122561Y-111187030D02*
X179074942Y-111139411D01*
X179074942Y-111139411D02*
X178979704Y-111091792D01*
X178979704Y-111091792D02*
X178836847Y-111091792D01*
X178836847Y-111091792D02*
X178741609Y-111139411D01*
X178741609Y-111139411D02*
X178693990Y-111187030D01*
X178693990Y-111187030D02*
X178646371Y-111282268D01*
X178646371Y-111282268D02*
X178646371Y-111663220D01*
X174950180Y-111187030D02*
X174950180Y-111663220D01*
X174950180Y-111663220D02*
X175950180Y-111663220D01*
X172682561Y-111139411D02*
X172730180Y-111234649D01*
X172730180Y-111234649D02*
X172730180Y-111377506D01*
X172730180Y-111377506D02*
X172682561Y-111520363D01*
X172682561Y-111520363D02*
X172587323Y-111615601D01*
X172587323Y-111615601D02*
X172492085Y-111663220D01*
X172492085Y-111663220D02*
X172301609Y-111710839D01*
X172301609Y-111710839D02*
X172158752Y-111710839D01*
X172158752Y-111710839D02*
X171968276Y-111663220D01*
X171968276Y-111663220D02*
X171873038Y-111615601D01*
X171873038Y-111615601D02*
X171777800Y-111520363D01*
X171777800Y-111520363D02*
X171730180Y-111377506D01*
X171730180Y-111377506D02*
X171730180Y-111282268D01*
X171730180Y-111282268D02*
X171777800Y-111139411D01*
X171777800Y-111139411D02*
X171825419Y-111091792D01*
X171825419Y-111091792D02*
X172158752Y-111091792D01*
X172158752Y-111091792D02*
X172158752Y-111282268D01*
X172396847Y-110663220D02*
X171730180Y-110663220D01*
X172301609Y-110663220D02*
X172349228Y-110615601D01*
X172349228Y-110615601D02*
X172396847Y-110520363D01*
X172396847Y-110520363D02*
X172396847Y-110377506D01*
X172396847Y-110377506D02*
X172349228Y-110282268D01*
X172349228Y-110282268D02*
X172253990Y-110234649D01*
X172253990Y-110234649D02*
X171730180Y-110234649D01*
X171730180Y-109329887D02*
X172730180Y-109329887D01*
X171777800Y-109329887D02*
X171730180Y-109425125D01*
X171730180Y-109425125D02*
X171730180Y-109615601D01*
X171730180Y-109615601D02*
X171777800Y-109710839D01*
X171777800Y-109710839D02*
X171825419Y-109758458D01*
X171825419Y-109758458D02*
X171920657Y-109806077D01*
X171920657Y-109806077D02*
X172206371Y-109806077D01*
X172206371Y-109806077D02*
X172301609Y-109758458D01*
X172301609Y-109758458D02*
X172349228Y-109710839D01*
X172349228Y-109710839D02*
X172396847Y-109615601D01*
X172396847Y-109615601D02*
X172396847Y-109425125D01*
X172396847Y-109425125D02*
X172349228Y-109329887D01*
X178770180Y-91891792D02*
X179246371Y-92225125D01*
X178770180Y-92463220D02*
X179770180Y-92463220D01*
X179770180Y-92463220D02*
X179770180Y-92082268D01*
X179770180Y-92082268D02*
X179722561Y-91987030D01*
X179722561Y-91987030D02*
X179674942Y-91939411D01*
X179674942Y-91939411D02*
X179579704Y-91891792D01*
X179579704Y-91891792D02*
X179436847Y-91891792D01*
X179436847Y-91891792D02*
X179341609Y-91939411D01*
X179341609Y-91939411D02*
X179293990Y-91987030D01*
X179293990Y-91987030D02*
X179246371Y-92082268D01*
X179246371Y-92082268D02*
X179246371Y-92463220D01*
X175550180Y-91987030D02*
X175550180Y-92463220D01*
X175550180Y-92463220D02*
X176550180Y-92463220D01*
X173282561Y-91939411D02*
X173330180Y-92034649D01*
X173330180Y-92034649D02*
X173330180Y-92177506D01*
X173330180Y-92177506D02*
X173282561Y-92320363D01*
X173282561Y-92320363D02*
X173187323Y-92415601D01*
X173187323Y-92415601D02*
X173092085Y-92463220D01*
X173092085Y-92463220D02*
X172901609Y-92510839D01*
X172901609Y-92510839D02*
X172758752Y-92510839D01*
X172758752Y-92510839D02*
X172568276Y-92463220D01*
X172568276Y-92463220D02*
X172473038Y-92415601D01*
X172473038Y-92415601D02*
X172377800Y-92320363D01*
X172377800Y-92320363D02*
X172330180Y-92177506D01*
X172330180Y-92177506D02*
X172330180Y-92082268D01*
X172330180Y-92082268D02*
X172377800Y-91939411D01*
X172377800Y-91939411D02*
X172425419Y-91891792D01*
X172425419Y-91891792D02*
X172758752Y-91891792D01*
X172758752Y-91891792D02*
X172758752Y-92082268D01*
X172996847Y-91463220D02*
X172330180Y-91463220D01*
X172901609Y-91463220D02*
X172949228Y-91415601D01*
X172949228Y-91415601D02*
X172996847Y-91320363D01*
X172996847Y-91320363D02*
X172996847Y-91177506D01*
X172996847Y-91177506D02*
X172949228Y-91082268D01*
X172949228Y-91082268D02*
X172853990Y-91034649D01*
X172853990Y-91034649D02*
X172330180Y-91034649D01*
X172330180Y-90129887D02*
X173330180Y-90129887D01*
X172377800Y-90129887D02*
X172330180Y-90225125D01*
X172330180Y-90225125D02*
X172330180Y-90415601D01*
X172330180Y-90415601D02*
X172377800Y-90510839D01*
X172377800Y-90510839D02*
X172425419Y-90558458D01*
X172425419Y-90558458D02*
X172520657Y-90606077D01*
X172520657Y-90606077D02*
X172806371Y-90606077D01*
X172806371Y-90606077D02*
X172901609Y-90558458D01*
X172901609Y-90558458D02*
X172949228Y-90510839D01*
X172949228Y-90510839D02*
X172996847Y-90415601D01*
X172996847Y-90415601D02*
X172996847Y-90225125D01*
X172996847Y-90225125D02*
X172949228Y-90129887D01*
X170524819Y-86690476D02*
X170524819Y-86880952D01*
X170524819Y-86880952D02*
X170572438Y-86976190D01*
X170572438Y-86976190D02*
X170667676Y-87071428D01*
X170667676Y-87071428D02*
X170858152Y-87119047D01*
X170858152Y-87119047D02*
X171191485Y-87119047D01*
X171191485Y-87119047D02*
X171381961Y-87071428D01*
X171381961Y-87071428D02*
X171477200Y-86976190D01*
X171477200Y-86976190D02*
X171524819Y-86880952D01*
X171524819Y-86880952D02*
X171524819Y-86690476D01*
X171524819Y-86690476D02*
X171477200Y-86595238D01*
X171477200Y-86595238D02*
X171381961Y-86500000D01*
X171381961Y-86500000D02*
X171191485Y-86452381D01*
X171191485Y-86452381D02*
X170858152Y-86452381D01*
X170858152Y-86452381D02*
X170667676Y-86500000D01*
X170667676Y-86500000D02*
X170572438Y-86595238D01*
X170572438Y-86595238D02*
X170524819Y-86690476D01*
X170858152Y-87976190D02*
X171524819Y-87976190D01*
X170858152Y-87547619D02*
X171381961Y-87547619D01*
X171381961Y-87547619D02*
X171477200Y-87595238D01*
X171477200Y-87595238D02*
X171524819Y-87690476D01*
X171524819Y-87690476D02*
X171524819Y-87833333D01*
X171524819Y-87833333D02*
X171477200Y-87928571D01*
X171477200Y-87928571D02*
X171429580Y-87976190D01*
X170858152Y-88309524D02*
X170858152Y-88690476D01*
X170524819Y-88452381D02*
X171381961Y-88452381D01*
X171381961Y-88452381D02*
X171477200Y-88500000D01*
X171477200Y-88500000D02*
X171524819Y-88595238D01*
X171524819Y-88595238D02*
X171524819Y-88690476D01*
X170524819Y-88928572D02*
X170524819Y-89547619D01*
X170524819Y-89547619D02*
X170905771Y-89214286D01*
X170905771Y-89214286D02*
X170905771Y-89357143D01*
X170905771Y-89357143D02*
X170953390Y-89452381D01*
X170953390Y-89452381D02*
X171001009Y-89500000D01*
X171001009Y-89500000D02*
X171096247Y-89547619D01*
X171096247Y-89547619D02*
X171334342Y-89547619D01*
X171334342Y-89547619D02*
X171429580Y-89500000D01*
X171429580Y-89500000D02*
X171477200Y-89452381D01*
X171477200Y-89452381D02*
X171524819Y-89357143D01*
X171524819Y-89357143D02*
X171524819Y-89071429D01*
X171524819Y-89071429D02*
X171477200Y-88976191D01*
X171477200Y-88976191D02*
X171429580Y-88928572D01*
X170184819Y-107090476D02*
X170184819Y-107280952D01*
X170184819Y-107280952D02*
X170232438Y-107376190D01*
X170232438Y-107376190D02*
X170327676Y-107471428D01*
X170327676Y-107471428D02*
X170518152Y-107519047D01*
X170518152Y-107519047D02*
X170851485Y-107519047D01*
X170851485Y-107519047D02*
X171041961Y-107471428D01*
X171041961Y-107471428D02*
X171137200Y-107376190D01*
X171137200Y-107376190D02*
X171184819Y-107280952D01*
X171184819Y-107280952D02*
X171184819Y-107090476D01*
X171184819Y-107090476D02*
X171137200Y-106995238D01*
X171137200Y-106995238D02*
X171041961Y-106900000D01*
X171041961Y-106900000D02*
X170851485Y-106852381D01*
X170851485Y-106852381D02*
X170518152Y-106852381D01*
X170518152Y-106852381D02*
X170327676Y-106900000D01*
X170327676Y-106900000D02*
X170232438Y-106995238D01*
X170232438Y-106995238D02*
X170184819Y-107090476D01*
X170518152Y-108376190D02*
X171184819Y-108376190D01*
X170518152Y-107947619D02*
X171041961Y-107947619D01*
X171041961Y-107947619D02*
X171137200Y-107995238D01*
X171137200Y-107995238D02*
X171184819Y-108090476D01*
X171184819Y-108090476D02*
X171184819Y-108233333D01*
X171184819Y-108233333D02*
X171137200Y-108328571D01*
X171137200Y-108328571D02*
X171089580Y-108376190D01*
X170518152Y-108709524D02*
X170518152Y-109090476D01*
X170184819Y-108852381D02*
X171041961Y-108852381D01*
X171041961Y-108852381D02*
X171137200Y-108900000D01*
X171137200Y-108900000D02*
X171184819Y-108995238D01*
X171184819Y-108995238D02*
X171184819Y-109090476D01*
X170280057Y-109376191D02*
X170232438Y-109423810D01*
X170232438Y-109423810D02*
X170184819Y-109519048D01*
X170184819Y-109519048D02*
X170184819Y-109757143D01*
X170184819Y-109757143D02*
X170232438Y-109852381D01*
X170232438Y-109852381D02*
X170280057Y-109900000D01*
X170280057Y-109900000D02*
X170375295Y-109947619D01*
X170375295Y-109947619D02*
X170470533Y-109947619D01*
X170470533Y-109947619D02*
X170613390Y-109900000D01*
X170613390Y-109900000D02*
X171184819Y-109328572D01*
X171184819Y-109328572D02*
X171184819Y-109947619D01*
D11*
%TO.C,Out3*%
X179810000Y-86670000D02*
X179810000Y-89330000D01*
X174670000Y-86670000D02*
X179810000Y-86670000D01*
X174670000Y-86670000D02*
X174670000Y-89330000D01*
X173400000Y-86670000D02*
X172070000Y-86670000D01*
X172070000Y-86670000D02*
X172070000Y-88000000D01*
X174670000Y-89330000D02*
X179810000Y-89330000D01*
%TO.C,Out2*%
X179470000Y-107070000D02*
X179470000Y-109730000D01*
X174330000Y-107070000D02*
X179470000Y-107070000D01*
X174330000Y-107070000D02*
X174330000Y-109730000D01*
X173060000Y-107070000D02*
X171730000Y-107070000D01*
X171730000Y-107070000D02*
X171730000Y-108400000D01*
X174330000Y-109730000D02*
X179470000Y-109730000D01*
%TD*%
M02*
