%TF.GenerationSoftware,KiCad,Pcbnew,7.0.9*%
%TF.CreationDate,2024-06-08T14:41:26-04:00*%
%TF.ProjectId,IO,494f2e6b-6963-4616-945f-706362585858,rev?*%
%TF.SameCoordinates,Original*%
%TF.FileFunction,Soldermask,Top*%
%TF.FilePolarity,Negative*%
%FSLAX46Y46*%
G04 Gerber Fmt 4.6, Leading zero omitted, Abs format (unit mm)*
G04 Created by KiCad (PCBNEW 7.0.9) date 2024-06-08 14:41:26*
%MOMM*%
%LPD*%
G01*
G04 APERTURE LIST*
%ADD10R,1.700000X1.700000*%
%ADD11O,1.700000X1.700000*%
%ADD12O,1.600000X1.600000*%
%ADD13C,1.600000*%
%ADD14C,3.000000*%
%ADD15R,1.500000X1.050000*%
%ADD16O,1.500000X1.050000*%
%ADD17C,1.800000*%
%ADD18R,1.800000X1.800000*%
%ADD19R,1.400000X1.400000*%
%ADD20C,1.400000*%
%ADD21R,2.000000X2.000000*%
%ADD22C,2.000000*%
%ADD23R,2.000000X1.905000*%
%ADD24O,2.000000X1.905000*%
G04 APERTURE END LIST*
D10*
%TO.C,Out3*%
X173400000Y-88000000D03*
D11*
X175940000Y-88000000D03*
X178480000Y-88000000D03*
%TD*%
D10*
%TO.C,Out2*%
X173060000Y-108400000D03*
D11*
X175600000Y-108400000D03*
X178140000Y-108400000D03*
%TD*%
D12*
%TO.C,RLed2*%
X136790000Y-89400000D03*
D13*
X144410000Y-89400000D03*
%TD*%
D12*
%TO.C,RLed1*%
X136790000Y-86200000D03*
D13*
X144410000Y-86200000D03*
%TD*%
%TO.C,RPD1*%
X148210000Y-102200000D03*
D12*
X140590000Y-102200000D03*
%TD*%
D13*
%TO.C,RGate1*%
X140590000Y-105800000D03*
D12*
X148210000Y-105800000D03*
%TD*%
D14*
%TO.C,B1*%
X175825000Y-80385000D03*
X175825000Y-96615000D03*
X182175000Y-80385000D03*
X182175000Y-96615000D03*
X169475000Y-80385000D03*
X169475000Y-96615000D03*
%TD*%
D15*
%TO.C,QL1*%
X154760000Y-106070000D03*
D16*
X154760000Y-104800000D03*
X154760000Y-103530000D03*
%TD*%
D17*
%TO.C,LEDB1*%
X139265000Y-81200000D03*
D18*
X136725000Y-81200000D03*
%TD*%
D10*
%TO.C,J3*%
X136200000Y-113000000D03*
D11*
X138740000Y-113000000D03*
%TD*%
D14*
%TO.C,A1*%
X175825000Y-101135000D03*
X175825000Y-117365000D03*
X182175000Y-101135000D03*
X182175000Y-117365000D03*
X169475000Y-101135000D03*
X169475000Y-117365000D03*
%TD*%
D19*
%TO.C,Left/Mono1*%
X158362500Y-97607500D03*
D20*
X158362500Y-89987500D03*
X158362500Y-84907500D03*
X158362500Y-79827500D03*
X150742500Y-79827500D03*
X150742500Y-84907500D03*
X150742500Y-89987500D03*
X150742500Y-97607500D03*
%TD*%
D21*
%TO.C,C1*%
X153400000Y-116017677D03*
D22*
X153400000Y-112517677D03*
%TD*%
D23*
%TO.C,U1*%
X145145000Y-116740000D03*
D24*
X145145000Y-114200000D03*
X145145000Y-111660000D03*
%TD*%
D10*
%TO.C,J1*%
X136400000Y-105600000D03*
%TD*%
D18*
%TO.C,D2*%
X146875000Y-81200000D03*
D17*
X144335000Y-81200000D03*
%TD*%
D10*
%TO.C,J2*%
X136200000Y-117500000D03*
D11*
X138740000Y-117500000D03*
%TD*%
D10*
%TO.C,Out1*%
X136400000Y-98325000D03*
D11*
X136400000Y-95785000D03*
X136400000Y-93245000D03*
%TD*%
M02*
