%TF.GenerationSoftware,KiCad,Pcbnew,7.0.9*%
%TF.CreationDate,2024-06-08T14:41:26-04:00*%
%TF.ProjectId,IO,494f2e6b-6963-4616-945f-706362585858,rev?*%
%TF.SameCoordinates,Original*%
%TF.FileFunction,Legend,Top*%
%TF.FilePolarity,Positive*%
%FSLAX46Y46*%
G04 Gerber Fmt 4.6, Leading zero omitted, Abs format (unit mm)*
G04 Created by KiCad (PCBNEW 7.0.9) date 2024-06-08 14:41:26*
%MOMM*%
%LPD*%
G01*
G04 APERTURE LIST*
%ADD10C,0.150000*%
%ADD11C,0.120000*%
G04 APERTURE END LIST*
D10*
X135359398Y-110869819D02*
X135549874Y-110869819D01*
X135549874Y-110869819D02*
X135645112Y-110822200D01*
X135645112Y-110822200D02*
X135692731Y-110774580D01*
X135692731Y-110774580D02*
X135787969Y-110631723D01*
X135787969Y-110631723D02*
X135835588Y-110441247D01*
X135835588Y-110441247D02*
X135835588Y-110060295D01*
X135835588Y-110060295D02*
X135787969Y-109965057D01*
X135787969Y-109965057D02*
X135740350Y-109917438D01*
X135740350Y-109917438D02*
X135645112Y-109869819D01*
X135645112Y-109869819D02*
X135454636Y-109869819D01*
X135454636Y-109869819D02*
X135359398Y-109917438D01*
X135359398Y-109917438D02*
X135311779Y-109965057D01*
X135311779Y-109965057D02*
X135264160Y-110060295D01*
X135264160Y-110060295D02*
X135264160Y-110298390D01*
X135264160Y-110298390D02*
X135311779Y-110393628D01*
X135311779Y-110393628D02*
X135359398Y-110441247D01*
X135359398Y-110441247D02*
X135454636Y-110488866D01*
X135454636Y-110488866D02*
X135645112Y-110488866D01*
X135645112Y-110488866D02*
X135740350Y-110441247D01*
X135740350Y-110441247D02*
X135787969Y-110393628D01*
X135787969Y-110393628D02*
X135835588Y-110298390D01*
X136168922Y-110203152D02*
X136407017Y-110869819D01*
X136407017Y-110869819D02*
X136645112Y-110203152D01*
X138311779Y-109917438D02*
X138216541Y-109869819D01*
X138216541Y-109869819D02*
X138073684Y-109869819D01*
X138073684Y-109869819D02*
X137930827Y-109917438D01*
X137930827Y-109917438D02*
X137835589Y-110012676D01*
X137835589Y-110012676D02*
X137787970Y-110107914D01*
X137787970Y-110107914D02*
X137740351Y-110298390D01*
X137740351Y-110298390D02*
X137740351Y-110441247D01*
X137740351Y-110441247D02*
X137787970Y-110631723D01*
X137787970Y-110631723D02*
X137835589Y-110726961D01*
X137835589Y-110726961D02*
X137930827Y-110822200D01*
X137930827Y-110822200D02*
X138073684Y-110869819D01*
X138073684Y-110869819D02*
X138168922Y-110869819D01*
X138168922Y-110869819D02*
X138311779Y-110822200D01*
X138311779Y-110822200D02*
X138359398Y-110774580D01*
X138359398Y-110774580D02*
X138359398Y-110441247D01*
X138359398Y-110441247D02*
X138168922Y-110441247D01*
X138787970Y-110203152D02*
X138787970Y-110869819D01*
X138787970Y-110298390D02*
X138835589Y-110250771D01*
X138835589Y-110250771D02*
X138930827Y-110203152D01*
X138930827Y-110203152D02*
X139073684Y-110203152D01*
X139073684Y-110203152D02*
X139168922Y-110250771D01*
X139168922Y-110250771D02*
X139216541Y-110346009D01*
X139216541Y-110346009D02*
X139216541Y-110869819D01*
X140121303Y-110869819D02*
X140121303Y-109869819D01*
X140121303Y-110822200D02*
X140026065Y-110869819D01*
X140026065Y-110869819D02*
X139835589Y-110869819D01*
X139835589Y-110869819D02*
X139740351Y-110822200D01*
X139740351Y-110822200D02*
X139692732Y-110774580D01*
X139692732Y-110774580D02*
X139645113Y-110679342D01*
X139645113Y-110679342D02*
X139645113Y-110393628D01*
X139645113Y-110393628D02*
X139692732Y-110298390D01*
X139692732Y-110298390D02*
X139740351Y-110250771D01*
X139740351Y-110250771D02*
X139835589Y-110203152D01*
X139835589Y-110203152D02*
X140026065Y-110203152D01*
X140026065Y-110203152D02*
X140121303Y-110250771D01*
X135708207Y-103374580D02*
X135660588Y-103422200D01*
X135660588Y-103422200D02*
X135517731Y-103469819D01*
X135517731Y-103469819D02*
X135422493Y-103469819D01*
X135422493Y-103469819D02*
X135279636Y-103422200D01*
X135279636Y-103422200D02*
X135184398Y-103326961D01*
X135184398Y-103326961D02*
X135136779Y-103231723D01*
X135136779Y-103231723D02*
X135089160Y-103041247D01*
X135089160Y-103041247D02*
X135089160Y-102898390D01*
X135089160Y-102898390D02*
X135136779Y-102707914D01*
X135136779Y-102707914D02*
X135184398Y-102612676D01*
X135184398Y-102612676D02*
X135279636Y-102517438D01*
X135279636Y-102517438D02*
X135422493Y-102469819D01*
X135422493Y-102469819D02*
X135517731Y-102469819D01*
X135517731Y-102469819D02*
X135660588Y-102517438D01*
X135660588Y-102517438D02*
X135708207Y-102565057D01*
X135993922Y-102803152D02*
X136374874Y-102803152D01*
X136136779Y-102469819D02*
X136136779Y-103326961D01*
X136136779Y-103326961D02*
X136184398Y-103422200D01*
X136184398Y-103422200D02*
X136279636Y-103469819D01*
X136279636Y-103469819D02*
X136374874Y-103469819D01*
X136708208Y-103469819D02*
X136708208Y-102803152D01*
X136708208Y-102993628D02*
X136755827Y-102898390D01*
X136755827Y-102898390D02*
X136803446Y-102850771D01*
X136803446Y-102850771D02*
X136898684Y-102803152D01*
X136898684Y-102803152D02*
X136993922Y-102803152D01*
X137470113Y-103469819D02*
X137374875Y-103422200D01*
X137374875Y-103422200D02*
X137327256Y-103326961D01*
X137327256Y-103326961D02*
X137327256Y-102469819D01*
X139908207Y-93354819D02*
X139574874Y-92878628D01*
X139336779Y-93354819D02*
X139336779Y-92354819D01*
X139336779Y-92354819D02*
X139717731Y-92354819D01*
X139717731Y-92354819D02*
X139812969Y-92402438D01*
X139812969Y-92402438D02*
X139860588Y-92450057D01*
X139860588Y-92450057D02*
X139908207Y-92545295D01*
X139908207Y-92545295D02*
X139908207Y-92688152D01*
X139908207Y-92688152D02*
X139860588Y-92783390D01*
X139860588Y-92783390D02*
X139812969Y-92831009D01*
X139812969Y-92831009D02*
X139717731Y-92878628D01*
X139717731Y-92878628D02*
X139336779Y-92878628D01*
X139812969Y-96574819D02*
X139336779Y-96574819D01*
X139336779Y-96574819D02*
X139336779Y-95574819D01*
X139860588Y-98842438D02*
X139765350Y-98794819D01*
X139765350Y-98794819D02*
X139622493Y-98794819D01*
X139622493Y-98794819D02*
X139479636Y-98842438D01*
X139479636Y-98842438D02*
X139384398Y-98937676D01*
X139384398Y-98937676D02*
X139336779Y-99032914D01*
X139336779Y-99032914D02*
X139289160Y-99223390D01*
X139289160Y-99223390D02*
X139289160Y-99366247D01*
X139289160Y-99366247D02*
X139336779Y-99556723D01*
X139336779Y-99556723D02*
X139384398Y-99651961D01*
X139384398Y-99651961D02*
X139479636Y-99747200D01*
X139479636Y-99747200D02*
X139622493Y-99794819D01*
X139622493Y-99794819D02*
X139717731Y-99794819D01*
X139717731Y-99794819D02*
X139860588Y-99747200D01*
X139860588Y-99747200D02*
X139908207Y-99699580D01*
X139908207Y-99699580D02*
X139908207Y-99366247D01*
X139908207Y-99366247D02*
X139717731Y-99366247D01*
X140336779Y-99128152D02*
X140336779Y-99794819D01*
X140336779Y-99223390D02*
X140384398Y-99175771D01*
X140384398Y-99175771D02*
X140479636Y-99128152D01*
X140479636Y-99128152D02*
X140622493Y-99128152D01*
X140622493Y-99128152D02*
X140717731Y-99175771D01*
X140717731Y-99175771D02*
X140765350Y-99271009D01*
X140765350Y-99271009D02*
X140765350Y-99794819D01*
X141670112Y-99794819D02*
X141670112Y-98794819D01*
X141670112Y-99747200D02*
X141574874Y-99794819D01*
X141574874Y-99794819D02*
X141384398Y-99794819D01*
X141384398Y-99794819D02*
X141289160Y-99747200D01*
X141289160Y-99747200D02*
X141241541Y-99699580D01*
X141241541Y-99699580D02*
X141193922Y-99604342D01*
X141193922Y-99604342D02*
X141193922Y-99318628D01*
X141193922Y-99318628D02*
X141241541Y-99223390D01*
X141241541Y-99223390D02*
X141289160Y-99175771D01*
X141289160Y-99175771D02*
X141384398Y-99128152D01*
X141384398Y-99128152D02*
X141574874Y-99128152D01*
X141574874Y-99128152D02*
X141670112Y-99175771D01*
X139147618Y-89854819D02*
X138814285Y-89378628D01*
X138576190Y-89854819D02*
X138576190Y-88854819D01*
X138576190Y-88854819D02*
X138957142Y-88854819D01*
X138957142Y-88854819D02*
X139052380Y-88902438D01*
X139052380Y-88902438D02*
X139099999Y-88950057D01*
X139099999Y-88950057D02*
X139147618Y-89045295D01*
X139147618Y-89045295D02*
X139147618Y-89188152D01*
X139147618Y-89188152D02*
X139099999Y-89283390D01*
X139099999Y-89283390D02*
X139052380Y-89331009D01*
X139052380Y-89331009D02*
X138957142Y-89378628D01*
X138957142Y-89378628D02*
X138576190Y-89378628D01*
X140052380Y-89854819D02*
X139576190Y-89854819D01*
X139576190Y-89854819D02*
X139576190Y-88854819D01*
X140766666Y-89807200D02*
X140671428Y-89854819D01*
X140671428Y-89854819D02*
X140480952Y-89854819D01*
X140480952Y-89854819D02*
X140385714Y-89807200D01*
X140385714Y-89807200D02*
X140338095Y-89711961D01*
X140338095Y-89711961D02*
X140338095Y-89331009D01*
X140338095Y-89331009D02*
X140385714Y-89235771D01*
X140385714Y-89235771D02*
X140480952Y-89188152D01*
X140480952Y-89188152D02*
X140671428Y-89188152D01*
X140671428Y-89188152D02*
X140766666Y-89235771D01*
X140766666Y-89235771D02*
X140814285Y-89331009D01*
X140814285Y-89331009D02*
X140814285Y-89426247D01*
X140814285Y-89426247D02*
X140338095Y-89521485D01*
X141671428Y-89854819D02*
X141671428Y-88854819D01*
X141671428Y-89807200D02*
X141576190Y-89854819D01*
X141576190Y-89854819D02*
X141385714Y-89854819D01*
X141385714Y-89854819D02*
X141290476Y-89807200D01*
X141290476Y-89807200D02*
X141242857Y-89759580D01*
X141242857Y-89759580D02*
X141195238Y-89664342D01*
X141195238Y-89664342D02*
X141195238Y-89378628D01*
X141195238Y-89378628D02*
X141242857Y-89283390D01*
X141242857Y-89283390D02*
X141290476Y-89235771D01*
X141290476Y-89235771D02*
X141385714Y-89188152D01*
X141385714Y-89188152D02*
X141576190Y-89188152D01*
X141576190Y-89188152D02*
X141671428Y-89235771D01*
X142100000Y-88950057D02*
X142147619Y-88902438D01*
X142147619Y-88902438D02*
X142242857Y-88854819D01*
X142242857Y-88854819D02*
X142480952Y-88854819D01*
X142480952Y-88854819D02*
X142576190Y-88902438D01*
X142576190Y-88902438D02*
X142623809Y-88950057D01*
X142623809Y-88950057D02*
X142671428Y-89045295D01*
X142671428Y-89045295D02*
X142671428Y-89140533D01*
X142671428Y-89140533D02*
X142623809Y-89283390D01*
X142623809Y-89283390D02*
X142052381Y-89854819D01*
X142052381Y-89854819D02*
X142671428Y-89854819D01*
X139147618Y-86854819D02*
X138814285Y-86378628D01*
X138576190Y-86854819D02*
X138576190Y-85854819D01*
X138576190Y-85854819D02*
X138957142Y-85854819D01*
X138957142Y-85854819D02*
X139052380Y-85902438D01*
X139052380Y-85902438D02*
X139099999Y-85950057D01*
X139099999Y-85950057D02*
X139147618Y-86045295D01*
X139147618Y-86045295D02*
X139147618Y-86188152D01*
X139147618Y-86188152D02*
X139099999Y-86283390D01*
X139099999Y-86283390D02*
X139052380Y-86331009D01*
X139052380Y-86331009D02*
X138957142Y-86378628D01*
X138957142Y-86378628D02*
X138576190Y-86378628D01*
X140052380Y-86854819D02*
X139576190Y-86854819D01*
X139576190Y-86854819D02*
X139576190Y-85854819D01*
X140766666Y-86807200D02*
X140671428Y-86854819D01*
X140671428Y-86854819D02*
X140480952Y-86854819D01*
X140480952Y-86854819D02*
X140385714Y-86807200D01*
X140385714Y-86807200D02*
X140338095Y-86711961D01*
X140338095Y-86711961D02*
X140338095Y-86331009D01*
X140338095Y-86331009D02*
X140385714Y-86235771D01*
X140385714Y-86235771D02*
X140480952Y-86188152D01*
X140480952Y-86188152D02*
X140671428Y-86188152D01*
X140671428Y-86188152D02*
X140766666Y-86235771D01*
X140766666Y-86235771D02*
X140814285Y-86331009D01*
X140814285Y-86331009D02*
X140814285Y-86426247D01*
X140814285Y-86426247D02*
X140338095Y-86521485D01*
X141671428Y-86854819D02*
X141671428Y-85854819D01*
X141671428Y-86807200D02*
X141576190Y-86854819D01*
X141576190Y-86854819D02*
X141385714Y-86854819D01*
X141385714Y-86854819D02*
X141290476Y-86807200D01*
X141290476Y-86807200D02*
X141242857Y-86759580D01*
X141242857Y-86759580D02*
X141195238Y-86664342D01*
X141195238Y-86664342D02*
X141195238Y-86378628D01*
X141195238Y-86378628D02*
X141242857Y-86283390D01*
X141242857Y-86283390D02*
X141290476Y-86235771D01*
X141290476Y-86235771D02*
X141385714Y-86188152D01*
X141385714Y-86188152D02*
X141576190Y-86188152D01*
X141576190Y-86188152D02*
X141671428Y-86235771D01*
X142671428Y-86854819D02*
X142100000Y-86854819D01*
X142385714Y-86854819D02*
X142385714Y-85854819D01*
X142385714Y-85854819D02*
X142290476Y-85997676D01*
X142290476Y-85997676D02*
X142195238Y-86092914D01*
X142195238Y-86092914D02*
X142100000Y-86140533D01*
X143233333Y-105024819D02*
X142900000Y-104548628D01*
X142661905Y-105024819D02*
X142661905Y-104024819D01*
X142661905Y-104024819D02*
X143042857Y-104024819D01*
X143042857Y-104024819D02*
X143138095Y-104072438D01*
X143138095Y-104072438D02*
X143185714Y-104120057D01*
X143185714Y-104120057D02*
X143233333Y-104215295D01*
X143233333Y-104215295D02*
X143233333Y-104358152D01*
X143233333Y-104358152D02*
X143185714Y-104453390D01*
X143185714Y-104453390D02*
X143138095Y-104501009D01*
X143138095Y-104501009D02*
X143042857Y-104548628D01*
X143042857Y-104548628D02*
X142661905Y-104548628D01*
X143661905Y-105024819D02*
X143661905Y-104024819D01*
X143661905Y-104024819D02*
X144042857Y-104024819D01*
X144042857Y-104024819D02*
X144138095Y-104072438D01*
X144138095Y-104072438D02*
X144185714Y-104120057D01*
X144185714Y-104120057D02*
X144233333Y-104215295D01*
X144233333Y-104215295D02*
X144233333Y-104358152D01*
X144233333Y-104358152D02*
X144185714Y-104453390D01*
X144185714Y-104453390D02*
X144138095Y-104501009D01*
X144138095Y-104501009D02*
X144042857Y-104548628D01*
X144042857Y-104548628D02*
X143661905Y-104548628D01*
X144661905Y-105024819D02*
X144661905Y-104024819D01*
X144661905Y-104024819D02*
X144900000Y-104024819D01*
X144900000Y-104024819D02*
X145042857Y-104072438D01*
X145042857Y-104072438D02*
X145138095Y-104167676D01*
X145138095Y-104167676D02*
X145185714Y-104262914D01*
X145185714Y-104262914D02*
X145233333Y-104453390D01*
X145233333Y-104453390D02*
X145233333Y-104596247D01*
X145233333Y-104596247D02*
X145185714Y-104786723D01*
X145185714Y-104786723D02*
X145138095Y-104881961D01*
X145138095Y-104881961D02*
X145042857Y-104977200D01*
X145042857Y-104977200D02*
X144900000Y-105024819D01*
X144900000Y-105024819D02*
X144661905Y-105024819D01*
X146185714Y-105024819D02*
X145614286Y-105024819D01*
X145900000Y-105024819D02*
X145900000Y-104024819D01*
X145900000Y-104024819D02*
X145804762Y-104167676D01*
X145804762Y-104167676D02*
X145709524Y-104262914D01*
X145709524Y-104262914D02*
X145614286Y-104310533D01*
X142566666Y-103884819D02*
X142233333Y-103408628D01*
X141995238Y-103884819D02*
X141995238Y-102884819D01*
X141995238Y-102884819D02*
X142376190Y-102884819D01*
X142376190Y-102884819D02*
X142471428Y-102932438D01*
X142471428Y-102932438D02*
X142519047Y-102980057D01*
X142519047Y-102980057D02*
X142566666Y-103075295D01*
X142566666Y-103075295D02*
X142566666Y-103218152D01*
X142566666Y-103218152D02*
X142519047Y-103313390D01*
X142519047Y-103313390D02*
X142471428Y-103361009D01*
X142471428Y-103361009D02*
X142376190Y-103408628D01*
X142376190Y-103408628D02*
X141995238Y-103408628D01*
X143519047Y-102932438D02*
X143423809Y-102884819D01*
X143423809Y-102884819D02*
X143280952Y-102884819D01*
X143280952Y-102884819D02*
X143138095Y-102932438D01*
X143138095Y-102932438D02*
X143042857Y-103027676D01*
X143042857Y-103027676D02*
X142995238Y-103122914D01*
X142995238Y-103122914D02*
X142947619Y-103313390D01*
X142947619Y-103313390D02*
X142947619Y-103456247D01*
X142947619Y-103456247D02*
X142995238Y-103646723D01*
X142995238Y-103646723D02*
X143042857Y-103741961D01*
X143042857Y-103741961D02*
X143138095Y-103837200D01*
X143138095Y-103837200D02*
X143280952Y-103884819D01*
X143280952Y-103884819D02*
X143376190Y-103884819D01*
X143376190Y-103884819D02*
X143519047Y-103837200D01*
X143519047Y-103837200D02*
X143566666Y-103789580D01*
X143566666Y-103789580D02*
X143566666Y-103456247D01*
X143566666Y-103456247D02*
X143376190Y-103456247D01*
X144423809Y-103884819D02*
X144423809Y-103361009D01*
X144423809Y-103361009D02*
X144376190Y-103265771D01*
X144376190Y-103265771D02*
X144280952Y-103218152D01*
X144280952Y-103218152D02*
X144090476Y-103218152D01*
X144090476Y-103218152D02*
X143995238Y-103265771D01*
X144423809Y-103837200D02*
X144328571Y-103884819D01*
X144328571Y-103884819D02*
X144090476Y-103884819D01*
X144090476Y-103884819D02*
X143995238Y-103837200D01*
X143995238Y-103837200D02*
X143947619Y-103741961D01*
X143947619Y-103741961D02*
X143947619Y-103646723D01*
X143947619Y-103646723D02*
X143995238Y-103551485D01*
X143995238Y-103551485D02*
X144090476Y-103503866D01*
X144090476Y-103503866D02*
X144328571Y-103503866D01*
X144328571Y-103503866D02*
X144423809Y-103456247D01*
X144757143Y-103218152D02*
X145138095Y-103218152D01*
X144900000Y-102884819D02*
X144900000Y-103741961D01*
X144900000Y-103741961D02*
X144947619Y-103837200D01*
X144947619Y-103837200D02*
X145042857Y-103884819D01*
X145042857Y-103884819D02*
X145138095Y-103884819D01*
X145852381Y-103837200D02*
X145757143Y-103884819D01*
X145757143Y-103884819D02*
X145566667Y-103884819D01*
X145566667Y-103884819D02*
X145471429Y-103837200D01*
X145471429Y-103837200D02*
X145423810Y-103741961D01*
X145423810Y-103741961D02*
X145423810Y-103361009D01*
X145423810Y-103361009D02*
X145471429Y-103265771D01*
X145471429Y-103265771D02*
X145566667Y-103218152D01*
X145566667Y-103218152D02*
X145757143Y-103218152D01*
X145757143Y-103218152D02*
X145852381Y-103265771D01*
X145852381Y-103265771D02*
X145900000Y-103361009D01*
X145900000Y-103361009D02*
X145900000Y-103456247D01*
X145900000Y-103456247D02*
X145423810Y-103551485D01*
X146852381Y-103884819D02*
X146280953Y-103884819D01*
X146566667Y-103884819D02*
X146566667Y-102884819D01*
X146566667Y-102884819D02*
X146471429Y-103027676D01*
X146471429Y-103027676D02*
X146376191Y-103122914D01*
X146376191Y-103122914D02*
X146280953Y-103170533D01*
X174095238Y-86931009D02*
X174238095Y-86978628D01*
X174238095Y-86978628D02*
X174285714Y-87026247D01*
X174285714Y-87026247D02*
X174333333Y-87121485D01*
X174333333Y-87121485D02*
X174333333Y-87264342D01*
X174333333Y-87264342D02*
X174285714Y-87359580D01*
X174285714Y-87359580D02*
X174238095Y-87407200D01*
X174238095Y-87407200D02*
X174142857Y-87454819D01*
X174142857Y-87454819D02*
X173761905Y-87454819D01*
X173761905Y-87454819D02*
X173761905Y-86454819D01*
X173761905Y-86454819D02*
X174095238Y-86454819D01*
X174095238Y-86454819D02*
X174190476Y-86502438D01*
X174190476Y-86502438D02*
X174238095Y-86550057D01*
X174238095Y-86550057D02*
X174285714Y-86645295D01*
X174285714Y-86645295D02*
X174285714Y-86740533D01*
X174285714Y-86740533D02*
X174238095Y-86835771D01*
X174238095Y-86835771D02*
X174190476Y-86883390D01*
X174190476Y-86883390D02*
X174095238Y-86931009D01*
X174095238Y-86931009D02*
X173761905Y-86931009D01*
X175285714Y-87454819D02*
X174714286Y-87454819D01*
X175000000Y-87454819D02*
X175000000Y-86454819D01*
X175000000Y-86454819D02*
X174904762Y-86597676D01*
X174904762Y-86597676D02*
X174809524Y-86692914D01*
X174809524Y-86692914D02*
X174714286Y-86740533D01*
X151750057Y-105300000D02*
X151702438Y-105395238D01*
X151702438Y-105395238D02*
X151607200Y-105490476D01*
X151607200Y-105490476D02*
X151464342Y-105633333D01*
X151464342Y-105633333D02*
X151416723Y-105728571D01*
X151416723Y-105728571D02*
X151416723Y-105823809D01*
X151654819Y-105776190D02*
X151607200Y-105871428D01*
X151607200Y-105871428D02*
X151511961Y-105966666D01*
X151511961Y-105966666D02*
X151321485Y-106014285D01*
X151321485Y-106014285D02*
X150988152Y-106014285D01*
X150988152Y-106014285D02*
X150797676Y-105966666D01*
X150797676Y-105966666D02*
X150702438Y-105871428D01*
X150702438Y-105871428D02*
X150654819Y-105776190D01*
X150654819Y-105776190D02*
X150654819Y-105585714D01*
X150654819Y-105585714D02*
X150702438Y-105490476D01*
X150702438Y-105490476D02*
X150797676Y-105395238D01*
X150797676Y-105395238D02*
X150988152Y-105347619D01*
X150988152Y-105347619D02*
X151321485Y-105347619D01*
X151321485Y-105347619D02*
X151511961Y-105395238D01*
X151511961Y-105395238D02*
X151607200Y-105490476D01*
X151607200Y-105490476D02*
X151654819Y-105585714D01*
X151654819Y-105585714D02*
X151654819Y-105776190D01*
X151654819Y-104442857D02*
X151654819Y-104919047D01*
X151654819Y-104919047D02*
X150654819Y-104919047D01*
X151654819Y-103585714D02*
X151654819Y-104157142D01*
X151654819Y-103871428D02*
X150654819Y-103871428D01*
X150654819Y-103871428D02*
X150797676Y-103966666D01*
X150797676Y-103966666D02*
X150892914Y-104061904D01*
X150892914Y-104061904D02*
X150940533Y-104157142D01*
X136375952Y-77694819D02*
X135899762Y-77694819D01*
X135899762Y-77694819D02*
X135899762Y-76694819D01*
X136709286Y-77171009D02*
X137042619Y-77171009D01*
X137185476Y-77694819D02*
X136709286Y-77694819D01*
X136709286Y-77694819D02*
X136709286Y-76694819D01*
X136709286Y-76694819D02*
X137185476Y-76694819D01*
X137614048Y-77694819D02*
X137614048Y-76694819D01*
X137614048Y-76694819D02*
X137852143Y-76694819D01*
X137852143Y-76694819D02*
X137995000Y-76742438D01*
X137995000Y-76742438D02*
X138090238Y-76837676D01*
X138090238Y-76837676D02*
X138137857Y-76932914D01*
X138137857Y-76932914D02*
X138185476Y-77123390D01*
X138185476Y-77123390D02*
X138185476Y-77266247D01*
X138185476Y-77266247D02*
X138137857Y-77456723D01*
X138137857Y-77456723D02*
X138090238Y-77551961D01*
X138090238Y-77551961D02*
X137995000Y-77647200D01*
X137995000Y-77647200D02*
X137852143Y-77694819D01*
X137852143Y-77694819D02*
X137614048Y-77694819D01*
X138947381Y-77171009D02*
X139090238Y-77218628D01*
X139090238Y-77218628D02*
X139137857Y-77266247D01*
X139137857Y-77266247D02*
X139185476Y-77361485D01*
X139185476Y-77361485D02*
X139185476Y-77504342D01*
X139185476Y-77504342D02*
X139137857Y-77599580D01*
X139137857Y-77599580D02*
X139090238Y-77647200D01*
X139090238Y-77647200D02*
X138995000Y-77694819D01*
X138995000Y-77694819D02*
X138614048Y-77694819D01*
X138614048Y-77694819D02*
X138614048Y-76694819D01*
X138614048Y-76694819D02*
X138947381Y-76694819D01*
X138947381Y-76694819D02*
X139042619Y-76742438D01*
X139042619Y-76742438D02*
X139090238Y-76790057D01*
X139090238Y-76790057D02*
X139137857Y-76885295D01*
X139137857Y-76885295D02*
X139137857Y-76980533D01*
X139137857Y-76980533D02*
X139090238Y-77075771D01*
X139090238Y-77075771D02*
X139042619Y-77123390D01*
X139042619Y-77123390D02*
X138947381Y-77171009D01*
X138947381Y-77171009D02*
X138614048Y-77171009D01*
X140137857Y-77694819D02*
X139566429Y-77694819D01*
X139852143Y-77694819D02*
X139852143Y-76694819D01*
X139852143Y-76694819D02*
X139756905Y-76837676D01*
X139756905Y-76837676D02*
X139661667Y-76932914D01*
X139661667Y-76932914D02*
X139566429Y-76980533D01*
X173035714Y-108169104D02*
X173511904Y-108169104D01*
X172940476Y-108454819D02*
X173273809Y-107454819D01*
X173273809Y-107454819D02*
X173607142Y-108454819D01*
X174464285Y-108454819D02*
X173892857Y-108454819D01*
X174178571Y-108454819D02*
X174178571Y-107454819D01*
X174178571Y-107454819D02*
X174083333Y-107597676D01*
X174083333Y-107597676D02*
X173988095Y-107692914D01*
X173988095Y-107692914D02*
X173892857Y-107740533D01*
X150933451Y-94204819D02*
X150457261Y-94204819D01*
X150457261Y-94204819D02*
X150457261Y-93204819D01*
X151647737Y-94157200D02*
X151552499Y-94204819D01*
X151552499Y-94204819D02*
X151362023Y-94204819D01*
X151362023Y-94204819D02*
X151266785Y-94157200D01*
X151266785Y-94157200D02*
X151219166Y-94061961D01*
X151219166Y-94061961D02*
X151219166Y-93681009D01*
X151219166Y-93681009D02*
X151266785Y-93585771D01*
X151266785Y-93585771D02*
X151362023Y-93538152D01*
X151362023Y-93538152D02*
X151552499Y-93538152D01*
X151552499Y-93538152D02*
X151647737Y-93585771D01*
X151647737Y-93585771D02*
X151695356Y-93681009D01*
X151695356Y-93681009D02*
X151695356Y-93776247D01*
X151695356Y-93776247D02*
X151219166Y-93871485D01*
X151981071Y-93538152D02*
X152362023Y-93538152D01*
X152123928Y-94204819D02*
X152123928Y-93347676D01*
X152123928Y-93347676D02*
X152171547Y-93252438D01*
X152171547Y-93252438D02*
X152266785Y-93204819D01*
X152266785Y-93204819D02*
X152362023Y-93204819D01*
X152552500Y-93538152D02*
X152933452Y-93538152D01*
X152695357Y-93204819D02*
X152695357Y-94061961D01*
X152695357Y-94061961D02*
X152742976Y-94157200D01*
X152742976Y-94157200D02*
X152838214Y-94204819D01*
X152838214Y-94204819D02*
X152933452Y-94204819D01*
X153981071Y-93157200D02*
X153123929Y-94442914D01*
X154314405Y-94204819D02*
X154314405Y-93204819D01*
X154314405Y-93204819D02*
X154647738Y-93919104D01*
X154647738Y-93919104D02*
X154981071Y-93204819D01*
X154981071Y-93204819D02*
X154981071Y-94204819D01*
X155600119Y-94204819D02*
X155504881Y-94157200D01*
X155504881Y-94157200D02*
X155457262Y-94109580D01*
X155457262Y-94109580D02*
X155409643Y-94014342D01*
X155409643Y-94014342D02*
X155409643Y-93728628D01*
X155409643Y-93728628D02*
X155457262Y-93633390D01*
X155457262Y-93633390D02*
X155504881Y-93585771D01*
X155504881Y-93585771D02*
X155600119Y-93538152D01*
X155600119Y-93538152D02*
X155742976Y-93538152D01*
X155742976Y-93538152D02*
X155838214Y-93585771D01*
X155838214Y-93585771D02*
X155885833Y-93633390D01*
X155885833Y-93633390D02*
X155933452Y-93728628D01*
X155933452Y-93728628D02*
X155933452Y-94014342D01*
X155933452Y-94014342D02*
X155885833Y-94109580D01*
X155885833Y-94109580D02*
X155838214Y-94157200D01*
X155838214Y-94157200D02*
X155742976Y-94204819D01*
X155742976Y-94204819D02*
X155600119Y-94204819D01*
X156362024Y-93538152D02*
X156362024Y-94204819D01*
X156362024Y-93633390D02*
X156409643Y-93585771D01*
X156409643Y-93585771D02*
X156504881Y-93538152D01*
X156504881Y-93538152D02*
X156647738Y-93538152D01*
X156647738Y-93538152D02*
X156742976Y-93585771D01*
X156742976Y-93585771D02*
X156790595Y-93681009D01*
X156790595Y-93681009D02*
X156790595Y-94204819D01*
X157409643Y-94204819D02*
X157314405Y-94157200D01*
X157314405Y-94157200D02*
X157266786Y-94109580D01*
X157266786Y-94109580D02*
X157219167Y-94014342D01*
X157219167Y-94014342D02*
X157219167Y-93728628D01*
X157219167Y-93728628D02*
X157266786Y-93633390D01*
X157266786Y-93633390D02*
X157314405Y-93585771D01*
X157314405Y-93585771D02*
X157409643Y-93538152D01*
X157409643Y-93538152D02*
X157552500Y-93538152D01*
X157552500Y-93538152D02*
X157647738Y-93585771D01*
X157647738Y-93585771D02*
X157695357Y-93633390D01*
X157695357Y-93633390D02*
X157742976Y-93728628D01*
X157742976Y-93728628D02*
X157742976Y-94014342D01*
X157742976Y-94014342D02*
X157695357Y-94109580D01*
X157695357Y-94109580D02*
X157647738Y-94157200D01*
X157647738Y-94157200D02*
X157552500Y-94204819D01*
X157552500Y-94204819D02*
X157409643Y-94204819D01*
X158695357Y-94204819D02*
X158123929Y-94204819D01*
X158409643Y-94204819D02*
X158409643Y-93204819D01*
X158409643Y-93204819D02*
X158314405Y-93347676D01*
X158314405Y-93347676D02*
X158219167Y-93442914D01*
X158219167Y-93442914D02*
X158123929Y-93490533D01*
X147509580Y-114434343D02*
X147557200Y-114481962D01*
X147557200Y-114481962D02*
X147604819Y-114624819D01*
X147604819Y-114624819D02*
X147604819Y-114720057D01*
X147604819Y-114720057D02*
X147557200Y-114862914D01*
X147557200Y-114862914D02*
X147461961Y-114958152D01*
X147461961Y-114958152D02*
X147366723Y-115005771D01*
X147366723Y-115005771D02*
X147176247Y-115053390D01*
X147176247Y-115053390D02*
X147033390Y-115053390D01*
X147033390Y-115053390D02*
X146842914Y-115005771D01*
X146842914Y-115005771D02*
X146747676Y-114958152D01*
X146747676Y-114958152D02*
X146652438Y-114862914D01*
X146652438Y-114862914D02*
X146604819Y-114720057D01*
X146604819Y-114720057D02*
X146604819Y-114624819D01*
X146604819Y-114624819D02*
X146652438Y-114481962D01*
X146652438Y-114481962D02*
X146700057Y-114434343D01*
X147604819Y-113481962D02*
X147604819Y-114053390D01*
X147604819Y-113767676D02*
X146604819Y-113767676D01*
X146604819Y-113767676D02*
X146747676Y-113862914D01*
X146747676Y-113862914D02*
X146842914Y-113958152D01*
X146842914Y-113958152D02*
X146890533Y-114053390D01*
X140329819Y-114961904D02*
X141139342Y-114961904D01*
X141139342Y-114961904D02*
X141234580Y-114914285D01*
X141234580Y-114914285D02*
X141282200Y-114866666D01*
X141282200Y-114866666D02*
X141329819Y-114771428D01*
X141329819Y-114771428D02*
X141329819Y-114580952D01*
X141329819Y-114580952D02*
X141282200Y-114485714D01*
X141282200Y-114485714D02*
X141234580Y-114438095D01*
X141234580Y-114438095D02*
X141139342Y-114390476D01*
X141139342Y-114390476D02*
X140329819Y-114390476D01*
X141329819Y-113390476D02*
X141329819Y-113961904D01*
X141329819Y-113676190D02*
X140329819Y-113676190D01*
X140329819Y-113676190D02*
X140472676Y-113771428D01*
X140472676Y-113771428D02*
X140567914Y-113866666D01*
X140567914Y-113866666D02*
X140615533Y-113961904D01*
X144866905Y-79154819D02*
X144866905Y-78154819D01*
X144866905Y-78154819D02*
X145105000Y-78154819D01*
X145105000Y-78154819D02*
X145247857Y-78202438D01*
X145247857Y-78202438D02*
X145343095Y-78297676D01*
X145343095Y-78297676D02*
X145390714Y-78392914D01*
X145390714Y-78392914D02*
X145438333Y-78583390D01*
X145438333Y-78583390D02*
X145438333Y-78726247D01*
X145438333Y-78726247D02*
X145390714Y-78916723D01*
X145390714Y-78916723D02*
X145343095Y-79011961D01*
X145343095Y-79011961D02*
X145247857Y-79107200D01*
X145247857Y-79107200D02*
X145105000Y-79154819D01*
X145105000Y-79154819D02*
X144866905Y-79154819D01*
X145819286Y-78250057D02*
X145866905Y-78202438D01*
X145866905Y-78202438D02*
X145962143Y-78154819D01*
X145962143Y-78154819D02*
X146200238Y-78154819D01*
X146200238Y-78154819D02*
X146295476Y-78202438D01*
X146295476Y-78202438D02*
X146343095Y-78250057D01*
X146343095Y-78250057D02*
X146390714Y-78345295D01*
X146390714Y-78345295D02*
X146390714Y-78440533D01*
X146390714Y-78440533D02*
X146343095Y-78583390D01*
X146343095Y-78583390D02*
X145771667Y-79154819D01*
X145771667Y-79154819D02*
X146390714Y-79154819D01*
X135090476Y-100109819D02*
X135280952Y-100109819D01*
X135280952Y-100109819D02*
X135376190Y-100157438D01*
X135376190Y-100157438D02*
X135471428Y-100252676D01*
X135471428Y-100252676D02*
X135519047Y-100443152D01*
X135519047Y-100443152D02*
X135519047Y-100776485D01*
X135519047Y-100776485D02*
X135471428Y-100966961D01*
X135471428Y-100966961D02*
X135376190Y-101062200D01*
X135376190Y-101062200D02*
X135280952Y-101109819D01*
X135280952Y-101109819D02*
X135090476Y-101109819D01*
X135090476Y-101109819D02*
X134995238Y-101062200D01*
X134995238Y-101062200D02*
X134900000Y-100966961D01*
X134900000Y-100966961D02*
X134852381Y-100776485D01*
X134852381Y-100776485D02*
X134852381Y-100443152D01*
X134852381Y-100443152D02*
X134900000Y-100252676D01*
X134900000Y-100252676D02*
X134995238Y-100157438D01*
X134995238Y-100157438D02*
X135090476Y-100109819D01*
X136376190Y-100443152D02*
X136376190Y-101109819D01*
X135947619Y-100443152D02*
X135947619Y-100966961D01*
X135947619Y-100966961D02*
X135995238Y-101062200D01*
X135995238Y-101062200D02*
X136090476Y-101109819D01*
X136090476Y-101109819D02*
X136233333Y-101109819D01*
X136233333Y-101109819D02*
X136328571Y-101062200D01*
X136328571Y-101062200D02*
X136376190Y-101014580D01*
X136709524Y-100443152D02*
X137090476Y-100443152D01*
X136852381Y-100109819D02*
X136852381Y-100966961D01*
X136852381Y-100966961D02*
X136900000Y-101062200D01*
X136900000Y-101062200D02*
X136995238Y-101109819D01*
X136995238Y-101109819D02*
X137090476Y-101109819D01*
X137947619Y-101109819D02*
X137376191Y-101109819D01*
X137661905Y-101109819D02*
X137661905Y-100109819D01*
X137661905Y-100109819D02*
X137566667Y-100252676D01*
X137566667Y-100252676D02*
X137471429Y-100347914D01*
X137471429Y-100347914D02*
X137376191Y-100395533D01*
D11*
%TO.C,RLed2*%
X137330000Y-90770000D02*
X137330000Y-90440000D01*
X143870000Y-90440000D02*
X143870000Y-90770000D01*
X143870000Y-88360000D02*
X143870000Y-88030000D01*
X143870000Y-88030000D02*
X137330000Y-88030000D01*
X143870000Y-90770000D02*
X137330000Y-90770000D01*
X137330000Y-88030000D02*
X137330000Y-88360000D01*
%TO.C,RLed1*%
X137330000Y-87570000D02*
X137330000Y-87240000D01*
X143870000Y-87240000D02*
X143870000Y-87570000D01*
X143870000Y-85160000D02*
X143870000Y-84830000D01*
X143870000Y-84830000D02*
X137330000Y-84830000D01*
X143870000Y-87570000D02*
X137330000Y-87570000D01*
X137330000Y-84830000D02*
X137330000Y-85160000D01*
%TO.C,RPD1*%
X141130000Y-100830000D02*
X141130000Y-101160000D01*
X147670000Y-103570000D02*
X141130000Y-103570000D01*
X147670000Y-100830000D02*
X141130000Y-100830000D01*
X147670000Y-101160000D02*
X147670000Y-100830000D01*
X147670000Y-103240000D02*
X147670000Y-103570000D01*
X141130000Y-103570000D02*
X141130000Y-103240000D01*
%TO.C,RGate1*%
X147670000Y-107170000D02*
X147670000Y-106840000D01*
X141130000Y-104430000D02*
X147670000Y-104430000D01*
X141130000Y-107170000D02*
X147670000Y-107170000D01*
X141130000Y-106840000D02*
X141130000Y-107170000D01*
X141130000Y-104760000D02*
X141130000Y-104430000D01*
X147670000Y-104430000D02*
X147670000Y-104760000D01*
%TO.C,B1*%
X160955000Y-84030000D02*
X163955000Y-84030000D01*
X160955000Y-92930000D02*
X160955000Y-84030000D01*
X160955000Y-92970000D02*
X163955000Y-92970000D01*
X163955000Y-79280000D02*
X168075000Y-79280000D01*
X163955000Y-84030000D02*
X163955000Y-79280000D01*
X163955000Y-97720000D02*
X163955000Y-92970000D01*
X168075000Y-97720000D02*
X163955000Y-97720000D01*
X170875000Y-79280000D02*
X174475000Y-79280000D01*
X174475000Y-97720000D02*
X170875000Y-97720000D01*
X177175000Y-79280000D02*
X180775000Y-79280000D01*
X180775000Y-97720000D02*
X177175000Y-97720000D01*
X185195000Y-79280000D02*
X183575000Y-79280000D01*
X185195000Y-82880000D02*
X185195000Y-79280000D01*
X185195000Y-82880000D02*
X194045000Y-82880000D01*
X185195000Y-94120000D02*
X194045000Y-94120000D01*
X185195000Y-97720000D02*
X183575000Y-97720000D01*
X185195000Y-97720000D02*
X185195000Y-94120000D01*
X194045000Y-94120000D02*
X194045000Y-82880000D01*
%TO.C,QL1*%
X156610000Y-106600000D02*
X156610000Y-103000000D01*
X152160000Y-104800000D02*
G75*
G03*
X156598478Y-106638478I2600000J0D01*
G01*
X156598478Y-102961522D02*
G75*
G03*
X152160000Y-104800000I-1838478J-1838478D01*
G01*
%TO.C,LEDB1*%
X140495000Y-81200000D02*
G75*
G03*
X140495000Y-81200000I-2500000J0D01*
G01*
X135435000Y-82744830D02*
G75*
G03*
X140985000Y-81199538I2560000J1544830D01*
G01*
X140984999Y-81200462D02*
G75*
G03*
X135435001Y-79655170I-2989999J462D01*
G01*
X135435000Y-79655000D02*
X135435000Y-82745000D01*
%TO.C,J3*%
X134870000Y-111670000D02*
X136200000Y-111670000D01*
X134870000Y-113000000D02*
X134870000Y-111670000D01*
X134870000Y-114270000D02*
X134870000Y-114330000D01*
X134870000Y-114270000D02*
X137470000Y-114270000D01*
X134870000Y-114330000D02*
X140070000Y-114330000D01*
X137470000Y-111670000D02*
X140070000Y-111670000D01*
X137470000Y-114270000D02*
X137470000Y-111670000D01*
X140070000Y-111670000D02*
X140070000Y-114330000D01*
%TO.C,A1*%
X160955000Y-104780000D02*
X163955000Y-104780000D01*
X160955000Y-113680000D02*
X160955000Y-104780000D01*
X160955000Y-113720000D02*
X163955000Y-113720000D01*
X163955000Y-100030000D02*
X168075000Y-100030000D01*
X163955000Y-104780000D02*
X163955000Y-100030000D01*
X163955000Y-118470000D02*
X163955000Y-113720000D01*
X168075000Y-118470000D02*
X163955000Y-118470000D01*
X170875000Y-100030000D02*
X174475000Y-100030000D01*
X174475000Y-118470000D02*
X170875000Y-118470000D01*
X177175000Y-100030000D02*
X180775000Y-100030000D01*
X180775000Y-118470000D02*
X177175000Y-118470000D01*
X185195000Y-100030000D02*
X183575000Y-100030000D01*
X185195000Y-103630000D02*
X185195000Y-100030000D01*
X185195000Y-103630000D02*
X194045000Y-103630000D01*
X185195000Y-114870000D02*
X194045000Y-114870000D01*
X185195000Y-118470000D02*
X183575000Y-118470000D01*
X185195000Y-118470000D02*
X185195000Y-114870000D01*
X194045000Y-114870000D02*
X194045000Y-103630000D01*
%TO.C,Left/Mono1*%
X159902500Y-99157500D02*
X158692500Y-99157500D01*
X159902500Y-97857500D02*
X159902500Y-99157500D01*
X159742500Y-99007500D02*
X159742500Y-78417500D01*
X159742500Y-78417500D02*
X149362500Y-78417500D01*
X156062500Y-99007500D02*
X156062500Y-97967500D01*
X156062500Y-97947500D02*
X153062500Y-97947500D01*
X154892500Y-97797500D02*
X154892500Y-96597500D01*
X154892500Y-97167500D02*
X155992500Y-97167500D01*
X154892500Y-96997500D02*
X154192500Y-97397500D01*
X154892500Y-96597500D02*
X154192500Y-96597500D01*
X154192500Y-97797500D02*
X154892500Y-97797500D01*
X154192500Y-97167500D02*
X153092500Y-97167500D01*
X154192500Y-96597500D02*
X154192500Y-97797500D01*
X153062500Y-97947500D02*
X153062500Y-99007500D01*
X149362500Y-99007500D02*
X159742500Y-99007500D01*
X149362500Y-78417500D02*
X149362500Y-99007500D01*
%TO.C,C1*%
X150525000Y-119747323D02*
X150525000Y-118747323D01*
X150025000Y-119247323D02*
X151025000Y-119247323D01*
X148320000Y-114267677D02*
X158480000Y-114267677D01*
X148320000Y-114227677D02*
X158480000Y-114227677D01*
X148320000Y-114187677D02*
X158480000Y-114187677D01*
X148321000Y-114147677D02*
X158479000Y-114147677D01*
X148322000Y-114107677D02*
X158478000Y-114107677D01*
X148323000Y-114067677D02*
X158477000Y-114067677D01*
X148325000Y-114027677D02*
X158475000Y-114027677D01*
X148327000Y-113987677D02*
X158473000Y-113987677D01*
X148330000Y-113947677D02*
X158470000Y-113947677D01*
X148332000Y-113907677D02*
X158468000Y-113907677D01*
X148335000Y-113867677D02*
X158465000Y-113867677D01*
X148338000Y-113827677D02*
X158462000Y-113827677D01*
X148342000Y-113787677D02*
X158458000Y-113787677D01*
X148346000Y-113747677D02*
X152159000Y-113747677D01*
X154641000Y-113747677D02*
X158454000Y-113747677D01*
X148350000Y-113707677D02*
X152159000Y-113707677D01*
X154641000Y-113707677D02*
X158450000Y-113707677D01*
X148355000Y-113667677D02*
X152159000Y-113667677D01*
X154641000Y-113667677D02*
X158445000Y-113667677D01*
X148360000Y-113627677D02*
X152159000Y-113627677D01*
X154641000Y-113627677D02*
X158440000Y-113627677D01*
X148365000Y-113587677D02*
X152159000Y-113587677D01*
X154641000Y-113587677D02*
X158435000Y-113587677D01*
X148370000Y-113546677D02*
X152159000Y-113546677D01*
X154641000Y-113546677D02*
X158430000Y-113546677D01*
X148376000Y-113506677D02*
X152159000Y-113506677D01*
X154641000Y-113506677D02*
X158424000Y-113506677D01*
X148382000Y-113466677D02*
X152159000Y-113466677D01*
X154641000Y-113466677D02*
X158418000Y-113466677D01*
X148389000Y-113426677D02*
X152159000Y-113426677D01*
X154641000Y-113426677D02*
X158411000Y-113426677D01*
X148396000Y-113386677D02*
X152159000Y-113386677D01*
X154641000Y-113386677D02*
X158404000Y-113386677D01*
X148403000Y-113346677D02*
X152159000Y-113346677D01*
X154641000Y-113346677D02*
X158397000Y-113346677D01*
X148410000Y-113306677D02*
X152159000Y-113306677D01*
X154641000Y-113306677D02*
X158390000Y-113306677D01*
X148418000Y-113266677D02*
X152159000Y-113266677D01*
X154641000Y-113266677D02*
X158382000Y-113266677D01*
X148426000Y-113226677D02*
X152159000Y-113226677D01*
X154641000Y-113226677D02*
X158374000Y-113226677D01*
X148435000Y-113186677D02*
X152159000Y-113186677D01*
X154641000Y-113186677D02*
X158365000Y-113186677D01*
X148444000Y-113146677D02*
X152159000Y-113146677D01*
X154641000Y-113146677D02*
X158356000Y-113146677D01*
X148453000Y-113106677D02*
X152159000Y-113106677D01*
X154641000Y-113106677D02*
X158347000Y-113106677D01*
X148462000Y-113066677D02*
X152159000Y-113066677D01*
X154641000Y-113066677D02*
X158338000Y-113066677D01*
X148472000Y-113026677D02*
X152159000Y-113026677D01*
X154641000Y-113026677D02*
X158328000Y-113026677D01*
X148482000Y-112986677D02*
X152159000Y-112986677D01*
X154641000Y-112986677D02*
X158318000Y-112986677D01*
X148493000Y-112946677D02*
X152159000Y-112946677D01*
X154641000Y-112946677D02*
X158307000Y-112946677D01*
X148503000Y-112906677D02*
X152159000Y-112906677D01*
X154641000Y-112906677D02*
X158297000Y-112906677D01*
X148515000Y-112866677D02*
X152159000Y-112866677D01*
X154641000Y-112866677D02*
X158285000Y-112866677D01*
X148526000Y-112826677D02*
X152159000Y-112826677D01*
X154641000Y-112826677D02*
X158274000Y-112826677D01*
X148538000Y-112786677D02*
X152159000Y-112786677D01*
X154641000Y-112786677D02*
X158262000Y-112786677D01*
X148550000Y-112746677D02*
X152159000Y-112746677D01*
X154641000Y-112746677D02*
X158250000Y-112746677D01*
X148563000Y-112706677D02*
X152159000Y-112706677D01*
X154641000Y-112706677D02*
X158237000Y-112706677D01*
X148576000Y-112666677D02*
X152159000Y-112666677D01*
X154641000Y-112666677D02*
X158224000Y-112666677D01*
X148589000Y-112626677D02*
X152159000Y-112626677D01*
X154641000Y-112626677D02*
X158211000Y-112626677D01*
X148603000Y-112586677D02*
X152159000Y-112586677D01*
X154641000Y-112586677D02*
X158197000Y-112586677D01*
X148617000Y-112546677D02*
X152159000Y-112546677D01*
X154641000Y-112546677D02*
X158183000Y-112546677D01*
X148632000Y-112506677D02*
X152159000Y-112506677D01*
X154641000Y-112506677D02*
X158168000Y-112506677D01*
X148646000Y-112466677D02*
X152159000Y-112466677D01*
X154641000Y-112466677D02*
X158154000Y-112466677D01*
X148662000Y-112426677D02*
X152159000Y-112426677D01*
X154641000Y-112426677D02*
X158138000Y-112426677D01*
X148677000Y-112386677D02*
X152159000Y-112386677D01*
X154641000Y-112386677D02*
X158123000Y-112386677D01*
X148693000Y-112346677D02*
X152159000Y-112346677D01*
X154641000Y-112346677D02*
X158107000Y-112346677D01*
X148710000Y-112306677D02*
X152159000Y-112306677D01*
X154641000Y-112306677D02*
X158090000Y-112306677D01*
X148726000Y-112266677D02*
X152159000Y-112266677D01*
X154641000Y-112266677D02*
X158074000Y-112266677D01*
X148743000Y-112226677D02*
X152159000Y-112226677D01*
X154641000Y-112226677D02*
X158057000Y-112226677D01*
X148761000Y-112186677D02*
X152159000Y-112186677D01*
X154641000Y-112186677D02*
X158039000Y-112186677D01*
X148779000Y-112146677D02*
X152159000Y-112146677D01*
X154641000Y-112146677D02*
X158021000Y-112146677D01*
X148797000Y-112106677D02*
X152159000Y-112106677D01*
X154641000Y-112106677D02*
X158003000Y-112106677D01*
X148816000Y-112066677D02*
X152159000Y-112066677D01*
X154641000Y-112066677D02*
X157984000Y-112066677D01*
X148836000Y-112026677D02*
X152159000Y-112026677D01*
X154641000Y-112026677D02*
X157964000Y-112026677D01*
X148855000Y-111986677D02*
X152159000Y-111986677D01*
X154641000Y-111986677D02*
X157945000Y-111986677D01*
X148875000Y-111946677D02*
X152159000Y-111946677D01*
X154641000Y-111946677D02*
X157925000Y-111946677D01*
X148896000Y-111906677D02*
X152159000Y-111906677D01*
X154641000Y-111906677D02*
X157904000Y-111906677D01*
X148917000Y-111866677D02*
X152159000Y-111866677D01*
X154641000Y-111866677D02*
X157883000Y-111866677D01*
X148938000Y-111826677D02*
X152159000Y-111826677D01*
X154641000Y-111826677D02*
X157862000Y-111826677D01*
X148960000Y-111786677D02*
X152159000Y-111786677D01*
X154641000Y-111786677D02*
X157840000Y-111786677D01*
X148983000Y-111746677D02*
X152159000Y-111746677D01*
X154641000Y-111746677D02*
X157817000Y-111746677D01*
X149005000Y-111706677D02*
X152159000Y-111706677D01*
X154641000Y-111706677D02*
X157795000Y-111706677D01*
X149029000Y-111666677D02*
X152159000Y-111666677D01*
X154641000Y-111666677D02*
X157771000Y-111666677D01*
X149053000Y-111626677D02*
X152159000Y-111626677D01*
X154641000Y-111626677D02*
X157747000Y-111626677D01*
X149077000Y-111586677D02*
X152159000Y-111586677D01*
X154641000Y-111586677D02*
X157723000Y-111586677D01*
X149102000Y-111546677D02*
X152159000Y-111546677D01*
X154641000Y-111546677D02*
X157698000Y-111546677D01*
X149127000Y-111506677D02*
X152159000Y-111506677D01*
X154641000Y-111506677D02*
X157673000Y-111506677D01*
X149153000Y-111466677D02*
X152159000Y-111466677D01*
X154641000Y-111466677D02*
X157647000Y-111466677D01*
X149179000Y-111426677D02*
X152159000Y-111426677D01*
X154641000Y-111426677D02*
X157621000Y-111426677D01*
X149206000Y-111386677D02*
X152159000Y-111386677D01*
X154641000Y-111386677D02*
X157594000Y-111386677D01*
X149234000Y-111346677D02*
X152159000Y-111346677D01*
X154641000Y-111346677D02*
X157566000Y-111346677D01*
X149262000Y-111306677D02*
X152159000Y-111306677D01*
X154641000Y-111306677D02*
X157538000Y-111306677D01*
X149290000Y-111266677D02*
X157510000Y-111266677D01*
X149320000Y-111226677D02*
X157480000Y-111226677D01*
X149350000Y-111186677D02*
X157450000Y-111186677D01*
X149380000Y-111146677D02*
X157420000Y-111146677D01*
X149411000Y-111106677D02*
X157389000Y-111106677D01*
X149443000Y-111066677D02*
X157357000Y-111066677D01*
X149475000Y-111026677D02*
X157325000Y-111026677D01*
X149508000Y-110986677D02*
X157292000Y-110986677D01*
X149542000Y-110946677D02*
X157258000Y-110946677D01*
X149576000Y-110906677D02*
X157224000Y-110906677D01*
X149611000Y-110866677D02*
X157189000Y-110866677D01*
X149647000Y-110826677D02*
X157153000Y-110826677D01*
X149684000Y-110786677D02*
X157116000Y-110786677D01*
X149721000Y-110746677D02*
X157079000Y-110746677D01*
X149760000Y-110706677D02*
X157040000Y-110706677D01*
X149799000Y-110666677D02*
X157001000Y-110666677D01*
X149839000Y-110626677D02*
X156961000Y-110626677D01*
X149880000Y-110586677D02*
X156920000Y-110586677D01*
X149922000Y-110546677D02*
X156878000Y-110546677D01*
X149964000Y-110506677D02*
X156836000Y-110506677D01*
X150008000Y-110466677D02*
X156792000Y-110466677D01*
X150053000Y-110426677D02*
X156747000Y-110426677D01*
X150099000Y-110386677D02*
X156701000Y-110386677D01*
X150146000Y-110346677D02*
X156654000Y-110346677D01*
X150194000Y-110306677D02*
X156606000Y-110306677D01*
X150244000Y-110266677D02*
X156556000Y-110266677D01*
X150294000Y-110226677D02*
X156506000Y-110226677D01*
X150346000Y-110186677D02*
X156454000Y-110186677D01*
X150400000Y-110146677D02*
X156400000Y-110146677D01*
X150455000Y-110106677D02*
X156345000Y-110106677D01*
X150511000Y-110066677D02*
X156289000Y-110066677D01*
X150570000Y-110026677D02*
X156230000Y-110026677D01*
X150630000Y-109986677D02*
X156170000Y-109986677D01*
X150691000Y-109946677D02*
X156109000Y-109946677D01*
X150755000Y-109906677D02*
X156045000Y-109906677D01*
X150821000Y-109866677D02*
X155979000Y-109866677D01*
X150890000Y-109826677D02*
X155910000Y-109826677D01*
X150961000Y-109786677D02*
X155839000Y-109786677D01*
X151035000Y-109746677D02*
X155765000Y-109746677D01*
X151111000Y-109706677D02*
X155689000Y-109706677D01*
X151191000Y-109666677D02*
X155609000Y-109666677D01*
X151275000Y-109626677D02*
X155525000Y-109626677D01*
X151363000Y-109586677D02*
X155437000Y-109586677D01*
X151456000Y-109546677D02*
X155344000Y-109546677D01*
X151554000Y-109506677D02*
X155246000Y-109506677D01*
X151658000Y-109466677D02*
X155142000Y-109466677D01*
X151770000Y-109426677D02*
X155030000Y-109426677D01*
X151890000Y-109386677D02*
X154910000Y-109386677D01*
X152022000Y-109346677D02*
X154778000Y-109346677D01*
X152170000Y-109306677D02*
X154630000Y-109306677D01*
X152338000Y-109266677D02*
X154462000Y-109266677D01*
X152538000Y-109226677D02*
X154262000Y-109226677D01*
X152801000Y-109186677D02*
X153999000Y-109186677D01*
X158520000Y-114267677D02*
G75*
G03*
X158520000Y-114267677I-5120000J0D01*
G01*
%TO.C,U1*%
X141875000Y-119320000D02*
X146516000Y-119320000D01*
X141875000Y-119320000D02*
X141875000Y-109080000D01*
X143385000Y-119320000D02*
X143385000Y-109080000D01*
X146516000Y-119320000D02*
X146516000Y-109080000D01*
X141875000Y-116050000D02*
X143385000Y-116050000D01*
X141875000Y-112349000D02*
X143385000Y-112349000D01*
X141875000Y-109080000D02*
X146516000Y-109080000D01*
%TO.C,J1*%
X135070000Y-106930000D02*
X135070000Y-105600000D01*
X136400000Y-106930000D02*
X135070000Y-106930000D01*
X137670000Y-106930000D02*
X137730000Y-106930000D01*
X137670000Y-106930000D02*
X137670000Y-104270000D01*
X137730000Y-106930000D02*
X137730000Y-104270000D01*
X137670000Y-104270000D02*
X137730000Y-104270000D01*
%TO.C,D2*%
X148165000Y-82745000D02*
X148165000Y-79655000D01*
X142615001Y-81199538D02*
G75*
G03*
X148164999Y-82744830I2989999J-462D01*
G01*
X148165000Y-79655170D02*
G75*
G03*
X142615000Y-81200462I-2560000J-1544830D01*
G01*
X148105000Y-81200000D02*
G75*
G03*
X148105000Y-81200000I-2500000J0D01*
G01*
%TO.C,J2*%
X134870000Y-116170000D02*
X136200000Y-116170000D01*
X134870000Y-117500000D02*
X134870000Y-116170000D01*
X134870000Y-118770000D02*
X134870000Y-118830000D01*
X134870000Y-118770000D02*
X137470000Y-118770000D01*
X134870000Y-118830000D02*
X140070000Y-118830000D01*
X137470000Y-116170000D02*
X140070000Y-116170000D01*
X137470000Y-118770000D02*
X137470000Y-116170000D01*
X140070000Y-116170000D02*
X140070000Y-118830000D01*
%TO.C,Out1*%
X137730000Y-99655000D02*
X136400000Y-99655000D01*
X137730000Y-98325000D02*
X137730000Y-99655000D01*
X137730000Y-97055000D02*
X137730000Y-91915000D01*
X137730000Y-97055000D02*
X135070000Y-97055000D01*
X137730000Y-91915000D02*
X135070000Y-91915000D01*
X135070000Y-97055000D02*
X135070000Y-91915000D01*
%TD*%
M02*
