%TF.GenerationSoftware,KiCad,Pcbnew,7.0.9*%
%TF.CreationDate,2024-06-08T14:41:19-04:00*%
%TF.ProjectId,IO,494f2e6b-6963-4616-945f-706362585858,rev?*%
%TF.SameCoordinates,Original*%
%TF.FileFunction,Drillmap*%
%TF.FilePolarity,Positive*%
%FSLAX45Y45*%
G04 Gerber Fmt 4.5, Leading zero omitted, Abs format (unit mm)*
G04 Created by KiCad (PCBNEW 7.0.9) date 2024-06-08 14:41:19*
%MOMM*%
%LPD*%
G01*
G04 APERTURE LIST*
%ADD10C,0.100000*%
%ADD11C,0.200000*%
%ADD12C,0.110000*%
%ADD13C,0.140000*%
G04 APERTURE END LIST*
D10*
X13360000Y-7750000D02*
X18512500Y-7750000D01*
X18512500Y-11980000D01*
X13360000Y-11980000D01*
X13360000Y-7750000D01*
X13750000Y-7750000D02*
X18512500Y-7750000D01*
D11*
D10*
X15039250Y-7947750D02*
X15109250Y-8017750D01*
X15109250Y-7947750D02*
X15039250Y-8017750D01*
X15039250Y-8455750D02*
X15109250Y-8525750D01*
X15109250Y-8455750D02*
X15039250Y-8525750D01*
X15039250Y-8963750D02*
X15109250Y-9033750D01*
X15109250Y-8963750D02*
X15039250Y-9033750D01*
X15039250Y-9725750D02*
X15109250Y-9795750D01*
X15109250Y-9725750D02*
X15039250Y-9795750D01*
X15801250Y-7947750D02*
X15871250Y-8017750D01*
X15871250Y-7947750D02*
X15801250Y-8017750D01*
X15801250Y-8455750D02*
X15871250Y-8525750D01*
X15871250Y-8455750D02*
X15801250Y-8525750D01*
X15801250Y-8963750D02*
X15871250Y-9033750D01*
X15871250Y-8963750D02*
X15801250Y-9033750D01*
X15801250Y-9725750D02*
X15871250Y-9795750D01*
X15871250Y-9725750D02*
X15801250Y-9795750D01*
X15513500Y-10353000D02*
G75*
G03*
X15513500Y-10353000I-37500J0D01*
G01*
X15513500Y-10480000D02*
G75*
G03*
X15513500Y-10480000I-37500J0D01*
G01*
X15513500Y-10607000D02*
G75*
G03*
X15513500Y-10607000I-37500J0D01*
G01*
X13679000Y-8580000D02*
X13679000Y-8660000D01*
X13639000Y-8620000D02*
X13719000Y-8620000D01*
X13679000Y-8900000D02*
X13679000Y-8980000D01*
X13639000Y-8940000D02*
X13719000Y-8940000D01*
X14059000Y-10180000D02*
X14059000Y-10260000D01*
X14019000Y-10220000D02*
X14099000Y-10220000D01*
X14059000Y-10540000D02*
X14059000Y-10620000D01*
X14019000Y-10580000D02*
X14099000Y-10580000D01*
X14441000Y-8580000D02*
X14441000Y-8660000D01*
X14401000Y-8620000D02*
X14481000Y-8620000D01*
X14441000Y-8900000D02*
X14441000Y-8980000D01*
X14401000Y-8940000D02*
X14481000Y-8940000D01*
X14821000Y-10180000D02*
X14821000Y-10260000D01*
X14781000Y-10220000D02*
X14861000Y-10220000D01*
X14821000Y-10540000D02*
X14821000Y-10620000D01*
X14781000Y-10580000D02*
X14861000Y-10580000D01*
X13704320Y-8151820D02*
X13704320Y-8088180D01*
X13640680Y-8088180D01*
X13640680Y-8151820D01*
X13704320Y-8151820D01*
X13958320Y-8151820D02*
X13958320Y-8088180D01*
X13894680Y-8088180D01*
X13894680Y-8151820D01*
X13958320Y-8151820D01*
X14465320Y-8151820D02*
X14465320Y-8088180D01*
X14401680Y-8088180D01*
X14401680Y-8151820D01*
X14465320Y-8151820D01*
X14719320Y-8151820D02*
X14719320Y-8088180D01*
X14655680Y-8088180D01*
X14655680Y-8151820D01*
X14719320Y-8151820D01*
X13620000Y-11350000D02*
X13670000Y-11300000D01*
X13620000Y-11250000D01*
X13570000Y-11300000D01*
X13620000Y-11350000D01*
X13620000Y-11800000D02*
X13670000Y-11750000D01*
X13620000Y-11700000D01*
X13570000Y-11750000D01*
X13620000Y-11800000D01*
X13640000Y-9374500D02*
X13690000Y-9324500D01*
X13640000Y-9274500D01*
X13590000Y-9324500D01*
X13640000Y-9374500D01*
X13640000Y-9628500D02*
X13690000Y-9578500D01*
X13640000Y-9528500D01*
X13590000Y-9578500D01*
X13640000Y-9628500D01*
X13640000Y-9882500D02*
X13690000Y-9832500D01*
X13640000Y-9782500D01*
X13590000Y-9832500D01*
X13640000Y-9882500D01*
X13640000Y-10610000D02*
X13690000Y-10560000D01*
X13640000Y-10510000D01*
X13590000Y-10560000D01*
X13640000Y-10610000D01*
X13874000Y-11350000D02*
X13924000Y-11300000D01*
X13874000Y-11250000D01*
X13824000Y-11300000D01*
X13874000Y-11350000D01*
X13874000Y-11800000D02*
X13924000Y-11750000D01*
X13874000Y-11700000D01*
X13824000Y-11750000D01*
X13874000Y-11800000D01*
X15340000Y-11301768D02*
X15390000Y-11251768D01*
X15340000Y-11201768D01*
X15290000Y-11251768D01*
X15340000Y-11301768D01*
X15340000Y-11651768D02*
X15390000Y-11601768D01*
X15340000Y-11551768D01*
X15290000Y-11601768D01*
X15340000Y-11651768D01*
X17306000Y-10890000D02*
X17356000Y-10840000D01*
X17306000Y-10790000D01*
X17256000Y-10840000D01*
X17306000Y-10890000D01*
X17340000Y-8850000D02*
X17390000Y-8800000D01*
X17340000Y-8750000D01*
X17290000Y-8800000D01*
X17340000Y-8850000D01*
X17560000Y-10890000D02*
X17610000Y-10840000D01*
X17560000Y-10790000D01*
X17510000Y-10840000D01*
X17560000Y-10890000D01*
X17594000Y-8850000D02*
X17644000Y-8800000D01*
X17594000Y-8750000D01*
X17544000Y-8800000D01*
X17594000Y-8850000D01*
X17814000Y-10890000D02*
X17864000Y-10840000D01*
X17814000Y-10790000D01*
X17764000Y-10840000D01*
X17814000Y-10890000D01*
X17848000Y-8850000D02*
X17898000Y-8800000D01*
X17848000Y-8750000D01*
X17798000Y-8800000D01*
X17848000Y-8850000D01*
D12*
X14459500Y-11111000D02*
X14569500Y-11221000D01*
X14569500Y-11111000D02*
X14459500Y-11221000D01*
X14569500Y-11166000D02*
G75*
G03*
X14569500Y-11166000I-55000J0D01*
G01*
X14459500Y-11365000D02*
X14569500Y-11475000D01*
X14569500Y-11365000D02*
X14459500Y-11475000D01*
X14569500Y-11420000D02*
G75*
G03*
X14569500Y-11420000I-55000J0D01*
G01*
X14459500Y-11619000D02*
X14569500Y-11729000D01*
X14569500Y-11619000D02*
X14459500Y-11729000D01*
X14569500Y-11674000D02*
G75*
G03*
X14569500Y-11674000I-55000J0D01*
G01*
D13*
X16877500Y-7968500D02*
X17017500Y-8108500D01*
X17017500Y-7968500D02*
X16877500Y-8108500D01*
X16947500Y-7968500D02*
X16947500Y-8108500D01*
X16877500Y-8038500D02*
X17017500Y-8038500D01*
X16877500Y-9591500D02*
X17017500Y-9731500D01*
X17017500Y-9591500D02*
X16877500Y-9731500D01*
X16947500Y-9591500D02*
X16947500Y-9731500D01*
X16877500Y-9661500D02*
X17017500Y-9661500D01*
X16877500Y-10043500D02*
X17017500Y-10183500D01*
X17017500Y-10043500D02*
X16877500Y-10183500D01*
X16947500Y-10043500D02*
X16947500Y-10183500D01*
X16877500Y-10113500D02*
X17017500Y-10113500D01*
X16877500Y-11666500D02*
X17017500Y-11806500D01*
X17017500Y-11666500D02*
X16877500Y-11806500D01*
X16947500Y-11666500D02*
X16947500Y-11806500D01*
X16877500Y-11736500D02*
X17017500Y-11736500D01*
X17512500Y-7968500D02*
X17652500Y-8108500D01*
X17652500Y-7968500D02*
X17512500Y-8108500D01*
X17582500Y-7968500D02*
X17582500Y-8108500D01*
X17512500Y-8038500D02*
X17652500Y-8038500D01*
X17512500Y-9591500D02*
X17652500Y-9731500D01*
X17652500Y-9591500D02*
X17512500Y-9731500D01*
X17582500Y-9591500D02*
X17582500Y-9731500D01*
X17512500Y-9661500D02*
X17652500Y-9661500D01*
X17512500Y-10043500D02*
X17652500Y-10183500D01*
X17652500Y-10043500D02*
X17512500Y-10183500D01*
X17582500Y-10043500D02*
X17582500Y-10183500D01*
X17512500Y-10113500D02*
X17652500Y-10113500D01*
X17512500Y-11666500D02*
X17652500Y-11806500D01*
X17652500Y-11666500D02*
X17512500Y-11806500D01*
X17582500Y-11666500D02*
X17582500Y-11806500D01*
X17512500Y-11736500D02*
X17652500Y-11736500D01*
X18147500Y-7968500D02*
X18287500Y-8108500D01*
X18287500Y-7968500D02*
X18147500Y-8108500D01*
X18217500Y-7968500D02*
X18217500Y-8108500D01*
X18147500Y-8038500D02*
X18287500Y-8038500D01*
X18147500Y-9591500D02*
X18287500Y-9731500D01*
X18287500Y-9591500D02*
X18147500Y-9731500D01*
X18217500Y-9591500D02*
X18217500Y-9731500D01*
X18147500Y-9661500D02*
X18287500Y-9661500D01*
X18147500Y-10043500D02*
X18287500Y-10183500D01*
X18287500Y-10043500D02*
X18147500Y-10183500D01*
X18217500Y-10043500D02*
X18217500Y-10183500D01*
X18147500Y-10113500D02*
X18287500Y-10113500D01*
X18147500Y-11666500D02*
X18287500Y-11806500D01*
X18287500Y-11666500D02*
X18147500Y-11806500D01*
X18217500Y-11666500D02*
X18217500Y-11806500D01*
X18147500Y-11736500D02*
X18287500Y-11736500D01*
D11*
X13615777Y-12296484D02*
X13615777Y-12096484D01*
X13615777Y-12096484D02*
X13663396Y-12096484D01*
X13663396Y-12096484D02*
X13691967Y-12106008D01*
X13691967Y-12106008D02*
X13711015Y-12125055D01*
X13711015Y-12125055D02*
X13720539Y-12144103D01*
X13720539Y-12144103D02*
X13730062Y-12182198D01*
X13730062Y-12182198D02*
X13730062Y-12210769D01*
X13730062Y-12210769D02*
X13720539Y-12248865D01*
X13720539Y-12248865D02*
X13711015Y-12267912D01*
X13711015Y-12267912D02*
X13691967Y-12286960D01*
X13691967Y-12286960D02*
X13663396Y-12296484D01*
X13663396Y-12296484D02*
X13615777Y-12296484D01*
X13815777Y-12296484D02*
X13815777Y-12163150D01*
X13815777Y-12201246D02*
X13825301Y-12182198D01*
X13825301Y-12182198D02*
X13834824Y-12172674D01*
X13834824Y-12172674D02*
X13853872Y-12163150D01*
X13853872Y-12163150D02*
X13872920Y-12163150D01*
X13939586Y-12296484D02*
X13939586Y-12163150D01*
X13939586Y-12096484D02*
X13930062Y-12106008D01*
X13930062Y-12106008D02*
X13939586Y-12115531D01*
X13939586Y-12115531D02*
X13949110Y-12106008D01*
X13949110Y-12106008D02*
X13939586Y-12096484D01*
X13939586Y-12096484D02*
X13939586Y-12115531D01*
X14063396Y-12296484D02*
X14044348Y-12286960D01*
X14044348Y-12286960D02*
X14034824Y-12267912D01*
X14034824Y-12267912D02*
X14034824Y-12096484D01*
X14168158Y-12296484D02*
X14149110Y-12286960D01*
X14149110Y-12286960D02*
X14139586Y-12267912D01*
X14139586Y-12267912D02*
X14139586Y-12096484D01*
X14396729Y-12296484D02*
X14396729Y-12096484D01*
X14396729Y-12096484D02*
X14463396Y-12239341D01*
X14463396Y-12239341D02*
X14530062Y-12096484D01*
X14530062Y-12096484D02*
X14530062Y-12296484D01*
X14711015Y-12296484D02*
X14711015Y-12191722D01*
X14711015Y-12191722D02*
X14701491Y-12172674D01*
X14701491Y-12172674D02*
X14682443Y-12163150D01*
X14682443Y-12163150D02*
X14644348Y-12163150D01*
X14644348Y-12163150D02*
X14625301Y-12172674D01*
X14711015Y-12286960D02*
X14691967Y-12296484D01*
X14691967Y-12296484D02*
X14644348Y-12296484D01*
X14644348Y-12296484D02*
X14625301Y-12286960D01*
X14625301Y-12286960D02*
X14615777Y-12267912D01*
X14615777Y-12267912D02*
X14615777Y-12248865D01*
X14615777Y-12248865D02*
X14625301Y-12229817D01*
X14625301Y-12229817D02*
X14644348Y-12220293D01*
X14644348Y-12220293D02*
X14691967Y-12220293D01*
X14691967Y-12220293D02*
X14711015Y-12210769D01*
X14806253Y-12163150D02*
X14806253Y-12363150D01*
X14806253Y-12172674D02*
X14825301Y-12163150D01*
X14825301Y-12163150D02*
X14863396Y-12163150D01*
X14863396Y-12163150D02*
X14882443Y-12172674D01*
X14882443Y-12172674D02*
X14891967Y-12182198D01*
X14891967Y-12182198D02*
X14901491Y-12201246D01*
X14901491Y-12201246D02*
X14901491Y-12258388D01*
X14901491Y-12258388D02*
X14891967Y-12277436D01*
X14891967Y-12277436D02*
X14882443Y-12286960D01*
X14882443Y-12286960D02*
X14863396Y-12296484D01*
X14863396Y-12296484D02*
X14825301Y-12296484D01*
X14825301Y-12296484D02*
X14806253Y-12286960D01*
X14987205Y-12277436D02*
X14996729Y-12286960D01*
X14996729Y-12286960D02*
X14987205Y-12296484D01*
X14987205Y-12296484D02*
X14977682Y-12286960D01*
X14977682Y-12286960D02*
X14987205Y-12277436D01*
X14987205Y-12277436D02*
X14987205Y-12296484D01*
X14987205Y-12172674D02*
X14996729Y-12182198D01*
X14996729Y-12182198D02*
X14987205Y-12191722D01*
X14987205Y-12191722D02*
X14977682Y-12182198D01*
X14977682Y-12182198D02*
X14987205Y-12172674D01*
X14987205Y-12172674D02*
X14987205Y-12191722D01*
D10*
X13285000Y-12590000D02*
X13355000Y-12660000D01*
X13355000Y-12590000D02*
X13285000Y-12660000D01*
D11*
X13653872Y-12516484D02*
X13672920Y-12516484D01*
X13672920Y-12516484D02*
X13691967Y-12526008D01*
X13691967Y-12526008D02*
X13701491Y-12535531D01*
X13701491Y-12535531D02*
X13711015Y-12554579D01*
X13711015Y-12554579D02*
X13720539Y-12592674D01*
X13720539Y-12592674D02*
X13720539Y-12640293D01*
X13720539Y-12640293D02*
X13711015Y-12678388D01*
X13711015Y-12678388D02*
X13701491Y-12697436D01*
X13701491Y-12697436D02*
X13691967Y-12706960D01*
X13691967Y-12706960D02*
X13672920Y-12716484D01*
X13672920Y-12716484D02*
X13653872Y-12716484D01*
X13653872Y-12716484D02*
X13634824Y-12706960D01*
X13634824Y-12706960D02*
X13625301Y-12697436D01*
X13625301Y-12697436D02*
X13615777Y-12678388D01*
X13615777Y-12678388D02*
X13606253Y-12640293D01*
X13606253Y-12640293D02*
X13606253Y-12592674D01*
X13606253Y-12592674D02*
X13615777Y-12554579D01*
X13615777Y-12554579D02*
X13625301Y-12535531D01*
X13625301Y-12535531D02*
X13634824Y-12526008D01*
X13634824Y-12526008D02*
X13653872Y-12516484D01*
X13806253Y-12697436D02*
X13815777Y-12706960D01*
X13815777Y-12706960D02*
X13806253Y-12716484D01*
X13806253Y-12716484D02*
X13796729Y-12706960D01*
X13796729Y-12706960D02*
X13806253Y-12697436D01*
X13806253Y-12697436D02*
X13806253Y-12716484D01*
X13882443Y-12516484D02*
X14015777Y-12516484D01*
X14015777Y-12516484D02*
X13930062Y-12716484D01*
X14130062Y-12516484D02*
X14149110Y-12516484D01*
X14149110Y-12516484D02*
X14168158Y-12526008D01*
X14168158Y-12526008D02*
X14177682Y-12535531D01*
X14177682Y-12535531D02*
X14187205Y-12554579D01*
X14187205Y-12554579D02*
X14196729Y-12592674D01*
X14196729Y-12592674D02*
X14196729Y-12640293D01*
X14196729Y-12640293D02*
X14187205Y-12678388D01*
X14187205Y-12678388D02*
X14177682Y-12697436D01*
X14177682Y-12697436D02*
X14168158Y-12706960D01*
X14168158Y-12706960D02*
X14149110Y-12716484D01*
X14149110Y-12716484D02*
X14130062Y-12716484D01*
X14130062Y-12716484D02*
X14111015Y-12706960D01*
X14111015Y-12706960D02*
X14101491Y-12697436D01*
X14101491Y-12697436D02*
X14091967Y-12678388D01*
X14091967Y-12678388D02*
X14082443Y-12640293D01*
X14082443Y-12640293D02*
X14082443Y-12592674D01*
X14082443Y-12592674D02*
X14091967Y-12554579D01*
X14091967Y-12554579D02*
X14101491Y-12535531D01*
X14101491Y-12535531D02*
X14111015Y-12526008D01*
X14111015Y-12526008D02*
X14130062Y-12516484D01*
X14320539Y-12516484D02*
X14339586Y-12516484D01*
X14339586Y-12516484D02*
X14358634Y-12526008D01*
X14358634Y-12526008D02*
X14368158Y-12535531D01*
X14368158Y-12535531D02*
X14377682Y-12554579D01*
X14377682Y-12554579D02*
X14387205Y-12592674D01*
X14387205Y-12592674D02*
X14387205Y-12640293D01*
X14387205Y-12640293D02*
X14377682Y-12678388D01*
X14377682Y-12678388D02*
X14368158Y-12697436D01*
X14368158Y-12697436D02*
X14358634Y-12706960D01*
X14358634Y-12706960D02*
X14339586Y-12716484D01*
X14339586Y-12716484D02*
X14320539Y-12716484D01*
X14320539Y-12716484D02*
X14301491Y-12706960D01*
X14301491Y-12706960D02*
X14291967Y-12697436D01*
X14291967Y-12697436D02*
X14282443Y-12678388D01*
X14282443Y-12678388D02*
X14272920Y-12640293D01*
X14272920Y-12640293D02*
X14272920Y-12592674D01*
X14272920Y-12592674D02*
X14282443Y-12554579D01*
X14282443Y-12554579D02*
X14291967Y-12535531D01*
X14291967Y-12535531D02*
X14301491Y-12526008D01*
X14301491Y-12526008D02*
X14320539Y-12516484D01*
X14472920Y-12716484D02*
X14472920Y-12583150D01*
X14472920Y-12602198D02*
X14482443Y-12592674D01*
X14482443Y-12592674D02*
X14501491Y-12583150D01*
X14501491Y-12583150D02*
X14530063Y-12583150D01*
X14530063Y-12583150D02*
X14549110Y-12592674D01*
X14549110Y-12592674D02*
X14558634Y-12611722D01*
X14558634Y-12611722D02*
X14558634Y-12716484D01*
X14558634Y-12611722D02*
X14568158Y-12592674D01*
X14568158Y-12592674D02*
X14587205Y-12583150D01*
X14587205Y-12583150D02*
X14615777Y-12583150D01*
X14615777Y-12583150D02*
X14634824Y-12592674D01*
X14634824Y-12592674D02*
X14644348Y-12611722D01*
X14644348Y-12611722D02*
X14644348Y-12716484D01*
X14739586Y-12716484D02*
X14739586Y-12583150D01*
X14739586Y-12602198D02*
X14749110Y-12592674D01*
X14749110Y-12592674D02*
X14768158Y-12583150D01*
X14768158Y-12583150D02*
X14796729Y-12583150D01*
X14796729Y-12583150D02*
X14815777Y-12592674D01*
X14815777Y-12592674D02*
X14825301Y-12611722D01*
X14825301Y-12611722D02*
X14825301Y-12716484D01*
X14825301Y-12611722D02*
X14834824Y-12592674D01*
X14834824Y-12592674D02*
X14853872Y-12583150D01*
X14853872Y-12583150D02*
X14882443Y-12583150D01*
X14882443Y-12583150D02*
X14901491Y-12592674D01*
X14901491Y-12592674D02*
X14911015Y-12611722D01*
X14911015Y-12611722D02*
X14911015Y-12716484D01*
X15301491Y-12506960D02*
X15130063Y-12764103D01*
X15558634Y-12516484D02*
X15577682Y-12516484D01*
X15577682Y-12516484D02*
X15596729Y-12526008D01*
X15596729Y-12526008D02*
X15606253Y-12535531D01*
X15606253Y-12535531D02*
X15615777Y-12554579D01*
X15615777Y-12554579D02*
X15625301Y-12592674D01*
X15625301Y-12592674D02*
X15625301Y-12640293D01*
X15625301Y-12640293D02*
X15615777Y-12678388D01*
X15615777Y-12678388D02*
X15606253Y-12697436D01*
X15606253Y-12697436D02*
X15596729Y-12706960D01*
X15596729Y-12706960D02*
X15577682Y-12716484D01*
X15577682Y-12716484D02*
X15558634Y-12716484D01*
X15558634Y-12716484D02*
X15539586Y-12706960D01*
X15539586Y-12706960D02*
X15530063Y-12697436D01*
X15530063Y-12697436D02*
X15520539Y-12678388D01*
X15520539Y-12678388D02*
X15511015Y-12640293D01*
X15511015Y-12640293D02*
X15511015Y-12592674D01*
X15511015Y-12592674D02*
X15520539Y-12554579D01*
X15520539Y-12554579D02*
X15530063Y-12535531D01*
X15530063Y-12535531D02*
X15539586Y-12526008D01*
X15539586Y-12526008D02*
X15558634Y-12516484D01*
X15711015Y-12697436D02*
X15720539Y-12706960D01*
X15720539Y-12706960D02*
X15711015Y-12716484D01*
X15711015Y-12716484D02*
X15701491Y-12706960D01*
X15701491Y-12706960D02*
X15711015Y-12697436D01*
X15711015Y-12697436D02*
X15711015Y-12716484D01*
X15844348Y-12516484D02*
X15863396Y-12516484D01*
X15863396Y-12516484D02*
X15882444Y-12526008D01*
X15882444Y-12526008D02*
X15891967Y-12535531D01*
X15891967Y-12535531D02*
X15901491Y-12554579D01*
X15901491Y-12554579D02*
X15911015Y-12592674D01*
X15911015Y-12592674D02*
X15911015Y-12640293D01*
X15911015Y-12640293D02*
X15901491Y-12678388D01*
X15901491Y-12678388D02*
X15891967Y-12697436D01*
X15891967Y-12697436D02*
X15882444Y-12706960D01*
X15882444Y-12706960D02*
X15863396Y-12716484D01*
X15863396Y-12716484D02*
X15844348Y-12716484D01*
X15844348Y-12716484D02*
X15825301Y-12706960D01*
X15825301Y-12706960D02*
X15815777Y-12697436D01*
X15815777Y-12697436D02*
X15806253Y-12678388D01*
X15806253Y-12678388D02*
X15796729Y-12640293D01*
X15796729Y-12640293D02*
X15796729Y-12592674D01*
X15796729Y-12592674D02*
X15806253Y-12554579D01*
X15806253Y-12554579D02*
X15815777Y-12535531D01*
X15815777Y-12535531D02*
X15825301Y-12526008D01*
X15825301Y-12526008D02*
X15844348Y-12516484D01*
X15987206Y-12535531D02*
X15996729Y-12526008D01*
X15996729Y-12526008D02*
X16015777Y-12516484D01*
X16015777Y-12516484D02*
X16063396Y-12516484D01*
X16063396Y-12516484D02*
X16082444Y-12526008D01*
X16082444Y-12526008D02*
X16091967Y-12535531D01*
X16091967Y-12535531D02*
X16101491Y-12554579D01*
X16101491Y-12554579D02*
X16101491Y-12573627D01*
X16101491Y-12573627D02*
X16091967Y-12602198D01*
X16091967Y-12602198D02*
X15977682Y-12716484D01*
X15977682Y-12716484D02*
X16101491Y-12716484D01*
X16168158Y-12516484D02*
X16301491Y-12516484D01*
X16301491Y-12516484D02*
X16215777Y-12716484D01*
X16463396Y-12516484D02*
X16425301Y-12516484D01*
X16425301Y-12516484D02*
X16406253Y-12526008D01*
X16406253Y-12526008D02*
X16396729Y-12535531D01*
X16396729Y-12535531D02*
X16377682Y-12564103D01*
X16377682Y-12564103D02*
X16368158Y-12602198D01*
X16368158Y-12602198D02*
X16368158Y-12678388D01*
X16368158Y-12678388D02*
X16377682Y-12697436D01*
X16377682Y-12697436D02*
X16387206Y-12706960D01*
X16387206Y-12706960D02*
X16406253Y-12716484D01*
X16406253Y-12716484D02*
X16444348Y-12716484D01*
X16444348Y-12716484D02*
X16463396Y-12706960D01*
X16463396Y-12706960D02*
X16472920Y-12697436D01*
X16472920Y-12697436D02*
X16482444Y-12678388D01*
X16482444Y-12678388D02*
X16482444Y-12630769D01*
X16482444Y-12630769D02*
X16472920Y-12611722D01*
X16472920Y-12611722D02*
X16463396Y-12602198D01*
X16463396Y-12602198D02*
X16444348Y-12592674D01*
X16444348Y-12592674D02*
X16406253Y-12592674D01*
X16406253Y-12592674D02*
X16387206Y-12602198D01*
X16387206Y-12602198D02*
X16377682Y-12611722D01*
X16377682Y-12611722D02*
X16368158Y-12630769D01*
X16558634Y-12516484D02*
X16558634Y-12554579D01*
X16634825Y-12516484D02*
X16634825Y-12554579D01*
X16930063Y-12792674D02*
X16920539Y-12783150D01*
X16920539Y-12783150D02*
X16901491Y-12754579D01*
X16901491Y-12754579D02*
X16891968Y-12735531D01*
X16891968Y-12735531D02*
X16882444Y-12706960D01*
X16882444Y-12706960D02*
X16872920Y-12659341D01*
X16872920Y-12659341D02*
X16872920Y-12621246D01*
X16872920Y-12621246D02*
X16882444Y-12573627D01*
X16882444Y-12573627D02*
X16891968Y-12545055D01*
X16891968Y-12545055D02*
X16901491Y-12526008D01*
X16901491Y-12526008D02*
X16920539Y-12497436D01*
X16920539Y-12497436D02*
X16930063Y-12487912D01*
X17034825Y-12602198D02*
X17015777Y-12592674D01*
X17015777Y-12592674D02*
X17006253Y-12583150D01*
X17006253Y-12583150D02*
X16996730Y-12564103D01*
X16996730Y-12564103D02*
X16996730Y-12554579D01*
X16996730Y-12554579D02*
X17006253Y-12535531D01*
X17006253Y-12535531D02*
X17015777Y-12526008D01*
X17015777Y-12526008D02*
X17034825Y-12516484D01*
X17034825Y-12516484D02*
X17072920Y-12516484D01*
X17072920Y-12516484D02*
X17091968Y-12526008D01*
X17091968Y-12526008D02*
X17101491Y-12535531D01*
X17101491Y-12535531D02*
X17111015Y-12554579D01*
X17111015Y-12554579D02*
X17111015Y-12564103D01*
X17111015Y-12564103D02*
X17101491Y-12583150D01*
X17101491Y-12583150D02*
X17091968Y-12592674D01*
X17091968Y-12592674D02*
X17072920Y-12602198D01*
X17072920Y-12602198D02*
X17034825Y-12602198D01*
X17034825Y-12602198D02*
X17015777Y-12611722D01*
X17015777Y-12611722D02*
X17006253Y-12621246D01*
X17006253Y-12621246D02*
X16996730Y-12640293D01*
X16996730Y-12640293D02*
X16996730Y-12678388D01*
X16996730Y-12678388D02*
X17006253Y-12697436D01*
X17006253Y-12697436D02*
X17015777Y-12706960D01*
X17015777Y-12706960D02*
X17034825Y-12716484D01*
X17034825Y-12716484D02*
X17072920Y-12716484D01*
X17072920Y-12716484D02*
X17091968Y-12706960D01*
X17091968Y-12706960D02*
X17101491Y-12697436D01*
X17101491Y-12697436D02*
X17111015Y-12678388D01*
X17111015Y-12678388D02*
X17111015Y-12640293D01*
X17111015Y-12640293D02*
X17101491Y-12621246D01*
X17101491Y-12621246D02*
X17091968Y-12611722D01*
X17091968Y-12611722D02*
X17072920Y-12602198D01*
X17349111Y-12716484D02*
X17349111Y-12516484D01*
X17434825Y-12716484D02*
X17434825Y-12611722D01*
X17434825Y-12611722D02*
X17425301Y-12592674D01*
X17425301Y-12592674D02*
X17406253Y-12583150D01*
X17406253Y-12583150D02*
X17377682Y-12583150D01*
X17377682Y-12583150D02*
X17358634Y-12592674D01*
X17358634Y-12592674D02*
X17349111Y-12602198D01*
X17558634Y-12716484D02*
X17539587Y-12706960D01*
X17539587Y-12706960D02*
X17530063Y-12697436D01*
X17530063Y-12697436D02*
X17520539Y-12678388D01*
X17520539Y-12678388D02*
X17520539Y-12621246D01*
X17520539Y-12621246D02*
X17530063Y-12602198D01*
X17530063Y-12602198D02*
X17539587Y-12592674D01*
X17539587Y-12592674D02*
X17558634Y-12583150D01*
X17558634Y-12583150D02*
X17587206Y-12583150D01*
X17587206Y-12583150D02*
X17606253Y-12592674D01*
X17606253Y-12592674D02*
X17615777Y-12602198D01*
X17615777Y-12602198D02*
X17625301Y-12621246D01*
X17625301Y-12621246D02*
X17625301Y-12678388D01*
X17625301Y-12678388D02*
X17615777Y-12697436D01*
X17615777Y-12697436D02*
X17606253Y-12706960D01*
X17606253Y-12706960D02*
X17587206Y-12716484D01*
X17587206Y-12716484D02*
X17558634Y-12716484D01*
X17739587Y-12716484D02*
X17720539Y-12706960D01*
X17720539Y-12706960D02*
X17711015Y-12687912D01*
X17711015Y-12687912D02*
X17711015Y-12516484D01*
X17891968Y-12706960D02*
X17872920Y-12716484D01*
X17872920Y-12716484D02*
X17834825Y-12716484D01*
X17834825Y-12716484D02*
X17815777Y-12706960D01*
X17815777Y-12706960D02*
X17806253Y-12687912D01*
X17806253Y-12687912D02*
X17806253Y-12611722D01*
X17806253Y-12611722D02*
X17815777Y-12592674D01*
X17815777Y-12592674D02*
X17834825Y-12583150D01*
X17834825Y-12583150D02*
X17872920Y-12583150D01*
X17872920Y-12583150D02*
X17891968Y-12592674D01*
X17891968Y-12592674D02*
X17901492Y-12611722D01*
X17901492Y-12611722D02*
X17901492Y-12630769D01*
X17901492Y-12630769D02*
X17806253Y-12649817D01*
X17977682Y-12706960D02*
X17996730Y-12716484D01*
X17996730Y-12716484D02*
X18034825Y-12716484D01*
X18034825Y-12716484D02*
X18053873Y-12706960D01*
X18053873Y-12706960D02*
X18063396Y-12687912D01*
X18063396Y-12687912D02*
X18063396Y-12678388D01*
X18063396Y-12678388D02*
X18053873Y-12659341D01*
X18053873Y-12659341D02*
X18034825Y-12649817D01*
X18034825Y-12649817D02*
X18006253Y-12649817D01*
X18006253Y-12649817D02*
X17987206Y-12640293D01*
X17987206Y-12640293D02*
X17977682Y-12621246D01*
X17977682Y-12621246D02*
X17977682Y-12611722D01*
X17977682Y-12611722D02*
X17987206Y-12592674D01*
X17987206Y-12592674D02*
X18006253Y-12583150D01*
X18006253Y-12583150D02*
X18034825Y-12583150D01*
X18034825Y-12583150D02*
X18053873Y-12592674D01*
X18130063Y-12792674D02*
X18139587Y-12783150D01*
X18139587Y-12783150D02*
X18158634Y-12754579D01*
X18158634Y-12754579D02*
X18168158Y-12735531D01*
X18168158Y-12735531D02*
X18177682Y-12706960D01*
X18177682Y-12706960D02*
X18187206Y-12659341D01*
X18187206Y-12659341D02*
X18187206Y-12621246D01*
X18187206Y-12621246D02*
X18177682Y-12573627D01*
X18177682Y-12573627D02*
X18168158Y-12545055D01*
X18168158Y-12545055D02*
X18158634Y-12526008D01*
X18158634Y-12526008D02*
X18139587Y-12497436D01*
X18139587Y-12497436D02*
X18130063Y-12487912D01*
D10*
X13355000Y-12889000D02*
G75*
G03*
X13355000Y-12889000I-37500J0D01*
G01*
D11*
X13653872Y-12780484D02*
X13672920Y-12780484D01*
X13672920Y-12780484D02*
X13691967Y-12790008D01*
X13691967Y-12790008D02*
X13701491Y-12799531D01*
X13701491Y-12799531D02*
X13711015Y-12818579D01*
X13711015Y-12818579D02*
X13720539Y-12856674D01*
X13720539Y-12856674D02*
X13720539Y-12904293D01*
X13720539Y-12904293D02*
X13711015Y-12942388D01*
X13711015Y-12942388D02*
X13701491Y-12961436D01*
X13701491Y-12961436D02*
X13691967Y-12970960D01*
X13691967Y-12970960D02*
X13672920Y-12980484D01*
X13672920Y-12980484D02*
X13653872Y-12980484D01*
X13653872Y-12980484D02*
X13634824Y-12970960D01*
X13634824Y-12970960D02*
X13625301Y-12961436D01*
X13625301Y-12961436D02*
X13615777Y-12942388D01*
X13615777Y-12942388D02*
X13606253Y-12904293D01*
X13606253Y-12904293D02*
X13606253Y-12856674D01*
X13606253Y-12856674D02*
X13615777Y-12818579D01*
X13615777Y-12818579D02*
X13625301Y-12799531D01*
X13625301Y-12799531D02*
X13634824Y-12790008D01*
X13634824Y-12790008D02*
X13653872Y-12780484D01*
X13806253Y-12961436D02*
X13815777Y-12970960D01*
X13815777Y-12970960D02*
X13806253Y-12980484D01*
X13806253Y-12980484D02*
X13796729Y-12970960D01*
X13796729Y-12970960D02*
X13806253Y-12961436D01*
X13806253Y-12961436D02*
X13806253Y-12980484D01*
X13882443Y-12780484D02*
X14015777Y-12780484D01*
X14015777Y-12780484D02*
X13930062Y-12980484D01*
X14187205Y-12780484D02*
X14091967Y-12780484D01*
X14091967Y-12780484D02*
X14082443Y-12875722D01*
X14082443Y-12875722D02*
X14091967Y-12866198D01*
X14091967Y-12866198D02*
X14111015Y-12856674D01*
X14111015Y-12856674D02*
X14158634Y-12856674D01*
X14158634Y-12856674D02*
X14177682Y-12866198D01*
X14177682Y-12866198D02*
X14187205Y-12875722D01*
X14187205Y-12875722D02*
X14196729Y-12894769D01*
X14196729Y-12894769D02*
X14196729Y-12942388D01*
X14196729Y-12942388D02*
X14187205Y-12961436D01*
X14187205Y-12961436D02*
X14177682Y-12970960D01*
X14177682Y-12970960D02*
X14158634Y-12980484D01*
X14158634Y-12980484D02*
X14111015Y-12980484D01*
X14111015Y-12980484D02*
X14091967Y-12970960D01*
X14091967Y-12970960D02*
X14082443Y-12961436D01*
X14320539Y-12780484D02*
X14339586Y-12780484D01*
X14339586Y-12780484D02*
X14358634Y-12790008D01*
X14358634Y-12790008D02*
X14368158Y-12799531D01*
X14368158Y-12799531D02*
X14377682Y-12818579D01*
X14377682Y-12818579D02*
X14387205Y-12856674D01*
X14387205Y-12856674D02*
X14387205Y-12904293D01*
X14387205Y-12904293D02*
X14377682Y-12942388D01*
X14377682Y-12942388D02*
X14368158Y-12961436D01*
X14368158Y-12961436D02*
X14358634Y-12970960D01*
X14358634Y-12970960D02*
X14339586Y-12980484D01*
X14339586Y-12980484D02*
X14320539Y-12980484D01*
X14320539Y-12980484D02*
X14301491Y-12970960D01*
X14301491Y-12970960D02*
X14291967Y-12961436D01*
X14291967Y-12961436D02*
X14282443Y-12942388D01*
X14282443Y-12942388D02*
X14272920Y-12904293D01*
X14272920Y-12904293D02*
X14272920Y-12856674D01*
X14272920Y-12856674D02*
X14282443Y-12818579D01*
X14282443Y-12818579D02*
X14291967Y-12799531D01*
X14291967Y-12799531D02*
X14301491Y-12790008D01*
X14301491Y-12790008D02*
X14320539Y-12780484D01*
X14472920Y-12980484D02*
X14472920Y-12847150D01*
X14472920Y-12866198D02*
X14482443Y-12856674D01*
X14482443Y-12856674D02*
X14501491Y-12847150D01*
X14501491Y-12847150D02*
X14530063Y-12847150D01*
X14530063Y-12847150D02*
X14549110Y-12856674D01*
X14549110Y-12856674D02*
X14558634Y-12875722D01*
X14558634Y-12875722D02*
X14558634Y-12980484D01*
X14558634Y-12875722D02*
X14568158Y-12856674D01*
X14568158Y-12856674D02*
X14587205Y-12847150D01*
X14587205Y-12847150D02*
X14615777Y-12847150D01*
X14615777Y-12847150D02*
X14634824Y-12856674D01*
X14634824Y-12856674D02*
X14644348Y-12875722D01*
X14644348Y-12875722D02*
X14644348Y-12980484D01*
X14739586Y-12980484D02*
X14739586Y-12847150D01*
X14739586Y-12866198D02*
X14749110Y-12856674D01*
X14749110Y-12856674D02*
X14768158Y-12847150D01*
X14768158Y-12847150D02*
X14796729Y-12847150D01*
X14796729Y-12847150D02*
X14815777Y-12856674D01*
X14815777Y-12856674D02*
X14825301Y-12875722D01*
X14825301Y-12875722D02*
X14825301Y-12980484D01*
X14825301Y-12875722D02*
X14834824Y-12856674D01*
X14834824Y-12856674D02*
X14853872Y-12847150D01*
X14853872Y-12847150D02*
X14882443Y-12847150D01*
X14882443Y-12847150D02*
X14901491Y-12856674D01*
X14901491Y-12856674D02*
X14911015Y-12875722D01*
X14911015Y-12875722D02*
X14911015Y-12980484D01*
X15301491Y-12770960D02*
X15130063Y-13028103D01*
X15558634Y-12780484D02*
X15577682Y-12780484D01*
X15577682Y-12780484D02*
X15596729Y-12790008D01*
X15596729Y-12790008D02*
X15606253Y-12799531D01*
X15606253Y-12799531D02*
X15615777Y-12818579D01*
X15615777Y-12818579D02*
X15625301Y-12856674D01*
X15625301Y-12856674D02*
X15625301Y-12904293D01*
X15625301Y-12904293D02*
X15615777Y-12942388D01*
X15615777Y-12942388D02*
X15606253Y-12961436D01*
X15606253Y-12961436D02*
X15596729Y-12970960D01*
X15596729Y-12970960D02*
X15577682Y-12980484D01*
X15577682Y-12980484D02*
X15558634Y-12980484D01*
X15558634Y-12980484D02*
X15539586Y-12970960D01*
X15539586Y-12970960D02*
X15530063Y-12961436D01*
X15530063Y-12961436D02*
X15520539Y-12942388D01*
X15520539Y-12942388D02*
X15511015Y-12904293D01*
X15511015Y-12904293D02*
X15511015Y-12856674D01*
X15511015Y-12856674D02*
X15520539Y-12818579D01*
X15520539Y-12818579D02*
X15530063Y-12799531D01*
X15530063Y-12799531D02*
X15539586Y-12790008D01*
X15539586Y-12790008D02*
X15558634Y-12780484D01*
X15711015Y-12961436D02*
X15720539Y-12970960D01*
X15720539Y-12970960D02*
X15711015Y-12980484D01*
X15711015Y-12980484D02*
X15701491Y-12970960D01*
X15701491Y-12970960D02*
X15711015Y-12961436D01*
X15711015Y-12961436D02*
X15711015Y-12980484D01*
X15844348Y-12780484D02*
X15863396Y-12780484D01*
X15863396Y-12780484D02*
X15882444Y-12790008D01*
X15882444Y-12790008D02*
X15891967Y-12799531D01*
X15891967Y-12799531D02*
X15901491Y-12818579D01*
X15901491Y-12818579D02*
X15911015Y-12856674D01*
X15911015Y-12856674D02*
X15911015Y-12904293D01*
X15911015Y-12904293D02*
X15901491Y-12942388D01*
X15901491Y-12942388D02*
X15891967Y-12961436D01*
X15891967Y-12961436D02*
X15882444Y-12970960D01*
X15882444Y-12970960D02*
X15863396Y-12980484D01*
X15863396Y-12980484D02*
X15844348Y-12980484D01*
X15844348Y-12980484D02*
X15825301Y-12970960D01*
X15825301Y-12970960D02*
X15815777Y-12961436D01*
X15815777Y-12961436D02*
X15806253Y-12942388D01*
X15806253Y-12942388D02*
X15796729Y-12904293D01*
X15796729Y-12904293D02*
X15796729Y-12856674D01*
X15796729Y-12856674D02*
X15806253Y-12818579D01*
X15806253Y-12818579D02*
X15815777Y-12799531D01*
X15815777Y-12799531D02*
X15825301Y-12790008D01*
X15825301Y-12790008D02*
X15844348Y-12780484D01*
X15987206Y-12799531D02*
X15996729Y-12790008D01*
X15996729Y-12790008D02*
X16015777Y-12780484D01*
X16015777Y-12780484D02*
X16063396Y-12780484D01*
X16063396Y-12780484D02*
X16082444Y-12790008D01*
X16082444Y-12790008D02*
X16091967Y-12799531D01*
X16091967Y-12799531D02*
X16101491Y-12818579D01*
X16101491Y-12818579D02*
X16101491Y-12837627D01*
X16101491Y-12837627D02*
X16091967Y-12866198D01*
X16091967Y-12866198D02*
X15977682Y-12980484D01*
X15977682Y-12980484D02*
X16101491Y-12980484D01*
X16196729Y-12980484D02*
X16234825Y-12980484D01*
X16234825Y-12980484D02*
X16253872Y-12970960D01*
X16253872Y-12970960D02*
X16263396Y-12961436D01*
X16263396Y-12961436D02*
X16282444Y-12932865D01*
X16282444Y-12932865D02*
X16291967Y-12894769D01*
X16291967Y-12894769D02*
X16291967Y-12818579D01*
X16291967Y-12818579D02*
X16282444Y-12799531D01*
X16282444Y-12799531D02*
X16272920Y-12790008D01*
X16272920Y-12790008D02*
X16253872Y-12780484D01*
X16253872Y-12780484D02*
X16215777Y-12780484D01*
X16215777Y-12780484D02*
X16196729Y-12790008D01*
X16196729Y-12790008D02*
X16187206Y-12799531D01*
X16187206Y-12799531D02*
X16177682Y-12818579D01*
X16177682Y-12818579D02*
X16177682Y-12866198D01*
X16177682Y-12866198D02*
X16187206Y-12885246D01*
X16187206Y-12885246D02*
X16196729Y-12894769D01*
X16196729Y-12894769D02*
X16215777Y-12904293D01*
X16215777Y-12904293D02*
X16253872Y-12904293D01*
X16253872Y-12904293D02*
X16272920Y-12894769D01*
X16272920Y-12894769D02*
X16282444Y-12885246D01*
X16282444Y-12885246D02*
X16291967Y-12866198D01*
X16472920Y-12780484D02*
X16377682Y-12780484D01*
X16377682Y-12780484D02*
X16368158Y-12875722D01*
X16368158Y-12875722D02*
X16377682Y-12866198D01*
X16377682Y-12866198D02*
X16396729Y-12856674D01*
X16396729Y-12856674D02*
X16444348Y-12856674D01*
X16444348Y-12856674D02*
X16463396Y-12866198D01*
X16463396Y-12866198D02*
X16472920Y-12875722D01*
X16472920Y-12875722D02*
X16482444Y-12894769D01*
X16482444Y-12894769D02*
X16482444Y-12942388D01*
X16482444Y-12942388D02*
X16472920Y-12961436D01*
X16472920Y-12961436D02*
X16463396Y-12970960D01*
X16463396Y-12970960D02*
X16444348Y-12980484D01*
X16444348Y-12980484D02*
X16396729Y-12980484D01*
X16396729Y-12980484D02*
X16377682Y-12970960D01*
X16377682Y-12970960D02*
X16368158Y-12961436D01*
X16558634Y-12780484D02*
X16558634Y-12818579D01*
X16634825Y-12780484D02*
X16634825Y-12818579D01*
X16930063Y-13056674D02*
X16920539Y-13047150D01*
X16920539Y-13047150D02*
X16901491Y-13018579D01*
X16901491Y-13018579D02*
X16891968Y-12999531D01*
X16891968Y-12999531D02*
X16882444Y-12970960D01*
X16882444Y-12970960D02*
X16872920Y-12923341D01*
X16872920Y-12923341D02*
X16872920Y-12885246D01*
X16872920Y-12885246D02*
X16882444Y-12837627D01*
X16882444Y-12837627D02*
X16891968Y-12809055D01*
X16891968Y-12809055D02*
X16901491Y-12790008D01*
X16901491Y-12790008D02*
X16920539Y-12761436D01*
X16920539Y-12761436D02*
X16930063Y-12751912D01*
X16987206Y-12780484D02*
X17111015Y-12780484D01*
X17111015Y-12780484D02*
X17044349Y-12856674D01*
X17044349Y-12856674D02*
X17072920Y-12856674D01*
X17072920Y-12856674D02*
X17091968Y-12866198D01*
X17091968Y-12866198D02*
X17101491Y-12875722D01*
X17101491Y-12875722D02*
X17111015Y-12894769D01*
X17111015Y-12894769D02*
X17111015Y-12942388D01*
X17111015Y-12942388D02*
X17101491Y-12961436D01*
X17101491Y-12961436D02*
X17091968Y-12970960D01*
X17091968Y-12970960D02*
X17072920Y-12980484D01*
X17072920Y-12980484D02*
X17015777Y-12980484D01*
X17015777Y-12980484D02*
X16996730Y-12970960D01*
X16996730Y-12970960D02*
X16987206Y-12961436D01*
X17349111Y-12980484D02*
X17349111Y-12780484D01*
X17434825Y-12980484D02*
X17434825Y-12875722D01*
X17434825Y-12875722D02*
X17425301Y-12856674D01*
X17425301Y-12856674D02*
X17406253Y-12847150D01*
X17406253Y-12847150D02*
X17377682Y-12847150D01*
X17377682Y-12847150D02*
X17358634Y-12856674D01*
X17358634Y-12856674D02*
X17349111Y-12866198D01*
X17558634Y-12980484D02*
X17539587Y-12970960D01*
X17539587Y-12970960D02*
X17530063Y-12961436D01*
X17530063Y-12961436D02*
X17520539Y-12942388D01*
X17520539Y-12942388D02*
X17520539Y-12885246D01*
X17520539Y-12885246D02*
X17530063Y-12866198D01*
X17530063Y-12866198D02*
X17539587Y-12856674D01*
X17539587Y-12856674D02*
X17558634Y-12847150D01*
X17558634Y-12847150D02*
X17587206Y-12847150D01*
X17587206Y-12847150D02*
X17606253Y-12856674D01*
X17606253Y-12856674D02*
X17615777Y-12866198D01*
X17615777Y-12866198D02*
X17625301Y-12885246D01*
X17625301Y-12885246D02*
X17625301Y-12942388D01*
X17625301Y-12942388D02*
X17615777Y-12961436D01*
X17615777Y-12961436D02*
X17606253Y-12970960D01*
X17606253Y-12970960D02*
X17587206Y-12980484D01*
X17587206Y-12980484D02*
X17558634Y-12980484D01*
X17739587Y-12980484D02*
X17720539Y-12970960D01*
X17720539Y-12970960D02*
X17711015Y-12951912D01*
X17711015Y-12951912D02*
X17711015Y-12780484D01*
X17891968Y-12970960D02*
X17872920Y-12980484D01*
X17872920Y-12980484D02*
X17834825Y-12980484D01*
X17834825Y-12980484D02*
X17815777Y-12970960D01*
X17815777Y-12970960D02*
X17806253Y-12951912D01*
X17806253Y-12951912D02*
X17806253Y-12875722D01*
X17806253Y-12875722D02*
X17815777Y-12856674D01*
X17815777Y-12856674D02*
X17834825Y-12847150D01*
X17834825Y-12847150D02*
X17872920Y-12847150D01*
X17872920Y-12847150D02*
X17891968Y-12856674D01*
X17891968Y-12856674D02*
X17901492Y-12875722D01*
X17901492Y-12875722D02*
X17901492Y-12894769D01*
X17901492Y-12894769D02*
X17806253Y-12913817D01*
X17977682Y-12970960D02*
X17996730Y-12980484D01*
X17996730Y-12980484D02*
X18034825Y-12980484D01*
X18034825Y-12980484D02*
X18053873Y-12970960D01*
X18053873Y-12970960D02*
X18063396Y-12951912D01*
X18063396Y-12951912D02*
X18063396Y-12942388D01*
X18063396Y-12942388D02*
X18053873Y-12923341D01*
X18053873Y-12923341D02*
X18034825Y-12913817D01*
X18034825Y-12913817D02*
X18006253Y-12913817D01*
X18006253Y-12913817D02*
X17987206Y-12904293D01*
X17987206Y-12904293D02*
X17977682Y-12885246D01*
X17977682Y-12885246D02*
X17977682Y-12875722D01*
X17977682Y-12875722D02*
X17987206Y-12856674D01*
X17987206Y-12856674D02*
X18006253Y-12847150D01*
X18006253Y-12847150D02*
X18034825Y-12847150D01*
X18034825Y-12847150D02*
X18053873Y-12856674D01*
X18130063Y-13056674D02*
X18139587Y-13047150D01*
X18139587Y-13047150D02*
X18158634Y-13018579D01*
X18158634Y-13018579D02*
X18168158Y-12999531D01*
X18168158Y-12999531D02*
X18177682Y-12970960D01*
X18177682Y-12970960D02*
X18187206Y-12923341D01*
X18187206Y-12923341D02*
X18187206Y-12885246D01*
X18187206Y-12885246D02*
X18177682Y-12837627D01*
X18177682Y-12837627D02*
X18168158Y-12809055D01*
X18168158Y-12809055D02*
X18158634Y-12790008D01*
X18158634Y-12790008D02*
X18139587Y-12761436D01*
X18139587Y-12761436D02*
X18130063Y-12751912D01*
D10*
X13315000Y-13113000D02*
X13315000Y-13193000D01*
X13275000Y-13153000D02*
X13355000Y-13153000D01*
D11*
X13653872Y-13044484D02*
X13672920Y-13044484D01*
X13672920Y-13044484D02*
X13691967Y-13054008D01*
X13691967Y-13054008D02*
X13701491Y-13063531D01*
X13701491Y-13063531D02*
X13711015Y-13082579D01*
X13711015Y-13082579D02*
X13720539Y-13120674D01*
X13720539Y-13120674D02*
X13720539Y-13168293D01*
X13720539Y-13168293D02*
X13711015Y-13206388D01*
X13711015Y-13206388D02*
X13701491Y-13225436D01*
X13701491Y-13225436D02*
X13691967Y-13234960D01*
X13691967Y-13234960D02*
X13672920Y-13244484D01*
X13672920Y-13244484D02*
X13653872Y-13244484D01*
X13653872Y-13244484D02*
X13634824Y-13234960D01*
X13634824Y-13234960D02*
X13625301Y-13225436D01*
X13625301Y-13225436D02*
X13615777Y-13206388D01*
X13615777Y-13206388D02*
X13606253Y-13168293D01*
X13606253Y-13168293D02*
X13606253Y-13120674D01*
X13606253Y-13120674D02*
X13615777Y-13082579D01*
X13615777Y-13082579D02*
X13625301Y-13063531D01*
X13625301Y-13063531D02*
X13634824Y-13054008D01*
X13634824Y-13054008D02*
X13653872Y-13044484D01*
X13806253Y-13225436D02*
X13815777Y-13234960D01*
X13815777Y-13234960D02*
X13806253Y-13244484D01*
X13806253Y-13244484D02*
X13796729Y-13234960D01*
X13796729Y-13234960D02*
X13806253Y-13225436D01*
X13806253Y-13225436D02*
X13806253Y-13244484D01*
X13930062Y-13130198D02*
X13911015Y-13120674D01*
X13911015Y-13120674D02*
X13901491Y-13111150D01*
X13901491Y-13111150D02*
X13891967Y-13092103D01*
X13891967Y-13092103D02*
X13891967Y-13082579D01*
X13891967Y-13082579D02*
X13901491Y-13063531D01*
X13901491Y-13063531D02*
X13911015Y-13054008D01*
X13911015Y-13054008D02*
X13930062Y-13044484D01*
X13930062Y-13044484D02*
X13968158Y-13044484D01*
X13968158Y-13044484D02*
X13987205Y-13054008D01*
X13987205Y-13054008D02*
X13996729Y-13063531D01*
X13996729Y-13063531D02*
X14006253Y-13082579D01*
X14006253Y-13082579D02*
X14006253Y-13092103D01*
X14006253Y-13092103D02*
X13996729Y-13111150D01*
X13996729Y-13111150D02*
X13987205Y-13120674D01*
X13987205Y-13120674D02*
X13968158Y-13130198D01*
X13968158Y-13130198D02*
X13930062Y-13130198D01*
X13930062Y-13130198D02*
X13911015Y-13139722D01*
X13911015Y-13139722D02*
X13901491Y-13149246D01*
X13901491Y-13149246D02*
X13891967Y-13168293D01*
X13891967Y-13168293D02*
X13891967Y-13206388D01*
X13891967Y-13206388D02*
X13901491Y-13225436D01*
X13901491Y-13225436D02*
X13911015Y-13234960D01*
X13911015Y-13234960D02*
X13930062Y-13244484D01*
X13930062Y-13244484D02*
X13968158Y-13244484D01*
X13968158Y-13244484D02*
X13987205Y-13234960D01*
X13987205Y-13234960D02*
X13996729Y-13225436D01*
X13996729Y-13225436D02*
X14006253Y-13206388D01*
X14006253Y-13206388D02*
X14006253Y-13168293D01*
X14006253Y-13168293D02*
X13996729Y-13149246D01*
X13996729Y-13149246D02*
X13987205Y-13139722D01*
X13987205Y-13139722D02*
X13968158Y-13130198D01*
X14130062Y-13044484D02*
X14149110Y-13044484D01*
X14149110Y-13044484D02*
X14168158Y-13054008D01*
X14168158Y-13054008D02*
X14177682Y-13063531D01*
X14177682Y-13063531D02*
X14187205Y-13082579D01*
X14187205Y-13082579D02*
X14196729Y-13120674D01*
X14196729Y-13120674D02*
X14196729Y-13168293D01*
X14196729Y-13168293D02*
X14187205Y-13206388D01*
X14187205Y-13206388D02*
X14177682Y-13225436D01*
X14177682Y-13225436D02*
X14168158Y-13234960D01*
X14168158Y-13234960D02*
X14149110Y-13244484D01*
X14149110Y-13244484D02*
X14130062Y-13244484D01*
X14130062Y-13244484D02*
X14111015Y-13234960D01*
X14111015Y-13234960D02*
X14101491Y-13225436D01*
X14101491Y-13225436D02*
X14091967Y-13206388D01*
X14091967Y-13206388D02*
X14082443Y-13168293D01*
X14082443Y-13168293D02*
X14082443Y-13120674D01*
X14082443Y-13120674D02*
X14091967Y-13082579D01*
X14091967Y-13082579D02*
X14101491Y-13063531D01*
X14101491Y-13063531D02*
X14111015Y-13054008D01*
X14111015Y-13054008D02*
X14130062Y-13044484D01*
X14320539Y-13044484D02*
X14339586Y-13044484D01*
X14339586Y-13044484D02*
X14358634Y-13054008D01*
X14358634Y-13054008D02*
X14368158Y-13063531D01*
X14368158Y-13063531D02*
X14377682Y-13082579D01*
X14377682Y-13082579D02*
X14387205Y-13120674D01*
X14387205Y-13120674D02*
X14387205Y-13168293D01*
X14387205Y-13168293D02*
X14377682Y-13206388D01*
X14377682Y-13206388D02*
X14368158Y-13225436D01*
X14368158Y-13225436D02*
X14358634Y-13234960D01*
X14358634Y-13234960D02*
X14339586Y-13244484D01*
X14339586Y-13244484D02*
X14320539Y-13244484D01*
X14320539Y-13244484D02*
X14301491Y-13234960D01*
X14301491Y-13234960D02*
X14291967Y-13225436D01*
X14291967Y-13225436D02*
X14282443Y-13206388D01*
X14282443Y-13206388D02*
X14272920Y-13168293D01*
X14272920Y-13168293D02*
X14272920Y-13120674D01*
X14272920Y-13120674D02*
X14282443Y-13082579D01*
X14282443Y-13082579D02*
X14291967Y-13063531D01*
X14291967Y-13063531D02*
X14301491Y-13054008D01*
X14301491Y-13054008D02*
X14320539Y-13044484D01*
X14472920Y-13244484D02*
X14472920Y-13111150D01*
X14472920Y-13130198D02*
X14482443Y-13120674D01*
X14482443Y-13120674D02*
X14501491Y-13111150D01*
X14501491Y-13111150D02*
X14530063Y-13111150D01*
X14530063Y-13111150D02*
X14549110Y-13120674D01*
X14549110Y-13120674D02*
X14558634Y-13139722D01*
X14558634Y-13139722D02*
X14558634Y-13244484D01*
X14558634Y-13139722D02*
X14568158Y-13120674D01*
X14568158Y-13120674D02*
X14587205Y-13111150D01*
X14587205Y-13111150D02*
X14615777Y-13111150D01*
X14615777Y-13111150D02*
X14634824Y-13120674D01*
X14634824Y-13120674D02*
X14644348Y-13139722D01*
X14644348Y-13139722D02*
X14644348Y-13244484D01*
X14739586Y-13244484D02*
X14739586Y-13111150D01*
X14739586Y-13130198D02*
X14749110Y-13120674D01*
X14749110Y-13120674D02*
X14768158Y-13111150D01*
X14768158Y-13111150D02*
X14796729Y-13111150D01*
X14796729Y-13111150D02*
X14815777Y-13120674D01*
X14815777Y-13120674D02*
X14825301Y-13139722D01*
X14825301Y-13139722D02*
X14825301Y-13244484D01*
X14825301Y-13139722D02*
X14834824Y-13120674D01*
X14834824Y-13120674D02*
X14853872Y-13111150D01*
X14853872Y-13111150D02*
X14882443Y-13111150D01*
X14882443Y-13111150D02*
X14901491Y-13120674D01*
X14901491Y-13120674D02*
X14911015Y-13139722D01*
X14911015Y-13139722D02*
X14911015Y-13244484D01*
X15301491Y-13034960D02*
X15130063Y-13292103D01*
X15558634Y-13044484D02*
X15577682Y-13044484D01*
X15577682Y-13044484D02*
X15596729Y-13054008D01*
X15596729Y-13054008D02*
X15606253Y-13063531D01*
X15606253Y-13063531D02*
X15615777Y-13082579D01*
X15615777Y-13082579D02*
X15625301Y-13120674D01*
X15625301Y-13120674D02*
X15625301Y-13168293D01*
X15625301Y-13168293D02*
X15615777Y-13206388D01*
X15615777Y-13206388D02*
X15606253Y-13225436D01*
X15606253Y-13225436D02*
X15596729Y-13234960D01*
X15596729Y-13234960D02*
X15577682Y-13244484D01*
X15577682Y-13244484D02*
X15558634Y-13244484D01*
X15558634Y-13244484D02*
X15539586Y-13234960D01*
X15539586Y-13234960D02*
X15530063Y-13225436D01*
X15530063Y-13225436D02*
X15520539Y-13206388D01*
X15520539Y-13206388D02*
X15511015Y-13168293D01*
X15511015Y-13168293D02*
X15511015Y-13120674D01*
X15511015Y-13120674D02*
X15520539Y-13082579D01*
X15520539Y-13082579D02*
X15530063Y-13063531D01*
X15530063Y-13063531D02*
X15539586Y-13054008D01*
X15539586Y-13054008D02*
X15558634Y-13044484D01*
X15711015Y-13225436D02*
X15720539Y-13234960D01*
X15720539Y-13234960D02*
X15711015Y-13244484D01*
X15711015Y-13244484D02*
X15701491Y-13234960D01*
X15701491Y-13234960D02*
X15711015Y-13225436D01*
X15711015Y-13225436D02*
X15711015Y-13244484D01*
X15844348Y-13044484D02*
X15863396Y-13044484D01*
X15863396Y-13044484D02*
X15882444Y-13054008D01*
X15882444Y-13054008D02*
X15891967Y-13063531D01*
X15891967Y-13063531D02*
X15901491Y-13082579D01*
X15901491Y-13082579D02*
X15911015Y-13120674D01*
X15911015Y-13120674D02*
X15911015Y-13168293D01*
X15911015Y-13168293D02*
X15901491Y-13206388D01*
X15901491Y-13206388D02*
X15891967Y-13225436D01*
X15891967Y-13225436D02*
X15882444Y-13234960D01*
X15882444Y-13234960D02*
X15863396Y-13244484D01*
X15863396Y-13244484D02*
X15844348Y-13244484D01*
X15844348Y-13244484D02*
X15825301Y-13234960D01*
X15825301Y-13234960D02*
X15815777Y-13225436D01*
X15815777Y-13225436D02*
X15806253Y-13206388D01*
X15806253Y-13206388D02*
X15796729Y-13168293D01*
X15796729Y-13168293D02*
X15796729Y-13120674D01*
X15796729Y-13120674D02*
X15806253Y-13082579D01*
X15806253Y-13082579D02*
X15815777Y-13063531D01*
X15815777Y-13063531D02*
X15825301Y-13054008D01*
X15825301Y-13054008D02*
X15844348Y-13044484D01*
X15977682Y-13044484D02*
X16101491Y-13044484D01*
X16101491Y-13044484D02*
X16034825Y-13120674D01*
X16034825Y-13120674D02*
X16063396Y-13120674D01*
X16063396Y-13120674D02*
X16082444Y-13130198D01*
X16082444Y-13130198D02*
X16091967Y-13139722D01*
X16091967Y-13139722D02*
X16101491Y-13158769D01*
X16101491Y-13158769D02*
X16101491Y-13206388D01*
X16101491Y-13206388D02*
X16091967Y-13225436D01*
X16091967Y-13225436D02*
X16082444Y-13234960D01*
X16082444Y-13234960D02*
X16063396Y-13244484D01*
X16063396Y-13244484D02*
X16006253Y-13244484D01*
X16006253Y-13244484D02*
X15987206Y-13234960D01*
X15987206Y-13234960D02*
X15977682Y-13225436D01*
X16291967Y-13244484D02*
X16177682Y-13244484D01*
X16234825Y-13244484D02*
X16234825Y-13044484D01*
X16234825Y-13044484D02*
X16215777Y-13073055D01*
X16215777Y-13073055D02*
X16196729Y-13092103D01*
X16196729Y-13092103D02*
X16177682Y-13101627D01*
X16472920Y-13044484D02*
X16377682Y-13044484D01*
X16377682Y-13044484D02*
X16368158Y-13139722D01*
X16368158Y-13139722D02*
X16377682Y-13130198D01*
X16377682Y-13130198D02*
X16396729Y-13120674D01*
X16396729Y-13120674D02*
X16444348Y-13120674D01*
X16444348Y-13120674D02*
X16463396Y-13130198D01*
X16463396Y-13130198D02*
X16472920Y-13139722D01*
X16472920Y-13139722D02*
X16482444Y-13158769D01*
X16482444Y-13158769D02*
X16482444Y-13206388D01*
X16482444Y-13206388D02*
X16472920Y-13225436D01*
X16472920Y-13225436D02*
X16463396Y-13234960D01*
X16463396Y-13234960D02*
X16444348Y-13244484D01*
X16444348Y-13244484D02*
X16396729Y-13244484D01*
X16396729Y-13244484D02*
X16377682Y-13234960D01*
X16377682Y-13234960D02*
X16368158Y-13225436D01*
X16558634Y-13044484D02*
X16558634Y-13082579D01*
X16634825Y-13044484D02*
X16634825Y-13082579D01*
X16930063Y-13320674D02*
X16920539Y-13311150D01*
X16920539Y-13311150D02*
X16901491Y-13282579D01*
X16901491Y-13282579D02*
X16891968Y-13263531D01*
X16891968Y-13263531D02*
X16882444Y-13234960D01*
X16882444Y-13234960D02*
X16872920Y-13187341D01*
X16872920Y-13187341D02*
X16872920Y-13149246D01*
X16872920Y-13149246D02*
X16882444Y-13101627D01*
X16882444Y-13101627D02*
X16891968Y-13073055D01*
X16891968Y-13073055D02*
X16901491Y-13054008D01*
X16901491Y-13054008D02*
X16920539Y-13025436D01*
X16920539Y-13025436D02*
X16930063Y-13015912D01*
X17034825Y-13130198D02*
X17015777Y-13120674D01*
X17015777Y-13120674D02*
X17006253Y-13111150D01*
X17006253Y-13111150D02*
X16996730Y-13092103D01*
X16996730Y-13092103D02*
X16996730Y-13082579D01*
X16996730Y-13082579D02*
X17006253Y-13063531D01*
X17006253Y-13063531D02*
X17015777Y-13054008D01*
X17015777Y-13054008D02*
X17034825Y-13044484D01*
X17034825Y-13044484D02*
X17072920Y-13044484D01*
X17072920Y-13044484D02*
X17091968Y-13054008D01*
X17091968Y-13054008D02*
X17101491Y-13063531D01*
X17101491Y-13063531D02*
X17111015Y-13082579D01*
X17111015Y-13082579D02*
X17111015Y-13092103D01*
X17111015Y-13092103D02*
X17101491Y-13111150D01*
X17101491Y-13111150D02*
X17091968Y-13120674D01*
X17091968Y-13120674D02*
X17072920Y-13130198D01*
X17072920Y-13130198D02*
X17034825Y-13130198D01*
X17034825Y-13130198D02*
X17015777Y-13139722D01*
X17015777Y-13139722D02*
X17006253Y-13149246D01*
X17006253Y-13149246D02*
X16996730Y-13168293D01*
X16996730Y-13168293D02*
X16996730Y-13206388D01*
X16996730Y-13206388D02*
X17006253Y-13225436D01*
X17006253Y-13225436D02*
X17015777Y-13234960D01*
X17015777Y-13234960D02*
X17034825Y-13244484D01*
X17034825Y-13244484D02*
X17072920Y-13244484D01*
X17072920Y-13244484D02*
X17091968Y-13234960D01*
X17091968Y-13234960D02*
X17101491Y-13225436D01*
X17101491Y-13225436D02*
X17111015Y-13206388D01*
X17111015Y-13206388D02*
X17111015Y-13168293D01*
X17111015Y-13168293D02*
X17101491Y-13149246D01*
X17101491Y-13149246D02*
X17091968Y-13139722D01*
X17091968Y-13139722D02*
X17072920Y-13130198D01*
X17349111Y-13244484D02*
X17349111Y-13044484D01*
X17434825Y-13244484D02*
X17434825Y-13139722D01*
X17434825Y-13139722D02*
X17425301Y-13120674D01*
X17425301Y-13120674D02*
X17406253Y-13111150D01*
X17406253Y-13111150D02*
X17377682Y-13111150D01*
X17377682Y-13111150D02*
X17358634Y-13120674D01*
X17358634Y-13120674D02*
X17349111Y-13130198D01*
X17558634Y-13244484D02*
X17539587Y-13234960D01*
X17539587Y-13234960D02*
X17530063Y-13225436D01*
X17530063Y-13225436D02*
X17520539Y-13206388D01*
X17520539Y-13206388D02*
X17520539Y-13149246D01*
X17520539Y-13149246D02*
X17530063Y-13130198D01*
X17530063Y-13130198D02*
X17539587Y-13120674D01*
X17539587Y-13120674D02*
X17558634Y-13111150D01*
X17558634Y-13111150D02*
X17587206Y-13111150D01*
X17587206Y-13111150D02*
X17606253Y-13120674D01*
X17606253Y-13120674D02*
X17615777Y-13130198D01*
X17615777Y-13130198D02*
X17625301Y-13149246D01*
X17625301Y-13149246D02*
X17625301Y-13206388D01*
X17625301Y-13206388D02*
X17615777Y-13225436D01*
X17615777Y-13225436D02*
X17606253Y-13234960D01*
X17606253Y-13234960D02*
X17587206Y-13244484D01*
X17587206Y-13244484D02*
X17558634Y-13244484D01*
X17739587Y-13244484D02*
X17720539Y-13234960D01*
X17720539Y-13234960D02*
X17711015Y-13215912D01*
X17711015Y-13215912D02*
X17711015Y-13044484D01*
X17891968Y-13234960D02*
X17872920Y-13244484D01*
X17872920Y-13244484D02*
X17834825Y-13244484D01*
X17834825Y-13244484D02*
X17815777Y-13234960D01*
X17815777Y-13234960D02*
X17806253Y-13215912D01*
X17806253Y-13215912D02*
X17806253Y-13139722D01*
X17806253Y-13139722D02*
X17815777Y-13120674D01*
X17815777Y-13120674D02*
X17834825Y-13111150D01*
X17834825Y-13111150D02*
X17872920Y-13111150D01*
X17872920Y-13111150D02*
X17891968Y-13120674D01*
X17891968Y-13120674D02*
X17901492Y-13139722D01*
X17901492Y-13139722D02*
X17901492Y-13158769D01*
X17901492Y-13158769D02*
X17806253Y-13177817D01*
X17977682Y-13234960D02*
X17996730Y-13244484D01*
X17996730Y-13244484D02*
X18034825Y-13244484D01*
X18034825Y-13244484D02*
X18053873Y-13234960D01*
X18053873Y-13234960D02*
X18063396Y-13215912D01*
X18063396Y-13215912D02*
X18063396Y-13206388D01*
X18063396Y-13206388D02*
X18053873Y-13187341D01*
X18053873Y-13187341D02*
X18034825Y-13177817D01*
X18034825Y-13177817D02*
X18006253Y-13177817D01*
X18006253Y-13177817D02*
X17987206Y-13168293D01*
X17987206Y-13168293D02*
X17977682Y-13149246D01*
X17977682Y-13149246D02*
X17977682Y-13139722D01*
X17977682Y-13139722D02*
X17987206Y-13120674D01*
X17987206Y-13120674D02*
X18006253Y-13111150D01*
X18006253Y-13111150D02*
X18034825Y-13111150D01*
X18034825Y-13111150D02*
X18053873Y-13120674D01*
X18130063Y-13320674D02*
X18139587Y-13311150D01*
X18139587Y-13311150D02*
X18158634Y-13282579D01*
X18158634Y-13282579D02*
X18168158Y-13263531D01*
X18168158Y-13263531D02*
X18177682Y-13234960D01*
X18177682Y-13234960D02*
X18187206Y-13187341D01*
X18187206Y-13187341D02*
X18187206Y-13149246D01*
X18187206Y-13149246D02*
X18177682Y-13101627D01*
X18177682Y-13101627D02*
X18168158Y-13073055D01*
X18168158Y-13073055D02*
X18158634Y-13054008D01*
X18158634Y-13054008D02*
X18139587Y-13025436D01*
X18139587Y-13025436D02*
X18130063Y-13015912D01*
D10*
X13341820Y-13448820D02*
X13341820Y-13385180D01*
X13278180Y-13385180D01*
X13278180Y-13448820D01*
X13341820Y-13448820D01*
D11*
X13653872Y-13308484D02*
X13672920Y-13308484D01*
X13672920Y-13308484D02*
X13691967Y-13318008D01*
X13691967Y-13318008D02*
X13701491Y-13327531D01*
X13701491Y-13327531D02*
X13711015Y-13346579D01*
X13711015Y-13346579D02*
X13720539Y-13384674D01*
X13720539Y-13384674D02*
X13720539Y-13432293D01*
X13720539Y-13432293D02*
X13711015Y-13470388D01*
X13711015Y-13470388D02*
X13701491Y-13489436D01*
X13701491Y-13489436D02*
X13691967Y-13498960D01*
X13691967Y-13498960D02*
X13672920Y-13508484D01*
X13672920Y-13508484D02*
X13653872Y-13508484D01*
X13653872Y-13508484D02*
X13634824Y-13498960D01*
X13634824Y-13498960D02*
X13625301Y-13489436D01*
X13625301Y-13489436D02*
X13615777Y-13470388D01*
X13615777Y-13470388D02*
X13606253Y-13432293D01*
X13606253Y-13432293D02*
X13606253Y-13384674D01*
X13606253Y-13384674D02*
X13615777Y-13346579D01*
X13615777Y-13346579D02*
X13625301Y-13327531D01*
X13625301Y-13327531D02*
X13634824Y-13318008D01*
X13634824Y-13318008D02*
X13653872Y-13308484D01*
X13806253Y-13489436D02*
X13815777Y-13498960D01*
X13815777Y-13498960D02*
X13806253Y-13508484D01*
X13806253Y-13508484D02*
X13796729Y-13498960D01*
X13796729Y-13498960D02*
X13806253Y-13489436D01*
X13806253Y-13489436D02*
X13806253Y-13508484D01*
X13911015Y-13508484D02*
X13949110Y-13508484D01*
X13949110Y-13508484D02*
X13968158Y-13498960D01*
X13968158Y-13498960D02*
X13977682Y-13489436D01*
X13977682Y-13489436D02*
X13996729Y-13460865D01*
X13996729Y-13460865D02*
X14006253Y-13422769D01*
X14006253Y-13422769D02*
X14006253Y-13346579D01*
X14006253Y-13346579D02*
X13996729Y-13327531D01*
X13996729Y-13327531D02*
X13987205Y-13318008D01*
X13987205Y-13318008D02*
X13968158Y-13308484D01*
X13968158Y-13308484D02*
X13930062Y-13308484D01*
X13930062Y-13308484D02*
X13911015Y-13318008D01*
X13911015Y-13318008D02*
X13901491Y-13327531D01*
X13901491Y-13327531D02*
X13891967Y-13346579D01*
X13891967Y-13346579D02*
X13891967Y-13394198D01*
X13891967Y-13394198D02*
X13901491Y-13413246D01*
X13901491Y-13413246D02*
X13911015Y-13422769D01*
X13911015Y-13422769D02*
X13930062Y-13432293D01*
X13930062Y-13432293D02*
X13968158Y-13432293D01*
X13968158Y-13432293D02*
X13987205Y-13422769D01*
X13987205Y-13422769D02*
X13996729Y-13413246D01*
X13996729Y-13413246D02*
X14006253Y-13394198D01*
X14130062Y-13308484D02*
X14149110Y-13308484D01*
X14149110Y-13308484D02*
X14168158Y-13318008D01*
X14168158Y-13318008D02*
X14177682Y-13327531D01*
X14177682Y-13327531D02*
X14187205Y-13346579D01*
X14187205Y-13346579D02*
X14196729Y-13384674D01*
X14196729Y-13384674D02*
X14196729Y-13432293D01*
X14196729Y-13432293D02*
X14187205Y-13470388D01*
X14187205Y-13470388D02*
X14177682Y-13489436D01*
X14177682Y-13489436D02*
X14168158Y-13498960D01*
X14168158Y-13498960D02*
X14149110Y-13508484D01*
X14149110Y-13508484D02*
X14130062Y-13508484D01*
X14130062Y-13508484D02*
X14111015Y-13498960D01*
X14111015Y-13498960D02*
X14101491Y-13489436D01*
X14101491Y-13489436D02*
X14091967Y-13470388D01*
X14091967Y-13470388D02*
X14082443Y-13432293D01*
X14082443Y-13432293D02*
X14082443Y-13384674D01*
X14082443Y-13384674D02*
X14091967Y-13346579D01*
X14091967Y-13346579D02*
X14101491Y-13327531D01*
X14101491Y-13327531D02*
X14111015Y-13318008D01*
X14111015Y-13318008D02*
X14130062Y-13308484D01*
X14320539Y-13308484D02*
X14339586Y-13308484D01*
X14339586Y-13308484D02*
X14358634Y-13318008D01*
X14358634Y-13318008D02*
X14368158Y-13327531D01*
X14368158Y-13327531D02*
X14377682Y-13346579D01*
X14377682Y-13346579D02*
X14387205Y-13384674D01*
X14387205Y-13384674D02*
X14387205Y-13432293D01*
X14387205Y-13432293D02*
X14377682Y-13470388D01*
X14377682Y-13470388D02*
X14368158Y-13489436D01*
X14368158Y-13489436D02*
X14358634Y-13498960D01*
X14358634Y-13498960D02*
X14339586Y-13508484D01*
X14339586Y-13508484D02*
X14320539Y-13508484D01*
X14320539Y-13508484D02*
X14301491Y-13498960D01*
X14301491Y-13498960D02*
X14291967Y-13489436D01*
X14291967Y-13489436D02*
X14282443Y-13470388D01*
X14282443Y-13470388D02*
X14272920Y-13432293D01*
X14272920Y-13432293D02*
X14272920Y-13384674D01*
X14272920Y-13384674D02*
X14282443Y-13346579D01*
X14282443Y-13346579D02*
X14291967Y-13327531D01*
X14291967Y-13327531D02*
X14301491Y-13318008D01*
X14301491Y-13318008D02*
X14320539Y-13308484D01*
X14472920Y-13508484D02*
X14472920Y-13375150D01*
X14472920Y-13394198D02*
X14482443Y-13384674D01*
X14482443Y-13384674D02*
X14501491Y-13375150D01*
X14501491Y-13375150D02*
X14530063Y-13375150D01*
X14530063Y-13375150D02*
X14549110Y-13384674D01*
X14549110Y-13384674D02*
X14558634Y-13403722D01*
X14558634Y-13403722D02*
X14558634Y-13508484D01*
X14558634Y-13403722D02*
X14568158Y-13384674D01*
X14568158Y-13384674D02*
X14587205Y-13375150D01*
X14587205Y-13375150D02*
X14615777Y-13375150D01*
X14615777Y-13375150D02*
X14634824Y-13384674D01*
X14634824Y-13384674D02*
X14644348Y-13403722D01*
X14644348Y-13403722D02*
X14644348Y-13508484D01*
X14739586Y-13508484D02*
X14739586Y-13375150D01*
X14739586Y-13394198D02*
X14749110Y-13384674D01*
X14749110Y-13384674D02*
X14768158Y-13375150D01*
X14768158Y-13375150D02*
X14796729Y-13375150D01*
X14796729Y-13375150D02*
X14815777Y-13384674D01*
X14815777Y-13384674D02*
X14825301Y-13403722D01*
X14825301Y-13403722D02*
X14825301Y-13508484D01*
X14825301Y-13403722D02*
X14834824Y-13384674D01*
X14834824Y-13384674D02*
X14853872Y-13375150D01*
X14853872Y-13375150D02*
X14882443Y-13375150D01*
X14882443Y-13375150D02*
X14901491Y-13384674D01*
X14901491Y-13384674D02*
X14911015Y-13403722D01*
X14911015Y-13403722D02*
X14911015Y-13508484D01*
X15301491Y-13298960D02*
X15130063Y-13556103D01*
X15558634Y-13308484D02*
X15577682Y-13308484D01*
X15577682Y-13308484D02*
X15596729Y-13318008D01*
X15596729Y-13318008D02*
X15606253Y-13327531D01*
X15606253Y-13327531D02*
X15615777Y-13346579D01*
X15615777Y-13346579D02*
X15625301Y-13384674D01*
X15625301Y-13384674D02*
X15625301Y-13432293D01*
X15625301Y-13432293D02*
X15615777Y-13470388D01*
X15615777Y-13470388D02*
X15606253Y-13489436D01*
X15606253Y-13489436D02*
X15596729Y-13498960D01*
X15596729Y-13498960D02*
X15577682Y-13508484D01*
X15577682Y-13508484D02*
X15558634Y-13508484D01*
X15558634Y-13508484D02*
X15539586Y-13498960D01*
X15539586Y-13498960D02*
X15530063Y-13489436D01*
X15530063Y-13489436D02*
X15520539Y-13470388D01*
X15520539Y-13470388D02*
X15511015Y-13432293D01*
X15511015Y-13432293D02*
X15511015Y-13384674D01*
X15511015Y-13384674D02*
X15520539Y-13346579D01*
X15520539Y-13346579D02*
X15530063Y-13327531D01*
X15530063Y-13327531D02*
X15539586Y-13318008D01*
X15539586Y-13318008D02*
X15558634Y-13308484D01*
X15711015Y-13489436D02*
X15720539Y-13498960D01*
X15720539Y-13498960D02*
X15711015Y-13508484D01*
X15711015Y-13508484D02*
X15701491Y-13498960D01*
X15701491Y-13498960D02*
X15711015Y-13489436D01*
X15711015Y-13489436D02*
X15711015Y-13508484D01*
X15844348Y-13308484D02*
X15863396Y-13308484D01*
X15863396Y-13308484D02*
X15882444Y-13318008D01*
X15882444Y-13318008D02*
X15891967Y-13327531D01*
X15891967Y-13327531D02*
X15901491Y-13346579D01*
X15901491Y-13346579D02*
X15911015Y-13384674D01*
X15911015Y-13384674D02*
X15911015Y-13432293D01*
X15911015Y-13432293D02*
X15901491Y-13470388D01*
X15901491Y-13470388D02*
X15891967Y-13489436D01*
X15891967Y-13489436D02*
X15882444Y-13498960D01*
X15882444Y-13498960D02*
X15863396Y-13508484D01*
X15863396Y-13508484D02*
X15844348Y-13508484D01*
X15844348Y-13508484D02*
X15825301Y-13498960D01*
X15825301Y-13498960D02*
X15815777Y-13489436D01*
X15815777Y-13489436D02*
X15806253Y-13470388D01*
X15806253Y-13470388D02*
X15796729Y-13432293D01*
X15796729Y-13432293D02*
X15796729Y-13384674D01*
X15796729Y-13384674D02*
X15806253Y-13346579D01*
X15806253Y-13346579D02*
X15815777Y-13327531D01*
X15815777Y-13327531D02*
X15825301Y-13318008D01*
X15825301Y-13318008D02*
X15844348Y-13308484D01*
X15977682Y-13308484D02*
X16101491Y-13308484D01*
X16101491Y-13308484D02*
X16034825Y-13384674D01*
X16034825Y-13384674D02*
X16063396Y-13384674D01*
X16063396Y-13384674D02*
X16082444Y-13394198D01*
X16082444Y-13394198D02*
X16091967Y-13403722D01*
X16091967Y-13403722D02*
X16101491Y-13422769D01*
X16101491Y-13422769D02*
X16101491Y-13470388D01*
X16101491Y-13470388D02*
X16091967Y-13489436D01*
X16091967Y-13489436D02*
X16082444Y-13498960D01*
X16082444Y-13498960D02*
X16063396Y-13508484D01*
X16063396Y-13508484D02*
X16006253Y-13508484D01*
X16006253Y-13508484D02*
X15987206Y-13498960D01*
X15987206Y-13498960D02*
X15977682Y-13489436D01*
X16282444Y-13308484D02*
X16187206Y-13308484D01*
X16187206Y-13308484D02*
X16177682Y-13403722D01*
X16177682Y-13403722D02*
X16187206Y-13394198D01*
X16187206Y-13394198D02*
X16206253Y-13384674D01*
X16206253Y-13384674D02*
X16253872Y-13384674D01*
X16253872Y-13384674D02*
X16272920Y-13394198D01*
X16272920Y-13394198D02*
X16282444Y-13403722D01*
X16282444Y-13403722D02*
X16291967Y-13422769D01*
X16291967Y-13422769D02*
X16291967Y-13470388D01*
X16291967Y-13470388D02*
X16282444Y-13489436D01*
X16282444Y-13489436D02*
X16272920Y-13498960D01*
X16272920Y-13498960D02*
X16253872Y-13508484D01*
X16253872Y-13508484D02*
X16206253Y-13508484D01*
X16206253Y-13508484D02*
X16187206Y-13498960D01*
X16187206Y-13498960D02*
X16177682Y-13489436D01*
X16463396Y-13375150D02*
X16463396Y-13508484D01*
X16415777Y-13298960D02*
X16368158Y-13441817D01*
X16368158Y-13441817D02*
X16491967Y-13441817D01*
X16558634Y-13308484D02*
X16558634Y-13346579D01*
X16634825Y-13308484D02*
X16634825Y-13346579D01*
X16930063Y-13584674D02*
X16920539Y-13575150D01*
X16920539Y-13575150D02*
X16901491Y-13546579D01*
X16901491Y-13546579D02*
X16891968Y-13527531D01*
X16891968Y-13527531D02*
X16882444Y-13498960D01*
X16882444Y-13498960D02*
X16872920Y-13451341D01*
X16872920Y-13451341D02*
X16872920Y-13413246D01*
X16872920Y-13413246D02*
X16882444Y-13365627D01*
X16882444Y-13365627D02*
X16891968Y-13337055D01*
X16891968Y-13337055D02*
X16901491Y-13318008D01*
X16901491Y-13318008D02*
X16920539Y-13289436D01*
X16920539Y-13289436D02*
X16930063Y-13279912D01*
X17091968Y-13375150D02*
X17091968Y-13508484D01*
X17044349Y-13298960D02*
X16996730Y-13441817D01*
X16996730Y-13441817D02*
X17120539Y-13441817D01*
X17349111Y-13508484D02*
X17349111Y-13308484D01*
X17434825Y-13508484D02*
X17434825Y-13403722D01*
X17434825Y-13403722D02*
X17425301Y-13384674D01*
X17425301Y-13384674D02*
X17406253Y-13375150D01*
X17406253Y-13375150D02*
X17377682Y-13375150D01*
X17377682Y-13375150D02*
X17358634Y-13384674D01*
X17358634Y-13384674D02*
X17349111Y-13394198D01*
X17558634Y-13508484D02*
X17539587Y-13498960D01*
X17539587Y-13498960D02*
X17530063Y-13489436D01*
X17530063Y-13489436D02*
X17520539Y-13470388D01*
X17520539Y-13470388D02*
X17520539Y-13413246D01*
X17520539Y-13413246D02*
X17530063Y-13394198D01*
X17530063Y-13394198D02*
X17539587Y-13384674D01*
X17539587Y-13384674D02*
X17558634Y-13375150D01*
X17558634Y-13375150D02*
X17587206Y-13375150D01*
X17587206Y-13375150D02*
X17606253Y-13384674D01*
X17606253Y-13384674D02*
X17615777Y-13394198D01*
X17615777Y-13394198D02*
X17625301Y-13413246D01*
X17625301Y-13413246D02*
X17625301Y-13470388D01*
X17625301Y-13470388D02*
X17615777Y-13489436D01*
X17615777Y-13489436D02*
X17606253Y-13498960D01*
X17606253Y-13498960D02*
X17587206Y-13508484D01*
X17587206Y-13508484D02*
X17558634Y-13508484D01*
X17739587Y-13508484D02*
X17720539Y-13498960D01*
X17720539Y-13498960D02*
X17711015Y-13479912D01*
X17711015Y-13479912D02*
X17711015Y-13308484D01*
X17891968Y-13498960D02*
X17872920Y-13508484D01*
X17872920Y-13508484D02*
X17834825Y-13508484D01*
X17834825Y-13508484D02*
X17815777Y-13498960D01*
X17815777Y-13498960D02*
X17806253Y-13479912D01*
X17806253Y-13479912D02*
X17806253Y-13403722D01*
X17806253Y-13403722D02*
X17815777Y-13384674D01*
X17815777Y-13384674D02*
X17834825Y-13375150D01*
X17834825Y-13375150D02*
X17872920Y-13375150D01*
X17872920Y-13375150D02*
X17891968Y-13384674D01*
X17891968Y-13384674D02*
X17901492Y-13403722D01*
X17901492Y-13403722D02*
X17901492Y-13422769D01*
X17901492Y-13422769D02*
X17806253Y-13441817D01*
X17977682Y-13498960D02*
X17996730Y-13508484D01*
X17996730Y-13508484D02*
X18034825Y-13508484D01*
X18034825Y-13508484D02*
X18053873Y-13498960D01*
X18053873Y-13498960D02*
X18063396Y-13479912D01*
X18063396Y-13479912D02*
X18063396Y-13470388D01*
X18063396Y-13470388D02*
X18053873Y-13451341D01*
X18053873Y-13451341D02*
X18034825Y-13441817D01*
X18034825Y-13441817D02*
X18006253Y-13441817D01*
X18006253Y-13441817D02*
X17987206Y-13432293D01*
X17987206Y-13432293D02*
X17977682Y-13413246D01*
X17977682Y-13413246D02*
X17977682Y-13403722D01*
X17977682Y-13403722D02*
X17987206Y-13384674D01*
X17987206Y-13384674D02*
X18006253Y-13375150D01*
X18006253Y-13375150D02*
X18034825Y-13375150D01*
X18034825Y-13375150D02*
X18053873Y-13384674D01*
X18130063Y-13584674D02*
X18139587Y-13575150D01*
X18139587Y-13575150D02*
X18158634Y-13546579D01*
X18158634Y-13546579D02*
X18168158Y-13527531D01*
X18168158Y-13527531D02*
X18177682Y-13498960D01*
X18177682Y-13498960D02*
X18187206Y-13451341D01*
X18187206Y-13451341D02*
X18187206Y-13413246D01*
X18187206Y-13413246D02*
X18177682Y-13365627D01*
X18177682Y-13365627D02*
X18168158Y-13337055D01*
X18168158Y-13337055D02*
X18158634Y-13318008D01*
X18158634Y-13318008D02*
X18139587Y-13289436D01*
X18139587Y-13289436D02*
X18130063Y-13279912D01*
D10*
X13305000Y-13731000D02*
X13355000Y-13681000D01*
X13305000Y-13631000D01*
X13255000Y-13681000D01*
X13305000Y-13731000D01*
D11*
X13720539Y-13772484D02*
X13606253Y-13772484D01*
X13663396Y-13772484D02*
X13663396Y-13572484D01*
X13663396Y-13572484D02*
X13644348Y-13601055D01*
X13644348Y-13601055D02*
X13625301Y-13620103D01*
X13625301Y-13620103D02*
X13606253Y-13629627D01*
X13806253Y-13753436D02*
X13815777Y-13762960D01*
X13815777Y-13762960D02*
X13806253Y-13772484D01*
X13806253Y-13772484D02*
X13796729Y-13762960D01*
X13796729Y-13762960D02*
X13806253Y-13753436D01*
X13806253Y-13753436D02*
X13806253Y-13772484D01*
X13939586Y-13572484D02*
X13958634Y-13572484D01*
X13958634Y-13572484D02*
X13977682Y-13582008D01*
X13977682Y-13582008D02*
X13987205Y-13591531D01*
X13987205Y-13591531D02*
X13996729Y-13610579D01*
X13996729Y-13610579D02*
X14006253Y-13648674D01*
X14006253Y-13648674D02*
X14006253Y-13696293D01*
X14006253Y-13696293D02*
X13996729Y-13734388D01*
X13996729Y-13734388D02*
X13987205Y-13753436D01*
X13987205Y-13753436D02*
X13977682Y-13762960D01*
X13977682Y-13762960D02*
X13958634Y-13772484D01*
X13958634Y-13772484D02*
X13939586Y-13772484D01*
X13939586Y-13772484D02*
X13920539Y-13762960D01*
X13920539Y-13762960D02*
X13911015Y-13753436D01*
X13911015Y-13753436D02*
X13901491Y-13734388D01*
X13901491Y-13734388D02*
X13891967Y-13696293D01*
X13891967Y-13696293D02*
X13891967Y-13648674D01*
X13891967Y-13648674D02*
X13901491Y-13610579D01*
X13901491Y-13610579D02*
X13911015Y-13591531D01*
X13911015Y-13591531D02*
X13920539Y-13582008D01*
X13920539Y-13582008D02*
X13939586Y-13572484D01*
X14130062Y-13572484D02*
X14149110Y-13572484D01*
X14149110Y-13572484D02*
X14168158Y-13582008D01*
X14168158Y-13582008D02*
X14177682Y-13591531D01*
X14177682Y-13591531D02*
X14187205Y-13610579D01*
X14187205Y-13610579D02*
X14196729Y-13648674D01*
X14196729Y-13648674D02*
X14196729Y-13696293D01*
X14196729Y-13696293D02*
X14187205Y-13734388D01*
X14187205Y-13734388D02*
X14177682Y-13753436D01*
X14177682Y-13753436D02*
X14168158Y-13762960D01*
X14168158Y-13762960D02*
X14149110Y-13772484D01*
X14149110Y-13772484D02*
X14130062Y-13772484D01*
X14130062Y-13772484D02*
X14111015Y-13762960D01*
X14111015Y-13762960D02*
X14101491Y-13753436D01*
X14101491Y-13753436D02*
X14091967Y-13734388D01*
X14091967Y-13734388D02*
X14082443Y-13696293D01*
X14082443Y-13696293D02*
X14082443Y-13648674D01*
X14082443Y-13648674D02*
X14091967Y-13610579D01*
X14091967Y-13610579D02*
X14101491Y-13591531D01*
X14101491Y-13591531D02*
X14111015Y-13582008D01*
X14111015Y-13582008D02*
X14130062Y-13572484D01*
X14320539Y-13572484D02*
X14339586Y-13572484D01*
X14339586Y-13572484D02*
X14358634Y-13582008D01*
X14358634Y-13582008D02*
X14368158Y-13591531D01*
X14368158Y-13591531D02*
X14377682Y-13610579D01*
X14377682Y-13610579D02*
X14387205Y-13648674D01*
X14387205Y-13648674D02*
X14387205Y-13696293D01*
X14387205Y-13696293D02*
X14377682Y-13734388D01*
X14377682Y-13734388D02*
X14368158Y-13753436D01*
X14368158Y-13753436D02*
X14358634Y-13762960D01*
X14358634Y-13762960D02*
X14339586Y-13772484D01*
X14339586Y-13772484D02*
X14320539Y-13772484D01*
X14320539Y-13772484D02*
X14301491Y-13762960D01*
X14301491Y-13762960D02*
X14291967Y-13753436D01*
X14291967Y-13753436D02*
X14282443Y-13734388D01*
X14282443Y-13734388D02*
X14272920Y-13696293D01*
X14272920Y-13696293D02*
X14272920Y-13648674D01*
X14272920Y-13648674D02*
X14282443Y-13610579D01*
X14282443Y-13610579D02*
X14291967Y-13591531D01*
X14291967Y-13591531D02*
X14301491Y-13582008D01*
X14301491Y-13582008D02*
X14320539Y-13572484D01*
X14472920Y-13772484D02*
X14472920Y-13639150D01*
X14472920Y-13658198D02*
X14482443Y-13648674D01*
X14482443Y-13648674D02*
X14501491Y-13639150D01*
X14501491Y-13639150D02*
X14530063Y-13639150D01*
X14530063Y-13639150D02*
X14549110Y-13648674D01*
X14549110Y-13648674D02*
X14558634Y-13667722D01*
X14558634Y-13667722D02*
X14558634Y-13772484D01*
X14558634Y-13667722D02*
X14568158Y-13648674D01*
X14568158Y-13648674D02*
X14587205Y-13639150D01*
X14587205Y-13639150D02*
X14615777Y-13639150D01*
X14615777Y-13639150D02*
X14634824Y-13648674D01*
X14634824Y-13648674D02*
X14644348Y-13667722D01*
X14644348Y-13667722D02*
X14644348Y-13772484D01*
X14739586Y-13772484D02*
X14739586Y-13639150D01*
X14739586Y-13658198D02*
X14749110Y-13648674D01*
X14749110Y-13648674D02*
X14768158Y-13639150D01*
X14768158Y-13639150D02*
X14796729Y-13639150D01*
X14796729Y-13639150D02*
X14815777Y-13648674D01*
X14815777Y-13648674D02*
X14825301Y-13667722D01*
X14825301Y-13667722D02*
X14825301Y-13772484D01*
X14825301Y-13667722D02*
X14834824Y-13648674D01*
X14834824Y-13648674D02*
X14853872Y-13639150D01*
X14853872Y-13639150D02*
X14882443Y-13639150D01*
X14882443Y-13639150D02*
X14901491Y-13648674D01*
X14901491Y-13648674D02*
X14911015Y-13667722D01*
X14911015Y-13667722D02*
X14911015Y-13772484D01*
X15301491Y-13562960D02*
X15130063Y-13820103D01*
X15558634Y-13572484D02*
X15577682Y-13572484D01*
X15577682Y-13572484D02*
X15596729Y-13582008D01*
X15596729Y-13582008D02*
X15606253Y-13591531D01*
X15606253Y-13591531D02*
X15615777Y-13610579D01*
X15615777Y-13610579D02*
X15625301Y-13648674D01*
X15625301Y-13648674D02*
X15625301Y-13696293D01*
X15625301Y-13696293D02*
X15615777Y-13734388D01*
X15615777Y-13734388D02*
X15606253Y-13753436D01*
X15606253Y-13753436D02*
X15596729Y-13762960D01*
X15596729Y-13762960D02*
X15577682Y-13772484D01*
X15577682Y-13772484D02*
X15558634Y-13772484D01*
X15558634Y-13772484D02*
X15539586Y-13762960D01*
X15539586Y-13762960D02*
X15530063Y-13753436D01*
X15530063Y-13753436D02*
X15520539Y-13734388D01*
X15520539Y-13734388D02*
X15511015Y-13696293D01*
X15511015Y-13696293D02*
X15511015Y-13648674D01*
X15511015Y-13648674D02*
X15520539Y-13610579D01*
X15520539Y-13610579D02*
X15530063Y-13591531D01*
X15530063Y-13591531D02*
X15539586Y-13582008D01*
X15539586Y-13582008D02*
X15558634Y-13572484D01*
X15711015Y-13753436D02*
X15720539Y-13762960D01*
X15720539Y-13762960D02*
X15711015Y-13772484D01*
X15711015Y-13772484D02*
X15701491Y-13762960D01*
X15701491Y-13762960D02*
X15711015Y-13753436D01*
X15711015Y-13753436D02*
X15711015Y-13772484D01*
X15844348Y-13572484D02*
X15863396Y-13572484D01*
X15863396Y-13572484D02*
X15882444Y-13582008D01*
X15882444Y-13582008D02*
X15891967Y-13591531D01*
X15891967Y-13591531D02*
X15901491Y-13610579D01*
X15901491Y-13610579D02*
X15911015Y-13648674D01*
X15911015Y-13648674D02*
X15911015Y-13696293D01*
X15911015Y-13696293D02*
X15901491Y-13734388D01*
X15901491Y-13734388D02*
X15891967Y-13753436D01*
X15891967Y-13753436D02*
X15882444Y-13762960D01*
X15882444Y-13762960D02*
X15863396Y-13772484D01*
X15863396Y-13772484D02*
X15844348Y-13772484D01*
X15844348Y-13772484D02*
X15825301Y-13762960D01*
X15825301Y-13762960D02*
X15815777Y-13753436D01*
X15815777Y-13753436D02*
X15806253Y-13734388D01*
X15806253Y-13734388D02*
X15796729Y-13696293D01*
X15796729Y-13696293D02*
X15796729Y-13648674D01*
X15796729Y-13648674D02*
X15806253Y-13610579D01*
X15806253Y-13610579D02*
X15815777Y-13591531D01*
X15815777Y-13591531D02*
X15825301Y-13582008D01*
X15825301Y-13582008D02*
X15844348Y-13572484D01*
X15977682Y-13572484D02*
X16101491Y-13572484D01*
X16101491Y-13572484D02*
X16034825Y-13648674D01*
X16034825Y-13648674D02*
X16063396Y-13648674D01*
X16063396Y-13648674D02*
X16082444Y-13658198D01*
X16082444Y-13658198D02*
X16091967Y-13667722D01*
X16091967Y-13667722D02*
X16101491Y-13686769D01*
X16101491Y-13686769D02*
X16101491Y-13734388D01*
X16101491Y-13734388D02*
X16091967Y-13753436D01*
X16091967Y-13753436D02*
X16082444Y-13762960D01*
X16082444Y-13762960D02*
X16063396Y-13772484D01*
X16063396Y-13772484D02*
X16006253Y-13772484D01*
X16006253Y-13772484D02*
X15987206Y-13762960D01*
X15987206Y-13762960D02*
X15977682Y-13753436D01*
X16196729Y-13772484D02*
X16234825Y-13772484D01*
X16234825Y-13772484D02*
X16253872Y-13762960D01*
X16253872Y-13762960D02*
X16263396Y-13753436D01*
X16263396Y-13753436D02*
X16282444Y-13724865D01*
X16282444Y-13724865D02*
X16291967Y-13686769D01*
X16291967Y-13686769D02*
X16291967Y-13610579D01*
X16291967Y-13610579D02*
X16282444Y-13591531D01*
X16282444Y-13591531D02*
X16272920Y-13582008D01*
X16272920Y-13582008D02*
X16253872Y-13572484D01*
X16253872Y-13572484D02*
X16215777Y-13572484D01*
X16215777Y-13572484D02*
X16196729Y-13582008D01*
X16196729Y-13582008D02*
X16187206Y-13591531D01*
X16187206Y-13591531D02*
X16177682Y-13610579D01*
X16177682Y-13610579D02*
X16177682Y-13658198D01*
X16177682Y-13658198D02*
X16187206Y-13677246D01*
X16187206Y-13677246D02*
X16196729Y-13686769D01*
X16196729Y-13686769D02*
X16215777Y-13696293D01*
X16215777Y-13696293D02*
X16253872Y-13696293D01*
X16253872Y-13696293D02*
X16272920Y-13686769D01*
X16272920Y-13686769D02*
X16282444Y-13677246D01*
X16282444Y-13677246D02*
X16291967Y-13658198D01*
X16463396Y-13639150D02*
X16463396Y-13772484D01*
X16415777Y-13562960D02*
X16368158Y-13705817D01*
X16368158Y-13705817D02*
X16491967Y-13705817D01*
X16558634Y-13572484D02*
X16558634Y-13610579D01*
X16634825Y-13572484D02*
X16634825Y-13610579D01*
X16930063Y-13848674D02*
X16920539Y-13839150D01*
X16920539Y-13839150D02*
X16901491Y-13810579D01*
X16901491Y-13810579D02*
X16891968Y-13791531D01*
X16891968Y-13791531D02*
X16882444Y-13762960D01*
X16882444Y-13762960D02*
X16872920Y-13715341D01*
X16872920Y-13715341D02*
X16872920Y-13677246D01*
X16872920Y-13677246D02*
X16882444Y-13629627D01*
X16882444Y-13629627D02*
X16891968Y-13601055D01*
X16891968Y-13601055D02*
X16901491Y-13582008D01*
X16901491Y-13582008D02*
X16920539Y-13553436D01*
X16920539Y-13553436D02*
X16930063Y-13543912D01*
X17111015Y-13772484D02*
X16996730Y-13772484D01*
X17053872Y-13772484D02*
X17053872Y-13572484D01*
X17053872Y-13572484D02*
X17034825Y-13601055D01*
X17034825Y-13601055D02*
X17015777Y-13620103D01*
X17015777Y-13620103D02*
X16996730Y-13629627D01*
X17282444Y-13572484D02*
X17244349Y-13572484D01*
X17244349Y-13572484D02*
X17225301Y-13582008D01*
X17225301Y-13582008D02*
X17215777Y-13591531D01*
X17215777Y-13591531D02*
X17196730Y-13620103D01*
X17196730Y-13620103D02*
X17187206Y-13658198D01*
X17187206Y-13658198D02*
X17187206Y-13734388D01*
X17187206Y-13734388D02*
X17196730Y-13753436D01*
X17196730Y-13753436D02*
X17206253Y-13762960D01*
X17206253Y-13762960D02*
X17225301Y-13772484D01*
X17225301Y-13772484D02*
X17263396Y-13772484D01*
X17263396Y-13772484D02*
X17282444Y-13762960D01*
X17282444Y-13762960D02*
X17291968Y-13753436D01*
X17291968Y-13753436D02*
X17301491Y-13734388D01*
X17301491Y-13734388D02*
X17301491Y-13686769D01*
X17301491Y-13686769D02*
X17291968Y-13667722D01*
X17291968Y-13667722D02*
X17282444Y-13658198D01*
X17282444Y-13658198D02*
X17263396Y-13648674D01*
X17263396Y-13648674D02*
X17225301Y-13648674D01*
X17225301Y-13648674D02*
X17206253Y-13658198D01*
X17206253Y-13658198D02*
X17196730Y-13667722D01*
X17196730Y-13667722D02*
X17187206Y-13686769D01*
X17539587Y-13772484D02*
X17539587Y-13572484D01*
X17625301Y-13772484D02*
X17625301Y-13667722D01*
X17625301Y-13667722D02*
X17615777Y-13648674D01*
X17615777Y-13648674D02*
X17596730Y-13639150D01*
X17596730Y-13639150D02*
X17568158Y-13639150D01*
X17568158Y-13639150D02*
X17549111Y-13648674D01*
X17549111Y-13648674D02*
X17539587Y-13658198D01*
X17749111Y-13772484D02*
X17730063Y-13762960D01*
X17730063Y-13762960D02*
X17720539Y-13753436D01*
X17720539Y-13753436D02*
X17711015Y-13734388D01*
X17711015Y-13734388D02*
X17711015Y-13677246D01*
X17711015Y-13677246D02*
X17720539Y-13658198D01*
X17720539Y-13658198D02*
X17730063Y-13648674D01*
X17730063Y-13648674D02*
X17749111Y-13639150D01*
X17749111Y-13639150D02*
X17777682Y-13639150D01*
X17777682Y-13639150D02*
X17796730Y-13648674D01*
X17796730Y-13648674D02*
X17806253Y-13658198D01*
X17806253Y-13658198D02*
X17815777Y-13677246D01*
X17815777Y-13677246D02*
X17815777Y-13734388D01*
X17815777Y-13734388D02*
X17806253Y-13753436D01*
X17806253Y-13753436D02*
X17796730Y-13762960D01*
X17796730Y-13762960D02*
X17777682Y-13772484D01*
X17777682Y-13772484D02*
X17749111Y-13772484D01*
X17930063Y-13772484D02*
X17911015Y-13762960D01*
X17911015Y-13762960D02*
X17901492Y-13743912D01*
X17901492Y-13743912D02*
X17901492Y-13572484D01*
X18082444Y-13762960D02*
X18063396Y-13772484D01*
X18063396Y-13772484D02*
X18025301Y-13772484D01*
X18025301Y-13772484D02*
X18006253Y-13762960D01*
X18006253Y-13762960D02*
X17996730Y-13743912D01*
X17996730Y-13743912D02*
X17996730Y-13667722D01*
X17996730Y-13667722D02*
X18006253Y-13648674D01*
X18006253Y-13648674D02*
X18025301Y-13639150D01*
X18025301Y-13639150D02*
X18063396Y-13639150D01*
X18063396Y-13639150D02*
X18082444Y-13648674D01*
X18082444Y-13648674D02*
X18091968Y-13667722D01*
X18091968Y-13667722D02*
X18091968Y-13686769D01*
X18091968Y-13686769D02*
X17996730Y-13705817D01*
X18168158Y-13762960D02*
X18187206Y-13772484D01*
X18187206Y-13772484D02*
X18225301Y-13772484D01*
X18225301Y-13772484D02*
X18244349Y-13762960D01*
X18244349Y-13762960D02*
X18253873Y-13743912D01*
X18253873Y-13743912D02*
X18253873Y-13734388D01*
X18253873Y-13734388D02*
X18244349Y-13715341D01*
X18244349Y-13715341D02*
X18225301Y-13705817D01*
X18225301Y-13705817D02*
X18196730Y-13705817D01*
X18196730Y-13705817D02*
X18177682Y-13696293D01*
X18177682Y-13696293D02*
X18168158Y-13677246D01*
X18168158Y-13677246D02*
X18168158Y-13667722D01*
X18168158Y-13667722D02*
X18177682Y-13648674D01*
X18177682Y-13648674D02*
X18196730Y-13639150D01*
X18196730Y-13639150D02*
X18225301Y-13639150D01*
X18225301Y-13639150D02*
X18244349Y-13648674D01*
X18320539Y-13848674D02*
X18330063Y-13839150D01*
X18330063Y-13839150D02*
X18349111Y-13810579D01*
X18349111Y-13810579D02*
X18358634Y-13791531D01*
X18358634Y-13791531D02*
X18368158Y-13762960D01*
X18368158Y-13762960D02*
X18377682Y-13715341D01*
X18377682Y-13715341D02*
X18377682Y-13677246D01*
X18377682Y-13677246D02*
X18368158Y-13629627D01*
X18368158Y-13629627D02*
X18358634Y-13601055D01*
X18358634Y-13601055D02*
X18349111Y-13582008D01*
X18349111Y-13582008D02*
X18330063Y-13553436D01*
X18330063Y-13553436D02*
X18320539Y-13543912D01*
D12*
X13245000Y-13890000D02*
X13355000Y-14000000D01*
X13355000Y-13890000D02*
X13245000Y-14000000D01*
X13355000Y-13945000D02*
G75*
G03*
X13355000Y-13945000I-55000J0D01*
G01*
D11*
X13720539Y-14036484D02*
X13606253Y-14036484D01*
X13663396Y-14036484D02*
X13663396Y-13836484D01*
X13663396Y-13836484D02*
X13644348Y-13865055D01*
X13644348Y-13865055D02*
X13625301Y-13884103D01*
X13625301Y-13884103D02*
X13606253Y-13893627D01*
X13806253Y-14017436D02*
X13815777Y-14026960D01*
X13815777Y-14026960D02*
X13806253Y-14036484D01*
X13806253Y-14036484D02*
X13796729Y-14026960D01*
X13796729Y-14026960D02*
X13806253Y-14017436D01*
X13806253Y-14017436D02*
X13806253Y-14036484D01*
X14006253Y-14036484D02*
X13891967Y-14036484D01*
X13949110Y-14036484D02*
X13949110Y-13836484D01*
X13949110Y-13836484D02*
X13930062Y-13865055D01*
X13930062Y-13865055D02*
X13911015Y-13884103D01*
X13911015Y-13884103D02*
X13891967Y-13893627D01*
X14130062Y-13836484D02*
X14149110Y-13836484D01*
X14149110Y-13836484D02*
X14168158Y-13846008D01*
X14168158Y-13846008D02*
X14177682Y-13855531D01*
X14177682Y-13855531D02*
X14187205Y-13874579D01*
X14187205Y-13874579D02*
X14196729Y-13912674D01*
X14196729Y-13912674D02*
X14196729Y-13960293D01*
X14196729Y-13960293D02*
X14187205Y-13998388D01*
X14187205Y-13998388D02*
X14177682Y-14017436D01*
X14177682Y-14017436D02*
X14168158Y-14026960D01*
X14168158Y-14026960D02*
X14149110Y-14036484D01*
X14149110Y-14036484D02*
X14130062Y-14036484D01*
X14130062Y-14036484D02*
X14111015Y-14026960D01*
X14111015Y-14026960D02*
X14101491Y-14017436D01*
X14101491Y-14017436D02*
X14091967Y-13998388D01*
X14091967Y-13998388D02*
X14082443Y-13960293D01*
X14082443Y-13960293D02*
X14082443Y-13912674D01*
X14082443Y-13912674D02*
X14091967Y-13874579D01*
X14091967Y-13874579D02*
X14101491Y-13855531D01*
X14101491Y-13855531D02*
X14111015Y-13846008D01*
X14111015Y-13846008D02*
X14130062Y-13836484D01*
X14320539Y-13836484D02*
X14339586Y-13836484D01*
X14339586Y-13836484D02*
X14358634Y-13846008D01*
X14358634Y-13846008D02*
X14368158Y-13855531D01*
X14368158Y-13855531D02*
X14377682Y-13874579D01*
X14377682Y-13874579D02*
X14387205Y-13912674D01*
X14387205Y-13912674D02*
X14387205Y-13960293D01*
X14387205Y-13960293D02*
X14377682Y-13998388D01*
X14377682Y-13998388D02*
X14368158Y-14017436D01*
X14368158Y-14017436D02*
X14358634Y-14026960D01*
X14358634Y-14026960D02*
X14339586Y-14036484D01*
X14339586Y-14036484D02*
X14320539Y-14036484D01*
X14320539Y-14036484D02*
X14301491Y-14026960D01*
X14301491Y-14026960D02*
X14291967Y-14017436D01*
X14291967Y-14017436D02*
X14282443Y-13998388D01*
X14282443Y-13998388D02*
X14272920Y-13960293D01*
X14272920Y-13960293D02*
X14272920Y-13912674D01*
X14272920Y-13912674D02*
X14282443Y-13874579D01*
X14282443Y-13874579D02*
X14291967Y-13855531D01*
X14291967Y-13855531D02*
X14301491Y-13846008D01*
X14301491Y-13846008D02*
X14320539Y-13836484D01*
X14472920Y-14036484D02*
X14472920Y-13903150D01*
X14472920Y-13922198D02*
X14482443Y-13912674D01*
X14482443Y-13912674D02*
X14501491Y-13903150D01*
X14501491Y-13903150D02*
X14530063Y-13903150D01*
X14530063Y-13903150D02*
X14549110Y-13912674D01*
X14549110Y-13912674D02*
X14558634Y-13931722D01*
X14558634Y-13931722D02*
X14558634Y-14036484D01*
X14558634Y-13931722D02*
X14568158Y-13912674D01*
X14568158Y-13912674D02*
X14587205Y-13903150D01*
X14587205Y-13903150D02*
X14615777Y-13903150D01*
X14615777Y-13903150D02*
X14634824Y-13912674D01*
X14634824Y-13912674D02*
X14644348Y-13931722D01*
X14644348Y-13931722D02*
X14644348Y-14036484D01*
X14739586Y-14036484D02*
X14739586Y-13903150D01*
X14739586Y-13922198D02*
X14749110Y-13912674D01*
X14749110Y-13912674D02*
X14768158Y-13903150D01*
X14768158Y-13903150D02*
X14796729Y-13903150D01*
X14796729Y-13903150D02*
X14815777Y-13912674D01*
X14815777Y-13912674D02*
X14825301Y-13931722D01*
X14825301Y-13931722D02*
X14825301Y-14036484D01*
X14825301Y-13931722D02*
X14834824Y-13912674D01*
X14834824Y-13912674D02*
X14853872Y-13903150D01*
X14853872Y-13903150D02*
X14882443Y-13903150D01*
X14882443Y-13903150D02*
X14901491Y-13912674D01*
X14901491Y-13912674D02*
X14911015Y-13931722D01*
X14911015Y-13931722D02*
X14911015Y-14036484D01*
X15301491Y-13826960D02*
X15130063Y-14084103D01*
X15558634Y-13836484D02*
X15577682Y-13836484D01*
X15577682Y-13836484D02*
X15596729Y-13846008D01*
X15596729Y-13846008D02*
X15606253Y-13855531D01*
X15606253Y-13855531D02*
X15615777Y-13874579D01*
X15615777Y-13874579D02*
X15625301Y-13912674D01*
X15625301Y-13912674D02*
X15625301Y-13960293D01*
X15625301Y-13960293D02*
X15615777Y-13998388D01*
X15615777Y-13998388D02*
X15606253Y-14017436D01*
X15606253Y-14017436D02*
X15596729Y-14026960D01*
X15596729Y-14026960D02*
X15577682Y-14036484D01*
X15577682Y-14036484D02*
X15558634Y-14036484D01*
X15558634Y-14036484D02*
X15539586Y-14026960D01*
X15539586Y-14026960D02*
X15530063Y-14017436D01*
X15530063Y-14017436D02*
X15520539Y-13998388D01*
X15520539Y-13998388D02*
X15511015Y-13960293D01*
X15511015Y-13960293D02*
X15511015Y-13912674D01*
X15511015Y-13912674D02*
X15520539Y-13874579D01*
X15520539Y-13874579D02*
X15530063Y-13855531D01*
X15530063Y-13855531D02*
X15539586Y-13846008D01*
X15539586Y-13846008D02*
X15558634Y-13836484D01*
X15711015Y-14017436D02*
X15720539Y-14026960D01*
X15720539Y-14026960D02*
X15711015Y-14036484D01*
X15711015Y-14036484D02*
X15701491Y-14026960D01*
X15701491Y-14026960D02*
X15711015Y-14017436D01*
X15711015Y-14017436D02*
X15711015Y-14036484D01*
X15844348Y-13836484D02*
X15863396Y-13836484D01*
X15863396Y-13836484D02*
X15882444Y-13846008D01*
X15882444Y-13846008D02*
X15891967Y-13855531D01*
X15891967Y-13855531D02*
X15901491Y-13874579D01*
X15901491Y-13874579D02*
X15911015Y-13912674D01*
X15911015Y-13912674D02*
X15911015Y-13960293D01*
X15911015Y-13960293D02*
X15901491Y-13998388D01*
X15901491Y-13998388D02*
X15891967Y-14017436D01*
X15891967Y-14017436D02*
X15882444Y-14026960D01*
X15882444Y-14026960D02*
X15863396Y-14036484D01*
X15863396Y-14036484D02*
X15844348Y-14036484D01*
X15844348Y-14036484D02*
X15825301Y-14026960D01*
X15825301Y-14026960D02*
X15815777Y-14017436D01*
X15815777Y-14017436D02*
X15806253Y-13998388D01*
X15806253Y-13998388D02*
X15796729Y-13960293D01*
X15796729Y-13960293D02*
X15796729Y-13912674D01*
X15796729Y-13912674D02*
X15806253Y-13874579D01*
X15806253Y-13874579D02*
X15815777Y-13855531D01*
X15815777Y-13855531D02*
X15825301Y-13846008D01*
X15825301Y-13846008D02*
X15844348Y-13836484D01*
X16082444Y-13903150D02*
X16082444Y-14036484D01*
X16034825Y-13826960D02*
X15987206Y-13969817D01*
X15987206Y-13969817D02*
X16111015Y-13969817D01*
X16168158Y-13836484D02*
X16291967Y-13836484D01*
X16291967Y-13836484D02*
X16225301Y-13912674D01*
X16225301Y-13912674D02*
X16253872Y-13912674D01*
X16253872Y-13912674D02*
X16272920Y-13922198D01*
X16272920Y-13922198D02*
X16282444Y-13931722D01*
X16282444Y-13931722D02*
X16291967Y-13950769D01*
X16291967Y-13950769D02*
X16291967Y-13998388D01*
X16291967Y-13998388D02*
X16282444Y-14017436D01*
X16282444Y-14017436D02*
X16272920Y-14026960D01*
X16272920Y-14026960D02*
X16253872Y-14036484D01*
X16253872Y-14036484D02*
X16196729Y-14036484D01*
X16196729Y-14036484D02*
X16177682Y-14026960D01*
X16177682Y-14026960D02*
X16168158Y-14017436D01*
X16358634Y-13836484D02*
X16482444Y-13836484D01*
X16482444Y-13836484D02*
X16415777Y-13912674D01*
X16415777Y-13912674D02*
X16444348Y-13912674D01*
X16444348Y-13912674D02*
X16463396Y-13922198D01*
X16463396Y-13922198D02*
X16472920Y-13931722D01*
X16472920Y-13931722D02*
X16482444Y-13950769D01*
X16482444Y-13950769D02*
X16482444Y-13998388D01*
X16482444Y-13998388D02*
X16472920Y-14017436D01*
X16472920Y-14017436D02*
X16463396Y-14026960D01*
X16463396Y-14026960D02*
X16444348Y-14036484D01*
X16444348Y-14036484D02*
X16387206Y-14036484D01*
X16387206Y-14036484D02*
X16368158Y-14026960D01*
X16368158Y-14026960D02*
X16358634Y-14017436D01*
X16558634Y-13836484D02*
X16558634Y-13874579D01*
X16634825Y-13836484D02*
X16634825Y-13874579D01*
X16930063Y-14112674D02*
X16920539Y-14103150D01*
X16920539Y-14103150D02*
X16901491Y-14074579D01*
X16901491Y-14074579D02*
X16891968Y-14055531D01*
X16891968Y-14055531D02*
X16882444Y-14026960D01*
X16882444Y-14026960D02*
X16872920Y-13979341D01*
X16872920Y-13979341D02*
X16872920Y-13941246D01*
X16872920Y-13941246D02*
X16882444Y-13893627D01*
X16882444Y-13893627D02*
X16891968Y-13865055D01*
X16891968Y-13865055D02*
X16901491Y-13846008D01*
X16901491Y-13846008D02*
X16920539Y-13817436D01*
X16920539Y-13817436D02*
X16930063Y-13807912D01*
X16987206Y-13836484D02*
X17111015Y-13836484D01*
X17111015Y-13836484D02*
X17044349Y-13912674D01*
X17044349Y-13912674D02*
X17072920Y-13912674D01*
X17072920Y-13912674D02*
X17091968Y-13922198D01*
X17091968Y-13922198D02*
X17101491Y-13931722D01*
X17101491Y-13931722D02*
X17111015Y-13950769D01*
X17111015Y-13950769D02*
X17111015Y-13998388D01*
X17111015Y-13998388D02*
X17101491Y-14017436D01*
X17101491Y-14017436D02*
X17091968Y-14026960D01*
X17091968Y-14026960D02*
X17072920Y-14036484D01*
X17072920Y-14036484D02*
X17015777Y-14036484D01*
X17015777Y-14036484D02*
X16996730Y-14026960D01*
X16996730Y-14026960D02*
X16987206Y-14017436D01*
X17349111Y-14036484D02*
X17349111Y-13836484D01*
X17434825Y-14036484D02*
X17434825Y-13931722D01*
X17434825Y-13931722D02*
X17425301Y-13912674D01*
X17425301Y-13912674D02*
X17406253Y-13903150D01*
X17406253Y-13903150D02*
X17377682Y-13903150D01*
X17377682Y-13903150D02*
X17358634Y-13912674D01*
X17358634Y-13912674D02*
X17349111Y-13922198D01*
X17558634Y-14036484D02*
X17539587Y-14026960D01*
X17539587Y-14026960D02*
X17530063Y-14017436D01*
X17530063Y-14017436D02*
X17520539Y-13998388D01*
X17520539Y-13998388D02*
X17520539Y-13941246D01*
X17520539Y-13941246D02*
X17530063Y-13922198D01*
X17530063Y-13922198D02*
X17539587Y-13912674D01*
X17539587Y-13912674D02*
X17558634Y-13903150D01*
X17558634Y-13903150D02*
X17587206Y-13903150D01*
X17587206Y-13903150D02*
X17606253Y-13912674D01*
X17606253Y-13912674D02*
X17615777Y-13922198D01*
X17615777Y-13922198D02*
X17625301Y-13941246D01*
X17625301Y-13941246D02*
X17625301Y-13998388D01*
X17625301Y-13998388D02*
X17615777Y-14017436D01*
X17615777Y-14017436D02*
X17606253Y-14026960D01*
X17606253Y-14026960D02*
X17587206Y-14036484D01*
X17587206Y-14036484D02*
X17558634Y-14036484D01*
X17739587Y-14036484D02*
X17720539Y-14026960D01*
X17720539Y-14026960D02*
X17711015Y-14007912D01*
X17711015Y-14007912D02*
X17711015Y-13836484D01*
X17891968Y-14026960D02*
X17872920Y-14036484D01*
X17872920Y-14036484D02*
X17834825Y-14036484D01*
X17834825Y-14036484D02*
X17815777Y-14026960D01*
X17815777Y-14026960D02*
X17806253Y-14007912D01*
X17806253Y-14007912D02*
X17806253Y-13931722D01*
X17806253Y-13931722D02*
X17815777Y-13912674D01*
X17815777Y-13912674D02*
X17834825Y-13903150D01*
X17834825Y-13903150D02*
X17872920Y-13903150D01*
X17872920Y-13903150D02*
X17891968Y-13912674D01*
X17891968Y-13912674D02*
X17901492Y-13931722D01*
X17901492Y-13931722D02*
X17901492Y-13950769D01*
X17901492Y-13950769D02*
X17806253Y-13969817D01*
X17977682Y-14026960D02*
X17996730Y-14036484D01*
X17996730Y-14036484D02*
X18034825Y-14036484D01*
X18034825Y-14036484D02*
X18053873Y-14026960D01*
X18053873Y-14026960D02*
X18063396Y-14007912D01*
X18063396Y-14007912D02*
X18063396Y-13998388D01*
X18063396Y-13998388D02*
X18053873Y-13979341D01*
X18053873Y-13979341D02*
X18034825Y-13969817D01*
X18034825Y-13969817D02*
X18006253Y-13969817D01*
X18006253Y-13969817D02*
X17987206Y-13960293D01*
X17987206Y-13960293D02*
X17977682Y-13941246D01*
X17977682Y-13941246D02*
X17977682Y-13931722D01*
X17977682Y-13931722D02*
X17987206Y-13912674D01*
X17987206Y-13912674D02*
X18006253Y-13903150D01*
X18006253Y-13903150D02*
X18034825Y-13903150D01*
X18034825Y-13903150D02*
X18053873Y-13912674D01*
X18130063Y-14112674D02*
X18139587Y-14103150D01*
X18139587Y-14103150D02*
X18158634Y-14074579D01*
X18158634Y-14074579D02*
X18168158Y-14055531D01*
X18168158Y-14055531D02*
X18177682Y-14026960D01*
X18177682Y-14026960D02*
X18187206Y-13979341D01*
X18187206Y-13979341D02*
X18187206Y-13941246D01*
X18187206Y-13941246D02*
X18177682Y-13893627D01*
X18177682Y-13893627D02*
X18168158Y-13865055D01*
X18168158Y-13865055D02*
X18158634Y-13846008D01*
X18158634Y-13846008D02*
X18139587Y-13817436D01*
X18139587Y-13817436D02*
X18130063Y-13807912D01*
D13*
X13215000Y-14139000D02*
X13355000Y-14279000D01*
X13355000Y-14139000D02*
X13215000Y-14279000D01*
X13285000Y-14139000D02*
X13285000Y-14279000D01*
X13215000Y-14209000D02*
X13355000Y-14209000D01*
D11*
X13720539Y-14300484D02*
X13606253Y-14300484D01*
X13663396Y-14300484D02*
X13663396Y-14100484D01*
X13663396Y-14100484D02*
X13644348Y-14129055D01*
X13644348Y-14129055D02*
X13625301Y-14148103D01*
X13625301Y-14148103D02*
X13606253Y-14157627D01*
X13806253Y-14281436D02*
X13815777Y-14290960D01*
X13815777Y-14290960D02*
X13806253Y-14300484D01*
X13806253Y-14300484D02*
X13796729Y-14290960D01*
X13796729Y-14290960D02*
X13806253Y-14281436D01*
X13806253Y-14281436D02*
X13806253Y-14300484D01*
X13987205Y-14167150D02*
X13987205Y-14300484D01*
X13939586Y-14090960D02*
X13891967Y-14233817D01*
X13891967Y-14233817D02*
X14015777Y-14233817D01*
X14130062Y-14100484D02*
X14149110Y-14100484D01*
X14149110Y-14100484D02*
X14168158Y-14110008D01*
X14168158Y-14110008D02*
X14177682Y-14119531D01*
X14177682Y-14119531D02*
X14187205Y-14138579D01*
X14187205Y-14138579D02*
X14196729Y-14176674D01*
X14196729Y-14176674D02*
X14196729Y-14224293D01*
X14196729Y-14224293D02*
X14187205Y-14262388D01*
X14187205Y-14262388D02*
X14177682Y-14281436D01*
X14177682Y-14281436D02*
X14168158Y-14290960D01*
X14168158Y-14290960D02*
X14149110Y-14300484D01*
X14149110Y-14300484D02*
X14130062Y-14300484D01*
X14130062Y-14300484D02*
X14111015Y-14290960D01*
X14111015Y-14290960D02*
X14101491Y-14281436D01*
X14101491Y-14281436D02*
X14091967Y-14262388D01*
X14091967Y-14262388D02*
X14082443Y-14224293D01*
X14082443Y-14224293D02*
X14082443Y-14176674D01*
X14082443Y-14176674D02*
X14091967Y-14138579D01*
X14091967Y-14138579D02*
X14101491Y-14119531D01*
X14101491Y-14119531D02*
X14111015Y-14110008D01*
X14111015Y-14110008D02*
X14130062Y-14100484D01*
X14320539Y-14100484D02*
X14339586Y-14100484D01*
X14339586Y-14100484D02*
X14358634Y-14110008D01*
X14358634Y-14110008D02*
X14368158Y-14119531D01*
X14368158Y-14119531D02*
X14377682Y-14138579D01*
X14377682Y-14138579D02*
X14387205Y-14176674D01*
X14387205Y-14176674D02*
X14387205Y-14224293D01*
X14387205Y-14224293D02*
X14377682Y-14262388D01*
X14377682Y-14262388D02*
X14368158Y-14281436D01*
X14368158Y-14281436D02*
X14358634Y-14290960D01*
X14358634Y-14290960D02*
X14339586Y-14300484D01*
X14339586Y-14300484D02*
X14320539Y-14300484D01*
X14320539Y-14300484D02*
X14301491Y-14290960D01*
X14301491Y-14290960D02*
X14291967Y-14281436D01*
X14291967Y-14281436D02*
X14282443Y-14262388D01*
X14282443Y-14262388D02*
X14272920Y-14224293D01*
X14272920Y-14224293D02*
X14272920Y-14176674D01*
X14272920Y-14176674D02*
X14282443Y-14138579D01*
X14282443Y-14138579D02*
X14291967Y-14119531D01*
X14291967Y-14119531D02*
X14301491Y-14110008D01*
X14301491Y-14110008D02*
X14320539Y-14100484D01*
X14472920Y-14300484D02*
X14472920Y-14167150D01*
X14472920Y-14186198D02*
X14482443Y-14176674D01*
X14482443Y-14176674D02*
X14501491Y-14167150D01*
X14501491Y-14167150D02*
X14530063Y-14167150D01*
X14530063Y-14167150D02*
X14549110Y-14176674D01*
X14549110Y-14176674D02*
X14558634Y-14195722D01*
X14558634Y-14195722D02*
X14558634Y-14300484D01*
X14558634Y-14195722D02*
X14568158Y-14176674D01*
X14568158Y-14176674D02*
X14587205Y-14167150D01*
X14587205Y-14167150D02*
X14615777Y-14167150D01*
X14615777Y-14167150D02*
X14634824Y-14176674D01*
X14634824Y-14176674D02*
X14644348Y-14195722D01*
X14644348Y-14195722D02*
X14644348Y-14300484D01*
X14739586Y-14300484D02*
X14739586Y-14167150D01*
X14739586Y-14186198D02*
X14749110Y-14176674D01*
X14749110Y-14176674D02*
X14768158Y-14167150D01*
X14768158Y-14167150D02*
X14796729Y-14167150D01*
X14796729Y-14167150D02*
X14815777Y-14176674D01*
X14815777Y-14176674D02*
X14825301Y-14195722D01*
X14825301Y-14195722D02*
X14825301Y-14300484D01*
X14825301Y-14195722D02*
X14834824Y-14176674D01*
X14834824Y-14176674D02*
X14853872Y-14167150D01*
X14853872Y-14167150D02*
X14882443Y-14167150D01*
X14882443Y-14167150D02*
X14901491Y-14176674D01*
X14901491Y-14176674D02*
X14911015Y-14195722D01*
X14911015Y-14195722D02*
X14911015Y-14300484D01*
X15301491Y-14090960D02*
X15130063Y-14348103D01*
X15558634Y-14100484D02*
X15577682Y-14100484D01*
X15577682Y-14100484D02*
X15596729Y-14110008D01*
X15596729Y-14110008D02*
X15606253Y-14119531D01*
X15606253Y-14119531D02*
X15615777Y-14138579D01*
X15615777Y-14138579D02*
X15625301Y-14176674D01*
X15625301Y-14176674D02*
X15625301Y-14224293D01*
X15625301Y-14224293D02*
X15615777Y-14262388D01*
X15615777Y-14262388D02*
X15606253Y-14281436D01*
X15606253Y-14281436D02*
X15596729Y-14290960D01*
X15596729Y-14290960D02*
X15577682Y-14300484D01*
X15577682Y-14300484D02*
X15558634Y-14300484D01*
X15558634Y-14300484D02*
X15539586Y-14290960D01*
X15539586Y-14290960D02*
X15530063Y-14281436D01*
X15530063Y-14281436D02*
X15520539Y-14262388D01*
X15520539Y-14262388D02*
X15511015Y-14224293D01*
X15511015Y-14224293D02*
X15511015Y-14176674D01*
X15511015Y-14176674D02*
X15520539Y-14138579D01*
X15520539Y-14138579D02*
X15530063Y-14119531D01*
X15530063Y-14119531D02*
X15539586Y-14110008D01*
X15539586Y-14110008D02*
X15558634Y-14100484D01*
X15711015Y-14281436D02*
X15720539Y-14290960D01*
X15720539Y-14290960D02*
X15711015Y-14300484D01*
X15711015Y-14300484D02*
X15701491Y-14290960D01*
X15701491Y-14290960D02*
X15711015Y-14281436D01*
X15711015Y-14281436D02*
X15711015Y-14300484D01*
X15844348Y-14100484D02*
X15863396Y-14100484D01*
X15863396Y-14100484D02*
X15882444Y-14110008D01*
X15882444Y-14110008D02*
X15891967Y-14119531D01*
X15891967Y-14119531D02*
X15901491Y-14138579D01*
X15901491Y-14138579D02*
X15911015Y-14176674D01*
X15911015Y-14176674D02*
X15911015Y-14224293D01*
X15911015Y-14224293D02*
X15901491Y-14262388D01*
X15901491Y-14262388D02*
X15891967Y-14281436D01*
X15891967Y-14281436D02*
X15882444Y-14290960D01*
X15882444Y-14290960D02*
X15863396Y-14300484D01*
X15863396Y-14300484D02*
X15844348Y-14300484D01*
X15844348Y-14300484D02*
X15825301Y-14290960D01*
X15825301Y-14290960D02*
X15815777Y-14281436D01*
X15815777Y-14281436D02*
X15806253Y-14262388D01*
X15806253Y-14262388D02*
X15796729Y-14224293D01*
X15796729Y-14224293D02*
X15796729Y-14176674D01*
X15796729Y-14176674D02*
X15806253Y-14138579D01*
X15806253Y-14138579D02*
X15815777Y-14119531D01*
X15815777Y-14119531D02*
X15825301Y-14110008D01*
X15825301Y-14110008D02*
X15844348Y-14100484D01*
X16091967Y-14100484D02*
X15996729Y-14100484D01*
X15996729Y-14100484D02*
X15987206Y-14195722D01*
X15987206Y-14195722D02*
X15996729Y-14186198D01*
X15996729Y-14186198D02*
X16015777Y-14176674D01*
X16015777Y-14176674D02*
X16063396Y-14176674D01*
X16063396Y-14176674D02*
X16082444Y-14186198D01*
X16082444Y-14186198D02*
X16091967Y-14195722D01*
X16091967Y-14195722D02*
X16101491Y-14214769D01*
X16101491Y-14214769D02*
X16101491Y-14262388D01*
X16101491Y-14262388D02*
X16091967Y-14281436D01*
X16091967Y-14281436D02*
X16082444Y-14290960D01*
X16082444Y-14290960D02*
X16063396Y-14300484D01*
X16063396Y-14300484D02*
X16015777Y-14300484D01*
X16015777Y-14300484D02*
X15996729Y-14290960D01*
X15996729Y-14290960D02*
X15987206Y-14281436D01*
X16282444Y-14100484D02*
X16187206Y-14100484D01*
X16187206Y-14100484D02*
X16177682Y-14195722D01*
X16177682Y-14195722D02*
X16187206Y-14186198D01*
X16187206Y-14186198D02*
X16206253Y-14176674D01*
X16206253Y-14176674D02*
X16253872Y-14176674D01*
X16253872Y-14176674D02*
X16272920Y-14186198D01*
X16272920Y-14186198D02*
X16282444Y-14195722D01*
X16282444Y-14195722D02*
X16291967Y-14214769D01*
X16291967Y-14214769D02*
X16291967Y-14262388D01*
X16291967Y-14262388D02*
X16282444Y-14281436D01*
X16282444Y-14281436D02*
X16272920Y-14290960D01*
X16272920Y-14290960D02*
X16253872Y-14300484D01*
X16253872Y-14300484D02*
X16206253Y-14300484D01*
X16206253Y-14300484D02*
X16187206Y-14290960D01*
X16187206Y-14290960D02*
X16177682Y-14281436D01*
X16482444Y-14300484D02*
X16368158Y-14300484D01*
X16425301Y-14300484D02*
X16425301Y-14100484D01*
X16425301Y-14100484D02*
X16406253Y-14129055D01*
X16406253Y-14129055D02*
X16387206Y-14148103D01*
X16387206Y-14148103D02*
X16368158Y-14157627D01*
X16558634Y-14100484D02*
X16558634Y-14138579D01*
X16634825Y-14100484D02*
X16634825Y-14138579D01*
X16930063Y-14376674D02*
X16920539Y-14367150D01*
X16920539Y-14367150D02*
X16901491Y-14338579D01*
X16901491Y-14338579D02*
X16891968Y-14319531D01*
X16891968Y-14319531D02*
X16882444Y-14290960D01*
X16882444Y-14290960D02*
X16872920Y-14243341D01*
X16872920Y-14243341D02*
X16872920Y-14205246D01*
X16872920Y-14205246D02*
X16882444Y-14157627D01*
X16882444Y-14157627D02*
X16891968Y-14129055D01*
X16891968Y-14129055D02*
X16901491Y-14110008D01*
X16901491Y-14110008D02*
X16920539Y-14081436D01*
X16920539Y-14081436D02*
X16930063Y-14071912D01*
X17111015Y-14300484D02*
X16996730Y-14300484D01*
X17053872Y-14300484D02*
X17053872Y-14100484D01*
X17053872Y-14100484D02*
X17034825Y-14129055D01*
X17034825Y-14129055D02*
X17015777Y-14148103D01*
X17015777Y-14148103D02*
X16996730Y-14157627D01*
X17187206Y-14119531D02*
X17196730Y-14110008D01*
X17196730Y-14110008D02*
X17215777Y-14100484D01*
X17215777Y-14100484D02*
X17263396Y-14100484D01*
X17263396Y-14100484D02*
X17282444Y-14110008D01*
X17282444Y-14110008D02*
X17291968Y-14119531D01*
X17291968Y-14119531D02*
X17301491Y-14138579D01*
X17301491Y-14138579D02*
X17301491Y-14157627D01*
X17301491Y-14157627D02*
X17291968Y-14186198D01*
X17291968Y-14186198D02*
X17177682Y-14300484D01*
X17177682Y-14300484D02*
X17301491Y-14300484D01*
X17539587Y-14300484D02*
X17539587Y-14100484D01*
X17625301Y-14300484D02*
X17625301Y-14195722D01*
X17625301Y-14195722D02*
X17615777Y-14176674D01*
X17615777Y-14176674D02*
X17596730Y-14167150D01*
X17596730Y-14167150D02*
X17568158Y-14167150D01*
X17568158Y-14167150D02*
X17549111Y-14176674D01*
X17549111Y-14176674D02*
X17539587Y-14186198D01*
X17749111Y-14300484D02*
X17730063Y-14290960D01*
X17730063Y-14290960D02*
X17720539Y-14281436D01*
X17720539Y-14281436D02*
X17711015Y-14262388D01*
X17711015Y-14262388D02*
X17711015Y-14205246D01*
X17711015Y-14205246D02*
X17720539Y-14186198D01*
X17720539Y-14186198D02*
X17730063Y-14176674D01*
X17730063Y-14176674D02*
X17749111Y-14167150D01*
X17749111Y-14167150D02*
X17777682Y-14167150D01*
X17777682Y-14167150D02*
X17796730Y-14176674D01*
X17796730Y-14176674D02*
X17806253Y-14186198D01*
X17806253Y-14186198D02*
X17815777Y-14205246D01*
X17815777Y-14205246D02*
X17815777Y-14262388D01*
X17815777Y-14262388D02*
X17806253Y-14281436D01*
X17806253Y-14281436D02*
X17796730Y-14290960D01*
X17796730Y-14290960D02*
X17777682Y-14300484D01*
X17777682Y-14300484D02*
X17749111Y-14300484D01*
X17930063Y-14300484D02*
X17911015Y-14290960D01*
X17911015Y-14290960D02*
X17901492Y-14271912D01*
X17901492Y-14271912D02*
X17901492Y-14100484D01*
X18082444Y-14290960D02*
X18063396Y-14300484D01*
X18063396Y-14300484D02*
X18025301Y-14300484D01*
X18025301Y-14300484D02*
X18006253Y-14290960D01*
X18006253Y-14290960D02*
X17996730Y-14271912D01*
X17996730Y-14271912D02*
X17996730Y-14195722D01*
X17996730Y-14195722D02*
X18006253Y-14176674D01*
X18006253Y-14176674D02*
X18025301Y-14167150D01*
X18025301Y-14167150D02*
X18063396Y-14167150D01*
X18063396Y-14167150D02*
X18082444Y-14176674D01*
X18082444Y-14176674D02*
X18091968Y-14195722D01*
X18091968Y-14195722D02*
X18091968Y-14214769D01*
X18091968Y-14214769D02*
X17996730Y-14233817D01*
X18168158Y-14290960D02*
X18187206Y-14300484D01*
X18187206Y-14300484D02*
X18225301Y-14300484D01*
X18225301Y-14300484D02*
X18244349Y-14290960D01*
X18244349Y-14290960D02*
X18253873Y-14271912D01*
X18253873Y-14271912D02*
X18253873Y-14262388D01*
X18253873Y-14262388D02*
X18244349Y-14243341D01*
X18244349Y-14243341D02*
X18225301Y-14233817D01*
X18225301Y-14233817D02*
X18196730Y-14233817D01*
X18196730Y-14233817D02*
X18177682Y-14224293D01*
X18177682Y-14224293D02*
X18168158Y-14205246D01*
X18168158Y-14205246D02*
X18168158Y-14195722D01*
X18168158Y-14195722D02*
X18177682Y-14176674D01*
X18177682Y-14176674D02*
X18196730Y-14167150D01*
X18196730Y-14167150D02*
X18225301Y-14167150D01*
X18225301Y-14167150D02*
X18244349Y-14176674D01*
X18320539Y-14376674D02*
X18330063Y-14367150D01*
X18330063Y-14367150D02*
X18349111Y-14338579D01*
X18349111Y-14338579D02*
X18358634Y-14319531D01*
X18358634Y-14319531D02*
X18368158Y-14290960D01*
X18368158Y-14290960D02*
X18377682Y-14243341D01*
X18377682Y-14243341D02*
X18377682Y-14205246D01*
X18377682Y-14205246D02*
X18368158Y-14157627D01*
X18368158Y-14157627D02*
X18358634Y-14129055D01*
X18358634Y-14129055D02*
X18349111Y-14110008D01*
X18349111Y-14110008D02*
X18330063Y-14081436D01*
X18330063Y-14081436D02*
X18320539Y-14071912D01*
M02*
