M48
; DRILL file {KiCad 7.0.9} date Sat Jun  8 14:41:18 2024
; FORMAT={-:-/ absolute / inch / decimal}
; #@! TF.CreationDate,2024-06-08T14:41:18-04:00
; #@! TF.GenerationSoftware,Kicad,Pcbnew,7.0.9
; #@! TF.FileFunction,Plated,1,2,PTH
FMAT,2
INCH
; #@! TA.AperFunction,Plated,PTH,ComponentDrill
T1C0.0276
; #@! TA.AperFunction,Plated,PTH,ComponentDrill
T2C0.0295
; #@! TA.AperFunction,Plated,PTH,ComponentDrill
T3C0.0315
; #@! TA.AperFunction,Plated,PTH,ComponentDrill
T4C0.0354
; #@! TA.AperFunction,Plated,PTH,ComponentDrill
T5C0.0394
; #@! TA.AperFunction,Plated,PTH,ComponentDrill
T6C0.0433
; #@! TA.AperFunction,Plated,PTH,ComponentDrill
T7C0.0551
%
G90
G05
T1
X5.9347Y-3.1428
X5.9347Y-3.3428
X5.9347Y-3.5428
X5.9347Y-3.8428
X6.2347Y-3.1428
X6.2347Y-3.3428
X6.2347Y-3.5428
X6.2347Y-3.8428
T2
X6.0929Y-4.076
X6.0929Y-4.126
X6.0929Y-4.176
T3
X5.3854Y-3.3937
X5.3854Y-3.5197
X5.535Y-4.0236
X5.535Y-4.1654
X5.6854Y-3.3937
X5.6854Y-3.5197
X5.835Y-4.0236
X5.835Y-4.1654
T4
X5.3829Y-3.1969
X5.4829Y-3.1969
X5.6825Y-3.1969
X5.7825Y-3.1969
T5
X5.3622Y-4.4488
X5.3622Y-4.626
X5.3701Y-3.6711
X5.3701Y-3.7711
X5.3701Y-3.8711
X5.3701Y-4.1575
X5.4622Y-4.4488
X5.4622Y-4.626
X6.0394Y-4.4298
X6.0394Y-4.5676
X6.8134Y-4.2677
X6.8268Y-3.4646
X6.9134Y-4.2677
X6.9268Y-3.4646
X7.0134Y-4.2677
X7.0268Y-3.4646
T6
X5.7144Y-4.3961
X5.7144Y-4.4961
X5.7144Y-4.5961
T7
X6.6722Y-3.1648
X6.6722Y-3.8037
X6.6722Y-3.9817
X6.6722Y-4.6207
X6.9222Y-3.1648
X6.9222Y-3.8037
X6.9222Y-3.9817
X6.9222Y-4.6207
X7.1722Y-3.1648
X7.1722Y-3.8037
X7.1722Y-3.9817
X7.1722Y-4.6207
T0
M30
