M48
; DRILL file {KiCad 7.0.9} date Sat Jun  8 21:54:24 2024
; FORMAT={-:-/ absolute / inch / decimal}
; #@! TF.CreationDate,2024-06-08T21:54:24-04:00
; #@! TF.GenerationSoftware,Kicad,Pcbnew,7.0.9
; #@! TF.FileFunction,Plated,1,2,PTH
FMAT,2
INCH
; #@! TA.AperFunction,Plated,PTH,ComponentDrill
T1C0.0299
; #@! TA.AperFunction,Plated,PTH,ComponentDrill
T2C0.0394
; #@! TA.AperFunction,Plated,PTH,ComponentDrill
T3C0.0472
%
G90
G05
T1
X5.0847Y-1.2392
X5.0847Y-2.0659
X5.1347Y-1.1392
X5.1347Y-1.9659
X5.1847Y-1.2392
X5.1847Y-2.0659
X5.2347Y-1.1392
X5.2347Y-1.9659
X5.2847Y-1.2392
X5.2847Y-2.0659
X5.3347Y-1.1392
X5.3347Y-1.9659
X5.3847Y-1.2392
X5.3847Y-2.0659
X5.4347Y-1.1392
X5.4347Y-1.9659
X6.384Y-1.2392
X6.384Y-2.0659
X6.434Y-1.1392
X6.434Y-1.9659
X6.484Y-1.2392
X6.484Y-2.0659
X6.534Y-1.1392
X6.534Y-1.9659
X6.584Y-1.2392
X6.584Y-2.0659
X6.634Y-1.1392
X6.634Y-1.9659
X6.684Y-1.2392
X6.684Y-2.0659
X6.734Y-1.1392
X6.734Y-1.9659
T2
X5.0134Y-1.4384
X5.0134Y-2.2652
X5.1134Y-1.4384
X5.1134Y-2.2652
X5.2134Y-1.4384
X5.2134Y-2.2652
X5.3134Y-1.4384
X5.3134Y-2.2652
X5.4134Y-1.4384
X5.4134Y-2.2652
X5.5134Y-1.4384
X5.5134Y-2.2652
X5.6134Y-1.4384
X5.6134Y-2.2652
X5.7134Y-1.4384
X5.7134Y-2.2652
X6.3126Y-1.4384
X6.3126Y-2.2652
X6.4126Y-1.4384
X6.4126Y-2.2652
X6.5126Y-1.4384
X6.5126Y-2.2652
X6.6126Y-1.4384
X6.6126Y-2.2652
X6.7126Y-1.4384
X6.7126Y-2.2652
X6.8126Y-1.4384
X6.8126Y-2.2652
X6.9126Y-1.4384
X6.9126Y-2.2652
X7.0126Y-1.4384
X7.0126Y-2.2652
T3
X4.7835Y-1.1516
X4.7835Y-1.2894
X4.7835Y-1.9783
X4.7835Y-2.1161
X6.0827Y-1.1516
X6.0827Y-1.2894
X6.0827Y-1.9783
X6.0827Y-2.1161
T0
M30
