M48
; DRILL file {KiCad 7.0.9} date Sat Jun  8 21:54:24 2024
; FORMAT={-:-/ absolute / inch / decimal}
; #@! TF.CreationDate,2024-06-08T21:54:24-04:00
; #@! TF.GenerationSoftware,Kicad,Pcbnew,7.0.9
; #@! TF.FileFunction,NonPlated,1,2,NPTH
FMAT,2
INCH
; #@! TA.AperFunction,NonPlated,NPTH,ComponentDrill
T1C0.0197
; #@! TA.AperFunction,NonPlated,NPTH,ComponentDrill
T2C0.1260
%
G90
G05
T1
X4.9344Y-1.5354
X4.9344Y-1.6142
X4.9738Y-1.5354
X4.9738Y-1.6142
X5.0131Y-1.5354
X5.0131Y-1.6142
X5.0525Y-1.5354
X5.0525Y-1.6142
X5.3412Y-1.5354
X5.3412Y-1.6142
X5.3806Y-1.5354
X5.3806Y-1.6142
X5.4199Y-1.5354
X5.4199Y-1.6142
X5.4593Y-1.5354
X5.4593Y-1.6142
X5.8071Y-1.1024
X5.8071Y-1.1417
X5.8071Y-1.1811
X5.8071Y-1.2205
X5.8071Y-1.9291
X5.8071Y-1.9685
X5.8071Y-2.0079
X5.8071Y-2.0472
X5.8858Y-1.1024
X5.8858Y-1.1417
X5.8858Y-1.1811
X5.8858Y-1.2205
X5.8858Y-1.9291
X5.8858Y-1.9685
X5.8858Y-2.0079
X5.8858Y-2.0472
X6.2336Y-1.5354
X6.2336Y-1.6142
X6.273Y-1.5354
X6.273Y-1.6142
X6.3123Y-1.5354
X6.3123Y-1.6142
X6.3517Y-1.5354
X6.3517Y-1.6142
X6.6404Y-1.5354
X6.6404Y-1.6142
X6.6798Y-1.5354
X6.6798Y-1.6142
X6.7192Y-1.5354
X6.7192Y-1.6142
X6.7585Y-1.5354
X6.7585Y-1.6142
T2
X5.0347Y-0.8892
X5.0347Y-1.7159
X5.4847Y-0.8892
X5.4847Y-1.7159
X6.334Y-0.8892
X6.334Y-1.7159
X6.784Y-0.8892
X6.784Y-1.7159
T0
M30
