%TF.GenerationSoftware,KiCad,Pcbnew,7.0.9*%
%TF.CreationDate,2024-06-08T21:54:21-04:00*%
%TF.ProjectId,8P breakout header,38502062-7265-4616-9b6f-757420686561,rev?*%
%TF.SameCoordinates,Original*%
%TF.FileFunction,Copper,L2,Bot*%
%TF.FilePolarity,Positive*%
%FSLAX46Y46*%
G04 Gerber Fmt 4.6, Leading zero omitted, Abs format (unit mm)*
G04 Created by KiCad (PCBNEW 7.0.9) date 2024-06-08 21:54:21*
%MOMM*%
%LPD*%
G01*
G04 APERTURE LIST*
%TA.AperFunction,ComponentPad*%
%ADD10R,1.700000X1.700000*%
%TD*%
%TA.AperFunction,ComponentPad*%
%ADD11O,1.700000X1.700000*%
%TD*%
%TA.AperFunction,ComponentPad*%
%ADD12R,1.500000X1.500000*%
%TD*%
%TA.AperFunction,ComponentPad*%
%ADD13C,1.500000*%
%TD*%
%TA.AperFunction,ComponentPad*%
%ADD14R,2.400000X2.400000*%
%TD*%
%TA.AperFunction,ComponentPad*%
%ADD15C,2.400000*%
%TD*%
G04 APERTURE END LIST*
D10*
%TO.P,J4,1,Pin_1*%
%TO.N,Board_0-Net-(J2-Pin_1)*%
X145120000Y-36535000D03*
D11*
%TO.P,J4,2,Pin_2*%
%TO.N,Board_0-Net-(J4-Pin_2)*%
X142580000Y-36535000D03*
%TO.P,J4,3,Pin_3*%
%TO.N,Board_0-Net-(J2-Pin_2)*%
X140040000Y-36535000D03*
%TO.P,J4,4,Pin_4*%
%TO.N,Board_0-Net-(J4-Pin_4)*%
X137500000Y-36535000D03*
%TO.P,J4,5,Pin_5*%
%TO.N,Board_0-Net-(J4-Pin_5)*%
X134960000Y-36535000D03*
%TO.P,J4,6,Pin_6*%
%TO.N,Board_0-Net-(J4-Pin_6)*%
X132420000Y-36535000D03*
%TO.P,J4,7,Pin_7*%
%TO.N,Board_0-Net-(J4-Pin_7)*%
X129880000Y-36535000D03*
%TO.P,J4,8,Pin_8*%
%TO.N,Board_0-Net-(J4-Pin_8)*%
X127340000Y-36535000D03*
%TD*%
D12*
%TO.P,J1,1*%
%TO.N,Board_0-Net-(J2-Pin_1)*%
X138042500Y-28935000D03*
D13*
%TO.P,J1,2*%
%TO.N,Board_0-Net-(J4-Pin_2)*%
X136772500Y-31475000D03*
%TO.P,J1,3*%
%TO.N,Board_0-Net-(J2-Pin_2)*%
X135502500Y-28935000D03*
%TO.P,J1,4*%
%TO.N,Board_0-Net-(J4-Pin_4)*%
X134232500Y-31475000D03*
%TO.P,J1,5*%
%TO.N,Board_0-Net-(J4-Pin_5)*%
X132962500Y-28935000D03*
%TO.P,J1,6*%
%TO.N,Board_0-Net-(J4-Pin_6)*%
X131692500Y-31475000D03*
%TO.P,J1,7*%
%TO.N,Board_0-Net-(J4-Pin_7)*%
X130422500Y-28935000D03*
%TO.P,J1,8*%
%TO.N,Board_0-Net-(J4-Pin_8)*%
X129152500Y-31475000D03*
%TD*%
D10*
%TO.P,J4,1,Pin_1*%
%TO.N,Board_1-Net-(J2-Pin_1)*%
X178120000Y-36535000D03*
D11*
%TO.P,J4,2,Pin_2*%
%TO.N,Board_1-Net-(J4-Pin_2)*%
X175580000Y-36535000D03*
%TO.P,J4,3,Pin_3*%
%TO.N,Board_1-Net-(J2-Pin_2)*%
X173040000Y-36535000D03*
%TO.P,J4,4,Pin_4*%
%TO.N,Board_1-Net-(J4-Pin_4)*%
X170500000Y-36535000D03*
%TO.P,J4,5,Pin_5*%
%TO.N,Board_1-Net-(J4-Pin_5)*%
X167960000Y-36535000D03*
%TO.P,J4,6,Pin_6*%
%TO.N,Board_1-Net-(J4-Pin_6)*%
X165420000Y-36535000D03*
%TO.P,J4,7,Pin_7*%
%TO.N,Board_1-Net-(J4-Pin_7)*%
X162880000Y-36535000D03*
%TO.P,J4,8,Pin_8*%
%TO.N,Board_1-Net-(J4-Pin_8)*%
X160340000Y-36535000D03*
%TD*%
D12*
%TO.P,J1,1*%
%TO.N,Board_3-Net-(J2-Pin_1)*%
X171042500Y-49935000D03*
D13*
%TO.P,J1,2*%
%TO.N,Board_3-Net-(J4-Pin_2)*%
X169772500Y-52475000D03*
%TO.P,J1,3*%
%TO.N,Board_3-Net-(J2-Pin_2)*%
X168502500Y-49935000D03*
%TO.P,J1,4*%
%TO.N,Board_3-Net-(J4-Pin_4)*%
X167232500Y-52475000D03*
%TO.P,J1,5*%
%TO.N,Board_3-Net-(J4-Pin_5)*%
X165962500Y-49935000D03*
%TO.P,J1,6*%
%TO.N,Board_3-Net-(J4-Pin_6)*%
X164692500Y-52475000D03*
%TO.P,J1,7*%
%TO.N,Board_3-Net-(J4-Pin_7)*%
X163422500Y-49935000D03*
%TO.P,J1,8*%
%TO.N,Board_3-Net-(J4-Pin_8)*%
X162152500Y-52475000D03*
%TD*%
D14*
%TO.P,J2,1,Pin_1*%
%TO.N,Board_3-Net-(J2-Pin_1)*%
X154500000Y-50250000D03*
D15*
%TO.P,J2,2,Pin_2*%
%TO.N,Board_3-Net-(J2-Pin_2)*%
X154500000Y-53750000D03*
%TD*%
D14*
%TO.P,J2,1,Pin_1*%
%TO.N,Board_2-Net-(J2-Pin_1)*%
X121500000Y-50250000D03*
D15*
%TO.P,J2,2,Pin_2*%
%TO.N,Board_2-Net-(J2-Pin_2)*%
X121500000Y-53750000D03*
%TD*%
D12*
%TO.P,J1,1*%
%TO.N,Board_2-Net-(J2-Pin_1)*%
X138042500Y-49935000D03*
D13*
%TO.P,J1,2*%
%TO.N,Board_2-Net-(J4-Pin_2)*%
X136772500Y-52475000D03*
%TO.P,J1,3*%
%TO.N,Board_2-Net-(J2-Pin_2)*%
X135502500Y-49935000D03*
%TO.P,J1,4*%
%TO.N,Board_2-Net-(J4-Pin_4)*%
X134232500Y-52475000D03*
%TO.P,J1,5*%
%TO.N,Board_2-Net-(J4-Pin_5)*%
X132962500Y-49935000D03*
%TO.P,J1,6*%
%TO.N,Board_2-Net-(J4-Pin_6)*%
X131692500Y-52475000D03*
%TO.P,J1,7*%
%TO.N,Board_2-Net-(J4-Pin_7)*%
X130422500Y-49935000D03*
%TO.P,J1,8*%
%TO.N,Board_2-Net-(J4-Pin_8)*%
X129152500Y-52475000D03*
%TD*%
D10*
%TO.P,J4,1,Pin_1*%
%TO.N,Board_3-Net-(J2-Pin_1)*%
X178120000Y-57535000D03*
D11*
%TO.P,J4,2,Pin_2*%
%TO.N,Board_3-Net-(J4-Pin_2)*%
X175580000Y-57535000D03*
%TO.P,J4,3,Pin_3*%
%TO.N,Board_3-Net-(J2-Pin_2)*%
X173040000Y-57535000D03*
%TO.P,J4,4,Pin_4*%
%TO.N,Board_3-Net-(J4-Pin_4)*%
X170500000Y-57535000D03*
%TO.P,J4,5,Pin_5*%
%TO.N,Board_3-Net-(J4-Pin_5)*%
X167960000Y-57535000D03*
%TO.P,J4,6,Pin_6*%
%TO.N,Board_3-Net-(J4-Pin_6)*%
X165420000Y-57535000D03*
%TO.P,J4,7,Pin_7*%
%TO.N,Board_3-Net-(J4-Pin_7)*%
X162880000Y-57535000D03*
%TO.P,J4,8,Pin_8*%
%TO.N,Board_3-Net-(J4-Pin_8)*%
X160340000Y-57535000D03*
%TD*%
D12*
%TO.P,J1,1*%
%TO.N,Board_1-Net-(J2-Pin_1)*%
X171042500Y-28935000D03*
D13*
%TO.P,J1,2*%
%TO.N,Board_1-Net-(J4-Pin_2)*%
X169772500Y-31475000D03*
%TO.P,J1,3*%
%TO.N,Board_1-Net-(J2-Pin_2)*%
X168502500Y-28935000D03*
%TO.P,J1,4*%
%TO.N,Board_1-Net-(J4-Pin_4)*%
X167232500Y-31475000D03*
%TO.P,J1,5*%
%TO.N,Board_1-Net-(J4-Pin_5)*%
X165962500Y-28935000D03*
%TO.P,J1,6*%
%TO.N,Board_1-Net-(J4-Pin_6)*%
X164692500Y-31475000D03*
%TO.P,J1,7*%
%TO.N,Board_1-Net-(J4-Pin_7)*%
X163422500Y-28935000D03*
%TO.P,J1,8*%
%TO.N,Board_1-Net-(J4-Pin_8)*%
X162152500Y-31475000D03*
%TD*%
D14*
%TO.P,J2,1,Pin_1*%
%TO.N,Board_1-Net-(J2-Pin_1)*%
X154500000Y-29250000D03*
D15*
%TO.P,J2,2,Pin_2*%
%TO.N,Board_1-Net-(J2-Pin_2)*%
X154500000Y-32750000D03*
%TD*%
D10*
%TO.P,J4,1,Pin_1*%
%TO.N,Board_2-Net-(J2-Pin_1)*%
X145120000Y-57535000D03*
D11*
%TO.P,J4,2,Pin_2*%
%TO.N,Board_2-Net-(J4-Pin_2)*%
X142580000Y-57535000D03*
%TO.P,J4,3,Pin_3*%
%TO.N,Board_2-Net-(J2-Pin_2)*%
X140040000Y-57535000D03*
%TO.P,J4,4,Pin_4*%
%TO.N,Board_2-Net-(J4-Pin_4)*%
X137500000Y-57535000D03*
%TO.P,J4,5,Pin_5*%
%TO.N,Board_2-Net-(J4-Pin_5)*%
X134960000Y-57535000D03*
%TO.P,J4,6,Pin_6*%
%TO.N,Board_2-Net-(J4-Pin_6)*%
X132420000Y-57535000D03*
%TO.P,J4,7,Pin_7*%
%TO.N,Board_2-Net-(J4-Pin_7)*%
X129880000Y-57535000D03*
%TO.P,J4,8,Pin_8*%
%TO.N,Board_2-Net-(J4-Pin_8)*%
X127340000Y-57535000D03*
%TD*%
D14*
%TO.P,J2,1,Pin_1*%
%TO.N,Board_0-Net-(J2-Pin_1)*%
X121500000Y-29250000D03*
D15*
%TO.P,J2,2,Pin_2*%
%TO.N,Board_0-Net-(J2-Pin_2)*%
X121500000Y-32750000D03*
%TD*%
M02*
