%TF.GenerationSoftware,KiCad,Pcbnew,7.0.9*%
%TF.CreationDate,2024-06-08T21:54:21-04:00*%
%TF.ProjectId,8P breakout header,38502062-7265-4616-9b6f-757420686561,rev?*%
%TF.SameCoordinates,Original*%
%TF.FileFunction,Legend,Top*%
%TF.FilePolarity,Positive*%
%FSLAX46Y46*%
G04 Gerber Fmt 4.6, Leading zero omitted, Abs format (unit mm)*
G04 Created by KiCad (PCBNEW 7.0.9) date 2024-06-08 21:54:21*
%MOMM*%
%LPD*%
G01*
G04 APERTURE LIST*
%ADD10C,0.150000*%
%ADD11C,0.120000*%
G04 APERTURE END LIST*
D10*
X152360588Y-35807438D02*
X152265350Y-35759819D01*
X152265350Y-35759819D02*
X152122493Y-35759819D01*
X152122493Y-35759819D02*
X151979636Y-35807438D01*
X151979636Y-35807438D02*
X151884398Y-35902676D01*
X151884398Y-35902676D02*
X151836779Y-35997914D01*
X151836779Y-35997914D02*
X151789160Y-36188390D01*
X151789160Y-36188390D02*
X151789160Y-36331247D01*
X151789160Y-36331247D02*
X151836779Y-36521723D01*
X151836779Y-36521723D02*
X151884398Y-36616961D01*
X151884398Y-36616961D02*
X151979636Y-36712200D01*
X151979636Y-36712200D02*
X152122493Y-36759819D01*
X152122493Y-36759819D02*
X152217731Y-36759819D01*
X152217731Y-36759819D02*
X152360588Y-36712200D01*
X152360588Y-36712200D02*
X152408207Y-36664580D01*
X152408207Y-36664580D02*
X152408207Y-36331247D01*
X152408207Y-36331247D02*
X152217731Y-36331247D01*
X152836779Y-36093152D02*
X152836779Y-36759819D01*
X152836779Y-36188390D02*
X152884398Y-36140771D01*
X152884398Y-36140771D02*
X152979636Y-36093152D01*
X152979636Y-36093152D02*
X153122493Y-36093152D01*
X153122493Y-36093152D02*
X153217731Y-36140771D01*
X153217731Y-36140771D02*
X153265350Y-36236009D01*
X153265350Y-36236009D02*
X153265350Y-36759819D01*
X154170112Y-36759819D02*
X154170112Y-35759819D01*
X154170112Y-36712200D02*
X154074874Y-36759819D01*
X154074874Y-36759819D02*
X153884398Y-36759819D01*
X153884398Y-36759819D02*
X153789160Y-36712200D01*
X153789160Y-36712200D02*
X153741541Y-36664580D01*
X153741541Y-36664580D02*
X153693922Y-36569342D01*
X153693922Y-36569342D02*
X153693922Y-36283628D01*
X153693922Y-36283628D02*
X153741541Y-36188390D01*
X153741541Y-36188390D02*
X153789160Y-36140771D01*
X153789160Y-36140771D02*
X153884398Y-36093152D01*
X153884398Y-36093152D02*
X154074874Y-36093152D01*
X154074874Y-36093152D02*
X154170112Y-36140771D01*
X151836779Y-38369819D02*
X151836779Y-37369819D01*
X151836779Y-37369819D02*
X152217731Y-37369819D01*
X152217731Y-37369819D02*
X152312969Y-37417438D01*
X152312969Y-37417438D02*
X152360588Y-37465057D01*
X152360588Y-37465057D02*
X152408207Y-37560295D01*
X152408207Y-37560295D02*
X152408207Y-37703152D01*
X152408207Y-37703152D02*
X152360588Y-37798390D01*
X152360588Y-37798390D02*
X152312969Y-37846009D01*
X152312969Y-37846009D02*
X152217731Y-37893628D01*
X152217731Y-37893628D02*
X151836779Y-37893628D01*
X152836779Y-38369819D02*
X152836779Y-37703152D01*
X152836779Y-37369819D02*
X152789160Y-37417438D01*
X152789160Y-37417438D02*
X152836779Y-37465057D01*
X152836779Y-37465057D02*
X152884398Y-37417438D01*
X152884398Y-37417438D02*
X152836779Y-37369819D01*
X152836779Y-37369819D02*
X152836779Y-37465057D01*
X153312969Y-37703152D02*
X153312969Y-38369819D01*
X153312969Y-37798390D02*
X153360588Y-37750771D01*
X153360588Y-37750771D02*
X153455826Y-37703152D01*
X153455826Y-37703152D02*
X153598683Y-37703152D01*
X153598683Y-37703152D02*
X153693921Y-37750771D01*
X153693921Y-37750771D02*
X153741540Y-37846009D01*
X153741540Y-37846009D02*
X153741540Y-38369819D01*
X154122493Y-37369819D02*
X154741540Y-37369819D01*
X154741540Y-37369819D02*
X154408207Y-37750771D01*
X154408207Y-37750771D02*
X154551064Y-37750771D01*
X154551064Y-37750771D02*
X154646302Y-37798390D01*
X154646302Y-37798390D02*
X154693921Y-37846009D01*
X154693921Y-37846009D02*
X154741540Y-37941247D01*
X154741540Y-37941247D02*
X154741540Y-38179342D01*
X154741540Y-38179342D02*
X154693921Y-38274580D01*
X154693921Y-38274580D02*
X154646302Y-38322200D01*
X154646302Y-38322200D02*
X154551064Y-38369819D01*
X154551064Y-38369819D02*
X154265350Y-38369819D01*
X154265350Y-38369819D02*
X154170112Y-38322200D01*
X154170112Y-38322200D02*
X154122493Y-38274580D01*
X150884398Y-45259819D02*
X151074874Y-45259819D01*
X151074874Y-45259819D02*
X151170112Y-45212200D01*
X151170112Y-45212200D02*
X151217731Y-45164580D01*
X151217731Y-45164580D02*
X151312969Y-45021723D01*
X151312969Y-45021723D02*
X151360588Y-44831247D01*
X151360588Y-44831247D02*
X151360588Y-44450295D01*
X151360588Y-44450295D02*
X151312969Y-44355057D01*
X151312969Y-44355057D02*
X151265350Y-44307438D01*
X151265350Y-44307438D02*
X151170112Y-44259819D01*
X151170112Y-44259819D02*
X150979636Y-44259819D01*
X150979636Y-44259819D02*
X150884398Y-44307438D01*
X150884398Y-44307438D02*
X150836779Y-44355057D01*
X150836779Y-44355057D02*
X150789160Y-44450295D01*
X150789160Y-44450295D02*
X150789160Y-44688390D01*
X150789160Y-44688390D02*
X150836779Y-44783628D01*
X150836779Y-44783628D02*
X150884398Y-44831247D01*
X150884398Y-44831247D02*
X150979636Y-44878866D01*
X150979636Y-44878866D02*
X151170112Y-44878866D01*
X151170112Y-44878866D02*
X151265350Y-44831247D01*
X151265350Y-44831247D02*
X151312969Y-44783628D01*
X151312969Y-44783628D02*
X151360588Y-44688390D01*
X151646303Y-44259819D02*
X151979636Y-45259819D01*
X151979636Y-45259819D02*
X152312969Y-44259819D01*
X150836779Y-46869819D02*
X150836779Y-45869819D01*
X150836779Y-45869819D02*
X151217731Y-45869819D01*
X151217731Y-45869819D02*
X151312969Y-45917438D01*
X151312969Y-45917438D02*
X151360588Y-45965057D01*
X151360588Y-45965057D02*
X151408207Y-46060295D01*
X151408207Y-46060295D02*
X151408207Y-46203152D01*
X151408207Y-46203152D02*
X151360588Y-46298390D01*
X151360588Y-46298390D02*
X151312969Y-46346009D01*
X151312969Y-46346009D02*
X151217731Y-46393628D01*
X151217731Y-46393628D02*
X150836779Y-46393628D01*
X151836779Y-46869819D02*
X151836779Y-46203152D01*
X151836779Y-45869819D02*
X151789160Y-45917438D01*
X151789160Y-45917438D02*
X151836779Y-45965057D01*
X151836779Y-45965057D02*
X151884398Y-45917438D01*
X151884398Y-45917438D02*
X151836779Y-45869819D01*
X151836779Y-45869819D02*
X151836779Y-45965057D01*
X152312969Y-46203152D02*
X152312969Y-46869819D01*
X152312969Y-46298390D02*
X152360588Y-46250771D01*
X152360588Y-46250771D02*
X152455826Y-46203152D01*
X152455826Y-46203152D02*
X152598683Y-46203152D01*
X152598683Y-46203152D02*
X152693921Y-46250771D01*
X152693921Y-46250771D02*
X152741540Y-46346009D01*
X152741540Y-46346009D02*
X152741540Y-46869819D01*
X154503445Y-46869819D02*
X153932017Y-46869819D01*
X154217731Y-46869819D02*
X154217731Y-45869819D01*
X154217731Y-45869819D02*
X154122493Y-46012676D01*
X154122493Y-46012676D02*
X154027255Y-46107914D01*
X154027255Y-46107914D02*
X153932017Y-46155533D01*
X119360588Y-35807438D02*
X119265350Y-35759819D01*
X119265350Y-35759819D02*
X119122493Y-35759819D01*
X119122493Y-35759819D02*
X118979636Y-35807438D01*
X118979636Y-35807438D02*
X118884398Y-35902676D01*
X118884398Y-35902676D02*
X118836779Y-35997914D01*
X118836779Y-35997914D02*
X118789160Y-36188390D01*
X118789160Y-36188390D02*
X118789160Y-36331247D01*
X118789160Y-36331247D02*
X118836779Y-36521723D01*
X118836779Y-36521723D02*
X118884398Y-36616961D01*
X118884398Y-36616961D02*
X118979636Y-36712200D01*
X118979636Y-36712200D02*
X119122493Y-36759819D01*
X119122493Y-36759819D02*
X119217731Y-36759819D01*
X119217731Y-36759819D02*
X119360588Y-36712200D01*
X119360588Y-36712200D02*
X119408207Y-36664580D01*
X119408207Y-36664580D02*
X119408207Y-36331247D01*
X119408207Y-36331247D02*
X119217731Y-36331247D01*
X119836779Y-36093152D02*
X119836779Y-36759819D01*
X119836779Y-36188390D02*
X119884398Y-36140771D01*
X119884398Y-36140771D02*
X119979636Y-36093152D01*
X119979636Y-36093152D02*
X120122493Y-36093152D01*
X120122493Y-36093152D02*
X120217731Y-36140771D01*
X120217731Y-36140771D02*
X120265350Y-36236009D01*
X120265350Y-36236009D02*
X120265350Y-36759819D01*
X121170112Y-36759819D02*
X121170112Y-35759819D01*
X121170112Y-36712200D02*
X121074874Y-36759819D01*
X121074874Y-36759819D02*
X120884398Y-36759819D01*
X120884398Y-36759819D02*
X120789160Y-36712200D01*
X120789160Y-36712200D02*
X120741541Y-36664580D01*
X120741541Y-36664580D02*
X120693922Y-36569342D01*
X120693922Y-36569342D02*
X120693922Y-36283628D01*
X120693922Y-36283628D02*
X120741541Y-36188390D01*
X120741541Y-36188390D02*
X120789160Y-36140771D01*
X120789160Y-36140771D02*
X120884398Y-36093152D01*
X120884398Y-36093152D02*
X121074874Y-36093152D01*
X121074874Y-36093152D02*
X121170112Y-36140771D01*
X118836779Y-38369819D02*
X118836779Y-37369819D01*
X118836779Y-37369819D02*
X119217731Y-37369819D01*
X119217731Y-37369819D02*
X119312969Y-37417438D01*
X119312969Y-37417438D02*
X119360588Y-37465057D01*
X119360588Y-37465057D02*
X119408207Y-37560295D01*
X119408207Y-37560295D02*
X119408207Y-37703152D01*
X119408207Y-37703152D02*
X119360588Y-37798390D01*
X119360588Y-37798390D02*
X119312969Y-37846009D01*
X119312969Y-37846009D02*
X119217731Y-37893628D01*
X119217731Y-37893628D02*
X118836779Y-37893628D01*
X119836779Y-38369819D02*
X119836779Y-37703152D01*
X119836779Y-37369819D02*
X119789160Y-37417438D01*
X119789160Y-37417438D02*
X119836779Y-37465057D01*
X119836779Y-37465057D02*
X119884398Y-37417438D01*
X119884398Y-37417438D02*
X119836779Y-37369819D01*
X119836779Y-37369819D02*
X119836779Y-37465057D01*
X120312969Y-37703152D02*
X120312969Y-38369819D01*
X120312969Y-37798390D02*
X120360588Y-37750771D01*
X120360588Y-37750771D02*
X120455826Y-37703152D01*
X120455826Y-37703152D02*
X120598683Y-37703152D01*
X120598683Y-37703152D02*
X120693921Y-37750771D01*
X120693921Y-37750771D02*
X120741540Y-37846009D01*
X120741540Y-37846009D02*
X120741540Y-38369819D01*
X121122493Y-37369819D02*
X121741540Y-37369819D01*
X121741540Y-37369819D02*
X121408207Y-37750771D01*
X121408207Y-37750771D02*
X121551064Y-37750771D01*
X121551064Y-37750771D02*
X121646302Y-37798390D01*
X121646302Y-37798390D02*
X121693921Y-37846009D01*
X121693921Y-37846009D02*
X121741540Y-37941247D01*
X121741540Y-37941247D02*
X121741540Y-38179342D01*
X121741540Y-38179342D02*
X121693921Y-38274580D01*
X121693921Y-38274580D02*
X121646302Y-38322200D01*
X121646302Y-38322200D02*
X121551064Y-38369819D01*
X121551064Y-38369819D02*
X121265350Y-38369819D01*
X121265350Y-38369819D02*
X121170112Y-38322200D01*
X121170112Y-38322200D02*
X121122493Y-38274580D01*
X117884398Y-24259819D02*
X118074874Y-24259819D01*
X118074874Y-24259819D02*
X118170112Y-24212200D01*
X118170112Y-24212200D02*
X118217731Y-24164580D01*
X118217731Y-24164580D02*
X118312969Y-24021723D01*
X118312969Y-24021723D02*
X118360588Y-23831247D01*
X118360588Y-23831247D02*
X118360588Y-23450295D01*
X118360588Y-23450295D02*
X118312969Y-23355057D01*
X118312969Y-23355057D02*
X118265350Y-23307438D01*
X118265350Y-23307438D02*
X118170112Y-23259819D01*
X118170112Y-23259819D02*
X117979636Y-23259819D01*
X117979636Y-23259819D02*
X117884398Y-23307438D01*
X117884398Y-23307438D02*
X117836779Y-23355057D01*
X117836779Y-23355057D02*
X117789160Y-23450295D01*
X117789160Y-23450295D02*
X117789160Y-23688390D01*
X117789160Y-23688390D02*
X117836779Y-23783628D01*
X117836779Y-23783628D02*
X117884398Y-23831247D01*
X117884398Y-23831247D02*
X117979636Y-23878866D01*
X117979636Y-23878866D02*
X118170112Y-23878866D01*
X118170112Y-23878866D02*
X118265350Y-23831247D01*
X118265350Y-23831247D02*
X118312969Y-23783628D01*
X118312969Y-23783628D02*
X118360588Y-23688390D01*
X118646303Y-23259819D02*
X118979636Y-24259819D01*
X118979636Y-24259819D02*
X119312969Y-23259819D01*
X117836779Y-25869819D02*
X117836779Y-24869819D01*
X117836779Y-24869819D02*
X118217731Y-24869819D01*
X118217731Y-24869819D02*
X118312969Y-24917438D01*
X118312969Y-24917438D02*
X118360588Y-24965057D01*
X118360588Y-24965057D02*
X118408207Y-25060295D01*
X118408207Y-25060295D02*
X118408207Y-25203152D01*
X118408207Y-25203152D02*
X118360588Y-25298390D01*
X118360588Y-25298390D02*
X118312969Y-25346009D01*
X118312969Y-25346009D02*
X118217731Y-25393628D01*
X118217731Y-25393628D02*
X117836779Y-25393628D01*
X118836779Y-25869819D02*
X118836779Y-25203152D01*
X118836779Y-24869819D02*
X118789160Y-24917438D01*
X118789160Y-24917438D02*
X118836779Y-24965057D01*
X118836779Y-24965057D02*
X118884398Y-24917438D01*
X118884398Y-24917438D02*
X118836779Y-24869819D01*
X118836779Y-24869819D02*
X118836779Y-24965057D01*
X119312969Y-25203152D02*
X119312969Y-25869819D01*
X119312969Y-25298390D02*
X119360588Y-25250771D01*
X119360588Y-25250771D02*
X119455826Y-25203152D01*
X119455826Y-25203152D02*
X119598683Y-25203152D01*
X119598683Y-25203152D02*
X119693921Y-25250771D01*
X119693921Y-25250771D02*
X119741540Y-25346009D01*
X119741540Y-25346009D02*
X119741540Y-25869819D01*
X121503445Y-25869819D02*
X120932017Y-25869819D01*
X121217731Y-25869819D02*
X121217731Y-24869819D01*
X121217731Y-24869819D02*
X121122493Y-25012676D01*
X121122493Y-25012676D02*
X121027255Y-25107914D01*
X121027255Y-25107914D02*
X120932017Y-25155533D01*
X176741541Y-27649819D02*
X177360588Y-27649819D01*
X177360588Y-27649819D02*
X177027255Y-28030771D01*
X177027255Y-28030771D02*
X177170112Y-28030771D01*
X177170112Y-28030771D02*
X177265350Y-28078390D01*
X177265350Y-28078390D02*
X177312969Y-28126009D01*
X177312969Y-28126009D02*
X177360588Y-28221247D01*
X177360588Y-28221247D02*
X177360588Y-28459342D01*
X177360588Y-28459342D02*
X177312969Y-28554580D01*
X177312969Y-28554580D02*
X177265350Y-28602200D01*
X177265350Y-28602200D02*
X177170112Y-28649819D01*
X177170112Y-28649819D02*
X176884398Y-28649819D01*
X176884398Y-28649819D02*
X176789160Y-28602200D01*
X176789160Y-28602200D02*
X176741541Y-28554580D01*
X178312969Y-28649819D02*
X177741541Y-28649819D01*
X178027255Y-28649819D02*
X178027255Y-27649819D01*
X178027255Y-27649819D02*
X177932017Y-27792676D01*
X177932017Y-27792676D02*
X177836779Y-27887914D01*
X177836779Y-27887914D02*
X177741541Y-27935533D01*
X176741541Y-30259819D02*
X177265350Y-29593152D01*
X176741541Y-29593152D02*
X177265350Y-30259819D01*
X177360588Y-31869819D02*
X176789160Y-31869819D01*
X177074874Y-31869819D02*
X177074874Y-30869819D01*
X177074874Y-30869819D02*
X176979636Y-31012676D01*
X176979636Y-31012676D02*
X176884398Y-31107914D01*
X176884398Y-31107914D02*
X176789160Y-31155533D01*
X177836779Y-31869819D02*
X178027255Y-31869819D01*
X178027255Y-31869819D02*
X178122493Y-31822200D01*
X178122493Y-31822200D02*
X178170112Y-31774580D01*
X178170112Y-31774580D02*
X178265350Y-31631723D01*
X178265350Y-31631723D02*
X178312969Y-31441247D01*
X178312969Y-31441247D02*
X178312969Y-31060295D01*
X178312969Y-31060295D02*
X178265350Y-30965057D01*
X178265350Y-30965057D02*
X178217731Y-30917438D01*
X178217731Y-30917438D02*
X178122493Y-30869819D01*
X178122493Y-30869819D02*
X177932017Y-30869819D01*
X177932017Y-30869819D02*
X177836779Y-30917438D01*
X177836779Y-30917438D02*
X177789160Y-30965057D01*
X177789160Y-30965057D02*
X177741541Y-31060295D01*
X177741541Y-31060295D02*
X177741541Y-31298390D01*
X177741541Y-31298390D02*
X177789160Y-31393628D01*
X177789160Y-31393628D02*
X177836779Y-31441247D01*
X177836779Y-31441247D02*
X177932017Y-31488866D01*
X177932017Y-31488866D02*
X178122493Y-31488866D01*
X178122493Y-31488866D02*
X178217731Y-31441247D01*
X178217731Y-31441247D02*
X178265350Y-31393628D01*
X178265350Y-31393628D02*
X178312969Y-31298390D01*
X143741541Y-27649819D02*
X144360588Y-27649819D01*
X144360588Y-27649819D02*
X144027255Y-28030771D01*
X144027255Y-28030771D02*
X144170112Y-28030771D01*
X144170112Y-28030771D02*
X144265350Y-28078390D01*
X144265350Y-28078390D02*
X144312969Y-28126009D01*
X144312969Y-28126009D02*
X144360588Y-28221247D01*
X144360588Y-28221247D02*
X144360588Y-28459342D01*
X144360588Y-28459342D02*
X144312969Y-28554580D01*
X144312969Y-28554580D02*
X144265350Y-28602200D01*
X144265350Y-28602200D02*
X144170112Y-28649819D01*
X144170112Y-28649819D02*
X143884398Y-28649819D01*
X143884398Y-28649819D02*
X143789160Y-28602200D01*
X143789160Y-28602200D02*
X143741541Y-28554580D01*
X145312969Y-28649819D02*
X144741541Y-28649819D01*
X145027255Y-28649819D02*
X145027255Y-27649819D01*
X145027255Y-27649819D02*
X144932017Y-27792676D01*
X144932017Y-27792676D02*
X144836779Y-27887914D01*
X144836779Y-27887914D02*
X144741541Y-27935533D01*
X143741541Y-30259819D02*
X144265350Y-29593152D01*
X143741541Y-29593152D02*
X144265350Y-30259819D01*
X144360588Y-31869819D02*
X143789160Y-31869819D01*
X144074874Y-31869819D02*
X144074874Y-30869819D01*
X144074874Y-30869819D02*
X143979636Y-31012676D01*
X143979636Y-31012676D02*
X143884398Y-31107914D01*
X143884398Y-31107914D02*
X143789160Y-31155533D01*
X144836779Y-31869819D02*
X145027255Y-31869819D01*
X145027255Y-31869819D02*
X145122493Y-31822200D01*
X145122493Y-31822200D02*
X145170112Y-31774580D01*
X145170112Y-31774580D02*
X145265350Y-31631723D01*
X145265350Y-31631723D02*
X145312969Y-31441247D01*
X145312969Y-31441247D02*
X145312969Y-31060295D01*
X145312969Y-31060295D02*
X145265350Y-30965057D01*
X145265350Y-30965057D02*
X145217731Y-30917438D01*
X145217731Y-30917438D02*
X145122493Y-30869819D01*
X145122493Y-30869819D02*
X144932017Y-30869819D01*
X144932017Y-30869819D02*
X144836779Y-30917438D01*
X144836779Y-30917438D02*
X144789160Y-30965057D01*
X144789160Y-30965057D02*
X144741541Y-31060295D01*
X144741541Y-31060295D02*
X144741541Y-31298390D01*
X144741541Y-31298390D02*
X144789160Y-31393628D01*
X144789160Y-31393628D02*
X144836779Y-31441247D01*
X144836779Y-31441247D02*
X144932017Y-31488866D01*
X144932017Y-31488866D02*
X145122493Y-31488866D01*
X145122493Y-31488866D02*
X145217731Y-31441247D01*
X145217731Y-31441247D02*
X145265350Y-31393628D01*
X145265350Y-31393628D02*
X145312969Y-31298390D01*
X119360588Y-56807438D02*
X119265350Y-56759819D01*
X119265350Y-56759819D02*
X119122493Y-56759819D01*
X119122493Y-56759819D02*
X118979636Y-56807438D01*
X118979636Y-56807438D02*
X118884398Y-56902676D01*
X118884398Y-56902676D02*
X118836779Y-56997914D01*
X118836779Y-56997914D02*
X118789160Y-57188390D01*
X118789160Y-57188390D02*
X118789160Y-57331247D01*
X118789160Y-57331247D02*
X118836779Y-57521723D01*
X118836779Y-57521723D02*
X118884398Y-57616961D01*
X118884398Y-57616961D02*
X118979636Y-57712200D01*
X118979636Y-57712200D02*
X119122493Y-57759819D01*
X119122493Y-57759819D02*
X119217731Y-57759819D01*
X119217731Y-57759819D02*
X119360588Y-57712200D01*
X119360588Y-57712200D02*
X119408207Y-57664580D01*
X119408207Y-57664580D02*
X119408207Y-57331247D01*
X119408207Y-57331247D02*
X119217731Y-57331247D01*
X119836779Y-57093152D02*
X119836779Y-57759819D01*
X119836779Y-57188390D02*
X119884398Y-57140771D01*
X119884398Y-57140771D02*
X119979636Y-57093152D01*
X119979636Y-57093152D02*
X120122493Y-57093152D01*
X120122493Y-57093152D02*
X120217731Y-57140771D01*
X120217731Y-57140771D02*
X120265350Y-57236009D01*
X120265350Y-57236009D02*
X120265350Y-57759819D01*
X121170112Y-57759819D02*
X121170112Y-56759819D01*
X121170112Y-57712200D02*
X121074874Y-57759819D01*
X121074874Y-57759819D02*
X120884398Y-57759819D01*
X120884398Y-57759819D02*
X120789160Y-57712200D01*
X120789160Y-57712200D02*
X120741541Y-57664580D01*
X120741541Y-57664580D02*
X120693922Y-57569342D01*
X120693922Y-57569342D02*
X120693922Y-57283628D01*
X120693922Y-57283628D02*
X120741541Y-57188390D01*
X120741541Y-57188390D02*
X120789160Y-57140771D01*
X120789160Y-57140771D02*
X120884398Y-57093152D01*
X120884398Y-57093152D02*
X121074874Y-57093152D01*
X121074874Y-57093152D02*
X121170112Y-57140771D01*
X118836779Y-59369819D02*
X118836779Y-58369819D01*
X118836779Y-58369819D02*
X119217731Y-58369819D01*
X119217731Y-58369819D02*
X119312969Y-58417438D01*
X119312969Y-58417438D02*
X119360588Y-58465057D01*
X119360588Y-58465057D02*
X119408207Y-58560295D01*
X119408207Y-58560295D02*
X119408207Y-58703152D01*
X119408207Y-58703152D02*
X119360588Y-58798390D01*
X119360588Y-58798390D02*
X119312969Y-58846009D01*
X119312969Y-58846009D02*
X119217731Y-58893628D01*
X119217731Y-58893628D02*
X118836779Y-58893628D01*
X119836779Y-59369819D02*
X119836779Y-58703152D01*
X119836779Y-58369819D02*
X119789160Y-58417438D01*
X119789160Y-58417438D02*
X119836779Y-58465057D01*
X119836779Y-58465057D02*
X119884398Y-58417438D01*
X119884398Y-58417438D02*
X119836779Y-58369819D01*
X119836779Y-58369819D02*
X119836779Y-58465057D01*
X120312969Y-58703152D02*
X120312969Y-59369819D01*
X120312969Y-58798390D02*
X120360588Y-58750771D01*
X120360588Y-58750771D02*
X120455826Y-58703152D01*
X120455826Y-58703152D02*
X120598683Y-58703152D01*
X120598683Y-58703152D02*
X120693921Y-58750771D01*
X120693921Y-58750771D02*
X120741540Y-58846009D01*
X120741540Y-58846009D02*
X120741540Y-59369819D01*
X121122493Y-58369819D02*
X121741540Y-58369819D01*
X121741540Y-58369819D02*
X121408207Y-58750771D01*
X121408207Y-58750771D02*
X121551064Y-58750771D01*
X121551064Y-58750771D02*
X121646302Y-58798390D01*
X121646302Y-58798390D02*
X121693921Y-58846009D01*
X121693921Y-58846009D02*
X121741540Y-58941247D01*
X121741540Y-58941247D02*
X121741540Y-59179342D01*
X121741540Y-59179342D02*
X121693921Y-59274580D01*
X121693921Y-59274580D02*
X121646302Y-59322200D01*
X121646302Y-59322200D02*
X121551064Y-59369819D01*
X121551064Y-59369819D02*
X121265350Y-59369819D01*
X121265350Y-59369819D02*
X121170112Y-59322200D01*
X121170112Y-59322200D02*
X121122493Y-59274580D01*
X176741541Y-48649819D02*
X177360588Y-48649819D01*
X177360588Y-48649819D02*
X177027255Y-49030771D01*
X177027255Y-49030771D02*
X177170112Y-49030771D01*
X177170112Y-49030771D02*
X177265350Y-49078390D01*
X177265350Y-49078390D02*
X177312969Y-49126009D01*
X177312969Y-49126009D02*
X177360588Y-49221247D01*
X177360588Y-49221247D02*
X177360588Y-49459342D01*
X177360588Y-49459342D02*
X177312969Y-49554580D01*
X177312969Y-49554580D02*
X177265350Y-49602200D01*
X177265350Y-49602200D02*
X177170112Y-49649819D01*
X177170112Y-49649819D02*
X176884398Y-49649819D01*
X176884398Y-49649819D02*
X176789160Y-49602200D01*
X176789160Y-49602200D02*
X176741541Y-49554580D01*
X178312969Y-49649819D02*
X177741541Y-49649819D01*
X178027255Y-49649819D02*
X178027255Y-48649819D01*
X178027255Y-48649819D02*
X177932017Y-48792676D01*
X177932017Y-48792676D02*
X177836779Y-48887914D01*
X177836779Y-48887914D02*
X177741541Y-48935533D01*
X176741541Y-51259819D02*
X177265350Y-50593152D01*
X176741541Y-50593152D02*
X177265350Y-51259819D01*
X177360588Y-52869819D02*
X176789160Y-52869819D01*
X177074874Y-52869819D02*
X177074874Y-51869819D01*
X177074874Y-51869819D02*
X176979636Y-52012676D01*
X176979636Y-52012676D02*
X176884398Y-52107914D01*
X176884398Y-52107914D02*
X176789160Y-52155533D01*
X177836779Y-52869819D02*
X178027255Y-52869819D01*
X178027255Y-52869819D02*
X178122493Y-52822200D01*
X178122493Y-52822200D02*
X178170112Y-52774580D01*
X178170112Y-52774580D02*
X178265350Y-52631723D01*
X178265350Y-52631723D02*
X178312969Y-52441247D01*
X178312969Y-52441247D02*
X178312969Y-52060295D01*
X178312969Y-52060295D02*
X178265350Y-51965057D01*
X178265350Y-51965057D02*
X178217731Y-51917438D01*
X178217731Y-51917438D02*
X178122493Y-51869819D01*
X178122493Y-51869819D02*
X177932017Y-51869819D01*
X177932017Y-51869819D02*
X177836779Y-51917438D01*
X177836779Y-51917438D02*
X177789160Y-51965057D01*
X177789160Y-51965057D02*
X177741541Y-52060295D01*
X177741541Y-52060295D02*
X177741541Y-52298390D01*
X177741541Y-52298390D02*
X177789160Y-52393628D01*
X177789160Y-52393628D02*
X177836779Y-52441247D01*
X177836779Y-52441247D02*
X177932017Y-52488866D01*
X177932017Y-52488866D02*
X178122493Y-52488866D01*
X178122493Y-52488866D02*
X178217731Y-52441247D01*
X178217731Y-52441247D02*
X178265350Y-52393628D01*
X178265350Y-52393628D02*
X178312969Y-52298390D01*
X143741541Y-48649819D02*
X144360588Y-48649819D01*
X144360588Y-48649819D02*
X144027255Y-49030771D01*
X144027255Y-49030771D02*
X144170112Y-49030771D01*
X144170112Y-49030771D02*
X144265350Y-49078390D01*
X144265350Y-49078390D02*
X144312969Y-49126009D01*
X144312969Y-49126009D02*
X144360588Y-49221247D01*
X144360588Y-49221247D02*
X144360588Y-49459342D01*
X144360588Y-49459342D02*
X144312969Y-49554580D01*
X144312969Y-49554580D02*
X144265350Y-49602200D01*
X144265350Y-49602200D02*
X144170112Y-49649819D01*
X144170112Y-49649819D02*
X143884398Y-49649819D01*
X143884398Y-49649819D02*
X143789160Y-49602200D01*
X143789160Y-49602200D02*
X143741541Y-49554580D01*
X145312969Y-49649819D02*
X144741541Y-49649819D01*
X145027255Y-49649819D02*
X145027255Y-48649819D01*
X145027255Y-48649819D02*
X144932017Y-48792676D01*
X144932017Y-48792676D02*
X144836779Y-48887914D01*
X144836779Y-48887914D02*
X144741541Y-48935533D01*
X143741541Y-51259819D02*
X144265350Y-50593152D01*
X143741541Y-50593152D02*
X144265350Y-51259819D01*
X144360588Y-52869819D02*
X143789160Y-52869819D01*
X144074874Y-52869819D02*
X144074874Y-51869819D01*
X144074874Y-51869819D02*
X143979636Y-52012676D01*
X143979636Y-52012676D02*
X143884398Y-52107914D01*
X143884398Y-52107914D02*
X143789160Y-52155533D01*
X144836779Y-52869819D02*
X145027255Y-52869819D01*
X145027255Y-52869819D02*
X145122493Y-52822200D01*
X145122493Y-52822200D02*
X145170112Y-52774580D01*
X145170112Y-52774580D02*
X145265350Y-52631723D01*
X145265350Y-52631723D02*
X145312969Y-52441247D01*
X145312969Y-52441247D02*
X145312969Y-52060295D01*
X145312969Y-52060295D02*
X145265350Y-51965057D01*
X145265350Y-51965057D02*
X145217731Y-51917438D01*
X145217731Y-51917438D02*
X145122493Y-51869819D01*
X145122493Y-51869819D02*
X144932017Y-51869819D01*
X144932017Y-51869819D02*
X144836779Y-51917438D01*
X144836779Y-51917438D02*
X144789160Y-51965057D01*
X144789160Y-51965057D02*
X144741541Y-52060295D01*
X144741541Y-52060295D02*
X144741541Y-52298390D01*
X144741541Y-52298390D02*
X144789160Y-52393628D01*
X144789160Y-52393628D02*
X144836779Y-52441247D01*
X144836779Y-52441247D02*
X144932017Y-52488866D01*
X144932017Y-52488866D02*
X145122493Y-52488866D01*
X145122493Y-52488866D02*
X145217731Y-52441247D01*
X145217731Y-52441247D02*
X145265350Y-52393628D01*
X145265350Y-52393628D02*
X145312969Y-52298390D01*
X152360588Y-56807438D02*
X152265350Y-56759819D01*
X152265350Y-56759819D02*
X152122493Y-56759819D01*
X152122493Y-56759819D02*
X151979636Y-56807438D01*
X151979636Y-56807438D02*
X151884398Y-56902676D01*
X151884398Y-56902676D02*
X151836779Y-56997914D01*
X151836779Y-56997914D02*
X151789160Y-57188390D01*
X151789160Y-57188390D02*
X151789160Y-57331247D01*
X151789160Y-57331247D02*
X151836779Y-57521723D01*
X151836779Y-57521723D02*
X151884398Y-57616961D01*
X151884398Y-57616961D02*
X151979636Y-57712200D01*
X151979636Y-57712200D02*
X152122493Y-57759819D01*
X152122493Y-57759819D02*
X152217731Y-57759819D01*
X152217731Y-57759819D02*
X152360588Y-57712200D01*
X152360588Y-57712200D02*
X152408207Y-57664580D01*
X152408207Y-57664580D02*
X152408207Y-57331247D01*
X152408207Y-57331247D02*
X152217731Y-57331247D01*
X152836779Y-57093152D02*
X152836779Y-57759819D01*
X152836779Y-57188390D02*
X152884398Y-57140771D01*
X152884398Y-57140771D02*
X152979636Y-57093152D01*
X152979636Y-57093152D02*
X153122493Y-57093152D01*
X153122493Y-57093152D02*
X153217731Y-57140771D01*
X153217731Y-57140771D02*
X153265350Y-57236009D01*
X153265350Y-57236009D02*
X153265350Y-57759819D01*
X154170112Y-57759819D02*
X154170112Y-56759819D01*
X154170112Y-57712200D02*
X154074874Y-57759819D01*
X154074874Y-57759819D02*
X153884398Y-57759819D01*
X153884398Y-57759819D02*
X153789160Y-57712200D01*
X153789160Y-57712200D02*
X153741541Y-57664580D01*
X153741541Y-57664580D02*
X153693922Y-57569342D01*
X153693922Y-57569342D02*
X153693922Y-57283628D01*
X153693922Y-57283628D02*
X153741541Y-57188390D01*
X153741541Y-57188390D02*
X153789160Y-57140771D01*
X153789160Y-57140771D02*
X153884398Y-57093152D01*
X153884398Y-57093152D02*
X154074874Y-57093152D01*
X154074874Y-57093152D02*
X154170112Y-57140771D01*
X151836779Y-59369819D02*
X151836779Y-58369819D01*
X151836779Y-58369819D02*
X152217731Y-58369819D01*
X152217731Y-58369819D02*
X152312969Y-58417438D01*
X152312969Y-58417438D02*
X152360588Y-58465057D01*
X152360588Y-58465057D02*
X152408207Y-58560295D01*
X152408207Y-58560295D02*
X152408207Y-58703152D01*
X152408207Y-58703152D02*
X152360588Y-58798390D01*
X152360588Y-58798390D02*
X152312969Y-58846009D01*
X152312969Y-58846009D02*
X152217731Y-58893628D01*
X152217731Y-58893628D02*
X151836779Y-58893628D01*
X152836779Y-59369819D02*
X152836779Y-58703152D01*
X152836779Y-58369819D02*
X152789160Y-58417438D01*
X152789160Y-58417438D02*
X152836779Y-58465057D01*
X152836779Y-58465057D02*
X152884398Y-58417438D01*
X152884398Y-58417438D02*
X152836779Y-58369819D01*
X152836779Y-58369819D02*
X152836779Y-58465057D01*
X153312969Y-58703152D02*
X153312969Y-59369819D01*
X153312969Y-58798390D02*
X153360588Y-58750771D01*
X153360588Y-58750771D02*
X153455826Y-58703152D01*
X153455826Y-58703152D02*
X153598683Y-58703152D01*
X153598683Y-58703152D02*
X153693921Y-58750771D01*
X153693921Y-58750771D02*
X153741540Y-58846009D01*
X153741540Y-58846009D02*
X153741540Y-59369819D01*
X154122493Y-58369819D02*
X154741540Y-58369819D01*
X154741540Y-58369819D02*
X154408207Y-58750771D01*
X154408207Y-58750771D02*
X154551064Y-58750771D01*
X154551064Y-58750771D02*
X154646302Y-58798390D01*
X154646302Y-58798390D02*
X154693921Y-58846009D01*
X154693921Y-58846009D02*
X154741540Y-58941247D01*
X154741540Y-58941247D02*
X154741540Y-59179342D01*
X154741540Y-59179342D02*
X154693921Y-59274580D01*
X154693921Y-59274580D02*
X154646302Y-59322200D01*
X154646302Y-59322200D02*
X154551064Y-59369819D01*
X154551064Y-59369819D02*
X154265350Y-59369819D01*
X154265350Y-59369819D02*
X154170112Y-59322200D01*
X154170112Y-59322200D02*
X154122493Y-59274580D01*
X150884398Y-24259819D02*
X151074874Y-24259819D01*
X151074874Y-24259819D02*
X151170112Y-24212200D01*
X151170112Y-24212200D02*
X151217731Y-24164580D01*
X151217731Y-24164580D02*
X151312969Y-24021723D01*
X151312969Y-24021723D02*
X151360588Y-23831247D01*
X151360588Y-23831247D02*
X151360588Y-23450295D01*
X151360588Y-23450295D02*
X151312969Y-23355057D01*
X151312969Y-23355057D02*
X151265350Y-23307438D01*
X151265350Y-23307438D02*
X151170112Y-23259819D01*
X151170112Y-23259819D02*
X150979636Y-23259819D01*
X150979636Y-23259819D02*
X150884398Y-23307438D01*
X150884398Y-23307438D02*
X150836779Y-23355057D01*
X150836779Y-23355057D02*
X150789160Y-23450295D01*
X150789160Y-23450295D02*
X150789160Y-23688390D01*
X150789160Y-23688390D02*
X150836779Y-23783628D01*
X150836779Y-23783628D02*
X150884398Y-23831247D01*
X150884398Y-23831247D02*
X150979636Y-23878866D01*
X150979636Y-23878866D02*
X151170112Y-23878866D01*
X151170112Y-23878866D02*
X151265350Y-23831247D01*
X151265350Y-23831247D02*
X151312969Y-23783628D01*
X151312969Y-23783628D02*
X151360588Y-23688390D01*
X151646303Y-23259819D02*
X151979636Y-24259819D01*
X151979636Y-24259819D02*
X152312969Y-23259819D01*
X150836779Y-25869819D02*
X150836779Y-24869819D01*
X150836779Y-24869819D02*
X151217731Y-24869819D01*
X151217731Y-24869819D02*
X151312969Y-24917438D01*
X151312969Y-24917438D02*
X151360588Y-24965057D01*
X151360588Y-24965057D02*
X151408207Y-25060295D01*
X151408207Y-25060295D02*
X151408207Y-25203152D01*
X151408207Y-25203152D02*
X151360588Y-25298390D01*
X151360588Y-25298390D02*
X151312969Y-25346009D01*
X151312969Y-25346009D02*
X151217731Y-25393628D01*
X151217731Y-25393628D02*
X150836779Y-25393628D01*
X151836779Y-25869819D02*
X151836779Y-25203152D01*
X151836779Y-24869819D02*
X151789160Y-24917438D01*
X151789160Y-24917438D02*
X151836779Y-24965057D01*
X151836779Y-24965057D02*
X151884398Y-24917438D01*
X151884398Y-24917438D02*
X151836779Y-24869819D01*
X151836779Y-24869819D02*
X151836779Y-24965057D01*
X152312969Y-25203152D02*
X152312969Y-25869819D01*
X152312969Y-25298390D02*
X152360588Y-25250771D01*
X152360588Y-25250771D02*
X152455826Y-25203152D01*
X152455826Y-25203152D02*
X152598683Y-25203152D01*
X152598683Y-25203152D02*
X152693921Y-25250771D01*
X152693921Y-25250771D02*
X152741540Y-25346009D01*
X152741540Y-25346009D02*
X152741540Y-25869819D01*
X154503445Y-25869819D02*
X153932017Y-25869819D01*
X154217731Y-25869819D02*
X154217731Y-24869819D01*
X154217731Y-24869819D02*
X154122493Y-25012676D01*
X154122493Y-25012676D02*
X154027255Y-25107914D01*
X154027255Y-25107914D02*
X153932017Y-25155533D01*
X117884398Y-45259819D02*
X118074874Y-45259819D01*
X118074874Y-45259819D02*
X118170112Y-45212200D01*
X118170112Y-45212200D02*
X118217731Y-45164580D01*
X118217731Y-45164580D02*
X118312969Y-45021723D01*
X118312969Y-45021723D02*
X118360588Y-44831247D01*
X118360588Y-44831247D02*
X118360588Y-44450295D01*
X118360588Y-44450295D02*
X118312969Y-44355057D01*
X118312969Y-44355057D02*
X118265350Y-44307438D01*
X118265350Y-44307438D02*
X118170112Y-44259819D01*
X118170112Y-44259819D02*
X117979636Y-44259819D01*
X117979636Y-44259819D02*
X117884398Y-44307438D01*
X117884398Y-44307438D02*
X117836779Y-44355057D01*
X117836779Y-44355057D02*
X117789160Y-44450295D01*
X117789160Y-44450295D02*
X117789160Y-44688390D01*
X117789160Y-44688390D02*
X117836779Y-44783628D01*
X117836779Y-44783628D02*
X117884398Y-44831247D01*
X117884398Y-44831247D02*
X117979636Y-44878866D01*
X117979636Y-44878866D02*
X118170112Y-44878866D01*
X118170112Y-44878866D02*
X118265350Y-44831247D01*
X118265350Y-44831247D02*
X118312969Y-44783628D01*
X118312969Y-44783628D02*
X118360588Y-44688390D01*
X118646303Y-44259819D02*
X118979636Y-45259819D01*
X118979636Y-45259819D02*
X119312969Y-44259819D01*
X117836779Y-46869819D02*
X117836779Y-45869819D01*
X117836779Y-45869819D02*
X118217731Y-45869819D01*
X118217731Y-45869819D02*
X118312969Y-45917438D01*
X118312969Y-45917438D02*
X118360588Y-45965057D01*
X118360588Y-45965057D02*
X118408207Y-46060295D01*
X118408207Y-46060295D02*
X118408207Y-46203152D01*
X118408207Y-46203152D02*
X118360588Y-46298390D01*
X118360588Y-46298390D02*
X118312969Y-46346009D01*
X118312969Y-46346009D02*
X118217731Y-46393628D01*
X118217731Y-46393628D02*
X117836779Y-46393628D01*
X118836779Y-46869819D02*
X118836779Y-46203152D01*
X118836779Y-45869819D02*
X118789160Y-45917438D01*
X118789160Y-45917438D02*
X118836779Y-45965057D01*
X118836779Y-45965057D02*
X118884398Y-45917438D01*
X118884398Y-45917438D02*
X118836779Y-45869819D01*
X118836779Y-45869819D02*
X118836779Y-45965057D01*
X119312969Y-46203152D02*
X119312969Y-46869819D01*
X119312969Y-46298390D02*
X119360588Y-46250771D01*
X119360588Y-46250771D02*
X119455826Y-46203152D01*
X119455826Y-46203152D02*
X119598683Y-46203152D01*
X119598683Y-46203152D02*
X119693921Y-46250771D01*
X119693921Y-46250771D02*
X119741540Y-46346009D01*
X119741540Y-46346009D02*
X119741540Y-46869819D01*
X121503445Y-46869819D02*
X120932017Y-46869819D01*
X121217731Y-46869819D02*
X121217731Y-45869819D01*
X121217731Y-45869819D02*
X121122493Y-46012676D01*
X121122493Y-46012676D02*
X121027255Y-46107914D01*
X121027255Y-46107914D02*
X120932017Y-46155533D01*
X158414819Y-52333333D02*
X159129104Y-52333333D01*
X159129104Y-52333333D02*
X159271961Y-52380952D01*
X159271961Y-52380952D02*
X159367200Y-52476190D01*
X159367200Y-52476190D02*
X159414819Y-52619047D01*
X159414819Y-52619047D02*
X159414819Y-52714285D01*
X158510057Y-51904761D02*
X158462438Y-51857142D01*
X158462438Y-51857142D02*
X158414819Y-51761904D01*
X158414819Y-51761904D02*
X158414819Y-51523809D01*
X158414819Y-51523809D02*
X158462438Y-51428571D01*
X158462438Y-51428571D02*
X158510057Y-51380952D01*
X158510057Y-51380952D02*
X158605295Y-51333333D01*
X158605295Y-51333333D02*
X158700533Y-51333333D01*
X158700533Y-51333333D02*
X158843390Y-51380952D01*
X158843390Y-51380952D02*
X159414819Y-51952380D01*
X159414819Y-51952380D02*
X159414819Y-51333333D01*
X125414819Y-52333333D02*
X126129104Y-52333333D01*
X126129104Y-52333333D02*
X126271961Y-52380952D01*
X126271961Y-52380952D02*
X126367200Y-52476190D01*
X126367200Y-52476190D02*
X126414819Y-52619047D01*
X126414819Y-52619047D02*
X126414819Y-52714285D01*
X125510057Y-51904761D02*
X125462438Y-51857142D01*
X125462438Y-51857142D02*
X125414819Y-51761904D01*
X125414819Y-51761904D02*
X125414819Y-51523809D01*
X125414819Y-51523809D02*
X125462438Y-51428571D01*
X125462438Y-51428571D02*
X125510057Y-51380952D01*
X125510057Y-51380952D02*
X125605295Y-51333333D01*
X125605295Y-51333333D02*
X125700533Y-51333333D01*
X125700533Y-51333333D02*
X125843390Y-51380952D01*
X125843390Y-51380952D02*
X126414819Y-51952380D01*
X126414819Y-51952380D02*
X126414819Y-51333333D01*
X158414819Y-31333333D02*
X159129104Y-31333333D01*
X159129104Y-31333333D02*
X159271961Y-31380952D01*
X159271961Y-31380952D02*
X159367200Y-31476190D01*
X159367200Y-31476190D02*
X159414819Y-31619047D01*
X159414819Y-31619047D02*
X159414819Y-31714285D01*
X158510057Y-30904761D02*
X158462438Y-30857142D01*
X158462438Y-30857142D02*
X158414819Y-30761904D01*
X158414819Y-30761904D02*
X158414819Y-30523809D01*
X158414819Y-30523809D02*
X158462438Y-30428571D01*
X158462438Y-30428571D02*
X158510057Y-30380952D01*
X158510057Y-30380952D02*
X158605295Y-30333333D01*
X158605295Y-30333333D02*
X158700533Y-30333333D01*
X158700533Y-30333333D02*
X158843390Y-30380952D01*
X158843390Y-30380952D02*
X159414819Y-30952380D01*
X159414819Y-30952380D02*
X159414819Y-30333333D01*
X125414819Y-31333333D02*
X126129104Y-31333333D01*
X126129104Y-31333333D02*
X126271961Y-31380952D01*
X126271961Y-31380952D02*
X126367200Y-31476190D01*
X126367200Y-31476190D02*
X126414819Y-31619047D01*
X126414819Y-31619047D02*
X126414819Y-31714285D01*
X125510057Y-30904761D02*
X125462438Y-30857142D01*
X125462438Y-30857142D02*
X125414819Y-30761904D01*
X125414819Y-30761904D02*
X125414819Y-30523809D01*
X125414819Y-30523809D02*
X125462438Y-30428571D01*
X125462438Y-30428571D02*
X125510057Y-30380952D01*
X125510057Y-30380952D02*
X125605295Y-30333333D01*
X125605295Y-30333333D02*
X125700533Y-30333333D01*
X125700533Y-30333333D02*
X125843390Y-30380952D01*
X125843390Y-30380952D02*
X126414819Y-30952380D01*
X126414819Y-30952380D02*
X126414819Y-30333333D01*
D11*
%TO.C,J4*%
X146450000Y-35205000D02*
X146450000Y-36535000D01*
X145120000Y-35205000D02*
X146450000Y-35205000D01*
X143850000Y-35205000D02*
X126010000Y-35205000D01*
X143850000Y-35205000D02*
X143850000Y-37865000D01*
X126010000Y-35205000D02*
X126010000Y-37865000D01*
X143850000Y-37865000D02*
X126010000Y-37865000D01*
%TO.C,J1*%
X142042500Y-29435000D02*
X142042500Y-28435000D01*
X142042500Y-28435000D02*
X141542500Y-28935000D01*
X141542500Y-28935000D02*
X142042500Y-29435000D01*
X141357500Y-32815000D02*
X141357500Y-14855000D01*
X141357500Y-14855000D02*
X125837500Y-14855000D01*
X125837500Y-32815000D02*
X141357500Y-32815000D01*
X125837500Y-32815000D02*
X125837500Y-14855000D01*
%TO.C,J4*%
X179450000Y-35205000D02*
X179450000Y-36535000D01*
X178120000Y-35205000D02*
X179450000Y-35205000D01*
X176850000Y-35205000D02*
X159010000Y-35205000D01*
X176850000Y-35205000D02*
X176850000Y-37865000D01*
X159010000Y-35205000D02*
X159010000Y-37865000D01*
X176850000Y-37865000D02*
X159010000Y-37865000D01*
%TO.C,J1*%
X175042500Y-50435000D02*
X175042500Y-49435000D01*
X175042500Y-49435000D02*
X174542500Y-49935000D01*
X174542500Y-49935000D02*
X175042500Y-50435000D01*
X174357500Y-53815000D02*
X174357500Y-35855000D01*
X174357500Y-35855000D02*
X158837500Y-35855000D01*
X158837500Y-53815000D02*
X174357500Y-53815000D01*
X158837500Y-53815000D02*
X158837500Y-35855000D01*
%TO.C,J2*%
X152340000Y-47850000D02*
X150600000Y-47850000D01*
X150600000Y-47850000D02*
X150600000Y-49350000D01*
X157960000Y-48090000D02*
X150840000Y-48090000D01*
X157960000Y-48090000D02*
X157960000Y-55910000D01*
X152400000Y-48090000D02*
X152400000Y-55910000D01*
X150840000Y-48090000D02*
X150840000Y-55910000D01*
X157960000Y-55910000D02*
X150840000Y-55910000D01*
X155108000Y-48818000D02*
G75*
G03*
X153892258Y-48817891I-608000J-1432000D01*
G01*
X155932000Y-50858000D02*
G75*
G03*
X155932109Y-49642258I-1432000J608000D01*
G01*
X153068001Y-49642000D02*
G75*
G03*
X152944508Y-50277011I1431987J-607998D01*
G01*
X152945001Y-50250000D02*
G75*
G03*
X153068616Y-50857587I1554999J0D01*
G01*
X153892000Y-51682000D02*
G75*
G03*
X155107742Y-51682109I607999J1432003D01*
G01*
X156055000Y-53750000D02*
G75*
G03*
X156055000Y-53750000I-1555000J0D01*
G01*
X119340000Y-47850000D02*
X117600000Y-47850000D01*
X117600000Y-47850000D02*
X117600000Y-49350000D01*
X124960000Y-48090000D02*
X117840000Y-48090000D01*
X124960000Y-48090000D02*
X124960000Y-55910000D01*
X119400000Y-48090000D02*
X119400000Y-55910000D01*
X117840000Y-48090000D02*
X117840000Y-55910000D01*
X124960000Y-55910000D02*
X117840000Y-55910000D01*
X122108000Y-48818000D02*
G75*
G03*
X120892258Y-48817891I-608000J-1432000D01*
G01*
X122932000Y-50858000D02*
G75*
G03*
X122932109Y-49642258I-1432000J608000D01*
G01*
X120068001Y-49642000D02*
G75*
G03*
X119944508Y-50277011I1431987J-607998D01*
G01*
X119945001Y-50250000D02*
G75*
G03*
X120068616Y-50857587I1554999J0D01*
G01*
X120892000Y-51682000D02*
G75*
G03*
X122107742Y-51682109I607999J1432003D01*
G01*
X123055000Y-53750000D02*
G75*
G03*
X123055000Y-53750000I-1555000J0D01*
G01*
%TO.C,J1*%
X142042500Y-50435000D02*
X142042500Y-49435000D01*
X142042500Y-49435000D02*
X141542500Y-49935000D01*
X141542500Y-49935000D02*
X142042500Y-50435000D01*
X141357500Y-53815000D02*
X141357500Y-35855000D01*
X141357500Y-35855000D02*
X125837500Y-35855000D01*
X125837500Y-53815000D02*
X141357500Y-53815000D01*
X125837500Y-53815000D02*
X125837500Y-35855000D01*
%TO.C,J4*%
X179450000Y-56205000D02*
X179450000Y-57535000D01*
X178120000Y-56205000D02*
X179450000Y-56205000D01*
X176850000Y-56205000D02*
X159010000Y-56205000D01*
X176850000Y-56205000D02*
X176850000Y-58865000D01*
X159010000Y-56205000D02*
X159010000Y-58865000D01*
X176850000Y-58865000D02*
X159010000Y-58865000D01*
%TO.C,J1*%
X175042500Y-29435000D02*
X175042500Y-28435000D01*
X175042500Y-28435000D02*
X174542500Y-28935000D01*
X174542500Y-28935000D02*
X175042500Y-29435000D01*
X174357500Y-32815000D02*
X174357500Y-14855000D01*
X174357500Y-14855000D02*
X158837500Y-14855000D01*
X158837500Y-32815000D02*
X174357500Y-32815000D01*
X158837500Y-32815000D02*
X158837500Y-14855000D01*
%TO.C,J2*%
X152340000Y-26850000D02*
X150600000Y-26850000D01*
X150600000Y-26850000D02*
X150600000Y-28350000D01*
X157960000Y-27090000D02*
X150840000Y-27090000D01*
X157960000Y-27090000D02*
X157960000Y-34910000D01*
X152400000Y-27090000D02*
X152400000Y-34910000D01*
X150840000Y-27090000D02*
X150840000Y-34910000D01*
X157960000Y-34910000D02*
X150840000Y-34910000D01*
X155108000Y-27818000D02*
G75*
G03*
X153892258Y-27817891I-608000J-1432000D01*
G01*
X155932000Y-29858000D02*
G75*
G03*
X155932109Y-28642258I-1432000J608000D01*
G01*
X153068001Y-28642000D02*
G75*
G03*
X152944508Y-29277011I1431987J-607998D01*
G01*
X152945001Y-29250000D02*
G75*
G03*
X153068616Y-29857587I1554999J0D01*
G01*
X153892000Y-30682000D02*
G75*
G03*
X155107742Y-30682109I607999J1432003D01*
G01*
X156055000Y-32750000D02*
G75*
G03*
X156055000Y-32750000I-1555000J0D01*
G01*
%TO.C,J4*%
X146450000Y-56205000D02*
X146450000Y-57535000D01*
X145120000Y-56205000D02*
X146450000Y-56205000D01*
X143850000Y-56205000D02*
X126010000Y-56205000D01*
X143850000Y-56205000D02*
X143850000Y-58865000D01*
X126010000Y-56205000D02*
X126010000Y-58865000D01*
X143850000Y-58865000D02*
X126010000Y-58865000D01*
%TO.C,J2*%
X119340000Y-26850000D02*
X117600000Y-26850000D01*
X117600000Y-26850000D02*
X117600000Y-28350000D01*
X124960000Y-27090000D02*
X117840000Y-27090000D01*
X124960000Y-27090000D02*
X124960000Y-34910000D01*
X119400000Y-27090000D02*
X119400000Y-34910000D01*
X117840000Y-27090000D02*
X117840000Y-34910000D01*
X124960000Y-34910000D02*
X117840000Y-34910000D01*
X122108000Y-27818000D02*
G75*
G03*
X120892258Y-27817891I-608000J-1432000D01*
G01*
X122932000Y-29858000D02*
G75*
G03*
X122932109Y-28642258I-1432000J608000D01*
G01*
X120068001Y-28642000D02*
G75*
G03*
X119944508Y-29277011I1431987J-607998D01*
G01*
X119945001Y-29250000D02*
G75*
G03*
X120068616Y-29857587I1554999J0D01*
G01*
X120892000Y-30682000D02*
G75*
G03*
X122107742Y-30682109I607999J1432003D01*
G01*
X123055000Y-32750000D02*
G75*
G03*
X123055000Y-32750000I-1555000J0D01*
G01*
%TD*%
M02*
