%TF.GenerationSoftware,KiCad,Pcbnew,7.0.9*%
%TF.CreationDate,2024-06-08T21:54:21-04:00*%
%TF.ProjectId,8P breakout header,38502062-7265-4616-9b6f-757420686561,rev?*%
%TF.SameCoordinates,Original*%
%TF.FileFunction,Profile,NP*%
%FSLAX46Y46*%
G04 Gerber Fmt 4.6, Leading zero omitted, Abs format (unit mm)*
G04 Created by KiCad (PCBNEW 7.0.9) date 2024-06-08 21:54:21*
%MOMM*%
%LPD*%
G01*
G04 APERTURE LIST*
%TA.AperFunction,Profile*%
%ADD10C,0.100000*%
%TD*%
G04 APERTURE END LIST*
D10*
X176612792Y-45801419D02*
X176524790Y-45755339D01*
X146106846Y-21795719D02*
X146164436Y-21876657D01*
X157468853Y-23394794D02*
X157446920Y-23491678D01*
X175497480Y-43851117D02*
X175507293Y-43752268D01*
X123431493Y-24778923D02*
X123342379Y-24822812D01*
X153923431Y-42756343D02*
X153986864Y-42679897D01*
X153565836Y-22460315D02*
X153594892Y-22365324D01*
X154612792Y-42198580D02*
X154702964Y-42156909D01*
X123518328Y-24730681D02*
X123431493Y-24778923D01*
X142709691Y-23909420D02*
X142666908Y-23819770D01*
X178518328Y-45730681D02*
X178431493Y-45778923D01*
X154888935Y-21087188D02*
X154984278Y-21059309D01*
X123980020Y-21642875D02*
X124045324Y-21717728D01*
X124468853Y-44394794D02*
X124446920Y-44491678D01*
X124217953Y-24039655D02*
X124164436Y-24123342D01*
X144870413Y-45973586D02*
X144772359Y-45989489D01*
X120628610Y-23728113D02*
X120594892Y-23634675D01*
X146267266Y-23953424D02*
X146217953Y-24039655D01*
X144178515Y-21017855D02*
X144276933Y-21004382D01*
X178158189Y-21102887D02*
X178251203Y-21137758D01*
X154053999Y-21606682D02*
X154124673Y-21536877D01*
X146468853Y-44394794D02*
X146446920Y-44491678D01*
X175986864Y-21679897D02*
X176053999Y-21606682D01*
X175709691Y-43090579D02*
X175756856Y-43003155D01*
X153628610Y-23728113D02*
X153594892Y-23634675D01*
X148499000Y-28000000D02*
X147500000Y-28000000D01*
X155080884Y-45963820D02*
X154984278Y-45940690D01*
X146164436Y-45123342D02*
X146106846Y-45204280D01*
X153808287Y-42918169D02*
X153863857Y-42835832D01*
X156684314Y-24621618D02*
X156602670Y-24678203D01*
X143053999Y-45393317D02*
X142986864Y-45320102D01*
X179045324Y-21717728D02*
X179106846Y-21795719D01*
X177375896Y-20995792D02*
X177475164Y-20992107D01*
X146388826Y-22318396D02*
X146420223Y-22412640D01*
X144673638Y-25000524D02*
X144574492Y-25006663D01*
X153507293Y-44247731D02*
X153497480Y-44148882D01*
X176524790Y-21244660D02*
X176612792Y-21198580D01*
X156431493Y-24778923D02*
X156342379Y-24822812D01*
X147500000Y-60000000D02*
X147500000Y-52000000D01*
X179468853Y-23394794D02*
X179446920Y-23491678D01*
X156684314Y-42378381D02*
X156763060Y-42438934D01*
X123342379Y-42177187D02*
X123431493Y-42221076D01*
X120492568Y-44049667D02*
X120492568Y-43950332D01*
X158333333Y-39999500D02*
X158333333Y-40001500D01*
X156911094Y-42571343D02*
X156980020Y-42642875D01*
X124352807Y-22225821D02*
X124388826Y-22318396D01*
X121795087Y-21119748D02*
X121888935Y-21087188D01*
X143795087Y-21119748D02*
X143888935Y-21087188D01*
X120594892Y-22365324D02*
X120628610Y-22271886D01*
X154612792Y-21198580D02*
X154702964Y-21156909D01*
X120986864Y-45320102D02*
X120923431Y-45243656D01*
X149500000Y-20000000D02*
X149500000Y-28000000D01*
X142666908Y-23819770D02*
X142628610Y-23728113D01*
X155375896Y-41995792D02*
X155475164Y-41992107D01*
X178431493Y-24778923D02*
X178342379Y-24822812D01*
X179312254Y-22135140D02*
X179352807Y-22225821D01*
X177870413Y-21026413D02*
X177967561Y-21047146D01*
X175507293Y-22752268D02*
X175521983Y-22654024D01*
X157267266Y-44953424D02*
X157217953Y-45039655D01*
X142521983Y-44345975D02*
X142507293Y-44247731D01*
X146106846Y-24204280D02*
X146045324Y-24282271D01*
X144080884Y-42036179D02*
X144178515Y-42017855D01*
X156911094Y-21571343D02*
X156980020Y-21642875D01*
X142986864Y-24320102D02*
X142923431Y-24243656D01*
X156063565Y-21072659D02*
X156158189Y-21102887D01*
X123251203Y-42137758D02*
X123342379Y-42177187D01*
X168666666Y-41000000D02*
X161333333Y-41000000D01*
X178251203Y-24862241D02*
X178158189Y-24897112D01*
X180500000Y-39000000D02*
X180500000Y-20000000D01*
X178431493Y-42221076D02*
X178518328Y-42269318D01*
X155375896Y-46004207D02*
X155276933Y-45995617D01*
X155475164Y-25007892D02*
X155375896Y-25004207D01*
X143524790Y-42244660D02*
X143612792Y-42198580D01*
X145063565Y-21072659D02*
X145158189Y-21102887D01*
X156763060Y-24561065D02*
X156684314Y-24621618D01*
X155870413Y-21026413D02*
X155967561Y-21047146D01*
X122772359Y-42010510D02*
X122870413Y-42026413D01*
X178838715Y-24496692D02*
X178763060Y-24561065D01*
X156518328Y-21269318D02*
X156602670Y-21321796D01*
X145251203Y-24862241D02*
X145158189Y-24897112D01*
X176795087Y-42119748D02*
X176888935Y-42087188D01*
X124217953Y-45039655D02*
X124164436Y-45123342D01*
X116500000Y-60000000D02*
X147500000Y-60000000D01*
X153756856Y-43003155D02*
X153808287Y-42918169D01*
X154053999Y-42606682D02*
X154124673Y-42536877D01*
X153521983Y-22654024D02*
X153541513Y-22556627D01*
X146267266Y-43046575D02*
X146312254Y-43135140D01*
X145911094Y-21571343D02*
X145980020Y-21642875D01*
X123911094Y-42571343D02*
X123980020Y-42642875D01*
X153541513Y-22556627D02*
X153565836Y-22460315D01*
X125333333Y-39000000D02*
X125333333Y-39999500D01*
X157508046Y-44000000D02*
X157505588Y-44099305D01*
X124045324Y-21717728D02*
X124106846Y-21795719D01*
X144375896Y-41995792D02*
X144475164Y-41992107D01*
X142492568Y-43950332D02*
X142497480Y-43851117D01*
X143053999Y-42606682D02*
X143124673Y-42536877D01*
X143888935Y-21087188D02*
X143984278Y-21059309D01*
X155375896Y-25004207D02*
X155276933Y-24995617D01*
X145431493Y-24778923D02*
X145342379Y-24822812D01*
X122772359Y-45989489D02*
X122673638Y-46000524D01*
X177772359Y-45989489D02*
X177673638Y-46000524D01*
X122870413Y-42026413D02*
X122967561Y-42047146D01*
X146505588Y-43900694D02*
X146508046Y-44000000D01*
X179420223Y-23587359D02*
X179388826Y-23681603D01*
X122475164Y-46007892D02*
X122375896Y-46004207D01*
X120541513Y-43556627D02*
X120565836Y-43460315D01*
X144276933Y-24995617D02*
X144178515Y-24982144D01*
X179505588Y-23099305D02*
X179498223Y-23198367D01*
X142628610Y-23728113D02*
X142594892Y-23634675D01*
X178158189Y-42102887D02*
X178251203Y-42137758D01*
X121795087Y-24880251D02*
X121702964Y-24843090D01*
X121612792Y-21198580D02*
X121702964Y-21156909D01*
X144870413Y-42026413D02*
X144967561Y-42047146D01*
X157388826Y-44681603D02*
X157352807Y-44774178D01*
X179217953Y-45039655D02*
X179164436Y-45123342D01*
X135666666Y-41000000D02*
X128333333Y-41000000D01*
X146446920Y-44491678D02*
X146420223Y-44587359D01*
X120923431Y-45243656D02*
X120863857Y-45164167D01*
X179468853Y-43605205D02*
X179485968Y-43703055D01*
X144772359Y-24989489D02*
X144673638Y-25000524D01*
X171666666Y-39000000D02*
X180500000Y-39000000D01*
X178251203Y-45862241D02*
X178158189Y-45897112D01*
X146388826Y-43318396D02*
X146420223Y-43412640D01*
X179164436Y-42876657D02*
X179217953Y-42960344D01*
X176612792Y-42198580D02*
X176702964Y-42156909D01*
X121198713Y-21470652D02*
X121275937Y-21408170D01*
X143356157Y-24650415D02*
X143275937Y-24591829D01*
X175756856Y-23996844D02*
X175709691Y-23909420D01*
X144178515Y-24982144D02*
X144080884Y-24963820D01*
X175497480Y-23148882D02*
X175492568Y-23049667D01*
X123602670Y-21321796D02*
X123684314Y-21378381D01*
X142497480Y-23148882D02*
X142492568Y-23049667D01*
X176124673Y-45463122D02*
X176053999Y-45393317D01*
X179267266Y-44953424D02*
X179217953Y-45039655D01*
X153507293Y-22752268D02*
X153521983Y-22654024D01*
X116500000Y-41000000D02*
X116500000Y-60000000D01*
X178518328Y-21269318D02*
X178602670Y-21321796D01*
X154198713Y-45529347D02*
X154124673Y-45463122D01*
X153541513Y-23443372D02*
X153521983Y-23345975D01*
X157505588Y-44099305D02*
X157498223Y-44198367D01*
X149500000Y-31000000D02*
X149500000Y-39000000D01*
X153594892Y-22365324D02*
X153628610Y-22271886D01*
X177475164Y-25007892D02*
X177375896Y-25004207D01*
X120521983Y-43654024D02*
X120541513Y-43556627D01*
X143984278Y-24940690D02*
X143888935Y-24912811D01*
X124388826Y-44681603D02*
X124352807Y-44774178D01*
X123684314Y-42378381D02*
X123763060Y-42438934D01*
X175565836Y-23539684D02*
X175541513Y-23443372D01*
X176439176Y-42295036D02*
X176524790Y-42244660D01*
X175863857Y-21835832D02*
X175923431Y-21756343D01*
X124106846Y-42795719D02*
X124164436Y-42876657D01*
X176275937Y-21408170D02*
X176356157Y-21349584D01*
X147500000Y-52000000D02*
X148499000Y-52000000D01*
X148501000Y-28000000D02*
X148499000Y-28000000D01*
X178684314Y-42378381D02*
X178763060Y-42438934D01*
X157045324Y-42717728D02*
X157106846Y-42795719D01*
X157267266Y-22046575D02*
X157312254Y-22135140D01*
X156838715Y-45496692D02*
X156763060Y-45561065D01*
X179352807Y-43225821D02*
X179388826Y-43318396D01*
X146045324Y-42717728D02*
X146106846Y-42795719D01*
X154275937Y-42408170D02*
X154356157Y-42349584D01*
X177967561Y-45952853D02*
X177870413Y-45973586D01*
X145158189Y-42102887D02*
X145251203Y-42137758D01*
X155574492Y-46006663D02*
X155475164Y-46007892D01*
X157106846Y-45204280D02*
X157045324Y-45282271D01*
X175565836Y-22460315D02*
X175594892Y-22365324D01*
X144772359Y-45989489D02*
X144673638Y-46000524D01*
X146217953Y-21960344D02*
X146267266Y-22046575D01*
X176612792Y-24801419D02*
X176524790Y-24755339D01*
X155772359Y-21010510D02*
X155870413Y-21026413D01*
X177870413Y-45973586D02*
X177772359Y-45989489D01*
X124505588Y-22900694D02*
X124508046Y-23000000D01*
X178251203Y-42137758D02*
X178342379Y-42177187D01*
X175507293Y-43752268D02*
X175521983Y-43654024D01*
X179267266Y-22046575D02*
X179312254Y-22135140D01*
X177673638Y-41999475D02*
X177772359Y-42010510D01*
X156684314Y-21378381D02*
X156763060Y-21438934D01*
X124420223Y-44587359D02*
X124388826Y-44681603D01*
X153492568Y-23049667D02*
X153492568Y-22950332D01*
X175565836Y-43460315D02*
X175594892Y-43365324D01*
X146420223Y-43412640D02*
X146446920Y-43508321D01*
X179498223Y-22801632D02*
X179505588Y-22900694D01*
X121888935Y-21087188D02*
X121984278Y-21059309D01*
X142492568Y-22950332D02*
X142497480Y-22851117D01*
X124164436Y-45123342D02*
X124106846Y-45204280D01*
X175863857Y-24164167D02*
X175808287Y-24081830D01*
X154198713Y-42470652D02*
X154275937Y-42408170D01*
X177574492Y-46006663D02*
X177475164Y-46007892D01*
X155673638Y-25000524D02*
X155574492Y-25006663D01*
X125333333Y-40001500D02*
X125333333Y-41000000D01*
X153492568Y-43950332D02*
X153497480Y-43851117D01*
X143702964Y-24843090D02*
X143612792Y-24801419D01*
X176524790Y-42244660D02*
X176612792Y-42198580D01*
X155475164Y-20992107D02*
X155574492Y-20993336D01*
X122080884Y-21036179D02*
X122178515Y-21017855D01*
X176053999Y-42606682D02*
X176124673Y-42536877D01*
X156342379Y-24822812D02*
X156251203Y-24862241D01*
X123431493Y-45778923D02*
X123342379Y-45822812D01*
X178911094Y-42571343D02*
X178980020Y-42642875D01*
X177574492Y-25006663D02*
X177475164Y-25007892D01*
X121275937Y-24591829D02*
X121198713Y-24529347D01*
X178980020Y-42642875D02*
X179045324Y-42717728D01*
X144772359Y-21010510D02*
X144870413Y-21026413D01*
X146106846Y-45204280D02*
X146045324Y-45282271D01*
X176702964Y-42156909D02*
X176795087Y-42119748D01*
X178838715Y-45496692D02*
X178763060Y-45561065D01*
X123431493Y-42221076D02*
X123518328Y-42269318D01*
X144375896Y-25004207D02*
X144276933Y-24995617D01*
X178602670Y-45678203D02*
X178518328Y-45730681D01*
X121524790Y-21244660D02*
X121612792Y-21198580D01*
X135666666Y-40001500D02*
X135666666Y-41000000D01*
X142923431Y-24243656D02*
X142863857Y-24164167D01*
X143795087Y-45880251D02*
X143702964Y-45843090D01*
X176198713Y-24529347D02*
X176124673Y-24463122D01*
X120923431Y-21756343D02*
X120986864Y-21679897D01*
X142756856Y-22003155D02*
X142808287Y-21918169D01*
X153497480Y-23148882D02*
X153492568Y-23049667D01*
X120594892Y-43365324D02*
X120628610Y-43271886D01*
X177673638Y-46000524D02*
X177574492Y-46006663D01*
X145158189Y-45897112D02*
X145063565Y-45927340D01*
X157312254Y-22135140D02*
X157352807Y-22225821D01*
X124045324Y-45282271D02*
X123980020Y-45357124D01*
X146498223Y-23198367D02*
X146485968Y-23296944D01*
X178063565Y-42072659D02*
X178158189Y-42102887D01*
X156158189Y-45897112D02*
X156063565Y-45927340D01*
X142923431Y-42756343D02*
X142986864Y-42679897D01*
X176524790Y-45755339D02*
X176439176Y-45704963D01*
X120709691Y-22090579D02*
X120756856Y-22003155D01*
X122967561Y-45952853D02*
X122870413Y-45973586D01*
X123980020Y-42642875D02*
X124045324Y-42717728D01*
X121053999Y-21606682D02*
X121124673Y-21536877D01*
X177772359Y-24989489D02*
X177673638Y-25000524D01*
X143702964Y-21156909D02*
X143795087Y-21119748D01*
X153756856Y-44996844D02*
X153709691Y-44909420D01*
X122772359Y-21010510D02*
X122870413Y-21026413D01*
X157312254Y-44864859D02*
X157267266Y-44953424D01*
X175986864Y-45320102D02*
X175923431Y-45243656D01*
X148501000Y-31000000D02*
X149500000Y-31000000D01*
X177967561Y-21047146D02*
X178063565Y-21072659D01*
X123838715Y-42503307D02*
X123911094Y-42571343D01*
X138666666Y-39999500D02*
X138666666Y-39000000D01*
X144080884Y-45963820D02*
X143984278Y-45940690D01*
X177574492Y-20993336D02*
X177673638Y-20999475D01*
X177870413Y-24973586D02*
X177772359Y-24989489D01*
X143124673Y-45463122D02*
X143053999Y-45393317D01*
X157485968Y-23296944D02*
X157468853Y-23394794D01*
X144375896Y-20995792D02*
X144475164Y-20992107D01*
X179498223Y-44198367D02*
X179485968Y-44296944D01*
X146485968Y-23296944D02*
X146468853Y-23394794D01*
X144276933Y-21004382D02*
X144375896Y-20995792D01*
X121198713Y-45529347D02*
X121124673Y-45463122D01*
X145838715Y-45496692D02*
X145763060Y-45561065D01*
X143275937Y-42408170D02*
X143356157Y-42349584D01*
X144375896Y-46004207D02*
X144276933Y-45995617D01*
X145838715Y-42503307D02*
X145911094Y-42571343D01*
X156602670Y-21321796D02*
X156684314Y-21378381D01*
X179312254Y-23864859D02*
X179267266Y-23953424D01*
X157267266Y-23953424D02*
X157217953Y-24039655D01*
X142628610Y-22271886D02*
X142666908Y-22180229D01*
X155080884Y-21036179D02*
X155178515Y-21017855D01*
X153497480Y-43851117D02*
X153507293Y-43752268D01*
X146468853Y-22605205D02*
X146485968Y-22703055D01*
X145251203Y-21137758D02*
X145342379Y-21177187D01*
X157485968Y-43703055D02*
X157498223Y-43801632D01*
X154124673Y-24463122D02*
X154053999Y-24393317D01*
X176795087Y-21119748D02*
X176888935Y-21087188D01*
X178158189Y-45897112D02*
X178063565Y-45927340D01*
X143198713Y-42470652D02*
X143275937Y-42408170D01*
X122080884Y-24963820D02*
X121984278Y-24940690D01*
X154795087Y-24880251D02*
X154702964Y-24843090D01*
X157505588Y-23099305D02*
X157498223Y-23198367D01*
X121612792Y-42198580D02*
X121702964Y-42156909D01*
X179388826Y-22318396D02*
X179420223Y-22412640D01*
X124498223Y-44198367D02*
X124485968Y-44296944D01*
X142521983Y-23345975D02*
X142507293Y-23247731D01*
X146267266Y-22046575D02*
X146312254Y-22135140D01*
X120808287Y-24081830D02*
X120756856Y-23996844D01*
X124420223Y-22412640D02*
X124446920Y-22508321D01*
X121795087Y-42119748D02*
X121888935Y-42087188D01*
X120507293Y-22752268D02*
X120521983Y-22654024D01*
X146352807Y-22225821D02*
X146388826Y-22318396D01*
X121612792Y-45801419D02*
X121524790Y-45755339D01*
X144673638Y-20999475D02*
X144772359Y-21010510D01*
X124267266Y-44953424D02*
X124217953Y-45039655D01*
X145602670Y-24678203D02*
X145518328Y-24730681D01*
X176053999Y-21606682D02*
X176124673Y-21536877D01*
X143053999Y-24393317D02*
X142986864Y-24320102D01*
X146446920Y-22508321D02*
X146468853Y-22605205D01*
X178980020Y-24357124D02*
X178911094Y-24428656D01*
X116500000Y-39000000D02*
X125333333Y-39000000D01*
X154612792Y-24801419D02*
X154524790Y-24755339D01*
X179485968Y-23296944D02*
X179468853Y-23394794D01*
X121356157Y-24650415D02*
X121275937Y-24591829D01*
X178431493Y-45778923D02*
X178342379Y-45822812D01*
X178063565Y-45927340D02*
X177967561Y-45952853D01*
X121612792Y-24801419D02*
X121524790Y-24755339D01*
X120666908Y-23819770D02*
X120628610Y-23728113D01*
X175756856Y-43003155D02*
X175808287Y-42918169D01*
X156158189Y-42102887D02*
X156251203Y-42137758D01*
X143888935Y-24912811D02*
X143795087Y-24880251D01*
X157508046Y-23000000D02*
X157505588Y-23099305D01*
X179352807Y-44774178D02*
X179312254Y-44864859D01*
X124164436Y-42876657D02*
X124217953Y-42960344D01*
X176275937Y-45591829D02*
X176198713Y-45529347D01*
X144673638Y-41999475D02*
X144772359Y-42010510D01*
X156251203Y-45862241D02*
X156158189Y-45897112D01*
X142628610Y-44728113D02*
X142594892Y-44634675D01*
X145063565Y-42072659D02*
X145158189Y-42102887D01*
X155870413Y-24973586D02*
X155772359Y-24989489D01*
X143198713Y-21470652D02*
X143275937Y-21408170D01*
X157164436Y-42876657D02*
X157217953Y-42960344D01*
X124505588Y-23099305D02*
X124498223Y-23198367D01*
X177673638Y-20999475D02*
X177772359Y-21010510D01*
X142756856Y-23996844D02*
X142709691Y-23909420D01*
X142863857Y-45164167D02*
X142808287Y-45081830D01*
X176198713Y-45529347D02*
X176124673Y-45463122D01*
X149500000Y-28000000D02*
X148501000Y-28000000D01*
X122178515Y-24982144D02*
X122080884Y-24963820D01*
X123602670Y-42321796D02*
X123684314Y-42378381D01*
X144080884Y-21036179D02*
X144178515Y-21017855D01*
X176888935Y-21087188D02*
X176984278Y-21059309D01*
X124217953Y-42960344D02*
X124267266Y-43046575D01*
X121439176Y-45704963D02*
X121356157Y-45650415D01*
X175666908Y-44819770D02*
X175628610Y-44728113D01*
X143524790Y-24755339D02*
X143439176Y-24704963D01*
X123763060Y-45561065D02*
X123684314Y-45621618D01*
X146468853Y-43605205D02*
X146485968Y-43703055D01*
X142808287Y-45081830D02*
X142756856Y-44996844D01*
X157352807Y-22225821D02*
X157388826Y-22318396D01*
X121524790Y-45755339D02*
X121439176Y-45704963D01*
X124446920Y-22508321D02*
X124468853Y-22605205D01*
X124446920Y-44491678D02*
X124420223Y-44587359D01*
X161333333Y-39999500D02*
X161333333Y-39000000D01*
X121702964Y-24843090D02*
X121612792Y-24801419D01*
X153628610Y-43271886D02*
X153666908Y-43180229D01*
X122178515Y-45982144D02*
X122080884Y-45963820D01*
X154702964Y-24843090D02*
X154612792Y-24801419D01*
X157045324Y-45282271D02*
X156980020Y-45357124D01*
X143612792Y-24801419D02*
X143524790Y-24755339D01*
X123251203Y-21137758D02*
X123342379Y-21177187D01*
X142863857Y-21835832D02*
X142923431Y-21756343D01*
X154984278Y-21059309D02*
X155080884Y-21036179D01*
X155574492Y-25006663D02*
X155475164Y-25007892D01*
X128333333Y-39000000D02*
X135666666Y-39000000D01*
X122375896Y-20995792D02*
X122475164Y-20992107D01*
X157505588Y-43900694D02*
X157508046Y-44000000D01*
X157217953Y-21960344D02*
X157267266Y-22046575D01*
X176702964Y-21156909D02*
X176795087Y-21119748D01*
X124420223Y-43412640D02*
X124446920Y-43508321D01*
X168666666Y-39000000D02*
X168666666Y-39999500D01*
X179217953Y-24039655D02*
X179164436Y-24123342D01*
X176439176Y-45704963D02*
X176356157Y-45650415D01*
X157420223Y-43412640D02*
X157446920Y-43508321D01*
X124045324Y-42717728D02*
X124106846Y-42795719D01*
X124485968Y-43703055D02*
X124498223Y-43801632D01*
X154275937Y-21408170D02*
X154356157Y-21349584D01*
X178431493Y-21221076D02*
X178518328Y-21269318D01*
X154356157Y-24650415D02*
X154275937Y-24591829D01*
X122375896Y-25004207D02*
X122276933Y-24995617D01*
X177967561Y-42047146D02*
X178063565Y-42072659D01*
X120863857Y-24164167D02*
X120808287Y-24081830D01*
X143888935Y-42087188D02*
X143984278Y-42059309D01*
X142492568Y-23049667D02*
X142492568Y-22950332D01*
X123911094Y-24428656D02*
X123838715Y-24496692D01*
X124498223Y-22801632D02*
X124505588Y-22900694D01*
X175666908Y-43180229D02*
X175709691Y-43090579D01*
X153594892Y-43365324D02*
X153628610Y-43271886D01*
X175541513Y-23443372D02*
X175521983Y-23345975D01*
X153497480Y-22851117D02*
X153507293Y-22752268D01*
X157352807Y-23774178D02*
X157312254Y-23864859D01*
X156342379Y-45822812D02*
X156251203Y-45862241D01*
X120986864Y-42679897D02*
X121053999Y-42606682D01*
X143439176Y-42295036D02*
X143524790Y-42244660D01*
X176275937Y-24591829D02*
X176198713Y-24529347D01*
X178251203Y-21137758D02*
X178342379Y-21177187D01*
X121702964Y-45843090D02*
X121612792Y-45801419D01*
X179420223Y-43412640D02*
X179446920Y-43508321D01*
X148499000Y-52000000D02*
X148501000Y-52000000D01*
X154124673Y-21536877D02*
X154198713Y-21470652D01*
X123063565Y-45927340D02*
X122967561Y-45952853D01*
X146498223Y-22801632D02*
X146505588Y-22900694D01*
X178980020Y-21642875D02*
X179045324Y-21717728D01*
X147500000Y-49000000D02*
X147500000Y-41000000D01*
X124505588Y-44099305D02*
X124498223Y-44198367D01*
X143198713Y-24529347D02*
X143124673Y-24463122D01*
X125333333Y-39999500D02*
X125333333Y-40001500D01*
X122574492Y-20993336D02*
X122673638Y-20999475D01*
X156431493Y-42221076D02*
X156518328Y-42269318D01*
X145431493Y-42221076D02*
X145518328Y-42269318D01*
X154702964Y-45843090D02*
X154612792Y-45801419D01*
X179164436Y-24123342D02*
X179106846Y-24204280D01*
X156063565Y-42072659D02*
X156158189Y-42102887D01*
X177080884Y-42036179D02*
X177178515Y-42017855D01*
X121275937Y-42408170D02*
X121356157Y-42349584D01*
X155673638Y-46000524D02*
X155574492Y-46006663D01*
X157505588Y-22900694D02*
X157508046Y-23000000D01*
X175594892Y-43365324D02*
X175628610Y-43271886D01*
X122574492Y-41993336D02*
X122673638Y-41999475D01*
X124267266Y-23953424D02*
X124217953Y-24039655D01*
X158333333Y-39000000D02*
X158333333Y-39999500D01*
X135666666Y-39000000D02*
X135666666Y-39999500D01*
X175709691Y-22090579D02*
X175756856Y-22003155D01*
X123431493Y-21221076D02*
X123518328Y-21269318D01*
X155276933Y-21004382D02*
X155375896Y-20995792D01*
X176439176Y-24704963D02*
X176356157Y-24650415D01*
X123251203Y-24862241D02*
X123158189Y-24897112D01*
X123602670Y-45678203D02*
X123518328Y-45730681D01*
X145684314Y-24621618D02*
X145602670Y-24678203D01*
X156980020Y-21642875D02*
X157045324Y-21717728D01*
X120986864Y-21679897D02*
X121053999Y-21606682D01*
X124420223Y-23587359D02*
X124388826Y-23681603D01*
X178602670Y-21321796D02*
X178684314Y-21378381D01*
X123684314Y-45621618D02*
X123602670Y-45678203D01*
X145911094Y-24428656D02*
X145838715Y-24496692D01*
X179106846Y-24204280D02*
X179045324Y-24282271D01*
X157217953Y-24039655D02*
X157164436Y-24123342D01*
X177375896Y-46004207D02*
X177276933Y-45995617D01*
X120863857Y-42835832D02*
X120923431Y-42756343D01*
X179485968Y-44296944D02*
X179468853Y-44394794D01*
X145980020Y-42642875D02*
X146045324Y-42717728D01*
X153666908Y-22180229D02*
X153709691Y-22090579D01*
X155967561Y-24952853D02*
X155870413Y-24973586D01*
X145158189Y-24897112D02*
X145063565Y-24927340D01*
X176356157Y-21349584D02*
X176439176Y-21295036D01*
X120565836Y-44539684D02*
X120541513Y-44443372D01*
X120497480Y-43851117D02*
X120507293Y-43752268D01*
X142565836Y-43460315D02*
X142594892Y-43365324D01*
X142594892Y-43365324D02*
X142628610Y-43271886D01*
X120808287Y-21918169D02*
X120863857Y-21835832D01*
X142756856Y-44996844D02*
X142709691Y-44909420D01*
X175492568Y-44049667D02*
X175492568Y-43950332D01*
X156911094Y-24428656D02*
X156838715Y-24496692D01*
X148501000Y-49000000D02*
X148499000Y-49000000D01*
X154053999Y-45393317D02*
X153986864Y-45320102D01*
X144574492Y-20993336D02*
X144673638Y-20999475D01*
X154702964Y-42156909D02*
X154795087Y-42119748D01*
X178911094Y-21571343D02*
X178980020Y-21642875D01*
X121439176Y-42295036D02*
X121524790Y-42244660D01*
X121524790Y-42244660D02*
X121612792Y-42198580D01*
X120507293Y-43752268D02*
X120521983Y-43654024D01*
X146045324Y-24282271D02*
X145980020Y-24357124D01*
X146420223Y-22412640D02*
X146446920Y-22508321D01*
X145602670Y-42321796D02*
X145684314Y-42378381D01*
X135666666Y-39999500D02*
X135666666Y-40001500D01*
X176612792Y-21198580D02*
X176702964Y-21156909D01*
X142709691Y-43090579D02*
X142756856Y-43003155D01*
X157446920Y-43508321D02*
X157468853Y-43605205D01*
X122967561Y-42047146D02*
X123063565Y-42072659D01*
X157106846Y-42795719D02*
X157164436Y-42876657D01*
X124446920Y-23491678D02*
X124420223Y-23587359D01*
X156518328Y-45730681D02*
X156431493Y-45778923D01*
X157485968Y-44296944D02*
X157468853Y-44394794D01*
X124485968Y-22703055D02*
X124498223Y-22801632D01*
X121702964Y-42156909D02*
X121795087Y-42119748D01*
X157498223Y-43801632D02*
X157505588Y-43900694D01*
X154356157Y-42349584D02*
X154439176Y-42295036D01*
X157420223Y-44587359D02*
X157388826Y-44681603D01*
X178063565Y-21072659D02*
X178158189Y-21102887D01*
X175497480Y-44148882D02*
X175492568Y-44049667D01*
X155673638Y-20999475D02*
X155772359Y-21010510D01*
X124045324Y-24282271D02*
X123980020Y-24357124D01*
X122673638Y-46000524D02*
X122574492Y-46006663D01*
X175594892Y-23634675D02*
X175565836Y-23539684D01*
X153863857Y-21835832D02*
X153923431Y-21756343D01*
X143702964Y-45843090D02*
X143612792Y-45801419D01*
X143124673Y-42536877D02*
X143198713Y-42470652D01*
X145602670Y-45678203D02*
X145518328Y-45730681D01*
X146388826Y-23681603D02*
X146352807Y-23774178D01*
X123684314Y-24621618D02*
X123602670Y-24678203D01*
X121275937Y-21408170D02*
X121356157Y-21349584D01*
X145684314Y-42378381D02*
X145763060Y-42438934D01*
X146312254Y-22135140D02*
X146352807Y-22225821D01*
X179505588Y-44099305D02*
X179498223Y-44198367D01*
X142709691Y-22090579D02*
X142756856Y-22003155D01*
X142541513Y-44443372D02*
X142521983Y-44345975D01*
X145342379Y-45822812D02*
X145251203Y-45862241D01*
X122574492Y-25006663D02*
X122475164Y-25007892D01*
X120521983Y-23345975D02*
X120507293Y-23247731D01*
X124312254Y-22135140D02*
X124352807Y-22225821D01*
X121984278Y-24940690D02*
X121888935Y-24912811D01*
X121984278Y-45940690D02*
X121888935Y-45912811D01*
X161333333Y-40001500D02*
X161333333Y-39999500D01*
X123518328Y-21269318D02*
X123602670Y-21321796D01*
X154124673Y-45463122D02*
X154053999Y-45393317D01*
X124508046Y-23000000D02*
X124505588Y-23099305D01*
X144574492Y-25006663D02*
X144475164Y-25007892D01*
X154275937Y-24591829D02*
X154198713Y-24529347D01*
X144178515Y-42017855D02*
X144276933Y-42004382D01*
X121275937Y-45591829D02*
X121198713Y-45529347D01*
X153521983Y-44345975D02*
X153507293Y-44247731D01*
X124505588Y-43900694D02*
X124508046Y-44000000D01*
X146352807Y-44774178D02*
X146312254Y-44864859D01*
X179446920Y-43508321D02*
X179468853Y-43605205D01*
X124106846Y-21795719D02*
X124164436Y-21876657D01*
X145602670Y-21321796D02*
X145684314Y-21378381D01*
X146505588Y-22900694D02*
X146508046Y-23000000D01*
X123980020Y-24357124D02*
X123911094Y-24428656D01*
X149500000Y-52000000D02*
X149500000Y-60000000D01*
X156602670Y-42321796D02*
X156684314Y-42378381D01*
X153565836Y-43460315D02*
X153594892Y-43365324D01*
X121124673Y-21536877D02*
X121198713Y-21470652D01*
X144475164Y-41992107D02*
X144574492Y-41993336D01*
X145342379Y-24822812D02*
X145251203Y-24862241D01*
X120808287Y-42918169D02*
X120863857Y-42835832D01*
X157045324Y-21717728D02*
X157106846Y-21795719D01*
X156431493Y-45778923D02*
X156342379Y-45822812D01*
X124267266Y-43046575D02*
X124312254Y-43135140D01*
X156763060Y-42438934D02*
X156838715Y-42503307D01*
X179388826Y-44681603D02*
X179352807Y-44774178D01*
X176524790Y-24755339D02*
X176439176Y-24704963D01*
X157468853Y-22605205D02*
X157485968Y-22703055D01*
X143356157Y-45650415D02*
X143275937Y-45591829D01*
X156251203Y-24862241D02*
X156158189Y-24897112D01*
X180500000Y-41000000D02*
X171666666Y-41000000D01*
X145342379Y-42177187D02*
X145431493Y-42221076D01*
X123838715Y-24496692D02*
X123763060Y-24561065D01*
X153521983Y-43654024D02*
X153541513Y-43556627D01*
X122080884Y-45963820D02*
X121984278Y-45940690D01*
X143612792Y-42198580D02*
X143702964Y-42156909D01*
X120666908Y-43180229D02*
X120709691Y-43090579D01*
X145251203Y-45862241D02*
X145158189Y-45897112D01*
X142863857Y-42835832D02*
X142923431Y-42756343D01*
X175666908Y-22180229D02*
X175709691Y-22090579D01*
X146508046Y-44000000D02*
X146505588Y-44099305D01*
X121124673Y-42536877D02*
X121198713Y-42470652D01*
X177574492Y-41993336D02*
X177673638Y-41999475D01*
X153986864Y-24320102D02*
X153923431Y-24243656D01*
X155178515Y-21017855D02*
X155276933Y-21004382D01*
X121356157Y-21349584D02*
X121439176Y-21295036D01*
X120541513Y-23443372D02*
X120521983Y-23345975D01*
X143524790Y-45755339D02*
X143439176Y-45704963D01*
X145980020Y-24357124D02*
X145911094Y-24428656D01*
X143275937Y-24591829D02*
X143198713Y-24529347D01*
X146106846Y-42795719D02*
X146164436Y-42876657D01*
X179352807Y-22225821D02*
X179388826Y-22318396D01*
X155967561Y-42047146D02*
X156063565Y-42072659D01*
X121053999Y-24393317D02*
X120986864Y-24320102D01*
X153565836Y-44539684D02*
X153541513Y-44443372D01*
X121524790Y-24755339D02*
X121439176Y-24704963D01*
X179217953Y-42960344D02*
X179267266Y-43046575D01*
X144967561Y-45952853D02*
X144870413Y-45973586D01*
X176198713Y-42470652D02*
X176275937Y-42408170D01*
X175709691Y-44909420D02*
X175666908Y-44819770D01*
X175492568Y-22950332D02*
X175497480Y-22851117D01*
X171666666Y-40001500D02*
X171666666Y-39999500D01*
X120863857Y-21835832D02*
X120923431Y-21756343D01*
X156158189Y-21102887D02*
X156251203Y-21137758D01*
X149500000Y-39000000D02*
X158333333Y-39000000D01*
X148499000Y-31000000D02*
X148501000Y-31000000D01*
X179045324Y-24282271D02*
X178980020Y-24357124D01*
X177772359Y-42010510D02*
X177870413Y-42026413D01*
X145518328Y-21269318D02*
X145602670Y-21321796D01*
X175541513Y-22556627D02*
X175565836Y-22460315D01*
X146217953Y-24039655D02*
X146164436Y-24123342D01*
X177772359Y-21010510D02*
X177870413Y-21026413D01*
X145763060Y-42438934D02*
X145838715Y-42503307D01*
X146420223Y-44587359D02*
X146388826Y-44681603D01*
X154702964Y-21156909D02*
X154795087Y-21119748D01*
X178684314Y-45621618D02*
X178602670Y-45678203D01*
X124312254Y-23864859D02*
X124267266Y-23953424D01*
X153666908Y-44819770D02*
X153628610Y-44728113D01*
X120709691Y-23909420D02*
X120666908Y-23819770D01*
X178763060Y-45561065D02*
X178684314Y-45621618D01*
X142756856Y-43003155D02*
X142808287Y-42918169D01*
X179420223Y-44587359D02*
X179388826Y-44681603D01*
X175521983Y-22654024D02*
X175541513Y-22556627D01*
X157312254Y-23864859D02*
X157267266Y-23953424D01*
X146498223Y-44198367D02*
X146485968Y-44296944D01*
X154524790Y-24755339D02*
X154439176Y-24704963D01*
X179164436Y-45123342D02*
X179106846Y-45204280D01*
X124468853Y-43605205D02*
X124485968Y-43703055D01*
X145518328Y-45730681D02*
X145431493Y-45778923D01*
X176356157Y-45650415D02*
X176275937Y-45591829D01*
X146508046Y-23000000D02*
X146505588Y-23099305D01*
X123684314Y-21378381D02*
X123763060Y-21438934D01*
X146388826Y-44681603D02*
X146352807Y-44774178D01*
X143275937Y-45591829D02*
X143198713Y-45529347D01*
X123518328Y-42269318D02*
X123602670Y-42321796D01*
X154984278Y-45940690D02*
X154888935Y-45912811D01*
X143439176Y-24704963D02*
X143356157Y-24650415D01*
X138666666Y-40001500D02*
X138666666Y-39999500D01*
X144870413Y-21026413D02*
X144967561Y-21047146D01*
X179045324Y-45282271D02*
X178980020Y-45357124D01*
X156602670Y-45678203D02*
X156518328Y-45730681D01*
X157446920Y-44491678D02*
X157420223Y-44587359D01*
X122870413Y-24973586D02*
X122772359Y-24989489D01*
X155375896Y-20995792D02*
X155475164Y-20992107D01*
X176124673Y-42536877D02*
X176198713Y-42470652D01*
X153507293Y-43752268D02*
X153521983Y-43654024D01*
X122080884Y-42036179D02*
X122178515Y-42017855D01*
X138666666Y-39000000D02*
X147500000Y-39000000D01*
X144276933Y-42004382D02*
X144375896Y-41995792D01*
X124388826Y-43318396D02*
X124420223Y-43412640D01*
X176275937Y-42408170D02*
X176356157Y-42349584D01*
X123763060Y-24561065D02*
X123684314Y-24621618D01*
X156251203Y-42137758D02*
X156342379Y-42177187D01*
X120756856Y-44996844D02*
X120709691Y-44909420D01*
X124267266Y-22046575D02*
X124312254Y-22135140D01*
X157420223Y-23587359D02*
X157388826Y-23681603D01*
X179420223Y-22412640D02*
X179446920Y-22508321D01*
X145763060Y-21438934D02*
X145838715Y-21503307D01*
X157498223Y-22801632D02*
X157505588Y-22900694D01*
X176356157Y-42349584D02*
X176439176Y-42295036D01*
X154612792Y-45801419D02*
X154524790Y-45755339D01*
X180500000Y-60000000D02*
X180500000Y-41000000D01*
X178911094Y-45428656D02*
X178838715Y-45496692D01*
X157106846Y-24204280D02*
X157045324Y-24282271D01*
X143198713Y-45529347D02*
X143124673Y-45463122D01*
X178684314Y-21378381D02*
X178763060Y-21438934D01*
X154795087Y-21119748D02*
X154888935Y-21087188D01*
X179164436Y-21876657D02*
X179217953Y-21960344D01*
X155276933Y-24995617D02*
X155178515Y-24982144D01*
X177080884Y-24963820D02*
X176984278Y-24940690D01*
X142541513Y-22556627D02*
X142565836Y-22460315D01*
X122967561Y-21047146D02*
X123063565Y-21072659D01*
X178763060Y-24561065D02*
X178684314Y-24621618D01*
X175541513Y-43556627D02*
X175565836Y-43460315D01*
X154356157Y-45650415D02*
X154275937Y-45591829D01*
X124164436Y-24123342D02*
X124106846Y-24204280D01*
X175594892Y-44634675D02*
X175565836Y-44539684D01*
X175497480Y-22851117D02*
X175507293Y-22752268D01*
X120507293Y-44247731D02*
X120497480Y-44148882D01*
X178980020Y-45357124D02*
X178911094Y-45428656D01*
X142923431Y-45243656D02*
X142863857Y-45164167D01*
X154524790Y-42244660D02*
X154612792Y-42198580D01*
X154524790Y-21244660D02*
X154612792Y-21198580D01*
X177178515Y-42017855D02*
X177276933Y-42004382D01*
X122475164Y-25007892D02*
X122375896Y-25004207D01*
X175666908Y-23819770D02*
X175628610Y-23728113D01*
X143439176Y-45704963D02*
X143356157Y-45650415D01*
X178342379Y-21177187D02*
X178431493Y-21221076D01*
X153492568Y-44049667D02*
X153492568Y-43950332D01*
X153628610Y-22271886D02*
X153666908Y-22180229D01*
X156342379Y-21177187D02*
X156431493Y-21221076D01*
X124106846Y-24204280D02*
X124045324Y-24282271D01*
X153594892Y-23634675D02*
X153565836Y-23539684D01*
X146312254Y-44864859D02*
X146267266Y-44953424D01*
X120808287Y-45081830D02*
X120756856Y-44996844D01*
X179505588Y-43900694D02*
X179508046Y-44000000D01*
X178838715Y-42503307D02*
X178911094Y-42571343D01*
X143795087Y-24880251D02*
X143702964Y-24843090D01*
X155276933Y-45995617D02*
X155178515Y-45982144D01*
X142628610Y-43271886D02*
X142666908Y-43180229D01*
X128333333Y-39999500D02*
X128333333Y-39000000D01*
X142594892Y-22365324D02*
X142628610Y-22271886D01*
X179446920Y-22508321D02*
X179468853Y-22605205D01*
X175808287Y-45081830D02*
X175756856Y-44996844D01*
X145342379Y-21177187D02*
X145431493Y-21221076D01*
X143275937Y-21408170D02*
X143356157Y-21349584D01*
X155772359Y-24989489D02*
X155673638Y-25000524D01*
X155574492Y-20993336D02*
X155673638Y-20999475D01*
X153666908Y-43180229D02*
X153709691Y-43090579D01*
X177475164Y-20992107D02*
X177574492Y-20993336D01*
X157420223Y-22412640D02*
X157446920Y-22508321D01*
X147500000Y-41000000D02*
X138666666Y-41000000D01*
X144475164Y-46007892D02*
X144375896Y-46004207D01*
X179388826Y-43318396D02*
X179420223Y-43412640D01*
X155475164Y-41992107D02*
X155574492Y-41993336D01*
X154356157Y-21349584D02*
X154439176Y-21295036D01*
X145063565Y-45927340D02*
X144967561Y-45952853D01*
X157468853Y-43605205D02*
X157485968Y-43703055D01*
X120492568Y-23049667D02*
X120492568Y-22950332D01*
X156980020Y-24357124D02*
X156911094Y-24428656D01*
X175808287Y-42918169D02*
X175863857Y-42835832D01*
X175709691Y-23909420D02*
X175666908Y-23819770D01*
X179106846Y-45204280D02*
X179045324Y-45282271D01*
X178518328Y-42269318D02*
X178602670Y-42321796D01*
X122673638Y-20999475D02*
X122772359Y-21010510D01*
X146164436Y-42876657D02*
X146217953Y-42960344D01*
X157267266Y-43046575D02*
X157312254Y-43135140D01*
X120565836Y-23539684D02*
X120541513Y-23443372D01*
X144178515Y-45982144D02*
X144080884Y-45963820D01*
X121124673Y-45463122D02*
X121053999Y-45393317D01*
X154439176Y-45704963D02*
X154356157Y-45650415D01*
X175492568Y-43950332D02*
X175497480Y-43851117D01*
X120497480Y-44148882D02*
X120492568Y-44049667D01*
X123342379Y-45822812D02*
X123251203Y-45862241D01*
X168666666Y-40001500D02*
X168666666Y-41000000D01*
X128333333Y-40001500D02*
X128333333Y-39999500D01*
X144475164Y-20992107D02*
X144574492Y-20993336D01*
X120521983Y-44345975D02*
X120507293Y-44247731D01*
X120565836Y-22460315D02*
X120594892Y-22365324D01*
X124485968Y-44296944D02*
X124468853Y-44394794D01*
X178602670Y-42321796D02*
X178684314Y-42378381D01*
X123602670Y-24678203D02*
X123518328Y-24730681D01*
X144080884Y-24963820D02*
X143984278Y-24940690D01*
X123158189Y-21102887D02*
X123251203Y-21137758D01*
X179352807Y-23774178D02*
X179312254Y-23864859D01*
X155475164Y-46007892D02*
X155375896Y-46004207D01*
X120628610Y-22271886D02*
X120666908Y-22180229D01*
X124312254Y-43135140D02*
X124352807Y-43225821D01*
X178602670Y-24678203D02*
X178518328Y-24730681D01*
X120986864Y-24320102D02*
X120923431Y-24243656D01*
X177276933Y-42004382D02*
X177375896Y-41995792D01*
X155772359Y-45989489D02*
X155673638Y-46000524D01*
X153709691Y-22090579D02*
X153756856Y-22003155D01*
X154984278Y-42059309D02*
X155080884Y-42036179D01*
X175863857Y-45164167D02*
X175808287Y-45081830D01*
X145980020Y-21642875D02*
X146045324Y-21717728D01*
X168666666Y-39999500D02*
X168666666Y-40001500D01*
X146045324Y-21717728D02*
X146106846Y-21795719D01*
X153521983Y-23345975D02*
X153507293Y-23247731D01*
X177080884Y-45963820D02*
X176984278Y-45940690D01*
X175808287Y-21918169D02*
X175863857Y-21835832D01*
X145911094Y-42571343D02*
X145980020Y-42642875D01*
X120666908Y-44819770D02*
X120628610Y-44728113D01*
X125333333Y-41000000D02*
X116500000Y-41000000D01*
X123838715Y-45496692D02*
X123763060Y-45561065D01*
X146164436Y-21876657D02*
X146217953Y-21960344D01*
X124312254Y-44864859D02*
X124267266Y-44953424D01*
X153565836Y-23539684D02*
X153541513Y-23443372D01*
X179217953Y-21960344D02*
X179267266Y-22046575D01*
X146045324Y-45282271D02*
X145980020Y-45357124D01*
X175628610Y-44728113D02*
X175594892Y-44634675D01*
X156063565Y-24927340D02*
X155967561Y-24952853D01*
X120709691Y-43090579D02*
X120756856Y-43003155D01*
X153541513Y-44443372D02*
X153521983Y-44345975D01*
X121356157Y-42349584D02*
X121439176Y-42295036D01*
X142541513Y-23443372D02*
X142521983Y-23345975D01*
X175521983Y-23345975D02*
X175507293Y-23247731D01*
X145251203Y-42137758D02*
X145342379Y-42177187D01*
X175756856Y-22003155D02*
X175808287Y-21918169D01*
X175492568Y-23049667D02*
X175492568Y-22950332D01*
X146485968Y-22703055D02*
X146498223Y-22801632D01*
X157498223Y-44198367D02*
X157485968Y-44296944D01*
X154275937Y-45591829D02*
X154198713Y-45529347D01*
X123063565Y-24927340D02*
X122967561Y-24952853D01*
X175521983Y-43654024D02*
X175541513Y-43556627D01*
X124164436Y-21876657D02*
X124217953Y-21960344D01*
X120594892Y-23634675D02*
X120565836Y-23539684D01*
X146420223Y-23587359D02*
X146388826Y-23681603D01*
X124352807Y-43225821D02*
X124388826Y-43318396D01*
X145158189Y-21102887D02*
X145251203Y-21137758D01*
X143356157Y-42349584D02*
X143439176Y-42295036D01*
X120923431Y-42756343D02*
X120986864Y-42679897D01*
X153923431Y-45243656D02*
X153863857Y-45164167D01*
X123063565Y-21072659D02*
X123158189Y-21102887D01*
X153923431Y-21756343D02*
X153986864Y-21679897D01*
X157498223Y-23198367D02*
X157485968Y-23296944D01*
X120565836Y-43460315D02*
X120594892Y-43365324D01*
X156684314Y-45621618D02*
X156602670Y-45678203D01*
X146446920Y-23491678D02*
X146420223Y-23587359D01*
X124352807Y-23774178D02*
X124312254Y-23864859D01*
X175507293Y-23247731D02*
X175497480Y-23148882D01*
X157352807Y-43225821D02*
X157388826Y-43318396D01*
X142521983Y-22654024D02*
X142541513Y-22556627D01*
X154198713Y-24529347D02*
X154124673Y-24463122D01*
X157468853Y-44394794D02*
X157446920Y-44491678D01*
X142666908Y-22180229D02*
X142709691Y-22090579D01*
X176124673Y-24463122D02*
X176053999Y-24393317D01*
X122772359Y-24989489D02*
X122673638Y-25000524D01*
X156342379Y-42177187D02*
X156431493Y-42221076D01*
X176198713Y-21470652D02*
X176275937Y-21408170D01*
X142986864Y-21679897D02*
X143053999Y-21606682D01*
X123763060Y-42438934D02*
X123838715Y-42503307D01*
X177276933Y-45995617D02*
X177178515Y-45982144D01*
X153709691Y-23909420D02*
X153666908Y-23819770D01*
X146352807Y-43225821D02*
X146388826Y-43318396D01*
X176124673Y-21536877D02*
X176198713Y-21470652D01*
X175628610Y-23728113D02*
X175594892Y-23634675D01*
X122475164Y-41992107D02*
X122574492Y-41993336D01*
X121124673Y-24463122D02*
X121053999Y-24393317D01*
X154439176Y-42295036D02*
X154524790Y-42244660D01*
X157045324Y-24282271D02*
X156980020Y-24357124D01*
X175521983Y-44345975D02*
X175507293Y-44247731D01*
X161333333Y-39000000D02*
X168666666Y-39000000D01*
X142507293Y-44247731D02*
X142497480Y-44148882D01*
X120923431Y-24243656D02*
X120863857Y-24164167D01*
X146217953Y-45039655D02*
X146164436Y-45123342D01*
X176053999Y-45393317D02*
X175986864Y-45320102D01*
X156158189Y-24897112D02*
X156063565Y-24927340D01*
X144870413Y-24973586D02*
X144772359Y-24989489D01*
X154053999Y-24393317D02*
X153986864Y-24320102D01*
X175628610Y-43271886D02*
X175666908Y-43180229D01*
X157217953Y-42960344D02*
X157267266Y-43046575D01*
X153756856Y-22003155D02*
X153808287Y-21918169D01*
X177475164Y-46007892D02*
X177375896Y-46004207D01*
X124352807Y-44774178D02*
X124312254Y-44864859D01*
X153863857Y-45164167D02*
X153808287Y-45081830D01*
X156518328Y-24730681D02*
X156431493Y-24778923D01*
X120541513Y-22556627D02*
X120565836Y-22460315D01*
X122276933Y-45995617D02*
X122178515Y-45982144D01*
X175628610Y-22271886D02*
X175666908Y-22180229D01*
X120497480Y-23148882D02*
X120492568Y-23049667D01*
X153541513Y-43556627D02*
X153565836Y-43460315D01*
X158333333Y-40001500D02*
X158333333Y-41000000D01*
X121439176Y-24704963D02*
X121356157Y-24650415D01*
X156251203Y-21137758D02*
X156342379Y-21177187D01*
X143984278Y-21059309D02*
X144080884Y-21036179D01*
X120507293Y-23247731D02*
X120497480Y-23148882D01*
X120628610Y-43271886D02*
X120666908Y-43180229D01*
X121053999Y-45393317D02*
X120986864Y-45320102D01*
X179508046Y-44000000D02*
X179505588Y-44099305D01*
X153986864Y-21679897D02*
X154053999Y-21606682D01*
X177276933Y-24995617D02*
X177178515Y-24982144D01*
X123911094Y-45428656D02*
X123838715Y-45496692D01*
X154795087Y-42119748D02*
X154888935Y-42087188D01*
X177475164Y-41992107D02*
X177574492Y-41993336D01*
X142492568Y-44049667D02*
X142492568Y-43950332D01*
X175923431Y-45243656D02*
X175863857Y-45164167D01*
X157388826Y-22318396D02*
X157420223Y-22412640D01*
X124468853Y-22605205D02*
X124485968Y-22703055D01*
X128333333Y-41000000D02*
X128333333Y-40001500D01*
X153756856Y-23996844D02*
X153709691Y-23909420D01*
X178838715Y-21503307D02*
X178911094Y-21571343D01*
X142507293Y-43752268D02*
X142521983Y-43654024D01*
X142808287Y-24081830D02*
X142756856Y-23996844D01*
X155967561Y-21047146D02*
X156063565Y-21072659D01*
X122375896Y-46004207D02*
X122276933Y-45995617D01*
X144574492Y-46006663D02*
X144475164Y-46007892D01*
X121198713Y-24529347D02*
X121124673Y-24463122D01*
X123838715Y-21503307D02*
X123911094Y-21571343D01*
X156911094Y-45428656D02*
X156838715Y-45496692D01*
X146164436Y-24123342D02*
X146106846Y-24204280D01*
X142666908Y-43180229D02*
X142709691Y-43090579D01*
X142594892Y-44634675D02*
X142565836Y-44539684D01*
X144276933Y-45995617D02*
X144178515Y-45982144D01*
X122870413Y-21026413D02*
X122967561Y-21047146D01*
X157446920Y-23491678D02*
X157420223Y-23587359D01*
X177673638Y-25000524D02*
X177574492Y-25006663D01*
X122967561Y-24952853D02*
X122870413Y-24973586D01*
X142541513Y-43556627D02*
X142565836Y-43460315D01*
X124485968Y-23296944D02*
X124468853Y-23394794D01*
X177870413Y-42026413D02*
X177967561Y-42047146D01*
X175594892Y-22365324D02*
X175628610Y-22271886D01*
X153666908Y-23819770D02*
X153628610Y-23728113D01*
X124468853Y-23394794D02*
X124446920Y-23491678D01*
X155870413Y-42026413D02*
X155967561Y-42047146D01*
X145980020Y-45357124D02*
X145911094Y-45428656D01*
X142594892Y-23634675D02*
X142565836Y-23539684D01*
X177375896Y-25004207D02*
X177276933Y-24995617D01*
X148501000Y-52000000D02*
X149500000Y-52000000D01*
X144574492Y-41993336D02*
X144673638Y-41999475D01*
X122574492Y-46006663D02*
X122475164Y-46007892D01*
X153497480Y-44148882D02*
X153492568Y-44049667D01*
X176888935Y-45912811D02*
X176795087Y-45880251D01*
X176984278Y-24940690D02*
X176888935Y-24912811D01*
X179106846Y-21795719D02*
X179164436Y-21876657D01*
X145763060Y-45561065D02*
X145684314Y-45621618D01*
X157388826Y-23681603D02*
X157352807Y-23774178D01*
X177178515Y-45982144D02*
X177080884Y-45963820D01*
X145684314Y-21378381D02*
X145763060Y-21438934D01*
X145518328Y-24730681D02*
X145431493Y-24778923D01*
X156431493Y-21221076D02*
X156518328Y-21269318D01*
X176888935Y-42087188D02*
X176984278Y-42059309D01*
X177375896Y-41995792D02*
X177475164Y-41992107D01*
X179505588Y-22900694D02*
X179508046Y-23000000D01*
X120863857Y-45164167D02*
X120808287Y-45081830D01*
X146468853Y-23394794D02*
X146446920Y-23491678D01*
X179446920Y-44491678D02*
X179420223Y-44587359D01*
X147500000Y-20000000D02*
X116500000Y-20000000D01*
X120521983Y-22654024D02*
X120541513Y-22556627D01*
X157352807Y-44774178D02*
X157312254Y-44864859D01*
X124498223Y-43801632D02*
X124505588Y-43900694D01*
X146312254Y-23864859D02*
X146267266Y-23953424D01*
X176795087Y-45880251D02*
X176702964Y-45843090D01*
X179312254Y-43135140D02*
X179352807Y-43225821D01*
X155080884Y-24963820D02*
X154984278Y-24940690D01*
X178342379Y-45822812D02*
X178251203Y-45862241D01*
X120628610Y-44728113D02*
X120594892Y-44634675D01*
X121984278Y-21059309D02*
X122080884Y-21036179D01*
X144772359Y-42010510D02*
X144870413Y-42026413D01*
X121702964Y-21156909D02*
X121795087Y-21119748D01*
X145838715Y-21503307D02*
X145911094Y-21571343D01*
X146505588Y-44099305D02*
X146498223Y-44198367D01*
X154888935Y-45912811D02*
X154795087Y-45880251D01*
X176702964Y-45843090D02*
X176612792Y-45801419D01*
X143124673Y-24463122D02*
X143053999Y-24393317D01*
X142986864Y-42679897D02*
X143053999Y-42606682D01*
X153808287Y-45081830D02*
X153756856Y-44996844D01*
X178342379Y-24822812D02*
X178251203Y-24862241D01*
X123980020Y-45357124D02*
X123911094Y-45428656D01*
X176984278Y-21059309D02*
X177080884Y-21036179D01*
X176356157Y-24650415D02*
X176275937Y-24591829D01*
X176702964Y-24843090D02*
X176612792Y-24801419D01*
X176053999Y-24393317D02*
X175986864Y-24320102D01*
X146485968Y-43703055D02*
X146498223Y-43801632D01*
X120666908Y-22180229D02*
X120709691Y-22090579D01*
X154888935Y-24912811D02*
X154795087Y-24880251D01*
X180500000Y-20000000D02*
X149500000Y-20000000D01*
X177178515Y-24982144D02*
X177080884Y-24963820D01*
X142497480Y-44148882D02*
X142492568Y-44049667D01*
X122276933Y-24995617D02*
X122178515Y-24982144D01*
X138666666Y-41000000D02*
X138666666Y-40001500D01*
X116500000Y-20000000D02*
X116500000Y-39000000D01*
X122475164Y-20992107D02*
X122574492Y-20993336D01*
X154198713Y-21470652D02*
X154275937Y-21408170D01*
X179106846Y-42795719D02*
X179164436Y-42876657D01*
X144967561Y-42047146D02*
X145063565Y-42072659D01*
X179468853Y-44394794D02*
X179446920Y-44491678D01*
X122673638Y-41999475D02*
X122772359Y-42010510D01*
X155178515Y-24982144D02*
X155080884Y-24963820D01*
X120492568Y-22950332D02*
X120497480Y-22851117D01*
X153709691Y-44909420D02*
X153666908Y-44819770D01*
X178342379Y-42177187D02*
X178431493Y-42221076D01*
X124388826Y-23681603D02*
X124352807Y-23774178D01*
X177276933Y-21004382D02*
X177375896Y-20995792D01*
X121198713Y-42470652D02*
X121275937Y-42408170D01*
X143888935Y-45912811D02*
X143795087Y-45880251D01*
X120756856Y-43003155D02*
X120808287Y-42918169D01*
X175808287Y-24081830D02*
X175756856Y-23996844D01*
X144475164Y-25007892D02*
X144375896Y-25004207D01*
X177967561Y-24952853D02*
X177870413Y-24973586D01*
X157388826Y-43318396D02*
X157420223Y-43412640D01*
X143612792Y-21198580D02*
X143702964Y-21156909D01*
X156838715Y-42503307D02*
X156911094Y-42571343D01*
X142808287Y-42918169D02*
X142863857Y-42835832D01*
X179388826Y-23681603D02*
X179352807Y-23774178D01*
X120492568Y-43950332D02*
X120497480Y-43851117D01*
X154124673Y-42536877D02*
X154198713Y-42470652D01*
X176795087Y-24880251D02*
X176702964Y-24843090D01*
X153709691Y-43090579D02*
X153756856Y-43003155D01*
X123251203Y-45862241D02*
X123158189Y-45897112D01*
X155080884Y-42036179D02*
X155178515Y-42017855D01*
X122178515Y-42017855D02*
X122276933Y-42004382D01*
X147500000Y-31000000D02*
X148499000Y-31000000D01*
X178763060Y-42438934D02*
X178838715Y-42503307D01*
X157485968Y-22703055D02*
X157498223Y-22801632D01*
X154795087Y-45880251D02*
X154702964Y-45843090D01*
X157446920Y-22508321D02*
X157468853Y-22605205D01*
X176984278Y-42059309D02*
X177080884Y-42036179D01*
X147500000Y-39000000D02*
X147500000Y-31000000D01*
X142497480Y-43851117D02*
X142507293Y-43752268D01*
X176888935Y-24912811D02*
X176795087Y-24880251D01*
X153863857Y-42835832D02*
X153923431Y-42756343D01*
X123158189Y-42102887D02*
X123251203Y-42137758D01*
X176984278Y-45940690D02*
X176888935Y-45912811D01*
X156980020Y-45357124D02*
X156911094Y-45428656D01*
X143053999Y-21606682D02*
X143124673Y-21536877D01*
X179312254Y-44864859D02*
X179267266Y-44953424D01*
X175923431Y-42756343D02*
X175986864Y-42679897D01*
X142666908Y-44819770D02*
X142628610Y-44728113D01*
X156980020Y-42642875D02*
X157045324Y-42717728D01*
X175923431Y-21756343D02*
X175986864Y-21679897D01*
X175507293Y-44247731D02*
X175497480Y-44148882D01*
X149500000Y-41000000D02*
X149500000Y-49000000D01*
X123518328Y-45730681D02*
X123431493Y-45778923D01*
X153986864Y-42679897D02*
X154053999Y-42606682D01*
X157106846Y-21795719D02*
X157164436Y-21876657D01*
X123158189Y-45897112D02*
X123063565Y-45927340D01*
X154984278Y-24940690D02*
X154888935Y-24912811D01*
X178518328Y-24730681D02*
X178431493Y-24778923D01*
X178158189Y-24897112D02*
X178063565Y-24927340D01*
X153628610Y-44728113D02*
X153594892Y-44634675D01*
X142507293Y-22752268D02*
X142521983Y-22654024D01*
X121888935Y-42087188D02*
X121984278Y-42059309D01*
X143356157Y-21349584D02*
X143439176Y-21295036D01*
X124217953Y-21960344D02*
X124267266Y-22046575D01*
X143984278Y-45940690D02*
X143888935Y-45912811D01*
X146352807Y-23774178D02*
X146312254Y-23864859D01*
X153923431Y-24243656D02*
X153863857Y-24164167D01*
X157164436Y-21876657D02*
X157217953Y-21960344D01*
X179498223Y-23198367D02*
X179485968Y-23296944D01*
X155574492Y-41993336D02*
X155673638Y-41999475D01*
X144967561Y-21047146D02*
X145063565Y-21072659D01*
X142923431Y-21756343D02*
X142986864Y-21679897D01*
X155178515Y-42017855D02*
X155276933Y-42004382D01*
X146267266Y-44953424D02*
X146217953Y-45039655D01*
X155276933Y-42004382D02*
X155375896Y-41995792D01*
X143795087Y-42119748D02*
X143888935Y-42087188D01*
X120594892Y-44634675D02*
X120565836Y-44539684D01*
X175923431Y-24243656D02*
X175863857Y-24164167D01*
X143984278Y-42059309D02*
X144080884Y-42036179D01*
X177080884Y-21036179D02*
X177178515Y-21017855D01*
X175541513Y-44443372D02*
X175521983Y-44345975D01*
X142497480Y-22851117D02*
X142507293Y-22752268D01*
X156838715Y-21503307D02*
X156911094Y-21571343D01*
X142808287Y-21918169D02*
X142863857Y-21835832D01*
X120497480Y-22851117D02*
X120507293Y-22752268D01*
X121795087Y-45880251D02*
X121702964Y-45843090D01*
X120541513Y-44443372D02*
X120521983Y-44345975D01*
X153808287Y-21918169D02*
X153863857Y-21835832D01*
X158333333Y-41000000D02*
X149500000Y-41000000D01*
X155673638Y-41999475D02*
X155772359Y-42010510D01*
X146312254Y-43135140D02*
X146352807Y-43225821D01*
X178763060Y-21438934D02*
X178838715Y-21503307D01*
X144673638Y-46000524D02*
X144574492Y-46006663D01*
X179045324Y-42717728D02*
X179106846Y-42795719D01*
X146446920Y-43508321D02*
X146468853Y-43605205D01*
X122276933Y-21004382D02*
X122375896Y-20995792D01*
X143702964Y-42156909D02*
X143795087Y-42119748D01*
X123763060Y-21438934D02*
X123838715Y-21503307D01*
X177178515Y-21017855D02*
X177276933Y-21004382D01*
X142863857Y-24164167D02*
X142808287Y-24081830D01*
X120709691Y-44909420D02*
X120666908Y-44819770D01*
X145838715Y-24496692D02*
X145763060Y-24561065D01*
X153507293Y-23247731D02*
X153497480Y-23148882D01*
X157164436Y-24123342D02*
X157106846Y-24204280D01*
X156763060Y-21438934D02*
X156838715Y-21503307D01*
X122178515Y-21017855D02*
X122276933Y-21004382D01*
X142565836Y-44539684D02*
X142541513Y-44443372D01*
X123063565Y-42072659D02*
X123158189Y-42102887D01*
X154524790Y-45755339D02*
X154439176Y-45704963D01*
X142986864Y-45320102D02*
X142923431Y-45243656D01*
X146505588Y-23099305D02*
X146498223Y-23198367D01*
X178911094Y-24428656D02*
X178838715Y-24496692D01*
X146485968Y-44296944D02*
X146468853Y-44394794D01*
X153492568Y-22950332D02*
X153497480Y-22851117D01*
X179446920Y-23491678D02*
X179420223Y-23587359D01*
X142565836Y-22460315D02*
X142594892Y-22365324D01*
X122673638Y-25000524D02*
X122574492Y-25006663D01*
X179485968Y-22703055D02*
X179498223Y-22801632D01*
X153808287Y-24081830D02*
X153756856Y-23996844D01*
X146217953Y-42960344D02*
X146267266Y-43046575D01*
X155967561Y-45952853D02*
X155870413Y-45973586D01*
X175863857Y-42835832D02*
X175923431Y-42756343D01*
X143439176Y-21295036D02*
X143524790Y-21244660D01*
X142521983Y-43654024D02*
X142541513Y-43556627D01*
X147500000Y-28000000D02*
X147500000Y-20000000D01*
X156518328Y-42269318D02*
X156602670Y-42321796D01*
X156063565Y-45927340D02*
X155967561Y-45952853D01*
X124446920Y-43508321D02*
X124468853Y-43605205D01*
X149500000Y-49000000D02*
X148501000Y-49000000D01*
X142507293Y-23247731D02*
X142497480Y-23148882D01*
X124388826Y-22318396D02*
X124420223Y-22412640D01*
X153594892Y-44634675D02*
X153565836Y-44539684D01*
X121356157Y-45650415D02*
X121275937Y-45591829D01*
X122276933Y-42004382D02*
X122375896Y-41995792D01*
X121439176Y-21295036D02*
X121524790Y-21244660D01*
X178684314Y-24621618D02*
X178602670Y-24678203D01*
X156838715Y-24496692D02*
X156763060Y-24561065D01*
X175565836Y-44539684D02*
X175541513Y-44443372D01*
X142709691Y-44909420D02*
X142666908Y-44819770D01*
X155772359Y-42010510D02*
X155870413Y-42026413D01*
X179468853Y-22605205D02*
X179485968Y-22703055D01*
X145063565Y-24927340D02*
X144967561Y-24952853D01*
X155178515Y-45982144D02*
X155080884Y-45963820D01*
X175756856Y-44996844D02*
X175709691Y-44909420D01*
X145911094Y-45428656D02*
X145838715Y-45496692D01*
X143524790Y-21244660D02*
X143612792Y-21198580D01*
X143124673Y-21536877D02*
X143198713Y-21470652D01*
X121984278Y-42059309D02*
X122080884Y-42036179D01*
X176439176Y-21295036D02*
X176524790Y-21244660D01*
X120756856Y-23996844D02*
X120709691Y-23909420D01*
X120756856Y-22003155D02*
X120808287Y-21918169D01*
X142565836Y-23539684D02*
X142541513Y-23443372D01*
X121053999Y-42606682D02*
X121124673Y-42536877D01*
X175986864Y-24320102D02*
X175923431Y-24243656D01*
X154888935Y-42087188D02*
X154984278Y-42059309D01*
X121888935Y-45912811D02*
X121795087Y-45880251D01*
X161333333Y-41000000D02*
X161333333Y-40001500D01*
X144967561Y-24952853D02*
X144870413Y-24973586D01*
X156763060Y-45561065D02*
X156684314Y-45621618D01*
X175986864Y-42679897D02*
X176053999Y-42606682D01*
X149500000Y-60000000D02*
X180500000Y-60000000D01*
X124498223Y-23198367D02*
X124485968Y-23296944D01*
X155870413Y-45973586D02*
X155772359Y-45989489D01*
X179267266Y-23953424D02*
X179217953Y-24039655D01*
X145431493Y-45778923D02*
X145342379Y-45822812D01*
X148499000Y-49000000D02*
X147500000Y-49000000D01*
X153986864Y-45320102D02*
X153923431Y-45243656D01*
X121888935Y-24912811D02*
X121795087Y-24880251D01*
X123342379Y-21177187D02*
X123431493Y-21221076D01*
X178063565Y-24927340D02*
X177967561Y-24952853D01*
X156602670Y-24678203D02*
X156518328Y-24730681D01*
X145684314Y-45621618D02*
X145602670Y-45678203D01*
X123342379Y-24822812D02*
X123251203Y-24862241D01*
X123911094Y-21571343D02*
X123980020Y-21642875D01*
X124106846Y-45204280D02*
X124045324Y-45282271D01*
X179485968Y-43703055D02*
X179498223Y-43801632D01*
X145518328Y-42269318D02*
X145602670Y-42321796D01*
X124508046Y-44000000D02*
X124505588Y-44099305D01*
X171666666Y-39999500D02*
X171666666Y-39000000D01*
X122870413Y-45973586D02*
X122772359Y-45989489D01*
X146498223Y-43801632D02*
X146505588Y-43900694D01*
X154439176Y-21295036D02*
X154524790Y-21244660D01*
X179267266Y-43046575D02*
X179312254Y-43135140D01*
X123158189Y-24897112D02*
X123063565Y-24927340D01*
X143612792Y-45801419D02*
X143524790Y-45755339D01*
X122375896Y-41995792D02*
X122475164Y-41992107D01*
X154439176Y-24704963D02*
X154356157Y-24650415D01*
X179498223Y-43801632D02*
X179505588Y-43900694D01*
X145431493Y-21221076D02*
X145518328Y-21269318D01*
X157312254Y-43135140D02*
X157352807Y-43225821D01*
X179508046Y-23000000D02*
X179505588Y-23099305D01*
X145763060Y-24561065D02*
X145684314Y-24621618D01*
X157217953Y-45039655D02*
X157164436Y-45123342D01*
X157164436Y-45123342D02*
X157106846Y-45204280D01*
X171666666Y-41000000D02*
X171666666Y-40001500D01*
X153863857Y-24164167D02*
X153808287Y-24081830D01*
M02*
