%TF.GenerationSoftware,KiCad,Pcbnew,7.0.9*%
%TF.CreationDate,2024-06-30T00:15:25-04:00*%
%TF.ProjectId,Loop Board 3 Jackless Input,4c6f6f70-2042-46f6-9172-642033204a61,rev?*%
%TF.SameCoordinates,Original*%
%TF.FileFunction,Soldermask,Bot*%
%TF.FilePolarity,Negative*%
%FSLAX46Y46*%
G04 Gerber Fmt 4.6, Leading zero omitted, Abs format (unit mm)*
G04 Created by KiCad (PCBNEW 7.0.9) date 2024-06-30 00:15:25*
%MOMM*%
%LPD*%
G01*
G04 APERTURE LIST*
G04 Aperture macros list*
%AMRoundRect*
0 Rectangle with rounded corners*
0 $1 Rounding radius*
0 $2 $3 $4 $5 $6 $7 $8 $9 X,Y pos of 4 corners*
0 Add a 4 corners polygon primitive as box body*
4,1,4,$2,$3,$4,$5,$6,$7,$8,$9,$2,$3,0*
0 Add four circle primitives for the rounded corners*
1,1,$1+$1,$2,$3*
1,1,$1+$1,$4,$5*
1,1,$1+$1,$6,$7*
1,1,$1+$1,$8,$9*
0 Add four rect primitives between the rounded corners*
20,1,$1+$1,$2,$3,$4,$5,0*
20,1,$1+$1,$4,$5,$6,$7,0*
20,1,$1+$1,$6,$7,$8,$9,0*
20,1,$1+$1,$8,$9,$2,$3,0*%
G04 Aperture macros list end*
%ADD10R,1.400000X1.400000*%
%ADD11C,1.400000*%
%ADD12R,1.700000X1.700000*%
%ADD13O,1.700000X1.700000*%
%ADD14R,1.500000X1.050000*%
%ADD15O,1.500000X1.050000*%
%ADD16RoundRect,0.102000X0.975000X-0.975000X0.975000X0.975000X-0.975000X0.975000X-0.975000X-0.975000X0*%
%ADD17C,2.154000*%
%ADD18C,3.200000*%
%ADD19R,1.500000X1.500000*%
%ADD20C,1.500000*%
%ADD21R,1.800000X1.800000*%
%ADD22C,1.800000*%
%ADD23C,1.600000*%
%ADD24O,1.600000X1.600000*%
%ADD25C,3.000000*%
%ADD26R,1.905000X2.000000*%
%ADD27O,1.905000X2.000000*%
%ADD28R,2.000000X2.000000*%
%ADD29C,2.000000*%
G04 APERTURE END LIST*
D10*
%TO.C,Right3*%
X148380000Y-42975000D03*
D11*
X140760000Y-42975000D03*
X135680000Y-42975000D03*
X130600000Y-42975000D03*
X130600000Y-50595000D03*
X135680000Y-50595000D03*
X140760000Y-50595000D03*
X148380000Y-50595000D03*
%TD*%
D12*
%TO.C,J2*%
X123500000Y-40340000D03*
D13*
X123500000Y-42880000D03*
X123500000Y-45420000D03*
X123500000Y-47960000D03*
X123500000Y-50500000D03*
X123500000Y-53040000D03*
X123500000Y-55580000D03*
X123500000Y-58120000D03*
%TD*%
D14*
%TO.C,QL3*%
X199500000Y-56835000D03*
D15*
X199500000Y-55565000D03*
X199500000Y-54295000D03*
%TD*%
D16*
%TO.C,Return2*%
X159400000Y-86000000D03*
D17*
X159400000Y-81000000D03*
X159400000Y-76000000D03*
X159400000Y-71000000D03*
%TD*%
D18*
%TO.C,J1*%
X236750000Y-52052500D03*
X236750000Y-40622500D03*
D19*
X230400000Y-50782500D03*
D20*
X227860000Y-49512500D03*
X230400000Y-48242500D03*
X227860000Y-46972500D03*
X230400000Y-45702500D03*
X227860000Y-44432500D03*
X230400000Y-43162500D03*
X227860000Y-41892500D03*
%TD*%
D21*
%TO.C,D2*%
X156225000Y-93500000D03*
D22*
X158765000Y-93500000D03*
%TD*%
D23*
%TO.C,LeftPD2*%
X203690000Y-48295000D03*
D24*
X211310000Y-48295000D03*
%TD*%
D16*
%TO.C,Send3*%
X140537500Y-86000000D03*
D17*
X140537500Y-81000000D03*
X140537500Y-76000000D03*
X140537500Y-71000000D03*
%TD*%
D25*
%TO.C,R1*%
X227915000Y-57385000D03*
X227915000Y-73615000D03*
X234265000Y-57385000D03*
X234265000Y-73615000D03*
X221565000Y-57385000D03*
X221565000Y-73615000D03*
%TD*%
D10*
%TO.C,Left/Mono3*%
X148380000Y-53975000D03*
D11*
X140760000Y-53975000D03*
X135680000Y-53975000D03*
X130600000Y-53975000D03*
X130600000Y-61595000D03*
X135680000Y-61595000D03*
X140760000Y-61595000D03*
X148380000Y-61595000D03*
%TD*%
D26*
%TO.C,U1*%
X216460000Y-41445000D03*
D27*
X219000000Y-41445000D03*
X221540000Y-41445000D03*
%TD*%
D23*
%TO.C,LeftPD3*%
X203690000Y-55295000D03*
D24*
X211310000Y-55295000D03*
%TD*%
D23*
%TO.C,RLed1*%
X197310000Y-93000000D03*
D24*
X189690000Y-93000000D03*
%TD*%
D21*
%TO.C,D4*%
X201000000Y-93500000D03*
D22*
X203540000Y-93500000D03*
%TD*%
D14*
%TO.C,QL2*%
X199500000Y-51045000D03*
D15*
X199500000Y-49775000D03*
X199500000Y-48505000D03*
%TD*%
D23*
%TO.C,LGate3*%
X211310000Y-58295000D03*
D24*
X203690000Y-58295000D03*
%TD*%
D16*
%TO.C,Send2*%
X170037500Y-86000000D03*
D17*
X170037500Y-81000000D03*
X170037500Y-76000000D03*
X170037500Y-71000000D03*
%TD*%
D10*
%TO.C,Left/Mono1*%
X192700000Y-54032500D03*
D11*
X185080000Y-54032500D03*
X180000000Y-54032500D03*
X174920000Y-54032500D03*
X174920000Y-61652500D03*
X180000000Y-61652500D03*
X185080000Y-61652500D03*
X192700000Y-61652500D03*
%TD*%
D14*
%TO.C,QL1*%
X199500000Y-45255000D03*
D15*
X199500000Y-43985000D03*
X199500000Y-42715000D03*
%TD*%
D25*
%TO.C,L/Mono1*%
X227415000Y-79385000D03*
X227415000Y-95615000D03*
X233765000Y-79385000D03*
X233765000Y-95615000D03*
X221065000Y-79385000D03*
X221065000Y-95615000D03*
%TD*%
D10*
%TO.C,Right1*%
X192700000Y-42675000D03*
D11*
X185080000Y-42675000D03*
X180000000Y-42675000D03*
X174920000Y-42675000D03*
X174920000Y-50295000D03*
X180000000Y-50295000D03*
X185080000Y-50295000D03*
X192700000Y-50295000D03*
%TD*%
D16*
%TO.C,Return3*%
X130037500Y-86000000D03*
D17*
X130037500Y-81000000D03*
X130037500Y-76000000D03*
X130037500Y-71000000D03*
%TD*%
D10*
%TO.C,InputRelay1*%
X203737500Y-69642500D03*
D11*
X203737500Y-77262500D03*
X203737500Y-82342500D03*
X203737500Y-87422500D03*
X211357500Y-87422500D03*
X211357500Y-82342500D03*
X211357500Y-77262500D03*
X211357500Y-69642500D03*
%TD*%
D23*
%TO.C,LGate2*%
X211310000Y-51295000D03*
D24*
X203690000Y-51295000D03*
%TD*%
D23*
%TO.C,LGate1*%
X211310000Y-45295000D03*
D24*
X203690000Y-45295000D03*
%TD*%
D21*
%TO.C,D3*%
X126725000Y-93000000D03*
D22*
X129265000Y-93000000D03*
%TD*%
D16*
%TO.C,Return1*%
X187037500Y-86000000D03*
D17*
X187037500Y-81000000D03*
X187037500Y-76000000D03*
X187037500Y-71000000D03*
%TD*%
D16*
%TO.C,Send1*%
X197037500Y-86000000D03*
D17*
X197037500Y-81000000D03*
X197037500Y-76000000D03*
X197037500Y-71000000D03*
%TD*%
D21*
%TO.C,D1*%
X183960000Y-93000000D03*
D22*
X186500000Y-93000000D03*
%TD*%
D28*
%TO.C,C1*%
X220000000Y-51117677D03*
D29*
X220000000Y-47617677D03*
%TD*%
D23*
%TO.C,LeftPD1*%
X203690000Y-42295000D03*
D24*
X211310000Y-42295000D03*
%TD*%
D10*
%TO.C,Left/Mono2*%
X170737500Y-54237500D03*
D11*
X163117500Y-54237500D03*
X158037500Y-54237500D03*
X152957500Y-54237500D03*
X152957500Y-61857500D03*
X158037500Y-61857500D03*
X163117500Y-61857500D03*
X170737500Y-61857500D03*
%TD*%
D21*
%TO.C,D5*%
X208500000Y-93500000D03*
D22*
X211040000Y-93500000D03*
%TD*%
D10*
%TO.C,Right2*%
X170737500Y-42737500D03*
D11*
X163117500Y-42737500D03*
X158037500Y-42737500D03*
X152957500Y-42737500D03*
X152957500Y-50357500D03*
X158037500Y-50357500D03*
X163117500Y-50357500D03*
X170737500Y-50357500D03*
%TD*%
D23*
%TO.C,RLed3*%
X140810000Y-93000000D03*
D24*
X133190000Y-93000000D03*
%TD*%
D23*
%TO.C,RLed4*%
X203690000Y-63000000D03*
D24*
X211310000Y-63000000D03*
%TD*%
D23*
%TO.C,RLed2*%
X172310000Y-93500000D03*
D24*
X164690000Y-93500000D03*
%TD*%
M02*
