M48
; DRILL file {KiCad 7.0.9} date Sun Jun 30 00:15:23 2024
; FORMAT={-:-/ absolute / inch / decimal}
; #@! TF.CreationDate,2024-06-30T00:15:23-04:00
; #@! TF.GenerationSoftware,Kicad,Pcbnew,7.0.9
; #@! TF.FileFunction,Plated,1,2,PTH
FMAT,2
INCH
; #@! TA.AperFunction,Plated,PTH,ViaDrill
T1C0.0157
; #@! TA.AperFunction,Plated,PTH,ComponentDrill
T2C0.0276
; #@! TA.AperFunction,Plated,PTH,ComponentDrill
T3C0.0295
; #@! TA.AperFunction,Plated,PTH,ComponentDrill
T4C0.0299
; #@! TA.AperFunction,Plated,PTH,ComponentDrill
T5C0.0315
; #@! TA.AperFunction,Plated,PTH,ComponentDrill
T6C0.0354
; #@! TA.AperFunction,Plated,PTH,ComponentDrill
T7C0.0394
; #@! TA.AperFunction,Plated,PTH,ComponentDrill
T8C0.0433
; #@! TA.AperFunction,Plated,PTH,ComponentDrill
T9C0.0512
; #@! TA.AperFunction,Plated,PTH,ComponentDrill
T10C0.0551
%
G90
G05
T1
X6.6535Y-2.0079
X7.0074Y-2.0477
X7.0079Y-2.0079
X7.4213Y-2.1457
X7.8937Y-3.4252
X8.0906Y-2.5591
X8.8381Y-1.5556
X8.8583Y-1.6142
X9.4094Y-1.8002
X9.4488Y-1.7717
T2
X5.1417Y-1.6919
X5.1417Y-1.9919
X5.1417Y-2.125
X5.1417Y-2.425
X5.3417Y-1.6919
X5.3417Y-1.9919
X5.3417Y-2.125
X5.3417Y-2.425
X5.5417Y-1.6919
X5.5417Y-1.9919
X5.5417Y-2.125
X5.5417Y-2.425
X5.8417Y-1.6919
X5.8417Y-1.9919
X5.8417Y-2.125
X5.8417Y-2.425
X6.0219Y-1.6826
X6.0219Y-1.9826
X6.0219Y-2.1353
X6.0219Y-2.4353
X6.2219Y-1.6826
X6.2219Y-1.9826
X6.2219Y-2.1353
X6.2219Y-2.4353
X6.4219Y-1.6826
X6.4219Y-1.9826
X6.4219Y-2.1353
X6.4219Y-2.4353
X6.7219Y-1.6826
X6.7219Y-1.9826
X6.7219Y-2.1353
X6.7219Y-2.4353
X6.8866Y-1.6801
X6.8866Y-1.9801
X6.8866Y-2.1273
X6.8866Y-2.4273
X7.0866Y-1.6801
X7.0866Y-1.9801
X7.0866Y-2.1273
X7.0866Y-2.4273
X7.2866Y-1.6801
X7.2866Y-1.9801
X7.2866Y-2.1273
X7.2866Y-2.4273
X7.5866Y-1.6801
X7.5866Y-1.9801
X7.5866Y-2.1273
X7.5866Y-2.4273
X8.0212Y-2.7418
X8.0212Y-3.0418
X8.0212Y-3.2418
X8.0212Y-3.4418
X8.3212Y-2.7418
X8.3212Y-3.0418
X8.3212Y-3.2418
X8.3212Y-3.4418
T3
X7.8543Y-1.6817
X7.8543Y-1.7317
X7.8543Y-1.7817
X7.8543Y-1.9096
X7.8543Y-1.9596
X7.8543Y-2.0096
X7.8543Y-2.1376
X7.8543Y-2.1876
X7.8543Y-2.2376
T4
X8.9709Y-1.6493
X8.9709Y-1.7493
X8.9709Y-1.8493
X8.9709Y-1.9493
X9.0709Y-1.6993
X9.0709Y-1.7993
X9.0709Y-1.8993
X9.0709Y-1.9993
T5
X5.2437Y-3.6614
X5.5437Y-3.6614
X6.4839Y-3.6811
X6.7839Y-3.6811
X7.4681Y-3.6614
X7.7681Y-3.6614
X8.0193Y-1.6652
X8.0193Y-1.7833
X8.0193Y-1.9014
X8.0193Y-2.0195
X8.0193Y-2.177
X8.0193Y-2.2951
X8.0193Y-2.4803
X8.3193Y-1.6652
X8.3193Y-1.7833
X8.3193Y-1.9014
X8.3193Y-2.0195
X8.3193Y-2.177
X8.3193Y-2.2951
X8.3193Y-2.4803
T6
X4.9892Y-3.6614
X5.0892Y-3.6614
X6.1506Y-3.6811
X6.2506Y-3.6811
X7.2425Y-3.6614
X7.3425Y-3.6614
X7.9134Y-3.6811
X8.0134Y-3.6811
X8.2087Y-3.6811
X8.3087Y-3.6811
T7
X4.8622Y-1.5882
X4.8622Y-1.6882
X4.8622Y-1.7882
X4.8622Y-1.8882
X4.8622Y-1.9882
X4.8622Y-2.0882
X4.8622Y-2.1882
X4.8622Y-2.2882
X8.6614Y-1.8747
X8.6614Y-2.0125
T8
X8.522Y-1.6317
X8.622Y-1.6317
X8.722Y-1.6317
T9
X5.1196Y-2.7953
X5.1196Y-2.9921
X5.1196Y-3.189
X5.1196Y-3.3858
X5.533Y-2.7953
X5.533Y-2.9921
X5.533Y-3.189
X5.533Y-3.3858
X6.2756Y-2.7953
X6.2756Y-2.9921
X6.2756Y-3.189
X6.2756Y-3.3858
X6.6944Y-2.7953
X6.6944Y-2.9921
X6.6944Y-3.189
X6.6944Y-3.3858
X7.3637Y-2.7953
X7.3637Y-2.9921
X7.3637Y-3.189
X7.3637Y-3.3858
X7.7574Y-2.7953
X7.7574Y-2.9921
X7.7574Y-3.189
X7.7574Y-3.3858
T10
X8.7033Y-3.1254
X8.7033Y-3.7644
X8.723Y-2.2593
X8.723Y-2.8982
X8.9533Y-3.1254
X8.9533Y-3.7644
X8.973Y-2.2593
X8.973Y-2.8982
X9.2033Y-3.1254
X9.2033Y-3.7644
X9.223Y-2.2593
X9.223Y-2.8982
T0
M30
