%TF.GenerationSoftware,KiCad,Pcbnew,7.0.9*%
%TF.CreationDate,2024-06-30T00:15:25-04:00*%
%TF.ProjectId,Loop Board 3 Jackless Input,4c6f6f70-2042-46f6-9172-642033204a61,rev?*%
%TF.SameCoordinates,Original*%
%TF.FileFunction,Copper,L2,Bot*%
%TF.FilePolarity,Positive*%
%FSLAX46Y46*%
G04 Gerber Fmt 4.6, Leading zero omitted, Abs format (unit mm)*
G04 Created by KiCad (PCBNEW 7.0.9) date 2024-06-30 00:15:25*
%MOMM*%
%LPD*%
G01*
G04 APERTURE LIST*
%TA.AperFunction,ComponentPad*%
%ADD10R,1.400000X1.400000*%
%TD*%
%TA.AperFunction,ComponentPad*%
%ADD11C,1.400000*%
%TD*%
%TA.AperFunction,ComponentPad*%
%ADD12R,1.700000X1.700000*%
%TD*%
%TA.AperFunction,ComponentPad*%
%ADD13O,1.700000X1.700000*%
%TD*%
%TA.AperFunction,ComponentPad*%
%ADD14R,1.500000X1.050000*%
%TD*%
%TA.AperFunction,ComponentPad*%
%ADD15O,1.500000X1.050000*%
%TD*%
%TA.AperFunction,ComponentPad*%
%ADD16R,1.950000X1.950000*%
%TD*%
%TA.AperFunction,ComponentPad*%
%ADD17C,1.950000*%
%TD*%
%TA.AperFunction,ComponentPad*%
%ADD18R,1.500000X1.500000*%
%TD*%
%TA.AperFunction,ComponentPad*%
%ADD19C,1.500000*%
%TD*%
%TA.AperFunction,ComponentPad*%
%ADD20R,1.800000X1.800000*%
%TD*%
%TA.AperFunction,ComponentPad*%
%ADD21C,1.800000*%
%TD*%
%TA.AperFunction,ComponentPad*%
%ADD22C,1.600000*%
%TD*%
%TA.AperFunction,ComponentPad*%
%ADD23O,1.600000X1.600000*%
%TD*%
%TA.AperFunction,ComponentPad*%
%ADD24C,3.000000*%
%TD*%
%TA.AperFunction,ComponentPad*%
%ADD25R,1.905000X2.000000*%
%TD*%
%TA.AperFunction,ComponentPad*%
%ADD26O,1.905000X2.000000*%
%TD*%
%TA.AperFunction,ComponentPad*%
%ADD27R,2.000000X2.000000*%
%TD*%
%TA.AperFunction,ComponentPad*%
%ADD28C,2.000000*%
%TD*%
%TA.AperFunction,ViaPad*%
%ADD29C,0.800000*%
%TD*%
%TA.AperFunction,Conductor*%
%ADD30C,0.500000*%
%TD*%
%TA.AperFunction,Conductor*%
%ADD31C,0.250000*%
%TD*%
G04 APERTURE END LIST*
D10*
%TO.P,Right3,1*%
%TO.N,/5V*%
X148380000Y-42975000D03*
D11*
%TO.P,Right3,4*%
%TO.N,/R_out*%
X140760000Y-42975000D03*
%TO.P,Right3,6*%
%TO.N,Net-(Right3-Pad11)*%
X135680000Y-42975000D03*
%TO.P,Right3,8*%
%TO.N,/R_Return3*%
X130600000Y-42975000D03*
%TO.P,Right3,9*%
%TO.N,/R_send3*%
X130600000Y-50595000D03*
%TO.P,Right3,11*%
%TO.N,Net-(Right3-Pad11)*%
X135680000Y-50595000D03*
%TO.P,Right3,13*%
%TO.N,Net-(Right2-Pad4)*%
X140760000Y-50595000D03*
%TO.P,Right3,16*%
%TO.N,Net-(QL3-D)*%
X148380000Y-50595000D03*
%TD*%
D12*
%TO.P,J2,1,Pin_1*%
%TO.N,/9V*%
X123500000Y-40340000D03*
D13*
%TO.P,J2,2,Pin_2*%
%TO.N,/Ctrl_GND*%
X123500000Y-42880000D03*
%TO.P,J2,3,Pin_3*%
%TO.N,/Control4*%
X123500000Y-45420000D03*
%TO.P,J2,4,Pin_4*%
%TO.N,/Control5*%
X123500000Y-47960000D03*
%TO.P,J2,5,Pin_5*%
%TO.N,/Control6*%
X123500000Y-50500000D03*
%TO.P,J2,6,Pin_6*%
%TO.N,/R_out*%
X123500000Y-53040000D03*
%TO.P,J2,7,Pin_7*%
%TO.N,/L_out*%
X123500000Y-55580000D03*
%TO.P,J2,8,Pin_8*%
%TO.N,/Signal_Gnd*%
X123500000Y-58120000D03*
%TD*%
D14*
%TO.P,QL3,1,S*%
%TO.N,/Ctrl_GND*%
X199500000Y-56835000D03*
D15*
%TO.P,QL3,2,G*%
%TO.N,Net-(QL3-G)*%
X199500000Y-55565000D03*
%TO.P,QL3,3,D*%
%TO.N,Net-(QL3-D)*%
X199500000Y-54295000D03*
%TD*%
D16*
%TO.P,Return2,1,Pin_1*%
%TO.N,/Signal_Gnd*%
X159400000Y-86000000D03*
D17*
%TO.P,Return2,2,Pin_2*%
%TO.N,/R_Return2*%
X159400000Y-81000000D03*
%TO.P,Return2,3,Pin_3*%
%TO.N,/Signal_Gnd*%
X159400000Y-76000000D03*
%TO.P,Return2,4,Pin_4*%
%TO.N,/L_Return2*%
X159400000Y-71000000D03*
%TD*%
D18*
%TO.P,J1,1*%
%TO.N,/9V*%
X230400000Y-50782500D03*
D19*
%TO.P,J1,2*%
%TO.N,/Control1*%
X227860000Y-49512500D03*
%TO.P,J1,3*%
%TO.N,/Ctrl_GND*%
X230400000Y-48242500D03*
%TO.P,J1,4*%
%TO.N,/Control2*%
X227860000Y-46972500D03*
%TO.P,J1,5*%
%TO.N,/Control3*%
X230400000Y-45702500D03*
%TO.P,J1,6*%
%TO.N,/Control4*%
X227860000Y-44432500D03*
%TO.P,J1,7*%
%TO.N,/Control5*%
X230400000Y-43162500D03*
%TO.P,J1,8*%
%TO.N,/Control6*%
X227860000Y-41892500D03*
%TD*%
D20*
%TO.P,D2,1,K*%
%TO.N,/Ctrl_GND*%
X156225000Y-93500000D03*
D21*
%TO.P,D2,2,A*%
%TO.N,Net-(D2-A)*%
X158765000Y-93500000D03*
%TD*%
D22*
%TO.P,LeftPD2,1*%
%TO.N,Net-(QL2-G)*%
X203690000Y-48295000D03*
D23*
%TO.P,LeftPD2,2*%
%TO.N,/Ctrl_GND*%
X211310000Y-48295000D03*
%TD*%
D16*
%TO.P,Send3,1,Pin_1*%
%TO.N,/Signal_Gnd*%
X140537500Y-86000000D03*
D17*
%TO.P,Send3,2,Pin_2*%
%TO.N,/R_send3*%
X140537500Y-81000000D03*
%TO.P,Send3,3,Pin_3*%
%TO.N,/Signal_Gnd*%
X140537500Y-76000000D03*
%TO.P,Send3,4,Pin_4*%
%TO.N,/L_Send3*%
X140537500Y-71000000D03*
%TD*%
D24*
%TO.P,R1,R*%
%TO.N,unconnected-(R1-PadR)*%
X227915000Y-57385000D03*
%TO.P,R1,RN*%
%TO.N,unconnected-(R1-PadRN)*%
X227915000Y-73615000D03*
%TO.P,R1,S*%
%TO.N,/Signal_Gnd*%
X234265000Y-57385000D03*
%TO.P,R1,SN*%
%TO.N,unconnected-(R1-PadSN)*%
X234265000Y-73615000D03*
%TO.P,R1,T*%
%TO.N,/R_in*%
X221565000Y-57385000D03*
%TO.P,R1,TN*%
%TO.N,Net-(L/Mono1-PadR)*%
X221565000Y-73615000D03*
%TD*%
D10*
%TO.P,Left/Mono3,1*%
%TO.N,/5V*%
X148380000Y-53975000D03*
D11*
%TO.P,Left/Mono3,4*%
%TO.N,/L_out*%
X140760000Y-53975000D03*
%TO.P,Left/Mono3,6*%
%TO.N,Net-(Left/Mono3-Pad11)*%
X135680000Y-53975000D03*
%TO.P,Left/Mono3,8*%
%TO.N,/L_Return3*%
X130600000Y-53975000D03*
%TO.P,Left/Mono3,9*%
%TO.N,/L_Send3*%
X130600000Y-61595000D03*
%TO.P,Left/Mono3,11*%
%TO.N,Net-(Left/Mono3-Pad11)*%
X135680000Y-61595000D03*
%TO.P,Left/Mono3,13*%
%TO.N,Net-(Left/Mono2-Pad4)*%
X140760000Y-61595000D03*
%TO.P,Left/Mono3,16*%
%TO.N,Net-(QL3-D)*%
X148380000Y-61595000D03*
%TD*%
D25*
%TO.P,U1,1,IN*%
%TO.N,/9V*%
X216460000Y-41445000D03*
D26*
%TO.P,U1,2,GND*%
%TO.N,/Ctrl_GND*%
X219000000Y-41445000D03*
%TO.P,U1,3,OUT*%
%TO.N,/5V*%
X221540000Y-41445000D03*
%TD*%
D22*
%TO.P,LeftPD3,1*%
%TO.N,Net-(QL3-G)*%
X203690000Y-55295000D03*
D23*
%TO.P,LeftPD3,2*%
%TO.N,/Ctrl_GND*%
X211310000Y-55295000D03*
%TD*%
D22*
%TO.P,RLed1,1*%
%TO.N,/Control1*%
X197310000Y-93000000D03*
D23*
%TO.P,RLed1,2*%
%TO.N,Net-(D1-A)*%
X189690000Y-93000000D03*
%TD*%
D20*
%TO.P,D4,1,K*%
%TO.N,Net-(D4-K)*%
X201000000Y-93500000D03*
D21*
%TO.P,D4,2,A*%
%TO.N,Net-(D4-A)*%
X203540000Y-93500000D03*
%TD*%
D14*
%TO.P,QL2,1,S*%
%TO.N,/Ctrl_GND*%
X199500000Y-51045000D03*
D15*
%TO.P,QL2,2,G*%
%TO.N,Net-(QL2-G)*%
X199500000Y-49775000D03*
%TO.P,QL2,3,D*%
%TO.N,Net-(QL2-D)*%
X199500000Y-48505000D03*
%TD*%
D22*
%TO.P,LGate3,1*%
%TO.N,/Control3*%
X211310000Y-58295000D03*
D23*
%TO.P,LGate3,2*%
%TO.N,Net-(QL3-G)*%
X203690000Y-58295000D03*
%TD*%
D16*
%TO.P,Send2,1,Pin_1*%
%TO.N,/Signal_Gnd*%
X170037500Y-86000000D03*
D17*
%TO.P,Send2,2,Pin_2*%
%TO.N,/R_send2*%
X170037500Y-81000000D03*
%TO.P,Send2,3,Pin_3*%
%TO.N,/Signal_Gnd*%
X170037500Y-76000000D03*
%TO.P,Send2,4,Pin_4*%
%TO.N,/L_Send2*%
X170037500Y-71000000D03*
%TD*%
D10*
%TO.P,Left/Mono1,1*%
%TO.N,/5V*%
X192700000Y-54032500D03*
D11*
%TO.P,Left/Mono1,4*%
%TO.N,Net-(InputRelay1-Pad4)*%
X185080000Y-54032500D03*
%TO.P,Left/Mono1,6*%
%TO.N,Net-(Left/Mono1-Pad11)*%
X180000000Y-54032500D03*
%TO.P,Left/Mono1,8*%
%TO.N,/L_Return1*%
X174920000Y-54032500D03*
%TO.P,Left/Mono1,9*%
%TO.N,/L_Send1*%
X174920000Y-61652500D03*
%TO.P,Left/Mono1,11*%
%TO.N,Net-(Left/Mono1-Pad11)*%
X180000000Y-61652500D03*
%TO.P,Left/Mono1,13*%
%TO.N,/L_in*%
X185080000Y-61652500D03*
%TO.P,Left/Mono1,16*%
%TO.N,Net-(QL1-D)*%
X192700000Y-61652500D03*
%TD*%
D14*
%TO.P,QL1,1,S*%
%TO.N,/Ctrl_GND*%
X199500000Y-45255000D03*
D15*
%TO.P,QL1,2,G*%
%TO.N,Net-(QL1-G)*%
X199500000Y-43985000D03*
%TO.P,QL1,3,D*%
%TO.N,Net-(QL1-D)*%
X199500000Y-42715000D03*
%TD*%
D24*
%TO.P,L/Mono1,R*%
%TO.N,Net-(L/Mono1-PadR)*%
X227415000Y-79385000D03*
%TO.P,L/Mono1,RN*%
%TO.N,Net-(L/Mono1-PadRN)*%
X227415000Y-95615000D03*
%TO.P,L/Mono1,S*%
%TO.N,/Signal_Gnd*%
X233765000Y-79385000D03*
%TO.P,L/Mono1,SN*%
%TO.N,Net-(L/Mono1-PadRN)*%
X233765000Y-95615000D03*
%TO.P,L/Mono1,T*%
%TO.N,/L_in*%
X221065000Y-79385000D03*
%TO.P,L/Mono1,TN*%
%TO.N,Net-(L/Mono1-PadRN)*%
X221065000Y-95615000D03*
%TD*%
D10*
%TO.P,Right1,1*%
%TO.N,/5V*%
X192700000Y-42675000D03*
D11*
%TO.P,Right1,4*%
%TO.N,Net-(Right1-Pad4)*%
X185080000Y-42675000D03*
%TO.P,Right1,6*%
%TO.N,Net-(Right1-Pad11)*%
X180000000Y-42675000D03*
%TO.P,Right1,8*%
%TO.N,/R_Return1*%
X174920000Y-42675000D03*
%TO.P,Right1,9*%
%TO.N,/R_send1*%
X174920000Y-50295000D03*
%TO.P,Right1,11*%
%TO.N,Net-(Right1-Pad11)*%
X180000000Y-50295000D03*
%TO.P,Right1,13*%
%TO.N,/R_in*%
X185080000Y-50295000D03*
%TO.P,Right1,16*%
%TO.N,Net-(QL1-D)*%
X192700000Y-50295000D03*
%TD*%
D16*
%TO.P,Return3,1,Pin_1*%
%TO.N,/Signal_Gnd*%
X130037500Y-86000000D03*
D17*
%TO.P,Return3,2,Pin_2*%
%TO.N,/R_Return3*%
X130037500Y-81000000D03*
%TO.P,Return3,3,Pin_3*%
%TO.N,/Signal_Gnd*%
X130037500Y-76000000D03*
%TO.P,Return3,4,Pin_4*%
%TO.N,/L_Return3*%
X130037500Y-71000000D03*
%TD*%
D10*
%TO.P,InputRelay1,1*%
%TO.N,/5V*%
X203737500Y-69642500D03*
D11*
%TO.P,InputRelay1,4*%
%TO.N,Net-(InputRelay1-Pad4)*%
X203737500Y-77262500D03*
%TO.P,InputRelay1,6*%
%TO.N,/L_in*%
X203737500Y-82342500D03*
%TO.P,InputRelay1,8*%
%TO.N,/R_in*%
X203737500Y-87422500D03*
%TO.P,InputRelay1,9*%
%TO.N,Net-(D5-A)*%
X211357500Y-87422500D03*
%TO.P,InputRelay1,11*%
%TO.N,Net-(D4-A)*%
X211357500Y-82342500D03*
%TO.P,InputRelay1,13*%
%TO.N,/5V*%
X211357500Y-77262500D03*
%TO.P,InputRelay1,16*%
%TO.N,Net-(QL1-D)*%
X211357500Y-69642500D03*
%TD*%
D22*
%TO.P,LGate2,1*%
%TO.N,/Control2*%
X211310000Y-51295000D03*
D23*
%TO.P,LGate2,2*%
%TO.N,Net-(QL2-G)*%
X203690000Y-51295000D03*
%TD*%
D22*
%TO.P,LGate1,1*%
%TO.N,/Control1*%
X211310000Y-45295000D03*
D23*
%TO.P,LGate1,2*%
%TO.N,Net-(QL1-G)*%
X203690000Y-45295000D03*
%TD*%
D20*
%TO.P,D3,1,K*%
%TO.N,/Ctrl_GND*%
X126725000Y-93000000D03*
D21*
%TO.P,D3,2,A*%
%TO.N,Net-(D3-A)*%
X129265000Y-93000000D03*
%TD*%
D16*
%TO.P,Return1,1,Pin_1*%
%TO.N,/Signal_Gnd*%
X187037500Y-86000000D03*
D17*
%TO.P,Return1,2,Pin_2*%
%TO.N,/R_Return1*%
X187037500Y-81000000D03*
%TO.P,Return1,3,Pin_3*%
%TO.N,/Signal_Gnd*%
X187037500Y-76000000D03*
%TO.P,Return1,4,Pin_4*%
%TO.N,/L_Return1*%
X187037500Y-71000000D03*
%TD*%
D16*
%TO.P,Send1,1,Pin_1*%
%TO.N,/Signal_Gnd*%
X197037500Y-86000000D03*
D17*
%TO.P,Send1,2,Pin_2*%
%TO.N,/R_send1*%
X197037500Y-81000000D03*
%TO.P,Send1,3,Pin_3*%
%TO.N,/Signal_Gnd*%
X197037500Y-76000000D03*
%TO.P,Send1,4,Pin_4*%
%TO.N,/L_Send1*%
X197037500Y-71000000D03*
%TD*%
D20*
%TO.P,D1,1,K*%
%TO.N,/Ctrl_GND*%
X183960000Y-93000000D03*
D21*
%TO.P,D1,2,A*%
%TO.N,Net-(D1-A)*%
X186500000Y-93000000D03*
%TD*%
D27*
%TO.P,C1,1*%
%TO.N,/9V*%
X220000000Y-51117677D03*
D28*
%TO.P,C1,2*%
%TO.N,/Ctrl_GND*%
X220000000Y-47617677D03*
%TD*%
D22*
%TO.P,LeftPD1,1*%
%TO.N,Net-(QL1-G)*%
X203690000Y-42295000D03*
D23*
%TO.P,LeftPD1,2*%
%TO.N,/Ctrl_GND*%
X211310000Y-42295000D03*
%TD*%
D10*
%TO.P,Left/Mono2,1*%
%TO.N,/5V*%
X170737500Y-54237500D03*
D11*
%TO.P,Left/Mono2,4*%
%TO.N,Net-(Left/Mono2-Pad4)*%
X163117500Y-54237500D03*
%TO.P,Left/Mono2,6*%
%TO.N,Net-(Left/Mono2-Pad11)*%
X158037500Y-54237500D03*
%TO.P,Left/Mono2,8*%
%TO.N,/L_Return2*%
X152957500Y-54237500D03*
%TO.P,Left/Mono2,9*%
%TO.N,/L_Send2*%
X152957500Y-61857500D03*
%TO.P,Left/Mono2,11*%
%TO.N,Net-(Left/Mono2-Pad11)*%
X158037500Y-61857500D03*
%TO.P,Left/Mono2,13*%
%TO.N,Net-(InputRelay1-Pad4)*%
X163117500Y-61857500D03*
%TO.P,Left/Mono2,16*%
%TO.N,Net-(QL2-D)*%
X170737500Y-61857500D03*
%TD*%
D20*
%TO.P,D5,1,K*%
%TO.N,Net-(D4-K)*%
X208500000Y-93500000D03*
D21*
%TO.P,D5,2,A*%
%TO.N,Net-(D5-A)*%
X211040000Y-93500000D03*
%TD*%
D10*
%TO.P,Right2,1*%
%TO.N,/5V*%
X170737500Y-42737500D03*
D11*
%TO.P,Right2,4*%
%TO.N,Net-(Right2-Pad4)*%
X163117500Y-42737500D03*
%TO.P,Right2,6*%
%TO.N,Net-(Right2-Pad11)*%
X158037500Y-42737500D03*
%TO.P,Right2,8*%
%TO.N,/R_Return2*%
X152957500Y-42737500D03*
%TO.P,Right2,9*%
%TO.N,/R_send2*%
X152957500Y-50357500D03*
%TO.P,Right2,11*%
%TO.N,Net-(Right2-Pad11)*%
X158037500Y-50357500D03*
%TO.P,Right2,13*%
%TO.N,Net-(Right1-Pad4)*%
X163117500Y-50357500D03*
%TO.P,Right2,16*%
%TO.N,Net-(QL2-D)*%
X170737500Y-50357500D03*
%TD*%
D22*
%TO.P,RLed3,1*%
%TO.N,/Control3*%
X140810000Y-93000000D03*
D23*
%TO.P,RLed3,2*%
%TO.N,Net-(D3-A)*%
X133190000Y-93000000D03*
%TD*%
D22*
%TO.P,RLed4,1*%
%TO.N,Net-(D4-K)*%
X203690000Y-63000000D03*
D23*
%TO.P,RLed4,2*%
%TO.N,/Ctrl_GND*%
X211310000Y-63000000D03*
%TD*%
D22*
%TO.P,RLed2,1*%
%TO.N,/Control2*%
X172310000Y-93500000D03*
D23*
%TO.P,RLed2,2*%
%TO.N,Net-(D2-A)*%
X164690000Y-93500000D03*
%TD*%
D29*
%TO.N,/R_in*%
X188500000Y-54500000D03*
%TO.N,Net-(D4-K)*%
X200500000Y-87000000D03*
%TO.N,/5V*%
X169000000Y-51000000D03*
X205500000Y-65000000D03*
%TO.N,/Control2*%
X239000000Y-45724500D03*
%TO.N,/Control3*%
X240000000Y-45000000D03*
%TO.N,/Control5*%
X224487701Y-39512299D03*
%TO.N,/Control6*%
X225000000Y-41000000D03*
%TO.N,Net-(QL2-D)*%
X178000000Y-51000000D03*
%TO.N,Net-(QL3-D)*%
X177987701Y-52012299D03*
%TD*%
D30*
%TO.N,/L_Return2*%
X151807500Y-64207500D02*
X151807500Y-55387500D01*
X151807500Y-55387500D02*
X152957500Y-54237500D01*
X158600000Y-71000000D02*
X151807500Y-64207500D01*
X159500000Y-71000000D02*
X158600000Y-71000000D01*
%TO.N,/9V*%
X216460000Y-41445000D02*
X216460000Y-47577677D01*
X213515000Y-38500000D02*
X216460000Y-41445000D01*
X216460000Y-47577677D02*
X220000000Y-51117677D01*
X223617677Y-51117677D02*
X220000000Y-51117677D01*
X123500000Y-40340000D02*
X123500000Y-40000000D01*
X228000000Y-52000000D02*
X224500000Y-52000000D01*
X125000000Y-38500000D02*
X213515000Y-38500000D01*
X229217500Y-50782500D02*
X228000000Y-52000000D01*
X230400000Y-50782500D02*
X229217500Y-50782500D01*
X224500000Y-52000000D02*
X223617677Y-51117677D01*
X123500000Y-40000000D02*
X125000000Y-38500000D01*
%TO.N,/Ctrl_GND*%
X159225000Y-96500000D02*
X130225000Y-96500000D01*
D31*
X201000000Y-40500000D02*
X200500000Y-40000000D01*
D30*
X232500000Y-50342500D02*
X232500000Y-51000000D01*
X213000000Y-43985000D02*
X213000000Y-45500000D01*
X230000000Y-53500000D02*
X215000000Y-53500000D01*
X238742500Y-48242500D02*
X239500000Y-49000000D01*
X239500000Y-49000000D02*
X239500000Y-85000000D01*
X239500000Y-85000000D02*
X232000000Y-92500000D01*
D31*
X199500000Y-56835000D02*
X200165000Y-56835000D01*
D30*
X183960000Y-94960000D02*
X183960000Y-93000000D01*
X214500000Y-96500000D02*
X186000000Y-96500000D01*
X123500000Y-42880000D02*
X125000000Y-41380000D01*
X130225000Y-96500000D02*
X126725000Y-93000000D01*
X211310000Y-40310000D02*
X211310000Y-42295000D01*
X230400000Y-48242500D02*
X220624823Y-48242500D01*
X220624823Y-48242500D02*
X220000000Y-47617677D01*
X215000000Y-53500000D02*
X213205000Y-55295000D01*
X186000000Y-96500000D02*
X185500000Y-96500000D01*
X232000000Y-92500000D02*
X218500000Y-92500000D01*
X220000000Y-47617677D02*
X220000000Y-42445000D01*
X211310000Y-55295000D02*
X212560000Y-56545000D01*
D31*
X201000000Y-52545000D02*
X199500000Y-51045000D01*
D30*
X211000000Y-40000000D02*
X211310000Y-40310000D01*
X212560000Y-56545000D02*
X212560000Y-61750000D01*
X230400000Y-48242500D02*
X238742500Y-48242500D01*
X125000000Y-40000000D02*
X198000000Y-40000000D01*
X213000000Y-45500000D02*
X213000000Y-46605000D01*
X213205000Y-55295000D02*
X211310000Y-55295000D01*
X212560000Y-61750000D02*
X211310000Y-63000000D01*
X213000000Y-46605000D02*
X211310000Y-48295000D01*
X159225000Y-96500000D02*
X156225000Y-93500000D01*
D31*
X201000000Y-56000000D02*
X201000000Y-52545000D01*
D30*
X211310000Y-42295000D02*
X213000000Y-43985000D01*
X213000000Y-53605000D02*
X213000000Y-45500000D01*
X186000000Y-96500000D02*
X159225000Y-96500000D01*
X200500000Y-40000000D02*
X211000000Y-40000000D01*
D31*
X201000000Y-46755000D02*
X199500000Y-45255000D01*
X200165000Y-56835000D02*
X201000000Y-56000000D01*
D30*
X220000000Y-42445000D02*
X219000000Y-41445000D01*
D31*
X201000000Y-46755000D02*
X201000000Y-40500000D01*
D30*
X211310000Y-55295000D02*
X213000000Y-53605000D01*
X198000000Y-40000000D02*
X200500000Y-40000000D01*
D31*
X201000000Y-52545000D02*
X201000000Y-46755000D01*
D30*
X185500000Y-96500000D02*
X183960000Y-94960000D01*
X232500000Y-51000000D02*
X230000000Y-53500000D01*
X125000000Y-41380000D02*
X125000000Y-40000000D01*
X218500000Y-92500000D02*
X214500000Y-96500000D01*
X230400000Y-48242500D02*
X232500000Y-50342500D01*
%TO.N,/R_in*%
X202500000Y-86185000D02*
X202500000Y-81000000D01*
X188500000Y-54500000D02*
X188500000Y-53715000D01*
X188500000Y-53715000D02*
X185080000Y-50295000D01*
X202500000Y-81000000D02*
X204500000Y-81000000D01*
X204500000Y-81000000D02*
X221565000Y-63935000D01*
X221565000Y-63935000D02*
X221565000Y-57385000D01*
X203737500Y-87422500D02*
X202500000Y-86185000D01*
%TO.N,/L_in*%
X206157500Y-82342500D02*
X203737500Y-82342500D01*
X206500000Y-81000000D02*
X206500000Y-82000000D01*
X221065000Y-79385000D02*
X208115000Y-79385000D01*
X208115000Y-79385000D02*
X206500000Y-81000000D01*
X206500000Y-82000000D02*
X206157500Y-82342500D01*
%TO.N,/Signal_Gnd*%
X187037500Y-76000000D02*
X197037500Y-76000000D01*
X140537500Y-76000000D02*
X130037500Y-76000000D01*
X235885000Y-57385000D02*
X234265000Y-57385000D01*
X197037500Y-86000000D02*
X187037500Y-86000000D01*
X200500000Y-89500000D02*
X223650000Y-89500000D01*
X164500000Y-76000000D02*
X170037500Y-76000000D01*
X130037500Y-86000000D02*
X140537500Y-86000000D01*
X123500000Y-74500000D02*
X125000000Y-76000000D01*
X197037500Y-86037500D02*
X200500000Y-89500000D01*
X159500000Y-76000000D02*
X164500000Y-76000000D01*
X123500000Y-58120000D02*
X123500000Y-74500000D01*
X159500000Y-76000000D02*
X140537500Y-76000000D01*
X164500000Y-86000000D02*
X170037500Y-86000000D01*
X124000000Y-86000000D02*
X130037500Y-86000000D01*
X170037500Y-86000000D02*
X187037500Y-86000000D01*
X140537500Y-86000000D02*
X159500000Y-86000000D01*
X223650000Y-89500000D02*
X233765000Y-79385000D01*
X159500000Y-86000000D02*
X164500000Y-86000000D01*
X237500000Y-75650000D02*
X237500000Y-59000000D01*
X233765000Y-79385000D02*
X237500000Y-75650000D01*
X187037500Y-76000000D02*
X170037500Y-76000000D01*
X237500000Y-59000000D02*
X235885000Y-57385000D01*
X197037500Y-86000000D02*
X197037500Y-86037500D01*
X125000000Y-76000000D02*
X130037500Y-76000000D01*
X123500000Y-74500000D02*
X123500000Y-85500000D01*
X123500000Y-85500000D02*
X124000000Y-86000000D01*
%TO.N,/R_out*%
X137000000Y-52000000D02*
X137000000Y-46735000D01*
X137000000Y-46735000D02*
X140760000Y-42975000D01*
X124540000Y-52000000D02*
X137000000Y-52000000D01*
X123500000Y-53040000D02*
X124540000Y-52000000D01*
D31*
%TO.N,Net-(D4-K)*%
X207000000Y-95000000D02*
X208500000Y-93500000D01*
X200500000Y-80500000D02*
X200500000Y-87000000D01*
X200500000Y-66190000D02*
X200500000Y-80500000D01*
X203690000Y-63000000D02*
X200500000Y-66190000D01*
X201000000Y-93500000D02*
X202500000Y-95000000D01*
X202500000Y-95000000D02*
X207000000Y-95000000D01*
D30*
%TO.N,/5V*%
X169000000Y-50000000D02*
X170737500Y-48262500D01*
X206000000Y-68000000D02*
X204357500Y-69642500D01*
X191500000Y-46500000D02*
X191500000Y-53000000D01*
X205500000Y-65000000D02*
X206000000Y-65500000D01*
X204357500Y-69642500D02*
X203737500Y-69642500D01*
X206000000Y-65500000D02*
X206000000Y-68000000D01*
X191500000Y-53000000D02*
X191667500Y-53000000D01*
X169000000Y-51000000D02*
X169000000Y-50000000D01*
X192700000Y-45300000D02*
X191500000Y-46500000D01*
X170737500Y-48262500D02*
X170737500Y-42737500D01*
X192700000Y-42675000D02*
X192700000Y-45300000D01*
X191667500Y-53000000D02*
X192700000Y-54032500D01*
%TO.N,/L_out*%
X123500000Y-55580000D02*
X126255000Y-52825000D01*
X139610000Y-52825000D02*
X140760000Y-53975000D01*
X126255000Y-52825000D02*
X139610000Y-52825000D01*
D31*
%TO.N,Net-(QL1-D)*%
X199275000Y-42715000D02*
X197490000Y-44500000D01*
X193725000Y-60627500D02*
X194097500Y-61000000D01*
X192700000Y-50295000D02*
X193725000Y-51320000D01*
X195000000Y-44500000D02*
X192700000Y-46800000D01*
X209500000Y-67785000D02*
X211357500Y-69642500D01*
X208000000Y-61000000D02*
X209500000Y-62500000D01*
X209500000Y-62500000D02*
X209500000Y-67785000D01*
X193725000Y-60627500D02*
X192700000Y-61652500D01*
X193725000Y-51320000D02*
X193725000Y-60627500D01*
X192700000Y-46800000D02*
X192700000Y-50295000D01*
X199500000Y-42715000D02*
X199275000Y-42715000D01*
X197490000Y-44500000D02*
X195000000Y-44500000D01*
X194097500Y-61000000D02*
X208000000Y-61000000D01*
D30*
%TO.N,Net-(InputRelay1-Pad4)*%
X163117500Y-59382500D02*
X163117500Y-61857500D01*
X169617500Y-52882500D02*
X163117500Y-59382500D01*
X183930000Y-52882500D02*
X169617500Y-52882500D01*
X185080000Y-54032500D02*
X183930000Y-52882500D01*
D31*
%TO.N,/Control2*%
X234524598Y-45500000D02*
X239000000Y-45500000D01*
X233027500Y-46972500D02*
X234500000Y-45500000D01*
X234512299Y-45512299D02*
X234524598Y-45500000D01*
X239000000Y-45500000D02*
X239000000Y-45724500D01*
X234500000Y-45500000D02*
X234512299Y-45512299D01*
X227860000Y-46972500D02*
X233027500Y-46972500D01*
%TO.N,/Control3*%
X232500000Y-45000000D02*
X238500000Y-45000000D01*
X238500000Y-45000000D02*
X239000000Y-45000000D01*
X230400000Y-45702500D02*
X231797500Y-45702500D01*
X239000000Y-45000000D02*
X240000000Y-45000000D01*
X231797500Y-45702500D02*
X232000000Y-45500000D01*
X232000000Y-45500000D02*
X232500000Y-45000000D01*
%TO.N,/Control5*%
X229012299Y-39512299D02*
X230400000Y-40900000D01*
X224487701Y-39512299D02*
X229012299Y-39512299D01*
X230400000Y-40900000D02*
X230400000Y-43162500D01*
%TO.N,/Control6*%
X226967500Y-41000000D02*
X227860000Y-41892500D01*
X225000000Y-41000000D02*
X226967500Y-41000000D01*
D30*
%TO.N,/L_Send1*%
X178267500Y-65000000D02*
X193000000Y-65000000D01*
X197037500Y-69037500D02*
X197037500Y-71000000D01*
X193000000Y-65000000D02*
X197037500Y-69037500D01*
X174920000Y-61652500D02*
X178267500Y-65000000D01*
%TO.N,/L_Return3*%
X129062500Y-70025000D02*
X129062500Y-55512500D01*
X130037500Y-71000000D02*
X129062500Y-70025000D01*
X129062500Y-55512500D02*
X130600000Y-53975000D01*
%TO.N,/L_Send2*%
X156600000Y-65500000D02*
X168500000Y-65500000D01*
X152957500Y-61857500D02*
X156600000Y-65500000D01*
X168500000Y-65500000D02*
X170037500Y-67037500D01*
X170037500Y-67037500D02*
X170037500Y-71000000D01*
%TO.N,/L_Send3*%
X137500000Y-65000000D02*
X140537500Y-68037500D01*
X134005000Y-65000000D02*
X137500000Y-65000000D01*
X140537500Y-68037500D02*
X140537500Y-71000000D01*
X130600000Y-61595000D02*
X134005000Y-65000000D01*
%TO.N,/L_Return1*%
X187037500Y-71000000D02*
X179500000Y-71000000D01*
X173770000Y-55182500D02*
X174920000Y-54032500D01*
X179500000Y-71000000D02*
X173770000Y-65270000D01*
X173770000Y-65270000D02*
X173770000Y-55182500D01*
%TO.N,Net-(Left/Mono2-Pad4)*%
X145175000Y-52825000D02*
X140760000Y-57240000D01*
X163117500Y-54237500D02*
X161705000Y-52825000D01*
X140760000Y-57240000D02*
X140760000Y-61595000D01*
X161705000Y-52825000D02*
X145175000Y-52825000D01*
%TO.N,Net-(Left/Mono2-Pad11)*%
X158037500Y-54237500D02*
X158037500Y-61857500D01*
D31*
%TO.N,Net-(QL2-D)*%
X171700000Y-51320000D02*
X170737500Y-50357500D01*
X177680000Y-51320000D02*
X171700000Y-51320000D01*
X178000000Y-51000000D02*
X177680000Y-51320000D01*
D30*
%TO.N,Net-(Left/Mono3-Pad11)*%
X135680000Y-53975000D02*
X135680000Y-61595000D01*
D31*
%TO.N,Net-(QL3-D)*%
X172000000Y-52000000D02*
X149785000Y-52000000D01*
X172012299Y-52012299D02*
X172000000Y-52000000D01*
X149785000Y-52000000D02*
X148380000Y-50595000D01*
X177987701Y-52012299D02*
X172012299Y-52012299D01*
D30*
%TO.N,Net-(Right1-Pad4)*%
X163117500Y-47882500D02*
X163117500Y-50357500D01*
X185080000Y-42675000D02*
X183930000Y-41525000D01*
X169475000Y-41525000D02*
X163117500Y-47882500D01*
X183930000Y-41525000D02*
X169475000Y-41525000D01*
%TO.N,Net-(Right2-Pad4)*%
X140760000Y-47740000D02*
X140760000Y-50595000D01*
X161967500Y-41587500D02*
X146912500Y-41587500D01*
X146912500Y-41587500D02*
X140760000Y-47740000D01*
X163117500Y-42737500D02*
X161967500Y-41587500D01*
%TO.N,Net-(Right2-Pad11)*%
X158037500Y-42737500D02*
X158037500Y-50357500D01*
%TO.N,Net-(Right3-Pad11)*%
X135680000Y-42975000D02*
X135680000Y-50595000D01*
%TO.N,Net-(L/Mono1-PadR)*%
X221565000Y-73615000D02*
X227335000Y-79385000D01*
X227335000Y-79385000D02*
X227415000Y-79385000D01*
%TO.N,Net-(L/Mono1-PadRN)*%
X227415000Y-95615000D02*
X233765000Y-95615000D01*
X221065000Y-95615000D02*
X227415000Y-95615000D01*
%TD*%
M02*
