%TF.GenerationSoftware,KiCad,Pcbnew,7.0.9*%
%TF.CreationDate,2024-06-30T00:15:25-04:00*%
%TF.ProjectId,Loop Board 3 Jackless Input,4c6f6f70-2042-46f6-9172-642033204a61,rev?*%
%TF.SameCoordinates,Original*%
%TF.FileFunction,Legend,Top*%
%TF.FilePolarity,Positive*%
%FSLAX46Y46*%
G04 Gerber Fmt 4.6, Leading zero omitted, Abs format (unit mm)*
G04 Created by KiCad (PCBNEW 7.0.9) date 2024-06-30 00:15:25*
%MOMM*%
%LPD*%
G01*
G04 APERTURE LIST*
%ADD10C,0.150000*%
%ADD11C,0.120000*%
%ADD12C,0.127000*%
%ADD13C,0.200000*%
G04 APERTURE END LIST*
D10*
X125527255Y-40662295D02*
X125679636Y-40662295D01*
X125679636Y-40662295D02*
X125755826Y-40624200D01*
X125755826Y-40624200D02*
X125793922Y-40586104D01*
X125793922Y-40586104D02*
X125870112Y-40471819D01*
X125870112Y-40471819D02*
X125908207Y-40319438D01*
X125908207Y-40319438D02*
X125908207Y-40014676D01*
X125908207Y-40014676D02*
X125870112Y-39938485D01*
X125870112Y-39938485D02*
X125832017Y-39900390D01*
X125832017Y-39900390D02*
X125755826Y-39862295D01*
X125755826Y-39862295D02*
X125603445Y-39862295D01*
X125603445Y-39862295D02*
X125527255Y-39900390D01*
X125527255Y-39900390D02*
X125489160Y-39938485D01*
X125489160Y-39938485D02*
X125451064Y-40014676D01*
X125451064Y-40014676D02*
X125451064Y-40205152D01*
X125451064Y-40205152D02*
X125489160Y-40281342D01*
X125489160Y-40281342D02*
X125527255Y-40319438D01*
X125527255Y-40319438D02*
X125603445Y-40357533D01*
X125603445Y-40357533D02*
X125755826Y-40357533D01*
X125755826Y-40357533D02*
X125832017Y-40319438D01*
X125832017Y-40319438D02*
X125870112Y-40281342D01*
X125870112Y-40281342D02*
X125908207Y-40205152D01*
X126136779Y-39862295D02*
X126403446Y-40662295D01*
X126403446Y-40662295D02*
X126670112Y-39862295D01*
X125946303Y-43162104D02*
X125908207Y-43200200D01*
X125908207Y-43200200D02*
X125793922Y-43238295D01*
X125793922Y-43238295D02*
X125717731Y-43238295D01*
X125717731Y-43238295D02*
X125603445Y-43200200D01*
X125603445Y-43200200D02*
X125527255Y-43124009D01*
X125527255Y-43124009D02*
X125489160Y-43047819D01*
X125489160Y-43047819D02*
X125451064Y-42895438D01*
X125451064Y-42895438D02*
X125451064Y-42781152D01*
X125451064Y-42781152D02*
X125489160Y-42628771D01*
X125489160Y-42628771D02*
X125527255Y-42552580D01*
X125527255Y-42552580D02*
X125603445Y-42476390D01*
X125603445Y-42476390D02*
X125717731Y-42438295D01*
X125717731Y-42438295D02*
X125793922Y-42438295D01*
X125793922Y-42438295D02*
X125908207Y-42476390D01*
X125908207Y-42476390D02*
X125946303Y-42514485D01*
X126174874Y-42704961D02*
X126479636Y-42704961D01*
X126289160Y-42438295D02*
X126289160Y-43124009D01*
X126289160Y-43124009D02*
X126327255Y-43200200D01*
X126327255Y-43200200D02*
X126403445Y-43238295D01*
X126403445Y-43238295D02*
X126479636Y-43238295D01*
X127165350Y-42476390D02*
X127089160Y-42438295D01*
X127089160Y-42438295D02*
X126974874Y-42438295D01*
X126974874Y-42438295D02*
X126860588Y-42476390D01*
X126860588Y-42476390D02*
X126784398Y-42552580D01*
X126784398Y-42552580D02*
X126746303Y-42628771D01*
X126746303Y-42628771D02*
X126708207Y-42781152D01*
X126708207Y-42781152D02*
X126708207Y-42895438D01*
X126708207Y-42895438D02*
X126746303Y-43047819D01*
X126746303Y-43047819D02*
X126784398Y-43124009D01*
X126784398Y-43124009D02*
X126860588Y-43200200D01*
X126860588Y-43200200D02*
X126974874Y-43238295D01*
X126974874Y-43238295D02*
X127051065Y-43238295D01*
X127051065Y-43238295D02*
X127165350Y-43200200D01*
X127165350Y-43200200D02*
X127203446Y-43162104D01*
X127203446Y-43162104D02*
X127203446Y-42895438D01*
X127203446Y-42895438D02*
X127051065Y-42895438D01*
X127546303Y-42704961D02*
X127546303Y-43238295D01*
X127546303Y-42781152D02*
X127584398Y-42743057D01*
X127584398Y-42743057D02*
X127660588Y-42704961D01*
X127660588Y-42704961D02*
X127774874Y-42704961D01*
X127774874Y-42704961D02*
X127851065Y-42743057D01*
X127851065Y-42743057D02*
X127889160Y-42819247D01*
X127889160Y-42819247D02*
X127889160Y-43238295D01*
X128612970Y-43238295D02*
X128612970Y-42438295D01*
X128612970Y-43200200D02*
X128536779Y-43238295D01*
X128536779Y-43238295D02*
X128384398Y-43238295D01*
X128384398Y-43238295D02*
X128308208Y-43200200D01*
X128308208Y-43200200D02*
X128270113Y-43162104D01*
X128270113Y-43162104D02*
X128232017Y-43085914D01*
X128232017Y-43085914D02*
X128232017Y-42857342D01*
X128232017Y-42857342D02*
X128270113Y-42781152D01*
X128270113Y-42781152D02*
X128308208Y-42743057D01*
X128308208Y-42743057D02*
X128384398Y-42704961D01*
X128384398Y-42704961D02*
X128536779Y-42704961D01*
X128536779Y-42704961D02*
X128612970Y-42743057D01*
X125946303Y-45738104D02*
X125908207Y-45776200D01*
X125908207Y-45776200D02*
X125793922Y-45814295D01*
X125793922Y-45814295D02*
X125717731Y-45814295D01*
X125717731Y-45814295D02*
X125603445Y-45776200D01*
X125603445Y-45776200D02*
X125527255Y-45700009D01*
X125527255Y-45700009D02*
X125489160Y-45623819D01*
X125489160Y-45623819D02*
X125451064Y-45471438D01*
X125451064Y-45471438D02*
X125451064Y-45357152D01*
X125451064Y-45357152D02*
X125489160Y-45204771D01*
X125489160Y-45204771D02*
X125527255Y-45128580D01*
X125527255Y-45128580D02*
X125603445Y-45052390D01*
X125603445Y-45052390D02*
X125717731Y-45014295D01*
X125717731Y-45014295D02*
X125793922Y-45014295D01*
X125793922Y-45014295D02*
X125908207Y-45052390D01*
X125908207Y-45052390D02*
X125946303Y-45090485D01*
X126174874Y-45280961D02*
X126479636Y-45280961D01*
X126289160Y-45014295D02*
X126289160Y-45700009D01*
X126289160Y-45700009D02*
X126327255Y-45776200D01*
X126327255Y-45776200D02*
X126403445Y-45814295D01*
X126403445Y-45814295D02*
X126479636Y-45814295D01*
X126746303Y-45814295D02*
X126746303Y-45280961D01*
X126746303Y-45433342D02*
X126784398Y-45357152D01*
X126784398Y-45357152D02*
X126822493Y-45319057D01*
X126822493Y-45319057D02*
X126898684Y-45280961D01*
X126898684Y-45280961D02*
X126974874Y-45280961D01*
X127355826Y-45814295D02*
X127279636Y-45776200D01*
X127279636Y-45776200D02*
X127241541Y-45700009D01*
X127241541Y-45700009D02*
X127241541Y-45014295D01*
X128003446Y-45280961D02*
X128003446Y-45814295D01*
X127812970Y-44976200D02*
X127622493Y-45547628D01*
X127622493Y-45547628D02*
X128117732Y-45547628D01*
X125946303Y-48314104D02*
X125908207Y-48352200D01*
X125908207Y-48352200D02*
X125793922Y-48390295D01*
X125793922Y-48390295D02*
X125717731Y-48390295D01*
X125717731Y-48390295D02*
X125603445Y-48352200D01*
X125603445Y-48352200D02*
X125527255Y-48276009D01*
X125527255Y-48276009D02*
X125489160Y-48199819D01*
X125489160Y-48199819D02*
X125451064Y-48047438D01*
X125451064Y-48047438D02*
X125451064Y-47933152D01*
X125451064Y-47933152D02*
X125489160Y-47780771D01*
X125489160Y-47780771D02*
X125527255Y-47704580D01*
X125527255Y-47704580D02*
X125603445Y-47628390D01*
X125603445Y-47628390D02*
X125717731Y-47590295D01*
X125717731Y-47590295D02*
X125793922Y-47590295D01*
X125793922Y-47590295D02*
X125908207Y-47628390D01*
X125908207Y-47628390D02*
X125946303Y-47666485D01*
X126174874Y-47856961D02*
X126479636Y-47856961D01*
X126289160Y-47590295D02*
X126289160Y-48276009D01*
X126289160Y-48276009D02*
X126327255Y-48352200D01*
X126327255Y-48352200D02*
X126403445Y-48390295D01*
X126403445Y-48390295D02*
X126479636Y-48390295D01*
X126746303Y-48390295D02*
X126746303Y-47856961D01*
X126746303Y-48009342D02*
X126784398Y-47933152D01*
X126784398Y-47933152D02*
X126822493Y-47895057D01*
X126822493Y-47895057D02*
X126898684Y-47856961D01*
X126898684Y-47856961D02*
X126974874Y-47856961D01*
X127355826Y-48390295D02*
X127279636Y-48352200D01*
X127279636Y-48352200D02*
X127241541Y-48276009D01*
X127241541Y-48276009D02*
X127241541Y-47590295D01*
X128041541Y-47590295D02*
X127660589Y-47590295D01*
X127660589Y-47590295D02*
X127622493Y-47971247D01*
X127622493Y-47971247D02*
X127660589Y-47933152D01*
X127660589Y-47933152D02*
X127736779Y-47895057D01*
X127736779Y-47895057D02*
X127927255Y-47895057D01*
X127927255Y-47895057D02*
X128003446Y-47933152D01*
X128003446Y-47933152D02*
X128041541Y-47971247D01*
X128041541Y-47971247D02*
X128079636Y-48047438D01*
X128079636Y-48047438D02*
X128079636Y-48237914D01*
X128079636Y-48237914D02*
X128041541Y-48314104D01*
X128041541Y-48314104D02*
X128003446Y-48352200D01*
X128003446Y-48352200D02*
X127927255Y-48390295D01*
X127927255Y-48390295D02*
X127736779Y-48390295D01*
X127736779Y-48390295D02*
X127660589Y-48352200D01*
X127660589Y-48352200D02*
X127622493Y-48314104D01*
X125946303Y-50890104D02*
X125908207Y-50928200D01*
X125908207Y-50928200D02*
X125793922Y-50966295D01*
X125793922Y-50966295D02*
X125717731Y-50966295D01*
X125717731Y-50966295D02*
X125603445Y-50928200D01*
X125603445Y-50928200D02*
X125527255Y-50852009D01*
X125527255Y-50852009D02*
X125489160Y-50775819D01*
X125489160Y-50775819D02*
X125451064Y-50623438D01*
X125451064Y-50623438D02*
X125451064Y-50509152D01*
X125451064Y-50509152D02*
X125489160Y-50356771D01*
X125489160Y-50356771D02*
X125527255Y-50280580D01*
X125527255Y-50280580D02*
X125603445Y-50204390D01*
X125603445Y-50204390D02*
X125717731Y-50166295D01*
X125717731Y-50166295D02*
X125793922Y-50166295D01*
X125793922Y-50166295D02*
X125908207Y-50204390D01*
X125908207Y-50204390D02*
X125946303Y-50242485D01*
X126174874Y-50432961D02*
X126479636Y-50432961D01*
X126289160Y-50166295D02*
X126289160Y-50852009D01*
X126289160Y-50852009D02*
X126327255Y-50928200D01*
X126327255Y-50928200D02*
X126403445Y-50966295D01*
X126403445Y-50966295D02*
X126479636Y-50966295D01*
X126746303Y-50966295D02*
X126746303Y-50432961D01*
X126746303Y-50585342D02*
X126784398Y-50509152D01*
X126784398Y-50509152D02*
X126822493Y-50471057D01*
X126822493Y-50471057D02*
X126898684Y-50432961D01*
X126898684Y-50432961D02*
X126974874Y-50432961D01*
X127355826Y-50966295D02*
X127279636Y-50928200D01*
X127279636Y-50928200D02*
X127241541Y-50852009D01*
X127241541Y-50852009D02*
X127241541Y-50166295D01*
X128003446Y-50166295D02*
X127851065Y-50166295D01*
X127851065Y-50166295D02*
X127774874Y-50204390D01*
X127774874Y-50204390D02*
X127736779Y-50242485D01*
X127736779Y-50242485D02*
X127660589Y-50356771D01*
X127660589Y-50356771D02*
X127622493Y-50509152D01*
X127622493Y-50509152D02*
X127622493Y-50813914D01*
X127622493Y-50813914D02*
X127660589Y-50890104D01*
X127660589Y-50890104D02*
X127698684Y-50928200D01*
X127698684Y-50928200D02*
X127774874Y-50966295D01*
X127774874Y-50966295D02*
X127927255Y-50966295D01*
X127927255Y-50966295D02*
X128003446Y-50928200D01*
X128003446Y-50928200D02*
X128041541Y-50890104D01*
X128041541Y-50890104D02*
X128079636Y-50813914D01*
X128079636Y-50813914D02*
X128079636Y-50623438D01*
X128079636Y-50623438D02*
X128041541Y-50547247D01*
X128041541Y-50547247D02*
X128003446Y-50509152D01*
X128003446Y-50509152D02*
X127927255Y-50471057D01*
X127927255Y-50471057D02*
X127774874Y-50471057D01*
X127774874Y-50471057D02*
X127698684Y-50509152D01*
X127698684Y-50509152D02*
X127660589Y-50547247D01*
X127660589Y-50547247D02*
X127622493Y-50623438D01*
X125946303Y-53542295D02*
X125679636Y-53161342D01*
X125489160Y-53542295D02*
X125489160Y-52742295D01*
X125489160Y-52742295D02*
X125793922Y-52742295D01*
X125793922Y-52742295D02*
X125870112Y-52780390D01*
X125870112Y-52780390D02*
X125908207Y-52818485D01*
X125908207Y-52818485D02*
X125946303Y-52894676D01*
X125946303Y-52894676D02*
X125946303Y-53008961D01*
X125946303Y-53008961D02*
X125908207Y-53085152D01*
X125908207Y-53085152D02*
X125870112Y-53123247D01*
X125870112Y-53123247D02*
X125793922Y-53161342D01*
X125793922Y-53161342D02*
X125489160Y-53161342D01*
X125870112Y-56118295D02*
X125489160Y-56118295D01*
X125489160Y-56118295D02*
X125489160Y-55318295D01*
X125451064Y-58656200D02*
X125565350Y-58694295D01*
X125565350Y-58694295D02*
X125755826Y-58694295D01*
X125755826Y-58694295D02*
X125832017Y-58656200D01*
X125832017Y-58656200D02*
X125870112Y-58618104D01*
X125870112Y-58618104D02*
X125908207Y-58541914D01*
X125908207Y-58541914D02*
X125908207Y-58465723D01*
X125908207Y-58465723D02*
X125870112Y-58389533D01*
X125870112Y-58389533D02*
X125832017Y-58351438D01*
X125832017Y-58351438D02*
X125755826Y-58313342D01*
X125755826Y-58313342D02*
X125603445Y-58275247D01*
X125603445Y-58275247D02*
X125527255Y-58237152D01*
X125527255Y-58237152D02*
X125489160Y-58199057D01*
X125489160Y-58199057D02*
X125451064Y-58122866D01*
X125451064Y-58122866D02*
X125451064Y-58046676D01*
X125451064Y-58046676D02*
X125489160Y-57970485D01*
X125489160Y-57970485D02*
X125527255Y-57932390D01*
X125527255Y-57932390D02*
X125603445Y-57894295D01*
X125603445Y-57894295D02*
X125793922Y-57894295D01*
X125793922Y-57894295D02*
X125908207Y-57932390D01*
X126251065Y-58694295D02*
X126251065Y-58160961D01*
X126251065Y-57894295D02*
X126212969Y-57932390D01*
X126212969Y-57932390D02*
X126251065Y-57970485D01*
X126251065Y-57970485D02*
X126289160Y-57932390D01*
X126289160Y-57932390D02*
X126251065Y-57894295D01*
X126251065Y-57894295D02*
X126251065Y-57970485D01*
X126974874Y-58160961D02*
X126974874Y-58808580D01*
X126974874Y-58808580D02*
X126936779Y-58884771D01*
X126936779Y-58884771D02*
X126898683Y-58922866D01*
X126898683Y-58922866D02*
X126822493Y-58960961D01*
X126822493Y-58960961D02*
X126708207Y-58960961D01*
X126708207Y-58960961D02*
X126632017Y-58922866D01*
X126974874Y-58656200D02*
X126898683Y-58694295D01*
X126898683Y-58694295D02*
X126746302Y-58694295D01*
X126746302Y-58694295D02*
X126670112Y-58656200D01*
X126670112Y-58656200D02*
X126632017Y-58618104D01*
X126632017Y-58618104D02*
X126593921Y-58541914D01*
X126593921Y-58541914D02*
X126593921Y-58313342D01*
X126593921Y-58313342D02*
X126632017Y-58237152D01*
X126632017Y-58237152D02*
X126670112Y-58199057D01*
X126670112Y-58199057D02*
X126746302Y-58160961D01*
X126746302Y-58160961D02*
X126898683Y-58160961D01*
X126898683Y-58160961D02*
X126974874Y-58199057D01*
X127165351Y-58770485D02*
X127774874Y-58770485D01*
X128308208Y-58160961D02*
X128308208Y-58808580D01*
X128308208Y-58808580D02*
X128270113Y-58884771D01*
X128270113Y-58884771D02*
X128232017Y-58922866D01*
X128232017Y-58922866D02*
X128155827Y-58960961D01*
X128155827Y-58960961D02*
X128041541Y-58960961D01*
X128041541Y-58960961D02*
X127965351Y-58922866D01*
X128308208Y-58656200D02*
X128232017Y-58694295D01*
X128232017Y-58694295D02*
X128079636Y-58694295D01*
X128079636Y-58694295D02*
X128003446Y-58656200D01*
X128003446Y-58656200D02*
X127965351Y-58618104D01*
X127965351Y-58618104D02*
X127927255Y-58541914D01*
X127927255Y-58541914D02*
X127927255Y-58313342D01*
X127927255Y-58313342D02*
X127965351Y-58237152D01*
X127965351Y-58237152D02*
X128003446Y-58199057D01*
X128003446Y-58199057D02*
X128079636Y-58160961D01*
X128079636Y-58160961D02*
X128232017Y-58160961D01*
X128232017Y-58160961D02*
X128308208Y-58199057D01*
X128689161Y-58160961D02*
X128689161Y-58694295D01*
X128689161Y-58237152D02*
X128727256Y-58199057D01*
X128727256Y-58199057D02*
X128803446Y-58160961D01*
X128803446Y-58160961D02*
X128917732Y-58160961D01*
X128917732Y-58160961D02*
X128993923Y-58199057D01*
X128993923Y-58199057D02*
X129032018Y-58275247D01*
X129032018Y-58275247D02*
X129032018Y-58694295D01*
X129755828Y-58694295D02*
X129755828Y-57894295D01*
X129755828Y-58656200D02*
X129679637Y-58694295D01*
X129679637Y-58694295D02*
X129527256Y-58694295D01*
X129527256Y-58694295D02*
X129451066Y-58656200D01*
X129451066Y-58656200D02*
X129412971Y-58618104D01*
X129412971Y-58618104D02*
X129374875Y-58541914D01*
X129374875Y-58541914D02*
X129374875Y-58313342D01*
X129374875Y-58313342D02*
X129412971Y-58237152D01*
X129412971Y-58237152D02*
X129451066Y-58199057D01*
X129451066Y-58199057D02*
X129527256Y-58160961D01*
X129527256Y-58160961D02*
X129679637Y-58160961D01*
X129679637Y-58160961D02*
X129755828Y-58199057D01*
X148612969Y-72279819D02*
X148136779Y-72279819D01*
X148136779Y-72279819D02*
X148136779Y-71279819D01*
X149327255Y-72232200D02*
X149232017Y-72279819D01*
X149232017Y-72279819D02*
X149041541Y-72279819D01*
X149041541Y-72279819D02*
X148946303Y-72232200D01*
X148946303Y-72232200D02*
X148898684Y-72136961D01*
X148898684Y-72136961D02*
X148898684Y-71756009D01*
X148898684Y-71756009D02*
X148946303Y-71660771D01*
X148946303Y-71660771D02*
X149041541Y-71613152D01*
X149041541Y-71613152D02*
X149232017Y-71613152D01*
X149232017Y-71613152D02*
X149327255Y-71660771D01*
X149327255Y-71660771D02*
X149374874Y-71756009D01*
X149374874Y-71756009D02*
X149374874Y-71851247D01*
X149374874Y-71851247D02*
X148898684Y-71946485D01*
X149660589Y-71613152D02*
X150041541Y-71613152D01*
X149803446Y-72279819D02*
X149803446Y-71422676D01*
X149803446Y-71422676D02*
X149851065Y-71327438D01*
X149851065Y-71327438D02*
X149946303Y-71279819D01*
X149946303Y-71279819D02*
X150041541Y-71279819D01*
X150232018Y-71613152D02*
X150612970Y-71613152D01*
X150374875Y-71279819D02*
X150374875Y-72136961D01*
X150374875Y-72136961D02*
X150422494Y-72232200D01*
X150422494Y-72232200D02*
X150517732Y-72279819D01*
X150517732Y-72279819D02*
X150612970Y-72279819D01*
X148851064Y-72842200D02*
X147993922Y-74127914D01*
X149184398Y-73889819D02*
X149184398Y-73223152D01*
X149184398Y-73318390D02*
X149232017Y-73270771D01*
X149232017Y-73270771D02*
X149327255Y-73223152D01*
X149327255Y-73223152D02*
X149470112Y-73223152D01*
X149470112Y-73223152D02*
X149565350Y-73270771D01*
X149565350Y-73270771D02*
X149612969Y-73366009D01*
X149612969Y-73366009D02*
X149612969Y-73889819D01*
X149612969Y-73366009D02*
X149660588Y-73270771D01*
X149660588Y-73270771D02*
X149755826Y-73223152D01*
X149755826Y-73223152D02*
X149898683Y-73223152D01*
X149898683Y-73223152D02*
X149993922Y-73270771D01*
X149993922Y-73270771D02*
X150041541Y-73366009D01*
X150041541Y-73366009D02*
X150041541Y-73889819D01*
X150660588Y-73889819D02*
X150565350Y-73842200D01*
X150565350Y-73842200D02*
X150517731Y-73794580D01*
X150517731Y-73794580D02*
X150470112Y-73699342D01*
X150470112Y-73699342D02*
X150470112Y-73413628D01*
X150470112Y-73413628D02*
X150517731Y-73318390D01*
X150517731Y-73318390D02*
X150565350Y-73270771D01*
X150565350Y-73270771D02*
X150660588Y-73223152D01*
X150660588Y-73223152D02*
X150803445Y-73223152D01*
X150803445Y-73223152D02*
X150898683Y-73270771D01*
X150898683Y-73270771D02*
X150946302Y-73318390D01*
X150946302Y-73318390D02*
X150993921Y-73413628D01*
X150993921Y-73413628D02*
X150993921Y-73699342D01*
X150993921Y-73699342D02*
X150946302Y-73794580D01*
X150946302Y-73794580D02*
X150898683Y-73842200D01*
X150898683Y-73842200D02*
X150803445Y-73889819D01*
X150803445Y-73889819D02*
X150660588Y-73889819D01*
X151422493Y-73223152D02*
X151422493Y-73889819D01*
X151422493Y-73318390D02*
X151470112Y-73270771D01*
X151470112Y-73270771D02*
X151565350Y-73223152D01*
X151565350Y-73223152D02*
X151708207Y-73223152D01*
X151708207Y-73223152D02*
X151803445Y-73270771D01*
X151803445Y-73270771D02*
X151851064Y-73366009D01*
X151851064Y-73366009D02*
X151851064Y-73889819D01*
X152470112Y-73889819D02*
X152374874Y-73842200D01*
X152374874Y-73842200D02*
X152327255Y-73794580D01*
X152327255Y-73794580D02*
X152279636Y-73699342D01*
X152279636Y-73699342D02*
X152279636Y-73413628D01*
X152279636Y-73413628D02*
X152327255Y-73318390D01*
X152327255Y-73318390D02*
X152374874Y-73270771D01*
X152374874Y-73270771D02*
X152470112Y-73223152D01*
X152470112Y-73223152D02*
X152612969Y-73223152D01*
X152612969Y-73223152D02*
X152708207Y-73270771D01*
X152708207Y-73270771D02*
X152755826Y-73318390D01*
X152755826Y-73318390D02*
X152803445Y-73413628D01*
X152803445Y-73413628D02*
X152803445Y-73699342D01*
X152803445Y-73699342D02*
X152755826Y-73794580D01*
X152755826Y-73794580D02*
X152708207Y-73842200D01*
X152708207Y-73842200D02*
X152612969Y-73889819D01*
X152612969Y-73889819D02*
X152470112Y-73889819D01*
X148660588Y-76157438D02*
X148565350Y-76109819D01*
X148565350Y-76109819D02*
X148422493Y-76109819D01*
X148422493Y-76109819D02*
X148279636Y-76157438D01*
X148279636Y-76157438D02*
X148184398Y-76252676D01*
X148184398Y-76252676D02*
X148136779Y-76347914D01*
X148136779Y-76347914D02*
X148089160Y-76538390D01*
X148089160Y-76538390D02*
X148089160Y-76681247D01*
X148089160Y-76681247D02*
X148136779Y-76871723D01*
X148136779Y-76871723D02*
X148184398Y-76966961D01*
X148184398Y-76966961D02*
X148279636Y-77062200D01*
X148279636Y-77062200D02*
X148422493Y-77109819D01*
X148422493Y-77109819D02*
X148517731Y-77109819D01*
X148517731Y-77109819D02*
X148660588Y-77062200D01*
X148660588Y-77062200D02*
X148708207Y-77014580D01*
X148708207Y-77014580D02*
X148708207Y-76681247D01*
X148708207Y-76681247D02*
X148517731Y-76681247D01*
X149136779Y-76443152D02*
X149136779Y-77109819D01*
X149136779Y-76538390D02*
X149184398Y-76490771D01*
X149184398Y-76490771D02*
X149279636Y-76443152D01*
X149279636Y-76443152D02*
X149422493Y-76443152D01*
X149422493Y-76443152D02*
X149517731Y-76490771D01*
X149517731Y-76490771D02*
X149565350Y-76586009D01*
X149565350Y-76586009D02*
X149565350Y-77109819D01*
X150470112Y-77109819D02*
X150470112Y-76109819D01*
X150470112Y-77062200D02*
X150374874Y-77109819D01*
X150374874Y-77109819D02*
X150184398Y-77109819D01*
X150184398Y-77109819D02*
X150089160Y-77062200D01*
X150089160Y-77062200D02*
X150041541Y-77014580D01*
X150041541Y-77014580D02*
X149993922Y-76919342D01*
X149993922Y-76919342D02*
X149993922Y-76633628D01*
X149993922Y-76633628D02*
X150041541Y-76538390D01*
X150041541Y-76538390D02*
X150089160Y-76490771D01*
X150089160Y-76490771D02*
X150184398Y-76443152D01*
X150184398Y-76443152D02*
X150374874Y-76443152D01*
X150374874Y-76443152D02*
X150470112Y-76490771D01*
X148708207Y-81939819D02*
X148374874Y-81463628D01*
X148136779Y-81939819D02*
X148136779Y-80939819D01*
X148136779Y-80939819D02*
X148517731Y-80939819D01*
X148517731Y-80939819D02*
X148612969Y-80987438D01*
X148612969Y-80987438D02*
X148660588Y-81035057D01*
X148660588Y-81035057D02*
X148708207Y-81130295D01*
X148708207Y-81130295D02*
X148708207Y-81273152D01*
X148708207Y-81273152D02*
X148660588Y-81368390D01*
X148660588Y-81368390D02*
X148612969Y-81416009D01*
X148612969Y-81416009D02*
X148517731Y-81463628D01*
X148517731Y-81463628D02*
X148136779Y-81463628D01*
X148660588Y-85817438D02*
X148565350Y-85769819D01*
X148565350Y-85769819D02*
X148422493Y-85769819D01*
X148422493Y-85769819D02*
X148279636Y-85817438D01*
X148279636Y-85817438D02*
X148184398Y-85912676D01*
X148184398Y-85912676D02*
X148136779Y-86007914D01*
X148136779Y-86007914D02*
X148089160Y-86198390D01*
X148089160Y-86198390D02*
X148089160Y-86341247D01*
X148089160Y-86341247D02*
X148136779Y-86531723D01*
X148136779Y-86531723D02*
X148184398Y-86626961D01*
X148184398Y-86626961D02*
X148279636Y-86722200D01*
X148279636Y-86722200D02*
X148422493Y-86769819D01*
X148422493Y-86769819D02*
X148517731Y-86769819D01*
X148517731Y-86769819D02*
X148660588Y-86722200D01*
X148660588Y-86722200D02*
X148708207Y-86674580D01*
X148708207Y-86674580D02*
X148708207Y-86341247D01*
X148708207Y-86341247D02*
X148517731Y-86341247D01*
X149136779Y-86103152D02*
X149136779Y-86769819D01*
X149136779Y-86198390D02*
X149184398Y-86150771D01*
X149184398Y-86150771D02*
X149279636Y-86103152D01*
X149279636Y-86103152D02*
X149422493Y-86103152D01*
X149422493Y-86103152D02*
X149517731Y-86150771D01*
X149517731Y-86150771D02*
X149565350Y-86246009D01*
X149565350Y-86246009D02*
X149565350Y-86769819D01*
X150470112Y-86769819D02*
X150470112Y-85769819D01*
X150470112Y-86722200D02*
X150374874Y-86769819D01*
X150374874Y-86769819D02*
X150184398Y-86769819D01*
X150184398Y-86769819D02*
X150089160Y-86722200D01*
X150089160Y-86722200D02*
X150041541Y-86674580D01*
X150041541Y-86674580D02*
X149993922Y-86579342D01*
X149993922Y-86579342D02*
X149993922Y-86293628D01*
X149993922Y-86293628D02*
X150041541Y-86198390D01*
X150041541Y-86198390D02*
X150089160Y-86150771D01*
X150089160Y-86150771D02*
X150184398Y-86103152D01*
X150184398Y-86103152D02*
X150374874Y-86103152D01*
X150374874Y-86103152D02*
X150470112Y-86150771D01*
X177212969Y-71179819D02*
X176736779Y-71179819D01*
X176736779Y-71179819D02*
X176736779Y-70179819D01*
X177927255Y-71132200D02*
X177832017Y-71179819D01*
X177832017Y-71179819D02*
X177641541Y-71179819D01*
X177641541Y-71179819D02*
X177546303Y-71132200D01*
X177546303Y-71132200D02*
X177498684Y-71036961D01*
X177498684Y-71036961D02*
X177498684Y-70656009D01*
X177498684Y-70656009D02*
X177546303Y-70560771D01*
X177546303Y-70560771D02*
X177641541Y-70513152D01*
X177641541Y-70513152D02*
X177832017Y-70513152D01*
X177832017Y-70513152D02*
X177927255Y-70560771D01*
X177927255Y-70560771D02*
X177974874Y-70656009D01*
X177974874Y-70656009D02*
X177974874Y-70751247D01*
X177974874Y-70751247D02*
X177498684Y-70846485D01*
X178260589Y-70513152D02*
X178641541Y-70513152D01*
X178403446Y-71179819D02*
X178403446Y-70322676D01*
X178403446Y-70322676D02*
X178451065Y-70227438D01*
X178451065Y-70227438D02*
X178546303Y-70179819D01*
X178546303Y-70179819D02*
X178641541Y-70179819D01*
X178832018Y-70513152D02*
X179212970Y-70513152D01*
X178974875Y-70179819D02*
X178974875Y-71036961D01*
X178974875Y-71036961D02*
X179022494Y-71132200D01*
X179022494Y-71132200D02*
X179117732Y-71179819D01*
X179117732Y-71179819D02*
X179212970Y-71179819D01*
X177451064Y-71742200D02*
X176593922Y-73027914D01*
X177784398Y-72789819D02*
X177784398Y-72123152D01*
X177784398Y-72218390D02*
X177832017Y-72170771D01*
X177832017Y-72170771D02*
X177927255Y-72123152D01*
X177927255Y-72123152D02*
X178070112Y-72123152D01*
X178070112Y-72123152D02*
X178165350Y-72170771D01*
X178165350Y-72170771D02*
X178212969Y-72266009D01*
X178212969Y-72266009D02*
X178212969Y-72789819D01*
X178212969Y-72266009D02*
X178260588Y-72170771D01*
X178260588Y-72170771D02*
X178355826Y-72123152D01*
X178355826Y-72123152D02*
X178498683Y-72123152D01*
X178498683Y-72123152D02*
X178593922Y-72170771D01*
X178593922Y-72170771D02*
X178641541Y-72266009D01*
X178641541Y-72266009D02*
X178641541Y-72789819D01*
X179260588Y-72789819D02*
X179165350Y-72742200D01*
X179165350Y-72742200D02*
X179117731Y-72694580D01*
X179117731Y-72694580D02*
X179070112Y-72599342D01*
X179070112Y-72599342D02*
X179070112Y-72313628D01*
X179070112Y-72313628D02*
X179117731Y-72218390D01*
X179117731Y-72218390D02*
X179165350Y-72170771D01*
X179165350Y-72170771D02*
X179260588Y-72123152D01*
X179260588Y-72123152D02*
X179403445Y-72123152D01*
X179403445Y-72123152D02*
X179498683Y-72170771D01*
X179498683Y-72170771D02*
X179546302Y-72218390D01*
X179546302Y-72218390D02*
X179593921Y-72313628D01*
X179593921Y-72313628D02*
X179593921Y-72599342D01*
X179593921Y-72599342D02*
X179546302Y-72694580D01*
X179546302Y-72694580D02*
X179498683Y-72742200D01*
X179498683Y-72742200D02*
X179403445Y-72789819D01*
X179403445Y-72789819D02*
X179260588Y-72789819D01*
X180022493Y-72123152D02*
X180022493Y-72789819D01*
X180022493Y-72218390D02*
X180070112Y-72170771D01*
X180070112Y-72170771D02*
X180165350Y-72123152D01*
X180165350Y-72123152D02*
X180308207Y-72123152D01*
X180308207Y-72123152D02*
X180403445Y-72170771D01*
X180403445Y-72170771D02*
X180451064Y-72266009D01*
X180451064Y-72266009D02*
X180451064Y-72789819D01*
X181070112Y-72789819D02*
X180974874Y-72742200D01*
X180974874Y-72742200D02*
X180927255Y-72694580D01*
X180927255Y-72694580D02*
X180879636Y-72599342D01*
X180879636Y-72599342D02*
X180879636Y-72313628D01*
X180879636Y-72313628D02*
X180927255Y-72218390D01*
X180927255Y-72218390D02*
X180974874Y-72170771D01*
X180974874Y-72170771D02*
X181070112Y-72123152D01*
X181070112Y-72123152D02*
X181212969Y-72123152D01*
X181212969Y-72123152D02*
X181308207Y-72170771D01*
X181308207Y-72170771D02*
X181355826Y-72218390D01*
X181355826Y-72218390D02*
X181403445Y-72313628D01*
X181403445Y-72313628D02*
X181403445Y-72599342D01*
X181403445Y-72599342D02*
X181355826Y-72694580D01*
X181355826Y-72694580D02*
X181308207Y-72742200D01*
X181308207Y-72742200D02*
X181212969Y-72789819D01*
X181212969Y-72789819D02*
X181070112Y-72789819D01*
X177260588Y-75057438D02*
X177165350Y-75009819D01*
X177165350Y-75009819D02*
X177022493Y-75009819D01*
X177022493Y-75009819D02*
X176879636Y-75057438D01*
X176879636Y-75057438D02*
X176784398Y-75152676D01*
X176784398Y-75152676D02*
X176736779Y-75247914D01*
X176736779Y-75247914D02*
X176689160Y-75438390D01*
X176689160Y-75438390D02*
X176689160Y-75581247D01*
X176689160Y-75581247D02*
X176736779Y-75771723D01*
X176736779Y-75771723D02*
X176784398Y-75866961D01*
X176784398Y-75866961D02*
X176879636Y-75962200D01*
X176879636Y-75962200D02*
X177022493Y-76009819D01*
X177022493Y-76009819D02*
X177117731Y-76009819D01*
X177117731Y-76009819D02*
X177260588Y-75962200D01*
X177260588Y-75962200D02*
X177308207Y-75914580D01*
X177308207Y-75914580D02*
X177308207Y-75581247D01*
X177308207Y-75581247D02*
X177117731Y-75581247D01*
X177736779Y-75343152D02*
X177736779Y-76009819D01*
X177736779Y-75438390D02*
X177784398Y-75390771D01*
X177784398Y-75390771D02*
X177879636Y-75343152D01*
X177879636Y-75343152D02*
X178022493Y-75343152D01*
X178022493Y-75343152D02*
X178117731Y-75390771D01*
X178117731Y-75390771D02*
X178165350Y-75486009D01*
X178165350Y-75486009D02*
X178165350Y-76009819D01*
X179070112Y-76009819D02*
X179070112Y-75009819D01*
X179070112Y-75962200D02*
X178974874Y-76009819D01*
X178974874Y-76009819D02*
X178784398Y-76009819D01*
X178784398Y-76009819D02*
X178689160Y-75962200D01*
X178689160Y-75962200D02*
X178641541Y-75914580D01*
X178641541Y-75914580D02*
X178593922Y-75819342D01*
X178593922Y-75819342D02*
X178593922Y-75533628D01*
X178593922Y-75533628D02*
X178641541Y-75438390D01*
X178641541Y-75438390D02*
X178689160Y-75390771D01*
X178689160Y-75390771D02*
X178784398Y-75343152D01*
X178784398Y-75343152D02*
X178974874Y-75343152D01*
X178974874Y-75343152D02*
X179070112Y-75390771D01*
X177308207Y-80839819D02*
X176974874Y-80363628D01*
X176736779Y-80839819D02*
X176736779Y-79839819D01*
X176736779Y-79839819D02*
X177117731Y-79839819D01*
X177117731Y-79839819D02*
X177212969Y-79887438D01*
X177212969Y-79887438D02*
X177260588Y-79935057D01*
X177260588Y-79935057D02*
X177308207Y-80030295D01*
X177308207Y-80030295D02*
X177308207Y-80173152D01*
X177308207Y-80173152D02*
X177260588Y-80268390D01*
X177260588Y-80268390D02*
X177212969Y-80316009D01*
X177212969Y-80316009D02*
X177117731Y-80363628D01*
X177117731Y-80363628D02*
X176736779Y-80363628D01*
X177260588Y-84717438D02*
X177165350Y-84669819D01*
X177165350Y-84669819D02*
X177022493Y-84669819D01*
X177022493Y-84669819D02*
X176879636Y-84717438D01*
X176879636Y-84717438D02*
X176784398Y-84812676D01*
X176784398Y-84812676D02*
X176736779Y-84907914D01*
X176736779Y-84907914D02*
X176689160Y-85098390D01*
X176689160Y-85098390D02*
X176689160Y-85241247D01*
X176689160Y-85241247D02*
X176736779Y-85431723D01*
X176736779Y-85431723D02*
X176784398Y-85526961D01*
X176784398Y-85526961D02*
X176879636Y-85622200D01*
X176879636Y-85622200D02*
X177022493Y-85669819D01*
X177022493Y-85669819D02*
X177117731Y-85669819D01*
X177117731Y-85669819D02*
X177260588Y-85622200D01*
X177260588Y-85622200D02*
X177308207Y-85574580D01*
X177308207Y-85574580D02*
X177308207Y-85241247D01*
X177308207Y-85241247D02*
X177117731Y-85241247D01*
X177736779Y-85003152D02*
X177736779Y-85669819D01*
X177736779Y-85098390D02*
X177784398Y-85050771D01*
X177784398Y-85050771D02*
X177879636Y-85003152D01*
X177879636Y-85003152D02*
X178022493Y-85003152D01*
X178022493Y-85003152D02*
X178117731Y-85050771D01*
X178117731Y-85050771D02*
X178165350Y-85146009D01*
X178165350Y-85146009D02*
X178165350Y-85669819D01*
X179070112Y-85669819D02*
X179070112Y-84669819D01*
X179070112Y-85622200D02*
X178974874Y-85669819D01*
X178974874Y-85669819D02*
X178784398Y-85669819D01*
X178784398Y-85669819D02*
X178689160Y-85622200D01*
X178689160Y-85622200D02*
X178641541Y-85574580D01*
X178641541Y-85574580D02*
X178593922Y-85479342D01*
X178593922Y-85479342D02*
X178593922Y-85193628D01*
X178593922Y-85193628D02*
X178641541Y-85098390D01*
X178641541Y-85098390D02*
X178689160Y-85050771D01*
X178689160Y-85050771D02*
X178784398Y-85003152D01*
X178784398Y-85003152D02*
X178974874Y-85003152D01*
X178974874Y-85003152D02*
X179070112Y-85050771D01*
X144254819Y-48995238D02*
X143778628Y-49328571D01*
X144254819Y-49566666D02*
X143254819Y-49566666D01*
X143254819Y-49566666D02*
X143254819Y-49185714D01*
X143254819Y-49185714D02*
X143302438Y-49090476D01*
X143302438Y-49090476D02*
X143350057Y-49042857D01*
X143350057Y-49042857D02*
X143445295Y-48995238D01*
X143445295Y-48995238D02*
X143588152Y-48995238D01*
X143588152Y-48995238D02*
X143683390Y-49042857D01*
X143683390Y-49042857D02*
X143731009Y-49090476D01*
X143731009Y-49090476D02*
X143778628Y-49185714D01*
X143778628Y-49185714D02*
X143778628Y-49566666D01*
X144254819Y-48566666D02*
X143588152Y-48566666D01*
X143254819Y-48566666D02*
X143302438Y-48614285D01*
X143302438Y-48614285D02*
X143350057Y-48566666D01*
X143350057Y-48566666D02*
X143302438Y-48519047D01*
X143302438Y-48519047D02*
X143254819Y-48566666D01*
X143254819Y-48566666D02*
X143350057Y-48566666D01*
X143588152Y-47661905D02*
X144397676Y-47661905D01*
X144397676Y-47661905D02*
X144492914Y-47709524D01*
X144492914Y-47709524D02*
X144540533Y-47757143D01*
X144540533Y-47757143D02*
X144588152Y-47852381D01*
X144588152Y-47852381D02*
X144588152Y-47995238D01*
X144588152Y-47995238D02*
X144540533Y-48090476D01*
X144207200Y-47661905D02*
X144254819Y-47757143D01*
X144254819Y-47757143D02*
X144254819Y-47947619D01*
X144254819Y-47947619D02*
X144207200Y-48042857D01*
X144207200Y-48042857D02*
X144159580Y-48090476D01*
X144159580Y-48090476D02*
X144064342Y-48138095D01*
X144064342Y-48138095D02*
X143778628Y-48138095D01*
X143778628Y-48138095D02*
X143683390Y-48090476D01*
X143683390Y-48090476D02*
X143635771Y-48042857D01*
X143635771Y-48042857D02*
X143588152Y-47947619D01*
X143588152Y-47947619D02*
X143588152Y-47757143D01*
X143588152Y-47757143D02*
X143635771Y-47661905D01*
X144254819Y-47185714D02*
X143254819Y-47185714D01*
X144254819Y-46757143D02*
X143731009Y-46757143D01*
X143731009Y-46757143D02*
X143635771Y-46804762D01*
X143635771Y-46804762D02*
X143588152Y-46900000D01*
X143588152Y-46900000D02*
X143588152Y-47042857D01*
X143588152Y-47042857D02*
X143635771Y-47138095D01*
X143635771Y-47138095D02*
X143683390Y-47185714D01*
X143588152Y-46423809D02*
X143588152Y-46042857D01*
X143254819Y-46280952D02*
X144111961Y-46280952D01*
X144111961Y-46280952D02*
X144207200Y-46233333D01*
X144207200Y-46233333D02*
X144254819Y-46138095D01*
X144254819Y-46138095D02*
X144254819Y-46042857D01*
X143254819Y-45804761D02*
X143254819Y-45185714D01*
X143254819Y-45185714D02*
X143635771Y-45519047D01*
X143635771Y-45519047D02*
X143635771Y-45376190D01*
X143635771Y-45376190D02*
X143683390Y-45280952D01*
X143683390Y-45280952D02*
X143731009Y-45233333D01*
X143731009Y-45233333D02*
X143826247Y-45185714D01*
X143826247Y-45185714D02*
X144064342Y-45185714D01*
X144064342Y-45185714D02*
X144159580Y-45233333D01*
X144159580Y-45233333D02*
X144207200Y-45280952D01*
X144207200Y-45280952D02*
X144254819Y-45376190D01*
X144254819Y-45376190D02*
X144254819Y-45661904D01*
X144254819Y-45661904D02*
X144207200Y-45757142D01*
X144207200Y-45757142D02*
X144159580Y-45804761D01*
X123166666Y-37024819D02*
X123166666Y-37739104D01*
X123166666Y-37739104D02*
X123119047Y-37881961D01*
X123119047Y-37881961D02*
X123023809Y-37977200D01*
X123023809Y-37977200D02*
X122880952Y-38024819D01*
X122880952Y-38024819D02*
X122785714Y-38024819D01*
X123595238Y-37120057D02*
X123642857Y-37072438D01*
X123642857Y-37072438D02*
X123738095Y-37024819D01*
X123738095Y-37024819D02*
X123976190Y-37024819D01*
X123976190Y-37024819D02*
X124071428Y-37072438D01*
X124071428Y-37072438D02*
X124119047Y-37120057D01*
X124119047Y-37120057D02*
X124166666Y-37215295D01*
X124166666Y-37215295D02*
X124166666Y-37310533D01*
X124166666Y-37310533D02*
X124119047Y-37453390D01*
X124119047Y-37453390D02*
X123547619Y-38024819D01*
X123547619Y-38024819D02*
X124166666Y-38024819D01*
X196490057Y-56065000D02*
X196442438Y-56160238D01*
X196442438Y-56160238D02*
X196347200Y-56255476D01*
X196347200Y-56255476D02*
X196204342Y-56398333D01*
X196204342Y-56398333D02*
X196156723Y-56493571D01*
X196156723Y-56493571D02*
X196156723Y-56588809D01*
X196394819Y-56541190D02*
X196347200Y-56636428D01*
X196347200Y-56636428D02*
X196251961Y-56731666D01*
X196251961Y-56731666D02*
X196061485Y-56779285D01*
X196061485Y-56779285D02*
X195728152Y-56779285D01*
X195728152Y-56779285D02*
X195537676Y-56731666D01*
X195537676Y-56731666D02*
X195442438Y-56636428D01*
X195442438Y-56636428D02*
X195394819Y-56541190D01*
X195394819Y-56541190D02*
X195394819Y-56350714D01*
X195394819Y-56350714D02*
X195442438Y-56255476D01*
X195442438Y-56255476D02*
X195537676Y-56160238D01*
X195537676Y-56160238D02*
X195728152Y-56112619D01*
X195728152Y-56112619D02*
X196061485Y-56112619D01*
X196061485Y-56112619D02*
X196251961Y-56160238D01*
X196251961Y-56160238D02*
X196347200Y-56255476D01*
X196347200Y-56255476D02*
X196394819Y-56350714D01*
X196394819Y-56350714D02*
X196394819Y-56541190D01*
X196394819Y-55207857D02*
X196394819Y-55684047D01*
X196394819Y-55684047D02*
X195394819Y-55684047D01*
X195394819Y-54969761D02*
X195394819Y-54350714D01*
X195394819Y-54350714D02*
X195775771Y-54684047D01*
X195775771Y-54684047D02*
X195775771Y-54541190D01*
X195775771Y-54541190D02*
X195823390Y-54445952D01*
X195823390Y-54445952D02*
X195871009Y-54398333D01*
X195871009Y-54398333D02*
X195966247Y-54350714D01*
X195966247Y-54350714D02*
X196204342Y-54350714D01*
X196204342Y-54350714D02*
X196299580Y-54398333D01*
X196299580Y-54398333D02*
X196347200Y-54445952D01*
X196347200Y-54445952D02*
X196394819Y-54541190D01*
X196394819Y-54541190D02*
X196394819Y-54826904D01*
X196394819Y-54826904D02*
X196347200Y-54922142D01*
X196347200Y-54922142D02*
X196299580Y-54969761D01*
X153239866Y-84833333D02*
X152573200Y-85300000D01*
X153239866Y-85633333D02*
X151839866Y-85633333D01*
X151839866Y-85633333D02*
X151839866Y-85100000D01*
X151839866Y-85100000D02*
X151906533Y-84966667D01*
X151906533Y-84966667D02*
X151973200Y-84900000D01*
X151973200Y-84900000D02*
X152106533Y-84833333D01*
X152106533Y-84833333D02*
X152306533Y-84833333D01*
X152306533Y-84833333D02*
X152439866Y-84900000D01*
X152439866Y-84900000D02*
X152506533Y-84966667D01*
X152506533Y-84966667D02*
X152573200Y-85100000D01*
X152573200Y-85100000D02*
X152573200Y-85633333D01*
X153173200Y-83700000D02*
X153239866Y-83833333D01*
X153239866Y-83833333D02*
X153239866Y-84100000D01*
X153239866Y-84100000D02*
X153173200Y-84233333D01*
X153173200Y-84233333D02*
X153039866Y-84300000D01*
X153039866Y-84300000D02*
X152506533Y-84300000D01*
X152506533Y-84300000D02*
X152373200Y-84233333D01*
X152373200Y-84233333D02*
X152306533Y-84100000D01*
X152306533Y-84100000D02*
X152306533Y-83833333D01*
X152306533Y-83833333D02*
X152373200Y-83700000D01*
X152373200Y-83700000D02*
X152506533Y-83633333D01*
X152506533Y-83633333D02*
X152639866Y-83633333D01*
X152639866Y-83633333D02*
X152773200Y-84300000D01*
X152306533Y-83233333D02*
X152306533Y-82700000D01*
X151839866Y-83033333D02*
X153039866Y-83033333D01*
X153039866Y-83033333D02*
X153173200Y-82966667D01*
X153173200Y-82966667D02*
X153239866Y-82833333D01*
X153239866Y-82833333D02*
X153239866Y-82700000D01*
X152306533Y-81633333D02*
X153239866Y-81633333D01*
X152306533Y-82233333D02*
X153039866Y-82233333D01*
X153039866Y-82233333D02*
X153173200Y-82166667D01*
X153173200Y-82166667D02*
X153239866Y-82033333D01*
X153239866Y-82033333D02*
X153239866Y-81833333D01*
X153239866Y-81833333D02*
X153173200Y-81700000D01*
X153173200Y-81700000D02*
X153106533Y-81633333D01*
X153239866Y-80966666D02*
X152306533Y-80966666D01*
X152573200Y-80966666D02*
X152439866Y-80900000D01*
X152439866Y-80900000D02*
X152373200Y-80833333D01*
X152373200Y-80833333D02*
X152306533Y-80700000D01*
X152306533Y-80700000D02*
X152306533Y-80566666D01*
X152306533Y-80099999D02*
X153239866Y-80099999D01*
X152439866Y-80099999D02*
X152373200Y-80033333D01*
X152373200Y-80033333D02*
X152306533Y-79899999D01*
X152306533Y-79899999D02*
X152306533Y-79699999D01*
X152306533Y-79699999D02*
X152373200Y-79566666D01*
X152373200Y-79566666D02*
X152506533Y-79499999D01*
X152506533Y-79499999D02*
X153239866Y-79499999D01*
X151973200Y-78899999D02*
X151906533Y-78833332D01*
X151906533Y-78833332D02*
X151839866Y-78699999D01*
X151839866Y-78699999D02*
X151839866Y-78366666D01*
X151839866Y-78366666D02*
X151906533Y-78233332D01*
X151906533Y-78233332D02*
X151973200Y-78166666D01*
X151973200Y-78166666D02*
X152106533Y-78099999D01*
X152106533Y-78099999D02*
X152239866Y-78099999D01*
X152239866Y-78099999D02*
X152439866Y-78166666D01*
X152439866Y-78166666D02*
X153239866Y-78966666D01*
X153239866Y-78966666D02*
X153239866Y-78099999D01*
X224854819Y-46670833D02*
X225569104Y-46670833D01*
X225569104Y-46670833D02*
X225711961Y-46718452D01*
X225711961Y-46718452D02*
X225807200Y-46813690D01*
X225807200Y-46813690D02*
X225854819Y-46956547D01*
X225854819Y-46956547D02*
X225854819Y-47051785D01*
X225854819Y-45670833D02*
X225854819Y-46242261D01*
X225854819Y-45956547D02*
X224854819Y-45956547D01*
X224854819Y-45956547D02*
X224997676Y-46051785D01*
X224997676Y-46051785D02*
X225092914Y-46147023D01*
X225092914Y-46147023D02*
X225140533Y-46242261D01*
X156756905Y-89994819D02*
X156756905Y-88994819D01*
X156756905Y-88994819D02*
X156995000Y-88994819D01*
X156995000Y-88994819D02*
X157137857Y-89042438D01*
X157137857Y-89042438D02*
X157233095Y-89137676D01*
X157233095Y-89137676D02*
X157280714Y-89232914D01*
X157280714Y-89232914D02*
X157328333Y-89423390D01*
X157328333Y-89423390D02*
X157328333Y-89566247D01*
X157328333Y-89566247D02*
X157280714Y-89756723D01*
X157280714Y-89756723D02*
X157233095Y-89851961D01*
X157233095Y-89851961D02*
X157137857Y-89947200D01*
X157137857Y-89947200D02*
X156995000Y-89994819D01*
X156995000Y-89994819D02*
X156756905Y-89994819D01*
X157709286Y-89090057D02*
X157756905Y-89042438D01*
X157756905Y-89042438D02*
X157852143Y-88994819D01*
X157852143Y-88994819D02*
X158090238Y-88994819D01*
X158090238Y-88994819D02*
X158185476Y-89042438D01*
X158185476Y-89042438D02*
X158233095Y-89090057D01*
X158233095Y-89090057D02*
X158280714Y-89185295D01*
X158280714Y-89185295D02*
X158280714Y-89280533D01*
X158280714Y-89280533D02*
X158233095Y-89423390D01*
X158233095Y-89423390D02*
X157661667Y-89994819D01*
X157661667Y-89994819D02*
X158280714Y-89994819D01*
X205333332Y-48749819D02*
X204857142Y-48749819D01*
X204857142Y-48749819D02*
X204857142Y-47749819D01*
X206047618Y-48702200D02*
X205952380Y-48749819D01*
X205952380Y-48749819D02*
X205761904Y-48749819D01*
X205761904Y-48749819D02*
X205666666Y-48702200D01*
X205666666Y-48702200D02*
X205619047Y-48606961D01*
X205619047Y-48606961D02*
X205619047Y-48226009D01*
X205619047Y-48226009D02*
X205666666Y-48130771D01*
X205666666Y-48130771D02*
X205761904Y-48083152D01*
X205761904Y-48083152D02*
X205952380Y-48083152D01*
X205952380Y-48083152D02*
X206047618Y-48130771D01*
X206047618Y-48130771D02*
X206095237Y-48226009D01*
X206095237Y-48226009D02*
X206095237Y-48321247D01*
X206095237Y-48321247D02*
X205619047Y-48416485D01*
X206380952Y-48083152D02*
X206761904Y-48083152D01*
X206523809Y-48749819D02*
X206523809Y-47892676D01*
X206523809Y-47892676D02*
X206571428Y-47797438D01*
X206571428Y-47797438D02*
X206666666Y-47749819D01*
X206666666Y-47749819D02*
X206761904Y-47749819D01*
X206952381Y-48083152D02*
X207333333Y-48083152D01*
X207095238Y-47749819D02*
X207095238Y-48606961D01*
X207095238Y-48606961D02*
X207142857Y-48702200D01*
X207142857Y-48702200D02*
X207238095Y-48749819D01*
X207238095Y-48749819D02*
X207333333Y-48749819D01*
X207666667Y-48749819D02*
X207666667Y-47749819D01*
X207666667Y-47749819D02*
X208047619Y-47749819D01*
X208047619Y-47749819D02*
X208142857Y-47797438D01*
X208142857Y-47797438D02*
X208190476Y-47845057D01*
X208190476Y-47845057D02*
X208238095Y-47940295D01*
X208238095Y-47940295D02*
X208238095Y-48083152D01*
X208238095Y-48083152D02*
X208190476Y-48178390D01*
X208190476Y-48178390D02*
X208142857Y-48226009D01*
X208142857Y-48226009D02*
X208047619Y-48273628D01*
X208047619Y-48273628D02*
X207666667Y-48273628D01*
X208666667Y-48749819D02*
X208666667Y-47749819D01*
X208666667Y-47749819D02*
X208904762Y-47749819D01*
X208904762Y-47749819D02*
X209047619Y-47797438D01*
X209047619Y-47797438D02*
X209142857Y-47892676D01*
X209142857Y-47892676D02*
X209190476Y-47987914D01*
X209190476Y-47987914D02*
X209238095Y-48178390D01*
X209238095Y-48178390D02*
X209238095Y-48321247D01*
X209238095Y-48321247D02*
X209190476Y-48511723D01*
X209190476Y-48511723D02*
X209142857Y-48606961D01*
X209142857Y-48606961D02*
X209047619Y-48702200D01*
X209047619Y-48702200D02*
X208904762Y-48749819D01*
X208904762Y-48749819D02*
X208666667Y-48749819D01*
X209619048Y-47845057D02*
X209666667Y-47797438D01*
X209666667Y-47797438D02*
X209761905Y-47749819D01*
X209761905Y-47749819D02*
X210000000Y-47749819D01*
X210000000Y-47749819D02*
X210095238Y-47797438D01*
X210095238Y-47797438D02*
X210142857Y-47845057D01*
X210142857Y-47845057D02*
X210190476Y-47940295D01*
X210190476Y-47940295D02*
X210190476Y-48035533D01*
X210190476Y-48035533D02*
X210142857Y-48178390D01*
X210142857Y-48178390D02*
X209571429Y-48749819D01*
X209571429Y-48749819D02*
X210190476Y-48749819D01*
X146873200Y-83733333D02*
X146939866Y-83533333D01*
X146939866Y-83533333D02*
X146939866Y-83200000D01*
X146939866Y-83200000D02*
X146873200Y-83066666D01*
X146873200Y-83066666D02*
X146806533Y-83000000D01*
X146806533Y-83000000D02*
X146673200Y-82933333D01*
X146673200Y-82933333D02*
X146539866Y-82933333D01*
X146539866Y-82933333D02*
X146406533Y-83000000D01*
X146406533Y-83000000D02*
X146339866Y-83066666D01*
X146339866Y-83066666D02*
X146273200Y-83200000D01*
X146273200Y-83200000D02*
X146206533Y-83466666D01*
X146206533Y-83466666D02*
X146139866Y-83600000D01*
X146139866Y-83600000D02*
X146073200Y-83666666D01*
X146073200Y-83666666D02*
X145939866Y-83733333D01*
X145939866Y-83733333D02*
X145806533Y-83733333D01*
X145806533Y-83733333D02*
X145673200Y-83666666D01*
X145673200Y-83666666D02*
X145606533Y-83600000D01*
X145606533Y-83600000D02*
X145539866Y-83466666D01*
X145539866Y-83466666D02*
X145539866Y-83133333D01*
X145539866Y-83133333D02*
X145606533Y-82933333D01*
X146873200Y-81800000D02*
X146939866Y-81933333D01*
X146939866Y-81933333D02*
X146939866Y-82200000D01*
X146939866Y-82200000D02*
X146873200Y-82333333D01*
X146873200Y-82333333D02*
X146739866Y-82400000D01*
X146739866Y-82400000D02*
X146206533Y-82400000D01*
X146206533Y-82400000D02*
X146073200Y-82333333D01*
X146073200Y-82333333D02*
X146006533Y-82200000D01*
X146006533Y-82200000D02*
X146006533Y-81933333D01*
X146006533Y-81933333D02*
X146073200Y-81800000D01*
X146073200Y-81800000D02*
X146206533Y-81733333D01*
X146206533Y-81733333D02*
X146339866Y-81733333D01*
X146339866Y-81733333D02*
X146473200Y-82400000D01*
X146006533Y-81133333D02*
X146939866Y-81133333D01*
X146139866Y-81133333D02*
X146073200Y-81066667D01*
X146073200Y-81066667D02*
X146006533Y-80933333D01*
X146006533Y-80933333D02*
X146006533Y-80733333D01*
X146006533Y-80733333D02*
X146073200Y-80600000D01*
X146073200Y-80600000D02*
X146206533Y-80533333D01*
X146206533Y-80533333D02*
X146939866Y-80533333D01*
X146939866Y-79266666D02*
X145539866Y-79266666D01*
X146873200Y-79266666D02*
X146939866Y-79400000D01*
X146939866Y-79400000D02*
X146939866Y-79666666D01*
X146939866Y-79666666D02*
X146873200Y-79800000D01*
X146873200Y-79800000D02*
X146806533Y-79866666D01*
X146806533Y-79866666D02*
X146673200Y-79933333D01*
X146673200Y-79933333D02*
X146273200Y-79933333D01*
X146273200Y-79933333D02*
X146139866Y-79866666D01*
X146139866Y-79866666D02*
X146073200Y-79800000D01*
X146073200Y-79800000D02*
X146006533Y-79666666D01*
X146006533Y-79666666D02*
X146006533Y-79400000D01*
X146006533Y-79400000D02*
X146073200Y-79266666D01*
X145539866Y-78733333D02*
X145539866Y-77866666D01*
X145539866Y-77866666D02*
X146073200Y-78333333D01*
X146073200Y-78333333D02*
X146073200Y-78133333D01*
X146073200Y-78133333D02*
X146139866Y-77999999D01*
X146139866Y-77999999D02*
X146206533Y-77933333D01*
X146206533Y-77933333D02*
X146339866Y-77866666D01*
X146339866Y-77866666D02*
X146673200Y-77866666D01*
X146673200Y-77866666D02*
X146806533Y-77933333D01*
X146806533Y-77933333D02*
X146873200Y-77999999D01*
X146873200Y-77999999D02*
X146939866Y-78133333D01*
X146939866Y-78133333D02*
X146939866Y-78533333D01*
X146939866Y-78533333D02*
X146873200Y-78666666D01*
X146873200Y-78666666D02*
X146806533Y-78733333D01*
X227748333Y-54839819D02*
X227415000Y-54363628D01*
X227176905Y-54839819D02*
X227176905Y-53839819D01*
X227176905Y-53839819D02*
X227557857Y-53839819D01*
X227557857Y-53839819D02*
X227653095Y-53887438D01*
X227653095Y-53887438D02*
X227700714Y-53935057D01*
X227700714Y-53935057D02*
X227748333Y-54030295D01*
X227748333Y-54030295D02*
X227748333Y-54173152D01*
X227748333Y-54173152D02*
X227700714Y-54268390D01*
X227700714Y-54268390D02*
X227653095Y-54316009D01*
X227653095Y-54316009D02*
X227557857Y-54363628D01*
X227557857Y-54363628D02*
X227176905Y-54363628D01*
X228700714Y-54839819D02*
X228129286Y-54839819D01*
X228415000Y-54839819D02*
X228415000Y-53839819D01*
X228415000Y-53839819D02*
X228319762Y-53982676D01*
X228319762Y-53982676D02*
X228224524Y-54077914D01*
X228224524Y-54077914D02*
X228129286Y-54125533D01*
X145754819Y-61719048D02*
X145754819Y-62195238D01*
X145754819Y-62195238D02*
X144754819Y-62195238D01*
X145707200Y-61004762D02*
X145754819Y-61100000D01*
X145754819Y-61100000D02*
X145754819Y-61290476D01*
X145754819Y-61290476D02*
X145707200Y-61385714D01*
X145707200Y-61385714D02*
X145611961Y-61433333D01*
X145611961Y-61433333D02*
X145231009Y-61433333D01*
X145231009Y-61433333D02*
X145135771Y-61385714D01*
X145135771Y-61385714D02*
X145088152Y-61290476D01*
X145088152Y-61290476D02*
X145088152Y-61100000D01*
X145088152Y-61100000D02*
X145135771Y-61004762D01*
X145135771Y-61004762D02*
X145231009Y-60957143D01*
X145231009Y-60957143D02*
X145326247Y-60957143D01*
X145326247Y-60957143D02*
X145421485Y-61433333D01*
X145088152Y-60671428D02*
X145088152Y-60290476D01*
X145754819Y-60528571D02*
X144897676Y-60528571D01*
X144897676Y-60528571D02*
X144802438Y-60480952D01*
X144802438Y-60480952D02*
X144754819Y-60385714D01*
X144754819Y-60385714D02*
X144754819Y-60290476D01*
X145088152Y-60099999D02*
X145088152Y-59719047D01*
X144754819Y-59957142D02*
X145611961Y-59957142D01*
X145611961Y-59957142D02*
X145707200Y-59909523D01*
X145707200Y-59909523D02*
X145754819Y-59814285D01*
X145754819Y-59814285D02*
X145754819Y-59719047D01*
X144707200Y-58671428D02*
X145992914Y-59528570D01*
X145754819Y-58338094D02*
X144754819Y-58338094D01*
X144754819Y-58338094D02*
X145469104Y-58004761D01*
X145469104Y-58004761D02*
X144754819Y-57671428D01*
X144754819Y-57671428D02*
X145754819Y-57671428D01*
X145754819Y-57052380D02*
X145707200Y-57147618D01*
X145707200Y-57147618D02*
X145659580Y-57195237D01*
X145659580Y-57195237D02*
X145564342Y-57242856D01*
X145564342Y-57242856D02*
X145278628Y-57242856D01*
X145278628Y-57242856D02*
X145183390Y-57195237D01*
X145183390Y-57195237D02*
X145135771Y-57147618D01*
X145135771Y-57147618D02*
X145088152Y-57052380D01*
X145088152Y-57052380D02*
X145088152Y-56909523D01*
X145088152Y-56909523D02*
X145135771Y-56814285D01*
X145135771Y-56814285D02*
X145183390Y-56766666D01*
X145183390Y-56766666D02*
X145278628Y-56719047D01*
X145278628Y-56719047D02*
X145564342Y-56719047D01*
X145564342Y-56719047D02*
X145659580Y-56766666D01*
X145659580Y-56766666D02*
X145707200Y-56814285D01*
X145707200Y-56814285D02*
X145754819Y-56909523D01*
X145754819Y-56909523D02*
X145754819Y-57052380D01*
X145088152Y-56290475D02*
X145754819Y-56290475D01*
X145183390Y-56290475D02*
X145135771Y-56242856D01*
X145135771Y-56242856D02*
X145088152Y-56147618D01*
X145088152Y-56147618D02*
X145088152Y-56004761D01*
X145088152Y-56004761D02*
X145135771Y-55909523D01*
X145135771Y-55909523D02*
X145231009Y-55861904D01*
X145231009Y-55861904D02*
X145754819Y-55861904D01*
X145754819Y-55242856D02*
X145707200Y-55338094D01*
X145707200Y-55338094D02*
X145659580Y-55385713D01*
X145659580Y-55385713D02*
X145564342Y-55433332D01*
X145564342Y-55433332D02*
X145278628Y-55433332D01*
X145278628Y-55433332D02*
X145183390Y-55385713D01*
X145183390Y-55385713D02*
X145135771Y-55338094D01*
X145135771Y-55338094D02*
X145088152Y-55242856D01*
X145088152Y-55242856D02*
X145088152Y-55099999D01*
X145088152Y-55099999D02*
X145135771Y-55004761D01*
X145135771Y-55004761D02*
X145183390Y-54957142D01*
X145183390Y-54957142D02*
X145278628Y-54909523D01*
X145278628Y-54909523D02*
X145564342Y-54909523D01*
X145564342Y-54909523D02*
X145659580Y-54957142D01*
X145659580Y-54957142D02*
X145707200Y-55004761D01*
X145707200Y-55004761D02*
X145754819Y-55099999D01*
X145754819Y-55099999D02*
X145754819Y-55242856D01*
X144754819Y-54576189D02*
X144754819Y-53957142D01*
X144754819Y-53957142D02*
X145135771Y-54290475D01*
X145135771Y-54290475D02*
X145135771Y-54147618D01*
X145135771Y-54147618D02*
X145183390Y-54052380D01*
X145183390Y-54052380D02*
X145231009Y-54004761D01*
X145231009Y-54004761D02*
X145326247Y-53957142D01*
X145326247Y-53957142D02*
X145564342Y-53957142D01*
X145564342Y-53957142D02*
X145659580Y-54004761D01*
X145659580Y-54004761D02*
X145707200Y-54052380D01*
X145707200Y-54052380D02*
X145754819Y-54147618D01*
X145754819Y-54147618D02*
X145754819Y-54433332D01*
X145754819Y-54433332D02*
X145707200Y-54528570D01*
X145707200Y-54528570D02*
X145659580Y-54576189D01*
X218238095Y-36629819D02*
X218238095Y-37439342D01*
X218238095Y-37439342D02*
X218285714Y-37534580D01*
X218285714Y-37534580D02*
X218333333Y-37582200D01*
X218333333Y-37582200D02*
X218428571Y-37629819D01*
X218428571Y-37629819D02*
X218619047Y-37629819D01*
X218619047Y-37629819D02*
X218714285Y-37582200D01*
X218714285Y-37582200D02*
X218761904Y-37534580D01*
X218761904Y-37534580D02*
X218809523Y-37439342D01*
X218809523Y-37439342D02*
X218809523Y-36629819D01*
X219809523Y-37629819D02*
X219238095Y-37629819D01*
X219523809Y-37629819D02*
X219523809Y-36629819D01*
X219523809Y-36629819D02*
X219428571Y-36772676D01*
X219428571Y-36772676D02*
X219333333Y-36867914D01*
X219333333Y-36867914D02*
X219238095Y-36915533D01*
X205333332Y-55749819D02*
X204857142Y-55749819D01*
X204857142Y-55749819D02*
X204857142Y-54749819D01*
X206047618Y-55702200D02*
X205952380Y-55749819D01*
X205952380Y-55749819D02*
X205761904Y-55749819D01*
X205761904Y-55749819D02*
X205666666Y-55702200D01*
X205666666Y-55702200D02*
X205619047Y-55606961D01*
X205619047Y-55606961D02*
X205619047Y-55226009D01*
X205619047Y-55226009D02*
X205666666Y-55130771D01*
X205666666Y-55130771D02*
X205761904Y-55083152D01*
X205761904Y-55083152D02*
X205952380Y-55083152D01*
X205952380Y-55083152D02*
X206047618Y-55130771D01*
X206047618Y-55130771D02*
X206095237Y-55226009D01*
X206095237Y-55226009D02*
X206095237Y-55321247D01*
X206095237Y-55321247D02*
X205619047Y-55416485D01*
X206380952Y-55083152D02*
X206761904Y-55083152D01*
X206523809Y-55749819D02*
X206523809Y-54892676D01*
X206523809Y-54892676D02*
X206571428Y-54797438D01*
X206571428Y-54797438D02*
X206666666Y-54749819D01*
X206666666Y-54749819D02*
X206761904Y-54749819D01*
X206952381Y-55083152D02*
X207333333Y-55083152D01*
X207095238Y-54749819D02*
X207095238Y-55606961D01*
X207095238Y-55606961D02*
X207142857Y-55702200D01*
X207142857Y-55702200D02*
X207238095Y-55749819D01*
X207238095Y-55749819D02*
X207333333Y-55749819D01*
X207666667Y-55749819D02*
X207666667Y-54749819D01*
X207666667Y-54749819D02*
X208047619Y-54749819D01*
X208047619Y-54749819D02*
X208142857Y-54797438D01*
X208142857Y-54797438D02*
X208190476Y-54845057D01*
X208190476Y-54845057D02*
X208238095Y-54940295D01*
X208238095Y-54940295D02*
X208238095Y-55083152D01*
X208238095Y-55083152D02*
X208190476Y-55178390D01*
X208190476Y-55178390D02*
X208142857Y-55226009D01*
X208142857Y-55226009D02*
X208047619Y-55273628D01*
X208047619Y-55273628D02*
X207666667Y-55273628D01*
X208666667Y-55749819D02*
X208666667Y-54749819D01*
X208666667Y-54749819D02*
X208904762Y-54749819D01*
X208904762Y-54749819D02*
X209047619Y-54797438D01*
X209047619Y-54797438D02*
X209142857Y-54892676D01*
X209142857Y-54892676D02*
X209190476Y-54987914D01*
X209190476Y-54987914D02*
X209238095Y-55178390D01*
X209238095Y-55178390D02*
X209238095Y-55321247D01*
X209238095Y-55321247D02*
X209190476Y-55511723D01*
X209190476Y-55511723D02*
X209142857Y-55606961D01*
X209142857Y-55606961D02*
X209047619Y-55702200D01*
X209047619Y-55702200D02*
X208904762Y-55749819D01*
X208904762Y-55749819D02*
X208666667Y-55749819D01*
X209571429Y-54749819D02*
X210190476Y-54749819D01*
X210190476Y-54749819D02*
X209857143Y-55130771D01*
X209857143Y-55130771D02*
X210000000Y-55130771D01*
X210000000Y-55130771D02*
X210095238Y-55178390D01*
X210095238Y-55178390D02*
X210142857Y-55226009D01*
X210142857Y-55226009D02*
X210190476Y-55321247D01*
X210190476Y-55321247D02*
X210190476Y-55559342D01*
X210190476Y-55559342D02*
X210142857Y-55654580D01*
X210142857Y-55654580D02*
X210095238Y-55702200D01*
X210095238Y-55702200D02*
X210000000Y-55749819D01*
X210000000Y-55749819D02*
X209714286Y-55749819D01*
X209714286Y-55749819D02*
X209619048Y-55702200D01*
X209619048Y-55702200D02*
X209571429Y-55654580D01*
X192047618Y-95824819D02*
X191714285Y-95348628D01*
X191476190Y-95824819D02*
X191476190Y-94824819D01*
X191476190Y-94824819D02*
X191857142Y-94824819D01*
X191857142Y-94824819D02*
X191952380Y-94872438D01*
X191952380Y-94872438D02*
X191999999Y-94920057D01*
X191999999Y-94920057D02*
X192047618Y-95015295D01*
X192047618Y-95015295D02*
X192047618Y-95158152D01*
X192047618Y-95158152D02*
X191999999Y-95253390D01*
X191999999Y-95253390D02*
X191952380Y-95301009D01*
X191952380Y-95301009D02*
X191857142Y-95348628D01*
X191857142Y-95348628D02*
X191476190Y-95348628D01*
X192952380Y-95824819D02*
X192476190Y-95824819D01*
X192476190Y-95824819D02*
X192476190Y-94824819D01*
X193666666Y-95777200D02*
X193571428Y-95824819D01*
X193571428Y-95824819D02*
X193380952Y-95824819D01*
X193380952Y-95824819D02*
X193285714Y-95777200D01*
X193285714Y-95777200D02*
X193238095Y-95681961D01*
X193238095Y-95681961D02*
X193238095Y-95301009D01*
X193238095Y-95301009D02*
X193285714Y-95205771D01*
X193285714Y-95205771D02*
X193380952Y-95158152D01*
X193380952Y-95158152D02*
X193571428Y-95158152D01*
X193571428Y-95158152D02*
X193666666Y-95205771D01*
X193666666Y-95205771D02*
X193714285Y-95301009D01*
X193714285Y-95301009D02*
X193714285Y-95396247D01*
X193714285Y-95396247D02*
X193238095Y-95491485D01*
X194571428Y-95824819D02*
X194571428Y-94824819D01*
X194571428Y-95777200D02*
X194476190Y-95824819D01*
X194476190Y-95824819D02*
X194285714Y-95824819D01*
X194285714Y-95824819D02*
X194190476Y-95777200D01*
X194190476Y-95777200D02*
X194142857Y-95729580D01*
X194142857Y-95729580D02*
X194095238Y-95634342D01*
X194095238Y-95634342D02*
X194095238Y-95348628D01*
X194095238Y-95348628D02*
X194142857Y-95253390D01*
X194142857Y-95253390D02*
X194190476Y-95205771D01*
X194190476Y-95205771D02*
X194285714Y-95158152D01*
X194285714Y-95158152D02*
X194476190Y-95158152D01*
X194476190Y-95158152D02*
X194571428Y-95205771D01*
X195571428Y-95824819D02*
X195000000Y-95824819D01*
X195285714Y-95824819D02*
X195285714Y-94824819D01*
X195285714Y-94824819D02*
X195190476Y-94967676D01*
X195190476Y-94967676D02*
X195095238Y-95062914D01*
X195095238Y-95062914D02*
X195000000Y-95110533D01*
X201531905Y-89994819D02*
X201531905Y-88994819D01*
X201531905Y-88994819D02*
X201770000Y-88994819D01*
X201770000Y-88994819D02*
X201912857Y-89042438D01*
X201912857Y-89042438D02*
X202008095Y-89137676D01*
X202008095Y-89137676D02*
X202055714Y-89232914D01*
X202055714Y-89232914D02*
X202103333Y-89423390D01*
X202103333Y-89423390D02*
X202103333Y-89566247D01*
X202103333Y-89566247D02*
X202055714Y-89756723D01*
X202055714Y-89756723D02*
X202008095Y-89851961D01*
X202008095Y-89851961D02*
X201912857Y-89947200D01*
X201912857Y-89947200D02*
X201770000Y-89994819D01*
X201770000Y-89994819D02*
X201531905Y-89994819D01*
X202960476Y-89328152D02*
X202960476Y-89994819D01*
X202722381Y-88947200D02*
X202484286Y-89661485D01*
X202484286Y-89661485D02*
X203103333Y-89661485D01*
X196490057Y-50275000D02*
X196442438Y-50370238D01*
X196442438Y-50370238D02*
X196347200Y-50465476D01*
X196347200Y-50465476D02*
X196204342Y-50608333D01*
X196204342Y-50608333D02*
X196156723Y-50703571D01*
X196156723Y-50703571D02*
X196156723Y-50798809D01*
X196394819Y-50751190D02*
X196347200Y-50846428D01*
X196347200Y-50846428D02*
X196251961Y-50941666D01*
X196251961Y-50941666D02*
X196061485Y-50989285D01*
X196061485Y-50989285D02*
X195728152Y-50989285D01*
X195728152Y-50989285D02*
X195537676Y-50941666D01*
X195537676Y-50941666D02*
X195442438Y-50846428D01*
X195442438Y-50846428D02*
X195394819Y-50751190D01*
X195394819Y-50751190D02*
X195394819Y-50560714D01*
X195394819Y-50560714D02*
X195442438Y-50465476D01*
X195442438Y-50465476D02*
X195537676Y-50370238D01*
X195537676Y-50370238D02*
X195728152Y-50322619D01*
X195728152Y-50322619D02*
X196061485Y-50322619D01*
X196061485Y-50322619D02*
X196251961Y-50370238D01*
X196251961Y-50370238D02*
X196347200Y-50465476D01*
X196347200Y-50465476D02*
X196394819Y-50560714D01*
X196394819Y-50560714D02*
X196394819Y-50751190D01*
X196394819Y-49417857D02*
X196394819Y-49894047D01*
X196394819Y-49894047D02*
X195394819Y-49894047D01*
X195490057Y-49132142D02*
X195442438Y-49084523D01*
X195442438Y-49084523D02*
X195394819Y-48989285D01*
X195394819Y-48989285D02*
X195394819Y-48751190D01*
X195394819Y-48751190D02*
X195442438Y-48655952D01*
X195442438Y-48655952D02*
X195490057Y-48608333D01*
X195490057Y-48608333D02*
X195585295Y-48560714D01*
X195585295Y-48560714D02*
X195680533Y-48560714D01*
X195680533Y-48560714D02*
X195823390Y-48608333D01*
X195823390Y-48608333D02*
X196394819Y-49179761D01*
X196394819Y-49179761D02*
X196394819Y-48560714D01*
X205666666Y-58749819D02*
X205190476Y-58749819D01*
X205190476Y-58749819D02*
X205190476Y-57749819D01*
X206523809Y-57797438D02*
X206428571Y-57749819D01*
X206428571Y-57749819D02*
X206285714Y-57749819D01*
X206285714Y-57749819D02*
X206142857Y-57797438D01*
X206142857Y-57797438D02*
X206047619Y-57892676D01*
X206047619Y-57892676D02*
X206000000Y-57987914D01*
X206000000Y-57987914D02*
X205952381Y-58178390D01*
X205952381Y-58178390D02*
X205952381Y-58321247D01*
X205952381Y-58321247D02*
X206000000Y-58511723D01*
X206000000Y-58511723D02*
X206047619Y-58606961D01*
X206047619Y-58606961D02*
X206142857Y-58702200D01*
X206142857Y-58702200D02*
X206285714Y-58749819D01*
X206285714Y-58749819D02*
X206380952Y-58749819D01*
X206380952Y-58749819D02*
X206523809Y-58702200D01*
X206523809Y-58702200D02*
X206571428Y-58654580D01*
X206571428Y-58654580D02*
X206571428Y-58321247D01*
X206571428Y-58321247D02*
X206380952Y-58321247D01*
X207428571Y-58749819D02*
X207428571Y-58226009D01*
X207428571Y-58226009D02*
X207380952Y-58130771D01*
X207380952Y-58130771D02*
X207285714Y-58083152D01*
X207285714Y-58083152D02*
X207095238Y-58083152D01*
X207095238Y-58083152D02*
X207000000Y-58130771D01*
X207428571Y-58702200D02*
X207333333Y-58749819D01*
X207333333Y-58749819D02*
X207095238Y-58749819D01*
X207095238Y-58749819D02*
X207000000Y-58702200D01*
X207000000Y-58702200D02*
X206952381Y-58606961D01*
X206952381Y-58606961D02*
X206952381Y-58511723D01*
X206952381Y-58511723D02*
X207000000Y-58416485D01*
X207000000Y-58416485D02*
X207095238Y-58368866D01*
X207095238Y-58368866D02*
X207333333Y-58368866D01*
X207333333Y-58368866D02*
X207428571Y-58321247D01*
X207761905Y-58083152D02*
X208142857Y-58083152D01*
X207904762Y-57749819D02*
X207904762Y-58606961D01*
X207904762Y-58606961D02*
X207952381Y-58702200D01*
X207952381Y-58702200D02*
X208047619Y-58749819D01*
X208047619Y-58749819D02*
X208142857Y-58749819D01*
X208857143Y-58702200D02*
X208761905Y-58749819D01*
X208761905Y-58749819D02*
X208571429Y-58749819D01*
X208571429Y-58749819D02*
X208476191Y-58702200D01*
X208476191Y-58702200D02*
X208428572Y-58606961D01*
X208428572Y-58606961D02*
X208428572Y-58226009D01*
X208428572Y-58226009D02*
X208476191Y-58130771D01*
X208476191Y-58130771D02*
X208571429Y-58083152D01*
X208571429Y-58083152D02*
X208761905Y-58083152D01*
X208761905Y-58083152D02*
X208857143Y-58130771D01*
X208857143Y-58130771D02*
X208904762Y-58226009D01*
X208904762Y-58226009D02*
X208904762Y-58321247D01*
X208904762Y-58321247D02*
X208428572Y-58416485D01*
X209238096Y-57749819D02*
X209857143Y-57749819D01*
X209857143Y-57749819D02*
X209523810Y-58130771D01*
X209523810Y-58130771D02*
X209666667Y-58130771D01*
X209666667Y-58130771D02*
X209761905Y-58178390D01*
X209761905Y-58178390D02*
X209809524Y-58226009D01*
X209809524Y-58226009D02*
X209857143Y-58321247D01*
X209857143Y-58321247D02*
X209857143Y-58559342D01*
X209857143Y-58559342D02*
X209809524Y-58654580D01*
X209809524Y-58654580D02*
X209761905Y-58702200D01*
X209761905Y-58702200D02*
X209666667Y-58749819D01*
X209666667Y-58749819D02*
X209380953Y-58749819D01*
X209380953Y-58749819D02*
X209285715Y-58702200D01*
X209285715Y-58702200D02*
X209238096Y-58654580D01*
X175710700Y-88933333D02*
X175777366Y-88733333D01*
X175777366Y-88733333D02*
X175777366Y-88400000D01*
X175777366Y-88400000D02*
X175710700Y-88266666D01*
X175710700Y-88266666D02*
X175644033Y-88200000D01*
X175644033Y-88200000D02*
X175510700Y-88133333D01*
X175510700Y-88133333D02*
X175377366Y-88133333D01*
X175377366Y-88133333D02*
X175244033Y-88200000D01*
X175244033Y-88200000D02*
X175177366Y-88266666D01*
X175177366Y-88266666D02*
X175110700Y-88400000D01*
X175110700Y-88400000D02*
X175044033Y-88666666D01*
X175044033Y-88666666D02*
X174977366Y-88800000D01*
X174977366Y-88800000D02*
X174910700Y-88866666D01*
X174910700Y-88866666D02*
X174777366Y-88933333D01*
X174777366Y-88933333D02*
X174644033Y-88933333D01*
X174644033Y-88933333D02*
X174510700Y-88866666D01*
X174510700Y-88866666D02*
X174444033Y-88800000D01*
X174444033Y-88800000D02*
X174377366Y-88666666D01*
X174377366Y-88666666D02*
X174377366Y-88333333D01*
X174377366Y-88333333D02*
X174444033Y-88133333D01*
X175710700Y-87000000D02*
X175777366Y-87133333D01*
X175777366Y-87133333D02*
X175777366Y-87400000D01*
X175777366Y-87400000D02*
X175710700Y-87533333D01*
X175710700Y-87533333D02*
X175577366Y-87600000D01*
X175577366Y-87600000D02*
X175044033Y-87600000D01*
X175044033Y-87600000D02*
X174910700Y-87533333D01*
X174910700Y-87533333D02*
X174844033Y-87400000D01*
X174844033Y-87400000D02*
X174844033Y-87133333D01*
X174844033Y-87133333D02*
X174910700Y-87000000D01*
X174910700Y-87000000D02*
X175044033Y-86933333D01*
X175044033Y-86933333D02*
X175177366Y-86933333D01*
X175177366Y-86933333D02*
X175310700Y-87600000D01*
X174844033Y-86333333D02*
X175777366Y-86333333D01*
X174977366Y-86333333D02*
X174910700Y-86266667D01*
X174910700Y-86266667D02*
X174844033Y-86133333D01*
X174844033Y-86133333D02*
X174844033Y-85933333D01*
X174844033Y-85933333D02*
X174910700Y-85800000D01*
X174910700Y-85800000D02*
X175044033Y-85733333D01*
X175044033Y-85733333D02*
X175777366Y-85733333D01*
X175777366Y-84466666D02*
X174377366Y-84466666D01*
X175710700Y-84466666D02*
X175777366Y-84600000D01*
X175777366Y-84600000D02*
X175777366Y-84866666D01*
X175777366Y-84866666D02*
X175710700Y-85000000D01*
X175710700Y-85000000D02*
X175644033Y-85066666D01*
X175644033Y-85066666D02*
X175510700Y-85133333D01*
X175510700Y-85133333D02*
X175110700Y-85133333D01*
X175110700Y-85133333D02*
X174977366Y-85066666D01*
X174977366Y-85066666D02*
X174910700Y-85000000D01*
X174910700Y-85000000D02*
X174844033Y-84866666D01*
X174844033Y-84866666D02*
X174844033Y-84600000D01*
X174844033Y-84600000D02*
X174910700Y-84466666D01*
X174510700Y-83866666D02*
X174444033Y-83799999D01*
X174444033Y-83799999D02*
X174377366Y-83666666D01*
X174377366Y-83666666D02*
X174377366Y-83333333D01*
X174377366Y-83333333D02*
X174444033Y-83199999D01*
X174444033Y-83199999D02*
X174510700Y-83133333D01*
X174510700Y-83133333D02*
X174644033Y-83066666D01*
X174644033Y-83066666D02*
X174777366Y-83066666D01*
X174777366Y-83066666D02*
X174977366Y-83133333D01*
X174977366Y-83133333D02*
X175777366Y-83933333D01*
X175777366Y-83933333D02*
X175777366Y-83066666D01*
X190554819Y-61219048D02*
X190554819Y-61695238D01*
X190554819Y-61695238D02*
X189554819Y-61695238D01*
X190507200Y-60504762D02*
X190554819Y-60600000D01*
X190554819Y-60600000D02*
X190554819Y-60790476D01*
X190554819Y-60790476D02*
X190507200Y-60885714D01*
X190507200Y-60885714D02*
X190411961Y-60933333D01*
X190411961Y-60933333D02*
X190031009Y-60933333D01*
X190031009Y-60933333D02*
X189935771Y-60885714D01*
X189935771Y-60885714D02*
X189888152Y-60790476D01*
X189888152Y-60790476D02*
X189888152Y-60600000D01*
X189888152Y-60600000D02*
X189935771Y-60504762D01*
X189935771Y-60504762D02*
X190031009Y-60457143D01*
X190031009Y-60457143D02*
X190126247Y-60457143D01*
X190126247Y-60457143D02*
X190221485Y-60933333D01*
X189888152Y-60171428D02*
X189888152Y-59790476D01*
X190554819Y-60028571D02*
X189697676Y-60028571D01*
X189697676Y-60028571D02*
X189602438Y-59980952D01*
X189602438Y-59980952D02*
X189554819Y-59885714D01*
X189554819Y-59885714D02*
X189554819Y-59790476D01*
X189888152Y-59599999D02*
X189888152Y-59219047D01*
X189554819Y-59457142D02*
X190411961Y-59457142D01*
X190411961Y-59457142D02*
X190507200Y-59409523D01*
X190507200Y-59409523D02*
X190554819Y-59314285D01*
X190554819Y-59314285D02*
X190554819Y-59219047D01*
X189507200Y-58171428D02*
X190792914Y-59028570D01*
X190554819Y-57838094D02*
X189554819Y-57838094D01*
X189554819Y-57838094D02*
X190269104Y-57504761D01*
X190269104Y-57504761D02*
X189554819Y-57171428D01*
X189554819Y-57171428D02*
X190554819Y-57171428D01*
X190554819Y-56552380D02*
X190507200Y-56647618D01*
X190507200Y-56647618D02*
X190459580Y-56695237D01*
X190459580Y-56695237D02*
X190364342Y-56742856D01*
X190364342Y-56742856D02*
X190078628Y-56742856D01*
X190078628Y-56742856D02*
X189983390Y-56695237D01*
X189983390Y-56695237D02*
X189935771Y-56647618D01*
X189935771Y-56647618D02*
X189888152Y-56552380D01*
X189888152Y-56552380D02*
X189888152Y-56409523D01*
X189888152Y-56409523D02*
X189935771Y-56314285D01*
X189935771Y-56314285D02*
X189983390Y-56266666D01*
X189983390Y-56266666D02*
X190078628Y-56219047D01*
X190078628Y-56219047D02*
X190364342Y-56219047D01*
X190364342Y-56219047D02*
X190459580Y-56266666D01*
X190459580Y-56266666D02*
X190507200Y-56314285D01*
X190507200Y-56314285D02*
X190554819Y-56409523D01*
X190554819Y-56409523D02*
X190554819Y-56552380D01*
X189888152Y-55790475D02*
X190554819Y-55790475D01*
X189983390Y-55790475D02*
X189935771Y-55742856D01*
X189935771Y-55742856D02*
X189888152Y-55647618D01*
X189888152Y-55647618D02*
X189888152Y-55504761D01*
X189888152Y-55504761D02*
X189935771Y-55409523D01*
X189935771Y-55409523D02*
X190031009Y-55361904D01*
X190031009Y-55361904D02*
X190554819Y-55361904D01*
X190554819Y-54742856D02*
X190507200Y-54838094D01*
X190507200Y-54838094D02*
X190459580Y-54885713D01*
X190459580Y-54885713D02*
X190364342Y-54933332D01*
X190364342Y-54933332D02*
X190078628Y-54933332D01*
X190078628Y-54933332D02*
X189983390Y-54885713D01*
X189983390Y-54885713D02*
X189935771Y-54838094D01*
X189935771Y-54838094D02*
X189888152Y-54742856D01*
X189888152Y-54742856D02*
X189888152Y-54599999D01*
X189888152Y-54599999D02*
X189935771Y-54504761D01*
X189935771Y-54504761D02*
X189983390Y-54457142D01*
X189983390Y-54457142D02*
X190078628Y-54409523D01*
X190078628Y-54409523D02*
X190364342Y-54409523D01*
X190364342Y-54409523D02*
X190459580Y-54457142D01*
X190459580Y-54457142D02*
X190507200Y-54504761D01*
X190507200Y-54504761D02*
X190554819Y-54599999D01*
X190554819Y-54599999D02*
X190554819Y-54742856D01*
X190554819Y-53457142D02*
X190554819Y-54028570D01*
X190554819Y-53742856D02*
X189554819Y-53742856D01*
X189554819Y-53742856D02*
X189697676Y-53838094D01*
X189697676Y-53838094D02*
X189792914Y-53933332D01*
X189792914Y-53933332D02*
X189840533Y-54028570D01*
X196490057Y-44485000D02*
X196442438Y-44580238D01*
X196442438Y-44580238D02*
X196347200Y-44675476D01*
X196347200Y-44675476D02*
X196204342Y-44818333D01*
X196204342Y-44818333D02*
X196156723Y-44913571D01*
X196156723Y-44913571D02*
X196156723Y-45008809D01*
X196394819Y-44961190D02*
X196347200Y-45056428D01*
X196347200Y-45056428D02*
X196251961Y-45151666D01*
X196251961Y-45151666D02*
X196061485Y-45199285D01*
X196061485Y-45199285D02*
X195728152Y-45199285D01*
X195728152Y-45199285D02*
X195537676Y-45151666D01*
X195537676Y-45151666D02*
X195442438Y-45056428D01*
X195442438Y-45056428D02*
X195394819Y-44961190D01*
X195394819Y-44961190D02*
X195394819Y-44770714D01*
X195394819Y-44770714D02*
X195442438Y-44675476D01*
X195442438Y-44675476D02*
X195537676Y-44580238D01*
X195537676Y-44580238D02*
X195728152Y-44532619D01*
X195728152Y-44532619D02*
X196061485Y-44532619D01*
X196061485Y-44532619D02*
X196251961Y-44580238D01*
X196251961Y-44580238D02*
X196347200Y-44675476D01*
X196347200Y-44675476D02*
X196394819Y-44770714D01*
X196394819Y-44770714D02*
X196394819Y-44961190D01*
X196394819Y-43627857D02*
X196394819Y-44104047D01*
X196394819Y-44104047D02*
X195394819Y-44104047D01*
X196394819Y-42770714D02*
X196394819Y-43342142D01*
X196394819Y-43056428D02*
X195394819Y-43056428D01*
X195394819Y-43056428D02*
X195537676Y-43151666D01*
X195537676Y-43151666D02*
X195632914Y-43246904D01*
X195632914Y-43246904D02*
X195680533Y-43342142D01*
X224795952Y-76839819D02*
X224319762Y-76839819D01*
X224319762Y-76839819D02*
X224319762Y-75839819D01*
X225843571Y-75792200D02*
X224986429Y-77077914D01*
X226176905Y-76839819D02*
X226176905Y-75839819D01*
X226176905Y-75839819D02*
X226510238Y-76554104D01*
X226510238Y-76554104D02*
X226843571Y-75839819D01*
X226843571Y-75839819D02*
X226843571Y-76839819D01*
X227462619Y-76839819D02*
X227367381Y-76792200D01*
X227367381Y-76792200D02*
X227319762Y-76744580D01*
X227319762Y-76744580D02*
X227272143Y-76649342D01*
X227272143Y-76649342D02*
X227272143Y-76363628D01*
X227272143Y-76363628D02*
X227319762Y-76268390D01*
X227319762Y-76268390D02*
X227367381Y-76220771D01*
X227367381Y-76220771D02*
X227462619Y-76173152D01*
X227462619Y-76173152D02*
X227605476Y-76173152D01*
X227605476Y-76173152D02*
X227700714Y-76220771D01*
X227700714Y-76220771D02*
X227748333Y-76268390D01*
X227748333Y-76268390D02*
X227795952Y-76363628D01*
X227795952Y-76363628D02*
X227795952Y-76649342D01*
X227795952Y-76649342D02*
X227748333Y-76744580D01*
X227748333Y-76744580D02*
X227700714Y-76792200D01*
X227700714Y-76792200D02*
X227605476Y-76839819D01*
X227605476Y-76839819D02*
X227462619Y-76839819D01*
X228224524Y-76173152D02*
X228224524Y-76839819D01*
X228224524Y-76268390D02*
X228272143Y-76220771D01*
X228272143Y-76220771D02*
X228367381Y-76173152D01*
X228367381Y-76173152D02*
X228510238Y-76173152D01*
X228510238Y-76173152D02*
X228605476Y-76220771D01*
X228605476Y-76220771D02*
X228653095Y-76316009D01*
X228653095Y-76316009D02*
X228653095Y-76839819D01*
X229272143Y-76839819D02*
X229176905Y-76792200D01*
X229176905Y-76792200D02*
X229129286Y-76744580D01*
X229129286Y-76744580D02*
X229081667Y-76649342D01*
X229081667Y-76649342D02*
X229081667Y-76363628D01*
X229081667Y-76363628D02*
X229129286Y-76268390D01*
X229129286Y-76268390D02*
X229176905Y-76220771D01*
X229176905Y-76220771D02*
X229272143Y-76173152D01*
X229272143Y-76173152D02*
X229415000Y-76173152D01*
X229415000Y-76173152D02*
X229510238Y-76220771D01*
X229510238Y-76220771D02*
X229557857Y-76268390D01*
X229557857Y-76268390D02*
X229605476Y-76363628D01*
X229605476Y-76363628D02*
X229605476Y-76649342D01*
X229605476Y-76649342D02*
X229557857Y-76744580D01*
X229557857Y-76744580D02*
X229510238Y-76792200D01*
X229510238Y-76792200D02*
X229415000Y-76839819D01*
X229415000Y-76839819D02*
X229272143Y-76839819D01*
X230557857Y-76839819D02*
X229986429Y-76839819D01*
X230272143Y-76839819D02*
X230272143Y-75839819D01*
X230272143Y-75839819D02*
X230176905Y-75982676D01*
X230176905Y-75982676D02*
X230081667Y-76077914D01*
X230081667Y-76077914D02*
X229986429Y-76125533D01*
X188354819Y-47995238D02*
X187878628Y-48328571D01*
X188354819Y-48566666D02*
X187354819Y-48566666D01*
X187354819Y-48566666D02*
X187354819Y-48185714D01*
X187354819Y-48185714D02*
X187402438Y-48090476D01*
X187402438Y-48090476D02*
X187450057Y-48042857D01*
X187450057Y-48042857D02*
X187545295Y-47995238D01*
X187545295Y-47995238D02*
X187688152Y-47995238D01*
X187688152Y-47995238D02*
X187783390Y-48042857D01*
X187783390Y-48042857D02*
X187831009Y-48090476D01*
X187831009Y-48090476D02*
X187878628Y-48185714D01*
X187878628Y-48185714D02*
X187878628Y-48566666D01*
X188354819Y-47566666D02*
X187688152Y-47566666D01*
X187354819Y-47566666D02*
X187402438Y-47614285D01*
X187402438Y-47614285D02*
X187450057Y-47566666D01*
X187450057Y-47566666D02*
X187402438Y-47519047D01*
X187402438Y-47519047D02*
X187354819Y-47566666D01*
X187354819Y-47566666D02*
X187450057Y-47566666D01*
X187688152Y-46661905D02*
X188497676Y-46661905D01*
X188497676Y-46661905D02*
X188592914Y-46709524D01*
X188592914Y-46709524D02*
X188640533Y-46757143D01*
X188640533Y-46757143D02*
X188688152Y-46852381D01*
X188688152Y-46852381D02*
X188688152Y-46995238D01*
X188688152Y-46995238D02*
X188640533Y-47090476D01*
X188307200Y-46661905D02*
X188354819Y-46757143D01*
X188354819Y-46757143D02*
X188354819Y-46947619D01*
X188354819Y-46947619D02*
X188307200Y-47042857D01*
X188307200Y-47042857D02*
X188259580Y-47090476D01*
X188259580Y-47090476D02*
X188164342Y-47138095D01*
X188164342Y-47138095D02*
X187878628Y-47138095D01*
X187878628Y-47138095D02*
X187783390Y-47090476D01*
X187783390Y-47090476D02*
X187735771Y-47042857D01*
X187735771Y-47042857D02*
X187688152Y-46947619D01*
X187688152Y-46947619D02*
X187688152Y-46757143D01*
X187688152Y-46757143D02*
X187735771Y-46661905D01*
X188354819Y-46185714D02*
X187354819Y-46185714D01*
X188354819Y-45757143D02*
X187831009Y-45757143D01*
X187831009Y-45757143D02*
X187735771Y-45804762D01*
X187735771Y-45804762D02*
X187688152Y-45900000D01*
X187688152Y-45900000D02*
X187688152Y-46042857D01*
X187688152Y-46042857D02*
X187735771Y-46138095D01*
X187735771Y-46138095D02*
X187783390Y-46185714D01*
X187688152Y-45423809D02*
X187688152Y-45042857D01*
X187354819Y-45280952D02*
X188211961Y-45280952D01*
X188211961Y-45280952D02*
X188307200Y-45233333D01*
X188307200Y-45233333D02*
X188354819Y-45138095D01*
X188354819Y-45138095D02*
X188354819Y-45042857D01*
X188354819Y-44185714D02*
X188354819Y-44757142D01*
X188354819Y-44471428D02*
X187354819Y-44471428D01*
X187354819Y-44471428D02*
X187497676Y-44566666D01*
X187497676Y-44566666D02*
X187592914Y-44661904D01*
X187592914Y-44661904D02*
X187640533Y-44757142D01*
X120852438Y-93952381D02*
X120804819Y-94047619D01*
X120804819Y-94047619D02*
X120804819Y-94190476D01*
X120804819Y-94190476D02*
X120852438Y-94333333D01*
X120852438Y-94333333D02*
X120947676Y-94428571D01*
X120947676Y-94428571D02*
X121042914Y-94476190D01*
X121042914Y-94476190D02*
X121233390Y-94523809D01*
X121233390Y-94523809D02*
X121376247Y-94523809D01*
X121376247Y-94523809D02*
X121566723Y-94476190D01*
X121566723Y-94476190D02*
X121661961Y-94428571D01*
X121661961Y-94428571D02*
X121757200Y-94333333D01*
X121757200Y-94333333D02*
X121804819Y-94190476D01*
X121804819Y-94190476D02*
X121804819Y-94095238D01*
X121804819Y-94095238D02*
X121757200Y-93952381D01*
X121757200Y-93952381D02*
X121709580Y-93904762D01*
X121709580Y-93904762D02*
X121376247Y-93904762D01*
X121376247Y-93904762D02*
X121376247Y-94095238D01*
X121900057Y-93714286D02*
X121900057Y-92952381D01*
X121804819Y-92571428D02*
X121757200Y-92666666D01*
X121757200Y-92666666D02*
X121661961Y-92714285D01*
X121661961Y-92714285D02*
X120804819Y-92714285D01*
X121804819Y-92190475D02*
X121138152Y-92190475D01*
X120804819Y-92190475D02*
X120852438Y-92238094D01*
X120852438Y-92238094D02*
X120900057Y-92190475D01*
X120900057Y-92190475D02*
X120852438Y-92142856D01*
X120852438Y-92142856D02*
X120804819Y-92190475D01*
X120804819Y-92190475D02*
X120900057Y-92190475D01*
X121138152Y-91714285D02*
X121804819Y-91714285D01*
X121233390Y-91714285D02*
X121185771Y-91666666D01*
X121185771Y-91666666D02*
X121138152Y-91571428D01*
X121138152Y-91571428D02*
X121138152Y-91428571D01*
X121138152Y-91428571D02*
X121185771Y-91333333D01*
X121185771Y-91333333D02*
X121281009Y-91285714D01*
X121281009Y-91285714D02*
X121804819Y-91285714D01*
X121804819Y-90809523D02*
X120804819Y-90809523D01*
X121423866Y-90714285D02*
X121804819Y-90428571D01*
X121138152Y-90428571D02*
X121519104Y-90809523D01*
X121804819Y-89476190D02*
X121804819Y-90047618D01*
X121804819Y-89761904D02*
X120804819Y-89761904D01*
X120804819Y-89761904D02*
X120947676Y-89857142D01*
X120947676Y-89857142D02*
X121042914Y-89952380D01*
X121042914Y-89952380D02*
X121090533Y-90047618D01*
X124239866Y-87833333D02*
X123573200Y-88300000D01*
X124239866Y-88633333D02*
X122839866Y-88633333D01*
X122839866Y-88633333D02*
X122839866Y-88100000D01*
X122839866Y-88100000D02*
X122906533Y-87966667D01*
X122906533Y-87966667D02*
X122973200Y-87900000D01*
X122973200Y-87900000D02*
X123106533Y-87833333D01*
X123106533Y-87833333D02*
X123306533Y-87833333D01*
X123306533Y-87833333D02*
X123439866Y-87900000D01*
X123439866Y-87900000D02*
X123506533Y-87966667D01*
X123506533Y-87966667D02*
X123573200Y-88100000D01*
X123573200Y-88100000D02*
X123573200Y-88633333D01*
X124173200Y-86700000D02*
X124239866Y-86833333D01*
X124239866Y-86833333D02*
X124239866Y-87100000D01*
X124239866Y-87100000D02*
X124173200Y-87233333D01*
X124173200Y-87233333D02*
X124039866Y-87300000D01*
X124039866Y-87300000D02*
X123506533Y-87300000D01*
X123506533Y-87300000D02*
X123373200Y-87233333D01*
X123373200Y-87233333D02*
X123306533Y-87100000D01*
X123306533Y-87100000D02*
X123306533Y-86833333D01*
X123306533Y-86833333D02*
X123373200Y-86700000D01*
X123373200Y-86700000D02*
X123506533Y-86633333D01*
X123506533Y-86633333D02*
X123639866Y-86633333D01*
X123639866Y-86633333D02*
X123773200Y-87300000D01*
X123306533Y-86233333D02*
X123306533Y-85700000D01*
X122839866Y-86033333D02*
X124039866Y-86033333D01*
X124039866Y-86033333D02*
X124173200Y-85966667D01*
X124173200Y-85966667D02*
X124239866Y-85833333D01*
X124239866Y-85833333D02*
X124239866Y-85700000D01*
X123306533Y-84633333D02*
X124239866Y-84633333D01*
X123306533Y-85233333D02*
X124039866Y-85233333D01*
X124039866Y-85233333D02*
X124173200Y-85166667D01*
X124173200Y-85166667D02*
X124239866Y-85033333D01*
X124239866Y-85033333D02*
X124239866Y-84833333D01*
X124239866Y-84833333D02*
X124173200Y-84700000D01*
X124173200Y-84700000D02*
X124106533Y-84633333D01*
X124239866Y-83966666D02*
X123306533Y-83966666D01*
X123573200Y-83966666D02*
X123439866Y-83900000D01*
X123439866Y-83900000D02*
X123373200Y-83833333D01*
X123373200Y-83833333D02*
X123306533Y-83700000D01*
X123306533Y-83700000D02*
X123306533Y-83566666D01*
X123306533Y-83099999D02*
X124239866Y-83099999D01*
X123439866Y-83099999D02*
X123373200Y-83033333D01*
X123373200Y-83033333D02*
X123306533Y-82899999D01*
X123306533Y-82899999D02*
X123306533Y-82699999D01*
X123306533Y-82699999D02*
X123373200Y-82566666D01*
X123373200Y-82566666D02*
X123506533Y-82499999D01*
X123506533Y-82499999D02*
X124239866Y-82499999D01*
X122839866Y-81966666D02*
X122839866Y-81099999D01*
X122839866Y-81099999D02*
X123373200Y-81566666D01*
X123373200Y-81566666D02*
X123373200Y-81366666D01*
X123373200Y-81366666D02*
X123439866Y-81233332D01*
X123439866Y-81233332D02*
X123506533Y-81166666D01*
X123506533Y-81166666D02*
X123639866Y-81099999D01*
X123639866Y-81099999D02*
X123973200Y-81099999D01*
X123973200Y-81099999D02*
X124106533Y-81166666D01*
X124106533Y-81166666D02*
X124173200Y-81233332D01*
X124173200Y-81233332D02*
X124239866Y-81366666D01*
X124239866Y-81366666D02*
X124239866Y-81766666D01*
X124239866Y-81766666D02*
X124173200Y-81899999D01*
X124173200Y-81899999D02*
X124106533Y-81966666D01*
X203957142Y-73354819D02*
X203957142Y-72354819D01*
X204433332Y-72688152D02*
X204433332Y-73354819D01*
X204433332Y-72783390D02*
X204480951Y-72735771D01*
X204480951Y-72735771D02*
X204576189Y-72688152D01*
X204576189Y-72688152D02*
X204719046Y-72688152D01*
X204719046Y-72688152D02*
X204814284Y-72735771D01*
X204814284Y-72735771D02*
X204861903Y-72831009D01*
X204861903Y-72831009D02*
X204861903Y-73354819D01*
X205338094Y-72688152D02*
X205338094Y-73688152D01*
X205338094Y-72735771D02*
X205433332Y-72688152D01*
X205433332Y-72688152D02*
X205623808Y-72688152D01*
X205623808Y-72688152D02*
X205719046Y-72735771D01*
X205719046Y-72735771D02*
X205766665Y-72783390D01*
X205766665Y-72783390D02*
X205814284Y-72878628D01*
X205814284Y-72878628D02*
X205814284Y-73164342D01*
X205814284Y-73164342D02*
X205766665Y-73259580D01*
X205766665Y-73259580D02*
X205719046Y-73307200D01*
X205719046Y-73307200D02*
X205623808Y-73354819D01*
X205623808Y-73354819D02*
X205433332Y-73354819D01*
X205433332Y-73354819D02*
X205338094Y-73307200D01*
X206671427Y-72688152D02*
X206671427Y-73354819D01*
X206242856Y-72688152D02*
X206242856Y-73211961D01*
X206242856Y-73211961D02*
X206290475Y-73307200D01*
X206290475Y-73307200D02*
X206385713Y-73354819D01*
X206385713Y-73354819D02*
X206528570Y-73354819D01*
X206528570Y-73354819D02*
X206623808Y-73307200D01*
X206623808Y-73307200D02*
X206671427Y-73259580D01*
X207004761Y-72688152D02*
X207385713Y-72688152D01*
X207147618Y-72354819D02*
X207147618Y-73211961D01*
X207147618Y-73211961D02*
X207195237Y-73307200D01*
X207195237Y-73307200D02*
X207290475Y-73354819D01*
X207290475Y-73354819D02*
X207385713Y-73354819D01*
X208290475Y-73354819D02*
X207957142Y-72878628D01*
X207719047Y-73354819D02*
X207719047Y-72354819D01*
X207719047Y-72354819D02*
X208099999Y-72354819D01*
X208099999Y-72354819D02*
X208195237Y-72402438D01*
X208195237Y-72402438D02*
X208242856Y-72450057D01*
X208242856Y-72450057D02*
X208290475Y-72545295D01*
X208290475Y-72545295D02*
X208290475Y-72688152D01*
X208290475Y-72688152D02*
X208242856Y-72783390D01*
X208242856Y-72783390D02*
X208195237Y-72831009D01*
X208195237Y-72831009D02*
X208099999Y-72878628D01*
X208099999Y-72878628D02*
X207719047Y-72878628D01*
X209099999Y-73307200D02*
X209004761Y-73354819D01*
X209004761Y-73354819D02*
X208814285Y-73354819D01*
X208814285Y-73354819D02*
X208719047Y-73307200D01*
X208719047Y-73307200D02*
X208671428Y-73211961D01*
X208671428Y-73211961D02*
X208671428Y-72831009D01*
X208671428Y-72831009D02*
X208719047Y-72735771D01*
X208719047Y-72735771D02*
X208814285Y-72688152D01*
X208814285Y-72688152D02*
X209004761Y-72688152D01*
X209004761Y-72688152D02*
X209099999Y-72735771D01*
X209099999Y-72735771D02*
X209147618Y-72831009D01*
X209147618Y-72831009D02*
X209147618Y-72926247D01*
X209147618Y-72926247D02*
X208671428Y-73021485D01*
X209719047Y-73354819D02*
X209623809Y-73307200D01*
X209623809Y-73307200D02*
X209576190Y-73211961D01*
X209576190Y-73211961D02*
X209576190Y-72354819D01*
X210528571Y-73354819D02*
X210528571Y-72831009D01*
X210528571Y-72831009D02*
X210480952Y-72735771D01*
X210480952Y-72735771D02*
X210385714Y-72688152D01*
X210385714Y-72688152D02*
X210195238Y-72688152D01*
X210195238Y-72688152D02*
X210100000Y-72735771D01*
X210528571Y-73307200D02*
X210433333Y-73354819D01*
X210433333Y-73354819D02*
X210195238Y-73354819D01*
X210195238Y-73354819D02*
X210100000Y-73307200D01*
X210100000Y-73307200D02*
X210052381Y-73211961D01*
X210052381Y-73211961D02*
X210052381Y-73116723D01*
X210052381Y-73116723D02*
X210100000Y-73021485D01*
X210100000Y-73021485D02*
X210195238Y-72973866D01*
X210195238Y-72973866D02*
X210433333Y-72973866D01*
X210433333Y-72973866D02*
X210528571Y-72926247D01*
X210909524Y-72688152D02*
X211147619Y-73354819D01*
X211385714Y-72688152D02*
X211147619Y-73354819D01*
X211147619Y-73354819D02*
X211052381Y-73592914D01*
X211052381Y-73592914D02*
X211004762Y-73640533D01*
X211004762Y-73640533D02*
X210909524Y-73688152D01*
X212290476Y-73354819D02*
X211719048Y-73354819D01*
X212004762Y-73354819D02*
X212004762Y-72354819D01*
X212004762Y-72354819D02*
X211909524Y-72497676D01*
X211909524Y-72497676D02*
X211814286Y-72592914D01*
X211814286Y-72592914D02*
X211719048Y-72640533D01*
X205666666Y-51749819D02*
X205190476Y-51749819D01*
X205190476Y-51749819D02*
X205190476Y-50749819D01*
X206523809Y-50797438D02*
X206428571Y-50749819D01*
X206428571Y-50749819D02*
X206285714Y-50749819D01*
X206285714Y-50749819D02*
X206142857Y-50797438D01*
X206142857Y-50797438D02*
X206047619Y-50892676D01*
X206047619Y-50892676D02*
X206000000Y-50987914D01*
X206000000Y-50987914D02*
X205952381Y-51178390D01*
X205952381Y-51178390D02*
X205952381Y-51321247D01*
X205952381Y-51321247D02*
X206000000Y-51511723D01*
X206000000Y-51511723D02*
X206047619Y-51606961D01*
X206047619Y-51606961D02*
X206142857Y-51702200D01*
X206142857Y-51702200D02*
X206285714Y-51749819D01*
X206285714Y-51749819D02*
X206380952Y-51749819D01*
X206380952Y-51749819D02*
X206523809Y-51702200D01*
X206523809Y-51702200D02*
X206571428Y-51654580D01*
X206571428Y-51654580D02*
X206571428Y-51321247D01*
X206571428Y-51321247D02*
X206380952Y-51321247D01*
X207428571Y-51749819D02*
X207428571Y-51226009D01*
X207428571Y-51226009D02*
X207380952Y-51130771D01*
X207380952Y-51130771D02*
X207285714Y-51083152D01*
X207285714Y-51083152D02*
X207095238Y-51083152D01*
X207095238Y-51083152D02*
X207000000Y-51130771D01*
X207428571Y-51702200D02*
X207333333Y-51749819D01*
X207333333Y-51749819D02*
X207095238Y-51749819D01*
X207095238Y-51749819D02*
X207000000Y-51702200D01*
X207000000Y-51702200D02*
X206952381Y-51606961D01*
X206952381Y-51606961D02*
X206952381Y-51511723D01*
X206952381Y-51511723D02*
X207000000Y-51416485D01*
X207000000Y-51416485D02*
X207095238Y-51368866D01*
X207095238Y-51368866D02*
X207333333Y-51368866D01*
X207333333Y-51368866D02*
X207428571Y-51321247D01*
X207761905Y-51083152D02*
X208142857Y-51083152D01*
X207904762Y-50749819D02*
X207904762Y-51606961D01*
X207904762Y-51606961D02*
X207952381Y-51702200D01*
X207952381Y-51702200D02*
X208047619Y-51749819D01*
X208047619Y-51749819D02*
X208142857Y-51749819D01*
X208857143Y-51702200D02*
X208761905Y-51749819D01*
X208761905Y-51749819D02*
X208571429Y-51749819D01*
X208571429Y-51749819D02*
X208476191Y-51702200D01*
X208476191Y-51702200D02*
X208428572Y-51606961D01*
X208428572Y-51606961D02*
X208428572Y-51226009D01*
X208428572Y-51226009D02*
X208476191Y-51130771D01*
X208476191Y-51130771D02*
X208571429Y-51083152D01*
X208571429Y-51083152D02*
X208761905Y-51083152D01*
X208761905Y-51083152D02*
X208857143Y-51130771D01*
X208857143Y-51130771D02*
X208904762Y-51226009D01*
X208904762Y-51226009D02*
X208904762Y-51321247D01*
X208904762Y-51321247D02*
X208428572Y-51416485D01*
X209285715Y-50845057D02*
X209333334Y-50797438D01*
X209333334Y-50797438D02*
X209428572Y-50749819D01*
X209428572Y-50749819D02*
X209666667Y-50749819D01*
X209666667Y-50749819D02*
X209761905Y-50797438D01*
X209761905Y-50797438D02*
X209809524Y-50845057D01*
X209809524Y-50845057D02*
X209857143Y-50940295D01*
X209857143Y-50940295D02*
X209857143Y-51035533D01*
X209857143Y-51035533D02*
X209809524Y-51178390D01*
X209809524Y-51178390D02*
X209238096Y-51749819D01*
X209238096Y-51749819D02*
X209857143Y-51749819D01*
X205666666Y-45749819D02*
X205190476Y-45749819D01*
X205190476Y-45749819D02*
X205190476Y-44749819D01*
X206523809Y-44797438D02*
X206428571Y-44749819D01*
X206428571Y-44749819D02*
X206285714Y-44749819D01*
X206285714Y-44749819D02*
X206142857Y-44797438D01*
X206142857Y-44797438D02*
X206047619Y-44892676D01*
X206047619Y-44892676D02*
X206000000Y-44987914D01*
X206000000Y-44987914D02*
X205952381Y-45178390D01*
X205952381Y-45178390D02*
X205952381Y-45321247D01*
X205952381Y-45321247D02*
X206000000Y-45511723D01*
X206000000Y-45511723D02*
X206047619Y-45606961D01*
X206047619Y-45606961D02*
X206142857Y-45702200D01*
X206142857Y-45702200D02*
X206285714Y-45749819D01*
X206285714Y-45749819D02*
X206380952Y-45749819D01*
X206380952Y-45749819D02*
X206523809Y-45702200D01*
X206523809Y-45702200D02*
X206571428Y-45654580D01*
X206571428Y-45654580D02*
X206571428Y-45321247D01*
X206571428Y-45321247D02*
X206380952Y-45321247D01*
X207428571Y-45749819D02*
X207428571Y-45226009D01*
X207428571Y-45226009D02*
X207380952Y-45130771D01*
X207380952Y-45130771D02*
X207285714Y-45083152D01*
X207285714Y-45083152D02*
X207095238Y-45083152D01*
X207095238Y-45083152D02*
X207000000Y-45130771D01*
X207428571Y-45702200D02*
X207333333Y-45749819D01*
X207333333Y-45749819D02*
X207095238Y-45749819D01*
X207095238Y-45749819D02*
X207000000Y-45702200D01*
X207000000Y-45702200D02*
X206952381Y-45606961D01*
X206952381Y-45606961D02*
X206952381Y-45511723D01*
X206952381Y-45511723D02*
X207000000Y-45416485D01*
X207000000Y-45416485D02*
X207095238Y-45368866D01*
X207095238Y-45368866D02*
X207333333Y-45368866D01*
X207333333Y-45368866D02*
X207428571Y-45321247D01*
X207761905Y-45083152D02*
X208142857Y-45083152D01*
X207904762Y-44749819D02*
X207904762Y-45606961D01*
X207904762Y-45606961D02*
X207952381Y-45702200D01*
X207952381Y-45702200D02*
X208047619Y-45749819D01*
X208047619Y-45749819D02*
X208142857Y-45749819D01*
X208857143Y-45702200D02*
X208761905Y-45749819D01*
X208761905Y-45749819D02*
X208571429Y-45749819D01*
X208571429Y-45749819D02*
X208476191Y-45702200D01*
X208476191Y-45702200D02*
X208428572Y-45606961D01*
X208428572Y-45606961D02*
X208428572Y-45226009D01*
X208428572Y-45226009D02*
X208476191Y-45130771D01*
X208476191Y-45130771D02*
X208571429Y-45083152D01*
X208571429Y-45083152D02*
X208761905Y-45083152D01*
X208761905Y-45083152D02*
X208857143Y-45130771D01*
X208857143Y-45130771D02*
X208904762Y-45226009D01*
X208904762Y-45226009D02*
X208904762Y-45321247D01*
X208904762Y-45321247D02*
X208428572Y-45416485D01*
X209857143Y-45749819D02*
X209285715Y-45749819D01*
X209571429Y-45749819D02*
X209571429Y-44749819D01*
X209571429Y-44749819D02*
X209476191Y-44892676D01*
X209476191Y-44892676D02*
X209380953Y-44987914D01*
X209380953Y-44987914D02*
X209285715Y-45035533D01*
X127256905Y-89494819D02*
X127256905Y-88494819D01*
X127256905Y-88494819D02*
X127495000Y-88494819D01*
X127495000Y-88494819D02*
X127637857Y-88542438D01*
X127637857Y-88542438D02*
X127733095Y-88637676D01*
X127733095Y-88637676D02*
X127780714Y-88732914D01*
X127780714Y-88732914D02*
X127828333Y-88923390D01*
X127828333Y-88923390D02*
X127828333Y-89066247D01*
X127828333Y-89066247D02*
X127780714Y-89256723D01*
X127780714Y-89256723D02*
X127733095Y-89351961D01*
X127733095Y-89351961D02*
X127637857Y-89447200D01*
X127637857Y-89447200D02*
X127495000Y-89494819D01*
X127495000Y-89494819D02*
X127256905Y-89494819D01*
X128161667Y-88494819D02*
X128780714Y-88494819D01*
X128780714Y-88494819D02*
X128447381Y-88875771D01*
X128447381Y-88875771D02*
X128590238Y-88875771D01*
X128590238Y-88875771D02*
X128685476Y-88923390D01*
X128685476Y-88923390D02*
X128733095Y-88971009D01*
X128733095Y-88971009D02*
X128780714Y-89066247D01*
X128780714Y-89066247D02*
X128780714Y-89304342D01*
X128780714Y-89304342D02*
X128733095Y-89399580D01*
X128733095Y-89399580D02*
X128685476Y-89447200D01*
X128685476Y-89447200D02*
X128590238Y-89494819D01*
X128590238Y-89494819D02*
X128304524Y-89494819D01*
X128304524Y-89494819D02*
X128209286Y-89447200D01*
X128209286Y-89447200D02*
X128161667Y-89399580D01*
X181239866Y-87933333D02*
X180573200Y-88400000D01*
X181239866Y-88733333D02*
X179839866Y-88733333D01*
X179839866Y-88733333D02*
X179839866Y-88200000D01*
X179839866Y-88200000D02*
X179906533Y-88066667D01*
X179906533Y-88066667D02*
X179973200Y-88000000D01*
X179973200Y-88000000D02*
X180106533Y-87933333D01*
X180106533Y-87933333D02*
X180306533Y-87933333D01*
X180306533Y-87933333D02*
X180439866Y-88000000D01*
X180439866Y-88000000D02*
X180506533Y-88066667D01*
X180506533Y-88066667D02*
X180573200Y-88200000D01*
X180573200Y-88200000D02*
X180573200Y-88733333D01*
X181173200Y-86800000D02*
X181239866Y-86933333D01*
X181239866Y-86933333D02*
X181239866Y-87200000D01*
X181239866Y-87200000D02*
X181173200Y-87333333D01*
X181173200Y-87333333D02*
X181039866Y-87400000D01*
X181039866Y-87400000D02*
X180506533Y-87400000D01*
X180506533Y-87400000D02*
X180373200Y-87333333D01*
X180373200Y-87333333D02*
X180306533Y-87200000D01*
X180306533Y-87200000D02*
X180306533Y-86933333D01*
X180306533Y-86933333D02*
X180373200Y-86800000D01*
X180373200Y-86800000D02*
X180506533Y-86733333D01*
X180506533Y-86733333D02*
X180639866Y-86733333D01*
X180639866Y-86733333D02*
X180773200Y-87400000D01*
X180306533Y-86333333D02*
X180306533Y-85800000D01*
X179839866Y-86133333D02*
X181039866Y-86133333D01*
X181039866Y-86133333D02*
X181173200Y-86066667D01*
X181173200Y-86066667D02*
X181239866Y-85933333D01*
X181239866Y-85933333D02*
X181239866Y-85800000D01*
X180306533Y-84733333D02*
X181239866Y-84733333D01*
X180306533Y-85333333D02*
X181039866Y-85333333D01*
X181039866Y-85333333D02*
X181173200Y-85266667D01*
X181173200Y-85266667D02*
X181239866Y-85133333D01*
X181239866Y-85133333D02*
X181239866Y-84933333D01*
X181239866Y-84933333D02*
X181173200Y-84800000D01*
X181173200Y-84800000D02*
X181106533Y-84733333D01*
X181239866Y-84066666D02*
X180306533Y-84066666D01*
X180573200Y-84066666D02*
X180439866Y-84000000D01*
X180439866Y-84000000D02*
X180373200Y-83933333D01*
X180373200Y-83933333D02*
X180306533Y-83800000D01*
X180306533Y-83800000D02*
X180306533Y-83666666D01*
X180306533Y-83199999D02*
X181239866Y-83199999D01*
X180439866Y-83199999D02*
X180373200Y-83133333D01*
X180373200Y-83133333D02*
X180306533Y-82999999D01*
X180306533Y-82999999D02*
X180306533Y-82799999D01*
X180306533Y-82799999D02*
X180373200Y-82666666D01*
X180373200Y-82666666D02*
X180506533Y-82599999D01*
X180506533Y-82599999D02*
X181239866Y-82599999D01*
X181239866Y-81199999D02*
X181239866Y-81999999D01*
X181239866Y-81599999D02*
X179839866Y-81599999D01*
X179839866Y-81599999D02*
X180039866Y-81733332D01*
X180039866Y-81733332D02*
X180173200Y-81866666D01*
X180173200Y-81866666D02*
X180239866Y-81999999D01*
X190721700Y-87988333D02*
X190788366Y-87788333D01*
X190788366Y-87788333D02*
X190788366Y-87455000D01*
X190788366Y-87455000D02*
X190721700Y-87321666D01*
X190721700Y-87321666D02*
X190655033Y-87255000D01*
X190655033Y-87255000D02*
X190521700Y-87188333D01*
X190521700Y-87188333D02*
X190388366Y-87188333D01*
X190388366Y-87188333D02*
X190255033Y-87255000D01*
X190255033Y-87255000D02*
X190188366Y-87321666D01*
X190188366Y-87321666D02*
X190121700Y-87455000D01*
X190121700Y-87455000D02*
X190055033Y-87721666D01*
X190055033Y-87721666D02*
X189988366Y-87855000D01*
X189988366Y-87855000D02*
X189921700Y-87921666D01*
X189921700Y-87921666D02*
X189788366Y-87988333D01*
X189788366Y-87988333D02*
X189655033Y-87988333D01*
X189655033Y-87988333D02*
X189521700Y-87921666D01*
X189521700Y-87921666D02*
X189455033Y-87855000D01*
X189455033Y-87855000D02*
X189388366Y-87721666D01*
X189388366Y-87721666D02*
X189388366Y-87388333D01*
X189388366Y-87388333D02*
X189455033Y-87188333D01*
X190721700Y-86055000D02*
X190788366Y-86188333D01*
X190788366Y-86188333D02*
X190788366Y-86455000D01*
X190788366Y-86455000D02*
X190721700Y-86588333D01*
X190721700Y-86588333D02*
X190588366Y-86655000D01*
X190588366Y-86655000D02*
X190055033Y-86655000D01*
X190055033Y-86655000D02*
X189921700Y-86588333D01*
X189921700Y-86588333D02*
X189855033Y-86455000D01*
X189855033Y-86455000D02*
X189855033Y-86188333D01*
X189855033Y-86188333D02*
X189921700Y-86055000D01*
X189921700Y-86055000D02*
X190055033Y-85988333D01*
X190055033Y-85988333D02*
X190188366Y-85988333D01*
X190188366Y-85988333D02*
X190321700Y-86655000D01*
X189855033Y-85388333D02*
X190788366Y-85388333D01*
X189988366Y-85388333D02*
X189921700Y-85321667D01*
X189921700Y-85321667D02*
X189855033Y-85188333D01*
X189855033Y-85188333D02*
X189855033Y-84988333D01*
X189855033Y-84988333D02*
X189921700Y-84855000D01*
X189921700Y-84855000D02*
X190055033Y-84788333D01*
X190055033Y-84788333D02*
X190788366Y-84788333D01*
X190788366Y-83521666D02*
X189388366Y-83521666D01*
X190721700Y-83521666D02*
X190788366Y-83655000D01*
X190788366Y-83655000D02*
X190788366Y-83921666D01*
X190788366Y-83921666D02*
X190721700Y-84055000D01*
X190721700Y-84055000D02*
X190655033Y-84121666D01*
X190655033Y-84121666D02*
X190521700Y-84188333D01*
X190521700Y-84188333D02*
X190121700Y-84188333D01*
X190121700Y-84188333D02*
X189988366Y-84121666D01*
X189988366Y-84121666D02*
X189921700Y-84055000D01*
X189921700Y-84055000D02*
X189855033Y-83921666D01*
X189855033Y-83921666D02*
X189855033Y-83655000D01*
X189855033Y-83655000D02*
X189921700Y-83521666D01*
X190788366Y-82121666D02*
X190788366Y-82921666D01*
X190788366Y-82521666D02*
X189388366Y-82521666D01*
X189388366Y-82521666D02*
X189588366Y-82654999D01*
X189588366Y-82654999D02*
X189721700Y-82788333D01*
X189721700Y-82788333D02*
X189788366Y-82921666D01*
X184491905Y-89494819D02*
X184491905Y-88494819D01*
X184491905Y-88494819D02*
X184730000Y-88494819D01*
X184730000Y-88494819D02*
X184872857Y-88542438D01*
X184872857Y-88542438D02*
X184968095Y-88637676D01*
X184968095Y-88637676D02*
X185015714Y-88732914D01*
X185015714Y-88732914D02*
X185063333Y-88923390D01*
X185063333Y-88923390D02*
X185063333Y-89066247D01*
X185063333Y-89066247D02*
X185015714Y-89256723D01*
X185015714Y-89256723D02*
X184968095Y-89351961D01*
X184968095Y-89351961D02*
X184872857Y-89447200D01*
X184872857Y-89447200D02*
X184730000Y-89494819D01*
X184730000Y-89494819D02*
X184491905Y-89494819D01*
X186015714Y-89494819D02*
X185444286Y-89494819D01*
X185730000Y-89494819D02*
X185730000Y-88494819D01*
X185730000Y-88494819D02*
X185634762Y-88637676D01*
X185634762Y-88637676D02*
X185539524Y-88732914D01*
X185539524Y-88732914D02*
X185444286Y-88780533D01*
X214109580Y-49534343D02*
X214157200Y-49581962D01*
X214157200Y-49581962D02*
X214204819Y-49724819D01*
X214204819Y-49724819D02*
X214204819Y-49820057D01*
X214204819Y-49820057D02*
X214157200Y-49962914D01*
X214157200Y-49962914D02*
X214061961Y-50058152D01*
X214061961Y-50058152D02*
X213966723Y-50105771D01*
X213966723Y-50105771D02*
X213776247Y-50153390D01*
X213776247Y-50153390D02*
X213633390Y-50153390D01*
X213633390Y-50153390D02*
X213442914Y-50105771D01*
X213442914Y-50105771D02*
X213347676Y-50058152D01*
X213347676Y-50058152D02*
X213252438Y-49962914D01*
X213252438Y-49962914D02*
X213204819Y-49820057D01*
X213204819Y-49820057D02*
X213204819Y-49724819D01*
X213204819Y-49724819D02*
X213252438Y-49581962D01*
X213252438Y-49581962D02*
X213300057Y-49534343D01*
X214204819Y-48581962D02*
X214204819Y-49153390D01*
X214204819Y-48867676D02*
X213204819Y-48867676D01*
X213204819Y-48867676D02*
X213347676Y-48962914D01*
X213347676Y-48962914D02*
X213442914Y-49058152D01*
X213442914Y-49058152D02*
X213490533Y-49153390D01*
X205333332Y-42749819D02*
X204857142Y-42749819D01*
X204857142Y-42749819D02*
X204857142Y-41749819D01*
X206047618Y-42702200D02*
X205952380Y-42749819D01*
X205952380Y-42749819D02*
X205761904Y-42749819D01*
X205761904Y-42749819D02*
X205666666Y-42702200D01*
X205666666Y-42702200D02*
X205619047Y-42606961D01*
X205619047Y-42606961D02*
X205619047Y-42226009D01*
X205619047Y-42226009D02*
X205666666Y-42130771D01*
X205666666Y-42130771D02*
X205761904Y-42083152D01*
X205761904Y-42083152D02*
X205952380Y-42083152D01*
X205952380Y-42083152D02*
X206047618Y-42130771D01*
X206047618Y-42130771D02*
X206095237Y-42226009D01*
X206095237Y-42226009D02*
X206095237Y-42321247D01*
X206095237Y-42321247D02*
X205619047Y-42416485D01*
X206380952Y-42083152D02*
X206761904Y-42083152D01*
X206523809Y-42749819D02*
X206523809Y-41892676D01*
X206523809Y-41892676D02*
X206571428Y-41797438D01*
X206571428Y-41797438D02*
X206666666Y-41749819D01*
X206666666Y-41749819D02*
X206761904Y-41749819D01*
X206952381Y-42083152D02*
X207333333Y-42083152D01*
X207095238Y-41749819D02*
X207095238Y-42606961D01*
X207095238Y-42606961D02*
X207142857Y-42702200D01*
X207142857Y-42702200D02*
X207238095Y-42749819D01*
X207238095Y-42749819D02*
X207333333Y-42749819D01*
X207666667Y-42749819D02*
X207666667Y-41749819D01*
X207666667Y-41749819D02*
X208047619Y-41749819D01*
X208047619Y-41749819D02*
X208142857Y-41797438D01*
X208142857Y-41797438D02*
X208190476Y-41845057D01*
X208190476Y-41845057D02*
X208238095Y-41940295D01*
X208238095Y-41940295D02*
X208238095Y-42083152D01*
X208238095Y-42083152D02*
X208190476Y-42178390D01*
X208190476Y-42178390D02*
X208142857Y-42226009D01*
X208142857Y-42226009D02*
X208047619Y-42273628D01*
X208047619Y-42273628D02*
X207666667Y-42273628D01*
X208666667Y-42749819D02*
X208666667Y-41749819D01*
X208666667Y-41749819D02*
X208904762Y-41749819D01*
X208904762Y-41749819D02*
X209047619Y-41797438D01*
X209047619Y-41797438D02*
X209142857Y-41892676D01*
X209142857Y-41892676D02*
X209190476Y-41987914D01*
X209190476Y-41987914D02*
X209238095Y-42178390D01*
X209238095Y-42178390D02*
X209238095Y-42321247D01*
X209238095Y-42321247D02*
X209190476Y-42511723D01*
X209190476Y-42511723D02*
X209142857Y-42606961D01*
X209142857Y-42606961D02*
X209047619Y-42702200D01*
X209047619Y-42702200D02*
X208904762Y-42749819D01*
X208904762Y-42749819D02*
X208666667Y-42749819D01*
X210190476Y-42749819D02*
X209619048Y-42749819D01*
X209904762Y-42749819D02*
X209904762Y-41749819D01*
X209904762Y-41749819D02*
X209809524Y-41892676D01*
X209809524Y-41892676D02*
X209714286Y-41987914D01*
X209714286Y-41987914D02*
X209619048Y-42035533D01*
X167754819Y-61319048D02*
X167754819Y-61795238D01*
X167754819Y-61795238D02*
X166754819Y-61795238D01*
X167707200Y-60604762D02*
X167754819Y-60700000D01*
X167754819Y-60700000D02*
X167754819Y-60890476D01*
X167754819Y-60890476D02*
X167707200Y-60985714D01*
X167707200Y-60985714D02*
X167611961Y-61033333D01*
X167611961Y-61033333D02*
X167231009Y-61033333D01*
X167231009Y-61033333D02*
X167135771Y-60985714D01*
X167135771Y-60985714D02*
X167088152Y-60890476D01*
X167088152Y-60890476D02*
X167088152Y-60700000D01*
X167088152Y-60700000D02*
X167135771Y-60604762D01*
X167135771Y-60604762D02*
X167231009Y-60557143D01*
X167231009Y-60557143D02*
X167326247Y-60557143D01*
X167326247Y-60557143D02*
X167421485Y-61033333D01*
X167088152Y-60271428D02*
X167088152Y-59890476D01*
X167754819Y-60128571D02*
X166897676Y-60128571D01*
X166897676Y-60128571D02*
X166802438Y-60080952D01*
X166802438Y-60080952D02*
X166754819Y-59985714D01*
X166754819Y-59985714D02*
X166754819Y-59890476D01*
X167088152Y-59699999D02*
X167088152Y-59319047D01*
X166754819Y-59557142D02*
X167611961Y-59557142D01*
X167611961Y-59557142D02*
X167707200Y-59509523D01*
X167707200Y-59509523D02*
X167754819Y-59414285D01*
X167754819Y-59414285D02*
X167754819Y-59319047D01*
X166707200Y-58271428D02*
X167992914Y-59128570D01*
X167754819Y-57938094D02*
X166754819Y-57938094D01*
X166754819Y-57938094D02*
X167469104Y-57604761D01*
X167469104Y-57604761D02*
X166754819Y-57271428D01*
X166754819Y-57271428D02*
X167754819Y-57271428D01*
X167754819Y-56652380D02*
X167707200Y-56747618D01*
X167707200Y-56747618D02*
X167659580Y-56795237D01*
X167659580Y-56795237D02*
X167564342Y-56842856D01*
X167564342Y-56842856D02*
X167278628Y-56842856D01*
X167278628Y-56842856D02*
X167183390Y-56795237D01*
X167183390Y-56795237D02*
X167135771Y-56747618D01*
X167135771Y-56747618D02*
X167088152Y-56652380D01*
X167088152Y-56652380D02*
X167088152Y-56509523D01*
X167088152Y-56509523D02*
X167135771Y-56414285D01*
X167135771Y-56414285D02*
X167183390Y-56366666D01*
X167183390Y-56366666D02*
X167278628Y-56319047D01*
X167278628Y-56319047D02*
X167564342Y-56319047D01*
X167564342Y-56319047D02*
X167659580Y-56366666D01*
X167659580Y-56366666D02*
X167707200Y-56414285D01*
X167707200Y-56414285D02*
X167754819Y-56509523D01*
X167754819Y-56509523D02*
X167754819Y-56652380D01*
X167088152Y-55890475D02*
X167754819Y-55890475D01*
X167183390Y-55890475D02*
X167135771Y-55842856D01*
X167135771Y-55842856D02*
X167088152Y-55747618D01*
X167088152Y-55747618D02*
X167088152Y-55604761D01*
X167088152Y-55604761D02*
X167135771Y-55509523D01*
X167135771Y-55509523D02*
X167231009Y-55461904D01*
X167231009Y-55461904D02*
X167754819Y-55461904D01*
X167754819Y-54842856D02*
X167707200Y-54938094D01*
X167707200Y-54938094D02*
X167659580Y-54985713D01*
X167659580Y-54985713D02*
X167564342Y-55033332D01*
X167564342Y-55033332D02*
X167278628Y-55033332D01*
X167278628Y-55033332D02*
X167183390Y-54985713D01*
X167183390Y-54985713D02*
X167135771Y-54938094D01*
X167135771Y-54938094D02*
X167088152Y-54842856D01*
X167088152Y-54842856D02*
X167088152Y-54699999D01*
X167088152Y-54699999D02*
X167135771Y-54604761D01*
X167135771Y-54604761D02*
X167183390Y-54557142D01*
X167183390Y-54557142D02*
X167278628Y-54509523D01*
X167278628Y-54509523D02*
X167564342Y-54509523D01*
X167564342Y-54509523D02*
X167659580Y-54557142D01*
X167659580Y-54557142D02*
X167707200Y-54604761D01*
X167707200Y-54604761D02*
X167754819Y-54699999D01*
X167754819Y-54699999D02*
X167754819Y-54842856D01*
X166850057Y-54128570D02*
X166802438Y-54080951D01*
X166802438Y-54080951D02*
X166754819Y-53985713D01*
X166754819Y-53985713D02*
X166754819Y-53747618D01*
X166754819Y-53747618D02*
X166802438Y-53652380D01*
X166802438Y-53652380D02*
X166850057Y-53604761D01*
X166850057Y-53604761D02*
X166945295Y-53557142D01*
X166945295Y-53557142D02*
X167040533Y-53557142D01*
X167040533Y-53557142D02*
X167183390Y-53604761D01*
X167183390Y-53604761D02*
X167754819Y-54176189D01*
X167754819Y-54176189D02*
X167754819Y-53557142D01*
X209031905Y-89994819D02*
X209031905Y-88994819D01*
X209031905Y-88994819D02*
X209270000Y-88994819D01*
X209270000Y-88994819D02*
X209412857Y-89042438D01*
X209412857Y-89042438D02*
X209508095Y-89137676D01*
X209508095Y-89137676D02*
X209555714Y-89232914D01*
X209555714Y-89232914D02*
X209603333Y-89423390D01*
X209603333Y-89423390D02*
X209603333Y-89566247D01*
X209603333Y-89566247D02*
X209555714Y-89756723D01*
X209555714Y-89756723D02*
X209508095Y-89851961D01*
X209508095Y-89851961D02*
X209412857Y-89947200D01*
X209412857Y-89947200D02*
X209270000Y-89994819D01*
X209270000Y-89994819D02*
X209031905Y-89994819D01*
X210508095Y-88994819D02*
X210031905Y-88994819D01*
X210031905Y-88994819D02*
X209984286Y-89471009D01*
X209984286Y-89471009D02*
X210031905Y-89423390D01*
X210031905Y-89423390D02*
X210127143Y-89375771D01*
X210127143Y-89375771D02*
X210365238Y-89375771D01*
X210365238Y-89375771D02*
X210460476Y-89423390D01*
X210460476Y-89423390D02*
X210508095Y-89471009D01*
X210508095Y-89471009D02*
X210555714Y-89566247D01*
X210555714Y-89566247D02*
X210555714Y-89804342D01*
X210555714Y-89804342D02*
X210508095Y-89899580D01*
X210508095Y-89899580D02*
X210460476Y-89947200D01*
X210460476Y-89947200D02*
X210365238Y-89994819D01*
X210365238Y-89994819D02*
X210127143Y-89994819D01*
X210127143Y-89994819D02*
X210031905Y-89947200D01*
X210031905Y-89947200D02*
X209984286Y-89899580D01*
X167754819Y-48695238D02*
X167278628Y-49028571D01*
X167754819Y-49266666D02*
X166754819Y-49266666D01*
X166754819Y-49266666D02*
X166754819Y-48885714D01*
X166754819Y-48885714D02*
X166802438Y-48790476D01*
X166802438Y-48790476D02*
X166850057Y-48742857D01*
X166850057Y-48742857D02*
X166945295Y-48695238D01*
X166945295Y-48695238D02*
X167088152Y-48695238D01*
X167088152Y-48695238D02*
X167183390Y-48742857D01*
X167183390Y-48742857D02*
X167231009Y-48790476D01*
X167231009Y-48790476D02*
X167278628Y-48885714D01*
X167278628Y-48885714D02*
X167278628Y-49266666D01*
X167754819Y-48266666D02*
X167088152Y-48266666D01*
X166754819Y-48266666D02*
X166802438Y-48314285D01*
X166802438Y-48314285D02*
X166850057Y-48266666D01*
X166850057Y-48266666D02*
X166802438Y-48219047D01*
X166802438Y-48219047D02*
X166754819Y-48266666D01*
X166754819Y-48266666D02*
X166850057Y-48266666D01*
X167088152Y-47361905D02*
X167897676Y-47361905D01*
X167897676Y-47361905D02*
X167992914Y-47409524D01*
X167992914Y-47409524D02*
X168040533Y-47457143D01*
X168040533Y-47457143D02*
X168088152Y-47552381D01*
X168088152Y-47552381D02*
X168088152Y-47695238D01*
X168088152Y-47695238D02*
X168040533Y-47790476D01*
X167707200Y-47361905D02*
X167754819Y-47457143D01*
X167754819Y-47457143D02*
X167754819Y-47647619D01*
X167754819Y-47647619D02*
X167707200Y-47742857D01*
X167707200Y-47742857D02*
X167659580Y-47790476D01*
X167659580Y-47790476D02*
X167564342Y-47838095D01*
X167564342Y-47838095D02*
X167278628Y-47838095D01*
X167278628Y-47838095D02*
X167183390Y-47790476D01*
X167183390Y-47790476D02*
X167135771Y-47742857D01*
X167135771Y-47742857D02*
X167088152Y-47647619D01*
X167088152Y-47647619D02*
X167088152Y-47457143D01*
X167088152Y-47457143D02*
X167135771Y-47361905D01*
X167754819Y-46885714D02*
X166754819Y-46885714D01*
X167754819Y-46457143D02*
X167231009Y-46457143D01*
X167231009Y-46457143D02*
X167135771Y-46504762D01*
X167135771Y-46504762D02*
X167088152Y-46600000D01*
X167088152Y-46600000D02*
X167088152Y-46742857D01*
X167088152Y-46742857D02*
X167135771Y-46838095D01*
X167135771Y-46838095D02*
X167183390Y-46885714D01*
X167088152Y-46123809D02*
X167088152Y-45742857D01*
X166754819Y-45980952D02*
X167611961Y-45980952D01*
X167611961Y-45980952D02*
X167707200Y-45933333D01*
X167707200Y-45933333D02*
X167754819Y-45838095D01*
X167754819Y-45838095D02*
X167754819Y-45742857D01*
X166850057Y-45457142D02*
X166802438Y-45409523D01*
X166802438Y-45409523D02*
X166754819Y-45314285D01*
X166754819Y-45314285D02*
X166754819Y-45076190D01*
X166754819Y-45076190D02*
X166802438Y-44980952D01*
X166802438Y-44980952D02*
X166850057Y-44933333D01*
X166850057Y-44933333D02*
X166945295Y-44885714D01*
X166945295Y-44885714D02*
X167040533Y-44885714D01*
X167040533Y-44885714D02*
X167183390Y-44933333D01*
X167183390Y-44933333D02*
X167754819Y-45504761D01*
X167754819Y-45504761D02*
X167754819Y-44885714D01*
X135547618Y-95824819D02*
X135214285Y-95348628D01*
X134976190Y-95824819D02*
X134976190Y-94824819D01*
X134976190Y-94824819D02*
X135357142Y-94824819D01*
X135357142Y-94824819D02*
X135452380Y-94872438D01*
X135452380Y-94872438D02*
X135499999Y-94920057D01*
X135499999Y-94920057D02*
X135547618Y-95015295D01*
X135547618Y-95015295D02*
X135547618Y-95158152D01*
X135547618Y-95158152D02*
X135499999Y-95253390D01*
X135499999Y-95253390D02*
X135452380Y-95301009D01*
X135452380Y-95301009D02*
X135357142Y-95348628D01*
X135357142Y-95348628D02*
X134976190Y-95348628D01*
X136452380Y-95824819D02*
X135976190Y-95824819D01*
X135976190Y-95824819D02*
X135976190Y-94824819D01*
X137166666Y-95777200D02*
X137071428Y-95824819D01*
X137071428Y-95824819D02*
X136880952Y-95824819D01*
X136880952Y-95824819D02*
X136785714Y-95777200D01*
X136785714Y-95777200D02*
X136738095Y-95681961D01*
X136738095Y-95681961D02*
X136738095Y-95301009D01*
X136738095Y-95301009D02*
X136785714Y-95205771D01*
X136785714Y-95205771D02*
X136880952Y-95158152D01*
X136880952Y-95158152D02*
X137071428Y-95158152D01*
X137071428Y-95158152D02*
X137166666Y-95205771D01*
X137166666Y-95205771D02*
X137214285Y-95301009D01*
X137214285Y-95301009D02*
X137214285Y-95396247D01*
X137214285Y-95396247D02*
X136738095Y-95491485D01*
X138071428Y-95824819D02*
X138071428Y-94824819D01*
X138071428Y-95777200D02*
X137976190Y-95824819D01*
X137976190Y-95824819D02*
X137785714Y-95824819D01*
X137785714Y-95824819D02*
X137690476Y-95777200D01*
X137690476Y-95777200D02*
X137642857Y-95729580D01*
X137642857Y-95729580D02*
X137595238Y-95634342D01*
X137595238Y-95634342D02*
X137595238Y-95348628D01*
X137595238Y-95348628D02*
X137642857Y-95253390D01*
X137642857Y-95253390D02*
X137690476Y-95205771D01*
X137690476Y-95205771D02*
X137785714Y-95158152D01*
X137785714Y-95158152D02*
X137976190Y-95158152D01*
X137976190Y-95158152D02*
X138071428Y-95205771D01*
X138452381Y-94824819D02*
X139071428Y-94824819D01*
X139071428Y-94824819D02*
X138738095Y-95205771D01*
X138738095Y-95205771D02*
X138880952Y-95205771D01*
X138880952Y-95205771D02*
X138976190Y-95253390D01*
X138976190Y-95253390D02*
X139023809Y-95301009D01*
X139023809Y-95301009D02*
X139071428Y-95396247D01*
X139071428Y-95396247D02*
X139071428Y-95634342D01*
X139071428Y-95634342D02*
X139023809Y-95729580D01*
X139023809Y-95729580D02*
X138976190Y-95777200D01*
X138976190Y-95777200D02*
X138880952Y-95824819D01*
X138880952Y-95824819D02*
X138595238Y-95824819D01*
X138595238Y-95824819D02*
X138500000Y-95777200D01*
X138500000Y-95777200D02*
X138452381Y-95729580D01*
X206047618Y-61084819D02*
X205714285Y-60608628D01*
X205476190Y-61084819D02*
X205476190Y-60084819D01*
X205476190Y-60084819D02*
X205857142Y-60084819D01*
X205857142Y-60084819D02*
X205952380Y-60132438D01*
X205952380Y-60132438D02*
X205999999Y-60180057D01*
X205999999Y-60180057D02*
X206047618Y-60275295D01*
X206047618Y-60275295D02*
X206047618Y-60418152D01*
X206047618Y-60418152D02*
X205999999Y-60513390D01*
X205999999Y-60513390D02*
X205952380Y-60561009D01*
X205952380Y-60561009D02*
X205857142Y-60608628D01*
X205857142Y-60608628D02*
X205476190Y-60608628D01*
X206952380Y-61084819D02*
X206476190Y-61084819D01*
X206476190Y-61084819D02*
X206476190Y-60084819D01*
X207666666Y-61037200D02*
X207571428Y-61084819D01*
X207571428Y-61084819D02*
X207380952Y-61084819D01*
X207380952Y-61084819D02*
X207285714Y-61037200D01*
X207285714Y-61037200D02*
X207238095Y-60941961D01*
X207238095Y-60941961D02*
X207238095Y-60561009D01*
X207238095Y-60561009D02*
X207285714Y-60465771D01*
X207285714Y-60465771D02*
X207380952Y-60418152D01*
X207380952Y-60418152D02*
X207571428Y-60418152D01*
X207571428Y-60418152D02*
X207666666Y-60465771D01*
X207666666Y-60465771D02*
X207714285Y-60561009D01*
X207714285Y-60561009D02*
X207714285Y-60656247D01*
X207714285Y-60656247D02*
X207238095Y-60751485D01*
X208571428Y-61084819D02*
X208571428Y-60084819D01*
X208571428Y-61037200D02*
X208476190Y-61084819D01*
X208476190Y-61084819D02*
X208285714Y-61084819D01*
X208285714Y-61084819D02*
X208190476Y-61037200D01*
X208190476Y-61037200D02*
X208142857Y-60989580D01*
X208142857Y-60989580D02*
X208095238Y-60894342D01*
X208095238Y-60894342D02*
X208095238Y-60608628D01*
X208095238Y-60608628D02*
X208142857Y-60513390D01*
X208142857Y-60513390D02*
X208190476Y-60465771D01*
X208190476Y-60465771D02*
X208285714Y-60418152D01*
X208285714Y-60418152D02*
X208476190Y-60418152D01*
X208476190Y-60418152D02*
X208571428Y-60465771D01*
X209476190Y-60418152D02*
X209476190Y-61084819D01*
X209238095Y-60037200D02*
X209000000Y-60751485D01*
X209000000Y-60751485D02*
X209619047Y-60751485D01*
X167047618Y-96324819D02*
X166714285Y-95848628D01*
X166476190Y-96324819D02*
X166476190Y-95324819D01*
X166476190Y-95324819D02*
X166857142Y-95324819D01*
X166857142Y-95324819D02*
X166952380Y-95372438D01*
X166952380Y-95372438D02*
X166999999Y-95420057D01*
X166999999Y-95420057D02*
X167047618Y-95515295D01*
X167047618Y-95515295D02*
X167047618Y-95658152D01*
X167047618Y-95658152D02*
X166999999Y-95753390D01*
X166999999Y-95753390D02*
X166952380Y-95801009D01*
X166952380Y-95801009D02*
X166857142Y-95848628D01*
X166857142Y-95848628D02*
X166476190Y-95848628D01*
X167952380Y-96324819D02*
X167476190Y-96324819D01*
X167476190Y-96324819D02*
X167476190Y-95324819D01*
X168666666Y-96277200D02*
X168571428Y-96324819D01*
X168571428Y-96324819D02*
X168380952Y-96324819D01*
X168380952Y-96324819D02*
X168285714Y-96277200D01*
X168285714Y-96277200D02*
X168238095Y-96181961D01*
X168238095Y-96181961D02*
X168238095Y-95801009D01*
X168238095Y-95801009D02*
X168285714Y-95705771D01*
X168285714Y-95705771D02*
X168380952Y-95658152D01*
X168380952Y-95658152D02*
X168571428Y-95658152D01*
X168571428Y-95658152D02*
X168666666Y-95705771D01*
X168666666Y-95705771D02*
X168714285Y-95801009D01*
X168714285Y-95801009D02*
X168714285Y-95896247D01*
X168714285Y-95896247D02*
X168238095Y-95991485D01*
X169571428Y-96324819D02*
X169571428Y-95324819D01*
X169571428Y-96277200D02*
X169476190Y-96324819D01*
X169476190Y-96324819D02*
X169285714Y-96324819D01*
X169285714Y-96324819D02*
X169190476Y-96277200D01*
X169190476Y-96277200D02*
X169142857Y-96229580D01*
X169142857Y-96229580D02*
X169095238Y-96134342D01*
X169095238Y-96134342D02*
X169095238Y-95848628D01*
X169095238Y-95848628D02*
X169142857Y-95753390D01*
X169142857Y-95753390D02*
X169190476Y-95705771D01*
X169190476Y-95705771D02*
X169285714Y-95658152D01*
X169285714Y-95658152D02*
X169476190Y-95658152D01*
X169476190Y-95658152D02*
X169571428Y-95705771D01*
X170000000Y-95420057D02*
X170047619Y-95372438D01*
X170047619Y-95372438D02*
X170142857Y-95324819D01*
X170142857Y-95324819D02*
X170380952Y-95324819D01*
X170380952Y-95324819D02*
X170476190Y-95372438D01*
X170476190Y-95372438D02*
X170523809Y-95420057D01*
X170523809Y-95420057D02*
X170571428Y-95515295D01*
X170571428Y-95515295D02*
X170571428Y-95610533D01*
X170571428Y-95610533D02*
X170523809Y-95753390D01*
X170523809Y-95753390D02*
X169952381Y-96324819D01*
X169952381Y-96324819D02*
X170571428Y-96324819D01*
D11*
%TO.C,Right3*%
X149930000Y-41435000D02*
X149930000Y-42645000D01*
X148630000Y-41435000D02*
X149930000Y-41435000D01*
X149780000Y-41595000D02*
X129190000Y-41595000D01*
X129190000Y-41595000D02*
X129190000Y-51975000D01*
X149780000Y-45275000D02*
X148740000Y-45275000D01*
X148720000Y-45275000D02*
X148720000Y-48275000D01*
X148570000Y-46445000D02*
X147370000Y-46445000D01*
X147940000Y-46445000D02*
X147940000Y-45345000D01*
X147770000Y-46445000D02*
X148170000Y-47145000D01*
X147370000Y-46445000D02*
X147370000Y-47145000D01*
X148570000Y-47145000D02*
X148570000Y-46445000D01*
X147940000Y-47145000D02*
X147940000Y-48245000D01*
X147370000Y-47145000D02*
X148570000Y-47145000D01*
X148720000Y-48275000D02*
X149780000Y-48275000D01*
X149780000Y-51975000D02*
X149780000Y-41595000D01*
X129190000Y-51975000D02*
X149780000Y-51975000D01*
%TO.C,J2*%
X122170000Y-41610000D02*
X122170000Y-59450000D01*
X122170000Y-41610000D02*
X124830000Y-41610000D01*
X122170000Y-59450000D02*
X124830000Y-59450000D01*
X123500000Y-39010000D02*
X124830000Y-39010000D01*
X124830000Y-39010000D02*
X124830000Y-40340000D01*
X124830000Y-41610000D02*
X124830000Y-59450000D01*
%TO.C,QL3*%
X201350000Y-57365000D02*
X201350000Y-53765000D01*
X196900000Y-55565000D02*
G75*
G03*
X201338478Y-57403478I2600000J0D01*
G01*
X201338478Y-53726522D02*
G75*
G03*
X196900000Y-55565000I-1838478J-1838478D01*
G01*
D12*
%TO.C,Return2*%
X154400000Y-88500000D02*
X154400000Y-68500000D01*
X163400000Y-88500000D02*
X154400000Y-88500000D01*
X154400000Y-68500000D02*
X163400000Y-68500000D01*
X163400000Y-68500000D02*
X163400000Y-88500000D01*
D13*
X164500000Y-86000000D02*
G75*
G03*
X164500000Y-86000000I-100000J0D01*
G01*
D11*
%TO.C,J1*%
X229900000Y-54782500D02*
X230900000Y-54782500D01*
X230900000Y-54782500D02*
X230400000Y-54282500D01*
X230400000Y-54282500D02*
X229900000Y-54782500D01*
X226520000Y-54097500D02*
X244480000Y-54097500D01*
X244480000Y-54097500D02*
X244480000Y-38577500D01*
X226520000Y-38577500D02*
X226520000Y-54097500D01*
X226520000Y-38577500D02*
X244480000Y-38577500D01*
%TO.C,D2*%
X154935000Y-91955000D02*
X154935000Y-95045000D01*
X160484999Y-93500462D02*
G75*
G03*
X154935001Y-91955170I-2989999J462D01*
G01*
X154935000Y-95044830D02*
G75*
G03*
X160485000Y-93499538I2560000J1544830D01*
G01*
X159995000Y-93500000D02*
G75*
G03*
X159995000Y-93500000I-2500000J0D01*
G01*
%TO.C,LeftPD2*%
X204230000Y-46925000D02*
X210770000Y-46925000D01*
X204230000Y-47255000D02*
X204230000Y-46925000D01*
X204230000Y-49335000D02*
X204230000Y-49665000D01*
X204230000Y-49665000D02*
X210770000Y-49665000D01*
X210770000Y-46925000D02*
X210770000Y-47255000D01*
X210770000Y-49665000D02*
X210770000Y-49335000D01*
D12*
%TO.C,Send3*%
X135537500Y-88500000D02*
X135537500Y-68500000D01*
X144537500Y-88500000D02*
X135537500Y-88500000D01*
X135537500Y-68500000D02*
X144537500Y-68500000D01*
X144537500Y-68500000D02*
X144537500Y-88500000D01*
D13*
X145637500Y-86000000D02*
G75*
G03*
X145637500Y-86000000I-100000J0D01*
G01*
D11*
%TO.C,R1*%
X214615000Y-61030000D02*
X217535000Y-61030000D01*
X214615000Y-69930000D02*
X214615000Y-61030000D01*
X214615000Y-69970000D02*
X217535000Y-69970000D01*
X217535000Y-56280000D02*
X220165000Y-56280000D01*
X217535000Y-61030000D02*
X217535000Y-56280000D01*
X217535000Y-74720000D02*
X217535000Y-69970000D01*
X220165000Y-74720000D02*
X217535000Y-74720000D01*
X222965000Y-56280000D02*
X226565000Y-56280000D01*
X226565000Y-74720000D02*
X222965000Y-74720000D01*
X229265000Y-56280000D02*
X232865000Y-56280000D01*
X232865000Y-74720000D02*
X229265000Y-74720000D01*
X238385000Y-56280000D02*
X235665000Y-56280000D01*
X238385000Y-59680000D02*
X238385000Y-56280000D01*
X238385000Y-59680000D02*
X241385000Y-59680000D01*
X238385000Y-71320000D02*
X241385000Y-71320000D01*
X238385000Y-74720000D02*
X235665000Y-74720000D01*
X238385000Y-74720000D02*
X238385000Y-71320000D01*
X241385000Y-71320000D02*
X241385000Y-59680000D01*
%TO.C,Left/Mono3*%
X149930000Y-52435000D02*
X149930000Y-53645000D01*
X148630000Y-52435000D02*
X149930000Y-52435000D01*
X149780000Y-52595000D02*
X129190000Y-52595000D01*
X129190000Y-52595000D02*
X129190000Y-62975000D01*
X149780000Y-56275000D02*
X148740000Y-56275000D01*
X148720000Y-56275000D02*
X148720000Y-59275000D01*
X148570000Y-57445000D02*
X147370000Y-57445000D01*
X147940000Y-57445000D02*
X147940000Y-56345000D01*
X147770000Y-57445000D02*
X148170000Y-58145000D01*
X147370000Y-57445000D02*
X147370000Y-58145000D01*
X148570000Y-58145000D02*
X148570000Y-57445000D01*
X147940000Y-58145000D02*
X147940000Y-59245000D01*
X147370000Y-58145000D02*
X148570000Y-58145000D01*
X148720000Y-59275000D02*
X149780000Y-59275000D01*
X149780000Y-62975000D02*
X149780000Y-52595000D01*
X129190000Y-62975000D02*
X149780000Y-62975000D01*
%TO.C,U1*%
X213880000Y-38175000D02*
X213880000Y-42816000D01*
X213880000Y-38175000D02*
X224120000Y-38175000D01*
X213880000Y-39685000D02*
X224120000Y-39685000D01*
X213880000Y-42816000D02*
X224120000Y-42816000D01*
X217150000Y-38175000D02*
X217150000Y-39685000D01*
X220851000Y-38175000D02*
X220851000Y-39685000D01*
X224120000Y-38175000D02*
X224120000Y-42816000D01*
%TO.C,LeftPD3*%
X204230000Y-53925000D02*
X210770000Y-53925000D01*
X204230000Y-54255000D02*
X204230000Y-53925000D01*
X204230000Y-56335000D02*
X204230000Y-56665000D01*
X204230000Y-56665000D02*
X210770000Y-56665000D01*
X210770000Y-53925000D02*
X210770000Y-54255000D01*
X210770000Y-56665000D02*
X210770000Y-56335000D01*
%TO.C,RLed1*%
X196770000Y-94370000D02*
X190230000Y-94370000D01*
X196770000Y-94040000D02*
X196770000Y-94370000D01*
X196770000Y-91960000D02*
X196770000Y-91630000D01*
X196770000Y-91630000D02*
X190230000Y-91630000D01*
X190230000Y-94370000D02*
X190230000Y-94040000D01*
X190230000Y-91630000D02*
X190230000Y-91960000D01*
%TO.C,D4*%
X199710000Y-91955000D02*
X199710000Y-95045000D01*
X205259999Y-93500462D02*
G75*
G03*
X199710001Y-91955170I-2989999J462D01*
G01*
X199710000Y-95044830D02*
G75*
G03*
X205260000Y-93499538I2560000J1544830D01*
G01*
X204770000Y-93500000D02*
G75*
G03*
X204770000Y-93500000I-2500000J0D01*
G01*
%TO.C,QL2*%
X201350000Y-51575000D02*
X201350000Y-47975000D01*
X196900000Y-49775000D02*
G75*
G03*
X201338478Y-51613478I2600000J0D01*
G01*
X201338478Y-47936522D02*
G75*
G03*
X196900000Y-49775000I-1838478J-1838478D01*
G01*
%TO.C,LGate3*%
X210770000Y-59665000D02*
X204230000Y-59665000D01*
X210770000Y-59335000D02*
X210770000Y-59665000D01*
X210770000Y-57255000D02*
X210770000Y-56925000D01*
X210770000Y-56925000D02*
X204230000Y-56925000D01*
X204230000Y-59665000D02*
X204230000Y-59335000D01*
X204230000Y-56925000D02*
X204230000Y-57255000D01*
D12*
%TO.C,Send2*%
X165037500Y-88500000D02*
X165037500Y-68500000D01*
X174037500Y-88500000D02*
X165037500Y-88500000D01*
X165037500Y-68500000D02*
X174037500Y-68500000D01*
X174037500Y-68500000D02*
X174037500Y-88500000D01*
D13*
X175137500Y-86000000D02*
G75*
G03*
X175137500Y-86000000I-100000J0D01*
G01*
D11*
%TO.C,Left/Mono1*%
X194250000Y-52492500D02*
X194250000Y-53702500D01*
X192950000Y-52492500D02*
X194250000Y-52492500D01*
X194100000Y-52652500D02*
X173510000Y-52652500D01*
X173510000Y-52652500D02*
X173510000Y-63032500D01*
X194100000Y-56332500D02*
X193060000Y-56332500D01*
X193040000Y-56332500D02*
X193040000Y-59332500D01*
X192890000Y-57502500D02*
X191690000Y-57502500D01*
X192260000Y-57502500D02*
X192260000Y-56402500D01*
X192090000Y-57502500D02*
X192490000Y-58202500D01*
X191690000Y-57502500D02*
X191690000Y-58202500D01*
X192890000Y-58202500D02*
X192890000Y-57502500D01*
X192260000Y-58202500D02*
X192260000Y-59302500D01*
X191690000Y-58202500D02*
X192890000Y-58202500D01*
X193040000Y-59332500D02*
X194100000Y-59332500D01*
X194100000Y-63032500D02*
X194100000Y-52652500D01*
X173510000Y-63032500D02*
X194100000Y-63032500D01*
%TO.C,QL1*%
X201350000Y-45785000D02*
X201350000Y-42185000D01*
X196900000Y-43985000D02*
G75*
G03*
X201338478Y-45823478I2600000J0D01*
G01*
X201338478Y-42146522D02*
G75*
G03*
X196900000Y-43985000I-1838478J-1838478D01*
G01*
%TO.C,L/Mono1*%
X214115000Y-83030000D02*
X217035000Y-83030000D01*
X214115000Y-91930000D02*
X214115000Y-83030000D01*
X214115000Y-91970000D02*
X217035000Y-91970000D01*
X217035000Y-78280000D02*
X219665000Y-78280000D01*
X217035000Y-83030000D02*
X217035000Y-78280000D01*
X217035000Y-96720000D02*
X217035000Y-91970000D01*
X219665000Y-96720000D02*
X217035000Y-96720000D01*
X222465000Y-78280000D02*
X226065000Y-78280000D01*
X226065000Y-96720000D02*
X222465000Y-96720000D01*
X228765000Y-78280000D02*
X232365000Y-78280000D01*
X232365000Y-96720000D02*
X228765000Y-96720000D01*
X237885000Y-78280000D02*
X235165000Y-78280000D01*
X237885000Y-81680000D02*
X237885000Y-78280000D01*
X237885000Y-81680000D02*
X240885000Y-81680000D01*
X237885000Y-93320000D02*
X240885000Y-93320000D01*
X237885000Y-96720000D02*
X235165000Y-96720000D01*
X237885000Y-96720000D02*
X237885000Y-93320000D01*
X240885000Y-93320000D02*
X240885000Y-81680000D01*
%TO.C,Right1*%
X194250000Y-41135000D02*
X194250000Y-42345000D01*
X192950000Y-41135000D02*
X194250000Y-41135000D01*
X194100000Y-41295000D02*
X173510000Y-41295000D01*
X173510000Y-41295000D02*
X173510000Y-51675000D01*
X194100000Y-44975000D02*
X193060000Y-44975000D01*
X193040000Y-44975000D02*
X193040000Y-47975000D01*
X192890000Y-46145000D02*
X191690000Y-46145000D01*
X192260000Y-46145000D02*
X192260000Y-45045000D01*
X192090000Y-46145000D02*
X192490000Y-46845000D01*
X191690000Y-46145000D02*
X191690000Y-46845000D01*
X192890000Y-46845000D02*
X192890000Y-46145000D01*
X192260000Y-46845000D02*
X192260000Y-47945000D01*
X191690000Y-46845000D02*
X192890000Y-46845000D01*
X193040000Y-47975000D02*
X194100000Y-47975000D01*
X194100000Y-51675000D02*
X194100000Y-41295000D01*
X173510000Y-51675000D02*
X194100000Y-51675000D01*
%TO.C,G_link1*%
X122265000Y-92227064D02*
X122265000Y-91772936D01*
X123735000Y-92227064D02*
X123735000Y-91772936D01*
D12*
%TO.C,Return3*%
X125037500Y-88500000D02*
X125037500Y-68500000D01*
X134037500Y-88500000D02*
X125037500Y-88500000D01*
X125037500Y-68500000D02*
X134037500Y-68500000D01*
X134037500Y-68500000D02*
X134037500Y-88500000D01*
D13*
X135137500Y-86000000D02*
G75*
G03*
X135137500Y-86000000I-100000J0D01*
G01*
D11*
%TO.C,InputRelay1*%
X202197500Y-68092500D02*
X203407500Y-68092500D01*
X202197500Y-69392500D02*
X202197500Y-68092500D01*
X202357500Y-68242500D02*
X202357500Y-88832500D01*
X202357500Y-88832500D02*
X212737500Y-88832500D01*
X206037500Y-68242500D02*
X206037500Y-69282500D01*
X206037500Y-69302500D02*
X209037500Y-69302500D01*
X207207500Y-69452500D02*
X207207500Y-70652500D01*
X207207500Y-70082500D02*
X206107500Y-70082500D01*
X207207500Y-70252500D02*
X207907500Y-69852500D01*
X207207500Y-70652500D02*
X207907500Y-70652500D01*
X207907500Y-69452500D02*
X207207500Y-69452500D01*
X207907500Y-70082500D02*
X209007500Y-70082500D01*
X207907500Y-70652500D02*
X207907500Y-69452500D01*
X209037500Y-69302500D02*
X209037500Y-68242500D01*
X212737500Y-68242500D02*
X202357500Y-68242500D01*
X212737500Y-88832500D02*
X212737500Y-68242500D01*
%TO.C,LGate2*%
X210770000Y-52665000D02*
X204230000Y-52665000D01*
X210770000Y-52335000D02*
X210770000Y-52665000D01*
X210770000Y-50255000D02*
X210770000Y-49925000D01*
X210770000Y-49925000D02*
X204230000Y-49925000D01*
X204230000Y-52665000D02*
X204230000Y-52335000D01*
X204230000Y-49925000D02*
X204230000Y-50255000D01*
%TO.C,LGate1*%
X210770000Y-46665000D02*
X204230000Y-46665000D01*
X210770000Y-46335000D02*
X210770000Y-46665000D01*
X210770000Y-44255000D02*
X210770000Y-43925000D01*
X210770000Y-43925000D02*
X204230000Y-43925000D01*
X204230000Y-46665000D02*
X204230000Y-46335000D01*
X204230000Y-43925000D02*
X204230000Y-44255000D01*
%TO.C,D3*%
X125435000Y-91455000D02*
X125435000Y-94545000D01*
X130984999Y-93000462D02*
G75*
G03*
X125435001Y-91455170I-2989999J462D01*
G01*
X125435000Y-94544830D02*
G75*
G03*
X130985000Y-92999538I2560000J1544830D01*
G01*
X130495000Y-93000000D02*
G75*
G03*
X130495000Y-93000000I-2500000J0D01*
G01*
D12*
%TO.C,Return1*%
X182037500Y-88500000D02*
X182037500Y-68500000D01*
X191037500Y-88500000D02*
X182037500Y-88500000D01*
X182037500Y-68500000D02*
X191037500Y-68500000D01*
X191037500Y-68500000D02*
X191037500Y-88500000D01*
D13*
X192137500Y-86000000D02*
G75*
G03*
X192137500Y-86000000I-100000J0D01*
G01*
D12*
%TO.C,Send1*%
X192037500Y-88500000D02*
X192037500Y-68500000D01*
X201037500Y-88500000D02*
X192037500Y-88500000D01*
X192037500Y-68500000D02*
X201037500Y-68500000D01*
X201037500Y-68500000D02*
X201037500Y-88500000D01*
D13*
X202137500Y-86000000D02*
G75*
G03*
X202137500Y-86000000I-100000J0D01*
G01*
D11*
%TO.C,D1*%
X182670000Y-91455000D02*
X182670000Y-94545000D01*
X188219999Y-93000462D02*
G75*
G03*
X182670001Y-91455170I-2989999J462D01*
G01*
X182670000Y-94544830D02*
G75*
G03*
X188220000Y-92999538I2560000J1544830D01*
G01*
X187730000Y-93000000D02*
G75*
G03*
X187730000Y-93000000I-2500000J0D01*
G01*
%TO.C,C1*%
X217125000Y-54847323D02*
X217125000Y-53847323D01*
X216625000Y-54347323D02*
X217625000Y-54347323D01*
X214920000Y-49367677D02*
X225080000Y-49367677D01*
X214920000Y-49327677D02*
X225080000Y-49327677D01*
X214920000Y-49287677D02*
X225080000Y-49287677D01*
X214921000Y-49247677D02*
X225079000Y-49247677D01*
X214922000Y-49207677D02*
X225078000Y-49207677D01*
X214923000Y-49167677D02*
X225077000Y-49167677D01*
X214925000Y-49127677D02*
X225075000Y-49127677D01*
X214927000Y-49087677D02*
X225073000Y-49087677D01*
X214930000Y-49047677D02*
X225070000Y-49047677D01*
X214932000Y-49007677D02*
X225068000Y-49007677D01*
X214935000Y-48967677D02*
X225065000Y-48967677D01*
X214938000Y-48927677D02*
X225062000Y-48927677D01*
X214942000Y-48887677D02*
X225058000Y-48887677D01*
X214946000Y-48847677D02*
X218759000Y-48847677D01*
X221241000Y-48847677D02*
X225054000Y-48847677D01*
X214950000Y-48807677D02*
X218759000Y-48807677D01*
X221241000Y-48807677D02*
X225050000Y-48807677D01*
X214955000Y-48767677D02*
X218759000Y-48767677D01*
X221241000Y-48767677D02*
X225045000Y-48767677D01*
X214960000Y-48727677D02*
X218759000Y-48727677D01*
X221241000Y-48727677D02*
X225040000Y-48727677D01*
X214965000Y-48687677D02*
X218759000Y-48687677D01*
X221241000Y-48687677D02*
X225035000Y-48687677D01*
X214970000Y-48646677D02*
X218759000Y-48646677D01*
X221241000Y-48646677D02*
X225030000Y-48646677D01*
X214976000Y-48606677D02*
X218759000Y-48606677D01*
X221241000Y-48606677D02*
X225024000Y-48606677D01*
X214982000Y-48566677D02*
X218759000Y-48566677D01*
X221241000Y-48566677D02*
X225018000Y-48566677D01*
X214989000Y-48526677D02*
X218759000Y-48526677D01*
X221241000Y-48526677D02*
X225011000Y-48526677D01*
X214996000Y-48486677D02*
X218759000Y-48486677D01*
X221241000Y-48486677D02*
X225004000Y-48486677D01*
X215003000Y-48446677D02*
X218759000Y-48446677D01*
X221241000Y-48446677D02*
X224997000Y-48446677D01*
X215010000Y-48406677D02*
X218759000Y-48406677D01*
X221241000Y-48406677D02*
X224990000Y-48406677D01*
X215018000Y-48366677D02*
X218759000Y-48366677D01*
X221241000Y-48366677D02*
X224982000Y-48366677D01*
X215026000Y-48326677D02*
X218759000Y-48326677D01*
X221241000Y-48326677D02*
X224974000Y-48326677D01*
X215035000Y-48286677D02*
X218759000Y-48286677D01*
X221241000Y-48286677D02*
X224965000Y-48286677D01*
X215044000Y-48246677D02*
X218759000Y-48246677D01*
X221241000Y-48246677D02*
X224956000Y-48246677D01*
X215053000Y-48206677D02*
X218759000Y-48206677D01*
X221241000Y-48206677D02*
X224947000Y-48206677D01*
X215062000Y-48166677D02*
X218759000Y-48166677D01*
X221241000Y-48166677D02*
X224938000Y-48166677D01*
X215072000Y-48126677D02*
X218759000Y-48126677D01*
X221241000Y-48126677D02*
X224928000Y-48126677D01*
X215082000Y-48086677D02*
X218759000Y-48086677D01*
X221241000Y-48086677D02*
X224918000Y-48086677D01*
X215093000Y-48046677D02*
X218759000Y-48046677D01*
X221241000Y-48046677D02*
X224907000Y-48046677D01*
X215103000Y-48006677D02*
X218759000Y-48006677D01*
X221241000Y-48006677D02*
X224897000Y-48006677D01*
X215115000Y-47966677D02*
X218759000Y-47966677D01*
X221241000Y-47966677D02*
X224885000Y-47966677D01*
X215126000Y-47926677D02*
X218759000Y-47926677D01*
X221241000Y-47926677D02*
X224874000Y-47926677D01*
X215138000Y-47886677D02*
X218759000Y-47886677D01*
X221241000Y-47886677D02*
X224862000Y-47886677D01*
X215150000Y-47846677D02*
X218759000Y-47846677D01*
X221241000Y-47846677D02*
X224850000Y-47846677D01*
X215163000Y-47806677D02*
X218759000Y-47806677D01*
X221241000Y-47806677D02*
X224837000Y-47806677D01*
X215176000Y-47766677D02*
X218759000Y-47766677D01*
X221241000Y-47766677D02*
X224824000Y-47766677D01*
X215189000Y-47726677D02*
X218759000Y-47726677D01*
X221241000Y-47726677D02*
X224811000Y-47726677D01*
X215203000Y-47686677D02*
X218759000Y-47686677D01*
X221241000Y-47686677D02*
X224797000Y-47686677D01*
X215217000Y-47646677D02*
X218759000Y-47646677D01*
X221241000Y-47646677D02*
X224783000Y-47646677D01*
X215232000Y-47606677D02*
X218759000Y-47606677D01*
X221241000Y-47606677D02*
X224768000Y-47606677D01*
X215246000Y-47566677D02*
X218759000Y-47566677D01*
X221241000Y-47566677D02*
X224754000Y-47566677D01*
X215262000Y-47526677D02*
X218759000Y-47526677D01*
X221241000Y-47526677D02*
X224738000Y-47526677D01*
X215277000Y-47486677D02*
X218759000Y-47486677D01*
X221241000Y-47486677D02*
X224723000Y-47486677D01*
X215293000Y-47446677D02*
X218759000Y-47446677D01*
X221241000Y-47446677D02*
X224707000Y-47446677D01*
X215310000Y-47406677D02*
X218759000Y-47406677D01*
X221241000Y-47406677D02*
X224690000Y-47406677D01*
X215326000Y-47366677D02*
X218759000Y-47366677D01*
X221241000Y-47366677D02*
X224674000Y-47366677D01*
X215343000Y-47326677D02*
X218759000Y-47326677D01*
X221241000Y-47326677D02*
X224657000Y-47326677D01*
X215361000Y-47286677D02*
X218759000Y-47286677D01*
X221241000Y-47286677D02*
X224639000Y-47286677D01*
X215379000Y-47246677D02*
X218759000Y-47246677D01*
X221241000Y-47246677D02*
X224621000Y-47246677D01*
X215397000Y-47206677D02*
X218759000Y-47206677D01*
X221241000Y-47206677D02*
X224603000Y-47206677D01*
X215416000Y-47166677D02*
X218759000Y-47166677D01*
X221241000Y-47166677D02*
X224584000Y-47166677D01*
X215436000Y-47126677D02*
X218759000Y-47126677D01*
X221241000Y-47126677D02*
X224564000Y-47126677D01*
X215455000Y-47086677D02*
X218759000Y-47086677D01*
X221241000Y-47086677D02*
X224545000Y-47086677D01*
X215475000Y-47046677D02*
X218759000Y-47046677D01*
X221241000Y-47046677D02*
X224525000Y-47046677D01*
X215496000Y-47006677D02*
X218759000Y-47006677D01*
X221241000Y-47006677D02*
X224504000Y-47006677D01*
X215517000Y-46966677D02*
X218759000Y-46966677D01*
X221241000Y-46966677D02*
X224483000Y-46966677D01*
X215538000Y-46926677D02*
X218759000Y-46926677D01*
X221241000Y-46926677D02*
X224462000Y-46926677D01*
X215560000Y-46886677D02*
X218759000Y-46886677D01*
X221241000Y-46886677D02*
X224440000Y-46886677D01*
X215583000Y-46846677D02*
X218759000Y-46846677D01*
X221241000Y-46846677D02*
X224417000Y-46846677D01*
X215605000Y-46806677D02*
X218759000Y-46806677D01*
X221241000Y-46806677D02*
X224395000Y-46806677D01*
X215629000Y-46766677D02*
X218759000Y-46766677D01*
X221241000Y-46766677D02*
X224371000Y-46766677D01*
X215653000Y-46726677D02*
X218759000Y-46726677D01*
X221241000Y-46726677D02*
X224347000Y-46726677D01*
X215677000Y-46686677D02*
X218759000Y-46686677D01*
X221241000Y-46686677D02*
X224323000Y-46686677D01*
X215702000Y-46646677D02*
X218759000Y-46646677D01*
X221241000Y-46646677D02*
X224298000Y-46646677D01*
X215727000Y-46606677D02*
X218759000Y-46606677D01*
X221241000Y-46606677D02*
X224273000Y-46606677D01*
X215753000Y-46566677D02*
X218759000Y-46566677D01*
X221241000Y-46566677D02*
X224247000Y-46566677D01*
X215779000Y-46526677D02*
X218759000Y-46526677D01*
X221241000Y-46526677D02*
X224221000Y-46526677D01*
X215806000Y-46486677D02*
X218759000Y-46486677D01*
X221241000Y-46486677D02*
X224194000Y-46486677D01*
X215834000Y-46446677D02*
X218759000Y-46446677D01*
X221241000Y-46446677D02*
X224166000Y-46446677D01*
X215862000Y-46406677D02*
X218759000Y-46406677D01*
X221241000Y-46406677D02*
X224138000Y-46406677D01*
X215890000Y-46366677D02*
X224110000Y-46366677D01*
X215920000Y-46326677D02*
X224080000Y-46326677D01*
X215950000Y-46286677D02*
X224050000Y-46286677D01*
X215980000Y-46246677D02*
X224020000Y-46246677D01*
X216011000Y-46206677D02*
X223989000Y-46206677D01*
X216043000Y-46166677D02*
X223957000Y-46166677D01*
X216075000Y-46126677D02*
X223925000Y-46126677D01*
X216108000Y-46086677D02*
X223892000Y-46086677D01*
X216142000Y-46046677D02*
X223858000Y-46046677D01*
X216176000Y-46006677D02*
X223824000Y-46006677D01*
X216211000Y-45966677D02*
X223789000Y-45966677D01*
X216247000Y-45926677D02*
X223753000Y-45926677D01*
X216284000Y-45886677D02*
X223716000Y-45886677D01*
X216321000Y-45846677D02*
X223679000Y-45846677D01*
X216360000Y-45806677D02*
X223640000Y-45806677D01*
X216399000Y-45766677D02*
X223601000Y-45766677D01*
X216439000Y-45726677D02*
X223561000Y-45726677D01*
X216480000Y-45686677D02*
X223520000Y-45686677D01*
X216522000Y-45646677D02*
X223478000Y-45646677D01*
X216564000Y-45606677D02*
X223436000Y-45606677D01*
X216608000Y-45566677D02*
X223392000Y-45566677D01*
X216653000Y-45526677D02*
X223347000Y-45526677D01*
X216699000Y-45486677D02*
X223301000Y-45486677D01*
X216746000Y-45446677D02*
X223254000Y-45446677D01*
X216794000Y-45406677D02*
X223206000Y-45406677D01*
X216844000Y-45366677D02*
X223156000Y-45366677D01*
X216894000Y-45326677D02*
X223106000Y-45326677D01*
X216946000Y-45286677D02*
X223054000Y-45286677D01*
X217000000Y-45246677D02*
X223000000Y-45246677D01*
X217055000Y-45206677D02*
X222945000Y-45206677D01*
X217111000Y-45166677D02*
X222889000Y-45166677D01*
X217170000Y-45126677D02*
X222830000Y-45126677D01*
X217230000Y-45086677D02*
X222770000Y-45086677D01*
X217291000Y-45046677D02*
X222709000Y-45046677D01*
X217355000Y-45006677D02*
X222645000Y-45006677D01*
X217421000Y-44966677D02*
X222579000Y-44966677D01*
X217490000Y-44926677D02*
X222510000Y-44926677D01*
X217561000Y-44886677D02*
X222439000Y-44886677D01*
X217635000Y-44846677D02*
X222365000Y-44846677D01*
X217711000Y-44806677D02*
X222289000Y-44806677D01*
X217791000Y-44766677D02*
X222209000Y-44766677D01*
X217875000Y-44726677D02*
X222125000Y-44726677D01*
X217963000Y-44686677D02*
X222037000Y-44686677D01*
X218056000Y-44646677D02*
X221944000Y-44646677D01*
X218154000Y-44606677D02*
X221846000Y-44606677D01*
X218258000Y-44566677D02*
X221742000Y-44566677D01*
X218370000Y-44526677D02*
X221630000Y-44526677D01*
X218490000Y-44486677D02*
X221510000Y-44486677D01*
X218622000Y-44446677D02*
X221378000Y-44446677D01*
X218770000Y-44406677D02*
X221230000Y-44406677D01*
X218938000Y-44366677D02*
X221062000Y-44366677D01*
X219138000Y-44326677D02*
X220862000Y-44326677D01*
X219401000Y-44286677D02*
X220599000Y-44286677D01*
X225120000Y-49367677D02*
G75*
G03*
X225120000Y-49367677I-5120000J0D01*
G01*
%TO.C,LeftPD1*%
X204230000Y-40925000D02*
X210770000Y-40925000D01*
X204230000Y-41255000D02*
X204230000Y-40925000D01*
X204230000Y-43335000D02*
X204230000Y-43665000D01*
X204230000Y-43665000D02*
X210770000Y-43665000D01*
X210770000Y-40925000D02*
X210770000Y-41255000D01*
X210770000Y-43665000D02*
X210770000Y-43335000D01*
%TO.C,Left/Mono2*%
X172287500Y-52697500D02*
X172287500Y-53907500D01*
X170987500Y-52697500D02*
X172287500Y-52697500D01*
X172137500Y-52857500D02*
X151547500Y-52857500D01*
X151547500Y-52857500D02*
X151547500Y-63237500D01*
X172137500Y-56537500D02*
X171097500Y-56537500D01*
X171077500Y-56537500D02*
X171077500Y-59537500D01*
X170927500Y-57707500D02*
X169727500Y-57707500D01*
X170297500Y-57707500D02*
X170297500Y-56607500D01*
X170127500Y-57707500D02*
X170527500Y-58407500D01*
X169727500Y-57707500D02*
X169727500Y-58407500D01*
X170927500Y-58407500D02*
X170927500Y-57707500D01*
X170297500Y-58407500D02*
X170297500Y-59507500D01*
X169727500Y-58407500D02*
X170927500Y-58407500D01*
X171077500Y-59537500D02*
X172137500Y-59537500D01*
X172137500Y-63237500D02*
X172137500Y-52857500D01*
X151547500Y-63237500D02*
X172137500Y-63237500D01*
%TO.C,D5*%
X207210000Y-91955000D02*
X207210000Y-95045000D01*
X212759999Y-93500462D02*
G75*
G03*
X207210001Y-91955170I-2989999J462D01*
G01*
X207210000Y-95044830D02*
G75*
G03*
X212760000Y-93499538I2560000J1544830D01*
G01*
X212270000Y-93500000D02*
G75*
G03*
X212270000Y-93500000I-2500000J0D01*
G01*
%TO.C,Right2*%
X172287500Y-41197500D02*
X172287500Y-42407500D01*
X170987500Y-41197500D02*
X172287500Y-41197500D01*
X172137500Y-41357500D02*
X151547500Y-41357500D01*
X151547500Y-41357500D02*
X151547500Y-51737500D01*
X172137500Y-45037500D02*
X171097500Y-45037500D01*
X171077500Y-45037500D02*
X171077500Y-48037500D01*
X170927500Y-46207500D02*
X169727500Y-46207500D01*
X170297500Y-46207500D02*
X170297500Y-45107500D01*
X170127500Y-46207500D02*
X170527500Y-46907500D01*
X169727500Y-46207500D02*
X169727500Y-46907500D01*
X170927500Y-46907500D02*
X170927500Y-46207500D01*
X170297500Y-46907500D02*
X170297500Y-48007500D01*
X169727500Y-46907500D02*
X170927500Y-46907500D01*
X171077500Y-48037500D02*
X172137500Y-48037500D01*
X172137500Y-51737500D02*
X172137500Y-41357500D01*
X151547500Y-51737500D02*
X172137500Y-51737500D01*
%TO.C,RLed3*%
X140270000Y-94370000D02*
X133730000Y-94370000D01*
X140270000Y-94040000D02*
X140270000Y-94370000D01*
X140270000Y-91960000D02*
X140270000Y-91630000D01*
X140270000Y-91630000D02*
X133730000Y-91630000D01*
X133730000Y-94370000D02*
X133730000Y-94040000D01*
X133730000Y-91630000D02*
X133730000Y-91960000D01*
%TO.C,RLed4*%
X204230000Y-61630000D02*
X210770000Y-61630000D01*
X204230000Y-61960000D02*
X204230000Y-61630000D01*
X204230000Y-64040000D02*
X204230000Y-64370000D01*
X204230000Y-64370000D02*
X210770000Y-64370000D01*
X210770000Y-61630000D02*
X210770000Y-61960000D01*
X210770000Y-64370000D02*
X210770000Y-64040000D01*
%TO.C,RLed2*%
X171770000Y-94870000D02*
X165230000Y-94870000D01*
X171770000Y-94540000D02*
X171770000Y-94870000D01*
X171770000Y-92460000D02*
X171770000Y-92130000D01*
X171770000Y-92130000D02*
X165230000Y-92130000D01*
X165230000Y-94870000D02*
X165230000Y-94540000D01*
X165230000Y-92130000D02*
X165230000Y-92460000D01*
%TD*%
M02*
