%TF.GenerationSoftware,KiCad,Pcbnew,7.0.9*%
%TF.CreationDate,2024-06-08T10:48:33-04:00*%
%TF.ProjectId,8P breakout header,38502062-7265-4616-9b6f-757420686561,rev?*%
%TF.SameCoordinates,Original*%
%TF.FileFunction,Drillmap*%
%TF.FilePolarity,Positive*%
%FSLAX45Y45*%
G04 Gerber Fmt 4.5, Leading zero omitted, Abs format (unit mm)*
G04 Created by KiCad (PCBNEW 7.0.9) date 2024-06-08 10:48:33*
%MOMM*%
%LPD*%
G01*
G04 APERTURE LIST*
%ADD10C,0.100000*%
%ADD11C,0.200000*%
G04 APERTURE END LIST*
D10*
X20836305Y-10606500D02*
G75*
G03*
X20836305Y-10606500I-200805J0D01*
G01*
X20953000Y-11114500D02*
X20953000Y-9209500D01*
X18476500Y-11114500D02*
X20953000Y-11114500D01*
X19556000Y-9209500D02*
X19810000Y-9209500D01*
X19556000Y-9209500D02*
X18476500Y-9209500D01*
X20953000Y-9209500D02*
X19810000Y-9209500D01*
X18476500Y-9209500D02*
X18476500Y-11114500D01*
X18359805Y-10606500D02*
G75*
G03*
X18359805Y-10606500I-200805J0D01*
G01*
X18476500Y-11114500D02*
X18476500Y-9209500D01*
X16000000Y-11114500D02*
X18476500Y-11114500D01*
X17079500Y-9209500D02*
X17333500Y-9209500D01*
X17079500Y-9209500D02*
X16000000Y-9209500D01*
X18476500Y-9209500D02*
X17333500Y-9209500D01*
X16000000Y-9209500D02*
X16000000Y-11114500D01*
X18998805Y-7808500D02*
G75*
G03*
X18998805Y-7808500I-200805J0D01*
G01*
X18480500Y-7300500D02*
X18480500Y-9205500D01*
X20957000Y-7300500D02*
X18480500Y-7300500D01*
X19877500Y-9205500D02*
X19623500Y-9205500D01*
X19877500Y-9205500D02*
X20957000Y-9205500D01*
X18480500Y-9205500D02*
X19623500Y-9205500D01*
X20957000Y-9205500D02*
X20957000Y-7300500D01*
X16520305Y-7810500D02*
G75*
G03*
X16520305Y-7810500I-200805J0D01*
G01*
X16002000Y-7302500D02*
X16002000Y-9207500D01*
X17399000Y-9207500D02*
X17145000Y-9207500D01*
X17399000Y-9207500D02*
X18478500Y-9207500D01*
X18478500Y-9207500D02*
X18478500Y-7302500D01*
X16002000Y-9207500D02*
X17145000Y-9207500D01*
X18478500Y-7302500D02*
X16002000Y-7302500D01*
D11*
D10*
X16486250Y-10185500D02*
X16562250Y-10261500D01*
X16562250Y-10185500D02*
X16486250Y-10261500D01*
X16613250Y-9931500D02*
X16689250Y-10007500D01*
X16689250Y-9931500D02*
X16613250Y-10007500D01*
X16740250Y-10185500D02*
X16816250Y-10261500D01*
X16816250Y-10185500D02*
X16740250Y-10261500D01*
X16867250Y-9931500D02*
X16943250Y-10007500D01*
X16943250Y-9931500D02*
X16867250Y-10007500D01*
X16994250Y-10185500D02*
X17070250Y-10261500D01*
X17070250Y-10185500D02*
X16994250Y-10261500D01*
X17027250Y-8409500D02*
X17103250Y-8485500D01*
X17103250Y-8409500D02*
X17027250Y-8485500D01*
X17121250Y-9931500D02*
X17197250Y-10007500D01*
X17197250Y-9931500D02*
X17121250Y-10007500D01*
X17154250Y-8155500D02*
X17230250Y-8231500D01*
X17230250Y-8155500D02*
X17154250Y-8231500D01*
X17248250Y-10185500D02*
X17324250Y-10261500D01*
X17324250Y-10185500D02*
X17248250Y-10261500D01*
X17281250Y-8409500D02*
X17357250Y-8485500D01*
X17357250Y-8409500D02*
X17281250Y-8485500D01*
X17375250Y-9931500D02*
X17451250Y-10007500D01*
X17451250Y-9931500D02*
X17375250Y-10007500D01*
X17408250Y-8155500D02*
X17484250Y-8231500D01*
X17484250Y-8155500D02*
X17408250Y-8231500D01*
X17535250Y-8409500D02*
X17611250Y-8485500D01*
X17611250Y-8409500D02*
X17535250Y-8485500D01*
X17662250Y-8155500D02*
X17738250Y-8231500D01*
X17738250Y-8155500D02*
X17662250Y-8231500D01*
X17789250Y-8409500D02*
X17865250Y-8485500D01*
X17865250Y-8409500D02*
X17789250Y-8485500D01*
X17916250Y-8155500D02*
X17992250Y-8231500D01*
X17992250Y-8155500D02*
X17916250Y-8231500D01*
X18962750Y-10185500D02*
X19038750Y-10261500D01*
X19038750Y-10185500D02*
X18962750Y-10261500D01*
X19089750Y-9931500D02*
X19165750Y-10007500D01*
X19165750Y-9931500D02*
X19089750Y-10007500D01*
X19216750Y-10185500D02*
X19292750Y-10261500D01*
X19292750Y-10185500D02*
X19216750Y-10261500D01*
X19343750Y-9931500D02*
X19419750Y-10007500D01*
X19419750Y-9931500D02*
X19343750Y-10007500D01*
X19470750Y-10185500D02*
X19546750Y-10261500D01*
X19546750Y-10185500D02*
X19470750Y-10261500D01*
X19505750Y-8407500D02*
X19581750Y-8483500D01*
X19581750Y-8407500D02*
X19505750Y-8483500D01*
X19597750Y-9931500D02*
X19673750Y-10007500D01*
X19673750Y-9931500D02*
X19597750Y-10007500D01*
X19632750Y-8153500D02*
X19708750Y-8229500D01*
X19708750Y-8153500D02*
X19632750Y-8229500D01*
X19724750Y-10185500D02*
X19800750Y-10261500D01*
X19800750Y-10185500D02*
X19724750Y-10261500D01*
X19759750Y-8407500D02*
X19835750Y-8483500D01*
X19835750Y-8407500D02*
X19759750Y-8483500D01*
X19851750Y-9931500D02*
X19927750Y-10007500D01*
X19927750Y-9931500D02*
X19851750Y-10007500D01*
X19886750Y-8153500D02*
X19962750Y-8229500D01*
X19962750Y-8153500D02*
X19886750Y-8229500D01*
X20013750Y-8407500D02*
X20089750Y-8483500D01*
X20089750Y-8407500D02*
X20013750Y-8483500D01*
X20140750Y-8153500D02*
X20216750Y-8229500D01*
X20216750Y-8153500D02*
X20140750Y-8229500D01*
X20267750Y-8407500D02*
X20343750Y-8483500D01*
X20343750Y-8407500D02*
X20267750Y-8483500D01*
X20394750Y-8153500D02*
X20470750Y-8229500D01*
X20470750Y-8153500D02*
X20394750Y-8229500D01*
X16367500Y-9463500D02*
G75*
G03*
X16367500Y-9463500I-50000J0D01*
G01*
X16433000Y-8953500D02*
G75*
G03*
X16433000Y-8953500I-50000J0D01*
G01*
X16621500Y-9463500D02*
G75*
G03*
X16621500Y-9463500I-50000J0D01*
G01*
X16687000Y-8953500D02*
G75*
G03*
X16687000Y-8953500I-50000J0D01*
G01*
X16875500Y-9463500D02*
G75*
G03*
X16875500Y-9463500I-50000J0D01*
G01*
X16941000Y-8953500D02*
G75*
G03*
X16941000Y-8953500I-50000J0D01*
G01*
X17129500Y-9463500D02*
G75*
G03*
X17129500Y-9463500I-50000J0D01*
G01*
X17195000Y-8953500D02*
G75*
G03*
X17195000Y-8953500I-50000J0D01*
G01*
X17383500Y-9463500D02*
G75*
G03*
X17383500Y-9463500I-50000J0D01*
G01*
X17449000Y-8953500D02*
G75*
G03*
X17449000Y-8953500I-50000J0D01*
G01*
X17637500Y-9463500D02*
G75*
G03*
X17637500Y-9463500I-50000J0D01*
G01*
X17703000Y-8953500D02*
G75*
G03*
X17703000Y-8953500I-50000J0D01*
G01*
X17891500Y-9463500D02*
G75*
G03*
X17891500Y-9463500I-50000J0D01*
G01*
X17957000Y-8953500D02*
G75*
G03*
X17957000Y-8953500I-50000J0D01*
G01*
X18145500Y-9463500D02*
G75*
G03*
X18145500Y-9463500I-50000J0D01*
G01*
X18211000Y-8953500D02*
G75*
G03*
X18211000Y-8953500I-50000J0D01*
G01*
X18844000Y-9463500D02*
G75*
G03*
X18844000Y-9463500I-50000J0D01*
G01*
X18911500Y-8951500D02*
G75*
G03*
X18911500Y-8951500I-50000J0D01*
G01*
X19098000Y-9463500D02*
G75*
G03*
X19098000Y-9463500I-50000J0D01*
G01*
X19165500Y-8951500D02*
G75*
G03*
X19165500Y-8951500I-50000J0D01*
G01*
X19352000Y-9463500D02*
G75*
G03*
X19352000Y-9463500I-50000J0D01*
G01*
X19419500Y-8951500D02*
G75*
G03*
X19419500Y-8951500I-50000J0D01*
G01*
X19606000Y-9463500D02*
G75*
G03*
X19606000Y-9463500I-50000J0D01*
G01*
X19673500Y-8951500D02*
G75*
G03*
X19673500Y-8951500I-50000J0D01*
G01*
X19860000Y-9463500D02*
G75*
G03*
X19860000Y-9463500I-50000J0D01*
G01*
X19927500Y-8951500D02*
G75*
G03*
X19927500Y-8951500I-50000J0D01*
G01*
X20114000Y-9463500D02*
G75*
G03*
X20114000Y-9463500I-50000J0D01*
G01*
X20181500Y-8951500D02*
G75*
G03*
X20181500Y-8951500I-50000J0D01*
G01*
X20368000Y-9463500D02*
G75*
G03*
X20368000Y-9463500I-50000J0D01*
G01*
X20435500Y-8951500D02*
G75*
G03*
X20435500Y-8951500I-50000J0D01*
G01*
X20622000Y-9463500D02*
G75*
G03*
X20622000Y-9463500I-50000J0D01*
G01*
X20689500Y-8951500D02*
G75*
G03*
X20689500Y-8951500I-50000J0D01*
G01*
D11*
X16255777Y-11430984D02*
X16255777Y-11230984D01*
X16255777Y-11230984D02*
X16303396Y-11230984D01*
X16303396Y-11230984D02*
X16331967Y-11240508D01*
X16331967Y-11240508D02*
X16351015Y-11259555D01*
X16351015Y-11259555D02*
X16360539Y-11278603D01*
X16360539Y-11278603D02*
X16370062Y-11316698D01*
X16370062Y-11316698D02*
X16370062Y-11345269D01*
X16370062Y-11345269D02*
X16360539Y-11383365D01*
X16360539Y-11383365D02*
X16351015Y-11402412D01*
X16351015Y-11402412D02*
X16331967Y-11421460D01*
X16331967Y-11421460D02*
X16303396Y-11430984D01*
X16303396Y-11430984D02*
X16255777Y-11430984D01*
X16455777Y-11430984D02*
X16455777Y-11297650D01*
X16455777Y-11335746D02*
X16465301Y-11316698D01*
X16465301Y-11316698D02*
X16474824Y-11307174D01*
X16474824Y-11307174D02*
X16493872Y-11297650D01*
X16493872Y-11297650D02*
X16512920Y-11297650D01*
X16579586Y-11430984D02*
X16579586Y-11297650D01*
X16579586Y-11230984D02*
X16570062Y-11240508D01*
X16570062Y-11240508D02*
X16579586Y-11250031D01*
X16579586Y-11250031D02*
X16589110Y-11240508D01*
X16589110Y-11240508D02*
X16579586Y-11230984D01*
X16579586Y-11230984D02*
X16579586Y-11250031D01*
X16703396Y-11430984D02*
X16684348Y-11421460D01*
X16684348Y-11421460D02*
X16674824Y-11402412D01*
X16674824Y-11402412D02*
X16674824Y-11230984D01*
X16808158Y-11430984D02*
X16789110Y-11421460D01*
X16789110Y-11421460D02*
X16779586Y-11402412D01*
X16779586Y-11402412D02*
X16779586Y-11230984D01*
X17036729Y-11430984D02*
X17036729Y-11230984D01*
X17036729Y-11230984D02*
X17103396Y-11373841D01*
X17103396Y-11373841D02*
X17170063Y-11230984D01*
X17170063Y-11230984D02*
X17170063Y-11430984D01*
X17351015Y-11430984D02*
X17351015Y-11326222D01*
X17351015Y-11326222D02*
X17341491Y-11307174D01*
X17341491Y-11307174D02*
X17322444Y-11297650D01*
X17322444Y-11297650D02*
X17284348Y-11297650D01*
X17284348Y-11297650D02*
X17265301Y-11307174D01*
X17351015Y-11421460D02*
X17331967Y-11430984D01*
X17331967Y-11430984D02*
X17284348Y-11430984D01*
X17284348Y-11430984D02*
X17265301Y-11421460D01*
X17265301Y-11421460D02*
X17255777Y-11402412D01*
X17255777Y-11402412D02*
X17255777Y-11383365D01*
X17255777Y-11383365D02*
X17265301Y-11364317D01*
X17265301Y-11364317D02*
X17284348Y-11354793D01*
X17284348Y-11354793D02*
X17331967Y-11354793D01*
X17331967Y-11354793D02*
X17351015Y-11345269D01*
X17446253Y-11297650D02*
X17446253Y-11497650D01*
X17446253Y-11307174D02*
X17465301Y-11297650D01*
X17465301Y-11297650D02*
X17503396Y-11297650D01*
X17503396Y-11297650D02*
X17522444Y-11307174D01*
X17522444Y-11307174D02*
X17531967Y-11316698D01*
X17531967Y-11316698D02*
X17541491Y-11335746D01*
X17541491Y-11335746D02*
X17541491Y-11392888D01*
X17541491Y-11392888D02*
X17531967Y-11411936D01*
X17531967Y-11411936D02*
X17522444Y-11421460D01*
X17522444Y-11421460D02*
X17503396Y-11430984D01*
X17503396Y-11430984D02*
X17465301Y-11430984D01*
X17465301Y-11430984D02*
X17446253Y-11421460D01*
X17627205Y-11411936D02*
X17636729Y-11421460D01*
X17636729Y-11421460D02*
X17627205Y-11430984D01*
X17627205Y-11430984D02*
X17617682Y-11421460D01*
X17617682Y-11421460D02*
X17627205Y-11411936D01*
X17627205Y-11411936D02*
X17627205Y-11430984D01*
X17627205Y-11307174D02*
X17636729Y-11316698D01*
X17636729Y-11316698D02*
X17627205Y-11326222D01*
X17627205Y-11326222D02*
X17617682Y-11316698D01*
X17617682Y-11316698D02*
X17627205Y-11307174D01*
X17627205Y-11307174D02*
X17627205Y-11326222D01*
D10*
X15919000Y-11721500D02*
X15995000Y-11797500D01*
X15995000Y-11721500D02*
X15919000Y-11797500D01*
D11*
X16293872Y-11650984D02*
X16312920Y-11650984D01*
X16312920Y-11650984D02*
X16331967Y-11660508D01*
X16331967Y-11660508D02*
X16341491Y-11670031D01*
X16341491Y-11670031D02*
X16351015Y-11689079D01*
X16351015Y-11689079D02*
X16360539Y-11727174D01*
X16360539Y-11727174D02*
X16360539Y-11774793D01*
X16360539Y-11774793D02*
X16351015Y-11812888D01*
X16351015Y-11812888D02*
X16341491Y-11831936D01*
X16341491Y-11831936D02*
X16331967Y-11841460D01*
X16331967Y-11841460D02*
X16312920Y-11850984D01*
X16312920Y-11850984D02*
X16293872Y-11850984D01*
X16293872Y-11850984D02*
X16274824Y-11841460D01*
X16274824Y-11841460D02*
X16265301Y-11831936D01*
X16265301Y-11831936D02*
X16255777Y-11812888D01*
X16255777Y-11812888D02*
X16246253Y-11774793D01*
X16246253Y-11774793D02*
X16246253Y-11727174D01*
X16246253Y-11727174D02*
X16255777Y-11689079D01*
X16255777Y-11689079D02*
X16265301Y-11670031D01*
X16265301Y-11670031D02*
X16274824Y-11660508D01*
X16274824Y-11660508D02*
X16293872Y-11650984D01*
X16446253Y-11831936D02*
X16455777Y-11841460D01*
X16455777Y-11841460D02*
X16446253Y-11850984D01*
X16446253Y-11850984D02*
X16436729Y-11841460D01*
X16436729Y-11841460D02*
X16446253Y-11831936D01*
X16446253Y-11831936D02*
X16446253Y-11850984D01*
X16522443Y-11650984D02*
X16655777Y-11650984D01*
X16655777Y-11650984D02*
X16570062Y-11850984D01*
X16817682Y-11650984D02*
X16779586Y-11650984D01*
X16779586Y-11650984D02*
X16760539Y-11660508D01*
X16760539Y-11660508D02*
X16751015Y-11670031D01*
X16751015Y-11670031D02*
X16731967Y-11698603D01*
X16731967Y-11698603D02*
X16722443Y-11736698D01*
X16722443Y-11736698D02*
X16722443Y-11812888D01*
X16722443Y-11812888D02*
X16731967Y-11831936D01*
X16731967Y-11831936D02*
X16741491Y-11841460D01*
X16741491Y-11841460D02*
X16760539Y-11850984D01*
X16760539Y-11850984D02*
X16798634Y-11850984D01*
X16798634Y-11850984D02*
X16817682Y-11841460D01*
X16817682Y-11841460D02*
X16827205Y-11831936D01*
X16827205Y-11831936D02*
X16836729Y-11812888D01*
X16836729Y-11812888D02*
X16836729Y-11765269D01*
X16836729Y-11765269D02*
X16827205Y-11746222D01*
X16827205Y-11746222D02*
X16817682Y-11736698D01*
X16817682Y-11736698D02*
X16798634Y-11727174D01*
X16798634Y-11727174D02*
X16760539Y-11727174D01*
X16760539Y-11727174D02*
X16741491Y-11736698D01*
X16741491Y-11736698D02*
X16731967Y-11746222D01*
X16731967Y-11746222D02*
X16722443Y-11765269D01*
X16960539Y-11650984D02*
X16979586Y-11650984D01*
X16979586Y-11650984D02*
X16998634Y-11660508D01*
X16998634Y-11660508D02*
X17008158Y-11670031D01*
X17008158Y-11670031D02*
X17017682Y-11689079D01*
X17017682Y-11689079D02*
X17027205Y-11727174D01*
X17027205Y-11727174D02*
X17027205Y-11774793D01*
X17027205Y-11774793D02*
X17017682Y-11812888D01*
X17017682Y-11812888D02*
X17008158Y-11831936D01*
X17008158Y-11831936D02*
X16998634Y-11841460D01*
X16998634Y-11841460D02*
X16979586Y-11850984D01*
X16979586Y-11850984D02*
X16960539Y-11850984D01*
X16960539Y-11850984D02*
X16941491Y-11841460D01*
X16941491Y-11841460D02*
X16931967Y-11831936D01*
X16931967Y-11831936D02*
X16922444Y-11812888D01*
X16922444Y-11812888D02*
X16912920Y-11774793D01*
X16912920Y-11774793D02*
X16912920Y-11727174D01*
X16912920Y-11727174D02*
X16922444Y-11689079D01*
X16922444Y-11689079D02*
X16931967Y-11670031D01*
X16931967Y-11670031D02*
X16941491Y-11660508D01*
X16941491Y-11660508D02*
X16960539Y-11650984D01*
X17112920Y-11850984D02*
X17112920Y-11717650D01*
X17112920Y-11736698D02*
X17122444Y-11727174D01*
X17122444Y-11727174D02*
X17141491Y-11717650D01*
X17141491Y-11717650D02*
X17170063Y-11717650D01*
X17170063Y-11717650D02*
X17189110Y-11727174D01*
X17189110Y-11727174D02*
X17198634Y-11746222D01*
X17198634Y-11746222D02*
X17198634Y-11850984D01*
X17198634Y-11746222D02*
X17208158Y-11727174D01*
X17208158Y-11727174D02*
X17227205Y-11717650D01*
X17227205Y-11717650D02*
X17255777Y-11717650D01*
X17255777Y-11717650D02*
X17274825Y-11727174D01*
X17274825Y-11727174D02*
X17284348Y-11746222D01*
X17284348Y-11746222D02*
X17284348Y-11850984D01*
X17379586Y-11850984D02*
X17379586Y-11717650D01*
X17379586Y-11736698D02*
X17389110Y-11727174D01*
X17389110Y-11727174D02*
X17408158Y-11717650D01*
X17408158Y-11717650D02*
X17436729Y-11717650D01*
X17436729Y-11717650D02*
X17455777Y-11727174D01*
X17455777Y-11727174D02*
X17465301Y-11746222D01*
X17465301Y-11746222D02*
X17465301Y-11850984D01*
X17465301Y-11746222D02*
X17474825Y-11727174D01*
X17474825Y-11727174D02*
X17493872Y-11717650D01*
X17493872Y-11717650D02*
X17522444Y-11717650D01*
X17522444Y-11717650D02*
X17541491Y-11727174D01*
X17541491Y-11727174D02*
X17551015Y-11746222D01*
X17551015Y-11746222D02*
X17551015Y-11850984D01*
X17941491Y-11641460D02*
X17770063Y-11898603D01*
X18198634Y-11650984D02*
X18217682Y-11650984D01*
X18217682Y-11650984D02*
X18236729Y-11660508D01*
X18236729Y-11660508D02*
X18246253Y-11670031D01*
X18246253Y-11670031D02*
X18255777Y-11689079D01*
X18255777Y-11689079D02*
X18265301Y-11727174D01*
X18265301Y-11727174D02*
X18265301Y-11774793D01*
X18265301Y-11774793D02*
X18255777Y-11812888D01*
X18255777Y-11812888D02*
X18246253Y-11831936D01*
X18246253Y-11831936D02*
X18236729Y-11841460D01*
X18236729Y-11841460D02*
X18217682Y-11850984D01*
X18217682Y-11850984D02*
X18198634Y-11850984D01*
X18198634Y-11850984D02*
X18179587Y-11841460D01*
X18179587Y-11841460D02*
X18170063Y-11831936D01*
X18170063Y-11831936D02*
X18160539Y-11812888D01*
X18160539Y-11812888D02*
X18151015Y-11774793D01*
X18151015Y-11774793D02*
X18151015Y-11727174D01*
X18151015Y-11727174D02*
X18160539Y-11689079D01*
X18160539Y-11689079D02*
X18170063Y-11670031D01*
X18170063Y-11670031D02*
X18179587Y-11660508D01*
X18179587Y-11660508D02*
X18198634Y-11650984D01*
X18351015Y-11831936D02*
X18360539Y-11841460D01*
X18360539Y-11841460D02*
X18351015Y-11850984D01*
X18351015Y-11850984D02*
X18341491Y-11841460D01*
X18341491Y-11841460D02*
X18351015Y-11831936D01*
X18351015Y-11831936D02*
X18351015Y-11850984D01*
X18484348Y-11650984D02*
X18503396Y-11650984D01*
X18503396Y-11650984D02*
X18522444Y-11660508D01*
X18522444Y-11660508D02*
X18531968Y-11670031D01*
X18531968Y-11670031D02*
X18541491Y-11689079D01*
X18541491Y-11689079D02*
X18551015Y-11727174D01*
X18551015Y-11727174D02*
X18551015Y-11774793D01*
X18551015Y-11774793D02*
X18541491Y-11812888D01*
X18541491Y-11812888D02*
X18531968Y-11831936D01*
X18531968Y-11831936D02*
X18522444Y-11841460D01*
X18522444Y-11841460D02*
X18503396Y-11850984D01*
X18503396Y-11850984D02*
X18484348Y-11850984D01*
X18484348Y-11850984D02*
X18465301Y-11841460D01*
X18465301Y-11841460D02*
X18455777Y-11831936D01*
X18455777Y-11831936D02*
X18446253Y-11812888D01*
X18446253Y-11812888D02*
X18436729Y-11774793D01*
X18436729Y-11774793D02*
X18436729Y-11727174D01*
X18436729Y-11727174D02*
X18446253Y-11689079D01*
X18446253Y-11689079D02*
X18455777Y-11670031D01*
X18455777Y-11670031D02*
X18465301Y-11660508D01*
X18465301Y-11660508D02*
X18484348Y-11650984D01*
X18627206Y-11670031D02*
X18636729Y-11660508D01*
X18636729Y-11660508D02*
X18655777Y-11650984D01*
X18655777Y-11650984D02*
X18703396Y-11650984D01*
X18703396Y-11650984D02*
X18722444Y-11660508D01*
X18722444Y-11660508D02*
X18731968Y-11670031D01*
X18731968Y-11670031D02*
X18741491Y-11689079D01*
X18741491Y-11689079D02*
X18741491Y-11708127D01*
X18741491Y-11708127D02*
X18731968Y-11736698D01*
X18731968Y-11736698D02*
X18617682Y-11850984D01*
X18617682Y-11850984D02*
X18741491Y-11850984D01*
X18836729Y-11850984D02*
X18874825Y-11850984D01*
X18874825Y-11850984D02*
X18893872Y-11841460D01*
X18893872Y-11841460D02*
X18903396Y-11831936D01*
X18903396Y-11831936D02*
X18922444Y-11803365D01*
X18922444Y-11803365D02*
X18931968Y-11765269D01*
X18931968Y-11765269D02*
X18931968Y-11689079D01*
X18931968Y-11689079D02*
X18922444Y-11670031D01*
X18922444Y-11670031D02*
X18912920Y-11660508D01*
X18912920Y-11660508D02*
X18893872Y-11650984D01*
X18893872Y-11650984D02*
X18855777Y-11650984D01*
X18855777Y-11650984D02*
X18836729Y-11660508D01*
X18836729Y-11660508D02*
X18827206Y-11670031D01*
X18827206Y-11670031D02*
X18817682Y-11689079D01*
X18817682Y-11689079D02*
X18817682Y-11736698D01*
X18817682Y-11736698D02*
X18827206Y-11755746D01*
X18827206Y-11755746D02*
X18836729Y-11765269D01*
X18836729Y-11765269D02*
X18855777Y-11774793D01*
X18855777Y-11774793D02*
X18893872Y-11774793D01*
X18893872Y-11774793D02*
X18912920Y-11765269D01*
X18912920Y-11765269D02*
X18922444Y-11755746D01*
X18922444Y-11755746D02*
X18931968Y-11736698D01*
X19027206Y-11850984D02*
X19065301Y-11850984D01*
X19065301Y-11850984D02*
X19084349Y-11841460D01*
X19084349Y-11841460D02*
X19093872Y-11831936D01*
X19093872Y-11831936D02*
X19112920Y-11803365D01*
X19112920Y-11803365D02*
X19122444Y-11765269D01*
X19122444Y-11765269D02*
X19122444Y-11689079D01*
X19122444Y-11689079D02*
X19112920Y-11670031D01*
X19112920Y-11670031D02*
X19103396Y-11660508D01*
X19103396Y-11660508D02*
X19084349Y-11650984D01*
X19084349Y-11650984D02*
X19046253Y-11650984D01*
X19046253Y-11650984D02*
X19027206Y-11660508D01*
X19027206Y-11660508D02*
X19017682Y-11670031D01*
X19017682Y-11670031D02*
X19008158Y-11689079D01*
X19008158Y-11689079D02*
X19008158Y-11736698D01*
X19008158Y-11736698D02*
X19017682Y-11755746D01*
X19017682Y-11755746D02*
X19027206Y-11765269D01*
X19027206Y-11765269D02*
X19046253Y-11774793D01*
X19046253Y-11774793D02*
X19084349Y-11774793D01*
X19084349Y-11774793D02*
X19103396Y-11765269D01*
X19103396Y-11765269D02*
X19112920Y-11755746D01*
X19112920Y-11755746D02*
X19122444Y-11736698D01*
X19198634Y-11650984D02*
X19198634Y-11689079D01*
X19274825Y-11650984D02*
X19274825Y-11689079D01*
X19570063Y-11927174D02*
X19560539Y-11917650D01*
X19560539Y-11917650D02*
X19541491Y-11889079D01*
X19541491Y-11889079D02*
X19531968Y-11870031D01*
X19531968Y-11870031D02*
X19522444Y-11841460D01*
X19522444Y-11841460D02*
X19512920Y-11793841D01*
X19512920Y-11793841D02*
X19512920Y-11755746D01*
X19512920Y-11755746D02*
X19522444Y-11708127D01*
X19522444Y-11708127D02*
X19531968Y-11679555D01*
X19531968Y-11679555D02*
X19541491Y-11660508D01*
X19541491Y-11660508D02*
X19560539Y-11631936D01*
X19560539Y-11631936D02*
X19570063Y-11622412D01*
X19627206Y-11650984D02*
X19751015Y-11650984D01*
X19751015Y-11650984D02*
X19684349Y-11727174D01*
X19684349Y-11727174D02*
X19712920Y-11727174D01*
X19712920Y-11727174D02*
X19731968Y-11736698D01*
X19731968Y-11736698D02*
X19741491Y-11746222D01*
X19741491Y-11746222D02*
X19751015Y-11765269D01*
X19751015Y-11765269D02*
X19751015Y-11812888D01*
X19751015Y-11812888D02*
X19741491Y-11831936D01*
X19741491Y-11831936D02*
X19731968Y-11841460D01*
X19731968Y-11841460D02*
X19712920Y-11850984D01*
X19712920Y-11850984D02*
X19655777Y-11850984D01*
X19655777Y-11850984D02*
X19636730Y-11841460D01*
X19636730Y-11841460D02*
X19627206Y-11831936D01*
X19827206Y-11670031D02*
X19836730Y-11660508D01*
X19836730Y-11660508D02*
X19855777Y-11650984D01*
X19855777Y-11650984D02*
X19903396Y-11650984D01*
X19903396Y-11650984D02*
X19922444Y-11660508D01*
X19922444Y-11660508D02*
X19931968Y-11670031D01*
X19931968Y-11670031D02*
X19941491Y-11689079D01*
X19941491Y-11689079D02*
X19941491Y-11708127D01*
X19941491Y-11708127D02*
X19931968Y-11736698D01*
X19931968Y-11736698D02*
X19817682Y-11850984D01*
X19817682Y-11850984D02*
X19941491Y-11850984D01*
X20179587Y-11850984D02*
X20179587Y-11650984D01*
X20265301Y-11850984D02*
X20265301Y-11746222D01*
X20265301Y-11746222D02*
X20255777Y-11727174D01*
X20255777Y-11727174D02*
X20236730Y-11717650D01*
X20236730Y-11717650D02*
X20208158Y-11717650D01*
X20208158Y-11717650D02*
X20189111Y-11727174D01*
X20189111Y-11727174D02*
X20179587Y-11736698D01*
X20389111Y-11850984D02*
X20370063Y-11841460D01*
X20370063Y-11841460D02*
X20360539Y-11831936D01*
X20360539Y-11831936D02*
X20351015Y-11812888D01*
X20351015Y-11812888D02*
X20351015Y-11755746D01*
X20351015Y-11755746D02*
X20360539Y-11736698D01*
X20360539Y-11736698D02*
X20370063Y-11727174D01*
X20370063Y-11727174D02*
X20389111Y-11717650D01*
X20389111Y-11717650D02*
X20417682Y-11717650D01*
X20417682Y-11717650D02*
X20436730Y-11727174D01*
X20436730Y-11727174D02*
X20446253Y-11736698D01*
X20446253Y-11736698D02*
X20455777Y-11755746D01*
X20455777Y-11755746D02*
X20455777Y-11812888D01*
X20455777Y-11812888D02*
X20446253Y-11831936D01*
X20446253Y-11831936D02*
X20436730Y-11841460D01*
X20436730Y-11841460D02*
X20417682Y-11850984D01*
X20417682Y-11850984D02*
X20389111Y-11850984D01*
X20570063Y-11850984D02*
X20551015Y-11841460D01*
X20551015Y-11841460D02*
X20541492Y-11822412D01*
X20541492Y-11822412D02*
X20541492Y-11650984D01*
X20722444Y-11841460D02*
X20703396Y-11850984D01*
X20703396Y-11850984D02*
X20665301Y-11850984D01*
X20665301Y-11850984D02*
X20646253Y-11841460D01*
X20646253Y-11841460D02*
X20636730Y-11822412D01*
X20636730Y-11822412D02*
X20636730Y-11746222D01*
X20636730Y-11746222D02*
X20646253Y-11727174D01*
X20646253Y-11727174D02*
X20665301Y-11717650D01*
X20665301Y-11717650D02*
X20703396Y-11717650D01*
X20703396Y-11717650D02*
X20722444Y-11727174D01*
X20722444Y-11727174D02*
X20731968Y-11746222D01*
X20731968Y-11746222D02*
X20731968Y-11765269D01*
X20731968Y-11765269D02*
X20636730Y-11784317D01*
X20808158Y-11841460D02*
X20827206Y-11850984D01*
X20827206Y-11850984D02*
X20865301Y-11850984D01*
X20865301Y-11850984D02*
X20884349Y-11841460D01*
X20884349Y-11841460D02*
X20893873Y-11822412D01*
X20893873Y-11822412D02*
X20893873Y-11812888D01*
X20893873Y-11812888D02*
X20884349Y-11793841D01*
X20884349Y-11793841D02*
X20865301Y-11784317D01*
X20865301Y-11784317D02*
X20836730Y-11784317D01*
X20836730Y-11784317D02*
X20817682Y-11774793D01*
X20817682Y-11774793D02*
X20808158Y-11755746D01*
X20808158Y-11755746D02*
X20808158Y-11746222D01*
X20808158Y-11746222D02*
X20817682Y-11727174D01*
X20817682Y-11727174D02*
X20836730Y-11717650D01*
X20836730Y-11717650D02*
X20865301Y-11717650D01*
X20865301Y-11717650D02*
X20884349Y-11727174D01*
X20960539Y-11927174D02*
X20970063Y-11917650D01*
X20970063Y-11917650D02*
X20989111Y-11889079D01*
X20989111Y-11889079D02*
X20998634Y-11870031D01*
X20998634Y-11870031D02*
X21008158Y-11841460D01*
X21008158Y-11841460D02*
X21017682Y-11793841D01*
X21017682Y-11793841D02*
X21017682Y-11755746D01*
X21017682Y-11755746D02*
X21008158Y-11708127D01*
X21008158Y-11708127D02*
X20998634Y-11679555D01*
X20998634Y-11679555D02*
X20989111Y-11660508D01*
X20989111Y-11660508D02*
X20970063Y-11631936D01*
X20970063Y-11631936D02*
X20960539Y-11622412D01*
D10*
X15995000Y-12023500D02*
G75*
G03*
X15995000Y-12023500I-50000J0D01*
G01*
D11*
X16360539Y-12114984D02*
X16246253Y-12114984D01*
X16303396Y-12114984D02*
X16303396Y-11914984D01*
X16303396Y-11914984D02*
X16284348Y-11943555D01*
X16284348Y-11943555D02*
X16265301Y-11962603D01*
X16265301Y-11962603D02*
X16246253Y-11972127D01*
X16446253Y-12095936D02*
X16455777Y-12105460D01*
X16455777Y-12105460D02*
X16446253Y-12114984D01*
X16446253Y-12114984D02*
X16436729Y-12105460D01*
X16436729Y-12105460D02*
X16446253Y-12095936D01*
X16446253Y-12095936D02*
X16446253Y-12114984D01*
X16579586Y-11914984D02*
X16598634Y-11914984D01*
X16598634Y-11914984D02*
X16617682Y-11924508D01*
X16617682Y-11924508D02*
X16627205Y-11934031D01*
X16627205Y-11934031D02*
X16636729Y-11953079D01*
X16636729Y-11953079D02*
X16646253Y-11991174D01*
X16646253Y-11991174D02*
X16646253Y-12038793D01*
X16646253Y-12038793D02*
X16636729Y-12076888D01*
X16636729Y-12076888D02*
X16627205Y-12095936D01*
X16627205Y-12095936D02*
X16617682Y-12105460D01*
X16617682Y-12105460D02*
X16598634Y-12114984D01*
X16598634Y-12114984D02*
X16579586Y-12114984D01*
X16579586Y-12114984D02*
X16560539Y-12105460D01*
X16560539Y-12105460D02*
X16551015Y-12095936D01*
X16551015Y-12095936D02*
X16541491Y-12076888D01*
X16541491Y-12076888D02*
X16531967Y-12038793D01*
X16531967Y-12038793D02*
X16531967Y-11991174D01*
X16531967Y-11991174D02*
X16541491Y-11953079D01*
X16541491Y-11953079D02*
X16551015Y-11934031D01*
X16551015Y-11934031D02*
X16560539Y-11924508D01*
X16560539Y-11924508D02*
X16579586Y-11914984D01*
X16770062Y-11914984D02*
X16789110Y-11914984D01*
X16789110Y-11914984D02*
X16808158Y-11924508D01*
X16808158Y-11924508D02*
X16817682Y-11934031D01*
X16817682Y-11934031D02*
X16827205Y-11953079D01*
X16827205Y-11953079D02*
X16836729Y-11991174D01*
X16836729Y-11991174D02*
X16836729Y-12038793D01*
X16836729Y-12038793D02*
X16827205Y-12076888D01*
X16827205Y-12076888D02*
X16817682Y-12095936D01*
X16817682Y-12095936D02*
X16808158Y-12105460D01*
X16808158Y-12105460D02*
X16789110Y-12114984D01*
X16789110Y-12114984D02*
X16770062Y-12114984D01*
X16770062Y-12114984D02*
X16751015Y-12105460D01*
X16751015Y-12105460D02*
X16741491Y-12095936D01*
X16741491Y-12095936D02*
X16731967Y-12076888D01*
X16731967Y-12076888D02*
X16722443Y-12038793D01*
X16722443Y-12038793D02*
X16722443Y-11991174D01*
X16722443Y-11991174D02*
X16731967Y-11953079D01*
X16731967Y-11953079D02*
X16741491Y-11934031D01*
X16741491Y-11934031D02*
X16751015Y-11924508D01*
X16751015Y-11924508D02*
X16770062Y-11914984D01*
X16960539Y-11914984D02*
X16979586Y-11914984D01*
X16979586Y-11914984D02*
X16998634Y-11924508D01*
X16998634Y-11924508D02*
X17008158Y-11934031D01*
X17008158Y-11934031D02*
X17017682Y-11953079D01*
X17017682Y-11953079D02*
X17027205Y-11991174D01*
X17027205Y-11991174D02*
X17027205Y-12038793D01*
X17027205Y-12038793D02*
X17017682Y-12076888D01*
X17017682Y-12076888D02*
X17008158Y-12095936D01*
X17008158Y-12095936D02*
X16998634Y-12105460D01*
X16998634Y-12105460D02*
X16979586Y-12114984D01*
X16979586Y-12114984D02*
X16960539Y-12114984D01*
X16960539Y-12114984D02*
X16941491Y-12105460D01*
X16941491Y-12105460D02*
X16931967Y-12095936D01*
X16931967Y-12095936D02*
X16922444Y-12076888D01*
X16922444Y-12076888D02*
X16912920Y-12038793D01*
X16912920Y-12038793D02*
X16912920Y-11991174D01*
X16912920Y-11991174D02*
X16922444Y-11953079D01*
X16922444Y-11953079D02*
X16931967Y-11934031D01*
X16931967Y-11934031D02*
X16941491Y-11924508D01*
X16941491Y-11924508D02*
X16960539Y-11914984D01*
X17112920Y-12114984D02*
X17112920Y-11981650D01*
X17112920Y-12000698D02*
X17122444Y-11991174D01*
X17122444Y-11991174D02*
X17141491Y-11981650D01*
X17141491Y-11981650D02*
X17170063Y-11981650D01*
X17170063Y-11981650D02*
X17189110Y-11991174D01*
X17189110Y-11991174D02*
X17198634Y-12010222D01*
X17198634Y-12010222D02*
X17198634Y-12114984D01*
X17198634Y-12010222D02*
X17208158Y-11991174D01*
X17208158Y-11991174D02*
X17227205Y-11981650D01*
X17227205Y-11981650D02*
X17255777Y-11981650D01*
X17255777Y-11981650D02*
X17274825Y-11991174D01*
X17274825Y-11991174D02*
X17284348Y-12010222D01*
X17284348Y-12010222D02*
X17284348Y-12114984D01*
X17379586Y-12114984D02*
X17379586Y-11981650D01*
X17379586Y-12000698D02*
X17389110Y-11991174D01*
X17389110Y-11991174D02*
X17408158Y-11981650D01*
X17408158Y-11981650D02*
X17436729Y-11981650D01*
X17436729Y-11981650D02*
X17455777Y-11991174D01*
X17455777Y-11991174D02*
X17465301Y-12010222D01*
X17465301Y-12010222D02*
X17465301Y-12114984D01*
X17465301Y-12010222D02*
X17474825Y-11991174D01*
X17474825Y-11991174D02*
X17493872Y-11981650D01*
X17493872Y-11981650D02*
X17522444Y-11981650D01*
X17522444Y-11981650D02*
X17541491Y-11991174D01*
X17541491Y-11991174D02*
X17551015Y-12010222D01*
X17551015Y-12010222D02*
X17551015Y-12114984D01*
X17941491Y-11905460D02*
X17770063Y-12162603D01*
X18198634Y-11914984D02*
X18217682Y-11914984D01*
X18217682Y-11914984D02*
X18236729Y-11924508D01*
X18236729Y-11924508D02*
X18246253Y-11934031D01*
X18246253Y-11934031D02*
X18255777Y-11953079D01*
X18255777Y-11953079D02*
X18265301Y-11991174D01*
X18265301Y-11991174D02*
X18265301Y-12038793D01*
X18265301Y-12038793D02*
X18255777Y-12076888D01*
X18255777Y-12076888D02*
X18246253Y-12095936D01*
X18246253Y-12095936D02*
X18236729Y-12105460D01*
X18236729Y-12105460D02*
X18217682Y-12114984D01*
X18217682Y-12114984D02*
X18198634Y-12114984D01*
X18198634Y-12114984D02*
X18179587Y-12105460D01*
X18179587Y-12105460D02*
X18170063Y-12095936D01*
X18170063Y-12095936D02*
X18160539Y-12076888D01*
X18160539Y-12076888D02*
X18151015Y-12038793D01*
X18151015Y-12038793D02*
X18151015Y-11991174D01*
X18151015Y-11991174D02*
X18160539Y-11953079D01*
X18160539Y-11953079D02*
X18170063Y-11934031D01*
X18170063Y-11934031D02*
X18179587Y-11924508D01*
X18179587Y-11924508D02*
X18198634Y-11914984D01*
X18351015Y-12095936D02*
X18360539Y-12105460D01*
X18360539Y-12105460D02*
X18351015Y-12114984D01*
X18351015Y-12114984D02*
X18341491Y-12105460D01*
X18341491Y-12105460D02*
X18351015Y-12095936D01*
X18351015Y-12095936D02*
X18351015Y-12114984D01*
X18484348Y-11914984D02*
X18503396Y-11914984D01*
X18503396Y-11914984D02*
X18522444Y-11924508D01*
X18522444Y-11924508D02*
X18531968Y-11934031D01*
X18531968Y-11934031D02*
X18541491Y-11953079D01*
X18541491Y-11953079D02*
X18551015Y-11991174D01*
X18551015Y-11991174D02*
X18551015Y-12038793D01*
X18551015Y-12038793D02*
X18541491Y-12076888D01*
X18541491Y-12076888D02*
X18531968Y-12095936D01*
X18531968Y-12095936D02*
X18522444Y-12105460D01*
X18522444Y-12105460D02*
X18503396Y-12114984D01*
X18503396Y-12114984D02*
X18484348Y-12114984D01*
X18484348Y-12114984D02*
X18465301Y-12105460D01*
X18465301Y-12105460D02*
X18455777Y-12095936D01*
X18455777Y-12095936D02*
X18446253Y-12076888D01*
X18446253Y-12076888D02*
X18436729Y-12038793D01*
X18436729Y-12038793D02*
X18436729Y-11991174D01*
X18436729Y-11991174D02*
X18446253Y-11953079D01*
X18446253Y-11953079D02*
X18455777Y-11934031D01*
X18455777Y-11934031D02*
X18465301Y-11924508D01*
X18465301Y-11924508D02*
X18484348Y-11914984D01*
X18617682Y-11914984D02*
X18741491Y-11914984D01*
X18741491Y-11914984D02*
X18674825Y-11991174D01*
X18674825Y-11991174D02*
X18703396Y-11991174D01*
X18703396Y-11991174D02*
X18722444Y-12000698D01*
X18722444Y-12000698D02*
X18731968Y-12010222D01*
X18731968Y-12010222D02*
X18741491Y-12029269D01*
X18741491Y-12029269D02*
X18741491Y-12076888D01*
X18741491Y-12076888D02*
X18731968Y-12095936D01*
X18731968Y-12095936D02*
X18722444Y-12105460D01*
X18722444Y-12105460D02*
X18703396Y-12114984D01*
X18703396Y-12114984D02*
X18646253Y-12114984D01*
X18646253Y-12114984D02*
X18627206Y-12105460D01*
X18627206Y-12105460D02*
X18617682Y-12095936D01*
X18836729Y-12114984D02*
X18874825Y-12114984D01*
X18874825Y-12114984D02*
X18893872Y-12105460D01*
X18893872Y-12105460D02*
X18903396Y-12095936D01*
X18903396Y-12095936D02*
X18922444Y-12067365D01*
X18922444Y-12067365D02*
X18931968Y-12029269D01*
X18931968Y-12029269D02*
X18931968Y-11953079D01*
X18931968Y-11953079D02*
X18922444Y-11934031D01*
X18922444Y-11934031D02*
X18912920Y-11924508D01*
X18912920Y-11924508D02*
X18893872Y-11914984D01*
X18893872Y-11914984D02*
X18855777Y-11914984D01*
X18855777Y-11914984D02*
X18836729Y-11924508D01*
X18836729Y-11924508D02*
X18827206Y-11934031D01*
X18827206Y-11934031D02*
X18817682Y-11953079D01*
X18817682Y-11953079D02*
X18817682Y-12000698D01*
X18817682Y-12000698D02*
X18827206Y-12019746D01*
X18827206Y-12019746D02*
X18836729Y-12029269D01*
X18836729Y-12029269D02*
X18855777Y-12038793D01*
X18855777Y-12038793D02*
X18893872Y-12038793D01*
X18893872Y-12038793D02*
X18912920Y-12029269D01*
X18912920Y-12029269D02*
X18922444Y-12019746D01*
X18922444Y-12019746D02*
X18931968Y-12000698D01*
X19103396Y-11981650D02*
X19103396Y-12114984D01*
X19055777Y-11905460D02*
X19008158Y-12048317D01*
X19008158Y-12048317D02*
X19131968Y-12048317D01*
X19198634Y-11914984D02*
X19198634Y-11953079D01*
X19274825Y-11914984D02*
X19274825Y-11953079D01*
X19570063Y-12191174D02*
X19560539Y-12181650D01*
X19560539Y-12181650D02*
X19541491Y-12153079D01*
X19541491Y-12153079D02*
X19531968Y-12134031D01*
X19531968Y-12134031D02*
X19522444Y-12105460D01*
X19522444Y-12105460D02*
X19512920Y-12057841D01*
X19512920Y-12057841D02*
X19512920Y-12019746D01*
X19512920Y-12019746D02*
X19522444Y-11972127D01*
X19522444Y-11972127D02*
X19531968Y-11943555D01*
X19531968Y-11943555D02*
X19541491Y-11924508D01*
X19541491Y-11924508D02*
X19560539Y-11895936D01*
X19560539Y-11895936D02*
X19570063Y-11886412D01*
X19627206Y-11914984D02*
X19751015Y-11914984D01*
X19751015Y-11914984D02*
X19684349Y-11991174D01*
X19684349Y-11991174D02*
X19712920Y-11991174D01*
X19712920Y-11991174D02*
X19731968Y-12000698D01*
X19731968Y-12000698D02*
X19741491Y-12010222D01*
X19741491Y-12010222D02*
X19751015Y-12029269D01*
X19751015Y-12029269D02*
X19751015Y-12076888D01*
X19751015Y-12076888D02*
X19741491Y-12095936D01*
X19741491Y-12095936D02*
X19731968Y-12105460D01*
X19731968Y-12105460D02*
X19712920Y-12114984D01*
X19712920Y-12114984D02*
X19655777Y-12114984D01*
X19655777Y-12114984D02*
X19636730Y-12105460D01*
X19636730Y-12105460D02*
X19627206Y-12095936D01*
X19827206Y-11934031D02*
X19836730Y-11924508D01*
X19836730Y-11924508D02*
X19855777Y-11914984D01*
X19855777Y-11914984D02*
X19903396Y-11914984D01*
X19903396Y-11914984D02*
X19922444Y-11924508D01*
X19922444Y-11924508D02*
X19931968Y-11934031D01*
X19931968Y-11934031D02*
X19941491Y-11953079D01*
X19941491Y-11953079D02*
X19941491Y-11972127D01*
X19941491Y-11972127D02*
X19931968Y-12000698D01*
X19931968Y-12000698D02*
X19817682Y-12114984D01*
X19817682Y-12114984D02*
X19941491Y-12114984D01*
X20179587Y-12114984D02*
X20179587Y-11914984D01*
X20265301Y-12114984D02*
X20265301Y-12010222D01*
X20265301Y-12010222D02*
X20255777Y-11991174D01*
X20255777Y-11991174D02*
X20236730Y-11981650D01*
X20236730Y-11981650D02*
X20208158Y-11981650D01*
X20208158Y-11981650D02*
X20189111Y-11991174D01*
X20189111Y-11991174D02*
X20179587Y-12000698D01*
X20389111Y-12114984D02*
X20370063Y-12105460D01*
X20370063Y-12105460D02*
X20360539Y-12095936D01*
X20360539Y-12095936D02*
X20351015Y-12076888D01*
X20351015Y-12076888D02*
X20351015Y-12019746D01*
X20351015Y-12019746D02*
X20360539Y-12000698D01*
X20360539Y-12000698D02*
X20370063Y-11991174D01*
X20370063Y-11991174D02*
X20389111Y-11981650D01*
X20389111Y-11981650D02*
X20417682Y-11981650D01*
X20417682Y-11981650D02*
X20436730Y-11991174D01*
X20436730Y-11991174D02*
X20446253Y-12000698D01*
X20446253Y-12000698D02*
X20455777Y-12019746D01*
X20455777Y-12019746D02*
X20455777Y-12076888D01*
X20455777Y-12076888D02*
X20446253Y-12095936D01*
X20446253Y-12095936D02*
X20436730Y-12105460D01*
X20436730Y-12105460D02*
X20417682Y-12114984D01*
X20417682Y-12114984D02*
X20389111Y-12114984D01*
X20570063Y-12114984D02*
X20551015Y-12105460D01*
X20551015Y-12105460D02*
X20541492Y-12086412D01*
X20541492Y-12086412D02*
X20541492Y-11914984D01*
X20722444Y-12105460D02*
X20703396Y-12114984D01*
X20703396Y-12114984D02*
X20665301Y-12114984D01*
X20665301Y-12114984D02*
X20646253Y-12105460D01*
X20646253Y-12105460D02*
X20636730Y-12086412D01*
X20636730Y-12086412D02*
X20636730Y-12010222D01*
X20636730Y-12010222D02*
X20646253Y-11991174D01*
X20646253Y-11991174D02*
X20665301Y-11981650D01*
X20665301Y-11981650D02*
X20703396Y-11981650D01*
X20703396Y-11981650D02*
X20722444Y-11991174D01*
X20722444Y-11991174D02*
X20731968Y-12010222D01*
X20731968Y-12010222D02*
X20731968Y-12029269D01*
X20731968Y-12029269D02*
X20636730Y-12048317D01*
X20808158Y-12105460D02*
X20827206Y-12114984D01*
X20827206Y-12114984D02*
X20865301Y-12114984D01*
X20865301Y-12114984D02*
X20884349Y-12105460D01*
X20884349Y-12105460D02*
X20893873Y-12086412D01*
X20893873Y-12086412D02*
X20893873Y-12076888D01*
X20893873Y-12076888D02*
X20884349Y-12057841D01*
X20884349Y-12057841D02*
X20865301Y-12048317D01*
X20865301Y-12048317D02*
X20836730Y-12048317D01*
X20836730Y-12048317D02*
X20817682Y-12038793D01*
X20817682Y-12038793D02*
X20808158Y-12019746D01*
X20808158Y-12019746D02*
X20808158Y-12010222D01*
X20808158Y-12010222D02*
X20817682Y-11991174D01*
X20817682Y-11991174D02*
X20836730Y-11981650D01*
X20836730Y-11981650D02*
X20865301Y-11981650D01*
X20865301Y-11981650D02*
X20884349Y-11991174D01*
X20960539Y-12191174D02*
X20970063Y-12181650D01*
X20970063Y-12181650D02*
X20989111Y-12153079D01*
X20989111Y-12153079D02*
X20998634Y-12134031D01*
X20998634Y-12134031D02*
X21008158Y-12105460D01*
X21008158Y-12105460D02*
X21017682Y-12057841D01*
X21017682Y-12057841D02*
X21017682Y-12019746D01*
X21017682Y-12019746D02*
X21008158Y-11972127D01*
X21008158Y-11972127D02*
X20998634Y-11943555D01*
X20998634Y-11943555D02*
X20989111Y-11924508D01*
X20989111Y-11924508D02*
X20970063Y-11895936D01*
X20970063Y-11895936D02*
X20960539Y-11886412D01*
M02*
