M48
; DRILL file {KiCad 7.0.9} date Sat Jun  8 10:48:34 2024
; FORMAT={-:-/ absolute / inch / decimal}
; #@! TF.CreationDate,2024-06-08T10:48:34-04:00
; #@! TF.GenerationSoftware,Kicad,Pcbnew,7.0.9
; #@! TF.FileFunction,Plated,1,2,PTH
FMAT,2
INCH
; #@! TA.AperFunction,Plated,PTH,ComponentDrill
T1C0.0299
; #@! TA.AperFunction,Plated,PTH,ComponentDrill
T2C0.0394
%
G90
G05
T1
X6.5056Y-4.025
X6.5556Y-3.925
X6.6056Y-4.025
X6.6556Y-3.925
X6.7056Y-4.025
X6.7186Y-3.3258
X6.7556Y-3.925
X6.7686Y-3.2258
X6.8056Y-4.025
X6.8186Y-3.3258
X6.8556Y-3.925
X6.8686Y-3.2258
X6.9186Y-3.3258
X6.9686Y-3.2258
X7.0186Y-3.3258
X7.0686Y-3.2258
X7.4806Y-4.025
X7.5306Y-3.925
X7.5806Y-4.025
X7.6306Y-3.925
X7.6806Y-4.025
X7.6944Y-3.325
X7.7306Y-3.925
X7.7444Y-3.225
X7.7806Y-4.025
X7.7944Y-3.325
X7.8306Y-3.925
X7.8444Y-3.225
X7.8944Y-3.325
X7.9444Y-3.225
X7.9944Y-3.325
X8.0444Y-3.225
T2
X6.4242Y-3.7258
X6.45Y-3.525
X6.5242Y-3.7258
X6.55Y-3.525
X6.6242Y-3.7258
X6.65Y-3.525
X6.7242Y-3.7258
X6.75Y-3.525
X6.8242Y-3.7258
X6.85Y-3.525
X6.9242Y-3.7258
X6.95Y-3.525
X7.0242Y-3.7258
X7.05Y-3.525
X7.1242Y-3.7258
X7.15Y-3.525
X7.3992Y-3.7258
X7.4258Y-3.5242
X7.4992Y-3.7258
X7.5258Y-3.5242
X7.5992Y-3.7258
X7.6258Y-3.5242
X7.6992Y-3.7258
X7.7258Y-3.5242
X7.7992Y-3.7258
X7.8258Y-3.5242
X7.8992Y-3.7258
X7.9258Y-3.5242
X7.9992Y-3.7258
X8.0258Y-3.5242
X8.0992Y-3.7258
X8.1258Y-3.5242
T0
M30
