%TF.GenerationSoftware,KiCad,Pcbnew,7.0.9*%
%TF.CreationDate,2024-06-08T10:48:36-04:00*%
%TF.ProjectId,8P breakout header,38502062-7265-4616-9b6f-757420686561,rev?*%
%TF.SameCoordinates,Original*%
%TF.FileFunction,Profile,NP*%
%FSLAX46Y46*%
G04 Gerber Fmt 4.6, Leading zero omitted, Abs format (unit mm)*
G04 Created by KiCad (PCBNEW 7.0.9) date 2024-06-08 10:48:36*
%MOMM*%
%LPD*%
G01*
G04 APERTURE LIST*
%TA.AperFunction,Profile*%
%ADD10C,0.100000*%
%TD*%
G04 APERTURE END LIST*
D10*
X208363046Y-106065000D02*
G75*
G03*
X208363046Y-106065000I-2008046J0D01*
G01*
X209530000Y-111145000D02*
X209530000Y-92095000D01*
X184765000Y-111145000D02*
X209530000Y-111145000D01*
X195560000Y-92095000D02*
X198100000Y-92095000D01*
X195560000Y-92095000D02*
X184765000Y-92095000D01*
X209530000Y-92095000D02*
X198100000Y-92095000D01*
X184765000Y-92095000D02*
X184765000Y-111145000D01*
X183598046Y-106065000D02*
G75*
G03*
X183598046Y-106065000I-2008046J0D01*
G01*
X184765000Y-111145000D02*
X184765000Y-92095000D01*
X160000000Y-111145000D02*
X184765000Y-111145000D01*
X170795000Y-92095000D02*
X173335000Y-92095000D01*
X170795000Y-92095000D02*
X160000000Y-92095000D01*
X184765000Y-92095000D02*
X173335000Y-92095000D01*
X160000000Y-92095000D02*
X160000000Y-111145000D01*
X189988046Y-78085000D02*
G75*
G03*
X189988046Y-78085000I-2008046J0D01*
G01*
X184805000Y-73005000D02*
X184805000Y-92055000D01*
X209570000Y-73005000D02*
X184805000Y-73005000D01*
X198775000Y-92055000D02*
X196235000Y-92055000D01*
X198775000Y-92055000D02*
X209570000Y-92055000D01*
X184805000Y-92055000D02*
X196235000Y-92055000D01*
X209570000Y-92055000D02*
X209570000Y-73005000D01*
X165203046Y-78105000D02*
G75*
G03*
X165203046Y-78105000I-2008046J0D01*
G01*
X160020000Y-73025000D02*
X160020000Y-92075000D01*
X173990000Y-92075000D02*
X171450000Y-92075000D01*
X173990000Y-92075000D02*
X184785000Y-92075000D01*
X184785000Y-92075000D02*
X184785000Y-73025000D01*
X160020000Y-92075000D02*
X171450000Y-92075000D01*
X184785000Y-73025000D02*
X160020000Y-73025000D01*
M02*
