%TF.GenerationSoftware,KiCad,Pcbnew,7.0.9*%
%TF.CreationDate,2024-06-08T10:48:36-04:00*%
%TF.ProjectId,8P breakout header,38502062-7265-4616-9b6f-757420686561,rev?*%
%TF.SameCoordinates,Original*%
%TF.FileFunction,Soldermask,Bot*%
%TF.FilePolarity,Negative*%
%FSLAX46Y46*%
G04 Gerber Fmt 4.6, Leading zero omitted, Abs format (unit mm)*
G04 Created by KiCad (PCBNEW 7.0.9) date 2024-06-08 10:48:36*
%MOMM*%
%LPD*%
G01*
G04 APERTURE LIST*
%ADD10R,1.700000X1.700000*%
%ADD11O,1.700000X1.700000*%
%ADD12C,3.200000*%
%ADD13R,1.500000X1.500000*%
%ADD14C,1.500000*%
G04 APERTURE END LIST*
D10*
%TO.C,J4*%
X187940000Y-94635000D03*
D11*
X190480000Y-94635000D03*
X193020000Y-94635000D03*
X195560000Y-94635000D03*
X198100000Y-94635000D03*
X200640000Y-94635000D03*
X203180000Y-94635000D03*
X205720000Y-94635000D03*
%TD*%
D12*
%TO.C,J1*%
X188737500Y-108585000D03*
X200167500Y-108585000D03*
D13*
X190007500Y-102235000D03*
D14*
X191277500Y-99695000D03*
X192547500Y-102235000D03*
X193817500Y-99695000D03*
X195087500Y-102235000D03*
X196357500Y-99695000D03*
X197627500Y-102235000D03*
X198897500Y-99695000D03*
%TD*%
D10*
%TO.C,J4*%
X163175000Y-94635000D03*
D11*
X165715000Y-94635000D03*
X168255000Y-94635000D03*
X170795000Y-94635000D03*
X173335000Y-94635000D03*
X175875000Y-94635000D03*
X178415000Y-94635000D03*
X180955000Y-94635000D03*
%TD*%
D12*
%TO.C,J1*%
X163972500Y-108585000D03*
X175402500Y-108585000D03*
D13*
X165242500Y-102235000D03*
D14*
X166512500Y-99695000D03*
X167782500Y-102235000D03*
X169052500Y-99695000D03*
X170322500Y-102235000D03*
X171592500Y-99695000D03*
X172862500Y-102235000D03*
X174132500Y-99695000D03*
%TD*%
D10*
%TO.C,J4*%
X206395000Y-89515000D03*
D11*
X203855000Y-89515000D03*
X201315000Y-89515000D03*
X198775000Y-89515000D03*
X196235000Y-89515000D03*
X193695000Y-89515000D03*
X191155000Y-89515000D03*
X188615000Y-89515000D03*
%TD*%
D12*
%TO.C,J1*%
X205597500Y-75565000D03*
X194167500Y-75565000D03*
D13*
X204327500Y-81915000D03*
D14*
X203057500Y-84455000D03*
X201787500Y-81915000D03*
X200517500Y-84455000D03*
X199247500Y-81915000D03*
X197977500Y-84455000D03*
X196707500Y-81915000D03*
X195437500Y-84455000D03*
%TD*%
D10*
%TO.C,J4*%
X181610000Y-89535000D03*
D11*
X179070000Y-89535000D03*
X176530000Y-89535000D03*
X173990000Y-89535000D03*
X171450000Y-89535000D03*
X168910000Y-89535000D03*
X166370000Y-89535000D03*
X163830000Y-89535000D03*
%TD*%
D12*
%TO.C,J1*%
X180812500Y-75585000D03*
X169382500Y-75585000D03*
D13*
X179542500Y-81935000D03*
D14*
X178272500Y-84475000D03*
X177002500Y-81935000D03*
X175732500Y-84475000D03*
X174462500Y-81935000D03*
X173192500Y-84475000D03*
X171922500Y-81935000D03*
X170652500Y-84475000D03*
%TD*%
M02*
