%TF.GenerationSoftware,KiCad,Pcbnew,7.0.9*%
%TF.CreationDate,2024-06-08T10:48:36-04:00*%
%TF.ProjectId,8P breakout header,38502062-7265-4616-9b6f-757420686561,rev?*%
%TF.SameCoordinates,Original*%
%TF.FileFunction,Copper,L2,Bot*%
%TF.FilePolarity,Positive*%
%FSLAX46Y46*%
G04 Gerber Fmt 4.6, Leading zero omitted, Abs format (unit mm)*
G04 Created by KiCad (PCBNEW 7.0.9) date 2024-06-08 10:48:36*
%MOMM*%
%LPD*%
G01*
G04 APERTURE LIST*
%TA.AperFunction,ComponentPad*%
%ADD10R,1.700000X1.700000*%
%TD*%
%TA.AperFunction,ComponentPad*%
%ADD11O,1.700000X1.700000*%
%TD*%
%TA.AperFunction,ComponentPad*%
%ADD12R,1.500000X1.500000*%
%TD*%
%TA.AperFunction,ComponentPad*%
%ADD13C,1.500000*%
%TD*%
G04 APERTURE END LIST*
D10*
%TO.P,J4,1,Pin_1*%
%TO.N,Net-(J4-Pin_1)*%
X187940000Y-94635000D03*
D11*
%TO.P,J4,2,Pin_2*%
%TO.N,Net-(J4-Pin_2)*%
X190480000Y-94635000D03*
%TO.P,J4,3,Pin_3*%
%TO.N,Net-(J4-Pin_3)*%
X193020000Y-94635000D03*
%TO.P,J4,4,Pin_4*%
%TO.N,Net-(J4-Pin_4)*%
X195560000Y-94635000D03*
%TO.P,J4,5,Pin_5*%
%TO.N,Net-(J4-Pin_5)*%
X198100000Y-94635000D03*
%TO.P,J4,6,Pin_6*%
%TO.N,Net-(J4-Pin_6)*%
X200640000Y-94635000D03*
%TO.P,J4,7,Pin_7*%
%TO.N,Net-(J4-Pin_7)*%
X203180000Y-94635000D03*
%TO.P,J4,8,Pin_8*%
%TO.N,Net-(J4-Pin_8)*%
X205720000Y-94635000D03*
%TD*%
D12*
%TO.P,J1,1*%
%TO.N,Net-(J4-Pin_1)*%
X190007500Y-102235000D03*
D13*
%TO.P,J1,2*%
%TO.N,Net-(J4-Pin_2)*%
X191277500Y-99695000D03*
%TO.P,J1,3*%
%TO.N,Net-(J4-Pin_3)*%
X192547500Y-102235000D03*
%TO.P,J1,4*%
%TO.N,Net-(J4-Pin_4)*%
X193817500Y-99695000D03*
%TO.P,J1,5*%
%TO.N,Net-(J4-Pin_5)*%
X195087500Y-102235000D03*
%TO.P,J1,6*%
%TO.N,Net-(J4-Pin_6)*%
X196357500Y-99695000D03*
%TO.P,J1,7*%
%TO.N,Net-(J4-Pin_7)*%
X197627500Y-102235000D03*
%TO.P,J1,8*%
%TO.N,Net-(J4-Pin_8)*%
X198897500Y-99695000D03*
%TD*%
D10*
%TO.P,J4,1,Pin_1*%
%TO.N,Net-(J4-Pin_1)*%
X163175000Y-94635000D03*
D11*
%TO.P,J4,2,Pin_2*%
%TO.N,Net-(J4-Pin_2)*%
X165715000Y-94635000D03*
%TO.P,J4,3,Pin_3*%
%TO.N,Net-(J4-Pin_3)*%
X168255000Y-94635000D03*
%TO.P,J4,4,Pin_4*%
%TO.N,Net-(J4-Pin_4)*%
X170795000Y-94635000D03*
%TO.P,J4,5,Pin_5*%
%TO.N,Net-(J4-Pin_5)*%
X173335000Y-94635000D03*
%TO.P,J4,6,Pin_6*%
%TO.N,Net-(J4-Pin_6)*%
X175875000Y-94635000D03*
%TO.P,J4,7,Pin_7*%
%TO.N,Net-(J4-Pin_7)*%
X178415000Y-94635000D03*
%TO.P,J4,8,Pin_8*%
%TO.N,Net-(J4-Pin_8)*%
X180955000Y-94635000D03*
%TD*%
D12*
%TO.P,J1,1*%
%TO.N,Net-(J4-Pin_1)*%
X165242500Y-102235000D03*
D13*
%TO.P,J1,2*%
%TO.N,Net-(J4-Pin_2)*%
X166512500Y-99695000D03*
%TO.P,J1,3*%
%TO.N,Net-(J4-Pin_3)*%
X167782500Y-102235000D03*
%TO.P,J1,4*%
%TO.N,Net-(J4-Pin_4)*%
X169052500Y-99695000D03*
%TO.P,J1,5*%
%TO.N,Net-(J4-Pin_5)*%
X170322500Y-102235000D03*
%TO.P,J1,6*%
%TO.N,Net-(J4-Pin_6)*%
X171592500Y-99695000D03*
%TO.P,J1,7*%
%TO.N,Net-(J4-Pin_7)*%
X172862500Y-102235000D03*
%TO.P,J1,8*%
%TO.N,Net-(J4-Pin_8)*%
X174132500Y-99695000D03*
%TD*%
D10*
%TO.P,J4,1,Pin_1*%
%TO.N,Net-(J4-Pin_1)*%
X206395000Y-89515000D03*
D11*
%TO.P,J4,2,Pin_2*%
%TO.N,Net-(J4-Pin_2)*%
X203855000Y-89515000D03*
%TO.P,J4,3,Pin_3*%
%TO.N,Net-(J4-Pin_3)*%
X201315000Y-89515000D03*
%TO.P,J4,4,Pin_4*%
%TO.N,Net-(J4-Pin_4)*%
X198775000Y-89515000D03*
%TO.P,J4,5,Pin_5*%
%TO.N,Net-(J4-Pin_5)*%
X196235000Y-89515000D03*
%TO.P,J4,6,Pin_6*%
%TO.N,Net-(J4-Pin_6)*%
X193695000Y-89515000D03*
%TO.P,J4,7,Pin_7*%
%TO.N,Net-(J4-Pin_7)*%
X191155000Y-89515000D03*
%TO.P,J4,8,Pin_8*%
%TO.N,Net-(J4-Pin_8)*%
X188615000Y-89515000D03*
%TD*%
D12*
%TO.P,J1,1*%
%TO.N,Net-(J4-Pin_1)*%
X204327500Y-81915000D03*
D13*
%TO.P,J1,2*%
%TO.N,Net-(J4-Pin_2)*%
X203057500Y-84455000D03*
%TO.P,J1,3*%
%TO.N,Net-(J4-Pin_3)*%
X201787500Y-81915000D03*
%TO.P,J1,4*%
%TO.N,Net-(J4-Pin_4)*%
X200517500Y-84455000D03*
%TO.P,J1,5*%
%TO.N,Net-(J4-Pin_5)*%
X199247500Y-81915000D03*
%TO.P,J1,6*%
%TO.N,Net-(J4-Pin_6)*%
X197977500Y-84455000D03*
%TO.P,J1,7*%
%TO.N,Net-(J4-Pin_7)*%
X196707500Y-81915000D03*
%TO.P,J1,8*%
%TO.N,Net-(J4-Pin_8)*%
X195437500Y-84455000D03*
%TD*%
D10*
%TO.P,J4,1,Pin_1*%
%TO.N,Net-(J4-Pin_1)*%
X181610000Y-89535000D03*
D11*
%TO.P,J4,2,Pin_2*%
%TO.N,Net-(J4-Pin_2)*%
X179070000Y-89535000D03*
%TO.P,J4,3,Pin_3*%
%TO.N,Net-(J4-Pin_3)*%
X176530000Y-89535000D03*
%TO.P,J4,4,Pin_4*%
%TO.N,Net-(J4-Pin_4)*%
X173990000Y-89535000D03*
%TO.P,J4,5,Pin_5*%
%TO.N,Net-(J4-Pin_5)*%
X171450000Y-89535000D03*
%TO.P,J4,6,Pin_6*%
%TO.N,Net-(J4-Pin_6)*%
X168910000Y-89535000D03*
%TO.P,J4,7,Pin_7*%
%TO.N,Net-(J4-Pin_7)*%
X166370000Y-89535000D03*
%TO.P,J4,8,Pin_8*%
%TO.N,Net-(J4-Pin_8)*%
X163830000Y-89535000D03*
%TD*%
D12*
%TO.P,J1,1*%
%TO.N,Net-(J4-Pin_1)*%
X179542500Y-81935000D03*
D13*
%TO.P,J1,2*%
%TO.N,Net-(J4-Pin_2)*%
X178272500Y-84475000D03*
%TO.P,J1,3*%
%TO.N,Net-(J4-Pin_3)*%
X177002500Y-81935000D03*
%TO.P,J1,4*%
%TO.N,Net-(J4-Pin_4)*%
X175732500Y-84475000D03*
%TO.P,J1,5*%
%TO.N,Net-(J4-Pin_5)*%
X174462500Y-81935000D03*
%TO.P,J1,6*%
%TO.N,Net-(J4-Pin_6)*%
X173192500Y-84475000D03*
%TO.P,J1,7*%
%TO.N,Net-(J4-Pin_7)*%
X171922500Y-81935000D03*
%TO.P,J1,8*%
%TO.N,Net-(J4-Pin_8)*%
X170652500Y-84475000D03*
%TD*%
M02*
