%TF.GenerationSoftware,KiCad,Pcbnew,7.0.9*%
%TF.CreationDate,2024-06-09T17:27:21-04:00*%
%TF.ProjectId,PedalboardMain,50656461-6c62-46f6-9172-644d61696e2e,rev?*%
%TF.SameCoordinates,Original*%
%TF.FileFunction,Copper,L1,Top*%
%TF.FilePolarity,Positive*%
%FSLAX46Y46*%
G04 Gerber Fmt 4.6, Leading zero omitted, Abs format (unit mm)*
G04 Created by KiCad (PCBNEW 7.0.9) date 2024-06-09 17:27:21*
%MOMM*%
%LPD*%
G01*
G04 APERTURE LIST*
%TA.AperFunction,ComponentPad*%
%ADD10R,1.950000X1.950000*%
%TD*%
%TA.AperFunction,ComponentPad*%
%ADD11C,1.950000*%
%TD*%
%TA.AperFunction,ComponentPad*%
%ADD12C,1.400000*%
%TD*%
%TA.AperFunction,ComponentPad*%
%ADD13R,1.400000X1.400000*%
%TD*%
%TA.AperFunction,ComponentPad*%
%ADD14C,1.600000*%
%TD*%
%TA.AperFunction,ComponentPad*%
%ADD15O,1.600000X1.600000*%
%TD*%
%TA.AperFunction,ComponentPad*%
%ADD16R,1.500000X1.050000*%
%TD*%
%TA.AperFunction,ComponentPad*%
%ADD17O,1.500000X1.050000*%
%TD*%
%TA.AperFunction,ComponentPad*%
%ADD18R,1.800000X1.800000*%
%TD*%
%TA.AperFunction,ComponentPad*%
%ADD19C,1.800000*%
%TD*%
%TA.AperFunction,ComponentPad*%
%ADD20R,1.700000X1.700000*%
%TD*%
%TA.AperFunction,ComponentPad*%
%ADD21O,1.700000X1.700000*%
%TD*%
%TA.AperFunction,ComponentPad*%
%ADD22R,1.905000X2.000000*%
%TD*%
%TA.AperFunction,ComponentPad*%
%ADD23O,1.905000X2.000000*%
%TD*%
%TA.AperFunction,Conductor*%
%ADD24C,0.250000*%
%TD*%
%TA.AperFunction,Conductor*%
%ADD25C,0.500000*%
%TD*%
%TA.AperFunction,Conductor*%
%ADD26C,1.000000*%
%TD*%
%TA.AperFunction,Conductor*%
%ADD27C,0.750000*%
%TD*%
G04 APERTURE END LIST*
D10*
%TO.P,J5,1,Pin_1*%
%TO.N,/Signal_Gnd*%
X183800000Y-97700000D03*
D11*
%TO.P,J5,2,Pin_2*%
%TO.N,/R_send*%
X178800000Y-97700000D03*
%TO.P,J5,3,Pin_3*%
%TO.N,/Signal_Gnd*%
X173800000Y-97700000D03*
%TO.P,J5,4,Pin_4*%
%TO.N,/L_Send*%
X168800000Y-97700000D03*
%TD*%
D12*
%TO.P,Right1,16*%
%TO.N,Net-(QL1-D)*%
X145942500Y-79442500D03*
%TO.P,Right1,13*%
%TO.N,/R_in*%
X153562500Y-79442500D03*
%TO.P,Right1,11*%
%TO.N,Net-(Right1-Pad11)*%
X158642500Y-79442500D03*
%TO.P,Right1,9*%
%TO.N,/R_send*%
X163722500Y-79442500D03*
%TO.P,Right1,8*%
%TO.N,/R_Return*%
X163722500Y-87062500D03*
%TO.P,Right1,6*%
%TO.N,Net-(Right1-Pad11)*%
X158642500Y-87062500D03*
%TO.P,Right1,4*%
%TO.N,/R_out*%
X153562500Y-87062500D03*
D13*
%TO.P,Right1,1*%
%TO.N,/5V*%
X145942500Y-87062500D03*
%TD*%
D10*
%TO.P,J4,1,Pin_1*%
%TO.N,/Signal_Gnd*%
X163000000Y-97800000D03*
D11*
%TO.P,J4,2,Pin_2*%
%TO.N,/R_Return*%
X158000000Y-97800000D03*
%TO.P,J4,3,Pin_3*%
%TO.N,/Signal_Gnd*%
X153000000Y-97800000D03*
%TO.P,J4,4,Pin_4*%
%TO.N,/L_Return*%
X148000000Y-97800000D03*
%TD*%
D14*
%TO.P,LeftPD1,1*%
%TO.N,Net-(QL1-G)*%
X142810000Y-91000000D03*
D15*
%TO.P,LeftPD1,2*%
%TO.N,/Ctrl_GND*%
X135190000Y-91000000D03*
%TD*%
D16*
%TO.P,QL1,1,S*%
%TO.N,/Ctrl_GND*%
X131110000Y-91520000D03*
D17*
%TO.P,QL1,2,G*%
%TO.N,Net-(QL1-G)*%
X131110000Y-90250000D03*
%TO.P,QL1,3,D*%
%TO.N,Net-(QL1-D)*%
X131110000Y-88980000D03*
%TD*%
D18*
%TO.P,D1,1,K*%
%TO.N,/Ctrl_GND*%
X139425000Y-80400000D03*
D19*
%TO.P,D1,2,A*%
%TO.N,Net-(D1-A)*%
X141965000Y-80400000D03*
%TD*%
D20*
%TO.P,J3,1,Pin_1*%
%TO.N,/9V*%
X128275000Y-96200000D03*
D21*
%TO.P,J3,2,Pin_2*%
%TO.N,/Ctrl_GND*%
X125735000Y-96200000D03*
%TD*%
D14*
%TO.P,RLed1,1*%
%TO.N,/Control*%
X136190000Y-94750000D03*
D15*
%TO.P,RLed1,2*%
%TO.N,Net-(D1-A)*%
X143810000Y-94750000D03*
%TD*%
D13*
%TO.P,Left/Mono1,1*%
%TO.N,/5V*%
X167042500Y-86962500D03*
D12*
%TO.P,Left/Mono1,4*%
%TO.N,/L_out*%
X174662500Y-86962500D03*
%TO.P,Left/Mono1,6*%
%TO.N,Net-(Left/Mono1-Pad11)*%
X179742500Y-86962500D03*
%TO.P,Left/Mono1,8*%
%TO.N,/L_Return*%
X184822500Y-86962500D03*
%TO.P,Left/Mono1,9*%
%TO.N,/L_Send*%
X184822500Y-79342500D03*
%TO.P,Left/Mono1,11*%
%TO.N,Net-(Left/Mono1-Pad11)*%
X179742500Y-79342500D03*
%TO.P,Left/Mono1,13*%
%TO.N,/L_in*%
X174662500Y-79342500D03*
%TO.P,Left/Mono1,16*%
%TO.N,Net-(QL1-D)*%
X167042500Y-79342500D03*
%TD*%
D22*
%TO.P,U1,1,IN*%
%TO.N,/9V*%
X137160000Y-100245000D03*
D23*
%TO.P,U1,2,GND*%
%TO.N,/Ctrl_GND*%
X139700000Y-100245000D03*
%TO.P,U1,3,OUT*%
%TO.N,/5V*%
X142240000Y-100245000D03*
%TD*%
D20*
%TO.P,In1,1,Pin_1*%
%TO.N,/Signal_Gnd*%
X125000000Y-84080000D03*
D21*
%TO.P,In1,2,Pin_2*%
%TO.N,/L_in*%
X125000000Y-81540000D03*
%TO.P,In1,3,Pin_3*%
%TO.N,/R_in*%
X125000000Y-79000000D03*
%TD*%
D20*
%TO.P,J1,1,Pin_1*%
%TO.N,/Control*%
X126100000Y-90000000D03*
%TD*%
D14*
%TO.P,LGate1,1*%
%TO.N,/Control*%
X135190000Y-87500000D03*
D15*
%TO.P,LGate1,2*%
%TO.N,Net-(QL1-G)*%
X142810000Y-87500000D03*
%TD*%
D20*
%TO.P,J2,1,Pin_1*%
%TO.N,/9V*%
X128275000Y-100200000D03*
D21*
%TO.P,J2,2,Pin_2*%
%TO.N,/Ctrl_GND*%
X125735000Y-100200000D03*
%TD*%
D20*
%TO.P,Out1,1,Pin_1*%
%TO.N,/Signal_Gnd*%
X130250000Y-84080000D03*
D21*
%TO.P,Out1,2,Pin_2*%
%TO.N,/L_out*%
X130250000Y-81540000D03*
%TO.P,Out1,3,Pin_3*%
%TO.N,/R_out*%
X130250000Y-79000000D03*
%TD*%
D24*
%TO.N,/L_Send*%
X183400000Y-80765000D02*
X184822500Y-79342500D01*
X183400000Y-86200000D02*
X183400000Y-80765000D01*
X180800000Y-88800000D02*
X183400000Y-86200000D01*
X179500000Y-88800000D02*
X180800000Y-88800000D01*
X170600000Y-97700000D02*
X179500000Y-88800000D01*
X168800000Y-97700000D02*
X170600000Y-97700000D01*
%TO.N,/L_Return*%
X184822500Y-89177500D02*
X184822500Y-86962500D01*
X184800000Y-89200000D02*
X184822500Y-89177500D01*
X185500000Y-100500000D02*
X185500000Y-89900000D01*
X184000000Y-102000000D02*
X185500000Y-100500000D01*
X185500000Y-89900000D02*
X184800000Y-89200000D01*
X152200000Y-102000000D02*
X184000000Y-102000000D01*
X148000000Y-97800000D02*
X152200000Y-102000000D01*
%TO.N,/R_send*%
X178800000Y-98700000D02*
X178800000Y-97700000D01*
X178100000Y-99400000D02*
X178800000Y-98700000D01*
X177000000Y-100400000D02*
X178000000Y-99400000D01*
X178000000Y-99400000D02*
X178100000Y-99400000D01*
X168400000Y-100400000D02*
X177000000Y-100400000D01*
X166600000Y-98600000D02*
X168400000Y-100400000D01*
X166600000Y-89600000D02*
X166600000Y-98600000D01*
X165500000Y-88500000D02*
X166600000Y-89600000D01*
X165500000Y-81220000D02*
X165500000Y-88500000D01*
X163722500Y-79442500D02*
X165500000Y-81220000D01*
%TO.N,Net-(D1-A)*%
X143500000Y-82500000D02*
X141965000Y-80965000D01*
X143500000Y-85636396D02*
X143500000Y-82500000D01*
X141965000Y-80965000D02*
X141965000Y-80400000D01*
X144000000Y-86136396D02*
X143500000Y-85636396D01*
X144000000Y-93400000D02*
X144000000Y-86136396D01*
%TO.N,/Ctrl_GND*%
X137725000Y-88465000D02*
X137725000Y-82100000D01*
X137725000Y-82100000D02*
X139425000Y-80400000D01*
X135190000Y-91000000D02*
X137725000Y-88465000D01*
%TO.N,Net-(Left/Mono1-Pad11)*%
X179742500Y-79342500D02*
X179742500Y-86962500D01*
%TO.N,Net-(Right1-Pad11)*%
X158642500Y-79442500D02*
X158642500Y-87062500D01*
%TO.N,/R_Return*%
X163722500Y-92077500D02*
X163722500Y-87062500D01*
%TO.N,/R_out*%
X153562500Y-82512500D02*
X153562500Y-87062500D01*
X148800000Y-77750000D02*
X153562500Y-82512500D01*
X131500000Y-77750000D02*
X148800000Y-77750000D01*
X130250000Y-79000000D02*
X131500000Y-77750000D01*
D25*
%TO.N,/5V*%
X145942500Y-96542500D02*
X145942500Y-87062500D01*
D24*
%TO.N,/R_in*%
X151420000Y-77300000D02*
X150400000Y-77300000D01*
X153562500Y-79442500D02*
X151420000Y-77300000D01*
X126700000Y-77300000D02*
X150400000Y-77300000D01*
X125000000Y-79000000D02*
X126700000Y-77300000D01*
D25*
%TO.N,/Control*%
X129350000Y-94750000D02*
X136190000Y-94750000D01*
X126100000Y-91500000D02*
X129350000Y-94750000D01*
X126100000Y-90000000D02*
X126100000Y-91500000D01*
%TO.N,/9V*%
X128275000Y-100200000D02*
X128275000Y-96200000D01*
D26*
X128694279Y-100619279D02*
X128275000Y-100200000D01*
X136785721Y-100619279D02*
X128694279Y-100619279D01*
X137160000Y-100245000D02*
X136785721Y-100619279D01*
D27*
%TO.N,/Ctrl_GND*%
X139700000Y-95510000D02*
X135190000Y-91000000D01*
X139700000Y-100245000D02*
X139700000Y-95510000D01*
D25*
%TO.N,/5V*%
X142240000Y-100245000D02*
X145942500Y-96542500D01*
D24*
%TO.N,/R_Return*%
X158000000Y-97800000D02*
X163722500Y-92077500D01*
D25*
%TO.N,/Control*%
X135190000Y-93490000D02*
X133500000Y-91800000D01*
X133500000Y-89190000D02*
X133500000Y-91800000D01*
X135190000Y-93750000D02*
X136190000Y-94750000D01*
X135190000Y-87500000D02*
X133500000Y-89190000D01*
X135190000Y-93490000D02*
X135190000Y-93750000D01*
D24*
%TO.N,Net-(D1-A)*%
X144000000Y-93400000D02*
X143810000Y-93590000D01*
X144000000Y-93400000D02*
X144000000Y-93560000D01*
X143810000Y-93590000D02*
X143810000Y-94750000D01*
%TD*%
M02*
