%TF.GenerationSoftware,KiCad,Pcbnew,7.0.9*%
%TF.CreationDate,2024-06-09T17:27:19-04:00*%
%TF.ProjectId,PedalboardMain,50656461-6c62-46f6-9172-644d61696e2e,rev?*%
%TF.SameCoordinates,Original*%
%TF.FileFunction,Drillmap*%
%TF.FilePolarity,Positive*%
%FSLAX45Y45*%
G04 Gerber Fmt 4.5, Leading zero omitted, Abs format (unit mm)*
G04 Created by KiCad (PCBNEW 7.0.9) date 2024-06-09 17:27:19*
%MOMM*%
%LPD*%
G01*
G04 APERTURE LIST*
%ADD10C,0.100000*%
%ADD11C,0.200000*%
%ADD12C,0.110000*%
%ADD13C,0.130000*%
G04 APERTURE END LIST*
D10*
X16271245Y-9110000D02*
G75*
G03*
X16271245Y-9110000I-161245J0D01*
G01*
X13391245Y-9750000D02*
G75*
G03*
X13391245Y-9750000I-161245J0D01*
G01*
X12300000Y-7700000D02*
X18660000Y-7700000D01*
X18660000Y-10300000D01*
X12300000Y-10300000D01*
X12300000Y-7700000D01*
X18391245Y-9080000D02*
G75*
G03*
X18391245Y-9080000I-161245J0D01*
G01*
X13651245Y-8120000D02*
G75*
G03*
X13651245Y-8120000I-161245J0D01*
G01*
D11*
D10*
X14559250Y-7909250D02*
X14629250Y-7979250D01*
X14629250Y-7909250D02*
X14559250Y-7979250D01*
X14559250Y-8671250D02*
X14629250Y-8741250D01*
X14629250Y-8671250D02*
X14559250Y-8741250D01*
X15321250Y-7909250D02*
X15391250Y-7979250D01*
X15391250Y-7909250D02*
X15321250Y-7979250D01*
X15321250Y-8671250D02*
X15391250Y-8741250D01*
X15391250Y-8671250D02*
X15321250Y-8741250D01*
X15829250Y-7909250D02*
X15899250Y-7979250D01*
X15899250Y-7909250D02*
X15829250Y-7979250D01*
X15829250Y-8671250D02*
X15899250Y-8741250D01*
X15899250Y-8671250D02*
X15829250Y-8741250D01*
X16337250Y-7909250D02*
X16407250Y-7979250D01*
X16407250Y-7909250D02*
X16337250Y-7979250D01*
X16337250Y-8671250D02*
X16407250Y-8741250D01*
X16407250Y-8671250D02*
X16337250Y-8741250D01*
X16669250Y-7899250D02*
X16739250Y-7969250D01*
X16739250Y-7899250D02*
X16669250Y-7969250D01*
X16669250Y-8661250D02*
X16739250Y-8731250D01*
X16739250Y-8661250D02*
X16669250Y-8731250D01*
X17431250Y-7899250D02*
X17501250Y-7969250D01*
X17501250Y-7899250D02*
X17431250Y-7969250D01*
X17431250Y-8661250D02*
X17501250Y-8731250D01*
X17501250Y-8661250D02*
X17431250Y-8731250D01*
X17939250Y-7899250D02*
X18009250Y-7969250D01*
X18009250Y-7899250D02*
X17939250Y-7969250D01*
X17939250Y-8661250D02*
X18009250Y-8731250D01*
X18009250Y-8661250D02*
X17939250Y-8731250D01*
X18447250Y-7899250D02*
X18517250Y-7969250D01*
X18517250Y-7899250D02*
X18447250Y-7969250D01*
X18447250Y-8661250D02*
X18517250Y-8731250D01*
X18517250Y-8661250D02*
X18447250Y-8731250D01*
X13148500Y-8898000D02*
G75*
G03*
X13148500Y-8898000I-37500J0D01*
G01*
X13148500Y-9025000D02*
G75*
G03*
X13148500Y-9025000I-37500J0D01*
G01*
X13148500Y-9152000D02*
G75*
G03*
X13148500Y-9152000I-37500J0D01*
G01*
X13519000Y-8710000D02*
X13519000Y-8790000D01*
X13479000Y-8750000D02*
X13559000Y-8750000D01*
X13519000Y-9060000D02*
X13519000Y-9140000D01*
X13479000Y-9100000D02*
X13559000Y-9100000D01*
X13619000Y-9435000D02*
X13619000Y-9515000D01*
X13579000Y-9475000D02*
X13659000Y-9475000D01*
X14281000Y-8710000D02*
X14281000Y-8790000D01*
X14241000Y-8750000D02*
X14321000Y-8750000D01*
X14281000Y-9060000D02*
X14281000Y-9140000D01*
X14241000Y-9100000D02*
X14321000Y-9100000D01*
X14381000Y-9435000D02*
X14381000Y-9515000D01*
X14341000Y-9475000D02*
X14421000Y-9475000D01*
X13974320Y-8071820D02*
X13974320Y-8008180D01*
X13910680Y-8008180D01*
X13910680Y-8071820D01*
X13974320Y-8071820D01*
X14228320Y-8071820D02*
X14228320Y-8008180D01*
X14164680Y-8008180D01*
X14164680Y-8071820D01*
X14228320Y-8071820D01*
X12500000Y-7950000D02*
X12550000Y-7900000D01*
X12500000Y-7850000D01*
X12450000Y-7900000D01*
X12500000Y-7950000D01*
X12500000Y-8204000D02*
X12550000Y-8154000D01*
X12500000Y-8104000D01*
X12450000Y-8154000D01*
X12500000Y-8204000D01*
X12500000Y-8458000D02*
X12550000Y-8408000D01*
X12500000Y-8358000D01*
X12450000Y-8408000D01*
X12500000Y-8458000D01*
X12573500Y-9670000D02*
X12623500Y-9620000D01*
X12573500Y-9570000D01*
X12523500Y-9620000D01*
X12573500Y-9670000D01*
X12573500Y-10070000D02*
X12623500Y-10020000D01*
X12573500Y-9970000D01*
X12523500Y-10020000D01*
X12573500Y-10070000D01*
X12610000Y-9050000D02*
X12660000Y-9000000D01*
X12610000Y-8950000D01*
X12560000Y-9000000D01*
X12610000Y-9050000D01*
X12827500Y-9670000D02*
X12877500Y-9620000D01*
X12827500Y-9570000D01*
X12777500Y-9620000D01*
X12827500Y-9670000D01*
X12827500Y-10070000D02*
X12877500Y-10020000D01*
X12827500Y-9970000D01*
X12777500Y-10020000D01*
X12827500Y-10070000D01*
X13025000Y-7950000D02*
X13075000Y-7900000D01*
X13025000Y-7850000D01*
X12975000Y-7900000D01*
X13025000Y-7950000D01*
X13025000Y-8204000D02*
X13075000Y-8154000D01*
X13025000Y-8104000D01*
X12975000Y-8154000D01*
X13025000Y-8204000D01*
X13025000Y-8458000D02*
X13075000Y-8408000D01*
X13025000Y-8358000D01*
X12975000Y-8408000D01*
X13025000Y-8458000D01*
D12*
X13661000Y-9969500D02*
X13771000Y-10079500D01*
X13771000Y-9969500D02*
X13661000Y-10079500D01*
X13771000Y-10024500D02*
G75*
G03*
X13771000Y-10024500I-55000J0D01*
G01*
X13915000Y-9969500D02*
X14025000Y-10079500D01*
X14025000Y-9969500D02*
X13915000Y-10079500D01*
X14025000Y-10024500D02*
G75*
G03*
X14025000Y-10024500I-55000J0D01*
G01*
X14169000Y-9969500D02*
X14279000Y-10079500D01*
X14279000Y-9969500D02*
X14169000Y-10079500D01*
X14279000Y-10024500D02*
G75*
G03*
X14279000Y-10024500I-55000J0D01*
G01*
D13*
X14735000Y-9715000D02*
X14865000Y-9845000D01*
X14865000Y-9715000D02*
X14735000Y-9845000D01*
X14800000Y-9715000D02*
X14800000Y-9845000D01*
X14735000Y-9780000D02*
X14865000Y-9780000D01*
X15235000Y-9715000D02*
X15365000Y-9845000D01*
X15365000Y-9715000D02*
X15235000Y-9845000D01*
X15300000Y-9715000D02*
X15300000Y-9845000D01*
X15235000Y-9780000D02*
X15365000Y-9780000D01*
X15735000Y-9715000D02*
X15865000Y-9845000D01*
X15865000Y-9715000D02*
X15735000Y-9845000D01*
X15800000Y-9715000D02*
X15800000Y-9845000D01*
X15735000Y-9780000D02*
X15865000Y-9780000D01*
X16235000Y-9715000D02*
X16365000Y-9845000D01*
X16365000Y-9715000D02*
X16235000Y-9845000D01*
X16300000Y-9715000D02*
X16300000Y-9845000D01*
X16235000Y-9780000D02*
X16365000Y-9780000D01*
X16815000Y-9705000D02*
X16945000Y-9835000D01*
X16945000Y-9705000D02*
X16815000Y-9835000D01*
X16880000Y-9705000D02*
X16880000Y-9835000D01*
X16815000Y-9770000D02*
X16945000Y-9770000D01*
X17315000Y-9705000D02*
X17445000Y-9835000D01*
X17445000Y-9705000D02*
X17315000Y-9835000D01*
X17380000Y-9705000D02*
X17380000Y-9835000D01*
X17315000Y-9770000D02*
X17445000Y-9770000D01*
X17815000Y-9705000D02*
X17945000Y-9835000D01*
X17945000Y-9705000D02*
X17815000Y-9835000D01*
X17880000Y-9705000D02*
X17880000Y-9835000D01*
X17815000Y-9770000D02*
X17945000Y-9770000D01*
X18315000Y-9705000D02*
X18445000Y-9835000D01*
X18445000Y-9705000D02*
X18315000Y-9835000D01*
X18380000Y-9705000D02*
X18380000Y-9835000D01*
X18315000Y-9770000D02*
X18445000Y-9770000D01*
D11*
X12555777Y-10616484D02*
X12555777Y-10416484D01*
X12555777Y-10416484D02*
X12603396Y-10416484D01*
X12603396Y-10416484D02*
X12631967Y-10426008D01*
X12631967Y-10426008D02*
X12651015Y-10445055D01*
X12651015Y-10445055D02*
X12660539Y-10464103D01*
X12660539Y-10464103D02*
X12670062Y-10502198D01*
X12670062Y-10502198D02*
X12670062Y-10530770D01*
X12670062Y-10530770D02*
X12660539Y-10568865D01*
X12660539Y-10568865D02*
X12651015Y-10587912D01*
X12651015Y-10587912D02*
X12631967Y-10606960D01*
X12631967Y-10606960D02*
X12603396Y-10616484D01*
X12603396Y-10616484D02*
X12555777Y-10616484D01*
X12755777Y-10616484D02*
X12755777Y-10483150D01*
X12755777Y-10521246D02*
X12765301Y-10502198D01*
X12765301Y-10502198D02*
X12774824Y-10492674D01*
X12774824Y-10492674D02*
X12793872Y-10483150D01*
X12793872Y-10483150D02*
X12812920Y-10483150D01*
X12879586Y-10616484D02*
X12879586Y-10483150D01*
X12879586Y-10416484D02*
X12870062Y-10426008D01*
X12870062Y-10426008D02*
X12879586Y-10435531D01*
X12879586Y-10435531D02*
X12889110Y-10426008D01*
X12889110Y-10426008D02*
X12879586Y-10416484D01*
X12879586Y-10416484D02*
X12879586Y-10435531D01*
X13003396Y-10616484D02*
X12984348Y-10606960D01*
X12984348Y-10606960D02*
X12974824Y-10587912D01*
X12974824Y-10587912D02*
X12974824Y-10416484D01*
X13108158Y-10616484D02*
X13089110Y-10606960D01*
X13089110Y-10606960D02*
X13079586Y-10587912D01*
X13079586Y-10587912D02*
X13079586Y-10416484D01*
X13336729Y-10616484D02*
X13336729Y-10416484D01*
X13336729Y-10416484D02*
X13403396Y-10559341D01*
X13403396Y-10559341D02*
X13470062Y-10416484D01*
X13470062Y-10416484D02*
X13470062Y-10616484D01*
X13651015Y-10616484D02*
X13651015Y-10511722D01*
X13651015Y-10511722D02*
X13641491Y-10492674D01*
X13641491Y-10492674D02*
X13622443Y-10483150D01*
X13622443Y-10483150D02*
X13584348Y-10483150D01*
X13584348Y-10483150D02*
X13565301Y-10492674D01*
X13651015Y-10606960D02*
X13631967Y-10616484D01*
X13631967Y-10616484D02*
X13584348Y-10616484D01*
X13584348Y-10616484D02*
X13565301Y-10606960D01*
X13565301Y-10606960D02*
X13555777Y-10587912D01*
X13555777Y-10587912D02*
X13555777Y-10568865D01*
X13555777Y-10568865D02*
X13565301Y-10549817D01*
X13565301Y-10549817D02*
X13584348Y-10540293D01*
X13584348Y-10540293D02*
X13631967Y-10540293D01*
X13631967Y-10540293D02*
X13651015Y-10530770D01*
X13746253Y-10483150D02*
X13746253Y-10683150D01*
X13746253Y-10492674D02*
X13765301Y-10483150D01*
X13765301Y-10483150D02*
X13803396Y-10483150D01*
X13803396Y-10483150D02*
X13822443Y-10492674D01*
X13822443Y-10492674D02*
X13831967Y-10502198D01*
X13831967Y-10502198D02*
X13841491Y-10521246D01*
X13841491Y-10521246D02*
X13841491Y-10578389D01*
X13841491Y-10578389D02*
X13831967Y-10597436D01*
X13831967Y-10597436D02*
X13822443Y-10606960D01*
X13822443Y-10606960D02*
X13803396Y-10616484D01*
X13803396Y-10616484D02*
X13765301Y-10616484D01*
X13765301Y-10616484D02*
X13746253Y-10606960D01*
X13927205Y-10597436D02*
X13936729Y-10606960D01*
X13936729Y-10606960D02*
X13927205Y-10616484D01*
X13927205Y-10616484D02*
X13917682Y-10606960D01*
X13917682Y-10606960D02*
X13927205Y-10597436D01*
X13927205Y-10597436D02*
X13927205Y-10616484D01*
X13927205Y-10492674D02*
X13936729Y-10502198D01*
X13936729Y-10502198D02*
X13927205Y-10511722D01*
X13927205Y-10511722D02*
X13917682Y-10502198D01*
X13917682Y-10502198D02*
X13927205Y-10492674D01*
X13927205Y-10492674D02*
X13927205Y-10511722D01*
D10*
X12225000Y-10910000D02*
X12295000Y-10980000D01*
X12295000Y-10910000D02*
X12225000Y-10980000D01*
D11*
X12593872Y-10836484D02*
X12612920Y-10836484D01*
X12612920Y-10836484D02*
X12631967Y-10846008D01*
X12631967Y-10846008D02*
X12641491Y-10855531D01*
X12641491Y-10855531D02*
X12651015Y-10874579D01*
X12651015Y-10874579D02*
X12660539Y-10912674D01*
X12660539Y-10912674D02*
X12660539Y-10960293D01*
X12660539Y-10960293D02*
X12651015Y-10998389D01*
X12651015Y-10998389D02*
X12641491Y-11017436D01*
X12641491Y-11017436D02*
X12631967Y-11026960D01*
X12631967Y-11026960D02*
X12612920Y-11036484D01*
X12612920Y-11036484D02*
X12593872Y-11036484D01*
X12593872Y-11036484D02*
X12574824Y-11026960D01*
X12574824Y-11026960D02*
X12565301Y-11017436D01*
X12565301Y-11017436D02*
X12555777Y-10998389D01*
X12555777Y-10998389D02*
X12546253Y-10960293D01*
X12546253Y-10960293D02*
X12546253Y-10912674D01*
X12546253Y-10912674D02*
X12555777Y-10874579D01*
X12555777Y-10874579D02*
X12565301Y-10855531D01*
X12565301Y-10855531D02*
X12574824Y-10846008D01*
X12574824Y-10846008D02*
X12593872Y-10836484D01*
X12746253Y-11017436D02*
X12755777Y-11026960D01*
X12755777Y-11026960D02*
X12746253Y-11036484D01*
X12746253Y-11036484D02*
X12736729Y-11026960D01*
X12736729Y-11026960D02*
X12746253Y-11017436D01*
X12746253Y-11017436D02*
X12746253Y-11036484D01*
X12822443Y-10836484D02*
X12955777Y-10836484D01*
X12955777Y-10836484D02*
X12870062Y-11036484D01*
X13070062Y-10836484D02*
X13089110Y-10836484D01*
X13089110Y-10836484D02*
X13108158Y-10846008D01*
X13108158Y-10846008D02*
X13117682Y-10855531D01*
X13117682Y-10855531D02*
X13127205Y-10874579D01*
X13127205Y-10874579D02*
X13136729Y-10912674D01*
X13136729Y-10912674D02*
X13136729Y-10960293D01*
X13136729Y-10960293D02*
X13127205Y-10998389D01*
X13127205Y-10998389D02*
X13117682Y-11017436D01*
X13117682Y-11017436D02*
X13108158Y-11026960D01*
X13108158Y-11026960D02*
X13089110Y-11036484D01*
X13089110Y-11036484D02*
X13070062Y-11036484D01*
X13070062Y-11036484D02*
X13051015Y-11026960D01*
X13051015Y-11026960D02*
X13041491Y-11017436D01*
X13041491Y-11017436D02*
X13031967Y-10998389D01*
X13031967Y-10998389D02*
X13022443Y-10960293D01*
X13022443Y-10960293D02*
X13022443Y-10912674D01*
X13022443Y-10912674D02*
X13031967Y-10874579D01*
X13031967Y-10874579D02*
X13041491Y-10855531D01*
X13041491Y-10855531D02*
X13051015Y-10846008D01*
X13051015Y-10846008D02*
X13070062Y-10836484D01*
X13260539Y-10836484D02*
X13279586Y-10836484D01*
X13279586Y-10836484D02*
X13298634Y-10846008D01*
X13298634Y-10846008D02*
X13308158Y-10855531D01*
X13308158Y-10855531D02*
X13317682Y-10874579D01*
X13317682Y-10874579D02*
X13327205Y-10912674D01*
X13327205Y-10912674D02*
X13327205Y-10960293D01*
X13327205Y-10960293D02*
X13317682Y-10998389D01*
X13317682Y-10998389D02*
X13308158Y-11017436D01*
X13308158Y-11017436D02*
X13298634Y-11026960D01*
X13298634Y-11026960D02*
X13279586Y-11036484D01*
X13279586Y-11036484D02*
X13260539Y-11036484D01*
X13260539Y-11036484D02*
X13241491Y-11026960D01*
X13241491Y-11026960D02*
X13231967Y-11017436D01*
X13231967Y-11017436D02*
X13222443Y-10998389D01*
X13222443Y-10998389D02*
X13212920Y-10960293D01*
X13212920Y-10960293D02*
X13212920Y-10912674D01*
X13212920Y-10912674D02*
X13222443Y-10874579D01*
X13222443Y-10874579D02*
X13231967Y-10855531D01*
X13231967Y-10855531D02*
X13241491Y-10846008D01*
X13241491Y-10846008D02*
X13260539Y-10836484D01*
X13412920Y-11036484D02*
X13412920Y-10903150D01*
X13412920Y-10922198D02*
X13422443Y-10912674D01*
X13422443Y-10912674D02*
X13441491Y-10903150D01*
X13441491Y-10903150D02*
X13470063Y-10903150D01*
X13470063Y-10903150D02*
X13489110Y-10912674D01*
X13489110Y-10912674D02*
X13498634Y-10931722D01*
X13498634Y-10931722D02*
X13498634Y-11036484D01*
X13498634Y-10931722D02*
X13508158Y-10912674D01*
X13508158Y-10912674D02*
X13527205Y-10903150D01*
X13527205Y-10903150D02*
X13555777Y-10903150D01*
X13555777Y-10903150D02*
X13574824Y-10912674D01*
X13574824Y-10912674D02*
X13584348Y-10931722D01*
X13584348Y-10931722D02*
X13584348Y-11036484D01*
X13679586Y-11036484D02*
X13679586Y-10903150D01*
X13679586Y-10922198D02*
X13689110Y-10912674D01*
X13689110Y-10912674D02*
X13708158Y-10903150D01*
X13708158Y-10903150D02*
X13736729Y-10903150D01*
X13736729Y-10903150D02*
X13755777Y-10912674D01*
X13755777Y-10912674D02*
X13765301Y-10931722D01*
X13765301Y-10931722D02*
X13765301Y-11036484D01*
X13765301Y-10931722D02*
X13774824Y-10912674D01*
X13774824Y-10912674D02*
X13793872Y-10903150D01*
X13793872Y-10903150D02*
X13822443Y-10903150D01*
X13822443Y-10903150D02*
X13841491Y-10912674D01*
X13841491Y-10912674D02*
X13851015Y-10931722D01*
X13851015Y-10931722D02*
X13851015Y-11036484D01*
X14241491Y-10826960D02*
X14070063Y-11084103D01*
X14498634Y-10836484D02*
X14517682Y-10836484D01*
X14517682Y-10836484D02*
X14536729Y-10846008D01*
X14536729Y-10846008D02*
X14546253Y-10855531D01*
X14546253Y-10855531D02*
X14555777Y-10874579D01*
X14555777Y-10874579D02*
X14565301Y-10912674D01*
X14565301Y-10912674D02*
X14565301Y-10960293D01*
X14565301Y-10960293D02*
X14555777Y-10998389D01*
X14555777Y-10998389D02*
X14546253Y-11017436D01*
X14546253Y-11017436D02*
X14536729Y-11026960D01*
X14536729Y-11026960D02*
X14517682Y-11036484D01*
X14517682Y-11036484D02*
X14498634Y-11036484D01*
X14498634Y-11036484D02*
X14479586Y-11026960D01*
X14479586Y-11026960D02*
X14470063Y-11017436D01*
X14470063Y-11017436D02*
X14460539Y-10998389D01*
X14460539Y-10998389D02*
X14451015Y-10960293D01*
X14451015Y-10960293D02*
X14451015Y-10912674D01*
X14451015Y-10912674D02*
X14460539Y-10874579D01*
X14460539Y-10874579D02*
X14470063Y-10855531D01*
X14470063Y-10855531D02*
X14479586Y-10846008D01*
X14479586Y-10846008D02*
X14498634Y-10836484D01*
X14651015Y-11017436D02*
X14660539Y-11026960D01*
X14660539Y-11026960D02*
X14651015Y-11036484D01*
X14651015Y-11036484D02*
X14641491Y-11026960D01*
X14641491Y-11026960D02*
X14651015Y-11017436D01*
X14651015Y-11017436D02*
X14651015Y-11036484D01*
X14784348Y-10836484D02*
X14803396Y-10836484D01*
X14803396Y-10836484D02*
X14822444Y-10846008D01*
X14822444Y-10846008D02*
X14831967Y-10855531D01*
X14831967Y-10855531D02*
X14841491Y-10874579D01*
X14841491Y-10874579D02*
X14851015Y-10912674D01*
X14851015Y-10912674D02*
X14851015Y-10960293D01*
X14851015Y-10960293D02*
X14841491Y-10998389D01*
X14841491Y-10998389D02*
X14831967Y-11017436D01*
X14831967Y-11017436D02*
X14822444Y-11026960D01*
X14822444Y-11026960D02*
X14803396Y-11036484D01*
X14803396Y-11036484D02*
X14784348Y-11036484D01*
X14784348Y-11036484D02*
X14765301Y-11026960D01*
X14765301Y-11026960D02*
X14755777Y-11017436D01*
X14755777Y-11017436D02*
X14746253Y-10998389D01*
X14746253Y-10998389D02*
X14736729Y-10960293D01*
X14736729Y-10960293D02*
X14736729Y-10912674D01*
X14736729Y-10912674D02*
X14746253Y-10874579D01*
X14746253Y-10874579D02*
X14755777Y-10855531D01*
X14755777Y-10855531D02*
X14765301Y-10846008D01*
X14765301Y-10846008D02*
X14784348Y-10836484D01*
X14927206Y-10855531D02*
X14936729Y-10846008D01*
X14936729Y-10846008D02*
X14955777Y-10836484D01*
X14955777Y-10836484D02*
X15003396Y-10836484D01*
X15003396Y-10836484D02*
X15022444Y-10846008D01*
X15022444Y-10846008D02*
X15031967Y-10855531D01*
X15031967Y-10855531D02*
X15041491Y-10874579D01*
X15041491Y-10874579D02*
X15041491Y-10893627D01*
X15041491Y-10893627D02*
X15031967Y-10922198D01*
X15031967Y-10922198D02*
X14917682Y-11036484D01*
X14917682Y-11036484D02*
X15041491Y-11036484D01*
X15108158Y-10836484D02*
X15241491Y-10836484D01*
X15241491Y-10836484D02*
X15155777Y-11036484D01*
X15403396Y-10836484D02*
X15365301Y-10836484D01*
X15365301Y-10836484D02*
X15346253Y-10846008D01*
X15346253Y-10846008D02*
X15336729Y-10855531D01*
X15336729Y-10855531D02*
X15317682Y-10884103D01*
X15317682Y-10884103D02*
X15308158Y-10922198D01*
X15308158Y-10922198D02*
X15308158Y-10998389D01*
X15308158Y-10998389D02*
X15317682Y-11017436D01*
X15317682Y-11017436D02*
X15327206Y-11026960D01*
X15327206Y-11026960D02*
X15346253Y-11036484D01*
X15346253Y-11036484D02*
X15384348Y-11036484D01*
X15384348Y-11036484D02*
X15403396Y-11026960D01*
X15403396Y-11026960D02*
X15412920Y-11017436D01*
X15412920Y-11017436D02*
X15422444Y-10998389D01*
X15422444Y-10998389D02*
X15422444Y-10950770D01*
X15422444Y-10950770D02*
X15412920Y-10931722D01*
X15412920Y-10931722D02*
X15403396Y-10922198D01*
X15403396Y-10922198D02*
X15384348Y-10912674D01*
X15384348Y-10912674D02*
X15346253Y-10912674D01*
X15346253Y-10912674D02*
X15327206Y-10922198D01*
X15327206Y-10922198D02*
X15317682Y-10931722D01*
X15317682Y-10931722D02*
X15308158Y-10950770D01*
X15498634Y-10836484D02*
X15498634Y-10874579D01*
X15574825Y-10836484D02*
X15574825Y-10874579D01*
X15870063Y-11112674D02*
X15860539Y-11103150D01*
X15860539Y-11103150D02*
X15841491Y-11074579D01*
X15841491Y-11074579D02*
X15831968Y-11055531D01*
X15831968Y-11055531D02*
X15822444Y-11026960D01*
X15822444Y-11026960D02*
X15812920Y-10979341D01*
X15812920Y-10979341D02*
X15812920Y-10941246D01*
X15812920Y-10941246D02*
X15822444Y-10893627D01*
X15822444Y-10893627D02*
X15831968Y-10865055D01*
X15831968Y-10865055D02*
X15841491Y-10846008D01*
X15841491Y-10846008D02*
X15860539Y-10817436D01*
X15860539Y-10817436D02*
X15870063Y-10807912D01*
X16051015Y-11036484D02*
X15936729Y-11036484D01*
X15993872Y-11036484D02*
X15993872Y-10836484D01*
X15993872Y-10836484D02*
X15974825Y-10865055D01*
X15974825Y-10865055D02*
X15955777Y-10884103D01*
X15955777Y-10884103D02*
X15936729Y-10893627D01*
X16222444Y-10836484D02*
X16184348Y-10836484D01*
X16184348Y-10836484D02*
X16165301Y-10846008D01*
X16165301Y-10846008D02*
X16155777Y-10855531D01*
X16155777Y-10855531D02*
X16136729Y-10884103D01*
X16136729Y-10884103D02*
X16127206Y-10922198D01*
X16127206Y-10922198D02*
X16127206Y-10998389D01*
X16127206Y-10998389D02*
X16136729Y-11017436D01*
X16136729Y-11017436D02*
X16146253Y-11026960D01*
X16146253Y-11026960D02*
X16165301Y-11036484D01*
X16165301Y-11036484D02*
X16203396Y-11036484D01*
X16203396Y-11036484D02*
X16222444Y-11026960D01*
X16222444Y-11026960D02*
X16231968Y-11017436D01*
X16231968Y-11017436D02*
X16241491Y-10998389D01*
X16241491Y-10998389D02*
X16241491Y-10950770D01*
X16241491Y-10950770D02*
X16231968Y-10931722D01*
X16231968Y-10931722D02*
X16222444Y-10922198D01*
X16222444Y-10922198D02*
X16203396Y-10912674D01*
X16203396Y-10912674D02*
X16165301Y-10912674D01*
X16165301Y-10912674D02*
X16146253Y-10922198D01*
X16146253Y-10922198D02*
X16136729Y-10931722D01*
X16136729Y-10931722D02*
X16127206Y-10950770D01*
X16479587Y-11036484D02*
X16479587Y-10836484D01*
X16565301Y-11036484D02*
X16565301Y-10931722D01*
X16565301Y-10931722D02*
X16555777Y-10912674D01*
X16555777Y-10912674D02*
X16536730Y-10903150D01*
X16536730Y-10903150D02*
X16508158Y-10903150D01*
X16508158Y-10903150D02*
X16489110Y-10912674D01*
X16489110Y-10912674D02*
X16479587Y-10922198D01*
X16689110Y-11036484D02*
X16670063Y-11026960D01*
X16670063Y-11026960D02*
X16660539Y-11017436D01*
X16660539Y-11017436D02*
X16651015Y-10998389D01*
X16651015Y-10998389D02*
X16651015Y-10941246D01*
X16651015Y-10941246D02*
X16660539Y-10922198D01*
X16660539Y-10922198D02*
X16670063Y-10912674D01*
X16670063Y-10912674D02*
X16689110Y-10903150D01*
X16689110Y-10903150D02*
X16717682Y-10903150D01*
X16717682Y-10903150D02*
X16736730Y-10912674D01*
X16736730Y-10912674D02*
X16746253Y-10922198D01*
X16746253Y-10922198D02*
X16755777Y-10941246D01*
X16755777Y-10941246D02*
X16755777Y-10998389D01*
X16755777Y-10998389D02*
X16746253Y-11017436D01*
X16746253Y-11017436D02*
X16736730Y-11026960D01*
X16736730Y-11026960D02*
X16717682Y-11036484D01*
X16717682Y-11036484D02*
X16689110Y-11036484D01*
X16870063Y-11036484D02*
X16851015Y-11026960D01*
X16851015Y-11026960D02*
X16841492Y-11007912D01*
X16841492Y-11007912D02*
X16841492Y-10836484D01*
X17022444Y-11026960D02*
X17003396Y-11036484D01*
X17003396Y-11036484D02*
X16965301Y-11036484D01*
X16965301Y-11036484D02*
X16946253Y-11026960D01*
X16946253Y-11026960D02*
X16936730Y-11007912D01*
X16936730Y-11007912D02*
X16936730Y-10931722D01*
X16936730Y-10931722D02*
X16946253Y-10912674D01*
X16946253Y-10912674D02*
X16965301Y-10903150D01*
X16965301Y-10903150D02*
X17003396Y-10903150D01*
X17003396Y-10903150D02*
X17022444Y-10912674D01*
X17022444Y-10912674D02*
X17031968Y-10931722D01*
X17031968Y-10931722D02*
X17031968Y-10950770D01*
X17031968Y-10950770D02*
X16936730Y-10969817D01*
X17108158Y-11026960D02*
X17127206Y-11036484D01*
X17127206Y-11036484D02*
X17165301Y-11036484D01*
X17165301Y-11036484D02*
X17184349Y-11026960D01*
X17184349Y-11026960D02*
X17193873Y-11007912D01*
X17193873Y-11007912D02*
X17193873Y-10998389D01*
X17193873Y-10998389D02*
X17184349Y-10979341D01*
X17184349Y-10979341D02*
X17165301Y-10969817D01*
X17165301Y-10969817D02*
X17136730Y-10969817D01*
X17136730Y-10969817D02*
X17117682Y-10960293D01*
X17117682Y-10960293D02*
X17108158Y-10941246D01*
X17108158Y-10941246D02*
X17108158Y-10931722D01*
X17108158Y-10931722D02*
X17117682Y-10912674D01*
X17117682Y-10912674D02*
X17136730Y-10903150D01*
X17136730Y-10903150D02*
X17165301Y-10903150D01*
X17165301Y-10903150D02*
X17184349Y-10912674D01*
X17260539Y-11112674D02*
X17270063Y-11103150D01*
X17270063Y-11103150D02*
X17289111Y-11074579D01*
X17289111Y-11074579D02*
X17298634Y-11055531D01*
X17298634Y-11055531D02*
X17308158Y-11026960D01*
X17308158Y-11026960D02*
X17317682Y-10979341D01*
X17317682Y-10979341D02*
X17317682Y-10941246D01*
X17317682Y-10941246D02*
X17308158Y-10893627D01*
X17308158Y-10893627D02*
X17298634Y-10865055D01*
X17298634Y-10865055D02*
X17289111Y-10846008D01*
X17289111Y-10846008D02*
X17270063Y-10817436D01*
X17270063Y-10817436D02*
X17260539Y-10807912D01*
D10*
X12295000Y-11209000D02*
G75*
G03*
X12295000Y-11209000I-37500J0D01*
G01*
D11*
X12593872Y-11100484D02*
X12612920Y-11100484D01*
X12612920Y-11100484D02*
X12631967Y-11110008D01*
X12631967Y-11110008D02*
X12641491Y-11119531D01*
X12641491Y-11119531D02*
X12651015Y-11138579D01*
X12651015Y-11138579D02*
X12660539Y-11176674D01*
X12660539Y-11176674D02*
X12660539Y-11224293D01*
X12660539Y-11224293D02*
X12651015Y-11262388D01*
X12651015Y-11262388D02*
X12641491Y-11281436D01*
X12641491Y-11281436D02*
X12631967Y-11290960D01*
X12631967Y-11290960D02*
X12612920Y-11300484D01*
X12612920Y-11300484D02*
X12593872Y-11300484D01*
X12593872Y-11300484D02*
X12574824Y-11290960D01*
X12574824Y-11290960D02*
X12565301Y-11281436D01*
X12565301Y-11281436D02*
X12555777Y-11262388D01*
X12555777Y-11262388D02*
X12546253Y-11224293D01*
X12546253Y-11224293D02*
X12546253Y-11176674D01*
X12546253Y-11176674D02*
X12555777Y-11138579D01*
X12555777Y-11138579D02*
X12565301Y-11119531D01*
X12565301Y-11119531D02*
X12574824Y-11110008D01*
X12574824Y-11110008D02*
X12593872Y-11100484D01*
X12746253Y-11281436D02*
X12755777Y-11290960D01*
X12755777Y-11290960D02*
X12746253Y-11300484D01*
X12746253Y-11300484D02*
X12736729Y-11290960D01*
X12736729Y-11290960D02*
X12746253Y-11281436D01*
X12746253Y-11281436D02*
X12746253Y-11300484D01*
X12822443Y-11100484D02*
X12955777Y-11100484D01*
X12955777Y-11100484D02*
X12870062Y-11300484D01*
X13127205Y-11100484D02*
X13031967Y-11100484D01*
X13031967Y-11100484D02*
X13022443Y-11195722D01*
X13022443Y-11195722D02*
X13031967Y-11186198D01*
X13031967Y-11186198D02*
X13051015Y-11176674D01*
X13051015Y-11176674D02*
X13098634Y-11176674D01*
X13098634Y-11176674D02*
X13117682Y-11186198D01*
X13117682Y-11186198D02*
X13127205Y-11195722D01*
X13127205Y-11195722D02*
X13136729Y-11214769D01*
X13136729Y-11214769D02*
X13136729Y-11262388D01*
X13136729Y-11262388D02*
X13127205Y-11281436D01*
X13127205Y-11281436D02*
X13117682Y-11290960D01*
X13117682Y-11290960D02*
X13098634Y-11300484D01*
X13098634Y-11300484D02*
X13051015Y-11300484D01*
X13051015Y-11300484D02*
X13031967Y-11290960D01*
X13031967Y-11290960D02*
X13022443Y-11281436D01*
X13260539Y-11100484D02*
X13279586Y-11100484D01*
X13279586Y-11100484D02*
X13298634Y-11110008D01*
X13298634Y-11110008D02*
X13308158Y-11119531D01*
X13308158Y-11119531D02*
X13317682Y-11138579D01*
X13317682Y-11138579D02*
X13327205Y-11176674D01*
X13327205Y-11176674D02*
X13327205Y-11224293D01*
X13327205Y-11224293D02*
X13317682Y-11262388D01*
X13317682Y-11262388D02*
X13308158Y-11281436D01*
X13308158Y-11281436D02*
X13298634Y-11290960D01*
X13298634Y-11290960D02*
X13279586Y-11300484D01*
X13279586Y-11300484D02*
X13260539Y-11300484D01*
X13260539Y-11300484D02*
X13241491Y-11290960D01*
X13241491Y-11290960D02*
X13231967Y-11281436D01*
X13231967Y-11281436D02*
X13222443Y-11262388D01*
X13222443Y-11262388D02*
X13212920Y-11224293D01*
X13212920Y-11224293D02*
X13212920Y-11176674D01*
X13212920Y-11176674D02*
X13222443Y-11138579D01*
X13222443Y-11138579D02*
X13231967Y-11119531D01*
X13231967Y-11119531D02*
X13241491Y-11110008D01*
X13241491Y-11110008D02*
X13260539Y-11100484D01*
X13412920Y-11300484D02*
X13412920Y-11167150D01*
X13412920Y-11186198D02*
X13422443Y-11176674D01*
X13422443Y-11176674D02*
X13441491Y-11167150D01*
X13441491Y-11167150D02*
X13470063Y-11167150D01*
X13470063Y-11167150D02*
X13489110Y-11176674D01*
X13489110Y-11176674D02*
X13498634Y-11195722D01*
X13498634Y-11195722D02*
X13498634Y-11300484D01*
X13498634Y-11195722D02*
X13508158Y-11176674D01*
X13508158Y-11176674D02*
X13527205Y-11167150D01*
X13527205Y-11167150D02*
X13555777Y-11167150D01*
X13555777Y-11167150D02*
X13574824Y-11176674D01*
X13574824Y-11176674D02*
X13584348Y-11195722D01*
X13584348Y-11195722D02*
X13584348Y-11300484D01*
X13679586Y-11300484D02*
X13679586Y-11167150D01*
X13679586Y-11186198D02*
X13689110Y-11176674D01*
X13689110Y-11176674D02*
X13708158Y-11167150D01*
X13708158Y-11167150D02*
X13736729Y-11167150D01*
X13736729Y-11167150D02*
X13755777Y-11176674D01*
X13755777Y-11176674D02*
X13765301Y-11195722D01*
X13765301Y-11195722D02*
X13765301Y-11300484D01*
X13765301Y-11195722D02*
X13774824Y-11176674D01*
X13774824Y-11176674D02*
X13793872Y-11167150D01*
X13793872Y-11167150D02*
X13822443Y-11167150D01*
X13822443Y-11167150D02*
X13841491Y-11176674D01*
X13841491Y-11176674D02*
X13851015Y-11195722D01*
X13851015Y-11195722D02*
X13851015Y-11300484D01*
X14241491Y-11090960D02*
X14070063Y-11348103D01*
X14498634Y-11100484D02*
X14517682Y-11100484D01*
X14517682Y-11100484D02*
X14536729Y-11110008D01*
X14536729Y-11110008D02*
X14546253Y-11119531D01*
X14546253Y-11119531D02*
X14555777Y-11138579D01*
X14555777Y-11138579D02*
X14565301Y-11176674D01*
X14565301Y-11176674D02*
X14565301Y-11224293D01*
X14565301Y-11224293D02*
X14555777Y-11262388D01*
X14555777Y-11262388D02*
X14546253Y-11281436D01*
X14546253Y-11281436D02*
X14536729Y-11290960D01*
X14536729Y-11290960D02*
X14517682Y-11300484D01*
X14517682Y-11300484D02*
X14498634Y-11300484D01*
X14498634Y-11300484D02*
X14479586Y-11290960D01*
X14479586Y-11290960D02*
X14470063Y-11281436D01*
X14470063Y-11281436D02*
X14460539Y-11262388D01*
X14460539Y-11262388D02*
X14451015Y-11224293D01*
X14451015Y-11224293D02*
X14451015Y-11176674D01*
X14451015Y-11176674D02*
X14460539Y-11138579D01*
X14460539Y-11138579D02*
X14470063Y-11119531D01*
X14470063Y-11119531D02*
X14479586Y-11110008D01*
X14479586Y-11110008D02*
X14498634Y-11100484D01*
X14651015Y-11281436D02*
X14660539Y-11290960D01*
X14660539Y-11290960D02*
X14651015Y-11300484D01*
X14651015Y-11300484D02*
X14641491Y-11290960D01*
X14641491Y-11290960D02*
X14651015Y-11281436D01*
X14651015Y-11281436D02*
X14651015Y-11300484D01*
X14784348Y-11100484D02*
X14803396Y-11100484D01*
X14803396Y-11100484D02*
X14822444Y-11110008D01*
X14822444Y-11110008D02*
X14831967Y-11119531D01*
X14831967Y-11119531D02*
X14841491Y-11138579D01*
X14841491Y-11138579D02*
X14851015Y-11176674D01*
X14851015Y-11176674D02*
X14851015Y-11224293D01*
X14851015Y-11224293D02*
X14841491Y-11262388D01*
X14841491Y-11262388D02*
X14831967Y-11281436D01*
X14831967Y-11281436D02*
X14822444Y-11290960D01*
X14822444Y-11290960D02*
X14803396Y-11300484D01*
X14803396Y-11300484D02*
X14784348Y-11300484D01*
X14784348Y-11300484D02*
X14765301Y-11290960D01*
X14765301Y-11290960D02*
X14755777Y-11281436D01*
X14755777Y-11281436D02*
X14746253Y-11262388D01*
X14746253Y-11262388D02*
X14736729Y-11224293D01*
X14736729Y-11224293D02*
X14736729Y-11176674D01*
X14736729Y-11176674D02*
X14746253Y-11138579D01*
X14746253Y-11138579D02*
X14755777Y-11119531D01*
X14755777Y-11119531D02*
X14765301Y-11110008D01*
X14765301Y-11110008D02*
X14784348Y-11100484D01*
X14927206Y-11119531D02*
X14936729Y-11110008D01*
X14936729Y-11110008D02*
X14955777Y-11100484D01*
X14955777Y-11100484D02*
X15003396Y-11100484D01*
X15003396Y-11100484D02*
X15022444Y-11110008D01*
X15022444Y-11110008D02*
X15031967Y-11119531D01*
X15031967Y-11119531D02*
X15041491Y-11138579D01*
X15041491Y-11138579D02*
X15041491Y-11157627D01*
X15041491Y-11157627D02*
X15031967Y-11186198D01*
X15031967Y-11186198D02*
X14917682Y-11300484D01*
X14917682Y-11300484D02*
X15041491Y-11300484D01*
X15136729Y-11300484D02*
X15174825Y-11300484D01*
X15174825Y-11300484D02*
X15193872Y-11290960D01*
X15193872Y-11290960D02*
X15203396Y-11281436D01*
X15203396Y-11281436D02*
X15222444Y-11252865D01*
X15222444Y-11252865D02*
X15231967Y-11214769D01*
X15231967Y-11214769D02*
X15231967Y-11138579D01*
X15231967Y-11138579D02*
X15222444Y-11119531D01*
X15222444Y-11119531D02*
X15212920Y-11110008D01*
X15212920Y-11110008D02*
X15193872Y-11100484D01*
X15193872Y-11100484D02*
X15155777Y-11100484D01*
X15155777Y-11100484D02*
X15136729Y-11110008D01*
X15136729Y-11110008D02*
X15127206Y-11119531D01*
X15127206Y-11119531D02*
X15117682Y-11138579D01*
X15117682Y-11138579D02*
X15117682Y-11186198D01*
X15117682Y-11186198D02*
X15127206Y-11205246D01*
X15127206Y-11205246D02*
X15136729Y-11214769D01*
X15136729Y-11214769D02*
X15155777Y-11224293D01*
X15155777Y-11224293D02*
X15193872Y-11224293D01*
X15193872Y-11224293D02*
X15212920Y-11214769D01*
X15212920Y-11214769D02*
X15222444Y-11205246D01*
X15222444Y-11205246D02*
X15231967Y-11186198D01*
X15412920Y-11100484D02*
X15317682Y-11100484D01*
X15317682Y-11100484D02*
X15308158Y-11195722D01*
X15308158Y-11195722D02*
X15317682Y-11186198D01*
X15317682Y-11186198D02*
X15336729Y-11176674D01*
X15336729Y-11176674D02*
X15384348Y-11176674D01*
X15384348Y-11176674D02*
X15403396Y-11186198D01*
X15403396Y-11186198D02*
X15412920Y-11195722D01*
X15412920Y-11195722D02*
X15422444Y-11214769D01*
X15422444Y-11214769D02*
X15422444Y-11262388D01*
X15422444Y-11262388D02*
X15412920Y-11281436D01*
X15412920Y-11281436D02*
X15403396Y-11290960D01*
X15403396Y-11290960D02*
X15384348Y-11300484D01*
X15384348Y-11300484D02*
X15336729Y-11300484D01*
X15336729Y-11300484D02*
X15317682Y-11290960D01*
X15317682Y-11290960D02*
X15308158Y-11281436D01*
X15498634Y-11100484D02*
X15498634Y-11138579D01*
X15574825Y-11100484D02*
X15574825Y-11138579D01*
X15870063Y-11376674D02*
X15860539Y-11367150D01*
X15860539Y-11367150D02*
X15841491Y-11338579D01*
X15841491Y-11338579D02*
X15831968Y-11319531D01*
X15831968Y-11319531D02*
X15822444Y-11290960D01*
X15822444Y-11290960D02*
X15812920Y-11243341D01*
X15812920Y-11243341D02*
X15812920Y-11205246D01*
X15812920Y-11205246D02*
X15822444Y-11157627D01*
X15822444Y-11157627D02*
X15831968Y-11129055D01*
X15831968Y-11129055D02*
X15841491Y-11110008D01*
X15841491Y-11110008D02*
X15860539Y-11081436D01*
X15860539Y-11081436D02*
X15870063Y-11071912D01*
X15927206Y-11100484D02*
X16051015Y-11100484D01*
X16051015Y-11100484D02*
X15984348Y-11176674D01*
X15984348Y-11176674D02*
X16012920Y-11176674D01*
X16012920Y-11176674D02*
X16031968Y-11186198D01*
X16031968Y-11186198D02*
X16041491Y-11195722D01*
X16041491Y-11195722D02*
X16051015Y-11214769D01*
X16051015Y-11214769D02*
X16051015Y-11262388D01*
X16051015Y-11262388D02*
X16041491Y-11281436D01*
X16041491Y-11281436D02*
X16031968Y-11290960D01*
X16031968Y-11290960D02*
X16012920Y-11300484D01*
X16012920Y-11300484D02*
X15955777Y-11300484D01*
X15955777Y-11300484D02*
X15936729Y-11290960D01*
X15936729Y-11290960D02*
X15927206Y-11281436D01*
X16289110Y-11300484D02*
X16289110Y-11100484D01*
X16374825Y-11300484D02*
X16374825Y-11195722D01*
X16374825Y-11195722D02*
X16365301Y-11176674D01*
X16365301Y-11176674D02*
X16346253Y-11167150D01*
X16346253Y-11167150D02*
X16317682Y-11167150D01*
X16317682Y-11167150D02*
X16298634Y-11176674D01*
X16298634Y-11176674D02*
X16289110Y-11186198D01*
X16498634Y-11300484D02*
X16479587Y-11290960D01*
X16479587Y-11290960D02*
X16470063Y-11281436D01*
X16470063Y-11281436D02*
X16460539Y-11262388D01*
X16460539Y-11262388D02*
X16460539Y-11205246D01*
X16460539Y-11205246D02*
X16470063Y-11186198D01*
X16470063Y-11186198D02*
X16479587Y-11176674D01*
X16479587Y-11176674D02*
X16498634Y-11167150D01*
X16498634Y-11167150D02*
X16527206Y-11167150D01*
X16527206Y-11167150D02*
X16546253Y-11176674D01*
X16546253Y-11176674D02*
X16555777Y-11186198D01*
X16555777Y-11186198D02*
X16565301Y-11205246D01*
X16565301Y-11205246D02*
X16565301Y-11262388D01*
X16565301Y-11262388D02*
X16555777Y-11281436D01*
X16555777Y-11281436D02*
X16546253Y-11290960D01*
X16546253Y-11290960D02*
X16527206Y-11300484D01*
X16527206Y-11300484D02*
X16498634Y-11300484D01*
X16679587Y-11300484D02*
X16660539Y-11290960D01*
X16660539Y-11290960D02*
X16651015Y-11271912D01*
X16651015Y-11271912D02*
X16651015Y-11100484D01*
X16831968Y-11290960D02*
X16812920Y-11300484D01*
X16812920Y-11300484D02*
X16774825Y-11300484D01*
X16774825Y-11300484D02*
X16755777Y-11290960D01*
X16755777Y-11290960D02*
X16746253Y-11271912D01*
X16746253Y-11271912D02*
X16746253Y-11195722D01*
X16746253Y-11195722D02*
X16755777Y-11176674D01*
X16755777Y-11176674D02*
X16774825Y-11167150D01*
X16774825Y-11167150D02*
X16812920Y-11167150D01*
X16812920Y-11167150D02*
X16831968Y-11176674D01*
X16831968Y-11176674D02*
X16841492Y-11195722D01*
X16841492Y-11195722D02*
X16841492Y-11214769D01*
X16841492Y-11214769D02*
X16746253Y-11233817D01*
X16917682Y-11290960D02*
X16936730Y-11300484D01*
X16936730Y-11300484D02*
X16974825Y-11300484D01*
X16974825Y-11300484D02*
X16993873Y-11290960D01*
X16993873Y-11290960D02*
X17003396Y-11271912D01*
X17003396Y-11271912D02*
X17003396Y-11262388D01*
X17003396Y-11262388D02*
X16993873Y-11243341D01*
X16993873Y-11243341D02*
X16974825Y-11233817D01*
X16974825Y-11233817D02*
X16946253Y-11233817D01*
X16946253Y-11233817D02*
X16927206Y-11224293D01*
X16927206Y-11224293D02*
X16917682Y-11205246D01*
X16917682Y-11205246D02*
X16917682Y-11195722D01*
X16917682Y-11195722D02*
X16927206Y-11176674D01*
X16927206Y-11176674D02*
X16946253Y-11167150D01*
X16946253Y-11167150D02*
X16974825Y-11167150D01*
X16974825Y-11167150D02*
X16993873Y-11176674D01*
X17070063Y-11376674D02*
X17079587Y-11367150D01*
X17079587Y-11367150D02*
X17098634Y-11338579D01*
X17098634Y-11338579D02*
X17108158Y-11319531D01*
X17108158Y-11319531D02*
X17117682Y-11290960D01*
X17117682Y-11290960D02*
X17127206Y-11243341D01*
X17127206Y-11243341D02*
X17127206Y-11205246D01*
X17127206Y-11205246D02*
X17117682Y-11157627D01*
X17117682Y-11157627D02*
X17108158Y-11129055D01*
X17108158Y-11129055D02*
X17098634Y-11110008D01*
X17098634Y-11110008D02*
X17079587Y-11081436D01*
X17079587Y-11081436D02*
X17070063Y-11071912D01*
D10*
X12255000Y-11433000D02*
X12255000Y-11513000D01*
X12215000Y-11473000D02*
X12295000Y-11473000D01*
D11*
X12593872Y-11364484D02*
X12612920Y-11364484D01*
X12612920Y-11364484D02*
X12631967Y-11374008D01*
X12631967Y-11374008D02*
X12641491Y-11383531D01*
X12641491Y-11383531D02*
X12651015Y-11402579D01*
X12651015Y-11402579D02*
X12660539Y-11440674D01*
X12660539Y-11440674D02*
X12660539Y-11488293D01*
X12660539Y-11488293D02*
X12651015Y-11526388D01*
X12651015Y-11526388D02*
X12641491Y-11545436D01*
X12641491Y-11545436D02*
X12631967Y-11554960D01*
X12631967Y-11554960D02*
X12612920Y-11564484D01*
X12612920Y-11564484D02*
X12593872Y-11564484D01*
X12593872Y-11564484D02*
X12574824Y-11554960D01*
X12574824Y-11554960D02*
X12565301Y-11545436D01*
X12565301Y-11545436D02*
X12555777Y-11526388D01*
X12555777Y-11526388D02*
X12546253Y-11488293D01*
X12546253Y-11488293D02*
X12546253Y-11440674D01*
X12546253Y-11440674D02*
X12555777Y-11402579D01*
X12555777Y-11402579D02*
X12565301Y-11383531D01*
X12565301Y-11383531D02*
X12574824Y-11374008D01*
X12574824Y-11374008D02*
X12593872Y-11364484D01*
X12746253Y-11545436D02*
X12755777Y-11554960D01*
X12755777Y-11554960D02*
X12746253Y-11564484D01*
X12746253Y-11564484D02*
X12736729Y-11554960D01*
X12736729Y-11554960D02*
X12746253Y-11545436D01*
X12746253Y-11545436D02*
X12746253Y-11564484D01*
X12870062Y-11450198D02*
X12851015Y-11440674D01*
X12851015Y-11440674D02*
X12841491Y-11431150D01*
X12841491Y-11431150D02*
X12831967Y-11412103D01*
X12831967Y-11412103D02*
X12831967Y-11402579D01*
X12831967Y-11402579D02*
X12841491Y-11383531D01*
X12841491Y-11383531D02*
X12851015Y-11374008D01*
X12851015Y-11374008D02*
X12870062Y-11364484D01*
X12870062Y-11364484D02*
X12908158Y-11364484D01*
X12908158Y-11364484D02*
X12927205Y-11374008D01*
X12927205Y-11374008D02*
X12936729Y-11383531D01*
X12936729Y-11383531D02*
X12946253Y-11402579D01*
X12946253Y-11402579D02*
X12946253Y-11412103D01*
X12946253Y-11412103D02*
X12936729Y-11431150D01*
X12936729Y-11431150D02*
X12927205Y-11440674D01*
X12927205Y-11440674D02*
X12908158Y-11450198D01*
X12908158Y-11450198D02*
X12870062Y-11450198D01*
X12870062Y-11450198D02*
X12851015Y-11459722D01*
X12851015Y-11459722D02*
X12841491Y-11469246D01*
X12841491Y-11469246D02*
X12831967Y-11488293D01*
X12831967Y-11488293D02*
X12831967Y-11526388D01*
X12831967Y-11526388D02*
X12841491Y-11545436D01*
X12841491Y-11545436D02*
X12851015Y-11554960D01*
X12851015Y-11554960D02*
X12870062Y-11564484D01*
X12870062Y-11564484D02*
X12908158Y-11564484D01*
X12908158Y-11564484D02*
X12927205Y-11554960D01*
X12927205Y-11554960D02*
X12936729Y-11545436D01*
X12936729Y-11545436D02*
X12946253Y-11526388D01*
X12946253Y-11526388D02*
X12946253Y-11488293D01*
X12946253Y-11488293D02*
X12936729Y-11469246D01*
X12936729Y-11469246D02*
X12927205Y-11459722D01*
X12927205Y-11459722D02*
X12908158Y-11450198D01*
X13070062Y-11364484D02*
X13089110Y-11364484D01*
X13089110Y-11364484D02*
X13108158Y-11374008D01*
X13108158Y-11374008D02*
X13117682Y-11383531D01*
X13117682Y-11383531D02*
X13127205Y-11402579D01*
X13127205Y-11402579D02*
X13136729Y-11440674D01*
X13136729Y-11440674D02*
X13136729Y-11488293D01*
X13136729Y-11488293D02*
X13127205Y-11526388D01*
X13127205Y-11526388D02*
X13117682Y-11545436D01*
X13117682Y-11545436D02*
X13108158Y-11554960D01*
X13108158Y-11554960D02*
X13089110Y-11564484D01*
X13089110Y-11564484D02*
X13070062Y-11564484D01*
X13070062Y-11564484D02*
X13051015Y-11554960D01*
X13051015Y-11554960D02*
X13041491Y-11545436D01*
X13041491Y-11545436D02*
X13031967Y-11526388D01*
X13031967Y-11526388D02*
X13022443Y-11488293D01*
X13022443Y-11488293D02*
X13022443Y-11440674D01*
X13022443Y-11440674D02*
X13031967Y-11402579D01*
X13031967Y-11402579D02*
X13041491Y-11383531D01*
X13041491Y-11383531D02*
X13051015Y-11374008D01*
X13051015Y-11374008D02*
X13070062Y-11364484D01*
X13260539Y-11364484D02*
X13279586Y-11364484D01*
X13279586Y-11364484D02*
X13298634Y-11374008D01*
X13298634Y-11374008D02*
X13308158Y-11383531D01*
X13308158Y-11383531D02*
X13317682Y-11402579D01*
X13317682Y-11402579D02*
X13327205Y-11440674D01*
X13327205Y-11440674D02*
X13327205Y-11488293D01*
X13327205Y-11488293D02*
X13317682Y-11526388D01*
X13317682Y-11526388D02*
X13308158Y-11545436D01*
X13308158Y-11545436D02*
X13298634Y-11554960D01*
X13298634Y-11554960D02*
X13279586Y-11564484D01*
X13279586Y-11564484D02*
X13260539Y-11564484D01*
X13260539Y-11564484D02*
X13241491Y-11554960D01*
X13241491Y-11554960D02*
X13231967Y-11545436D01*
X13231967Y-11545436D02*
X13222443Y-11526388D01*
X13222443Y-11526388D02*
X13212920Y-11488293D01*
X13212920Y-11488293D02*
X13212920Y-11440674D01*
X13212920Y-11440674D02*
X13222443Y-11402579D01*
X13222443Y-11402579D02*
X13231967Y-11383531D01*
X13231967Y-11383531D02*
X13241491Y-11374008D01*
X13241491Y-11374008D02*
X13260539Y-11364484D01*
X13412920Y-11564484D02*
X13412920Y-11431150D01*
X13412920Y-11450198D02*
X13422443Y-11440674D01*
X13422443Y-11440674D02*
X13441491Y-11431150D01*
X13441491Y-11431150D02*
X13470063Y-11431150D01*
X13470063Y-11431150D02*
X13489110Y-11440674D01*
X13489110Y-11440674D02*
X13498634Y-11459722D01*
X13498634Y-11459722D02*
X13498634Y-11564484D01*
X13498634Y-11459722D02*
X13508158Y-11440674D01*
X13508158Y-11440674D02*
X13527205Y-11431150D01*
X13527205Y-11431150D02*
X13555777Y-11431150D01*
X13555777Y-11431150D02*
X13574824Y-11440674D01*
X13574824Y-11440674D02*
X13584348Y-11459722D01*
X13584348Y-11459722D02*
X13584348Y-11564484D01*
X13679586Y-11564484D02*
X13679586Y-11431150D01*
X13679586Y-11450198D02*
X13689110Y-11440674D01*
X13689110Y-11440674D02*
X13708158Y-11431150D01*
X13708158Y-11431150D02*
X13736729Y-11431150D01*
X13736729Y-11431150D02*
X13755777Y-11440674D01*
X13755777Y-11440674D02*
X13765301Y-11459722D01*
X13765301Y-11459722D02*
X13765301Y-11564484D01*
X13765301Y-11459722D02*
X13774824Y-11440674D01*
X13774824Y-11440674D02*
X13793872Y-11431150D01*
X13793872Y-11431150D02*
X13822443Y-11431150D01*
X13822443Y-11431150D02*
X13841491Y-11440674D01*
X13841491Y-11440674D02*
X13851015Y-11459722D01*
X13851015Y-11459722D02*
X13851015Y-11564484D01*
X14241491Y-11354960D02*
X14070063Y-11612103D01*
X14498634Y-11364484D02*
X14517682Y-11364484D01*
X14517682Y-11364484D02*
X14536729Y-11374008D01*
X14536729Y-11374008D02*
X14546253Y-11383531D01*
X14546253Y-11383531D02*
X14555777Y-11402579D01*
X14555777Y-11402579D02*
X14565301Y-11440674D01*
X14565301Y-11440674D02*
X14565301Y-11488293D01*
X14565301Y-11488293D02*
X14555777Y-11526388D01*
X14555777Y-11526388D02*
X14546253Y-11545436D01*
X14546253Y-11545436D02*
X14536729Y-11554960D01*
X14536729Y-11554960D02*
X14517682Y-11564484D01*
X14517682Y-11564484D02*
X14498634Y-11564484D01*
X14498634Y-11564484D02*
X14479586Y-11554960D01*
X14479586Y-11554960D02*
X14470063Y-11545436D01*
X14470063Y-11545436D02*
X14460539Y-11526388D01*
X14460539Y-11526388D02*
X14451015Y-11488293D01*
X14451015Y-11488293D02*
X14451015Y-11440674D01*
X14451015Y-11440674D02*
X14460539Y-11402579D01*
X14460539Y-11402579D02*
X14470063Y-11383531D01*
X14470063Y-11383531D02*
X14479586Y-11374008D01*
X14479586Y-11374008D02*
X14498634Y-11364484D01*
X14651015Y-11545436D02*
X14660539Y-11554960D01*
X14660539Y-11554960D02*
X14651015Y-11564484D01*
X14651015Y-11564484D02*
X14641491Y-11554960D01*
X14641491Y-11554960D02*
X14651015Y-11545436D01*
X14651015Y-11545436D02*
X14651015Y-11564484D01*
X14784348Y-11364484D02*
X14803396Y-11364484D01*
X14803396Y-11364484D02*
X14822444Y-11374008D01*
X14822444Y-11374008D02*
X14831967Y-11383531D01*
X14831967Y-11383531D02*
X14841491Y-11402579D01*
X14841491Y-11402579D02*
X14851015Y-11440674D01*
X14851015Y-11440674D02*
X14851015Y-11488293D01*
X14851015Y-11488293D02*
X14841491Y-11526388D01*
X14841491Y-11526388D02*
X14831967Y-11545436D01*
X14831967Y-11545436D02*
X14822444Y-11554960D01*
X14822444Y-11554960D02*
X14803396Y-11564484D01*
X14803396Y-11564484D02*
X14784348Y-11564484D01*
X14784348Y-11564484D02*
X14765301Y-11554960D01*
X14765301Y-11554960D02*
X14755777Y-11545436D01*
X14755777Y-11545436D02*
X14746253Y-11526388D01*
X14746253Y-11526388D02*
X14736729Y-11488293D01*
X14736729Y-11488293D02*
X14736729Y-11440674D01*
X14736729Y-11440674D02*
X14746253Y-11402579D01*
X14746253Y-11402579D02*
X14755777Y-11383531D01*
X14755777Y-11383531D02*
X14765301Y-11374008D01*
X14765301Y-11374008D02*
X14784348Y-11364484D01*
X14917682Y-11364484D02*
X15041491Y-11364484D01*
X15041491Y-11364484D02*
X14974825Y-11440674D01*
X14974825Y-11440674D02*
X15003396Y-11440674D01*
X15003396Y-11440674D02*
X15022444Y-11450198D01*
X15022444Y-11450198D02*
X15031967Y-11459722D01*
X15031967Y-11459722D02*
X15041491Y-11478769D01*
X15041491Y-11478769D02*
X15041491Y-11526388D01*
X15041491Y-11526388D02*
X15031967Y-11545436D01*
X15031967Y-11545436D02*
X15022444Y-11554960D01*
X15022444Y-11554960D02*
X15003396Y-11564484D01*
X15003396Y-11564484D02*
X14946253Y-11564484D01*
X14946253Y-11564484D02*
X14927206Y-11554960D01*
X14927206Y-11554960D02*
X14917682Y-11545436D01*
X15231967Y-11564484D02*
X15117682Y-11564484D01*
X15174825Y-11564484D02*
X15174825Y-11364484D01*
X15174825Y-11364484D02*
X15155777Y-11393055D01*
X15155777Y-11393055D02*
X15136729Y-11412103D01*
X15136729Y-11412103D02*
X15117682Y-11421627D01*
X15412920Y-11364484D02*
X15317682Y-11364484D01*
X15317682Y-11364484D02*
X15308158Y-11459722D01*
X15308158Y-11459722D02*
X15317682Y-11450198D01*
X15317682Y-11450198D02*
X15336729Y-11440674D01*
X15336729Y-11440674D02*
X15384348Y-11440674D01*
X15384348Y-11440674D02*
X15403396Y-11450198D01*
X15403396Y-11450198D02*
X15412920Y-11459722D01*
X15412920Y-11459722D02*
X15422444Y-11478769D01*
X15422444Y-11478769D02*
X15422444Y-11526388D01*
X15422444Y-11526388D02*
X15412920Y-11545436D01*
X15412920Y-11545436D02*
X15403396Y-11554960D01*
X15403396Y-11554960D02*
X15384348Y-11564484D01*
X15384348Y-11564484D02*
X15336729Y-11564484D01*
X15336729Y-11564484D02*
X15317682Y-11554960D01*
X15317682Y-11554960D02*
X15308158Y-11545436D01*
X15498634Y-11364484D02*
X15498634Y-11402579D01*
X15574825Y-11364484D02*
X15574825Y-11402579D01*
X15870063Y-11640674D02*
X15860539Y-11631150D01*
X15860539Y-11631150D02*
X15841491Y-11602579D01*
X15841491Y-11602579D02*
X15831968Y-11583531D01*
X15831968Y-11583531D02*
X15822444Y-11554960D01*
X15822444Y-11554960D02*
X15812920Y-11507341D01*
X15812920Y-11507341D02*
X15812920Y-11469246D01*
X15812920Y-11469246D02*
X15822444Y-11421627D01*
X15822444Y-11421627D02*
X15831968Y-11393055D01*
X15831968Y-11393055D02*
X15841491Y-11374008D01*
X15841491Y-11374008D02*
X15860539Y-11345436D01*
X15860539Y-11345436D02*
X15870063Y-11335912D01*
X16031968Y-11364484D02*
X15993872Y-11364484D01*
X15993872Y-11364484D02*
X15974825Y-11374008D01*
X15974825Y-11374008D02*
X15965301Y-11383531D01*
X15965301Y-11383531D02*
X15946253Y-11412103D01*
X15946253Y-11412103D02*
X15936729Y-11450198D01*
X15936729Y-11450198D02*
X15936729Y-11526388D01*
X15936729Y-11526388D02*
X15946253Y-11545436D01*
X15946253Y-11545436D02*
X15955777Y-11554960D01*
X15955777Y-11554960D02*
X15974825Y-11564484D01*
X15974825Y-11564484D02*
X16012920Y-11564484D01*
X16012920Y-11564484D02*
X16031968Y-11554960D01*
X16031968Y-11554960D02*
X16041491Y-11545436D01*
X16041491Y-11545436D02*
X16051015Y-11526388D01*
X16051015Y-11526388D02*
X16051015Y-11478769D01*
X16051015Y-11478769D02*
X16041491Y-11459722D01*
X16041491Y-11459722D02*
X16031968Y-11450198D01*
X16031968Y-11450198D02*
X16012920Y-11440674D01*
X16012920Y-11440674D02*
X15974825Y-11440674D01*
X15974825Y-11440674D02*
X15955777Y-11450198D01*
X15955777Y-11450198D02*
X15946253Y-11459722D01*
X15946253Y-11459722D02*
X15936729Y-11478769D01*
X16289110Y-11564484D02*
X16289110Y-11364484D01*
X16374825Y-11564484D02*
X16374825Y-11459722D01*
X16374825Y-11459722D02*
X16365301Y-11440674D01*
X16365301Y-11440674D02*
X16346253Y-11431150D01*
X16346253Y-11431150D02*
X16317682Y-11431150D01*
X16317682Y-11431150D02*
X16298634Y-11440674D01*
X16298634Y-11440674D02*
X16289110Y-11450198D01*
X16498634Y-11564484D02*
X16479587Y-11554960D01*
X16479587Y-11554960D02*
X16470063Y-11545436D01*
X16470063Y-11545436D02*
X16460539Y-11526388D01*
X16460539Y-11526388D02*
X16460539Y-11469246D01*
X16460539Y-11469246D02*
X16470063Y-11450198D01*
X16470063Y-11450198D02*
X16479587Y-11440674D01*
X16479587Y-11440674D02*
X16498634Y-11431150D01*
X16498634Y-11431150D02*
X16527206Y-11431150D01*
X16527206Y-11431150D02*
X16546253Y-11440674D01*
X16546253Y-11440674D02*
X16555777Y-11450198D01*
X16555777Y-11450198D02*
X16565301Y-11469246D01*
X16565301Y-11469246D02*
X16565301Y-11526388D01*
X16565301Y-11526388D02*
X16555777Y-11545436D01*
X16555777Y-11545436D02*
X16546253Y-11554960D01*
X16546253Y-11554960D02*
X16527206Y-11564484D01*
X16527206Y-11564484D02*
X16498634Y-11564484D01*
X16679587Y-11564484D02*
X16660539Y-11554960D01*
X16660539Y-11554960D02*
X16651015Y-11535912D01*
X16651015Y-11535912D02*
X16651015Y-11364484D01*
X16831968Y-11554960D02*
X16812920Y-11564484D01*
X16812920Y-11564484D02*
X16774825Y-11564484D01*
X16774825Y-11564484D02*
X16755777Y-11554960D01*
X16755777Y-11554960D02*
X16746253Y-11535912D01*
X16746253Y-11535912D02*
X16746253Y-11459722D01*
X16746253Y-11459722D02*
X16755777Y-11440674D01*
X16755777Y-11440674D02*
X16774825Y-11431150D01*
X16774825Y-11431150D02*
X16812920Y-11431150D01*
X16812920Y-11431150D02*
X16831968Y-11440674D01*
X16831968Y-11440674D02*
X16841492Y-11459722D01*
X16841492Y-11459722D02*
X16841492Y-11478769D01*
X16841492Y-11478769D02*
X16746253Y-11497817D01*
X16917682Y-11554960D02*
X16936730Y-11564484D01*
X16936730Y-11564484D02*
X16974825Y-11564484D01*
X16974825Y-11564484D02*
X16993873Y-11554960D01*
X16993873Y-11554960D02*
X17003396Y-11535912D01*
X17003396Y-11535912D02*
X17003396Y-11526388D01*
X17003396Y-11526388D02*
X16993873Y-11507341D01*
X16993873Y-11507341D02*
X16974825Y-11497817D01*
X16974825Y-11497817D02*
X16946253Y-11497817D01*
X16946253Y-11497817D02*
X16927206Y-11488293D01*
X16927206Y-11488293D02*
X16917682Y-11469246D01*
X16917682Y-11469246D02*
X16917682Y-11459722D01*
X16917682Y-11459722D02*
X16927206Y-11440674D01*
X16927206Y-11440674D02*
X16946253Y-11431150D01*
X16946253Y-11431150D02*
X16974825Y-11431150D01*
X16974825Y-11431150D02*
X16993873Y-11440674D01*
X17070063Y-11640674D02*
X17079587Y-11631150D01*
X17079587Y-11631150D02*
X17098634Y-11602579D01*
X17098634Y-11602579D02*
X17108158Y-11583531D01*
X17108158Y-11583531D02*
X17117682Y-11554960D01*
X17117682Y-11554960D02*
X17127206Y-11507341D01*
X17127206Y-11507341D02*
X17127206Y-11469246D01*
X17127206Y-11469246D02*
X17117682Y-11421627D01*
X17117682Y-11421627D02*
X17108158Y-11393055D01*
X17108158Y-11393055D02*
X17098634Y-11374008D01*
X17098634Y-11374008D02*
X17079587Y-11345436D01*
X17079587Y-11345436D02*
X17070063Y-11335912D01*
D10*
X12281820Y-11768820D02*
X12281820Y-11705180D01*
X12218180Y-11705180D01*
X12218180Y-11768820D01*
X12281820Y-11768820D01*
D11*
X12593872Y-11628484D02*
X12612920Y-11628484D01*
X12612920Y-11628484D02*
X12631967Y-11638008D01*
X12631967Y-11638008D02*
X12641491Y-11647531D01*
X12641491Y-11647531D02*
X12651015Y-11666579D01*
X12651015Y-11666579D02*
X12660539Y-11704674D01*
X12660539Y-11704674D02*
X12660539Y-11752293D01*
X12660539Y-11752293D02*
X12651015Y-11790388D01*
X12651015Y-11790388D02*
X12641491Y-11809436D01*
X12641491Y-11809436D02*
X12631967Y-11818960D01*
X12631967Y-11818960D02*
X12612920Y-11828484D01*
X12612920Y-11828484D02*
X12593872Y-11828484D01*
X12593872Y-11828484D02*
X12574824Y-11818960D01*
X12574824Y-11818960D02*
X12565301Y-11809436D01*
X12565301Y-11809436D02*
X12555777Y-11790388D01*
X12555777Y-11790388D02*
X12546253Y-11752293D01*
X12546253Y-11752293D02*
X12546253Y-11704674D01*
X12546253Y-11704674D02*
X12555777Y-11666579D01*
X12555777Y-11666579D02*
X12565301Y-11647531D01*
X12565301Y-11647531D02*
X12574824Y-11638008D01*
X12574824Y-11638008D02*
X12593872Y-11628484D01*
X12746253Y-11809436D02*
X12755777Y-11818960D01*
X12755777Y-11818960D02*
X12746253Y-11828484D01*
X12746253Y-11828484D02*
X12736729Y-11818960D01*
X12736729Y-11818960D02*
X12746253Y-11809436D01*
X12746253Y-11809436D02*
X12746253Y-11828484D01*
X12851015Y-11828484D02*
X12889110Y-11828484D01*
X12889110Y-11828484D02*
X12908158Y-11818960D01*
X12908158Y-11818960D02*
X12917682Y-11809436D01*
X12917682Y-11809436D02*
X12936729Y-11780865D01*
X12936729Y-11780865D02*
X12946253Y-11742769D01*
X12946253Y-11742769D02*
X12946253Y-11666579D01*
X12946253Y-11666579D02*
X12936729Y-11647531D01*
X12936729Y-11647531D02*
X12927205Y-11638008D01*
X12927205Y-11638008D02*
X12908158Y-11628484D01*
X12908158Y-11628484D02*
X12870062Y-11628484D01*
X12870062Y-11628484D02*
X12851015Y-11638008D01*
X12851015Y-11638008D02*
X12841491Y-11647531D01*
X12841491Y-11647531D02*
X12831967Y-11666579D01*
X12831967Y-11666579D02*
X12831967Y-11714198D01*
X12831967Y-11714198D02*
X12841491Y-11733246D01*
X12841491Y-11733246D02*
X12851015Y-11742769D01*
X12851015Y-11742769D02*
X12870062Y-11752293D01*
X12870062Y-11752293D02*
X12908158Y-11752293D01*
X12908158Y-11752293D02*
X12927205Y-11742769D01*
X12927205Y-11742769D02*
X12936729Y-11733246D01*
X12936729Y-11733246D02*
X12946253Y-11714198D01*
X13070062Y-11628484D02*
X13089110Y-11628484D01*
X13089110Y-11628484D02*
X13108158Y-11638008D01*
X13108158Y-11638008D02*
X13117682Y-11647531D01*
X13117682Y-11647531D02*
X13127205Y-11666579D01*
X13127205Y-11666579D02*
X13136729Y-11704674D01*
X13136729Y-11704674D02*
X13136729Y-11752293D01*
X13136729Y-11752293D02*
X13127205Y-11790388D01*
X13127205Y-11790388D02*
X13117682Y-11809436D01*
X13117682Y-11809436D02*
X13108158Y-11818960D01*
X13108158Y-11818960D02*
X13089110Y-11828484D01*
X13089110Y-11828484D02*
X13070062Y-11828484D01*
X13070062Y-11828484D02*
X13051015Y-11818960D01*
X13051015Y-11818960D02*
X13041491Y-11809436D01*
X13041491Y-11809436D02*
X13031967Y-11790388D01*
X13031967Y-11790388D02*
X13022443Y-11752293D01*
X13022443Y-11752293D02*
X13022443Y-11704674D01*
X13022443Y-11704674D02*
X13031967Y-11666579D01*
X13031967Y-11666579D02*
X13041491Y-11647531D01*
X13041491Y-11647531D02*
X13051015Y-11638008D01*
X13051015Y-11638008D02*
X13070062Y-11628484D01*
X13260539Y-11628484D02*
X13279586Y-11628484D01*
X13279586Y-11628484D02*
X13298634Y-11638008D01*
X13298634Y-11638008D02*
X13308158Y-11647531D01*
X13308158Y-11647531D02*
X13317682Y-11666579D01*
X13317682Y-11666579D02*
X13327205Y-11704674D01*
X13327205Y-11704674D02*
X13327205Y-11752293D01*
X13327205Y-11752293D02*
X13317682Y-11790388D01*
X13317682Y-11790388D02*
X13308158Y-11809436D01*
X13308158Y-11809436D02*
X13298634Y-11818960D01*
X13298634Y-11818960D02*
X13279586Y-11828484D01*
X13279586Y-11828484D02*
X13260539Y-11828484D01*
X13260539Y-11828484D02*
X13241491Y-11818960D01*
X13241491Y-11818960D02*
X13231967Y-11809436D01*
X13231967Y-11809436D02*
X13222443Y-11790388D01*
X13222443Y-11790388D02*
X13212920Y-11752293D01*
X13212920Y-11752293D02*
X13212920Y-11704674D01*
X13212920Y-11704674D02*
X13222443Y-11666579D01*
X13222443Y-11666579D02*
X13231967Y-11647531D01*
X13231967Y-11647531D02*
X13241491Y-11638008D01*
X13241491Y-11638008D02*
X13260539Y-11628484D01*
X13412920Y-11828484D02*
X13412920Y-11695150D01*
X13412920Y-11714198D02*
X13422443Y-11704674D01*
X13422443Y-11704674D02*
X13441491Y-11695150D01*
X13441491Y-11695150D02*
X13470063Y-11695150D01*
X13470063Y-11695150D02*
X13489110Y-11704674D01*
X13489110Y-11704674D02*
X13498634Y-11723722D01*
X13498634Y-11723722D02*
X13498634Y-11828484D01*
X13498634Y-11723722D02*
X13508158Y-11704674D01*
X13508158Y-11704674D02*
X13527205Y-11695150D01*
X13527205Y-11695150D02*
X13555777Y-11695150D01*
X13555777Y-11695150D02*
X13574824Y-11704674D01*
X13574824Y-11704674D02*
X13584348Y-11723722D01*
X13584348Y-11723722D02*
X13584348Y-11828484D01*
X13679586Y-11828484D02*
X13679586Y-11695150D01*
X13679586Y-11714198D02*
X13689110Y-11704674D01*
X13689110Y-11704674D02*
X13708158Y-11695150D01*
X13708158Y-11695150D02*
X13736729Y-11695150D01*
X13736729Y-11695150D02*
X13755777Y-11704674D01*
X13755777Y-11704674D02*
X13765301Y-11723722D01*
X13765301Y-11723722D02*
X13765301Y-11828484D01*
X13765301Y-11723722D02*
X13774824Y-11704674D01*
X13774824Y-11704674D02*
X13793872Y-11695150D01*
X13793872Y-11695150D02*
X13822443Y-11695150D01*
X13822443Y-11695150D02*
X13841491Y-11704674D01*
X13841491Y-11704674D02*
X13851015Y-11723722D01*
X13851015Y-11723722D02*
X13851015Y-11828484D01*
X14241491Y-11618960D02*
X14070063Y-11876103D01*
X14498634Y-11628484D02*
X14517682Y-11628484D01*
X14517682Y-11628484D02*
X14536729Y-11638008D01*
X14536729Y-11638008D02*
X14546253Y-11647531D01*
X14546253Y-11647531D02*
X14555777Y-11666579D01*
X14555777Y-11666579D02*
X14565301Y-11704674D01*
X14565301Y-11704674D02*
X14565301Y-11752293D01*
X14565301Y-11752293D02*
X14555777Y-11790388D01*
X14555777Y-11790388D02*
X14546253Y-11809436D01*
X14546253Y-11809436D02*
X14536729Y-11818960D01*
X14536729Y-11818960D02*
X14517682Y-11828484D01*
X14517682Y-11828484D02*
X14498634Y-11828484D01*
X14498634Y-11828484D02*
X14479586Y-11818960D01*
X14479586Y-11818960D02*
X14470063Y-11809436D01*
X14470063Y-11809436D02*
X14460539Y-11790388D01*
X14460539Y-11790388D02*
X14451015Y-11752293D01*
X14451015Y-11752293D02*
X14451015Y-11704674D01*
X14451015Y-11704674D02*
X14460539Y-11666579D01*
X14460539Y-11666579D02*
X14470063Y-11647531D01*
X14470063Y-11647531D02*
X14479586Y-11638008D01*
X14479586Y-11638008D02*
X14498634Y-11628484D01*
X14651015Y-11809436D02*
X14660539Y-11818960D01*
X14660539Y-11818960D02*
X14651015Y-11828484D01*
X14651015Y-11828484D02*
X14641491Y-11818960D01*
X14641491Y-11818960D02*
X14651015Y-11809436D01*
X14651015Y-11809436D02*
X14651015Y-11828484D01*
X14784348Y-11628484D02*
X14803396Y-11628484D01*
X14803396Y-11628484D02*
X14822444Y-11638008D01*
X14822444Y-11638008D02*
X14831967Y-11647531D01*
X14831967Y-11647531D02*
X14841491Y-11666579D01*
X14841491Y-11666579D02*
X14851015Y-11704674D01*
X14851015Y-11704674D02*
X14851015Y-11752293D01*
X14851015Y-11752293D02*
X14841491Y-11790388D01*
X14841491Y-11790388D02*
X14831967Y-11809436D01*
X14831967Y-11809436D02*
X14822444Y-11818960D01*
X14822444Y-11818960D02*
X14803396Y-11828484D01*
X14803396Y-11828484D02*
X14784348Y-11828484D01*
X14784348Y-11828484D02*
X14765301Y-11818960D01*
X14765301Y-11818960D02*
X14755777Y-11809436D01*
X14755777Y-11809436D02*
X14746253Y-11790388D01*
X14746253Y-11790388D02*
X14736729Y-11752293D01*
X14736729Y-11752293D02*
X14736729Y-11704674D01*
X14736729Y-11704674D02*
X14746253Y-11666579D01*
X14746253Y-11666579D02*
X14755777Y-11647531D01*
X14755777Y-11647531D02*
X14765301Y-11638008D01*
X14765301Y-11638008D02*
X14784348Y-11628484D01*
X14917682Y-11628484D02*
X15041491Y-11628484D01*
X15041491Y-11628484D02*
X14974825Y-11704674D01*
X14974825Y-11704674D02*
X15003396Y-11704674D01*
X15003396Y-11704674D02*
X15022444Y-11714198D01*
X15022444Y-11714198D02*
X15031967Y-11723722D01*
X15031967Y-11723722D02*
X15041491Y-11742769D01*
X15041491Y-11742769D02*
X15041491Y-11790388D01*
X15041491Y-11790388D02*
X15031967Y-11809436D01*
X15031967Y-11809436D02*
X15022444Y-11818960D01*
X15022444Y-11818960D02*
X15003396Y-11828484D01*
X15003396Y-11828484D02*
X14946253Y-11828484D01*
X14946253Y-11828484D02*
X14927206Y-11818960D01*
X14927206Y-11818960D02*
X14917682Y-11809436D01*
X15222444Y-11628484D02*
X15127206Y-11628484D01*
X15127206Y-11628484D02*
X15117682Y-11723722D01*
X15117682Y-11723722D02*
X15127206Y-11714198D01*
X15127206Y-11714198D02*
X15146253Y-11704674D01*
X15146253Y-11704674D02*
X15193872Y-11704674D01*
X15193872Y-11704674D02*
X15212920Y-11714198D01*
X15212920Y-11714198D02*
X15222444Y-11723722D01*
X15222444Y-11723722D02*
X15231967Y-11742769D01*
X15231967Y-11742769D02*
X15231967Y-11790388D01*
X15231967Y-11790388D02*
X15222444Y-11809436D01*
X15222444Y-11809436D02*
X15212920Y-11818960D01*
X15212920Y-11818960D02*
X15193872Y-11828484D01*
X15193872Y-11828484D02*
X15146253Y-11828484D01*
X15146253Y-11828484D02*
X15127206Y-11818960D01*
X15127206Y-11818960D02*
X15117682Y-11809436D01*
X15403396Y-11695150D02*
X15403396Y-11828484D01*
X15355777Y-11618960D02*
X15308158Y-11761817D01*
X15308158Y-11761817D02*
X15431967Y-11761817D01*
X15498634Y-11628484D02*
X15498634Y-11666579D01*
X15574825Y-11628484D02*
X15574825Y-11666579D01*
X15870063Y-11904674D02*
X15860539Y-11895150D01*
X15860539Y-11895150D02*
X15841491Y-11866579D01*
X15841491Y-11866579D02*
X15831968Y-11847531D01*
X15831968Y-11847531D02*
X15822444Y-11818960D01*
X15822444Y-11818960D02*
X15812920Y-11771341D01*
X15812920Y-11771341D02*
X15812920Y-11733246D01*
X15812920Y-11733246D02*
X15822444Y-11685627D01*
X15822444Y-11685627D02*
X15831968Y-11657055D01*
X15831968Y-11657055D02*
X15841491Y-11638008D01*
X15841491Y-11638008D02*
X15860539Y-11609436D01*
X15860539Y-11609436D02*
X15870063Y-11599912D01*
X15936729Y-11647531D02*
X15946253Y-11638008D01*
X15946253Y-11638008D02*
X15965301Y-11628484D01*
X15965301Y-11628484D02*
X16012920Y-11628484D01*
X16012920Y-11628484D02*
X16031968Y-11638008D01*
X16031968Y-11638008D02*
X16041491Y-11647531D01*
X16041491Y-11647531D02*
X16051015Y-11666579D01*
X16051015Y-11666579D02*
X16051015Y-11685627D01*
X16051015Y-11685627D02*
X16041491Y-11714198D01*
X16041491Y-11714198D02*
X15927206Y-11828484D01*
X15927206Y-11828484D02*
X16051015Y-11828484D01*
X16289110Y-11828484D02*
X16289110Y-11628484D01*
X16374825Y-11828484D02*
X16374825Y-11723722D01*
X16374825Y-11723722D02*
X16365301Y-11704674D01*
X16365301Y-11704674D02*
X16346253Y-11695150D01*
X16346253Y-11695150D02*
X16317682Y-11695150D01*
X16317682Y-11695150D02*
X16298634Y-11704674D01*
X16298634Y-11704674D02*
X16289110Y-11714198D01*
X16498634Y-11828484D02*
X16479587Y-11818960D01*
X16479587Y-11818960D02*
X16470063Y-11809436D01*
X16470063Y-11809436D02*
X16460539Y-11790388D01*
X16460539Y-11790388D02*
X16460539Y-11733246D01*
X16460539Y-11733246D02*
X16470063Y-11714198D01*
X16470063Y-11714198D02*
X16479587Y-11704674D01*
X16479587Y-11704674D02*
X16498634Y-11695150D01*
X16498634Y-11695150D02*
X16527206Y-11695150D01*
X16527206Y-11695150D02*
X16546253Y-11704674D01*
X16546253Y-11704674D02*
X16555777Y-11714198D01*
X16555777Y-11714198D02*
X16565301Y-11733246D01*
X16565301Y-11733246D02*
X16565301Y-11790388D01*
X16565301Y-11790388D02*
X16555777Y-11809436D01*
X16555777Y-11809436D02*
X16546253Y-11818960D01*
X16546253Y-11818960D02*
X16527206Y-11828484D01*
X16527206Y-11828484D02*
X16498634Y-11828484D01*
X16679587Y-11828484D02*
X16660539Y-11818960D01*
X16660539Y-11818960D02*
X16651015Y-11799912D01*
X16651015Y-11799912D02*
X16651015Y-11628484D01*
X16831968Y-11818960D02*
X16812920Y-11828484D01*
X16812920Y-11828484D02*
X16774825Y-11828484D01*
X16774825Y-11828484D02*
X16755777Y-11818960D01*
X16755777Y-11818960D02*
X16746253Y-11799912D01*
X16746253Y-11799912D02*
X16746253Y-11723722D01*
X16746253Y-11723722D02*
X16755777Y-11704674D01*
X16755777Y-11704674D02*
X16774825Y-11695150D01*
X16774825Y-11695150D02*
X16812920Y-11695150D01*
X16812920Y-11695150D02*
X16831968Y-11704674D01*
X16831968Y-11704674D02*
X16841492Y-11723722D01*
X16841492Y-11723722D02*
X16841492Y-11742769D01*
X16841492Y-11742769D02*
X16746253Y-11761817D01*
X16917682Y-11818960D02*
X16936730Y-11828484D01*
X16936730Y-11828484D02*
X16974825Y-11828484D01*
X16974825Y-11828484D02*
X16993873Y-11818960D01*
X16993873Y-11818960D02*
X17003396Y-11799912D01*
X17003396Y-11799912D02*
X17003396Y-11790388D01*
X17003396Y-11790388D02*
X16993873Y-11771341D01*
X16993873Y-11771341D02*
X16974825Y-11761817D01*
X16974825Y-11761817D02*
X16946253Y-11761817D01*
X16946253Y-11761817D02*
X16927206Y-11752293D01*
X16927206Y-11752293D02*
X16917682Y-11733246D01*
X16917682Y-11733246D02*
X16917682Y-11723722D01*
X16917682Y-11723722D02*
X16927206Y-11704674D01*
X16927206Y-11704674D02*
X16946253Y-11695150D01*
X16946253Y-11695150D02*
X16974825Y-11695150D01*
X16974825Y-11695150D02*
X16993873Y-11704674D01*
X17070063Y-11904674D02*
X17079587Y-11895150D01*
X17079587Y-11895150D02*
X17098634Y-11866579D01*
X17098634Y-11866579D02*
X17108158Y-11847531D01*
X17108158Y-11847531D02*
X17117682Y-11818960D01*
X17117682Y-11818960D02*
X17127206Y-11771341D01*
X17127206Y-11771341D02*
X17127206Y-11733246D01*
X17127206Y-11733246D02*
X17117682Y-11685627D01*
X17117682Y-11685627D02*
X17108158Y-11657055D01*
X17108158Y-11657055D02*
X17098634Y-11638008D01*
X17098634Y-11638008D02*
X17079587Y-11609436D01*
X17079587Y-11609436D02*
X17070063Y-11599912D01*
D10*
X12245000Y-12051000D02*
X12295000Y-12001000D01*
X12245000Y-11951000D01*
X12195000Y-12001000D01*
X12245000Y-12051000D01*
D11*
X12660539Y-12092484D02*
X12546253Y-12092484D01*
X12603396Y-12092484D02*
X12603396Y-11892484D01*
X12603396Y-11892484D02*
X12584348Y-11921055D01*
X12584348Y-11921055D02*
X12565301Y-11940103D01*
X12565301Y-11940103D02*
X12546253Y-11949627D01*
X12746253Y-12073436D02*
X12755777Y-12082960D01*
X12755777Y-12082960D02*
X12746253Y-12092484D01*
X12746253Y-12092484D02*
X12736729Y-12082960D01*
X12736729Y-12082960D02*
X12746253Y-12073436D01*
X12746253Y-12073436D02*
X12746253Y-12092484D01*
X12879586Y-11892484D02*
X12898634Y-11892484D01*
X12898634Y-11892484D02*
X12917682Y-11902008D01*
X12917682Y-11902008D02*
X12927205Y-11911531D01*
X12927205Y-11911531D02*
X12936729Y-11930579D01*
X12936729Y-11930579D02*
X12946253Y-11968674D01*
X12946253Y-11968674D02*
X12946253Y-12016293D01*
X12946253Y-12016293D02*
X12936729Y-12054388D01*
X12936729Y-12054388D02*
X12927205Y-12073436D01*
X12927205Y-12073436D02*
X12917682Y-12082960D01*
X12917682Y-12082960D02*
X12898634Y-12092484D01*
X12898634Y-12092484D02*
X12879586Y-12092484D01*
X12879586Y-12092484D02*
X12860539Y-12082960D01*
X12860539Y-12082960D02*
X12851015Y-12073436D01*
X12851015Y-12073436D02*
X12841491Y-12054388D01*
X12841491Y-12054388D02*
X12831967Y-12016293D01*
X12831967Y-12016293D02*
X12831967Y-11968674D01*
X12831967Y-11968674D02*
X12841491Y-11930579D01*
X12841491Y-11930579D02*
X12851015Y-11911531D01*
X12851015Y-11911531D02*
X12860539Y-11902008D01*
X12860539Y-11902008D02*
X12879586Y-11892484D01*
X13070062Y-11892484D02*
X13089110Y-11892484D01*
X13089110Y-11892484D02*
X13108158Y-11902008D01*
X13108158Y-11902008D02*
X13117682Y-11911531D01*
X13117682Y-11911531D02*
X13127205Y-11930579D01*
X13127205Y-11930579D02*
X13136729Y-11968674D01*
X13136729Y-11968674D02*
X13136729Y-12016293D01*
X13136729Y-12016293D02*
X13127205Y-12054388D01*
X13127205Y-12054388D02*
X13117682Y-12073436D01*
X13117682Y-12073436D02*
X13108158Y-12082960D01*
X13108158Y-12082960D02*
X13089110Y-12092484D01*
X13089110Y-12092484D02*
X13070062Y-12092484D01*
X13070062Y-12092484D02*
X13051015Y-12082960D01*
X13051015Y-12082960D02*
X13041491Y-12073436D01*
X13041491Y-12073436D02*
X13031967Y-12054388D01*
X13031967Y-12054388D02*
X13022443Y-12016293D01*
X13022443Y-12016293D02*
X13022443Y-11968674D01*
X13022443Y-11968674D02*
X13031967Y-11930579D01*
X13031967Y-11930579D02*
X13041491Y-11911531D01*
X13041491Y-11911531D02*
X13051015Y-11902008D01*
X13051015Y-11902008D02*
X13070062Y-11892484D01*
X13260539Y-11892484D02*
X13279586Y-11892484D01*
X13279586Y-11892484D02*
X13298634Y-11902008D01*
X13298634Y-11902008D02*
X13308158Y-11911531D01*
X13308158Y-11911531D02*
X13317682Y-11930579D01*
X13317682Y-11930579D02*
X13327205Y-11968674D01*
X13327205Y-11968674D02*
X13327205Y-12016293D01*
X13327205Y-12016293D02*
X13317682Y-12054388D01*
X13317682Y-12054388D02*
X13308158Y-12073436D01*
X13308158Y-12073436D02*
X13298634Y-12082960D01*
X13298634Y-12082960D02*
X13279586Y-12092484D01*
X13279586Y-12092484D02*
X13260539Y-12092484D01*
X13260539Y-12092484D02*
X13241491Y-12082960D01*
X13241491Y-12082960D02*
X13231967Y-12073436D01*
X13231967Y-12073436D02*
X13222443Y-12054388D01*
X13222443Y-12054388D02*
X13212920Y-12016293D01*
X13212920Y-12016293D02*
X13212920Y-11968674D01*
X13212920Y-11968674D02*
X13222443Y-11930579D01*
X13222443Y-11930579D02*
X13231967Y-11911531D01*
X13231967Y-11911531D02*
X13241491Y-11902008D01*
X13241491Y-11902008D02*
X13260539Y-11892484D01*
X13412920Y-12092484D02*
X13412920Y-11959150D01*
X13412920Y-11978198D02*
X13422443Y-11968674D01*
X13422443Y-11968674D02*
X13441491Y-11959150D01*
X13441491Y-11959150D02*
X13470063Y-11959150D01*
X13470063Y-11959150D02*
X13489110Y-11968674D01*
X13489110Y-11968674D02*
X13498634Y-11987722D01*
X13498634Y-11987722D02*
X13498634Y-12092484D01*
X13498634Y-11987722D02*
X13508158Y-11968674D01*
X13508158Y-11968674D02*
X13527205Y-11959150D01*
X13527205Y-11959150D02*
X13555777Y-11959150D01*
X13555777Y-11959150D02*
X13574824Y-11968674D01*
X13574824Y-11968674D02*
X13584348Y-11987722D01*
X13584348Y-11987722D02*
X13584348Y-12092484D01*
X13679586Y-12092484D02*
X13679586Y-11959150D01*
X13679586Y-11978198D02*
X13689110Y-11968674D01*
X13689110Y-11968674D02*
X13708158Y-11959150D01*
X13708158Y-11959150D02*
X13736729Y-11959150D01*
X13736729Y-11959150D02*
X13755777Y-11968674D01*
X13755777Y-11968674D02*
X13765301Y-11987722D01*
X13765301Y-11987722D02*
X13765301Y-12092484D01*
X13765301Y-11987722D02*
X13774824Y-11968674D01*
X13774824Y-11968674D02*
X13793872Y-11959150D01*
X13793872Y-11959150D02*
X13822443Y-11959150D01*
X13822443Y-11959150D02*
X13841491Y-11968674D01*
X13841491Y-11968674D02*
X13851015Y-11987722D01*
X13851015Y-11987722D02*
X13851015Y-12092484D01*
X14241491Y-11882960D02*
X14070063Y-12140103D01*
X14498634Y-11892484D02*
X14517682Y-11892484D01*
X14517682Y-11892484D02*
X14536729Y-11902008D01*
X14536729Y-11902008D02*
X14546253Y-11911531D01*
X14546253Y-11911531D02*
X14555777Y-11930579D01*
X14555777Y-11930579D02*
X14565301Y-11968674D01*
X14565301Y-11968674D02*
X14565301Y-12016293D01*
X14565301Y-12016293D02*
X14555777Y-12054388D01*
X14555777Y-12054388D02*
X14546253Y-12073436D01*
X14546253Y-12073436D02*
X14536729Y-12082960D01*
X14536729Y-12082960D02*
X14517682Y-12092484D01*
X14517682Y-12092484D02*
X14498634Y-12092484D01*
X14498634Y-12092484D02*
X14479586Y-12082960D01*
X14479586Y-12082960D02*
X14470063Y-12073436D01*
X14470063Y-12073436D02*
X14460539Y-12054388D01*
X14460539Y-12054388D02*
X14451015Y-12016293D01*
X14451015Y-12016293D02*
X14451015Y-11968674D01*
X14451015Y-11968674D02*
X14460539Y-11930579D01*
X14460539Y-11930579D02*
X14470063Y-11911531D01*
X14470063Y-11911531D02*
X14479586Y-11902008D01*
X14479586Y-11902008D02*
X14498634Y-11892484D01*
X14651015Y-12073436D02*
X14660539Y-12082960D01*
X14660539Y-12082960D02*
X14651015Y-12092484D01*
X14651015Y-12092484D02*
X14641491Y-12082960D01*
X14641491Y-12082960D02*
X14651015Y-12073436D01*
X14651015Y-12073436D02*
X14651015Y-12092484D01*
X14784348Y-11892484D02*
X14803396Y-11892484D01*
X14803396Y-11892484D02*
X14822444Y-11902008D01*
X14822444Y-11902008D02*
X14831967Y-11911531D01*
X14831967Y-11911531D02*
X14841491Y-11930579D01*
X14841491Y-11930579D02*
X14851015Y-11968674D01*
X14851015Y-11968674D02*
X14851015Y-12016293D01*
X14851015Y-12016293D02*
X14841491Y-12054388D01*
X14841491Y-12054388D02*
X14831967Y-12073436D01*
X14831967Y-12073436D02*
X14822444Y-12082960D01*
X14822444Y-12082960D02*
X14803396Y-12092484D01*
X14803396Y-12092484D02*
X14784348Y-12092484D01*
X14784348Y-12092484D02*
X14765301Y-12082960D01*
X14765301Y-12082960D02*
X14755777Y-12073436D01*
X14755777Y-12073436D02*
X14746253Y-12054388D01*
X14746253Y-12054388D02*
X14736729Y-12016293D01*
X14736729Y-12016293D02*
X14736729Y-11968674D01*
X14736729Y-11968674D02*
X14746253Y-11930579D01*
X14746253Y-11930579D02*
X14755777Y-11911531D01*
X14755777Y-11911531D02*
X14765301Y-11902008D01*
X14765301Y-11902008D02*
X14784348Y-11892484D01*
X14917682Y-11892484D02*
X15041491Y-11892484D01*
X15041491Y-11892484D02*
X14974825Y-11968674D01*
X14974825Y-11968674D02*
X15003396Y-11968674D01*
X15003396Y-11968674D02*
X15022444Y-11978198D01*
X15022444Y-11978198D02*
X15031967Y-11987722D01*
X15031967Y-11987722D02*
X15041491Y-12006769D01*
X15041491Y-12006769D02*
X15041491Y-12054388D01*
X15041491Y-12054388D02*
X15031967Y-12073436D01*
X15031967Y-12073436D02*
X15022444Y-12082960D01*
X15022444Y-12082960D02*
X15003396Y-12092484D01*
X15003396Y-12092484D02*
X14946253Y-12092484D01*
X14946253Y-12092484D02*
X14927206Y-12082960D01*
X14927206Y-12082960D02*
X14917682Y-12073436D01*
X15136729Y-12092484D02*
X15174825Y-12092484D01*
X15174825Y-12092484D02*
X15193872Y-12082960D01*
X15193872Y-12082960D02*
X15203396Y-12073436D01*
X15203396Y-12073436D02*
X15222444Y-12044865D01*
X15222444Y-12044865D02*
X15231967Y-12006769D01*
X15231967Y-12006769D02*
X15231967Y-11930579D01*
X15231967Y-11930579D02*
X15222444Y-11911531D01*
X15222444Y-11911531D02*
X15212920Y-11902008D01*
X15212920Y-11902008D02*
X15193872Y-11892484D01*
X15193872Y-11892484D02*
X15155777Y-11892484D01*
X15155777Y-11892484D02*
X15136729Y-11902008D01*
X15136729Y-11902008D02*
X15127206Y-11911531D01*
X15127206Y-11911531D02*
X15117682Y-11930579D01*
X15117682Y-11930579D02*
X15117682Y-11978198D01*
X15117682Y-11978198D02*
X15127206Y-11997246D01*
X15127206Y-11997246D02*
X15136729Y-12006769D01*
X15136729Y-12006769D02*
X15155777Y-12016293D01*
X15155777Y-12016293D02*
X15193872Y-12016293D01*
X15193872Y-12016293D02*
X15212920Y-12006769D01*
X15212920Y-12006769D02*
X15222444Y-11997246D01*
X15222444Y-11997246D02*
X15231967Y-11978198D01*
X15403396Y-11959150D02*
X15403396Y-12092484D01*
X15355777Y-11882960D02*
X15308158Y-12025817D01*
X15308158Y-12025817D02*
X15431967Y-12025817D01*
X15498634Y-11892484D02*
X15498634Y-11930579D01*
X15574825Y-11892484D02*
X15574825Y-11930579D01*
X15870063Y-12168674D02*
X15860539Y-12159150D01*
X15860539Y-12159150D02*
X15841491Y-12130579D01*
X15841491Y-12130579D02*
X15831968Y-12111531D01*
X15831968Y-12111531D02*
X15822444Y-12082960D01*
X15822444Y-12082960D02*
X15812920Y-12035341D01*
X15812920Y-12035341D02*
X15812920Y-11997246D01*
X15812920Y-11997246D02*
X15822444Y-11949627D01*
X15822444Y-11949627D02*
X15831968Y-11921055D01*
X15831968Y-11921055D02*
X15841491Y-11902008D01*
X15841491Y-11902008D02*
X15860539Y-11873436D01*
X15860539Y-11873436D02*
X15870063Y-11863912D01*
X16051015Y-12092484D02*
X15936729Y-12092484D01*
X15993872Y-12092484D02*
X15993872Y-11892484D01*
X15993872Y-11892484D02*
X15974825Y-11921055D01*
X15974825Y-11921055D02*
X15955777Y-11940103D01*
X15955777Y-11940103D02*
X15936729Y-11949627D01*
X16241491Y-12092484D02*
X16127206Y-12092484D01*
X16184348Y-12092484D02*
X16184348Y-11892484D01*
X16184348Y-11892484D02*
X16165301Y-11921055D01*
X16165301Y-11921055D02*
X16146253Y-11940103D01*
X16146253Y-11940103D02*
X16127206Y-11949627D01*
X16479587Y-12092484D02*
X16479587Y-11892484D01*
X16565301Y-12092484D02*
X16565301Y-11987722D01*
X16565301Y-11987722D02*
X16555777Y-11968674D01*
X16555777Y-11968674D02*
X16536730Y-11959150D01*
X16536730Y-11959150D02*
X16508158Y-11959150D01*
X16508158Y-11959150D02*
X16489110Y-11968674D01*
X16489110Y-11968674D02*
X16479587Y-11978198D01*
X16689110Y-12092484D02*
X16670063Y-12082960D01*
X16670063Y-12082960D02*
X16660539Y-12073436D01*
X16660539Y-12073436D02*
X16651015Y-12054388D01*
X16651015Y-12054388D02*
X16651015Y-11997246D01*
X16651015Y-11997246D02*
X16660539Y-11978198D01*
X16660539Y-11978198D02*
X16670063Y-11968674D01*
X16670063Y-11968674D02*
X16689110Y-11959150D01*
X16689110Y-11959150D02*
X16717682Y-11959150D01*
X16717682Y-11959150D02*
X16736730Y-11968674D01*
X16736730Y-11968674D02*
X16746253Y-11978198D01*
X16746253Y-11978198D02*
X16755777Y-11997246D01*
X16755777Y-11997246D02*
X16755777Y-12054388D01*
X16755777Y-12054388D02*
X16746253Y-12073436D01*
X16746253Y-12073436D02*
X16736730Y-12082960D01*
X16736730Y-12082960D02*
X16717682Y-12092484D01*
X16717682Y-12092484D02*
X16689110Y-12092484D01*
X16870063Y-12092484D02*
X16851015Y-12082960D01*
X16851015Y-12082960D02*
X16841492Y-12063912D01*
X16841492Y-12063912D02*
X16841492Y-11892484D01*
X17022444Y-12082960D02*
X17003396Y-12092484D01*
X17003396Y-12092484D02*
X16965301Y-12092484D01*
X16965301Y-12092484D02*
X16946253Y-12082960D01*
X16946253Y-12082960D02*
X16936730Y-12063912D01*
X16936730Y-12063912D02*
X16936730Y-11987722D01*
X16936730Y-11987722D02*
X16946253Y-11968674D01*
X16946253Y-11968674D02*
X16965301Y-11959150D01*
X16965301Y-11959150D02*
X17003396Y-11959150D01*
X17003396Y-11959150D02*
X17022444Y-11968674D01*
X17022444Y-11968674D02*
X17031968Y-11987722D01*
X17031968Y-11987722D02*
X17031968Y-12006769D01*
X17031968Y-12006769D02*
X16936730Y-12025817D01*
X17108158Y-12082960D02*
X17127206Y-12092484D01*
X17127206Y-12092484D02*
X17165301Y-12092484D01*
X17165301Y-12092484D02*
X17184349Y-12082960D01*
X17184349Y-12082960D02*
X17193873Y-12063912D01*
X17193873Y-12063912D02*
X17193873Y-12054388D01*
X17193873Y-12054388D02*
X17184349Y-12035341D01*
X17184349Y-12035341D02*
X17165301Y-12025817D01*
X17165301Y-12025817D02*
X17136730Y-12025817D01*
X17136730Y-12025817D02*
X17117682Y-12016293D01*
X17117682Y-12016293D02*
X17108158Y-11997246D01*
X17108158Y-11997246D02*
X17108158Y-11987722D01*
X17108158Y-11987722D02*
X17117682Y-11968674D01*
X17117682Y-11968674D02*
X17136730Y-11959150D01*
X17136730Y-11959150D02*
X17165301Y-11959150D01*
X17165301Y-11959150D02*
X17184349Y-11968674D01*
X17260539Y-12168674D02*
X17270063Y-12159150D01*
X17270063Y-12159150D02*
X17289111Y-12130579D01*
X17289111Y-12130579D02*
X17298634Y-12111531D01*
X17298634Y-12111531D02*
X17308158Y-12082960D01*
X17308158Y-12082960D02*
X17317682Y-12035341D01*
X17317682Y-12035341D02*
X17317682Y-11997246D01*
X17317682Y-11997246D02*
X17308158Y-11949627D01*
X17308158Y-11949627D02*
X17298634Y-11921055D01*
X17298634Y-11921055D02*
X17289111Y-11902008D01*
X17289111Y-11902008D02*
X17270063Y-11873436D01*
X17270063Y-11873436D02*
X17260539Y-11863912D01*
D12*
X12185000Y-12210000D02*
X12295000Y-12320000D01*
X12295000Y-12210000D02*
X12185000Y-12320000D01*
X12295000Y-12265000D02*
G75*
G03*
X12295000Y-12265000I-55000J0D01*
G01*
D11*
X12660539Y-12356484D02*
X12546253Y-12356484D01*
X12603396Y-12356484D02*
X12603396Y-12156484D01*
X12603396Y-12156484D02*
X12584348Y-12185055D01*
X12584348Y-12185055D02*
X12565301Y-12204103D01*
X12565301Y-12204103D02*
X12546253Y-12213627D01*
X12746253Y-12337436D02*
X12755777Y-12346960D01*
X12755777Y-12346960D02*
X12746253Y-12356484D01*
X12746253Y-12356484D02*
X12736729Y-12346960D01*
X12736729Y-12346960D02*
X12746253Y-12337436D01*
X12746253Y-12337436D02*
X12746253Y-12356484D01*
X12946253Y-12356484D02*
X12831967Y-12356484D01*
X12889110Y-12356484D02*
X12889110Y-12156484D01*
X12889110Y-12156484D02*
X12870062Y-12185055D01*
X12870062Y-12185055D02*
X12851015Y-12204103D01*
X12851015Y-12204103D02*
X12831967Y-12213627D01*
X13070062Y-12156484D02*
X13089110Y-12156484D01*
X13089110Y-12156484D02*
X13108158Y-12166008D01*
X13108158Y-12166008D02*
X13117682Y-12175531D01*
X13117682Y-12175531D02*
X13127205Y-12194579D01*
X13127205Y-12194579D02*
X13136729Y-12232674D01*
X13136729Y-12232674D02*
X13136729Y-12280293D01*
X13136729Y-12280293D02*
X13127205Y-12318388D01*
X13127205Y-12318388D02*
X13117682Y-12337436D01*
X13117682Y-12337436D02*
X13108158Y-12346960D01*
X13108158Y-12346960D02*
X13089110Y-12356484D01*
X13089110Y-12356484D02*
X13070062Y-12356484D01*
X13070062Y-12356484D02*
X13051015Y-12346960D01*
X13051015Y-12346960D02*
X13041491Y-12337436D01*
X13041491Y-12337436D02*
X13031967Y-12318388D01*
X13031967Y-12318388D02*
X13022443Y-12280293D01*
X13022443Y-12280293D02*
X13022443Y-12232674D01*
X13022443Y-12232674D02*
X13031967Y-12194579D01*
X13031967Y-12194579D02*
X13041491Y-12175531D01*
X13041491Y-12175531D02*
X13051015Y-12166008D01*
X13051015Y-12166008D02*
X13070062Y-12156484D01*
X13260539Y-12156484D02*
X13279586Y-12156484D01*
X13279586Y-12156484D02*
X13298634Y-12166008D01*
X13298634Y-12166008D02*
X13308158Y-12175531D01*
X13308158Y-12175531D02*
X13317682Y-12194579D01*
X13317682Y-12194579D02*
X13327205Y-12232674D01*
X13327205Y-12232674D02*
X13327205Y-12280293D01*
X13327205Y-12280293D02*
X13317682Y-12318388D01*
X13317682Y-12318388D02*
X13308158Y-12337436D01*
X13308158Y-12337436D02*
X13298634Y-12346960D01*
X13298634Y-12346960D02*
X13279586Y-12356484D01*
X13279586Y-12356484D02*
X13260539Y-12356484D01*
X13260539Y-12356484D02*
X13241491Y-12346960D01*
X13241491Y-12346960D02*
X13231967Y-12337436D01*
X13231967Y-12337436D02*
X13222443Y-12318388D01*
X13222443Y-12318388D02*
X13212920Y-12280293D01*
X13212920Y-12280293D02*
X13212920Y-12232674D01*
X13212920Y-12232674D02*
X13222443Y-12194579D01*
X13222443Y-12194579D02*
X13231967Y-12175531D01*
X13231967Y-12175531D02*
X13241491Y-12166008D01*
X13241491Y-12166008D02*
X13260539Y-12156484D01*
X13412920Y-12356484D02*
X13412920Y-12223150D01*
X13412920Y-12242198D02*
X13422443Y-12232674D01*
X13422443Y-12232674D02*
X13441491Y-12223150D01*
X13441491Y-12223150D02*
X13470063Y-12223150D01*
X13470063Y-12223150D02*
X13489110Y-12232674D01*
X13489110Y-12232674D02*
X13498634Y-12251722D01*
X13498634Y-12251722D02*
X13498634Y-12356484D01*
X13498634Y-12251722D02*
X13508158Y-12232674D01*
X13508158Y-12232674D02*
X13527205Y-12223150D01*
X13527205Y-12223150D02*
X13555777Y-12223150D01*
X13555777Y-12223150D02*
X13574824Y-12232674D01*
X13574824Y-12232674D02*
X13584348Y-12251722D01*
X13584348Y-12251722D02*
X13584348Y-12356484D01*
X13679586Y-12356484D02*
X13679586Y-12223150D01*
X13679586Y-12242198D02*
X13689110Y-12232674D01*
X13689110Y-12232674D02*
X13708158Y-12223150D01*
X13708158Y-12223150D02*
X13736729Y-12223150D01*
X13736729Y-12223150D02*
X13755777Y-12232674D01*
X13755777Y-12232674D02*
X13765301Y-12251722D01*
X13765301Y-12251722D02*
X13765301Y-12356484D01*
X13765301Y-12251722D02*
X13774824Y-12232674D01*
X13774824Y-12232674D02*
X13793872Y-12223150D01*
X13793872Y-12223150D02*
X13822443Y-12223150D01*
X13822443Y-12223150D02*
X13841491Y-12232674D01*
X13841491Y-12232674D02*
X13851015Y-12251722D01*
X13851015Y-12251722D02*
X13851015Y-12356484D01*
X14241491Y-12146960D02*
X14070063Y-12404103D01*
X14498634Y-12156484D02*
X14517682Y-12156484D01*
X14517682Y-12156484D02*
X14536729Y-12166008D01*
X14536729Y-12166008D02*
X14546253Y-12175531D01*
X14546253Y-12175531D02*
X14555777Y-12194579D01*
X14555777Y-12194579D02*
X14565301Y-12232674D01*
X14565301Y-12232674D02*
X14565301Y-12280293D01*
X14565301Y-12280293D02*
X14555777Y-12318388D01*
X14555777Y-12318388D02*
X14546253Y-12337436D01*
X14546253Y-12337436D02*
X14536729Y-12346960D01*
X14536729Y-12346960D02*
X14517682Y-12356484D01*
X14517682Y-12356484D02*
X14498634Y-12356484D01*
X14498634Y-12356484D02*
X14479586Y-12346960D01*
X14479586Y-12346960D02*
X14470063Y-12337436D01*
X14470063Y-12337436D02*
X14460539Y-12318388D01*
X14460539Y-12318388D02*
X14451015Y-12280293D01*
X14451015Y-12280293D02*
X14451015Y-12232674D01*
X14451015Y-12232674D02*
X14460539Y-12194579D01*
X14460539Y-12194579D02*
X14470063Y-12175531D01*
X14470063Y-12175531D02*
X14479586Y-12166008D01*
X14479586Y-12166008D02*
X14498634Y-12156484D01*
X14651015Y-12337436D02*
X14660539Y-12346960D01*
X14660539Y-12346960D02*
X14651015Y-12356484D01*
X14651015Y-12356484D02*
X14641491Y-12346960D01*
X14641491Y-12346960D02*
X14651015Y-12337436D01*
X14651015Y-12337436D02*
X14651015Y-12356484D01*
X14784348Y-12156484D02*
X14803396Y-12156484D01*
X14803396Y-12156484D02*
X14822444Y-12166008D01*
X14822444Y-12166008D02*
X14831967Y-12175531D01*
X14831967Y-12175531D02*
X14841491Y-12194579D01*
X14841491Y-12194579D02*
X14851015Y-12232674D01*
X14851015Y-12232674D02*
X14851015Y-12280293D01*
X14851015Y-12280293D02*
X14841491Y-12318388D01*
X14841491Y-12318388D02*
X14831967Y-12337436D01*
X14831967Y-12337436D02*
X14822444Y-12346960D01*
X14822444Y-12346960D02*
X14803396Y-12356484D01*
X14803396Y-12356484D02*
X14784348Y-12356484D01*
X14784348Y-12356484D02*
X14765301Y-12346960D01*
X14765301Y-12346960D02*
X14755777Y-12337436D01*
X14755777Y-12337436D02*
X14746253Y-12318388D01*
X14746253Y-12318388D02*
X14736729Y-12280293D01*
X14736729Y-12280293D02*
X14736729Y-12232674D01*
X14736729Y-12232674D02*
X14746253Y-12194579D01*
X14746253Y-12194579D02*
X14755777Y-12175531D01*
X14755777Y-12175531D02*
X14765301Y-12166008D01*
X14765301Y-12166008D02*
X14784348Y-12156484D01*
X15022444Y-12223150D02*
X15022444Y-12356484D01*
X14974825Y-12146960D02*
X14927206Y-12289817D01*
X14927206Y-12289817D02*
X15051015Y-12289817D01*
X15108158Y-12156484D02*
X15231967Y-12156484D01*
X15231967Y-12156484D02*
X15165301Y-12232674D01*
X15165301Y-12232674D02*
X15193872Y-12232674D01*
X15193872Y-12232674D02*
X15212920Y-12242198D01*
X15212920Y-12242198D02*
X15222444Y-12251722D01*
X15222444Y-12251722D02*
X15231967Y-12270769D01*
X15231967Y-12270769D02*
X15231967Y-12318388D01*
X15231967Y-12318388D02*
X15222444Y-12337436D01*
X15222444Y-12337436D02*
X15212920Y-12346960D01*
X15212920Y-12346960D02*
X15193872Y-12356484D01*
X15193872Y-12356484D02*
X15136729Y-12356484D01*
X15136729Y-12356484D02*
X15117682Y-12346960D01*
X15117682Y-12346960D02*
X15108158Y-12337436D01*
X15298634Y-12156484D02*
X15422444Y-12156484D01*
X15422444Y-12156484D02*
X15355777Y-12232674D01*
X15355777Y-12232674D02*
X15384348Y-12232674D01*
X15384348Y-12232674D02*
X15403396Y-12242198D01*
X15403396Y-12242198D02*
X15412920Y-12251722D01*
X15412920Y-12251722D02*
X15422444Y-12270769D01*
X15422444Y-12270769D02*
X15422444Y-12318388D01*
X15422444Y-12318388D02*
X15412920Y-12337436D01*
X15412920Y-12337436D02*
X15403396Y-12346960D01*
X15403396Y-12346960D02*
X15384348Y-12356484D01*
X15384348Y-12356484D02*
X15327206Y-12356484D01*
X15327206Y-12356484D02*
X15308158Y-12346960D01*
X15308158Y-12346960D02*
X15298634Y-12337436D01*
X15498634Y-12156484D02*
X15498634Y-12194579D01*
X15574825Y-12156484D02*
X15574825Y-12194579D01*
X15870063Y-12432674D02*
X15860539Y-12423150D01*
X15860539Y-12423150D02*
X15841491Y-12394579D01*
X15841491Y-12394579D02*
X15831968Y-12375531D01*
X15831968Y-12375531D02*
X15822444Y-12346960D01*
X15822444Y-12346960D02*
X15812920Y-12299341D01*
X15812920Y-12299341D02*
X15812920Y-12261246D01*
X15812920Y-12261246D02*
X15822444Y-12213627D01*
X15822444Y-12213627D02*
X15831968Y-12185055D01*
X15831968Y-12185055D02*
X15841491Y-12166008D01*
X15841491Y-12166008D02*
X15860539Y-12137436D01*
X15860539Y-12137436D02*
X15870063Y-12127912D01*
X15927206Y-12156484D02*
X16051015Y-12156484D01*
X16051015Y-12156484D02*
X15984348Y-12232674D01*
X15984348Y-12232674D02*
X16012920Y-12232674D01*
X16012920Y-12232674D02*
X16031968Y-12242198D01*
X16031968Y-12242198D02*
X16041491Y-12251722D01*
X16041491Y-12251722D02*
X16051015Y-12270769D01*
X16051015Y-12270769D02*
X16051015Y-12318388D01*
X16051015Y-12318388D02*
X16041491Y-12337436D01*
X16041491Y-12337436D02*
X16031968Y-12346960D01*
X16031968Y-12346960D02*
X16012920Y-12356484D01*
X16012920Y-12356484D02*
X15955777Y-12356484D01*
X15955777Y-12356484D02*
X15936729Y-12346960D01*
X15936729Y-12346960D02*
X15927206Y-12337436D01*
X16289110Y-12356484D02*
X16289110Y-12156484D01*
X16374825Y-12356484D02*
X16374825Y-12251722D01*
X16374825Y-12251722D02*
X16365301Y-12232674D01*
X16365301Y-12232674D02*
X16346253Y-12223150D01*
X16346253Y-12223150D02*
X16317682Y-12223150D01*
X16317682Y-12223150D02*
X16298634Y-12232674D01*
X16298634Y-12232674D02*
X16289110Y-12242198D01*
X16498634Y-12356484D02*
X16479587Y-12346960D01*
X16479587Y-12346960D02*
X16470063Y-12337436D01*
X16470063Y-12337436D02*
X16460539Y-12318388D01*
X16460539Y-12318388D02*
X16460539Y-12261246D01*
X16460539Y-12261246D02*
X16470063Y-12242198D01*
X16470063Y-12242198D02*
X16479587Y-12232674D01*
X16479587Y-12232674D02*
X16498634Y-12223150D01*
X16498634Y-12223150D02*
X16527206Y-12223150D01*
X16527206Y-12223150D02*
X16546253Y-12232674D01*
X16546253Y-12232674D02*
X16555777Y-12242198D01*
X16555777Y-12242198D02*
X16565301Y-12261246D01*
X16565301Y-12261246D02*
X16565301Y-12318388D01*
X16565301Y-12318388D02*
X16555777Y-12337436D01*
X16555777Y-12337436D02*
X16546253Y-12346960D01*
X16546253Y-12346960D02*
X16527206Y-12356484D01*
X16527206Y-12356484D02*
X16498634Y-12356484D01*
X16679587Y-12356484D02*
X16660539Y-12346960D01*
X16660539Y-12346960D02*
X16651015Y-12327912D01*
X16651015Y-12327912D02*
X16651015Y-12156484D01*
X16831968Y-12346960D02*
X16812920Y-12356484D01*
X16812920Y-12356484D02*
X16774825Y-12356484D01*
X16774825Y-12356484D02*
X16755777Y-12346960D01*
X16755777Y-12346960D02*
X16746253Y-12327912D01*
X16746253Y-12327912D02*
X16746253Y-12251722D01*
X16746253Y-12251722D02*
X16755777Y-12232674D01*
X16755777Y-12232674D02*
X16774825Y-12223150D01*
X16774825Y-12223150D02*
X16812920Y-12223150D01*
X16812920Y-12223150D02*
X16831968Y-12232674D01*
X16831968Y-12232674D02*
X16841492Y-12251722D01*
X16841492Y-12251722D02*
X16841492Y-12270769D01*
X16841492Y-12270769D02*
X16746253Y-12289817D01*
X16917682Y-12346960D02*
X16936730Y-12356484D01*
X16936730Y-12356484D02*
X16974825Y-12356484D01*
X16974825Y-12356484D02*
X16993873Y-12346960D01*
X16993873Y-12346960D02*
X17003396Y-12327912D01*
X17003396Y-12327912D02*
X17003396Y-12318388D01*
X17003396Y-12318388D02*
X16993873Y-12299341D01*
X16993873Y-12299341D02*
X16974825Y-12289817D01*
X16974825Y-12289817D02*
X16946253Y-12289817D01*
X16946253Y-12289817D02*
X16927206Y-12280293D01*
X16927206Y-12280293D02*
X16917682Y-12261246D01*
X16917682Y-12261246D02*
X16917682Y-12251722D01*
X16917682Y-12251722D02*
X16927206Y-12232674D01*
X16927206Y-12232674D02*
X16946253Y-12223150D01*
X16946253Y-12223150D02*
X16974825Y-12223150D01*
X16974825Y-12223150D02*
X16993873Y-12232674D01*
X17070063Y-12432674D02*
X17079587Y-12423150D01*
X17079587Y-12423150D02*
X17098634Y-12394579D01*
X17098634Y-12394579D02*
X17108158Y-12375531D01*
X17108158Y-12375531D02*
X17117682Y-12346960D01*
X17117682Y-12346960D02*
X17127206Y-12299341D01*
X17127206Y-12299341D02*
X17127206Y-12261246D01*
X17127206Y-12261246D02*
X17117682Y-12213627D01*
X17117682Y-12213627D02*
X17108158Y-12185055D01*
X17108158Y-12185055D02*
X17098634Y-12166008D01*
X17098634Y-12166008D02*
X17079587Y-12137436D01*
X17079587Y-12137436D02*
X17070063Y-12127912D01*
D13*
X12165000Y-12464000D02*
X12295000Y-12594000D01*
X12295000Y-12464000D02*
X12165000Y-12594000D01*
X12230000Y-12464000D02*
X12230000Y-12594000D01*
X12165000Y-12529000D02*
X12295000Y-12529000D01*
D11*
X12660539Y-12620484D02*
X12546253Y-12620484D01*
X12603396Y-12620484D02*
X12603396Y-12420484D01*
X12603396Y-12420484D02*
X12584348Y-12449055D01*
X12584348Y-12449055D02*
X12565301Y-12468103D01*
X12565301Y-12468103D02*
X12546253Y-12477627D01*
X12746253Y-12601436D02*
X12755777Y-12610960D01*
X12755777Y-12610960D02*
X12746253Y-12620484D01*
X12746253Y-12620484D02*
X12736729Y-12610960D01*
X12736729Y-12610960D02*
X12746253Y-12601436D01*
X12746253Y-12601436D02*
X12746253Y-12620484D01*
X12822443Y-12420484D02*
X12946253Y-12420484D01*
X12946253Y-12420484D02*
X12879586Y-12496674D01*
X12879586Y-12496674D02*
X12908158Y-12496674D01*
X12908158Y-12496674D02*
X12927205Y-12506198D01*
X12927205Y-12506198D02*
X12936729Y-12515722D01*
X12936729Y-12515722D02*
X12946253Y-12534769D01*
X12946253Y-12534769D02*
X12946253Y-12582388D01*
X12946253Y-12582388D02*
X12936729Y-12601436D01*
X12936729Y-12601436D02*
X12927205Y-12610960D01*
X12927205Y-12610960D02*
X12908158Y-12620484D01*
X12908158Y-12620484D02*
X12851015Y-12620484D01*
X12851015Y-12620484D02*
X12831967Y-12610960D01*
X12831967Y-12610960D02*
X12822443Y-12601436D01*
X13070062Y-12420484D02*
X13089110Y-12420484D01*
X13089110Y-12420484D02*
X13108158Y-12430008D01*
X13108158Y-12430008D02*
X13117682Y-12439531D01*
X13117682Y-12439531D02*
X13127205Y-12458579D01*
X13127205Y-12458579D02*
X13136729Y-12496674D01*
X13136729Y-12496674D02*
X13136729Y-12544293D01*
X13136729Y-12544293D02*
X13127205Y-12582388D01*
X13127205Y-12582388D02*
X13117682Y-12601436D01*
X13117682Y-12601436D02*
X13108158Y-12610960D01*
X13108158Y-12610960D02*
X13089110Y-12620484D01*
X13089110Y-12620484D02*
X13070062Y-12620484D01*
X13070062Y-12620484D02*
X13051015Y-12610960D01*
X13051015Y-12610960D02*
X13041491Y-12601436D01*
X13041491Y-12601436D02*
X13031967Y-12582388D01*
X13031967Y-12582388D02*
X13022443Y-12544293D01*
X13022443Y-12544293D02*
X13022443Y-12496674D01*
X13022443Y-12496674D02*
X13031967Y-12458579D01*
X13031967Y-12458579D02*
X13041491Y-12439531D01*
X13041491Y-12439531D02*
X13051015Y-12430008D01*
X13051015Y-12430008D02*
X13070062Y-12420484D01*
X13260539Y-12420484D02*
X13279586Y-12420484D01*
X13279586Y-12420484D02*
X13298634Y-12430008D01*
X13298634Y-12430008D02*
X13308158Y-12439531D01*
X13308158Y-12439531D02*
X13317682Y-12458579D01*
X13317682Y-12458579D02*
X13327205Y-12496674D01*
X13327205Y-12496674D02*
X13327205Y-12544293D01*
X13327205Y-12544293D02*
X13317682Y-12582388D01*
X13317682Y-12582388D02*
X13308158Y-12601436D01*
X13308158Y-12601436D02*
X13298634Y-12610960D01*
X13298634Y-12610960D02*
X13279586Y-12620484D01*
X13279586Y-12620484D02*
X13260539Y-12620484D01*
X13260539Y-12620484D02*
X13241491Y-12610960D01*
X13241491Y-12610960D02*
X13231967Y-12601436D01*
X13231967Y-12601436D02*
X13222443Y-12582388D01*
X13222443Y-12582388D02*
X13212920Y-12544293D01*
X13212920Y-12544293D02*
X13212920Y-12496674D01*
X13212920Y-12496674D02*
X13222443Y-12458579D01*
X13222443Y-12458579D02*
X13231967Y-12439531D01*
X13231967Y-12439531D02*
X13241491Y-12430008D01*
X13241491Y-12430008D02*
X13260539Y-12420484D01*
X13412920Y-12620484D02*
X13412920Y-12487150D01*
X13412920Y-12506198D02*
X13422443Y-12496674D01*
X13422443Y-12496674D02*
X13441491Y-12487150D01*
X13441491Y-12487150D02*
X13470063Y-12487150D01*
X13470063Y-12487150D02*
X13489110Y-12496674D01*
X13489110Y-12496674D02*
X13498634Y-12515722D01*
X13498634Y-12515722D02*
X13498634Y-12620484D01*
X13498634Y-12515722D02*
X13508158Y-12496674D01*
X13508158Y-12496674D02*
X13527205Y-12487150D01*
X13527205Y-12487150D02*
X13555777Y-12487150D01*
X13555777Y-12487150D02*
X13574824Y-12496674D01*
X13574824Y-12496674D02*
X13584348Y-12515722D01*
X13584348Y-12515722D02*
X13584348Y-12620484D01*
X13679586Y-12620484D02*
X13679586Y-12487150D01*
X13679586Y-12506198D02*
X13689110Y-12496674D01*
X13689110Y-12496674D02*
X13708158Y-12487150D01*
X13708158Y-12487150D02*
X13736729Y-12487150D01*
X13736729Y-12487150D02*
X13755777Y-12496674D01*
X13755777Y-12496674D02*
X13765301Y-12515722D01*
X13765301Y-12515722D02*
X13765301Y-12620484D01*
X13765301Y-12515722D02*
X13774824Y-12496674D01*
X13774824Y-12496674D02*
X13793872Y-12487150D01*
X13793872Y-12487150D02*
X13822443Y-12487150D01*
X13822443Y-12487150D02*
X13841491Y-12496674D01*
X13841491Y-12496674D02*
X13851015Y-12515722D01*
X13851015Y-12515722D02*
X13851015Y-12620484D01*
X14241491Y-12410960D02*
X14070063Y-12668103D01*
X14498634Y-12420484D02*
X14517682Y-12420484D01*
X14517682Y-12420484D02*
X14536729Y-12430008D01*
X14536729Y-12430008D02*
X14546253Y-12439531D01*
X14546253Y-12439531D02*
X14555777Y-12458579D01*
X14555777Y-12458579D02*
X14565301Y-12496674D01*
X14565301Y-12496674D02*
X14565301Y-12544293D01*
X14565301Y-12544293D02*
X14555777Y-12582388D01*
X14555777Y-12582388D02*
X14546253Y-12601436D01*
X14546253Y-12601436D02*
X14536729Y-12610960D01*
X14536729Y-12610960D02*
X14517682Y-12620484D01*
X14517682Y-12620484D02*
X14498634Y-12620484D01*
X14498634Y-12620484D02*
X14479586Y-12610960D01*
X14479586Y-12610960D02*
X14470063Y-12601436D01*
X14470063Y-12601436D02*
X14460539Y-12582388D01*
X14460539Y-12582388D02*
X14451015Y-12544293D01*
X14451015Y-12544293D02*
X14451015Y-12496674D01*
X14451015Y-12496674D02*
X14460539Y-12458579D01*
X14460539Y-12458579D02*
X14470063Y-12439531D01*
X14470063Y-12439531D02*
X14479586Y-12430008D01*
X14479586Y-12430008D02*
X14498634Y-12420484D01*
X14651015Y-12601436D02*
X14660539Y-12610960D01*
X14660539Y-12610960D02*
X14651015Y-12620484D01*
X14651015Y-12620484D02*
X14641491Y-12610960D01*
X14641491Y-12610960D02*
X14651015Y-12601436D01*
X14651015Y-12601436D02*
X14651015Y-12620484D01*
X14784348Y-12420484D02*
X14803396Y-12420484D01*
X14803396Y-12420484D02*
X14822444Y-12430008D01*
X14822444Y-12430008D02*
X14831967Y-12439531D01*
X14831967Y-12439531D02*
X14841491Y-12458579D01*
X14841491Y-12458579D02*
X14851015Y-12496674D01*
X14851015Y-12496674D02*
X14851015Y-12544293D01*
X14851015Y-12544293D02*
X14841491Y-12582388D01*
X14841491Y-12582388D02*
X14831967Y-12601436D01*
X14831967Y-12601436D02*
X14822444Y-12610960D01*
X14822444Y-12610960D02*
X14803396Y-12620484D01*
X14803396Y-12620484D02*
X14784348Y-12620484D01*
X14784348Y-12620484D02*
X14765301Y-12610960D01*
X14765301Y-12610960D02*
X14755777Y-12601436D01*
X14755777Y-12601436D02*
X14746253Y-12582388D01*
X14746253Y-12582388D02*
X14736729Y-12544293D01*
X14736729Y-12544293D02*
X14736729Y-12496674D01*
X14736729Y-12496674D02*
X14746253Y-12458579D01*
X14746253Y-12458579D02*
X14755777Y-12439531D01*
X14755777Y-12439531D02*
X14765301Y-12430008D01*
X14765301Y-12430008D02*
X14784348Y-12420484D01*
X15031967Y-12420484D02*
X14936729Y-12420484D01*
X14936729Y-12420484D02*
X14927206Y-12515722D01*
X14927206Y-12515722D02*
X14936729Y-12506198D01*
X14936729Y-12506198D02*
X14955777Y-12496674D01*
X14955777Y-12496674D02*
X15003396Y-12496674D01*
X15003396Y-12496674D02*
X15022444Y-12506198D01*
X15022444Y-12506198D02*
X15031967Y-12515722D01*
X15031967Y-12515722D02*
X15041491Y-12534769D01*
X15041491Y-12534769D02*
X15041491Y-12582388D01*
X15041491Y-12582388D02*
X15031967Y-12601436D01*
X15031967Y-12601436D02*
X15022444Y-12610960D01*
X15022444Y-12610960D02*
X15003396Y-12620484D01*
X15003396Y-12620484D02*
X14955777Y-12620484D01*
X14955777Y-12620484D02*
X14936729Y-12610960D01*
X14936729Y-12610960D02*
X14927206Y-12601436D01*
X15231967Y-12620484D02*
X15117682Y-12620484D01*
X15174825Y-12620484D02*
X15174825Y-12420484D01*
X15174825Y-12420484D02*
X15155777Y-12449055D01*
X15155777Y-12449055D02*
X15136729Y-12468103D01*
X15136729Y-12468103D02*
X15117682Y-12477627D01*
X15308158Y-12439531D02*
X15317682Y-12430008D01*
X15317682Y-12430008D02*
X15336729Y-12420484D01*
X15336729Y-12420484D02*
X15384348Y-12420484D01*
X15384348Y-12420484D02*
X15403396Y-12430008D01*
X15403396Y-12430008D02*
X15412920Y-12439531D01*
X15412920Y-12439531D02*
X15422444Y-12458579D01*
X15422444Y-12458579D02*
X15422444Y-12477627D01*
X15422444Y-12477627D02*
X15412920Y-12506198D01*
X15412920Y-12506198D02*
X15298634Y-12620484D01*
X15298634Y-12620484D02*
X15422444Y-12620484D01*
X15498634Y-12420484D02*
X15498634Y-12458579D01*
X15574825Y-12420484D02*
X15574825Y-12458579D01*
X15870063Y-12696674D02*
X15860539Y-12687150D01*
X15860539Y-12687150D02*
X15841491Y-12658579D01*
X15841491Y-12658579D02*
X15831968Y-12639531D01*
X15831968Y-12639531D02*
X15822444Y-12610960D01*
X15822444Y-12610960D02*
X15812920Y-12563341D01*
X15812920Y-12563341D02*
X15812920Y-12525246D01*
X15812920Y-12525246D02*
X15822444Y-12477627D01*
X15822444Y-12477627D02*
X15831968Y-12449055D01*
X15831968Y-12449055D02*
X15841491Y-12430008D01*
X15841491Y-12430008D02*
X15860539Y-12401436D01*
X15860539Y-12401436D02*
X15870063Y-12391912D01*
X15974825Y-12506198D02*
X15955777Y-12496674D01*
X15955777Y-12496674D02*
X15946253Y-12487150D01*
X15946253Y-12487150D02*
X15936729Y-12468103D01*
X15936729Y-12468103D02*
X15936729Y-12458579D01*
X15936729Y-12458579D02*
X15946253Y-12439531D01*
X15946253Y-12439531D02*
X15955777Y-12430008D01*
X15955777Y-12430008D02*
X15974825Y-12420484D01*
X15974825Y-12420484D02*
X16012920Y-12420484D01*
X16012920Y-12420484D02*
X16031968Y-12430008D01*
X16031968Y-12430008D02*
X16041491Y-12439531D01*
X16041491Y-12439531D02*
X16051015Y-12458579D01*
X16051015Y-12458579D02*
X16051015Y-12468103D01*
X16051015Y-12468103D02*
X16041491Y-12487150D01*
X16041491Y-12487150D02*
X16031968Y-12496674D01*
X16031968Y-12496674D02*
X16012920Y-12506198D01*
X16012920Y-12506198D02*
X15974825Y-12506198D01*
X15974825Y-12506198D02*
X15955777Y-12515722D01*
X15955777Y-12515722D02*
X15946253Y-12525246D01*
X15946253Y-12525246D02*
X15936729Y-12544293D01*
X15936729Y-12544293D02*
X15936729Y-12582388D01*
X15936729Y-12582388D02*
X15946253Y-12601436D01*
X15946253Y-12601436D02*
X15955777Y-12610960D01*
X15955777Y-12610960D02*
X15974825Y-12620484D01*
X15974825Y-12620484D02*
X16012920Y-12620484D01*
X16012920Y-12620484D02*
X16031968Y-12610960D01*
X16031968Y-12610960D02*
X16041491Y-12601436D01*
X16041491Y-12601436D02*
X16051015Y-12582388D01*
X16051015Y-12582388D02*
X16051015Y-12544293D01*
X16051015Y-12544293D02*
X16041491Y-12525246D01*
X16041491Y-12525246D02*
X16031968Y-12515722D01*
X16031968Y-12515722D02*
X16012920Y-12506198D01*
X16289110Y-12620484D02*
X16289110Y-12420484D01*
X16374825Y-12620484D02*
X16374825Y-12515722D01*
X16374825Y-12515722D02*
X16365301Y-12496674D01*
X16365301Y-12496674D02*
X16346253Y-12487150D01*
X16346253Y-12487150D02*
X16317682Y-12487150D01*
X16317682Y-12487150D02*
X16298634Y-12496674D01*
X16298634Y-12496674D02*
X16289110Y-12506198D01*
X16498634Y-12620484D02*
X16479587Y-12610960D01*
X16479587Y-12610960D02*
X16470063Y-12601436D01*
X16470063Y-12601436D02*
X16460539Y-12582388D01*
X16460539Y-12582388D02*
X16460539Y-12525246D01*
X16460539Y-12525246D02*
X16470063Y-12506198D01*
X16470063Y-12506198D02*
X16479587Y-12496674D01*
X16479587Y-12496674D02*
X16498634Y-12487150D01*
X16498634Y-12487150D02*
X16527206Y-12487150D01*
X16527206Y-12487150D02*
X16546253Y-12496674D01*
X16546253Y-12496674D02*
X16555777Y-12506198D01*
X16555777Y-12506198D02*
X16565301Y-12525246D01*
X16565301Y-12525246D02*
X16565301Y-12582388D01*
X16565301Y-12582388D02*
X16555777Y-12601436D01*
X16555777Y-12601436D02*
X16546253Y-12610960D01*
X16546253Y-12610960D02*
X16527206Y-12620484D01*
X16527206Y-12620484D02*
X16498634Y-12620484D01*
X16679587Y-12620484D02*
X16660539Y-12610960D01*
X16660539Y-12610960D02*
X16651015Y-12591912D01*
X16651015Y-12591912D02*
X16651015Y-12420484D01*
X16831968Y-12610960D02*
X16812920Y-12620484D01*
X16812920Y-12620484D02*
X16774825Y-12620484D01*
X16774825Y-12620484D02*
X16755777Y-12610960D01*
X16755777Y-12610960D02*
X16746253Y-12591912D01*
X16746253Y-12591912D02*
X16746253Y-12515722D01*
X16746253Y-12515722D02*
X16755777Y-12496674D01*
X16755777Y-12496674D02*
X16774825Y-12487150D01*
X16774825Y-12487150D02*
X16812920Y-12487150D01*
X16812920Y-12487150D02*
X16831968Y-12496674D01*
X16831968Y-12496674D02*
X16841492Y-12515722D01*
X16841492Y-12515722D02*
X16841492Y-12534769D01*
X16841492Y-12534769D02*
X16746253Y-12553817D01*
X16917682Y-12610960D02*
X16936730Y-12620484D01*
X16936730Y-12620484D02*
X16974825Y-12620484D01*
X16974825Y-12620484D02*
X16993873Y-12610960D01*
X16993873Y-12610960D02*
X17003396Y-12591912D01*
X17003396Y-12591912D02*
X17003396Y-12582388D01*
X17003396Y-12582388D02*
X16993873Y-12563341D01*
X16993873Y-12563341D02*
X16974825Y-12553817D01*
X16974825Y-12553817D02*
X16946253Y-12553817D01*
X16946253Y-12553817D02*
X16927206Y-12544293D01*
X16927206Y-12544293D02*
X16917682Y-12525246D01*
X16917682Y-12525246D02*
X16917682Y-12515722D01*
X16917682Y-12515722D02*
X16927206Y-12496674D01*
X16927206Y-12496674D02*
X16946253Y-12487150D01*
X16946253Y-12487150D02*
X16974825Y-12487150D01*
X16974825Y-12487150D02*
X16993873Y-12496674D01*
X17070063Y-12696674D02*
X17079587Y-12687150D01*
X17079587Y-12687150D02*
X17098634Y-12658579D01*
X17098634Y-12658579D02*
X17108158Y-12639531D01*
X17108158Y-12639531D02*
X17117682Y-12610960D01*
X17117682Y-12610960D02*
X17127206Y-12563341D01*
X17127206Y-12563341D02*
X17127206Y-12525246D01*
X17127206Y-12525246D02*
X17117682Y-12477627D01*
X17117682Y-12477627D02*
X17108158Y-12449055D01*
X17108158Y-12449055D02*
X17098634Y-12430008D01*
X17098634Y-12430008D02*
X17079587Y-12401436D01*
X17079587Y-12401436D02*
X17070063Y-12391912D01*
M02*
