%TF.GenerationSoftware,KiCad,Pcbnew,7.0.9*%
%TF.CreationDate,2024-06-09T17:27:21-04:00*%
%TF.ProjectId,PedalboardMain,50656461-6c62-46f6-9172-644d61696e2e,rev?*%
%TF.SameCoordinates,Original*%
%TF.FileFunction,Legend,Top*%
%TF.FilePolarity,Positive*%
%FSLAX46Y46*%
G04 Gerber Fmt 4.6, Leading zero omitted, Abs format (unit mm)*
G04 Created by KiCad (PCBNEW 7.0.9) date 2024-06-09 17:27:21*
%MOMM*%
%LPD*%
G01*
G04 APERTURE LIST*
%ADD10C,0.150000*%
%ADD11C,0.127000*%
%ADD12C,0.200000*%
%ADD13C,0.120000*%
G04 APERTURE END LIST*
D10*
X170389160Y-90902200D02*
X170532017Y-90949819D01*
X170532017Y-90949819D02*
X170770112Y-90949819D01*
X170770112Y-90949819D02*
X170865350Y-90902200D01*
X170865350Y-90902200D02*
X170912969Y-90854580D01*
X170912969Y-90854580D02*
X170960588Y-90759342D01*
X170960588Y-90759342D02*
X170960588Y-90664104D01*
X170960588Y-90664104D02*
X170912969Y-90568866D01*
X170912969Y-90568866D02*
X170865350Y-90521247D01*
X170865350Y-90521247D02*
X170770112Y-90473628D01*
X170770112Y-90473628D02*
X170579636Y-90426009D01*
X170579636Y-90426009D02*
X170484398Y-90378390D01*
X170484398Y-90378390D02*
X170436779Y-90330771D01*
X170436779Y-90330771D02*
X170389160Y-90235533D01*
X170389160Y-90235533D02*
X170389160Y-90140295D01*
X170389160Y-90140295D02*
X170436779Y-90045057D01*
X170436779Y-90045057D02*
X170484398Y-89997438D01*
X170484398Y-89997438D02*
X170579636Y-89949819D01*
X170579636Y-89949819D02*
X170817731Y-89949819D01*
X170817731Y-89949819D02*
X170960588Y-89997438D01*
X171770112Y-90902200D02*
X171674874Y-90949819D01*
X171674874Y-90949819D02*
X171484398Y-90949819D01*
X171484398Y-90949819D02*
X171389160Y-90902200D01*
X171389160Y-90902200D02*
X171341541Y-90806961D01*
X171341541Y-90806961D02*
X171341541Y-90426009D01*
X171341541Y-90426009D02*
X171389160Y-90330771D01*
X171389160Y-90330771D02*
X171484398Y-90283152D01*
X171484398Y-90283152D02*
X171674874Y-90283152D01*
X171674874Y-90283152D02*
X171770112Y-90330771D01*
X171770112Y-90330771D02*
X171817731Y-90426009D01*
X171817731Y-90426009D02*
X171817731Y-90521247D01*
X171817731Y-90521247D02*
X171341541Y-90616485D01*
X172246303Y-90283152D02*
X172246303Y-90949819D01*
X172246303Y-90378390D02*
X172293922Y-90330771D01*
X172293922Y-90330771D02*
X172389160Y-90283152D01*
X172389160Y-90283152D02*
X172532017Y-90283152D01*
X172532017Y-90283152D02*
X172627255Y-90330771D01*
X172627255Y-90330771D02*
X172674874Y-90426009D01*
X172674874Y-90426009D02*
X172674874Y-90949819D01*
X173579636Y-90949819D02*
X173579636Y-89949819D01*
X173579636Y-90902200D02*
X173484398Y-90949819D01*
X173484398Y-90949819D02*
X173293922Y-90949819D01*
X173293922Y-90949819D02*
X173198684Y-90902200D01*
X173198684Y-90902200D02*
X173151065Y-90854580D01*
X173151065Y-90854580D02*
X173103446Y-90759342D01*
X173103446Y-90759342D02*
X173103446Y-90473628D01*
X173103446Y-90473628D02*
X173151065Y-90378390D01*
X173151065Y-90378390D02*
X173198684Y-90330771D01*
X173198684Y-90330771D02*
X173293922Y-90283152D01*
X173293922Y-90283152D02*
X173484398Y-90283152D01*
X173484398Y-90283152D02*
X173579636Y-90330771D01*
X170912969Y-92559819D02*
X170436779Y-92559819D01*
X170436779Y-92559819D02*
X170436779Y-91559819D01*
X172532017Y-91607438D02*
X172436779Y-91559819D01*
X172436779Y-91559819D02*
X172293922Y-91559819D01*
X172293922Y-91559819D02*
X172151065Y-91607438D01*
X172151065Y-91607438D02*
X172055827Y-91702676D01*
X172055827Y-91702676D02*
X172008208Y-91797914D01*
X172008208Y-91797914D02*
X171960589Y-91988390D01*
X171960589Y-91988390D02*
X171960589Y-92131247D01*
X171960589Y-92131247D02*
X172008208Y-92321723D01*
X172008208Y-92321723D02*
X172055827Y-92416961D01*
X172055827Y-92416961D02*
X172151065Y-92512200D01*
X172151065Y-92512200D02*
X172293922Y-92559819D01*
X172293922Y-92559819D02*
X172389160Y-92559819D01*
X172389160Y-92559819D02*
X172532017Y-92512200D01*
X172532017Y-92512200D02*
X172579636Y-92464580D01*
X172579636Y-92464580D02*
X172579636Y-92131247D01*
X172579636Y-92131247D02*
X172389160Y-92131247D01*
X173008208Y-91893152D02*
X173008208Y-92559819D01*
X173008208Y-91988390D02*
X173055827Y-91940771D01*
X173055827Y-91940771D02*
X173151065Y-91893152D01*
X173151065Y-91893152D02*
X173293922Y-91893152D01*
X173293922Y-91893152D02*
X173389160Y-91940771D01*
X173389160Y-91940771D02*
X173436779Y-92036009D01*
X173436779Y-92036009D02*
X173436779Y-92559819D01*
X174341541Y-92559819D02*
X174341541Y-91559819D01*
X174341541Y-92512200D02*
X174246303Y-92559819D01*
X174246303Y-92559819D02*
X174055827Y-92559819D01*
X174055827Y-92559819D02*
X173960589Y-92512200D01*
X173960589Y-92512200D02*
X173912970Y-92464580D01*
X173912970Y-92464580D02*
X173865351Y-92369342D01*
X173865351Y-92369342D02*
X173865351Y-92083628D01*
X173865351Y-92083628D02*
X173912970Y-91988390D01*
X173912970Y-91988390D02*
X173960589Y-91940771D01*
X173960589Y-91940771D02*
X174055827Y-91893152D01*
X174055827Y-91893152D02*
X174246303Y-91893152D01*
X174246303Y-91893152D02*
X174341541Y-91940771D01*
X176151065Y-92559819D02*
X175817732Y-92083628D01*
X175579637Y-92559819D02*
X175579637Y-91559819D01*
X175579637Y-91559819D02*
X175960589Y-91559819D01*
X175960589Y-91559819D02*
X176055827Y-91607438D01*
X176055827Y-91607438D02*
X176103446Y-91655057D01*
X176103446Y-91655057D02*
X176151065Y-91750295D01*
X176151065Y-91750295D02*
X176151065Y-91893152D01*
X176151065Y-91893152D02*
X176103446Y-91988390D01*
X176103446Y-91988390D02*
X176055827Y-92036009D01*
X176055827Y-92036009D02*
X175960589Y-92083628D01*
X175960589Y-92083628D02*
X175579637Y-92083628D01*
X177865351Y-91607438D02*
X177770113Y-91559819D01*
X177770113Y-91559819D02*
X177627256Y-91559819D01*
X177627256Y-91559819D02*
X177484399Y-91607438D01*
X177484399Y-91607438D02*
X177389161Y-91702676D01*
X177389161Y-91702676D02*
X177341542Y-91797914D01*
X177341542Y-91797914D02*
X177293923Y-91988390D01*
X177293923Y-91988390D02*
X177293923Y-92131247D01*
X177293923Y-92131247D02*
X177341542Y-92321723D01*
X177341542Y-92321723D02*
X177389161Y-92416961D01*
X177389161Y-92416961D02*
X177484399Y-92512200D01*
X177484399Y-92512200D02*
X177627256Y-92559819D01*
X177627256Y-92559819D02*
X177722494Y-92559819D01*
X177722494Y-92559819D02*
X177865351Y-92512200D01*
X177865351Y-92512200D02*
X177912970Y-92464580D01*
X177912970Y-92464580D02*
X177912970Y-92131247D01*
X177912970Y-92131247D02*
X177722494Y-92131247D01*
X178341542Y-91893152D02*
X178341542Y-92559819D01*
X178341542Y-91988390D02*
X178389161Y-91940771D01*
X178389161Y-91940771D02*
X178484399Y-91893152D01*
X178484399Y-91893152D02*
X178627256Y-91893152D01*
X178627256Y-91893152D02*
X178722494Y-91940771D01*
X178722494Y-91940771D02*
X178770113Y-92036009D01*
X178770113Y-92036009D02*
X178770113Y-92559819D01*
X179674875Y-92559819D02*
X179674875Y-91559819D01*
X179674875Y-92512200D02*
X179579637Y-92559819D01*
X179579637Y-92559819D02*
X179389161Y-92559819D01*
X179389161Y-92559819D02*
X179293923Y-92512200D01*
X179293923Y-92512200D02*
X179246304Y-92464580D01*
X179246304Y-92464580D02*
X179198685Y-92369342D01*
X179198685Y-92369342D02*
X179198685Y-92083628D01*
X179198685Y-92083628D02*
X179246304Y-91988390D01*
X179246304Y-91988390D02*
X179293923Y-91940771D01*
X179293923Y-91940771D02*
X179389161Y-91893152D01*
X179389161Y-91893152D02*
X179579637Y-91893152D01*
X179579637Y-91893152D02*
X179674875Y-91940771D01*
X148308207Y-90649819D02*
X147974874Y-90173628D01*
X147736779Y-90649819D02*
X147736779Y-89649819D01*
X147736779Y-89649819D02*
X148117731Y-89649819D01*
X148117731Y-89649819D02*
X148212969Y-89697438D01*
X148212969Y-89697438D02*
X148260588Y-89745057D01*
X148260588Y-89745057D02*
X148308207Y-89840295D01*
X148308207Y-89840295D02*
X148308207Y-89983152D01*
X148308207Y-89983152D02*
X148260588Y-90078390D01*
X148260588Y-90078390D02*
X148212969Y-90126009D01*
X148212969Y-90126009D02*
X148117731Y-90173628D01*
X148117731Y-90173628D02*
X147736779Y-90173628D01*
X149117731Y-90602200D02*
X149022493Y-90649819D01*
X149022493Y-90649819D02*
X148832017Y-90649819D01*
X148832017Y-90649819D02*
X148736779Y-90602200D01*
X148736779Y-90602200D02*
X148689160Y-90506961D01*
X148689160Y-90506961D02*
X148689160Y-90126009D01*
X148689160Y-90126009D02*
X148736779Y-90030771D01*
X148736779Y-90030771D02*
X148832017Y-89983152D01*
X148832017Y-89983152D02*
X149022493Y-89983152D01*
X149022493Y-89983152D02*
X149117731Y-90030771D01*
X149117731Y-90030771D02*
X149165350Y-90126009D01*
X149165350Y-90126009D02*
X149165350Y-90221247D01*
X149165350Y-90221247D02*
X148689160Y-90316485D01*
X149451065Y-89983152D02*
X149832017Y-89983152D01*
X149593922Y-89649819D02*
X149593922Y-90506961D01*
X149593922Y-90506961D02*
X149641541Y-90602200D01*
X149641541Y-90602200D02*
X149736779Y-90649819D01*
X149736779Y-90649819D02*
X149832017Y-90649819D01*
X150593922Y-89983152D02*
X150593922Y-90649819D01*
X150165351Y-89983152D02*
X150165351Y-90506961D01*
X150165351Y-90506961D02*
X150212970Y-90602200D01*
X150212970Y-90602200D02*
X150308208Y-90649819D01*
X150308208Y-90649819D02*
X150451065Y-90649819D01*
X150451065Y-90649819D02*
X150546303Y-90602200D01*
X150546303Y-90602200D02*
X150593922Y-90554580D01*
X151070113Y-90649819D02*
X151070113Y-89983152D01*
X151070113Y-90173628D02*
X151117732Y-90078390D01*
X151117732Y-90078390D02*
X151165351Y-90030771D01*
X151165351Y-90030771D02*
X151260589Y-89983152D01*
X151260589Y-89983152D02*
X151355827Y-89983152D01*
X151689161Y-89983152D02*
X151689161Y-90649819D01*
X151689161Y-90078390D02*
X151736780Y-90030771D01*
X151736780Y-90030771D02*
X151832018Y-89983152D01*
X151832018Y-89983152D02*
X151974875Y-89983152D01*
X151974875Y-89983152D02*
X152070113Y-90030771D01*
X152070113Y-90030771D02*
X152117732Y-90126009D01*
X152117732Y-90126009D02*
X152117732Y-90649819D01*
X148212969Y-92259819D02*
X147736779Y-92259819D01*
X147736779Y-92259819D02*
X147736779Y-91259819D01*
X149832017Y-91307438D02*
X149736779Y-91259819D01*
X149736779Y-91259819D02*
X149593922Y-91259819D01*
X149593922Y-91259819D02*
X149451065Y-91307438D01*
X149451065Y-91307438D02*
X149355827Y-91402676D01*
X149355827Y-91402676D02*
X149308208Y-91497914D01*
X149308208Y-91497914D02*
X149260589Y-91688390D01*
X149260589Y-91688390D02*
X149260589Y-91831247D01*
X149260589Y-91831247D02*
X149308208Y-92021723D01*
X149308208Y-92021723D02*
X149355827Y-92116961D01*
X149355827Y-92116961D02*
X149451065Y-92212200D01*
X149451065Y-92212200D02*
X149593922Y-92259819D01*
X149593922Y-92259819D02*
X149689160Y-92259819D01*
X149689160Y-92259819D02*
X149832017Y-92212200D01*
X149832017Y-92212200D02*
X149879636Y-92164580D01*
X149879636Y-92164580D02*
X149879636Y-91831247D01*
X149879636Y-91831247D02*
X149689160Y-91831247D01*
X150308208Y-91593152D02*
X150308208Y-92259819D01*
X150308208Y-91688390D02*
X150355827Y-91640771D01*
X150355827Y-91640771D02*
X150451065Y-91593152D01*
X150451065Y-91593152D02*
X150593922Y-91593152D01*
X150593922Y-91593152D02*
X150689160Y-91640771D01*
X150689160Y-91640771D02*
X150736779Y-91736009D01*
X150736779Y-91736009D02*
X150736779Y-92259819D01*
X151641541Y-92259819D02*
X151641541Y-91259819D01*
X151641541Y-92212200D02*
X151546303Y-92259819D01*
X151546303Y-92259819D02*
X151355827Y-92259819D01*
X151355827Y-92259819D02*
X151260589Y-92212200D01*
X151260589Y-92212200D02*
X151212970Y-92164580D01*
X151212970Y-92164580D02*
X151165351Y-92069342D01*
X151165351Y-92069342D02*
X151165351Y-91783628D01*
X151165351Y-91783628D02*
X151212970Y-91688390D01*
X151212970Y-91688390D02*
X151260589Y-91640771D01*
X151260589Y-91640771D02*
X151355827Y-91593152D01*
X151355827Y-91593152D02*
X151546303Y-91593152D01*
X151546303Y-91593152D02*
X151641541Y-91640771D01*
X153451065Y-92259819D02*
X153117732Y-91783628D01*
X152879637Y-92259819D02*
X152879637Y-91259819D01*
X152879637Y-91259819D02*
X153260589Y-91259819D01*
X153260589Y-91259819D02*
X153355827Y-91307438D01*
X153355827Y-91307438D02*
X153403446Y-91355057D01*
X153403446Y-91355057D02*
X153451065Y-91450295D01*
X153451065Y-91450295D02*
X153451065Y-91593152D01*
X153451065Y-91593152D02*
X153403446Y-91688390D01*
X153403446Y-91688390D02*
X153355827Y-91736009D01*
X153355827Y-91736009D02*
X153260589Y-91783628D01*
X153260589Y-91783628D02*
X152879637Y-91783628D01*
X155165351Y-91307438D02*
X155070113Y-91259819D01*
X155070113Y-91259819D02*
X154927256Y-91259819D01*
X154927256Y-91259819D02*
X154784399Y-91307438D01*
X154784399Y-91307438D02*
X154689161Y-91402676D01*
X154689161Y-91402676D02*
X154641542Y-91497914D01*
X154641542Y-91497914D02*
X154593923Y-91688390D01*
X154593923Y-91688390D02*
X154593923Y-91831247D01*
X154593923Y-91831247D02*
X154641542Y-92021723D01*
X154641542Y-92021723D02*
X154689161Y-92116961D01*
X154689161Y-92116961D02*
X154784399Y-92212200D01*
X154784399Y-92212200D02*
X154927256Y-92259819D01*
X154927256Y-92259819D02*
X155022494Y-92259819D01*
X155022494Y-92259819D02*
X155165351Y-92212200D01*
X155165351Y-92212200D02*
X155212970Y-92164580D01*
X155212970Y-92164580D02*
X155212970Y-91831247D01*
X155212970Y-91831247D02*
X155022494Y-91831247D01*
X155641542Y-91593152D02*
X155641542Y-92259819D01*
X155641542Y-91688390D02*
X155689161Y-91640771D01*
X155689161Y-91640771D02*
X155784399Y-91593152D01*
X155784399Y-91593152D02*
X155927256Y-91593152D01*
X155927256Y-91593152D02*
X156022494Y-91640771D01*
X156022494Y-91640771D02*
X156070113Y-91736009D01*
X156070113Y-91736009D02*
X156070113Y-92259819D01*
X156974875Y-92259819D02*
X156974875Y-91259819D01*
X156974875Y-92212200D02*
X156879637Y-92259819D01*
X156879637Y-92259819D02*
X156689161Y-92259819D01*
X156689161Y-92259819D02*
X156593923Y-92212200D01*
X156593923Y-92212200D02*
X156546304Y-92164580D01*
X156546304Y-92164580D02*
X156498685Y-92069342D01*
X156498685Y-92069342D02*
X156498685Y-91783628D01*
X156498685Y-91783628D02*
X156546304Y-91688390D01*
X156546304Y-91688390D02*
X156593923Y-91640771D01*
X156593923Y-91640771D02*
X156689161Y-91593152D01*
X156689161Y-91593152D02*
X156879637Y-91593152D01*
X156879637Y-91593152D02*
X156974875Y-91640771D01*
X132488207Y-78839819D02*
X132154874Y-78363628D01*
X131916779Y-78839819D02*
X131916779Y-77839819D01*
X131916779Y-77839819D02*
X132297731Y-77839819D01*
X132297731Y-77839819D02*
X132392969Y-77887438D01*
X132392969Y-77887438D02*
X132440588Y-77935057D01*
X132440588Y-77935057D02*
X132488207Y-78030295D01*
X132488207Y-78030295D02*
X132488207Y-78173152D01*
X132488207Y-78173152D02*
X132440588Y-78268390D01*
X132440588Y-78268390D02*
X132392969Y-78316009D01*
X132392969Y-78316009D02*
X132297731Y-78363628D01*
X132297731Y-78363628D02*
X131916779Y-78363628D01*
X132392969Y-82059819D02*
X131916779Y-82059819D01*
X131916779Y-82059819D02*
X131916779Y-81059819D01*
X132440588Y-84327438D02*
X132345350Y-84279819D01*
X132345350Y-84279819D02*
X132202493Y-84279819D01*
X132202493Y-84279819D02*
X132059636Y-84327438D01*
X132059636Y-84327438D02*
X131964398Y-84422676D01*
X131964398Y-84422676D02*
X131916779Y-84517914D01*
X131916779Y-84517914D02*
X131869160Y-84708390D01*
X131869160Y-84708390D02*
X131869160Y-84851247D01*
X131869160Y-84851247D02*
X131916779Y-85041723D01*
X131916779Y-85041723D02*
X131964398Y-85136961D01*
X131964398Y-85136961D02*
X132059636Y-85232200D01*
X132059636Y-85232200D02*
X132202493Y-85279819D01*
X132202493Y-85279819D02*
X132297731Y-85279819D01*
X132297731Y-85279819D02*
X132440588Y-85232200D01*
X132440588Y-85232200D02*
X132488207Y-85184580D01*
X132488207Y-85184580D02*
X132488207Y-84851247D01*
X132488207Y-84851247D02*
X132297731Y-84851247D01*
X132916779Y-84613152D02*
X132916779Y-85279819D01*
X132916779Y-84708390D02*
X132964398Y-84660771D01*
X132964398Y-84660771D02*
X133059636Y-84613152D01*
X133059636Y-84613152D02*
X133202493Y-84613152D01*
X133202493Y-84613152D02*
X133297731Y-84660771D01*
X133297731Y-84660771D02*
X133345350Y-84756009D01*
X133345350Y-84756009D02*
X133345350Y-85279819D01*
X134250112Y-85279819D02*
X134250112Y-84279819D01*
X134250112Y-85232200D02*
X134154874Y-85279819D01*
X134154874Y-85279819D02*
X133964398Y-85279819D01*
X133964398Y-85279819D02*
X133869160Y-85232200D01*
X133869160Y-85232200D02*
X133821541Y-85184580D01*
X133821541Y-85184580D02*
X133773922Y-85089342D01*
X133773922Y-85089342D02*
X133773922Y-84803628D01*
X133773922Y-84803628D02*
X133821541Y-84708390D01*
X133821541Y-84708390D02*
X133869160Y-84660771D01*
X133869160Y-84660771D02*
X133964398Y-84613152D01*
X133964398Y-84613152D02*
X134154874Y-84613152D01*
X134154874Y-84613152D02*
X134250112Y-84660771D01*
X125135588Y-93117438D02*
X125040350Y-93069819D01*
X125040350Y-93069819D02*
X124897493Y-93069819D01*
X124897493Y-93069819D02*
X124754636Y-93117438D01*
X124754636Y-93117438D02*
X124659398Y-93212676D01*
X124659398Y-93212676D02*
X124611779Y-93307914D01*
X124611779Y-93307914D02*
X124564160Y-93498390D01*
X124564160Y-93498390D02*
X124564160Y-93641247D01*
X124564160Y-93641247D02*
X124611779Y-93831723D01*
X124611779Y-93831723D02*
X124659398Y-93926961D01*
X124659398Y-93926961D02*
X124754636Y-94022200D01*
X124754636Y-94022200D02*
X124897493Y-94069819D01*
X124897493Y-94069819D02*
X124992731Y-94069819D01*
X124992731Y-94069819D02*
X125135588Y-94022200D01*
X125135588Y-94022200D02*
X125183207Y-93974580D01*
X125183207Y-93974580D02*
X125183207Y-93641247D01*
X125183207Y-93641247D02*
X124992731Y-93641247D01*
X125611779Y-93403152D02*
X125611779Y-94069819D01*
X125611779Y-93498390D02*
X125659398Y-93450771D01*
X125659398Y-93450771D02*
X125754636Y-93403152D01*
X125754636Y-93403152D02*
X125897493Y-93403152D01*
X125897493Y-93403152D02*
X125992731Y-93450771D01*
X125992731Y-93450771D02*
X126040350Y-93546009D01*
X126040350Y-93546009D02*
X126040350Y-94069819D01*
X126945112Y-94069819D02*
X126945112Y-93069819D01*
X126945112Y-94022200D02*
X126849874Y-94069819D01*
X126849874Y-94069819D02*
X126659398Y-94069819D01*
X126659398Y-94069819D02*
X126564160Y-94022200D01*
X126564160Y-94022200D02*
X126516541Y-93974580D01*
X126516541Y-93974580D02*
X126468922Y-93879342D01*
X126468922Y-93879342D02*
X126468922Y-93593628D01*
X126468922Y-93593628D02*
X126516541Y-93498390D01*
X126516541Y-93498390D02*
X126564160Y-93450771D01*
X126564160Y-93450771D02*
X126659398Y-93403152D01*
X126659398Y-93403152D02*
X126849874Y-93403152D01*
X126849874Y-93403152D02*
X126945112Y-93450771D01*
X128230827Y-94069819D02*
X128421303Y-94069819D01*
X128421303Y-94069819D02*
X128516541Y-94022200D01*
X128516541Y-94022200D02*
X128564160Y-93974580D01*
X128564160Y-93974580D02*
X128659398Y-93831723D01*
X128659398Y-93831723D02*
X128707017Y-93641247D01*
X128707017Y-93641247D02*
X128707017Y-93260295D01*
X128707017Y-93260295D02*
X128659398Y-93165057D01*
X128659398Y-93165057D02*
X128611779Y-93117438D01*
X128611779Y-93117438D02*
X128516541Y-93069819D01*
X128516541Y-93069819D02*
X128326065Y-93069819D01*
X128326065Y-93069819D02*
X128230827Y-93117438D01*
X128230827Y-93117438D02*
X128183208Y-93165057D01*
X128183208Y-93165057D02*
X128135589Y-93260295D01*
X128135589Y-93260295D02*
X128135589Y-93498390D01*
X128135589Y-93498390D02*
X128183208Y-93593628D01*
X128183208Y-93593628D02*
X128230827Y-93641247D01*
X128230827Y-93641247D02*
X128326065Y-93688866D01*
X128326065Y-93688866D02*
X128516541Y-93688866D01*
X128516541Y-93688866D02*
X128611779Y-93641247D01*
X128611779Y-93641247D02*
X128659398Y-93593628D01*
X128659398Y-93593628D02*
X128707017Y-93498390D01*
X128992732Y-93069819D02*
X129326065Y-94069819D01*
X129326065Y-94069819D02*
X129659398Y-93069819D01*
X182388333Y-103828866D02*
X182388333Y-104828866D01*
X182388333Y-104828866D02*
X182321666Y-105028866D01*
X182321666Y-105028866D02*
X182188333Y-105162200D01*
X182188333Y-105162200D02*
X181988333Y-105228866D01*
X181988333Y-105228866D02*
X181855000Y-105228866D01*
X183721667Y-103828866D02*
X183055000Y-103828866D01*
X183055000Y-103828866D02*
X182988333Y-104495533D01*
X182988333Y-104495533D02*
X183055000Y-104428866D01*
X183055000Y-104428866D02*
X183188333Y-104362200D01*
X183188333Y-104362200D02*
X183521667Y-104362200D01*
X183521667Y-104362200D02*
X183655000Y-104428866D01*
X183655000Y-104428866D02*
X183721667Y-104495533D01*
X183721667Y-104495533D02*
X183788333Y-104628866D01*
X183788333Y-104628866D02*
X183788333Y-104962200D01*
X183788333Y-104962200D02*
X183721667Y-105095533D01*
X183721667Y-105095533D02*
X183655000Y-105162200D01*
X183655000Y-105162200D02*
X183521667Y-105228866D01*
X183521667Y-105228866D02*
X183188333Y-105228866D01*
X183188333Y-105228866D02*
X183055000Y-105162200D01*
X183055000Y-105162200D02*
X182988333Y-105095533D01*
X150254819Y-84495238D02*
X149778628Y-84828571D01*
X150254819Y-85066666D02*
X149254819Y-85066666D01*
X149254819Y-85066666D02*
X149254819Y-84685714D01*
X149254819Y-84685714D02*
X149302438Y-84590476D01*
X149302438Y-84590476D02*
X149350057Y-84542857D01*
X149350057Y-84542857D02*
X149445295Y-84495238D01*
X149445295Y-84495238D02*
X149588152Y-84495238D01*
X149588152Y-84495238D02*
X149683390Y-84542857D01*
X149683390Y-84542857D02*
X149731009Y-84590476D01*
X149731009Y-84590476D02*
X149778628Y-84685714D01*
X149778628Y-84685714D02*
X149778628Y-85066666D01*
X150254819Y-84066666D02*
X149588152Y-84066666D01*
X149254819Y-84066666D02*
X149302438Y-84114285D01*
X149302438Y-84114285D02*
X149350057Y-84066666D01*
X149350057Y-84066666D02*
X149302438Y-84019047D01*
X149302438Y-84019047D02*
X149254819Y-84066666D01*
X149254819Y-84066666D02*
X149350057Y-84066666D01*
X149588152Y-83161905D02*
X150397676Y-83161905D01*
X150397676Y-83161905D02*
X150492914Y-83209524D01*
X150492914Y-83209524D02*
X150540533Y-83257143D01*
X150540533Y-83257143D02*
X150588152Y-83352381D01*
X150588152Y-83352381D02*
X150588152Y-83495238D01*
X150588152Y-83495238D02*
X150540533Y-83590476D01*
X150207200Y-83161905D02*
X150254819Y-83257143D01*
X150254819Y-83257143D02*
X150254819Y-83447619D01*
X150254819Y-83447619D02*
X150207200Y-83542857D01*
X150207200Y-83542857D02*
X150159580Y-83590476D01*
X150159580Y-83590476D02*
X150064342Y-83638095D01*
X150064342Y-83638095D02*
X149778628Y-83638095D01*
X149778628Y-83638095D02*
X149683390Y-83590476D01*
X149683390Y-83590476D02*
X149635771Y-83542857D01*
X149635771Y-83542857D02*
X149588152Y-83447619D01*
X149588152Y-83447619D02*
X149588152Y-83257143D01*
X149588152Y-83257143D02*
X149635771Y-83161905D01*
X150254819Y-82685714D02*
X149254819Y-82685714D01*
X150254819Y-82257143D02*
X149731009Y-82257143D01*
X149731009Y-82257143D02*
X149635771Y-82304762D01*
X149635771Y-82304762D02*
X149588152Y-82400000D01*
X149588152Y-82400000D02*
X149588152Y-82542857D01*
X149588152Y-82542857D02*
X149635771Y-82638095D01*
X149635771Y-82638095D02*
X149683390Y-82685714D01*
X149588152Y-81923809D02*
X149588152Y-81542857D01*
X149254819Y-81780952D02*
X150111961Y-81780952D01*
X150111961Y-81780952D02*
X150207200Y-81733333D01*
X150207200Y-81733333D02*
X150254819Y-81638095D01*
X150254819Y-81638095D02*
X150254819Y-81542857D01*
X150254819Y-80685714D02*
X150254819Y-81257142D01*
X150254819Y-80971428D02*
X149254819Y-80971428D01*
X149254819Y-80971428D02*
X149397676Y-81066666D01*
X149397676Y-81066666D02*
X149492914Y-81161904D01*
X149492914Y-81161904D02*
X149540533Y-81257142D01*
X161588333Y-103928866D02*
X161588333Y-104928866D01*
X161588333Y-104928866D02*
X161521666Y-105128866D01*
X161521666Y-105128866D02*
X161388333Y-105262200D01*
X161388333Y-105262200D02*
X161188333Y-105328866D01*
X161188333Y-105328866D02*
X161055000Y-105328866D01*
X162855000Y-104395533D02*
X162855000Y-105328866D01*
X162521667Y-103862200D02*
X162188333Y-104862200D01*
X162188333Y-104862200D02*
X163055000Y-104862200D01*
X136833332Y-91454819D02*
X136357142Y-91454819D01*
X136357142Y-91454819D02*
X136357142Y-90454819D01*
X137547618Y-91407200D02*
X137452380Y-91454819D01*
X137452380Y-91454819D02*
X137261904Y-91454819D01*
X137261904Y-91454819D02*
X137166666Y-91407200D01*
X137166666Y-91407200D02*
X137119047Y-91311961D01*
X137119047Y-91311961D02*
X137119047Y-90931009D01*
X137119047Y-90931009D02*
X137166666Y-90835771D01*
X137166666Y-90835771D02*
X137261904Y-90788152D01*
X137261904Y-90788152D02*
X137452380Y-90788152D01*
X137452380Y-90788152D02*
X137547618Y-90835771D01*
X137547618Y-90835771D02*
X137595237Y-90931009D01*
X137595237Y-90931009D02*
X137595237Y-91026247D01*
X137595237Y-91026247D02*
X137119047Y-91121485D01*
X137880952Y-90788152D02*
X138261904Y-90788152D01*
X138023809Y-91454819D02*
X138023809Y-90597676D01*
X138023809Y-90597676D02*
X138071428Y-90502438D01*
X138071428Y-90502438D02*
X138166666Y-90454819D01*
X138166666Y-90454819D02*
X138261904Y-90454819D01*
X138452381Y-90788152D02*
X138833333Y-90788152D01*
X138595238Y-90454819D02*
X138595238Y-91311961D01*
X138595238Y-91311961D02*
X138642857Y-91407200D01*
X138642857Y-91407200D02*
X138738095Y-91454819D01*
X138738095Y-91454819D02*
X138833333Y-91454819D01*
X139166667Y-91454819D02*
X139166667Y-90454819D01*
X139166667Y-90454819D02*
X139547619Y-90454819D01*
X139547619Y-90454819D02*
X139642857Y-90502438D01*
X139642857Y-90502438D02*
X139690476Y-90550057D01*
X139690476Y-90550057D02*
X139738095Y-90645295D01*
X139738095Y-90645295D02*
X139738095Y-90788152D01*
X139738095Y-90788152D02*
X139690476Y-90883390D01*
X139690476Y-90883390D02*
X139642857Y-90931009D01*
X139642857Y-90931009D02*
X139547619Y-90978628D01*
X139547619Y-90978628D02*
X139166667Y-90978628D01*
X140166667Y-91454819D02*
X140166667Y-90454819D01*
X140166667Y-90454819D02*
X140404762Y-90454819D01*
X140404762Y-90454819D02*
X140547619Y-90502438D01*
X140547619Y-90502438D02*
X140642857Y-90597676D01*
X140642857Y-90597676D02*
X140690476Y-90692914D01*
X140690476Y-90692914D02*
X140738095Y-90883390D01*
X140738095Y-90883390D02*
X140738095Y-91026247D01*
X140738095Y-91026247D02*
X140690476Y-91216723D01*
X140690476Y-91216723D02*
X140642857Y-91311961D01*
X140642857Y-91311961D02*
X140547619Y-91407200D01*
X140547619Y-91407200D02*
X140404762Y-91454819D01*
X140404762Y-91454819D02*
X140166667Y-91454819D01*
X141690476Y-91454819D02*
X141119048Y-91454819D01*
X141404762Y-91454819D02*
X141404762Y-90454819D01*
X141404762Y-90454819D02*
X141309524Y-90597676D01*
X141309524Y-90597676D02*
X141214286Y-90692914D01*
X141214286Y-90692914D02*
X141119048Y-90740533D01*
X128100057Y-90750000D02*
X128052438Y-90845238D01*
X128052438Y-90845238D02*
X127957200Y-90940476D01*
X127957200Y-90940476D02*
X127814342Y-91083333D01*
X127814342Y-91083333D02*
X127766723Y-91178571D01*
X127766723Y-91178571D02*
X127766723Y-91273809D01*
X128004819Y-91226190D02*
X127957200Y-91321428D01*
X127957200Y-91321428D02*
X127861961Y-91416666D01*
X127861961Y-91416666D02*
X127671485Y-91464285D01*
X127671485Y-91464285D02*
X127338152Y-91464285D01*
X127338152Y-91464285D02*
X127147676Y-91416666D01*
X127147676Y-91416666D02*
X127052438Y-91321428D01*
X127052438Y-91321428D02*
X127004819Y-91226190D01*
X127004819Y-91226190D02*
X127004819Y-91035714D01*
X127004819Y-91035714D02*
X127052438Y-90940476D01*
X127052438Y-90940476D02*
X127147676Y-90845238D01*
X127147676Y-90845238D02*
X127338152Y-90797619D01*
X127338152Y-90797619D02*
X127671485Y-90797619D01*
X127671485Y-90797619D02*
X127861961Y-90845238D01*
X127861961Y-90845238D02*
X127957200Y-90940476D01*
X127957200Y-90940476D02*
X128004819Y-91035714D01*
X128004819Y-91035714D02*
X128004819Y-91226190D01*
X128004819Y-89892857D02*
X128004819Y-90369047D01*
X128004819Y-90369047D02*
X127004819Y-90369047D01*
X128004819Y-89035714D02*
X128004819Y-89607142D01*
X128004819Y-89321428D02*
X127004819Y-89321428D01*
X127004819Y-89321428D02*
X127147676Y-89416666D01*
X127147676Y-89416666D02*
X127242914Y-89511904D01*
X127242914Y-89511904D02*
X127290533Y-89607142D01*
X139956905Y-76894819D02*
X139956905Y-75894819D01*
X139956905Y-75894819D02*
X140195000Y-75894819D01*
X140195000Y-75894819D02*
X140337857Y-75942438D01*
X140337857Y-75942438D02*
X140433095Y-76037676D01*
X140433095Y-76037676D02*
X140480714Y-76132914D01*
X140480714Y-76132914D02*
X140528333Y-76323390D01*
X140528333Y-76323390D02*
X140528333Y-76466247D01*
X140528333Y-76466247D02*
X140480714Y-76656723D01*
X140480714Y-76656723D02*
X140433095Y-76751961D01*
X140433095Y-76751961D02*
X140337857Y-76847200D01*
X140337857Y-76847200D02*
X140195000Y-76894819D01*
X140195000Y-76894819D02*
X139956905Y-76894819D01*
X141480714Y-76894819D02*
X140909286Y-76894819D01*
X141195000Y-76894819D02*
X141195000Y-75894819D01*
X141195000Y-75894819D02*
X141099762Y-76037676D01*
X141099762Y-76037676D02*
X141004524Y-76132914D01*
X141004524Y-76132914D02*
X140909286Y-76180533D01*
X126671666Y-97984819D02*
X126671666Y-98699104D01*
X126671666Y-98699104D02*
X126624047Y-98841961D01*
X126624047Y-98841961D02*
X126528809Y-98937200D01*
X126528809Y-98937200D02*
X126385952Y-98984819D01*
X126385952Y-98984819D02*
X126290714Y-98984819D01*
X127052619Y-97984819D02*
X127671666Y-97984819D01*
X127671666Y-97984819D02*
X127338333Y-98365771D01*
X127338333Y-98365771D02*
X127481190Y-98365771D01*
X127481190Y-98365771D02*
X127576428Y-98413390D01*
X127576428Y-98413390D02*
X127624047Y-98461009D01*
X127624047Y-98461009D02*
X127671666Y-98556247D01*
X127671666Y-98556247D02*
X127671666Y-98794342D01*
X127671666Y-98794342D02*
X127624047Y-98889580D01*
X127624047Y-98889580D02*
X127576428Y-98937200D01*
X127576428Y-98937200D02*
X127481190Y-98984819D01*
X127481190Y-98984819D02*
X127195476Y-98984819D01*
X127195476Y-98984819D02*
X127100238Y-98937200D01*
X127100238Y-98937200D02*
X127052619Y-98889580D01*
X139047618Y-95204819D02*
X138714285Y-94728628D01*
X138476190Y-95204819D02*
X138476190Y-94204819D01*
X138476190Y-94204819D02*
X138857142Y-94204819D01*
X138857142Y-94204819D02*
X138952380Y-94252438D01*
X138952380Y-94252438D02*
X138999999Y-94300057D01*
X138999999Y-94300057D02*
X139047618Y-94395295D01*
X139047618Y-94395295D02*
X139047618Y-94538152D01*
X139047618Y-94538152D02*
X138999999Y-94633390D01*
X138999999Y-94633390D02*
X138952380Y-94681009D01*
X138952380Y-94681009D02*
X138857142Y-94728628D01*
X138857142Y-94728628D02*
X138476190Y-94728628D01*
X139952380Y-95204819D02*
X139476190Y-95204819D01*
X139476190Y-95204819D02*
X139476190Y-94204819D01*
X140666666Y-95157200D02*
X140571428Y-95204819D01*
X140571428Y-95204819D02*
X140380952Y-95204819D01*
X140380952Y-95204819D02*
X140285714Y-95157200D01*
X140285714Y-95157200D02*
X140238095Y-95061961D01*
X140238095Y-95061961D02*
X140238095Y-94681009D01*
X140238095Y-94681009D02*
X140285714Y-94585771D01*
X140285714Y-94585771D02*
X140380952Y-94538152D01*
X140380952Y-94538152D02*
X140571428Y-94538152D01*
X140571428Y-94538152D02*
X140666666Y-94585771D01*
X140666666Y-94585771D02*
X140714285Y-94681009D01*
X140714285Y-94681009D02*
X140714285Y-94776247D01*
X140714285Y-94776247D02*
X140238095Y-94871485D01*
X141571428Y-95204819D02*
X141571428Y-94204819D01*
X141571428Y-95157200D02*
X141476190Y-95204819D01*
X141476190Y-95204819D02*
X141285714Y-95204819D01*
X141285714Y-95204819D02*
X141190476Y-95157200D01*
X141190476Y-95157200D02*
X141142857Y-95109580D01*
X141142857Y-95109580D02*
X141095238Y-95014342D01*
X141095238Y-95014342D02*
X141095238Y-94728628D01*
X141095238Y-94728628D02*
X141142857Y-94633390D01*
X141142857Y-94633390D02*
X141190476Y-94585771D01*
X141190476Y-94585771D02*
X141285714Y-94538152D01*
X141285714Y-94538152D02*
X141476190Y-94538152D01*
X141476190Y-94538152D02*
X141571428Y-94585771D01*
X142571428Y-95204819D02*
X142000000Y-95204819D01*
X142285714Y-95204819D02*
X142285714Y-94204819D01*
X142285714Y-94204819D02*
X142190476Y-94347676D01*
X142190476Y-94347676D02*
X142095238Y-94442914D01*
X142095238Y-94442914D02*
X142000000Y-94490533D01*
X171354819Y-86771548D02*
X171354819Y-87247738D01*
X171354819Y-87247738D02*
X170354819Y-87247738D01*
X171307200Y-86057262D02*
X171354819Y-86152500D01*
X171354819Y-86152500D02*
X171354819Y-86342976D01*
X171354819Y-86342976D02*
X171307200Y-86438214D01*
X171307200Y-86438214D02*
X171211961Y-86485833D01*
X171211961Y-86485833D02*
X170831009Y-86485833D01*
X170831009Y-86485833D02*
X170735771Y-86438214D01*
X170735771Y-86438214D02*
X170688152Y-86342976D01*
X170688152Y-86342976D02*
X170688152Y-86152500D01*
X170688152Y-86152500D02*
X170735771Y-86057262D01*
X170735771Y-86057262D02*
X170831009Y-86009643D01*
X170831009Y-86009643D02*
X170926247Y-86009643D01*
X170926247Y-86009643D02*
X171021485Y-86485833D01*
X170688152Y-85723928D02*
X170688152Y-85342976D01*
X171354819Y-85581071D02*
X170497676Y-85581071D01*
X170497676Y-85581071D02*
X170402438Y-85533452D01*
X170402438Y-85533452D02*
X170354819Y-85438214D01*
X170354819Y-85438214D02*
X170354819Y-85342976D01*
X170688152Y-85152499D02*
X170688152Y-84771547D01*
X170354819Y-85009642D02*
X171211961Y-85009642D01*
X171211961Y-85009642D02*
X171307200Y-84962023D01*
X171307200Y-84962023D02*
X171354819Y-84866785D01*
X171354819Y-84866785D02*
X171354819Y-84771547D01*
X170307200Y-83723928D02*
X171592914Y-84581070D01*
X171354819Y-83390594D02*
X170354819Y-83390594D01*
X170354819Y-83390594D02*
X171069104Y-83057261D01*
X171069104Y-83057261D02*
X170354819Y-82723928D01*
X170354819Y-82723928D02*
X171354819Y-82723928D01*
X171354819Y-82104880D02*
X171307200Y-82200118D01*
X171307200Y-82200118D02*
X171259580Y-82247737D01*
X171259580Y-82247737D02*
X171164342Y-82295356D01*
X171164342Y-82295356D02*
X170878628Y-82295356D01*
X170878628Y-82295356D02*
X170783390Y-82247737D01*
X170783390Y-82247737D02*
X170735771Y-82200118D01*
X170735771Y-82200118D02*
X170688152Y-82104880D01*
X170688152Y-82104880D02*
X170688152Y-81962023D01*
X170688152Y-81962023D02*
X170735771Y-81866785D01*
X170735771Y-81866785D02*
X170783390Y-81819166D01*
X170783390Y-81819166D02*
X170878628Y-81771547D01*
X170878628Y-81771547D02*
X171164342Y-81771547D01*
X171164342Y-81771547D02*
X171259580Y-81819166D01*
X171259580Y-81819166D02*
X171307200Y-81866785D01*
X171307200Y-81866785D02*
X171354819Y-81962023D01*
X171354819Y-81962023D02*
X171354819Y-82104880D01*
X170688152Y-81342975D02*
X171354819Y-81342975D01*
X170783390Y-81342975D02*
X170735771Y-81295356D01*
X170735771Y-81295356D02*
X170688152Y-81200118D01*
X170688152Y-81200118D02*
X170688152Y-81057261D01*
X170688152Y-81057261D02*
X170735771Y-80962023D01*
X170735771Y-80962023D02*
X170831009Y-80914404D01*
X170831009Y-80914404D02*
X171354819Y-80914404D01*
X171354819Y-80295356D02*
X171307200Y-80390594D01*
X171307200Y-80390594D02*
X171259580Y-80438213D01*
X171259580Y-80438213D02*
X171164342Y-80485832D01*
X171164342Y-80485832D02*
X170878628Y-80485832D01*
X170878628Y-80485832D02*
X170783390Y-80438213D01*
X170783390Y-80438213D02*
X170735771Y-80390594D01*
X170735771Y-80390594D02*
X170688152Y-80295356D01*
X170688152Y-80295356D02*
X170688152Y-80152499D01*
X170688152Y-80152499D02*
X170735771Y-80057261D01*
X170735771Y-80057261D02*
X170783390Y-80009642D01*
X170783390Y-80009642D02*
X170878628Y-79962023D01*
X170878628Y-79962023D02*
X171164342Y-79962023D01*
X171164342Y-79962023D02*
X171259580Y-80009642D01*
X171259580Y-80009642D02*
X171307200Y-80057261D01*
X171307200Y-80057261D02*
X171354819Y-80152499D01*
X171354819Y-80152499D02*
X171354819Y-80295356D01*
X171354819Y-79009642D02*
X171354819Y-79581070D01*
X171354819Y-79295356D02*
X170354819Y-79295356D01*
X170354819Y-79295356D02*
X170497676Y-79390594D01*
X170497676Y-79390594D02*
X170592914Y-79485832D01*
X170592914Y-79485832D02*
X170640533Y-79581070D01*
X138938095Y-95429819D02*
X138938095Y-96239342D01*
X138938095Y-96239342D02*
X138985714Y-96334580D01*
X138985714Y-96334580D02*
X139033333Y-96382200D01*
X139033333Y-96382200D02*
X139128571Y-96429819D01*
X139128571Y-96429819D02*
X139319047Y-96429819D01*
X139319047Y-96429819D02*
X139414285Y-96382200D01*
X139414285Y-96382200D02*
X139461904Y-96334580D01*
X139461904Y-96334580D02*
X139509523Y-96239342D01*
X139509523Y-96239342D02*
X139509523Y-95429819D01*
X140509523Y-96429819D02*
X139938095Y-96429819D01*
X140223809Y-96429819D02*
X140223809Y-95429819D01*
X140223809Y-95429819D02*
X140128571Y-95572676D01*
X140128571Y-95572676D02*
X140033333Y-95667914D01*
X140033333Y-95667914D02*
X139938095Y-95715533D01*
X124071429Y-87509819D02*
X124071429Y-86509819D01*
X124547619Y-86843152D02*
X124547619Y-87509819D01*
X124547619Y-86938390D02*
X124595238Y-86890771D01*
X124595238Y-86890771D02*
X124690476Y-86843152D01*
X124690476Y-86843152D02*
X124833333Y-86843152D01*
X124833333Y-86843152D02*
X124928571Y-86890771D01*
X124928571Y-86890771D02*
X124976190Y-86986009D01*
X124976190Y-86986009D02*
X124976190Y-87509819D01*
X125976190Y-87509819D02*
X125404762Y-87509819D01*
X125690476Y-87509819D02*
X125690476Y-86509819D01*
X125690476Y-86509819D02*
X125595238Y-86652676D01*
X125595238Y-86652676D02*
X125500000Y-86747914D01*
X125500000Y-86747914D02*
X125404762Y-86795533D01*
X123224819Y-90333333D02*
X123939104Y-90333333D01*
X123939104Y-90333333D02*
X124081961Y-90380952D01*
X124081961Y-90380952D02*
X124177200Y-90476190D01*
X124177200Y-90476190D02*
X124224819Y-90619047D01*
X124224819Y-90619047D02*
X124224819Y-90714285D01*
X124224819Y-89333333D02*
X124224819Y-89904761D01*
X124224819Y-89619047D02*
X123224819Y-89619047D01*
X123224819Y-89619047D02*
X123367676Y-89714285D01*
X123367676Y-89714285D02*
X123462914Y-89809523D01*
X123462914Y-89809523D02*
X123510533Y-89904761D01*
X137166666Y-87954819D02*
X136690476Y-87954819D01*
X136690476Y-87954819D02*
X136690476Y-86954819D01*
X138023809Y-87002438D02*
X137928571Y-86954819D01*
X137928571Y-86954819D02*
X137785714Y-86954819D01*
X137785714Y-86954819D02*
X137642857Y-87002438D01*
X137642857Y-87002438D02*
X137547619Y-87097676D01*
X137547619Y-87097676D02*
X137500000Y-87192914D01*
X137500000Y-87192914D02*
X137452381Y-87383390D01*
X137452381Y-87383390D02*
X137452381Y-87526247D01*
X137452381Y-87526247D02*
X137500000Y-87716723D01*
X137500000Y-87716723D02*
X137547619Y-87811961D01*
X137547619Y-87811961D02*
X137642857Y-87907200D01*
X137642857Y-87907200D02*
X137785714Y-87954819D01*
X137785714Y-87954819D02*
X137880952Y-87954819D01*
X137880952Y-87954819D02*
X138023809Y-87907200D01*
X138023809Y-87907200D02*
X138071428Y-87859580D01*
X138071428Y-87859580D02*
X138071428Y-87526247D01*
X138071428Y-87526247D02*
X137880952Y-87526247D01*
X138928571Y-87954819D02*
X138928571Y-87431009D01*
X138928571Y-87431009D02*
X138880952Y-87335771D01*
X138880952Y-87335771D02*
X138785714Y-87288152D01*
X138785714Y-87288152D02*
X138595238Y-87288152D01*
X138595238Y-87288152D02*
X138500000Y-87335771D01*
X138928571Y-87907200D02*
X138833333Y-87954819D01*
X138833333Y-87954819D02*
X138595238Y-87954819D01*
X138595238Y-87954819D02*
X138500000Y-87907200D01*
X138500000Y-87907200D02*
X138452381Y-87811961D01*
X138452381Y-87811961D02*
X138452381Y-87716723D01*
X138452381Y-87716723D02*
X138500000Y-87621485D01*
X138500000Y-87621485D02*
X138595238Y-87573866D01*
X138595238Y-87573866D02*
X138833333Y-87573866D01*
X138833333Y-87573866D02*
X138928571Y-87526247D01*
X139261905Y-87288152D02*
X139642857Y-87288152D01*
X139404762Y-86954819D02*
X139404762Y-87811961D01*
X139404762Y-87811961D02*
X139452381Y-87907200D01*
X139452381Y-87907200D02*
X139547619Y-87954819D01*
X139547619Y-87954819D02*
X139642857Y-87954819D01*
X140357143Y-87907200D02*
X140261905Y-87954819D01*
X140261905Y-87954819D02*
X140071429Y-87954819D01*
X140071429Y-87954819D02*
X139976191Y-87907200D01*
X139976191Y-87907200D02*
X139928572Y-87811961D01*
X139928572Y-87811961D02*
X139928572Y-87431009D01*
X139928572Y-87431009D02*
X139976191Y-87335771D01*
X139976191Y-87335771D02*
X140071429Y-87288152D01*
X140071429Y-87288152D02*
X140261905Y-87288152D01*
X140261905Y-87288152D02*
X140357143Y-87335771D01*
X140357143Y-87335771D02*
X140404762Y-87431009D01*
X140404762Y-87431009D02*
X140404762Y-87526247D01*
X140404762Y-87526247D02*
X139928572Y-87621485D01*
X141357143Y-87954819D02*
X140785715Y-87954819D01*
X141071429Y-87954819D02*
X141071429Y-86954819D01*
X141071429Y-86954819D02*
X140976191Y-87097676D01*
X140976191Y-87097676D02*
X140880953Y-87192914D01*
X140880953Y-87192914D02*
X140785715Y-87240533D01*
X126671666Y-101984819D02*
X126671666Y-102699104D01*
X126671666Y-102699104D02*
X126624047Y-102841961D01*
X126624047Y-102841961D02*
X126528809Y-102937200D01*
X126528809Y-102937200D02*
X126385952Y-102984819D01*
X126385952Y-102984819D02*
X126290714Y-102984819D01*
X127100238Y-102080057D02*
X127147857Y-102032438D01*
X127147857Y-102032438D02*
X127243095Y-101984819D01*
X127243095Y-101984819D02*
X127481190Y-101984819D01*
X127481190Y-101984819D02*
X127576428Y-102032438D01*
X127576428Y-102032438D02*
X127624047Y-102080057D01*
X127624047Y-102080057D02*
X127671666Y-102175295D01*
X127671666Y-102175295D02*
X127671666Y-102270533D01*
X127671666Y-102270533D02*
X127624047Y-102413390D01*
X127624047Y-102413390D02*
X127052619Y-102984819D01*
X127052619Y-102984819D02*
X127671666Y-102984819D01*
X128940476Y-86509819D02*
X129130952Y-86509819D01*
X129130952Y-86509819D02*
X129226190Y-86557438D01*
X129226190Y-86557438D02*
X129321428Y-86652676D01*
X129321428Y-86652676D02*
X129369047Y-86843152D01*
X129369047Y-86843152D02*
X129369047Y-87176485D01*
X129369047Y-87176485D02*
X129321428Y-87366961D01*
X129321428Y-87366961D02*
X129226190Y-87462200D01*
X129226190Y-87462200D02*
X129130952Y-87509819D01*
X129130952Y-87509819D02*
X128940476Y-87509819D01*
X128940476Y-87509819D02*
X128845238Y-87462200D01*
X128845238Y-87462200D02*
X128750000Y-87366961D01*
X128750000Y-87366961D02*
X128702381Y-87176485D01*
X128702381Y-87176485D02*
X128702381Y-86843152D01*
X128702381Y-86843152D02*
X128750000Y-86652676D01*
X128750000Y-86652676D02*
X128845238Y-86557438D01*
X128845238Y-86557438D02*
X128940476Y-86509819D01*
X130226190Y-86843152D02*
X130226190Y-87509819D01*
X129797619Y-86843152D02*
X129797619Y-87366961D01*
X129797619Y-87366961D02*
X129845238Y-87462200D01*
X129845238Y-87462200D02*
X129940476Y-87509819D01*
X129940476Y-87509819D02*
X130083333Y-87509819D01*
X130083333Y-87509819D02*
X130178571Y-87462200D01*
X130178571Y-87462200D02*
X130226190Y-87414580D01*
X130559524Y-86843152D02*
X130940476Y-86843152D01*
X130702381Y-86509819D02*
X130702381Y-87366961D01*
X130702381Y-87366961D02*
X130750000Y-87462200D01*
X130750000Y-87462200D02*
X130845238Y-87509819D01*
X130845238Y-87509819D02*
X130940476Y-87509819D01*
X131797619Y-87509819D02*
X131226191Y-87509819D01*
X131511905Y-87509819D02*
X131511905Y-86509819D01*
X131511905Y-86509819D02*
X131416667Y-86652676D01*
X131416667Y-86652676D02*
X131321429Y-86747914D01*
X131321429Y-86747914D02*
X131226191Y-86795533D01*
D11*
%TO.C,J5*%
X186300000Y-93700000D02*
X186300000Y-102700000D01*
X166300000Y-102700000D02*
X166300000Y-93700000D01*
X186300000Y-102700000D02*
X166300000Y-102700000D01*
X166300000Y-93700000D02*
X186300000Y-93700000D01*
D12*
X183900000Y-92700000D02*
G75*
G03*
X183900000Y-92700000I-100000J0D01*
G01*
D13*
%TO.C,Right1*%
X165132500Y-78062500D02*
X144542500Y-78062500D01*
X144542500Y-78062500D02*
X144542500Y-88442500D01*
X145602500Y-81762500D02*
X144542500Y-81762500D01*
X146952500Y-82892500D02*
X145752500Y-82892500D01*
X146382500Y-82892500D02*
X146382500Y-81792500D01*
X145752500Y-82892500D02*
X145752500Y-83592500D01*
X146952500Y-83592500D02*
X146952500Y-82892500D01*
X146552500Y-83592500D02*
X146152500Y-82892500D01*
X146382500Y-83592500D02*
X146382500Y-84692500D01*
X145752500Y-83592500D02*
X146952500Y-83592500D01*
X145602500Y-84762500D02*
X145602500Y-81762500D01*
X144542500Y-84762500D02*
X145582500Y-84762500D01*
X165132500Y-88442500D02*
X165132500Y-78062500D01*
X144542500Y-88442500D02*
X165132500Y-88442500D01*
X145692500Y-88602500D02*
X144392500Y-88602500D01*
X144392500Y-88602500D02*
X144392500Y-87392500D01*
D11*
%TO.C,J4*%
X165500000Y-93800000D02*
X165500000Y-102800000D01*
X145500000Y-102800000D02*
X145500000Y-93800000D01*
X165500000Y-102800000D02*
X145500000Y-102800000D01*
X145500000Y-93800000D02*
X165500000Y-93800000D01*
D12*
X163100000Y-92800000D02*
G75*
G03*
X163100000Y-92800000I-100000J0D01*
G01*
D13*
%TO.C,LeftPD1*%
X142270000Y-92370000D02*
X135730000Y-92370000D01*
X142270000Y-92040000D02*
X142270000Y-92370000D01*
X142270000Y-89960000D02*
X142270000Y-89630000D01*
X142270000Y-89630000D02*
X135730000Y-89630000D01*
X135730000Y-92370000D02*
X135730000Y-92040000D01*
X135730000Y-89630000D02*
X135730000Y-89960000D01*
%TO.C,QL1*%
X132960000Y-92050000D02*
X132960000Y-88450000D01*
X128510000Y-90250000D02*
G75*
G03*
X132948478Y-92088478I2600000J0D01*
G01*
X132948478Y-88411522D02*
G75*
G03*
X128510000Y-90250000I-1838478J-1838478D01*
G01*
%TO.C,D1*%
X138135000Y-78855000D02*
X138135000Y-81945000D01*
X143684999Y-80400462D02*
G75*
G03*
X138135001Y-78855170I-2989999J462D01*
G01*
X138135000Y-81944830D02*
G75*
G03*
X143685000Y-80399538I2560000J1544830D01*
G01*
X143195000Y-80400000D02*
G75*
G03*
X143195000Y-80400000I-2500000J0D01*
G01*
%TO.C,J3*%
X129605000Y-97530000D02*
X128275000Y-97530000D01*
X129605000Y-96200000D02*
X129605000Y-97530000D01*
X129605000Y-94930000D02*
X129605000Y-94870000D01*
X129605000Y-94930000D02*
X127005000Y-94930000D01*
X129605000Y-94870000D02*
X124405000Y-94870000D01*
X127005000Y-97530000D02*
X124405000Y-97530000D01*
X127005000Y-94930000D02*
X127005000Y-97530000D01*
X124405000Y-97530000D02*
X124405000Y-94870000D01*
%TO.C,RLed1*%
X136730000Y-93380000D02*
X143270000Y-93380000D01*
X136730000Y-93710000D02*
X136730000Y-93380000D01*
X136730000Y-95790000D02*
X136730000Y-96120000D01*
X136730000Y-96120000D02*
X143270000Y-96120000D01*
X143270000Y-93380000D02*
X143270000Y-93710000D01*
X143270000Y-96120000D02*
X143270000Y-95790000D01*
%TO.C,Left/Mono1*%
X165492500Y-88502500D02*
X165492500Y-87292500D01*
X166792500Y-88502500D02*
X165492500Y-88502500D01*
X165642500Y-88342500D02*
X186232500Y-88342500D01*
X186232500Y-88342500D02*
X186232500Y-77962500D01*
X165642500Y-84662500D02*
X166682500Y-84662500D01*
X166702500Y-84662500D02*
X166702500Y-81662500D01*
X166852500Y-83492500D02*
X168052500Y-83492500D01*
X167482500Y-83492500D02*
X167482500Y-84592500D01*
X167652500Y-83492500D02*
X167252500Y-82792500D01*
X168052500Y-83492500D02*
X168052500Y-82792500D01*
X166852500Y-82792500D02*
X166852500Y-83492500D01*
X167482500Y-82792500D02*
X167482500Y-81692500D01*
X168052500Y-82792500D02*
X166852500Y-82792500D01*
X166702500Y-81662500D02*
X165642500Y-81662500D01*
X165642500Y-77962500D02*
X165642500Y-88342500D01*
X186232500Y-77962500D02*
X165642500Y-77962500D01*
%TO.C,U1*%
X134580000Y-96975000D02*
X134580000Y-101616000D01*
X134580000Y-96975000D02*
X144820000Y-96975000D01*
X134580000Y-98485000D02*
X144820000Y-98485000D01*
X134580000Y-101616000D02*
X144820000Y-101616000D01*
X137850000Y-96975000D02*
X137850000Y-98485000D01*
X141551000Y-96975000D02*
X141551000Y-98485000D01*
X144820000Y-96975000D02*
X144820000Y-101616000D01*
%TO.C,In1*%
X126330000Y-85410000D02*
X125000000Y-85410000D01*
X126330000Y-84080000D02*
X126330000Y-85410000D01*
X126330000Y-82810000D02*
X126330000Y-77670000D01*
X126330000Y-82810000D02*
X123670000Y-82810000D01*
X126330000Y-77670000D02*
X123670000Y-77670000D01*
X123670000Y-82810000D02*
X123670000Y-77670000D01*
%TO.C,J1*%
X124770000Y-91330000D02*
X124770000Y-90000000D01*
X126100000Y-91330000D02*
X124770000Y-91330000D01*
X127370000Y-91330000D02*
X127430000Y-91330000D01*
X127370000Y-91330000D02*
X127370000Y-88670000D01*
X127430000Y-91330000D02*
X127430000Y-88670000D01*
X127370000Y-88670000D02*
X127430000Y-88670000D01*
%TO.C,LGate1*%
X135730000Y-86130000D02*
X142270000Y-86130000D01*
X135730000Y-86460000D02*
X135730000Y-86130000D01*
X135730000Y-88540000D02*
X135730000Y-88870000D01*
X135730000Y-88870000D02*
X142270000Y-88870000D01*
X142270000Y-86130000D02*
X142270000Y-86460000D01*
X142270000Y-88870000D02*
X142270000Y-88540000D01*
%TO.C,J2*%
X129605000Y-101530000D02*
X128275000Y-101530000D01*
X129605000Y-100200000D02*
X129605000Y-101530000D01*
X129605000Y-98930000D02*
X129605000Y-98870000D01*
X129605000Y-98930000D02*
X127005000Y-98930000D01*
X129605000Y-98870000D02*
X124405000Y-98870000D01*
X127005000Y-101530000D02*
X124405000Y-101530000D01*
X127005000Y-98930000D02*
X127005000Y-101530000D01*
X124405000Y-101530000D02*
X124405000Y-98870000D01*
%TO.C,Out1*%
X131580000Y-85410000D02*
X130250000Y-85410000D01*
X131580000Y-84080000D02*
X131580000Y-85410000D01*
X131580000Y-82810000D02*
X131580000Y-77670000D01*
X131580000Y-82810000D02*
X128920000Y-82810000D01*
X131580000Y-77670000D02*
X128920000Y-77670000D01*
X128920000Y-82810000D02*
X128920000Y-77670000D01*
%TD*%
M02*
