M48
; DRILL file {KiCad 7.0.9} date Sun Jun  9 17:27:20 2024
; FORMAT={-:-/ absolute / inch / decimal}
; #@! TF.CreationDate,2024-06-09T17:27:20-04:00
; #@! TF.GenerationSoftware,Kicad,Pcbnew,7.0.9
; #@! TF.FileFunction,Plated,1,2,PTH
FMAT,2
INCH
; #@! TA.AperFunction,Plated,PTH,ComponentDrill
T1C0.0276
; #@! TA.AperFunction,Plated,PTH,ComponentDrill
T2C0.0295
; #@! TA.AperFunction,Plated,PTH,ComponentDrill
T3C0.0315
; #@! TA.AperFunction,Plated,PTH,ComponentDrill
T4C0.0354
; #@! TA.AperFunction,Plated,PTH,ComponentDrill
T5C0.0394
; #@! TA.AperFunction,Plated,PTH,ComponentDrill
T6C0.0433
; #@! TA.AperFunction,Plated,PTH,ComponentDrill
T7C0.0512
%
G90
G05
T1
X5.7458Y-3.1277
X5.7458Y-3.4277
X6.0458Y-3.1277
X6.0458Y-3.4277
X6.2458Y-3.1277
X6.2458Y-3.4277
X6.4458Y-3.1277
X6.4458Y-3.4277
X6.5765Y-3.1237
X6.5765Y-3.4237
X6.8765Y-3.1237
X6.8765Y-3.4237
X7.0765Y-3.1237
X7.0765Y-3.4237
X7.2765Y-3.1237
X7.2765Y-3.4237
T2
X5.1618Y-3.5031
X5.1618Y-3.5531
X5.1618Y-3.6031
T3
X5.3224Y-3.4449
X5.3224Y-3.5827
X5.3618Y-3.7303
X5.6224Y-3.4449
X5.6224Y-3.5827
X5.6618Y-3.7303
T4
X5.4892Y-3.1654
X5.5892Y-3.1654
T5
X4.9213Y-3.1102
X4.9213Y-3.2102
X4.9213Y-3.3102
X4.9502Y-3.7874
X4.9502Y-3.9449
X4.9646Y-3.5433
X5.0502Y-3.7874
X5.0502Y-3.9449
X5.128Y-3.1102
X5.128Y-3.2102
X5.128Y-3.3102
T6
X5.4Y-3.9467
X5.5Y-3.9467
X5.6Y-3.9467
T7
X5.8268Y-3.8504
X6.0236Y-3.8504
X6.2205Y-3.8504
X6.4173Y-3.8504
X6.6457Y-3.8465
X6.8425Y-3.8465
X7.0394Y-3.8465
X7.2362Y-3.8465
T0
M30
