%TF.GenerationSoftware,KiCad,Pcbnew,7.0.9*%
%TF.CreationDate,2024-06-07T23:50:55-04:00*%
%TF.ProjectId,8P breakout header,38502062-7265-4616-9b6f-757420686561,rev?*%
%TF.SameCoordinates,Original*%
%TF.FileFunction,Legend,Top*%
%TF.FilePolarity,Positive*%
%FSLAX46Y46*%
G04 Gerber Fmt 4.6, Leading zero omitted, Abs format (unit mm)*
G04 Created by KiCad (PCBNEW 7.0.9) date 2024-06-07 23:50:55*
%MOMM*%
%LPD*%
G01*
G04 APERTURE LIST*
%ADD10C,0.150000*%
%ADD11C,0.120000*%
G04 APERTURE END LIST*
D10*
X203111898Y-86229819D02*
X203302374Y-86229819D01*
X203302374Y-86229819D02*
X203397612Y-86182200D01*
X203397612Y-86182200D02*
X203445231Y-86134580D01*
X203445231Y-86134580D02*
X203540469Y-85991723D01*
X203540469Y-85991723D02*
X203588088Y-85801247D01*
X203588088Y-85801247D02*
X203588088Y-85420295D01*
X203588088Y-85420295D02*
X203540469Y-85325057D01*
X203540469Y-85325057D02*
X203492850Y-85277438D01*
X203492850Y-85277438D02*
X203397612Y-85229819D01*
X203397612Y-85229819D02*
X203207136Y-85229819D01*
X203207136Y-85229819D02*
X203111898Y-85277438D01*
X203111898Y-85277438D02*
X203064279Y-85325057D01*
X203064279Y-85325057D02*
X203016660Y-85420295D01*
X203016660Y-85420295D02*
X203016660Y-85658390D01*
X203016660Y-85658390D02*
X203064279Y-85753628D01*
X203064279Y-85753628D02*
X203111898Y-85801247D01*
X203111898Y-85801247D02*
X203207136Y-85848866D01*
X203207136Y-85848866D02*
X203397612Y-85848866D01*
X203397612Y-85848866D02*
X203492850Y-85801247D01*
X203492850Y-85801247D02*
X203540469Y-85753628D01*
X203540469Y-85753628D02*
X203588088Y-85658390D01*
X203873803Y-85229819D02*
X204207136Y-86229819D01*
X204207136Y-86229819D02*
X204540469Y-85229819D01*
X202953088Y-96072438D02*
X202857850Y-96024819D01*
X202857850Y-96024819D02*
X202714993Y-96024819D01*
X202714993Y-96024819D02*
X202572136Y-96072438D01*
X202572136Y-96072438D02*
X202476898Y-96167676D01*
X202476898Y-96167676D02*
X202429279Y-96262914D01*
X202429279Y-96262914D02*
X202381660Y-96453390D01*
X202381660Y-96453390D02*
X202381660Y-96596247D01*
X202381660Y-96596247D02*
X202429279Y-96786723D01*
X202429279Y-96786723D02*
X202476898Y-96881961D01*
X202476898Y-96881961D02*
X202572136Y-96977200D01*
X202572136Y-96977200D02*
X202714993Y-97024819D01*
X202714993Y-97024819D02*
X202810231Y-97024819D01*
X202810231Y-97024819D02*
X202953088Y-96977200D01*
X202953088Y-96977200D02*
X203000707Y-96929580D01*
X203000707Y-96929580D02*
X203000707Y-96596247D01*
X203000707Y-96596247D02*
X202810231Y-96596247D01*
X203429279Y-96358152D02*
X203429279Y-97024819D01*
X203429279Y-96453390D02*
X203476898Y-96405771D01*
X203476898Y-96405771D02*
X203572136Y-96358152D01*
X203572136Y-96358152D02*
X203714993Y-96358152D01*
X203714993Y-96358152D02*
X203810231Y-96405771D01*
X203810231Y-96405771D02*
X203857850Y-96501009D01*
X203857850Y-96501009D02*
X203857850Y-97024819D01*
X204762612Y-97024819D02*
X204762612Y-96024819D01*
X204762612Y-96977200D02*
X204667374Y-97024819D01*
X204667374Y-97024819D02*
X204476898Y-97024819D01*
X204476898Y-97024819D02*
X204381660Y-96977200D01*
X204381660Y-96977200D02*
X204334041Y-96929580D01*
X204334041Y-96929580D02*
X204286422Y-96834342D01*
X204286422Y-96834342D02*
X204286422Y-96548628D01*
X204286422Y-96548628D02*
X204334041Y-96453390D01*
X204334041Y-96453390D02*
X204381660Y-96405771D01*
X204381660Y-96405771D02*
X204476898Y-96358152D01*
X204476898Y-96358152D02*
X204667374Y-96358152D01*
X204667374Y-96358152D02*
X204762612Y-96405771D01*
X203111898Y-59559819D02*
X203302374Y-59559819D01*
X203302374Y-59559819D02*
X203397612Y-59512200D01*
X203397612Y-59512200D02*
X203445231Y-59464580D01*
X203445231Y-59464580D02*
X203540469Y-59321723D01*
X203540469Y-59321723D02*
X203588088Y-59131247D01*
X203588088Y-59131247D02*
X203588088Y-58750295D01*
X203588088Y-58750295D02*
X203540469Y-58655057D01*
X203540469Y-58655057D02*
X203492850Y-58607438D01*
X203492850Y-58607438D02*
X203397612Y-58559819D01*
X203397612Y-58559819D02*
X203207136Y-58559819D01*
X203207136Y-58559819D02*
X203111898Y-58607438D01*
X203111898Y-58607438D02*
X203064279Y-58655057D01*
X203064279Y-58655057D02*
X203016660Y-58750295D01*
X203016660Y-58750295D02*
X203016660Y-58988390D01*
X203016660Y-58988390D02*
X203064279Y-59083628D01*
X203064279Y-59083628D02*
X203111898Y-59131247D01*
X203111898Y-59131247D02*
X203207136Y-59178866D01*
X203207136Y-59178866D02*
X203397612Y-59178866D01*
X203397612Y-59178866D02*
X203492850Y-59131247D01*
X203492850Y-59131247D02*
X203540469Y-59083628D01*
X203540469Y-59083628D02*
X203588088Y-58988390D01*
X203873803Y-58559819D02*
X204207136Y-59559819D01*
X204207136Y-59559819D02*
X204540469Y-58559819D01*
X202953088Y-69402438D02*
X202857850Y-69354819D01*
X202857850Y-69354819D02*
X202714993Y-69354819D01*
X202714993Y-69354819D02*
X202572136Y-69402438D01*
X202572136Y-69402438D02*
X202476898Y-69497676D01*
X202476898Y-69497676D02*
X202429279Y-69592914D01*
X202429279Y-69592914D02*
X202381660Y-69783390D01*
X202381660Y-69783390D02*
X202381660Y-69926247D01*
X202381660Y-69926247D02*
X202429279Y-70116723D01*
X202429279Y-70116723D02*
X202476898Y-70211961D01*
X202476898Y-70211961D02*
X202572136Y-70307200D01*
X202572136Y-70307200D02*
X202714993Y-70354819D01*
X202714993Y-70354819D02*
X202810231Y-70354819D01*
X202810231Y-70354819D02*
X202953088Y-70307200D01*
X202953088Y-70307200D02*
X203000707Y-70259580D01*
X203000707Y-70259580D02*
X203000707Y-69926247D01*
X203000707Y-69926247D02*
X202810231Y-69926247D01*
X203429279Y-69688152D02*
X203429279Y-70354819D01*
X203429279Y-69783390D02*
X203476898Y-69735771D01*
X203476898Y-69735771D02*
X203572136Y-69688152D01*
X203572136Y-69688152D02*
X203714993Y-69688152D01*
X203714993Y-69688152D02*
X203810231Y-69735771D01*
X203810231Y-69735771D02*
X203857850Y-69831009D01*
X203857850Y-69831009D02*
X203857850Y-70354819D01*
X204762612Y-70354819D02*
X204762612Y-69354819D01*
X204762612Y-70307200D02*
X204667374Y-70354819D01*
X204667374Y-70354819D02*
X204476898Y-70354819D01*
X204476898Y-70354819D02*
X204381660Y-70307200D01*
X204381660Y-70307200D02*
X204334041Y-70259580D01*
X204334041Y-70259580D02*
X204286422Y-70164342D01*
X204286422Y-70164342D02*
X204286422Y-69878628D01*
X204286422Y-69878628D02*
X204334041Y-69783390D01*
X204334041Y-69783390D02*
X204381660Y-69735771D01*
X204381660Y-69735771D02*
X204476898Y-69688152D01*
X204476898Y-69688152D02*
X204667374Y-69688152D01*
X204667374Y-69688152D02*
X204762612Y-69735771D01*
X197527319Y-94313333D02*
X198241604Y-94313333D01*
X198241604Y-94313333D02*
X198384461Y-94360952D01*
X198384461Y-94360952D02*
X198479700Y-94456190D01*
X198479700Y-94456190D02*
X198527319Y-94599047D01*
X198527319Y-94599047D02*
X198527319Y-94694285D01*
X197527319Y-93408571D02*
X197527319Y-93599047D01*
X197527319Y-93599047D02*
X197574938Y-93694285D01*
X197574938Y-93694285D02*
X197622557Y-93741904D01*
X197622557Y-93741904D02*
X197765414Y-93837142D01*
X197765414Y-93837142D02*
X197955890Y-93884761D01*
X197955890Y-93884761D02*
X198336842Y-93884761D01*
X198336842Y-93884761D02*
X198432080Y-93837142D01*
X198432080Y-93837142D02*
X198479700Y-93789523D01*
X198479700Y-93789523D02*
X198527319Y-93694285D01*
X198527319Y-93694285D02*
X198527319Y-93503809D01*
X198527319Y-93503809D02*
X198479700Y-93408571D01*
X198479700Y-93408571D02*
X198432080Y-93360952D01*
X198432080Y-93360952D02*
X198336842Y-93313333D01*
X198336842Y-93313333D02*
X198098747Y-93313333D01*
X198098747Y-93313333D02*
X198003509Y-93360952D01*
X198003509Y-93360952D02*
X197955890Y-93408571D01*
X197955890Y-93408571D02*
X197908271Y-93503809D01*
X197908271Y-93503809D02*
X197908271Y-93694285D01*
X197908271Y-93694285D02*
X197955890Y-93789523D01*
X197955890Y-93789523D02*
X198003509Y-93837142D01*
X198003509Y-93837142D02*
X198098747Y-93884761D01*
X173021666Y-75864819D02*
X173021666Y-76579104D01*
X173021666Y-76579104D02*
X172974047Y-76721961D01*
X172974047Y-76721961D02*
X172878809Y-76817200D01*
X172878809Y-76817200D02*
X172735952Y-76864819D01*
X172735952Y-76864819D02*
X172640714Y-76864819D01*
X173926428Y-76198152D02*
X173926428Y-76864819D01*
X173688333Y-75817200D02*
X173450238Y-76531485D01*
X173450238Y-76531485D02*
X174069285Y-76531485D01*
X189531666Y-89564819D02*
X189531666Y-90279104D01*
X189531666Y-90279104D02*
X189484047Y-90421961D01*
X189484047Y-90421961D02*
X189388809Y-90517200D01*
X189388809Y-90517200D02*
X189245952Y-90564819D01*
X189245952Y-90564819D02*
X189150714Y-90564819D01*
X189912619Y-89564819D02*
X190531666Y-89564819D01*
X190531666Y-89564819D02*
X190198333Y-89945771D01*
X190198333Y-89945771D02*
X190341190Y-89945771D01*
X190341190Y-89945771D02*
X190436428Y-89993390D01*
X190436428Y-89993390D02*
X190484047Y-90041009D01*
X190484047Y-90041009D02*
X190531666Y-90136247D01*
X190531666Y-90136247D02*
X190531666Y-90374342D01*
X190531666Y-90374342D02*
X190484047Y-90469580D01*
X190484047Y-90469580D02*
X190436428Y-90517200D01*
X190436428Y-90517200D02*
X190341190Y-90564819D01*
X190341190Y-90564819D02*
X190055476Y-90564819D01*
X190055476Y-90564819D02*
X189960238Y-90517200D01*
X189960238Y-90517200D02*
X189912619Y-90469580D01*
X170209819Y-85585833D02*
X170924104Y-85585833D01*
X170924104Y-85585833D02*
X171066961Y-85633452D01*
X171066961Y-85633452D02*
X171162200Y-85728690D01*
X171162200Y-85728690D02*
X171209819Y-85871547D01*
X171209819Y-85871547D02*
X171209819Y-85966785D01*
X171209819Y-84585833D02*
X171209819Y-85157261D01*
X171209819Y-84871547D02*
X170209819Y-84871547D01*
X170209819Y-84871547D02*
X170352676Y-84966785D01*
X170352676Y-84966785D02*
X170447914Y-85062023D01*
X170447914Y-85062023D02*
X170495533Y-85157261D01*
X170209819Y-58915833D02*
X170924104Y-58915833D01*
X170924104Y-58915833D02*
X171066961Y-58963452D01*
X171066961Y-58963452D02*
X171162200Y-59058690D01*
X171162200Y-59058690D02*
X171209819Y-59201547D01*
X171209819Y-59201547D02*
X171209819Y-59296785D01*
X171209819Y-57915833D02*
X171209819Y-58487261D01*
X171209819Y-58201547D02*
X170209819Y-58201547D01*
X170209819Y-58201547D02*
X170352676Y-58296785D01*
X170352676Y-58296785D02*
X170447914Y-58392023D01*
X170447914Y-58392023D02*
X170495533Y-58487261D01*
X197527319Y-67643333D02*
X198241604Y-67643333D01*
X198241604Y-67643333D02*
X198384461Y-67690952D01*
X198384461Y-67690952D02*
X198479700Y-67786190D01*
X198479700Y-67786190D02*
X198527319Y-67929047D01*
X198527319Y-67929047D02*
X198527319Y-68024285D01*
X197527319Y-66738571D02*
X197527319Y-66929047D01*
X197527319Y-66929047D02*
X197574938Y-67024285D01*
X197574938Y-67024285D02*
X197622557Y-67071904D01*
X197622557Y-67071904D02*
X197765414Y-67167142D01*
X197765414Y-67167142D02*
X197955890Y-67214761D01*
X197955890Y-67214761D02*
X198336842Y-67214761D01*
X198336842Y-67214761D02*
X198432080Y-67167142D01*
X198432080Y-67167142D02*
X198479700Y-67119523D01*
X198479700Y-67119523D02*
X198527319Y-67024285D01*
X198527319Y-67024285D02*
X198527319Y-66833809D01*
X198527319Y-66833809D02*
X198479700Y-66738571D01*
X198479700Y-66738571D02*
X198432080Y-66690952D01*
X198432080Y-66690952D02*
X198336842Y-66643333D01*
X198336842Y-66643333D02*
X198098747Y-66643333D01*
X198098747Y-66643333D02*
X198003509Y-66690952D01*
X198003509Y-66690952D02*
X197955890Y-66738571D01*
X197955890Y-66738571D02*
X197908271Y-66833809D01*
X197908271Y-66833809D02*
X197908271Y-67024285D01*
X197908271Y-67024285D02*
X197955890Y-67119523D01*
X197955890Y-67119523D02*
X198003509Y-67167142D01*
X198003509Y-67167142D02*
X198098747Y-67214761D01*
X173021666Y-49194819D02*
X173021666Y-49909104D01*
X173021666Y-49909104D02*
X172974047Y-50051961D01*
X172974047Y-50051961D02*
X172878809Y-50147200D01*
X172878809Y-50147200D02*
X172735952Y-50194819D01*
X172735952Y-50194819D02*
X172640714Y-50194819D01*
X173926428Y-49528152D02*
X173926428Y-50194819D01*
X173688333Y-49147200D02*
X173450238Y-49861485D01*
X173450238Y-49861485D02*
X174069285Y-49861485D01*
X189531666Y-62894819D02*
X189531666Y-63609104D01*
X189531666Y-63609104D02*
X189484047Y-63751961D01*
X189484047Y-63751961D02*
X189388809Y-63847200D01*
X189388809Y-63847200D02*
X189245952Y-63894819D01*
X189245952Y-63894819D02*
X189150714Y-63894819D01*
X189912619Y-62894819D02*
X190531666Y-62894819D01*
X190531666Y-62894819D02*
X190198333Y-63275771D01*
X190198333Y-63275771D02*
X190341190Y-63275771D01*
X190341190Y-63275771D02*
X190436428Y-63323390D01*
X190436428Y-63323390D02*
X190484047Y-63371009D01*
X190484047Y-63371009D02*
X190531666Y-63466247D01*
X190531666Y-63466247D02*
X190531666Y-63704342D01*
X190531666Y-63704342D02*
X190484047Y-63799580D01*
X190484047Y-63799580D02*
X190436428Y-63847200D01*
X190436428Y-63847200D02*
X190341190Y-63894819D01*
X190341190Y-63894819D02*
X190055476Y-63894819D01*
X190055476Y-63894819D02*
X189960238Y-63847200D01*
X189960238Y-63847200D02*
X189912619Y-63799580D01*
D11*
%TO.C,J6*%
X197072500Y-92650000D02*
X197072500Y-93980000D01*
X195742500Y-92650000D02*
X197072500Y-92650000D01*
X194472500Y-92650000D02*
X181712500Y-92650000D01*
X194472500Y-92650000D02*
X194472500Y-95310000D01*
X181712500Y-92650000D02*
X181712500Y-95310000D01*
X194472500Y-95310000D02*
X181712500Y-95310000D01*
%TO.C,J4*%
X172025000Y-77410000D02*
X173355000Y-77410000D01*
X172025000Y-78740000D02*
X172025000Y-77410000D01*
X172025000Y-80010000D02*
X172025000Y-97850000D01*
X172025000Y-80010000D02*
X174685000Y-80010000D01*
X172025000Y-97850000D02*
X174685000Y-97850000D01*
X174685000Y-80010000D02*
X174685000Y-97850000D01*
%TO.C,J3*%
X198310000Y-85610000D02*
X198310000Y-84610000D01*
X198310000Y-84610000D02*
X197810000Y-85110000D01*
X197810000Y-85110000D02*
X198310000Y-85610000D01*
X197625000Y-88990000D02*
X197625000Y-71030000D01*
X197625000Y-71030000D02*
X182105000Y-71030000D01*
X182105000Y-88990000D02*
X197625000Y-88990000D01*
X182105000Y-88990000D02*
X182105000Y-71030000D01*
%TO.C,J1*%
X166255000Y-76807500D02*
X165255000Y-76807500D01*
X165255000Y-76807500D02*
X165755000Y-77307500D01*
X165755000Y-77307500D02*
X166255000Y-76807500D01*
X169635000Y-77492500D02*
X151675000Y-77492500D01*
X151675000Y-77492500D02*
X151675000Y-93012500D01*
X169635000Y-93012500D02*
X169635000Y-77492500D01*
X169635000Y-93012500D02*
X151675000Y-93012500D01*
%TO.C,J7*%
X201302500Y-87290000D02*
X199562500Y-87290000D01*
X199562500Y-87290000D02*
X199562500Y-88790000D01*
X206922500Y-87530000D02*
X199802500Y-87530000D01*
X206922500Y-87530000D02*
X206922500Y-95350000D01*
X201362500Y-87530000D02*
X201362500Y-95350000D01*
X199802500Y-87530000D02*
X199802500Y-95350000D01*
X206922500Y-95350000D02*
X199802500Y-95350000D01*
X204070500Y-88258000D02*
G75*
G03*
X202854758Y-88257891I-608000J-1432000D01*
G01*
X204894500Y-90298000D02*
G75*
G03*
X204894609Y-89082258I-1432000J608000D01*
G01*
X202030501Y-89082000D02*
G75*
G03*
X201907008Y-89717011I1431987J-607998D01*
G01*
X201907501Y-89690000D02*
G75*
G03*
X202031116Y-90297587I1554999J0D01*
G01*
X202854500Y-91122000D02*
G75*
G03*
X204070242Y-91122109I607999J1432003D01*
G01*
X205017500Y-93190000D02*
G75*
G03*
X205017500Y-93190000I-1555000J0D01*
G01*
%TO.C,J1*%
X169635000Y-66342500D02*
X169635000Y-50822500D01*
X165255000Y-50137500D02*
X165755000Y-50637500D01*
X169635000Y-50822500D02*
X151675000Y-50822500D01*
X166255000Y-50137500D02*
X165255000Y-50137500D01*
X151675000Y-50822500D02*
X151675000Y-66342500D01*
X169635000Y-66342500D02*
X151675000Y-66342500D01*
X165755000Y-50637500D02*
X166255000Y-50137500D01*
%TO.C,J7*%
X206922500Y-60860000D02*
X206922500Y-68680000D01*
X206922500Y-68680000D02*
X199802500Y-68680000D01*
X201362500Y-60860000D02*
X201362500Y-68680000D01*
X201302500Y-60620000D02*
X199562500Y-60620000D01*
X206922500Y-60860000D02*
X199802500Y-60860000D01*
X199562500Y-60620000D02*
X199562500Y-62120000D01*
X199802500Y-60860000D02*
X199802500Y-68680000D01*
X202854500Y-64452000D02*
G75*
G03*
X204070242Y-64452109I607999J1432003D01*
G01*
X201907501Y-63020000D02*
G75*
G03*
X202031116Y-63627587I1554999J0D01*
G01*
X204894500Y-63628000D02*
G75*
G03*
X204894609Y-62412258I-1432000J608000D01*
G01*
X202030501Y-62412000D02*
G75*
G03*
X201907008Y-63047011I1431987J-607998D01*
G01*
X204070500Y-61588000D02*
G75*
G03*
X202854758Y-61587891I-608000J-1432000D01*
G01*
X205017500Y-66520000D02*
G75*
G03*
X205017500Y-66520000I-1555000J0D01*
G01*
%TO.C,J6*%
X194472500Y-65980000D02*
X181712500Y-65980000D01*
X195742500Y-65980000D02*
X197072500Y-65980000D01*
X197072500Y-65980000D02*
X197072500Y-67310000D01*
X194472500Y-65980000D02*
X194472500Y-68640000D01*
X181712500Y-65980000D02*
X181712500Y-68640000D01*
X194472500Y-68640000D02*
X181712500Y-68640000D01*
%TO.C,J4*%
X172025000Y-53340000D02*
X174685000Y-53340000D01*
X172025000Y-71180000D02*
X174685000Y-71180000D01*
X172025000Y-53340000D02*
X172025000Y-71180000D01*
X172025000Y-52070000D02*
X172025000Y-50740000D01*
X174685000Y-53340000D02*
X174685000Y-71180000D01*
X172025000Y-50740000D02*
X173355000Y-50740000D01*
%TO.C,J3*%
X182105000Y-62320000D02*
X197625000Y-62320000D01*
X198310000Y-57940000D02*
X197810000Y-58440000D01*
X197625000Y-62320000D02*
X197625000Y-44360000D01*
X198310000Y-58940000D02*
X198310000Y-57940000D01*
X197625000Y-44360000D02*
X182105000Y-44360000D01*
X182105000Y-62320000D02*
X182105000Y-44360000D01*
X197810000Y-58440000D02*
X198310000Y-58940000D01*
%TD*%
M02*
