M48
; DRILL file {KiCad 7.0.9} date Fri Jun  7 23:50:47 2024
; FORMAT={-:-/ absolute / inch / decimal}
; #@! TF.CreationDate,2024-06-07T23:50:47-04:00
; #@! TF.GenerationSoftware,Kicad,Pcbnew,7.0.9
; #@! TF.FileFunction,Plated,1,2,PTH
FMAT,2
INCH
; #@! TA.AperFunction,Plated,PTH,ComponentDrill
T1C0.0299
; #@! TA.AperFunction,Plated,PTH,ComponentDrill
T2C0.0394
; #@! TA.AperFunction,Plated,PTH,ComponentDrill
T3C0.0472
%
G90
G05
T1
X6.5258Y-2.1314
X6.5258Y-2.2314
X6.5258Y-2.3314
X6.5258Y-2.4314
X6.5258Y-3.1814
X6.5258Y-3.2814
X6.5258Y-3.3814
X6.5258Y-3.4814
X6.6258Y-2.1814
X6.6258Y-2.2814
X6.6258Y-2.3814
X6.6258Y-2.4814
X6.6258Y-3.2314
X6.6258Y-3.3314
X6.6258Y-3.4314
X6.6258Y-3.5314
X7.3Y-2.4008
X7.3Y-3.4508
X7.35Y-2.3008
X7.35Y-3.3508
X7.4Y-2.4008
X7.4Y-3.4508
X7.45Y-2.3008
X7.45Y-3.3508
X7.5Y-2.4008
X7.5Y-3.4508
X7.55Y-2.3008
X7.55Y-3.3508
X7.6Y-2.4008
X7.6Y-3.4508
X7.65Y-2.3008
X7.65Y-3.3508
T2
X6.825Y-2.05
X6.825Y-2.15
X6.825Y-2.25
X6.825Y-2.35
X6.825Y-2.45
X6.825Y-2.55
X6.825Y-2.65
X6.825Y-2.75
X6.825Y-3.1
X6.825Y-3.2
X6.825Y-3.3
X6.825Y-3.4
X6.825Y-3.5
X6.825Y-3.6
X6.825Y-3.7
X6.825Y-3.8
X7.2064Y-2.65
X7.2064Y-3.7
X7.3064Y-2.65
X7.3064Y-3.7
X7.4064Y-2.65
X7.4064Y-3.7
X7.5064Y-2.65
X7.5064Y-3.7
X7.6064Y-2.65
X7.6064Y-3.7
X7.7064Y-2.65
X7.7064Y-3.7
T3
X8.0103Y-2.4811
X8.0103Y-2.6189
X8.0103Y-3.5311
X8.0103Y-3.6689
T0
M30
