%TF.GenerationSoftware,KiCad,Pcbnew,7.0.9*%
%TF.CreationDate,2024-06-07T23:50:48-04:00*%
%TF.ProjectId,8P breakout header,38502062-7265-4616-9b6f-757420686561,rev?*%
%TF.SameCoordinates,Original*%
%TF.FileFunction,Drillmap*%
%TF.FilePolarity,Positive*%
%FSLAX45Y45*%
G04 Gerber Fmt 4.5, Leading zero omitted, Abs format (unit mm)*
G04 Created by KiCad (PCBNEW 7.0.9) date 2024-06-07 23:50:48*
%MOMM*%
%LPD*%
G01*
G04 APERTURE LIST*
%ADD10C,0.100000*%
%ADD11C,0.200000*%
%ADD12C,0.120000*%
G04 APERTURE END LIST*
D10*
X19240500Y-7493000D02*
X20717250Y-7493000D01*
X19240500Y-7429500D02*
X19240500Y-7493000D01*
X19240500Y-7048500D02*
X19240500Y-7429500D01*
X20717250Y-7048500D02*
X19240500Y-7048500D01*
X18986500Y-7048500D02*
X17986750Y-7048500D01*
X18986500Y-7493000D02*
X18986500Y-7048500D01*
X17986750Y-7493000D02*
X18986500Y-7493000D01*
X16637000Y-7556500D02*
X17589500Y-7556500D01*
X16637000Y-7239000D02*
X16637000Y-7556500D01*
X17589500Y-7239000D02*
X16637000Y-7239000D01*
X16446500Y-7556500D02*
X15684500Y-7556500D01*
X16446500Y-7239000D02*
X16446500Y-7556500D01*
X15684500Y-7239000D02*
X16446500Y-7239000D01*
X20590250Y-7937500D02*
G75*
G03*
X20590250Y-7937500I-317500J0D01*
G01*
X17589500Y-9906000D02*
X17589500Y-8890000D01*
X15684500Y-7556500D02*
X15684500Y-9906000D01*
X17589500Y-8636000D02*
X17589500Y-7556500D01*
X17589500Y-8890000D02*
X17986750Y-8890000D01*
X17986750Y-7493000D02*
X17986750Y-8636000D01*
X15684500Y-9906000D02*
X17589500Y-9906000D01*
X17986750Y-9715500D02*
X20717250Y-9715500D01*
X17986750Y-8890000D02*
X17986750Y-9715500D01*
X20717250Y-9715500D02*
X20717250Y-7493000D01*
X17589500Y-8636000D02*
X17986750Y-8636000D01*
X17589500Y-6223000D02*
X17986750Y-6223000D01*
X17589500Y-5969000D02*
X17986750Y-5969000D01*
X17589500Y-7239000D02*
X17589500Y-6223000D01*
X15684500Y-4889500D02*
X15684500Y-7239000D01*
X17589500Y-4889500D02*
X15684500Y-4889500D01*
X17589500Y-5969000D02*
X17589500Y-4889500D01*
X17986750Y-4826000D02*
X17986750Y-5969000D01*
X20717250Y-4826000D02*
X17986750Y-4826000D01*
X20717250Y-7048500D02*
X20717250Y-4826000D01*
X17986750Y-6223000D02*
X17986750Y-7048500D01*
X20590250Y-5270500D02*
G75*
G03*
X20590250Y-5270500I-317500J0D01*
G01*
D11*
D10*
X16537500Y-5375750D02*
X16613500Y-5451750D01*
X16613500Y-5375750D02*
X16537500Y-5451750D01*
X16537500Y-5629750D02*
X16613500Y-5705750D01*
X16613500Y-5629750D02*
X16537500Y-5705750D01*
X16537500Y-5883750D02*
X16613500Y-5959750D01*
X16613500Y-5883750D02*
X16537500Y-5959750D01*
X16537500Y-6137750D02*
X16613500Y-6213750D01*
X16613500Y-6137750D02*
X16537500Y-6213750D01*
X16537500Y-8042750D02*
X16613500Y-8118750D01*
X16613500Y-8042750D02*
X16537500Y-8118750D01*
X16537500Y-8296750D02*
X16613500Y-8372750D01*
X16613500Y-8296750D02*
X16537500Y-8372750D01*
X16537500Y-8550750D02*
X16613500Y-8626750D01*
X16613500Y-8550750D02*
X16537500Y-8626750D01*
X16537500Y-8804750D02*
X16613500Y-8880750D01*
X16613500Y-8804750D02*
X16537500Y-8880750D01*
X16791500Y-5502750D02*
X16867500Y-5578750D01*
X16867500Y-5502750D02*
X16791500Y-5578750D01*
X16791500Y-5756750D02*
X16867500Y-5832750D01*
X16867500Y-5756750D02*
X16791500Y-5832750D01*
X16791500Y-6010750D02*
X16867500Y-6086750D01*
X16867500Y-6010750D02*
X16791500Y-6086750D01*
X16791500Y-6264750D02*
X16867500Y-6340750D01*
X16867500Y-6264750D02*
X16791500Y-6340750D01*
X16791500Y-8169750D02*
X16867500Y-8245750D01*
X16867500Y-8169750D02*
X16791500Y-8245750D01*
X16791500Y-8423750D02*
X16867500Y-8499750D01*
X16867500Y-8423750D02*
X16791500Y-8499750D01*
X16791500Y-8677750D02*
X16867500Y-8753750D01*
X16867500Y-8677750D02*
X16791500Y-8753750D01*
X16791500Y-8931750D02*
X16867500Y-9007750D01*
X16867500Y-8931750D02*
X16791500Y-9007750D01*
X18504000Y-6060000D02*
X18580000Y-6136000D01*
X18580000Y-6060000D02*
X18504000Y-6136000D01*
X18504000Y-8727000D02*
X18580000Y-8803000D01*
X18580000Y-8727000D02*
X18504000Y-8803000D01*
X18631000Y-5806000D02*
X18707000Y-5882000D01*
X18707000Y-5806000D02*
X18631000Y-5882000D01*
X18631000Y-8473000D02*
X18707000Y-8549000D01*
X18707000Y-8473000D02*
X18631000Y-8549000D01*
X18758000Y-6060000D02*
X18834000Y-6136000D01*
X18834000Y-6060000D02*
X18758000Y-6136000D01*
X18758000Y-8727000D02*
X18834000Y-8803000D01*
X18834000Y-8727000D02*
X18758000Y-8803000D01*
X18885000Y-5806000D02*
X18961000Y-5882000D01*
X18961000Y-5806000D02*
X18885000Y-5882000D01*
X18885000Y-8473000D02*
X18961000Y-8549000D01*
X18961000Y-8473000D02*
X18885000Y-8549000D01*
X19012000Y-6060000D02*
X19088000Y-6136000D01*
X19088000Y-6060000D02*
X19012000Y-6136000D01*
X19012000Y-8727000D02*
X19088000Y-8803000D01*
X19088000Y-8727000D02*
X19012000Y-8803000D01*
X19139000Y-5806000D02*
X19215000Y-5882000D01*
X19215000Y-5806000D02*
X19139000Y-5882000D01*
X19139000Y-8473000D02*
X19215000Y-8549000D01*
X19215000Y-8473000D02*
X19139000Y-8549000D01*
X19266000Y-6060000D02*
X19342000Y-6136000D01*
X19342000Y-6060000D02*
X19266000Y-6136000D01*
X19266000Y-8727000D02*
X19342000Y-8803000D01*
X19342000Y-8727000D02*
X19266000Y-8803000D01*
X19393000Y-5806000D02*
X19469000Y-5882000D01*
X19469000Y-5806000D02*
X19393000Y-5882000D01*
X19393000Y-8473000D02*
X19469000Y-8549000D01*
X19469000Y-8473000D02*
X19393000Y-8549000D01*
X17385500Y-5207000D02*
G75*
G03*
X17385500Y-5207000I-50000J0D01*
G01*
X17385500Y-5461000D02*
G75*
G03*
X17385500Y-5461000I-50000J0D01*
G01*
X17385500Y-5715000D02*
G75*
G03*
X17385500Y-5715000I-50000J0D01*
G01*
X17385500Y-5969000D02*
G75*
G03*
X17385500Y-5969000I-50000J0D01*
G01*
X17385500Y-6223000D02*
G75*
G03*
X17385500Y-6223000I-50000J0D01*
G01*
X17385500Y-6477000D02*
G75*
G03*
X17385500Y-6477000I-50000J0D01*
G01*
X17385500Y-6731000D02*
G75*
G03*
X17385500Y-6731000I-50000J0D01*
G01*
X17385500Y-6985000D02*
G75*
G03*
X17385500Y-6985000I-50000J0D01*
G01*
X17385500Y-7874000D02*
G75*
G03*
X17385500Y-7874000I-50000J0D01*
G01*
X17385500Y-8128000D02*
G75*
G03*
X17385500Y-8128000I-50000J0D01*
G01*
X17385500Y-8382000D02*
G75*
G03*
X17385500Y-8382000I-50000J0D01*
G01*
X17385500Y-8636000D02*
G75*
G03*
X17385500Y-8636000I-50000J0D01*
G01*
X17385500Y-8890000D02*
G75*
G03*
X17385500Y-8890000I-50000J0D01*
G01*
X17385500Y-9144000D02*
G75*
G03*
X17385500Y-9144000I-50000J0D01*
G01*
X17385500Y-9398000D02*
G75*
G03*
X17385500Y-9398000I-50000J0D01*
G01*
X17385500Y-9652000D02*
G75*
G03*
X17385500Y-9652000I-50000J0D01*
G01*
X18354250Y-6731000D02*
G75*
G03*
X18354250Y-6731000I-50000J0D01*
G01*
X18354250Y-9398000D02*
G75*
G03*
X18354250Y-9398000I-50000J0D01*
G01*
X18608250Y-6731000D02*
G75*
G03*
X18608250Y-6731000I-50000J0D01*
G01*
X18608250Y-9398000D02*
G75*
G03*
X18608250Y-9398000I-50000J0D01*
G01*
X18862250Y-6731000D02*
G75*
G03*
X18862250Y-6731000I-50000J0D01*
G01*
X18862250Y-9398000D02*
G75*
G03*
X18862250Y-9398000I-50000J0D01*
G01*
X19116250Y-6731000D02*
G75*
G03*
X19116250Y-6731000I-50000J0D01*
G01*
X19116250Y-9398000D02*
G75*
G03*
X19116250Y-9398000I-50000J0D01*
G01*
X19370250Y-6731000D02*
G75*
G03*
X19370250Y-6731000I-50000J0D01*
G01*
X19370250Y-9398000D02*
G75*
G03*
X19370250Y-9398000I-50000J0D01*
G01*
X19624250Y-6731000D02*
G75*
G03*
X19624250Y-6731000I-50000J0D01*
G01*
X19624250Y-9398000D02*
G75*
G03*
X19624250Y-9398000I-50000J0D01*
G01*
D12*
X20346250Y-6242000D02*
X20346250Y-6362000D01*
X20286250Y-6302000D02*
X20406250Y-6302000D01*
X20346250Y-6592000D02*
X20346250Y-6712000D01*
X20286250Y-6652000D02*
X20406250Y-6652000D01*
X20346250Y-8909000D02*
X20346250Y-9029000D01*
X20286250Y-8969000D02*
X20406250Y-8969000D01*
X20346250Y-9259000D02*
X20346250Y-9379000D01*
X20286250Y-9319000D02*
X20406250Y-9319000D01*
D11*
X15940277Y-10222484D02*
X15940277Y-10022484D01*
X15940277Y-10022484D02*
X15987896Y-10022484D01*
X15987896Y-10022484D02*
X16016467Y-10032008D01*
X16016467Y-10032008D02*
X16035515Y-10051055D01*
X16035515Y-10051055D02*
X16045039Y-10070103D01*
X16045039Y-10070103D02*
X16054562Y-10108198D01*
X16054562Y-10108198D02*
X16054562Y-10136770D01*
X16054562Y-10136770D02*
X16045039Y-10174865D01*
X16045039Y-10174865D02*
X16035515Y-10193912D01*
X16035515Y-10193912D02*
X16016467Y-10212960D01*
X16016467Y-10212960D02*
X15987896Y-10222484D01*
X15987896Y-10222484D02*
X15940277Y-10222484D01*
X16140277Y-10222484D02*
X16140277Y-10089150D01*
X16140277Y-10127246D02*
X16149801Y-10108198D01*
X16149801Y-10108198D02*
X16159324Y-10098674D01*
X16159324Y-10098674D02*
X16178372Y-10089150D01*
X16178372Y-10089150D02*
X16197420Y-10089150D01*
X16264086Y-10222484D02*
X16264086Y-10089150D01*
X16264086Y-10022484D02*
X16254562Y-10032008D01*
X16254562Y-10032008D02*
X16264086Y-10041531D01*
X16264086Y-10041531D02*
X16273610Y-10032008D01*
X16273610Y-10032008D02*
X16264086Y-10022484D01*
X16264086Y-10022484D02*
X16264086Y-10041531D01*
X16387896Y-10222484D02*
X16368848Y-10212960D01*
X16368848Y-10212960D02*
X16359324Y-10193912D01*
X16359324Y-10193912D02*
X16359324Y-10022484D01*
X16492658Y-10222484D02*
X16473610Y-10212960D01*
X16473610Y-10212960D02*
X16464086Y-10193912D01*
X16464086Y-10193912D02*
X16464086Y-10022484D01*
X16721229Y-10222484D02*
X16721229Y-10022484D01*
X16721229Y-10022484D02*
X16787896Y-10165341D01*
X16787896Y-10165341D02*
X16854563Y-10022484D01*
X16854563Y-10022484D02*
X16854563Y-10222484D01*
X17035515Y-10222484D02*
X17035515Y-10117722D01*
X17035515Y-10117722D02*
X17025991Y-10098674D01*
X17025991Y-10098674D02*
X17006944Y-10089150D01*
X17006944Y-10089150D02*
X16968848Y-10089150D01*
X16968848Y-10089150D02*
X16949801Y-10098674D01*
X17035515Y-10212960D02*
X17016467Y-10222484D01*
X17016467Y-10222484D02*
X16968848Y-10222484D01*
X16968848Y-10222484D02*
X16949801Y-10212960D01*
X16949801Y-10212960D02*
X16940277Y-10193912D01*
X16940277Y-10193912D02*
X16940277Y-10174865D01*
X16940277Y-10174865D02*
X16949801Y-10155817D01*
X16949801Y-10155817D02*
X16968848Y-10146293D01*
X16968848Y-10146293D02*
X17016467Y-10146293D01*
X17016467Y-10146293D02*
X17035515Y-10136770D01*
X17130753Y-10089150D02*
X17130753Y-10289150D01*
X17130753Y-10098674D02*
X17149801Y-10089150D01*
X17149801Y-10089150D02*
X17187896Y-10089150D01*
X17187896Y-10089150D02*
X17206944Y-10098674D01*
X17206944Y-10098674D02*
X17216467Y-10108198D01*
X17216467Y-10108198D02*
X17225991Y-10127246D01*
X17225991Y-10127246D02*
X17225991Y-10184389D01*
X17225991Y-10184389D02*
X17216467Y-10203436D01*
X17216467Y-10203436D02*
X17206944Y-10212960D01*
X17206944Y-10212960D02*
X17187896Y-10222484D01*
X17187896Y-10222484D02*
X17149801Y-10222484D01*
X17149801Y-10222484D02*
X17130753Y-10212960D01*
X17311705Y-10203436D02*
X17321229Y-10212960D01*
X17321229Y-10212960D02*
X17311705Y-10222484D01*
X17311705Y-10222484D02*
X17302182Y-10212960D01*
X17302182Y-10212960D02*
X17311705Y-10203436D01*
X17311705Y-10203436D02*
X17311705Y-10222484D01*
X17311705Y-10098674D02*
X17321229Y-10108198D01*
X17321229Y-10108198D02*
X17311705Y-10117722D01*
X17311705Y-10117722D02*
X17302182Y-10108198D01*
X17302182Y-10108198D02*
X17311705Y-10098674D01*
X17311705Y-10098674D02*
X17311705Y-10117722D01*
D10*
X15603500Y-10513000D02*
X15679500Y-10589000D01*
X15679500Y-10513000D02*
X15603500Y-10589000D01*
D11*
X15978372Y-10442484D02*
X15997420Y-10442484D01*
X15997420Y-10442484D02*
X16016467Y-10452008D01*
X16016467Y-10452008D02*
X16025991Y-10461531D01*
X16025991Y-10461531D02*
X16035515Y-10480579D01*
X16035515Y-10480579D02*
X16045039Y-10518674D01*
X16045039Y-10518674D02*
X16045039Y-10566293D01*
X16045039Y-10566293D02*
X16035515Y-10604389D01*
X16035515Y-10604389D02*
X16025991Y-10623436D01*
X16025991Y-10623436D02*
X16016467Y-10632960D01*
X16016467Y-10632960D02*
X15997420Y-10642484D01*
X15997420Y-10642484D02*
X15978372Y-10642484D01*
X15978372Y-10642484D02*
X15959324Y-10632960D01*
X15959324Y-10632960D02*
X15949801Y-10623436D01*
X15949801Y-10623436D02*
X15940277Y-10604389D01*
X15940277Y-10604389D02*
X15930753Y-10566293D01*
X15930753Y-10566293D02*
X15930753Y-10518674D01*
X15930753Y-10518674D02*
X15940277Y-10480579D01*
X15940277Y-10480579D02*
X15949801Y-10461531D01*
X15949801Y-10461531D02*
X15959324Y-10452008D01*
X15959324Y-10452008D02*
X15978372Y-10442484D01*
X16130753Y-10623436D02*
X16140277Y-10632960D01*
X16140277Y-10632960D02*
X16130753Y-10642484D01*
X16130753Y-10642484D02*
X16121229Y-10632960D01*
X16121229Y-10632960D02*
X16130753Y-10623436D01*
X16130753Y-10623436D02*
X16130753Y-10642484D01*
X16206943Y-10442484D02*
X16340277Y-10442484D01*
X16340277Y-10442484D02*
X16254562Y-10642484D01*
X16502182Y-10442484D02*
X16464086Y-10442484D01*
X16464086Y-10442484D02*
X16445039Y-10452008D01*
X16445039Y-10452008D02*
X16435515Y-10461531D01*
X16435515Y-10461531D02*
X16416467Y-10490103D01*
X16416467Y-10490103D02*
X16406943Y-10528198D01*
X16406943Y-10528198D02*
X16406943Y-10604389D01*
X16406943Y-10604389D02*
X16416467Y-10623436D01*
X16416467Y-10623436D02*
X16425991Y-10632960D01*
X16425991Y-10632960D02*
X16445039Y-10642484D01*
X16445039Y-10642484D02*
X16483134Y-10642484D01*
X16483134Y-10642484D02*
X16502182Y-10632960D01*
X16502182Y-10632960D02*
X16511705Y-10623436D01*
X16511705Y-10623436D02*
X16521229Y-10604389D01*
X16521229Y-10604389D02*
X16521229Y-10556770D01*
X16521229Y-10556770D02*
X16511705Y-10537722D01*
X16511705Y-10537722D02*
X16502182Y-10528198D01*
X16502182Y-10528198D02*
X16483134Y-10518674D01*
X16483134Y-10518674D02*
X16445039Y-10518674D01*
X16445039Y-10518674D02*
X16425991Y-10528198D01*
X16425991Y-10528198D02*
X16416467Y-10537722D01*
X16416467Y-10537722D02*
X16406943Y-10556770D01*
X16645039Y-10442484D02*
X16664086Y-10442484D01*
X16664086Y-10442484D02*
X16683134Y-10452008D01*
X16683134Y-10452008D02*
X16692658Y-10461531D01*
X16692658Y-10461531D02*
X16702182Y-10480579D01*
X16702182Y-10480579D02*
X16711705Y-10518674D01*
X16711705Y-10518674D02*
X16711705Y-10566293D01*
X16711705Y-10566293D02*
X16702182Y-10604389D01*
X16702182Y-10604389D02*
X16692658Y-10623436D01*
X16692658Y-10623436D02*
X16683134Y-10632960D01*
X16683134Y-10632960D02*
X16664086Y-10642484D01*
X16664086Y-10642484D02*
X16645039Y-10642484D01*
X16645039Y-10642484D02*
X16625991Y-10632960D01*
X16625991Y-10632960D02*
X16616467Y-10623436D01*
X16616467Y-10623436D02*
X16606943Y-10604389D01*
X16606943Y-10604389D02*
X16597420Y-10566293D01*
X16597420Y-10566293D02*
X16597420Y-10518674D01*
X16597420Y-10518674D02*
X16606943Y-10480579D01*
X16606943Y-10480579D02*
X16616467Y-10461531D01*
X16616467Y-10461531D02*
X16625991Y-10452008D01*
X16625991Y-10452008D02*
X16645039Y-10442484D01*
X16797420Y-10642484D02*
X16797420Y-10509150D01*
X16797420Y-10528198D02*
X16806944Y-10518674D01*
X16806944Y-10518674D02*
X16825991Y-10509150D01*
X16825991Y-10509150D02*
X16854563Y-10509150D01*
X16854563Y-10509150D02*
X16873610Y-10518674D01*
X16873610Y-10518674D02*
X16883134Y-10537722D01*
X16883134Y-10537722D02*
X16883134Y-10642484D01*
X16883134Y-10537722D02*
X16892658Y-10518674D01*
X16892658Y-10518674D02*
X16911705Y-10509150D01*
X16911705Y-10509150D02*
X16940277Y-10509150D01*
X16940277Y-10509150D02*
X16959325Y-10518674D01*
X16959325Y-10518674D02*
X16968848Y-10537722D01*
X16968848Y-10537722D02*
X16968848Y-10642484D01*
X17064086Y-10642484D02*
X17064086Y-10509150D01*
X17064086Y-10528198D02*
X17073610Y-10518674D01*
X17073610Y-10518674D02*
X17092658Y-10509150D01*
X17092658Y-10509150D02*
X17121229Y-10509150D01*
X17121229Y-10509150D02*
X17140277Y-10518674D01*
X17140277Y-10518674D02*
X17149801Y-10537722D01*
X17149801Y-10537722D02*
X17149801Y-10642484D01*
X17149801Y-10537722D02*
X17159325Y-10518674D01*
X17159325Y-10518674D02*
X17178372Y-10509150D01*
X17178372Y-10509150D02*
X17206944Y-10509150D01*
X17206944Y-10509150D02*
X17225991Y-10518674D01*
X17225991Y-10518674D02*
X17235515Y-10537722D01*
X17235515Y-10537722D02*
X17235515Y-10642484D01*
X17625991Y-10432960D02*
X17454563Y-10690103D01*
X17883134Y-10442484D02*
X17902182Y-10442484D01*
X17902182Y-10442484D02*
X17921229Y-10452008D01*
X17921229Y-10452008D02*
X17930753Y-10461531D01*
X17930753Y-10461531D02*
X17940277Y-10480579D01*
X17940277Y-10480579D02*
X17949801Y-10518674D01*
X17949801Y-10518674D02*
X17949801Y-10566293D01*
X17949801Y-10566293D02*
X17940277Y-10604389D01*
X17940277Y-10604389D02*
X17930753Y-10623436D01*
X17930753Y-10623436D02*
X17921229Y-10632960D01*
X17921229Y-10632960D02*
X17902182Y-10642484D01*
X17902182Y-10642484D02*
X17883134Y-10642484D01*
X17883134Y-10642484D02*
X17864087Y-10632960D01*
X17864087Y-10632960D02*
X17854563Y-10623436D01*
X17854563Y-10623436D02*
X17845039Y-10604389D01*
X17845039Y-10604389D02*
X17835515Y-10566293D01*
X17835515Y-10566293D02*
X17835515Y-10518674D01*
X17835515Y-10518674D02*
X17845039Y-10480579D01*
X17845039Y-10480579D02*
X17854563Y-10461531D01*
X17854563Y-10461531D02*
X17864087Y-10452008D01*
X17864087Y-10452008D02*
X17883134Y-10442484D01*
X18035515Y-10623436D02*
X18045039Y-10632960D01*
X18045039Y-10632960D02*
X18035515Y-10642484D01*
X18035515Y-10642484D02*
X18025991Y-10632960D01*
X18025991Y-10632960D02*
X18035515Y-10623436D01*
X18035515Y-10623436D02*
X18035515Y-10642484D01*
X18168848Y-10442484D02*
X18187896Y-10442484D01*
X18187896Y-10442484D02*
X18206944Y-10452008D01*
X18206944Y-10452008D02*
X18216468Y-10461531D01*
X18216468Y-10461531D02*
X18225991Y-10480579D01*
X18225991Y-10480579D02*
X18235515Y-10518674D01*
X18235515Y-10518674D02*
X18235515Y-10566293D01*
X18235515Y-10566293D02*
X18225991Y-10604389D01*
X18225991Y-10604389D02*
X18216468Y-10623436D01*
X18216468Y-10623436D02*
X18206944Y-10632960D01*
X18206944Y-10632960D02*
X18187896Y-10642484D01*
X18187896Y-10642484D02*
X18168848Y-10642484D01*
X18168848Y-10642484D02*
X18149801Y-10632960D01*
X18149801Y-10632960D02*
X18140277Y-10623436D01*
X18140277Y-10623436D02*
X18130753Y-10604389D01*
X18130753Y-10604389D02*
X18121229Y-10566293D01*
X18121229Y-10566293D02*
X18121229Y-10518674D01*
X18121229Y-10518674D02*
X18130753Y-10480579D01*
X18130753Y-10480579D02*
X18140277Y-10461531D01*
X18140277Y-10461531D02*
X18149801Y-10452008D01*
X18149801Y-10452008D02*
X18168848Y-10442484D01*
X18311706Y-10461531D02*
X18321229Y-10452008D01*
X18321229Y-10452008D02*
X18340277Y-10442484D01*
X18340277Y-10442484D02*
X18387896Y-10442484D01*
X18387896Y-10442484D02*
X18406944Y-10452008D01*
X18406944Y-10452008D02*
X18416468Y-10461531D01*
X18416468Y-10461531D02*
X18425991Y-10480579D01*
X18425991Y-10480579D02*
X18425991Y-10499627D01*
X18425991Y-10499627D02*
X18416468Y-10528198D01*
X18416468Y-10528198D02*
X18302182Y-10642484D01*
X18302182Y-10642484D02*
X18425991Y-10642484D01*
X18521229Y-10642484D02*
X18559325Y-10642484D01*
X18559325Y-10642484D02*
X18578372Y-10632960D01*
X18578372Y-10632960D02*
X18587896Y-10623436D01*
X18587896Y-10623436D02*
X18606944Y-10594865D01*
X18606944Y-10594865D02*
X18616468Y-10556770D01*
X18616468Y-10556770D02*
X18616468Y-10480579D01*
X18616468Y-10480579D02*
X18606944Y-10461531D01*
X18606944Y-10461531D02*
X18597420Y-10452008D01*
X18597420Y-10452008D02*
X18578372Y-10442484D01*
X18578372Y-10442484D02*
X18540277Y-10442484D01*
X18540277Y-10442484D02*
X18521229Y-10452008D01*
X18521229Y-10452008D02*
X18511706Y-10461531D01*
X18511706Y-10461531D02*
X18502182Y-10480579D01*
X18502182Y-10480579D02*
X18502182Y-10528198D01*
X18502182Y-10528198D02*
X18511706Y-10547246D01*
X18511706Y-10547246D02*
X18521229Y-10556770D01*
X18521229Y-10556770D02*
X18540277Y-10566293D01*
X18540277Y-10566293D02*
X18578372Y-10566293D01*
X18578372Y-10566293D02*
X18597420Y-10556770D01*
X18597420Y-10556770D02*
X18606944Y-10547246D01*
X18606944Y-10547246D02*
X18616468Y-10528198D01*
X18711706Y-10642484D02*
X18749801Y-10642484D01*
X18749801Y-10642484D02*
X18768849Y-10632960D01*
X18768849Y-10632960D02*
X18778372Y-10623436D01*
X18778372Y-10623436D02*
X18797420Y-10594865D01*
X18797420Y-10594865D02*
X18806944Y-10556770D01*
X18806944Y-10556770D02*
X18806944Y-10480579D01*
X18806944Y-10480579D02*
X18797420Y-10461531D01*
X18797420Y-10461531D02*
X18787896Y-10452008D01*
X18787896Y-10452008D02*
X18768849Y-10442484D01*
X18768849Y-10442484D02*
X18730753Y-10442484D01*
X18730753Y-10442484D02*
X18711706Y-10452008D01*
X18711706Y-10452008D02*
X18702182Y-10461531D01*
X18702182Y-10461531D02*
X18692658Y-10480579D01*
X18692658Y-10480579D02*
X18692658Y-10528198D01*
X18692658Y-10528198D02*
X18702182Y-10547246D01*
X18702182Y-10547246D02*
X18711706Y-10556770D01*
X18711706Y-10556770D02*
X18730753Y-10566293D01*
X18730753Y-10566293D02*
X18768849Y-10566293D01*
X18768849Y-10566293D02*
X18787896Y-10556770D01*
X18787896Y-10556770D02*
X18797420Y-10547246D01*
X18797420Y-10547246D02*
X18806944Y-10528198D01*
X18883134Y-10442484D02*
X18883134Y-10480579D01*
X18959325Y-10442484D02*
X18959325Y-10480579D01*
X19254563Y-10718674D02*
X19245039Y-10709150D01*
X19245039Y-10709150D02*
X19225991Y-10680579D01*
X19225991Y-10680579D02*
X19216468Y-10661531D01*
X19216468Y-10661531D02*
X19206944Y-10632960D01*
X19206944Y-10632960D02*
X19197420Y-10585341D01*
X19197420Y-10585341D02*
X19197420Y-10547246D01*
X19197420Y-10547246D02*
X19206944Y-10499627D01*
X19206944Y-10499627D02*
X19216468Y-10471055D01*
X19216468Y-10471055D02*
X19225991Y-10452008D01*
X19225991Y-10452008D02*
X19245039Y-10423436D01*
X19245039Y-10423436D02*
X19254563Y-10413912D01*
X19311706Y-10442484D02*
X19435515Y-10442484D01*
X19435515Y-10442484D02*
X19368849Y-10518674D01*
X19368849Y-10518674D02*
X19397420Y-10518674D01*
X19397420Y-10518674D02*
X19416468Y-10528198D01*
X19416468Y-10528198D02*
X19425991Y-10537722D01*
X19425991Y-10537722D02*
X19435515Y-10556770D01*
X19435515Y-10556770D02*
X19435515Y-10604389D01*
X19435515Y-10604389D02*
X19425991Y-10623436D01*
X19425991Y-10623436D02*
X19416468Y-10632960D01*
X19416468Y-10632960D02*
X19397420Y-10642484D01*
X19397420Y-10642484D02*
X19340277Y-10642484D01*
X19340277Y-10642484D02*
X19321230Y-10632960D01*
X19321230Y-10632960D02*
X19311706Y-10623436D01*
X19511706Y-10461531D02*
X19521230Y-10452008D01*
X19521230Y-10452008D02*
X19540277Y-10442484D01*
X19540277Y-10442484D02*
X19587896Y-10442484D01*
X19587896Y-10442484D02*
X19606944Y-10452008D01*
X19606944Y-10452008D02*
X19616468Y-10461531D01*
X19616468Y-10461531D02*
X19625991Y-10480579D01*
X19625991Y-10480579D02*
X19625991Y-10499627D01*
X19625991Y-10499627D02*
X19616468Y-10528198D01*
X19616468Y-10528198D02*
X19502182Y-10642484D01*
X19502182Y-10642484D02*
X19625991Y-10642484D01*
X19864087Y-10642484D02*
X19864087Y-10442484D01*
X19949801Y-10642484D02*
X19949801Y-10537722D01*
X19949801Y-10537722D02*
X19940277Y-10518674D01*
X19940277Y-10518674D02*
X19921230Y-10509150D01*
X19921230Y-10509150D02*
X19892658Y-10509150D01*
X19892658Y-10509150D02*
X19873611Y-10518674D01*
X19873611Y-10518674D02*
X19864087Y-10528198D01*
X20073611Y-10642484D02*
X20054563Y-10632960D01*
X20054563Y-10632960D02*
X20045039Y-10623436D01*
X20045039Y-10623436D02*
X20035515Y-10604389D01*
X20035515Y-10604389D02*
X20035515Y-10547246D01*
X20035515Y-10547246D02*
X20045039Y-10528198D01*
X20045039Y-10528198D02*
X20054563Y-10518674D01*
X20054563Y-10518674D02*
X20073611Y-10509150D01*
X20073611Y-10509150D02*
X20102182Y-10509150D01*
X20102182Y-10509150D02*
X20121230Y-10518674D01*
X20121230Y-10518674D02*
X20130753Y-10528198D01*
X20130753Y-10528198D02*
X20140277Y-10547246D01*
X20140277Y-10547246D02*
X20140277Y-10604389D01*
X20140277Y-10604389D02*
X20130753Y-10623436D01*
X20130753Y-10623436D02*
X20121230Y-10632960D01*
X20121230Y-10632960D02*
X20102182Y-10642484D01*
X20102182Y-10642484D02*
X20073611Y-10642484D01*
X20254563Y-10642484D02*
X20235515Y-10632960D01*
X20235515Y-10632960D02*
X20225992Y-10613912D01*
X20225992Y-10613912D02*
X20225992Y-10442484D01*
X20406944Y-10632960D02*
X20387896Y-10642484D01*
X20387896Y-10642484D02*
X20349801Y-10642484D01*
X20349801Y-10642484D02*
X20330753Y-10632960D01*
X20330753Y-10632960D02*
X20321230Y-10613912D01*
X20321230Y-10613912D02*
X20321230Y-10537722D01*
X20321230Y-10537722D02*
X20330753Y-10518674D01*
X20330753Y-10518674D02*
X20349801Y-10509150D01*
X20349801Y-10509150D02*
X20387896Y-10509150D01*
X20387896Y-10509150D02*
X20406944Y-10518674D01*
X20406944Y-10518674D02*
X20416468Y-10537722D01*
X20416468Y-10537722D02*
X20416468Y-10556770D01*
X20416468Y-10556770D02*
X20321230Y-10575817D01*
X20492658Y-10632960D02*
X20511706Y-10642484D01*
X20511706Y-10642484D02*
X20549801Y-10642484D01*
X20549801Y-10642484D02*
X20568849Y-10632960D01*
X20568849Y-10632960D02*
X20578373Y-10613912D01*
X20578373Y-10613912D02*
X20578373Y-10604389D01*
X20578373Y-10604389D02*
X20568849Y-10585341D01*
X20568849Y-10585341D02*
X20549801Y-10575817D01*
X20549801Y-10575817D02*
X20521230Y-10575817D01*
X20521230Y-10575817D02*
X20502182Y-10566293D01*
X20502182Y-10566293D02*
X20492658Y-10547246D01*
X20492658Y-10547246D02*
X20492658Y-10537722D01*
X20492658Y-10537722D02*
X20502182Y-10518674D01*
X20502182Y-10518674D02*
X20521230Y-10509150D01*
X20521230Y-10509150D02*
X20549801Y-10509150D01*
X20549801Y-10509150D02*
X20568849Y-10518674D01*
X20645039Y-10718674D02*
X20654563Y-10709150D01*
X20654563Y-10709150D02*
X20673611Y-10680579D01*
X20673611Y-10680579D02*
X20683134Y-10661531D01*
X20683134Y-10661531D02*
X20692658Y-10632960D01*
X20692658Y-10632960D02*
X20702182Y-10585341D01*
X20702182Y-10585341D02*
X20702182Y-10547246D01*
X20702182Y-10547246D02*
X20692658Y-10499627D01*
X20692658Y-10499627D02*
X20683134Y-10471055D01*
X20683134Y-10471055D02*
X20673611Y-10452008D01*
X20673611Y-10452008D02*
X20654563Y-10423436D01*
X20654563Y-10423436D02*
X20645039Y-10413912D01*
D10*
X15679500Y-10815000D02*
G75*
G03*
X15679500Y-10815000I-50000J0D01*
G01*
D11*
X16045039Y-10906484D02*
X15930753Y-10906484D01*
X15987896Y-10906484D02*
X15987896Y-10706484D01*
X15987896Y-10706484D02*
X15968848Y-10735055D01*
X15968848Y-10735055D02*
X15949801Y-10754103D01*
X15949801Y-10754103D02*
X15930753Y-10763627D01*
X16130753Y-10887436D02*
X16140277Y-10896960D01*
X16140277Y-10896960D02*
X16130753Y-10906484D01*
X16130753Y-10906484D02*
X16121229Y-10896960D01*
X16121229Y-10896960D02*
X16130753Y-10887436D01*
X16130753Y-10887436D02*
X16130753Y-10906484D01*
X16264086Y-10706484D02*
X16283134Y-10706484D01*
X16283134Y-10706484D02*
X16302182Y-10716008D01*
X16302182Y-10716008D02*
X16311705Y-10725531D01*
X16311705Y-10725531D02*
X16321229Y-10744579D01*
X16321229Y-10744579D02*
X16330753Y-10782674D01*
X16330753Y-10782674D02*
X16330753Y-10830293D01*
X16330753Y-10830293D02*
X16321229Y-10868389D01*
X16321229Y-10868389D02*
X16311705Y-10887436D01*
X16311705Y-10887436D02*
X16302182Y-10896960D01*
X16302182Y-10896960D02*
X16283134Y-10906484D01*
X16283134Y-10906484D02*
X16264086Y-10906484D01*
X16264086Y-10906484D02*
X16245039Y-10896960D01*
X16245039Y-10896960D02*
X16235515Y-10887436D01*
X16235515Y-10887436D02*
X16225991Y-10868389D01*
X16225991Y-10868389D02*
X16216467Y-10830293D01*
X16216467Y-10830293D02*
X16216467Y-10782674D01*
X16216467Y-10782674D02*
X16225991Y-10744579D01*
X16225991Y-10744579D02*
X16235515Y-10725531D01*
X16235515Y-10725531D02*
X16245039Y-10716008D01*
X16245039Y-10716008D02*
X16264086Y-10706484D01*
X16454562Y-10706484D02*
X16473610Y-10706484D01*
X16473610Y-10706484D02*
X16492658Y-10716008D01*
X16492658Y-10716008D02*
X16502182Y-10725531D01*
X16502182Y-10725531D02*
X16511705Y-10744579D01*
X16511705Y-10744579D02*
X16521229Y-10782674D01*
X16521229Y-10782674D02*
X16521229Y-10830293D01*
X16521229Y-10830293D02*
X16511705Y-10868389D01*
X16511705Y-10868389D02*
X16502182Y-10887436D01*
X16502182Y-10887436D02*
X16492658Y-10896960D01*
X16492658Y-10896960D02*
X16473610Y-10906484D01*
X16473610Y-10906484D02*
X16454562Y-10906484D01*
X16454562Y-10906484D02*
X16435515Y-10896960D01*
X16435515Y-10896960D02*
X16425991Y-10887436D01*
X16425991Y-10887436D02*
X16416467Y-10868389D01*
X16416467Y-10868389D02*
X16406943Y-10830293D01*
X16406943Y-10830293D02*
X16406943Y-10782674D01*
X16406943Y-10782674D02*
X16416467Y-10744579D01*
X16416467Y-10744579D02*
X16425991Y-10725531D01*
X16425991Y-10725531D02*
X16435515Y-10716008D01*
X16435515Y-10716008D02*
X16454562Y-10706484D01*
X16645039Y-10706484D02*
X16664086Y-10706484D01*
X16664086Y-10706484D02*
X16683134Y-10716008D01*
X16683134Y-10716008D02*
X16692658Y-10725531D01*
X16692658Y-10725531D02*
X16702182Y-10744579D01*
X16702182Y-10744579D02*
X16711705Y-10782674D01*
X16711705Y-10782674D02*
X16711705Y-10830293D01*
X16711705Y-10830293D02*
X16702182Y-10868389D01*
X16702182Y-10868389D02*
X16692658Y-10887436D01*
X16692658Y-10887436D02*
X16683134Y-10896960D01*
X16683134Y-10896960D02*
X16664086Y-10906484D01*
X16664086Y-10906484D02*
X16645039Y-10906484D01*
X16645039Y-10906484D02*
X16625991Y-10896960D01*
X16625991Y-10896960D02*
X16616467Y-10887436D01*
X16616467Y-10887436D02*
X16606943Y-10868389D01*
X16606943Y-10868389D02*
X16597420Y-10830293D01*
X16597420Y-10830293D02*
X16597420Y-10782674D01*
X16597420Y-10782674D02*
X16606943Y-10744579D01*
X16606943Y-10744579D02*
X16616467Y-10725531D01*
X16616467Y-10725531D02*
X16625991Y-10716008D01*
X16625991Y-10716008D02*
X16645039Y-10706484D01*
X16797420Y-10906484D02*
X16797420Y-10773150D01*
X16797420Y-10792198D02*
X16806944Y-10782674D01*
X16806944Y-10782674D02*
X16825991Y-10773150D01*
X16825991Y-10773150D02*
X16854563Y-10773150D01*
X16854563Y-10773150D02*
X16873610Y-10782674D01*
X16873610Y-10782674D02*
X16883134Y-10801722D01*
X16883134Y-10801722D02*
X16883134Y-10906484D01*
X16883134Y-10801722D02*
X16892658Y-10782674D01*
X16892658Y-10782674D02*
X16911705Y-10773150D01*
X16911705Y-10773150D02*
X16940277Y-10773150D01*
X16940277Y-10773150D02*
X16959325Y-10782674D01*
X16959325Y-10782674D02*
X16968848Y-10801722D01*
X16968848Y-10801722D02*
X16968848Y-10906484D01*
X17064086Y-10906484D02*
X17064086Y-10773150D01*
X17064086Y-10792198D02*
X17073610Y-10782674D01*
X17073610Y-10782674D02*
X17092658Y-10773150D01*
X17092658Y-10773150D02*
X17121229Y-10773150D01*
X17121229Y-10773150D02*
X17140277Y-10782674D01*
X17140277Y-10782674D02*
X17149801Y-10801722D01*
X17149801Y-10801722D02*
X17149801Y-10906484D01*
X17149801Y-10801722D02*
X17159325Y-10782674D01*
X17159325Y-10782674D02*
X17178372Y-10773150D01*
X17178372Y-10773150D02*
X17206944Y-10773150D01*
X17206944Y-10773150D02*
X17225991Y-10782674D01*
X17225991Y-10782674D02*
X17235515Y-10801722D01*
X17235515Y-10801722D02*
X17235515Y-10906484D01*
X17625991Y-10696960D02*
X17454563Y-10954103D01*
X17883134Y-10706484D02*
X17902182Y-10706484D01*
X17902182Y-10706484D02*
X17921229Y-10716008D01*
X17921229Y-10716008D02*
X17930753Y-10725531D01*
X17930753Y-10725531D02*
X17940277Y-10744579D01*
X17940277Y-10744579D02*
X17949801Y-10782674D01*
X17949801Y-10782674D02*
X17949801Y-10830293D01*
X17949801Y-10830293D02*
X17940277Y-10868389D01*
X17940277Y-10868389D02*
X17930753Y-10887436D01*
X17930753Y-10887436D02*
X17921229Y-10896960D01*
X17921229Y-10896960D02*
X17902182Y-10906484D01*
X17902182Y-10906484D02*
X17883134Y-10906484D01*
X17883134Y-10906484D02*
X17864087Y-10896960D01*
X17864087Y-10896960D02*
X17854563Y-10887436D01*
X17854563Y-10887436D02*
X17845039Y-10868389D01*
X17845039Y-10868389D02*
X17835515Y-10830293D01*
X17835515Y-10830293D02*
X17835515Y-10782674D01*
X17835515Y-10782674D02*
X17845039Y-10744579D01*
X17845039Y-10744579D02*
X17854563Y-10725531D01*
X17854563Y-10725531D02*
X17864087Y-10716008D01*
X17864087Y-10716008D02*
X17883134Y-10706484D01*
X18035515Y-10887436D02*
X18045039Y-10896960D01*
X18045039Y-10896960D02*
X18035515Y-10906484D01*
X18035515Y-10906484D02*
X18025991Y-10896960D01*
X18025991Y-10896960D02*
X18035515Y-10887436D01*
X18035515Y-10887436D02*
X18035515Y-10906484D01*
X18168848Y-10706484D02*
X18187896Y-10706484D01*
X18187896Y-10706484D02*
X18206944Y-10716008D01*
X18206944Y-10716008D02*
X18216468Y-10725531D01*
X18216468Y-10725531D02*
X18225991Y-10744579D01*
X18225991Y-10744579D02*
X18235515Y-10782674D01*
X18235515Y-10782674D02*
X18235515Y-10830293D01*
X18235515Y-10830293D02*
X18225991Y-10868389D01*
X18225991Y-10868389D02*
X18216468Y-10887436D01*
X18216468Y-10887436D02*
X18206944Y-10896960D01*
X18206944Y-10896960D02*
X18187896Y-10906484D01*
X18187896Y-10906484D02*
X18168848Y-10906484D01*
X18168848Y-10906484D02*
X18149801Y-10896960D01*
X18149801Y-10896960D02*
X18140277Y-10887436D01*
X18140277Y-10887436D02*
X18130753Y-10868389D01*
X18130753Y-10868389D02*
X18121229Y-10830293D01*
X18121229Y-10830293D02*
X18121229Y-10782674D01*
X18121229Y-10782674D02*
X18130753Y-10744579D01*
X18130753Y-10744579D02*
X18140277Y-10725531D01*
X18140277Y-10725531D02*
X18149801Y-10716008D01*
X18149801Y-10716008D02*
X18168848Y-10706484D01*
X18302182Y-10706484D02*
X18425991Y-10706484D01*
X18425991Y-10706484D02*
X18359325Y-10782674D01*
X18359325Y-10782674D02*
X18387896Y-10782674D01*
X18387896Y-10782674D02*
X18406944Y-10792198D01*
X18406944Y-10792198D02*
X18416468Y-10801722D01*
X18416468Y-10801722D02*
X18425991Y-10820770D01*
X18425991Y-10820770D02*
X18425991Y-10868389D01*
X18425991Y-10868389D02*
X18416468Y-10887436D01*
X18416468Y-10887436D02*
X18406944Y-10896960D01*
X18406944Y-10896960D02*
X18387896Y-10906484D01*
X18387896Y-10906484D02*
X18330753Y-10906484D01*
X18330753Y-10906484D02*
X18311706Y-10896960D01*
X18311706Y-10896960D02*
X18302182Y-10887436D01*
X18521229Y-10906484D02*
X18559325Y-10906484D01*
X18559325Y-10906484D02*
X18578372Y-10896960D01*
X18578372Y-10896960D02*
X18587896Y-10887436D01*
X18587896Y-10887436D02*
X18606944Y-10858865D01*
X18606944Y-10858865D02*
X18616468Y-10820770D01*
X18616468Y-10820770D02*
X18616468Y-10744579D01*
X18616468Y-10744579D02*
X18606944Y-10725531D01*
X18606944Y-10725531D02*
X18597420Y-10716008D01*
X18597420Y-10716008D02*
X18578372Y-10706484D01*
X18578372Y-10706484D02*
X18540277Y-10706484D01*
X18540277Y-10706484D02*
X18521229Y-10716008D01*
X18521229Y-10716008D02*
X18511706Y-10725531D01*
X18511706Y-10725531D02*
X18502182Y-10744579D01*
X18502182Y-10744579D02*
X18502182Y-10792198D01*
X18502182Y-10792198D02*
X18511706Y-10811246D01*
X18511706Y-10811246D02*
X18521229Y-10820770D01*
X18521229Y-10820770D02*
X18540277Y-10830293D01*
X18540277Y-10830293D02*
X18578372Y-10830293D01*
X18578372Y-10830293D02*
X18597420Y-10820770D01*
X18597420Y-10820770D02*
X18606944Y-10811246D01*
X18606944Y-10811246D02*
X18616468Y-10792198D01*
X18787896Y-10773150D02*
X18787896Y-10906484D01*
X18740277Y-10696960D02*
X18692658Y-10839817D01*
X18692658Y-10839817D02*
X18816468Y-10839817D01*
X18883134Y-10706484D02*
X18883134Y-10744579D01*
X18959325Y-10706484D02*
X18959325Y-10744579D01*
X19254563Y-10982674D02*
X19245039Y-10973150D01*
X19245039Y-10973150D02*
X19225991Y-10944579D01*
X19225991Y-10944579D02*
X19216468Y-10925531D01*
X19216468Y-10925531D02*
X19206944Y-10896960D01*
X19206944Y-10896960D02*
X19197420Y-10849341D01*
X19197420Y-10849341D02*
X19197420Y-10811246D01*
X19197420Y-10811246D02*
X19206944Y-10763627D01*
X19206944Y-10763627D02*
X19216468Y-10735055D01*
X19216468Y-10735055D02*
X19225991Y-10716008D01*
X19225991Y-10716008D02*
X19245039Y-10687436D01*
X19245039Y-10687436D02*
X19254563Y-10677912D01*
X19321230Y-10725531D02*
X19330753Y-10716008D01*
X19330753Y-10716008D02*
X19349801Y-10706484D01*
X19349801Y-10706484D02*
X19397420Y-10706484D01*
X19397420Y-10706484D02*
X19416468Y-10716008D01*
X19416468Y-10716008D02*
X19425991Y-10725531D01*
X19425991Y-10725531D02*
X19435515Y-10744579D01*
X19435515Y-10744579D02*
X19435515Y-10763627D01*
X19435515Y-10763627D02*
X19425991Y-10792198D01*
X19425991Y-10792198D02*
X19311706Y-10906484D01*
X19311706Y-10906484D02*
X19435515Y-10906484D01*
X19549801Y-10792198D02*
X19530753Y-10782674D01*
X19530753Y-10782674D02*
X19521230Y-10773150D01*
X19521230Y-10773150D02*
X19511706Y-10754103D01*
X19511706Y-10754103D02*
X19511706Y-10744579D01*
X19511706Y-10744579D02*
X19521230Y-10725531D01*
X19521230Y-10725531D02*
X19530753Y-10716008D01*
X19530753Y-10716008D02*
X19549801Y-10706484D01*
X19549801Y-10706484D02*
X19587896Y-10706484D01*
X19587896Y-10706484D02*
X19606944Y-10716008D01*
X19606944Y-10716008D02*
X19616468Y-10725531D01*
X19616468Y-10725531D02*
X19625991Y-10744579D01*
X19625991Y-10744579D02*
X19625991Y-10754103D01*
X19625991Y-10754103D02*
X19616468Y-10773150D01*
X19616468Y-10773150D02*
X19606944Y-10782674D01*
X19606944Y-10782674D02*
X19587896Y-10792198D01*
X19587896Y-10792198D02*
X19549801Y-10792198D01*
X19549801Y-10792198D02*
X19530753Y-10801722D01*
X19530753Y-10801722D02*
X19521230Y-10811246D01*
X19521230Y-10811246D02*
X19511706Y-10830293D01*
X19511706Y-10830293D02*
X19511706Y-10868389D01*
X19511706Y-10868389D02*
X19521230Y-10887436D01*
X19521230Y-10887436D02*
X19530753Y-10896960D01*
X19530753Y-10896960D02*
X19549801Y-10906484D01*
X19549801Y-10906484D02*
X19587896Y-10906484D01*
X19587896Y-10906484D02*
X19606944Y-10896960D01*
X19606944Y-10896960D02*
X19616468Y-10887436D01*
X19616468Y-10887436D02*
X19625991Y-10868389D01*
X19625991Y-10868389D02*
X19625991Y-10830293D01*
X19625991Y-10830293D02*
X19616468Y-10811246D01*
X19616468Y-10811246D02*
X19606944Y-10801722D01*
X19606944Y-10801722D02*
X19587896Y-10792198D01*
X19864087Y-10906484D02*
X19864087Y-10706484D01*
X19949801Y-10906484D02*
X19949801Y-10801722D01*
X19949801Y-10801722D02*
X19940277Y-10782674D01*
X19940277Y-10782674D02*
X19921230Y-10773150D01*
X19921230Y-10773150D02*
X19892658Y-10773150D01*
X19892658Y-10773150D02*
X19873611Y-10782674D01*
X19873611Y-10782674D02*
X19864087Y-10792198D01*
X20073611Y-10906484D02*
X20054563Y-10896960D01*
X20054563Y-10896960D02*
X20045039Y-10887436D01*
X20045039Y-10887436D02*
X20035515Y-10868389D01*
X20035515Y-10868389D02*
X20035515Y-10811246D01*
X20035515Y-10811246D02*
X20045039Y-10792198D01*
X20045039Y-10792198D02*
X20054563Y-10782674D01*
X20054563Y-10782674D02*
X20073611Y-10773150D01*
X20073611Y-10773150D02*
X20102182Y-10773150D01*
X20102182Y-10773150D02*
X20121230Y-10782674D01*
X20121230Y-10782674D02*
X20130753Y-10792198D01*
X20130753Y-10792198D02*
X20140277Y-10811246D01*
X20140277Y-10811246D02*
X20140277Y-10868389D01*
X20140277Y-10868389D02*
X20130753Y-10887436D01*
X20130753Y-10887436D02*
X20121230Y-10896960D01*
X20121230Y-10896960D02*
X20102182Y-10906484D01*
X20102182Y-10906484D02*
X20073611Y-10906484D01*
X20254563Y-10906484D02*
X20235515Y-10896960D01*
X20235515Y-10896960D02*
X20225992Y-10877912D01*
X20225992Y-10877912D02*
X20225992Y-10706484D01*
X20406944Y-10896960D02*
X20387896Y-10906484D01*
X20387896Y-10906484D02*
X20349801Y-10906484D01*
X20349801Y-10906484D02*
X20330753Y-10896960D01*
X20330753Y-10896960D02*
X20321230Y-10877912D01*
X20321230Y-10877912D02*
X20321230Y-10801722D01*
X20321230Y-10801722D02*
X20330753Y-10782674D01*
X20330753Y-10782674D02*
X20349801Y-10773150D01*
X20349801Y-10773150D02*
X20387896Y-10773150D01*
X20387896Y-10773150D02*
X20406944Y-10782674D01*
X20406944Y-10782674D02*
X20416468Y-10801722D01*
X20416468Y-10801722D02*
X20416468Y-10820770D01*
X20416468Y-10820770D02*
X20321230Y-10839817D01*
X20492658Y-10896960D02*
X20511706Y-10906484D01*
X20511706Y-10906484D02*
X20549801Y-10906484D01*
X20549801Y-10906484D02*
X20568849Y-10896960D01*
X20568849Y-10896960D02*
X20578373Y-10877912D01*
X20578373Y-10877912D02*
X20578373Y-10868389D01*
X20578373Y-10868389D02*
X20568849Y-10849341D01*
X20568849Y-10849341D02*
X20549801Y-10839817D01*
X20549801Y-10839817D02*
X20521230Y-10839817D01*
X20521230Y-10839817D02*
X20502182Y-10830293D01*
X20502182Y-10830293D02*
X20492658Y-10811246D01*
X20492658Y-10811246D02*
X20492658Y-10801722D01*
X20492658Y-10801722D02*
X20502182Y-10782674D01*
X20502182Y-10782674D02*
X20521230Y-10773150D01*
X20521230Y-10773150D02*
X20549801Y-10773150D01*
X20549801Y-10773150D02*
X20568849Y-10782674D01*
X20645039Y-10982674D02*
X20654563Y-10973150D01*
X20654563Y-10973150D02*
X20673611Y-10944579D01*
X20673611Y-10944579D02*
X20683134Y-10925531D01*
X20683134Y-10925531D02*
X20692658Y-10896960D01*
X20692658Y-10896960D02*
X20702182Y-10849341D01*
X20702182Y-10849341D02*
X20702182Y-10811246D01*
X20702182Y-10811246D02*
X20692658Y-10763627D01*
X20692658Y-10763627D02*
X20683134Y-10735055D01*
X20683134Y-10735055D02*
X20673611Y-10716008D01*
X20673611Y-10716008D02*
X20654563Y-10687436D01*
X20654563Y-10687436D02*
X20645039Y-10677912D01*
D12*
X15619500Y-11019000D02*
X15619500Y-11139000D01*
X15559500Y-11079000D02*
X15679500Y-11079000D01*
D11*
X16045039Y-11170484D02*
X15930753Y-11170484D01*
X15987896Y-11170484D02*
X15987896Y-10970484D01*
X15987896Y-10970484D02*
X15968848Y-10999055D01*
X15968848Y-10999055D02*
X15949801Y-11018103D01*
X15949801Y-11018103D02*
X15930753Y-11027627D01*
X16130753Y-11151436D02*
X16140277Y-11160960D01*
X16140277Y-11160960D02*
X16130753Y-11170484D01*
X16130753Y-11170484D02*
X16121229Y-11160960D01*
X16121229Y-11160960D02*
X16130753Y-11151436D01*
X16130753Y-11151436D02*
X16130753Y-11170484D01*
X16216467Y-10989531D02*
X16225991Y-10980008D01*
X16225991Y-10980008D02*
X16245039Y-10970484D01*
X16245039Y-10970484D02*
X16292658Y-10970484D01*
X16292658Y-10970484D02*
X16311705Y-10980008D01*
X16311705Y-10980008D02*
X16321229Y-10989531D01*
X16321229Y-10989531D02*
X16330753Y-11008579D01*
X16330753Y-11008579D02*
X16330753Y-11027627D01*
X16330753Y-11027627D02*
X16321229Y-11056198D01*
X16321229Y-11056198D02*
X16206943Y-11170484D01*
X16206943Y-11170484D02*
X16330753Y-11170484D01*
X16454562Y-10970484D02*
X16473610Y-10970484D01*
X16473610Y-10970484D02*
X16492658Y-10980008D01*
X16492658Y-10980008D02*
X16502182Y-10989531D01*
X16502182Y-10989531D02*
X16511705Y-11008579D01*
X16511705Y-11008579D02*
X16521229Y-11046674D01*
X16521229Y-11046674D02*
X16521229Y-11094293D01*
X16521229Y-11094293D02*
X16511705Y-11132389D01*
X16511705Y-11132389D02*
X16502182Y-11151436D01*
X16502182Y-11151436D02*
X16492658Y-11160960D01*
X16492658Y-11160960D02*
X16473610Y-11170484D01*
X16473610Y-11170484D02*
X16454562Y-11170484D01*
X16454562Y-11170484D02*
X16435515Y-11160960D01*
X16435515Y-11160960D02*
X16425991Y-11151436D01*
X16425991Y-11151436D02*
X16416467Y-11132389D01*
X16416467Y-11132389D02*
X16406943Y-11094293D01*
X16406943Y-11094293D02*
X16406943Y-11046674D01*
X16406943Y-11046674D02*
X16416467Y-11008579D01*
X16416467Y-11008579D02*
X16425991Y-10989531D01*
X16425991Y-10989531D02*
X16435515Y-10980008D01*
X16435515Y-10980008D02*
X16454562Y-10970484D01*
X16645039Y-10970484D02*
X16664086Y-10970484D01*
X16664086Y-10970484D02*
X16683134Y-10980008D01*
X16683134Y-10980008D02*
X16692658Y-10989531D01*
X16692658Y-10989531D02*
X16702182Y-11008579D01*
X16702182Y-11008579D02*
X16711705Y-11046674D01*
X16711705Y-11046674D02*
X16711705Y-11094293D01*
X16711705Y-11094293D02*
X16702182Y-11132389D01*
X16702182Y-11132389D02*
X16692658Y-11151436D01*
X16692658Y-11151436D02*
X16683134Y-11160960D01*
X16683134Y-11160960D02*
X16664086Y-11170484D01*
X16664086Y-11170484D02*
X16645039Y-11170484D01*
X16645039Y-11170484D02*
X16625991Y-11160960D01*
X16625991Y-11160960D02*
X16616467Y-11151436D01*
X16616467Y-11151436D02*
X16606943Y-11132389D01*
X16606943Y-11132389D02*
X16597420Y-11094293D01*
X16597420Y-11094293D02*
X16597420Y-11046674D01*
X16597420Y-11046674D02*
X16606943Y-11008579D01*
X16606943Y-11008579D02*
X16616467Y-10989531D01*
X16616467Y-10989531D02*
X16625991Y-10980008D01*
X16625991Y-10980008D02*
X16645039Y-10970484D01*
X16797420Y-11170484D02*
X16797420Y-11037150D01*
X16797420Y-11056198D02*
X16806944Y-11046674D01*
X16806944Y-11046674D02*
X16825991Y-11037150D01*
X16825991Y-11037150D02*
X16854563Y-11037150D01*
X16854563Y-11037150D02*
X16873610Y-11046674D01*
X16873610Y-11046674D02*
X16883134Y-11065722D01*
X16883134Y-11065722D02*
X16883134Y-11170484D01*
X16883134Y-11065722D02*
X16892658Y-11046674D01*
X16892658Y-11046674D02*
X16911705Y-11037150D01*
X16911705Y-11037150D02*
X16940277Y-11037150D01*
X16940277Y-11037150D02*
X16959325Y-11046674D01*
X16959325Y-11046674D02*
X16968848Y-11065722D01*
X16968848Y-11065722D02*
X16968848Y-11170484D01*
X17064086Y-11170484D02*
X17064086Y-11037150D01*
X17064086Y-11056198D02*
X17073610Y-11046674D01*
X17073610Y-11046674D02*
X17092658Y-11037150D01*
X17092658Y-11037150D02*
X17121229Y-11037150D01*
X17121229Y-11037150D02*
X17140277Y-11046674D01*
X17140277Y-11046674D02*
X17149801Y-11065722D01*
X17149801Y-11065722D02*
X17149801Y-11170484D01*
X17149801Y-11065722D02*
X17159325Y-11046674D01*
X17159325Y-11046674D02*
X17178372Y-11037150D01*
X17178372Y-11037150D02*
X17206944Y-11037150D01*
X17206944Y-11037150D02*
X17225991Y-11046674D01*
X17225991Y-11046674D02*
X17235515Y-11065722D01*
X17235515Y-11065722D02*
X17235515Y-11170484D01*
X17625991Y-10960960D02*
X17454563Y-11218103D01*
X17883134Y-10970484D02*
X17902182Y-10970484D01*
X17902182Y-10970484D02*
X17921229Y-10980008D01*
X17921229Y-10980008D02*
X17930753Y-10989531D01*
X17930753Y-10989531D02*
X17940277Y-11008579D01*
X17940277Y-11008579D02*
X17949801Y-11046674D01*
X17949801Y-11046674D02*
X17949801Y-11094293D01*
X17949801Y-11094293D02*
X17940277Y-11132389D01*
X17940277Y-11132389D02*
X17930753Y-11151436D01*
X17930753Y-11151436D02*
X17921229Y-11160960D01*
X17921229Y-11160960D02*
X17902182Y-11170484D01*
X17902182Y-11170484D02*
X17883134Y-11170484D01*
X17883134Y-11170484D02*
X17864087Y-11160960D01*
X17864087Y-11160960D02*
X17854563Y-11151436D01*
X17854563Y-11151436D02*
X17845039Y-11132389D01*
X17845039Y-11132389D02*
X17835515Y-11094293D01*
X17835515Y-11094293D02*
X17835515Y-11046674D01*
X17835515Y-11046674D02*
X17845039Y-11008579D01*
X17845039Y-11008579D02*
X17854563Y-10989531D01*
X17854563Y-10989531D02*
X17864087Y-10980008D01*
X17864087Y-10980008D02*
X17883134Y-10970484D01*
X18035515Y-11151436D02*
X18045039Y-11160960D01*
X18045039Y-11160960D02*
X18035515Y-11170484D01*
X18035515Y-11170484D02*
X18025991Y-11160960D01*
X18025991Y-11160960D02*
X18035515Y-11151436D01*
X18035515Y-11151436D02*
X18035515Y-11170484D01*
X18168848Y-10970484D02*
X18187896Y-10970484D01*
X18187896Y-10970484D02*
X18206944Y-10980008D01*
X18206944Y-10980008D02*
X18216468Y-10989531D01*
X18216468Y-10989531D02*
X18225991Y-11008579D01*
X18225991Y-11008579D02*
X18235515Y-11046674D01*
X18235515Y-11046674D02*
X18235515Y-11094293D01*
X18235515Y-11094293D02*
X18225991Y-11132389D01*
X18225991Y-11132389D02*
X18216468Y-11151436D01*
X18216468Y-11151436D02*
X18206944Y-11160960D01*
X18206944Y-11160960D02*
X18187896Y-11170484D01*
X18187896Y-11170484D02*
X18168848Y-11170484D01*
X18168848Y-11170484D02*
X18149801Y-11160960D01*
X18149801Y-11160960D02*
X18140277Y-11151436D01*
X18140277Y-11151436D02*
X18130753Y-11132389D01*
X18130753Y-11132389D02*
X18121229Y-11094293D01*
X18121229Y-11094293D02*
X18121229Y-11046674D01*
X18121229Y-11046674D02*
X18130753Y-11008579D01*
X18130753Y-11008579D02*
X18140277Y-10989531D01*
X18140277Y-10989531D02*
X18149801Y-10980008D01*
X18149801Y-10980008D02*
X18168848Y-10970484D01*
X18406944Y-11037150D02*
X18406944Y-11170484D01*
X18359325Y-10960960D02*
X18311706Y-11103817D01*
X18311706Y-11103817D02*
X18435515Y-11103817D01*
X18492658Y-10970484D02*
X18625991Y-10970484D01*
X18625991Y-10970484D02*
X18540277Y-11170484D01*
X18692658Y-10989531D02*
X18702182Y-10980008D01*
X18702182Y-10980008D02*
X18721229Y-10970484D01*
X18721229Y-10970484D02*
X18768849Y-10970484D01*
X18768849Y-10970484D02*
X18787896Y-10980008D01*
X18787896Y-10980008D02*
X18797420Y-10989531D01*
X18797420Y-10989531D02*
X18806944Y-11008579D01*
X18806944Y-11008579D02*
X18806944Y-11027627D01*
X18806944Y-11027627D02*
X18797420Y-11056198D01*
X18797420Y-11056198D02*
X18683134Y-11170484D01*
X18683134Y-11170484D02*
X18806944Y-11170484D01*
X18883134Y-10970484D02*
X18883134Y-11008579D01*
X18959325Y-10970484D02*
X18959325Y-11008579D01*
X19254563Y-11246674D02*
X19245039Y-11237150D01*
X19245039Y-11237150D02*
X19225991Y-11208579D01*
X19225991Y-11208579D02*
X19216468Y-11189531D01*
X19216468Y-11189531D02*
X19206944Y-11160960D01*
X19206944Y-11160960D02*
X19197420Y-11113341D01*
X19197420Y-11113341D02*
X19197420Y-11075246D01*
X19197420Y-11075246D02*
X19206944Y-11027627D01*
X19206944Y-11027627D02*
X19216468Y-10999055D01*
X19216468Y-10999055D02*
X19225991Y-10980008D01*
X19225991Y-10980008D02*
X19245039Y-10951436D01*
X19245039Y-10951436D02*
X19254563Y-10941912D01*
X19416468Y-11037150D02*
X19416468Y-11170484D01*
X19368849Y-10960960D02*
X19321230Y-11103817D01*
X19321230Y-11103817D02*
X19445039Y-11103817D01*
X19673611Y-11170484D02*
X19673611Y-10970484D01*
X19759325Y-11170484D02*
X19759325Y-11065722D01*
X19759325Y-11065722D02*
X19749801Y-11046674D01*
X19749801Y-11046674D02*
X19730753Y-11037150D01*
X19730753Y-11037150D02*
X19702182Y-11037150D01*
X19702182Y-11037150D02*
X19683134Y-11046674D01*
X19683134Y-11046674D02*
X19673611Y-11056198D01*
X19883134Y-11170484D02*
X19864087Y-11160960D01*
X19864087Y-11160960D02*
X19854563Y-11151436D01*
X19854563Y-11151436D02*
X19845039Y-11132389D01*
X19845039Y-11132389D02*
X19845039Y-11075246D01*
X19845039Y-11075246D02*
X19854563Y-11056198D01*
X19854563Y-11056198D02*
X19864087Y-11046674D01*
X19864087Y-11046674D02*
X19883134Y-11037150D01*
X19883134Y-11037150D02*
X19911706Y-11037150D01*
X19911706Y-11037150D02*
X19930753Y-11046674D01*
X19930753Y-11046674D02*
X19940277Y-11056198D01*
X19940277Y-11056198D02*
X19949801Y-11075246D01*
X19949801Y-11075246D02*
X19949801Y-11132389D01*
X19949801Y-11132389D02*
X19940277Y-11151436D01*
X19940277Y-11151436D02*
X19930753Y-11160960D01*
X19930753Y-11160960D02*
X19911706Y-11170484D01*
X19911706Y-11170484D02*
X19883134Y-11170484D01*
X20064087Y-11170484D02*
X20045039Y-11160960D01*
X20045039Y-11160960D02*
X20035515Y-11141912D01*
X20035515Y-11141912D02*
X20035515Y-10970484D01*
X20216468Y-11160960D02*
X20197420Y-11170484D01*
X20197420Y-11170484D02*
X20159325Y-11170484D01*
X20159325Y-11170484D02*
X20140277Y-11160960D01*
X20140277Y-11160960D02*
X20130753Y-11141912D01*
X20130753Y-11141912D02*
X20130753Y-11065722D01*
X20130753Y-11065722D02*
X20140277Y-11046674D01*
X20140277Y-11046674D02*
X20159325Y-11037150D01*
X20159325Y-11037150D02*
X20197420Y-11037150D01*
X20197420Y-11037150D02*
X20216468Y-11046674D01*
X20216468Y-11046674D02*
X20225992Y-11065722D01*
X20225992Y-11065722D02*
X20225992Y-11084770D01*
X20225992Y-11084770D02*
X20130753Y-11103817D01*
X20302182Y-11160960D02*
X20321230Y-11170484D01*
X20321230Y-11170484D02*
X20359325Y-11170484D01*
X20359325Y-11170484D02*
X20378373Y-11160960D01*
X20378373Y-11160960D02*
X20387896Y-11141912D01*
X20387896Y-11141912D02*
X20387896Y-11132389D01*
X20387896Y-11132389D02*
X20378373Y-11113341D01*
X20378373Y-11113341D02*
X20359325Y-11103817D01*
X20359325Y-11103817D02*
X20330753Y-11103817D01*
X20330753Y-11103817D02*
X20311706Y-11094293D01*
X20311706Y-11094293D02*
X20302182Y-11075246D01*
X20302182Y-11075246D02*
X20302182Y-11065722D01*
X20302182Y-11065722D02*
X20311706Y-11046674D01*
X20311706Y-11046674D02*
X20330753Y-11037150D01*
X20330753Y-11037150D02*
X20359325Y-11037150D01*
X20359325Y-11037150D02*
X20378373Y-11046674D01*
X20454563Y-11246674D02*
X20464087Y-11237150D01*
X20464087Y-11237150D02*
X20483134Y-11208579D01*
X20483134Y-11208579D02*
X20492658Y-11189531D01*
X20492658Y-11189531D02*
X20502182Y-11160960D01*
X20502182Y-11160960D02*
X20511706Y-11113341D01*
X20511706Y-11113341D02*
X20511706Y-11075246D01*
X20511706Y-11075246D02*
X20502182Y-11027627D01*
X20502182Y-11027627D02*
X20492658Y-10999055D01*
X20492658Y-10999055D02*
X20483134Y-10980008D01*
X20483134Y-10980008D02*
X20464087Y-10951436D01*
X20464087Y-10951436D02*
X20454563Y-10941912D01*
M02*
