%TF.GenerationSoftware,KiCad,Pcbnew,7.0.9*%
%TF.CreationDate,2023-12-28T12:30:11-05:00*%
%TF.ProjectId,IO,494f2e6b-6963-4616-945f-706362585858,rev?*%
%TF.SameCoordinates,Original*%
%TF.FileFunction,Soldermask,Bot*%
%TF.FilePolarity,Negative*%
%FSLAX46Y46*%
G04 Gerber Fmt 4.6, Leading zero omitted, Abs format (unit mm)*
G04 Created by KiCad (PCBNEW 7.0.9) date 2023-12-28 12:30:11*
%MOMM*%
%LPD*%
G01*
G04 APERTURE LIST*
%ADD10C,3.000000*%
%ADD11C,1.600000*%
%ADD12O,1.600000X1.600000*%
%ADD13R,1.500000X1.050000*%
%ADD14O,1.500000X1.050000*%
%ADD15R,1.800000X1.800000*%
%ADD16C,1.800000*%
%ADD17R,1.700000X1.700000*%
%ADD18O,1.700000X1.700000*%
%ADD19R,1.400000X1.400000*%
%ADD20C,1.400000*%
%ADD21R,2.000000X2.000000*%
%ADD22C,2.000000*%
%ADD23R,2.000000X1.905000*%
%ADD24O,2.000000X1.905000*%
G04 APERTURE END LIST*
D10*
%TO.C,B1*%
X175825000Y-80385000D03*
X175825000Y-96615000D03*
X182175000Y-80385000D03*
X182175000Y-96615000D03*
X169475000Y-80385000D03*
X169475000Y-96615000D03*
%TD*%
D11*
%TO.C,R7*%
X153750000Y-107920000D03*
D12*
X153750000Y-118080000D03*
%TD*%
D13*
%TO.C,QL1*%
X150250000Y-104040000D03*
D14*
X150250000Y-102770000D03*
X150250000Y-101500000D03*
%TD*%
D15*
%TO.C,LEDB1*%
X117750000Y-116250000D03*
D16*
X120290000Y-116250000D03*
%TD*%
D17*
%TO.C,Out3*%
X158500000Y-94750000D03*
D18*
X158500000Y-92210000D03*
X158500000Y-89670000D03*
%TD*%
D17*
%TO.C,J3*%
X125000000Y-109775000D03*
D18*
X125000000Y-107235000D03*
%TD*%
D11*
%TO.C,RLed2*%
X123750000Y-118000000D03*
D12*
X133910000Y-118000000D03*
%TD*%
D10*
%TO.C,A1*%
X175825000Y-101135000D03*
X175825000Y-117365000D03*
X182175000Y-101135000D03*
X182175000Y-117365000D03*
X169475000Y-101135000D03*
X169475000Y-117365000D03*
%TD*%
D17*
%TO.C,Out2*%
X158250000Y-115040000D03*
D18*
X158250000Y-112500000D03*
X158250000Y-109960000D03*
%TD*%
D11*
%TO.C,RLed1*%
X133830000Y-114500000D03*
D12*
X123670000Y-114500000D03*
%TD*%
D19*
%TO.C,Left/Mono1*%
X154262500Y-97607500D03*
D20*
X154262500Y-89987500D03*
X154262500Y-84907500D03*
X154262500Y-79827500D03*
X146642500Y-79827500D03*
X146642500Y-84907500D03*
X146642500Y-89987500D03*
X146642500Y-97607500D03*
%TD*%
D21*
%TO.C,C1*%
X135882323Y-106500000D03*
D22*
X139382323Y-106500000D03*
%TD*%
D23*
%TO.C,U1*%
X144305000Y-111460000D03*
D24*
X144305000Y-114000000D03*
X144305000Y-116540000D03*
%TD*%
D17*
%TO.C,J1*%
X118500000Y-109025000D03*
%TD*%
D11*
%TO.C,R6*%
X150250000Y-118080000D03*
D12*
X150250000Y-107920000D03*
%TD*%
D15*
%TO.C,D2*%
X140040000Y-116500000D03*
D16*
X137500000Y-116500000D03*
%TD*%
D17*
%TO.C,J2*%
X129500000Y-109775000D03*
D18*
X129500000Y-107235000D03*
%TD*%
D17*
%TO.C,Out1*%
X138000000Y-85525000D03*
D18*
X138000000Y-82985000D03*
X138000000Y-80445000D03*
%TD*%
M02*
