%TF.GenerationSoftware,KiCad,Pcbnew,7.0.9*%
%TF.CreationDate,2023-12-28T12:30:11-05:00*%
%TF.ProjectId,IO,494f2e6b-6963-4616-945f-706362585858,rev?*%
%TF.SameCoordinates,Original*%
%TF.FileFunction,Copper,L1,Top*%
%TF.FilePolarity,Positive*%
%FSLAX46Y46*%
G04 Gerber Fmt 4.6, Leading zero omitted, Abs format (unit mm)*
G04 Created by KiCad (PCBNEW 7.0.9) date 2023-12-28 12:30:11*
%MOMM*%
%LPD*%
G01*
G04 APERTURE LIST*
%TA.AperFunction,ComponentPad*%
%ADD10C,3.000000*%
%TD*%
%TA.AperFunction,ComponentPad*%
%ADD11C,1.600000*%
%TD*%
%TA.AperFunction,ComponentPad*%
%ADD12O,1.600000X1.600000*%
%TD*%
%TA.AperFunction,ComponentPad*%
%ADD13R,1.500000X1.050000*%
%TD*%
%TA.AperFunction,ComponentPad*%
%ADD14O,1.500000X1.050000*%
%TD*%
%TA.AperFunction,ComponentPad*%
%ADD15R,1.800000X1.800000*%
%TD*%
%TA.AperFunction,ComponentPad*%
%ADD16C,1.800000*%
%TD*%
%TA.AperFunction,ComponentPad*%
%ADD17R,1.700000X1.700000*%
%TD*%
%TA.AperFunction,ComponentPad*%
%ADD18O,1.700000X1.700000*%
%TD*%
%TA.AperFunction,ComponentPad*%
%ADD19R,1.400000X1.400000*%
%TD*%
%TA.AperFunction,ComponentPad*%
%ADD20C,1.400000*%
%TD*%
%TA.AperFunction,ComponentPad*%
%ADD21R,2.000000X2.000000*%
%TD*%
%TA.AperFunction,ComponentPad*%
%ADD22C,2.000000*%
%TD*%
%TA.AperFunction,ComponentPad*%
%ADD23R,2.000000X1.905000*%
%TD*%
%TA.AperFunction,ComponentPad*%
%ADD24O,2.000000X1.905000*%
%TD*%
%TA.AperFunction,ViaPad*%
%ADD25C,0.800000*%
%TD*%
%TA.AperFunction,Conductor*%
%ADD26C,0.500000*%
%TD*%
%TA.AperFunction,Conductor*%
%ADD27C,0.750000*%
%TD*%
G04 APERTURE END LIST*
D10*
%TO.P,B1,R*%
%TO.N,Net-(Out3-Pin_2)*%
X175825000Y-80385000D03*
%TO.P,B1,RN*%
%TO.N,/Signal_Gnd*%
X175825000Y-96615000D03*
%TO.P,B1,S*%
X182175000Y-80385000D03*
%TO.P,B1,SN*%
%TO.N,unconnected-(B1-PadSN)*%
X182175000Y-96615000D03*
%TO.P,B1,T*%
%TO.N,/B*%
X169475000Y-80385000D03*
%TO.P,B1,TN*%
%TO.N,/Signal_Gnd*%
X169475000Y-96615000D03*
%TD*%
D11*
%TO.P,R7,1*%
%TO.N,Net-(QL1-G)*%
X153750000Y-107920000D03*
D12*
%TO.P,R7,2*%
%TO.N,/Ctrl_GND*%
X153750000Y-118080000D03*
%TD*%
D13*
%TO.P,QL1,1,S*%
%TO.N,/Ctrl_GND*%
X150250000Y-104040000D03*
D14*
%TO.P,QL1,2,G*%
%TO.N,Net-(QL1-G)*%
X150250000Y-102770000D03*
%TO.P,QL1,3,D*%
%TO.N,Net-(QL1-D)*%
X150250000Y-101500000D03*
%TD*%
D15*
%TO.P,LEDB1,1,K*%
%TO.N,/Ctrl_GND*%
X117750000Y-116250000D03*
D16*
%TO.P,LEDB1,2,A*%
%TO.N,Net-(LEDB1-A)*%
X120290000Y-116250000D03*
%TD*%
D17*
%TO.P,Out3,1,Pin_1*%
%TO.N,/Signal_Gnd*%
X158500000Y-94750000D03*
D18*
%TO.P,Out3,2,Pin_2*%
%TO.N,Net-(Out3-Pin_2)*%
X158500000Y-92210000D03*
%TO.P,Out3,3,Pin_3*%
%TO.N,/B*%
X158500000Y-89670000D03*
%TD*%
D17*
%TO.P,J3,1,Pin_1*%
%TO.N,/9V*%
X125000000Y-109775000D03*
D18*
%TO.P,J3,2,Pin_2*%
%TO.N,/Ctrl_GND*%
X125000000Y-107235000D03*
%TD*%
D11*
%TO.P,RLed2,1*%
%TO.N,Net-(Left/Mono1-Pad11)*%
X123750000Y-118000000D03*
D12*
%TO.P,RLed2,2*%
%TO.N,Net-(D2-A)*%
X133910000Y-118000000D03*
%TD*%
D10*
%TO.P,A1,R*%
%TO.N,Net-(Out2-Pin_2)*%
X175825000Y-101135000D03*
%TO.P,A1,RN*%
%TO.N,/Signal_Gnd*%
X175825000Y-117365000D03*
%TO.P,A1,S*%
X182175000Y-101135000D03*
%TO.P,A1,SN*%
%TO.N,unconnected-(A1-PadSN)*%
X182175000Y-117365000D03*
%TO.P,A1,T*%
%TO.N,/A*%
X169475000Y-101135000D03*
%TO.P,A1,TN*%
%TO.N,/Signal_Gnd*%
X169475000Y-117365000D03*
%TD*%
D17*
%TO.P,Out2,1,Pin_1*%
%TO.N,/Signal_Gnd*%
X158250000Y-115040000D03*
D18*
%TO.P,Out2,2,Pin_2*%
%TO.N,Net-(Out2-Pin_2)*%
X158250000Y-112500000D03*
%TO.P,Out2,3,Pin_3*%
%TO.N,/A*%
X158250000Y-109960000D03*
%TD*%
D11*
%TO.P,RLed1,1*%
%TO.N,Net-(Left/Mono1-Pad9)*%
X133830000Y-114500000D03*
D12*
%TO.P,RLed1,2*%
%TO.N,Net-(LEDB1-A)*%
X123670000Y-114500000D03*
%TD*%
D19*
%TO.P,Left/Mono1,1*%
%TO.N,Net-(QL1-D)*%
X154262500Y-97607500D03*
D20*
%TO.P,Left/Mono1,4*%
%TO.N,/L_out*%
X154262500Y-89987500D03*
%TO.P,Left/Mono1,6*%
%TO.N,/A*%
X154262500Y-84907500D03*
%TO.P,Left/Mono1,8*%
%TO.N,/B*%
X154262500Y-79827500D03*
%TO.P,Left/Mono1,9*%
%TO.N,Net-(Left/Mono1-Pad9)*%
X146642500Y-79827500D03*
%TO.P,Left/Mono1,11*%
%TO.N,Net-(Left/Mono1-Pad11)*%
X146642500Y-84907500D03*
%TO.P,Left/Mono1,13*%
%TO.N,/5V*%
X146642500Y-89987500D03*
%TO.P,Left/Mono1,16*%
X146642500Y-97607500D03*
%TD*%
D21*
%TO.P,C1,1*%
%TO.N,/9V*%
X135882323Y-106500000D03*
D22*
%TO.P,C1,2*%
%TO.N,/Ctrl_GND*%
X139382323Y-106500000D03*
%TD*%
D23*
%TO.P,U1,1,IN*%
%TO.N,/9V*%
X144305000Y-111460000D03*
D24*
%TO.P,U1,2,GND*%
%TO.N,/Ctrl_GND*%
X144305000Y-114000000D03*
%TO.P,U1,3,OUT*%
%TO.N,/5V*%
X144305000Y-116540000D03*
%TD*%
D17*
%TO.P,J1,1,Pin_1*%
%TO.N,/Control*%
X118500000Y-109025000D03*
%TD*%
D11*
%TO.P,R6,1*%
%TO.N,/Control*%
X150250000Y-118080000D03*
D12*
%TO.P,R6,2*%
%TO.N,Net-(QL1-G)*%
X150250000Y-107920000D03*
%TD*%
D15*
%TO.P,D2,1,K*%
%TO.N,/Ctrl_GND*%
X140040000Y-116500000D03*
D16*
%TO.P,D2,2,A*%
%TO.N,Net-(D2-A)*%
X137500000Y-116500000D03*
%TD*%
D17*
%TO.P,J2,1,Pin_1*%
%TO.N,/9V*%
X129500000Y-109775000D03*
D18*
%TO.P,J2,2,Pin_2*%
%TO.N,/Ctrl_GND*%
X129500000Y-107235000D03*
%TD*%
D17*
%TO.P,Out1,1,Pin_1*%
%TO.N,/Signal_Gnd*%
X138000000Y-85525000D03*
D18*
%TO.P,Out1,2,Pin_2*%
%TO.N,/L_out*%
X138000000Y-82985000D03*
%TO.P,Out1,3,Pin_3*%
X138000000Y-80445000D03*
%TD*%
D25*
%TO.N,/L_out*%
X151750000Y-83000000D03*
%TD*%
D26*
%TO.N,/Control*%
X138500000Y-111750000D02*
X142250000Y-115500000D01*
X145499961Y-119756049D02*
X147176010Y-118080000D01*
X142250000Y-118500000D02*
X143506364Y-119756364D01*
X147176010Y-118080000D02*
X150250000Y-118080000D01*
X142250000Y-115500000D02*
X142250000Y-118500000D01*
X121225000Y-111750000D02*
X138500000Y-111750000D01*
X143506364Y-119756364D02*
X145499961Y-119756049D01*
X118500000Y-109025000D02*
X121225000Y-111750000D01*
D27*
%TO.N,/9V*%
X139960000Y-111460000D02*
X144305000Y-111460000D01*
X129500000Y-109775000D02*
X136250000Y-109775000D01*
X136250000Y-109775000D02*
X138275000Y-109775000D01*
X135882323Y-109407323D02*
X136250000Y-109775000D01*
X135882323Y-106500000D02*
X135882323Y-109407323D01*
X125000000Y-109775000D02*
X129500000Y-109775000D01*
X138275000Y-109775000D02*
X139960000Y-111460000D01*
%TO.N,/Ctrl_GND*%
X129500000Y-107235000D02*
X132485000Y-104250000D01*
X139382323Y-106500000D02*
X144000000Y-106500000D01*
X125000000Y-107235000D02*
X129500000Y-107235000D01*
X132485000Y-104250000D02*
X137132323Y-104250000D01*
X137132323Y-104250000D02*
X139382323Y-106500000D01*
X147000000Y-112500000D02*
X145500000Y-114000000D01*
X145500000Y-114000000D02*
X144305000Y-114000000D01*
X147000000Y-109500000D02*
X147000000Y-112500000D01*
X144000000Y-106500000D02*
X147000000Y-109500000D01*
D26*
%TO.N,/A*%
X164657500Y-84907500D02*
X154262500Y-84907500D01*
X169475000Y-101135000D02*
X171500000Y-99110000D01*
X171500000Y-91750000D02*
X164657500Y-84907500D01*
X171500000Y-99110000D02*
X171500000Y-91750000D01*
%TO.N,/Signal_Gnd*%
X177655000Y-96615000D02*
X175825000Y-96615000D01*
X182175000Y-111015000D02*
X175825000Y-117365000D01*
X169475000Y-96615000D02*
X169475000Y-91725000D01*
X184500000Y-82710000D02*
X184500000Y-101000000D01*
X184500000Y-101000000D02*
X184365000Y-101135000D01*
X164000000Y-86250000D02*
X141250000Y-86250000D01*
X182175000Y-80385000D02*
X184500000Y-82710000D01*
X169475000Y-91725000D02*
X164000000Y-86250000D01*
X140525000Y-85525000D02*
X138000000Y-85525000D01*
X182175000Y-101135000D02*
X182175000Y-111015000D01*
X141250000Y-86250000D02*
X140525000Y-85525000D01*
X184365000Y-101135000D02*
X182175000Y-101135000D01*
X175825000Y-117365000D02*
X169475000Y-117365000D01*
X182175000Y-101135000D02*
X177655000Y-96615000D01*
%TO.N,/B*%
X154262500Y-79827500D02*
X167667500Y-79827500D01*
X168917500Y-79827500D02*
X169475000Y-80385000D01*
%TO.N,/5V*%
X144305000Y-116540000D02*
X144960000Y-116540000D01*
X146000000Y-106250000D02*
X146000000Y-104750000D01*
X148500000Y-113000000D02*
X148500000Y-108750000D01*
X146000000Y-104750000D02*
X146642500Y-104107500D01*
X144960000Y-116540000D02*
X148500000Y-113000000D01*
X146642500Y-104107500D02*
X146642500Y-97607500D01*
X146642500Y-97607500D02*
X146642500Y-89987500D01*
X148500000Y-108750000D02*
X146000000Y-106250000D01*
%TO.N,/L_out*%
X138000000Y-80445000D02*
X138000000Y-82985000D01*
X138000000Y-82985000D02*
X151735000Y-82985000D01*
X151735000Y-82985000D02*
X151750000Y-83000000D01*
%TO.N,Net-(QL1-D)*%
X150250000Y-101500000D02*
X150370000Y-101500000D01*
X150370000Y-101500000D02*
X154262500Y-97607500D01*
%TO.N,Net-(QL1-G)*%
X148250000Y-103520000D02*
X149000000Y-102770000D01*
X148250000Y-105920000D02*
X148250000Y-103520000D01*
X153750000Y-107920000D02*
X150250000Y-107920000D01*
X150250000Y-107920000D02*
X148250000Y-105920000D01*
X149000000Y-102770000D02*
X150250000Y-102770000D01*
%TD*%
M02*
