M48
; DRILL file {KiCad 7.0.9} date Thu Dec 28 12:30:09 2023
; FORMAT={-:-/ absolute / inch / decimal}
; #@! TF.CreationDate,2023-12-28T12:30:09-05:00
; #@! TF.GenerationSoftware,Kicad,Pcbnew,7.0.9
; #@! TF.FileFunction,Plated,1,2,PTH
FMAT,2
INCH
; #@! TA.AperFunction,Plated,PTH,ViaDrill
T1C0.0157
; #@! TA.AperFunction,Plated,PTH,ComponentDrill
T2C0.0276
; #@! TA.AperFunction,Plated,PTH,ComponentDrill
T3C0.0295
; #@! TA.AperFunction,Plated,PTH,ComponentDrill
T4C0.0315
; #@! TA.AperFunction,Plated,PTH,ComponentDrill
T5C0.0354
; #@! TA.AperFunction,Plated,PTH,ComponentDrill
T6C0.0394
; #@! TA.AperFunction,Plated,PTH,ComponentDrill
T7C0.0433
; #@! TA.AperFunction,Plated,PTH,ComponentDrill
T8C0.0551
%
G90
G05
T1
X5.9744Y-3.2677
T2
X5.7733Y-3.1428
X5.7733Y-3.3428
X5.7733Y-3.5428
X5.7733Y-3.8428
X6.0733Y-3.1428
X6.0733Y-3.3428
X6.0733Y-3.5428
X6.0733Y-3.8428
T3
X5.9154Y-3.9961
X5.9154Y-4.0461
X5.9154Y-4.0961
T4
X4.8689Y-4.5079
X4.872Y-4.6457
X5.2689Y-4.5079
X5.272Y-4.6457
X5.9154Y-4.2488
X5.9154Y-4.6488
X6.0531Y-4.2488
X6.0531Y-4.6488
T5
X4.6358Y-4.5768
X4.7358Y-4.5768
X5.4134Y-4.5866
X5.5134Y-4.5866
T6
X4.6654Y-4.2923
X4.9213Y-4.2219
X4.9213Y-4.3219
X5.0984Y-4.2219
X5.0984Y-4.3219
X5.3497Y-4.1929
X5.4331Y-3.1671
X5.4331Y-3.2671
X5.4331Y-3.3671
X5.4875Y-4.1929
X6.2303Y-4.3291
X6.2303Y-4.4291
X6.2303Y-4.5291
X6.2402Y-3.5303
X6.2402Y-3.6303
X6.2402Y-3.7303
T7
X5.6813Y-4.3882
X5.6813Y-4.4882
X5.6813Y-4.5882
T8
X6.6722Y-3.1648
X6.6722Y-3.8037
X6.6722Y-3.9817
X6.6722Y-4.6207
X6.9222Y-3.1648
X6.9222Y-3.8037
X6.9222Y-3.9817
X6.9222Y-4.6207
X7.1722Y-3.1648
X7.1722Y-3.8037
X7.1722Y-3.9817
X7.1722Y-4.6207
T0
M30
