M48
; DRILL file {KiCad 7.0.9} date Thu Jan  4 21:37:19 2024
; FORMAT={-:-/ absolute / inch / decimal}
; #@! TF.CreationDate,2024-01-04T21:37:19-05:00
; #@! TF.GenerationSoftware,Kicad,Pcbnew,7.0.9
; #@! TF.FileFunction,Plated,1,2,PTH
FMAT,2
INCH
; #@! TA.AperFunction,Plated,PTH,ViaDrill
T1C0.0157
; #@! TA.AperFunction,Plated,PTH,ComponentDrill
T2C0.0315
; #@! TA.AperFunction,Plated,PTH,ComponentDrill
T3C0.0394
; #@! TA.AperFunction,Plated,PTH,ComponentDrill
T4C0.0433
%
G90
G05
T1
X3.6811Y-2.0079
X3.9173Y-1.2795
X4.2323Y-1.6929
X4.3307Y-1.8898
X4.6457Y-1.752
T2
X3.6341Y-1.3995
X3.6341Y-2.3995
X3.7341Y-1.3995
X3.7341Y-2.3995
X3.8341Y-1.3995
X3.8341Y-2.3995
X3.9341Y-1.3995
X3.9341Y-2.3995
X4.0341Y-1.3995
X4.0341Y-2.3995
X4.1307Y-1.1614
X4.1341Y-1.3995
X4.1341Y-2.3995
X4.2341Y-1.3995
X4.2341Y-2.3995
X4.3341Y-1.3995
X4.3341Y-2.3995
X4.4341Y-1.3995
X4.4341Y-2.3995
X4.5307Y-1.1614
X4.5341Y-1.3995
X4.5341Y-2.3995
X4.6341Y-1.3995
X4.6341Y-2.3995
X4.6622Y-1.1614
X4.7341Y-1.3995
X4.7341Y-2.3995
X4.8341Y-1.3995
X4.8341Y-2.3995
X4.9341Y-1.3995
X4.9341Y-2.3995
X5.0341Y-1.3995
X5.0341Y-2.3995
X5.0622Y-1.1614
X5.4496Y-1.1811
X5.4496Y-1.3583
X5.8496Y-1.1811
X5.8496Y-1.3583
T3
X3.6567Y-2.6772
X3.6583Y-1.1614
X3.7567Y-2.6772
X3.7583Y-1.1614
X3.8567Y-2.6772
X3.8583Y-1.1614
X3.9567Y-2.6772
X3.9583Y-1.1614
X4.0567Y-2.6772
X4.1567Y-2.6772
X4.2567Y-2.6772
X4.3567Y-2.6772
X4.4567Y-2.6772
X4.6441Y-2.6772
X4.7441Y-2.6772
X4.8441Y-2.6772
X4.9441Y-2.6772
X5.0441Y-2.6772
X5.1441Y-2.6772
X5.5465Y-1.5354
X5.6299Y-2.2638
X5.6388Y-2.4606
X5.6465Y-1.5354
X5.7299Y-2.2638
X5.7388Y-2.4606
X5.7465Y-1.5354
X5.8465Y-1.5354
T4
X5.5496Y-2.6947
X5.6496Y-2.6947
X5.7496Y-2.6947
T0
M30
