%TF.GenerationSoftware,KiCad,Pcbnew,7.0.9*%
%TF.CreationDate,2024-01-04T21:37:17-05:00*%
%TF.ProjectId,PedalboardBrain,50656461-6c62-46f6-9172-64427261696e,rev?*%
%TF.SameCoordinates,Original*%
%TF.FileFunction,Soldermask,Bot*%
%TF.FilePolarity,Negative*%
%FSLAX46Y46*%
G04 Gerber Fmt 4.6, Leading zero omitted, Abs format (unit mm)*
G04 Created by KiCad (PCBNEW 7.0.9) date 2024-01-04 21:37:17*
%MOMM*%
%LPD*%
G01*
G04 APERTURE LIST*
%ADD10R,1.200000X2.000000*%
%ADD11O,1.200000X2.000000*%
%ADD12R,1.700000X1.700000*%
%ADD13O,1.700000X1.700000*%
%ADD14C,1.600000*%
%ADD15O,1.600000X1.600000*%
%ADD16R,1.905000X2.000000*%
%ADD17O,1.905000X2.000000*%
G04 APERTURE END LIST*
D10*
%TO.C,U1*%
X92305000Y-60948120D03*
D11*
X127865000Y-35548120D03*
X125325000Y-35548120D03*
X122785000Y-35548120D03*
X120245000Y-35548120D03*
X117705000Y-35548120D03*
X115165000Y-35548120D03*
X112625000Y-35548120D03*
X110085000Y-35548120D03*
X107545000Y-35548120D03*
X105005000Y-35548120D03*
X102465000Y-35548120D03*
X99925000Y-35548120D03*
X97385000Y-35548120D03*
X99925000Y-60948120D03*
X92305000Y-35548120D03*
X97385000Y-60948120D03*
X102465000Y-60948120D03*
X105005000Y-60948120D03*
X107545000Y-60948120D03*
X110085000Y-60948120D03*
X112625000Y-60948120D03*
X115165000Y-60948120D03*
X94845000Y-60948120D03*
X117705000Y-60948120D03*
X122785000Y-60948120D03*
X120245000Y-60948120D03*
X125325000Y-60948120D03*
X127865000Y-60948120D03*
X94845000Y-35548120D03*
%TD*%
D12*
%TO.C,J1*%
X92880000Y-68000000D03*
D13*
X95420000Y-68000000D03*
X97960000Y-68000000D03*
X100500000Y-68000000D03*
X103040000Y-68000000D03*
X105580000Y-68000000D03*
X108120000Y-68000000D03*
X110660000Y-68000000D03*
X113200000Y-68000000D03*
%TD*%
D14*
%TO.C,R36*%
X138420000Y-34500000D03*
D15*
X148580000Y-34500000D03*
%TD*%
D12*
%TO.C,J3*%
X143000000Y-57500000D03*
D13*
X145540000Y-57500000D03*
%TD*%
D14*
%TO.C,R39*%
X138420000Y-30000000D03*
D15*
X148580000Y-30000000D03*
%TD*%
D12*
%TO.C,J6*%
X140880000Y-39000000D03*
D13*
X143420000Y-39000000D03*
X145960000Y-39000000D03*
X148500000Y-39000000D03*
%TD*%
D14*
%TO.C,R35*%
X104920000Y-29500000D03*
D15*
X115080000Y-29500000D03*
%TD*%
D14*
%TO.C,R34*%
X118420000Y-29500000D03*
D15*
X128580000Y-29500000D03*
%TD*%
D16*
%TO.C,U2*%
X140960000Y-68445000D03*
D17*
X143500000Y-68445000D03*
X146040000Y-68445000D03*
%TD*%
D12*
%TO.C,J2*%
X117960000Y-68000000D03*
D13*
X120500000Y-68000000D03*
X123040000Y-68000000D03*
X125580000Y-68000000D03*
X128120000Y-68000000D03*
X130660000Y-68000000D03*
%TD*%
D12*
%TO.C,J5*%
X143225000Y-62500000D03*
D13*
X145765000Y-62500000D03*
%TD*%
D12*
%TO.C,J4*%
X92920000Y-29500000D03*
D13*
X95460000Y-29500000D03*
X98000000Y-29500000D03*
X100540000Y-29500000D03*
%TD*%
M02*
