%TF.GenerationSoftware,KiCad,Pcbnew,7.0.9*%
%TF.CreationDate,2024-01-04T21:37:17-05:00*%
%TF.ProjectId,PedalboardBrain,50656461-6c62-46f6-9172-64427261696e,rev?*%
%TF.SameCoordinates,Original*%
%TF.FileFunction,Legend,Top*%
%TF.FilePolarity,Positive*%
%FSLAX46Y46*%
G04 Gerber Fmt 4.6, Leading zero omitted, Abs format (unit mm)*
G04 Created by KiCad (PCBNEW 7.0.9) date 2024-01-04 21:37:17*
%MOMM*%
%LPD*%
G01*
G04 APERTURE LIST*
%ADD10C,0.150000*%
%ADD11C,0.120000*%
G04 APERTURE END LIST*
D10*
X139741541Y-40869819D02*
X140360588Y-40869819D01*
X140360588Y-40869819D02*
X140027255Y-41250771D01*
X140027255Y-41250771D02*
X140170112Y-41250771D01*
X140170112Y-41250771D02*
X140265350Y-41298390D01*
X140265350Y-41298390D02*
X140312969Y-41346009D01*
X140312969Y-41346009D02*
X140360588Y-41441247D01*
X140360588Y-41441247D02*
X140360588Y-41679342D01*
X140360588Y-41679342D02*
X140312969Y-41774580D01*
X140312969Y-41774580D02*
X140265350Y-41822200D01*
X140265350Y-41822200D02*
X140170112Y-41869819D01*
X140170112Y-41869819D02*
X139884398Y-41869819D01*
X139884398Y-41869819D02*
X139789160Y-41822200D01*
X139789160Y-41822200D02*
X139741541Y-41774580D01*
X140646303Y-40869819D02*
X140979636Y-41869819D01*
X140979636Y-41869819D02*
X141312969Y-40869819D01*
X141551065Y-40869819D02*
X142170112Y-40869819D01*
X142170112Y-40869819D02*
X141836779Y-41250771D01*
X141836779Y-41250771D02*
X141979636Y-41250771D01*
X141979636Y-41250771D02*
X142074874Y-41298390D01*
X142074874Y-41298390D02*
X142122493Y-41346009D01*
X142122493Y-41346009D02*
X142170112Y-41441247D01*
X142170112Y-41441247D02*
X142170112Y-41679342D01*
X142170112Y-41679342D02*
X142122493Y-41774580D01*
X142122493Y-41774580D02*
X142074874Y-41822200D01*
X142074874Y-41822200D02*
X141979636Y-41869819D01*
X141979636Y-41869819D02*
X141693922Y-41869819D01*
X141693922Y-41869819D02*
X141598684Y-41822200D01*
X141598684Y-41822200D02*
X141551065Y-41774580D01*
X143836779Y-40869819D02*
X143360589Y-40869819D01*
X143360589Y-40869819D02*
X143312970Y-41346009D01*
X143312970Y-41346009D02*
X143360589Y-41298390D01*
X143360589Y-41298390D02*
X143455827Y-41250771D01*
X143455827Y-41250771D02*
X143693922Y-41250771D01*
X143693922Y-41250771D02*
X143789160Y-41298390D01*
X143789160Y-41298390D02*
X143836779Y-41346009D01*
X143836779Y-41346009D02*
X143884398Y-41441247D01*
X143884398Y-41441247D02*
X143884398Y-41679342D01*
X143884398Y-41679342D02*
X143836779Y-41774580D01*
X143836779Y-41774580D02*
X143789160Y-41822200D01*
X143789160Y-41822200D02*
X143693922Y-41869819D01*
X143693922Y-41869819D02*
X143455827Y-41869819D01*
X143455827Y-41869819D02*
X143360589Y-41822200D01*
X143360589Y-41822200D02*
X143312970Y-41774580D01*
X144170113Y-40869819D02*
X144503446Y-41869819D01*
X144503446Y-41869819D02*
X144836779Y-40869819D01*
X146455827Y-40917438D02*
X146360589Y-40869819D01*
X146360589Y-40869819D02*
X146217732Y-40869819D01*
X146217732Y-40869819D02*
X146074875Y-40917438D01*
X146074875Y-40917438D02*
X145979637Y-41012676D01*
X145979637Y-41012676D02*
X145932018Y-41107914D01*
X145932018Y-41107914D02*
X145884399Y-41298390D01*
X145884399Y-41298390D02*
X145884399Y-41441247D01*
X145884399Y-41441247D02*
X145932018Y-41631723D01*
X145932018Y-41631723D02*
X145979637Y-41726961D01*
X145979637Y-41726961D02*
X146074875Y-41822200D01*
X146074875Y-41822200D02*
X146217732Y-41869819D01*
X146217732Y-41869819D02*
X146312970Y-41869819D01*
X146312970Y-41869819D02*
X146455827Y-41822200D01*
X146455827Y-41822200D02*
X146503446Y-41774580D01*
X146503446Y-41774580D02*
X146503446Y-41441247D01*
X146503446Y-41441247D02*
X146312970Y-41441247D01*
X146932018Y-41203152D02*
X146932018Y-41869819D01*
X146932018Y-41298390D02*
X146979637Y-41250771D01*
X146979637Y-41250771D02*
X147074875Y-41203152D01*
X147074875Y-41203152D02*
X147217732Y-41203152D01*
X147217732Y-41203152D02*
X147312970Y-41250771D01*
X147312970Y-41250771D02*
X147360589Y-41346009D01*
X147360589Y-41346009D02*
X147360589Y-41869819D01*
X148265351Y-41869819D02*
X148265351Y-40869819D01*
X148265351Y-41822200D02*
X148170113Y-41869819D01*
X148170113Y-41869819D02*
X147979637Y-41869819D01*
X147979637Y-41869819D02*
X147884399Y-41822200D01*
X147884399Y-41822200D02*
X147836780Y-41774580D01*
X147836780Y-41774580D02*
X147789161Y-41679342D01*
X147789161Y-41679342D02*
X147789161Y-41393628D01*
X147789161Y-41393628D02*
X147836780Y-41298390D01*
X147836780Y-41298390D02*
X147884399Y-41250771D01*
X147884399Y-41250771D02*
X147979637Y-41203152D01*
X147979637Y-41203152D02*
X148170113Y-41203152D01*
X148170113Y-41203152D02*
X148265351Y-41250771D01*
X92765350Y-70703152D02*
X92765350Y-71369819D01*
X92527255Y-70322200D02*
X92289160Y-71036485D01*
X92289160Y-71036485D02*
X92908207Y-71036485D01*
X94574874Y-71369819D02*
X94003446Y-71369819D01*
X94289160Y-71369819D02*
X94289160Y-70369819D01*
X94289160Y-70369819D02*
X94193922Y-70512676D01*
X94193922Y-70512676D02*
X94098684Y-70607914D01*
X94098684Y-70607914D02*
X94003446Y-70655533D01*
X94908208Y-70369819D02*
X95527255Y-70369819D01*
X95527255Y-70369819D02*
X95193922Y-70750771D01*
X95193922Y-70750771D02*
X95336779Y-70750771D01*
X95336779Y-70750771D02*
X95432017Y-70798390D01*
X95432017Y-70798390D02*
X95479636Y-70846009D01*
X95479636Y-70846009D02*
X95527255Y-70941247D01*
X95527255Y-70941247D02*
X95527255Y-71179342D01*
X95527255Y-71179342D02*
X95479636Y-71274580D01*
X95479636Y-71274580D02*
X95432017Y-71322200D01*
X95432017Y-71322200D02*
X95336779Y-71369819D01*
X95336779Y-71369819D02*
X95051065Y-71369819D01*
X95051065Y-71369819D02*
X94955827Y-71322200D01*
X94955827Y-71322200D02*
X94908208Y-71274580D01*
X97241541Y-71369819D02*
X96670113Y-71369819D01*
X96955827Y-71369819D02*
X96955827Y-70369819D01*
X96955827Y-70369819D02*
X96860589Y-70512676D01*
X96860589Y-70512676D02*
X96765351Y-70607914D01*
X96765351Y-70607914D02*
X96670113Y-70655533D01*
X98098684Y-70703152D02*
X98098684Y-71369819D01*
X97860589Y-70322200D02*
X97622494Y-71036485D01*
X97622494Y-71036485D02*
X98241541Y-71036485D01*
X99908208Y-71369819D02*
X99336780Y-71369819D01*
X99622494Y-71369819D02*
X99622494Y-70369819D01*
X99622494Y-70369819D02*
X99527256Y-70512676D01*
X99527256Y-70512676D02*
X99432018Y-70607914D01*
X99432018Y-70607914D02*
X99336780Y-70655533D01*
X100765351Y-70369819D02*
X100574875Y-70369819D01*
X100574875Y-70369819D02*
X100479637Y-70417438D01*
X100479637Y-70417438D02*
X100432018Y-70465057D01*
X100432018Y-70465057D02*
X100336780Y-70607914D01*
X100336780Y-70607914D02*
X100289161Y-70798390D01*
X100289161Y-70798390D02*
X100289161Y-71179342D01*
X100289161Y-71179342D02*
X100336780Y-71274580D01*
X100336780Y-71274580D02*
X100384399Y-71322200D01*
X100384399Y-71322200D02*
X100479637Y-71369819D01*
X100479637Y-71369819D02*
X100670113Y-71369819D01*
X100670113Y-71369819D02*
X100765351Y-71322200D01*
X100765351Y-71322200D02*
X100812970Y-71274580D01*
X100812970Y-71274580D02*
X100860589Y-71179342D01*
X100860589Y-71179342D02*
X100860589Y-70941247D01*
X100860589Y-70941247D02*
X100812970Y-70846009D01*
X100812970Y-70846009D02*
X100765351Y-70798390D01*
X100765351Y-70798390D02*
X100670113Y-70750771D01*
X100670113Y-70750771D02*
X100479637Y-70750771D01*
X100479637Y-70750771D02*
X100384399Y-70798390D01*
X100384399Y-70798390D02*
X100336780Y-70846009D01*
X100336780Y-70846009D02*
X100289161Y-70941247D01*
X102574875Y-71369819D02*
X102003447Y-71369819D01*
X102289161Y-71369819D02*
X102289161Y-70369819D01*
X102289161Y-70369819D02*
X102193923Y-70512676D01*
X102193923Y-70512676D02*
X102098685Y-70607914D01*
X102098685Y-70607914D02*
X102003447Y-70655533D01*
X102908209Y-70369819D02*
X103574875Y-70369819D01*
X103574875Y-70369819D02*
X103146304Y-71369819D01*
X105241542Y-71369819D02*
X104670114Y-71369819D01*
X104955828Y-71369819D02*
X104955828Y-70369819D01*
X104955828Y-70369819D02*
X104860590Y-70512676D01*
X104860590Y-70512676D02*
X104765352Y-70607914D01*
X104765352Y-70607914D02*
X104670114Y-70655533D01*
X105812971Y-70798390D02*
X105717733Y-70750771D01*
X105717733Y-70750771D02*
X105670114Y-70703152D01*
X105670114Y-70703152D02*
X105622495Y-70607914D01*
X105622495Y-70607914D02*
X105622495Y-70560295D01*
X105622495Y-70560295D02*
X105670114Y-70465057D01*
X105670114Y-70465057D02*
X105717733Y-70417438D01*
X105717733Y-70417438D02*
X105812971Y-70369819D01*
X105812971Y-70369819D02*
X106003447Y-70369819D01*
X106003447Y-70369819D02*
X106098685Y-70417438D01*
X106098685Y-70417438D02*
X106146304Y-70465057D01*
X106146304Y-70465057D02*
X106193923Y-70560295D01*
X106193923Y-70560295D02*
X106193923Y-70607914D01*
X106193923Y-70607914D02*
X106146304Y-70703152D01*
X106146304Y-70703152D02*
X106098685Y-70750771D01*
X106098685Y-70750771D02*
X106003447Y-70798390D01*
X106003447Y-70798390D02*
X105812971Y-70798390D01*
X105812971Y-70798390D02*
X105717733Y-70846009D01*
X105717733Y-70846009D02*
X105670114Y-70893628D01*
X105670114Y-70893628D02*
X105622495Y-70988866D01*
X105622495Y-70988866D02*
X105622495Y-71179342D01*
X105622495Y-71179342D02*
X105670114Y-71274580D01*
X105670114Y-71274580D02*
X105717733Y-71322200D01*
X105717733Y-71322200D02*
X105812971Y-71369819D01*
X105812971Y-71369819D02*
X106003447Y-71369819D01*
X106003447Y-71369819D02*
X106098685Y-71322200D01*
X106098685Y-71322200D02*
X106146304Y-71274580D01*
X106146304Y-71274580D02*
X106193923Y-71179342D01*
X106193923Y-71179342D02*
X106193923Y-70988866D01*
X106193923Y-70988866D02*
X106146304Y-70893628D01*
X106146304Y-70893628D02*
X106098685Y-70846009D01*
X106098685Y-70846009D02*
X106003447Y-70798390D01*
X107908209Y-71369819D02*
X107336781Y-71369819D01*
X107622495Y-71369819D02*
X107622495Y-70369819D01*
X107622495Y-70369819D02*
X107527257Y-70512676D01*
X107527257Y-70512676D02*
X107432019Y-70607914D01*
X107432019Y-70607914D02*
X107336781Y-70655533D01*
X108384400Y-71369819D02*
X108574876Y-71369819D01*
X108574876Y-71369819D02*
X108670114Y-71322200D01*
X108670114Y-71322200D02*
X108717733Y-71274580D01*
X108717733Y-71274580D02*
X108812971Y-71131723D01*
X108812971Y-71131723D02*
X108860590Y-70941247D01*
X108860590Y-70941247D02*
X108860590Y-70560295D01*
X108860590Y-70560295D02*
X108812971Y-70465057D01*
X108812971Y-70465057D02*
X108765352Y-70417438D01*
X108765352Y-70417438D02*
X108670114Y-70369819D01*
X108670114Y-70369819D02*
X108479638Y-70369819D01*
X108479638Y-70369819D02*
X108384400Y-70417438D01*
X108384400Y-70417438D02*
X108336781Y-70465057D01*
X108336781Y-70465057D02*
X108289162Y-70560295D01*
X108289162Y-70560295D02*
X108289162Y-70798390D01*
X108289162Y-70798390D02*
X108336781Y-70893628D01*
X108336781Y-70893628D02*
X108384400Y-70941247D01*
X108384400Y-70941247D02*
X108479638Y-70988866D01*
X108479638Y-70988866D02*
X108670114Y-70988866D01*
X108670114Y-70988866D02*
X108765352Y-70941247D01*
X108765352Y-70941247D02*
X108812971Y-70893628D01*
X108812971Y-70893628D02*
X108860590Y-70798390D01*
X110003448Y-70465057D02*
X110051067Y-70417438D01*
X110051067Y-70417438D02*
X110146305Y-70369819D01*
X110146305Y-70369819D02*
X110384400Y-70369819D01*
X110384400Y-70369819D02*
X110479638Y-70417438D01*
X110479638Y-70417438D02*
X110527257Y-70465057D01*
X110527257Y-70465057D02*
X110574876Y-70560295D01*
X110574876Y-70560295D02*
X110574876Y-70655533D01*
X110574876Y-70655533D02*
X110527257Y-70798390D01*
X110527257Y-70798390D02*
X109955829Y-71369819D01*
X109955829Y-71369819D02*
X110574876Y-71369819D01*
X111527257Y-71369819D02*
X110955829Y-71369819D01*
X111241543Y-71369819D02*
X111241543Y-70369819D01*
X111241543Y-70369819D02*
X111146305Y-70512676D01*
X111146305Y-70512676D02*
X111051067Y-70607914D01*
X111051067Y-70607914D02*
X110955829Y-70655533D01*
X112670115Y-70465057D02*
X112717734Y-70417438D01*
X112717734Y-70417438D02*
X112812972Y-70369819D01*
X112812972Y-70369819D02*
X113051067Y-70369819D01*
X113051067Y-70369819D02*
X113146305Y-70417438D01*
X113146305Y-70417438D02*
X113193924Y-70465057D01*
X113193924Y-70465057D02*
X113241543Y-70560295D01*
X113241543Y-70560295D02*
X113241543Y-70655533D01*
X113241543Y-70655533D02*
X113193924Y-70798390D01*
X113193924Y-70798390D02*
X112622496Y-71369819D01*
X112622496Y-71369819D02*
X113241543Y-71369819D01*
X113622496Y-70465057D02*
X113670115Y-70417438D01*
X113670115Y-70417438D02*
X113765353Y-70369819D01*
X113765353Y-70369819D02*
X114003448Y-70369819D01*
X114003448Y-70369819D02*
X114098686Y-70417438D01*
X114098686Y-70417438D02*
X114146305Y-70465057D01*
X114146305Y-70465057D02*
X114193924Y-70560295D01*
X114193924Y-70560295D02*
X114193924Y-70655533D01*
X114193924Y-70655533D02*
X114146305Y-70798390D01*
X114146305Y-70798390D02*
X113574877Y-71369819D01*
X113574877Y-71369819D02*
X114193924Y-71369819D01*
X116860592Y-70465057D02*
X116908211Y-70417438D01*
X116908211Y-70417438D02*
X117003449Y-70369819D01*
X117003449Y-70369819D02*
X117241544Y-70369819D01*
X117241544Y-70369819D02*
X117336782Y-70417438D01*
X117336782Y-70417438D02*
X117384401Y-70465057D01*
X117384401Y-70465057D02*
X117432020Y-70560295D01*
X117432020Y-70560295D02*
X117432020Y-70655533D01*
X117432020Y-70655533D02*
X117384401Y-70798390D01*
X117384401Y-70798390D02*
X116812973Y-71369819D01*
X116812973Y-71369819D02*
X117432020Y-71369819D01*
X117765354Y-70369819D02*
X118384401Y-70369819D01*
X118384401Y-70369819D02*
X118051068Y-70750771D01*
X118051068Y-70750771D02*
X118193925Y-70750771D01*
X118193925Y-70750771D02*
X118289163Y-70798390D01*
X118289163Y-70798390D02*
X118336782Y-70846009D01*
X118336782Y-70846009D02*
X118384401Y-70941247D01*
X118384401Y-70941247D02*
X118384401Y-71179342D01*
X118384401Y-71179342D02*
X118336782Y-71274580D01*
X118336782Y-71274580D02*
X118289163Y-71322200D01*
X118289163Y-71322200D02*
X118193925Y-71369819D01*
X118193925Y-71369819D02*
X117908211Y-71369819D01*
X117908211Y-71369819D02*
X117812973Y-71322200D01*
X117812973Y-71322200D02*
X117765354Y-71274580D01*
X119527259Y-70465057D02*
X119574878Y-70417438D01*
X119574878Y-70417438D02*
X119670116Y-70369819D01*
X119670116Y-70369819D02*
X119908211Y-70369819D01*
X119908211Y-70369819D02*
X120003449Y-70417438D01*
X120003449Y-70417438D02*
X120051068Y-70465057D01*
X120051068Y-70465057D02*
X120098687Y-70560295D01*
X120098687Y-70560295D02*
X120098687Y-70655533D01*
X120098687Y-70655533D02*
X120051068Y-70798390D01*
X120051068Y-70798390D02*
X119479640Y-71369819D01*
X119479640Y-71369819D02*
X120098687Y-71369819D01*
X121003449Y-70369819D02*
X120527259Y-70369819D01*
X120527259Y-70369819D02*
X120479640Y-70846009D01*
X120479640Y-70846009D02*
X120527259Y-70798390D01*
X120527259Y-70798390D02*
X120622497Y-70750771D01*
X120622497Y-70750771D02*
X120860592Y-70750771D01*
X120860592Y-70750771D02*
X120955830Y-70798390D01*
X120955830Y-70798390D02*
X121003449Y-70846009D01*
X121003449Y-70846009D02*
X121051068Y-70941247D01*
X121051068Y-70941247D02*
X121051068Y-71179342D01*
X121051068Y-71179342D02*
X121003449Y-71274580D01*
X121003449Y-71274580D02*
X120955830Y-71322200D01*
X120955830Y-71322200D02*
X120860592Y-71369819D01*
X120860592Y-71369819D02*
X120622497Y-71369819D01*
X120622497Y-71369819D02*
X120527259Y-71322200D01*
X120527259Y-71322200D02*
X120479640Y-71274580D01*
X122193926Y-70465057D02*
X122241545Y-70417438D01*
X122241545Y-70417438D02*
X122336783Y-70369819D01*
X122336783Y-70369819D02*
X122574878Y-70369819D01*
X122574878Y-70369819D02*
X122670116Y-70417438D01*
X122670116Y-70417438D02*
X122717735Y-70465057D01*
X122717735Y-70465057D02*
X122765354Y-70560295D01*
X122765354Y-70560295D02*
X122765354Y-70655533D01*
X122765354Y-70655533D02*
X122717735Y-70798390D01*
X122717735Y-70798390D02*
X122146307Y-71369819D01*
X122146307Y-71369819D02*
X122765354Y-71369819D01*
X123622497Y-70369819D02*
X123432021Y-70369819D01*
X123432021Y-70369819D02*
X123336783Y-70417438D01*
X123336783Y-70417438D02*
X123289164Y-70465057D01*
X123289164Y-70465057D02*
X123193926Y-70607914D01*
X123193926Y-70607914D02*
X123146307Y-70798390D01*
X123146307Y-70798390D02*
X123146307Y-71179342D01*
X123146307Y-71179342D02*
X123193926Y-71274580D01*
X123193926Y-71274580D02*
X123241545Y-71322200D01*
X123241545Y-71322200D02*
X123336783Y-71369819D01*
X123336783Y-71369819D02*
X123527259Y-71369819D01*
X123527259Y-71369819D02*
X123622497Y-71322200D01*
X123622497Y-71322200D02*
X123670116Y-71274580D01*
X123670116Y-71274580D02*
X123717735Y-71179342D01*
X123717735Y-71179342D02*
X123717735Y-70941247D01*
X123717735Y-70941247D02*
X123670116Y-70846009D01*
X123670116Y-70846009D02*
X123622497Y-70798390D01*
X123622497Y-70798390D02*
X123527259Y-70750771D01*
X123527259Y-70750771D02*
X123336783Y-70750771D01*
X123336783Y-70750771D02*
X123241545Y-70798390D01*
X123241545Y-70798390D02*
X123193926Y-70846009D01*
X123193926Y-70846009D02*
X123146307Y-70941247D01*
X124860593Y-70465057D02*
X124908212Y-70417438D01*
X124908212Y-70417438D02*
X125003450Y-70369819D01*
X125003450Y-70369819D02*
X125241545Y-70369819D01*
X125241545Y-70369819D02*
X125336783Y-70417438D01*
X125336783Y-70417438D02*
X125384402Y-70465057D01*
X125384402Y-70465057D02*
X125432021Y-70560295D01*
X125432021Y-70560295D02*
X125432021Y-70655533D01*
X125432021Y-70655533D02*
X125384402Y-70798390D01*
X125384402Y-70798390D02*
X124812974Y-71369819D01*
X124812974Y-71369819D02*
X125432021Y-71369819D01*
X125765355Y-70369819D02*
X126432021Y-70369819D01*
X126432021Y-70369819D02*
X126003450Y-71369819D01*
X127479641Y-70369819D02*
X128098688Y-70369819D01*
X128098688Y-70369819D02*
X127765355Y-70750771D01*
X127765355Y-70750771D02*
X127908212Y-70750771D01*
X127908212Y-70750771D02*
X128003450Y-70798390D01*
X128003450Y-70798390D02*
X128051069Y-70846009D01*
X128051069Y-70846009D02*
X128098688Y-70941247D01*
X128098688Y-70941247D02*
X128098688Y-71179342D01*
X128098688Y-71179342D02*
X128051069Y-71274580D01*
X128051069Y-71274580D02*
X128003450Y-71322200D01*
X128003450Y-71322200D02*
X127908212Y-71369819D01*
X127908212Y-71369819D02*
X127622498Y-71369819D01*
X127622498Y-71369819D02*
X127527260Y-71322200D01*
X127527260Y-71322200D02*
X127479641Y-71274580D01*
X128479641Y-70465057D02*
X128527260Y-70417438D01*
X128527260Y-70417438D02*
X128622498Y-70369819D01*
X128622498Y-70369819D02*
X128860593Y-70369819D01*
X128860593Y-70369819D02*
X128955831Y-70417438D01*
X128955831Y-70417438D02*
X129003450Y-70465057D01*
X129003450Y-70465057D02*
X129051069Y-70560295D01*
X129051069Y-70560295D02*
X129051069Y-70655533D01*
X129051069Y-70655533D02*
X129003450Y-70798390D01*
X129003450Y-70798390D02*
X128432022Y-71369819D01*
X128432022Y-71369819D02*
X129051069Y-71369819D01*
X130146308Y-70369819D02*
X130765355Y-70369819D01*
X130765355Y-70369819D02*
X130432022Y-70750771D01*
X130432022Y-70750771D02*
X130574879Y-70750771D01*
X130574879Y-70750771D02*
X130670117Y-70798390D01*
X130670117Y-70798390D02*
X130717736Y-70846009D01*
X130717736Y-70846009D02*
X130765355Y-70941247D01*
X130765355Y-70941247D02*
X130765355Y-71179342D01*
X130765355Y-71179342D02*
X130717736Y-71274580D01*
X130717736Y-71274580D02*
X130670117Y-71322200D01*
X130670117Y-71322200D02*
X130574879Y-71369819D01*
X130574879Y-71369819D02*
X130289165Y-71369819D01*
X130289165Y-71369819D02*
X130193927Y-71322200D01*
X130193927Y-71322200D02*
X130146308Y-71274580D01*
X131098689Y-70369819D02*
X131717736Y-70369819D01*
X131717736Y-70369819D02*
X131384403Y-70750771D01*
X131384403Y-70750771D02*
X131527260Y-70750771D01*
X131527260Y-70750771D02*
X131622498Y-70798390D01*
X131622498Y-70798390D02*
X131670117Y-70846009D01*
X131670117Y-70846009D02*
X131717736Y-70941247D01*
X131717736Y-70941247D02*
X131717736Y-71179342D01*
X131717736Y-71179342D02*
X131670117Y-71274580D01*
X131670117Y-71274580D02*
X131622498Y-71322200D01*
X131622498Y-71322200D02*
X131527260Y-71369819D01*
X131527260Y-71369819D02*
X131241546Y-71369819D01*
X131241546Y-71369819D02*
X131146308Y-71322200D01*
X131146308Y-71322200D02*
X131098689Y-71274580D01*
X91991541Y-26119819D02*
X92610588Y-26119819D01*
X92610588Y-26119819D02*
X92277255Y-26500771D01*
X92277255Y-26500771D02*
X92420112Y-26500771D01*
X92420112Y-26500771D02*
X92515350Y-26548390D01*
X92515350Y-26548390D02*
X92562969Y-26596009D01*
X92562969Y-26596009D02*
X92610588Y-26691247D01*
X92610588Y-26691247D02*
X92610588Y-26929342D01*
X92610588Y-26929342D02*
X92562969Y-27024580D01*
X92562969Y-27024580D02*
X92515350Y-27072200D01*
X92515350Y-27072200D02*
X92420112Y-27119819D01*
X92420112Y-27119819D02*
X92134398Y-27119819D01*
X92134398Y-27119819D02*
X92039160Y-27072200D01*
X92039160Y-27072200D02*
X91991541Y-27024580D01*
X93467731Y-26453152D02*
X93467731Y-27119819D01*
X93229636Y-26072200D02*
X92991541Y-26786485D01*
X92991541Y-26786485D02*
X93610588Y-26786485D01*
X94658208Y-26119819D02*
X95277255Y-26119819D01*
X95277255Y-26119819D02*
X94943922Y-26500771D01*
X94943922Y-26500771D02*
X95086779Y-26500771D01*
X95086779Y-26500771D02*
X95182017Y-26548390D01*
X95182017Y-26548390D02*
X95229636Y-26596009D01*
X95229636Y-26596009D02*
X95277255Y-26691247D01*
X95277255Y-26691247D02*
X95277255Y-26929342D01*
X95277255Y-26929342D02*
X95229636Y-27024580D01*
X95229636Y-27024580D02*
X95182017Y-27072200D01*
X95182017Y-27072200D02*
X95086779Y-27119819D01*
X95086779Y-27119819D02*
X94801065Y-27119819D01*
X94801065Y-27119819D02*
X94705827Y-27072200D01*
X94705827Y-27072200D02*
X94658208Y-27024580D01*
X96182017Y-26119819D02*
X95705827Y-26119819D01*
X95705827Y-26119819D02*
X95658208Y-26596009D01*
X95658208Y-26596009D02*
X95705827Y-26548390D01*
X95705827Y-26548390D02*
X95801065Y-26500771D01*
X95801065Y-26500771D02*
X96039160Y-26500771D01*
X96039160Y-26500771D02*
X96134398Y-26548390D01*
X96134398Y-26548390D02*
X96182017Y-26596009D01*
X96182017Y-26596009D02*
X96229636Y-26691247D01*
X96229636Y-26691247D02*
X96229636Y-26929342D01*
X96229636Y-26929342D02*
X96182017Y-27024580D01*
X96182017Y-27024580D02*
X96134398Y-27072200D01*
X96134398Y-27072200D02*
X96039160Y-27119819D01*
X96039160Y-27119819D02*
X95801065Y-27119819D01*
X95801065Y-27119819D02*
X95705827Y-27072200D01*
X95705827Y-27072200D02*
X95658208Y-27024580D01*
X97324875Y-26119819D02*
X97943922Y-26119819D01*
X97943922Y-26119819D02*
X97610589Y-26500771D01*
X97610589Y-26500771D02*
X97753446Y-26500771D01*
X97753446Y-26500771D02*
X97848684Y-26548390D01*
X97848684Y-26548390D02*
X97896303Y-26596009D01*
X97896303Y-26596009D02*
X97943922Y-26691247D01*
X97943922Y-26691247D02*
X97943922Y-26929342D01*
X97943922Y-26929342D02*
X97896303Y-27024580D01*
X97896303Y-27024580D02*
X97848684Y-27072200D01*
X97848684Y-27072200D02*
X97753446Y-27119819D01*
X97753446Y-27119819D02*
X97467732Y-27119819D01*
X97467732Y-27119819D02*
X97372494Y-27072200D01*
X97372494Y-27072200D02*
X97324875Y-27024580D01*
X98801065Y-26119819D02*
X98610589Y-26119819D01*
X98610589Y-26119819D02*
X98515351Y-26167438D01*
X98515351Y-26167438D02*
X98467732Y-26215057D01*
X98467732Y-26215057D02*
X98372494Y-26357914D01*
X98372494Y-26357914D02*
X98324875Y-26548390D01*
X98324875Y-26548390D02*
X98324875Y-26929342D01*
X98324875Y-26929342D02*
X98372494Y-27024580D01*
X98372494Y-27024580D02*
X98420113Y-27072200D01*
X98420113Y-27072200D02*
X98515351Y-27119819D01*
X98515351Y-27119819D02*
X98705827Y-27119819D01*
X98705827Y-27119819D02*
X98801065Y-27072200D01*
X98801065Y-27072200D02*
X98848684Y-27024580D01*
X98848684Y-27024580D02*
X98896303Y-26929342D01*
X98896303Y-26929342D02*
X98896303Y-26691247D01*
X98896303Y-26691247D02*
X98848684Y-26596009D01*
X98848684Y-26596009D02*
X98801065Y-26548390D01*
X98801065Y-26548390D02*
X98705827Y-26500771D01*
X98705827Y-26500771D02*
X98515351Y-26500771D01*
X98515351Y-26500771D02*
X98420113Y-26548390D01*
X98420113Y-26548390D02*
X98372494Y-26596009D01*
X98372494Y-26596009D02*
X98324875Y-26691247D01*
X99991542Y-26119819D02*
X100610589Y-26119819D01*
X100610589Y-26119819D02*
X100277256Y-26500771D01*
X100277256Y-26500771D02*
X100420113Y-26500771D01*
X100420113Y-26500771D02*
X100515351Y-26548390D01*
X100515351Y-26548390D02*
X100562970Y-26596009D01*
X100562970Y-26596009D02*
X100610589Y-26691247D01*
X100610589Y-26691247D02*
X100610589Y-26929342D01*
X100610589Y-26929342D02*
X100562970Y-27024580D01*
X100562970Y-27024580D02*
X100515351Y-27072200D01*
X100515351Y-27072200D02*
X100420113Y-27119819D01*
X100420113Y-27119819D02*
X100134399Y-27119819D01*
X100134399Y-27119819D02*
X100039161Y-27072200D01*
X100039161Y-27072200D02*
X99991542Y-27024580D01*
X101086780Y-27119819D02*
X101277256Y-27119819D01*
X101277256Y-27119819D02*
X101372494Y-27072200D01*
X101372494Y-27072200D02*
X101420113Y-27024580D01*
X101420113Y-27024580D02*
X101515351Y-26881723D01*
X101515351Y-26881723D02*
X101562970Y-26691247D01*
X101562970Y-26691247D02*
X101562970Y-26310295D01*
X101562970Y-26310295D02*
X101515351Y-26215057D01*
X101515351Y-26215057D02*
X101467732Y-26167438D01*
X101467732Y-26167438D02*
X101372494Y-26119819D01*
X101372494Y-26119819D02*
X101182018Y-26119819D01*
X101182018Y-26119819D02*
X101086780Y-26167438D01*
X101086780Y-26167438D02*
X101039161Y-26215057D01*
X101039161Y-26215057D02*
X100991542Y-26310295D01*
X100991542Y-26310295D02*
X100991542Y-26548390D01*
X100991542Y-26548390D02*
X101039161Y-26643628D01*
X101039161Y-26643628D02*
X101086780Y-26691247D01*
X101086780Y-26691247D02*
X101182018Y-26738866D01*
X101182018Y-26738866D02*
X101372494Y-26738866D01*
X101372494Y-26738866D02*
X101467732Y-26691247D01*
X101467732Y-26691247D02*
X101515351Y-26643628D01*
X101515351Y-26643628D02*
X101562970Y-26548390D01*
X142360588Y-53917438D02*
X142265350Y-53869819D01*
X142265350Y-53869819D02*
X142122493Y-53869819D01*
X142122493Y-53869819D02*
X141979636Y-53917438D01*
X141979636Y-53917438D02*
X141884398Y-54012676D01*
X141884398Y-54012676D02*
X141836779Y-54107914D01*
X141836779Y-54107914D02*
X141789160Y-54298390D01*
X141789160Y-54298390D02*
X141789160Y-54441247D01*
X141789160Y-54441247D02*
X141836779Y-54631723D01*
X141836779Y-54631723D02*
X141884398Y-54726961D01*
X141884398Y-54726961D02*
X141979636Y-54822200D01*
X141979636Y-54822200D02*
X142122493Y-54869819D01*
X142122493Y-54869819D02*
X142217731Y-54869819D01*
X142217731Y-54869819D02*
X142360588Y-54822200D01*
X142360588Y-54822200D02*
X142408207Y-54774580D01*
X142408207Y-54774580D02*
X142408207Y-54441247D01*
X142408207Y-54441247D02*
X142217731Y-54441247D01*
X142836779Y-54203152D02*
X142836779Y-54869819D01*
X142836779Y-54298390D02*
X142884398Y-54250771D01*
X142884398Y-54250771D02*
X142979636Y-54203152D01*
X142979636Y-54203152D02*
X143122493Y-54203152D01*
X143122493Y-54203152D02*
X143217731Y-54250771D01*
X143217731Y-54250771D02*
X143265350Y-54346009D01*
X143265350Y-54346009D02*
X143265350Y-54869819D01*
X144170112Y-54869819D02*
X144170112Y-53869819D01*
X144170112Y-54822200D02*
X144074874Y-54869819D01*
X144074874Y-54869819D02*
X143884398Y-54869819D01*
X143884398Y-54869819D02*
X143789160Y-54822200D01*
X143789160Y-54822200D02*
X143741541Y-54774580D01*
X143741541Y-54774580D02*
X143693922Y-54679342D01*
X143693922Y-54679342D02*
X143693922Y-54393628D01*
X143693922Y-54393628D02*
X143741541Y-54298390D01*
X143741541Y-54298390D02*
X143789160Y-54250771D01*
X143789160Y-54250771D02*
X143884398Y-54203152D01*
X143884398Y-54203152D02*
X144074874Y-54203152D01*
X144074874Y-54203152D02*
X144170112Y-54250771D01*
X145455827Y-54869819D02*
X145646303Y-54869819D01*
X145646303Y-54869819D02*
X145741541Y-54822200D01*
X145741541Y-54822200D02*
X145789160Y-54774580D01*
X145789160Y-54774580D02*
X145884398Y-54631723D01*
X145884398Y-54631723D02*
X145932017Y-54441247D01*
X145932017Y-54441247D02*
X145932017Y-54060295D01*
X145932017Y-54060295D02*
X145884398Y-53965057D01*
X145884398Y-53965057D02*
X145836779Y-53917438D01*
X145836779Y-53917438D02*
X145741541Y-53869819D01*
X145741541Y-53869819D02*
X145551065Y-53869819D01*
X145551065Y-53869819D02*
X145455827Y-53917438D01*
X145455827Y-53917438D02*
X145408208Y-53965057D01*
X145408208Y-53965057D02*
X145360589Y-54060295D01*
X145360589Y-54060295D02*
X145360589Y-54298390D01*
X145360589Y-54298390D02*
X145408208Y-54393628D01*
X145408208Y-54393628D02*
X145455827Y-54441247D01*
X145455827Y-54441247D02*
X145551065Y-54488866D01*
X145551065Y-54488866D02*
X145741541Y-54488866D01*
X145741541Y-54488866D02*
X145836779Y-54441247D01*
X145836779Y-54441247D02*
X145884398Y-54393628D01*
X145884398Y-54393628D02*
X145932017Y-54298390D01*
X146217732Y-53869819D02*
X146551065Y-54869819D01*
X146551065Y-54869819D02*
X146884398Y-53869819D01*
X89659819Y-49010024D02*
X90469342Y-49010024D01*
X90469342Y-49010024D02*
X90564580Y-48962405D01*
X90564580Y-48962405D02*
X90612200Y-48914786D01*
X90612200Y-48914786D02*
X90659819Y-48819548D01*
X90659819Y-48819548D02*
X90659819Y-48629072D01*
X90659819Y-48629072D02*
X90612200Y-48533834D01*
X90612200Y-48533834D02*
X90564580Y-48486215D01*
X90564580Y-48486215D02*
X90469342Y-48438596D01*
X90469342Y-48438596D02*
X89659819Y-48438596D01*
X90659819Y-47438596D02*
X90659819Y-48010024D01*
X90659819Y-47724310D02*
X89659819Y-47724310D01*
X89659819Y-47724310D02*
X89802676Y-47819548D01*
X89802676Y-47819548D02*
X89897914Y-47914786D01*
X89897914Y-47914786D02*
X89945533Y-48010024D01*
X110839762Y-48179129D02*
X111173095Y-48179129D01*
X111315952Y-48702939D02*
X110839762Y-48702939D01*
X110839762Y-48702939D02*
X110839762Y-47702939D01*
X110839762Y-47702939D02*
X111315952Y-47702939D01*
X111696905Y-48655320D02*
X111839762Y-48702939D01*
X111839762Y-48702939D02*
X112077857Y-48702939D01*
X112077857Y-48702939D02*
X112173095Y-48655320D01*
X112173095Y-48655320D02*
X112220714Y-48607700D01*
X112220714Y-48607700D02*
X112268333Y-48512462D01*
X112268333Y-48512462D02*
X112268333Y-48417224D01*
X112268333Y-48417224D02*
X112220714Y-48321986D01*
X112220714Y-48321986D02*
X112173095Y-48274367D01*
X112173095Y-48274367D02*
X112077857Y-48226748D01*
X112077857Y-48226748D02*
X111887381Y-48179129D01*
X111887381Y-48179129D02*
X111792143Y-48131510D01*
X111792143Y-48131510D02*
X111744524Y-48083891D01*
X111744524Y-48083891D02*
X111696905Y-47988653D01*
X111696905Y-47988653D02*
X111696905Y-47893415D01*
X111696905Y-47893415D02*
X111744524Y-47798177D01*
X111744524Y-47798177D02*
X111792143Y-47750558D01*
X111792143Y-47750558D02*
X111887381Y-47702939D01*
X111887381Y-47702939D02*
X112125476Y-47702939D01*
X112125476Y-47702939D02*
X112268333Y-47750558D01*
X112696905Y-48702939D02*
X112696905Y-47702939D01*
X112696905Y-47702939D02*
X113077857Y-47702939D01*
X113077857Y-47702939D02*
X113173095Y-47750558D01*
X113173095Y-47750558D02*
X113220714Y-47798177D01*
X113220714Y-47798177D02*
X113268333Y-47893415D01*
X113268333Y-47893415D02*
X113268333Y-48036272D01*
X113268333Y-48036272D02*
X113220714Y-48131510D01*
X113220714Y-48131510D02*
X113173095Y-48179129D01*
X113173095Y-48179129D02*
X113077857Y-48226748D01*
X113077857Y-48226748D02*
X112696905Y-48226748D01*
X113601667Y-47702939D02*
X114220714Y-47702939D01*
X114220714Y-47702939D02*
X113887381Y-48083891D01*
X113887381Y-48083891D02*
X114030238Y-48083891D01*
X114030238Y-48083891D02*
X114125476Y-48131510D01*
X114125476Y-48131510D02*
X114173095Y-48179129D01*
X114173095Y-48179129D02*
X114220714Y-48274367D01*
X114220714Y-48274367D02*
X114220714Y-48512462D01*
X114220714Y-48512462D02*
X114173095Y-48607700D01*
X114173095Y-48607700D02*
X114125476Y-48655320D01*
X114125476Y-48655320D02*
X114030238Y-48702939D01*
X114030238Y-48702939D02*
X113744524Y-48702939D01*
X113744524Y-48702939D02*
X113649286Y-48655320D01*
X113649286Y-48655320D02*
X113601667Y-48607700D01*
X114601667Y-47798177D02*
X114649286Y-47750558D01*
X114649286Y-47750558D02*
X114744524Y-47702939D01*
X114744524Y-47702939D02*
X114982619Y-47702939D01*
X114982619Y-47702939D02*
X115077857Y-47750558D01*
X115077857Y-47750558D02*
X115125476Y-47798177D01*
X115125476Y-47798177D02*
X115173095Y-47893415D01*
X115173095Y-47893415D02*
X115173095Y-47988653D01*
X115173095Y-47988653D02*
X115125476Y-48131510D01*
X115125476Y-48131510D02*
X114554048Y-48702939D01*
X114554048Y-48702939D02*
X115173095Y-48702939D01*
X115601667Y-48321986D02*
X116363572Y-48321986D01*
X116839762Y-48702939D02*
X116839762Y-47702939D01*
X116839762Y-47702939D02*
X117077857Y-47702939D01*
X117077857Y-47702939D02*
X117220714Y-47750558D01*
X117220714Y-47750558D02*
X117315952Y-47845796D01*
X117315952Y-47845796D02*
X117363571Y-47941034D01*
X117363571Y-47941034D02*
X117411190Y-48131510D01*
X117411190Y-48131510D02*
X117411190Y-48274367D01*
X117411190Y-48274367D02*
X117363571Y-48464843D01*
X117363571Y-48464843D02*
X117315952Y-48560081D01*
X117315952Y-48560081D02*
X117220714Y-48655320D01*
X117220714Y-48655320D02*
X117077857Y-48702939D01*
X117077857Y-48702939D02*
X116839762Y-48702939D01*
X118220714Y-48655320D02*
X118125476Y-48702939D01*
X118125476Y-48702939D02*
X117935000Y-48702939D01*
X117935000Y-48702939D02*
X117839762Y-48655320D01*
X117839762Y-48655320D02*
X117792143Y-48560081D01*
X117792143Y-48560081D02*
X117792143Y-48179129D01*
X117792143Y-48179129D02*
X117839762Y-48083891D01*
X117839762Y-48083891D02*
X117935000Y-48036272D01*
X117935000Y-48036272D02*
X118125476Y-48036272D01*
X118125476Y-48036272D02*
X118220714Y-48083891D01*
X118220714Y-48083891D02*
X118268333Y-48179129D01*
X118268333Y-48179129D02*
X118268333Y-48274367D01*
X118268333Y-48274367D02*
X117792143Y-48369605D01*
X118601667Y-48036272D02*
X118839762Y-48702939D01*
X118839762Y-48702939D02*
X119077857Y-48036272D01*
X119458810Y-48702939D02*
X119458810Y-47702939D01*
X120030238Y-48702939D02*
X119601667Y-48131510D01*
X120030238Y-47702939D02*
X119458810Y-48274367D01*
X120458810Y-48702939D02*
X120458810Y-48036272D01*
X120458810Y-47702939D02*
X120411191Y-47750558D01*
X120411191Y-47750558D02*
X120458810Y-47798177D01*
X120458810Y-47798177D02*
X120506429Y-47750558D01*
X120506429Y-47750558D02*
X120458810Y-47702939D01*
X120458810Y-47702939D02*
X120458810Y-47798177D01*
X120792143Y-48036272D02*
X121173095Y-48036272D01*
X120935000Y-47702939D02*
X120935000Y-48560081D01*
X120935000Y-48560081D02*
X120982619Y-48655320D01*
X120982619Y-48655320D02*
X121077857Y-48702939D01*
X121077857Y-48702939D02*
X121173095Y-48702939D01*
X122077857Y-48607700D02*
X122030238Y-48655320D01*
X122030238Y-48655320D02*
X121887381Y-48702939D01*
X121887381Y-48702939D02*
X121792143Y-48702939D01*
X121792143Y-48702939D02*
X121649286Y-48655320D01*
X121649286Y-48655320D02*
X121554048Y-48560081D01*
X121554048Y-48560081D02*
X121506429Y-48464843D01*
X121506429Y-48464843D02*
X121458810Y-48274367D01*
X121458810Y-48274367D02*
X121458810Y-48131510D01*
X121458810Y-48131510D02*
X121506429Y-47941034D01*
X121506429Y-47941034D02*
X121554048Y-47845796D01*
X121554048Y-47845796D02*
X121649286Y-47750558D01*
X121649286Y-47750558D02*
X121792143Y-47702939D01*
X121792143Y-47702939D02*
X121887381Y-47702939D01*
X121887381Y-47702939D02*
X122030238Y-47750558D01*
X122030238Y-47750558D02*
X122077857Y-47798177D01*
X119894366Y-42536102D02*
X119861033Y-42602769D01*
X119861033Y-42602769D02*
X119861033Y-42702769D01*
X119861033Y-42702769D02*
X119894366Y-42802769D01*
X119894366Y-42802769D02*
X119961033Y-42869436D01*
X119961033Y-42869436D02*
X120027700Y-42902769D01*
X120027700Y-42902769D02*
X120161033Y-42936102D01*
X120161033Y-42936102D02*
X120261033Y-42936102D01*
X120261033Y-42936102D02*
X120394366Y-42902769D01*
X120394366Y-42902769D02*
X120461033Y-42869436D01*
X120461033Y-42869436D02*
X120527700Y-42802769D01*
X120527700Y-42802769D02*
X120561033Y-42702769D01*
X120561033Y-42702769D02*
X120561033Y-42636102D01*
X120561033Y-42636102D02*
X120527700Y-42536102D01*
X120527700Y-42536102D02*
X120494366Y-42502769D01*
X120494366Y-42502769D02*
X120261033Y-42502769D01*
X120261033Y-42502769D02*
X120261033Y-42636102D01*
X120561033Y-42202769D02*
X119861033Y-42202769D01*
X119861033Y-42202769D02*
X119861033Y-41936102D01*
X119861033Y-41936102D02*
X119894366Y-41869436D01*
X119894366Y-41869436D02*
X119927700Y-41836102D01*
X119927700Y-41836102D02*
X119994366Y-41802769D01*
X119994366Y-41802769D02*
X120094366Y-41802769D01*
X120094366Y-41802769D02*
X120161033Y-41836102D01*
X120161033Y-41836102D02*
X120194366Y-41869436D01*
X120194366Y-41869436D02*
X120227700Y-41936102D01*
X120227700Y-41936102D02*
X120227700Y-42202769D01*
X120561033Y-41502769D02*
X119861033Y-41502769D01*
X119861033Y-41036103D02*
X119861033Y-40902769D01*
X119861033Y-40902769D02*
X119894366Y-40836103D01*
X119894366Y-40836103D02*
X119961033Y-40769436D01*
X119961033Y-40769436D02*
X120094366Y-40736103D01*
X120094366Y-40736103D02*
X120327700Y-40736103D01*
X120327700Y-40736103D02*
X120461033Y-40769436D01*
X120461033Y-40769436D02*
X120527700Y-40836103D01*
X120527700Y-40836103D02*
X120561033Y-40902769D01*
X120561033Y-40902769D02*
X120561033Y-41036103D01*
X120561033Y-41036103D02*
X120527700Y-41102769D01*
X120527700Y-41102769D02*
X120461033Y-41169436D01*
X120461033Y-41169436D02*
X120327700Y-41202769D01*
X120327700Y-41202769D02*
X120094366Y-41202769D01*
X120094366Y-41202769D02*
X119961033Y-41169436D01*
X119961033Y-41169436D02*
X119894366Y-41102769D01*
X119894366Y-41102769D02*
X119861033Y-41036103D01*
X119861033Y-40502770D02*
X119861033Y-40069436D01*
X119861033Y-40069436D02*
X120127700Y-40302770D01*
X120127700Y-40302770D02*
X120127700Y-40202770D01*
X120127700Y-40202770D02*
X120161033Y-40136103D01*
X120161033Y-40136103D02*
X120194366Y-40102770D01*
X120194366Y-40102770D02*
X120261033Y-40069436D01*
X120261033Y-40069436D02*
X120427700Y-40069436D01*
X120427700Y-40069436D02*
X120494366Y-40102770D01*
X120494366Y-40102770D02*
X120527700Y-40136103D01*
X120527700Y-40136103D02*
X120561033Y-40202770D01*
X120561033Y-40202770D02*
X120561033Y-40402770D01*
X120561033Y-40402770D02*
X120527700Y-40469436D01*
X120527700Y-40469436D02*
X120494366Y-40502770D01*
X120094366Y-39469436D02*
X120561033Y-39469436D01*
X119827700Y-39636103D02*
X120327700Y-39802769D01*
X120327700Y-39802769D02*
X120327700Y-39369436D01*
X94347438Y-58252518D02*
X94299819Y-58347756D01*
X94299819Y-58347756D02*
X94299819Y-58490613D01*
X94299819Y-58490613D02*
X94347438Y-58633470D01*
X94347438Y-58633470D02*
X94442676Y-58728708D01*
X94442676Y-58728708D02*
X94537914Y-58776327D01*
X94537914Y-58776327D02*
X94728390Y-58823946D01*
X94728390Y-58823946D02*
X94871247Y-58823946D01*
X94871247Y-58823946D02*
X95061723Y-58776327D01*
X95061723Y-58776327D02*
X95156961Y-58728708D01*
X95156961Y-58728708D02*
X95252200Y-58633470D01*
X95252200Y-58633470D02*
X95299819Y-58490613D01*
X95299819Y-58490613D02*
X95299819Y-58395375D01*
X95299819Y-58395375D02*
X95252200Y-58252518D01*
X95252200Y-58252518D02*
X95204580Y-58204899D01*
X95204580Y-58204899D02*
X94871247Y-58204899D01*
X94871247Y-58204899D02*
X94871247Y-58395375D01*
X95299819Y-57776327D02*
X94299819Y-57776327D01*
X94299819Y-57776327D02*
X95299819Y-57204899D01*
X95299819Y-57204899D02*
X94299819Y-57204899D01*
X95299819Y-56728708D02*
X94299819Y-56728708D01*
X94299819Y-56728708D02*
X94299819Y-56490613D01*
X94299819Y-56490613D02*
X94347438Y-56347756D01*
X94347438Y-56347756D02*
X94442676Y-56252518D01*
X94442676Y-56252518D02*
X94537914Y-56204899D01*
X94537914Y-56204899D02*
X94728390Y-56157280D01*
X94728390Y-56157280D02*
X94871247Y-56157280D01*
X94871247Y-56157280D02*
X95061723Y-56204899D01*
X95061723Y-56204899D02*
X95156961Y-56252518D01*
X95156961Y-56252518D02*
X95252200Y-56347756D01*
X95252200Y-56347756D02*
X95299819Y-56490613D01*
X95299819Y-56490613D02*
X95299819Y-56728708D01*
X127796009Y-45472518D02*
X127796009Y-45139185D01*
X128319819Y-44996328D02*
X128319819Y-45472518D01*
X128319819Y-45472518D02*
X127319819Y-45472518D01*
X127319819Y-45472518D02*
X127319819Y-44996328D01*
X128319819Y-44567756D02*
X127319819Y-44567756D01*
X127319819Y-44567756D02*
X128319819Y-43996328D01*
X128319819Y-43996328D02*
X127319819Y-43996328D01*
X127272200Y-42805852D02*
X128557914Y-43662994D01*
X128319819Y-41901090D02*
X127843628Y-42234423D01*
X128319819Y-42472518D02*
X127319819Y-42472518D01*
X127319819Y-42472518D02*
X127319819Y-42091566D01*
X127319819Y-42091566D02*
X127367438Y-41996328D01*
X127367438Y-41996328D02*
X127415057Y-41948709D01*
X127415057Y-41948709D02*
X127510295Y-41901090D01*
X127510295Y-41901090D02*
X127653152Y-41901090D01*
X127653152Y-41901090D02*
X127748390Y-41948709D01*
X127748390Y-41948709D02*
X127796009Y-41996328D01*
X127796009Y-41996328D02*
X127843628Y-42091566D01*
X127843628Y-42091566D02*
X127843628Y-42472518D01*
X127796009Y-41472518D02*
X127796009Y-41139185D01*
X128319819Y-40996328D02*
X128319819Y-41472518D01*
X128319819Y-41472518D02*
X127319819Y-41472518D01*
X127319819Y-41472518D02*
X127319819Y-40996328D01*
X128272200Y-40615375D02*
X128319819Y-40472518D01*
X128319819Y-40472518D02*
X128319819Y-40234423D01*
X128319819Y-40234423D02*
X128272200Y-40139185D01*
X128272200Y-40139185D02*
X128224580Y-40091566D01*
X128224580Y-40091566D02*
X128129342Y-40043947D01*
X128129342Y-40043947D02*
X128034104Y-40043947D01*
X128034104Y-40043947D02*
X127938866Y-40091566D01*
X127938866Y-40091566D02*
X127891247Y-40139185D01*
X127891247Y-40139185D02*
X127843628Y-40234423D01*
X127843628Y-40234423D02*
X127796009Y-40424899D01*
X127796009Y-40424899D02*
X127748390Y-40520137D01*
X127748390Y-40520137D02*
X127700771Y-40567756D01*
X127700771Y-40567756D02*
X127605533Y-40615375D01*
X127605533Y-40615375D02*
X127510295Y-40615375D01*
X127510295Y-40615375D02*
X127415057Y-40567756D01*
X127415057Y-40567756D02*
X127367438Y-40520137D01*
X127367438Y-40520137D02*
X127319819Y-40424899D01*
X127319819Y-40424899D02*
X127319819Y-40186804D01*
X127319819Y-40186804D02*
X127367438Y-40043947D01*
X127796009Y-39615375D02*
X127796009Y-39282042D01*
X128319819Y-39139185D02*
X128319819Y-39615375D01*
X128319819Y-39615375D02*
X127319819Y-39615375D01*
X127319819Y-39615375D02*
X127319819Y-39139185D01*
X127319819Y-38853470D02*
X127319819Y-38282042D01*
X128319819Y-38567756D02*
X127319819Y-38567756D01*
X112274366Y-42536102D02*
X112241033Y-42602769D01*
X112241033Y-42602769D02*
X112241033Y-42702769D01*
X112241033Y-42702769D02*
X112274366Y-42802769D01*
X112274366Y-42802769D02*
X112341033Y-42869436D01*
X112341033Y-42869436D02*
X112407700Y-42902769D01*
X112407700Y-42902769D02*
X112541033Y-42936102D01*
X112541033Y-42936102D02*
X112641033Y-42936102D01*
X112641033Y-42936102D02*
X112774366Y-42902769D01*
X112774366Y-42902769D02*
X112841033Y-42869436D01*
X112841033Y-42869436D02*
X112907700Y-42802769D01*
X112907700Y-42802769D02*
X112941033Y-42702769D01*
X112941033Y-42702769D02*
X112941033Y-42636102D01*
X112941033Y-42636102D02*
X112907700Y-42536102D01*
X112907700Y-42536102D02*
X112874366Y-42502769D01*
X112874366Y-42502769D02*
X112641033Y-42502769D01*
X112641033Y-42502769D02*
X112641033Y-42636102D01*
X112941033Y-42202769D02*
X112241033Y-42202769D01*
X112241033Y-42202769D02*
X112241033Y-41936102D01*
X112241033Y-41936102D02*
X112274366Y-41869436D01*
X112274366Y-41869436D02*
X112307700Y-41836102D01*
X112307700Y-41836102D02*
X112374366Y-41802769D01*
X112374366Y-41802769D02*
X112474366Y-41802769D01*
X112474366Y-41802769D02*
X112541033Y-41836102D01*
X112541033Y-41836102D02*
X112574366Y-41869436D01*
X112574366Y-41869436D02*
X112607700Y-41936102D01*
X112607700Y-41936102D02*
X112607700Y-42202769D01*
X112941033Y-41502769D02*
X112241033Y-41502769D01*
X112241033Y-41036103D02*
X112241033Y-40902769D01*
X112241033Y-40902769D02*
X112274366Y-40836103D01*
X112274366Y-40836103D02*
X112341033Y-40769436D01*
X112341033Y-40769436D02*
X112474366Y-40736103D01*
X112474366Y-40736103D02*
X112707700Y-40736103D01*
X112707700Y-40736103D02*
X112841033Y-40769436D01*
X112841033Y-40769436D02*
X112907700Y-40836103D01*
X112907700Y-40836103D02*
X112941033Y-40902769D01*
X112941033Y-40902769D02*
X112941033Y-41036103D01*
X112941033Y-41036103D02*
X112907700Y-41102769D01*
X112907700Y-41102769D02*
X112841033Y-41169436D01*
X112841033Y-41169436D02*
X112707700Y-41202769D01*
X112707700Y-41202769D02*
X112474366Y-41202769D01*
X112474366Y-41202769D02*
X112341033Y-41169436D01*
X112341033Y-41169436D02*
X112274366Y-41102769D01*
X112274366Y-41102769D02*
X112241033Y-41036103D01*
X112241033Y-40502770D02*
X112241033Y-40069436D01*
X112241033Y-40069436D02*
X112507700Y-40302770D01*
X112507700Y-40302770D02*
X112507700Y-40202770D01*
X112507700Y-40202770D02*
X112541033Y-40136103D01*
X112541033Y-40136103D02*
X112574366Y-40102770D01*
X112574366Y-40102770D02*
X112641033Y-40069436D01*
X112641033Y-40069436D02*
X112807700Y-40069436D01*
X112807700Y-40069436D02*
X112874366Y-40102770D01*
X112874366Y-40102770D02*
X112907700Y-40136103D01*
X112907700Y-40136103D02*
X112941033Y-40202770D01*
X112941033Y-40202770D02*
X112941033Y-40402770D01*
X112941033Y-40402770D02*
X112907700Y-40469436D01*
X112907700Y-40469436D02*
X112874366Y-40502770D01*
X112241033Y-39836103D02*
X112241033Y-39402769D01*
X112241033Y-39402769D02*
X112507700Y-39636103D01*
X112507700Y-39636103D02*
X112507700Y-39536103D01*
X112507700Y-39536103D02*
X112541033Y-39469436D01*
X112541033Y-39469436D02*
X112574366Y-39436103D01*
X112574366Y-39436103D02*
X112641033Y-39402769D01*
X112641033Y-39402769D02*
X112807700Y-39402769D01*
X112807700Y-39402769D02*
X112874366Y-39436103D01*
X112874366Y-39436103D02*
X112907700Y-39469436D01*
X112907700Y-39469436D02*
X112941033Y-39536103D01*
X112941033Y-39536103D02*
X112941033Y-39736103D01*
X112941033Y-39736103D02*
X112907700Y-39802769D01*
X112907700Y-39802769D02*
X112874366Y-39836103D01*
X119894366Y-57520136D02*
X119861033Y-57586803D01*
X119861033Y-57586803D02*
X119861033Y-57686803D01*
X119861033Y-57686803D02*
X119894366Y-57786803D01*
X119894366Y-57786803D02*
X119961033Y-57853470D01*
X119961033Y-57853470D02*
X120027700Y-57886803D01*
X120027700Y-57886803D02*
X120161033Y-57920136D01*
X120161033Y-57920136D02*
X120261033Y-57920136D01*
X120261033Y-57920136D02*
X120394366Y-57886803D01*
X120394366Y-57886803D02*
X120461033Y-57853470D01*
X120461033Y-57853470D02*
X120527700Y-57786803D01*
X120527700Y-57786803D02*
X120561033Y-57686803D01*
X120561033Y-57686803D02*
X120561033Y-57620136D01*
X120561033Y-57620136D02*
X120527700Y-57520136D01*
X120527700Y-57520136D02*
X120494366Y-57486803D01*
X120494366Y-57486803D02*
X120261033Y-57486803D01*
X120261033Y-57486803D02*
X120261033Y-57620136D01*
X120561033Y-57186803D02*
X119861033Y-57186803D01*
X119861033Y-57186803D02*
X119861033Y-56920136D01*
X119861033Y-56920136D02*
X119894366Y-56853470D01*
X119894366Y-56853470D02*
X119927700Y-56820136D01*
X119927700Y-56820136D02*
X119994366Y-56786803D01*
X119994366Y-56786803D02*
X120094366Y-56786803D01*
X120094366Y-56786803D02*
X120161033Y-56820136D01*
X120161033Y-56820136D02*
X120194366Y-56853470D01*
X120194366Y-56853470D02*
X120227700Y-56920136D01*
X120227700Y-56920136D02*
X120227700Y-57186803D01*
X120561033Y-56486803D02*
X119861033Y-56486803D01*
X119861033Y-56020137D02*
X119861033Y-55886803D01*
X119861033Y-55886803D02*
X119894366Y-55820137D01*
X119894366Y-55820137D02*
X119961033Y-55753470D01*
X119961033Y-55753470D02*
X120094366Y-55720137D01*
X120094366Y-55720137D02*
X120327700Y-55720137D01*
X120327700Y-55720137D02*
X120461033Y-55753470D01*
X120461033Y-55753470D02*
X120527700Y-55820137D01*
X120527700Y-55820137D02*
X120561033Y-55886803D01*
X120561033Y-55886803D02*
X120561033Y-56020137D01*
X120561033Y-56020137D02*
X120527700Y-56086803D01*
X120527700Y-56086803D02*
X120461033Y-56153470D01*
X120461033Y-56153470D02*
X120327700Y-56186803D01*
X120327700Y-56186803D02*
X120094366Y-56186803D01*
X120094366Y-56186803D02*
X119961033Y-56153470D01*
X119961033Y-56153470D02*
X119894366Y-56086803D01*
X119894366Y-56086803D02*
X119861033Y-56020137D01*
X120561033Y-55053470D02*
X120561033Y-55453470D01*
X120561033Y-55253470D02*
X119861033Y-55253470D01*
X119861033Y-55253470D02*
X119961033Y-55320137D01*
X119961033Y-55320137D02*
X120027700Y-55386804D01*
X120027700Y-55386804D02*
X120061033Y-55453470D01*
X119827700Y-54253470D02*
X120727700Y-54853470D01*
X119861033Y-54020137D02*
X120427700Y-54020137D01*
X120427700Y-54020137D02*
X120494366Y-53986804D01*
X120494366Y-53986804D02*
X120527700Y-53953470D01*
X120527700Y-53953470D02*
X120561033Y-53886804D01*
X120561033Y-53886804D02*
X120561033Y-53753470D01*
X120561033Y-53753470D02*
X120527700Y-53686804D01*
X120527700Y-53686804D02*
X120494366Y-53653470D01*
X120494366Y-53653470D02*
X120427700Y-53620137D01*
X120427700Y-53620137D02*
X119861033Y-53620137D01*
X119861033Y-53153471D02*
X119861033Y-53086804D01*
X119861033Y-53086804D02*
X119894366Y-53020137D01*
X119894366Y-53020137D02*
X119927700Y-52986804D01*
X119927700Y-52986804D02*
X119994366Y-52953471D01*
X119994366Y-52953471D02*
X120127700Y-52920137D01*
X120127700Y-52920137D02*
X120294366Y-52920137D01*
X120294366Y-52920137D02*
X120427700Y-52953471D01*
X120427700Y-52953471D02*
X120494366Y-52986804D01*
X120494366Y-52986804D02*
X120527700Y-53020137D01*
X120527700Y-53020137D02*
X120561033Y-53086804D01*
X120561033Y-53086804D02*
X120561033Y-53153471D01*
X120561033Y-53153471D02*
X120527700Y-53220137D01*
X120527700Y-53220137D02*
X120494366Y-53253471D01*
X120494366Y-53253471D02*
X120427700Y-53286804D01*
X120427700Y-53286804D02*
X120294366Y-53320137D01*
X120294366Y-53320137D02*
X120127700Y-53320137D01*
X120127700Y-53320137D02*
X119994366Y-53286804D01*
X119994366Y-53286804D02*
X119927700Y-53253471D01*
X119927700Y-53253471D02*
X119894366Y-53220137D01*
X119894366Y-53220137D02*
X119861033Y-53153471D01*
X119861033Y-52720137D02*
X119861033Y-52320137D01*
X120561033Y-52520137D02*
X119861033Y-52520137D01*
X119861033Y-52153471D02*
X120561033Y-51686804D01*
X119861033Y-51686804D02*
X120561033Y-52153471D01*
X120561033Y-51420137D02*
X119861033Y-51420137D01*
X119861033Y-51420137D02*
X119861033Y-51253470D01*
X119861033Y-51253470D02*
X119894366Y-51153470D01*
X119894366Y-51153470D02*
X119961033Y-51086804D01*
X119961033Y-51086804D02*
X120027700Y-51053470D01*
X120027700Y-51053470D02*
X120161033Y-51020137D01*
X120161033Y-51020137D02*
X120261033Y-51020137D01*
X120261033Y-51020137D02*
X120394366Y-51053470D01*
X120394366Y-51053470D02*
X120461033Y-51086804D01*
X120461033Y-51086804D02*
X120527700Y-51153470D01*
X120527700Y-51153470D02*
X120561033Y-51253470D01*
X120561033Y-51253470D02*
X120561033Y-51420137D01*
X91759819Y-39815150D02*
X91759819Y-40291340D01*
X91759819Y-40291340D02*
X92236009Y-40338959D01*
X92236009Y-40338959D02*
X92188390Y-40291340D01*
X92188390Y-40291340D02*
X92140771Y-40196102D01*
X92140771Y-40196102D02*
X92140771Y-39958007D01*
X92140771Y-39958007D02*
X92188390Y-39862769D01*
X92188390Y-39862769D02*
X92236009Y-39815150D01*
X92236009Y-39815150D02*
X92331247Y-39767531D01*
X92331247Y-39767531D02*
X92569342Y-39767531D01*
X92569342Y-39767531D02*
X92664580Y-39815150D01*
X92664580Y-39815150D02*
X92712200Y-39862769D01*
X92712200Y-39862769D02*
X92759819Y-39958007D01*
X92759819Y-39958007D02*
X92759819Y-40196102D01*
X92759819Y-40196102D02*
X92712200Y-40291340D01*
X92712200Y-40291340D02*
X92664580Y-40338959D01*
X91759819Y-39481816D02*
X92759819Y-39148483D01*
X92759819Y-39148483D02*
X91759819Y-38815150D01*
X104654366Y-59233470D02*
X104621033Y-59300137D01*
X104621033Y-59300137D02*
X104621033Y-59400137D01*
X104621033Y-59400137D02*
X104654366Y-59500137D01*
X104654366Y-59500137D02*
X104721033Y-59566804D01*
X104721033Y-59566804D02*
X104787700Y-59600137D01*
X104787700Y-59600137D02*
X104921033Y-59633470D01*
X104921033Y-59633470D02*
X105021033Y-59633470D01*
X105021033Y-59633470D02*
X105154366Y-59600137D01*
X105154366Y-59600137D02*
X105221033Y-59566804D01*
X105221033Y-59566804D02*
X105287700Y-59500137D01*
X105287700Y-59500137D02*
X105321033Y-59400137D01*
X105321033Y-59400137D02*
X105321033Y-59333470D01*
X105321033Y-59333470D02*
X105287700Y-59233470D01*
X105287700Y-59233470D02*
X105254366Y-59200137D01*
X105254366Y-59200137D02*
X105021033Y-59200137D01*
X105021033Y-59200137D02*
X105021033Y-59333470D01*
X105321033Y-58900137D02*
X104621033Y-58900137D01*
X104621033Y-58900137D02*
X104621033Y-58633470D01*
X104621033Y-58633470D02*
X104654366Y-58566804D01*
X104654366Y-58566804D02*
X104687700Y-58533470D01*
X104687700Y-58533470D02*
X104754366Y-58500137D01*
X104754366Y-58500137D02*
X104854366Y-58500137D01*
X104854366Y-58500137D02*
X104921033Y-58533470D01*
X104921033Y-58533470D02*
X104954366Y-58566804D01*
X104954366Y-58566804D02*
X104987700Y-58633470D01*
X104987700Y-58633470D02*
X104987700Y-58900137D01*
X105321033Y-58200137D02*
X104621033Y-58200137D01*
X104621033Y-57733471D02*
X104621033Y-57600137D01*
X104621033Y-57600137D02*
X104654366Y-57533471D01*
X104654366Y-57533471D02*
X104721033Y-57466804D01*
X104721033Y-57466804D02*
X104854366Y-57433471D01*
X104854366Y-57433471D02*
X105087700Y-57433471D01*
X105087700Y-57433471D02*
X105221033Y-57466804D01*
X105221033Y-57466804D02*
X105287700Y-57533471D01*
X105287700Y-57533471D02*
X105321033Y-57600137D01*
X105321033Y-57600137D02*
X105321033Y-57733471D01*
X105321033Y-57733471D02*
X105287700Y-57800137D01*
X105287700Y-57800137D02*
X105221033Y-57866804D01*
X105221033Y-57866804D02*
X105087700Y-57900137D01*
X105087700Y-57900137D02*
X104854366Y-57900137D01*
X104854366Y-57900137D02*
X104721033Y-57866804D01*
X104721033Y-57866804D02*
X104654366Y-57800137D01*
X104654366Y-57800137D02*
X104621033Y-57733471D01*
X105321033Y-56766804D02*
X105321033Y-57166804D01*
X105321033Y-56966804D02*
X104621033Y-56966804D01*
X104621033Y-56966804D02*
X104721033Y-57033471D01*
X104721033Y-57033471D02*
X104787700Y-57100138D01*
X104787700Y-57100138D02*
X104821033Y-57166804D01*
X104621033Y-56166804D02*
X104621033Y-56300137D01*
X104621033Y-56300137D02*
X104654366Y-56366804D01*
X104654366Y-56366804D02*
X104687700Y-56400137D01*
X104687700Y-56400137D02*
X104787700Y-56466804D01*
X104787700Y-56466804D02*
X104921033Y-56500137D01*
X104921033Y-56500137D02*
X105187700Y-56500137D01*
X105187700Y-56500137D02*
X105254366Y-56466804D01*
X105254366Y-56466804D02*
X105287700Y-56433471D01*
X105287700Y-56433471D02*
X105321033Y-56366804D01*
X105321033Y-56366804D02*
X105321033Y-56233471D01*
X105321033Y-56233471D02*
X105287700Y-56166804D01*
X105287700Y-56166804D02*
X105254366Y-56133471D01*
X105254366Y-56133471D02*
X105187700Y-56100137D01*
X105187700Y-56100137D02*
X105021033Y-56100137D01*
X105021033Y-56100137D02*
X104954366Y-56133471D01*
X104954366Y-56133471D02*
X104921033Y-56166804D01*
X104921033Y-56166804D02*
X104887700Y-56233471D01*
X104887700Y-56233471D02*
X104887700Y-56366804D01*
X104887700Y-56366804D02*
X104921033Y-56433471D01*
X104921033Y-56433471D02*
X104954366Y-56466804D01*
X104954366Y-56466804D02*
X105021033Y-56500137D01*
X91759819Y-58166578D02*
X91759819Y-57547531D01*
X91759819Y-57547531D02*
X92140771Y-57880864D01*
X92140771Y-57880864D02*
X92140771Y-57738007D01*
X92140771Y-57738007D02*
X92188390Y-57642769D01*
X92188390Y-57642769D02*
X92236009Y-57595150D01*
X92236009Y-57595150D02*
X92331247Y-57547531D01*
X92331247Y-57547531D02*
X92569342Y-57547531D01*
X92569342Y-57547531D02*
X92664580Y-57595150D01*
X92664580Y-57595150D02*
X92712200Y-57642769D01*
X92712200Y-57642769D02*
X92759819Y-57738007D01*
X92759819Y-57738007D02*
X92759819Y-58023721D01*
X92759819Y-58023721D02*
X92712200Y-58118959D01*
X92712200Y-58118959D02*
X92664580Y-58166578D01*
X91759819Y-57261816D02*
X92759819Y-56928483D01*
X92759819Y-56928483D02*
X91759819Y-56595150D01*
X91759819Y-56357054D02*
X91759819Y-55738007D01*
X91759819Y-55738007D02*
X92140771Y-56071340D01*
X92140771Y-56071340D02*
X92140771Y-55928483D01*
X92140771Y-55928483D02*
X92188390Y-55833245D01*
X92188390Y-55833245D02*
X92236009Y-55785626D01*
X92236009Y-55785626D02*
X92331247Y-55738007D01*
X92331247Y-55738007D02*
X92569342Y-55738007D01*
X92569342Y-55738007D02*
X92664580Y-55785626D01*
X92664580Y-55785626D02*
X92712200Y-55833245D01*
X92712200Y-55833245D02*
X92759819Y-55928483D01*
X92759819Y-55928483D02*
X92759819Y-56214197D01*
X92759819Y-56214197D02*
X92712200Y-56309435D01*
X92712200Y-56309435D02*
X92664580Y-56357054D01*
X112274366Y-59233470D02*
X112241033Y-59300137D01*
X112241033Y-59300137D02*
X112241033Y-59400137D01*
X112241033Y-59400137D02*
X112274366Y-59500137D01*
X112274366Y-59500137D02*
X112341033Y-59566804D01*
X112341033Y-59566804D02*
X112407700Y-59600137D01*
X112407700Y-59600137D02*
X112541033Y-59633470D01*
X112541033Y-59633470D02*
X112641033Y-59633470D01*
X112641033Y-59633470D02*
X112774366Y-59600137D01*
X112774366Y-59600137D02*
X112841033Y-59566804D01*
X112841033Y-59566804D02*
X112907700Y-59500137D01*
X112907700Y-59500137D02*
X112941033Y-59400137D01*
X112941033Y-59400137D02*
X112941033Y-59333470D01*
X112941033Y-59333470D02*
X112907700Y-59233470D01*
X112907700Y-59233470D02*
X112874366Y-59200137D01*
X112874366Y-59200137D02*
X112641033Y-59200137D01*
X112641033Y-59200137D02*
X112641033Y-59333470D01*
X112941033Y-58900137D02*
X112241033Y-58900137D01*
X112241033Y-58900137D02*
X112241033Y-58633470D01*
X112241033Y-58633470D02*
X112274366Y-58566804D01*
X112274366Y-58566804D02*
X112307700Y-58533470D01*
X112307700Y-58533470D02*
X112374366Y-58500137D01*
X112374366Y-58500137D02*
X112474366Y-58500137D01*
X112474366Y-58500137D02*
X112541033Y-58533470D01*
X112541033Y-58533470D02*
X112574366Y-58566804D01*
X112574366Y-58566804D02*
X112607700Y-58633470D01*
X112607700Y-58633470D02*
X112607700Y-58900137D01*
X112941033Y-58200137D02*
X112241033Y-58200137D01*
X112241033Y-57733471D02*
X112241033Y-57600137D01*
X112241033Y-57600137D02*
X112274366Y-57533471D01*
X112274366Y-57533471D02*
X112341033Y-57466804D01*
X112341033Y-57466804D02*
X112474366Y-57433471D01*
X112474366Y-57433471D02*
X112707700Y-57433471D01*
X112707700Y-57433471D02*
X112841033Y-57466804D01*
X112841033Y-57466804D02*
X112907700Y-57533471D01*
X112907700Y-57533471D02*
X112941033Y-57600137D01*
X112941033Y-57600137D02*
X112941033Y-57733471D01*
X112941033Y-57733471D02*
X112907700Y-57800137D01*
X112907700Y-57800137D02*
X112841033Y-57866804D01*
X112841033Y-57866804D02*
X112707700Y-57900137D01*
X112707700Y-57900137D02*
X112474366Y-57900137D01*
X112474366Y-57900137D02*
X112341033Y-57866804D01*
X112341033Y-57866804D02*
X112274366Y-57800137D01*
X112274366Y-57800137D02*
X112241033Y-57733471D01*
X112941033Y-56766804D02*
X112941033Y-57166804D01*
X112941033Y-56966804D02*
X112241033Y-56966804D01*
X112241033Y-56966804D02*
X112341033Y-57033471D01*
X112341033Y-57033471D02*
X112407700Y-57100138D01*
X112407700Y-57100138D02*
X112441033Y-57166804D01*
X112541033Y-56366804D02*
X112507700Y-56433471D01*
X112507700Y-56433471D02*
X112474366Y-56466804D01*
X112474366Y-56466804D02*
X112407700Y-56500137D01*
X112407700Y-56500137D02*
X112374366Y-56500137D01*
X112374366Y-56500137D02*
X112307700Y-56466804D01*
X112307700Y-56466804D02*
X112274366Y-56433471D01*
X112274366Y-56433471D02*
X112241033Y-56366804D01*
X112241033Y-56366804D02*
X112241033Y-56233471D01*
X112241033Y-56233471D02*
X112274366Y-56166804D01*
X112274366Y-56166804D02*
X112307700Y-56133471D01*
X112307700Y-56133471D02*
X112374366Y-56100137D01*
X112374366Y-56100137D02*
X112407700Y-56100137D01*
X112407700Y-56100137D02*
X112474366Y-56133471D01*
X112474366Y-56133471D02*
X112507700Y-56166804D01*
X112507700Y-56166804D02*
X112541033Y-56233471D01*
X112541033Y-56233471D02*
X112541033Y-56366804D01*
X112541033Y-56366804D02*
X112574366Y-56433471D01*
X112574366Y-56433471D02*
X112607700Y-56466804D01*
X112607700Y-56466804D02*
X112674366Y-56500137D01*
X112674366Y-56500137D02*
X112807700Y-56500137D01*
X112807700Y-56500137D02*
X112874366Y-56466804D01*
X112874366Y-56466804D02*
X112907700Y-56433471D01*
X112907700Y-56433471D02*
X112941033Y-56366804D01*
X112941033Y-56366804D02*
X112941033Y-56233471D01*
X112941033Y-56233471D02*
X112907700Y-56166804D01*
X112907700Y-56166804D02*
X112874366Y-56133471D01*
X112874366Y-56133471D02*
X112807700Y-56100137D01*
X112807700Y-56100137D02*
X112674366Y-56100137D01*
X112674366Y-56100137D02*
X112607700Y-56133471D01*
X112607700Y-56133471D02*
X112574366Y-56166804D01*
X112574366Y-56166804D02*
X112541033Y-56233471D01*
X102114366Y-58566803D02*
X102081033Y-58633470D01*
X102081033Y-58633470D02*
X102081033Y-58733470D01*
X102081033Y-58733470D02*
X102114366Y-58833470D01*
X102114366Y-58833470D02*
X102181033Y-58900137D01*
X102181033Y-58900137D02*
X102247700Y-58933470D01*
X102247700Y-58933470D02*
X102381033Y-58966803D01*
X102381033Y-58966803D02*
X102481033Y-58966803D01*
X102481033Y-58966803D02*
X102614366Y-58933470D01*
X102614366Y-58933470D02*
X102681033Y-58900137D01*
X102681033Y-58900137D02*
X102747700Y-58833470D01*
X102747700Y-58833470D02*
X102781033Y-58733470D01*
X102781033Y-58733470D02*
X102781033Y-58666803D01*
X102781033Y-58666803D02*
X102747700Y-58566803D01*
X102747700Y-58566803D02*
X102714366Y-58533470D01*
X102714366Y-58533470D02*
X102481033Y-58533470D01*
X102481033Y-58533470D02*
X102481033Y-58666803D01*
X102781033Y-58233470D02*
X102081033Y-58233470D01*
X102081033Y-58233470D02*
X102081033Y-57966803D01*
X102081033Y-57966803D02*
X102114366Y-57900137D01*
X102114366Y-57900137D02*
X102147700Y-57866803D01*
X102147700Y-57866803D02*
X102214366Y-57833470D01*
X102214366Y-57833470D02*
X102314366Y-57833470D01*
X102314366Y-57833470D02*
X102381033Y-57866803D01*
X102381033Y-57866803D02*
X102414366Y-57900137D01*
X102414366Y-57900137D02*
X102447700Y-57966803D01*
X102447700Y-57966803D02*
X102447700Y-58233470D01*
X102781033Y-57533470D02*
X102081033Y-57533470D01*
X102081033Y-57066804D02*
X102081033Y-56933470D01*
X102081033Y-56933470D02*
X102114366Y-56866804D01*
X102114366Y-56866804D02*
X102181033Y-56800137D01*
X102181033Y-56800137D02*
X102314366Y-56766804D01*
X102314366Y-56766804D02*
X102547700Y-56766804D01*
X102547700Y-56766804D02*
X102681033Y-56800137D01*
X102681033Y-56800137D02*
X102747700Y-56866804D01*
X102747700Y-56866804D02*
X102781033Y-56933470D01*
X102781033Y-56933470D02*
X102781033Y-57066804D01*
X102781033Y-57066804D02*
X102747700Y-57133470D01*
X102747700Y-57133470D02*
X102681033Y-57200137D01*
X102681033Y-57200137D02*
X102547700Y-57233470D01*
X102547700Y-57233470D02*
X102314366Y-57233470D01*
X102314366Y-57233470D02*
X102181033Y-57200137D01*
X102181033Y-57200137D02*
X102114366Y-57133470D01*
X102114366Y-57133470D02*
X102081033Y-57066804D01*
X102314366Y-56166804D02*
X102781033Y-56166804D01*
X102047700Y-56333471D02*
X102547700Y-56500137D01*
X102547700Y-56500137D02*
X102547700Y-56066804D01*
X97034366Y-45076102D02*
X97001033Y-45142769D01*
X97001033Y-45142769D02*
X97001033Y-45242769D01*
X97001033Y-45242769D02*
X97034366Y-45342769D01*
X97034366Y-45342769D02*
X97101033Y-45409436D01*
X97101033Y-45409436D02*
X97167700Y-45442769D01*
X97167700Y-45442769D02*
X97301033Y-45476102D01*
X97301033Y-45476102D02*
X97401033Y-45476102D01*
X97401033Y-45476102D02*
X97534366Y-45442769D01*
X97534366Y-45442769D02*
X97601033Y-45409436D01*
X97601033Y-45409436D02*
X97667700Y-45342769D01*
X97667700Y-45342769D02*
X97701033Y-45242769D01*
X97701033Y-45242769D02*
X97701033Y-45176102D01*
X97701033Y-45176102D02*
X97667700Y-45076102D01*
X97667700Y-45076102D02*
X97634366Y-45042769D01*
X97634366Y-45042769D02*
X97401033Y-45042769D01*
X97401033Y-45042769D02*
X97401033Y-45176102D01*
X97701033Y-44742769D02*
X97001033Y-44742769D01*
X97001033Y-44742769D02*
X97001033Y-44476102D01*
X97001033Y-44476102D02*
X97034366Y-44409436D01*
X97034366Y-44409436D02*
X97067700Y-44376102D01*
X97067700Y-44376102D02*
X97134366Y-44342769D01*
X97134366Y-44342769D02*
X97234366Y-44342769D01*
X97234366Y-44342769D02*
X97301033Y-44376102D01*
X97301033Y-44376102D02*
X97334366Y-44409436D01*
X97334366Y-44409436D02*
X97367700Y-44476102D01*
X97367700Y-44476102D02*
X97367700Y-44742769D01*
X97701033Y-44042769D02*
X97001033Y-44042769D01*
X97001033Y-43576103D02*
X97001033Y-43442769D01*
X97001033Y-43442769D02*
X97034366Y-43376103D01*
X97034366Y-43376103D02*
X97101033Y-43309436D01*
X97101033Y-43309436D02*
X97234366Y-43276103D01*
X97234366Y-43276103D02*
X97467700Y-43276103D01*
X97467700Y-43276103D02*
X97601033Y-43309436D01*
X97601033Y-43309436D02*
X97667700Y-43376103D01*
X97667700Y-43376103D02*
X97701033Y-43442769D01*
X97701033Y-43442769D02*
X97701033Y-43576103D01*
X97701033Y-43576103D02*
X97667700Y-43642769D01*
X97667700Y-43642769D02*
X97601033Y-43709436D01*
X97601033Y-43709436D02*
X97467700Y-43742769D01*
X97467700Y-43742769D02*
X97234366Y-43742769D01*
X97234366Y-43742769D02*
X97101033Y-43709436D01*
X97101033Y-43709436D02*
X97034366Y-43642769D01*
X97034366Y-43642769D02*
X97001033Y-43576103D01*
X97701033Y-42609436D02*
X97701033Y-43009436D01*
X97701033Y-42809436D02*
X97001033Y-42809436D01*
X97001033Y-42809436D02*
X97101033Y-42876103D01*
X97101033Y-42876103D02*
X97167700Y-42942770D01*
X97167700Y-42942770D02*
X97201033Y-43009436D01*
X97001033Y-42376103D02*
X97001033Y-41942769D01*
X97001033Y-41942769D02*
X97267700Y-42176103D01*
X97267700Y-42176103D02*
X97267700Y-42076103D01*
X97267700Y-42076103D02*
X97301033Y-42009436D01*
X97301033Y-42009436D02*
X97334366Y-41976103D01*
X97334366Y-41976103D02*
X97401033Y-41942769D01*
X97401033Y-41942769D02*
X97567700Y-41942769D01*
X97567700Y-41942769D02*
X97634366Y-41976103D01*
X97634366Y-41976103D02*
X97667700Y-42009436D01*
X97667700Y-42009436D02*
X97701033Y-42076103D01*
X97701033Y-42076103D02*
X97701033Y-42276103D01*
X97701033Y-42276103D02*
X97667700Y-42342769D01*
X97667700Y-42342769D02*
X97634366Y-42376103D01*
X96967700Y-41142769D02*
X97867700Y-41742769D01*
X97701033Y-40909436D02*
X97001033Y-40909436D01*
X97001033Y-40909436D02*
X97501033Y-40676103D01*
X97501033Y-40676103D02*
X97001033Y-40442769D01*
X97001033Y-40442769D02*
X97701033Y-40442769D01*
X97001033Y-40209436D02*
X97001033Y-39809436D01*
X97701033Y-40009436D02*
X97001033Y-40009436D01*
X97634366Y-39176103D02*
X97667700Y-39209436D01*
X97667700Y-39209436D02*
X97701033Y-39309436D01*
X97701033Y-39309436D02*
X97701033Y-39376103D01*
X97701033Y-39376103D02*
X97667700Y-39476103D01*
X97667700Y-39476103D02*
X97601033Y-39542770D01*
X97601033Y-39542770D02*
X97534366Y-39576103D01*
X97534366Y-39576103D02*
X97401033Y-39609436D01*
X97401033Y-39609436D02*
X97301033Y-39609436D01*
X97301033Y-39609436D02*
X97167700Y-39576103D01*
X97167700Y-39576103D02*
X97101033Y-39542770D01*
X97101033Y-39542770D02*
X97034366Y-39476103D01*
X97034366Y-39476103D02*
X97001033Y-39376103D01*
X97001033Y-39376103D02*
X97001033Y-39309436D01*
X97001033Y-39309436D02*
X97034366Y-39209436D01*
X97034366Y-39209436D02*
X97067700Y-39176103D01*
X97701033Y-38876103D02*
X97001033Y-38876103D01*
X97701033Y-38476103D02*
X97301033Y-38776103D01*
X97001033Y-38476103D02*
X97401033Y-38876103D01*
X124941033Y-43002769D02*
X125641033Y-42769436D01*
X125641033Y-42769436D02*
X124941033Y-42536102D01*
X125641033Y-42302769D02*
X124941033Y-42302769D01*
X124941033Y-42302769D02*
X124941033Y-42036102D01*
X124941033Y-42036102D02*
X124974366Y-41969436D01*
X124974366Y-41969436D02*
X125007700Y-41936102D01*
X125007700Y-41936102D02*
X125074366Y-41902769D01*
X125074366Y-41902769D02*
X125174366Y-41902769D01*
X125174366Y-41902769D02*
X125241033Y-41936102D01*
X125241033Y-41936102D02*
X125274366Y-41969436D01*
X125274366Y-41969436D02*
X125307700Y-42036102D01*
X125307700Y-42036102D02*
X125307700Y-42302769D01*
X124907700Y-41102769D02*
X125807700Y-41702769D01*
X124974366Y-40502769D02*
X124941033Y-40569436D01*
X124941033Y-40569436D02*
X124941033Y-40669436D01*
X124941033Y-40669436D02*
X124974366Y-40769436D01*
X124974366Y-40769436D02*
X125041033Y-40836103D01*
X125041033Y-40836103D02*
X125107700Y-40869436D01*
X125107700Y-40869436D02*
X125241033Y-40902769D01*
X125241033Y-40902769D02*
X125341033Y-40902769D01*
X125341033Y-40902769D02*
X125474366Y-40869436D01*
X125474366Y-40869436D02*
X125541033Y-40836103D01*
X125541033Y-40836103D02*
X125607700Y-40769436D01*
X125607700Y-40769436D02*
X125641033Y-40669436D01*
X125641033Y-40669436D02*
X125641033Y-40602769D01*
X125641033Y-40602769D02*
X125607700Y-40502769D01*
X125607700Y-40502769D02*
X125574366Y-40469436D01*
X125574366Y-40469436D02*
X125341033Y-40469436D01*
X125341033Y-40469436D02*
X125341033Y-40602769D01*
X125641033Y-40169436D02*
X124941033Y-40169436D01*
X124941033Y-40169436D02*
X124941033Y-39902769D01*
X124941033Y-39902769D02*
X124974366Y-39836103D01*
X124974366Y-39836103D02*
X125007700Y-39802769D01*
X125007700Y-39802769D02*
X125074366Y-39769436D01*
X125074366Y-39769436D02*
X125174366Y-39769436D01*
X125174366Y-39769436D02*
X125241033Y-39802769D01*
X125241033Y-39802769D02*
X125274366Y-39836103D01*
X125274366Y-39836103D02*
X125307700Y-39902769D01*
X125307700Y-39902769D02*
X125307700Y-40169436D01*
X125641033Y-39469436D02*
X124941033Y-39469436D01*
X124941033Y-39002770D02*
X124941033Y-38869436D01*
X124941033Y-38869436D02*
X124974366Y-38802770D01*
X124974366Y-38802770D02*
X125041033Y-38736103D01*
X125041033Y-38736103D02*
X125174366Y-38702770D01*
X125174366Y-38702770D02*
X125407700Y-38702770D01*
X125407700Y-38702770D02*
X125541033Y-38736103D01*
X125541033Y-38736103D02*
X125607700Y-38802770D01*
X125607700Y-38802770D02*
X125641033Y-38869436D01*
X125641033Y-38869436D02*
X125641033Y-39002770D01*
X125641033Y-39002770D02*
X125607700Y-39069436D01*
X125607700Y-39069436D02*
X125541033Y-39136103D01*
X125541033Y-39136103D02*
X125407700Y-39169436D01*
X125407700Y-39169436D02*
X125174366Y-39169436D01*
X125174366Y-39169436D02*
X125041033Y-39136103D01*
X125041033Y-39136103D02*
X124974366Y-39069436D01*
X124974366Y-39069436D02*
X124941033Y-39002770D01*
X124941033Y-38469437D02*
X124941033Y-38036103D01*
X124941033Y-38036103D02*
X125207700Y-38269437D01*
X125207700Y-38269437D02*
X125207700Y-38169437D01*
X125207700Y-38169437D02*
X125241033Y-38102770D01*
X125241033Y-38102770D02*
X125274366Y-38069437D01*
X125274366Y-38069437D02*
X125341033Y-38036103D01*
X125341033Y-38036103D02*
X125507700Y-38036103D01*
X125507700Y-38036103D02*
X125574366Y-38069437D01*
X125574366Y-38069437D02*
X125607700Y-38102770D01*
X125607700Y-38102770D02*
X125641033Y-38169437D01*
X125641033Y-38169437D02*
X125641033Y-38369437D01*
X125641033Y-38369437D02*
X125607700Y-38436103D01*
X125607700Y-38436103D02*
X125574366Y-38469437D01*
X124941033Y-37436103D02*
X124941033Y-37569436D01*
X124941033Y-37569436D02*
X124974366Y-37636103D01*
X124974366Y-37636103D02*
X125007700Y-37669436D01*
X125007700Y-37669436D02*
X125107700Y-37736103D01*
X125107700Y-37736103D02*
X125241033Y-37769436D01*
X125241033Y-37769436D02*
X125507700Y-37769436D01*
X125507700Y-37769436D02*
X125574366Y-37736103D01*
X125574366Y-37736103D02*
X125607700Y-37702770D01*
X125607700Y-37702770D02*
X125641033Y-37636103D01*
X125641033Y-37636103D02*
X125641033Y-37502770D01*
X125641033Y-37502770D02*
X125607700Y-37436103D01*
X125607700Y-37436103D02*
X125574366Y-37402770D01*
X125574366Y-37402770D02*
X125507700Y-37369436D01*
X125507700Y-37369436D02*
X125341033Y-37369436D01*
X125341033Y-37369436D02*
X125274366Y-37402770D01*
X125274366Y-37402770D02*
X125241033Y-37436103D01*
X125241033Y-37436103D02*
X125207700Y-37502770D01*
X125207700Y-37502770D02*
X125207700Y-37636103D01*
X125207700Y-37636103D02*
X125241033Y-37702770D01*
X125241033Y-37702770D02*
X125274366Y-37736103D01*
X125274366Y-37736103D02*
X125341033Y-37769436D01*
X127514366Y-56693470D02*
X127481033Y-56760137D01*
X127481033Y-56760137D02*
X127481033Y-56860137D01*
X127481033Y-56860137D02*
X127514366Y-56960137D01*
X127514366Y-56960137D02*
X127581033Y-57026804D01*
X127581033Y-57026804D02*
X127647700Y-57060137D01*
X127647700Y-57060137D02*
X127781033Y-57093470D01*
X127781033Y-57093470D02*
X127881033Y-57093470D01*
X127881033Y-57093470D02*
X128014366Y-57060137D01*
X128014366Y-57060137D02*
X128081033Y-57026804D01*
X128081033Y-57026804D02*
X128147700Y-56960137D01*
X128147700Y-56960137D02*
X128181033Y-56860137D01*
X128181033Y-56860137D02*
X128181033Y-56793470D01*
X128181033Y-56793470D02*
X128147700Y-56693470D01*
X128147700Y-56693470D02*
X128114366Y-56660137D01*
X128114366Y-56660137D02*
X127881033Y-56660137D01*
X127881033Y-56660137D02*
X127881033Y-56793470D01*
X128181033Y-56360137D02*
X127481033Y-56360137D01*
X127481033Y-56360137D02*
X127481033Y-56093470D01*
X127481033Y-56093470D02*
X127514366Y-56026804D01*
X127514366Y-56026804D02*
X127547700Y-55993470D01*
X127547700Y-55993470D02*
X127614366Y-55960137D01*
X127614366Y-55960137D02*
X127714366Y-55960137D01*
X127714366Y-55960137D02*
X127781033Y-55993470D01*
X127781033Y-55993470D02*
X127814366Y-56026804D01*
X127814366Y-56026804D02*
X127847700Y-56093470D01*
X127847700Y-56093470D02*
X127847700Y-56360137D01*
X128181033Y-55660137D02*
X127481033Y-55660137D01*
X127481033Y-55193471D02*
X127481033Y-55060137D01*
X127481033Y-55060137D02*
X127514366Y-54993471D01*
X127514366Y-54993471D02*
X127581033Y-54926804D01*
X127581033Y-54926804D02*
X127714366Y-54893471D01*
X127714366Y-54893471D02*
X127947700Y-54893471D01*
X127947700Y-54893471D02*
X128081033Y-54926804D01*
X128081033Y-54926804D02*
X128147700Y-54993471D01*
X128147700Y-54993471D02*
X128181033Y-55060137D01*
X128181033Y-55060137D02*
X128181033Y-55193471D01*
X128181033Y-55193471D02*
X128147700Y-55260137D01*
X128147700Y-55260137D02*
X128081033Y-55326804D01*
X128081033Y-55326804D02*
X127947700Y-55360137D01*
X127947700Y-55360137D02*
X127714366Y-55360137D01*
X127714366Y-55360137D02*
X127581033Y-55326804D01*
X127581033Y-55326804D02*
X127514366Y-55260137D01*
X127514366Y-55260137D02*
X127481033Y-55193471D01*
X127547700Y-54626804D02*
X127514366Y-54593471D01*
X127514366Y-54593471D02*
X127481033Y-54526804D01*
X127481033Y-54526804D02*
X127481033Y-54360138D01*
X127481033Y-54360138D02*
X127514366Y-54293471D01*
X127514366Y-54293471D02*
X127547700Y-54260138D01*
X127547700Y-54260138D02*
X127614366Y-54226804D01*
X127614366Y-54226804D02*
X127681033Y-54226804D01*
X127681033Y-54226804D02*
X127781033Y-54260138D01*
X127781033Y-54260138D02*
X128181033Y-54660138D01*
X128181033Y-54660138D02*
X128181033Y-54226804D01*
X127481033Y-53993471D02*
X127481033Y-53560137D01*
X127481033Y-53560137D02*
X127747700Y-53793471D01*
X127747700Y-53793471D02*
X127747700Y-53693471D01*
X127747700Y-53693471D02*
X127781033Y-53626804D01*
X127781033Y-53626804D02*
X127814366Y-53593471D01*
X127814366Y-53593471D02*
X127881033Y-53560137D01*
X127881033Y-53560137D02*
X128047700Y-53560137D01*
X128047700Y-53560137D02*
X128114366Y-53593471D01*
X128114366Y-53593471D02*
X128147700Y-53626804D01*
X128147700Y-53626804D02*
X128181033Y-53693471D01*
X128181033Y-53693471D02*
X128181033Y-53893471D01*
X128181033Y-53893471D02*
X128147700Y-53960137D01*
X128147700Y-53960137D02*
X128114366Y-53993471D01*
X109734366Y-42536102D02*
X109701033Y-42602769D01*
X109701033Y-42602769D02*
X109701033Y-42702769D01*
X109701033Y-42702769D02*
X109734366Y-42802769D01*
X109734366Y-42802769D02*
X109801033Y-42869436D01*
X109801033Y-42869436D02*
X109867700Y-42902769D01*
X109867700Y-42902769D02*
X110001033Y-42936102D01*
X110001033Y-42936102D02*
X110101033Y-42936102D01*
X110101033Y-42936102D02*
X110234366Y-42902769D01*
X110234366Y-42902769D02*
X110301033Y-42869436D01*
X110301033Y-42869436D02*
X110367700Y-42802769D01*
X110367700Y-42802769D02*
X110401033Y-42702769D01*
X110401033Y-42702769D02*
X110401033Y-42636102D01*
X110401033Y-42636102D02*
X110367700Y-42536102D01*
X110367700Y-42536102D02*
X110334366Y-42502769D01*
X110334366Y-42502769D02*
X110101033Y-42502769D01*
X110101033Y-42502769D02*
X110101033Y-42636102D01*
X110401033Y-42202769D02*
X109701033Y-42202769D01*
X109701033Y-42202769D02*
X109701033Y-41936102D01*
X109701033Y-41936102D02*
X109734366Y-41869436D01*
X109734366Y-41869436D02*
X109767700Y-41836102D01*
X109767700Y-41836102D02*
X109834366Y-41802769D01*
X109834366Y-41802769D02*
X109934366Y-41802769D01*
X109934366Y-41802769D02*
X110001033Y-41836102D01*
X110001033Y-41836102D02*
X110034366Y-41869436D01*
X110034366Y-41869436D02*
X110067700Y-41936102D01*
X110067700Y-41936102D02*
X110067700Y-42202769D01*
X110401033Y-41502769D02*
X109701033Y-41502769D01*
X109701033Y-41036103D02*
X109701033Y-40902769D01*
X109701033Y-40902769D02*
X109734366Y-40836103D01*
X109734366Y-40836103D02*
X109801033Y-40769436D01*
X109801033Y-40769436D02*
X109934366Y-40736103D01*
X109934366Y-40736103D02*
X110167700Y-40736103D01*
X110167700Y-40736103D02*
X110301033Y-40769436D01*
X110301033Y-40769436D02*
X110367700Y-40836103D01*
X110367700Y-40836103D02*
X110401033Y-40902769D01*
X110401033Y-40902769D02*
X110401033Y-41036103D01*
X110401033Y-41036103D02*
X110367700Y-41102769D01*
X110367700Y-41102769D02*
X110301033Y-41169436D01*
X110301033Y-41169436D02*
X110167700Y-41202769D01*
X110167700Y-41202769D02*
X109934366Y-41202769D01*
X109934366Y-41202769D02*
X109801033Y-41169436D01*
X109801033Y-41169436D02*
X109734366Y-41102769D01*
X109734366Y-41102769D02*
X109701033Y-41036103D01*
X109767700Y-40469436D02*
X109734366Y-40436103D01*
X109734366Y-40436103D02*
X109701033Y-40369436D01*
X109701033Y-40369436D02*
X109701033Y-40202770D01*
X109701033Y-40202770D02*
X109734366Y-40136103D01*
X109734366Y-40136103D02*
X109767700Y-40102770D01*
X109767700Y-40102770D02*
X109834366Y-40069436D01*
X109834366Y-40069436D02*
X109901033Y-40069436D01*
X109901033Y-40069436D02*
X110001033Y-40102770D01*
X110001033Y-40102770D02*
X110401033Y-40502770D01*
X110401033Y-40502770D02*
X110401033Y-40069436D01*
X109701033Y-39436103D02*
X109701033Y-39769436D01*
X109701033Y-39769436D02*
X110034366Y-39802769D01*
X110034366Y-39802769D02*
X110001033Y-39769436D01*
X110001033Y-39769436D02*
X109967700Y-39702769D01*
X109967700Y-39702769D02*
X109967700Y-39536103D01*
X109967700Y-39536103D02*
X110001033Y-39469436D01*
X110001033Y-39469436D02*
X110034366Y-39436103D01*
X110034366Y-39436103D02*
X110101033Y-39402769D01*
X110101033Y-39402769D02*
X110267700Y-39402769D01*
X110267700Y-39402769D02*
X110334366Y-39436103D01*
X110334366Y-39436103D02*
X110367700Y-39469436D01*
X110367700Y-39469436D02*
X110401033Y-39536103D01*
X110401033Y-39536103D02*
X110401033Y-39702769D01*
X110401033Y-39702769D02*
X110367700Y-39769436D01*
X110367700Y-39769436D02*
X110334366Y-39802769D01*
X117354366Y-59233470D02*
X117321033Y-59300137D01*
X117321033Y-59300137D02*
X117321033Y-59400137D01*
X117321033Y-59400137D02*
X117354366Y-59500137D01*
X117354366Y-59500137D02*
X117421033Y-59566804D01*
X117421033Y-59566804D02*
X117487700Y-59600137D01*
X117487700Y-59600137D02*
X117621033Y-59633470D01*
X117621033Y-59633470D02*
X117721033Y-59633470D01*
X117721033Y-59633470D02*
X117854366Y-59600137D01*
X117854366Y-59600137D02*
X117921033Y-59566804D01*
X117921033Y-59566804D02*
X117987700Y-59500137D01*
X117987700Y-59500137D02*
X118021033Y-59400137D01*
X118021033Y-59400137D02*
X118021033Y-59333470D01*
X118021033Y-59333470D02*
X117987700Y-59233470D01*
X117987700Y-59233470D02*
X117954366Y-59200137D01*
X117954366Y-59200137D02*
X117721033Y-59200137D01*
X117721033Y-59200137D02*
X117721033Y-59333470D01*
X118021033Y-58900137D02*
X117321033Y-58900137D01*
X117321033Y-58900137D02*
X117321033Y-58633470D01*
X117321033Y-58633470D02*
X117354366Y-58566804D01*
X117354366Y-58566804D02*
X117387700Y-58533470D01*
X117387700Y-58533470D02*
X117454366Y-58500137D01*
X117454366Y-58500137D02*
X117554366Y-58500137D01*
X117554366Y-58500137D02*
X117621033Y-58533470D01*
X117621033Y-58533470D02*
X117654366Y-58566804D01*
X117654366Y-58566804D02*
X117687700Y-58633470D01*
X117687700Y-58633470D02*
X117687700Y-58900137D01*
X118021033Y-58200137D02*
X117321033Y-58200137D01*
X117321033Y-57733471D02*
X117321033Y-57600137D01*
X117321033Y-57600137D02*
X117354366Y-57533471D01*
X117354366Y-57533471D02*
X117421033Y-57466804D01*
X117421033Y-57466804D02*
X117554366Y-57433471D01*
X117554366Y-57433471D02*
X117787700Y-57433471D01*
X117787700Y-57433471D02*
X117921033Y-57466804D01*
X117921033Y-57466804D02*
X117987700Y-57533471D01*
X117987700Y-57533471D02*
X118021033Y-57600137D01*
X118021033Y-57600137D02*
X118021033Y-57733471D01*
X118021033Y-57733471D02*
X117987700Y-57800137D01*
X117987700Y-57800137D02*
X117921033Y-57866804D01*
X117921033Y-57866804D02*
X117787700Y-57900137D01*
X117787700Y-57900137D02*
X117554366Y-57900137D01*
X117554366Y-57900137D02*
X117421033Y-57866804D01*
X117421033Y-57866804D02*
X117354366Y-57800137D01*
X117354366Y-57800137D02*
X117321033Y-57733471D01*
X117387700Y-57166804D02*
X117354366Y-57133471D01*
X117354366Y-57133471D02*
X117321033Y-57066804D01*
X117321033Y-57066804D02*
X117321033Y-56900138D01*
X117321033Y-56900138D02*
X117354366Y-56833471D01*
X117354366Y-56833471D02*
X117387700Y-56800138D01*
X117387700Y-56800138D02*
X117454366Y-56766804D01*
X117454366Y-56766804D02*
X117521033Y-56766804D01*
X117521033Y-56766804D02*
X117621033Y-56800138D01*
X117621033Y-56800138D02*
X118021033Y-57200138D01*
X118021033Y-57200138D02*
X118021033Y-56766804D01*
X118021033Y-56100137D02*
X118021033Y-56500137D01*
X118021033Y-56300137D02*
X117321033Y-56300137D01*
X117321033Y-56300137D02*
X117421033Y-56366804D01*
X117421033Y-56366804D02*
X117487700Y-56433471D01*
X117487700Y-56433471D02*
X117521033Y-56500137D01*
X114814366Y-59233470D02*
X114781033Y-59300137D01*
X114781033Y-59300137D02*
X114781033Y-59400137D01*
X114781033Y-59400137D02*
X114814366Y-59500137D01*
X114814366Y-59500137D02*
X114881033Y-59566804D01*
X114881033Y-59566804D02*
X114947700Y-59600137D01*
X114947700Y-59600137D02*
X115081033Y-59633470D01*
X115081033Y-59633470D02*
X115181033Y-59633470D01*
X115181033Y-59633470D02*
X115314366Y-59600137D01*
X115314366Y-59600137D02*
X115381033Y-59566804D01*
X115381033Y-59566804D02*
X115447700Y-59500137D01*
X115447700Y-59500137D02*
X115481033Y-59400137D01*
X115481033Y-59400137D02*
X115481033Y-59333470D01*
X115481033Y-59333470D02*
X115447700Y-59233470D01*
X115447700Y-59233470D02*
X115414366Y-59200137D01*
X115414366Y-59200137D02*
X115181033Y-59200137D01*
X115181033Y-59200137D02*
X115181033Y-59333470D01*
X115481033Y-58900137D02*
X114781033Y-58900137D01*
X114781033Y-58900137D02*
X114781033Y-58633470D01*
X114781033Y-58633470D02*
X114814366Y-58566804D01*
X114814366Y-58566804D02*
X114847700Y-58533470D01*
X114847700Y-58533470D02*
X114914366Y-58500137D01*
X114914366Y-58500137D02*
X115014366Y-58500137D01*
X115014366Y-58500137D02*
X115081033Y-58533470D01*
X115081033Y-58533470D02*
X115114366Y-58566804D01*
X115114366Y-58566804D02*
X115147700Y-58633470D01*
X115147700Y-58633470D02*
X115147700Y-58900137D01*
X115481033Y-58200137D02*
X114781033Y-58200137D01*
X114781033Y-57733471D02*
X114781033Y-57600137D01*
X114781033Y-57600137D02*
X114814366Y-57533471D01*
X114814366Y-57533471D02*
X114881033Y-57466804D01*
X114881033Y-57466804D02*
X115014366Y-57433471D01*
X115014366Y-57433471D02*
X115247700Y-57433471D01*
X115247700Y-57433471D02*
X115381033Y-57466804D01*
X115381033Y-57466804D02*
X115447700Y-57533471D01*
X115447700Y-57533471D02*
X115481033Y-57600137D01*
X115481033Y-57600137D02*
X115481033Y-57733471D01*
X115481033Y-57733471D02*
X115447700Y-57800137D01*
X115447700Y-57800137D02*
X115381033Y-57866804D01*
X115381033Y-57866804D02*
X115247700Y-57900137D01*
X115247700Y-57900137D02*
X115014366Y-57900137D01*
X115014366Y-57900137D02*
X114881033Y-57866804D01*
X114881033Y-57866804D02*
X114814366Y-57800137D01*
X114814366Y-57800137D02*
X114781033Y-57733471D01*
X115481033Y-56766804D02*
X115481033Y-57166804D01*
X115481033Y-56966804D02*
X114781033Y-56966804D01*
X114781033Y-56966804D02*
X114881033Y-57033471D01*
X114881033Y-57033471D02*
X114947700Y-57100138D01*
X114947700Y-57100138D02*
X114981033Y-57166804D01*
X115481033Y-56433471D02*
X115481033Y-56300137D01*
X115481033Y-56300137D02*
X115447700Y-56233471D01*
X115447700Y-56233471D02*
X115414366Y-56200137D01*
X115414366Y-56200137D02*
X115314366Y-56133471D01*
X115314366Y-56133471D02*
X115181033Y-56100137D01*
X115181033Y-56100137D02*
X114914366Y-56100137D01*
X114914366Y-56100137D02*
X114847700Y-56133471D01*
X114847700Y-56133471D02*
X114814366Y-56166804D01*
X114814366Y-56166804D02*
X114781033Y-56233471D01*
X114781033Y-56233471D02*
X114781033Y-56366804D01*
X114781033Y-56366804D02*
X114814366Y-56433471D01*
X114814366Y-56433471D02*
X114847700Y-56466804D01*
X114847700Y-56466804D02*
X114914366Y-56500137D01*
X114914366Y-56500137D02*
X115081033Y-56500137D01*
X115081033Y-56500137D02*
X115147700Y-56466804D01*
X115147700Y-56466804D02*
X115181033Y-56433471D01*
X115181033Y-56433471D02*
X115214366Y-56366804D01*
X115214366Y-56366804D02*
X115214366Y-56233471D01*
X115214366Y-56233471D02*
X115181033Y-56166804D01*
X115181033Y-56166804D02*
X115147700Y-56133471D01*
X115147700Y-56133471D02*
X115081033Y-56100137D01*
X107194366Y-42536102D02*
X107161033Y-42602769D01*
X107161033Y-42602769D02*
X107161033Y-42702769D01*
X107161033Y-42702769D02*
X107194366Y-42802769D01*
X107194366Y-42802769D02*
X107261033Y-42869436D01*
X107261033Y-42869436D02*
X107327700Y-42902769D01*
X107327700Y-42902769D02*
X107461033Y-42936102D01*
X107461033Y-42936102D02*
X107561033Y-42936102D01*
X107561033Y-42936102D02*
X107694366Y-42902769D01*
X107694366Y-42902769D02*
X107761033Y-42869436D01*
X107761033Y-42869436D02*
X107827700Y-42802769D01*
X107827700Y-42802769D02*
X107861033Y-42702769D01*
X107861033Y-42702769D02*
X107861033Y-42636102D01*
X107861033Y-42636102D02*
X107827700Y-42536102D01*
X107827700Y-42536102D02*
X107794366Y-42502769D01*
X107794366Y-42502769D02*
X107561033Y-42502769D01*
X107561033Y-42502769D02*
X107561033Y-42636102D01*
X107861033Y-42202769D02*
X107161033Y-42202769D01*
X107161033Y-42202769D02*
X107161033Y-41936102D01*
X107161033Y-41936102D02*
X107194366Y-41869436D01*
X107194366Y-41869436D02*
X107227700Y-41836102D01*
X107227700Y-41836102D02*
X107294366Y-41802769D01*
X107294366Y-41802769D02*
X107394366Y-41802769D01*
X107394366Y-41802769D02*
X107461033Y-41836102D01*
X107461033Y-41836102D02*
X107494366Y-41869436D01*
X107494366Y-41869436D02*
X107527700Y-41936102D01*
X107527700Y-41936102D02*
X107527700Y-42202769D01*
X107861033Y-41502769D02*
X107161033Y-41502769D01*
X107161033Y-41036103D02*
X107161033Y-40902769D01*
X107161033Y-40902769D02*
X107194366Y-40836103D01*
X107194366Y-40836103D02*
X107261033Y-40769436D01*
X107261033Y-40769436D02*
X107394366Y-40736103D01*
X107394366Y-40736103D02*
X107627700Y-40736103D01*
X107627700Y-40736103D02*
X107761033Y-40769436D01*
X107761033Y-40769436D02*
X107827700Y-40836103D01*
X107827700Y-40836103D02*
X107861033Y-40902769D01*
X107861033Y-40902769D02*
X107861033Y-41036103D01*
X107861033Y-41036103D02*
X107827700Y-41102769D01*
X107827700Y-41102769D02*
X107761033Y-41169436D01*
X107761033Y-41169436D02*
X107627700Y-41202769D01*
X107627700Y-41202769D02*
X107394366Y-41202769D01*
X107394366Y-41202769D02*
X107261033Y-41169436D01*
X107261033Y-41169436D02*
X107194366Y-41102769D01*
X107194366Y-41102769D02*
X107161033Y-41036103D01*
X107227700Y-40469436D02*
X107194366Y-40436103D01*
X107194366Y-40436103D02*
X107161033Y-40369436D01*
X107161033Y-40369436D02*
X107161033Y-40202770D01*
X107161033Y-40202770D02*
X107194366Y-40136103D01*
X107194366Y-40136103D02*
X107227700Y-40102770D01*
X107227700Y-40102770D02*
X107294366Y-40069436D01*
X107294366Y-40069436D02*
X107361033Y-40069436D01*
X107361033Y-40069436D02*
X107461033Y-40102770D01*
X107461033Y-40102770D02*
X107861033Y-40502770D01*
X107861033Y-40502770D02*
X107861033Y-40069436D01*
X107161033Y-39469436D02*
X107161033Y-39602769D01*
X107161033Y-39602769D02*
X107194366Y-39669436D01*
X107194366Y-39669436D02*
X107227700Y-39702769D01*
X107227700Y-39702769D02*
X107327700Y-39769436D01*
X107327700Y-39769436D02*
X107461033Y-39802769D01*
X107461033Y-39802769D02*
X107727700Y-39802769D01*
X107727700Y-39802769D02*
X107794366Y-39769436D01*
X107794366Y-39769436D02*
X107827700Y-39736103D01*
X107827700Y-39736103D02*
X107861033Y-39669436D01*
X107861033Y-39669436D02*
X107861033Y-39536103D01*
X107861033Y-39536103D02*
X107827700Y-39469436D01*
X107827700Y-39469436D02*
X107794366Y-39436103D01*
X107794366Y-39436103D02*
X107727700Y-39402769D01*
X107727700Y-39402769D02*
X107561033Y-39402769D01*
X107561033Y-39402769D02*
X107494366Y-39436103D01*
X107494366Y-39436103D02*
X107461033Y-39469436D01*
X107461033Y-39469436D02*
X107427700Y-39536103D01*
X107427700Y-39536103D02*
X107427700Y-39669436D01*
X107427700Y-39669436D02*
X107461033Y-39736103D01*
X107461033Y-39736103D02*
X107494366Y-39769436D01*
X107494366Y-39769436D02*
X107561033Y-39802769D01*
X109734366Y-58566803D02*
X109701033Y-58633470D01*
X109701033Y-58633470D02*
X109701033Y-58733470D01*
X109701033Y-58733470D02*
X109734366Y-58833470D01*
X109734366Y-58833470D02*
X109801033Y-58900137D01*
X109801033Y-58900137D02*
X109867700Y-58933470D01*
X109867700Y-58933470D02*
X110001033Y-58966803D01*
X110001033Y-58966803D02*
X110101033Y-58966803D01*
X110101033Y-58966803D02*
X110234366Y-58933470D01*
X110234366Y-58933470D02*
X110301033Y-58900137D01*
X110301033Y-58900137D02*
X110367700Y-58833470D01*
X110367700Y-58833470D02*
X110401033Y-58733470D01*
X110401033Y-58733470D02*
X110401033Y-58666803D01*
X110401033Y-58666803D02*
X110367700Y-58566803D01*
X110367700Y-58566803D02*
X110334366Y-58533470D01*
X110334366Y-58533470D02*
X110101033Y-58533470D01*
X110101033Y-58533470D02*
X110101033Y-58666803D01*
X110401033Y-58233470D02*
X109701033Y-58233470D01*
X109701033Y-58233470D02*
X109701033Y-57966803D01*
X109701033Y-57966803D02*
X109734366Y-57900137D01*
X109734366Y-57900137D02*
X109767700Y-57866803D01*
X109767700Y-57866803D02*
X109834366Y-57833470D01*
X109834366Y-57833470D02*
X109934366Y-57833470D01*
X109934366Y-57833470D02*
X110001033Y-57866803D01*
X110001033Y-57866803D02*
X110034366Y-57900137D01*
X110034366Y-57900137D02*
X110067700Y-57966803D01*
X110067700Y-57966803D02*
X110067700Y-58233470D01*
X110401033Y-57533470D02*
X109701033Y-57533470D01*
X109701033Y-57066804D02*
X109701033Y-56933470D01*
X109701033Y-56933470D02*
X109734366Y-56866804D01*
X109734366Y-56866804D02*
X109801033Y-56800137D01*
X109801033Y-56800137D02*
X109934366Y-56766804D01*
X109934366Y-56766804D02*
X110167700Y-56766804D01*
X110167700Y-56766804D02*
X110301033Y-56800137D01*
X110301033Y-56800137D02*
X110367700Y-56866804D01*
X110367700Y-56866804D02*
X110401033Y-56933470D01*
X110401033Y-56933470D02*
X110401033Y-57066804D01*
X110401033Y-57066804D02*
X110367700Y-57133470D01*
X110367700Y-57133470D02*
X110301033Y-57200137D01*
X110301033Y-57200137D02*
X110167700Y-57233470D01*
X110167700Y-57233470D02*
X109934366Y-57233470D01*
X109934366Y-57233470D02*
X109801033Y-57200137D01*
X109801033Y-57200137D02*
X109734366Y-57133470D01*
X109734366Y-57133470D02*
X109701033Y-57066804D01*
X109701033Y-56133471D02*
X109701033Y-56466804D01*
X109701033Y-56466804D02*
X110034366Y-56500137D01*
X110034366Y-56500137D02*
X110001033Y-56466804D01*
X110001033Y-56466804D02*
X109967700Y-56400137D01*
X109967700Y-56400137D02*
X109967700Y-56233471D01*
X109967700Y-56233471D02*
X110001033Y-56166804D01*
X110001033Y-56166804D02*
X110034366Y-56133471D01*
X110034366Y-56133471D02*
X110101033Y-56100137D01*
X110101033Y-56100137D02*
X110267700Y-56100137D01*
X110267700Y-56100137D02*
X110334366Y-56133471D01*
X110334366Y-56133471D02*
X110367700Y-56166804D01*
X110367700Y-56166804D02*
X110401033Y-56233471D01*
X110401033Y-56233471D02*
X110401033Y-56400137D01*
X110401033Y-56400137D02*
X110367700Y-56466804D01*
X110367700Y-56466804D02*
X110334366Y-56500137D01*
X124974366Y-56693470D02*
X124941033Y-56760137D01*
X124941033Y-56760137D02*
X124941033Y-56860137D01*
X124941033Y-56860137D02*
X124974366Y-56960137D01*
X124974366Y-56960137D02*
X125041033Y-57026804D01*
X125041033Y-57026804D02*
X125107700Y-57060137D01*
X125107700Y-57060137D02*
X125241033Y-57093470D01*
X125241033Y-57093470D02*
X125341033Y-57093470D01*
X125341033Y-57093470D02*
X125474366Y-57060137D01*
X125474366Y-57060137D02*
X125541033Y-57026804D01*
X125541033Y-57026804D02*
X125607700Y-56960137D01*
X125607700Y-56960137D02*
X125641033Y-56860137D01*
X125641033Y-56860137D02*
X125641033Y-56793470D01*
X125641033Y-56793470D02*
X125607700Y-56693470D01*
X125607700Y-56693470D02*
X125574366Y-56660137D01*
X125574366Y-56660137D02*
X125341033Y-56660137D01*
X125341033Y-56660137D02*
X125341033Y-56793470D01*
X125641033Y-56360137D02*
X124941033Y-56360137D01*
X124941033Y-56360137D02*
X124941033Y-56093470D01*
X124941033Y-56093470D02*
X124974366Y-56026804D01*
X124974366Y-56026804D02*
X125007700Y-55993470D01*
X125007700Y-55993470D02*
X125074366Y-55960137D01*
X125074366Y-55960137D02*
X125174366Y-55960137D01*
X125174366Y-55960137D02*
X125241033Y-55993470D01*
X125241033Y-55993470D02*
X125274366Y-56026804D01*
X125274366Y-56026804D02*
X125307700Y-56093470D01*
X125307700Y-56093470D02*
X125307700Y-56360137D01*
X125641033Y-55660137D02*
X124941033Y-55660137D01*
X124941033Y-55193471D02*
X124941033Y-55060137D01*
X124941033Y-55060137D02*
X124974366Y-54993471D01*
X124974366Y-54993471D02*
X125041033Y-54926804D01*
X125041033Y-54926804D02*
X125174366Y-54893471D01*
X125174366Y-54893471D02*
X125407700Y-54893471D01*
X125407700Y-54893471D02*
X125541033Y-54926804D01*
X125541033Y-54926804D02*
X125607700Y-54993471D01*
X125607700Y-54993471D02*
X125641033Y-55060137D01*
X125641033Y-55060137D02*
X125641033Y-55193471D01*
X125641033Y-55193471D02*
X125607700Y-55260137D01*
X125607700Y-55260137D02*
X125541033Y-55326804D01*
X125541033Y-55326804D02*
X125407700Y-55360137D01*
X125407700Y-55360137D02*
X125174366Y-55360137D01*
X125174366Y-55360137D02*
X125041033Y-55326804D01*
X125041033Y-55326804D02*
X124974366Y-55260137D01*
X124974366Y-55260137D02*
X124941033Y-55193471D01*
X125007700Y-54626804D02*
X124974366Y-54593471D01*
X124974366Y-54593471D02*
X124941033Y-54526804D01*
X124941033Y-54526804D02*
X124941033Y-54360138D01*
X124941033Y-54360138D02*
X124974366Y-54293471D01*
X124974366Y-54293471D02*
X125007700Y-54260138D01*
X125007700Y-54260138D02*
X125074366Y-54226804D01*
X125074366Y-54226804D02*
X125141033Y-54226804D01*
X125141033Y-54226804D02*
X125241033Y-54260138D01*
X125241033Y-54260138D02*
X125641033Y-54660138D01*
X125641033Y-54660138D02*
X125641033Y-54226804D01*
X125007700Y-53960137D02*
X124974366Y-53926804D01*
X124974366Y-53926804D02*
X124941033Y-53860137D01*
X124941033Y-53860137D02*
X124941033Y-53693471D01*
X124941033Y-53693471D02*
X124974366Y-53626804D01*
X124974366Y-53626804D02*
X125007700Y-53593471D01*
X125007700Y-53593471D02*
X125074366Y-53560137D01*
X125074366Y-53560137D02*
X125141033Y-53560137D01*
X125141033Y-53560137D02*
X125241033Y-53593471D01*
X125241033Y-53593471D02*
X125641033Y-53993471D01*
X125641033Y-53993471D02*
X125641033Y-53560137D01*
X117354366Y-42536102D02*
X117321033Y-42602769D01*
X117321033Y-42602769D02*
X117321033Y-42702769D01*
X117321033Y-42702769D02*
X117354366Y-42802769D01*
X117354366Y-42802769D02*
X117421033Y-42869436D01*
X117421033Y-42869436D02*
X117487700Y-42902769D01*
X117487700Y-42902769D02*
X117621033Y-42936102D01*
X117621033Y-42936102D02*
X117721033Y-42936102D01*
X117721033Y-42936102D02*
X117854366Y-42902769D01*
X117854366Y-42902769D02*
X117921033Y-42869436D01*
X117921033Y-42869436D02*
X117987700Y-42802769D01*
X117987700Y-42802769D02*
X118021033Y-42702769D01*
X118021033Y-42702769D02*
X118021033Y-42636102D01*
X118021033Y-42636102D02*
X117987700Y-42536102D01*
X117987700Y-42536102D02*
X117954366Y-42502769D01*
X117954366Y-42502769D02*
X117721033Y-42502769D01*
X117721033Y-42502769D02*
X117721033Y-42636102D01*
X118021033Y-42202769D02*
X117321033Y-42202769D01*
X117321033Y-42202769D02*
X117321033Y-41936102D01*
X117321033Y-41936102D02*
X117354366Y-41869436D01*
X117354366Y-41869436D02*
X117387700Y-41836102D01*
X117387700Y-41836102D02*
X117454366Y-41802769D01*
X117454366Y-41802769D02*
X117554366Y-41802769D01*
X117554366Y-41802769D02*
X117621033Y-41836102D01*
X117621033Y-41836102D02*
X117654366Y-41869436D01*
X117654366Y-41869436D02*
X117687700Y-41936102D01*
X117687700Y-41936102D02*
X117687700Y-42202769D01*
X118021033Y-41502769D02*
X117321033Y-41502769D01*
X117321033Y-41036103D02*
X117321033Y-40902769D01*
X117321033Y-40902769D02*
X117354366Y-40836103D01*
X117354366Y-40836103D02*
X117421033Y-40769436D01*
X117421033Y-40769436D02*
X117554366Y-40736103D01*
X117554366Y-40736103D02*
X117787700Y-40736103D01*
X117787700Y-40736103D02*
X117921033Y-40769436D01*
X117921033Y-40769436D02*
X117987700Y-40836103D01*
X117987700Y-40836103D02*
X118021033Y-40902769D01*
X118021033Y-40902769D02*
X118021033Y-41036103D01*
X118021033Y-41036103D02*
X117987700Y-41102769D01*
X117987700Y-41102769D02*
X117921033Y-41169436D01*
X117921033Y-41169436D02*
X117787700Y-41202769D01*
X117787700Y-41202769D02*
X117554366Y-41202769D01*
X117554366Y-41202769D02*
X117421033Y-41169436D01*
X117421033Y-41169436D02*
X117354366Y-41102769D01*
X117354366Y-41102769D02*
X117321033Y-41036103D01*
X117321033Y-40502770D02*
X117321033Y-40069436D01*
X117321033Y-40069436D02*
X117587700Y-40302770D01*
X117587700Y-40302770D02*
X117587700Y-40202770D01*
X117587700Y-40202770D02*
X117621033Y-40136103D01*
X117621033Y-40136103D02*
X117654366Y-40102770D01*
X117654366Y-40102770D02*
X117721033Y-40069436D01*
X117721033Y-40069436D02*
X117887700Y-40069436D01*
X117887700Y-40069436D02*
X117954366Y-40102770D01*
X117954366Y-40102770D02*
X117987700Y-40136103D01*
X117987700Y-40136103D02*
X118021033Y-40202770D01*
X118021033Y-40202770D02*
X118021033Y-40402770D01*
X118021033Y-40402770D02*
X117987700Y-40469436D01*
X117987700Y-40469436D02*
X117954366Y-40502770D01*
X117321033Y-39436103D02*
X117321033Y-39769436D01*
X117321033Y-39769436D02*
X117654366Y-39802769D01*
X117654366Y-39802769D02*
X117621033Y-39769436D01*
X117621033Y-39769436D02*
X117587700Y-39702769D01*
X117587700Y-39702769D02*
X117587700Y-39536103D01*
X117587700Y-39536103D02*
X117621033Y-39469436D01*
X117621033Y-39469436D02*
X117654366Y-39436103D01*
X117654366Y-39436103D02*
X117721033Y-39402769D01*
X117721033Y-39402769D02*
X117887700Y-39402769D01*
X117887700Y-39402769D02*
X117954366Y-39436103D01*
X117954366Y-39436103D02*
X117987700Y-39469436D01*
X117987700Y-39469436D02*
X118021033Y-39536103D01*
X118021033Y-39536103D02*
X118021033Y-39702769D01*
X118021033Y-39702769D02*
X117987700Y-39769436D01*
X117987700Y-39769436D02*
X117954366Y-39802769D01*
X94347438Y-39202518D02*
X94299819Y-39297756D01*
X94299819Y-39297756D02*
X94299819Y-39440613D01*
X94299819Y-39440613D02*
X94347438Y-39583470D01*
X94347438Y-39583470D02*
X94442676Y-39678708D01*
X94442676Y-39678708D02*
X94537914Y-39726327D01*
X94537914Y-39726327D02*
X94728390Y-39773946D01*
X94728390Y-39773946D02*
X94871247Y-39773946D01*
X94871247Y-39773946D02*
X95061723Y-39726327D01*
X95061723Y-39726327D02*
X95156961Y-39678708D01*
X95156961Y-39678708D02*
X95252200Y-39583470D01*
X95252200Y-39583470D02*
X95299819Y-39440613D01*
X95299819Y-39440613D02*
X95299819Y-39345375D01*
X95299819Y-39345375D02*
X95252200Y-39202518D01*
X95252200Y-39202518D02*
X95204580Y-39154899D01*
X95204580Y-39154899D02*
X94871247Y-39154899D01*
X94871247Y-39154899D02*
X94871247Y-39345375D01*
X95299819Y-38726327D02*
X94299819Y-38726327D01*
X94299819Y-38726327D02*
X95299819Y-38154899D01*
X95299819Y-38154899D02*
X94299819Y-38154899D01*
X95299819Y-37678708D02*
X94299819Y-37678708D01*
X94299819Y-37678708D02*
X94299819Y-37440613D01*
X94299819Y-37440613D02*
X94347438Y-37297756D01*
X94347438Y-37297756D02*
X94442676Y-37202518D01*
X94442676Y-37202518D02*
X94537914Y-37154899D01*
X94537914Y-37154899D02*
X94728390Y-37107280D01*
X94728390Y-37107280D02*
X94871247Y-37107280D01*
X94871247Y-37107280D02*
X95061723Y-37154899D01*
X95061723Y-37154899D02*
X95156961Y-37202518D01*
X95156961Y-37202518D02*
X95252200Y-37297756D01*
X95252200Y-37297756D02*
X95299819Y-37440613D01*
X95299819Y-37440613D02*
X95299819Y-37678708D01*
X102114366Y-45076102D02*
X102081033Y-45142769D01*
X102081033Y-45142769D02*
X102081033Y-45242769D01*
X102081033Y-45242769D02*
X102114366Y-45342769D01*
X102114366Y-45342769D02*
X102181033Y-45409436D01*
X102181033Y-45409436D02*
X102247700Y-45442769D01*
X102247700Y-45442769D02*
X102381033Y-45476102D01*
X102381033Y-45476102D02*
X102481033Y-45476102D01*
X102481033Y-45476102D02*
X102614366Y-45442769D01*
X102614366Y-45442769D02*
X102681033Y-45409436D01*
X102681033Y-45409436D02*
X102747700Y-45342769D01*
X102747700Y-45342769D02*
X102781033Y-45242769D01*
X102781033Y-45242769D02*
X102781033Y-45176102D01*
X102781033Y-45176102D02*
X102747700Y-45076102D01*
X102747700Y-45076102D02*
X102714366Y-45042769D01*
X102714366Y-45042769D02*
X102481033Y-45042769D01*
X102481033Y-45042769D02*
X102481033Y-45176102D01*
X102781033Y-44742769D02*
X102081033Y-44742769D01*
X102081033Y-44742769D02*
X102081033Y-44476102D01*
X102081033Y-44476102D02*
X102114366Y-44409436D01*
X102114366Y-44409436D02*
X102147700Y-44376102D01*
X102147700Y-44376102D02*
X102214366Y-44342769D01*
X102214366Y-44342769D02*
X102314366Y-44342769D01*
X102314366Y-44342769D02*
X102381033Y-44376102D01*
X102381033Y-44376102D02*
X102414366Y-44409436D01*
X102414366Y-44409436D02*
X102447700Y-44476102D01*
X102447700Y-44476102D02*
X102447700Y-44742769D01*
X102781033Y-44042769D02*
X102081033Y-44042769D01*
X102081033Y-43576103D02*
X102081033Y-43442769D01*
X102081033Y-43442769D02*
X102114366Y-43376103D01*
X102114366Y-43376103D02*
X102181033Y-43309436D01*
X102181033Y-43309436D02*
X102314366Y-43276103D01*
X102314366Y-43276103D02*
X102547700Y-43276103D01*
X102547700Y-43276103D02*
X102681033Y-43309436D01*
X102681033Y-43309436D02*
X102747700Y-43376103D01*
X102747700Y-43376103D02*
X102781033Y-43442769D01*
X102781033Y-43442769D02*
X102781033Y-43576103D01*
X102781033Y-43576103D02*
X102747700Y-43642769D01*
X102747700Y-43642769D02*
X102681033Y-43709436D01*
X102681033Y-43709436D02*
X102547700Y-43742769D01*
X102547700Y-43742769D02*
X102314366Y-43742769D01*
X102314366Y-43742769D02*
X102181033Y-43709436D01*
X102181033Y-43709436D02*
X102114366Y-43642769D01*
X102114366Y-43642769D02*
X102081033Y-43576103D01*
X102781033Y-42609436D02*
X102781033Y-43009436D01*
X102781033Y-42809436D02*
X102081033Y-42809436D01*
X102081033Y-42809436D02*
X102181033Y-42876103D01*
X102181033Y-42876103D02*
X102247700Y-42942770D01*
X102247700Y-42942770D02*
X102281033Y-43009436D01*
X102314366Y-42009436D02*
X102781033Y-42009436D01*
X102047700Y-42176103D02*
X102547700Y-42342769D01*
X102547700Y-42342769D02*
X102547700Y-41909436D01*
X102047700Y-41142769D02*
X102947700Y-41742769D01*
X102781033Y-40909436D02*
X102081033Y-40909436D01*
X102081033Y-40909436D02*
X102581033Y-40676103D01*
X102581033Y-40676103D02*
X102081033Y-40442769D01*
X102081033Y-40442769D02*
X102781033Y-40442769D01*
X102081033Y-40209436D02*
X102081033Y-39809436D01*
X102781033Y-40009436D02*
X102081033Y-40009436D01*
X102781033Y-39576103D02*
X102081033Y-39576103D01*
X102081033Y-39576103D02*
X102581033Y-39342770D01*
X102581033Y-39342770D02*
X102081033Y-39109436D01*
X102081033Y-39109436D02*
X102781033Y-39109436D01*
X102747700Y-38809436D02*
X102781033Y-38709436D01*
X102781033Y-38709436D02*
X102781033Y-38542770D01*
X102781033Y-38542770D02*
X102747700Y-38476103D01*
X102747700Y-38476103D02*
X102714366Y-38442770D01*
X102714366Y-38442770D02*
X102647700Y-38409436D01*
X102647700Y-38409436D02*
X102581033Y-38409436D01*
X102581033Y-38409436D02*
X102514366Y-38442770D01*
X102514366Y-38442770D02*
X102481033Y-38476103D01*
X102481033Y-38476103D02*
X102447700Y-38542770D01*
X102447700Y-38542770D02*
X102414366Y-38676103D01*
X102414366Y-38676103D02*
X102381033Y-38742770D01*
X102381033Y-38742770D02*
X102347700Y-38776103D01*
X102347700Y-38776103D02*
X102281033Y-38809436D01*
X102281033Y-38809436D02*
X102214366Y-38809436D01*
X102214366Y-38809436D02*
X102147700Y-38776103D01*
X102147700Y-38776103D02*
X102114366Y-38742770D01*
X102114366Y-38742770D02*
X102081033Y-38676103D01*
X102081033Y-38676103D02*
X102081033Y-38509436D01*
X102081033Y-38509436D02*
X102114366Y-38409436D01*
X107194366Y-59233470D02*
X107161033Y-59300137D01*
X107161033Y-59300137D02*
X107161033Y-59400137D01*
X107161033Y-59400137D02*
X107194366Y-59500137D01*
X107194366Y-59500137D02*
X107261033Y-59566804D01*
X107261033Y-59566804D02*
X107327700Y-59600137D01*
X107327700Y-59600137D02*
X107461033Y-59633470D01*
X107461033Y-59633470D02*
X107561033Y-59633470D01*
X107561033Y-59633470D02*
X107694366Y-59600137D01*
X107694366Y-59600137D02*
X107761033Y-59566804D01*
X107761033Y-59566804D02*
X107827700Y-59500137D01*
X107827700Y-59500137D02*
X107861033Y-59400137D01*
X107861033Y-59400137D02*
X107861033Y-59333470D01*
X107861033Y-59333470D02*
X107827700Y-59233470D01*
X107827700Y-59233470D02*
X107794366Y-59200137D01*
X107794366Y-59200137D02*
X107561033Y-59200137D01*
X107561033Y-59200137D02*
X107561033Y-59333470D01*
X107861033Y-58900137D02*
X107161033Y-58900137D01*
X107161033Y-58900137D02*
X107161033Y-58633470D01*
X107161033Y-58633470D02*
X107194366Y-58566804D01*
X107194366Y-58566804D02*
X107227700Y-58533470D01*
X107227700Y-58533470D02*
X107294366Y-58500137D01*
X107294366Y-58500137D02*
X107394366Y-58500137D01*
X107394366Y-58500137D02*
X107461033Y-58533470D01*
X107461033Y-58533470D02*
X107494366Y-58566804D01*
X107494366Y-58566804D02*
X107527700Y-58633470D01*
X107527700Y-58633470D02*
X107527700Y-58900137D01*
X107861033Y-58200137D02*
X107161033Y-58200137D01*
X107161033Y-57733471D02*
X107161033Y-57600137D01*
X107161033Y-57600137D02*
X107194366Y-57533471D01*
X107194366Y-57533471D02*
X107261033Y-57466804D01*
X107261033Y-57466804D02*
X107394366Y-57433471D01*
X107394366Y-57433471D02*
X107627700Y-57433471D01*
X107627700Y-57433471D02*
X107761033Y-57466804D01*
X107761033Y-57466804D02*
X107827700Y-57533471D01*
X107827700Y-57533471D02*
X107861033Y-57600137D01*
X107861033Y-57600137D02*
X107861033Y-57733471D01*
X107861033Y-57733471D02*
X107827700Y-57800137D01*
X107827700Y-57800137D02*
X107761033Y-57866804D01*
X107761033Y-57866804D02*
X107627700Y-57900137D01*
X107627700Y-57900137D02*
X107394366Y-57900137D01*
X107394366Y-57900137D02*
X107261033Y-57866804D01*
X107261033Y-57866804D02*
X107194366Y-57800137D01*
X107194366Y-57800137D02*
X107161033Y-57733471D01*
X107861033Y-56766804D02*
X107861033Y-57166804D01*
X107861033Y-56966804D02*
X107161033Y-56966804D01*
X107161033Y-56966804D02*
X107261033Y-57033471D01*
X107261033Y-57033471D02*
X107327700Y-57100138D01*
X107327700Y-57100138D02*
X107361033Y-57166804D01*
X107161033Y-56533471D02*
X107161033Y-56066804D01*
X107161033Y-56066804D02*
X107861033Y-56366804D01*
X122401033Y-43002769D02*
X123101033Y-42769436D01*
X123101033Y-42769436D02*
X122401033Y-42536102D01*
X123101033Y-42302769D02*
X122401033Y-42302769D01*
X122401033Y-42302769D02*
X123101033Y-41902769D01*
X123101033Y-41902769D02*
X122401033Y-41902769D01*
X122367700Y-41069436D02*
X123267700Y-41669436D01*
X122434366Y-40469436D02*
X122401033Y-40536103D01*
X122401033Y-40536103D02*
X122401033Y-40636103D01*
X122401033Y-40636103D02*
X122434366Y-40736103D01*
X122434366Y-40736103D02*
X122501033Y-40802770D01*
X122501033Y-40802770D02*
X122567700Y-40836103D01*
X122567700Y-40836103D02*
X122701033Y-40869436D01*
X122701033Y-40869436D02*
X122801033Y-40869436D01*
X122801033Y-40869436D02*
X122934366Y-40836103D01*
X122934366Y-40836103D02*
X123001033Y-40802770D01*
X123001033Y-40802770D02*
X123067700Y-40736103D01*
X123067700Y-40736103D02*
X123101033Y-40636103D01*
X123101033Y-40636103D02*
X123101033Y-40569436D01*
X123101033Y-40569436D02*
X123067700Y-40469436D01*
X123067700Y-40469436D02*
X123034366Y-40436103D01*
X123034366Y-40436103D02*
X122801033Y-40436103D01*
X122801033Y-40436103D02*
X122801033Y-40569436D01*
X123101033Y-40136103D02*
X122401033Y-40136103D01*
X122401033Y-40136103D02*
X122401033Y-39869436D01*
X122401033Y-39869436D02*
X122434366Y-39802770D01*
X122434366Y-39802770D02*
X122467700Y-39769436D01*
X122467700Y-39769436D02*
X122534366Y-39736103D01*
X122534366Y-39736103D02*
X122634366Y-39736103D01*
X122634366Y-39736103D02*
X122701033Y-39769436D01*
X122701033Y-39769436D02*
X122734366Y-39802770D01*
X122734366Y-39802770D02*
X122767700Y-39869436D01*
X122767700Y-39869436D02*
X122767700Y-40136103D01*
X123101033Y-39436103D02*
X122401033Y-39436103D01*
X122401033Y-38969437D02*
X122401033Y-38836103D01*
X122401033Y-38836103D02*
X122434366Y-38769437D01*
X122434366Y-38769437D02*
X122501033Y-38702770D01*
X122501033Y-38702770D02*
X122634366Y-38669437D01*
X122634366Y-38669437D02*
X122867700Y-38669437D01*
X122867700Y-38669437D02*
X123001033Y-38702770D01*
X123001033Y-38702770D02*
X123067700Y-38769437D01*
X123067700Y-38769437D02*
X123101033Y-38836103D01*
X123101033Y-38836103D02*
X123101033Y-38969437D01*
X123101033Y-38969437D02*
X123067700Y-39036103D01*
X123067700Y-39036103D02*
X123001033Y-39102770D01*
X123001033Y-39102770D02*
X122867700Y-39136103D01*
X122867700Y-39136103D02*
X122634366Y-39136103D01*
X122634366Y-39136103D02*
X122501033Y-39102770D01*
X122501033Y-39102770D02*
X122434366Y-39036103D01*
X122434366Y-39036103D02*
X122401033Y-38969437D01*
X122401033Y-38436104D02*
X122401033Y-38002770D01*
X122401033Y-38002770D02*
X122667700Y-38236104D01*
X122667700Y-38236104D02*
X122667700Y-38136104D01*
X122667700Y-38136104D02*
X122701033Y-38069437D01*
X122701033Y-38069437D02*
X122734366Y-38036104D01*
X122734366Y-38036104D02*
X122801033Y-38002770D01*
X122801033Y-38002770D02*
X122967700Y-38002770D01*
X122967700Y-38002770D02*
X123034366Y-38036104D01*
X123034366Y-38036104D02*
X123067700Y-38069437D01*
X123067700Y-38069437D02*
X123101033Y-38136104D01*
X123101033Y-38136104D02*
X123101033Y-38336104D01*
X123101033Y-38336104D02*
X123067700Y-38402770D01*
X123067700Y-38402770D02*
X123034366Y-38436104D01*
X123101033Y-37669437D02*
X123101033Y-37536103D01*
X123101033Y-37536103D02*
X123067700Y-37469437D01*
X123067700Y-37469437D02*
X123034366Y-37436103D01*
X123034366Y-37436103D02*
X122934366Y-37369437D01*
X122934366Y-37369437D02*
X122801033Y-37336103D01*
X122801033Y-37336103D02*
X122534366Y-37336103D01*
X122534366Y-37336103D02*
X122467700Y-37369437D01*
X122467700Y-37369437D02*
X122434366Y-37402770D01*
X122434366Y-37402770D02*
X122401033Y-37469437D01*
X122401033Y-37469437D02*
X122401033Y-37602770D01*
X122401033Y-37602770D02*
X122434366Y-37669437D01*
X122434366Y-37669437D02*
X122467700Y-37702770D01*
X122467700Y-37702770D02*
X122534366Y-37736103D01*
X122534366Y-37736103D02*
X122701033Y-37736103D01*
X122701033Y-37736103D02*
X122767700Y-37702770D01*
X122767700Y-37702770D02*
X122801033Y-37669437D01*
X122801033Y-37669437D02*
X122834366Y-37602770D01*
X122834366Y-37602770D02*
X122834366Y-37469437D01*
X122834366Y-37469437D02*
X122801033Y-37402770D01*
X122801033Y-37402770D02*
X122767700Y-37369437D01*
X122767700Y-37369437D02*
X122701033Y-37336103D01*
X122434366Y-57686803D02*
X122401033Y-57753470D01*
X122401033Y-57753470D02*
X122401033Y-57853470D01*
X122401033Y-57853470D02*
X122434366Y-57953470D01*
X122434366Y-57953470D02*
X122501033Y-58020137D01*
X122501033Y-58020137D02*
X122567700Y-58053470D01*
X122567700Y-58053470D02*
X122701033Y-58086803D01*
X122701033Y-58086803D02*
X122801033Y-58086803D01*
X122801033Y-58086803D02*
X122934366Y-58053470D01*
X122934366Y-58053470D02*
X123001033Y-58020137D01*
X123001033Y-58020137D02*
X123067700Y-57953470D01*
X123067700Y-57953470D02*
X123101033Y-57853470D01*
X123101033Y-57853470D02*
X123101033Y-57786803D01*
X123101033Y-57786803D02*
X123067700Y-57686803D01*
X123067700Y-57686803D02*
X123034366Y-57653470D01*
X123034366Y-57653470D02*
X122801033Y-57653470D01*
X122801033Y-57653470D02*
X122801033Y-57786803D01*
X123101033Y-57353470D02*
X122401033Y-57353470D01*
X122401033Y-57353470D02*
X122401033Y-57086803D01*
X122401033Y-57086803D02*
X122434366Y-57020137D01*
X122434366Y-57020137D02*
X122467700Y-56986803D01*
X122467700Y-56986803D02*
X122534366Y-56953470D01*
X122534366Y-56953470D02*
X122634366Y-56953470D01*
X122634366Y-56953470D02*
X122701033Y-56986803D01*
X122701033Y-56986803D02*
X122734366Y-57020137D01*
X122734366Y-57020137D02*
X122767700Y-57086803D01*
X122767700Y-57086803D02*
X122767700Y-57353470D01*
X123101033Y-56653470D02*
X122401033Y-56653470D01*
X122401033Y-56186804D02*
X122401033Y-56053470D01*
X122401033Y-56053470D02*
X122434366Y-55986804D01*
X122434366Y-55986804D02*
X122501033Y-55920137D01*
X122501033Y-55920137D02*
X122634366Y-55886804D01*
X122634366Y-55886804D02*
X122867700Y-55886804D01*
X122867700Y-55886804D02*
X123001033Y-55920137D01*
X123001033Y-55920137D02*
X123067700Y-55986804D01*
X123067700Y-55986804D02*
X123101033Y-56053470D01*
X123101033Y-56053470D02*
X123101033Y-56186804D01*
X123101033Y-56186804D02*
X123067700Y-56253470D01*
X123067700Y-56253470D02*
X123001033Y-56320137D01*
X123001033Y-56320137D02*
X122867700Y-56353470D01*
X122867700Y-56353470D02*
X122634366Y-56353470D01*
X122634366Y-56353470D02*
X122501033Y-56320137D01*
X122501033Y-56320137D02*
X122434366Y-56253470D01*
X122434366Y-56253470D02*
X122401033Y-56186804D01*
X122401033Y-55653471D02*
X122401033Y-55220137D01*
X122401033Y-55220137D02*
X122667700Y-55453471D01*
X122667700Y-55453471D02*
X122667700Y-55353471D01*
X122667700Y-55353471D02*
X122701033Y-55286804D01*
X122701033Y-55286804D02*
X122734366Y-55253471D01*
X122734366Y-55253471D02*
X122801033Y-55220137D01*
X122801033Y-55220137D02*
X122967700Y-55220137D01*
X122967700Y-55220137D02*
X123034366Y-55253471D01*
X123034366Y-55253471D02*
X123067700Y-55286804D01*
X123067700Y-55286804D02*
X123101033Y-55353471D01*
X123101033Y-55353471D02*
X123101033Y-55553471D01*
X123101033Y-55553471D02*
X123067700Y-55620137D01*
X123067700Y-55620137D02*
X123034366Y-55653471D01*
X122367700Y-54420137D02*
X123267700Y-55020137D01*
X122401033Y-54186804D02*
X122967700Y-54186804D01*
X122967700Y-54186804D02*
X123034366Y-54153471D01*
X123034366Y-54153471D02*
X123067700Y-54120137D01*
X123067700Y-54120137D02*
X123101033Y-54053471D01*
X123101033Y-54053471D02*
X123101033Y-53920137D01*
X123101033Y-53920137D02*
X123067700Y-53853471D01*
X123067700Y-53853471D02*
X123034366Y-53820137D01*
X123034366Y-53820137D02*
X122967700Y-53786804D01*
X122967700Y-53786804D02*
X122401033Y-53786804D01*
X122401033Y-53320138D02*
X122401033Y-53253471D01*
X122401033Y-53253471D02*
X122434366Y-53186804D01*
X122434366Y-53186804D02*
X122467700Y-53153471D01*
X122467700Y-53153471D02*
X122534366Y-53120138D01*
X122534366Y-53120138D02*
X122667700Y-53086804D01*
X122667700Y-53086804D02*
X122834366Y-53086804D01*
X122834366Y-53086804D02*
X122967700Y-53120138D01*
X122967700Y-53120138D02*
X123034366Y-53153471D01*
X123034366Y-53153471D02*
X123067700Y-53186804D01*
X123067700Y-53186804D02*
X123101033Y-53253471D01*
X123101033Y-53253471D02*
X123101033Y-53320138D01*
X123101033Y-53320138D02*
X123067700Y-53386804D01*
X123067700Y-53386804D02*
X123034366Y-53420138D01*
X123034366Y-53420138D02*
X122967700Y-53453471D01*
X122967700Y-53453471D02*
X122834366Y-53486804D01*
X122834366Y-53486804D02*
X122667700Y-53486804D01*
X122667700Y-53486804D02*
X122534366Y-53453471D01*
X122534366Y-53453471D02*
X122467700Y-53420138D01*
X122467700Y-53420138D02*
X122434366Y-53386804D01*
X122434366Y-53386804D02*
X122401033Y-53320138D01*
X123101033Y-52386804D02*
X122767700Y-52620137D01*
X123101033Y-52786804D02*
X122401033Y-52786804D01*
X122401033Y-52786804D02*
X122401033Y-52520137D01*
X122401033Y-52520137D02*
X122434366Y-52453471D01*
X122434366Y-52453471D02*
X122467700Y-52420137D01*
X122467700Y-52420137D02*
X122534366Y-52386804D01*
X122534366Y-52386804D02*
X122634366Y-52386804D01*
X122634366Y-52386804D02*
X122701033Y-52420137D01*
X122701033Y-52420137D02*
X122734366Y-52453471D01*
X122734366Y-52453471D02*
X122767700Y-52520137D01*
X122767700Y-52520137D02*
X122767700Y-52786804D01*
X122401033Y-52153471D02*
X123101033Y-51686804D01*
X122401033Y-51686804D02*
X123101033Y-52153471D01*
X123101033Y-51420137D02*
X122401033Y-51420137D01*
X122401033Y-51420137D02*
X122401033Y-51253470D01*
X122401033Y-51253470D02*
X122434366Y-51153470D01*
X122434366Y-51153470D02*
X122501033Y-51086804D01*
X122501033Y-51086804D02*
X122567700Y-51053470D01*
X122567700Y-51053470D02*
X122701033Y-51020137D01*
X122701033Y-51020137D02*
X122801033Y-51020137D01*
X122801033Y-51020137D02*
X122934366Y-51053470D01*
X122934366Y-51053470D02*
X123001033Y-51086804D01*
X123001033Y-51086804D02*
X123067700Y-51153470D01*
X123067700Y-51153470D02*
X123101033Y-51253470D01*
X123101033Y-51253470D02*
X123101033Y-51420137D01*
X100241033Y-58142769D02*
X99541033Y-58142769D01*
X99541033Y-58142769D02*
X99541033Y-57976102D01*
X99541033Y-57976102D02*
X99574366Y-57876102D01*
X99574366Y-57876102D02*
X99641033Y-57809436D01*
X99641033Y-57809436D02*
X99707700Y-57776102D01*
X99707700Y-57776102D02*
X99841033Y-57742769D01*
X99841033Y-57742769D02*
X99941033Y-57742769D01*
X99941033Y-57742769D02*
X100074366Y-57776102D01*
X100074366Y-57776102D02*
X100141033Y-57809436D01*
X100141033Y-57809436D02*
X100207700Y-57876102D01*
X100207700Y-57876102D02*
X100241033Y-57976102D01*
X100241033Y-57976102D02*
X100241033Y-58142769D01*
X99607700Y-57476102D02*
X99574366Y-57442769D01*
X99574366Y-57442769D02*
X99541033Y-57376102D01*
X99541033Y-57376102D02*
X99541033Y-57209436D01*
X99541033Y-57209436D02*
X99574366Y-57142769D01*
X99574366Y-57142769D02*
X99607700Y-57109436D01*
X99607700Y-57109436D02*
X99674366Y-57076102D01*
X99674366Y-57076102D02*
X99741033Y-57076102D01*
X99741033Y-57076102D02*
X99841033Y-57109436D01*
X99841033Y-57109436D02*
X100241033Y-57509436D01*
X100241033Y-57509436D02*
X100241033Y-57076102D01*
X97034366Y-57653469D02*
X97001033Y-57720136D01*
X97001033Y-57720136D02*
X97001033Y-57820136D01*
X97001033Y-57820136D02*
X97034366Y-57920136D01*
X97034366Y-57920136D02*
X97101033Y-57986803D01*
X97101033Y-57986803D02*
X97167700Y-58020136D01*
X97167700Y-58020136D02*
X97301033Y-58053469D01*
X97301033Y-58053469D02*
X97401033Y-58053469D01*
X97401033Y-58053469D02*
X97534366Y-58020136D01*
X97534366Y-58020136D02*
X97601033Y-57986803D01*
X97601033Y-57986803D02*
X97667700Y-57920136D01*
X97667700Y-57920136D02*
X97701033Y-57820136D01*
X97701033Y-57820136D02*
X97701033Y-57753469D01*
X97701033Y-57753469D02*
X97667700Y-57653469D01*
X97667700Y-57653469D02*
X97634366Y-57620136D01*
X97634366Y-57620136D02*
X97401033Y-57620136D01*
X97401033Y-57620136D02*
X97401033Y-57753469D01*
X97701033Y-57320136D02*
X97001033Y-57320136D01*
X97001033Y-57320136D02*
X97001033Y-57053469D01*
X97001033Y-57053469D02*
X97034366Y-56986803D01*
X97034366Y-56986803D02*
X97067700Y-56953469D01*
X97067700Y-56953469D02*
X97134366Y-56920136D01*
X97134366Y-56920136D02*
X97234366Y-56920136D01*
X97234366Y-56920136D02*
X97301033Y-56953469D01*
X97301033Y-56953469D02*
X97334366Y-56986803D01*
X97334366Y-56986803D02*
X97367700Y-57053469D01*
X97367700Y-57053469D02*
X97367700Y-57320136D01*
X97701033Y-56620136D02*
X97001033Y-56620136D01*
X97001033Y-56153470D02*
X97001033Y-56020136D01*
X97001033Y-56020136D02*
X97034366Y-55953470D01*
X97034366Y-55953470D02*
X97101033Y-55886803D01*
X97101033Y-55886803D02*
X97234366Y-55853470D01*
X97234366Y-55853470D02*
X97467700Y-55853470D01*
X97467700Y-55853470D02*
X97601033Y-55886803D01*
X97601033Y-55886803D02*
X97667700Y-55953470D01*
X97667700Y-55953470D02*
X97701033Y-56020136D01*
X97701033Y-56020136D02*
X97701033Y-56153470D01*
X97701033Y-56153470D02*
X97667700Y-56220136D01*
X97667700Y-56220136D02*
X97601033Y-56286803D01*
X97601033Y-56286803D02*
X97467700Y-56320136D01*
X97467700Y-56320136D02*
X97234366Y-56320136D01*
X97234366Y-56320136D02*
X97101033Y-56286803D01*
X97101033Y-56286803D02*
X97034366Y-56220136D01*
X97034366Y-56220136D02*
X97001033Y-56153470D01*
X97701033Y-55186803D02*
X97701033Y-55586803D01*
X97701033Y-55386803D02*
X97001033Y-55386803D01*
X97001033Y-55386803D02*
X97101033Y-55453470D01*
X97101033Y-55453470D02*
X97167700Y-55520137D01*
X97167700Y-55520137D02*
X97201033Y-55586803D01*
X97001033Y-54553470D02*
X97001033Y-54886803D01*
X97001033Y-54886803D02*
X97334366Y-54920136D01*
X97334366Y-54920136D02*
X97301033Y-54886803D01*
X97301033Y-54886803D02*
X97267700Y-54820136D01*
X97267700Y-54820136D02*
X97267700Y-54653470D01*
X97267700Y-54653470D02*
X97301033Y-54586803D01*
X97301033Y-54586803D02*
X97334366Y-54553470D01*
X97334366Y-54553470D02*
X97401033Y-54520136D01*
X97401033Y-54520136D02*
X97567700Y-54520136D01*
X97567700Y-54520136D02*
X97634366Y-54553470D01*
X97634366Y-54553470D02*
X97667700Y-54586803D01*
X97667700Y-54586803D02*
X97701033Y-54653470D01*
X97701033Y-54653470D02*
X97701033Y-54820136D01*
X97701033Y-54820136D02*
X97667700Y-54886803D01*
X97667700Y-54886803D02*
X97634366Y-54920136D01*
X96967700Y-53720136D02*
X97867700Y-54320136D01*
X97701033Y-53486803D02*
X97001033Y-53486803D01*
X97001033Y-53486803D02*
X97501033Y-53253470D01*
X97501033Y-53253470D02*
X97001033Y-53020136D01*
X97001033Y-53020136D02*
X97701033Y-53020136D01*
X97001033Y-52786803D02*
X97001033Y-52386803D01*
X97701033Y-52586803D02*
X97001033Y-52586803D01*
X97701033Y-52153470D02*
X97001033Y-52153470D01*
X97001033Y-52153470D02*
X97001033Y-51986803D01*
X97001033Y-51986803D02*
X97034366Y-51886803D01*
X97034366Y-51886803D02*
X97101033Y-51820137D01*
X97101033Y-51820137D02*
X97167700Y-51786803D01*
X97167700Y-51786803D02*
X97301033Y-51753470D01*
X97301033Y-51753470D02*
X97401033Y-51753470D01*
X97401033Y-51753470D02*
X97534366Y-51786803D01*
X97534366Y-51786803D02*
X97601033Y-51820137D01*
X97601033Y-51820137D02*
X97667700Y-51886803D01*
X97667700Y-51886803D02*
X97701033Y-51986803D01*
X97701033Y-51986803D02*
X97701033Y-52153470D01*
X97001033Y-51320137D02*
X97001033Y-51186803D01*
X97001033Y-51186803D02*
X97034366Y-51120137D01*
X97034366Y-51120137D02*
X97101033Y-51053470D01*
X97101033Y-51053470D02*
X97234366Y-51020137D01*
X97234366Y-51020137D02*
X97467700Y-51020137D01*
X97467700Y-51020137D02*
X97601033Y-51053470D01*
X97601033Y-51053470D02*
X97667700Y-51120137D01*
X97667700Y-51120137D02*
X97701033Y-51186803D01*
X97701033Y-51186803D02*
X97701033Y-51320137D01*
X97701033Y-51320137D02*
X97667700Y-51386803D01*
X97667700Y-51386803D02*
X97601033Y-51453470D01*
X97601033Y-51453470D02*
X97467700Y-51486803D01*
X97467700Y-51486803D02*
X97234366Y-51486803D01*
X97234366Y-51486803D02*
X97101033Y-51453470D01*
X97101033Y-51453470D02*
X97034366Y-51386803D01*
X97034366Y-51386803D02*
X97001033Y-51320137D01*
X104654366Y-42536102D02*
X104621033Y-42602769D01*
X104621033Y-42602769D02*
X104621033Y-42702769D01*
X104621033Y-42702769D02*
X104654366Y-42802769D01*
X104654366Y-42802769D02*
X104721033Y-42869436D01*
X104721033Y-42869436D02*
X104787700Y-42902769D01*
X104787700Y-42902769D02*
X104921033Y-42936102D01*
X104921033Y-42936102D02*
X105021033Y-42936102D01*
X105021033Y-42936102D02*
X105154366Y-42902769D01*
X105154366Y-42902769D02*
X105221033Y-42869436D01*
X105221033Y-42869436D02*
X105287700Y-42802769D01*
X105287700Y-42802769D02*
X105321033Y-42702769D01*
X105321033Y-42702769D02*
X105321033Y-42636102D01*
X105321033Y-42636102D02*
X105287700Y-42536102D01*
X105287700Y-42536102D02*
X105254366Y-42502769D01*
X105254366Y-42502769D02*
X105021033Y-42502769D01*
X105021033Y-42502769D02*
X105021033Y-42636102D01*
X105321033Y-42202769D02*
X104621033Y-42202769D01*
X104621033Y-42202769D02*
X104621033Y-41936102D01*
X104621033Y-41936102D02*
X104654366Y-41869436D01*
X104654366Y-41869436D02*
X104687700Y-41836102D01*
X104687700Y-41836102D02*
X104754366Y-41802769D01*
X104754366Y-41802769D02*
X104854366Y-41802769D01*
X104854366Y-41802769D02*
X104921033Y-41836102D01*
X104921033Y-41836102D02*
X104954366Y-41869436D01*
X104954366Y-41869436D02*
X104987700Y-41936102D01*
X104987700Y-41936102D02*
X104987700Y-42202769D01*
X105321033Y-41502769D02*
X104621033Y-41502769D01*
X104621033Y-41036103D02*
X104621033Y-40902769D01*
X104621033Y-40902769D02*
X104654366Y-40836103D01*
X104654366Y-40836103D02*
X104721033Y-40769436D01*
X104721033Y-40769436D02*
X104854366Y-40736103D01*
X104854366Y-40736103D02*
X105087700Y-40736103D01*
X105087700Y-40736103D02*
X105221033Y-40769436D01*
X105221033Y-40769436D02*
X105287700Y-40836103D01*
X105287700Y-40836103D02*
X105321033Y-40902769D01*
X105321033Y-40902769D02*
X105321033Y-41036103D01*
X105321033Y-41036103D02*
X105287700Y-41102769D01*
X105287700Y-41102769D02*
X105221033Y-41169436D01*
X105221033Y-41169436D02*
X105087700Y-41202769D01*
X105087700Y-41202769D02*
X104854366Y-41202769D01*
X104854366Y-41202769D02*
X104721033Y-41169436D01*
X104721033Y-41169436D02*
X104654366Y-41102769D01*
X104654366Y-41102769D02*
X104621033Y-41036103D01*
X104687700Y-40469436D02*
X104654366Y-40436103D01*
X104654366Y-40436103D02*
X104621033Y-40369436D01*
X104621033Y-40369436D02*
X104621033Y-40202770D01*
X104621033Y-40202770D02*
X104654366Y-40136103D01*
X104654366Y-40136103D02*
X104687700Y-40102770D01*
X104687700Y-40102770D02*
X104754366Y-40069436D01*
X104754366Y-40069436D02*
X104821033Y-40069436D01*
X104821033Y-40069436D02*
X104921033Y-40102770D01*
X104921033Y-40102770D02*
X105321033Y-40502770D01*
X105321033Y-40502770D02*
X105321033Y-40069436D01*
X104621033Y-39836103D02*
X104621033Y-39369436D01*
X104621033Y-39369436D02*
X105321033Y-39669436D01*
X99574366Y-45076102D02*
X99541033Y-45142769D01*
X99541033Y-45142769D02*
X99541033Y-45242769D01*
X99541033Y-45242769D02*
X99574366Y-45342769D01*
X99574366Y-45342769D02*
X99641033Y-45409436D01*
X99641033Y-45409436D02*
X99707700Y-45442769D01*
X99707700Y-45442769D02*
X99841033Y-45476102D01*
X99841033Y-45476102D02*
X99941033Y-45476102D01*
X99941033Y-45476102D02*
X100074366Y-45442769D01*
X100074366Y-45442769D02*
X100141033Y-45409436D01*
X100141033Y-45409436D02*
X100207700Y-45342769D01*
X100207700Y-45342769D02*
X100241033Y-45242769D01*
X100241033Y-45242769D02*
X100241033Y-45176102D01*
X100241033Y-45176102D02*
X100207700Y-45076102D01*
X100207700Y-45076102D02*
X100174366Y-45042769D01*
X100174366Y-45042769D02*
X99941033Y-45042769D01*
X99941033Y-45042769D02*
X99941033Y-45176102D01*
X100241033Y-44742769D02*
X99541033Y-44742769D01*
X99541033Y-44742769D02*
X99541033Y-44476102D01*
X99541033Y-44476102D02*
X99574366Y-44409436D01*
X99574366Y-44409436D02*
X99607700Y-44376102D01*
X99607700Y-44376102D02*
X99674366Y-44342769D01*
X99674366Y-44342769D02*
X99774366Y-44342769D01*
X99774366Y-44342769D02*
X99841033Y-44376102D01*
X99841033Y-44376102D02*
X99874366Y-44409436D01*
X99874366Y-44409436D02*
X99907700Y-44476102D01*
X99907700Y-44476102D02*
X99907700Y-44742769D01*
X100241033Y-44042769D02*
X99541033Y-44042769D01*
X99541033Y-43576103D02*
X99541033Y-43442769D01*
X99541033Y-43442769D02*
X99574366Y-43376103D01*
X99574366Y-43376103D02*
X99641033Y-43309436D01*
X99641033Y-43309436D02*
X99774366Y-43276103D01*
X99774366Y-43276103D02*
X100007700Y-43276103D01*
X100007700Y-43276103D02*
X100141033Y-43309436D01*
X100141033Y-43309436D02*
X100207700Y-43376103D01*
X100207700Y-43376103D02*
X100241033Y-43442769D01*
X100241033Y-43442769D02*
X100241033Y-43576103D01*
X100241033Y-43576103D02*
X100207700Y-43642769D01*
X100207700Y-43642769D02*
X100141033Y-43709436D01*
X100141033Y-43709436D02*
X100007700Y-43742769D01*
X100007700Y-43742769D02*
X99774366Y-43742769D01*
X99774366Y-43742769D02*
X99641033Y-43709436D01*
X99641033Y-43709436D02*
X99574366Y-43642769D01*
X99574366Y-43642769D02*
X99541033Y-43576103D01*
X100241033Y-42609436D02*
X100241033Y-43009436D01*
X100241033Y-42809436D02*
X99541033Y-42809436D01*
X99541033Y-42809436D02*
X99641033Y-42876103D01*
X99641033Y-42876103D02*
X99707700Y-42942770D01*
X99707700Y-42942770D02*
X99741033Y-43009436D01*
X99607700Y-42342769D02*
X99574366Y-42309436D01*
X99574366Y-42309436D02*
X99541033Y-42242769D01*
X99541033Y-42242769D02*
X99541033Y-42076103D01*
X99541033Y-42076103D02*
X99574366Y-42009436D01*
X99574366Y-42009436D02*
X99607700Y-41976103D01*
X99607700Y-41976103D02*
X99674366Y-41942769D01*
X99674366Y-41942769D02*
X99741033Y-41942769D01*
X99741033Y-41942769D02*
X99841033Y-41976103D01*
X99841033Y-41976103D02*
X100241033Y-42376103D01*
X100241033Y-42376103D02*
X100241033Y-41942769D01*
X99507700Y-41142769D02*
X100407700Y-41742769D01*
X100241033Y-40909436D02*
X99541033Y-40909436D01*
X99541033Y-40909436D02*
X100041033Y-40676103D01*
X100041033Y-40676103D02*
X99541033Y-40442769D01*
X99541033Y-40442769D02*
X100241033Y-40442769D01*
X99541033Y-40209436D02*
X99541033Y-39809436D01*
X100241033Y-40009436D02*
X99541033Y-40009436D01*
X100241033Y-39576103D02*
X99541033Y-39576103D01*
X99541033Y-39576103D02*
X99541033Y-39409436D01*
X99541033Y-39409436D02*
X99574366Y-39309436D01*
X99574366Y-39309436D02*
X99641033Y-39242770D01*
X99641033Y-39242770D02*
X99707700Y-39209436D01*
X99707700Y-39209436D02*
X99841033Y-39176103D01*
X99841033Y-39176103D02*
X99941033Y-39176103D01*
X99941033Y-39176103D02*
X100074366Y-39209436D01*
X100074366Y-39209436D02*
X100141033Y-39242770D01*
X100141033Y-39242770D02*
X100207700Y-39309436D01*
X100207700Y-39309436D02*
X100241033Y-39409436D01*
X100241033Y-39409436D02*
X100241033Y-39576103D01*
X100241033Y-38876103D02*
X99541033Y-38876103D01*
X114814366Y-42536102D02*
X114781033Y-42602769D01*
X114781033Y-42602769D02*
X114781033Y-42702769D01*
X114781033Y-42702769D02*
X114814366Y-42802769D01*
X114814366Y-42802769D02*
X114881033Y-42869436D01*
X114881033Y-42869436D02*
X114947700Y-42902769D01*
X114947700Y-42902769D02*
X115081033Y-42936102D01*
X115081033Y-42936102D02*
X115181033Y-42936102D01*
X115181033Y-42936102D02*
X115314366Y-42902769D01*
X115314366Y-42902769D02*
X115381033Y-42869436D01*
X115381033Y-42869436D02*
X115447700Y-42802769D01*
X115447700Y-42802769D02*
X115481033Y-42702769D01*
X115481033Y-42702769D02*
X115481033Y-42636102D01*
X115481033Y-42636102D02*
X115447700Y-42536102D01*
X115447700Y-42536102D02*
X115414366Y-42502769D01*
X115414366Y-42502769D02*
X115181033Y-42502769D01*
X115181033Y-42502769D02*
X115181033Y-42636102D01*
X115481033Y-42202769D02*
X114781033Y-42202769D01*
X114781033Y-42202769D02*
X114781033Y-41936102D01*
X114781033Y-41936102D02*
X114814366Y-41869436D01*
X114814366Y-41869436D02*
X114847700Y-41836102D01*
X114847700Y-41836102D02*
X114914366Y-41802769D01*
X114914366Y-41802769D02*
X115014366Y-41802769D01*
X115014366Y-41802769D02*
X115081033Y-41836102D01*
X115081033Y-41836102D02*
X115114366Y-41869436D01*
X115114366Y-41869436D02*
X115147700Y-41936102D01*
X115147700Y-41936102D02*
X115147700Y-42202769D01*
X115481033Y-41502769D02*
X114781033Y-41502769D01*
X114781033Y-41036103D02*
X114781033Y-40902769D01*
X114781033Y-40902769D02*
X114814366Y-40836103D01*
X114814366Y-40836103D02*
X114881033Y-40769436D01*
X114881033Y-40769436D02*
X115014366Y-40736103D01*
X115014366Y-40736103D02*
X115247700Y-40736103D01*
X115247700Y-40736103D02*
X115381033Y-40769436D01*
X115381033Y-40769436D02*
X115447700Y-40836103D01*
X115447700Y-40836103D02*
X115481033Y-40902769D01*
X115481033Y-40902769D02*
X115481033Y-41036103D01*
X115481033Y-41036103D02*
X115447700Y-41102769D01*
X115447700Y-41102769D02*
X115381033Y-41169436D01*
X115381033Y-41169436D02*
X115247700Y-41202769D01*
X115247700Y-41202769D02*
X115014366Y-41202769D01*
X115014366Y-41202769D02*
X114881033Y-41169436D01*
X114881033Y-41169436D02*
X114814366Y-41102769D01*
X114814366Y-41102769D02*
X114781033Y-41036103D01*
X114781033Y-40502770D02*
X114781033Y-40069436D01*
X114781033Y-40069436D02*
X115047700Y-40302770D01*
X115047700Y-40302770D02*
X115047700Y-40202770D01*
X115047700Y-40202770D02*
X115081033Y-40136103D01*
X115081033Y-40136103D02*
X115114366Y-40102770D01*
X115114366Y-40102770D02*
X115181033Y-40069436D01*
X115181033Y-40069436D02*
X115347700Y-40069436D01*
X115347700Y-40069436D02*
X115414366Y-40102770D01*
X115414366Y-40102770D02*
X115447700Y-40136103D01*
X115447700Y-40136103D02*
X115481033Y-40202770D01*
X115481033Y-40202770D02*
X115481033Y-40402770D01*
X115481033Y-40402770D02*
X115447700Y-40469436D01*
X115447700Y-40469436D02*
X115414366Y-40502770D01*
X114847700Y-39802769D02*
X114814366Y-39769436D01*
X114814366Y-39769436D02*
X114781033Y-39702769D01*
X114781033Y-39702769D02*
X114781033Y-39536103D01*
X114781033Y-39536103D02*
X114814366Y-39469436D01*
X114814366Y-39469436D02*
X114847700Y-39436103D01*
X114847700Y-39436103D02*
X114914366Y-39402769D01*
X114914366Y-39402769D02*
X114981033Y-39402769D01*
X114981033Y-39402769D02*
X115081033Y-39436103D01*
X115081033Y-39436103D02*
X115481033Y-39836103D01*
X115481033Y-39836103D02*
X115481033Y-39402769D01*
X90004819Y-68333333D02*
X90719104Y-68333333D01*
X90719104Y-68333333D02*
X90861961Y-68380952D01*
X90861961Y-68380952D02*
X90957200Y-68476190D01*
X90957200Y-68476190D02*
X91004819Y-68619047D01*
X91004819Y-68619047D02*
X91004819Y-68714285D01*
X91004819Y-67333333D02*
X91004819Y-67904761D01*
X91004819Y-67619047D02*
X90004819Y-67619047D01*
X90004819Y-67619047D02*
X90147676Y-67714285D01*
X90147676Y-67714285D02*
X90242914Y-67809523D01*
X90242914Y-67809523D02*
X90290533Y-67904761D01*
X142857142Y-32584819D02*
X142523809Y-32108628D01*
X142285714Y-32584819D02*
X142285714Y-31584819D01*
X142285714Y-31584819D02*
X142666666Y-31584819D01*
X142666666Y-31584819D02*
X142761904Y-31632438D01*
X142761904Y-31632438D02*
X142809523Y-31680057D01*
X142809523Y-31680057D02*
X142857142Y-31775295D01*
X142857142Y-31775295D02*
X142857142Y-31918152D01*
X142857142Y-31918152D02*
X142809523Y-32013390D01*
X142809523Y-32013390D02*
X142761904Y-32061009D01*
X142761904Y-32061009D02*
X142666666Y-32108628D01*
X142666666Y-32108628D02*
X142285714Y-32108628D01*
X143190476Y-31584819D02*
X143809523Y-31584819D01*
X143809523Y-31584819D02*
X143476190Y-31965771D01*
X143476190Y-31965771D02*
X143619047Y-31965771D01*
X143619047Y-31965771D02*
X143714285Y-32013390D01*
X143714285Y-32013390D02*
X143761904Y-32061009D01*
X143761904Y-32061009D02*
X143809523Y-32156247D01*
X143809523Y-32156247D02*
X143809523Y-32394342D01*
X143809523Y-32394342D02*
X143761904Y-32489580D01*
X143761904Y-32489580D02*
X143714285Y-32537200D01*
X143714285Y-32537200D02*
X143619047Y-32584819D01*
X143619047Y-32584819D02*
X143333333Y-32584819D01*
X143333333Y-32584819D02*
X143238095Y-32537200D01*
X143238095Y-32537200D02*
X143190476Y-32489580D01*
X144666666Y-31584819D02*
X144476190Y-31584819D01*
X144476190Y-31584819D02*
X144380952Y-31632438D01*
X144380952Y-31632438D02*
X144333333Y-31680057D01*
X144333333Y-31680057D02*
X144238095Y-31822914D01*
X144238095Y-31822914D02*
X144190476Y-32013390D01*
X144190476Y-32013390D02*
X144190476Y-32394342D01*
X144190476Y-32394342D02*
X144238095Y-32489580D01*
X144238095Y-32489580D02*
X144285714Y-32537200D01*
X144285714Y-32537200D02*
X144380952Y-32584819D01*
X144380952Y-32584819D02*
X144571428Y-32584819D01*
X144571428Y-32584819D02*
X144666666Y-32537200D01*
X144666666Y-32537200D02*
X144714285Y-32489580D01*
X144714285Y-32489580D02*
X144761904Y-32394342D01*
X144761904Y-32394342D02*
X144761904Y-32156247D01*
X144761904Y-32156247D02*
X144714285Y-32061009D01*
X144714285Y-32061009D02*
X144666666Y-32013390D01*
X144666666Y-32013390D02*
X144571428Y-31965771D01*
X144571428Y-31965771D02*
X144380952Y-31965771D01*
X144380952Y-31965771D02*
X144285714Y-32013390D01*
X144285714Y-32013390D02*
X144238095Y-32061009D01*
X144238095Y-32061009D02*
X144190476Y-32156247D01*
X140124819Y-57833333D02*
X140839104Y-57833333D01*
X140839104Y-57833333D02*
X140981961Y-57880952D01*
X140981961Y-57880952D02*
X141077200Y-57976190D01*
X141077200Y-57976190D02*
X141124819Y-58119047D01*
X141124819Y-58119047D02*
X141124819Y-58214285D01*
X140124819Y-57452380D02*
X140124819Y-56833333D01*
X140124819Y-56833333D02*
X140505771Y-57166666D01*
X140505771Y-57166666D02*
X140505771Y-57023809D01*
X140505771Y-57023809D02*
X140553390Y-56928571D01*
X140553390Y-56928571D02*
X140601009Y-56880952D01*
X140601009Y-56880952D02*
X140696247Y-56833333D01*
X140696247Y-56833333D02*
X140934342Y-56833333D01*
X140934342Y-56833333D02*
X141029580Y-56880952D01*
X141029580Y-56880952D02*
X141077200Y-56928571D01*
X141077200Y-56928571D02*
X141124819Y-57023809D01*
X141124819Y-57023809D02*
X141124819Y-57309523D01*
X141124819Y-57309523D02*
X141077200Y-57404761D01*
X141077200Y-57404761D02*
X141029580Y-57452380D01*
X142857142Y-28084819D02*
X142523809Y-27608628D01*
X142285714Y-28084819D02*
X142285714Y-27084819D01*
X142285714Y-27084819D02*
X142666666Y-27084819D01*
X142666666Y-27084819D02*
X142761904Y-27132438D01*
X142761904Y-27132438D02*
X142809523Y-27180057D01*
X142809523Y-27180057D02*
X142857142Y-27275295D01*
X142857142Y-27275295D02*
X142857142Y-27418152D01*
X142857142Y-27418152D02*
X142809523Y-27513390D01*
X142809523Y-27513390D02*
X142761904Y-27561009D01*
X142761904Y-27561009D02*
X142666666Y-27608628D01*
X142666666Y-27608628D02*
X142285714Y-27608628D01*
X143190476Y-27084819D02*
X143809523Y-27084819D01*
X143809523Y-27084819D02*
X143476190Y-27465771D01*
X143476190Y-27465771D02*
X143619047Y-27465771D01*
X143619047Y-27465771D02*
X143714285Y-27513390D01*
X143714285Y-27513390D02*
X143761904Y-27561009D01*
X143761904Y-27561009D02*
X143809523Y-27656247D01*
X143809523Y-27656247D02*
X143809523Y-27894342D01*
X143809523Y-27894342D02*
X143761904Y-27989580D01*
X143761904Y-27989580D02*
X143714285Y-28037200D01*
X143714285Y-28037200D02*
X143619047Y-28084819D01*
X143619047Y-28084819D02*
X143333333Y-28084819D01*
X143333333Y-28084819D02*
X143238095Y-28037200D01*
X143238095Y-28037200D02*
X143190476Y-27989580D01*
X144285714Y-28084819D02*
X144476190Y-28084819D01*
X144476190Y-28084819D02*
X144571428Y-28037200D01*
X144571428Y-28037200D02*
X144619047Y-27989580D01*
X144619047Y-27989580D02*
X144714285Y-27846723D01*
X144714285Y-27846723D02*
X144761904Y-27656247D01*
X144761904Y-27656247D02*
X144761904Y-27275295D01*
X144761904Y-27275295D02*
X144714285Y-27180057D01*
X144714285Y-27180057D02*
X144666666Y-27132438D01*
X144666666Y-27132438D02*
X144571428Y-27084819D01*
X144571428Y-27084819D02*
X144380952Y-27084819D01*
X144380952Y-27084819D02*
X144285714Y-27132438D01*
X144285714Y-27132438D02*
X144238095Y-27180057D01*
X144238095Y-27180057D02*
X144190476Y-27275295D01*
X144190476Y-27275295D02*
X144190476Y-27513390D01*
X144190476Y-27513390D02*
X144238095Y-27608628D01*
X144238095Y-27608628D02*
X144285714Y-27656247D01*
X144285714Y-27656247D02*
X144380952Y-27703866D01*
X144380952Y-27703866D02*
X144571428Y-27703866D01*
X144571428Y-27703866D02*
X144666666Y-27656247D01*
X144666666Y-27656247D02*
X144714285Y-27608628D01*
X144714285Y-27608628D02*
X144761904Y-27513390D01*
X138004819Y-39333333D02*
X138719104Y-39333333D01*
X138719104Y-39333333D02*
X138861961Y-39380952D01*
X138861961Y-39380952D02*
X138957200Y-39476190D01*
X138957200Y-39476190D02*
X139004819Y-39619047D01*
X139004819Y-39619047D02*
X139004819Y-39714285D01*
X138004819Y-38428571D02*
X138004819Y-38619047D01*
X138004819Y-38619047D02*
X138052438Y-38714285D01*
X138052438Y-38714285D02*
X138100057Y-38761904D01*
X138100057Y-38761904D02*
X138242914Y-38857142D01*
X138242914Y-38857142D02*
X138433390Y-38904761D01*
X138433390Y-38904761D02*
X138814342Y-38904761D01*
X138814342Y-38904761D02*
X138909580Y-38857142D01*
X138909580Y-38857142D02*
X138957200Y-38809523D01*
X138957200Y-38809523D02*
X139004819Y-38714285D01*
X139004819Y-38714285D02*
X139004819Y-38523809D01*
X139004819Y-38523809D02*
X138957200Y-38428571D01*
X138957200Y-38428571D02*
X138909580Y-38380952D01*
X138909580Y-38380952D02*
X138814342Y-38333333D01*
X138814342Y-38333333D02*
X138576247Y-38333333D01*
X138576247Y-38333333D02*
X138481009Y-38380952D01*
X138481009Y-38380952D02*
X138433390Y-38428571D01*
X138433390Y-38428571D02*
X138385771Y-38523809D01*
X138385771Y-38523809D02*
X138385771Y-38714285D01*
X138385771Y-38714285D02*
X138433390Y-38809523D01*
X138433390Y-38809523D02*
X138481009Y-38857142D01*
X138481009Y-38857142D02*
X138576247Y-38904761D01*
X109357142Y-27584819D02*
X109023809Y-27108628D01*
X108785714Y-27584819D02*
X108785714Y-26584819D01*
X108785714Y-26584819D02*
X109166666Y-26584819D01*
X109166666Y-26584819D02*
X109261904Y-26632438D01*
X109261904Y-26632438D02*
X109309523Y-26680057D01*
X109309523Y-26680057D02*
X109357142Y-26775295D01*
X109357142Y-26775295D02*
X109357142Y-26918152D01*
X109357142Y-26918152D02*
X109309523Y-27013390D01*
X109309523Y-27013390D02*
X109261904Y-27061009D01*
X109261904Y-27061009D02*
X109166666Y-27108628D01*
X109166666Y-27108628D02*
X108785714Y-27108628D01*
X109690476Y-26584819D02*
X110309523Y-26584819D01*
X110309523Y-26584819D02*
X109976190Y-26965771D01*
X109976190Y-26965771D02*
X110119047Y-26965771D01*
X110119047Y-26965771D02*
X110214285Y-27013390D01*
X110214285Y-27013390D02*
X110261904Y-27061009D01*
X110261904Y-27061009D02*
X110309523Y-27156247D01*
X110309523Y-27156247D02*
X110309523Y-27394342D01*
X110309523Y-27394342D02*
X110261904Y-27489580D01*
X110261904Y-27489580D02*
X110214285Y-27537200D01*
X110214285Y-27537200D02*
X110119047Y-27584819D01*
X110119047Y-27584819D02*
X109833333Y-27584819D01*
X109833333Y-27584819D02*
X109738095Y-27537200D01*
X109738095Y-27537200D02*
X109690476Y-27489580D01*
X111214285Y-26584819D02*
X110738095Y-26584819D01*
X110738095Y-26584819D02*
X110690476Y-27061009D01*
X110690476Y-27061009D02*
X110738095Y-27013390D01*
X110738095Y-27013390D02*
X110833333Y-26965771D01*
X110833333Y-26965771D02*
X111071428Y-26965771D01*
X111071428Y-26965771D02*
X111166666Y-27013390D01*
X111166666Y-27013390D02*
X111214285Y-27061009D01*
X111214285Y-27061009D02*
X111261904Y-27156247D01*
X111261904Y-27156247D02*
X111261904Y-27394342D01*
X111261904Y-27394342D02*
X111214285Y-27489580D01*
X111214285Y-27489580D02*
X111166666Y-27537200D01*
X111166666Y-27537200D02*
X111071428Y-27584819D01*
X111071428Y-27584819D02*
X110833333Y-27584819D01*
X110833333Y-27584819D02*
X110738095Y-27537200D01*
X110738095Y-27537200D02*
X110690476Y-27489580D01*
X122857142Y-27584819D02*
X122523809Y-27108628D01*
X122285714Y-27584819D02*
X122285714Y-26584819D01*
X122285714Y-26584819D02*
X122666666Y-26584819D01*
X122666666Y-26584819D02*
X122761904Y-26632438D01*
X122761904Y-26632438D02*
X122809523Y-26680057D01*
X122809523Y-26680057D02*
X122857142Y-26775295D01*
X122857142Y-26775295D02*
X122857142Y-26918152D01*
X122857142Y-26918152D02*
X122809523Y-27013390D01*
X122809523Y-27013390D02*
X122761904Y-27061009D01*
X122761904Y-27061009D02*
X122666666Y-27108628D01*
X122666666Y-27108628D02*
X122285714Y-27108628D01*
X123190476Y-26584819D02*
X123809523Y-26584819D01*
X123809523Y-26584819D02*
X123476190Y-26965771D01*
X123476190Y-26965771D02*
X123619047Y-26965771D01*
X123619047Y-26965771D02*
X123714285Y-27013390D01*
X123714285Y-27013390D02*
X123761904Y-27061009D01*
X123761904Y-27061009D02*
X123809523Y-27156247D01*
X123809523Y-27156247D02*
X123809523Y-27394342D01*
X123809523Y-27394342D02*
X123761904Y-27489580D01*
X123761904Y-27489580D02*
X123714285Y-27537200D01*
X123714285Y-27537200D02*
X123619047Y-27584819D01*
X123619047Y-27584819D02*
X123333333Y-27584819D01*
X123333333Y-27584819D02*
X123238095Y-27537200D01*
X123238095Y-27537200D02*
X123190476Y-27489580D01*
X124666666Y-26918152D02*
X124666666Y-27584819D01*
X124428571Y-26537200D02*
X124190476Y-27251485D01*
X124190476Y-27251485D02*
X124809523Y-27251485D01*
X169114819Y-6036904D02*
X169924342Y-6036904D01*
X169924342Y-6036904D02*
X170019580Y-5989285D01*
X170019580Y-5989285D02*
X170067200Y-5941666D01*
X170067200Y-5941666D02*
X170114819Y-5846428D01*
X170114819Y-5846428D02*
X170114819Y-5655952D01*
X170114819Y-5655952D02*
X170067200Y-5560714D01*
X170067200Y-5560714D02*
X170019580Y-5513095D01*
X170019580Y-5513095D02*
X169924342Y-5465476D01*
X169924342Y-5465476D02*
X169114819Y-5465476D01*
X169210057Y-5036904D02*
X169162438Y-4989285D01*
X169162438Y-4989285D02*
X169114819Y-4894047D01*
X169114819Y-4894047D02*
X169114819Y-4655952D01*
X169114819Y-4655952D02*
X169162438Y-4560714D01*
X169162438Y-4560714D02*
X169210057Y-4513095D01*
X169210057Y-4513095D02*
X169305295Y-4465476D01*
X169305295Y-4465476D02*
X169400533Y-4465476D01*
X169400533Y-4465476D02*
X169543390Y-4513095D01*
X169543390Y-4513095D02*
X170114819Y-5084523D01*
X170114819Y-5084523D02*
X170114819Y-4465476D01*
X115084819Y-68333333D02*
X115799104Y-68333333D01*
X115799104Y-68333333D02*
X115941961Y-68380952D01*
X115941961Y-68380952D02*
X116037200Y-68476190D01*
X116037200Y-68476190D02*
X116084819Y-68619047D01*
X116084819Y-68619047D02*
X116084819Y-68714285D01*
X115180057Y-67904761D02*
X115132438Y-67857142D01*
X115132438Y-67857142D02*
X115084819Y-67761904D01*
X115084819Y-67761904D02*
X115084819Y-67523809D01*
X115084819Y-67523809D02*
X115132438Y-67428571D01*
X115132438Y-67428571D02*
X115180057Y-67380952D01*
X115180057Y-67380952D02*
X115275295Y-67333333D01*
X115275295Y-67333333D02*
X115370533Y-67333333D01*
X115370533Y-67333333D02*
X115513390Y-67380952D01*
X115513390Y-67380952D02*
X116084819Y-67952380D01*
X116084819Y-67952380D02*
X116084819Y-67333333D01*
X135661666Y-57054819D02*
X135661666Y-57769104D01*
X135661666Y-57769104D02*
X135614047Y-57911961D01*
X135614047Y-57911961D02*
X135518809Y-58007200D01*
X135518809Y-58007200D02*
X135375952Y-58054819D01*
X135375952Y-58054819D02*
X135280714Y-58054819D01*
X136614047Y-57054819D02*
X136137857Y-57054819D01*
X136137857Y-57054819D02*
X136090238Y-57531009D01*
X136090238Y-57531009D02*
X136137857Y-57483390D01*
X136137857Y-57483390D02*
X136233095Y-57435771D01*
X136233095Y-57435771D02*
X136471190Y-57435771D01*
X136471190Y-57435771D02*
X136566428Y-57483390D01*
X136566428Y-57483390D02*
X136614047Y-57531009D01*
X136614047Y-57531009D02*
X136661666Y-57626247D01*
X136661666Y-57626247D02*
X136661666Y-57864342D01*
X136661666Y-57864342D02*
X136614047Y-57959580D01*
X136614047Y-57959580D02*
X136566428Y-58007200D01*
X136566428Y-58007200D02*
X136471190Y-58054819D01*
X136471190Y-58054819D02*
X136233095Y-58054819D01*
X136233095Y-58054819D02*
X136137857Y-58007200D01*
X136137857Y-58007200D02*
X136090238Y-57959580D01*
X90044819Y-29833333D02*
X90759104Y-29833333D01*
X90759104Y-29833333D02*
X90901961Y-29880952D01*
X90901961Y-29880952D02*
X90997200Y-29976190D01*
X90997200Y-29976190D02*
X91044819Y-30119047D01*
X91044819Y-30119047D02*
X91044819Y-30214285D01*
X90378152Y-28928571D02*
X91044819Y-28928571D01*
X89997200Y-29166666D02*
X90711485Y-29404761D01*
X90711485Y-29404761D02*
X90711485Y-28785714D01*
D11*
%TO.C,U1*%
X130405000Y-62448120D02*
X130405000Y-34048121D01*
X91205000Y-62448119D02*
X130405000Y-62448120D01*
X85291880Y-57218000D02*
X85291880Y-39234800D01*
X91184680Y-57218000D02*
X85291880Y-57218000D01*
X85291880Y-39234800D02*
X91184680Y-39234800D01*
X130405000Y-34048121D02*
X91205000Y-34048120D01*
X91205000Y-34048120D02*
X91205000Y-62448119D01*
%TO.C,J1*%
X91550000Y-69330000D02*
X91550000Y-68000000D01*
X92880000Y-69330000D02*
X91550000Y-69330000D01*
X94150000Y-69330000D02*
X114530000Y-69330000D01*
X94150000Y-69330000D02*
X94150000Y-66670000D01*
X114530000Y-69330000D02*
X114530000Y-66670000D01*
X94150000Y-66670000D02*
X114530000Y-66670000D01*
%TO.C,R36*%
X139460000Y-34500000D02*
X140230000Y-34500000D01*
X140230000Y-33130000D02*
X140230000Y-35870000D01*
X140230000Y-35870000D02*
X146770000Y-35870000D01*
X146770000Y-33130000D02*
X140230000Y-33130000D01*
X146770000Y-35870000D02*
X146770000Y-33130000D01*
X147540000Y-34500000D02*
X146770000Y-34500000D01*
%TO.C,J3*%
X141670000Y-58830000D02*
X141670000Y-57500000D01*
X143000000Y-58830000D02*
X141670000Y-58830000D01*
X144270000Y-58830000D02*
X146870000Y-58830000D01*
X144270000Y-58830000D02*
X144270000Y-56170000D01*
X146870000Y-58830000D02*
X146870000Y-56170000D01*
X144270000Y-56170000D02*
X146870000Y-56170000D01*
%TO.C,R39*%
X139460000Y-30000000D02*
X140230000Y-30000000D01*
X140230000Y-28630000D02*
X140230000Y-31370000D01*
X140230000Y-31370000D02*
X146770000Y-31370000D01*
X146770000Y-28630000D02*
X140230000Y-28630000D01*
X146770000Y-31370000D02*
X146770000Y-28630000D01*
X147540000Y-30000000D02*
X146770000Y-30000000D01*
%TO.C,J6*%
X139550000Y-40330000D02*
X139550000Y-39000000D01*
X140880000Y-40330000D02*
X139550000Y-40330000D01*
X142150000Y-40330000D02*
X149830000Y-40330000D01*
X142150000Y-40330000D02*
X142150000Y-37670000D01*
X149830000Y-40330000D02*
X149830000Y-37670000D01*
X142150000Y-37670000D02*
X149830000Y-37670000D01*
%TO.C,R35*%
X105960000Y-29500000D02*
X106730000Y-29500000D01*
X106730000Y-28130000D02*
X106730000Y-30870000D01*
X106730000Y-30870000D02*
X113270000Y-30870000D01*
X113270000Y-28130000D02*
X106730000Y-28130000D01*
X113270000Y-30870000D02*
X113270000Y-28130000D01*
X114040000Y-29500000D02*
X113270000Y-29500000D01*
%TO.C,R34*%
X119460000Y-29500000D02*
X120230000Y-29500000D01*
X120230000Y-28130000D02*
X120230000Y-30870000D01*
X120230000Y-30870000D02*
X126770000Y-30870000D01*
X126770000Y-28130000D02*
X120230000Y-28130000D01*
X126770000Y-30870000D02*
X126770000Y-28130000D01*
X127540000Y-29500000D02*
X126770000Y-29500000D01*
%TO.C,U2*%
X138380000Y-65175000D02*
X138380000Y-69816000D01*
X138380000Y-65175000D02*
X148620000Y-65175000D01*
X138380000Y-66685000D02*
X148620000Y-66685000D01*
X138380000Y-69816000D02*
X148620000Y-69816000D01*
X141650000Y-65175000D02*
X141650000Y-66685000D01*
X145351000Y-65175000D02*
X145351000Y-66685000D01*
X148620000Y-65175000D02*
X148620000Y-69816000D01*
%TO.C,J2*%
X116630000Y-69330000D02*
X116630000Y-68000000D01*
X117960000Y-69330000D02*
X116630000Y-69330000D01*
X119230000Y-69330000D02*
X131990000Y-69330000D01*
X119230000Y-69330000D02*
X119230000Y-66670000D01*
X131990000Y-69330000D02*
X131990000Y-66670000D01*
X119230000Y-66670000D02*
X131990000Y-66670000D01*
%TO.C,J5*%
X141895000Y-63830000D02*
X141895000Y-62500000D01*
X143225000Y-63830000D02*
X141895000Y-63830000D01*
X144495000Y-63830000D02*
X147095000Y-63830000D01*
X144495000Y-63830000D02*
X144495000Y-61170000D01*
X147095000Y-63830000D02*
X147095000Y-61170000D01*
X144495000Y-61170000D02*
X147095000Y-61170000D01*
%TO.C,J4*%
X91590000Y-30830000D02*
X91590000Y-29500000D01*
X92920000Y-30830000D02*
X91590000Y-30830000D01*
X94190000Y-30830000D02*
X101870000Y-30830000D01*
X94190000Y-30830000D02*
X94190000Y-28170000D01*
X101870000Y-30830000D02*
X101870000Y-28170000D01*
X94190000Y-28170000D02*
X101870000Y-28170000D01*
%TD*%
M02*
