%TF.GenerationSoftware,KiCad,Pcbnew,7.0.9*%
%TF.CreationDate,2024-01-04T21:37:19-05:00*%
%TF.ProjectId,PedalboardBrain,50656461-6c62-46f6-9172-64427261696e,rev?*%
%TF.SameCoordinates,Original*%
%TF.FileFunction,Drillmap*%
%TF.FilePolarity,Positive*%
%FSLAX45Y45*%
G04 Gerber Fmt 4.5, Leading zero omitted, Abs format (unit mm)*
G04 Created by KiCad (PCBNEW 7.0.9) date 2024-01-04 21:37:19*
%MOMM*%
%LPD*%
G01*
G04 APERTURE LIST*
%ADD10C,0.100000*%
%ADD11C,0.200000*%
%ADD12C,0.110000*%
G04 APERTURE END LIST*
D10*
X14850000Y-7274997D02*
G75*
G03*
X15073607Y-7051393I0J223607D01*
G01*
X14850000Y-2501393D02*
X9225000Y-2500000D01*
X15073607Y-2725000D02*
X15073607Y-7051393D01*
X9250000Y-7273607D02*
X14845000Y-7275000D01*
X9025000Y-2700000D02*
X9026393Y-7050000D01*
X9225000Y-2500000D02*
G75*
G03*
X9025000Y-2700000I0J-200000D01*
G01*
X9026393Y-7050000D02*
G75*
G03*
X9250000Y-7273607I223607J0D01*
G01*
X14600285Y-4725000D02*
G75*
G03*
X14600285Y-4725000I-175286J0D01*
G01*
X15073607Y-2725000D02*
G75*
G03*
X14850000Y-2501393I-223607J0D01*
G01*
D11*
D10*
X9330000Y-5080000D02*
X9370000Y-5120000D01*
X9370000Y-5080000D02*
X9330000Y-5120000D01*
X9930000Y-3230000D02*
X9970000Y-3270000D01*
X9970000Y-3230000D02*
X9930000Y-3270000D01*
X10730000Y-4280000D02*
X10770000Y-4320000D01*
X10770000Y-4280000D02*
X10730000Y-4320000D01*
X10980000Y-4780000D02*
X11020000Y-4820000D01*
X11020000Y-4780000D02*
X10980000Y-4820000D01*
X11780000Y-4430000D02*
X11820000Y-4470000D01*
X11820000Y-4430000D02*
X11780000Y-4470000D01*
X9270500Y-3554812D02*
G75*
G03*
X9270500Y-3554812I-40000J0D01*
G01*
X9270500Y-6094812D02*
G75*
G03*
X9270500Y-6094812I-40000J0D01*
G01*
X9524500Y-3554812D02*
G75*
G03*
X9524500Y-3554812I-40000J0D01*
G01*
X9524500Y-6094812D02*
G75*
G03*
X9524500Y-6094812I-40000J0D01*
G01*
X9778500Y-3554812D02*
G75*
G03*
X9778500Y-3554812I-40000J0D01*
G01*
X9778500Y-6094812D02*
G75*
G03*
X9778500Y-6094812I-40000J0D01*
G01*
X10032500Y-3554812D02*
G75*
G03*
X10032500Y-3554812I-40000J0D01*
G01*
X10032500Y-6094812D02*
G75*
G03*
X10032500Y-6094812I-40000J0D01*
G01*
X10286500Y-3554812D02*
G75*
G03*
X10286500Y-3554812I-40000J0D01*
G01*
X10286500Y-6094812D02*
G75*
G03*
X10286500Y-6094812I-40000J0D01*
G01*
X10532000Y-2950000D02*
G75*
G03*
X10532000Y-2950000I-40000J0D01*
G01*
X10540500Y-3554812D02*
G75*
G03*
X10540500Y-3554812I-40000J0D01*
G01*
X10540500Y-6094812D02*
G75*
G03*
X10540500Y-6094812I-40000J0D01*
G01*
X10794500Y-3554812D02*
G75*
G03*
X10794500Y-3554812I-40000J0D01*
G01*
X10794500Y-6094812D02*
G75*
G03*
X10794500Y-6094812I-40000J0D01*
G01*
X11048500Y-3554812D02*
G75*
G03*
X11048500Y-3554812I-40000J0D01*
G01*
X11048500Y-6094812D02*
G75*
G03*
X11048500Y-6094812I-40000J0D01*
G01*
X11302500Y-3554812D02*
G75*
G03*
X11302500Y-3554812I-40000J0D01*
G01*
X11302500Y-6094812D02*
G75*
G03*
X11302500Y-6094812I-40000J0D01*
G01*
X11548000Y-2950000D02*
G75*
G03*
X11548000Y-2950000I-40000J0D01*
G01*
X11556500Y-3554812D02*
G75*
G03*
X11556500Y-3554812I-40000J0D01*
G01*
X11556500Y-6094812D02*
G75*
G03*
X11556500Y-6094812I-40000J0D01*
G01*
X11810500Y-3554812D02*
G75*
G03*
X11810500Y-3554812I-40000J0D01*
G01*
X11810500Y-6094812D02*
G75*
G03*
X11810500Y-6094812I-40000J0D01*
G01*
X11882000Y-2950000D02*
G75*
G03*
X11882000Y-2950000I-40000J0D01*
G01*
X12064500Y-3554812D02*
G75*
G03*
X12064500Y-3554812I-40000J0D01*
G01*
X12064500Y-6094812D02*
G75*
G03*
X12064500Y-6094812I-40000J0D01*
G01*
X12318500Y-3554812D02*
G75*
G03*
X12318500Y-3554812I-40000J0D01*
G01*
X12318500Y-6094812D02*
G75*
G03*
X12318500Y-6094812I-40000J0D01*
G01*
X12572500Y-3554812D02*
G75*
G03*
X12572500Y-3554812I-40000J0D01*
G01*
X12572500Y-6094812D02*
G75*
G03*
X12572500Y-6094812I-40000J0D01*
G01*
X12826500Y-3554812D02*
G75*
G03*
X12826500Y-3554812I-40000J0D01*
G01*
X12826500Y-6094812D02*
G75*
G03*
X12826500Y-6094812I-40000J0D01*
G01*
X12898000Y-2950000D02*
G75*
G03*
X12898000Y-2950000I-40000J0D01*
G01*
X13882000Y-3000000D02*
G75*
G03*
X13882000Y-3000000I-40000J0D01*
G01*
X13882000Y-3450000D02*
G75*
G03*
X13882000Y-3450000I-40000J0D01*
G01*
X14898000Y-3000000D02*
G75*
G03*
X14898000Y-3000000I-40000J0D01*
G01*
X14898000Y-3450000D02*
G75*
G03*
X14898000Y-3450000I-40000J0D01*
G01*
X9288000Y-6750000D02*
X9288000Y-6850000D01*
X9238000Y-6800000D02*
X9338000Y-6800000D01*
X9292000Y-2900000D02*
X9292000Y-3000000D01*
X9242000Y-2950000D02*
X9342000Y-2950000D01*
X9542000Y-6750000D02*
X9542000Y-6850000D01*
X9492000Y-6800000D02*
X9592000Y-6800000D01*
X9546000Y-2900000D02*
X9546000Y-3000000D01*
X9496000Y-2950000D02*
X9596000Y-2950000D01*
X9796000Y-6750000D02*
X9796000Y-6850000D01*
X9746000Y-6800000D02*
X9846000Y-6800000D01*
X9800000Y-2900000D02*
X9800000Y-3000000D01*
X9750000Y-2950000D02*
X9850000Y-2950000D01*
X10050000Y-6750000D02*
X10050000Y-6850000D01*
X10000000Y-6800000D02*
X10100000Y-6800000D01*
X10054000Y-2900000D02*
X10054000Y-3000000D01*
X10004000Y-2950000D02*
X10104000Y-2950000D01*
X10304000Y-6750000D02*
X10304000Y-6850000D01*
X10254000Y-6800000D02*
X10354000Y-6800000D01*
X10558000Y-6750000D02*
X10558000Y-6850000D01*
X10508000Y-6800000D02*
X10608000Y-6800000D01*
X10812000Y-6750000D02*
X10812000Y-6850000D01*
X10762000Y-6800000D02*
X10862000Y-6800000D01*
X11066000Y-6750000D02*
X11066000Y-6850000D01*
X11016000Y-6800000D02*
X11116000Y-6800000D01*
X11320000Y-6750000D02*
X11320000Y-6850000D01*
X11270000Y-6800000D02*
X11370000Y-6800000D01*
X11796000Y-6750000D02*
X11796000Y-6850000D01*
X11746000Y-6800000D02*
X11846000Y-6800000D01*
X12050000Y-6750000D02*
X12050000Y-6850000D01*
X12000000Y-6800000D02*
X12100000Y-6800000D01*
X12304000Y-6750000D02*
X12304000Y-6850000D01*
X12254000Y-6800000D02*
X12354000Y-6800000D01*
X12558000Y-6750000D02*
X12558000Y-6850000D01*
X12508000Y-6800000D02*
X12608000Y-6800000D01*
X12812000Y-6750000D02*
X12812000Y-6850000D01*
X12762000Y-6800000D02*
X12862000Y-6800000D01*
X13066000Y-6750000D02*
X13066000Y-6850000D01*
X13016000Y-6800000D02*
X13116000Y-6800000D01*
X14088000Y-3850000D02*
X14088000Y-3950000D01*
X14038000Y-3900000D02*
X14138000Y-3900000D01*
X14300000Y-5700000D02*
X14300000Y-5800000D01*
X14250000Y-5750000D02*
X14350000Y-5750000D01*
X14322500Y-6200000D02*
X14322500Y-6300000D01*
X14272500Y-6250000D02*
X14372500Y-6250000D01*
X14342000Y-3850000D02*
X14342000Y-3950000D01*
X14292000Y-3900000D02*
X14392000Y-3900000D01*
X14554000Y-5700000D02*
X14554000Y-5800000D01*
X14504000Y-5750000D02*
X14604000Y-5750000D01*
X14576500Y-6200000D02*
X14576500Y-6300000D01*
X14526500Y-6250000D02*
X14626500Y-6250000D01*
X14596000Y-3850000D02*
X14596000Y-3950000D01*
X14546000Y-3900000D02*
X14646000Y-3900000D01*
X14850000Y-3850000D02*
X14850000Y-3950000D01*
X14800000Y-3900000D02*
X14900000Y-3900000D01*
D12*
X14134891Y-6883391D02*
X14134891Y-6805609D01*
X14057109Y-6805609D01*
X14057109Y-6883391D01*
X14134891Y-6883391D01*
X14388891Y-6883391D02*
X14388891Y-6805609D01*
X14311109Y-6805609D01*
X14311109Y-6883391D01*
X14388891Y-6883391D01*
X14642891Y-6883391D02*
X14642891Y-6805609D01*
X14565109Y-6805609D01*
X14565109Y-6883391D01*
X14642891Y-6883391D01*
D11*
X9280777Y-7591484D02*
X9280777Y-7391484D01*
X9280777Y-7391484D02*
X9328396Y-7391484D01*
X9328396Y-7391484D02*
X9356967Y-7401008D01*
X9356967Y-7401008D02*
X9376015Y-7420055D01*
X9376015Y-7420055D02*
X9385539Y-7439103D01*
X9385539Y-7439103D02*
X9395063Y-7477198D01*
X9395063Y-7477198D02*
X9395063Y-7505769D01*
X9395063Y-7505769D02*
X9385539Y-7543865D01*
X9385539Y-7543865D02*
X9376015Y-7562912D01*
X9376015Y-7562912D02*
X9356967Y-7581960D01*
X9356967Y-7581960D02*
X9328396Y-7591484D01*
X9328396Y-7591484D02*
X9280777Y-7591484D01*
X9480777Y-7591484D02*
X9480777Y-7458150D01*
X9480777Y-7496246D02*
X9490301Y-7477198D01*
X9490301Y-7477198D02*
X9499824Y-7467674D01*
X9499824Y-7467674D02*
X9518872Y-7458150D01*
X9518872Y-7458150D02*
X9537920Y-7458150D01*
X9604586Y-7591484D02*
X9604586Y-7458150D01*
X9604586Y-7391484D02*
X9595063Y-7401008D01*
X9595063Y-7401008D02*
X9604586Y-7410531D01*
X9604586Y-7410531D02*
X9614110Y-7401008D01*
X9614110Y-7401008D02*
X9604586Y-7391484D01*
X9604586Y-7391484D02*
X9604586Y-7410531D01*
X9728396Y-7591484D02*
X9709348Y-7581960D01*
X9709348Y-7581960D02*
X9699824Y-7562912D01*
X9699824Y-7562912D02*
X9699824Y-7391484D01*
X9833158Y-7591484D02*
X9814110Y-7581960D01*
X9814110Y-7581960D02*
X9804586Y-7562912D01*
X9804586Y-7562912D02*
X9804586Y-7391484D01*
X10061729Y-7591484D02*
X10061729Y-7391484D01*
X10061729Y-7391484D02*
X10128396Y-7534341D01*
X10128396Y-7534341D02*
X10195063Y-7391484D01*
X10195063Y-7391484D02*
X10195063Y-7591484D01*
X10376015Y-7591484D02*
X10376015Y-7486722D01*
X10376015Y-7486722D02*
X10366491Y-7467674D01*
X10366491Y-7467674D02*
X10347444Y-7458150D01*
X10347444Y-7458150D02*
X10309348Y-7458150D01*
X10309348Y-7458150D02*
X10290301Y-7467674D01*
X10376015Y-7581960D02*
X10356967Y-7591484D01*
X10356967Y-7591484D02*
X10309348Y-7591484D01*
X10309348Y-7591484D02*
X10290301Y-7581960D01*
X10290301Y-7581960D02*
X10280777Y-7562912D01*
X10280777Y-7562912D02*
X10280777Y-7543865D01*
X10280777Y-7543865D02*
X10290301Y-7524817D01*
X10290301Y-7524817D02*
X10309348Y-7515293D01*
X10309348Y-7515293D02*
X10356967Y-7515293D01*
X10356967Y-7515293D02*
X10376015Y-7505769D01*
X10471253Y-7458150D02*
X10471253Y-7658150D01*
X10471253Y-7467674D02*
X10490301Y-7458150D01*
X10490301Y-7458150D02*
X10528396Y-7458150D01*
X10528396Y-7458150D02*
X10547444Y-7467674D01*
X10547444Y-7467674D02*
X10556967Y-7477198D01*
X10556967Y-7477198D02*
X10566491Y-7496246D01*
X10566491Y-7496246D02*
X10566491Y-7553388D01*
X10566491Y-7553388D02*
X10556967Y-7572436D01*
X10556967Y-7572436D02*
X10547444Y-7581960D01*
X10547444Y-7581960D02*
X10528396Y-7591484D01*
X10528396Y-7591484D02*
X10490301Y-7591484D01*
X10490301Y-7591484D02*
X10471253Y-7581960D01*
X10652205Y-7572436D02*
X10661729Y-7581960D01*
X10661729Y-7581960D02*
X10652205Y-7591484D01*
X10652205Y-7591484D02*
X10642682Y-7581960D01*
X10642682Y-7581960D02*
X10652205Y-7572436D01*
X10652205Y-7572436D02*
X10652205Y-7591484D01*
X10652205Y-7467674D02*
X10661729Y-7477198D01*
X10661729Y-7477198D02*
X10652205Y-7486722D01*
X10652205Y-7486722D02*
X10642682Y-7477198D01*
X10642682Y-7477198D02*
X10652205Y-7467674D01*
X10652205Y-7467674D02*
X10652205Y-7486722D01*
D10*
X8980000Y-7900000D02*
X9020000Y-7940000D01*
X9020000Y-7900000D02*
X8980000Y-7940000D01*
D11*
X9318872Y-7811484D02*
X9337920Y-7811484D01*
X9337920Y-7811484D02*
X9356967Y-7821008D01*
X9356967Y-7821008D02*
X9366491Y-7830531D01*
X9366491Y-7830531D02*
X9376015Y-7849579D01*
X9376015Y-7849579D02*
X9385539Y-7887674D01*
X9385539Y-7887674D02*
X9385539Y-7935293D01*
X9385539Y-7935293D02*
X9376015Y-7973388D01*
X9376015Y-7973388D02*
X9366491Y-7992436D01*
X9366491Y-7992436D02*
X9356967Y-8001960D01*
X9356967Y-8001960D02*
X9337920Y-8011484D01*
X9337920Y-8011484D02*
X9318872Y-8011484D01*
X9318872Y-8011484D02*
X9299824Y-8001960D01*
X9299824Y-8001960D02*
X9290301Y-7992436D01*
X9290301Y-7992436D02*
X9280777Y-7973388D01*
X9280777Y-7973388D02*
X9271253Y-7935293D01*
X9271253Y-7935293D02*
X9271253Y-7887674D01*
X9271253Y-7887674D02*
X9280777Y-7849579D01*
X9280777Y-7849579D02*
X9290301Y-7830531D01*
X9290301Y-7830531D02*
X9299824Y-7821008D01*
X9299824Y-7821008D02*
X9318872Y-7811484D01*
X9471253Y-7992436D02*
X9480777Y-8001960D01*
X9480777Y-8001960D02*
X9471253Y-8011484D01*
X9471253Y-8011484D02*
X9461729Y-8001960D01*
X9461729Y-8001960D02*
X9471253Y-7992436D01*
X9471253Y-7992436D02*
X9471253Y-8011484D01*
X9652205Y-7878150D02*
X9652205Y-8011484D01*
X9604586Y-7801960D02*
X9556967Y-7944817D01*
X9556967Y-7944817D02*
X9680777Y-7944817D01*
X9795063Y-7811484D02*
X9814110Y-7811484D01*
X9814110Y-7811484D02*
X9833158Y-7821008D01*
X9833158Y-7821008D02*
X9842682Y-7830531D01*
X9842682Y-7830531D02*
X9852205Y-7849579D01*
X9852205Y-7849579D02*
X9861729Y-7887674D01*
X9861729Y-7887674D02*
X9861729Y-7935293D01*
X9861729Y-7935293D02*
X9852205Y-7973388D01*
X9852205Y-7973388D02*
X9842682Y-7992436D01*
X9842682Y-7992436D02*
X9833158Y-8001960D01*
X9833158Y-8001960D02*
X9814110Y-8011484D01*
X9814110Y-8011484D02*
X9795063Y-8011484D01*
X9795063Y-8011484D02*
X9776015Y-8001960D01*
X9776015Y-8001960D02*
X9766491Y-7992436D01*
X9766491Y-7992436D02*
X9756967Y-7973388D01*
X9756967Y-7973388D02*
X9747444Y-7935293D01*
X9747444Y-7935293D02*
X9747444Y-7887674D01*
X9747444Y-7887674D02*
X9756967Y-7849579D01*
X9756967Y-7849579D02*
X9766491Y-7830531D01*
X9766491Y-7830531D02*
X9776015Y-7821008D01*
X9776015Y-7821008D02*
X9795063Y-7811484D01*
X9985539Y-7811484D02*
X10004586Y-7811484D01*
X10004586Y-7811484D02*
X10023634Y-7821008D01*
X10023634Y-7821008D02*
X10033158Y-7830531D01*
X10033158Y-7830531D02*
X10042682Y-7849579D01*
X10042682Y-7849579D02*
X10052205Y-7887674D01*
X10052205Y-7887674D02*
X10052205Y-7935293D01*
X10052205Y-7935293D02*
X10042682Y-7973388D01*
X10042682Y-7973388D02*
X10033158Y-7992436D01*
X10033158Y-7992436D02*
X10023634Y-8001960D01*
X10023634Y-8001960D02*
X10004586Y-8011484D01*
X10004586Y-8011484D02*
X9985539Y-8011484D01*
X9985539Y-8011484D02*
X9966491Y-8001960D01*
X9966491Y-8001960D02*
X9956967Y-7992436D01*
X9956967Y-7992436D02*
X9947444Y-7973388D01*
X9947444Y-7973388D02*
X9937920Y-7935293D01*
X9937920Y-7935293D02*
X9937920Y-7887674D01*
X9937920Y-7887674D02*
X9947444Y-7849579D01*
X9947444Y-7849579D02*
X9956967Y-7830531D01*
X9956967Y-7830531D02*
X9966491Y-7821008D01*
X9966491Y-7821008D02*
X9985539Y-7811484D01*
X10137920Y-8011484D02*
X10137920Y-7878150D01*
X10137920Y-7897198D02*
X10147444Y-7887674D01*
X10147444Y-7887674D02*
X10166491Y-7878150D01*
X10166491Y-7878150D02*
X10195063Y-7878150D01*
X10195063Y-7878150D02*
X10214110Y-7887674D01*
X10214110Y-7887674D02*
X10223634Y-7906722D01*
X10223634Y-7906722D02*
X10223634Y-8011484D01*
X10223634Y-7906722D02*
X10233158Y-7887674D01*
X10233158Y-7887674D02*
X10252205Y-7878150D01*
X10252205Y-7878150D02*
X10280777Y-7878150D01*
X10280777Y-7878150D02*
X10299825Y-7887674D01*
X10299825Y-7887674D02*
X10309348Y-7906722D01*
X10309348Y-7906722D02*
X10309348Y-8011484D01*
X10404586Y-8011484D02*
X10404586Y-7878150D01*
X10404586Y-7897198D02*
X10414110Y-7887674D01*
X10414110Y-7887674D02*
X10433158Y-7878150D01*
X10433158Y-7878150D02*
X10461729Y-7878150D01*
X10461729Y-7878150D02*
X10480777Y-7887674D01*
X10480777Y-7887674D02*
X10490301Y-7906722D01*
X10490301Y-7906722D02*
X10490301Y-8011484D01*
X10490301Y-7906722D02*
X10499825Y-7887674D01*
X10499825Y-7887674D02*
X10518872Y-7878150D01*
X10518872Y-7878150D02*
X10547444Y-7878150D01*
X10547444Y-7878150D02*
X10566491Y-7887674D01*
X10566491Y-7887674D02*
X10576015Y-7906722D01*
X10576015Y-7906722D02*
X10576015Y-8011484D01*
X10966491Y-7801960D02*
X10795063Y-8059103D01*
X11223634Y-7811484D02*
X11242682Y-7811484D01*
X11242682Y-7811484D02*
X11261729Y-7821008D01*
X11261729Y-7821008D02*
X11271253Y-7830531D01*
X11271253Y-7830531D02*
X11280777Y-7849579D01*
X11280777Y-7849579D02*
X11290301Y-7887674D01*
X11290301Y-7887674D02*
X11290301Y-7935293D01*
X11290301Y-7935293D02*
X11280777Y-7973388D01*
X11280777Y-7973388D02*
X11271253Y-7992436D01*
X11271253Y-7992436D02*
X11261729Y-8001960D01*
X11261729Y-8001960D02*
X11242682Y-8011484D01*
X11242682Y-8011484D02*
X11223634Y-8011484D01*
X11223634Y-8011484D02*
X11204586Y-8001960D01*
X11204586Y-8001960D02*
X11195063Y-7992436D01*
X11195063Y-7992436D02*
X11185539Y-7973388D01*
X11185539Y-7973388D02*
X11176015Y-7935293D01*
X11176015Y-7935293D02*
X11176015Y-7887674D01*
X11176015Y-7887674D02*
X11185539Y-7849579D01*
X11185539Y-7849579D02*
X11195063Y-7830531D01*
X11195063Y-7830531D02*
X11204586Y-7821008D01*
X11204586Y-7821008D02*
X11223634Y-7811484D01*
X11376015Y-7992436D02*
X11385539Y-8001960D01*
X11385539Y-8001960D02*
X11376015Y-8011484D01*
X11376015Y-8011484D02*
X11366491Y-8001960D01*
X11366491Y-8001960D02*
X11376015Y-7992436D01*
X11376015Y-7992436D02*
X11376015Y-8011484D01*
X11509348Y-7811484D02*
X11528396Y-7811484D01*
X11528396Y-7811484D02*
X11547444Y-7821008D01*
X11547444Y-7821008D02*
X11556967Y-7830531D01*
X11556967Y-7830531D02*
X11566491Y-7849579D01*
X11566491Y-7849579D02*
X11576015Y-7887674D01*
X11576015Y-7887674D02*
X11576015Y-7935293D01*
X11576015Y-7935293D02*
X11566491Y-7973388D01*
X11566491Y-7973388D02*
X11556967Y-7992436D01*
X11556967Y-7992436D02*
X11547444Y-8001960D01*
X11547444Y-8001960D02*
X11528396Y-8011484D01*
X11528396Y-8011484D02*
X11509348Y-8011484D01*
X11509348Y-8011484D02*
X11490301Y-8001960D01*
X11490301Y-8001960D02*
X11480777Y-7992436D01*
X11480777Y-7992436D02*
X11471253Y-7973388D01*
X11471253Y-7973388D02*
X11461729Y-7935293D01*
X11461729Y-7935293D02*
X11461729Y-7887674D01*
X11461729Y-7887674D02*
X11471253Y-7849579D01*
X11471253Y-7849579D02*
X11480777Y-7830531D01*
X11480777Y-7830531D02*
X11490301Y-7821008D01*
X11490301Y-7821008D02*
X11509348Y-7811484D01*
X11766491Y-8011484D02*
X11652206Y-8011484D01*
X11709348Y-8011484D02*
X11709348Y-7811484D01*
X11709348Y-7811484D02*
X11690301Y-7840055D01*
X11690301Y-7840055D02*
X11671253Y-7859103D01*
X11671253Y-7859103D02*
X11652206Y-7868627D01*
X11947444Y-7811484D02*
X11852206Y-7811484D01*
X11852206Y-7811484D02*
X11842682Y-7906722D01*
X11842682Y-7906722D02*
X11852206Y-7897198D01*
X11852206Y-7897198D02*
X11871253Y-7887674D01*
X11871253Y-7887674D02*
X11918872Y-7887674D01*
X11918872Y-7887674D02*
X11937920Y-7897198D01*
X11937920Y-7897198D02*
X11947444Y-7906722D01*
X11947444Y-7906722D02*
X11956967Y-7925769D01*
X11956967Y-7925769D02*
X11956967Y-7973388D01*
X11956967Y-7973388D02*
X11947444Y-7992436D01*
X11947444Y-7992436D02*
X11937920Y-8001960D01*
X11937920Y-8001960D02*
X11918872Y-8011484D01*
X11918872Y-8011484D02*
X11871253Y-8011484D01*
X11871253Y-8011484D02*
X11852206Y-8001960D01*
X11852206Y-8001960D02*
X11842682Y-7992436D01*
X12023634Y-7811484D02*
X12156967Y-7811484D01*
X12156967Y-7811484D02*
X12071253Y-8011484D01*
X12223634Y-7811484D02*
X12223634Y-7849579D01*
X12299825Y-7811484D02*
X12299825Y-7849579D01*
X12595063Y-8087674D02*
X12585539Y-8078150D01*
X12585539Y-8078150D02*
X12566491Y-8049579D01*
X12566491Y-8049579D02*
X12556968Y-8030531D01*
X12556968Y-8030531D02*
X12547444Y-8001960D01*
X12547444Y-8001960D02*
X12537920Y-7954341D01*
X12537920Y-7954341D02*
X12537920Y-7916246D01*
X12537920Y-7916246D02*
X12547444Y-7868627D01*
X12547444Y-7868627D02*
X12556968Y-7840055D01*
X12556968Y-7840055D02*
X12566491Y-7821008D01*
X12566491Y-7821008D02*
X12585539Y-7792436D01*
X12585539Y-7792436D02*
X12595063Y-7782912D01*
X12766491Y-7811484D02*
X12671253Y-7811484D01*
X12671253Y-7811484D02*
X12661729Y-7906722D01*
X12661729Y-7906722D02*
X12671253Y-7897198D01*
X12671253Y-7897198D02*
X12690301Y-7887674D01*
X12690301Y-7887674D02*
X12737920Y-7887674D01*
X12737920Y-7887674D02*
X12756968Y-7897198D01*
X12756968Y-7897198D02*
X12766491Y-7906722D01*
X12766491Y-7906722D02*
X12776015Y-7925769D01*
X12776015Y-7925769D02*
X12776015Y-7973388D01*
X12776015Y-7973388D02*
X12766491Y-7992436D01*
X12766491Y-7992436D02*
X12756968Y-8001960D01*
X12756968Y-8001960D02*
X12737920Y-8011484D01*
X12737920Y-8011484D02*
X12690301Y-8011484D01*
X12690301Y-8011484D02*
X12671253Y-8001960D01*
X12671253Y-8001960D02*
X12661729Y-7992436D01*
X13014110Y-8011484D02*
X13014110Y-7811484D01*
X13099825Y-8011484D02*
X13099825Y-7906722D01*
X13099825Y-7906722D02*
X13090301Y-7887674D01*
X13090301Y-7887674D02*
X13071253Y-7878150D01*
X13071253Y-7878150D02*
X13042682Y-7878150D01*
X13042682Y-7878150D02*
X13023634Y-7887674D01*
X13023634Y-7887674D02*
X13014110Y-7897198D01*
X13223634Y-8011484D02*
X13204587Y-8001960D01*
X13204587Y-8001960D02*
X13195063Y-7992436D01*
X13195063Y-7992436D02*
X13185539Y-7973388D01*
X13185539Y-7973388D02*
X13185539Y-7916246D01*
X13185539Y-7916246D02*
X13195063Y-7897198D01*
X13195063Y-7897198D02*
X13204587Y-7887674D01*
X13204587Y-7887674D02*
X13223634Y-7878150D01*
X13223634Y-7878150D02*
X13252206Y-7878150D01*
X13252206Y-7878150D02*
X13271253Y-7887674D01*
X13271253Y-7887674D02*
X13280777Y-7897198D01*
X13280777Y-7897198D02*
X13290301Y-7916246D01*
X13290301Y-7916246D02*
X13290301Y-7973388D01*
X13290301Y-7973388D02*
X13280777Y-7992436D01*
X13280777Y-7992436D02*
X13271253Y-8001960D01*
X13271253Y-8001960D02*
X13252206Y-8011484D01*
X13252206Y-8011484D02*
X13223634Y-8011484D01*
X13404587Y-8011484D02*
X13385539Y-8001960D01*
X13385539Y-8001960D02*
X13376015Y-7982912D01*
X13376015Y-7982912D02*
X13376015Y-7811484D01*
X13556968Y-8001960D02*
X13537920Y-8011484D01*
X13537920Y-8011484D02*
X13499825Y-8011484D01*
X13499825Y-8011484D02*
X13480777Y-8001960D01*
X13480777Y-8001960D02*
X13471253Y-7982912D01*
X13471253Y-7982912D02*
X13471253Y-7906722D01*
X13471253Y-7906722D02*
X13480777Y-7887674D01*
X13480777Y-7887674D02*
X13499825Y-7878150D01*
X13499825Y-7878150D02*
X13537920Y-7878150D01*
X13537920Y-7878150D02*
X13556968Y-7887674D01*
X13556968Y-7887674D02*
X13566491Y-7906722D01*
X13566491Y-7906722D02*
X13566491Y-7925769D01*
X13566491Y-7925769D02*
X13471253Y-7944817D01*
X13642682Y-8001960D02*
X13661730Y-8011484D01*
X13661730Y-8011484D02*
X13699825Y-8011484D01*
X13699825Y-8011484D02*
X13718872Y-8001960D01*
X13718872Y-8001960D02*
X13728396Y-7982912D01*
X13728396Y-7982912D02*
X13728396Y-7973388D01*
X13728396Y-7973388D02*
X13718872Y-7954341D01*
X13718872Y-7954341D02*
X13699825Y-7944817D01*
X13699825Y-7944817D02*
X13671253Y-7944817D01*
X13671253Y-7944817D02*
X13652206Y-7935293D01*
X13652206Y-7935293D02*
X13642682Y-7916246D01*
X13642682Y-7916246D02*
X13642682Y-7906722D01*
X13642682Y-7906722D02*
X13652206Y-7887674D01*
X13652206Y-7887674D02*
X13671253Y-7878150D01*
X13671253Y-7878150D02*
X13699825Y-7878150D01*
X13699825Y-7878150D02*
X13718872Y-7887674D01*
X13795063Y-8087674D02*
X13804587Y-8078150D01*
X13804587Y-8078150D02*
X13823634Y-8049579D01*
X13823634Y-8049579D02*
X13833158Y-8030531D01*
X13833158Y-8030531D02*
X13842682Y-8001960D01*
X13842682Y-8001960D02*
X13852206Y-7954341D01*
X13852206Y-7954341D02*
X13852206Y-7916246D01*
X13852206Y-7916246D02*
X13842682Y-7868627D01*
X13842682Y-7868627D02*
X13833158Y-7840055D01*
X13833158Y-7840055D02*
X13823634Y-7821008D01*
X13823634Y-7821008D02*
X13804587Y-7792436D01*
X13804587Y-7792436D02*
X13795063Y-7782912D01*
D10*
X9020000Y-8184000D02*
G75*
G03*
X9020000Y-8184000I-40000J0D01*
G01*
D11*
X9318872Y-8075484D02*
X9337920Y-8075484D01*
X9337920Y-8075484D02*
X9356967Y-8085008D01*
X9356967Y-8085008D02*
X9366491Y-8094531D01*
X9366491Y-8094531D02*
X9376015Y-8113579D01*
X9376015Y-8113579D02*
X9385539Y-8151674D01*
X9385539Y-8151674D02*
X9385539Y-8199293D01*
X9385539Y-8199293D02*
X9376015Y-8237388D01*
X9376015Y-8237388D02*
X9366491Y-8256436D01*
X9366491Y-8256436D02*
X9356967Y-8265960D01*
X9356967Y-8265960D02*
X9337920Y-8275484D01*
X9337920Y-8275484D02*
X9318872Y-8275484D01*
X9318872Y-8275484D02*
X9299824Y-8265960D01*
X9299824Y-8265960D02*
X9290301Y-8256436D01*
X9290301Y-8256436D02*
X9280777Y-8237388D01*
X9280777Y-8237388D02*
X9271253Y-8199293D01*
X9271253Y-8199293D02*
X9271253Y-8151674D01*
X9271253Y-8151674D02*
X9280777Y-8113579D01*
X9280777Y-8113579D02*
X9290301Y-8094531D01*
X9290301Y-8094531D02*
X9299824Y-8085008D01*
X9299824Y-8085008D02*
X9318872Y-8075484D01*
X9471253Y-8256436D02*
X9480777Y-8265960D01*
X9480777Y-8265960D02*
X9471253Y-8275484D01*
X9471253Y-8275484D02*
X9461729Y-8265960D01*
X9461729Y-8265960D02*
X9471253Y-8256436D01*
X9471253Y-8256436D02*
X9471253Y-8275484D01*
X9595063Y-8161198D02*
X9576015Y-8151674D01*
X9576015Y-8151674D02*
X9566491Y-8142150D01*
X9566491Y-8142150D02*
X9556967Y-8123103D01*
X9556967Y-8123103D02*
X9556967Y-8113579D01*
X9556967Y-8113579D02*
X9566491Y-8094531D01*
X9566491Y-8094531D02*
X9576015Y-8085008D01*
X9576015Y-8085008D02*
X9595063Y-8075484D01*
X9595063Y-8075484D02*
X9633158Y-8075484D01*
X9633158Y-8075484D02*
X9652205Y-8085008D01*
X9652205Y-8085008D02*
X9661729Y-8094531D01*
X9661729Y-8094531D02*
X9671253Y-8113579D01*
X9671253Y-8113579D02*
X9671253Y-8123103D01*
X9671253Y-8123103D02*
X9661729Y-8142150D01*
X9661729Y-8142150D02*
X9652205Y-8151674D01*
X9652205Y-8151674D02*
X9633158Y-8161198D01*
X9633158Y-8161198D02*
X9595063Y-8161198D01*
X9595063Y-8161198D02*
X9576015Y-8170722D01*
X9576015Y-8170722D02*
X9566491Y-8180246D01*
X9566491Y-8180246D02*
X9556967Y-8199293D01*
X9556967Y-8199293D02*
X9556967Y-8237388D01*
X9556967Y-8237388D02*
X9566491Y-8256436D01*
X9566491Y-8256436D02*
X9576015Y-8265960D01*
X9576015Y-8265960D02*
X9595063Y-8275484D01*
X9595063Y-8275484D02*
X9633158Y-8275484D01*
X9633158Y-8275484D02*
X9652205Y-8265960D01*
X9652205Y-8265960D02*
X9661729Y-8256436D01*
X9661729Y-8256436D02*
X9671253Y-8237388D01*
X9671253Y-8237388D02*
X9671253Y-8199293D01*
X9671253Y-8199293D02*
X9661729Y-8180246D01*
X9661729Y-8180246D02*
X9652205Y-8170722D01*
X9652205Y-8170722D02*
X9633158Y-8161198D01*
X9795063Y-8075484D02*
X9814110Y-8075484D01*
X9814110Y-8075484D02*
X9833158Y-8085008D01*
X9833158Y-8085008D02*
X9842682Y-8094531D01*
X9842682Y-8094531D02*
X9852205Y-8113579D01*
X9852205Y-8113579D02*
X9861729Y-8151674D01*
X9861729Y-8151674D02*
X9861729Y-8199293D01*
X9861729Y-8199293D02*
X9852205Y-8237388D01*
X9852205Y-8237388D02*
X9842682Y-8256436D01*
X9842682Y-8256436D02*
X9833158Y-8265960D01*
X9833158Y-8265960D02*
X9814110Y-8275484D01*
X9814110Y-8275484D02*
X9795063Y-8275484D01*
X9795063Y-8275484D02*
X9776015Y-8265960D01*
X9776015Y-8265960D02*
X9766491Y-8256436D01*
X9766491Y-8256436D02*
X9756967Y-8237388D01*
X9756967Y-8237388D02*
X9747444Y-8199293D01*
X9747444Y-8199293D02*
X9747444Y-8151674D01*
X9747444Y-8151674D02*
X9756967Y-8113579D01*
X9756967Y-8113579D02*
X9766491Y-8094531D01*
X9766491Y-8094531D02*
X9776015Y-8085008D01*
X9776015Y-8085008D02*
X9795063Y-8075484D01*
X9985539Y-8075484D02*
X10004586Y-8075484D01*
X10004586Y-8075484D02*
X10023634Y-8085008D01*
X10023634Y-8085008D02*
X10033158Y-8094531D01*
X10033158Y-8094531D02*
X10042682Y-8113579D01*
X10042682Y-8113579D02*
X10052205Y-8151674D01*
X10052205Y-8151674D02*
X10052205Y-8199293D01*
X10052205Y-8199293D02*
X10042682Y-8237388D01*
X10042682Y-8237388D02*
X10033158Y-8256436D01*
X10033158Y-8256436D02*
X10023634Y-8265960D01*
X10023634Y-8265960D02*
X10004586Y-8275484D01*
X10004586Y-8275484D02*
X9985539Y-8275484D01*
X9985539Y-8275484D02*
X9966491Y-8265960D01*
X9966491Y-8265960D02*
X9956967Y-8256436D01*
X9956967Y-8256436D02*
X9947444Y-8237388D01*
X9947444Y-8237388D02*
X9937920Y-8199293D01*
X9937920Y-8199293D02*
X9937920Y-8151674D01*
X9937920Y-8151674D02*
X9947444Y-8113579D01*
X9947444Y-8113579D02*
X9956967Y-8094531D01*
X9956967Y-8094531D02*
X9966491Y-8085008D01*
X9966491Y-8085008D02*
X9985539Y-8075484D01*
X10137920Y-8275484D02*
X10137920Y-8142150D01*
X10137920Y-8161198D02*
X10147444Y-8151674D01*
X10147444Y-8151674D02*
X10166491Y-8142150D01*
X10166491Y-8142150D02*
X10195063Y-8142150D01*
X10195063Y-8142150D02*
X10214110Y-8151674D01*
X10214110Y-8151674D02*
X10223634Y-8170722D01*
X10223634Y-8170722D02*
X10223634Y-8275484D01*
X10223634Y-8170722D02*
X10233158Y-8151674D01*
X10233158Y-8151674D02*
X10252205Y-8142150D01*
X10252205Y-8142150D02*
X10280777Y-8142150D01*
X10280777Y-8142150D02*
X10299825Y-8151674D01*
X10299825Y-8151674D02*
X10309348Y-8170722D01*
X10309348Y-8170722D02*
X10309348Y-8275484D01*
X10404586Y-8275484D02*
X10404586Y-8142150D01*
X10404586Y-8161198D02*
X10414110Y-8151674D01*
X10414110Y-8151674D02*
X10433158Y-8142150D01*
X10433158Y-8142150D02*
X10461729Y-8142150D01*
X10461729Y-8142150D02*
X10480777Y-8151674D01*
X10480777Y-8151674D02*
X10490301Y-8170722D01*
X10490301Y-8170722D02*
X10490301Y-8275484D01*
X10490301Y-8170722D02*
X10499825Y-8151674D01*
X10499825Y-8151674D02*
X10518872Y-8142150D01*
X10518872Y-8142150D02*
X10547444Y-8142150D01*
X10547444Y-8142150D02*
X10566491Y-8151674D01*
X10566491Y-8151674D02*
X10576015Y-8170722D01*
X10576015Y-8170722D02*
X10576015Y-8275484D01*
X10966491Y-8065960D02*
X10795063Y-8323103D01*
X11223634Y-8075484D02*
X11242682Y-8075484D01*
X11242682Y-8075484D02*
X11261729Y-8085008D01*
X11261729Y-8085008D02*
X11271253Y-8094531D01*
X11271253Y-8094531D02*
X11280777Y-8113579D01*
X11280777Y-8113579D02*
X11290301Y-8151674D01*
X11290301Y-8151674D02*
X11290301Y-8199293D01*
X11290301Y-8199293D02*
X11280777Y-8237388D01*
X11280777Y-8237388D02*
X11271253Y-8256436D01*
X11271253Y-8256436D02*
X11261729Y-8265960D01*
X11261729Y-8265960D02*
X11242682Y-8275484D01*
X11242682Y-8275484D02*
X11223634Y-8275484D01*
X11223634Y-8275484D02*
X11204586Y-8265960D01*
X11204586Y-8265960D02*
X11195063Y-8256436D01*
X11195063Y-8256436D02*
X11185539Y-8237388D01*
X11185539Y-8237388D02*
X11176015Y-8199293D01*
X11176015Y-8199293D02*
X11176015Y-8151674D01*
X11176015Y-8151674D02*
X11185539Y-8113579D01*
X11185539Y-8113579D02*
X11195063Y-8094531D01*
X11195063Y-8094531D02*
X11204586Y-8085008D01*
X11204586Y-8085008D02*
X11223634Y-8075484D01*
X11376015Y-8256436D02*
X11385539Y-8265960D01*
X11385539Y-8265960D02*
X11376015Y-8275484D01*
X11376015Y-8275484D02*
X11366491Y-8265960D01*
X11366491Y-8265960D02*
X11376015Y-8256436D01*
X11376015Y-8256436D02*
X11376015Y-8275484D01*
X11509348Y-8075484D02*
X11528396Y-8075484D01*
X11528396Y-8075484D02*
X11547444Y-8085008D01*
X11547444Y-8085008D02*
X11556967Y-8094531D01*
X11556967Y-8094531D02*
X11566491Y-8113579D01*
X11566491Y-8113579D02*
X11576015Y-8151674D01*
X11576015Y-8151674D02*
X11576015Y-8199293D01*
X11576015Y-8199293D02*
X11566491Y-8237388D01*
X11566491Y-8237388D02*
X11556967Y-8256436D01*
X11556967Y-8256436D02*
X11547444Y-8265960D01*
X11547444Y-8265960D02*
X11528396Y-8275484D01*
X11528396Y-8275484D02*
X11509348Y-8275484D01*
X11509348Y-8275484D02*
X11490301Y-8265960D01*
X11490301Y-8265960D02*
X11480777Y-8256436D01*
X11480777Y-8256436D02*
X11471253Y-8237388D01*
X11471253Y-8237388D02*
X11461729Y-8199293D01*
X11461729Y-8199293D02*
X11461729Y-8151674D01*
X11461729Y-8151674D02*
X11471253Y-8113579D01*
X11471253Y-8113579D02*
X11480777Y-8094531D01*
X11480777Y-8094531D02*
X11490301Y-8085008D01*
X11490301Y-8085008D02*
X11509348Y-8075484D01*
X11642682Y-8075484D02*
X11766491Y-8075484D01*
X11766491Y-8075484D02*
X11699825Y-8151674D01*
X11699825Y-8151674D02*
X11728396Y-8151674D01*
X11728396Y-8151674D02*
X11747444Y-8161198D01*
X11747444Y-8161198D02*
X11756967Y-8170722D01*
X11756967Y-8170722D02*
X11766491Y-8189769D01*
X11766491Y-8189769D02*
X11766491Y-8237388D01*
X11766491Y-8237388D02*
X11756967Y-8256436D01*
X11756967Y-8256436D02*
X11747444Y-8265960D01*
X11747444Y-8265960D02*
X11728396Y-8275484D01*
X11728396Y-8275484D02*
X11671253Y-8275484D01*
X11671253Y-8275484D02*
X11652206Y-8265960D01*
X11652206Y-8265960D02*
X11642682Y-8256436D01*
X11956967Y-8275484D02*
X11842682Y-8275484D01*
X11899825Y-8275484D02*
X11899825Y-8075484D01*
X11899825Y-8075484D02*
X11880777Y-8104055D01*
X11880777Y-8104055D02*
X11861729Y-8123103D01*
X11861729Y-8123103D02*
X11842682Y-8132627D01*
X12137920Y-8075484D02*
X12042682Y-8075484D01*
X12042682Y-8075484D02*
X12033158Y-8170722D01*
X12033158Y-8170722D02*
X12042682Y-8161198D01*
X12042682Y-8161198D02*
X12061729Y-8151674D01*
X12061729Y-8151674D02*
X12109348Y-8151674D01*
X12109348Y-8151674D02*
X12128396Y-8161198D01*
X12128396Y-8161198D02*
X12137920Y-8170722D01*
X12137920Y-8170722D02*
X12147444Y-8189769D01*
X12147444Y-8189769D02*
X12147444Y-8237388D01*
X12147444Y-8237388D02*
X12137920Y-8256436D01*
X12137920Y-8256436D02*
X12128396Y-8265960D01*
X12128396Y-8265960D02*
X12109348Y-8275484D01*
X12109348Y-8275484D02*
X12061729Y-8275484D01*
X12061729Y-8275484D02*
X12042682Y-8265960D01*
X12042682Y-8265960D02*
X12033158Y-8256436D01*
X12223634Y-8075484D02*
X12223634Y-8113579D01*
X12299825Y-8075484D02*
X12299825Y-8113579D01*
X12595063Y-8351674D02*
X12585539Y-8342150D01*
X12585539Y-8342150D02*
X12566491Y-8313579D01*
X12566491Y-8313579D02*
X12556968Y-8294531D01*
X12556968Y-8294531D02*
X12547444Y-8265960D01*
X12547444Y-8265960D02*
X12537920Y-8218341D01*
X12537920Y-8218341D02*
X12537920Y-8180246D01*
X12537920Y-8180246D02*
X12547444Y-8132627D01*
X12547444Y-8132627D02*
X12556968Y-8104055D01*
X12556968Y-8104055D02*
X12566491Y-8085008D01*
X12566491Y-8085008D02*
X12585539Y-8056436D01*
X12585539Y-8056436D02*
X12595063Y-8046912D01*
X12652206Y-8075484D02*
X12776015Y-8075484D01*
X12776015Y-8075484D02*
X12709348Y-8151674D01*
X12709348Y-8151674D02*
X12737920Y-8151674D01*
X12737920Y-8151674D02*
X12756968Y-8161198D01*
X12756968Y-8161198D02*
X12766491Y-8170722D01*
X12766491Y-8170722D02*
X12776015Y-8189769D01*
X12776015Y-8189769D02*
X12776015Y-8237388D01*
X12776015Y-8237388D02*
X12766491Y-8256436D01*
X12766491Y-8256436D02*
X12756968Y-8265960D01*
X12756968Y-8265960D02*
X12737920Y-8275484D01*
X12737920Y-8275484D02*
X12680777Y-8275484D01*
X12680777Y-8275484D02*
X12661729Y-8265960D01*
X12661729Y-8265960D02*
X12652206Y-8256436D01*
X12890301Y-8161198D02*
X12871253Y-8151674D01*
X12871253Y-8151674D02*
X12861729Y-8142150D01*
X12861729Y-8142150D02*
X12852206Y-8123103D01*
X12852206Y-8123103D02*
X12852206Y-8113579D01*
X12852206Y-8113579D02*
X12861729Y-8094531D01*
X12861729Y-8094531D02*
X12871253Y-8085008D01*
X12871253Y-8085008D02*
X12890301Y-8075484D01*
X12890301Y-8075484D02*
X12928396Y-8075484D01*
X12928396Y-8075484D02*
X12947444Y-8085008D01*
X12947444Y-8085008D02*
X12956968Y-8094531D01*
X12956968Y-8094531D02*
X12966491Y-8113579D01*
X12966491Y-8113579D02*
X12966491Y-8123103D01*
X12966491Y-8123103D02*
X12956968Y-8142150D01*
X12956968Y-8142150D02*
X12947444Y-8151674D01*
X12947444Y-8151674D02*
X12928396Y-8161198D01*
X12928396Y-8161198D02*
X12890301Y-8161198D01*
X12890301Y-8161198D02*
X12871253Y-8170722D01*
X12871253Y-8170722D02*
X12861729Y-8180246D01*
X12861729Y-8180246D02*
X12852206Y-8199293D01*
X12852206Y-8199293D02*
X12852206Y-8237388D01*
X12852206Y-8237388D02*
X12861729Y-8256436D01*
X12861729Y-8256436D02*
X12871253Y-8265960D01*
X12871253Y-8265960D02*
X12890301Y-8275484D01*
X12890301Y-8275484D02*
X12928396Y-8275484D01*
X12928396Y-8275484D02*
X12947444Y-8265960D01*
X12947444Y-8265960D02*
X12956968Y-8256436D01*
X12956968Y-8256436D02*
X12966491Y-8237388D01*
X12966491Y-8237388D02*
X12966491Y-8199293D01*
X12966491Y-8199293D02*
X12956968Y-8180246D01*
X12956968Y-8180246D02*
X12947444Y-8170722D01*
X12947444Y-8170722D02*
X12928396Y-8161198D01*
X13204587Y-8275484D02*
X13204587Y-8075484D01*
X13290301Y-8275484D02*
X13290301Y-8170722D01*
X13290301Y-8170722D02*
X13280777Y-8151674D01*
X13280777Y-8151674D02*
X13261730Y-8142150D01*
X13261730Y-8142150D02*
X13233158Y-8142150D01*
X13233158Y-8142150D02*
X13214110Y-8151674D01*
X13214110Y-8151674D02*
X13204587Y-8161198D01*
X13414110Y-8275484D02*
X13395063Y-8265960D01*
X13395063Y-8265960D02*
X13385539Y-8256436D01*
X13385539Y-8256436D02*
X13376015Y-8237388D01*
X13376015Y-8237388D02*
X13376015Y-8180246D01*
X13376015Y-8180246D02*
X13385539Y-8161198D01*
X13385539Y-8161198D02*
X13395063Y-8151674D01*
X13395063Y-8151674D02*
X13414110Y-8142150D01*
X13414110Y-8142150D02*
X13442682Y-8142150D01*
X13442682Y-8142150D02*
X13461730Y-8151674D01*
X13461730Y-8151674D02*
X13471253Y-8161198D01*
X13471253Y-8161198D02*
X13480777Y-8180246D01*
X13480777Y-8180246D02*
X13480777Y-8237388D01*
X13480777Y-8237388D02*
X13471253Y-8256436D01*
X13471253Y-8256436D02*
X13461730Y-8265960D01*
X13461730Y-8265960D02*
X13442682Y-8275484D01*
X13442682Y-8275484D02*
X13414110Y-8275484D01*
X13595063Y-8275484D02*
X13576015Y-8265960D01*
X13576015Y-8265960D02*
X13566491Y-8246912D01*
X13566491Y-8246912D02*
X13566491Y-8075484D01*
X13747444Y-8265960D02*
X13728396Y-8275484D01*
X13728396Y-8275484D02*
X13690301Y-8275484D01*
X13690301Y-8275484D02*
X13671253Y-8265960D01*
X13671253Y-8265960D02*
X13661730Y-8246912D01*
X13661730Y-8246912D02*
X13661730Y-8170722D01*
X13661730Y-8170722D02*
X13671253Y-8151674D01*
X13671253Y-8151674D02*
X13690301Y-8142150D01*
X13690301Y-8142150D02*
X13728396Y-8142150D01*
X13728396Y-8142150D02*
X13747444Y-8151674D01*
X13747444Y-8151674D02*
X13756968Y-8170722D01*
X13756968Y-8170722D02*
X13756968Y-8189769D01*
X13756968Y-8189769D02*
X13661730Y-8208817D01*
X13833158Y-8265960D02*
X13852206Y-8275484D01*
X13852206Y-8275484D02*
X13890301Y-8275484D01*
X13890301Y-8275484D02*
X13909349Y-8265960D01*
X13909349Y-8265960D02*
X13918872Y-8246912D01*
X13918872Y-8246912D02*
X13918872Y-8237388D01*
X13918872Y-8237388D02*
X13909349Y-8218341D01*
X13909349Y-8218341D02*
X13890301Y-8208817D01*
X13890301Y-8208817D02*
X13861730Y-8208817D01*
X13861730Y-8208817D02*
X13842682Y-8199293D01*
X13842682Y-8199293D02*
X13833158Y-8180246D01*
X13833158Y-8180246D02*
X13833158Y-8170722D01*
X13833158Y-8170722D02*
X13842682Y-8151674D01*
X13842682Y-8151674D02*
X13861730Y-8142150D01*
X13861730Y-8142150D02*
X13890301Y-8142150D01*
X13890301Y-8142150D02*
X13909349Y-8151674D01*
X13985539Y-8351674D02*
X13995063Y-8342150D01*
X13995063Y-8342150D02*
X14014111Y-8313579D01*
X14014111Y-8313579D02*
X14023634Y-8294531D01*
X14023634Y-8294531D02*
X14033158Y-8265960D01*
X14033158Y-8265960D02*
X14042682Y-8218341D01*
X14042682Y-8218341D02*
X14042682Y-8180246D01*
X14042682Y-8180246D02*
X14033158Y-8132627D01*
X14033158Y-8132627D02*
X14023634Y-8104055D01*
X14023634Y-8104055D02*
X14014111Y-8085008D01*
X14014111Y-8085008D02*
X13995063Y-8056436D01*
X13995063Y-8056436D02*
X13985539Y-8046912D01*
D10*
X8970000Y-8398000D02*
X8970000Y-8498000D01*
X8920000Y-8448000D02*
X9020000Y-8448000D01*
D11*
X9385539Y-8539484D02*
X9271253Y-8539484D01*
X9328396Y-8539484D02*
X9328396Y-8339484D01*
X9328396Y-8339484D02*
X9309348Y-8368055D01*
X9309348Y-8368055D02*
X9290301Y-8387103D01*
X9290301Y-8387103D02*
X9271253Y-8396627D01*
X9471253Y-8520436D02*
X9480777Y-8529960D01*
X9480777Y-8529960D02*
X9471253Y-8539484D01*
X9471253Y-8539484D02*
X9461729Y-8529960D01*
X9461729Y-8529960D02*
X9471253Y-8520436D01*
X9471253Y-8520436D02*
X9471253Y-8539484D01*
X9604586Y-8339484D02*
X9623634Y-8339484D01*
X9623634Y-8339484D02*
X9642682Y-8349008D01*
X9642682Y-8349008D02*
X9652205Y-8358531D01*
X9652205Y-8358531D02*
X9661729Y-8377579D01*
X9661729Y-8377579D02*
X9671253Y-8415674D01*
X9671253Y-8415674D02*
X9671253Y-8463293D01*
X9671253Y-8463293D02*
X9661729Y-8501389D01*
X9661729Y-8501389D02*
X9652205Y-8520436D01*
X9652205Y-8520436D02*
X9642682Y-8529960D01*
X9642682Y-8529960D02*
X9623634Y-8539484D01*
X9623634Y-8539484D02*
X9604586Y-8539484D01*
X9604586Y-8539484D02*
X9585539Y-8529960D01*
X9585539Y-8529960D02*
X9576015Y-8520436D01*
X9576015Y-8520436D02*
X9566491Y-8501389D01*
X9566491Y-8501389D02*
X9556967Y-8463293D01*
X9556967Y-8463293D02*
X9556967Y-8415674D01*
X9556967Y-8415674D02*
X9566491Y-8377579D01*
X9566491Y-8377579D02*
X9576015Y-8358531D01*
X9576015Y-8358531D02*
X9585539Y-8349008D01*
X9585539Y-8349008D02*
X9604586Y-8339484D01*
X9795063Y-8339484D02*
X9814110Y-8339484D01*
X9814110Y-8339484D02*
X9833158Y-8349008D01*
X9833158Y-8349008D02*
X9842682Y-8358531D01*
X9842682Y-8358531D02*
X9852205Y-8377579D01*
X9852205Y-8377579D02*
X9861729Y-8415674D01*
X9861729Y-8415674D02*
X9861729Y-8463293D01*
X9861729Y-8463293D02*
X9852205Y-8501389D01*
X9852205Y-8501389D02*
X9842682Y-8520436D01*
X9842682Y-8520436D02*
X9833158Y-8529960D01*
X9833158Y-8529960D02*
X9814110Y-8539484D01*
X9814110Y-8539484D02*
X9795063Y-8539484D01*
X9795063Y-8539484D02*
X9776015Y-8529960D01*
X9776015Y-8529960D02*
X9766491Y-8520436D01*
X9766491Y-8520436D02*
X9756967Y-8501389D01*
X9756967Y-8501389D02*
X9747444Y-8463293D01*
X9747444Y-8463293D02*
X9747444Y-8415674D01*
X9747444Y-8415674D02*
X9756967Y-8377579D01*
X9756967Y-8377579D02*
X9766491Y-8358531D01*
X9766491Y-8358531D02*
X9776015Y-8349008D01*
X9776015Y-8349008D02*
X9795063Y-8339484D01*
X9985539Y-8339484D02*
X10004586Y-8339484D01*
X10004586Y-8339484D02*
X10023634Y-8349008D01*
X10023634Y-8349008D02*
X10033158Y-8358531D01*
X10033158Y-8358531D02*
X10042682Y-8377579D01*
X10042682Y-8377579D02*
X10052205Y-8415674D01*
X10052205Y-8415674D02*
X10052205Y-8463293D01*
X10052205Y-8463293D02*
X10042682Y-8501389D01*
X10042682Y-8501389D02*
X10033158Y-8520436D01*
X10033158Y-8520436D02*
X10023634Y-8529960D01*
X10023634Y-8529960D02*
X10004586Y-8539484D01*
X10004586Y-8539484D02*
X9985539Y-8539484D01*
X9985539Y-8539484D02*
X9966491Y-8529960D01*
X9966491Y-8529960D02*
X9956967Y-8520436D01*
X9956967Y-8520436D02*
X9947444Y-8501389D01*
X9947444Y-8501389D02*
X9937920Y-8463293D01*
X9937920Y-8463293D02*
X9937920Y-8415674D01*
X9937920Y-8415674D02*
X9947444Y-8377579D01*
X9947444Y-8377579D02*
X9956967Y-8358531D01*
X9956967Y-8358531D02*
X9966491Y-8349008D01*
X9966491Y-8349008D02*
X9985539Y-8339484D01*
X10137920Y-8539484D02*
X10137920Y-8406150D01*
X10137920Y-8425198D02*
X10147444Y-8415674D01*
X10147444Y-8415674D02*
X10166491Y-8406150D01*
X10166491Y-8406150D02*
X10195063Y-8406150D01*
X10195063Y-8406150D02*
X10214110Y-8415674D01*
X10214110Y-8415674D02*
X10223634Y-8434722D01*
X10223634Y-8434722D02*
X10223634Y-8539484D01*
X10223634Y-8434722D02*
X10233158Y-8415674D01*
X10233158Y-8415674D02*
X10252205Y-8406150D01*
X10252205Y-8406150D02*
X10280777Y-8406150D01*
X10280777Y-8406150D02*
X10299825Y-8415674D01*
X10299825Y-8415674D02*
X10309348Y-8434722D01*
X10309348Y-8434722D02*
X10309348Y-8539484D01*
X10404586Y-8539484D02*
X10404586Y-8406150D01*
X10404586Y-8425198D02*
X10414110Y-8415674D01*
X10414110Y-8415674D02*
X10433158Y-8406150D01*
X10433158Y-8406150D02*
X10461729Y-8406150D01*
X10461729Y-8406150D02*
X10480777Y-8415674D01*
X10480777Y-8415674D02*
X10490301Y-8434722D01*
X10490301Y-8434722D02*
X10490301Y-8539484D01*
X10490301Y-8434722D02*
X10499825Y-8415674D01*
X10499825Y-8415674D02*
X10518872Y-8406150D01*
X10518872Y-8406150D02*
X10547444Y-8406150D01*
X10547444Y-8406150D02*
X10566491Y-8415674D01*
X10566491Y-8415674D02*
X10576015Y-8434722D01*
X10576015Y-8434722D02*
X10576015Y-8539484D01*
X10966491Y-8329960D02*
X10795063Y-8587103D01*
X11223634Y-8339484D02*
X11242682Y-8339484D01*
X11242682Y-8339484D02*
X11261729Y-8349008D01*
X11261729Y-8349008D02*
X11271253Y-8358531D01*
X11271253Y-8358531D02*
X11280777Y-8377579D01*
X11280777Y-8377579D02*
X11290301Y-8415674D01*
X11290301Y-8415674D02*
X11290301Y-8463293D01*
X11290301Y-8463293D02*
X11280777Y-8501389D01*
X11280777Y-8501389D02*
X11271253Y-8520436D01*
X11271253Y-8520436D02*
X11261729Y-8529960D01*
X11261729Y-8529960D02*
X11242682Y-8539484D01*
X11242682Y-8539484D02*
X11223634Y-8539484D01*
X11223634Y-8539484D02*
X11204586Y-8529960D01*
X11204586Y-8529960D02*
X11195063Y-8520436D01*
X11195063Y-8520436D02*
X11185539Y-8501389D01*
X11185539Y-8501389D02*
X11176015Y-8463293D01*
X11176015Y-8463293D02*
X11176015Y-8415674D01*
X11176015Y-8415674D02*
X11185539Y-8377579D01*
X11185539Y-8377579D02*
X11195063Y-8358531D01*
X11195063Y-8358531D02*
X11204586Y-8349008D01*
X11204586Y-8349008D02*
X11223634Y-8339484D01*
X11376015Y-8520436D02*
X11385539Y-8529960D01*
X11385539Y-8529960D02*
X11376015Y-8539484D01*
X11376015Y-8539484D02*
X11366491Y-8529960D01*
X11366491Y-8529960D02*
X11376015Y-8520436D01*
X11376015Y-8520436D02*
X11376015Y-8539484D01*
X11509348Y-8339484D02*
X11528396Y-8339484D01*
X11528396Y-8339484D02*
X11547444Y-8349008D01*
X11547444Y-8349008D02*
X11556967Y-8358531D01*
X11556967Y-8358531D02*
X11566491Y-8377579D01*
X11566491Y-8377579D02*
X11576015Y-8415674D01*
X11576015Y-8415674D02*
X11576015Y-8463293D01*
X11576015Y-8463293D02*
X11566491Y-8501389D01*
X11566491Y-8501389D02*
X11556967Y-8520436D01*
X11556967Y-8520436D02*
X11547444Y-8529960D01*
X11547444Y-8529960D02*
X11528396Y-8539484D01*
X11528396Y-8539484D02*
X11509348Y-8539484D01*
X11509348Y-8539484D02*
X11490301Y-8529960D01*
X11490301Y-8529960D02*
X11480777Y-8520436D01*
X11480777Y-8520436D02*
X11471253Y-8501389D01*
X11471253Y-8501389D02*
X11461729Y-8463293D01*
X11461729Y-8463293D02*
X11461729Y-8415674D01*
X11461729Y-8415674D02*
X11471253Y-8377579D01*
X11471253Y-8377579D02*
X11480777Y-8358531D01*
X11480777Y-8358531D02*
X11490301Y-8349008D01*
X11490301Y-8349008D02*
X11509348Y-8339484D01*
X11642682Y-8339484D02*
X11766491Y-8339484D01*
X11766491Y-8339484D02*
X11699825Y-8415674D01*
X11699825Y-8415674D02*
X11728396Y-8415674D01*
X11728396Y-8415674D02*
X11747444Y-8425198D01*
X11747444Y-8425198D02*
X11756967Y-8434722D01*
X11756967Y-8434722D02*
X11766491Y-8453770D01*
X11766491Y-8453770D02*
X11766491Y-8501389D01*
X11766491Y-8501389D02*
X11756967Y-8520436D01*
X11756967Y-8520436D02*
X11747444Y-8529960D01*
X11747444Y-8529960D02*
X11728396Y-8539484D01*
X11728396Y-8539484D02*
X11671253Y-8539484D01*
X11671253Y-8539484D02*
X11652206Y-8529960D01*
X11652206Y-8529960D02*
X11642682Y-8520436D01*
X11861729Y-8539484D02*
X11899825Y-8539484D01*
X11899825Y-8539484D02*
X11918872Y-8529960D01*
X11918872Y-8529960D02*
X11928396Y-8520436D01*
X11928396Y-8520436D02*
X11947444Y-8491865D01*
X11947444Y-8491865D02*
X11956967Y-8453770D01*
X11956967Y-8453770D02*
X11956967Y-8377579D01*
X11956967Y-8377579D02*
X11947444Y-8358531D01*
X11947444Y-8358531D02*
X11937920Y-8349008D01*
X11937920Y-8349008D02*
X11918872Y-8339484D01*
X11918872Y-8339484D02*
X11880777Y-8339484D01*
X11880777Y-8339484D02*
X11861729Y-8349008D01*
X11861729Y-8349008D02*
X11852206Y-8358531D01*
X11852206Y-8358531D02*
X11842682Y-8377579D01*
X11842682Y-8377579D02*
X11842682Y-8425198D01*
X11842682Y-8425198D02*
X11852206Y-8444246D01*
X11852206Y-8444246D02*
X11861729Y-8453770D01*
X11861729Y-8453770D02*
X11880777Y-8463293D01*
X11880777Y-8463293D02*
X11918872Y-8463293D01*
X11918872Y-8463293D02*
X11937920Y-8453770D01*
X11937920Y-8453770D02*
X11947444Y-8444246D01*
X11947444Y-8444246D02*
X11956967Y-8425198D01*
X12128396Y-8406150D02*
X12128396Y-8539484D01*
X12080777Y-8329960D02*
X12033158Y-8472817D01*
X12033158Y-8472817D02*
X12156967Y-8472817D01*
X12223634Y-8339484D02*
X12223634Y-8377579D01*
X12299825Y-8339484D02*
X12299825Y-8377579D01*
X12595063Y-8615674D02*
X12585539Y-8606150D01*
X12585539Y-8606150D02*
X12566491Y-8577579D01*
X12566491Y-8577579D02*
X12556968Y-8558531D01*
X12556968Y-8558531D02*
X12547444Y-8529960D01*
X12547444Y-8529960D02*
X12537920Y-8482341D01*
X12537920Y-8482341D02*
X12537920Y-8444246D01*
X12537920Y-8444246D02*
X12547444Y-8396627D01*
X12547444Y-8396627D02*
X12556968Y-8368055D01*
X12556968Y-8368055D02*
X12566491Y-8349008D01*
X12566491Y-8349008D02*
X12585539Y-8320436D01*
X12585539Y-8320436D02*
X12595063Y-8310912D01*
X12661729Y-8358531D02*
X12671253Y-8349008D01*
X12671253Y-8349008D02*
X12690301Y-8339484D01*
X12690301Y-8339484D02*
X12737920Y-8339484D01*
X12737920Y-8339484D02*
X12756968Y-8349008D01*
X12756968Y-8349008D02*
X12766491Y-8358531D01*
X12766491Y-8358531D02*
X12776015Y-8377579D01*
X12776015Y-8377579D02*
X12776015Y-8396627D01*
X12776015Y-8396627D02*
X12766491Y-8425198D01*
X12766491Y-8425198D02*
X12652206Y-8539484D01*
X12652206Y-8539484D02*
X12776015Y-8539484D01*
X12842682Y-8339484D02*
X12976015Y-8339484D01*
X12976015Y-8339484D02*
X12890301Y-8539484D01*
X13204587Y-8539484D02*
X13204587Y-8339484D01*
X13290301Y-8539484D02*
X13290301Y-8434722D01*
X13290301Y-8434722D02*
X13280777Y-8415674D01*
X13280777Y-8415674D02*
X13261730Y-8406150D01*
X13261730Y-8406150D02*
X13233158Y-8406150D01*
X13233158Y-8406150D02*
X13214110Y-8415674D01*
X13214110Y-8415674D02*
X13204587Y-8425198D01*
X13414110Y-8539484D02*
X13395063Y-8529960D01*
X13395063Y-8529960D02*
X13385539Y-8520436D01*
X13385539Y-8520436D02*
X13376015Y-8501389D01*
X13376015Y-8501389D02*
X13376015Y-8444246D01*
X13376015Y-8444246D02*
X13385539Y-8425198D01*
X13385539Y-8425198D02*
X13395063Y-8415674D01*
X13395063Y-8415674D02*
X13414110Y-8406150D01*
X13414110Y-8406150D02*
X13442682Y-8406150D01*
X13442682Y-8406150D02*
X13461730Y-8415674D01*
X13461730Y-8415674D02*
X13471253Y-8425198D01*
X13471253Y-8425198D02*
X13480777Y-8444246D01*
X13480777Y-8444246D02*
X13480777Y-8501389D01*
X13480777Y-8501389D02*
X13471253Y-8520436D01*
X13471253Y-8520436D02*
X13461730Y-8529960D01*
X13461730Y-8529960D02*
X13442682Y-8539484D01*
X13442682Y-8539484D02*
X13414110Y-8539484D01*
X13595063Y-8539484D02*
X13576015Y-8529960D01*
X13576015Y-8529960D02*
X13566491Y-8510912D01*
X13566491Y-8510912D02*
X13566491Y-8339484D01*
X13747444Y-8529960D02*
X13728396Y-8539484D01*
X13728396Y-8539484D02*
X13690301Y-8539484D01*
X13690301Y-8539484D02*
X13671253Y-8529960D01*
X13671253Y-8529960D02*
X13661730Y-8510912D01*
X13661730Y-8510912D02*
X13661730Y-8434722D01*
X13661730Y-8434722D02*
X13671253Y-8415674D01*
X13671253Y-8415674D02*
X13690301Y-8406150D01*
X13690301Y-8406150D02*
X13728396Y-8406150D01*
X13728396Y-8406150D02*
X13747444Y-8415674D01*
X13747444Y-8415674D02*
X13756968Y-8434722D01*
X13756968Y-8434722D02*
X13756968Y-8453770D01*
X13756968Y-8453770D02*
X13661730Y-8472817D01*
X13833158Y-8529960D02*
X13852206Y-8539484D01*
X13852206Y-8539484D02*
X13890301Y-8539484D01*
X13890301Y-8539484D02*
X13909349Y-8529960D01*
X13909349Y-8529960D02*
X13918872Y-8510912D01*
X13918872Y-8510912D02*
X13918872Y-8501389D01*
X13918872Y-8501389D02*
X13909349Y-8482341D01*
X13909349Y-8482341D02*
X13890301Y-8472817D01*
X13890301Y-8472817D02*
X13861730Y-8472817D01*
X13861730Y-8472817D02*
X13842682Y-8463293D01*
X13842682Y-8463293D02*
X13833158Y-8444246D01*
X13833158Y-8444246D02*
X13833158Y-8434722D01*
X13833158Y-8434722D02*
X13842682Y-8415674D01*
X13842682Y-8415674D02*
X13861730Y-8406150D01*
X13861730Y-8406150D02*
X13890301Y-8406150D01*
X13890301Y-8406150D02*
X13909349Y-8415674D01*
X13985539Y-8615674D02*
X13995063Y-8606150D01*
X13995063Y-8606150D02*
X14014111Y-8577579D01*
X14014111Y-8577579D02*
X14023634Y-8558531D01*
X14023634Y-8558531D02*
X14033158Y-8529960D01*
X14033158Y-8529960D02*
X14042682Y-8482341D01*
X14042682Y-8482341D02*
X14042682Y-8444246D01*
X14042682Y-8444246D02*
X14033158Y-8396627D01*
X14033158Y-8396627D02*
X14023634Y-8368055D01*
X14023634Y-8368055D02*
X14014111Y-8349008D01*
X14014111Y-8349008D02*
X13995063Y-8320436D01*
X13995063Y-8320436D02*
X13985539Y-8310912D01*
D12*
X9003891Y-8750891D02*
X9003891Y-8673109D01*
X8926109Y-8673109D01*
X8926109Y-8750891D01*
X9003891Y-8750891D01*
D11*
X9385539Y-8803484D02*
X9271253Y-8803484D01*
X9328396Y-8803484D02*
X9328396Y-8603484D01*
X9328396Y-8603484D02*
X9309348Y-8632055D01*
X9309348Y-8632055D02*
X9290301Y-8651103D01*
X9290301Y-8651103D02*
X9271253Y-8660627D01*
X9471253Y-8784436D02*
X9480777Y-8793960D01*
X9480777Y-8793960D02*
X9471253Y-8803484D01*
X9471253Y-8803484D02*
X9461729Y-8793960D01*
X9461729Y-8793960D02*
X9471253Y-8784436D01*
X9471253Y-8784436D02*
X9471253Y-8803484D01*
X9671253Y-8803484D02*
X9556967Y-8803484D01*
X9614110Y-8803484D02*
X9614110Y-8603484D01*
X9614110Y-8603484D02*
X9595063Y-8632055D01*
X9595063Y-8632055D02*
X9576015Y-8651103D01*
X9576015Y-8651103D02*
X9556967Y-8660627D01*
X9795063Y-8603484D02*
X9814110Y-8603484D01*
X9814110Y-8603484D02*
X9833158Y-8613008D01*
X9833158Y-8613008D02*
X9842682Y-8622531D01*
X9842682Y-8622531D02*
X9852205Y-8641579D01*
X9852205Y-8641579D02*
X9861729Y-8679674D01*
X9861729Y-8679674D02*
X9861729Y-8727293D01*
X9861729Y-8727293D02*
X9852205Y-8765389D01*
X9852205Y-8765389D02*
X9842682Y-8784436D01*
X9842682Y-8784436D02*
X9833158Y-8793960D01*
X9833158Y-8793960D02*
X9814110Y-8803484D01*
X9814110Y-8803484D02*
X9795063Y-8803484D01*
X9795063Y-8803484D02*
X9776015Y-8793960D01*
X9776015Y-8793960D02*
X9766491Y-8784436D01*
X9766491Y-8784436D02*
X9756967Y-8765389D01*
X9756967Y-8765389D02*
X9747444Y-8727293D01*
X9747444Y-8727293D02*
X9747444Y-8679674D01*
X9747444Y-8679674D02*
X9756967Y-8641579D01*
X9756967Y-8641579D02*
X9766491Y-8622531D01*
X9766491Y-8622531D02*
X9776015Y-8613008D01*
X9776015Y-8613008D02*
X9795063Y-8603484D01*
X9985539Y-8603484D02*
X10004586Y-8603484D01*
X10004586Y-8603484D02*
X10023634Y-8613008D01*
X10023634Y-8613008D02*
X10033158Y-8622531D01*
X10033158Y-8622531D02*
X10042682Y-8641579D01*
X10042682Y-8641579D02*
X10052205Y-8679674D01*
X10052205Y-8679674D02*
X10052205Y-8727293D01*
X10052205Y-8727293D02*
X10042682Y-8765389D01*
X10042682Y-8765389D02*
X10033158Y-8784436D01*
X10033158Y-8784436D02*
X10023634Y-8793960D01*
X10023634Y-8793960D02*
X10004586Y-8803484D01*
X10004586Y-8803484D02*
X9985539Y-8803484D01*
X9985539Y-8803484D02*
X9966491Y-8793960D01*
X9966491Y-8793960D02*
X9956967Y-8784436D01*
X9956967Y-8784436D02*
X9947444Y-8765389D01*
X9947444Y-8765389D02*
X9937920Y-8727293D01*
X9937920Y-8727293D02*
X9937920Y-8679674D01*
X9937920Y-8679674D02*
X9947444Y-8641579D01*
X9947444Y-8641579D02*
X9956967Y-8622531D01*
X9956967Y-8622531D02*
X9966491Y-8613008D01*
X9966491Y-8613008D02*
X9985539Y-8603484D01*
X10137920Y-8803484D02*
X10137920Y-8670150D01*
X10137920Y-8689198D02*
X10147444Y-8679674D01*
X10147444Y-8679674D02*
X10166491Y-8670150D01*
X10166491Y-8670150D02*
X10195063Y-8670150D01*
X10195063Y-8670150D02*
X10214110Y-8679674D01*
X10214110Y-8679674D02*
X10223634Y-8698722D01*
X10223634Y-8698722D02*
X10223634Y-8803484D01*
X10223634Y-8698722D02*
X10233158Y-8679674D01*
X10233158Y-8679674D02*
X10252205Y-8670150D01*
X10252205Y-8670150D02*
X10280777Y-8670150D01*
X10280777Y-8670150D02*
X10299825Y-8679674D01*
X10299825Y-8679674D02*
X10309348Y-8698722D01*
X10309348Y-8698722D02*
X10309348Y-8803484D01*
X10404586Y-8803484D02*
X10404586Y-8670150D01*
X10404586Y-8689198D02*
X10414110Y-8679674D01*
X10414110Y-8679674D02*
X10433158Y-8670150D01*
X10433158Y-8670150D02*
X10461729Y-8670150D01*
X10461729Y-8670150D02*
X10480777Y-8679674D01*
X10480777Y-8679674D02*
X10490301Y-8698722D01*
X10490301Y-8698722D02*
X10490301Y-8803484D01*
X10490301Y-8698722D02*
X10499825Y-8679674D01*
X10499825Y-8679674D02*
X10518872Y-8670150D01*
X10518872Y-8670150D02*
X10547444Y-8670150D01*
X10547444Y-8670150D02*
X10566491Y-8679674D01*
X10566491Y-8679674D02*
X10576015Y-8698722D01*
X10576015Y-8698722D02*
X10576015Y-8803484D01*
X10966491Y-8593960D02*
X10795063Y-8851103D01*
X11223634Y-8603484D02*
X11242682Y-8603484D01*
X11242682Y-8603484D02*
X11261729Y-8613008D01*
X11261729Y-8613008D02*
X11271253Y-8622531D01*
X11271253Y-8622531D02*
X11280777Y-8641579D01*
X11280777Y-8641579D02*
X11290301Y-8679674D01*
X11290301Y-8679674D02*
X11290301Y-8727293D01*
X11290301Y-8727293D02*
X11280777Y-8765389D01*
X11280777Y-8765389D02*
X11271253Y-8784436D01*
X11271253Y-8784436D02*
X11261729Y-8793960D01*
X11261729Y-8793960D02*
X11242682Y-8803484D01*
X11242682Y-8803484D02*
X11223634Y-8803484D01*
X11223634Y-8803484D02*
X11204586Y-8793960D01*
X11204586Y-8793960D02*
X11195063Y-8784436D01*
X11195063Y-8784436D02*
X11185539Y-8765389D01*
X11185539Y-8765389D02*
X11176015Y-8727293D01*
X11176015Y-8727293D02*
X11176015Y-8679674D01*
X11176015Y-8679674D02*
X11185539Y-8641579D01*
X11185539Y-8641579D02*
X11195063Y-8622531D01*
X11195063Y-8622531D02*
X11204586Y-8613008D01*
X11204586Y-8613008D02*
X11223634Y-8603484D01*
X11376015Y-8784436D02*
X11385539Y-8793960D01*
X11385539Y-8793960D02*
X11376015Y-8803484D01*
X11376015Y-8803484D02*
X11366491Y-8793960D01*
X11366491Y-8793960D02*
X11376015Y-8784436D01*
X11376015Y-8784436D02*
X11376015Y-8803484D01*
X11509348Y-8603484D02*
X11528396Y-8603484D01*
X11528396Y-8603484D02*
X11547444Y-8613008D01*
X11547444Y-8613008D02*
X11556967Y-8622531D01*
X11556967Y-8622531D02*
X11566491Y-8641579D01*
X11566491Y-8641579D02*
X11576015Y-8679674D01*
X11576015Y-8679674D02*
X11576015Y-8727293D01*
X11576015Y-8727293D02*
X11566491Y-8765389D01*
X11566491Y-8765389D02*
X11556967Y-8784436D01*
X11556967Y-8784436D02*
X11547444Y-8793960D01*
X11547444Y-8793960D02*
X11528396Y-8803484D01*
X11528396Y-8803484D02*
X11509348Y-8803484D01*
X11509348Y-8803484D02*
X11490301Y-8793960D01*
X11490301Y-8793960D02*
X11480777Y-8784436D01*
X11480777Y-8784436D02*
X11471253Y-8765389D01*
X11471253Y-8765389D02*
X11461729Y-8727293D01*
X11461729Y-8727293D02*
X11461729Y-8679674D01*
X11461729Y-8679674D02*
X11471253Y-8641579D01*
X11471253Y-8641579D02*
X11480777Y-8622531D01*
X11480777Y-8622531D02*
X11490301Y-8613008D01*
X11490301Y-8613008D02*
X11509348Y-8603484D01*
X11747444Y-8670150D02*
X11747444Y-8803484D01*
X11699825Y-8593960D02*
X11652206Y-8736817D01*
X11652206Y-8736817D02*
X11776015Y-8736817D01*
X11833158Y-8603484D02*
X11956967Y-8603484D01*
X11956967Y-8603484D02*
X11890301Y-8679674D01*
X11890301Y-8679674D02*
X11918872Y-8679674D01*
X11918872Y-8679674D02*
X11937920Y-8689198D01*
X11937920Y-8689198D02*
X11947444Y-8698722D01*
X11947444Y-8698722D02*
X11956967Y-8717770D01*
X11956967Y-8717770D02*
X11956967Y-8765389D01*
X11956967Y-8765389D02*
X11947444Y-8784436D01*
X11947444Y-8784436D02*
X11937920Y-8793960D01*
X11937920Y-8793960D02*
X11918872Y-8803484D01*
X11918872Y-8803484D02*
X11861729Y-8803484D01*
X11861729Y-8803484D02*
X11842682Y-8793960D01*
X11842682Y-8793960D02*
X11833158Y-8784436D01*
X12023634Y-8603484D02*
X12147444Y-8603484D01*
X12147444Y-8603484D02*
X12080777Y-8679674D01*
X12080777Y-8679674D02*
X12109348Y-8679674D01*
X12109348Y-8679674D02*
X12128396Y-8689198D01*
X12128396Y-8689198D02*
X12137920Y-8698722D01*
X12137920Y-8698722D02*
X12147444Y-8717770D01*
X12147444Y-8717770D02*
X12147444Y-8765389D01*
X12147444Y-8765389D02*
X12137920Y-8784436D01*
X12137920Y-8784436D02*
X12128396Y-8793960D01*
X12128396Y-8793960D02*
X12109348Y-8803484D01*
X12109348Y-8803484D02*
X12052206Y-8803484D01*
X12052206Y-8803484D02*
X12033158Y-8793960D01*
X12033158Y-8793960D02*
X12023634Y-8784436D01*
X12223634Y-8603484D02*
X12223634Y-8641579D01*
X12299825Y-8603484D02*
X12299825Y-8641579D01*
X12595063Y-8879674D02*
X12585539Y-8870150D01*
X12585539Y-8870150D02*
X12566491Y-8841579D01*
X12566491Y-8841579D02*
X12556968Y-8822531D01*
X12556968Y-8822531D02*
X12547444Y-8793960D01*
X12547444Y-8793960D02*
X12537920Y-8746341D01*
X12537920Y-8746341D02*
X12537920Y-8708246D01*
X12537920Y-8708246D02*
X12547444Y-8660627D01*
X12547444Y-8660627D02*
X12556968Y-8632055D01*
X12556968Y-8632055D02*
X12566491Y-8613008D01*
X12566491Y-8613008D02*
X12585539Y-8584436D01*
X12585539Y-8584436D02*
X12595063Y-8574912D01*
X12652206Y-8603484D02*
X12776015Y-8603484D01*
X12776015Y-8603484D02*
X12709348Y-8679674D01*
X12709348Y-8679674D02*
X12737920Y-8679674D01*
X12737920Y-8679674D02*
X12756968Y-8689198D01*
X12756968Y-8689198D02*
X12766491Y-8698722D01*
X12766491Y-8698722D02*
X12776015Y-8717770D01*
X12776015Y-8717770D02*
X12776015Y-8765389D01*
X12776015Y-8765389D02*
X12766491Y-8784436D01*
X12766491Y-8784436D02*
X12756968Y-8793960D01*
X12756968Y-8793960D02*
X12737920Y-8803484D01*
X12737920Y-8803484D02*
X12680777Y-8803484D01*
X12680777Y-8803484D02*
X12661729Y-8793960D01*
X12661729Y-8793960D02*
X12652206Y-8784436D01*
X13014110Y-8803484D02*
X13014110Y-8603484D01*
X13099825Y-8803484D02*
X13099825Y-8698722D01*
X13099825Y-8698722D02*
X13090301Y-8679674D01*
X13090301Y-8679674D02*
X13071253Y-8670150D01*
X13071253Y-8670150D02*
X13042682Y-8670150D01*
X13042682Y-8670150D02*
X13023634Y-8679674D01*
X13023634Y-8679674D02*
X13014110Y-8689198D01*
X13223634Y-8803484D02*
X13204587Y-8793960D01*
X13204587Y-8793960D02*
X13195063Y-8784436D01*
X13195063Y-8784436D02*
X13185539Y-8765389D01*
X13185539Y-8765389D02*
X13185539Y-8708246D01*
X13185539Y-8708246D02*
X13195063Y-8689198D01*
X13195063Y-8689198D02*
X13204587Y-8679674D01*
X13204587Y-8679674D02*
X13223634Y-8670150D01*
X13223634Y-8670150D02*
X13252206Y-8670150D01*
X13252206Y-8670150D02*
X13271253Y-8679674D01*
X13271253Y-8679674D02*
X13280777Y-8689198D01*
X13280777Y-8689198D02*
X13290301Y-8708246D01*
X13290301Y-8708246D02*
X13290301Y-8765389D01*
X13290301Y-8765389D02*
X13280777Y-8784436D01*
X13280777Y-8784436D02*
X13271253Y-8793960D01*
X13271253Y-8793960D02*
X13252206Y-8803484D01*
X13252206Y-8803484D02*
X13223634Y-8803484D01*
X13404587Y-8803484D02*
X13385539Y-8793960D01*
X13385539Y-8793960D02*
X13376015Y-8774912D01*
X13376015Y-8774912D02*
X13376015Y-8603484D01*
X13556968Y-8793960D02*
X13537920Y-8803484D01*
X13537920Y-8803484D02*
X13499825Y-8803484D01*
X13499825Y-8803484D02*
X13480777Y-8793960D01*
X13480777Y-8793960D02*
X13471253Y-8774912D01*
X13471253Y-8774912D02*
X13471253Y-8698722D01*
X13471253Y-8698722D02*
X13480777Y-8679674D01*
X13480777Y-8679674D02*
X13499825Y-8670150D01*
X13499825Y-8670150D02*
X13537920Y-8670150D01*
X13537920Y-8670150D02*
X13556968Y-8679674D01*
X13556968Y-8679674D02*
X13566491Y-8698722D01*
X13566491Y-8698722D02*
X13566491Y-8717770D01*
X13566491Y-8717770D02*
X13471253Y-8736817D01*
X13642682Y-8793960D02*
X13661730Y-8803484D01*
X13661730Y-8803484D02*
X13699825Y-8803484D01*
X13699825Y-8803484D02*
X13718872Y-8793960D01*
X13718872Y-8793960D02*
X13728396Y-8774912D01*
X13728396Y-8774912D02*
X13728396Y-8765389D01*
X13728396Y-8765389D02*
X13718872Y-8746341D01*
X13718872Y-8746341D02*
X13699825Y-8736817D01*
X13699825Y-8736817D02*
X13671253Y-8736817D01*
X13671253Y-8736817D02*
X13652206Y-8727293D01*
X13652206Y-8727293D02*
X13642682Y-8708246D01*
X13642682Y-8708246D02*
X13642682Y-8698722D01*
X13642682Y-8698722D02*
X13652206Y-8679674D01*
X13652206Y-8679674D02*
X13671253Y-8670150D01*
X13671253Y-8670150D02*
X13699825Y-8670150D01*
X13699825Y-8670150D02*
X13718872Y-8679674D01*
X13795063Y-8879674D02*
X13804587Y-8870150D01*
X13804587Y-8870150D02*
X13823634Y-8841579D01*
X13823634Y-8841579D02*
X13833158Y-8822531D01*
X13833158Y-8822531D02*
X13842682Y-8793960D01*
X13842682Y-8793960D02*
X13852206Y-8746341D01*
X13852206Y-8746341D02*
X13852206Y-8708246D01*
X13852206Y-8708246D02*
X13842682Y-8660627D01*
X13842682Y-8660627D02*
X13833158Y-8632055D01*
X13833158Y-8632055D02*
X13823634Y-8613008D01*
X13823634Y-8613008D02*
X13804587Y-8584436D01*
X13804587Y-8584436D02*
X13795063Y-8574912D01*
M02*
