%TF.GenerationSoftware,KiCad,Pcbnew,7.0.9*%
%TF.CreationDate,2024-06-30T00:12:16-04:00*%
%TF.ProjectId,Loop Board 3 Jackless Output,4c6f6f70-2042-46f6-9172-642033204a61,rev?*%
%TF.SameCoordinates,Original*%
%TF.FileFunction,Copper,L1,Top*%
%TF.FilePolarity,Positive*%
%FSLAX46Y46*%
G04 Gerber Fmt 4.6, Leading zero omitted, Abs format (unit mm)*
G04 Created by KiCad (PCBNEW 7.0.9) date 2024-06-30 00:12:16*
%MOMM*%
%LPD*%
G01*
G04 APERTURE LIST*
G04 Aperture macros list*
%AMRoundRect*
0 Rectangle with rounded corners*
0 $1 Rounding radius*
0 $2 $3 $4 $5 $6 $7 $8 $9 X,Y pos of 4 corners*
0 Add a 4 corners polygon primitive as box body*
4,1,4,$2,$3,$4,$5,$6,$7,$8,$9,$2,$3,0*
0 Add four circle primitives for the rounded corners*
1,1,$1+$1,$2,$3*
1,1,$1+$1,$4,$5*
1,1,$1+$1,$6,$7*
1,1,$1+$1,$8,$9*
0 Add four rect primitives between the rounded corners*
20,1,$1+$1,$2,$3,$4,$5,0*
20,1,$1+$1,$4,$5,$6,$7,0*
20,1,$1+$1,$6,$7,$8,$9,0*
20,1,$1+$1,$8,$9,$2,$3,0*%
G04 Aperture macros list end*
%TA.AperFunction,ComponentPad*%
%ADD10C,1.400000*%
%TD*%
%TA.AperFunction,ComponentPad*%
%ADD11R,1.400000X1.400000*%
%TD*%
%TA.AperFunction,ComponentPad*%
%ADD12R,1.700000X1.700000*%
%TD*%
%TA.AperFunction,ComponentPad*%
%ADD13O,1.700000X1.700000*%
%TD*%
%TA.AperFunction,ComponentPad*%
%ADD14O,1.500000X1.050000*%
%TD*%
%TA.AperFunction,ComponentPad*%
%ADD15R,1.500000X1.050000*%
%TD*%
%TA.AperFunction,ComponentPad*%
%ADD16R,1.950000X1.950000*%
%TD*%
%TA.AperFunction,ComponentPad*%
%ADD17C,1.950000*%
%TD*%
%TA.AperFunction,ComponentPad*%
%ADD18R,1.800000X1.800000*%
%TD*%
%TA.AperFunction,ComponentPad*%
%ADD19C,1.800000*%
%TD*%
%TA.AperFunction,ComponentPad*%
%ADD20O,1.600000X1.600000*%
%TD*%
%TA.AperFunction,ComponentPad*%
%ADD21C,1.600000*%
%TD*%
%TA.AperFunction,ComponentPad*%
%ADD22C,3.000000*%
%TD*%
%TA.AperFunction,ComponentPad*%
%ADD23R,1.905000X2.000000*%
%TD*%
%TA.AperFunction,ComponentPad*%
%ADD24O,1.905000X2.000000*%
%TD*%
%TA.AperFunction,SMDPad,CuDef*%
%ADD25RoundRect,0.250000X0.450000X-0.262500X0.450000X0.262500X-0.450000X0.262500X-0.450000X-0.262500X0*%
%TD*%
%TA.AperFunction,ComponentPad*%
%ADD26R,2.000000X2.000000*%
%TD*%
%TA.AperFunction,ComponentPad*%
%ADD27C,2.000000*%
%TD*%
%TA.AperFunction,ViaPad*%
%ADD28C,0.800000*%
%TD*%
%TA.AperFunction,Conductor*%
%ADD29C,0.500000*%
%TD*%
%TA.AperFunction,Conductor*%
%ADD30C,0.250000*%
%TD*%
G04 APERTURE END LIST*
D10*
%TO.P,Right3,16*%
%TO.N,Net-(QL3-D)*%
X167520000Y-51720000D03*
%TO.P,Right3,13*%
%TO.N,Net-(Right2-Pad4)*%
X159900000Y-51720000D03*
%TO.P,Right3,11*%
%TO.N,Net-(Right3-Pad11)*%
X154820000Y-51720000D03*
%TO.P,Right3,9*%
%TO.N,/R_send3*%
X149740000Y-51720000D03*
%TO.P,Right3,8*%
%TO.N,/R_Return3*%
X149740000Y-44100000D03*
%TO.P,Right3,6*%
%TO.N,Net-(Right3-Pad11)*%
X154820000Y-44100000D03*
%TO.P,Right3,4*%
%TO.N,/R_out*%
X159900000Y-44100000D03*
D11*
%TO.P,Right3,1*%
%TO.N,/5V*%
X167520000Y-44100000D03*
%TD*%
D12*
%TO.P,J2,1,Pin_1*%
%TO.N,/9V*%
X239100000Y-41080000D03*
D13*
%TO.P,J2,2,Pin_2*%
%TO.N,/Ctrl_GND*%
X239100000Y-43620000D03*
%TO.P,J2,3,Pin_3*%
%TO.N,/Control1*%
X239100000Y-46160000D03*
%TO.P,J2,4,Pin_4*%
%TO.N,/Control2*%
X239100000Y-48700000D03*
%TO.P,J2,5,Pin_5*%
%TO.N,/Control3*%
X239100000Y-51240000D03*
%TO.P,J2,6,Pin_6*%
%TO.N,/R_in*%
X239100000Y-53780000D03*
%TO.P,J2,7,Pin_7*%
%TO.N,/L_in*%
X239100000Y-56320000D03*
%TO.P,J2,8,Pin_8*%
%TO.N,/Signal_Gnd*%
X239100000Y-58860000D03*
%TD*%
D14*
%TO.P,QL3,3,D*%
%TO.N,Net-(QL3-D)*%
X218640000Y-55420000D03*
%TO.P,QL3,2,G*%
%TO.N,Net-(QL3-G)*%
X218640000Y-56690000D03*
D15*
%TO.P,QL3,1,S*%
%TO.N,/Ctrl_GND*%
X218640000Y-57960000D03*
%TD*%
D16*
%TO.P,Return2,1,Pin_1*%
%TO.N,/Signal_Gnd*%
X183862500Y-86700000D03*
D17*
%TO.P,Return2,2,Pin_2*%
%TO.N,/R_Return2*%
X183862500Y-81700000D03*
%TO.P,Return2,3,Pin_3*%
%TO.N,/Signal_Gnd*%
X183862500Y-76700000D03*
%TO.P,Return2,4,Pin_4*%
%TO.N,/L_Return2*%
X183862500Y-71700000D03*
%TD*%
D18*
%TO.P,D2,1,K*%
%TO.N,/Ctrl_GND*%
X180687500Y-94200000D03*
D19*
%TO.P,D2,2,A*%
%TO.N,Net-(D2-A)*%
X183227500Y-94200000D03*
%TD*%
D20*
%TO.P,LeftPD2,2*%
%TO.N,/Ctrl_GND*%
X230450000Y-49420000D03*
D21*
%TO.P,LeftPD2,1*%
%TO.N,Net-(QL2-G)*%
X222830000Y-49420000D03*
%TD*%
D16*
%TO.P,Send3,1,Pin_1*%
%TO.N,/Signal_Gnd*%
X165000000Y-86700000D03*
D17*
%TO.P,Send3,2,Pin_2*%
%TO.N,/R_send3*%
X165000000Y-81700000D03*
%TO.P,Send3,3,Pin_3*%
%TO.N,/Signal_Gnd*%
X165000000Y-76700000D03*
%TO.P,Send3,4,Pin_4*%
%TO.N,/L_Send3*%
X165000000Y-71700000D03*
%TD*%
D22*
%TO.P,R1,R*%
%TO.N,unconnected-(R1-PadR)*%
X131785000Y-61615000D03*
%TO.P,R1,RN*%
%TO.N,unconnected-(R1-PadRN)*%
X131785000Y-45385000D03*
%TO.P,R1,S*%
%TO.N,/Signal_Gnd*%
X125435000Y-61615000D03*
%TO.P,R1,SN*%
%TO.N,unconnected-(R1-PadSN)*%
X125435000Y-45385000D03*
%TO.P,R1,T*%
%TO.N,/R_out*%
X138135000Y-61615000D03*
%TO.P,R1,TN*%
%TO.N,Net-(L/Mono1-PadR)*%
X138135000Y-45385000D03*
%TD*%
D10*
%TO.P,Left/Mono3,16*%
%TO.N,Net-(QL3-D)*%
X167520000Y-62720000D03*
%TO.P,Left/Mono3,13*%
%TO.N,Net-(Left/Mono2-Pad4)*%
X159900000Y-62720000D03*
%TO.P,Left/Mono3,11*%
%TO.N,Net-(Left/Mono3-Pad11)*%
X154820000Y-62720000D03*
%TO.P,Left/Mono3,9*%
%TO.N,/L_Send3*%
X149740000Y-62720000D03*
%TO.P,Left/Mono3,8*%
%TO.N,/L_Return3*%
X149740000Y-55100000D03*
%TO.P,Left/Mono3,6*%
%TO.N,Net-(Left/Mono3-Pad11)*%
X154820000Y-55100000D03*
%TO.P,Left/Mono3,4*%
%TO.N,/L_out*%
X159900000Y-55100000D03*
D11*
%TO.P,Left/Mono3,1*%
%TO.N,/5V*%
X167520000Y-55100000D03*
%TD*%
D23*
%TO.P,U1,1,IN*%
%TO.N,/9V*%
X224540000Y-63600000D03*
D24*
%TO.P,U1,2,GND*%
%TO.N,/Ctrl_GND*%
X222000000Y-63600000D03*
%TO.P,U1,3,OUT*%
%TO.N,/5V*%
X219460000Y-63600000D03*
%TD*%
D20*
%TO.P,LeftPD3,2*%
%TO.N,/Ctrl_GND*%
X230450000Y-56420000D03*
D21*
%TO.P,LeftPD3,1*%
%TO.N,Net-(QL3-G)*%
X222830000Y-56420000D03*
%TD*%
%TO.P,RLed1,1*%
%TO.N,/Control1*%
X221772500Y-93700000D03*
D20*
%TO.P,RLed1,2*%
%TO.N,Net-(D1-A)*%
X214152500Y-93700000D03*
%TD*%
D14*
%TO.P,QL2,3,D*%
%TO.N,Net-(QL2-D)*%
X218640000Y-49630000D03*
%TO.P,QL2,2,G*%
%TO.N,Net-(QL2-G)*%
X218640000Y-50900000D03*
D15*
%TO.P,QL2,1,S*%
%TO.N,/Ctrl_GND*%
X218640000Y-52170000D03*
%TD*%
D20*
%TO.P,LGate3,2*%
%TO.N,Net-(QL3-G)*%
X222830000Y-59420000D03*
D21*
%TO.P,LGate3,1*%
%TO.N,/Control3*%
X230450000Y-59420000D03*
%TD*%
D16*
%TO.P,Send2,1,Pin_1*%
%TO.N,/Signal_Gnd*%
X194500000Y-86700000D03*
D17*
%TO.P,Send2,2,Pin_2*%
%TO.N,/R_send2*%
X194500000Y-81700000D03*
%TO.P,Send2,3,Pin_3*%
%TO.N,/Signal_Gnd*%
X194500000Y-76700000D03*
%TO.P,Send2,4,Pin_4*%
%TO.N,/L_Send2*%
X194500000Y-71700000D03*
%TD*%
D10*
%TO.P,Left/Mono1,16*%
%TO.N,Net-(QL1-D)*%
X211840000Y-62777500D03*
%TO.P,Left/Mono1,13*%
%TO.N,/L_in*%
X204220000Y-62777500D03*
%TO.P,Left/Mono1,11*%
%TO.N,Net-(Left/Mono1-Pad11)*%
X199140000Y-62777500D03*
%TO.P,Left/Mono1,9*%
%TO.N,/L_Send1*%
X194060000Y-62777500D03*
%TO.P,Left/Mono1,8*%
%TO.N,/L_Return1*%
X194060000Y-55157500D03*
%TO.P,Left/Mono1,6*%
%TO.N,Net-(Left/Mono1-Pad11)*%
X199140000Y-55157500D03*
%TO.P,Left/Mono1,4*%
%TO.N,Net-(Left/Mono1-Pad4)*%
X204220000Y-55157500D03*
D11*
%TO.P,Left/Mono1,1*%
%TO.N,/5V*%
X211840000Y-55157500D03*
%TD*%
D14*
%TO.P,QL1,3,D*%
%TO.N,Net-(QL1-D)*%
X218640000Y-43840000D03*
%TO.P,QL1,2,G*%
%TO.N,Net-(QL1-G)*%
X218640000Y-45110000D03*
D15*
%TO.P,QL1,1,S*%
%TO.N,/Ctrl_GND*%
X218640000Y-46380000D03*
%TD*%
D22*
%TO.P,L/Mono1,R*%
%TO.N,Net-(L/Mono1-PadR)*%
X131485000Y-84015000D03*
%TO.P,L/Mono1,RN*%
%TO.N,unconnected-(L/Mono1-PadRN)*%
X131485000Y-67785000D03*
%TO.P,L/Mono1,S*%
%TO.N,/Signal_Gnd*%
X125135000Y-84015000D03*
%TO.P,L/Mono1,SN*%
%TO.N,unconnected-(L/Mono1-PadSN)*%
X125135000Y-67785000D03*
%TO.P,L/Mono1,T*%
%TO.N,/L_out*%
X137835000Y-84015000D03*
%TO.P,L/Mono1,TN*%
%TO.N,unconnected-(L/Mono1-PadTN)*%
X137835000Y-67785000D03*
%TD*%
D10*
%TO.P,Right1,16*%
%TO.N,Net-(QL1-D)*%
X211840000Y-51420000D03*
%TO.P,Right1,13*%
%TO.N,/R_in*%
X204220000Y-51420000D03*
%TO.P,Right1,11*%
%TO.N,Net-(Right1-Pad11)*%
X199140000Y-51420000D03*
%TO.P,Right1,9*%
%TO.N,/R_send1*%
X194060000Y-51420000D03*
%TO.P,Right1,8*%
%TO.N,/R_Return1*%
X194060000Y-43800000D03*
%TO.P,Right1,6*%
%TO.N,Net-(Right1-Pad11)*%
X199140000Y-43800000D03*
%TO.P,Right1,4*%
%TO.N,Net-(Right1-Pad4)*%
X204220000Y-43800000D03*
D11*
%TO.P,Right1,1*%
%TO.N,/5V*%
X211840000Y-43800000D03*
%TD*%
D25*
%TO.P,G_link1,1*%
%TO.N,/Ctrl_GND*%
X139200000Y-93412500D03*
%TO.P,G_link1,2*%
%TO.N,/Signal_Gnd*%
X139200000Y-91587500D03*
%TD*%
D16*
%TO.P,Return3,1,Pin_1*%
%TO.N,/Signal_Gnd*%
X154500000Y-86700000D03*
D17*
%TO.P,Return3,2,Pin_2*%
%TO.N,/R_Return3*%
X154500000Y-81700000D03*
%TO.P,Return3,3,Pin_3*%
%TO.N,/Signal_Gnd*%
X154500000Y-76700000D03*
%TO.P,Return3,4,Pin_4*%
%TO.N,/L_Return3*%
X154500000Y-71700000D03*
%TD*%
D20*
%TO.P,LGate2,2*%
%TO.N,Net-(QL2-G)*%
X222830000Y-52420000D03*
D21*
%TO.P,LGate2,1*%
%TO.N,/Control2*%
X230450000Y-52420000D03*
%TD*%
D20*
%TO.P,LGate1,2*%
%TO.N,Net-(QL1-G)*%
X222830000Y-46420000D03*
D21*
%TO.P,LGate1,1*%
%TO.N,/Control1*%
X230450000Y-46420000D03*
%TD*%
D18*
%TO.P,D3,1,K*%
%TO.N,/Ctrl_GND*%
X151187500Y-93700000D03*
D19*
%TO.P,D3,2,A*%
%TO.N,Net-(D3-A)*%
X153727500Y-93700000D03*
%TD*%
D16*
%TO.P,Return1,1,Pin_1*%
%TO.N,/Signal_Gnd*%
X211500000Y-86700000D03*
D17*
%TO.P,Return1,2,Pin_2*%
%TO.N,/R_Return1*%
X211500000Y-81700000D03*
%TO.P,Return1,3,Pin_3*%
%TO.N,/Signal_Gnd*%
X211500000Y-76700000D03*
%TO.P,Return1,4,Pin_4*%
%TO.N,/L_Return1*%
X211500000Y-71700000D03*
%TD*%
D16*
%TO.P,Send1,1,Pin_1*%
%TO.N,/Signal_Gnd*%
X221500000Y-86700000D03*
D17*
%TO.P,Send1,2,Pin_2*%
%TO.N,/R_send1*%
X221500000Y-81700000D03*
%TO.P,Send1,3,Pin_3*%
%TO.N,/Signal_Gnd*%
X221500000Y-76700000D03*
%TO.P,Send1,4,Pin_4*%
%TO.N,/L_Send1*%
X221500000Y-71700000D03*
%TD*%
D18*
%TO.P,D1,1,K*%
%TO.N,/Ctrl_GND*%
X208422500Y-93700000D03*
D19*
%TO.P,D1,2,A*%
%TO.N,Net-(D1-A)*%
X210962500Y-93700000D03*
%TD*%
D26*
%TO.P,C1,1*%
%TO.N,/9V*%
X236500000Y-65700000D03*
D27*
%TO.P,C1,2*%
%TO.N,/Ctrl_GND*%
X233000000Y-65700000D03*
%TD*%
D20*
%TO.P,LeftPD1,2*%
%TO.N,/Ctrl_GND*%
X230450000Y-43420000D03*
D21*
%TO.P,LeftPD1,1*%
%TO.N,Net-(QL1-G)*%
X222830000Y-43420000D03*
%TD*%
D10*
%TO.P,Left/Mono2,16*%
%TO.N,Net-(QL2-D)*%
X189877500Y-62982500D03*
%TO.P,Left/Mono2,13*%
%TO.N,Net-(Left/Mono1-Pad4)*%
X182257500Y-62982500D03*
%TO.P,Left/Mono2,11*%
%TO.N,Net-(Left/Mono2-Pad11)*%
X177177500Y-62982500D03*
%TO.P,Left/Mono2,9*%
%TO.N,/L_Send2*%
X172097500Y-62982500D03*
%TO.P,Left/Mono2,8*%
%TO.N,/L_Return2*%
X172097500Y-55362500D03*
%TO.P,Left/Mono2,6*%
%TO.N,Net-(Left/Mono2-Pad11)*%
X177177500Y-55362500D03*
%TO.P,Left/Mono2,4*%
%TO.N,Net-(Left/Mono2-Pad4)*%
X182257500Y-55362500D03*
D11*
%TO.P,Left/Mono2,1*%
%TO.N,/5V*%
X189877500Y-55362500D03*
%TD*%
D10*
%TO.P,Right2,16*%
%TO.N,Net-(QL2-D)*%
X189877500Y-51482500D03*
%TO.P,Right2,13*%
%TO.N,Net-(Right1-Pad4)*%
X182257500Y-51482500D03*
%TO.P,Right2,11*%
%TO.N,Net-(Right2-Pad11)*%
X177177500Y-51482500D03*
%TO.P,Right2,9*%
%TO.N,/R_send2*%
X172097500Y-51482500D03*
%TO.P,Right2,8*%
%TO.N,/R_Return2*%
X172097500Y-43862500D03*
%TO.P,Right2,6*%
%TO.N,Net-(Right2-Pad11)*%
X177177500Y-43862500D03*
%TO.P,Right2,4*%
%TO.N,Net-(Right2-Pad4)*%
X182257500Y-43862500D03*
D11*
%TO.P,Right2,1*%
%TO.N,/5V*%
X189877500Y-43862500D03*
%TD*%
D21*
%TO.P,RLed3,1*%
%TO.N,/Control3*%
X165272500Y-93700000D03*
D20*
%TO.P,RLed3,2*%
%TO.N,Net-(D3-A)*%
X157652500Y-93700000D03*
%TD*%
D21*
%TO.P,RLed2,1*%
%TO.N,/Control2*%
X196772500Y-94200000D03*
D20*
%TO.P,RLed2,2*%
%TO.N,Net-(D2-A)*%
X189152500Y-94200000D03*
%TD*%
D28*
%TO.N,/Control3*%
X230200000Y-75200000D03*
%TO.N,/Control2*%
X230900000Y-73300000D03*
%TO.N,/Control1*%
X231524500Y-70700000D03*
%TO.N,Net-(QL2-D)*%
X187000000Y-51700000D03*
%TO.N,Net-(QL3-D)*%
X165200000Y-57000000D03*
%TD*%
D29*
%TO.N,/Signal_Gnd*%
X127085000Y-63265000D02*
X125435000Y-61615000D01*
X127085000Y-82065000D02*
X127085000Y-63265000D01*
X125135000Y-84015000D02*
X127085000Y-82065000D01*
X127820000Y-86700000D02*
X125135000Y-84015000D01*
X154500000Y-86700000D02*
X127820000Y-86700000D01*
%TO.N,/Ctrl_GND*%
X224100000Y-95900000D02*
X211600000Y-95900000D01*
X224100000Y-91893698D02*
X224100000Y-95900000D01*
X231600000Y-84393698D02*
X224100000Y-91893698D01*
X231600000Y-73802082D02*
X231600000Y-84393698D01*
X231975000Y-69948418D02*
X232374500Y-70347918D01*
X231975000Y-66725000D02*
X231975000Y-69948418D01*
X232374500Y-70347918D02*
X232374500Y-73027582D01*
X233000000Y-65700000D02*
X231975000Y-66725000D01*
X232374500Y-73027582D02*
X231600000Y-73802082D01*
%TO.N,/Signal_Gnd*%
X146512500Y-91587500D02*
X151400000Y-86700000D01*
X151400000Y-86700000D02*
X154500000Y-86700000D01*
X139200000Y-91587500D02*
X146512500Y-91587500D01*
%TO.N,/Ctrl_GND*%
X139487500Y-93700000D02*
X139200000Y-93412500D01*
X151187500Y-93700000D02*
X139487500Y-93700000D01*
X151818311Y-93700000D02*
X151187500Y-93700000D01*
X153857061Y-95738750D02*
X151818311Y-93700000D01*
X182900000Y-95738750D02*
X153857061Y-95738750D01*
X182900000Y-95738750D02*
X182226250Y-95738750D01*
X210461250Y-95738750D02*
X182900000Y-95738750D01*
X182226250Y-95738750D02*
X180687500Y-94200000D01*
X210461250Y-95738750D02*
X208422500Y-93700000D01*
X210622500Y-95900000D02*
X210461250Y-95738750D01*
X211600000Y-95900000D02*
X210400000Y-95900000D01*
X211600000Y-95900000D02*
X210622500Y-95900000D01*
D30*
%TO.N,/Control3*%
X230100000Y-75100000D02*
X230200000Y-75200000D01*
X230100000Y-72200000D02*
X230100000Y-75100000D01*
%TO.N,/Control2*%
X230800000Y-73200000D02*
X230900000Y-73300000D01*
X230800000Y-71400000D02*
X230800000Y-73200000D01*
%TO.N,/Control1*%
X231400000Y-70700000D02*
X231524500Y-70700000D01*
%TO.N,/Control3*%
X232200000Y-62700000D02*
X231300000Y-63600000D01*
X232200000Y-61000000D02*
X232200000Y-62700000D01*
X232030000Y-61000000D02*
X232200000Y-61000000D01*
X231300000Y-63600000D02*
X230100000Y-64800000D01*
X230100000Y-70600000D02*
X230100000Y-72200000D01*
X230450000Y-59420000D02*
X232030000Y-61000000D01*
X230100000Y-64800000D02*
X230100000Y-70600000D01*
%TO.N,/Control2*%
X233000000Y-63189771D02*
X230800000Y-65389771D01*
X230800000Y-65389771D02*
X230800000Y-65600000D01*
X230800000Y-65600000D02*
X230800000Y-71400000D01*
X232230000Y-54200000D02*
X233000000Y-54200000D01*
X230450000Y-52420000D02*
X232230000Y-54200000D01*
X233000000Y-54200000D02*
X233000000Y-63189771D01*
%TO.N,/Control1*%
X231400000Y-65500000D02*
X231400000Y-70700000D01*
X231400000Y-65426167D02*
X231400000Y-65500000D01*
X234000000Y-62826167D02*
X231400000Y-65426167D01*
X234000000Y-62800000D02*
X234000000Y-62826167D01*
X232520000Y-46420000D02*
X234000000Y-47900000D01*
X234000000Y-47900000D02*
X234000000Y-62800000D01*
X230450000Y-46420000D02*
X232520000Y-46420000D01*
D29*
%TO.N,Net-(Right3-Pad11)*%
X154820000Y-44100000D02*
X154820000Y-51720000D01*
%TO.N,Net-(Left/Mono3-Pad11)*%
X154820000Y-62720000D02*
X154820000Y-55100000D01*
%TO.N,Net-(Left/Mono2-Pad11)*%
X177177500Y-55362500D02*
X177177500Y-62982500D01*
%TO.N,Net-(Right2-Pad11)*%
X177177500Y-51482500D02*
X177177500Y-43862500D01*
%TO.N,Net-(Right1-Pad11)*%
X199140000Y-43800000D02*
X199140000Y-51420000D01*
%TO.N,Net-(Left/Mono1-Pad11)*%
X199140000Y-55157500D02*
X199140000Y-62777500D01*
%TO.N,/L_Send1*%
X220075000Y-70275000D02*
X221500000Y-71700000D01*
X201557500Y-70275000D02*
X220075000Y-70275000D01*
X194060000Y-62777500D02*
X201557500Y-70275000D01*
%TO.N,/L_Return1*%
X192910000Y-63910000D02*
X200700000Y-71700000D01*
X192910000Y-56307500D02*
X192910000Y-63910000D01*
X200700000Y-71700000D02*
X211500000Y-71700000D01*
X194060000Y-55157500D02*
X192910000Y-56307500D01*
%TO.N,/R_send1*%
X207300000Y-79600000D02*
X219400000Y-79600000D01*
X192600000Y-64900000D02*
X207300000Y-79600000D01*
X192089949Y-64900000D02*
X192600000Y-64900000D01*
X192089949Y-53390051D02*
X192089949Y-64900000D01*
X194060000Y-51420000D02*
X192089949Y-53390051D01*
X219400000Y-79600000D02*
X221500000Y-81700000D01*
%TO.N,/R_Return1*%
X207900000Y-81700000D02*
X211500000Y-81700000D01*
X191389949Y-65189949D02*
X207900000Y-81700000D01*
X191389949Y-46210051D02*
X191389949Y-65189949D01*
X191600000Y-46000000D02*
X191389949Y-46210051D01*
X191860000Y-46000000D02*
X191600000Y-46000000D01*
X194060000Y-43800000D02*
X191860000Y-46000000D01*
%TO.N,Net-(QL3-D)*%
X167520000Y-59320000D02*
X167520000Y-62720000D01*
X165200000Y-57000000D02*
X167520000Y-59320000D01*
%TO.N,Net-(QL2-D)*%
X187000000Y-60105000D02*
X189877500Y-62982500D01*
X187000000Y-51700000D02*
X187000000Y-60105000D01*
%TO.N,/5V*%
X166000000Y-45620000D02*
X166000000Y-53580000D01*
X166000000Y-53580000D02*
X167520000Y-55100000D01*
X167520000Y-44100000D02*
X166000000Y-45620000D01*
X188727500Y-45012500D02*
X188727500Y-54212500D01*
X188727500Y-54212500D02*
X189877500Y-55362500D01*
X189877500Y-43862500D02*
X188727500Y-45012500D01*
%TO.N,/L_Send2*%
X191100000Y-68300000D02*
X194500000Y-71700000D01*
X177415000Y-68300000D02*
X191100000Y-68300000D01*
X172097500Y-62982500D02*
X177415000Y-68300000D01*
%TO.N,/R_send2*%
X186600000Y-73800000D02*
X194500000Y-81700000D01*
X176400000Y-70000000D02*
X185200000Y-70000000D01*
X170900000Y-64500000D02*
X176400000Y-70000000D01*
X170900000Y-62553654D02*
X170900000Y-64500000D01*
X185200000Y-70000000D02*
X186600000Y-71400000D01*
X186600000Y-71400000D02*
X186600000Y-73800000D01*
X173247500Y-60206154D02*
X170900000Y-62553654D01*
X173247500Y-52632500D02*
X173247500Y-60206154D01*
X172097500Y-51482500D02*
X173247500Y-52632500D01*
%TO.N,/L_Return2*%
X170000000Y-65400000D02*
X176300000Y-71700000D01*
X170000000Y-57460000D02*
X170000000Y-65400000D01*
X176300000Y-71700000D02*
X183862500Y-71700000D01*
X172097500Y-55362500D02*
X170000000Y-57460000D01*
%TO.N,/R_Return2*%
X177200000Y-81700000D02*
X183862500Y-81700000D01*
X169300000Y-73800000D02*
X177200000Y-81700000D01*
X169300000Y-54309950D02*
X169300000Y-73800000D01*
X170800000Y-52809950D02*
X169300000Y-54309950D01*
X172097500Y-43862500D02*
X170800000Y-45160000D01*
X170800000Y-45160000D02*
X170800000Y-52809950D01*
%TO.N,/L_Return3*%
X147600000Y-64800000D02*
X154500000Y-71700000D01*
X149740000Y-55100000D02*
X147600000Y-57240000D01*
X147600000Y-57240000D02*
X147600000Y-64800000D01*
%TO.N,/R_send3*%
X148590000Y-62243654D02*
X148590000Y-63774745D01*
X162600000Y-79300000D02*
X165000000Y-81700000D01*
X150890000Y-59943654D02*
X148590000Y-62243654D01*
X148590000Y-63774745D02*
X162600000Y-77784745D01*
X149740000Y-51720000D02*
X150890000Y-52870000D01*
X150890000Y-52870000D02*
X150890000Y-59943654D01*
X162600000Y-77784745D02*
X162600000Y-79300000D01*
%TO.N,/L_Send3*%
X158720000Y-71700000D02*
X165000000Y-71700000D01*
X149740000Y-62720000D02*
X158720000Y-71700000D01*
%TO.N,/R_Return3*%
X146600000Y-47240000D02*
X146600000Y-73800000D01*
X146600000Y-73800000D02*
X154500000Y-81700000D01*
X149740000Y-44100000D02*
X146600000Y-47240000D01*
%TO.N,/5V*%
X189877500Y-42877500D02*
X189877500Y-43862500D01*
X188100000Y-41100000D02*
X189877500Y-42877500D01*
X170520000Y-41100000D02*
X188100000Y-41100000D01*
X167520000Y-44100000D02*
X170520000Y-41100000D01*
X211800000Y-63927500D02*
X211227500Y-63927500D01*
X219132500Y-63927500D02*
X211800000Y-63927500D01*
X209800000Y-45840000D02*
X211840000Y-43800000D01*
X209800000Y-56800000D02*
X209800000Y-45840000D01*
X210197500Y-56800000D02*
X211840000Y-55157500D01*
X209800000Y-56800000D02*
X210197500Y-56800000D01*
X209800000Y-62500000D02*
X209800000Y-56800000D01*
X211227500Y-63927500D02*
X209800000Y-62500000D01*
X219460000Y-63600000D02*
X219132500Y-63927500D01*
%TO.N,Net-(QL1-D)*%
X214500000Y-60117500D02*
X211840000Y-62777500D01*
X214500000Y-51000000D02*
X214500000Y-60117500D01*
X214080000Y-51420000D02*
X211840000Y-51420000D01*
X214500000Y-46730000D02*
X214500000Y-51000000D01*
X217390000Y-43840000D02*
X214500000Y-46730000D01*
X214500000Y-51000000D02*
X214080000Y-51420000D01*
X218640000Y-43840000D02*
X217390000Y-43840000D01*
%TO.N,/R_in*%
X206100000Y-49540000D02*
X204220000Y-51420000D01*
X206100000Y-40600000D02*
X206100000Y-49540000D01*
X233900000Y-38900000D02*
X207800000Y-38900000D01*
X207800000Y-38900000D02*
X206100000Y-40600000D01*
X236000000Y-50680000D02*
X236000000Y-41000000D01*
X236000000Y-41000000D02*
X233900000Y-38900000D01*
X239100000Y-53780000D02*
X236000000Y-50680000D01*
%TO.N,/L_in*%
X207100000Y-59897500D02*
X204220000Y-62777500D01*
X207200000Y-59300000D02*
X207100000Y-59400000D01*
X207200000Y-41400000D02*
X207200000Y-59300000D01*
X207100000Y-59400000D02*
X207100000Y-59897500D01*
X208800000Y-39800000D02*
X207200000Y-41400000D01*
X233100000Y-39800000D02*
X208800000Y-39800000D01*
X234900000Y-41600000D02*
X233100000Y-39800000D01*
X234900000Y-52120000D02*
X234900000Y-41600000D01*
X239100000Y-56320000D02*
X234900000Y-52120000D01*
%TO.N,/9V*%
X240800000Y-42780000D02*
X239100000Y-41080000D01*
X240800000Y-64300000D02*
X240800000Y-42780000D01*
X236500000Y-65700000D02*
X239400000Y-65700000D01*
X239400000Y-65700000D02*
X240800000Y-64300000D01*
%TO.N,Net-(QL3-G)*%
X222830000Y-58630000D02*
X222830000Y-59420000D01*
X220890000Y-56690000D02*
X222830000Y-58630000D01*
X220700000Y-56690000D02*
X220890000Y-56690000D01*
X220700000Y-56690000D02*
X222560000Y-56690000D01*
X218640000Y-56690000D02*
X220700000Y-56690000D01*
X222560000Y-56690000D02*
X222830000Y-56420000D01*
%TO.N,Net-(QL2-G)*%
X218640000Y-50900000D02*
X221310000Y-50900000D01*
X221310000Y-50900000D02*
X222830000Y-52420000D01*
X218640000Y-50900000D02*
X221350000Y-50900000D01*
X221350000Y-50900000D02*
X222830000Y-49420000D01*
%TO.N,Net-(QL1-G)*%
X221140000Y-45110000D02*
X221520000Y-45110000D01*
X221520000Y-45110000D02*
X222830000Y-46420000D01*
X221140000Y-45110000D02*
X222830000Y-43420000D01*
X218640000Y-45110000D02*
X221140000Y-45110000D01*
%TD*%
M02*
