%TF.GenerationSoftware,KiCad,Pcbnew,7.0.9*%
%TF.CreationDate,2024-06-30T00:12:16-04:00*%
%TF.ProjectId,Loop Board 3 Jackless Output,4c6f6f70-2042-46f6-9172-642033204a61,rev?*%
%TF.SameCoordinates,Original*%
%TF.FileFunction,Soldermask,Top*%
%TF.FilePolarity,Negative*%
%FSLAX46Y46*%
G04 Gerber Fmt 4.6, Leading zero omitted, Abs format (unit mm)*
G04 Created by KiCad (PCBNEW 7.0.9) date 2024-06-30 00:12:16*
%MOMM*%
%LPD*%
G01*
G04 APERTURE LIST*
G04 Aperture macros list*
%AMRoundRect*
0 Rectangle with rounded corners*
0 $1 Rounding radius*
0 $2 $3 $4 $5 $6 $7 $8 $9 X,Y pos of 4 corners*
0 Add a 4 corners polygon primitive as box body*
4,1,4,$2,$3,$4,$5,$6,$7,$8,$9,$2,$3,0*
0 Add four circle primitives for the rounded corners*
1,1,$1+$1,$2,$3*
1,1,$1+$1,$4,$5*
1,1,$1+$1,$6,$7*
1,1,$1+$1,$8,$9*
0 Add four rect primitives between the rounded corners*
20,1,$1+$1,$2,$3,$4,$5,0*
20,1,$1+$1,$4,$5,$6,$7,0*
20,1,$1+$1,$6,$7,$8,$9,0*
20,1,$1+$1,$8,$9,$2,$3,0*%
G04 Aperture macros list end*
%ADD10C,1.400000*%
%ADD11R,1.400000X1.400000*%
%ADD12R,1.700000X1.700000*%
%ADD13O,1.700000X1.700000*%
%ADD14O,1.500000X1.050000*%
%ADD15R,1.500000X1.050000*%
%ADD16RoundRect,0.102000X0.975000X-0.975000X0.975000X0.975000X-0.975000X0.975000X-0.975000X-0.975000X0*%
%ADD17C,2.154000*%
%ADD18R,1.800000X1.800000*%
%ADD19C,1.800000*%
%ADD20O,1.600000X1.600000*%
%ADD21C,1.600000*%
%ADD22C,3.000000*%
%ADD23R,1.905000X2.000000*%
%ADD24O,1.905000X2.000000*%
%ADD25RoundRect,0.250000X0.450000X-0.262500X0.450000X0.262500X-0.450000X0.262500X-0.450000X-0.262500X0*%
%ADD26R,2.000000X2.000000*%
%ADD27C,2.000000*%
G04 APERTURE END LIST*
D10*
%TO.C,Right3*%
X167520000Y-51720000D03*
X159900000Y-51720000D03*
X154820000Y-51720000D03*
X149740000Y-51720000D03*
X149740000Y-44100000D03*
X154820000Y-44100000D03*
X159900000Y-44100000D03*
D11*
X167520000Y-44100000D03*
%TD*%
D12*
%TO.C,J2*%
X239100000Y-41080000D03*
D13*
X239100000Y-43620000D03*
X239100000Y-46160000D03*
X239100000Y-48700000D03*
X239100000Y-51240000D03*
X239100000Y-53780000D03*
X239100000Y-56320000D03*
X239100000Y-58860000D03*
%TD*%
D14*
%TO.C,QL3*%
X218640000Y-55420000D03*
X218640000Y-56690000D03*
D15*
X218640000Y-57960000D03*
%TD*%
D16*
%TO.C,Return2*%
X183862500Y-86700000D03*
D17*
X183862500Y-81700000D03*
X183862500Y-76700000D03*
X183862500Y-71700000D03*
%TD*%
D18*
%TO.C,D2*%
X180687500Y-94200000D03*
D19*
X183227500Y-94200000D03*
%TD*%
D20*
%TO.C,LeftPD2*%
X230450000Y-49420000D03*
D21*
X222830000Y-49420000D03*
%TD*%
D16*
%TO.C,Send3*%
X165000000Y-86700000D03*
D17*
X165000000Y-81700000D03*
X165000000Y-76700000D03*
X165000000Y-71700000D03*
%TD*%
D22*
%TO.C,R1*%
X131785000Y-61615000D03*
X131785000Y-45385000D03*
X125435000Y-61615000D03*
X125435000Y-45385000D03*
X138135000Y-61615000D03*
X138135000Y-45385000D03*
%TD*%
D10*
%TO.C,Left/Mono3*%
X167520000Y-62720000D03*
X159900000Y-62720000D03*
X154820000Y-62720000D03*
X149740000Y-62720000D03*
X149740000Y-55100000D03*
X154820000Y-55100000D03*
X159900000Y-55100000D03*
D11*
X167520000Y-55100000D03*
%TD*%
D23*
%TO.C,U1*%
X224540000Y-63600000D03*
D24*
X222000000Y-63600000D03*
X219460000Y-63600000D03*
%TD*%
D20*
%TO.C,LeftPD3*%
X230450000Y-56420000D03*
D21*
X222830000Y-56420000D03*
%TD*%
%TO.C,RLed1*%
X221772500Y-93700000D03*
D20*
X214152500Y-93700000D03*
%TD*%
D14*
%TO.C,QL2*%
X218640000Y-49630000D03*
X218640000Y-50900000D03*
D15*
X218640000Y-52170000D03*
%TD*%
D20*
%TO.C,LGate3*%
X222830000Y-59420000D03*
D21*
X230450000Y-59420000D03*
%TD*%
D16*
%TO.C,Send2*%
X194500000Y-86700000D03*
D17*
X194500000Y-81700000D03*
X194500000Y-76700000D03*
X194500000Y-71700000D03*
%TD*%
D10*
%TO.C,Left/Mono1*%
X211840000Y-62777500D03*
X204220000Y-62777500D03*
X199140000Y-62777500D03*
X194060000Y-62777500D03*
X194060000Y-55157500D03*
X199140000Y-55157500D03*
X204220000Y-55157500D03*
D11*
X211840000Y-55157500D03*
%TD*%
D14*
%TO.C,QL1*%
X218640000Y-43840000D03*
X218640000Y-45110000D03*
D15*
X218640000Y-46380000D03*
%TD*%
D22*
%TO.C,L/Mono1*%
X131485000Y-84015000D03*
X131485000Y-67785000D03*
X125135000Y-84015000D03*
X125135000Y-67785000D03*
X137835000Y-84015000D03*
X137835000Y-67785000D03*
%TD*%
D10*
%TO.C,Right1*%
X211840000Y-51420000D03*
X204220000Y-51420000D03*
X199140000Y-51420000D03*
X194060000Y-51420000D03*
X194060000Y-43800000D03*
X199140000Y-43800000D03*
X204220000Y-43800000D03*
D11*
X211840000Y-43800000D03*
%TD*%
D25*
%TO.C,G_link1*%
X139200000Y-93412500D03*
X139200000Y-91587500D03*
%TD*%
D16*
%TO.C,Return3*%
X154500000Y-86700000D03*
D17*
X154500000Y-81700000D03*
X154500000Y-76700000D03*
X154500000Y-71700000D03*
%TD*%
D20*
%TO.C,LGate2*%
X222830000Y-52420000D03*
D21*
X230450000Y-52420000D03*
%TD*%
D20*
%TO.C,LGate1*%
X222830000Y-46420000D03*
D21*
X230450000Y-46420000D03*
%TD*%
D18*
%TO.C,D3*%
X151187500Y-93700000D03*
D19*
X153727500Y-93700000D03*
%TD*%
D16*
%TO.C,Return1*%
X211500000Y-86700000D03*
D17*
X211500000Y-81700000D03*
X211500000Y-76700000D03*
X211500000Y-71700000D03*
%TD*%
D16*
%TO.C,Send1*%
X221500000Y-86700000D03*
D17*
X221500000Y-81700000D03*
X221500000Y-76700000D03*
X221500000Y-71700000D03*
%TD*%
D18*
%TO.C,D1*%
X208422500Y-93700000D03*
D19*
X210962500Y-93700000D03*
%TD*%
D26*
%TO.C,C1*%
X236500000Y-65700000D03*
D27*
X233000000Y-65700000D03*
%TD*%
D20*
%TO.C,LeftPD1*%
X230450000Y-43420000D03*
D21*
X222830000Y-43420000D03*
%TD*%
D10*
%TO.C,Left/Mono2*%
X189877500Y-62982500D03*
X182257500Y-62982500D03*
X177177500Y-62982500D03*
X172097500Y-62982500D03*
X172097500Y-55362500D03*
X177177500Y-55362500D03*
X182257500Y-55362500D03*
D11*
X189877500Y-55362500D03*
%TD*%
D10*
%TO.C,Right2*%
X189877500Y-51482500D03*
X182257500Y-51482500D03*
X177177500Y-51482500D03*
X172097500Y-51482500D03*
X172097500Y-43862500D03*
X177177500Y-43862500D03*
X182257500Y-43862500D03*
D11*
X189877500Y-43862500D03*
%TD*%
D21*
%TO.C,RLed3*%
X165272500Y-93700000D03*
D20*
X157652500Y-93700000D03*
%TD*%
D21*
%TO.C,RLed2*%
X196772500Y-94200000D03*
D20*
X189152500Y-94200000D03*
%TD*%
M02*
