M48
; DRILL file {KiCad 7.0.9} date Sun Jun 30 00:12:14 2024
; FORMAT={-:-/ absolute / inch / decimal}
; #@! TF.CreationDate,2024-06-30T00:12:14-04:00
; #@! TF.GenerationSoftware,Kicad,Pcbnew,7.0.9
; #@! TF.FileFunction,Plated,1,2,PTH
FMAT,2
INCH
; #@! TA.AperFunction,Plated,PTH,ViaDrill
T1C0.0157
; #@! TA.AperFunction,Plated,PTH,ComponentDrill
T2C0.0276
; #@! TA.AperFunction,Plated,PTH,ComponentDrill
T3C0.0295
; #@! TA.AperFunction,Plated,PTH,ComponentDrill
T4C0.0315
; #@! TA.AperFunction,Plated,PTH,ComponentDrill
T5C0.0354
; #@! TA.AperFunction,Plated,PTH,ComponentDrill
T6C0.0394
; #@! TA.AperFunction,Plated,PTH,ComponentDrill
T7C0.0433
; #@! TA.AperFunction,Plated,PTH,ComponentDrill
T8C0.0512
; #@! TA.AperFunction,Plated,PTH,ComponentDrill
T9C0.0551
%
G90
G05
T1
X6.5039Y-2.2441
X7.3622Y-2.0354
X9.063Y-2.9606
X9.0906Y-2.8858
X9.1151Y-2.7835
T2
X5.8953Y-1.7362
X5.8953Y-2.0362
X5.8953Y-2.1693
X5.8953Y-2.4693
X6.0953Y-1.7362
X6.0953Y-2.0362
X6.0953Y-2.1693
X6.0953Y-2.4693
X6.2953Y-1.7362
X6.2953Y-2.0362
X6.2953Y-2.1693
X6.2953Y-2.4693
X6.5953Y-1.7362
X6.5953Y-2.0362
X6.5953Y-2.1693
X6.5953Y-2.4693
X6.7755Y-1.7269
X6.7755Y-2.0269
X6.7755Y-2.1796
X6.7755Y-2.4796
X6.9755Y-1.7269
X6.9755Y-2.0269
X6.9755Y-2.1796
X6.9755Y-2.4796
X7.1755Y-1.7269
X7.1755Y-2.0269
X7.1755Y-2.1796
X7.1755Y-2.4796
X7.4755Y-1.7269
X7.4755Y-2.0269
X7.4755Y-2.1796
X7.4755Y-2.4796
X7.6402Y-1.7244
X7.6402Y-2.0244
X7.6402Y-2.1716
X7.6402Y-2.4716
X7.8402Y-1.7244
X7.8402Y-2.0244
X7.8402Y-2.1716
X7.8402Y-2.4716
X8.0402Y-1.7244
X8.0402Y-2.0244
X8.0402Y-2.1716
X8.0402Y-2.4716
X8.3402Y-1.7244
X8.3402Y-2.0244
X8.3402Y-2.1716
X8.3402Y-2.4716
T3
X8.6079Y-1.726
X8.6079Y-1.776
X8.6079Y-1.826
X8.6079Y-1.9539
X8.6079Y-2.0039
X8.6079Y-2.0539
X8.6079Y-2.1819
X8.6079Y-2.2319
X8.6079Y-2.2819
T4
X6.2068Y-3.689
X6.5068Y-3.689
X7.4469Y-3.7087
X7.7469Y-3.7087
X8.4312Y-3.689
X8.7312Y-3.689
X8.7728Y-1.7094
X8.7728Y-1.8276
X8.7728Y-1.9457
X8.7728Y-2.0638
X8.7728Y-2.2213
X8.7728Y-2.3394
X9.0728Y-1.7094
X9.0728Y-1.8276
X9.0728Y-1.9457
X9.0728Y-2.0638
X9.0728Y-2.2213
X9.0728Y-2.3394
T5
X5.9523Y-3.689
X6.0523Y-3.689
X7.1137Y-3.7087
X7.2137Y-3.7087
X8.2056Y-3.689
X8.3056Y-3.689
T6
X9.1732Y-2.5866
X9.311Y-2.5866
X9.4134Y-1.6173
X9.4134Y-1.7173
X9.4134Y-1.8173
X9.4134Y-1.9173
X9.4134Y-2.0173
X9.4134Y-2.1173
X9.4134Y-2.2173
X9.4134Y-2.3173
T7
X8.6402Y-2.5039
X8.7402Y-2.5039
X8.8402Y-2.5039
T8
X6.0827Y-2.8228
X6.0827Y-3.0197
X6.0827Y-3.2165
X6.0827Y-3.4134
X6.4961Y-2.8228
X6.4961Y-3.0197
X6.4961Y-3.2165
X6.4961Y-3.4134
X7.2387Y-2.8228
X7.2387Y-3.0197
X7.2387Y-3.2165
X7.2387Y-3.4134
X7.6575Y-2.8228
X7.6575Y-3.0197
X7.6575Y-3.2165
X7.6575Y-3.4134
X8.3268Y-2.8228
X8.3268Y-3.0197
X8.3268Y-3.2165
X8.3268Y-3.4134
X8.7205Y-2.8228
X8.7205Y-3.0197
X8.7205Y-3.2165
X8.7205Y-3.4134
T9
X4.9266Y-2.6687
X4.9266Y-3.3077
X4.9384Y-1.7868
X4.9384Y-2.4258
X5.1766Y-2.6687
X5.1766Y-3.3077
X5.1884Y-1.7868
X5.1884Y-2.4258
X5.4266Y-2.6687
X5.4266Y-3.3077
X5.4384Y-1.7868
X5.4384Y-2.4258
T0
M30
