%TF.GenerationSoftware,KiCad,Pcbnew,7.0.9*%
%TF.CreationDate,2024-06-30T00:12:16-04:00*%
%TF.ProjectId,Loop Board 3 Jackless Output,4c6f6f70-2042-46f6-9172-642033204a61,rev?*%
%TF.SameCoordinates,Original*%
%TF.FileFunction,Legend,Top*%
%TF.FilePolarity,Positive*%
%FSLAX46Y46*%
G04 Gerber Fmt 4.6, Leading zero omitted, Abs format (unit mm)*
G04 Created by KiCad (PCBNEW 7.0.9) date 2024-06-30 00:12:16*
%MOMM*%
%LPD*%
G01*
G04 APERTURE LIST*
%ADD10C,0.150000*%
%ADD11C,0.120000*%
%ADD12C,0.127000*%
%ADD13C,0.200000*%
G04 APERTURE END LIST*
D10*
X232627255Y-40462295D02*
X232779636Y-40462295D01*
X232779636Y-40462295D02*
X232855826Y-40424200D01*
X232855826Y-40424200D02*
X232893922Y-40386104D01*
X232893922Y-40386104D02*
X232970112Y-40271819D01*
X232970112Y-40271819D02*
X233008207Y-40119438D01*
X233008207Y-40119438D02*
X233008207Y-39814676D01*
X233008207Y-39814676D02*
X232970112Y-39738485D01*
X232970112Y-39738485D02*
X232932017Y-39700390D01*
X232932017Y-39700390D02*
X232855826Y-39662295D01*
X232855826Y-39662295D02*
X232703445Y-39662295D01*
X232703445Y-39662295D02*
X232627255Y-39700390D01*
X232627255Y-39700390D02*
X232589160Y-39738485D01*
X232589160Y-39738485D02*
X232551064Y-39814676D01*
X232551064Y-39814676D02*
X232551064Y-40005152D01*
X232551064Y-40005152D02*
X232589160Y-40081342D01*
X232589160Y-40081342D02*
X232627255Y-40119438D01*
X232627255Y-40119438D02*
X232703445Y-40157533D01*
X232703445Y-40157533D02*
X232855826Y-40157533D01*
X232855826Y-40157533D02*
X232932017Y-40119438D01*
X232932017Y-40119438D02*
X232970112Y-40081342D01*
X232970112Y-40081342D02*
X233008207Y-40005152D01*
X233236779Y-39662295D02*
X233503446Y-40462295D01*
X233503446Y-40462295D02*
X233770112Y-39662295D01*
X233046303Y-42962104D02*
X233008207Y-43000200D01*
X233008207Y-43000200D02*
X232893922Y-43038295D01*
X232893922Y-43038295D02*
X232817731Y-43038295D01*
X232817731Y-43038295D02*
X232703445Y-43000200D01*
X232703445Y-43000200D02*
X232627255Y-42924009D01*
X232627255Y-42924009D02*
X232589160Y-42847819D01*
X232589160Y-42847819D02*
X232551064Y-42695438D01*
X232551064Y-42695438D02*
X232551064Y-42581152D01*
X232551064Y-42581152D02*
X232589160Y-42428771D01*
X232589160Y-42428771D02*
X232627255Y-42352580D01*
X232627255Y-42352580D02*
X232703445Y-42276390D01*
X232703445Y-42276390D02*
X232817731Y-42238295D01*
X232817731Y-42238295D02*
X232893922Y-42238295D01*
X232893922Y-42238295D02*
X233008207Y-42276390D01*
X233008207Y-42276390D02*
X233046303Y-42314485D01*
X233274874Y-42504961D02*
X233579636Y-42504961D01*
X233389160Y-42238295D02*
X233389160Y-42924009D01*
X233389160Y-42924009D02*
X233427255Y-43000200D01*
X233427255Y-43000200D02*
X233503445Y-43038295D01*
X233503445Y-43038295D02*
X233579636Y-43038295D01*
X234265350Y-42276390D02*
X234189160Y-42238295D01*
X234189160Y-42238295D02*
X234074874Y-42238295D01*
X234074874Y-42238295D02*
X233960588Y-42276390D01*
X233960588Y-42276390D02*
X233884398Y-42352580D01*
X233884398Y-42352580D02*
X233846303Y-42428771D01*
X233846303Y-42428771D02*
X233808207Y-42581152D01*
X233808207Y-42581152D02*
X233808207Y-42695438D01*
X233808207Y-42695438D02*
X233846303Y-42847819D01*
X233846303Y-42847819D02*
X233884398Y-42924009D01*
X233884398Y-42924009D02*
X233960588Y-43000200D01*
X233960588Y-43000200D02*
X234074874Y-43038295D01*
X234074874Y-43038295D02*
X234151065Y-43038295D01*
X234151065Y-43038295D02*
X234265350Y-43000200D01*
X234265350Y-43000200D02*
X234303446Y-42962104D01*
X234303446Y-42962104D02*
X234303446Y-42695438D01*
X234303446Y-42695438D02*
X234151065Y-42695438D01*
X234646303Y-42504961D02*
X234646303Y-43038295D01*
X234646303Y-42581152D02*
X234684398Y-42543057D01*
X234684398Y-42543057D02*
X234760588Y-42504961D01*
X234760588Y-42504961D02*
X234874874Y-42504961D01*
X234874874Y-42504961D02*
X234951065Y-42543057D01*
X234951065Y-42543057D02*
X234989160Y-42619247D01*
X234989160Y-42619247D02*
X234989160Y-43038295D01*
X235712970Y-43038295D02*
X235712970Y-42238295D01*
X235712970Y-43000200D02*
X235636779Y-43038295D01*
X235636779Y-43038295D02*
X235484398Y-43038295D01*
X235484398Y-43038295D02*
X235408208Y-43000200D01*
X235408208Y-43000200D02*
X235370113Y-42962104D01*
X235370113Y-42962104D02*
X235332017Y-42885914D01*
X235332017Y-42885914D02*
X235332017Y-42657342D01*
X235332017Y-42657342D02*
X235370113Y-42581152D01*
X235370113Y-42581152D02*
X235408208Y-42543057D01*
X235408208Y-42543057D02*
X235484398Y-42504961D01*
X235484398Y-42504961D02*
X235636779Y-42504961D01*
X235636779Y-42504961D02*
X235712970Y-42543057D01*
X233046303Y-45538104D02*
X233008207Y-45576200D01*
X233008207Y-45576200D02*
X232893922Y-45614295D01*
X232893922Y-45614295D02*
X232817731Y-45614295D01*
X232817731Y-45614295D02*
X232703445Y-45576200D01*
X232703445Y-45576200D02*
X232627255Y-45500009D01*
X232627255Y-45500009D02*
X232589160Y-45423819D01*
X232589160Y-45423819D02*
X232551064Y-45271438D01*
X232551064Y-45271438D02*
X232551064Y-45157152D01*
X232551064Y-45157152D02*
X232589160Y-45004771D01*
X232589160Y-45004771D02*
X232627255Y-44928580D01*
X232627255Y-44928580D02*
X232703445Y-44852390D01*
X232703445Y-44852390D02*
X232817731Y-44814295D01*
X232817731Y-44814295D02*
X232893922Y-44814295D01*
X232893922Y-44814295D02*
X233008207Y-44852390D01*
X233008207Y-44852390D02*
X233046303Y-44890485D01*
X233274874Y-45080961D02*
X233579636Y-45080961D01*
X233389160Y-44814295D02*
X233389160Y-45500009D01*
X233389160Y-45500009D02*
X233427255Y-45576200D01*
X233427255Y-45576200D02*
X233503445Y-45614295D01*
X233503445Y-45614295D02*
X233579636Y-45614295D01*
X233846303Y-45614295D02*
X233846303Y-45080961D01*
X233846303Y-45233342D02*
X233884398Y-45157152D01*
X233884398Y-45157152D02*
X233922493Y-45119057D01*
X233922493Y-45119057D02*
X233998684Y-45080961D01*
X233998684Y-45080961D02*
X234074874Y-45080961D01*
X234455826Y-45614295D02*
X234379636Y-45576200D01*
X234379636Y-45576200D02*
X234341541Y-45500009D01*
X234341541Y-45500009D02*
X234341541Y-44814295D01*
X235103446Y-45080961D02*
X235103446Y-45614295D01*
X234912970Y-44776200D02*
X234722493Y-45347628D01*
X234722493Y-45347628D02*
X235217732Y-45347628D01*
X233046303Y-48114104D02*
X233008207Y-48152200D01*
X233008207Y-48152200D02*
X232893922Y-48190295D01*
X232893922Y-48190295D02*
X232817731Y-48190295D01*
X232817731Y-48190295D02*
X232703445Y-48152200D01*
X232703445Y-48152200D02*
X232627255Y-48076009D01*
X232627255Y-48076009D02*
X232589160Y-47999819D01*
X232589160Y-47999819D02*
X232551064Y-47847438D01*
X232551064Y-47847438D02*
X232551064Y-47733152D01*
X232551064Y-47733152D02*
X232589160Y-47580771D01*
X232589160Y-47580771D02*
X232627255Y-47504580D01*
X232627255Y-47504580D02*
X232703445Y-47428390D01*
X232703445Y-47428390D02*
X232817731Y-47390295D01*
X232817731Y-47390295D02*
X232893922Y-47390295D01*
X232893922Y-47390295D02*
X233008207Y-47428390D01*
X233008207Y-47428390D02*
X233046303Y-47466485D01*
X233274874Y-47656961D02*
X233579636Y-47656961D01*
X233389160Y-47390295D02*
X233389160Y-48076009D01*
X233389160Y-48076009D02*
X233427255Y-48152200D01*
X233427255Y-48152200D02*
X233503445Y-48190295D01*
X233503445Y-48190295D02*
X233579636Y-48190295D01*
X233846303Y-48190295D02*
X233846303Y-47656961D01*
X233846303Y-47809342D02*
X233884398Y-47733152D01*
X233884398Y-47733152D02*
X233922493Y-47695057D01*
X233922493Y-47695057D02*
X233998684Y-47656961D01*
X233998684Y-47656961D02*
X234074874Y-47656961D01*
X234455826Y-48190295D02*
X234379636Y-48152200D01*
X234379636Y-48152200D02*
X234341541Y-48076009D01*
X234341541Y-48076009D02*
X234341541Y-47390295D01*
X235141541Y-47390295D02*
X234760589Y-47390295D01*
X234760589Y-47390295D02*
X234722493Y-47771247D01*
X234722493Y-47771247D02*
X234760589Y-47733152D01*
X234760589Y-47733152D02*
X234836779Y-47695057D01*
X234836779Y-47695057D02*
X235027255Y-47695057D01*
X235027255Y-47695057D02*
X235103446Y-47733152D01*
X235103446Y-47733152D02*
X235141541Y-47771247D01*
X235141541Y-47771247D02*
X235179636Y-47847438D01*
X235179636Y-47847438D02*
X235179636Y-48037914D01*
X235179636Y-48037914D02*
X235141541Y-48114104D01*
X235141541Y-48114104D02*
X235103446Y-48152200D01*
X235103446Y-48152200D02*
X235027255Y-48190295D01*
X235027255Y-48190295D02*
X234836779Y-48190295D01*
X234836779Y-48190295D02*
X234760589Y-48152200D01*
X234760589Y-48152200D02*
X234722493Y-48114104D01*
X233046303Y-50690104D02*
X233008207Y-50728200D01*
X233008207Y-50728200D02*
X232893922Y-50766295D01*
X232893922Y-50766295D02*
X232817731Y-50766295D01*
X232817731Y-50766295D02*
X232703445Y-50728200D01*
X232703445Y-50728200D02*
X232627255Y-50652009D01*
X232627255Y-50652009D02*
X232589160Y-50575819D01*
X232589160Y-50575819D02*
X232551064Y-50423438D01*
X232551064Y-50423438D02*
X232551064Y-50309152D01*
X232551064Y-50309152D02*
X232589160Y-50156771D01*
X232589160Y-50156771D02*
X232627255Y-50080580D01*
X232627255Y-50080580D02*
X232703445Y-50004390D01*
X232703445Y-50004390D02*
X232817731Y-49966295D01*
X232817731Y-49966295D02*
X232893922Y-49966295D01*
X232893922Y-49966295D02*
X233008207Y-50004390D01*
X233008207Y-50004390D02*
X233046303Y-50042485D01*
X233274874Y-50232961D02*
X233579636Y-50232961D01*
X233389160Y-49966295D02*
X233389160Y-50652009D01*
X233389160Y-50652009D02*
X233427255Y-50728200D01*
X233427255Y-50728200D02*
X233503445Y-50766295D01*
X233503445Y-50766295D02*
X233579636Y-50766295D01*
X233846303Y-50766295D02*
X233846303Y-50232961D01*
X233846303Y-50385342D02*
X233884398Y-50309152D01*
X233884398Y-50309152D02*
X233922493Y-50271057D01*
X233922493Y-50271057D02*
X233998684Y-50232961D01*
X233998684Y-50232961D02*
X234074874Y-50232961D01*
X234455826Y-50766295D02*
X234379636Y-50728200D01*
X234379636Y-50728200D02*
X234341541Y-50652009D01*
X234341541Y-50652009D02*
X234341541Y-49966295D01*
X235103446Y-49966295D02*
X234951065Y-49966295D01*
X234951065Y-49966295D02*
X234874874Y-50004390D01*
X234874874Y-50004390D02*
X234836779Y-50042485D01*
X234836779Y-50042485D02*
X234760589Y-50156771D01*
X234760589Y-50156771D02*
X234722493Y-50309152D01*
X234722493Y-50309152D02*
X234722493Y-50613914D01*
X234722493Y-50613914D02*
X234760589Y-50690104D01*
X234760589Y-50690104D02*
X234798684Y-50728200D01*
X234798684Y-50728200D02*
X234874874Y-50766295D01*
X234874874Y-50766295D02*
X235027255Y-50766295D01*
X235027255Y-50766295D02*
X235103446Y-50728200D01*
X235103446Y-50728200D02*
X235141541Y-50690104D01*
X235141541Y-50690104D02*
X235179636Y-50613914D01*
X235179636Y-50613914D02*
X235179636Y-50423438D01*
X235179636Y-50423438D02*
X235141541Y-50347247D01*
X235141541Y-50347247D02*
X235103446Y-50309152D01*
X235103446Y-50309152D02*
X235027255Y-50271057D01*
X235027255Y-50271057D02*
X234874874Y-50271057D01*
X234874874Y-50271057D02*
X234798684Y-50309152D01*
X234798684Y-50309152D02*
X234760589Y-50347247D01*
X234760589Y-50347247D02*
X234722493Y-50423438D01*
X233046303Y-53342295D02*
X232779636Y-52961342D01*
X232589160Y-53342295D02*
X232589160Y-52542295D01*
X232589160Y-52542295D02*
X232893922Y-52542295D01*
X232893922Y-52542295D02*
X232970112Y-52580390D01*
X232970112Y-52580390D02*
X233008207Y-52618485D01*
X233008207Y-52618485D02*
X233046303Y-52694676D01*
X233046303Y-52694676D02*
X233046303Y-52808961D01*
X233046303Y-52808961D02*
X233008207Y-52885152D01*
X233008207Y-52885152D02*
X232970112Y-52923247D01*
X232970112Y-52923247D02*
X232893922Y-52961342D01*
X232893922Y-52961342D02*
X232589160Y-52961342D01*
X232970112Y-55918295D02*
X232589160Y-55918295D01*
X232589160Y-55918295D02*
X232589160Y-55118295D01*
X232551064Y-58456200D02*
X232665350Y-58494295D01*
X232665350Y-58494295D02*
X232855826Y-58494295D01*
X232855826Y-58494295D02*
X232932017Y-58456200D01*
X232932017Y-58456200D02*
X232970112Y-58418104D01*
X232970112Y-58418104D02*
X233008207Y-58341914D01*
X233008207Y-58341914D02*
X233008207Y-58265723D01*
X233008207Y-58265723D02*
X232970112Y-58189533D01*
X232970112Y-58189533D02*
X232932017Y-58151438D01*
X232932017Y-58151438D02*
X232855826Y-58113342D01*
X232855826Y-58113342D02*
X232703445Y-58075247D01*
X232703445Y-58075247D02*
X232627255Y-58037152D01*
X232627255Y-58037152D02*
X232589160Y-57999057D01*
X232589160Y-57999057D02*
X232551064Y-57922866D01*
X232551064Y-57922866D02*
X232551064Y-57846676D01*
X232551064Y-57846676D02*
X232589160Y-57770485D01*
X232589160Y-57770485D02*
X232627255Y-57732390D01*
X232627255Y-57732390D02*
X232703445Y-57694295D01*
X232703445Y-57694295D02*
X232893922Y-57694295D01*
X232893922Y-57694295D02*
X233008207Y-57732390D01*
X233351065Y-58494295D02*
X233351065Y-57960961D01*
X233351065Y-57694295D02*
X233312969Y-57732390D01*
X233312969Y-57732390D02*
X233351065Y-57770485D01*
X233351065Y-57770485D02*
X233389160Y-57732390D01*
X233389160Y-57732390D02*
X233351065Y-57694295D01*
X233351065Y-57694295D02*
X233351065Y-57770485D01*
X234074874Y-57960961D02*
X234074874Y-58608580D01*
X234074874Y-58608580D02*
X234036779Y-58684771D01*
X234036779Y-58684771D02*
X233998683Y-58722866D01*
X233998683Y-58722866D02*
X233922493Y-58760961D01*
X233922493Y-58760961D02*
X233808207Y-58760961D01*
X233808207Y-58760961D02*
X233732017Y-58722866D01*
X234074874Y-58456200D02*
X233998683Y-58494295D01*
X233998683Y-58494295D02*
X233846302Y-58494295D01*
X233846302Y-58494295D02*
X233770112Y-58456200D01*
X233770112Y-58456200D02*
X233732017Y-58418104D01*
X233732017Y-58418104D02*
X233693921Y-58341914D01*
X233693921Y-58341914D02*
X233693921Y-58113342D01*
X233693921Y-58113342D02*
X233732017Y-58037152D01*
X233732017Y-58037152D02*
X233770112Y-57999057D01*
X233770112Y-57999057D02*
X233846302Y-57960961D01*
X233846302Y-57960961D02*
X233998683Y-57960961D01*
X233998683Y-57960961D02*
X234074874Y-57999057D01*
X234265351Y-58570485D02*
X234874874Y-58570485D01*
X235408208Y-57960961D02*
X235408208Y-58608580D01*
X235408208Y-58608580D02*
X235370113Y-58684771D01*
X235370113Y-58684771D02*
X235332017Y-58722866D01*
X235332017Y-58722866D02*
X235255827Y-58760961D01*
X235255827Y-58760961D02*
X235141541Y-58760961D01*
X235141541Y-58760961D02*
X235065351Y-58722866D01*
X235408208Y-58456200D02*
X235332017Y-58494295D01*
X235332017Y-58494295D02*
X235179636Y-58494295D01*
X235179636Y-58494295D02*
X235103446Y-58456200D01*
X235103446Y-58456200D02*
X235065351Y-58418104D01*
X235065351Y-58418104D02*
X235027255Y-58341914D01*
X235027255Y-58341914D02*
X235027255Y-58113342D01*
X235027255Y-58113342D02*
X235065351Y-58037152D01*
X235065351Y-58037152D02*
X235103446Y-57999057D01*
X235103446Y-57999057D02*
X235179636Y-57960961D01*
X235179636Y-57960961D02*
X235332017Y-57960961D01*
X235332017Y-57960961D02*
X235408208Y-57999057D01*
X235789161Y-57960961D02*
X235789161Y-58494295D01*
X235789161Y-58037152D02*
X235827256Y-57999057D01*
X235827256Y-57999057D02*
X235903446Y-57960961D01*
X235903446Y-57960961D02*
X236017732Y-57960961D01*
X236017732Y-57960961D02*
X236093923Y-57999057D01*
X236093923Y-57999057D02*
X236132018Y-58075247D01*
X236132018Y-58075247D02*
X236132018Y-58494295D01*
X236855828Y-58494295D02*
X236855828Y-57694295D01*
X236855828Y-58456200D02*
X236779637Y-58494295D01*
X236779637Y-58494295D02*
X236627256Y-58494295D01*
X236627256Y-58494295D02*
X236551066Y-58456200D01*
X236551066Y-58456200D02*
X236512971Y-58418104D01*
X236512971Y-58418104D02*
X236474875Y-58341914D01*
X236474875Y-58341914D02*
X236474875Y-58113342D01*
X236474875Y-58113342D02*
X236512971Y-58037152D01*
X236512971Y-58037152D02*
X236551066Y-57999057D01*
X236551066Y-57999057D02*
X236627256Y-57960961D01*
X236627256Y-57960961D02*
X236779637Y-57960961D01*
X236779637Y-57960961D02*
X236855828Y-57999057D01*
X173575469Y-72379819D02*
X173099279Y-72379819D01*
X173099279Y-72379819D02*
X173099279Y-71379819D01*
X174289755Y-72332200D02*
X174194517Y-72379819D01*
X174194517Y-72379819D02*
X174004041Y-72379819D01*
X174004041Y-72379819D02*
X173908803Y-72332200D01*
X173908803Y-72332200D02*
X173861184Y-72236961D01*
X173861184Y-72236961D02*
X173861184Y-71856009D01*
X173861184Y-71856009D02*
X173908803Y-71760771D01*
X173908803Y-71760771D02*
X174004041Y-71713152D01*
X174004041Y-71713152D02*
X174194517Y-71713152D01*
X174194517Y-71713152D02*
X174289755Y-71760771D01*
X174289755Y-71760771D02*
X174337374Y-71856009D01*
X174337374Y-71856009D02*
X174337374Y-71951247D01*
X174337374Y-71951247D02*
X173861184Y-72046485D01*
X174623089Y-71713152D02*
X175004041Y-71713152D01*
X174765946Y-72379819D02*
X174765946Y-71522676D01*
X174765946Y-71522676D02*
X174813565Y-71427438D01*
X174813565Y-71427438D02*
X174908803Y-71379819D01*
X174908803Y-71379819D02*
X175004041Y-71379819D01*
X175194518Y-71713152D02*
X175575470Y-71713152D01*
X175337375Y-71379819D02*
X175337375Y-72236961D01*
X175337375Y-72236961D02*
X175384994Y-72332200D01*
X175384994Y-72332200D02*
X175480232Y-72379819D01*
X175480232Y-72379819D02*
X175575470Y-72379819D01*
X173813564Y-72942200D02*
X172956422Y-74227914D01*
X174146898Y-73989819D02*
X174146898Y-73323152D01*
X174146898Y-73418390D02*
X174194517Y-73370771D01*
X174194517Y-73370771D02*
X174289755Y-73323152D01*
X174289755Y-73323152D02*
X174432612Y-73323152D01*
X174432612Y-73323152D02*
X174527850Y-73370771D01*
X174527850Y-73370771D02*
X174575469Y-73466009D01*
X174575469Y-73466009D02*
X174575469Y-73989819D01*
X174575469Y-73466009D02*
X174623088Y-73370771D01*
X174623088Y-73370771D02*
X174718326Y-73323152D01*
X174718326Y-73323152D02*
X174861183Y-73323152D01*
X174861183Y-73323152D02*
X174956422Y-73370771D01*
X174956422Y-73370771D02*
X175004041Y-73466009D01*
X175004041Y-73466009D02*
X175004041Y-73989819D01*
X175623088Y-73989819D02*
X175527850Y-73942200D01*
X175527850Y-73942200D02*
X175480231Y-73894580D01*
X175480231Y-73894580D02*
X175432612Y-73799342D01*
X175432612Y-73799342D02*
X175432612Y-73513628D01*
X175432612Y-73513628D02*
X175480231Y-73418390D01*
X175480231Y-73418390D02*
X175527850Y-73370771D01*
X175527850Y-73370771D02*
X175623088Y-73323152D01*
X175623088Y-73323152D02*
X175765945Y-73323152D01*
X175765945Y-73323152D02*
X175861183Y-73370771D01*
X175861183Y-73370771D02*
X175908802Y-73418390D01*
X175908802Y-73418390D02*
X175956421Y-73513628D01*
X175956421Y-73513628D02*
X175956421Y-73799342D01*
X175956421Y-73799342D02*
X175908802Y-73894580D01*
X175908802Y-73894580D02*
X175861183Y-73942200D01*
X175861183Y-73942200D02*
X175765945Y-73989819D01*
X175765945Y-73989819D02*
X175623088Y-73989819D01*
X176384993Y-73323152D02*
X176384993Y-73989819D01*
X176384993Y-73418390D02*
X176432612Y-73370771D01*
X176432612Y-73370771D02*
X176527850Y-73323152D01*
X176527850Y-73323152D02*
X176670707Y-73323152D01*
X176670707Y-73323152D02*
X176765945Y-73370771D01*
X176765945Y-73370771D02*
X176813564Y-73466009D01*
X176813564Y-73466009D02*
X176813564Y-73989819D01*
X177432612Y-73989819D02*
X177337374Y-73942200D01*
X177337374Y-73942200D02*
X177289755Y-73894580D01*
X177289755Y-73894580D02*
X177242136Y-73799342D01*
X177242136Y-73799342D02*
X177242136Y-73513628D01*
X177242136Y-73513628D02*
X177289755Y-73418390D01*
X177289755Y-73418390D02*
X177337374Y-73370771D01*
X177337374Y-73370771D02*
X177432612Y-73323152D01*
X177432612Y-73323152D02*
X177575469Y-73323152D01*
X177575469Y-73323152D02*
X177670707Y-73370771D01*
X177670707Y-73370771D02*
X177718326Y-73418390D01*
X177718326Y-73418390D02*
X177765945Y-73513628D01*
X177765945Y-73513628D02*
X177765945Y-73799342D01*
X177765945Y-73799342D02*
X177718326Y-73894580D01*
X177718326Y-73894580D02*
X177670707Y-73942200D01*
X177670707Y-73942200D02*
X177575469Y-73989819D01*
X177575469Y-73989819D02*
X177432612Y-73989819D01*
X173623088Y-76257438D02*
X173527850Y-76209819D01*
X173527850Y-76209819D02*
X173384993Y-76209819D01*
X173384993Y-76209819D02*
X173242136Y-76257438D01*
X173242136Y-76257438D02*
X173146898Y-76352676D01*
X173146898Y-76352676D02*
X173099279Y-76447914D01*
X173099279Y-76447914D02*
X173051660Y-76638390D01*
X173051660Y-76638390D02*
X173051660Y-76781247D01*
X173051660Y-76781247D02*
X173099279Y-76971723D01*
X173099279Y-76971723D02*
X173146898Y-77066961D01*
X173146898Y-77066961D02*
X173242136Y-77162200D01*
X173242136Y-77162200D02*
X173384993Y-77209819D01*
X173384993Y-77209819D02*
X173480231Y-77209819D01*
X173480231Y-77209819D02*
X173623088Y-77162200D01*
X173623088Y-77162200D02*
X173670707Y-77114580D01*
X173670707Y-77114580D02*
X173670707Y-76781247D01*
X173670707Y-76781247D02*
X173480231Y-76781247D01*
X174099279Y-76543152D02*
X174099279Y-77209819D01*
X174099279Y-76638390D02*
X174146898Y-76590771D01*
X174146898Y-76590771D02*
X174242136Y-76543152D01*
X174242136Y-76543152D02*
X174384993Y-76543152D01*
X174384993Y-76543152D02*
X174480231Y-76590771D01*
X174480231Y-76590771D02*
X174527850Y-76686009D01*
X174527850Y-76686009D02*
X174527850Y-77209819D01*
X175432612Y-77209819D02*
X175432612Y-76209819D01*
X175432612Y-77162200D02*
X175337374Y-77209819D01*
X175337374Y-77209819D02*
X175146898Y-77209819D01*
X175146898Y-77209819D02*
X175051660Y-77162200D01*
X175051660Y-77162200D02*
X175004041Y-77114580D01*
X175004041Y-77114580D02*
X174956422Y-77019342D01*
X174956422Y-77019342D02*
X174956422Y-76733628D01*
X174956422Y-76733628D02*
X175004041Y-76638390D01*
X175004041Y-76638390D02*
X175051660Y-76590771D01*
X175051660Y-76590771D02*
X175146898Y-76543152D01*
X175146898Y-76543152D02*
X175337374Y-76543152D01*
X175337374Y-76543152D02*
X175432612Y-76590771D01*
X173670707Y-82039819D02*
X173337374Y-81563628D01*
X173099279Y-82039819D02*
X173099279Y-81039819D01*
X173099279Y-81039819D02*
X173480231Y-81039819D01*
X173480231Y-81039819D02*
X173575469Y-81087438D01*
X173575469Y-81087438D02*
X173623088Y-81135057D01*
X173623088Y-81135057D02*
X173670707Y-81230295D01*
X173670707Y-81230295D02*
X173670707Y-81373152D01*
X173670707Y-81373152D02*
X173623088Y-81468390D01*
X173623088Y-81468390D02*
X173575469Y-81516009D01*
X173575469Y-81516009D02*
X173480231Y-81563628D01*
X173480231Y-81563628D02*
X173099279Y-81563628D01*
X173623088Y-85917438D02*
X173527850Y-85869819D01*
X173527850Y-85869819D02*
X173384993Y-85869819D01*
X173384993Y-85869819D02*
X173242136Y-85917438D01*
X173242136Y-85917438D02*
X173146898Y-86012676D01*
X173146898Y-86012676D02*
X173099279Y-86107914D01*
X173099279Y-86107914D02*
X173051660Y-86298390D01*
X173051660Y-86298390D02*
X173051660Y-86441247D01*
X173051660Y-86441247D02*
X173099279Y-86631723D01*
X173099279Y-86631723D02*
X173146898Y-86726961D01*
X173146898Y-86726961D02*
X173242136Y-86822200D01*
X173242136Y-86822200D02*
X173384993Y-86869819D01*
X173384993Y-86869819D02*
X173480231Y-86869819D01*
X173480231Y-86869819D02*
X173623088Y-86822200D01*
X173623088Y-86822200D02*
X173670707Y-86774580D01*
X173670707Y-86774580D02*
X173670707Y-86441247D01*
X173670707Y-86441247D02*
X173480231Y-86441247D01*
X174099279Y-86203152D02*
X174099279Y-86869819D01*
X174099279Y-86298390D02*
X174146898Y-86250771D01*
X174146898Y-86250771D02*
X174242136Y-86203152D01*
X174242136Y-86203152D02*
X174384993Y-86203152D01*
X174384993Y-86203152D02*
X174480231Y-86250771D01*
X174480231Y-86250771D02*
X174527850Y-86346009D01*
X174527850Y-86346009D02*
X174527850Y-86869819D01*
X175432612Y-86869819D02*
X175432612Y-85869819D01*
X175432612Y-86822200D02*
X175337374Y-86869819D01*
X175337374Y-86869819D02*
X175146898Y-86869819D01*
X175146898Y-86869819D02*
X175051660Y-86822200D01*
X175051660Y-86822200D02*
X175004041Y-86774580D01*
X175004041Y-86774580D02*
X174956422Y-86679342D01*
X174956422Y-86679342D02*
X174956422Y-86393628D01*
X174956422Y-86393628D02*
X175004041Y-86298390D01*
X175004041Y-86298390D02*
X175051660Y-86250771D01*
X175051660Y-86250771D02*
X175146898Y-86203152D01*
X175146898Y-86203152D02*
X175337374Y-86203152D01*
X175337374Y-86203152D02*
X175432612Y-86250771D01*
X201675469Y-71879819D02*
X201199279Y-71879819D01*
X201199279Y-71879819D02*
X201199279Y-70879819D01*
X202389755Y-71832200D02*
X202294517Y-71879819D01*
X202294517Y-71879819D02*
X202104041Y-71879819D01*
X202104041Y-71879819D02*
X202008803Y-71832200D01*
X202008803Y-71832200D02*
X201961184Y-71736961D01*
X201961184Y-71736961D02*
X201961184Y-71356009D01*
X201961184Y-71356009D02*
X202008803Y-71260771D01*
X202008803Y-71260771D02*
X202104041Y-71213152D01*
X202104041Y-71213152D02*
X202294517Y-71213152D01*
X202294517Y-71213152D02*
X202389755Y-71260771D01*
X202389755Y-71260771D02*
X202437374Y-71356009D01*
X202437374Y-71356009D02*
X202437374Y-71451247D01*
X202437374Y-71451247D02*
X201961184Y-71546485D01*
X202723089Y-71213152D02*
X203104041Y-71213152D01*
X202865946Y-71879819D02*
X202865946Y-71022676D01*
X202865946Y-71022676D02*
X202913565Y-70927438D01*
X202913565Y-70927438D02*
X203008803Y-70879819D01*
X203008803Y-70879819D02*
X203104041Y-70879819D01*
X203294518Y-71213152D02*
X203675470Y-71213152D01*
X203437375Y-70879819D02*
X203437375Y-71736961D01*
X203437375Y-71736961D02*
X203484994Y-71832200D01*
X203484994Y-71832200D02*
X203580232Y-71879819D01*
X203580232Y-71879819D02*
X203675470Y-71879819D01*
X201913564Y-72442200D02*
X201056422Y-73727914D01*
X202246898Y-73489819D02*
X202246898Y-72823152D01*
X202246898Y-72918390D02*
X202294517Y-72870771D01*
X202294517Y-72870771D02*
X202389755Y-72823152D01*
X202389755Y-72823152D02*
X202532612Y-72823152D01*
X202532612Y-72823152D02*
X202627850Y-72870771D01*
X202627850Y-72870771D02*
X202675469Y-72966009D01*
X202675469Y-72966009D02*
X202675469Y-73489819D01*
X202675469Y-72966009D02*
X202723088Y-72870771D01*
X202723088Y-72870771D02*
X202818326Y-72823152D01*
X202818326Y-72823152D02*
X202961183Y-72823152D01*
X202961183Y-72823152D02*
X203056422Y-72870771D01*
X203056422Y-72870771D02*
X203104041Y-72966009D01*
X203104041Y-72966009D02*
X203104041Y-73489819D01*
X203723088Y-73489819D02*
X203627850Y-73442200D01*
X203627850Y-73442200D02*
X203580231Y-73394580D01*
X203580231Y-73394580D02*
X203532612Y-73299342D01*
X203532612Y-73299342D02*
X203532612Y-73013628D01*
X203532612Y-73013628D02*
X203580231Y-72918390D01*
X203580231Y-72918390D02*
X203627850Y-72870771D01*
X203627850Y-72870771D02*
X203723088Y-72823152D01*
X203723088Y-72823152D02*
X203865945Y-72823152D01*
X203865945Y-72823152D02*
X203961183Y-72870771D01*
X203961183Y-72870771D02*
X204008802Y-72918390D01*
X204008802Y-72918390D02*
X204056421Y-73013628D01*
X204056421Y-73013628D02*
X204056421Y-73299342D01*
X204056421Y-73299342D02*
X204008802Y-73394580D01*
X204008802Y-73394580D02*
X203961183Y-73442200D01*
X203961183Y-73442200D02*
X203865945Y-73489819D01*
X203865945Y-73489819D02*
X203723088Y-73489819D01*
X204484993Y-72823152D02*
X204484993Y-73489819D01*
X204484993Y-72918390D02*
X204532612Y-72870771D01*
X204532612Y-72870771D02*
X204627850Y-72823152D01*
X204627850Y-72823152D02*
X204770707Y-72823152D01*
X204770707Y-72823152D02*
X204865945Y-72870771D01*
X204865945Y-72870771D02*
X204913564Y-72966009D01*
X204913564Y-72966009D02*
X204913564Y-73489819D01*
X205532612Y-73489819D02*
X205437374Y-73442200D01*
X205437374Y-73442200D02*
X205389755Y-73394580D01*
X205389755Y-73394580D02*
X205342136Y-73299342D01*
X205342136Y-73299342D02*
X205342136Y-73013628D01*
X205342136Y-73013628D02*
X205389755Y-72918390D01*
X205389755Y-72918390D02*
X205437374Y-72870771D01*
X205437374Y-72870771D02*
X205532612Y-72823152D01*
X205532612Y-72823152D02*
X205675469Y-72823152D01*
X205675469Y-72823152D02*
X205770707Y-72870771D01*
X205770707Y-72870771D02*
X205818326Y-72918390D01*
X205818326Y-72918390D02*
X205865945Y-73013628D01*
X205865945Y-73013628D02*
X205865945Y-73299342D01*
X205865945Y-73299342D02*
X205818326Y-73394580D01*
X205818326Y-73394580D02*
X205770707Y-73442200D01*
X205770707Y-73442200D02*
X205675469Y-73489819D01*
X205675469Y-73489819D02*
X205532612Y-73489819D01*
X201723088Y-75757438D02*
X201627850Y-75709819D01*
X201627850Y-75709819D02*
X201484993Y-75709819D01*
X201484993Y-75709819D02*
X201342136Y-75757438D01*
X201342136Y-75757438D02*
X201246898Y-75852676D01*
X201246898Y-75852676D02*
X201199279Y-75947914D01*
X201199279Y-75947914D02*
X201151660Y-76138390D01*
X201151660Y-76138390D02*
X201151660Y-76281247D01*
X201151660Y-76281247D02*
X201199279Y-76471723D01*
X201199279Y-76471723D02*
X201246898Y-76566961D01*
X201246898Y-76566961D02*
X201342136Y-76662200D01*
X201342136Y-76662200D02*
X201484993Y-76709819D01*
X201484993Y-76709819D02*
X201580231Y-76709819D01*
X201580231Y-76709819D02*
X201723088Y-76662200D01*
X201723088Y-76662200D02*
X201770707Y-76614580D01*
X201770707Y-76614580D02*
X201770707Y-76281247D01*
X201770707Y-76281247D02*
X201580231Y-76281247D01*
X202199279Y-76043152D02*
X202199279Y-76709819D01*
X202199279Y-76138390D02*
X202246898Y-76090771D01*
X202246898Y-76090771D02*
X202342136Y-76043152D01*
X202342136Y-76043152D02*
X202484993Y-76043152D01*
X202484993Y-76043152D02*
X202580231Y-76090771D01*
X202580231Y-76090771D02*
X202627850Y-76186009D01*
X202627850Y-76186009D02*
X202627850Y-76709819D01*
X203532612Y-76709819D02*
X203532612Y-75709819D01*
X203532612Y-76662200D02*
X203437374Y-76709819D01*
X203437374Y-76709819D02*
X203246898Y-76709819D01*
X203246898Y-76709819D02*
X203151660Y-76662200D01*
X203151660Y-76662200D02*
X203104041Y-76614580D01*
X203104041Y-76614580D02*
X203056422Y-76519342D01*
X203056422Y-76519342D02*
X203056422Y-76233628D01*
X203056422Y-76233628D02*
X203104041Y-76138390D01*
X203104041Y-76138390D02*
X203151660Y-76090771D01*
X203151660Y-76090771D02*
X203246898Y-76043152D01*
X203246898Y-76043152D02*
X203437374Y-76043152D01*
X203437374Y-76043152D02*
X203532612Y-76090771D01*
X201770707Y-81539819D02*
X201437374Y-81063628D01*
X201199279Y-81539819D02*
X201199279Y-80539819D01*
X201199279Y-80539819D02*
X201580231Y-80539819D01*
X201580231Y-80539819D02*
X201675469Y-80587438D01*
X201675469Y-80587438D02*
X201723088Y-80635057D01*
X201723088Y-80635057D02*
X201770707Y-80730295D01*
X201770707Y-80730295D02*
X201770707Y-80873152D01*
X201770707Y-80873152D02*
X201723088Y-80968390D01*
X201723088Y-80968390D02*
X201675469Y-81016009D01*
X201675469Y-81016009D02*
X201580231Y-81063628D01*
X201580231Y-81063628D02*
X201199279Y-81063628D01*
X201723088Y-85417438D02*
X201627850Y-85369819D01*
X201627850Y-85369819D02*
X201484993Y-85369819D01*
X201484993Y-85369819D02*
X201342136Y-85417438D01*
X201342136Y-85417438D02*
X201246898Y-85512676D01*
X201246898Y-85512676D02*
X201199279Y-85607914D01*
X201199279Y-85607914D02*
X201151660Y-85798390D01*
X201151660Y-85798390D02*
X201151660Y-85941247D01*
X201151660Y-85941247D02*
X201199279Y-86131723D01*
X201199279Y-86131723D02*
X201246898Y-86226961D01*
X201246898Y-86226961D02*
X201342136Y-86322200D01*
X201342136Y-86322200D02*
X201484993Y-86369819D01*
X201484993Y-86369819D02*
X201580231Y-86369819D01*
X201580231Y-86369819D02*
X201723088Y-86322200D01*
X201723088Y-86322200D02*
X201770707Y-86274580D01*
X201770707Y-86274580D02*
X201770707Y-85941247D01*
X201770707Y-85941247D02*
X201580231Y-85941247D01*
X202199279Y-85703152D02*
X202199279Y-86369819D01*
X202199279Y-85798390D02*
X202246898Y-85750771D01*
X202246898Y-85750771D02*
X202342136Y-85703152D01*
X202342136Y-85703152D02*
X202484993Y-85703152D01*
X202484993Y-85703152D02*
X202580231Y-85750771D01*
X202580231Y-85750771D02*
X202627850Y-85846009D01*
X202627850Y-85846009D02*
X202627850Y-86369819D01*
X203532612Y-86369819D02*
X203532612Y-85369819D01*
X203532612Y-86322200D02*
X203437374Y-86369819D01*
X203437374Y-86369819D02*
X203246898Y-86369819D01*
X203246898Y-86369819D02*
X203151660Y-86322200D01*
X203151660Y-86322200D02*
X203104041Y-86274580D01*
X203104041Y-86274580D02*
X203056422Y-86179342D01*
X203056422Y-86179342D02*
X203056422Y-85893628D01*
X203056422Y-85893628D02*
X203104041Y-85798390D01*
X203104041Y-85798390D02*
X203151660Y-85750771D01*
X203151660Y-85750771D02*
X203246898Y-85703152D01*
X203246898Y-85703152D02*
X203437374Y-85703152D01*
X203437374Y-85703152D02*
X203532612Y-85750771D01*
X163394819Y-50120238D02*
X162918628Y-50453571D01*
X163394819Y-50691666D02*
X162394819Y-50691666D01*
X162394819Y-50691666D02*
X162394819Y-50310714D01*
X162394819Y-50310714D02*
X162442438Y-50215476D01*
X162442438Y-50215476D02*
X162490057Y-50167857D01*
X162490057Y-50167857D02*
X162585295Y-50120238D01*
X162585295Y-50120238D02*
X162728152Y-50120238D01*
X162728152Y-50120238D02*
X162823390Y-50167857D01*
X162823390Y-50167857D02*
X162871009Y-50215476D01*
X162871009Y-50215476D02*
X162918628Y-50310714D01*
X162918628Y-50310714D02*
X162918628Y-50691666D01*
X163394819Y-49691666D02*
X162728152Y-49691666D01*
X162394819Y-49691666D02*
X162442438Y-49739285D01*
X162442438Y-49739285D02*
X162490057Y-49691666D01*
X162490057Y-49691666D02*
X162442438Y-49644047D01*
X162442438Y-49644047D02*
X162394819Y-49691666D01*
X162394819Y-49691666D02*
X162490057Y-49691666D01*
X162728152Y-48786905D02*
X163537676Y-48786905D01*
X163537676Y-48786905D02*
X163632914Y-48834524D01*
X163632914Y-48834524D02*
X163680533Y-48882143D01*
X163680533Y-48882143D02*
X163728152Y-48977381D01*
X163728152Y-48977381D02*
X163728152Y-49120238D01*
X163728152Y-49120238D02*
X163680533Y-49215476D01*
X163347200Y-48786905D02*
X163394819Y-48882143D01*
X163394819Y-48882143D02*
X163394819Y-49072619D01*
X163394819Y-49072619D02*
X163347200Y-49167857D01*
X163347200Y-49167857D02*
X163299580Y-49215476D01*
X163299580Y-49215476D02*
X163204342Y-49263095D01*
X163204342Y-49263095D02*
X162918628Y-49263095D01*
X162918628Y-49263095D02*
X162823390Y-49215476D01*
X162823390Y-49215476D02*
X162775771Y-49167857D01*
X162775771Y-49167857D02*
X162728152Y-49072619D01*
X162728152Y-49072619D02*
X162728152Y-48882143D01*
X162728152Y-48882143D02*
X162775771Y-48786905D01*
X163394819Y-48310714D02*
X162394819Y-48310714D01*
X163394819Y-47882143D02*
X162871009Y-47882143D01*
X162871009Y-47882143D02*
X162775771Y-47929762D01*
X162775771Y-47929762D02*
X162728152Y-48025000D01*
X162728152Y-48025000D02*
X162728152Y-48167857D01*
X162728152Y-48167857D02*
X162775771Y-48263095D01*
X162775771Y-48263095D02*
X162823390Y-48310714D01*
X162728152Y-47548809D02*
X162728152Y-47167857D01*
X162394819Y-47405952D02*
X163251961Y-47405952D01*
X163251961Y-47405952D02*
X163347200Y-47358333D01*
X163347200Y-47358333D02*
X163394819Y-47263095D01*
X163394819Y-47263095D02*
X163394819Y-47167857D01*
X162394819Y-46929761D02*
X162394819Y-46310714D01*
X162394819Y-46310714D02*
X162775771Y-46644047D01*
X162775771Y-46644047D02*
X162775771Y-46501190D01*
X162775771Y-46501190D02*
X162823390Y-46405952D01*
X162823390Y-46405952D02*
X162871009Y-46358333D01*
X162871009Y-46358333D02*
X162966247Y-46310714D01*
X162966247Y-46310714D02*
X163204342Y-46310714D01*
X163204342Y-46310714D02*
X163299580Y-46358333D01*
X163299580Y-46358333D02*
X163347200Y-46405952D01*
X163347200Y-46405952D02*
X163394819Y-46501190D01*
X163394819Y-46501190D02*
X163394819Y-46786904D01*
X163394819Y-46786904D02*
X163347200Y-46882142D01*
X163347200Y-46882142D02*
X163299580Y-46929761D01*
X238766666Y-37764819D02*
X238766666Y-38479104D01*
X238766666Y-38479104D02*
X238719047Y-38621961D01*
X238719047Y-38621961D02*
X238623809Y-38717200D01*
X238623809Y-38717200D02*
X238480952Y-38764819D01*
X238480952Y-38764819D02*
X238385714Y-38764819D01*
X239195238Y-37860057D02*
X239242857Y-37812438D01*
X239242857Y-37812438D02*
X239338095Y-37764819D01*
X239338095Y-37764819D02*
X239576190Y-37764819D01*
X239576190Y-37764819D02*
X239671428Y-37812438D01*
X239671428Y-37812438D02*
X239719047Y-37860057D01*
X239719047Y-37860057D02*
X239766666Y-37955295D01*
X239766666Y-37955295D02*
X239766666Y-38050533D01*
X239766666Y-38050533D02*
X239719047Y-38193390D01*
X239719047Y-38193390D02*
X239147619Y-38764819D01*
X239147619Y-38764819D02*
X239766666Y-38764819D01*
X215630057Y-57190000D02*
X215582438Y-57285238D01*
X215582438Y-57285238D02*
X215487200Y-57380476D01*
X215487200Y-57380476D02*
X215344342Y-57523333D01*
X215344342Y-57523333D02*
X215296723Y-57618571D01*
X215296723Y-57618571D02*
X215296723Y-57713809D01*
X215534819Y-57666190D02*
X215487200Y-57761428D01*
X215487200Y-57761428D02*
X215391961Y-57856666D01*
X215391961Y-57856666D02*
X215201485Y-57904285D01*
X215201485Y-57904285D02*
X214868152Y-57904285D01*
X214868152Y-57904285D02*
X214677676Y-57856666D01*
X214677676Y-57856666D02*
X214582438Y-57761428D01*
X214582438Y-57761428D02*
X214534819Y-57666190D01*
X214534819Y-57666190D02*
X214534819Y-57475714D01*
X214534819Y-57475714D02*
X214582438Y-57380476D01*
X214582438Y-57380476D02*
X214677676Y-57285238D01*
X214677676Y-57285238D02*
X214868152Y-57237619D01*
X214868152Y-57237619D02*
X215201485Y-57237619D01*
X215201485Y-57237619D02*
X215391961Y-57285238D01*
X215391961Y-57285238D02*
X215487200Y-57380476D01*
X215487200Y-57380476D02*
X215534819Y-57475714D01*
X215534819Y-57475714D02*
X215534819Y-57666190D01*
X215534819Y-56332857D02*
X215534819Y-56809047D01*
X215534819Y-56809047D02*
X214534819Y-56809047D01*
X214534819Y-56094761D02*
X214534819Y-55475714D01*
X214534819Y-55475714D02*
X214915771Y-55809047D01*
X214915771Y-55809047D02*
X214915771Y-55666190D01*
X214915771Y-55666190D02*
X214963390Y-55570952D01*
X214963390Y-55570952D02*
X215011009Y-55523333D01*
X215011009Y-55523333D02*
X215106247Y-55475714D01*
X215106247Y-55475714D02*
X215344342Y-55475714D01*
X215344342Y-55475714D02*
X215439580Y-55523333D01*
X215439580Y-55523333D02*
X215487200Y-55570952D01*
X215487200Y-55570952D02*
X215534819Y-55666190D01*
X215534819Y-55666190D02*
X215534819Y-55951904D01*
X215534819Y-55951904D02*
X215487200Y-56047142D01*
X215487200Y-56047142D02*
X215439580Y-56094761D01*
X177613366Y-88688333D02*
X176946700Y-89155000D01*
X177613366Y-89488333D02*
X176213366Y-89488333D01*
X176213366Y-89488333D02*
X176213366Y-88955000D01*
X176213366Y-88955000D02*
X176280033Y-88821667D01*
X176280033Y-88821667D02*
X176346700Y-88755000D01*
X176346700Y-88755000D02*
X176480033Y-88688333D01*
X176480033Y-88688333D02*
X176680033Y-88688333D01*
X176680033Y-88688333D02*
X176813366Y-88755000D01*
X176813366Y-88755000D02*
X176880033Y-88821667D01*
X176880033Y-88821667D02*
X176946700Y-88955000D01*
X176946700Y-88955000D02*
X176946700Y-89488333D01*
X177546700Y-87555000D02*
X177613366Y-87688333D01*
X177613366Y-87688333D02*
X177613366Y-87955000D01*
X177613366Y-87955000D02*
X177546700Y-88088333D01*
X177546700Y-88088333D02*
X177413366Y-88155000D01*
X177413366Y-88155000D02*
X176880033Y-88155000D01*
X176880033Y-88155000D02*
X176746700Y-88088333D01*
X176746700Y-88088333D02*
X176680033Y-87955000D01*
X176680033Y-87955000D02*
X176680033Y-87688333D01*
X176680033Y-87688333D02*
X176746700Y-87555000D01*
X176746700Y-87555000D02*
X176880033Y-87488333D01*
X176880033Y-87488333D02*
X177013366Y-87488333D01*
X177013366Y-87488333D02*
X177146700Y-88155000D01*
X176680033Y-87088333D02*
X176680033Y-86555000D01*
X176213366Y-86888333D02*
X177413366Y-86888333D01*
X177413366Y-86888333D02*
X177546700Y-86821667D01*
X177546700Y-86821667D02*
X177613366Y-86688333D01*
X177613366Y-86688333D02*
X177613366Y-86555000D01*
X176680033Y-85488333D02*
X177613366Y-85488333D01*
X176680033Y-86088333D02*
X177413366Y-86088333D01*
X177413366Y-86088333D02*
X177546700Y-86021667D01*
X177546700Y-86021667D02*
X177613366Y-85888333D01*
X177613366Y-85888333D02*
X177613366Y-85688333D01*
X177613366Y-85688333D02*
X177546700Y-85555000D01*
X177546700Y-85555000D02*
X177480033Y-85488333D01*
X177613366Y-84821666D02*
X176680033Y-84821666D01*
X176946700Y-84821666D02*
X176813366Y-84755000D01*
X176813366Y-84755000D02*
X176746700Y-84688333D01*
X176746700Y-84688333D02*
X176680033Y-84555000D01*
X176680033Y-84555000D02*
X176680033Y-84421666D01*
X176680033Y-83954999D02*
X177613366Y-83954999D01*
X176813366Y-83954999D02*
X176746700Y-83888333D01*
X176746700Y-83888333D02*
X176680033Y-83754999D01*
X176680033Y-83754999D02*
X176680033Y-83554999D01*
X176680033Y-83554999D02*
X176746700Y-83421666D01*
X176746700Y-83421666D02*
X176880033Y-83354999D01*
X176880033Y-83354999D02*
X177613366Y-83354999D01*
X176346700Y-82754999D02*
X176280033Y-82688332D01*
X176280033Y-82688332D02*
X176213366Y-82554999D01*
X176213366Y-82554999D02*
X176213366Y-82221666D01*
X176213366Y-82221666D02*
X176280033Y-82088332D01*
X176280033Y-82088332D02*
X176346700Y-82021666D01*
X176346700Y-82021666D02*
X176480033Y-81954999D01*
X176480033Y-81954999D02*
X176613366Y-81954999D01*
X176613366Y-81954999D02*
X176813366Y-82021666D01*
X176813366Y-82021666D02*
X177613366Y-82821666D01*
X177613366Y-82821666D02*
X177613366Y-81954999D01*
X181219405Y-90694819D02*
X181219405Y-89694819D01*
X181219405Y-89694819D02*
X181457500Y-89694819D01*
X181457500Y-89694819D02*
X181600357Y-89742438D01*
X181600357Y-89742438D02*
X181695595Y-89837676D01*
X181695595Y-89837676D02*
X181743214Y-89932914D01*
X181743214Y-89932914D02*
X181790833Y-90123390D01*
X181790833Y-90123390D02*
X181790833Y-90266247D01*
X181790833Y-90266247D02*
X181743214Y-90456723D01*
X181743214Y-90456723D02*
X181695595Y-90551961D01*
X181695595Y-90551961D02*
X181600357Y-90647200D01*
X181600357Y-90647200D02*
X181457500Y-90694819D01*
X181457500Y-90694819D02*
X181219405Y-90694819D01*
X182171786Y-89790057D02*
X182219405Y-89742438D01*
X182219405Y-89742438D02*
X182314643Y-89694819D01*
X182314643Y-89694819D02*
X182552738Y-89694819D01*
X182552738Y-89694819D02*
X182647976Y-89742438D01*
X182647976Y-89742438D02*
X182695595Y-89790057D01*
X182695595Y-89790057D02*
X182743214Y-89885295D01*
X182743214Y-89885295D02*
X182743214Y-89980533D01*
X182743214Y-89980533D02*
X182695595Y-90123390D01*
X182695595Y-90123390D02*
X182124167Y-90694819D01*
X182124167Y-90694819D02*
X182743214Y-90694819D01*
X224473332Y-49874819D02*
X223997142Y-49874819D01*
X223997142Y-49874819D02*
X223997142Y-48874819D01*
X225187618Y-49827200D02*
X225092380Y-49874819D01*
X225092380Y-49874819D02*
X224901904Y-49874819D01*
X224901904Y-49874819D02*
X224806666Y-49827200D01*
X224806666Y-49827200D02*
X224759047Y-49731961D01*
X224759047Y-49731961D02*
X224759047Y-49351009D01*
X224759047Y-49351009D02*
X224806666Y-49255771D01*
X224806666Y-49255771D02*
X224901904Y-49208152D01*
X224901904Y-49208152D02*
X225092380Y-49208152D01*
X225092380Y-49208152D02*
X225187618Y-49255771D01*
X225187618Y-49255771D02*
X225235237Y-49351009D01*
X225235237Y-49351009D02*
X225235237Y-49446247D01*
X225235237Y-49446247D02*
X224759047Y-49541485D01*
X225520952Y-49208152D02*
X225901904Y-49208152D01*
X225663809Y-49874819D02*
X225663809Y-49017676D01*
X225663809Y-49017676D02*
X225711428Y-48922438D01*
X225711428Y-48922438D02*
X225806666Y-48874819D01*
X225806666Y-48874819D02*
X225901904Y-48874819D01*
X226092381Y-49208152D02*
X226473333Y-49208152D01*
X226235238Y-48874819D02*
X226235238Y-49731961D01*
X226235238Y-49731961D02*
X226282857Y-49827200D01*
X226282857Y-49827200D02*
X226378095Y-49874819D01*
X226378095Y-49874819D02*
X226473333Y-49874819D01*
X226806667Y-49874819D02*
X226806667Y-48874819D01*
X226806667Y-48874819D02*
X227187619Y-48874819D01*
X227187619Y-48874819D02*
X227282857Y-48922438D01*
X227282857Y-48922438D02*
X227330476Y-48970057D01*
X227330476Y-48970057D02*
X227378095Y-49065295D01*
X227378095Y-49065295D02*
X227378095Y-49208152D01*
X227378095Y-49208152D02*
X227330476Y-49303390D01*
X227330476Y-49303390D02*
X227282857Y-49351009D01*
X227282857Y-49351009D02*
X227187619Y-49398628D01*
X227187619Y-49398628D02*
X226806667Y-49398628D01*
X227806667Y-49874819D02*
X227806667Y-48874819D01*
X227806667Y-48874819D02*
X228044762Y-48874819D01*
X228044762Y-48874819D02*
X228187619Y-48922438D01*
X228187619Y-48922438D02*
X228282857Y-49017676D01*
X228282857Y-49017676D02*
X228330476Y-49112914D01*
X228330476Y-49112914D02*
X228378095Y-49303390D01*
X228378095Y-49303390D02*
X228378095Y-49446247D01*
X228378095Y-49446247D02*
X228330476Y-49636723D01*
X228330476Y-49636723D02*
X228282857Y-49731961D01*
X228282857Y-49731961D02*
X228187619Y-49827200D01*
X228187619Y-49827200D02*
X228044762Y-49874819D01*
X228044762Y-49874819D02*
X227806667Y-49874819D01*
X228759048Y-48970057D02*
X228806667Y-48922438D01*
X228806667Y-48922438D02*
X228901905Y-48874819D01*
X228901905Y-48874819D02*
X229140000Y-48874819D01*
X229140000Y-48874819D02*
X229235238Y-48922438D01*
X229235238Y-48922438D02*
X229282857Y-48970057D01*
X229282857Y-48970057D02*
X229330476Y-49065295D01*
X229330476Y-49065295D02*
X229330476Y-49160533D01*
X229330476Y-49160533D02*
X229282857Y-49303390D01*
X229282857Y-49303390D02*
X228711429Y-49874819D01*
X228711429Y-49874819D02*
X229330476Y-49874819D01*
X171435700Y-89133333D02*
X171502366Y-88933333D01*
X171502366Y-88933333D02*
X171502366Y-88600000D01*
X171502366Y-88600000D02*
X171435700Y-88466666D01*
X171435700Y-88466666D02*
X171369033Y-88400000D01*
X171369033Y-88400000D02*
X171235700Y-88333333D01*
X171235700Y-88333333D02*
X171102366Y-88333333D01*
X171102366Y-88333333D02*
X170969033Y-88400000D01*
X170969033Y-88400000D02*
X170902366Y-88466666D01*
X170902366Y-88466666D02*
X170835700Y-88600000D01*
X170835700Y-88600000D02*
X170769033Y-88866666D01*
X170769033Y-88866666D02*
X170702366Y-89000000D01*
X170702366Y-89000000D02*
X170635700Y-89066666D01*
X170635700Y-89066666D02*
X170502366Y-89133333D01*
X170502366Y-89133333D02*
X170369033Y-89133333D01*
X170369033Y-89133333D02*
X170235700Y-89066666D01*
X170235700Y-89066666D02*
X170169033Y-89000000D01*
X170169033Y-89000000D02*
X170102366Y-88866666D01*
X170102366Y-88866666D02*
X170102366Y-88533333D01*
X170102366Y-88533333D02*
X170169033Y-88333333D01*
X171435700Y-87200000D02*
X171502366Y-87333333D01*
X171502366Y-87333333D02*
X171502366Y-87600000D01*
X171502366Y-87600000D02*
X171435700Y-87733333D01*
X171435700Y-87733333D02*
X171302366Y-87800000D01*
X171302366Y-87800000D02*
X170769033Y-87800000D01*
X170769033Y-87800000D02*
X170635700Y-87733333D01*
X170635700Y-87733333D02*
X170569033Y-87600000D01*
X170569033Y-87600000D02*
X170569033Y-87333333D01*
X170569033Y-87333333D02*
X170635700Y-87200000D01*
X170635700Y-87200000D02*
X170769033Y-87133333D01*
X170769033Y-87133333D02*
X170902366Y-87133333D01*
X170902366Y-87133333D02*
X171035700Y-87800000D01*
X170569033Y-86533333D02*
X171502366Y-86533333D01*
X170702366Y-86533333D02*
X170635700Y-86466667D01*
X170635700Y-86466667D02*
X170569033Y-86333333D01*
X170569033Y-86333333D02*
X170569033Y-86133333D01*
X170569033Y-86133333D02*
X170635700Y-86000000D01*
X170635700Y-86000000D02*
X170769033Y-85933333D01*
X170769033Y-85933333D02*
X171502366Y-85933333D01*
X171502366Y-84666666D02*
X170102366Y-84666666D01*
X171435700Y-84666666D02*
X171502366Y-84800000D01*
X171502366Y-84800000D02*
X171502366Y-85066666D01*
X171502366Y-85066666D02*
X171435700Y-85200000D01*
X171435700Y-85200000D02*
X171369033Y-85266666D01*
X171369033Y-85266666D02*
X171235700Y-85333333D01*
X171235700Y-85333333D02*
X170835700Y-85333333D01*
X170835700Y-85333333D02*
X170702366Y-85266666D01*
X170702366Y-85266666D02*
X170635700Y-85200000D01*
X170635700Y-85200000D02*
X170569033Y-85066666D01*
X170569033Y-85066666D02*
X170569033Y-84800000D01*
X170569033Y-84800000D02*
X170635700Y-84666666D01*
X170102366Y-84133333D02*
X170102366Y-83266666D01*
X170102366Y-83266666D02*
X170635700Y-83733333D01*
X170635700Y-83733333D02*
X170635700Y-83533333D01*
X170635700Y-83533333D02*
X170702366Y-83399999D01*
X170702366Y-83399999D02*
X170769033Y-83333333D01*
X170769033Y-83333333D02*
X170902366Y-83266666D01*
X170902366Y-83266666D02*
X171235700Y-83266666D01*
X171235700Y-83266666D02*
X171369033Y-83333333D01*
X171369033Y-83333333D02*
X171435700Y-83399999D01*
X171435700Y-83399999D02*
X171502366Y-83533333D01*
X171502366Y-83533333D02*
X171502366Y-83933333D01*
X171502366Y-83933333D02*
X171435700Y-84066666D01*
X171435700Y-84066666D02*
X171369033Y-84133333D01*
X131233333Y-54754819D02*
X130900000Y-54278628D01*
X130661905Y-54754819D02*
X130661905Y-53754819D01*
X130661905Y-53754819D02*
X131042857Y-53754819D01*
X131042857Y-53754819D02*
X131138095Y-53802438D01*
X131138095Y-53802438D02*
X131185714Y-53850057D01*
X131185714Y-53850057D02*
X131233333Y-53945295D01*
X131233333Y-53945295D02*
X131233333Y-54088152D01*
X131233333Y-54088152D02*
X131185714Y-54183390D01*
X131185714Y-54183390D02*
X131138095Y-54231009D01*
X131138095Y-54231009D02*
X131042857Y-54278628D01*
X131042857Y-54278628D02*
X130661905Y-54278628D01*
X132185714Y-54754819D02*
X131614286Y-54754819D01*
X131900000Y-54754819D02*
X131900000Y-53754819D01*
X131900000Y-53754819D02*
X131804762Y-53897676D01*
X131804762Y-53897676D02*
X131709524Y-53992914D01*
X131709524Y-53992914D02*
X131614286Y-54040533D01*
X164894819Y-62844048D02*
X164894819Y-63320238D01*
X164894819Y-63320238D02*
X163894819Y-63320238D01*
X164847200Y-62129762D02*
X164894819Y-62225000D01*
X164894819Y-62225000D02*
X164894819Y-62415476D01*
X164894819Y-62415476D02*
X164847200Y-62510714D01*
X164847200Y-62510714D02*
X164751961Y-62558333D01*
X164751961Y-62558333D02*
X164371009Y-62558333D01*
X164371009Y-62558333D02*
X164275771Y-62510714D01*
X164275771Y-62510714D02*
X164228152Y-62415476D01*
X164228152Y-62415476D02*
X164228152Y-62225000D01*
X164228152Y-62225000D02*
X164275771Y-62129762D01*
X164275771Y-62129762D02*
X164371009Y-62082143D01*
X164371009Y-62082143D02*
X164466247Y-62082143D01*
X164466247Y-62082143D02*
X164561485Y-62558333D01*
X164228152Y-61796428D02*
X164228152Y-61415476D01*
X164894819Y-61653571D02*
X164037676Y-61653571D01*
X164037676Y-61653571D02*
X163942438Y-61605952D01*
X163942438Y-61605952D02*
X163894819Y-61510714D01*
X163894819Y-61510714D02*
X163894819Y-61415476D01*
X164228152Y-61224999D02*
X164228152Y-60844047D01*
X163894819Y-61082142D02*
X164751961Y-61082142D01*
X164751961Y-61082142D02*
X164847200Y-61034523D01*
X164847200Y-61034523D02*
X164894819Y-60939285D01*
X164894819Y-60939285D02*
X164894819Y-60844047D01*
X163847200Y-59796428D02*
X165132914Y-60653570D01*
X164894819Y-59463094D02*
X163894819Y-59463094D01*
X163894819Y-59463094D02*
X164609104Y-59129761D01*
X164609104Y-59129761D02*
X163894819Y-58796428D01*
X163894819Y-58796428D02*
X164894819Y-58796428D01*
X164894819Y-58177380D02*
X164847200Y-58272618D01*
X164847200Y-58272618D02*
X164799580Y-58320237D01*
X164799580Y-58320237D02*
X164704342Y-58367856D01*
X164704342Y-58367856D02*
X164418628Y-58367856D01*
X164418628Y-58367856D02*
X164323390Y-58320237D01*
X164323390Y-58320237D02*
X164275771Y-58272618D01*
X164275771Y-58272618D02*
X164228152Y-58177380D01*
X164228152Y-58177380D02*
X164228152Y-58034523D01*
X164228152Y-58034523D02*
X164275771Y-57939285D01*
X164275771Y-57939285D02*
X164323390Y-57891666D01*
X164323390Y-57891666D02*
X164418628Y-57844047D01*
X164418628Y-57844047D02*
X164704342Y-57844047D01*
X164704342Y-57844047D02*
X164799580Y-57891666D01*
X164799580Y-57891666D02*
X164847200Y-57939285D01*
X164847200Y-57939285D02*
X164894819Y-58034523D01*
X164894819Y-58034523D02*
X164894819Y-58177380D01*
X164228152Y-57415475D02*
X164894819Y-57415475D01*
X164323390Y-57415475D02*
X164275771Y-57367856D01*
X164275771Y-57367856D02*
X164228152Y-57272618D01*
X164228152Y-57272618D02*
X164228152Y-57129761D01*
X164228152Y-57129761D02*
X164275771Y-57034523D01*
X164275771Y-57034523D02*
X164371009Y-56986904D01*
X164371009Y-56986904D02*
X164894819Y-56986904D01*
X164894819Y-56367856D02*
X164847200Y-56463094D01*
X164847200Y-56463094D02*
X164799580Y-56510713D01*
X164799580Y-56510713D02*
X164704342Y-56558332D01*
X164704342Y-56558332D02*
X164418628Y-56558332D01*
X164418628Y-56558332D02*
X164323390Y-56510713D01*
X164323390Y-56510713D02*
X164275771Y-56463094D01*
X164275771Y-56463094D02*
X164228152Y-56367856D01*
X164228152Y-56367856D02*
X164228152Y-56224999D01*
X164228152Y-56224999D02*
X164275771Y-56129761D01*
X164275771Y-56129761D02*
X164323390Y-56082142D01*
X164323390Y-56082142D02*
X164418628Y-56034523D01*
X164418628Y-56034523D02*
X164704342Y-56034523D01*
X164704342Y-56034523D02*
X164799580Y-56082142D01*
X164799580Y-56082142D02*
X164847200Y-56129761D01*
X164847200Y-56129761D02*
X164894819Y-56224999D01*
X164894819Y-56224999D02*
X164894819Y-56367856D01*
X163894819Y-55701189D02*
X163894819Y-55082142D01*
X163894819Y-55082142D02*
X164275771Y-55415475D01*
X164275771Y-55415475D02*
X164275771Y-55272618D01*
X164275771Y-55272618D02*
X164323390Y-55177380D01*
X164323390Y-55177380D02*
X164371009Y-55129761D01*
X164371009Y-55129761D02*
X164466247Y-55082142D01*
X164466247Y-55082142D02*
X164704342Y-55082142D01*
X164704342Y-55082142D02*
X164799580Y-55129761D01*
X164799580Y-55129761D02*
X164847200Y-55177380D01*
X164847200Y-55177380D02*
X164894819Y-55272618D01*
X164894819Y-55272618D02*
X164894819Y-55558332D01*
X164894819Y-55558332D02*
X164847200Y-55653570D01*
X164847200Y-55653570D02*
X164799580Y-55701189D01*
X221238095Y-67324819D02*
X221238095Y-68134342D01*
X221238095Y-68134342D02*
X221285714Y-68229580D01*
X221285714Y-68229580D02*
X221333333Y-68277200D01*
X221333333Y-68277200D02*
X221428571Y-68324819D01*
X221428571Y-68324819D02*
X221619047Y-68324819D01*
X221619047Y-68324819D02*
X221714285Y-68277200D01*
X221714285Y-68277200D02*
X221761904Y-68229580D01*
X221761904Y-68229580D02*
X221809523Y-68134342D01*
X221809523Y-68134342D02*
X221809523Y-67324819D01*
X222809523Y-68324819D02*
X222238095Y-68324819D01*
X222523809Y-68324819D02*
X222523809Y-67324819D01*
X222523809Y-67324819D02*
X222428571Y-67467676D01*
X222428571Y-67467676D02*
X222333333Y-67562914D01*
X222333333Y-67562914D02*
X222238095Y-67610533D01*
X224473332Y-56874819D02*
X223997142Y-56874819D01*
X223997142Y-56874819D02*
X223997142Y-55874819D01*
X225187618Y-56827200D02*
X225092380Y-56874819D01*
X225092380Y-56874819D02*
X224901904Y-56874819D01*
X224901904Y-56874819D02*
X224806666Y-56827200D01*
X224806666Y-56827200D02*
X224759047Y-56731961D01*
X224759047Y-56731961D02*
X224759047Y-56351009D01*
X224759047Y-56351009D02*
X224806666Y-56255771D01*
X224806666Y-56255771D02*
X224901904Y-56208152D01*
X224901904Y-56208152D02*
X225092380Y-56208152D01*
X225092380Y-56208152D02*
X225187618Y-56255771D01*
X225187618Y-56255771D02*
X225235237Y-56351009D01*
X225235237Y-56351009D02*
X225235237Y-56446247D01*
X225235237Y-56446247D02*
X224759047Y-56541485D01*
X225520952Y-56208152D02*
X225901904Y-56208152D01*
X225663809Y-56874819D02*
X225663809Y-56017676D01*
X225663809Y-56017676D02*
X225711428Y-55922438D01*
X225711428Y-55922438D02*
X225806666Y-55874819D01*
X225806666Y-55874819D02*
X225901904Y-55874819D01*
X226092381Y-56208152D02*
X226473333Y-56208152D01*
X226235238Y-55874819D02*
X226235238Y-56731961D01*
X226235238Y-56731961D02*
X226282857Y-56827200D01*
X226282857Y-56827200D02*
X226378095Y-56874819D01*
X226378095Y-56874819D02*
X226473333Y-56874819D01*
X226806667Y-56874819D02*
X226806667Y-55874819D01*
X226806667Y-55874819D02*
X227187619Y-55874819D01*
X227187619Y-55874819D02*
X227282857Y-55922438D01*
X227282857Y-55922438D02*
X227330476Y-55970057D01*
X227330476Y-55970057D02*
X227378095Y-56065295D01*
X227378095Y-56065295D02*
X227378095Y-56208152D01*
X227378095Y-56208152D02*
X227330476Y-56303390D01*
X227330476Y-56303390D02*
X227282857Y-56351009D01*
X227282857Y-56351009D02*
X227187619Y-56398628D01*
X227187619Y-56398628D02*
X226806667Y-56398628D01*
X227806667Y-56874819D02*
X227806667Y-55874819D01*
X227806667Y-55874819D02*
X228044762Y-55874819D01*
X228044762Y-55874819D02*
X228187619Y-55922438D01*
X228187619Y-55922438D02*
X228282857Y-56017676D01*
X228282857Y-56017676D02*
X228330476Y-56112914D01*
X228330476Y-56112914D02*
X228378095Y-56303390D01*
X228378095Y-56303390D02*
X228378095Y-56446247D01*
X228378095Y-56446247D02*
X228330476Y-56636723D01*
X228330476Y-56636723D02*
X228282857Y-56731961D01*
X228282857Y-56731961D02*
X228187619Y-56827200D01*
X228187619Y-56827200D02*
X228044762Y-56874819D01*
X228044762Y-56874819D02*
X227806667Y-56874819D01*
X228711429Y-55874819D02*
X229330476Y-55874819D01*
X229330476Y-55874819D02*
X228997143Y-56255771D01*
X228997143Y-56255771D02*
X229140000Y-56255771D01*
X229140000Y-56255771D02*
X229235238Y-56303390D01*
X229235238Y-56303390D02*
X229282857Y-56351009D01*
X229282857Y-56351009D02*
X229330476Y-56446247D01*
X229330476Y-56446247D02*
X229330476Y-56684342D01*
X229330476Y-56684342D02*
X229282857Y-56779580D01*
X229282857Y-56779580D02*
X229235238Y-56827200D01*
X229235238Y-56827200D02*
X229140000Y-56874819D01*
X229140000Y-56874819D02*
X228854286Y-56874819D01*
X228854286Y-56874819D02*
X228759048Y-56827200D01*
X228759048Y-56827200D02*
X228711429Y-56779580D01*
X216510118Y-96524819D02*
X216176785Y-96048628D01*
X215938690Y-96524819D02*
X215938690Y-95524819D01*
X215938690Y-95524819D02*
X216319642Y-95524819D01*
X216319642Y-95524819D02*
X216414880Y-95572438D01*
X216414880Y-95572438D02*
X216462499Y-95620057D01*
X216462499Y-95620057D02*
X216510118Y-95715295D01*
X216510118Y-95715295D02*
X216510118Y-95858152D01*
X216510118Y-95858152D02*
X216462499Y-95953390D01*
X216462499Y-95953390D02*
X216414880Y-96001009D01*
X216414880Y-96001009D02*
X216319642Y-96048628D01*
X216319642Y-96048628D02*
X215938690Y-96048628D01*
X217414880Y-96524819D02*
X216938690Y-96524819D01*
X216938690Y-96524819D02*
X216938690Y-95524819D01*
X218129166Y-96477200D02*
X218033928Y-96524819D01*
X218033928Y-96524819D02*
X217843452Y-96524819D01*
X217843452Y-96524819D02*
X217748214Y-96477200D01*
X217748214Y-96477200D02*
X217700595Y-96381961D01*
X217700595Y-96381961D02*
X217700595Y-96001009D01*
X217700595Y-96001009D02*
X217748214Y-95905771D01*
X217748214Y-95905771D02*
X217843452Y-95858152D01*
X217843452Y-95858152D02*
X218033928Y-95858152D01*
X218033928Y-95858152D02*
X218129166Y-95905771D01*
X218129166Y-95905771D02*
X218176785Y-96001009D01*
X218176785Y-96001009D02*
X218176785Y-96096247D01*
X218176785Y-96096247D02*
X217700595Y-96191485D01*
X219033928Y-96524819D02*
X219033928Y-95524819D01*
X219033928Y-96477200D02*
X218938690Y-96524819D01*
X218938690Y-96524819D02*
X218748214Y-96524819D01*
X218748214Y-96524819D02*
X218652976Y-96477200D01*
X218652976Y-96477200D02*
X218605357Y-96429580D01*
X218605357Y-96429580D02*
X218557738Y-96334342D01*
X218557738Y-96334342D02*
X218557738Y-96048628D01*
X218557738Y-96048628D02*
X218605357Y-95953390D01*
X218605357Y-95953390D02*
X218652976Y-95905771D01*
X218652976Y-95905771D02*
X218748214Y-95858152D01*
X218748214Y-95858152D02*
X218938690Y-95858152D01*
X218938690Y-95858152D02*
X219033928Y-95905771D01*
X220033928Y-96524819D02*
X219462500Y-96524819D01*
X219748214Y-96524819D02*
X219748214Y-95524819D01*
X219748214Y-95524819D02*
X219652976Y-95667676D01*
X219652976Y-95667676D02*
X219557738Y-95762914D01*
X219557738Y-95762914D02*
X219462500Y-95810533D01*
X215630057Y-51400000D02*
X215582438Y-51495238D01*
X215582438Y-51495238D02*
X215487200Y-51590476D01*
X215487200Y-51590476D02*
X215344342Y-51733333D01*
X215344342Y-51733333D02*
X215296723Y-51828571D01*
X215296723Y-51828571D02*
X215296723Y-51923809D01*
X215534819Y-51876190D02*
X215487200Y-51971428D01*
X215487200Y-51971428D02*
X215391961Y-52066666D01*
X215391961Y-52066666D02*
X215201485Y-52114285D01*
X215201485Y-52114285D02*
X214868152Y-52114285D01*
X214868152Y-52114285D02*
X214677676Y-52066666D01*
X214677676Y-52066666D02*
X214582438Y-51971428D01*
X214582438Y-51971428D02*
X214534819Y-51876190D01*
X214534819Y-51876190D02*
X214534819Y-51685714D01*
X214534819Y-51685714D02*
X214582438Y-51590476D01*
X214582438Y-51590476D02*
X214677676Y-51495238D01*
X214677676Y-51495238D02*
X214868152Y-51447619D01*
X214868152Y-51447619D02*
X215201485Y-51447619D01*
X215201485Y-51447619D02*
X215391961Y-51495238D01*
X215391961Y-51495238D02*
X215487200Y-51590476D01*
X215487200Y-51590476D02*
X215534819Y-51685714D01*
X215534819Y-51685714D02*
X215534819Y-51876190D01*
X215534819Y-50542857D02*
X215534819Y-51019047D01*
X215534819Y-51019047D02*
X214534819Y-51019047D01*
X214630057Y-50257142D02*
X214582438Y-50209523D01*
X214582438Y-50209523D02*
X214534819Y-50114285D01*
X214534819Y-50114285D02*
X214534819Y-49876190D01*
X214534819Y-49876190D02*
X214582438Y-49780952D01*
X214582438Y-49780952D02*
X214630057Y-49733333D01*
X214630057Y-49733333D02*
X214725295Y-49685714D01*
X214725295Y-49685714D02*
X214820533Y-49685714D01*
X214820533Y-49685714D02*
X214963390Y-49733333D01*
X214963390Y-49733333D02*
X215534819Y-50304761D01*
X215534819Y-50304761D02*
X215534819Y-49685714D01*
X224806666Y-59874819D02*
X224330476Y-59874819D01*
X224330476Y-59874819D02*
X224330476Y-58874819D01*
X225663809Y-58922438D02*
X225568571Y-58874819D01*
X225568571Y-58874819D02*
X225425714Y-58874819D01*
X225425714Y-58874819D02*
X225282857Y-58922438D01*
X225282857Y-58922438D02*
X225187619Y-59017676D01*
X225187619Y-59017676D02*
X225140000Y-59112914D01*
X225140000Y-59112914D02*
X225092381Y-59303390D01*
X225092381Y-59303390D02*
X225092381Y-59446247D01*
X225092381Y-59446247D02*
X225140000Y-59636723D01*
X225140000Y-59636723D02*
X225187619Y-59731961D01*
X225187619Y-59731961D02*
X225282857Y-59827200D01*
X225282857Y-59827200D02*
X225425714Y-59874819D01*
X225425714Y-59874819D02*
X225520952Y-59874819D01*
X225520952Y-59874819D02*
X225663809Y-59827200D01*
X225663809Y-59827200D02*
X225711428Y-59779580D01*
X225711428Y-59779580D02*
X225711428Y-59446247D01*
X225711428Y-59446247D02*
X225520952Y-59446247D01*
X226568571Y-59874819D02*
X226568571Y-59351009D01*
X226568571Y-59351009D02*
X226520952Y-59255771D01*
X226520952Y-59255771D02*
X226425714Y-59208152D01*
X226425714Y-59208152D02*
X226235238Y-59208152D01*
X226235238Y-59208152D02*
X226140000Y-59255771D01*
X226568571Y-59827200D02*
X226473333Y-59874819D01*
X226473333Y-59874819D02*
X226235238Y-59874819D01*
X226235238Y-59874819D02*
X226140000Y-59827200D01*
X226140000Y-59827200D02*
X226092381Y-59731961D01*
X226092381Y-59731961D02*
X226092381Y-59636723D01*
X226092381Y-59636723D02*
X226140000Y-59541485D01*
X226140000Y-59541485D02*
X226235238Y-59493866D01*
X226235238Y-59493866D02*
X226473333Y-59493866D01*
X226473333Y-59493866D02*
X226568571Y-59446247D01*
X226901905Y-59208152D02*
X227282857Y-59208152D01*
X227044762Y-58874819D02*
X227044762Y-59731961D01*
X227044762Y-59731961D02*
X227092381Y-59827200D01*
X227092381Y-59827200D02*
X227187619Y-59874819D01*
X227187619Y-59874819D02*
X227282857Y-59874819D01*
X227997143Y-59827200D02*
X227901905Y-59874819D01*
X227901905Y-59874819D02*
X227711429Y-59874819D01*
X227711429Y-59874819D02*
X227616191Y-59827200D01*
X227616191Y-59827200D02*
X227568572Y-59731961D01*
X227568572Y-59731961D02*
X227568572Y-59351009D01*
X227568572Y-59351009D02*
X227616191Y-59255771D01*
X227616191Y-59255771D02*
X227711429Y-59208152D01*
X227711429Y-59208152D02*
X227901905Y-59208152D01*
X227901905Y-59208152D02*
X227997143Y-59255771D01*
X227997143Y-59255771D02*
X228044762Y-59351009D01*
X228044762Y-59351009D02*
X228044762Y-59446247D01*
X228044762Y-59446247D02*
X227568572Y-59541485D01*
X228378096Y-58874819D02*
X228997143Y-58874819D01*
X228997143Y-58874819D02*
X228663810Y-59255771D01*
X228663810Y-59255771D02*
X228806667Y-59255771D01*
X228806667Y-59255771D02*
X228901905Y-59303390D01*
X228901905Y-59303390D02*
X228949524Y-59351009D01*
X228949524Y-59351009D02*
X228997143Y-59446247D01*
X228997143Y-59446247D02*
X228997143Y-59684342D01*
X228997143Y-59684342D02*
X228949524Y-59779580D01*
X228949524Y-59779580D02*
X228901905Y-59827200D01*
X228901905Y-59827200D02*
X228806667Y-59874819D01*
X228806667Y-59874819D02*
X228520953Y-59874819D01*
X228520953Y-59874819D02*
X228425715Y-59827200D01*
X228425715Y-59827200D02*
X228378096Y-59779580D01*
X200173200Y-89633333D02*
X200239866Y-89433333D01*
X200239866Y-89433333D02*
X200239866Y-89100000D01*
X200239866Y-89100000D02*
X200173200Y-88966666D01*
X200173200Y-88966666D02*
X200106533Y-88900000D01*
X200106533Y-88900000D02*
X199973200Y-88833333D01*
X199973200Y-88833333D02*
X199839866Y-88833333D01*
X199839866Y-88833333D02*
X199706533Y-88900000D01*
X199706533Y-88900000D02*
X199639866Y-88966666D01*
X199639866Y-88966666D02*
X199573200Y-89100000D01*
X199573200Y-89100000D02*
X199506533Y-89366666D01*
X199506533Y-89366666D02*
X199439866Y-89500000D01*
X199439866Y-89500000D02*
X199373200Y-89566666D01*
X199373200Y-89566666D02*
X199239866Y-89633333D01*
X199239866Y-89633333D02*
X199106533Y-89633333D01*
X199106533Y-89633333D02*
X198973200Y-89566666D01*
X198973200Y-89566666D02*
X198906533Y-89500000D01*
X198906533Y-89500000D02*
X198839866Y-89366666D01*
X198839866Y-89366666D02*
X198839866Y-89033333D01*
X198839866Y-89033333D02*
X198906533Y-88833333D01*
X200173200Y-87700000D02*
X200239866Y-87833333D01*
X200239866Y-87833333D02*
X200239866Y-88100000D01*
X200239866Y-88100000D02*
X200173200Y-88233333D01*
X200173200Y-88233333D02*
X200039866Y-88300000D01*
X200039866Y-88300000D02*
X199506533Y-88300000D01*
X199506533Y-88300000D02*
X199373200Y-88233333D01*
X199373200Y-88233333D02*
X199306533Y-88100000D01*
X199306533Y-88100000D02*
X199306533Y-87833333D01*
X199306533Y-87833333D02*
X199373200Y-87700000D01*
X199373200Y-87700000D02*
X199506533Y-87633333D01*
X199506533Y-87633333D02*
X199639866Y-87633333D01*
X199639866Y-87633333D02*
X199773200Y-88300000D01*
X199306533Y-87033333D02*
X200239866Y-87033333D01*
X199439866Y-87033333D02*
X199373200Y-86966667D01*
X199373200Y-86966667D02*
X199306533Y-86833333D01*
X199306533Y-86833333D02*
X199306533Y-86633333D01*
X199306533Y-86633333D02*
X199373200Y-86500000D01*
X199373200Y-86500000D02*
X199506533Y-86433333D01*
X199506533Y-86433333D02*
X200239866Y-86433333D01*
X200239866Y-85166666D02*
X198839866Y-85166666D01*
X200173200Y-85166666D02*
X200239866Y-85300000D01*
X200239866Y-85300000D02*
X200239866Y-85566666D01*
X200239866Y-85566666D02*
X200173200Y-85700000D01*
X200173200Y-85700000D02*
X200106533Y-85766666D01*
X200106533Y-85766666D02*
X199973200Y-85833333D01*
X199973200Y-85833333D02*
X199573200Y-85833333D01*
X199573200Y-85833333D02*
X199439866Y-85766666D01*
X199439866Y-85766666D02*
X199373200Y-85700000D01*
X199373200Y-85700000D02*
X199306533Y-85566666D01*
X199306533Y-85566666D02*
X199306533Y-85300000D01*
X199306533Y-85300000D02*
X199373200Y-85166666D01*
X198973200Y-84566666D02*
X198906533Y-84499999D01*
X198906533Y-84499999D02*
X198839866Y-84366666D01*
X198839866Y-84366666D02*
X198839866Y-84033333D01*
X198839866Y-84033333D02*
X198906533Y-83899999D01*
X198906533Y-83899999D02*
X198973200Y-83833333D01*
X198973200Y-83833333D02*
X199106533Y-83766666D01*
X199106533Y-83766666D02*
X199239866Y-83766666D01*
X199239866Y-83766666D02*
X199439866Y-83833333D01*
X199439866Y-83833333D02*
X200239866Y-84633333D01*
X200239866Y-84633333D02*
X200239866Y-83766666D01*
X209694819Y-62344048D02*
X209694819Y-62820238D01*
X209694819Y-62820238D02*
X208694819Y-62820238D01*
X209647200Y-61629762D02*
X209694819Y-61725000D01*
X209694819Y-61725000D02*
X209694819Y-61915476D01*
X209694819Y-61915476D02*
X209647200Y-62010714D01*
X209647200Y-62010714D02*
X209551961Y-62058333D01*
X209551961Y-62058333D02*
X209171009Y-62058333D01*
X209171009Y-62058333D02*
X209075771Y-62010714D01*
X209075771Y-62010714D02*
X209028152Y-61915476D01*
X209028152Y-61915476D02*
X209028152Y-61725000D01*
X209028152Y-61725000D02*
X209075771Y-61629762D01*
X209075771Y-61629762D02*
X209171009Y-61582143D01*
X209171009Y-61582143D02*
X209266247Y-61582143D01*
X209266247Y-61582143D02*
X209361485Y-62058333D01*
X209028152Y-61296428D02*
X209028152Y-60915476D01*
X209694819Y-61153571D02*
X208837676Y-61153571D01*
X208837676Y-61153571D02*
X208742438Y-61105952D01*
X208742438Y-61105952D02*
X208694819Y-61010714D01*
X208694819Y-61010714D02*
X208694819Y-60915476D01*
X209028152Y-60724999D02*
X209028152Y-60344047D01*
X208694819Y-60582142D02*
X209551961Y-60582142D01*
X209551961Y-60582142D02*
X209647200Y-60534523D01*
X209647200Y-60534523D02*
X209694819Y-60439285D01*
X209694819Y-60439285D02*
X209694819Y-60344047D01*
X208647200Y-59296428D02*
X209932914Y-60153570D01*
X209694819Y-58963094D02*
X208694819Y-58963094D01*
X208694819Y-58963094D02*
X209409104Y-58629761D01*
X209409104Y-58629761D02*
X208694819Y-58296428D01*
X208694819Y-58296428D02*
X209694819Y-58296428D01*
X209694819Y-57677380D02*
X209647200Y-57772618D01*
X209647200Y-57772618D02*
X209599580Y-57820237D01*
X209599580Y-57820237D02*
X209504342Y-57867856D01*
X209504342Y-57867856D02*
X209218628Y-57867856D01*
X209218628Y-57867856D02*
X209123390Y-57820237D01*
X209123390Y-57820237D02*
X209075771Y-57772618D01*
X209075771Y-57772618D02*
X209028152Y-57677380D01*
X209028152Y-57677380D02*
X209028152Y-57534523D01*
X209028152Y-57534523D02*
X209075771Y-57439285D01*
X209075771Y-57439285D02*
X209123390Y-57391666D01*
X209123390Y-57391666D02*
X209218628Y-57344047D01*
X209218628Y-57344047D02*
X209504342Y-57344047D01*
X209504342Y-57344047D02*
X209599580Y-57391666D01*
X209599580Y-57391666D02*
X209647200Y-57439285D01*
X209647200Y-57439285D02*
X209694819Y-57534523D01*
X209694819Y-57534523D02*
X209694819Y-57677380D01*
X209028152Y-56915475D02*
X209694819Y-56915475D01*
X209123390Y-56915475D02*
X209075771Y-56867856D01*
X209075771Y-56867856D02*
X209028152Y-56772618D01*
X209028152Y-56772618D02*
X209028152Y-56629761D01*
X209028152Y-56629761D02*
X209075771Y-56534523D01*
X209075771Y-56534523D02*
X209171009Y-56486904D01*
X209171009Y-56486904D02*
X209694819Y-56486904D01*
X209694819Y-55867856D02*
X209647200Y-55963094D01*
X209647200Y-55963094D02*
X209599580Y-56010713D01*
X209599580Y-56010713D02*
X209504342Y-56058332D01*
X209504342Y-56058332D02*
X209218628Y-56058332D01*
X209218628Y-56058332D02*
X209123390Y-56010713D01*
X209123390Y-56010713D02*
X209075771Y-55963094D01*
X209075771Y-55963094D02*
X209028152Y-55867856D01*
X209028152Y-55867856D02*
X209028152Y-55724999D01*
X209028152Y-55724999D02*
X209075771Y-55629761D01*
X209075771Y-55629761D02*
X209123390Y-55582142D01*
X209123390Y-55582142D02*
X209218628Y-55534523D01*
X209218628Y-55534523D02*
X209504342Y-55534523D01*
X209504342Y-55534523D02*
X209599580Y-55582142D01*
X209599580Y-55582142D02*
X209647200Y-55629761D01*
X209647200Y-55629761D02*
X209694819Y-55724999D01*
X209694819Y-55724999D02*
X209694819Y-55867856D01*
X209694819Y-54582142D02*
X209694819Y-55153570D01*
X209694819Y-54867856D02*
X208694819Y-54867856D01*
X208694819Y-54867856D02*
X208837676Y-54963094D01*
X208837676Y-54963094D02*
X208932914Y-55058332D01*
X208932914Y-55058332D02*
X208980533Y-55153570D01*
X215630057Y-45610000D02*
X215582438Y-45705238D01*
X215582438Y-45705238D02*
X215487200Y-45800476D01*
X215487200Y-45800476D02*
X215344342Y-45943333D01*
X215344342Y-45943333D02*
X215296723Y-46038571D01*
X215296723Y-46038571D02*
X215296723Y-46133809D01*
X215534819Y-46086190D02*
X215487200Y-46181428D01*
X215487200Y-46181428D02*
X215391961Y-46276666D01*
X215391961Y-46276666D02*
X215201485Y-46324285D01*
X215201485Y-46324285D02*
X214868152Y-46324285D01*
X214868152Y-46324285D02*
X214677676Y-46276666D01*
X214677676Y-46276666D02*
X214582438Y-46181428D01*
X214582438Y-46181428D02*
X214534819Y-46086190D01*
X214534819Y-46086190D02*
X214534819Y-45895714D01*
X214534819Y-45895714D02*
X214582438Y-45800476D01*
X214582438Y-45800476D02*
X214677676Y-45705238D01*
X214677676Y-45705238D02*
X214868152Y-45657619D01*
X214868152Y-45657619D02*
X215201485Y-45657619D01*
X215201485Y-45657619D02*
X215391961Y-45705238D01*
X215391961Y-45705238D02*
X215487200Y-45800476D01*
X215487200Y-45800476D02*
X215534819Y-45895714D01*
X215534819Y-45895714D02*
X215534819Y-46086190D01*
X215534819Y-44752857D02*
X215534819Y-45229047D01*
X215534819Y-45229047D02*
X214534819Y-45229047D01*
X215534819Y-43895714D02*
X215534819Y-44467142D01*
X215534819Y-44181428D02*
X214534819Y-44181428D01*
X214534819Y-44181428D02*
X214677676Y-44276666D01*
X214677676Y-44276666D02*
X214772914Y-44371904D01*
X214772914Y-44371904D02*
X214820533Y-44467142D01*
X129280952Y-77354819D02*
X128804762Y-77354819D01*
X128804762Y-77354819D02*
X128804762Y-76354819D01*
X130328571Y-76307200D02*
X129471429Y-77592914D01*
X130661905Y-77354819D02*
X130661905Y-76354819D01*
X130661905Y-76354819D02*
X130995238Y-77069104D01*
X130995238Y-77069104D02*
X131328571Y-76354819D01*
X131328571Y-76354819D02*
X131328571Y-77354819D01*
X131947619Y-77354819D02*
X131852381Y-77307200D01*
X131852381Y-77307200D02*
X131804762Y-77259580D01*
X131804762Y-77259580D02*
X131757143Y-77164342D01*
X131757143Y-77164342D02*
X131757143Y-76878628D01*
X131757143Y-76878628D02*
X131804762Y-76783390D01*
X131804762Y-76783390D02*
X131852381Y-76735771D01*
X131852381Y-76735771D02*
X131947619Y-76688152D01*
X131947619Y-76688152D02*
X132090476Y-76688152D01*
X132090476Y-76688152D02*
X132185714Y-76735771D01*
X132185714Y-76735771D02*
X132233333Y-76783390D01*
X132233333Y-76783390D02*
X132280952Y-76878628D01*
X132280952Y-76878628D02*
X132280952Y-77164342D01*
X132280952Y-77164342D02*
X132233333Y-77259580D01*
X132233333Y-77259580D02*
X132185714Y-77307200D01*
X132185714Y-77307200D02*
X132090476Y-77354819D01*
X132090476Y-77354819D02*
X131947619Y-77354819D01*
X132709524Y-76688152D02*
X132709524Y-77354819D01*
X132709524Y-76783390D02*
X132757143Y-76735771D01*
X132757143Y-76735771D02*
X132852381Y-76688152D01*
X132852381Y-76688152D02*
X132995238Y-76688152D01*
X132995238Y-76688152D02*
X133090476Y-76735771D01*
X133090476Y-76735771D02*
X133138095Y-76831009D01*
X133138095Y-76831009D02*
X133138095Y-77354819D01*
X133757143Y-77354819D02*
X133661905Y-77307200D01*
X133661905Y-77307200D02*
X133614286Y-77259580D01*
X133614286Y-77259580D02*
X133566667Y-77164342D01*
X133566667Y-77164342D02*
X133566667Y-76878628D01*
X133566667Y-76878628D02*
X133614286Y-76783390D01*
X133614286Y-76783390D02*
X133661905Y-76735771D01*
X133661905Y-76735771D02*
X133757143Y-76688152D01*
X133757143Y-76688152D02*
X133900000Y-76688152D01*
X133900000Y-76688152D02*
X133995238Y-76735771D01*
X133995238Y-76735771D02*
X134042857Y-76783390D01*
X134042857Y-76783390D02*
X134090476Y-76878628D01*
X134090476Y-76878628D02*
X134090476Y-77164342D01*
X134090476Y-77164342D02*
X134042857Y-77259580D01*
X134042857Y-77259580D02*
X133995238Y-77307200D01*
X133995238Y-77307200D02*
X133900000Y-77354819D01*
X133900000Y-77354819D02*
X133757143Y-77354819D01*
X135042857Y-77354819D02*
X134471429Y-77354819D01*
X134757143Y-77354819D02*
X134757143Y-76354819D01*
X134757143Y-76354819D02*
X134661905Y-76497676D01*
X134661905Y-76497676D02*
X134566667Y-76592914D01*
X134566667Y-76592914D02*
X134471429Y-76640533D01*
X207494819Y-49120238D02*
X207018628Y-49453571D01*
X207494819Y-49691666D02*
X206494819Y-49691666D01*
X206494819Y-49691666D02*
X206494819Y-49310714D01*
X206494819Y-49310714D02*
X206542438Y-49215476D01*
X206542438Y-49215476D02*
X206590057Y-49167857D01*
X206590057Y-49167857D02*
X206685295Y-49120238D01*
X206685295Y-49120238D02*
X206828152Y-49120238D01*
X206828152Y-49120238D02*
X206923390Y-49167857D01*
X206923390Y-49167857D02*
X206971009Y-49215476D01*
X206971009Y-49215476D02*
X207018628Y-49310714D01*
X207018628Y-49310714D02*
X207018628Y-49691666D01*
X207494819Y-48691666D02*
X206828152Y-48691666D01*
X206494819Y-48691666D02*
X206542438Y-48739285D01*
X206542438Y-48739285D02*
X206590057Y-48691666D01*
X206590057Y-48691666D02*
X206542438Y-48644047D01*
X206542438Y-48644047D02*
X206494819Y-48691666D01*
X206494819Y-48691666D02*
X206590057Y-48691666D01*
X206828152Y-47786905D02*
X207637676Y-47786905D01*
X207637676Y-47786905D02*
X207732914Y-47834524D01*
X207732914Y-47834524D02*
X207780533Y-47882143D01*
X207780533Y-47882143D02*
X207828152Y-47977381D01*
X207828152Y-47977381D02*
X207828152Y-48120238D01*
X207828152Y-48120238D02*
X207780533Y-48215476D01*
X207447200Y-47786905D02*
X207494819Y-47882143D01*
X207494819Y-47882143D02*
X207494819Y-48072619D01*
X207494819Y-48072619D02*
X207447200Y-48167857D01*
X207447200Y-48167857D02*
X207399580Y-48215476D01*
X207399580Y-48215476D02*
X207304342Y-48263095D01*
X207304342Y-48263095D02*
X207018628Y-48263095D01*
X207018628Y-48263095D02*
X206923390Y-48215476D01*
X206923390Y-48215476D02*
X206875771Y-48167857D01*
X206875771Y-48167857D02*
X206828152Y-48072619D01*
X206828152Y-48072619D02*
X206828152Y-47882143D01*
X206828152Y-47882143D02*
X206875771Y-47786905D01*
X207494819Y-47310714D02*
X206494819Y-47310714D01*
X207494819Y-46882143D02*
X206971009Y-46882143D01*
X206971009Y-46882143D02*
X206875771Y-46929762D01*
X206875771Y-46929762D02*
X206828152Y-47025000D01*
X206828152Y-47025000D02*
X206828152Y-47167857D01*
X206828152Y-47167857D02*
X206875771Y-47263095D01*
X206875771Y-47263095D02*
X206923390Y-47310714D01*
X206828152Y-46548809D02*
X206828152Y-46167857D01*
X206494819Y-46405952D02*
X207351961Y-46405952D01*
X207351961Y-46405952D02*
X207447200Y-46358333D01*
X207447200Y-46358333D02*
X207494819Y-46263095D01*
X207494819Y-46263095D02*
X207494819Y-46167857D01*
X207494819Y-45310714D02*
X207494819Y-45882142D01*
X207494819Y-45596428D02*
X206494819Y-45596428D01*
X206494819Y-45596428D02*
X206637676Y-45691666D01*
X206637676Y-45691666D02*
X206732914Y-45786904D01*
X206732914Y-45786904D02*
X206780533Y-45882142D01*
X137052438Y-94452381D02*
X137004819Y-94547619D01*
X137004819Y-94547619D02*
X137004819Y-94690476D01*
X137004819Y-94690476D02*
X137052438Y-94833333D01*
X137052438Y-94833333D02*
X137147676Y-94928571D01*
X137147676Y-94928571D02*
X137242914Y-94976190D01*
X137242914Y-94976190D02*
X137433390Y-95023809D01*
X137433390Y-95023809D02*
X137576247Y-95023809D01*
X137576247Y-95023809D02*
X137766723Y-94976190D01*
X137766723Y-94976190D02*
X137861961Y-94928571D01*
X137861961Y-94928571D02*
X137957200Y-94833333D01*
X137957200Y-94833333D02*
X138004819Y-94690476D01*
X138004819Y-94690476D02*
X138004819Y-94595238D01*
X138004819Y-94595238D02*
X137957200Y-94452381D01*
X137957200Y-94452381D02*
X137909580Y-94404762D01*
X137909580Y-94404762D02*
X137576247Y-94404762D01*
X137576247Y-94404762D02*
X137576247Y-94595238D01*
X138100057Y-94214286D02*
X138100057Y-93452381D01*
X138004819Y-93071428D02*
X137957200Y-93166666D01*
X137957200Y-93166666D02*
X137861961Y-93214285D01*
X137861961Y-93214285D02*
X137004819Y-93214285D01*
X138004819Y-92690475D02*
X137338152Y-92690475D01*
X137004819Y-92690475D02*
X137052438Y-92738094D01*
X137052438Y-92738094D02*
X137100057Y-92690475D01*
X137100057Y-92690475D02*
X137052438Y-92642856D01*
X137052438Y-92642856D02*
X137004819Y-92690475D01*
X137004819Y-92690475D02*
X137100057Y-92690475D01*
X137338152Y-92214285D02*
X138004819Y-92214285D01*
X137433390Y-92214285D02*
X137385771Y-92166666D01*
X137385771Y-92166666D02*
X137338152Y-92071428D01*
X137338152Y-92071428D02*
X137338152Y-91928571D01*
X137338152Y-91928571D02*
X137385771Y-91833333D01*
X137385771Y-91833333D02*
X137481009Y-91785714D01*
X137481009Y-91785714D02*
X138004819Y-91785714D01*
X138004819Y-91309523D02*
X137004819Y-91309523D01*
X137623866Y-91214285D02*
X138004819Y-90928571D01*
X137338152Y-90928571D02*
X137719104Y-91309523D01*
X138004819Y-89976190D02*
X138004819Y-90547618D01*
X138004819Y-90261904D02*
X137004819Y-90261904D01*
X137004819Y-90261904D02*
X137147676Y-90357142D01*
X137147676Y-90357142D02*
X137242914Y-90452380D01*
X137242914Y-90452380D02*
X137290533Y-90547618D01*
X148702366Y-88533333D02*
X148035700Y-89000000D01*
X148702366Y-89333333D02*
X147302366Y-89333333D01*
X147302366Y-89333333D02*
X147302366Y-88800000D01*
X147302366Y-88800000D02*
X147369033Y-88666667D01*
X147369033Y-88666667D02*
X147435700Y-88600000D01*
X147435700Y-88600000D02*
X147569033Y-88533333D01*
X147569033Y-88533333D02*
X147769033Y-88533333D01*
X147769033Y-88533333D02*
X147902366Y-88600000D01*
X147902366Y-88600000D02*
X147969033Y-88666667D01*
X147969033Y-88666667D02*
X148035700Y-88800000D01*
X148035700Y-88800000D02*
X148035700Y-89333333D01*
X148635700Y-87400000D02*
X148702366Y-87533333D01*
X148702366Y-87533333D02*
X148702366Y-87800000D01*
X148702366Y-87800000D02*
X148635700Y-87933333D01*
X148635700Y-87933333D02*
X148502366Y-88000000D01*
X148502366Y-88000000D02*
X147969033Y-88000000D01*
X147969033Y-88000000D02*
X147835700Y-87933333D01*
X147835700Y-87933333D02*
X147769033Y-87800000D01*
X147769033Y-87800000D02*
X147769033Y-87533333D01*
X147769033Y-87533333D02*
X147835700Y-87400000D01*
X147835700Y-87400000D02*
X147969033Y-87333333D01*
X147969033Y-87333333D02*
X148102366Y-87333333D01*
X148102366Y-87333333D02*
X148235700Y-88000000D01*
X147769033Y-86933333D02*
X147769033Y-86400000D01*
X147302366Y-86733333D02*
X148502366Y-86733333D01*
X148502366Y-86733333D02*
X148635700Y-86666667D01*
X148635700Y-86666667D02*
X148702366Y-86533333D01*
X148702366Y-86533333D02*
X148702366Y-86400000D01*
X147769033Y-85333333D02*
X148702366Y-85333333D01*
X147769033Y-85933333D02*
X148502366Y-85933333D01*
X148502366Y-85933333D02*
X148635700Y-85866667D01*
X148635700Y-85866667D02*
X148702366Y-85733333D01*
X148702366Y-85733333D02*
X148702366Y-85533333D01*
X148702366Y-85533333D02*
X148635700Y-85400000D01*
X148635700Y-85400000D02*
X148569033Y-85333333D01*
X148702366Y-84666666D02*
X147769033Y-84666666D01*
X148035700Y-84666666D02*
X147902366Y-84600000D01*
X147902366Y-84600000D02*
X147835700Y-84533333D01*
X147835700Y-84533333D02*
X147769033Y-84400000D01*
X147769033Y-84400000D02*
X147769033Y-84266666D01*
X147769033Y-83799999D02*
X148702366Y-83799999D01*
X147902366Y-83799999D02*
X147835700Y-83733333D01*
X147835700Y-83733333D02*
X147769033Y-83599999D01*
X147769033Y-83599999D02*
X147769033Y-83399999D01*
X147769033Y-83399999D02*
X147835700Y-83266666D01*
X147835700Y-83266666D02*
X147969033Y-83199999D01*
X147969033Y-83199999D02*
X148702366Y-83199999D01*
X147302366Y-82666666D02*
X147302366Y-81799999D01*
X147302366Y-81799999D02*
X147835700Y-82266666D01*
X147835700Y-82266666D02*
X147835700Y-82066666D01*
X147835700Y-82066666D02*
X147902366Y-81933332D01*
X147902366Y-81933332D02*
X147969033Y-81866666D01*
X147969033Y-81866666D02*
X148102366Y-81799999D01*
X148102366Y-81799999D02*
X148435700Y-81799999D01*
X148435700Y-81799999D02*
X148569033Y-81866666D01*
X148569033Y-81866666D02*
X148635700Y-81933332D01*
X148635700Y-81933332D02*
X148702366Y-82066666D01*
X148702366Y-82066666D02*
X148702366Y-82466666D01*
X148702366Y-82466666D02*
X148635700Y-82599999D01*
X148635700Y-82599999D02*
X148569033Y-82666666D01*
X224806666Y-52874819D02*
X224330476Y-52874819D01*
X224330476Y-52874819D02*
X224330476Y-51874819D01*
X225663809Y-51922438D02*
X225568571Y-51874819D01*
X225568571Y-51874819D02*
X225425714Y-51874819D01*
X225425714Y-51874819D02*
X225282857Y-51922438D01*
X225282857Y-51922438D02*
X225187619Y-52017676D01*
X225187619Y-52017676D02*
X225140000Y-52112914D01*
X225140000Y-52112914D02*
X225092381Y-52303390D01*
X225092381Y-52303390D02*
X225092381Y-52446247D01*
X225092381Y-52446247D02*
X225140000Y-52636723D01*
X225140000Y-52636723D02*
X225187619Y-52731961D01*
X225187619Y-52731961D02*
X225282857Y-52827200D01*
X225282857Y-52827200D02*
X225425714Y-52874819D01*
X225425714Y-52874819D02*
X225520952Y-52874819D01*
X225520952Y-52874819D02*
X225663809Y-52827200D01*
X225663809Y-52827200D02*
X225711428Y-52779580D01*
X225711428Y-52779580D02*
X225711428Y-52446247D01*
X225711428Y-52446247D02*
X225520952Y-52446247D01*
X226568571Y-52874819D02*
X226568571Y-52351009D01*
X226568571Y-52351009D02*
X226520952Y-52255771D01*
X226520952Y-52255771D02*
X226425714Y-52208152D01*
X226425714Y-52208152D02*
X226235238Y-52208152D01*
X226235238Y-52208152D02*
X226140000Y-52255771D01*
X226568571Y-52827200D02*
X226473333Y-52874819D01*
X226473333Y-52874819D02*
X226235238Y-52874819D01*
X226235238Y-52874819D02*
X226140000Y-52827200D01*
X226140000Y-52827200D02*
X226092381Y-52731961D01*
X226092381Y-52731961D02*
X226092381Y-52636723D01*
X226092381Y-52636723D02*
X226140000Y-52541485D01*
X226140000Y-52541485D02*
X226235238Y-52493866D01*
X226235238Y-52493866D02*
X226473333Y-52493866D01*
X226473333Y-52493866D02*
X226568571Y-52446247D01*
X226901905Y-52208152D02*
X227282857Y-52208152D01*
X227044762Y-51874819D02*
X227044762Y-52731961D01*
X227044762Y-52731961D02*
X227092381Y-52827200D01*
X227092381Y-52827200D02*
X227187619Y-52874819D01*
X227187619Y-52874819D02*
X227282857Y-52874819D01*
X227997143Y-52827200D02*
X227901905Y-52874819D01*
X227901905Y-52874819D02*
X227711429Y-52874819D01*
X227711429Y-52874819D02*
X227616191Y-52827200D01*
X227616191Y-52827200D02*
X227568572Y-52731961D01*
X227568572Y-52731961D02*
X227568572Y-52351009D01*
X227568572Y-52351009D02*
X227616191Y-52255771D01*
X227616191Y-52255771D02*
X227711429Y-52208152D01*
X227711429Y-52208152D02*
X227901905Y-52208152D01*
X227901905Y-52208152D02*
X227997143Y-52255771D01*
X227997143Y-52255771D02*
X228044762Y-52351009D01*
X228044762Y-52351009D02*
X228044762Y-52446247D01*
X228044762Y-52446247D02*
X227568572Y-52541485D01*
X228425715Y-51970057D02*
X228473334Y-51922438D01*
X228473334Y-51922438D02*
X228568572Y-51874819D01*
X228568572Y-51874819D02*
X228806667Y-51874819D01*
X228806667Y-51874819D02*
X228901905Y-51922438D01*
X228901905Y-51922438D02*
X228949524Y-51970057D01*
X228949524Y-51970057D02*
X228997143Y-52065295D01*
X228997143Y-52065295D02*
X228997143Y-52160533D01*
X228997143Y-52160533D02*
X228949524Y-52303390D01*
X228949524Y-52303390D02*
X228378096Y-52874819D01*
X228378096Y-52874819D02*
X228997143Y-52874819D01*
X224806666Y-46874819D02*
X224330476Y-46874819D01*
X224330476Y-46874819D02*
X224330476Y-45874819D01*
X225663809Y-45922438D02*
X225568571Y-45874819D01*
X225568571Y-45874819D02*
X225425714Y-45874819D01*
X225425714Y-45874819D02*
X225282857Y-45922438D01*
X225282857Y-45922438D02*
X225187619Y-46017676D01*
X225187619Y-46017676D02*
X225140000Y-46112914D01*
X225140000Y-46112914D02*
X225092381Y-46303390D01*
X225092381Y-46303390D02*
X225092381Y-46446247D01*
X225092381Y-46446247D02*
X225140000Y-46636723D01*
X225140000Y-46636723D02*
X225187619Y-46731961D01*
X225187619Y-46731961D02*
X225282857Y-46827200D01*
X225282857Y-46827200D02*
X225425714Y-46874819D01*
X225425714Y-46874819D02*
X225520952Y-46874819D01*
X225520952Y-46874819D02*
X225663809Y-46827200D01*
X225663809Y-46827200D02*
X225711428Y-46779580D01*
X225711428Y-46779580D02*
X225711428Y-46446247D01*
X225711428Y-46446247D02*
X225520952Y-46446247D01*
X226568571Y-46874819D02*
X226568571Y-46351009D01*
X226568571Y-46351009D02*
X226520952Y-46255771D01*
X226520952Y-46255771D02*
X226425714Y-46208152D01*
X226425714Y-46208152D02*
X226235238Y-46208152D01*
X226235238Y-46208152D02*
X226140000Y-46255771D01*
X226568571Y-46827200D02*
X226473333Y-46874819D01*
X226473333Y-46874819D02*
X226235238Y-46874819D01*
X226235238Y-46874819D02*
X226140000Y-46827200D01*
X226140000Y-46827200D02*
X226092381Y-46731961D01*
X226092381Y-46731961D02*
X226092381Y-46636723D01*
X226092381Y-46636723D02*
X226140000Y-46541485D01*
X226140000Y-46541485D02*
X226235238Y-46493866D01*
X226235238Y-46493866D02*
X226473333Y-46493866D01*
X226473333Y-46493866D02*
X226568571Y-46446247D01*
X226901905Y-46208152D02*
X227282857Y-46208152D01*
X227044762Y-45874819D02*
X227044762Y-46731961D01*
X227044762Y-46731961D02*
X227092381Y-46827200D01*
X227092381Y-46827200D02*
X227187619Y-46874819D01*
X227187619Y-46874819D02*
X227282857Y-46874819D01*
X227997143Y-46827200D02*
X227901905Y-46874819D01*
X227901905Y-46874819D02*
X227711429Y-46874819D01*
X227711429Y-46874819D02*
X227616191Y-46827200D01*
X227616191Y-46827200D02*
X227568572Y-46731961D01*
X227568572Y-46731961D02*
X227568572Y-46351009D01*
X227568572Y-46351009D02*
X227616191Y-46255771D01*
X227616191Y-46255771D02*
X227711429Y-46208152D01*
X227711429Y-46208152D02*
X227901905Y-46208152D01*
X227901905Y-46208152D02*
X227997143Y-46255771D01*
X227997143Y-46255771D02*
X228044762Y-46351009D01*
X228044762Y-46351009D02*
X228044762Y-46446247D01*
X228044762Y-46446247D02*
X227568572Y-46541485D01*
X228997143Y-46874819D02*
X228425715Y-46874819D01*
X228711429Y-46874819D02*
X228711429Y-45874819D01*
X228711429Y-45874819D02*
X228616191Y-46017676D01*
X228616191Y-46017676D02*
X228520953Y-46112914D01*
X228520953Y-46112914D02*
X228425715Y-46160533D01*
X151719405Y-90194819D02*
X151719405Y-89194819D01*
X151719405Y-89194819D02*
X151957500Y-89194819D01*
X151957500Y-89194819D02*
X152100357Y-89242438D01*
X152100357Y-89242438D02*
X152195595Y-89337676D01*
X152195595Y-89337676D02*
X152243214Y-89432914D01*
X152243214Y-89432914D02*
X152290833Y-89623390D01*
X152290833Y-89623390D02*
X152290833Y-89766247D01*
X152290833Y-89766247D02*
X152243214Y-89956723D01*
X152243214Y-89956723D02*
X152195595Y-90051961D01*
X152195595Y-90051961D02*
X152100357Y-90147200D01*
X152100357Y-90147200D02*
X151957500Y-90194819D01*
X151957500Y-90194819D02*
X151719405Y-90194819D01*
X152624167Y-89194819D02*
X153243214Y-89194819D01*
X153243214Y-89194819D02*
X152909881Y-89575771D01*
X152909881Y-89575771D02*
X153052738Y-89575771D01*
X153052738Y-89575771D02*
X153147976Y-89623390D01*
X153147976Y-89623390D02*
X153195595Y-89671009D01*
X153195595Y-89671009D02*
X153243214Y-89766247D01*
X153243214Y-89766247D02*
X153243214Y-90004342D01*
X153243214Y-90004342D02*
X153195595Y-90099580D01*
X153195595Y-90099580D02*
X153147976Y-90147200D01*
X153147976Y-90147200D02*
X153052738Y-90194819D01*
X153052738Y-90194819D02*
X152767024Y-90194819D01*
X152767024Y-90194819D02*
X152671786Y-90147200D01*
X152671786Y-90147200D02*
X152624167Y-90099580D01*
X205702366Y-88633333D02*
X205035700Y-89100000D01*
X205702366Y-89433333D02*
X204302366Y-89433333D01*
X204302366Y-89433333D02*
X204302366Y-88900000D01*
X204302366Y-88900000D02*
X204369033Y-88766667D01*
X204369033Y-88766667D02*
X204435700Y-88700000D01*
X204435700Y-88700000D02*
X204569033Y-88633333D01*
X204569033Y-88633333D02*
X204769033Y-88633333D01*
X204769033Y-88633333D02*
X204902366Y-88700000D01*
X204902366Y-88700000D02*
X204969033Y-88766667D01*
X204969033Y-88766667D02*
X205035700Y-88900000D01*
X205035700Y-88900000D02*
X205035700Y-89433333D01*
X205635700Y-87500000D02*
X205702366Y-87633333D01*
X205702366Y-87633333D02*
X205702366Y-87900000D01*
X205702366Y-87900000D02*
X205635700Y-88033333D01*
X205635700Y-88033333D02*
X205502366Y-88100000D01*
X205502366Y-88100000D02*
X204969033Y-88100000D01*
X204969033Y-88100000D02*
X204835700Y-88033333D01*
X204835700Y-88033333D02*
X204769033Y-87900000D01*
X204769033Y-87900000D02*
X204769033Y-87633333D01*
X204769033Y-87633333D02*
X204835700Y-87500000D01*
X204835700Y-87500000D02*
X204969033Y-87433333D01*
X204969033Y-87433333D02*
X205102366Y-87433333D01*
X205102366Y-87433333D02*
X205235700Y-88100000D01*
X204769033Y-87033333D02*
X204769033Y-86500000D01*
X204302366Y-86833333D02*
X205502366Y-86833333D01*
X205502366Y-86833333D02*
X205635700Y-86766667D01*
X205635700Y-86766667D02*
X205702366Y-86633333D01*
X205702366Y-86633333D02*
X205702366Y-86500000D01*
X204769033Y-85433333D02*
X205702366Y-85433333D01*
X204769033Y-86033333D02*
X205502366Y-86033333D01*
X205502366Y-86033333D02*
X205635700Y-85966667D01*
X205635700Y-85966667D02*
X205702366Y-85833333D01*
X205702366Y-85833333D02*
X205702366Y-85633333D01*
X205702366Y-85633333D02*
X205635700Y-85500000D01*
X205635700Y-85500000D02*
X205569033Y-85433333D01*
X205702366Y-84766666D02*
X204769033Y-84766666D01*
X205035700Y-84766666D02*
X204902366Y-84700000D01*
X204902366Y-84700000D02*
X204835700Y-84633333D01*
X204835700Y-84633333D02*
X204769033Y-84500000D01*
X204769033Y-84500000D02*
X204769033Y-84366666D01*
X204769033Y-83899999D02*
X205702366Y-83899999D01*
X204902366Y-83899999D02*
X204835700Y-83833333D01*
X204835700Y-83833333D02*
X204769033Y-83699999D01*
X204769033Y-83699999D02*
X204769033Y-83499999D01*
X204769033Y-83499999D02*
X204835700Y-83366666D01*
X204835700Y-83366666D02*
X204969033Y-83299999D01*
X204969033Y-83299999D02*
X205702366Y-83299999D01*
X205702366Y-81899999D02*
X205702366Y-82699999D01*
X205702366Y-82299999D02*
X204302366Y-82299999D01*
X204302366Y-82299999D02*
X204502366Y-82433332D01*
X204502366Y-82433332D02*
X204635700Y-82566666D01*
X204635700Y-82566666D02*
X204702366Y-82699999D01*
X215184200Y-88688333D02*
X215250866Y-88488333D01*
X215250866Y-88488333D02*
X215250866Y-88155000D01*
X215250866Y-88155000D02*
X215184200Y-88021666D01*
X215184200Y-88021666D02*
X215117533Y-87955000D01*
X215117533Y-87955000D02*
X214984200Y-87888333D01*
X214984200Y-87888333D02*
X214850866Y-87888333D01*
X214850866Y-87888333D02*
X214717533Y-87955000D01*
X214717533Y-87955000D02*
X214650866Y-88021666D01*
X214650866Y-88021666D02*
X214584200Y-88155000D01*
X214584200Y-88155000D02*
X214517533Y-88421666D01*
X214517533Y-88421666D02*
X214450866Y-88555000D01*
X214450866Y-88555000D02*
X214384200Y-88621666D01*
X214384200Y-88621666D02*
X214250866Y-88688333D01*
X214250866Y-88688333D02*
X214117533Y-88688333D01*
X214117533Y-88688333D02*
X213984200Y-88621666D01*
X213984200Y-88621666D02*
X213917533Y-88555000D01*
X213917533Y-88555000D02*
X213850866Y-88421666D01*
X213850866Y-88421666D02*
X213850866Y-88088333D01*
X213850866Y-88088333D02*
X213917533Y-87888333D01*
X215184200Y-86755000D02*
X215250866Y-86888333D01*
X215250866Y-86888333D02*
X215250866Y-87155000D01*
X215250866Y-87155000D02*
X215184200Y-87288333D01*
X215184200Y-87288333D02*
X215050866Y-87355000D01*
X215050866Y-87355000D02*
X214517533Y-87355000D01*
X214517533Y-87355000D02*
X214384200Y-87288333D01*
X214384200Y-87288333D02*
X214317533Y-87155000D01*
X214317533Y-87155000D02*
X214317533Y-86888333D01*
X214317533Y-86888333D02*
X214384200Y-86755000D01*
X214384200Y-86755000D02*
X214517533Y-86688333D01*
X214517533Y-86688333D02*
X214650866Y-86688333D01*
X214650866Y-86688333D02*
X214784200Y-87355000D01*
X214317533Y-86088333D02*
X215250866Y-86088333D01*
X214450866Y-86088333D02*
X214384200Y-86021667D01*
X214384200Y-86021667D02*
X214317533Y-85888333D01*
X214317533Y-85888333D02*
X214317533Y-85688333D01*
X214317533Y-85688333D02*
X214384200Y-85555000D01*
X214384200Y-85555000D02*
X214517533Y-85488333D01*
X214517533Y-85488333D02*
X215250866Y-85488333D01*
X215250866Y-84221666D02*
X213850866Y-84221666D01*
X215184200Y-84221666D02*
X215250866Y-84355000D01*
X215250866Y-84355000D02*
X215250866Y-84621666D01*
X215250866Y-84621666D02*
X215184200Y-84755000D01*
X215184200Y-84755000D02*
X215117533Y-84821666D01*
X215117533Y-84821666D02*
X214984200Y-84888333D01*
X214984200Y-84888333D02*
X214584200Y-84888333D01*
X214584200Y-84888333D02*
X214450866Y-84821666D01*
X214450866Y-84821666D02*
X214384200Y-84755000D01*
X214384200Y-84755000D02*
X214317533Y-84621666D01*
X214317533Y-84621666D02*
X214317533Y-84355000D01*
X214317533Y-84355000D02*
X214384200Y-84221666D01*
X215250866Y-82821666D02*
X215250866Y-83621666D01*
X215250866Y-83221666D02*
X213850866Y-83221666D01*
X213850866Y-83221666D02*
X214050866Y-83354999D01*
X214050866Y-83354999D02*
X214184200Y-83488333D01*
X214184200Y-83488333D02*
X214250866Y-83621666D01*
X208954405Y-90194819D02*
X208954405Y-89194819D01*
X208954405Y-89194819D02*
X209192500Y-89194819D01*
X209192500Y-89194819D02*
X209335357Y-89242438D01*
X209335357Y-89242438D02*
X209430595Y-89337676D01*
X209430595Y-89337676D02*
X209478214Y-89432914D01*
X209478214Y-89432914D02*
X209525833Y-89623390D01*
X209525833Y-89623390D02*
X209525833Y-89766247D01*
X209525833Y-89766247D02*
X209478214Y-89956723D01*
X209478214Y-89956723D02*
X209430595Y-90051961D01*
X209430595Y-90051961D02*
X209335357Y-90147200D01*
X209335357Y-90147200D02*
X209192500Y-90194819D01*
X209192500Y-90194819D02*
X208954405Y-90194819D01*
X210478214Y-90194819D02*
X209906786Y-90194819D01*
X210192500Y-90194819D02*
X210192500Y-89194819D01*
X210192500Y-89194819D02*
X210097262Y-89337676D01*
X210097262Y-89337676D02*
X210002024Y-89432914D01*
X210002024Y-89432914D02*
X209906786Y-89480533D01*
X234583333Y-72309580D02*
X234535714Y-72357200D01*
X234535714Y-72357200D02*
X234392857Y-72404819D01*
X234392857Y-72404819D02*
X234297619Y-72404819D01*
X234297619Y-72404819D02*
X234154762Y-72357200D01*
X234154762Y-72357200D02*
X234059524Y-72261961D01*
X234059524Y-72261961D02*
X234011905Y-72166723D01*
X234011905Y-72166723D02*
X233964286Y-71976247D01*
X233964286Y-71976247D02*
X233964286Y-71833390D01*
X233964286Y-71833390D02*
X234011905Y-71642914D01*
X234011905Y-71642914D02*
X234059524Y-71547676D01*
X234059524Y-71547676D02*
X234154762Y-71452438D01*
X234154762Y-71452438D02*
X234297619Y-71404819D01*
X234297619Y-71404819D02*
X234392857Y-71404819D01*
X234392857Y-71404819D02*
X234535714Y-71452438D01*
X234535714Y-71452438D02*
X234583333Y-71500057D01*
X235535714Y-72404819D02*
X234964286Y-72404819D01*
X235250000Y-72404819D02*
X235250000Y-71404819D01*
X235250000Y-71404819D02*
X235154762Y-71547676D01*
X235154762Y-71547676D02*
X235059524Y-71642914D01*
X235059524Y-71642914D02*
X234964286Y-71690533D01*
X224473332Y-43874819D02*
X223997142Y-43874819D01*
X223997142Y-43874819D02*
X223997142Y-42874819D01*
X225187618Y-43827200D02*
X225092380Y-43874819D01*
X225092380Y-43874819D02*
X224901904Y-43874819D01*
X224901904Y-43874819D02*
X224806666Y-43827200D01*
X224806666Y-43827200D02*
X224759047Y-43731961D01*
X224759047Y-43731961D02*
X224759047Y-43351009D01*
X224759047Y-43351009D02*
X224806666Y-43255771D01*
X224806666Y-43255771D02*
X224901904Y-43208152D01*
X224901904Y-43208152D02*
X225092380Y-43208152D01*
X225092380Y-43208152D02*
X225187618Y-43255771D01*
X225187618Y-43255771D02*
X225235237Y-43351009D01*
X225235237Y-43351009D02*
X225235237Y-43446247D01*
X225235237Y-43446247D02*
X224759047Y-43541485D01*
X225520952Y-43208152D02*
X225901904Y-43208152D01*
X225663809Y-43874819D02*
X225663809Y-43017676D01*
X225663809Y-43017676D02*
X225711428Y-42922438D01*
X225711428Y-42922438D02*
X225806666Y-42874819D01*
X225806666Y-42874819D02*
X225901904Y-42874819D01*
X226092381Y-43208152D02*
X226473333Y-43208152D01*
X226235238Y-42874819D02*
X226235238Y-43731961D01*
X226235238Y-43731961D02*
X226282857Y-43827200D01*
X226282857Y-43827200D02*
X226378095Y-43874819D01*
X226378095Y-43874819D02*
X226473333Y-43874819D01*
X226806667Y-43874819D02*
X226806667Y-42874819D01*
X226806667Y-42874819D02*
X227187619Y-42874819D01*
X227187619Y-42874819D02*
X227282857Y-42922438D01*
X227282857Y-42922438D02*
X227330476Y-42970057D01*
X227330476Y-42970057D02*
X227378095Y-43065295D01*
X227378095Y-43065295D02*
X227378095Y-43208152D01*
X227378095Y-43208152D02*
X227330476Y-43303390D01*
X227330476Y-43303390D02*
X227282857Y-43351009D01*
X227282857Y-43351009D02*
X227187619Y-43398628D01*
X227187619Y-43398628D02*
X226806667Y-43398628D01*
X227806667Y-43874819D02*
X227806667Y-42874819D01*
X227806667Y-42874819D02*
X228044762Y-42874819D01*
X228044762Y-42874819D02*
X228187619Y-42922438D01*
X228187619Y-42922438D02*
X228282857Y-43017676D01*
X228282857Y-43017676D02*
X228330476Y-43112914D01*
X228330476Y-43112914D02*
X228378095Y-43303390D01*
X228378095Y-43303390D02*
X228378095Y-43446247D01*
X228378095Y-43446247D02*
X228330476Y-43636723D01*
X228330476Y-43636723D02*
X228282857Y-43731961D01*
X228282857Y-43731961D02*
X228187619Y-43827200D01*
X228187619Y-43827200D02*
X228044762Y-43874819D01*
X228044762Y-43874819D02*
X227806667Y-43874819D01*
X229330476Y-43874819D02*
X228759048Y-43874819D01*
X229044762Y-43874819D02*
X229044762Y-42874819D01*
X229044762Y-42874819D02*
X228949524Y-43017676D01*
X228949524Y-43017676D02*
X228854286Y-43112914D01*
X228854286Y-43112914D02*
X228759048Y-43160533D01*
X186894819Y-62444048D02*
X186894819Y-62920238D01*
X186894819Y-62920238D02*
X185894819Y-62920238D01*
X186847200Y-61729762D02*
X186894819Y-61825000D01*
X186894819Y-61825000D02*
X186894819Y-62015476D01*
X186894819Y-62015476D02*
X186847200Y-62110714D01*
X186847200Y-62110714D02*
X186751961Y-62158333D01*
X186751961Y-62158333D02*
X186371009Y-62158333D01*
X186371009Y-62158333D02*
X186275771Y-62110714D01*
X186275771Y-62110714D02*
X186228152Y-62015476D01*
X186228152Y-62015476D02*
X186228152Y-61825000D01*
X186228152Y-61825000D02*
X186275771Y-61729762D01*
X186275771Y-61729762D02*
X186371009Y-61682143D01*
X186371009Y-61682143D02*
X186466247Y-61682143D01*
X186466247Y-61682143D02*
X186561485Y-62158333D01*
X186228152Y-61396428D02*
X186228152Y-61015476D01*
X186894819Y-61253571D02*
X186037676Y-61253571D01*
X186037676Y-61253571D02*
X185942438Y-61205952D01*
X185942438Y-61205952D02*
X185894819Y-61110714D01*
X185894819Y-61110714D02*
X185894819Y-61015476D01*
X186228152Y-60824999D02*
X186228152Y-60444047D01*
X185894819Y-60682142D02*
X186751961Y-60682142D01*
X186751961Y-60682142D02*
X186847200Y-60634523D01*
X186847200Y-60634523D02*
X186894819Y-60539285D01*
X186894819Y-60539285D02*
X186894819Y-60444047D01*
X185847200Y-59396428D02*
X187132914Y-60253570D01*
X186894819Y-59063094D02*
X185894819Y-59063094D01*
X185894819Y-59063094D02*
X186609104Y-58729761D01*
X186609104Y-58729761D02*
X185894819Y-58396428D01*
X185894819Y-58396428D02*
X186894819Y-58396428D01*
X186894819Y-57777380D02*
X186847200Y-57872618D01*
X186847200Y-57872618D02*
X186799580Y-57920237D01*
X186799580Y-57920237D02*
X186704342Y-57967856D01*
X186704342Y-57967856D02*
X186418628Y-57967856D01*
X186418628Y-57967856D02*
X186323390Y-57920237D01*
X186323390Y-57920237D02*
X186275771Y-57872618D01*
X186275771Y-57872618D02*
X186228152Y-57777380D01*
X186228152Y-57777380D02*
X186228152Y-57634523D01*
X186228152Y-57634523D02*
X186275771Y-57539285D01*
X186275771Y-57539285D02*
X186323390Y-57491666D01*
X186323390Y-57491666D02*
X186418628Y-57444047D01*
X186418628Y-57444047D02*
X186704342Y-57444047D01*
X186704342Y-57444047D02*
X186799580Y-57491666D01*
X186799580Y-57491666D02*
X186847200Y-57539285D01*
X186847200Y-57539285D02*
X186894819Y-57634523D01*
X186894819Y-57634523D02*
X186894819Y-57777380D01*
X186228152Y-57015475D02*
X186894819Y-57015475D01*
X186323390Y-57015475D02*
X186275771Y-56967856D01*
X186275771Y-56967856D02*
X186228152Y-56872618D01*
X186228152Y-56872618D02*
X186228152Y-56729761D01*
X186228152Y-56729761D02*
X186275771Y-56634523D01*
X186275771Y-56634523D02*
X186371009Y-56586904D01*
X186371009Y-56586904D02*
X186894819Y-56586904D01*
X186894819Y-55967856D02*
X186847200Y-56063094D01*
X186847200Y-56063094D02*
X186799580Y-56110713D01*
X186799580Y-56110713D02*
X186704342Y-56158332D01*
X186704342Y-56158332D02*
X186418628Y-56158332D01*
X186418628Y-56158332D02*
X186323390Y-56110713D01*
X186323390Y-56110713D02*
X186275771Y-56063094D01*
X186275771Y-56063094D02*
X186228152Y-55967856D01*
X186228152Y-55967856D02*
X186228152Y-55824999D01*
X186228152Y-55824999D02*
X186275771Y-55729761D01*
X186275771Y-55729761D02*
X186323390Y-55682142D01*
X186323390Y-55682142D02*
X186418628Y-55634523D01*
X186418628Y-55634523D02*
X186704342Y-55634523D01*
X186704342Y-55634523D02*
X186799580Y-55682142D01*
X186799580Y-55682142D02*
X186847200Y-55729761D01*
X186847200Y-55729761D02*
X186894819Y-55824999D01*
X186894819Y-55824999D02*
X186894819Y-55967856D01*
X185990057Y-55253570D02*
X185942438Y-55205951D01*
X185942438Y-55205951D02*
X185894819Y-55110713D01*
X185894819Y-55110713D02*
X185894819Y-54872618D01*
X185894819Y-54872618D02*
X185942438Y-54777380D01*
X185942438Y-54777380D02*
X185990057Y-54729761D01*
X185990057Y-54729761D02*
X186085295Y-54682142D01*
X186085295Y-54682142D02*
X186180533Y-54682142D01*
X186180533Y-54682142D02*
X186323390Y-54729761D01*
X186323390Y-54729761D02*
X186894819Y-55301189D01*
X186894819Y-55301189D02*
X186894819Y-54682142D01*
X186894819Y-49820238D02*
X186418628Y-50153571D01*
X186894819Y-50391666D02*
X185894819Y-50391666D01*
X185894819Y-50391666D02*
X185894819Y-50010714D01*
X185894819Y-50010714D02*
X185942438Y-49915476D01*
X185942438Y-49915476D02*
X185990057Y-49867857D01*
X185990057Y-49867857D02*
X186085295Y-49820238D01*
X186085295Y-49820238D02*
X186228152Y-49820238D01*
X186228152Y-49820238D02*
X186323390Y-49867857D01*
X186323390Y-49867857D02*
X186371009Y-49915476D01*
X186371009Y-49915476D02*
X186418628Y-50010714D01*
X186418628Y-50010714D02*
X186418628Y-50391666D01*
X186894819Y-49391666D02*
X186228152Y-49391666D01*
X185894819Y-49391666D02*
X185942438Y-49439285D01*
X185942438Y-49439285D02*
X185990057Y-49391666D01*
X185990057Y-49391666D02*
X185942438Y-49344047D01*
X185942438Y-49344047D02*
X185894819Y-49391666D01*
X185894819Y-49391666D02*
X185990057Y-49391666D01*
X186228152Y-48486905D02*
X187037676Y-48486905D01*
X187037676Y-48486905D02*
X187132914Y-48534524D01*
X187132914Y-48534524D02*
X187180533Y-48582143D01*
X187180533Y-48582143D02*
X187228152Y-48677381D01*
X187228152Y-48677381D02*
X187228152Y-48820238D01*
X187228152Y-48820238D02*
X187180533Y-48915476D01*
X186847200Y-48486905D02*
X186894819Y-48582143D01*
X186894819Y-48582143D02*
X186894819Y-48772619D01*
X186894819Y-48772619D02*
X186847200Y-48867857D01*
X186847200Y-48867857D02*
X186799580Y-48915476D01*
X186799580Y-48915476D02*
X186704342Y-48963095D01*
X186704342Y-48963095D02*
X186418628Y-48963095D01*
X186418628Y-48963095D02*
X186323390Y-48915476D01*
X186323390Y-48915476D02*
X186275771Y-48867857D01*
X186275771Y-48867857D02*
X186228152Y-48772619D01*
X186228152Y-48772619D02*
X186228152Y-48582143D01*
X186228152Y-48582143D02*
X186275771Y-48486905D01*
X186894819Y-48010714D02*
X185894819Y-48010714D01*
X186894819Y-47582143D02*
X186371009Y-47582143D01*
X186371009Y-47582143D02*
X186275771Y-47629762D01*
X186275771Y-47629762D02*
X186228152Y-47725000D01*
X186228152Y-47725000D02*
X186228152Y-47867857D01*
X186228152Y-47867857D02*
X186275771Y-47963095D01*
X186275771Y-47963095D02*
X186323390Y-48010714D01*
X186228152Y-47248809D02*
X186228152Y-46867857D01*
X185894819Y-47105952D02*
X186751961Y-47105952D01*
X186751961Y-47105952D02*
X186847200Y-47058333D01*
X186847200Y-47058333D02*
X186894819Y-46963095D01*
X186894819Y-46963095D02*
X186894819Y-46867857D01*
X185990057Y-46582142D02*
X185942438Y-46534523D01*
X185942438Y-46534523D02*
X185894819Y-46439285D01*
X185894819Y-46439285D02*
X185894819Y-46201190D01*
X185894819Y-46201190D02*
X185942438Y-46105952D01*
X185942438Y-46105952D02*
X185990057Y-46058333D01*
X185990057Y-46058333D02*
X186085295Y-46010714D01*
X186085295Y-46010714D02*
X186180533Y-46010714D01*
X186180533Y-46010714D02*
X186323390Y-46058333D01*
X186323390Y-46058333D02*
X186894819Y-46629761D01*
X186894819Y-46629761D02*
X186894819Y-46010714D01*
X160010118Y-96524819D02*
X159676785Y-96048628D01*
X159438690Y-96524819D02*
X159438690Y-95524819D01*
X159438690Y-95524819D02*
X159819642Y-95524819D01*
X159819642Y-95524819D02*
X159914880Y-95572438D01*
X159914880Y-95572438D02*
X159962499Y-95620057D01*
X159962499Y-95620057D02*
X160010118Y-95715295D01*
X160010118Y-95715295D02*
X160010118Y-95858152D01*
X160010118Y-95858152D02*
X159962499Y-95953390D01*
X159962499Y-95953390D02*
X159914880Y-96001009D01*
X159914880Y-96001009D02*
X159819642Y-96048628D01*
X159819642Y-96048628D02*
X159438690Y-96048628D01*
X160914880Y-96524819D02*
X160438690Y-96524819D01*
X160438690Y-96524819D02*
X160438690Y-95524819D01*
X161629166Y-96477200D02*
X161533928Y-96524819D01*
X161533928Y-96524819D02*
X161343452Y-96524819D01*
X161343452Y-96524819D02*
X161248214Y-96477200D01*
X161248214Y-96477200D02*
X161200595Y-96381961D01*
X161200595Y-96381961D02*
X161200595Y-96001009D01*
X161200595Y-96001009D02*
X161248214Y-95905771D01*
X161248214Y-95905771D02*
X161343452Y-95858152D01*
X161343452Y-95858152D02*
X161533928Y-95858152D01*
X161533928Y-95858152D02*
X161629166Y-95905771D01*
X161629166Y-95905771D02*
X161676785Y-96001009D01*
X161676785Y-96001009D02*
X161676785Y-96096247D01*
X161676785Y-96096247D02*
X161200595Y-96191485D01*
X162533928Y-96524819D02*
X162533928Y-95524819D01*
X162533928Y-96477200D02*
X162438690Y-96524819D01*
X162438690Y-96524819D02*
X162248214Y-96524819D01*
X162248214Y-96524819D02*
X162152976Y-96477200D01*
X162152976Y-96477200D02*
X162105357Y-96429580D01*
X162105357Y-96429580D02*
X162057738Y-96334342D01*
X162057738Y-96334342D02*
X162057738Y-96048628D01*
X162057738Y-96048628D02*
X162105357Y-95953390D01*
X162105357Y-95953390D02*
X162152976Y-95905771D01*
X162152976Y-95905771D02*
X162248214Y-95858152D01*
X162248214Y-95858152D02*
X162438690Y-95858152D01*
X162438690Y-95858152D02*
X162533928Y-95905771D01*
X162914881Y-95524819D02*
X163533928Y-95524819D01*
X163533928Y-95524819D02*
X163200595Y-95905771D01*
X163200595Y-95905771D02*
X163343452Y-95905771D01*
X163343452Y-95905771D02*
X163438690Y-95953390D01*
X163438690Y-95953390D02*
X163486309Y-96001009D01*
X163486309Y-96001009D02*
X163533928Y-96096247D01*
X163533928Y-96096247D02*
X163533928Y-96334342D01*
X163533928Y-96334342D02*
X163486309Y-96429580D01*
X163486309Y-96429580D02*
X163438690Y-96477200D01*
X163438690Y-96477200D02*
X163343452Y-96524819D01*
X163343452Y-96524819D02*
X163057738Y-96524819D01*
X163057738Y-96524819D02*
X162962500Y-96477200D01*
X162962500Y-96477200D02*
X162914881Y-96429580D01*
X191510118Y-97024819D02*
X191176785Y-96548628D01*
X190938690Y-97024819D02*
X190938690Y-96024819D01*
X190938690Y-96024819D02*
X191319642Y-96024819D01*
X191319642Y-96024819D02*
X191414880Y-96072438D01*
X191414880Y-96072438D02*
X191462499Y-96120057D01*
X191462499Y-96120057D02*
X191510118Y-96215295D01*
X191510118Y-96215295D02*
X191510118Y-96358152D01*
X191510118Y-96358152D02*
X191462499Y-96453390D01*
X191462499Y-96453390D02*
X191414880Y-96501009D01*
X191414880Y-96501009D02*
X191319642Y-96548628D01*
X191319642Y-96548628D02*
X190938690Y-96548628D01*
X192414880Y-97024819D02*
X191938690Y-97024819D01*
X191938690Y-97024819D02*
X191938690Y-96024819D01*
X193129166Y-96977200D02*
X193033928Y-97024819D01*
X193033928Y-97024819D02*
X192843452Y-97024819D01*
X192843452Y-97024819D02*
X192748214Y-96977200D01*
X192748214Y-96977200D02*
X192700595Y-96881961D01*
X192700595Y-96881961D02*
X192700595Y-96501009D01*
X192700595Y-96501009D02*
X192748214Y-96405771D01*
X192748214Y-96405771D02*
X192843452Y-96358152D01*
X192843452Y-96358152D02*
X193033928Y-96358152D01*
X193033928Y-96358152D02*
X193129166Y-96405771D01*
X193129166Y-96405771D02*
X193176785Y-96501009D01*
X193176785Y-96501009D02*
X193176785Y-96596247D01*
X193176785Y-96596247D02*
X192700595Y-96691485D01*
X194033928Y-97024819D02*
X194033928Y-96024819D01*
X194033928Y-96977200D02*
X193938690Y-97024819D01*
X193938690Y-97024819D02*
X193748214Y-97024819D01*
X193748214Y-97024819D02*
X193652976Y-96977200D01*
X193652976Y-96977200D02*
X193605357Y-96929580D01*
X193605357Y-96929580D02*
X193557738Y-96834342D01*
X193557738Y-96834342D02*
X193557738Y-96548628D01*
X193557738Y-96548628D02*
X193605357Y-96453390D01*
X193605357Y-96453390D02*
X193652976Y-96405771D01*
X193652976Y-96405771D02*
X193748214Y-96358152D01*
X193748214Y-96358152D02*
X193938690Y-96358152D01*
X193938690Y-96358152D02*
X194033928Y-96405771D01*
X194462500Y-96120057D02*
X194510119Y-96072438D01*
X194510119Y-96072438D02*
X194605357Y-96024819D01*
X194605357Y-96024819D02*
X194843452Y-96024819D01*
X194843452Y-96024819D02*
X194938690Y-96072438D01*
X194938690Y-96072438D02*
X194986309Y-96120057D01*
X194986309Y-96120057D02*
X195033928Y-96215295D01*
X195033928Y-96215295D02*
X195033928Y-96310533D01*
X195033928Y-96310533D02*
X194986309Y-96453390D01*
X194986309Y-96453390D02*
X194414881Y-97024819D01*
X194414881Y-97024819D02*
X195033928Y-97024819D01*
D11*
%TO.C,Right3*%
X148330000Y-53100000D02*
X168920000Y-53100000D01*
X168920000Y-53100000D02*
X168920000Y-42720000D01*
X167860000Y-49400000D02*
X168920000Y-49400000D01*
X166510000Y-48270000D02*
X167710000Y-48270000D01*
X167080000Y-48270000D02*
X167080000Y-49370000D01*
X167710000Y-48270000D02*
X167710000Y-47570000D01*
X166510000Y-47570000D02*
X166510000Y-48270000D01*
X166910000Y-47570000D02*
X167310000Y-48270000D01*
X167080000Y-47570000D02*
X167080000Y-46470000D01*
X167710000Y-47570000D02*
X166510000Y-47570000D01*
X167860000Y-46400000D02*
X167860000Y-49400000D01*
X168920000Y-46400000D02*
X167880000Y-46400000D01*
X148330000Y-42720000D02*
X148330000Y-53100000D01*
X168920000Y-42720000D02*
X148330000Y-42720000D01*
X167770000Y-42560000D02*
X169070000Y-42560000D01*
X169070000Y-42560000D02*
X169070000Y-43770000D01*
%TO.C,J2*%
X237770000Y-42350000D02*
X237770000Y-60190000D01*
X237770000Y-42350000D02*
X240430000Y-42350000D01*
X237770000Y-60190000D02*
X240430000Y-60190000D01*
X239100000Y-39750000D02*
X240430000Y-39750000D01*
X240430000Y-39750000D02*
X240430000Y-41080000D01*
X240430000Y-42350000D02*
X240430000Y-60190000D01*
%TO.C,QL3*%
X220478478Y-54851522D02*
G75*
G03*
X216040000Y-56690000I-1838478J-1838478D01*
G01*
X216040000Y-56690000D02*
G75*
G03*
X220478478Y-58528478I2600000J0D01*
G01*
X220490000Y-58490000D02*
X220490000Y-54890000D01*
D12*
%TO.C,Return2*%
X178862500Y-89200000D02*
X178862500Y-69200000D01*
X187862500Y-89200000D02*
X178862500Y-89200000D01*
X178862500Y-69200000D02*
X187862500Y-69200000D01*
X187862500Y-69200000D02*
X187862500Y-89200000D01*
D13*
X188962500Y-86700000D02*
G75*
G03*
X188962500Y-86700000I-100000J0D01*
G01*
D11*
%TO.C,D2*%
X179397500Y-92655000D02*
X179397500Y-95745000D01*
X184947499Y-94200462D02*
G75*
G03*
X179397501Y-92655170I-2989999J462D01*
G01*
X179397500Y-95744830D02*
G75*
G03*
X184947500Y-94199538I2560000J1544830D01*
G01*
X184457500Y-94200000D02*
G75*
G03*
X184457500Y-94200000I-2500000J0D01*
G01*
%TO.C,LeftPD2*%
X229910000Y-50790000D02*
X229910000Y-50460000D01*
X229910000Y-48050000D02*
X229910000Y-48380000D01*
X223370000Y-50790000D02*
X229910000Y-50790000D01*
X223370000Y-50460000D02*
X223370000Y-50790000D01*
X223370000Y-48380000D02*
X223370000Y-48050000D01*
X223370000Y-48050000D02*
X229910000Y-48050000D01*
D12*
%TO.C,Send3*%
X160000000Y-89200000D02*
X160000000Y-69200000D01*
X169000000Y-89200000D02*
X160000000Y-89200000D01*
X160000000Y-69200000D02*
X169000000Y-69200000D01*
X169000000Y-69200000D02*
X169000000Y-89200000D01*
D13*
X170100000Y-86700000D02*
G75*
G03*
X170100000Y-86700000I-100000J0D01*
G01*
D11*
%TO.C,R1*%
X145085000Y-57970000D02*
X142165000Y-57970000D01*
X145085000Y-49070000D02*
X145085000Y-57970000D01*
X145085000Y-49030000D02*
X142165000Y-49030000D01*
X142165000Y-62720000D02*
X139535000Y-62720000D01*
X142165000Y-57970000D02*
X142165000Y-62720000D01*
X142165000Y-44280000D02*
X142165000Y-49030000D01*
X139535000Y-44280000D02*
X142165000Y-44280000D01*
X136735000Y-62720000D02*
X133135000Y-62720000D01*
X133135000Y-44280000D02*
X136735000Y-44280000D01*
X130435000Y-62720000D02*
X126835000Y-62720000D01*
X126835000Y-44280000D02*
X130435000Y-44280000D01*
X121315000Y-62720000D02*
X124035000Y-62720000D01*
X121315000Y-59320000D02*
X121315000Y-62720000D01*
X121315000Y-59320000D02*
X118315000Y-59320000D01*
X121315000Y-47680000D02*
X118315000Y-47680000D01*
X121315000Y-44280000D02*
X124035000Y-44280000D01*
X121315000Y-44280000D02*
X121315000Y-47680000D01*
X118315000Y-47680000D02*
X118315000Y-59320000D01*
%TO.C,Left/Mono3*%
X148330000Y-64100000D02*
X168920000Y-64100000D01*
X168920000Y-64100000D02*
X168920000Y-53720000D01*
X167860000Y-60400000D02*
X168920000Y-60400000D01*
X166510000Y-59270000D02*
X167710000Y-59270000D01*
X167080000Y-59270000D02*
X167080000Y-60370000D01*
X167710000Y-59270000D02*
X167710000Y-58570000D01*
X166510000Y-58570000D02*
X166510000Y-59270000D01*
X166910000Y-58570000D02*
X167310000Y-59270000D01*
X167080000Y-58570000D02*
X167080000Y-57470000D01*
X167710000Y-58570000D02*
X166510000Y-58570000D01*
X167860000Y-57400000D02*
X167860000Y-60400000D01*
X168920000Y-57400000D02*
X167880000Y-57400000D01*
X148330000Y-53720000D02*
X148330000Y-64100000D01*
X168920000Y-53720000D02*
X148330000Y-53720000D01*
X167770000Y-53560000D02*
X169070000Y-53560000D01*
X169070000Y-53560000D02*
X169070000Y-54770000D01*
%TO.C,U1*%
X227120000Y-66870000D02*
X227120000Y-62229000D01*
X227120000Y-66870000D02*
X216880000Y-66870000D01*
X227120000Y-65360000D02*
X216880000Y-65360000D01*
X227120000Y-62229000D02*
X216880000Y-62229000D01*
X223850000Y-66870000D02*
X223850000Y-65360000D01*
X220149000Y-66870000D02*
X220149000Y-65360000D01*
X216880000Y-66870000D02*
X216880000Y-62229000D01*
%TO.C,LeftPD3*%
X229910000Y-57790000D02*
X229910000Y-57460000D01*
X229910000Y-55050000D02*
X229910000Y-55380000D01*
X223370000Y-57790000D02*
X229910000Y-57790000D01*
X223370000Y-57460000D02*
X223370000Y-57790000D01*
X223370000Y-55380000D02*
X223370000Y-55050000D01*
X223370000Y-55050000D02*
X229910000Y-55050000D01*
%TO.C,RLed1*%
X221232500Y-95070000D02*
X214692500Y-95070000D01*
X221232500Y-94740000D02*
X221232500Y-95070000D01*
X221232500Y-92660000D02*
X221232500Y-92330000D01*
X221232500Y-92330000D02*
X214692500Y-92330000D01*
X214692500Y-95070000D02*
X214692500Y-94740000D01*
X214692500Y-92330000D02*
X214692500Y-92660000D01*
%TO.C,QL2*%
X220478478Y-49061522D02*
G75*
G03*
X216040000Y-50900000I-1838478J-1838478D01*
G01*
X216040000Y-50900000D02*
G75*
G03*
X220478478Y-52738478I2600000J0D01*
G01*
X220490000Y-52700000D02*
X220490000Y-49100000D01*
%TO.C,LGate3*%
X223370000Y-58050000D02*
X223370000Y-58380000D01*
X223370000Y-60790000D02*
X223370000Y-60460000D01*
X229910000Y-58050000D02*
X223370000Y-58050000D01*
X229910000Y-58380000D02*
X229910000Y-58050000D01*
X229910000Y-60460000D02*
X229910000Y-60790000D01*
X229910000Y-60790000D02*
X223370000Y-60790000D01*
D12*
%TO.C,Send2*%
X189500000Y-89200000D02*
X189500000Y-69200000D01*
X198500000Y-89200000D02*
X189500000Y-89200000D01*
X189500000Y-69200000D02*
X198500000Y-69200000D01*
X198500000Y-69200000D02*
X198500000Y-89200000D01*
D13*
X199600000Y-86700000D02*
G75*
G03*
X199600000Y-86700000I-100000J0D01*
G01*
D11*
%TO.C,Left/Mono1*%
X192650000Y-64157500D02*
X213240000Y-64157500D01*
X213240000Y-64157500D02*
X213240000Y-53777500D01*
X212180000Y-60457500D02*
X213240000Y-60457500D01*
X210830000Y-59327500D02*
X212030000Y-59327500D01*
X211400000Y-59327500D02*
X211400000Y-60427500D01*
X212030000Y-59327500D02*
X212030000Y-58627500D01*
X210830000Y-58627500D02*
X210830000Y-59327500D01*
X211230000Y-58627500D02*
X211630000Y-59327500D01*
X211400000Y-58627500D02*
X211400000Y-57527500D01*
X212030000Y-58627500D02*
X210830000Y-58627500D01*
X212180000Y-57457500D02*
X212180000Y-60457500D01*
X213240000Y-57457500D02*
X212200000Y-57457500D01*
X192650000Y-53777500D02*
X192650000Y-64157500D01*
X213240000Y-53777500D02*
X192650000Y-53777500D01*
X212090000Y-53617500D02*
X213390000Y-53617500D01*
X213390000Y-53617500D02*
X213390000Y-54827500D01*
%TO.C,QL1*%
X220478478Y-43271522D02*
G75*
G03*
X216040000Y-45110000I-1838478J-1838478D01*
G01*
X216040000Y-45110000D02*
G75*
G03*
X220478478Y-46948478I2600000J0D01*
G01*
X220490000Y-46910000D02*
X220490000Y-43310000D01*
%TO.C,L/Mono1*%
X144785000Y-80370000D02*
X141865000Y-80370000D01*
X144785000Y-71470000D02*
X144785000Y-80370000D01*
X144785000Y-71430000D02*
X141865000Y-71430000D01*
X141865000Y-85120000D02*
X139235000Y-85120000D01*
X141865000Y-80370000D02*
X141865000Y-85120000D01*
X141865000Y-66680000D02*
X141865000Y-71430000D01*
X139235000Y-66680000D02*
X141865000Y-66680000D01*
X136435000Y-85120000D02*
X132835000Y-85120000D01*
X132835000Y-66680000D02*
X136435000Y-66680000D01*
X130135000Y-85120000D02*
X126535000Y-85120000D01*
X126535000Y-66680000D02*
X130135000Y-66680000D01*
X121015000Y-85120000D02*
X123735000Y-85120000D01*
X121015000Y-81720000D02*
X121015000Y-85120000D01*
X121015000Y-81720000D02*
X118015000Y-81720000D01*
X121015000Y-70080000D02*
X118015000Y-70080000D01*
X121015000Y-66680000D02*
X123735000Y-66680000D01*
X121015000Y-66680000D02*
X121015000Y-70080000D01*
X118015000Y-70080000D02*
X118015000Y-81720000D01*
%TO.C,Right1*%
X192650000Y-52800000D02*
X213240000Y-52800000D01*
X213240000Y-52800000D02*
X213240000Y-42420000D01*
X212180000Y-49100000D02*
X213240000Y-49100000D01*
X210830000Y-47970000D02*
X212030000Y-47970000D01*
X211400000Y-47970000D02*
X211400000Y-49070000D01*
X212030000Y-47970000D02*
X212030000Y-47270000D01*
X210830000Y-47270000D02*
X210830000Y-47970000D01*
X211230000Y-47270000D02*
X211630000Y-47970000D01*
X211400000Y-47270000D02*
X211400000Y-46170000D01*
X212030000Y-47270000D02*
X210830000Y-47270000D01*
X212180000Y-46100000D02*
X212180000Y-49100000D01*
X213240000Y-46100000D02*
X212200000Y-46100000D01*
X192650000Y-42420000D02*
X192650000Y-52800000D01*
X213240000Y-42420000D02*
X192650000Y-42420000D01*
X212090000Y-42260000D02*
X213390000Y-42260000D01*
X213390000Y-42260000D02*
X213390000Y-43470000D01*
%TO.C,G_link1*%
X138465000Y-92727064D02*
X138465000Y-92272936D01*
X139935000Y-92727064D02*
X139935000Y-92272936D01*
D12*
%TO.C,Return3*%
X149500000Y-89200000D02*
X149500000Y-69200000D01*
X158500000Y-89200000D02*
X149500000Y-89200000D01*
X149500000Y-69200000D02*
X158500000Y-69200000D01*
X158500000Y-69200000D02*
X158500000Y-89200000D01*
D13*
X159600000Y-86700000D02*
G75*
G03*
X159600000Y-86700000I-100000J0D01*
G01*
D11*
%TO.C,LGate2*%
X223370000Y-51050000D02*
X223370000Y-51380000D01*
X223370000Y-53790000D02*
X223370000Y-53460000D01*
X229910000Y-51050000D02*
X223370000Y-51050000D01*
X229910000Y-51380000D02*
X229910000Y-51050000D01*
X229910000Y-53460000D02*
X229910000Y-53790000D01*
X229910000Y-53790000D02*
X223370000Y-53790000D01*
%TO.C,LGate1*%
X223370000Y-45050000D02*
X223370000Y-45380000D01*
X223370000Y-47790000D02*
X223370000Y-47460000D01*
X229910000Y-45050000D02*
X223370000Y-45050000D01*
X229910000Y-45380000D02*
X229910000Y-45050000D01*
X229910000Y-47460000D02*
X229910000Y-47790000D01*
X229910000Y-47790000D02*
X223370000Y-47790000D01*
%TO.C,D3*%
X149897500Y-92155000D02*
X149897500Y-95245000D01*
X155447499Y-93700462D02*
G75*
G03*
X149897501Y-92155170I-2989999J462D01*
G01*
X149897500Y-95244830D02*
G75*
G03*
X155447500Y-93699538I2560000J1544830D01*
G01*
X154957500Y-93700000D02*
G75*
G03*
X154957500Y-93700000I-2500000J0D01*
G01*
D12*
%TO.C,Return1*%
X206500000Y-89200000D02*
X206500000Y-69200000D01*
X215500000Y-89200000D02*
X206500000Y-89200000D01*
X206500000Y-69200000D02*
X215500000Y-69200000D01*
X215500000Y-69200000D02*
X215500000Y-89200000D01*
D13*
X216600000Y-86700000D02*
G75*
G03*
X216600000Y-86700000I-100000J0D01*
G01*
D12*
%TO.C,Send1*%
X216500000Y-89200000D02*
X216500000Y-69200000D01*
X225500000Y-89200000D02*
X216500000Y-89200000D01*
X216500000Y-69200000D02*
X225500000Y-69200000D01*
X225500000Y-69200000D02*
X225500000Y-89200000D01*
D13*
X226600000Y-86700000D02*
G75*
G03*
X226600000Y-86700000I-100000J0D01*
G01*
D11*
%TO.C,D1*%
X207132500Y-92155000D02*
X207132500Y-95245000D01*
X212682499Y-93700462D02*
G75*
G03*
X207132501Y-92155170I-2989999J462D01*
G01*
X207132500Y-95244830D02*
G75*
G03*
X212682500Y-93699538I2560000J1544830D01*
G01*
X212192500Y-93700000D02*
G75*
G03*
X212192500Y-93700000I-2500000J0D01*
G01*
%TO.C,C1*%
X240229646Y-68575000D02*
X239229646Y-68575000D01*
X239729646Y-69075000D02*
X239729646Y-68075000D01*
X234750000Y-70780000D02*
X234750000Y-60620000D01*
X234710000Y-70780000D02*
X234710000Y-60620000D01*
X234670000Y-70780000D02*
X234670000Y-60620000D01*
X234630000Y-70779000D02*
X234630000Y-60621000D01*
X234590000Y-70778000D02*
X234590000Y-60622000D01*
X234550000Y-70777000D02*
X234550000Y-60623000D01*
X234510000Y-70775000D02*
X234510000Y-60625000D01*
X234470000Y-70773000D02*
X234470000Y-60627000D01*
X234430000Y-70770000D02*
X234430000Y-60630000D01*
X234390000Y-70768000D02*
X234390000Y-60632000D01*
X234350000Y-70765000D02*
X234350000Y-60635000D01*
X234310000Y-70762000D02*
X234310000Y-60638000D01*
X234270000Y-70758000D02*
X234270000Y-60642000D01*
X234230000Y-70754000D02*
X234230000Y-66941000D01*
X234230000Y-64459000D02*
X234230000Y-60646000D01*
X234190000Y-70750000D02*
X234190000Y-66941000D01*
X234190000Y-64459000D02*
X234190000Y-60650000D01*
X234150000Y-70745000D02*
X234150000Y-66941000D01*
X234150000Y-64459000D02*
X234150000Y-60655000D01*
X234110000Y-70740000D02*
X234110000Y-66941000D01*
X234110000Y-64459000D02*
X234110000Y-60660000D01*
X234070000Y-70735000D02*
X234070000Y-66941000D01*
X234070000Y-64459000D02*
X234070000Y-60665000D01*
X234029000Y-70730000D02*
X234029000Y-66941000D01*
X234029000Y-64459000D02*
X234029000Y-60670000D01*
X233989000Y-70724000D02*
X233989000Y-66941000D01*
X233989000Y-64459000D02*
X233989000Y-60676000D01*
X233949000Y-70718000D02*
X233949000Y-66941000D01*
X233949000Y-64459000D02*
X233949000Y-60682000D01*
X233909000Y-70711000D02*
X233909000Y-66941000D01*
X233909000Y-64459000D02*
X233909000Y-60689000D01*
X233869000Y-70704000D02*
X233869000Y-66941000D01*
X233869000Y-64459000D02*
X233869000Y-60696000D01*
X233829000Y-70697000D02*
X233829000Y-66941000D01*
X233829000Y-64459000D02*
X233829000Y-60703000D01*
X233789000Y-70690000D02*
X233789000Y-66941000D01*
X233789000Y-64459000D02*
X233789000Y-60710000D01*
X233749000Y-70682000D02*
X233749000Y-66941000D01*
X233749000Y-64459000D02*
X233749000Y-60718000D01*
X233709000Y-70674000D02*
X233709000Y-66941000D01*
X233709000Y-64459000D02*
X233709000Y-60726000D01*
X233669000Y-70665000D02*
X233669000Y-66941000D01*
X233669000Y-64459000D02*
X233669000Y-60735000D01*
X233629000Y-70656000D02*
X233629000Y-66941000D01*
X233629000Y-64459000D02*
X233629000Y-60744000D01*
X233589000Y-70647000D02*
X233589000Y-66941000D01*
X233589000Y-64459000D02*
X233589000Y-60753000D01*
X233549000Y-70638000D02*
X233549000Y-66941000D01*
X233549000Y-64459000D02*
X233549000Y-60762000D01*
X233509000Y-70628000D02*
X233509000Y-66941000D01*
X233509000Y-64459000D02*
X233509000Y-60772000D01*
X233469000Y-70618000D02*
X233469000Y-66941000D01*
X233469000Y-64459000D02*
X233469000Y-60782000D01*
X233429000Y-70607000D02*
X233429000Y-66941000D01*
X233429000Y-64459000D02*
X233429000Y-60793000D01*
X233389000Y-70597000D02*
X233389000Y-66941000D01*
X233389000Y-64459000D02*
X233389000Y-60803000D01*
X233349000Y-70585000D02*
X233349000Y-66941000D01*
X233349000Y-64459000D02*
X233349000Y-60815000D01*
X233309000Y-70574000D02*
X233309000Y-66941000D01*
X233309000Y-64459000D02*
X233309000Y-60826000D01*
X233269000Y-70562000D02*
X233269000Y-66941000D01*
X233269000Y-64459000D02*
X233269000Y-60838000D01*
X233229000Y-70550000D02*
X233229000Y-66941000D01*
X233229000Y-64459000D02*
X233229000Y-60850000D01*
X233189000Y-70537000D02*
X233189000Y-66941000D01*
X233189000Y-64459000D02*
X233189000Y-60863000D01*
X233149000Y-70524000D02*
X233149000Y-66941000D01*
X233149000Y-64459000D02*
X233149000Y-60876000D01*
X233109000Y-70511000D02*
X233109000Y-66941000D01*
X233109000Y-64459000D02*
X233109000Y-60889000D01*
X233069000Y-70497000D02*
X233069000Y-66941000D01*
X233069000Y-64459000D02*
X233069000Y-60903000D01*
X233029000Y-70483000D02*
X233029000Y-66941000D01*
X233029000Y-64459000D02*
X233029000Y-60917000D01*
X232989000Y-70468000D02*
X232989000Y-66941000D01*
X232989000Y-64459000D02*
X232989000Y-60932000D01*
X232949000Y-70454000D02*
X232949000Y-66941000D01*
X232949000Y-64459000D02*
X232949000Y-60946000D01*
X232909000Y-70438000D02*
X232909000Y-66941000D01*
X232909000Y-64459000D02*
X232909000Y-60962000D01*
X232869000Y-70423000D02*
X232869000Y-66941000D01*
X232869000Y-64459000D02*
X232869000Y-60977000D01*
X232829000Y-70407000D02*
X232829000Y-66941000D01*
X232829000Y-64459000D02*
X232829000Y-60993000D01*
X232789000Y-70390000D02*
X232789000Y-66941000D01*
X232789000Y-64459000D02*
X232789000Y-61010000D01*
X232749000Y-70374000D02*
X232749000Y-66941000D01*
X232749000Y-64459000D02*
X232749000Y-61026000D01*
X232709000Y-70357000D02*
X232709000Y-66941000D01*
X232709000Y-64459000D02*
X232709000Y-61043000D01*
X232669000Y-70339000D02*
X232669000Y-66941000D01*
X232669000Y-64459000D02*
X232669000Y-61061000D01*
X232629000Y-70321000D02*
X232629000Y-66941000D01*
X232629000Y-64459000D02*
X232629000Y-61079000D01*
X232589000Y-70303000D02*
X232589000Y-66941000D01*
X232589000Y-64459000D02*
X232589000Y-61097000D01*
X232549000Y-70284000D02*
X232549000Y-66941000D01*
X232549000Y-64459000D02*
X232549000Y-61116000D01*
X232509000Y-70264000D02*
X232509000Y-66941000D01*
X232509000Y-64459000D02*
X232509000Y-61136000D01*
X232469000Y-70245000D02*
X232469000Y-66941000D01*
X232469000Y-64459000D02*
X232469000Y-61155000D01*
X232429000Y-70225000D02*
X232429000Y-66941000D01*
X232429000Y-64459000D02*
X232429000Y-61175000D01*
X232389000Y-70204000D02*
X232389000Y-66941000D01*
X232389000Y-64459000D02*
X232389000Y-61196000D01*
X232349000Y-70183000D02*
X232349000Y-66941000D01*
X232349000Y-64459000D02*
X232349000Y-61217000D01*
X232309000Y-70162000D02*
X232309000Y-66941000D01*
X232309000Y-64459000D02*
X232309000Y-61238000D01*
X232269000Y-70140000D02*
X232269000Y-66941000D01*
X232269000Y-64459000D02*
X232269000Y-61260000D01*
X232229000Y-70117000D02*
X232229000Y-66941000D01*
X232229000Y-64459000D02*
X232229000Y-61283000D01*
X232189000Y-70095000D02*
X232189000Y-66941000D01*
X232189000Y-64459000D02*
X232189000Y-61305000D01*
X232149000Y-70071000D02*
X232149000Y-66941000D01*
X232149000Y-64459000D02*
X232149000Y-61329000D01*
X232109000Y-70047000D02*
X232109000Y-66941000D01*
X232109000Y-64459000D02*
X232109000Y-61353000D01*
X232069000Y-70023000D02*
X232069000Y-66941000D01*
X232069000Y-64459000D02*
X232069000Y-61377000D01*
X232029000Y-69998000D02*
X232029000Y-66941000D01*
X232029000Y-64459000D02*
X232029000Y-61402000D01*
X231989000Y-69973000D02*
X231989000Y-66941000D01*
X231989000Y-64459000D02*
X231989000Y-61427000D01*
X231949000Y-69947000D02*
X231949000Y-66941000D01*
X231949000Y-64459000D02*
X231949000Y-61453000D01*
X231909000Y-69921000D02*
X231909000Y-66941000D01*
X231909000Y-64459000D02*
X231909000Y-61479000D01*
X231869000Y-69894000D02*
X231869000Y-66941000D01*
X231869000Y-64459000D02*
X231869000Y-61506000D01*
X231829000Y-69866000D02*
X231829000Y-66941000D01*
X231829000Y-64459000D02*
X231829000Y-61534000D01*
X231789000Y-69838000D02*
X231789000Y-66941000D01*
X231789000Y-64459000D02*
X231789000Y-61562000D01*
X231749000Y-69810000D02*
X231749000Y-61590000D01*
X231709000Y-69780000D02*
X231709000Y-61620000D01*
X231669000Y-69750000D02*
X231669000Y-61650000D01*
X231629000Y-69720000D02*
X231629000Y-61680000D01*
X231589000Y-69689000D02*
X231589000Y-61711000D01*
X231549000Y-69657000D02*
X231549000Y-61743000D01*
X231509000Y-69625000D02*
X231509000Y-61775000D01*
X231469000Y-69592000D02*
X231469000Y-61808000D01*
X231429000Y-69558000D02*
X231429000Y-61842000D01*
X231389000Y-69524000D02*
X231389000Y-61876000D01*
X231349000Y-69489000D02*
X231349000Y-61911000D01*
X231309000Y-69453000D02*
X231309000Y-61947000D01*
X231269000Y-69416000D02*
X231269000Y-61984000D01*
X231229000Y-69379000D02*
X231229000Y-62021000D01*
X231189000Y-69340000D02*
X231189000Y-62060000D01*
X231149000Y-69301000D02*
X231149000Y-62099000D01*
X231109000Y-69261000D02*
X231109000Y-62139000D01*
X231069000Y-69220000D02*
X231069000Y-62180000D01*
X231029000Y-69178000D02*
X231029000Y-62222000D01*
X230989000Y-69136000D02*
X230989000Y-62264000D01*
X230949000Y-69092000D02*
X230949000Y-62308000D01*
X230909000Y-69047000D02*
X230909000Y-62353000D01*
X230869000Y-69001000D02*
X230869000Y-62399000D01*
X230829000Y-68954000D02*
X230829000Y-62446000D01*
X230789000Y-68906000D02*
X230789000Y-62494000D01*
X230749000Y-68856000D02*
X230749000Y-62544000D01*
X230709000Y-68806000D02*
X230709000Y-62594000D01*
X230669000Y-68754000D02*
X230669000Y-62646000D01*
X230629000Y-68700000D02*
X230629000Y-62700000D01*
X230589000Y-68645000D02*
X230589000Y-62755000D01*
X230549000Y-68589000D02*
X230549000Y-62811000D01*
X230509000Y-68530000D02*
X230509000Y-62870000D01*
X230469000Y-68470000D02*
X230469000Y-62930000D01*
X230429000Y-68409000D02*
X230429000Y-62991000D01*
X230389000Y-68345000D02*
X230389000Y-63055000D01*
X230349000Y-68279000D02*
X230349000Y-63121000D01*
X230309000Y-68210000D02*
X230309000Y-63190000D01*
X230269000Y-68139000D02*
X230269000Y-63261000D01*
X230229000Y-68065000D02*
X230229000Y-63335000D01*
X230189000Y-67989000D02*
X230189000Y-63411000D01*
X230149000Y-67909000D02*
X230149000Y-63491000D01*
X230109000Y-67825000D02*
X230109000Y-63575000D01*
X230069000Y-67737000D02*
X230069000Y-63663000D01*
X230029000Y-67644000D02*
X230029000Y-63756000D01*
X229989000Y-67546000D02*
X229989000Y-63854000D01*
X229949000Y-67442000D02*
X229949000Y-63958000D01*
X229909000Y-67330000D02*
X229909000Y-64070000D01*
X229869000Y-67210000D02*
X229869000Y-64190000D01*
X229829000Y-67078000D02*
X229829000Y-64322000D01*
X229789000Y-66930000D02*
X229789000Y-64470000D01*
X229749000Y-66762000D02*
X229749000Y-64638000D01*
X229709000Y-66562000D02*
X229709000Y-64838000D01*
X229669000Y-66299000D02*
X229669000Y-65101000D01*
X239870000Y-65700000D02*
G75*
G03*
X239870000Y-65700000I-5120000J0D01*
G01*
%TO.C,LeftPD1*%
X229910000Y-44790000D02*
X229910000Y-44460000D01*
X229910000Y-42050000D02*
X229910000Y-42380000D01*
X223370000Y-44790000D02*
X229910000Y-44790000D01*
X223370000Y-44460000D02*
X223370000Y-44790000D01*
X223370000Y-42380000D02*
X223370000Y-42050000D01*
X223370000Y-42050000D02*
X229910000Y-42050000D01*
%TO.C,Left/Mono2*%
X170687500Y-64362500D02*
X191277500Y-64362500D01*
X191277500Y-64362500D02*
X191277500Y-53982500D01*
X190217500Y-60662500D02*
X191277500Y-60662500D01*
X188867500Y-59532500D02*
X190067500Y-59532500D01*
X189437500Y-59532500D02*
X189437500Y-60632500D01*
X190067500Y-59532500D02*
X190067500Y-58832500D01*
X188867500Y-58832500D02*
X188867500Y-59532500D01*
X189267500Y-58832500D02*
X189667500Y-59532500D01*
X189437500Y-58832500D02*
X189437500Y-57732500D01*
X190067500Y-58832500D02*
X188867500Y-58832500D01*
X190217500Y-57662500D02*
X190217500Y-60662500D01*
X191277500Y-57662500D02*
X190237500Y-57662500D01*
X170687500Y-53982500D02*
X170687500Y-64362500D01*
X191277500Y-53982500D02*
X170687500Y-53982500D01*
X190127500Y-53822500D02*
X191427500Y-53822500D01*
X191427500Y-53822500D02*
X191427500Y-55032500D01*
%TO.C,Right2*%
X170687500Y-52862500D02*
X191277500Y-52862500D01*
X191277500Y-52862500D02*
X191277500Y-42482500D01*
X190217500Y-49162500D02*
X191277500Y-49162500D01*
X188867500Y-48032500D02*
X190067500Y-48032500D01*
X189437500Y-48032500D02*
X189437500Y-49132500D01*
X190067500Y-48032500D02*
X190067500Y-47332500D01*
X188867500Y-47332500D02*
X188867500Y-48032500D01*
X189267500Y-47332500D02*
X189667500Y-48032500D01*
X189437500Y-47332500D02*
X189437500Y-46232500D01*
X190067500Y-47332500D02*
X188867500Y-47332500D01*
X190217500Y-46162500D02*
X190217500Y-49162500D01*
X191277500Y-46162500D02*
X190237500Y-46162500D01*
X170687500Y-42482500D02*
X170687500Y-52862500D01*
X191277500Y-42482500D02*
X170687500Y-42482500D01*
X190127500Y-42322500D02*
X191427500Y-42322500D01*
X191427500Y-42322500D02*
X191427500Y-43532500D01*
%TO.C,RLed3*%
X164732500Y-95070000D02*
X158192500Y-95070000D01*
X164732500Y-94740000D02*
X164732500Y-95070000D01*
X164732500Y-92660000D02*
X164732500Y-92330000D01*
X164732500Y-92330000D02*
X158192500Y-92330000D01*
X158192500Y-95070000D02*
X158192500Y-94740000D01*
X158192500Y-92330000D02*
X158192500Y-92660000D01*
%TO.C,RLed2*%
X196232500Y-95570000D02*
X189692500Y-95570000D01*
X196232500Y-95240000D02*
X196232500Y-95570000D01*
X196232500Y-93160000D02*
X196232500Y-92830000D01*
X196232500Y-92830000D02*
X189692500Y-92830000D01*
X189692500Y-95570000D02*
X189692500Y-95240000D01*
X189692500Y-92830000D02*
X189692500Y-93160000D01*
%TD*%
M02*
