%TF.GenerationSoftware,KiCad,Pcbnew,7.0.9*%
%TF.CreationDate,2023-12-28T11:44:19-05:00*%
%TF.ProjectId,PedalboardMain,50656461-6c62-46f6-9172-644d61696e2e,rev?*%
%TF.SameCoordinates,Original*%
%TF.FileFunction,Copper,L1,Top*%
%TF.FilePolarity,Positive*%
%FSLAX46Y46*%
G04 Gerber Fmt 4.6, Leading zero omitted, Abs format (unit mm)*
G04 Created by KiCad (PCBNEW 7.0.9) date 2023-12-28 11:44:19*
%MOMM*%
%LPD*%
G01*
G04 APERTURE LIST*
%TA.AperFunction,ComponentPad*%
%ADD10C,3.000000*%
%TD*%
%TA.AperFunction,ComponentPad*%
%ADD11C,1.600000*%
%TD*%
%TA.AperFunction,ComponentPad*%
%ADD12O,1.600000X1.600000*%
%TD*%
%TA.AperFunction,ComponentPad*%
%ADD13R,1.500000X1.050000*%
%TD*%
%TA.AperFunction,ComponentPad*%
%ADD14O,1.500000X1.050000*%
%TD*%
%TA.AperFunction,ComponentPad*%
%ADD15R,1.800000X1.800000*%
%TD*%
%TA.AperFunction,ComponentPad*%
%ADD16C,1.800000*%
%TD*%
%TA.AperFunction,ComponentPad*%
%ADD17R,1.700000X1.700000*%
%TD*%
%TA.AperFunction,ComponentPad*%
%ADD18O,1.700000X1.700000*%
%TD*%
%TA.AperFunction,ComponentPad*%
%ADD19R,1.400000X1.400000*%
%TD*%
%TA.AperFunction,ComponentPad*%
%ADD20C,1.400000*%
%TD*%
%TA.AperFunction,ComponentPad*%
%ADD21R,2.000000X1.905000*%
%TD*%
%TA.AperFunction,ComponentPad*%
%ADD22O,2.000000X1.905000*%
%TD*%
%TA.AperFunction,ViaPad*%
%ADD23C,0.800000*%
%TD*%
%TA.AperFunction,Conductor*%
%ADD24C,0.500000*%
%TD*%
G04 APERTURE END LIST*
D10*
%TO.P,Send1,R*%
%TO.N,/R_send*%
X175825000Y-101135000D03*
%TO.P,Send1,RN*%
%TO.N,Net-(R8-Pad2)*%
X175825000Y-117365000D03*
%TO.P,Send1,S*%
%TO.N,/Signal_Gnd*%
X182175000Y-101135000D03*
%TO.P,Send1,SN*%
%TO.N,unconnected-(Send1-PadSN)*%
X182175000Y-117365000D03*
%TO.P,Send1,T*%
%TO.N,/L_Send*%
X169475000Y-101135000D03*
%TO.P,Send1,TN*%
%TO.N,Net-(R9-Pad2)*%
X169475000Y-117365000D03*
%TD*%
%TO.P,Return1,R*%
%TO.N,/R_Return*%
X175825000Y-80385000D03*
%TO.P,Return1,RN*%
%TO.N,Net-(R8-Pad1)*%
X175825000Y-96615000D03*
%TO.P,Return1,S*%
%TO.N,/Signal_Gnd*%
X182175000Y-80385000D03*
%TO.P,Return1,SN*%
%TO.N,unconnected-(Return1-PadSN)*%
X182175000Y-96615000D03*
%TO.P,Return1,T*%
%TO.N,/L_Return*%
X169475000Y-80385000D03*
%TO.P,Return1,TN*%
%TO.N,Net-(R9-Pad1)*%
X169475000Y-96615000D03*
%TD*%
D11*
%TO.P,R7,1*%
%TO.N,Net-(QL1-G)*%
X155520000Y-107920000D03*
D12*
%TO.P,R7,2*%
%TO.N,/Ctrl_GND*%
X155520000Y-118080000D03*
%TD*%
D13*
%TO.P,QL1,1,S*%
%TO.N,/Ctrl_GND*%
X151500000Y-104040000D03*
D14*
%TO.P,QL1,2,G*%
%TO.N,Net-(QL1-G)*%
X151500000Y-102770000D03*
%TO.P,QL1,3,D*%
%TO.N,Net-(QL1-D)*%
X151500000Y-101500000D03*
%TD*%
D11*
%TO.P,R4,1*%
%TO.N,Net-(QLED1-G)*%
X135500000Y-118330000D03*
D12*
%TO.P,R4,2*%
%TO.N,/Ctrl_GND*%
X135500000Y-108170000D03*
%TD*%
D11*
%TO.P,R5,1*%
%TO.N,Net-(QR1-G)*%
X144000000Y-107920000D03*
D12*
%TO.P,R5,2*%
%TO.N,/Ctrl_GND*%
X144000000Y-118080000D03*
%TD*%
D15*
%TO.P,D1,1,K*%
%TO.N,Net-(D1-K)*%
X125775000Y-116500000D03*
D16*
%TO.P,D1,2,A*%
%TO.N,Net-(D1-A)*%
X123235000Y-116500000D03*
%TD*%
D13*
%TO.P,QR1,1,S*%
%TO.N,/Ctrl_GND*%
X139860000Y-104270000D03*
D14*
%TO.P,QR1,2,G*%
%TO.N,Net-(QR1-G)*%
X139860000Y-103000000D03*
%TO.P,QR1,3,D*%
%TO.N,Net-(QR1-D)*%
X139860000Y-101730000D03*
%TD*%
D11*
%TO.P,R3,1*%
%TO.N,/Control*%
X148000000Y-118080000D03*
D12*
%TO.P,R3,2*%
%TO.N,Net-(QR1-G)*%
X148000000Y-107920000D03*
%TD*%
D17*
%TO.P,J3,1,Pin_1*%
%TO.N,/9V*%
X114250000Y-111250000D03*
D18*
%TO.P,J3,2,Pin_2*%
%TO.N,/Ctrl_GND*%
X116790000Y-111250000D03*
%TD*%
D13*
%TO.P,QLED1,1,S*%
%TO.N,/Ctrl_GND*%
X131750000Y-104520000D03*
D14*
%TO.P,QLED1,2,G*%
%TO.N,Net-(QLED1-G)*%
X131750000Y-103250000D03*
%TO.P,QLED1,3,D*%
%TO.N,Net-(D1-K)*%
X131750000Y-101980000D03*
%TD*%
D19*
%TO.P,Right1,1*%
%TO.N,Net-(QR1-D)*%
X139275000Y-98200000D03*
D20*
%TO.P,Right1,4*%
%TO.N,/R_out*%
X139275000Y-90580000D03*
%TO.P,Right1,6*%
%TO.N,Net-(Right1-Pad11)*%
X139275000Y-85500000D03*
%TO.P,Right1,8*%
%TO.N,/R_Return*%
X139275000Y-80420000D03*
%TO.P,Right1,9*%
%TO.N,/R_send*%
X131655000Y-80420000D03*
%TO.P,Right1,11*%
%TO.N,Net-(Right1-Pad11)*%
X131655000Y-85500000D03*
%TO.P,Right1,13*%
%TO.N,/R_in*%
X131655000Y-90580000D03*
%TO.P,Right1,16*%
%TO.N,/5V*%
X131655000Y-98200000D03*
%TD*%
D11*
%TO.P,R2,1*%
%TO.N,/Control*%
X138750000Y-118330000D03*
D12*
%TO.P,R2,2*%
%TO.N,Net-(QLED1-G)*%
X138750000Y-108170000D03*
%TD*%
D11*
%TO.P,RLed1,1*%
%TO.N,/5V*%
X132250000Y-108170000D03*
D12*
%TO.P,RLed1,2*%
%TO.N,Net-(D1-A)*%
X132250000Y-118330000D03*
%TD*%
D19*
%TO.P,Left/Mono1,1*%
%TO.N,Net-(QL1-D)*%
X151512500Y-98107500D03*
D20*
%TO.P,Left/Mono1,4*%
%TO.N,/L_out*%
X151512500Y-90487500D03*
%TO.P,Left/Mono1,6*%
%TO.N,Net-(Left/Mono1-Pad11)*%
X151512500Y-85407500D03*
%TO.P,Left/Mono1,8*%
%TO.N,/L_Return*%
X151512500Y-80327500D03*
%TO.P,Left/Mono1,9*%
%TO.N,/L_Send*%
X143892500Y-80327500D03*
%TO.P,Left/Mono1,11*%
%TO.N,Net-(Left/Mono1-Pad11)*%
X143892500Y-85407500D03*
%TO.P,Left/Mono1,13*%
%TO.N,/L_in*%
X143892500Y-90487500D03*
%TO.P,Left/Mono1,16*%
%TO.N,/5V*%
X143892500Y-98107500D03*
%TD*%
D21*
%TO.P,U1,1,IN*%
%TO.N,/9V*%
X125195000Y-109040000D03*
D22*
%TO.P,U1,2,GND*%
%TO.N,/Ctrl_GND*%
X125195000Y-106500000D03*
%TO.P,U1,3,OUT*%
%TO.N,/5V*%
X125195000Y-103960000D03*
%TD*%
D17*
%TO.P,In1,1,Pin_1*%
%TO.N,/Signal_Gnd*%
X114500000Y-87000000D03*
D18*
%TO.P,In1,2,Pin_2*%
%TO.N,/L_in*%
X114500000Y-84460000D03*
%TO.P,In1,3,Pin_3*%
%TO.N,/R_in*%
X114500000Y-81920000D03*
%TD*%
D17*
%TO.P,J1,1,Pin_1*%
%TO.N,/Control*%
X114750000Y-105250000D03*
%TD*%
D11*
%TO.P,R6,1*%
%TO.N,/Control*%
X152020000Y-118080000D03*
D12*
%TO.P,R6,2*%
%TO.N,Net-(QL1-G)*%
X152020000Y-107920000D03*
%TD*%
D17*
%TO.P,J2,1,Pin_1*%
%TO.N,/9V*%
X114250000Y-117250000D03*
D18*
%TO.P,J2,2,Pin_2*%
%TO.N,/Ctrl_GND*%
X116790000Y-117250000D03*
%TD*%
D17*
%TO.P,Out1,1,Pin_1*%
%TO.N,/Signal_Gnd*%
X114500000Y-97290000D03*
D18*
%TO.P,Out1,2,Pin_2*%
%TO.N,/L_out*%
X114500000Y-94750000D03*
%TO.P,Out1,3,Pin_3*%
%TO.N,/R_out*%
X114500000Y-92210000D03*
%TD*%
D23*
%TO.N,/Ctrl_GND*%
X127750000Y-104500000D03*
%TO.N,/L_in*%
X130750000Y-87750000D03*
%TO.N,/R_send*%
X171500000Y-93750000D03*
%TD*%
D24*
%TO.N,Net-(D1-K)*%
X129500000Y-112775000D02*
X125775000Y-116500000D01*
X129500000Y-103250000D02*
X129500000Y-112775000D01*
X130770000Y-101980000D02*
X129500000Y-103250000D01*
X131750000Y-101980000D02*
X130770000Y-101980000D01*
%TO.N,Net-(QLED1-G)*%
X138750000Y-113750000D02*
X138750000Y-108170000D01*
X135500000Y-117000000D02*
X138750000Y-113750000D01*
X135500000Y-118330000D02*
X135500000Y-117000000D01*
%TO.N,Net-(D1-A)*%
X125065000Y-118330000D02*
X123235000Y-116500000D01*
X132250000Y-118330000D02*
X125065000Y-118330000D01*
%TO.N,/Control*%
X112250000Y-117750000D02*
X112250000Y-107750000D01*
X112250000Y-107750000D02*
X114750000Y-105250000D01*
X137500000Y-119580000D02*
X114080000Y-119580000D01*
X114080000Y-119580000D02*
X112250000Y-117750000D01*
X138750000Y-118330000D02*
X137500000Y-119580000D01*
X139750000Y-119330000D02*
X138750000Y-118330000D01*
X146750000Y-119330000D02*
X139750000Y-119330000D01*
X148000000Y-118080000D02*
X146750000Y-119330000D01*
X152020000Y-118080000D02*
X148000000Y-118080000D01*
%TO.N,Net-(QLED1-G)*%
X137420000Y-108170000D02*
X138750000Y-108170000D01*
X136250000Y-104750000D02*
X136250000Y-107000000D01*
X136250000Y-107000000D02*
X137420000Y-108170000D01*
X134750000Y-103250000D02*
X136250000Y-104750000D01*
X131750000Y-103250000D02*
X134750000Y-103250000D01*
%TO.N,/9V*%
X114250000Y-111250000D02*
X114250000Y-117250000D01*
X114250000Y-110500000D02*
X114250000Y-111250000D01*
X125195000Y-109040000D02*
X115710000Y-109040000D01*
X115710000Y-109040000D02*
X114250000Y-110500000D01*
%TO.N,/Ctrl_GND*%
X127750000Y-105500000D02*
X127750000Y-104500000D01*
X126750000Y-106500000D02*
X127750000Y-105500000D01*
X125195000Y-106500000D02*
X126750000Y-106500000D01*
%TO.N,Net-(QR1-G)*%
X144000000Y-107920000D02*
X148000000Y-107920000D01*
X144000000Y-103750000D02*
X144000000Y-107920000D01*
X143250000Y-103000000D02*
X144000000Y-103750000D01*
X139860000Y-103000000D02*
X143250000Y-103000000D01*
%TO.N,Net-(QL1-G)*%
X155520000Y-107920000D02*
X152020000Y-107920000D01*
X155520000Y-105270000D02*
X155520000Y-107920000D01*
X151500000Y-102770000D02*
X153020000Y-102770000D01*
X153020000Y-102770000D02*
X155520000Y-105270000D01*
%TO.N,Net-(QR1-D)*%
X139860000Y-98785000D02*
X139275000Y-98200000D01*
X139860000Y-101730000D02*
X139860000Y-98785000D01*
%TO.N,Net-(QL1-D)*%
X151512500Y-98107500D02*
X151512500Y-101487500D01*
X151512500Y-101487500D02*
X151500000Y-101500000D01*
%TO.N,/L_out*%
X143250000Y-92500000D02*
X149500000Y-92500000D01*
X119250000Y-93500000D02*
X142250000Y-93500000D01*
X142250000Y-93500000D02*
X143250000Y-92500000D01*
X118000000Y-94750000D02*
X119250000Y-93500000D01*
X114500000Y-94750000D02*
X118000000Y-94750000D01*
X149500000Y-92500000D02*
X151512500Y-90487500D01*
%TO.N,/R_out*%
X137645000Y-92210000D02*
X139275000Y-90580000D01*
X114500000Y-92210000D02*
X137645000Y-92210000D01*
%TO.N,/L_in*%
X127460000Y-84460000D02*
X130750000Y-87750000D01*
X114500000Y-84460000D02*
X127460000Y-84460000D01*
%TO.N,/R_in*%
X133750000Y-88485000D02*
X131655000Y-90580000D01*
X133750000Y-84500000D02*
X133750000Y-88485000D01*
X131170000Y-81920000D02*
X133750000Y-84500000D01*
X114500000Y-81920000D02*
X131170000Y-81920000D01*
%TO.N,/R_send*%
X171500000Y-87500000D02*
X171500000Y-93750000D01*
X150250000Y-84250000D02*
X155000000Y-84250000D01*
X155000000Y-84250000D02*
X168250000Y-84250000D01*
X148000000Y-82000000D02*
X150250000Y-84250000D01*
X168250000Y-84250000D02*
X171250000Y-87250000D01*
X147570000Y-81570000D02*
X148000000Y-82000000D01*
X171250000Y-87250000D02*
X171500000Y-87500000D01*
X132805000Y-81570000D02*
X147570000Y-81570000D01*
X131655000Y-80420000D02*
X132805000Y-81570000D01*
%TO.N,/L_Send*%
X172500000Y-98110000D02*
X169475000Y-101135000D01*
X169000000Y-83000000D02*
X172500000Y-86500000D01*
X149077500Y-80327500D02*
X151750000Y-83000000D01*
X151750000Y-83000000D02*
X169000000Y-83000000D01*
X143892500Y-80327500D02*
X149077500Y-80327500D01*
X172500000Y-86500000D02*
X172500000Y-98110000D01*
%TO.N,/L_Return*%
X169417500Y-80327500D02*
X169475000Y-80385000D01*
X151512500Y-80327500D02*
X169417500Y-80327500D01*
%TO.N,/R_Return*%
X173875000Y-78435000D02*
X141260000Y-78435000D01*
X141260000Y-78435000D02*
X139275000Y-80420000D01*
X175825000Y-80385000D02*
X173875000Y-78435000D01*
%TD*%
M02*
