M48
; DRILL file {KiCad 7.0.9} date Sat Jun  8 21:24:23 2024
; FORMAT={-:-/ absolute / inch / decimal}
; #@! TF.CreationDate,2024-06-08T21:24:23-04:00
; #@! TF.GenerationSoftware,Kicad,Pcbnew,7.0.9
; #@! TF.FileFunction,Plated,1,2,PTH
FMAT,2
INCH
; #@! TA.AperFunction,Plated,PTH,ViaDrill
T1C0.0157
; #@! TA.AperFunction,Plated,PTH,ComponentDrill
T2C0.0276
; #@! TA.AperFunction,Plated,PTH,ComponentDrill
T3C0.0295
; #@! TA.AperFunction,Plated,PTH,ComponentDrill
T4C0.0315
; #@! TA.AperFunction,Plated,PTH,ComponentDrill
T5C0.0354
; #@! TA.AperFunction,Plated,PTH,ComponentDrill
T6C0.0394
; #@! TA.AperFunction,Plated,PTH,ComponentDrill
T7C0.0433
; #@! TA.AperFunction,Plated,PTH,ComponentDrill
T8C0.0472
%
G90
G05
T1
X4.1535Y-0.8465
X4.1535Y-1.9488
X4.1535Y-3.0512
X4.239Y-0.8455
X4.239Y-1.9478
X4.239Y-3.0502
X4.626Y-0.8169
X4.626Y-1.9193
X4.626Y-3.0217
X4.7736Y-0.8465
X4.7736Y-1.9488
X4.7736Y-3.0512
X5.1575Y-1.0335
X5.1575Y-2.1358
X5.1575Y-3.2382
X6.6732Y-0.8465
X6.6732Y-1.9488
X6.6732Y-3.0512
X6.7586Y-0.8455
X6.7586Y-1.9478
X6.7586Y-3.0502
X7.1457Y-0.8169
X7.1457Y-1.9193
X7.1457Y-3.0217
X7.2933Y-0.8465
X7.2933Y-1.9488
X7.2933Y-3.0512
X7.6772Y-1.0335
X7.6772Y-2.1358
X7.6772Y-3.2382
T2
X4.2969Y-0.9479
X4.2969Y-1.1479
X4.2969Y-1.3479
X4.2969Y-1.6479
X4.2969Y-2.0503
X4.2969Y-2.2503
X4.2969Y-2.4503
X4.2969Y-2.7503
X4.2969Y-3.1527
X4.2969Y-3.3527
X4.2969Y-3.5527
X4.2969Y-3.8527
X4.5969Y-0.9479
X4.5969Y-1.1479
X4.5969Y-1.3479
X4.5969Y-1.6479
X4.5969Y-2.0503
X4.5969Y-2.2503
X4.5969Y-2.4503
X4.5969Y-2.7503
X4.5969Y-3.1527
X4.5969Y-3.3527
X4.5969Y-3.5527
X4.5969Y-3.8527
X4.7441Y-0.9479
X4.7441Y-1.1479
X4.7441Y-1.3479
X4.7441Y-1.6479
X4.7441Y-2.0503
X4.7441Y-2.2503
X4.7441Y-2.4503
X4.7441Y-2.7503
X4.7441Y-3.1527
X4.7441Y-3.3527
X4.7441Y-3.5527
X4.7441Y-3.8527
X5.0441Y-0.9479
X5.0441Y-1.1479
X5.0441Y-1.3479
X5.0441Y-1.6479
X5.0441Y-2.0503
X5.0441Y-2.2503
X5.0441Y-2.4503
X5.0441Y-2.7503
X5.0441Y-3.1527
X5.0441Y-3.3527
X5.0441Y-3.5527
X5.0441Y-3.8527
X6.8166Y-0.9479
X6.8166Y-1.1479
X6.8166Y-1.3479
X6.8166Y-1.6479
X6.8166Y-2.0503
X6.8166Y-2.2503
X6.8166Y-2.4503
X6.8166Y-2.7503
X6.8166Y-3.1527
X6.8166Y-3.3527
X6.8166Y-3.5527
X6.8166Y-3.8527
X7.1166Y-0.9479
X7.1166Y-1.1479
X7.1166Y-1.3479
X7.1166Y-1.6479
X7.1166Y-2.0503
X7.1166Y-2.2503
X7.1166Y-2.4503
X7.1166Y-2.7503
X7.1166Y-3.1527
X7.1166Y-3.3527
X7.1166Y-3.5527
X7.1166Y-3.8527
X7.2638Y-0.9479
X7.2638Y-1.1479
X7.2638Y-1.3479
X7.2638Y-1.6479
X7.2638Y-2.0503
X7.2638Y-2.2503
X7.2638Y-2.4503
X7.2638Y-2.7503
X7.2638Y-3.1527
X7.2638Y-3.3527
X7.2638Y-3.5527
X7.2638Y-3.8527
X7.5638Y-0.9479
X7.5638Y-1.1479
X7.5638Y-1.3479
X7.5638Y-1.6479
X7.5638Y-2.0503
X7.5638Y-2.2503
X7.5638Y-2.4503
X7.5638Y-2.7503
X7.5638Y-3.1527
X7.5638Y-3.3527
X7.5638Y-3.5527
X7.5638Y-3.8527
T3
X3.6854Y-1.2591
X3.6854Y-1.3091
X3.6854Y-1.3591
X3.6854Y-2.3614
X3.6854Y-2.4114
X3.6854Y-2.4614
X3.6854Y-3.4638
X3.6854Y-3.5138
X3.6854Y-3.5638
X6.2051Y-1.2591
X6.2051Y-1.3091
X6.2051Y-1.3591
X6.2051Y-2.3614
X6.2051Y-2.4114
X6.2051Y-2.4614
X6.2051Y-3.4638
X6.2051Y-3.5138
X6.2051Y-3.5638
T4
X3.8461Y-1.2008
X3.8461Y-1.3386
X3.8461Y-2.3031
X3.8461Y-2.4409
X3.8461Y-3.4055
X3.8461Y-3.5433
X3.8854Y-1.4862
X3.8854Y-2.5886
X3.8854Y-3.6909
X4.1461Y-1.2008
X4.1461Y-1.3386
X4.1461Y-2.3031
X4.1461Y-2.4409
X4.1461Y-3.4055
X4.1461Y-3.5433
X4.1854Y-1.4862
X4.1854Y-2.5886
X4.1854Y-3.6909
X6.3657Y-1.2008
X6.3657Y-1.3386
X6.3657Y-2.3031
X6.3657Y-2.4409
X6.3657Y-3.4055
X6.3657Y-3.5433
X6.4051Y-1.4862
X6.4051Y-2.5886
X6.4051Y-3.6909
X6.6657Y-1.2008
X6.6657Y-1.3386
X6.6657Y-2.3031
X6.6657Y-2.4409
X6.6657Y-3.4055
X6.6657Y-3.5433
X6.7051Y-1.4862
X6.7051Y-2.5886
X6.7051Y-3.6909
T5
X3.9774Y-0.9744
X3.9774Y-2.0768
X3.9774Y-3.1791
X4.0774Y-0.9744
X4.0774Y-2.0768
X4.0774Y-3.1791
X6.497Y-0.9744
X6.497Y-2.0768
X6.497Y-3.1791
X6.597Y-0.9744
X6.597Y-2.0768
X6.597Y-3.1791
T6
X3.4449Y-0.8661
X3.4449Y-0.9661
X3.4449Y-1.0661
X3.4449Y-1.9685
X3.4449Y-2.0685
X3.4449Y-2.1685
X3.4449Y-3.0709
X3.4449Y-3.1709
X3.4449Y-3.2709
X3.463Y-1.5551
X3.463Y-1.7126
X3.463Y-2.6575
X3.463Y-2.815
X3.463Y-3.7598
X3.463Y-3.9173
X3.4646Y-1.2992
X3.4646Y-2.4016
X3.4646Y-3.5039
X3.563Y-1.5551
X3.563Y-1.7126
X3.563Y-2.6575
X3.563Y-2.815
X3.563Y-3.7598
X3.563Y-3.9173
X3.6516Y-0.8661
X3.6516Y-0.9661
X3.6516Y-1.0661
X3.6516Y-1.9685
X3.6516Y-2.0685
X3.6516Y-2.1685
X3.6516Y-3.0709
X3.6516Y-3.1709
X3.6516Y-3.2709
X5.9646Y-0.8661
X5.9646Y-0.9661
X5.9646Y-1.0661
X5.9646Y-1.9685
X5.9646Y-2.0685
X5.9646Y-2.1685
X5.9646Y-3.0709
X5.9646Y-3.1709
X5.9646Y-3.2709
X5.9827Y-1.5551
X5.9827Y-1.7126
X5.9827Y-2.6575
X5.9827Y-2.815
X5.9827Y-3.7598
X5.9827Y-3.9173
X5.9843Y-1.2992
X5.9843Y-2.4016
X5.9843Y-3.5039
X6.0827Y-1.5551
X6.0827Y-1.7126
X6.0827Y-2.6575
X6.0827Y-2.815
X6.0827Y-3.7598
X6.0827Y-3.9173
X6.1713Y-0.8661
X6.1713Y-0.9661
X6.1713Y-1.0661
X6.1713Y-1.9685
X6.1713Y-2.0685
X6.1713Y-2.1685
X6.1713Y-3.0709
X6.1713Y-3.1709
X6.1713Y-3.2709
T7
X3.9142Y-1.6614
X3.9142Y-2.7638
X3.9142Y-3.8661
X4.0142Y-1.6614
X4.0142Y-2.7638
X4.0142Y-3.8661
X4.1142Y-1.6614
X4.1142Y-2.7638
X4.1142Y-3.8661
X6.4339Y-1.6614
X6.4339Y-2.7638
X6.4339Y-3.8661
X6.5339Y-1.6614
X6.5339Y-2.7638
X6.5339Y-3.8661
X6.6339Y-1.6614
X6.6339Y-2.7638
X6.6339Y-3.8661
T8
X5.2559Y-0.9843
X5.2559Y-2.0866
X5.2559Y-3.189
X5.2657Y-1.6378
X5.2657Y-2.7402
X5.2657Y-3.8425
X5.3937Y-0.9843
X5.3937Y-2.0866
X5.3937Y-3.189
X5.4035Y-1.6378
X5.4035Y-2.7402
X5.4035Y-3.8425
X5.5315Y-0.9843
X5.5315Y-2.0866
X5.5315Y-3.189
X5.5413Y-1.6378
X5.5413Y-2.7402
X5.5413Y-3.8425
X5.6693Y-0.9843
X5.6693Y-2.0866
X5.6693Y-3.189
X5.6791Y-1.6378
X5.6791Y-2.7402
X5.6791Y-3.8425
X7.7756Y-0.9843
X7.7756Y-2.0866
X7.7756Y-3.189
X7.7854Y-1.6378
X7.7854Y-2.7402
X7.7854Y-3.8425
X7.9134Y-0.9843
X7.9134Y-2.0866
X7.9134Y-3.189
X7.9232Y-1.6378
X7.9232Y-2.7402
X7.9232Y-3.8425
X8.0512Y-0.9843
X8.0512Y-2.0866
X8.0512Y-3.189
X8.061Y-1.6378
X8.061Y-2.7402
X8.061Y-3.8425
X8.189Y-0.9843
X8.189Y-2.0866
X8.189Y-3.189
X8.1988Y-1.6378
X8.1988Y-2.7402
X8.1988Y-3.8425
T0
M30
