%TF.GenerationSoftware,KiCad,Pcbnew,7.0.9*%
%TF.CreationDate,2024-06-08T21:24:25-04:00*%
%TF.ProjectId,Jackless-Panel,4a61636b-6c65-4737-932d-50616e656c2e,rev?*%
%TF.SameCoordinates,Original*%
%TF.FileFunction,Soldermask,Bot*%
%TF.FilePolarity,Negative*%
%FSLAX46Y46*%
G04 Gerber Fmt 4.6, Leading zero omitted, Abs format (unit mm)*
G04 Created by KiCad (PCBNEW 7.0.9) date 2024-06-08 21:24:25*
%MOMM*%
%LPD*%
G01*
G04 APERTURE LIST*
%ADD10C,0.500000*%
%ADD11R,1.800000X1.800000*%
%ADD12C,1.800000*%
%ADD13R,1.700000X1.700000*%
%ADD14O,1.700000X1.700000*%
%ADD15R,1.500000X1.050000*%
%ADD16O,1.500000X1.050000*%
%ADD17R,1.400000X1.400000*%
%ADD18C,1.400000*%
%ADD19C,1.600000*%
%ADD20O,1.600000X1.600000*%
%ADD21R,2.400000X2.400000*%
%ADD22C,2.400000*%
%ADD23R,1.905000X2.000000*%
%ADD24O,1.905000X2.000000*%
G04 APERTURE END LIST*
D10*
%TO.C,KiKit_MB_27_4*%
X149500000Y-55166666D03*
%TD*%
%TO.C,KiKit_MB_21_1*%
X135666666Y-48000000D03*
%TD*%
%TO.C,KiKit_MB_27_3*%
X149500000Y-56166666D03*
%TD*%
%TO.C,KiKit_MB_36_1*%
X182000000Y-74000000D03*
%TD*%
%TO.C,KiKit_MB_40_2*%
X147500000Y-92833333D03*
%TD*%
D11*
%TO.C,D1*%
X101025000Y-52750000D03*
D12*
X103565000Y-52750000D03*
%TD*%
D10*
%TO.C,KiKit_MB_3_4*%
X94333334Y-46000000D03*
%TD*%
%TO.C,KiKit_MB_23_4*%
X104666667Y-74000000D03*
%TD*%
D13*
%TO.C,Out1*%
X156750000Y-83080000D03*
D14*
X156750000Y-80540000D03*
X156750000Y-78000000D03*
%TD*%
D15*
%TO.C,QL1*%
X157610000Y-62520000D03*
D16*
X157610000Y-61250000D03*
X157610000Y-59980000D03*
%TD*%
D13*
%TO.C,J1*%
X88000000Y-33000000D03*
%TD*%
D10*
%TO.C,KiKit_MB_42_1*%
X104666667Y-76000000D03*
%TD*%
D13*
%TO.C,J3*%
X90500000Y-39500000D03*
D14*
X87960000Y-39500000D03*
%TD*%
D17*
%TO.C,Left/Mono1*%
X192120000Y-41857500D03*
D18*
X192120000Y-34237500D03*
X192120000Y-29157500D03*
X192120000Y-24077500D03*
X184500000Y-24077500D03*
X184500000Y-29157500D03*
X184500000Y-34237500D03*
X184500000Y-41857500D03*
%TD*%
D11*
%TO.C,D1*%
X101025000Y-80750000D03*
D12*
X103565000Y-80750000D03*
%TD*%
D10*
%TO.C,KiKit_MB_3_1*%
X97333334Y-46000000D03*
%TD*%
D19*
%TO.C,LGate1*%
X97690000Y-30500000D03*
D20*
X105310000Y-30500000D03*
%TD*%
D10*
%TO.C,KiKit_MB_29_1*%
X158333333Y-48000000D03*
%TD*%
%TO.C,KiKit_MB_15_2*%
X147500000Y-56166666D03*
%TD*%
%TO.C,KiKit_MB_16_1*%
X147500000Y-63833333D03*
%TD*%
%TO.C,KiKit_MB_10_1*%
X161333333Y-46000000D03*
%TD*%
%TO.C,KiKit_MB_28_3*%
X149500000Y-64833333D03*
%TD*%
%TO.C,KiKit_MB_8_3*%
X149500000Y-28166667D03*
%TD*%
%TO.C,KiKit_MB_40_1*%
X147500000Y-91833333D03*
%TD*%
%TO.C,KiKit_MB_8_4*%
X149500000Y-27166667D03*
%TD*%
%TO.C,KiKit_MB_45_3*%
X137666666Y-76000000D03*
%TD*%
D17*
%TO.C,Left/Mono1*%
X128120000Y-97857500D03*
D18*
X128120000Y-90237500D03*
X128120000Y-85157500D03*
X128120000Y-80077500D03*
X120500000Y-80077500D03*
X120500000Y-85157500D03*
X120500000Y-90237500D03*
X120500000Y-97857500D03*
%TD*%
D10*
%TO.C,KiKit_MB_19_2*%
X116000000Y-48000000D03*
%TD*%
%TO.C,KiKit_MB_22_2*%
X96333334Y-74000000D03*
%TD*%
%TO.C,KiKit_MB_37_2*%
X191333333Y-74000000D03*
%TD*%
%TO.C,KiKit_MB_43_3*%
X117000000Y-76000000D03*
%TD*%
%TO.C,KiKit_MB_33_1*%
X199666666Y-48000000D03*
%TD*%
%TO.C,KiKit_MB_25_2*%
X127333333Y-74000000D03*
%TD*%
%TO.C,KiKit_MB_48_1*%
X158333333Y-76000000D03*
%TD*%
%TO.C,KiKit_MB_38_1*%
X202666666Y-74000000D03*
%TD*%
%TO.C,KiKit_MB_28_4*%
X149500000Y-63833333D03*
%TD*%
D19*
%TO.C,LeftPD1*%
X169310000Y-90000000D03*
D20*
X161690000Y-90000000D03*
%TD*%
D17*
%TO.C,Left/Mono1*%
X128120000Y-69857500D03*
D18*
X128120000Y-62237500D03*
X128120000Y-57157500D03*
X128120000Y-52077500D03*
X120500000Y-52077500D03*
X120500000Y-57157500D03*
X120500000Y-62237500D03*
X120500000Y-69857500D03*
%TD*%
D10*
%TO.C,KiKit_MB_9_2*%
X149500000Y-37833333D03*
%TD*%
%TO.C,KiKit_MB_34_3*%
X159333333Y-74000000D03*
%TD*%
%TO.C,KiKit_MB_9_3*%
X149500000Y-36833333D03*
%TD*%
%TO.C,KiKit_MB_4_1*%
X107666667Y-46000000D03*
%TD*%
D11*
%TO.C,D1*%
X165025000Y-80750000D03*
D12*
X167565000Y-80750000D03*
%TD*%
D19*
%TO.C,LGate1*%
X161690000Y-30500000D03*
D20*
X169310000Y-30500000D03*
%TD*%
D10*
%TO.C,KiKit_MB_29_2*%
X159333333Y-48000000D03*
%TD*%
%TO.C,KiKit_MB_17_3*%
X96333334Y-48000000D03*
%TD*%
%TO.C,KiKit_MB_32_1*%
X189333333Y-48000000D03*
%TD*%
D21*
%TO.C,J5*%
X133500000Y-25000000D03*
D22*
X137000000Y-25000000D03*
X140500000Y-25000000D03*
X144000000Y-25000000D03*
%TD*%
D10*
%TO.C,KiKit_MB_15_4*%
X147500000Y-58166666D03*
%TD*%
%TO.C,KiKit_MB_41_1*%
X94333334Y-76000000D03*
%TD*%
%TO.C,KiKit_MB_4_4*%
X104666667Y-46000000D03*
%TD*%
%TO.C,KiKit_MB_41_4*%
X97333334Y-76000000D03*
%TD*%
%TO.C,KiKit_MB_18_3*%
X106666667Y-48000000D03*
%TD*%
%TO.C,KiKit_MB_18_2*%
X105666667Y-48000000D03*
%TD*%
D19*
%TO.C,LeftPD1*%
X105310000Y-62000000D03*
D20*
X97690000Y-62000000D03*
%TD*%
D10*
%TO.C,KiKit_MB_7_2*%
X137666666Y-46000000D03*
%TD*%
%TO.C,KiKit_MB_25_4*%
X125333333Y-74000000D03*
%TD*%
%TO.C,KiKit_MB_49_1*%
X168666666Y-76000000D03*
%TD*%
%TO.C,KiKit_MB_19_3*%
X117000000Y-48000000D03*
%TD*%
D19*
%TO.C,RLed1*%
X98690000Y-93750000D03*
D20*
X106310000Y-93750000D03*
%TD*%
D10*
%TO.C,KiKit_MB_44_1*%
X125333333Y-76000000D03*
%TD*%
D19*
%TO.C,LeftPD1*%
X105310000Y-34000000D03*
D20*
X97690000Y-34000000D03*
%TD*%
D10*
%TO.C,KiKit_MB_9_1*%
X149500000Y-38833333D03*
%TD*%
%TO.C,KiKit_MB_46_3*%
X149500000Y-84166666D03*
%TD*%
%TO.C,KiKit_MB_39_2*%
X147500000Y-84166666D03*
%TD*%
%TO.C,KiKit_MB_39_1*%
X147500000Y-83166666D03*
%TD*%
D17*
%TO.C,Right1*%
X180762500Y-41857500D03*
D18*
X180762500Y-34237500D03*
X180762500Y-29157500D03*
X180762500Y-24077500D03*
X173142500Y-24077500D03*
X173142500Y-29157500D03*
X173142500Y-34237500D03*
X173142500Y-41857500D03*
%TD*%
D10*
%TO.C,KiKit_MB_6_1*%
X128333333Y-46000000D03*
%TD*%
D19*
%TO.C,RLed1*%
X98690000Y-65750000D03*
D20*
X106310000Y-65750000D03*
%TD*%
D10*
%TO.C,KiKit_MB_11_2*%
X170666666Y-46000000D03*
%TD*%
%TO.C,KiKit_MB_46_2*%
X149500000Y-85166666D03*
%TD*%
%TO.C,KiKit_MB_49_2*%
X169666666Y-76000000D03*
%TD*%
%TO.C,KiKit_MB_31_3*%
X181000000Y-48000000D03*
%TD*%
%TO.C,KiKit_MB_52_1*%
X199666666Y-76000000D03*
%TD*%
D13*
%TO.C,In1*%
X87500000Y-55080000D03*
D14*
X87500000Y-52540000D03*
X87500000Y-50000000D03*
%TD*%
D10*
%TO.C,KiKit_MB_2_3*%
X147500000Y-37833333D03*
%TD*%
D13*
%TO.C,In1*%
X151500000Y-55080000D03*
D14*
X151500000Y-52540000D03*
X151500000Y-50000000D03*
%TD*%
D13*
%TO.C,J1*%
X152000000Y-89000000D03*
%TD*%
D17*
%TO.C,Left/Mono1*%
X192120000Y-69857500D03*
D18*
X192120000Y-62237500D03*
X192120000Y-57157500D03*
X192120000Y-52077500D03*
X184500000Y-52077500D03*
X184500000Y-57157500D03*
X184500000Y-62237500D03*
X184500000Y-69857500D03*
%TD*%
D10*
%TO.C,KiKit_MB_38_4*%
X199666666Y-74000000D03*
%TD*%
D21*
%TO.C,J5*%
X197500000Y-81000000D03*
D22*
X201000000Y-81000000D03*
X204500000Y-81000000D03*
X208000000Y-81000000D03*
%TD*%
D10*
%TO.C,KiKit_MB_41_3*%
X96333334Y-76000000D03*
%TD*%
%TO.C,KiKit_MB_36_3*%
X180000000Y-74000000D03*
%TD*%
D13*
%TO.C,In1*%
X87500000Y-83080000D03*
D14*
X87500000Y-80540000D03*
X87500000Y-78000000D03*
%TD*%
D19*
%TO.C,LGate1*%
X97690000Y-86500000D03*
D20*
X105310000Y-86500000D03*
%TD*%
D10*
%TO.C,KiKit_MB_18_1*%
X104666667Y-48000000D03*
%TD*%
%TO.C,KiKit_MB_37_4*%
X189333333Y-74000000D03*
%TD*%
%TO.C,KiKit_MB_16_2*%
X147500000Y-64833333D03*
%TD*%
%TO.C,KiKit_MB_21_3*%
X137666666Y-48000000D03*
%TD*%
%TO.C,KiKit_MB_7_4*%
X135666666Y-46000000D03*
%TD*%
%TO.C,KiKit_MB_9_4*%
X149500000Y-35833333D03*
%TD*%
D17*
%TO.C,Left/Mono1*%
X192120000Y-97857500D03*
D18*
X192120000Y-90237500D03*
X192120000Y-85157500D03*
X192120000Y-80077500D03*
X184500000Y-80077500D03*
X184500000Y-85157500D03*
X184500000Y-90237500D03*
X184500000Y-97857500D03*
%TD*%
D19*
%TO.C,RLed1*%
X98690000Y-37750000D03*
D20*
X106310000Y-37750000D03*
%TD*%
D21*
%TO.C,J5*%
X133500000Y-53000000D03*
D22*
X137000000Y-53000000D03*
X140500000Y-53000000D03*
X144000000Y-53000000D03*
%TD*%
D19*
%TO.C,LeftPD1*%
X169310000Y-34000000D03*
D20*
X161690000Y-34000000D03*
%TD*%
D10*
%TO.C,KiKit_MB_33_2*%
X200666666Y-48000000D03*
%TD*%
%TO.C,KiKit_MB_45_1*%
X135666666Y-76000000D03*
%TD*%
D13*
%TO.C,J2*%
X90500000Y-99500000D03*
D14*
X87960000Y-99500000D03*
%TD*%
D19*
%TO.C,RLed1*%
X162690000Y-37750000D03*
D20*
X170310000Y-37750000D03*
%TD*%
D10*
%TO.C,KiKit_MB_42_3*%
X106666667Y-76000000D03*
%TD*%
%TO.C,KiKit_MB_46_1*%
X149500000Y-86166666D03*
%TD*%
D13*
%TO.C,Out1*%
X92750000Y-27080000D03*
D14*
X92750000Y-24540000D03*
X92750000Y-22000000D03*
%TD*%
D13*
%TO.C,J1*%
X152000000Y-61000000D03*
%TD*%
D10*
%TO.C,KiKit_MB_50_2*%
X180000000Y-76000000D03*
%TD*%
%TO.C,KiKit_MB_24_2*%
X117000000Y-74000000D03*
%TD*%
%TO.C,KiKit_MB_5_2*%
X117000000Y-46000000D03*
%TD*%
%TO.C,KiKit_MB_42_4*%
X107666667Y-76000000D03*
%TD*%
D11*
%TO.C,D1*%
X165025000Y-52750000D03*
D12*
X167565000Y-52750000D03*
%TD*%
D10*
%TO.C,KiKit_MB_29_3*%
X160333333Y-48000000D03*
%TD*%
%TO.C,KiKit_MB_27_1*%
X149500000Y-58166666D03*
%TD*%
%TO.C,KiKit_MB_52_2*%
X200666666Y-76000000D03*
%TD*%
D21*
%TO.C,J4*%
X144250000Y-97600000D03*
D22*
X140750000Y-97600000D03*
X137250000Y-97600000D03*
X133750000Y-97600000D03*
%TD*%
D13*
%TO.C,Out1*%
X92750000Y-83080000D03*
D14*
X92750000Y-80540000D03*
X92750000Y-78000000D03*
%TD*%
D17*
%TO.C,Right1*%
X116762500Y-97857500D03*
D18*
X116762500Y-90237500D03*
X116762500Y-85157500D03*
X116762500Y-80077500D03*
X109142500Y-80077500D03*
X109142500Y-85157500D03*
X109142500Y-90237500D03*
X109142500Y-97857500D03*
%TD*%
D10*
%TO.C,KiKit_MB_38_2*%
X201666666Y-74000000D03*
%TD*%
%TO.C,KiKit_MB_15_3*%
X147500000Y-57166666D03*
%TD*%
%TO.C,KiKit_MB_5_1*%
X118000000Y-46000000D03*
%TD*%
%TO.C,KiKit_MB_47_4*%
X149500000Y-91833333D03*
%TD*%
%TO.C,KiKit_MB_13_1*%
X192333333Y-46000000D03*
%TD*%
%TO.C,KiKit_MB_35_4*%
X168666666Y-74000000D03*
%TD*%
%TO.C,KiKit_MB_10_3*%
X159333333Y-46000000D03*
%TD*%
%TO.C,KiKit_MB_50_3*%
X181000000Y-76000000D03*
%TD*%
D19*
%TO.C,LeftPD1*%
X169310000Y-62000000D03*
D20*
X161690000Y-62000000D03*
%TD*%
D10*
%TO.C,KiKit_MB_28_2*%
X149500000Y-65833333D03*
%TD*%
%TO.C,KiKit_MB_27_2*%
X149500000Y-57166666D03*
%TD*%
%TO.C,KiKit_MB_44_3*%
X127333333Y-76000000D03*
%TD*%
%TO.C,KiKit_MB_24_4*%
X115000000Y-74000000D03*
%TD*%
D13*
%TO.C,Out1*%
X156750000Y-27080000D03*
D14*
X156750000Y-24540000D03*
X156750000Y-22000000D03*
%TD*%
D10*
%TO.C,KiKit_MB_29_4*%
X161333333Y-48000000D03*
%TD*%
D13*
%TO.C,Out1*%
X156750000Y-55080000D03*
D14*
X156750000Y-52540000D03*
X156750000Y-50000000D03*
%TD*%
D10*
%TO.C,KiKit_MB_21_2*%
X136666666Y-48000000D03*
%TD*%
D13*
%TO.C,J2*%
X90500000Y-71500000D03*
D14*
X87960000Y-71500000D03*
%TD*%
D10*
%TO.C,KiKit_MB_34_4*%
X158333333Y-74000000D03*
%TD*%
%TO.C,KiKit_MB_6_2*%
X127333333Y-46000000D03*
%TD*%
D13*
%TO.C,J3*%
X90500000Y-95500000D03*
D14*
X87960000Y-95500000D03*
%TD*%
D10*
%TO.C,KiKit_MB_39_3*%
X147500000Y-85166666D03*
%TD*%
%TO.C,KiKit_MB_8_2*%
X149500000Y-29166667D03*
%TD*%
%TO.C,KiKit_MB_45_2*%
X136666666Y-76000000D03*
%TD*%
%TO.C,KiKit_MB_43_4*%
X118000000Y-76000000D03*
%TD*%
%TO.C,KiKit_MB_32_2*%
X190333333Y-48000000D03*
%TD*%
%TO.C,KiKit_MB_1_3*%
X147500000Y-29166667D03*
%TD*%
D13*
%TO.C,Out1*%
X92750000Y-55080000D03*
D14*
X92750000Y-52540000D03*
X92750000Y-50000000D03*
%TD*%
D13*
%TO.C,In1*%
X151500000Y-83080000D03*
D14*
X151500000Y-80540000D03*
X151500000Y-78000000D03*
%TD*%
D10*
%TO.C,KiKit_MB_35_1*%
X171666666Y-74000000D03*
%TD*%
%TO.C,KiKit_MB_35_3*%
X169666666Y-74000000D03*
%TD*%
D13*
%TO.C,J1*%
X88000000Y-61000000D03*
%TD*%
D10*
%TO.C,KiKit_MB_48_2*%
X159333333Y-76000000D03*
%TD*%
%TO.C,KiKit_MB_44_2*%
X126333333Y-76000000D03*
%TD*%
%TO.C,KiKit_MB_22_1*%
X97333334Y-74000000D03*
%TD*%
D21*
%TO.C,J4*%
X144250000Y-69600000D03*
D22*
X140750000Y-69600000D03*
X137250000Y-69600000D03*
X133750000Y-69600000D03*
%TD*%
D13*
%TO.C,J2*%
X154500000Y-99500000D03*
D14*
X151960000Y-99500000D03*
%TD*%
D10*
%TO.C,KiKit_MB_40_3*%
X147500000Y-93833333D03*
%TD*%
%TO.C,KiKit_MB_48_4*%
X161333333Y-76000000D03*
%TD*%
%TO.C,KiKit_MB_47_2*%
X149500000Y-93833333D03*
%TD*%
%TO.C,KiKit_MB_23_3*%
X105666667Y-74000000D03*
%TD*%
%TO.C,KiKit_MB_2_1*%
X147500000Y-35833333D03*
%TD*%
%TO.C,KiKit_MB_30_1*%
X168666666Y-48000000D03*
%TD*%
%TO.C,KiKit_MB_36_4*%
X179000000Y-74000000D03*
%TD*%
%TO.C,KiKit_MB_11_1*%
X171666666Y-46000000D03*
%TD*%
%TO.C,KiKit_MB_20_2*%
X126333333Y-48000000D03*
%TD*%
%TO.C,KiKit_MB_3_2*%
X96333334Y-46000000D03*
%TD*%
%TO.C,KiKit_MB_14_1*%
X202666666Y-46000000D03*
%TD*%
%TO.C,KiKit_MB_26_1*%
X138666666Y-74000000D03*
%TD*%
%TO.C,KiKit_MB_23_2*%
X106666667Y-74000000D03*
%TD*%
%TO.C,KiKit_MB_8_1*%
X149500000Y-30166667D03*
%TD*%
%TO.C,KiKit_MB_14_4*%
X199666666Y-46000000D03*
%TD*%
D13*
%TO.C,In1*%
X151500000Y-27080000D03*
D14*
X151500000Y-24540000D03*
X151500000Y-22000000D03*
%TD*%
D10*
%TO.C,KiKit_MB_51_3*%
X191333333Y-76000000D03*
%TD*%
D13*
%TO.C,J3*%
X154500000Y-67500000D03*
D14*
X151960000Y-67500000D03*
%TD*%
D10*
%TO.C,KiKit_MB_5_4*%
X115000000Y-46000000D03*
%TD*%
%TO.C,KiKit_MB_5_3*%
X116000000Y-46000000D03*
%TD*%
%TO.C,KiKit_MB_7_3*%
X136666666Y-46000000D03*
%TD*%
%TO.C,KiKit_MB_38_3*%
X200666666Y-74000000D03*
%TD*%
%TO.C,KiKit_MB_30_2*%
X169666666Y-48000000D03*
%TD*%
D19*
%TO.C,LGate1*%
X161690000Y-58500000D03*
D20*
X169310000Y-58500000D03*
%TD*%
D10*
%TO.C,KiKit_MB_13_4*%
X189333333Y-46000000D03*
%TD*%
%TO.C,KiKit_MB_17_1*%
X94333334Y-48000000D03*
%TD*%
D23*
%TO.C,U1*%
X168500000Y-70200000D03*
D24*
X165960000Y-70200000D03*
X163420000Y-70200000D03*
%TD*%
D21*
%TO.C,J5*%
X197500000Y-25000000D03*
D22*
X201000000Y-25000000D03*
X204500000Y-25000000D03*
X208000000Y-25000000D03*
%TD*%
D13*
%TO.C,J1*%
X88000000Y-89000000D03*
%TD*%
D15*
%TO.C,QL1*%
X157610000Y-90520000D03*
D16*
X157610000Y-89250000D03*
X157610000Y-87980000D03*
%TD*%
D10*
%TO.C,KiKit_MB_30_4*%
X171666666Y-48000000D03*
%TD*%
D23*
%TO.C,U1*%
X168500000Y-98200000D03*
D24*
X165960000Y-98200000D03*
X163420000Y-98200000D03*
%TD*%
D10*
%TO.C,KiKit_MB_31_4*%
X182000000Y-48000000D03*
%TD*%
%TO.C,KiKit_MB_16_3*%
X147500000Y-65833333D03*
%TD*%
%TO.C,KiKit_MB_46_4*%
X149500000Y-83166666D03*
%TD*%
D15*
%TO.C,QL1*%
X93610000Y-90520000D03*
D16*
X93610000Y-89250000D03*
X93610000Y-87980000D03*
%TD*%
D10*
%TO.C,KiKit_MB_20_1*%
X125333333Y-48000000D03*
%TD*%
%TO.C,KiKit_MB_11_4*%
X168666666Y-46000000D03*
%TD*%
%TO.C,KiKit_MB_45_4*%
X138666666Y-76000000D03*
%TD*%
%TO.C,KiKit_MB_7_1*%
X138666666Y-46000000D03*
%TD*%
%TO.C,KiKit_MB_3_3*%
X95333334Y-46000000D03*
%TD*%
%TO.C,KiKit_MB_24_3*%
X116000000Y-74000000D03*
%TD*%
D13*
%TO.C,J2*%
X90500000Y-43500000D03*
D14*
X87960000Y-43500000D03*
%TD*%
D17*
%TO.C,Right1*%
X180762500Y-69857500D03*
D18*
X180762500Y-62237500D03*
X180762500Y-57157500D03*
X180762500Y-52077500D03*
X173142500Y-52077500D03*
X173142500Y-57157500D03*
X173142500Y-62237500D03*
X173142500Y-69857500D03*
%TD*%
D10*
%TO.C,KiKit_MB_44_4*%
X128333333Y-76000000D03*
%TD*%
%TO.C,KiKit_MB_15_1*%
X147500000Y-55166666D03*
%TD*%
%TO.C,KiKit_MB_47_1*%
X149500000Y-94833333D03*
%TD*%
D11*
%TO.C,D1*%
X165025000Y-24750000D03*
D12*
X167565000Y-24750000D03*
%TD*%
D19*
%TO.C,LGate1*%
X161690000Y-86500000D03*
D20*
X169310000Y-86500000D03*
%TD*%
D10*
%TO.C,KiKit_MB_13_2*%
X191333333Y-46000000D03*
%TD*%
%TO.C,KiKit_MB_50_4*%
X182000000Y-76000000D03*
%TD*%
D21*
%TO.C,J5*%
X197500000Y-53000000D03*
D22*
X201000000Y-53000000D03*
X204500000Y-53000000D03*
X208000000Y-53000000D03*
%TD*%
D10*
%TO.C,KiKit_MB_47_3*%
X149500000Y-92833333D03*
%TD*%
D23*
%TO.C,U1*%
X104500000Y-42200000D03*
D24*
X101960000Y-42200000D03*
X99420000Y-42200000D03*
%TD*%
D10*
%TO.C,KiKit_MB_1_4*%
X147500000Y-30166667D03*
%TD*%
%TO.C,KiKit_MB_6_4*%
X125333333Y-46000000D03*
%TD*%
D11*
%TO.C,D1*%
X101025000Y-24750000D03*
D12*
X103565000Y-24750000D03*
%TD*%
D10*
%TO.C,KiKit_MB_43_2*%
X116000000Y-76000000D03*
%TD*%
%TO.C,KiKit_MB_10_2*%
X160333333Y-46000000D03*
%TD*%
%TO.C,KiKit_MB_34_1*%
X161333333Y-74000000D03*
%TD*%
%TO.C,KiKit_MB_6_3*%
X126333333Y-46000000D03*
%TD*%
%TO.C,KiKit_MB_20_3*%
X127333333Y-48000000D03*
%TD*%
D23*
%TO.C,U1*%
X104500000Y-70200000D03*
D24*
X101960000Y-70200000D03*
X99420000Y-70200000D03*
%TD*%
D10*
%TO.C,KiKit_MB_49_4*%
X171666666Y-76000000D03*
%TD*%
%TO.C,KiKit_MB_4_3*%
X105666667Y-46000000D03*
%TD*%
D19*
%TO.C,LeftPD1*%
X105310000Y-90000000D03*
D20*
X97690000Y-90000000D03*
%TD*%
D10*
%TO.C,KiKit_MB_26_2*%
X137666666Y-74000000D03*
%TD*%
%TO.C,KiKit_MB_37_1*%
X192333333Y-74000000D03*
%TD*%
%TO.C,KiKit_MB_33_4*%
X202666666Y-48000000D03*
%TD*%
%TO.C,KiKit_MB_25_1*%
X128333333Y-74000000D03*
%TD*%
%TO.C,KiKit_MB_17_2*%
X95333334Y-48000000D03*
%TD*%
%TO.C,KiKit_MB_22_3*%
X95333334Y-74000000D03*
%TD*%
D21*
%TO.C,J4*%
X208250000Y-41600000D03*
D22*
X204750000Y-41600000D03*
X201250000Y-41600000D03*
X197750000Y-41600000D03*
%TD*%
D10*
%TO.C,KiKit_MB_50_1*%
X179000000Y-76000000D03*
%TD*%
D19*
%TO.C,RLed1*%
X162690000Y-93750000D03*
D20*
X170310000Y-93750000D03*
%TD*%
D10*
%TO.C,KiKit_MB_14_2*%
X201666666Y-46000000D03*
%TD*%
D15*
%TO.C,QL1*%
X157610000Y-34520000D03*
D16*
X157610000Y-33250000D03*
X157610000Y-31980000D03*
%TD*%
D10*
%TO.C,KiKit_MB_1_1*%
X147500000Y-27166667D03*
%TD*%
%TO.C,KiKit_MB_13_3*%
X190333333Y-46000000D03*
%TD*%
D21*
%TO.C,J4*%
X208250000Y-69600000D03*
D22*
X204750000Y-69600000D03*
X201250000Y-69600000D03*
X197750000Y-69600000D03*
%TD*%
D10*
%TO.C,KiKit_MB_39_4*%
X147500000Y-86166666D03*
%TD*%
%TO.C,KiKit_MB_17_4*%
X97333334Y-48000000D03*
%TD*%
%TO.C,KiKit_MB_32_3*%
X191333333Y-48000000D03*
%TD*%
%TO.C,KiKit_MB_48_3*%
X160333333Y-76000000D03*
%TD*%
%TO.C,KiKit_MB_40_4*%
X147500000Y-94833333D03*
%TD*%
%TO.C,KiKit_MB_19_1*%
X115000000Y-48000000D03*
%TD*%
%TO.C,KiKit_MB_28_1*%
X149500000Y-66833333D03*
%TD*%
%TO.C,KiKit_MB_26_4*%
X135666666Y-74000000D03*
%TD*%
%TO.C,KiKit_MB_43_1*%
X115000000Y-76000000D03*
%TD*%
%TO.C,KiKit_MB_24_1*%
X118000000Y-74000000D03*
%TD*%
D21*
%TO.C,J4*%
X144250000Y-41600000D03*
D22*
X140750000Y-41600000D03*
X137250000Y-41600000D03*
X133750000Y-41600000D03*
%TD*%
D10*
%TO.C,KiKit_MB_1_2*%
X147500000Y-28166667D03*
%TD*%
%TO.C,KiKit_MB_26_3*%
X136666666Y-74000000D03*
%TD*%
D19*
%TO.C,RLed1*%
X162690000Y-65750000D03*
D20*
X170310000Y-65750000D03*
%TD*%
D10*
%TO.C,KiKit_MB_20_4*%
X128333333Y-48000000D03*
%TD*%
D23*
%TO.C,U1*%
X104500000Y-98200000D03*
D24*
X101960000Y-98200000D03*
X99420000Y-98200000D03*
%TD*%
D13*
%TO.C,In1*%
X87500000Y-27080000D03*
D14*
X87500000Y-24540000D03*
X87500000Y-22000000D03*
%TD*%
D10*
%TO.C,KiKit_MB_36_2*%
X181000000Y-74000000D03*
%TD*%
%TO.C,KiKit_MB_10_4*%
X158333333Y-46000000D03*
%TD*%
D13*
%TO.C,J3*%
X154500000Y-39500000D03*
D14*
X151960000Y-39500000D03*
%TD*%
D10*
%TO.C,KiKit_MB_31_1*%
X179000000Y-48000000D03*
%TD*%
%TO.C,KiKit_MB_32_4*%
X192333333Y-48000000D03*
%TD*%
%TO.C,KiKit_MB_2_2*%
X147500000Y-36833333D03*
%TD*%
%TO.C,KiKit_MB_25_3*%
X126333333Y-74000000D03*
%TD*%
%TO.C,KiKit_MB_49_3*%
X170666666Y-76000000D03*
%TD*%
%TO.C,KiKit_MB_22_4*%
X94333334Y-74000000D03*
%TD*%
%TO.C,KiKit_MB_31_2*%
X180000000Y-48000000D03*
%TD*%
%TO.C,KiKit_MB_11_3*%
X169666666Y-46000000D03*
%TD*%
%TO.C,KiKit_MB_52_4*%
X202666666Y-76000000D03*
%TD*%
%TO.C,KiKit_MB_42_2*%
X105666667Y-76000000D03*
%TD*%
%TO.C,KiKit_MB_4_2*%
X106666667Y-46000000D03*
%TD*%
%TO.C,KiKit_MB_16_4*%
X147500000Y-66833333D03*
%TD*%
D17*
%TO.C,Right1*%
X116762500Y-69857500D03*
D18*
X116762500Y-62237500D03*
X116762500Y-57157500D03*
X116762500Y-52077500D03*
X109142500Y-52077500D03*
X109142500Y-57157500D03*
X109142500Y-62237500D03*
X109142500Y-69857500D03*
%TD*%
D21*
%TO.C,J4*%
X208250000Y-97600000D03*
D22*
X204750000Y-97600000D03*
X201250000Y-97600000D03*
X197750000Y-97600000D03*
%TD*%
D10*
%TO.C,KiKit_MB_18_4*%
X107666667Y-48000000D03*
%TD*%
D15*
%TO.C,QL1*%
X93610000Y-62520000D03*
D16*
X93610000Y-61250000D03*
X93610000Y-59980000D03*
%TD*%
D13*
%TO.C,J2*%
X154500000Y-71500000D03*
D14*
X151960000Y-71500000D03*
%TD*%
D10*
%TO.C,KiKit_MB_12_4*%
X179000000Y-46000000D03*
%TD*%
D13*
%TO.C,J3*%
X90500000Y-67500000D03*
D14*
X87960000Y-67500000D03*
%TD*%
D17*
%TO.C,Right1*%
X116762500Y-41857500D03*
D18*
X116762500Y-34237500D03*
X116762500Y-29157500D03*
X116762500Y-24077500D03*
X109142500Y-24077500D03*
X109142500Y-29157500D03*
X109142500Y-34237500D03*
X109142500Y-41857500D03*
%TD*%
D10*
%TO.C,KiKit_MB_23_1*%
X107666667Y-74000000D03*
%TD*%
D23*
%TO.C,U1*%
X168500000Y-42200000D03*
D24*
X165960000Y-42200000D03*
X163420000Y-42200000D03*
%TD*%
D10*
%TO.C,KiKit_MB_37_3*%
X190333333Y-74000000D03*
%TD*%
%TO.C,KiKit_MB_30_3*%
X170666666Y-48000000D03*
%TD*%
%TO.C,KiKit_MB_21_4*%
X138666666Y-48000000D03*
%TD*%
D15*
%TO.C,QL1*%
X93610000Y-34520000D03*
D16*
X93610000Y-33250000D03*
X93610000Y-31980000D03*
%TD*%
D10*
%TO.C,KiKit_MB_52_3*%
X201666666Y-76000000D03*
%TD*%
%TO.C,KiKit_MB_51_2*%
X190333333Y-76000000D03*
%TD*%
%TO.C,KiKit_MB_41_2*%
X95333334Y-76000000D03*
%TD*%
D13*
%TO.C,J3*%
X154500000Y-95500000D03*
D14*
X151960000Y-95500000D03*
%TD*%
D10*
%TO.C,KiKit_MB_12_3*%
X180000000Y-46000000D03*
%TD*%
%TO.C,KiKit_MB_12_2*%
X181000000Y-46000000D03*
%TD*%
%TO.C,KiKit_MB_12_1*%
X182000000Y-46000000D03*
%TD*%
D19*
%TO.C,LGate1*%
X97690000Y-58500000D03*
D20*
X105310000Y-58500000D03*
%TD*%
D13*
%TO.C,J2*%
X154500000Y-43500000D03*
D14*
X151960000Y-43500000D03*
%TD*%
D21*
%TO.C,J5*%
X133500000Y-81000000D03*
D22*
X137000000Y-81000000D03*
X140500000Y-81000000D03*
X144000000Y-81000000D03*
%TD*%
D10*
%TO.C,KiKit_MB_34_2*%
X160333333Y-74000000D03*
%TD*%
%TO.C,KiKit_MB_33_3*%
X201666666Y-48000000D03*
%TD*%
D17*
%TO.C,Left/Mono1*%
X128120000Y-41857500D03*
D18*
X128120000Y-34237500D03*
X128120000Y-29157500D03*
X128120000Y-24077500D03*
X120500000Y-24077500D03*
X120500000Y-29157500D03*
X120500000Y-34237500D03*
X120500000Y-41857500D03*
%TD*%
D10*
%TO.C,KiKit_MB_35_2*%
X170666666Y-74000000D03*
%TD*%
%TO.C,KiKit_MB_14_3*%
X200666666Y-46000000D03*
%TD*%
D13*
%TO.C,J1*%
X152000000Y-33000000D03*
%TD*%
D10*
%TO.C,KiKit_MB_51_4*%
X192333333Y-76000000D03*
%TD*%
%TO.C,KiKit_MB_51_1*%
X189333333Y-76000000D03*
%TD*%
%TO.C,KiKit_MB_19_4*%
X118000000Y-48000000D03*
%TD*%
%TO.C,KiKit_MB_2_4*%
X147500000Y-38833333D03*
%TD*%
D17*
%TO.C,Right1*%
X180762500Y-97857500D03*
D18*
X180762500Y-90237500D03*
X180762500Y-85157500D03*
X180762500Y-80077500D03*
X173142500Y-80077500D03*
X173142500Y-85157500D03*
X173142500Y-90237500D03*
X173142500Y-97857500D03*
%TD*%
M02*
