%TF.GenerationSoftware,KiCad,Pcbnew,7.0.9*%
%TF.CreationDate,2024-06-08T21:24:25-04:00*%
%TF.ProjectId,Jackless-Panel,4a61636b-6c65-4737-932d-50616e656c2e,rev?*%
%TF.SameCoordinates,Original*%
%TF.FileFunction,Profile,NP*%
%FSLAX46Y46*%
G04 Gerber Fmt 4.6, Leading zero omitted, Abs format (unit mm)*
G04 Created by KiCad (PCBNEW 7.0.9) date 2024-06-08 21:24:25*
%MOMM*%
%LPD*%
G01*
G04 APERTURE LIST*
%TA.AperFunction,Profile*%
%ADD10C,0.100000*%
%TD*%
G04 APERTURE END LIST*
D10*
X118000000Y-46999500D02*
X118000000Y-46000000D01*
X144485878Y-90758366D02*
X144409317Y-90735979D01*
X209647985Y-31771532D02*
X209717712Y-31810270D01*
X210504564Y-61359288D02*
X210494724Y-61438445D01*
X210387796Y-89821662D02*
X210355232Y-89894478D01*
X207291986Y-33319551D02*
X207288041Y-33239883D01*
X94797440Y-40215219D02*
X94875449Y-40231867D01*
X98319107Y-79434404D02*
X98355232Y-79505521D01*
X144116911Y-90609529D02*
X144048163Y-90569078D01*
X156899865Y-41601072D02*
X156911661Y-41522183D01*
X143738868Y-60081172D02*
X143795619Y-60025119D01*
X98512452Y-52200000D02*
X98510479Y-52279741D01*
X95346875Y-52633364D02*
X95327344Y-52556026D01*
X144959816Y-31588657D02*
X145039430Y-31593587D01*
X118000000Y-74999000D02*
X118000000Y-74000000D01*
X145352540Y-31652353D02*
X145428523Y-31676627D01*
X96641849Y-22608346D02*
X96720878Y-22597527D01*
X97275449Y-81768132D02*
X97197440Y-81784780D01*
X158952540Y-40252353D02*
X159028523Y-40276627D01*
X162510479Y-24279741D02*
X162504564Y-24359288D01*
X159836535Y-40897960D02*
X159879509Y-40965161D01*
X159917083Y-22921768D02*
X159981499Y-22874723D01*
X159288041Y-80239883D02*
X159288041Y-80160116D01*
X93933958Y-96290166D02*
X94009317Y-96264020D01*
X145352540Y-90747646D02*
X145275449Y-90768132D01*
X158085878Y-96241633D02*
X158163451Y-96223060D01*
X160563451Y-53776939D02*
X160485878Y-53758366D01*
X160641849Y-50608346D02*
X160720878Y-50597527D01*
X159790290Y-98767032D02*
X159740888Y-98829658D01*
X145039430Y-87593587D02*
X145118703Y-87602448D01*
X210033102Y-60052794D02*
X210088449Y-60110234D01*
X156927344Y-97443973D02*
X156946875Y-97366635D01*
X148501000Y-35833333D02*
X148499000Y-35833333D01*
X95311661Y-80477816D02*
X95299865Y-80398927D01*
X159346875Y-79766635D02*
X159370206Y-79690358D01*
X209118703Y-34797551D02*
X209039430Y-34806412D01*
X92970206Y-69290358D02*
X92997282Y-69215327D01*
X95917083Y-22921768D02*
X95981499Y-22874723D01*
X210319107Y-89965595D02*
X210279509Y-90034838D01*
X146387796Y-33821662D02*
X146355232Y-33894478D01*
X162319107Y-51434404D02*
X162355232Y-51505521D01*
X95738868Y-23081172D02*
X95795619Y-23025119D01*
X97118703Y-78602448D02*
X97197440Y-78615219D01*
X95987796Y-41178337D02*
X96016719Y-41252675D01*
X95738868Y-51081172D02*
X95795619Y-51025119D01*
X209717712Y-59810270D02*
X209785439Y-59852410D01*
X148499000Y-91833333D02*
X147500000Y-91833333D01*
X162279509Y-53034838D02*
X162236535Y-53102039D01*
X157141562Y-68931295D02*
X157186184Y-68865178D01*
X144641849Y-62791653D02*
X144563451Y-62776939D01*
X161333333Y-46999500D02*
X161333333Y-46000000D01*
X209118703Y-62797551D02*
X209039430Y-62806412D01*
X94639430Y-71406412D02*
X94559816Y-71411342D01*
X162494724Y-52438445D02*
X162480980Y-52517018D01*
X160080980Y-97482981D02*
X160094724Y-97561554D01*
X146140888Y-32170341D02*
X146190290Y-32232967D01*
X95327344Y-23843973D02*
X95346875Y-23766635D01*
X135666666Y-46000000D02*
X135666666Y-46999500D01*
X95397282Y-51615327D02*
X95428035Y-51541728D01*
X207462390Y-60469739D02*
X207500263Y-60399538D01*
X159450999Y-43102152D02*
X159385439Y-43147589D01*
X143917083Y-87921768D02*
X143981499Y-87874723D01*
X161850999Y-78897847D02*
X161914232Y-78946471D01*
X146416719Y-60652675D02*
X146441930Y-60728352D01*
X98190290Y-23232967D02*
X98236535Y-23297960D01*
X207311661Y-32922183D02*
X207327344Y-32843973D01*
X95541562Y-79331295D02*
X95586184Y-79265178D01*
X208259984Y-87720006D02*
X208333958Y-87690166D01*
X93716911Y-43209529D02*
X93648163Y-43169078D01*
X96112452Y-69800000D02*
X96110479Y-69879741D01*
X162355232Y-23505521D02*
X162387796Y-23578337D01*
X208048163Y-62569078D02*
X207981499Y-62525276D01*
X135666666Y-74999000D02*
X135666666Y-75001000D01*
X94718703Y-96202448D02*
X94797440Y-96215219D01*
X144048163Y-31830921D02*
X144116911Y-31790470D01*
X207346875Y-33633364D02*
X207327344Y-33556026D01*
X209974982Y-87998162D02*
X210033102Y-88052794D01*
X104666666Y-74000000D02*
X104666666Y-74999000D01*
X94085878Y-96241633D02*
X94163451Y-96223060D01*
X145850999Y-59897847D02*
X145914232Y-59946471D01*
X97039430Y-25806412D02*
X96959816Y-25811342D01*
X209352540Y-62747646D02*
X209275449Y-62768132D01*
X144485878Y-62758366D02*
X144409317Y-62735979D01*
X92997282Y-41215327D02*
X93028035Y-41141728D01*
X157234022Y-42798650D02*
X157186184Y-42734821D01*
X93395619Y-40625119D02*
X93455072Y-40571941D01*
X98319107Y-80965595D02*
X98279509Y-81034838D01*
X143684958Y-90260036D02*
X143634022Y-90198650D01*
X171666666Y-74000000D02*
X179000000Y-74000000D01*
X179000000Y-48000000D02*
X171666666Y-48000000D01*
X159370206Y-51690358D02*
X159397282Y-51615327D01*
X95103213Y-96304628D02*
X95176426Y-96336289D01*
X96048163Y-22830921D02*
X96116911Y-22790470D01*
X156997282Y-41215327D02*
X157028035Y-41141728D01*
X162279509Y-23365161D02*
X162319107Y-23434404D01*
X158559816Y-96188657D02*
X158639430Y-96193587D01*
X161333333Y-74000000D02*
X168666666Y-74000000D01*
X207981499Y-34525276D02*
X207917083Y-34478231D01*
X95981499Y-22874723D02*
X96048163Y-22830921D01*
X144333958Y-90709833D02*
X144259984Y-90679993D01*
X157395619Y-96625119D02*
X157455072Y-96571941D01*
X159586184Y-51265178D02*
X159634022Y-51201349D01*
X93716911Y-40390470D02*
X93787576Y-40353468D01*
X94241849Y-68208346D02*
X94320878Y-68197527D01*
X159586184Y-53134821D02*
X159541562Y-53068704D01*
X93028035Y-98458271D02*
X92997282Y-98384672D01*
X98416719Y-80747324D02*
X98387796Y-80821662D01*
X207981499Y-31874723D02*
X208048163Y-31830921D01*
X159291986Y-24319551D02*
X159288041Y-24239883D01*
X162441930Y-23728352D02*
X162463368Y-23805184D01*
X159738868Y-81318827D02*
X159684958Y-81260036D01*
X160641849Y-25791653D02*
X160563451Y-25776939D01*
X210512452Y-33200000D02*
X210510479Y-33279741D01*
X160063368Y-97405184D02*
X160080980Y-97482981D01*
X158241849Y-43391653D02*
X158163451Y-43376939D01*
X159917083Y-81478231D02*
X159855072Y-81428058D01*
X179000000Y-74000000D02*
X179000000Y-74999000D01*
X160959816Y-81811342D02*
X160880056Y-81812328D01*
X161118703Y-50602448D02*
X161197440Y-50615219D01*
X208333958Y-90709833D02*
X208259984Y-90679993D01*
X207738868Y-34318827D02*
X207684958Y-34260036D01*
X158875449Y-43368132D02*
X158797440Y-43384780D01*
X97333333Y-46000000D02*
X104666666Y-46000000D01*
X93100263Y-96999538D02*
X93141562Y-96931295D01*
X93186184Y-96865178D02*
X93234022Y-96801349D01*
X93284958Y-68739963D02*
X93338868Y-68681172D01*
X149500000Y-48000000D02*
X149500000Y-55166666D01*
X161039430Y-50593587D02*
X161118703Y-50602448D01*
X144409317Y-59664020D02*
X144485878Y-59641633D01*
X145428523Y-90723372D02*
X145352540Y-90747646D01*
X162504564Y-52040711D02*
X162510479Y-52120258D01*
X158797440Y-99384780D02*
X158718703Y-99397551D01*
X144641849Y-31608346D02*
X144720878Y-31597527D01*
X94241849Y-96208346D02*
X94320878Y-96197527D01*
X157395619Y-40625119D02*
X157455072Y-40571941D01*
X85500000Y-20000000D02*
X85500000Y-46000000D01*
X94797440Y-43384780D02*
X94718703Y-43397551D01*
X146033102Y-62347205D02*
X145974982Y-62401837D01*
X143500263Y-60399538D02*
X143541562Y-60331295D01*
X95987796Y-97178337D02*
X96016719Y-97252675D01*
X207981499Y-59874723D02*
X208048163Y-59830921D01*
X95450999Y-71102152D02*
X95385439Y-71147589D01*
X96187576Y-25646531D02*
X96116911Y-25609529D01*
X97717712Y-22810270D02*
X97785439Y-22852410D01*
X145503213Y-59704628D02*
X145576426Y-59736289D01*
X95836535Y-40897960D02*
X95879509Y-40965161D01*
X93455072Y-96571941D02*
X93517083Y-96521768D01*
X95855072Y-78971941D02*
X95917083Y-78921768D01*
X146504564Y-89359288D02*
X146494724Y-89438445D01*
X161197440Y-22615219D02*
X161275449Y-22631867D01*
X159634022Y-23201349D02*
X159684958Y-23139963D01*
X95541562Y-81068704D02*
X95500263Y-81000461D01*
X94163451Y-40223060D02*
X94241849Y-40208346D01*
X95879509Y-98634838D02*
X95836535Y-98702039D01*
X208333958Y-59690166D02*
X208409317Y-59664020D01*
X143795619Y-62374880D02*
X143738868Y-62318827D01*
X146504564Y-61040711D02*
X146510479Y-61120258D01*
X97503213Y-25695371D02*
X97428523Y-25723372D01*
X161352540Y-50652353D02*
X161428523Y-50676627D01*
X143684958Y-88139963D02*
X143738868Y-88081172D01*
X207428035Y-88541728D02*
X207462390Y-88469739D01*
X202666666Y-75001000D02*
X202666666Y-74999000D01*
X159795619Y-51025119D02*
X159855072Y-50971941D01*
X162387796Y-80821662D02*
X162355232Y-80894478D01*
X162494724Y-51961554D02*
X162504564Y-52040711D01*
X208720878Y-90802472D02*
X208641849Y-90791653D01*
X95688449Y-42889765D02*
X95633102Y-42947205D01*
X104666666Y-48000000D02*
X97333333Y-48000000D01*
X207327344Y-32843973D02*
X207346875Y-32766635D01*
X210140888Y-62229658D02*
X210088449Y-62289765D01*
X94400345Y-68190630D02*
X94480056Y-68187671D01*
X157141562Y-70668704D02*
X157100263Y-70600461D01*
X145275449Y-34768132D02*
X145197440Y-34784780D01*
X95738868Y-81318827D02*
X95684958Y-81260036D01*
X95981499Y-78874723D02*
X96048163Y-78830921D01*
X94333333Y-76000000D02*
X85500000Y-76000000D01*
X95311661Y-51922183D02*
X95327344Y-51843973D01*
X209717712Y-87810270D02*
X209785439Y-87852410D01*
X95688449Y-96710234D02*
X95740888Y-96770341D01*
X93062390Y-42530260D02*
X93028035Y-42458271D01*
X160104564Y-69640711D02*
X160110479Y-69720258D01*
X179000000Y-46999500D02*
X179000000Y-47001500D01*
X160800345Y-50590630D02*
X160880056Y-50587671D01*
X143428035Y-89858271D02*
X143397282Y-89784672D01*
X209914232Y-87946471D02*
X209974982Y-87998162D01*
X160959816Y-50588657D02*
X161039430Y-50593587D01*
X92970206Y-42309641D02*
X92946875Y-42233364D01*
X159299865Y-52398927D02*
X159291986Y-52319551D01*
X162236535Y-79297960D02*
X162279509Y-79365161D01*
X209352540Y-34747646D02*
X209275449Y-34768132D01*
X95855072Y-50971941D02*
X95917083Y-50921768D01*
X95500263Y-25000461D02*
X95462390Y-24930260D01*
X158559816Y-71411342D02*
X158480056Y-71412328D01*
X125333333Y-74999000D02*
X125333333Y-75001000D01*
X146416719Y-61747324D02*
X146387796Y-61821662D01*
X160800345Y-81809369D02*
X160720878Y-81802472D01*
X210190290Y-34167032D02*
X210140888Y-34229658D01*
X94480056Y-68187671D02*
X94559816Y-68188657D01*
X210463368Y-33594815D02*
X210441930Y-33671647D01*
X158333333Y-46999500D02*
X158333333Y-47001500D01*
X135666666Y-74000000D02*
X135666666Y-74999000D01*
X96048163Y-81569078D02*
X95981499Y-81525276D01*
X95327344Y-51843973D02*
X95346875Y-51766635D01*
X94320878Y-96197527D02*
X94400345Y-96190630D01*
X207288041Y-33160116D02*
X207291986Y-33080448D01*
X210441930Y-60728352D02*
X210463368Y-60805184D01*
X160720878Y-22597527D02*
X160800345Y-22590630D01*
X207795619Y-34374880D02*
X207738868Y-34318827D01*
X157517083Y-99078231D02*
X157455072Y-99028058D01*
X95428035Y-51541728D02*
X95462390Y-51469739D01*
X95855072Y-81428058D02*
X95795619Y-81374880D01*
X161352540Y-78652353D02*
X161428523Y-78676627D01*
X95428035Y-23541728D02*
X95462390Y-23469739D01*
X159955232Y-70494478D02*
X159919107Y-70565595D01*
X159317712Y-96410270D02*
X159385439Y-96452410D01*
X145428523Y-87676627D02*
X145503213Y-87704628D01*
X92911661Y-98077816D02*
X92899865Y-97998927D01*
X96563451Y-25776939D02*
X96485878Y-25758366D01*
X147500000Y-74000000D02*
X147500000Y-66833333D01*
X144187576Y-87753468D02*
X144259984Y-87720006D01*
X157455072Y-71028058D02*
X157395619Y-70974880D01*
X159987796Y-69178337D02*
X160016719Y-69252675D01*
X159633102Y-40652794D02*
X159688449Y-40710234D01*
X145352540Y-59652353D02*
X145428523Y-59676627D01*
X98510479Y-80279741D02*
X98504564Y-80359288D01*
X160880056Y-81812328D02*
X160800345Y-81809369D01*
X97974982Y-25401837D02*
X97914232Y-25453528D01*
X159450999Y-71102152D02*
X159385439Y-71147589D01*
X148501000Y-30166666D02*
X149500000Y-30166666D01*
X208116911Y-62609529D02*
X208048163Y-62569078D01*
X143855072Y-87971941D02*
X143917083Y-87921768D01*
X144116911Y-62609529D02*
X144048163Y-62569078D01*
X97717712Y-78810270D02*
X97785439Y-78852410D01*
X159028523Y-71323372D02*
X158952540Y-71347646D01*
X192333333Y-74000000D02*
X199666666Y-74000000D01*
X159917083Y-50921768D02*
X159981499Y-50874723D01*
X95740888Y-40770341D02*
X95790290Y-40832967D01*
X207855072Y-31971941D02*
X207917083Y-31921768D01*
X145576426Y-59736289D02*
X145647985Y-59771532D01*
X207738868Y-32081172D02*
X207795619Y-32025119D01*
X208720878Y-59597527D02*
X208800345Y-59590630D01*
X98416719Y-24747324D02*
X98387796Y-24821662D01*
X160063368Y-42194815D02*
X160041930Y-42271647D01*
X146319107Y-88434404D02*
X146355232Y-88505521D01*
X145197440Y-90784780D02*
X145118703Y-90797551D01*
X95688449Y-98889765D02*
X95633102Y-98947205D01*
X143397282Y-32615327D02*
X143428035Y-32541728D01*
X159450999Y-68497847D02*
X159514232Y-68546471D01*
X145647985Y-59771532D02*
X145717712Y-59810270D01*
X145785439Y-34547589D02*
X145717712Y-34589729D01*
X94875449Y-43368132D02*
X94797440Y-43384780D01*
X97503213Y-78704628D02*
X97576426Y-78736289D01*
X157787576Y-40353468D02*
X157859984Y-40320006D01*
X160041930Y-70271647D02*
X160016719Y-70347324D01*
X95028523Y-43323372D02*
X94952540Y-43347646D01*
X159790290Y-70767032D02*
X159740888Y-70829658D01*
X158333333Y-46000000D02*
X158333333Y-46999500D01*
X209974982Y-90401837D02*
X209914232Y-90453528D01*
X93716911Y-99209529D02*
X93648163Y-99169078D01*
X171666666Y-75001000D02*
X171666666Y-74999000D01*
X207311661Y-88922183D02*
X207327344Y-88843973D01*
X157062390Y-41069739D02*
X157100263Y-40999538D01*
X207346875Y-89633364D02*
X207327344Y-89556026D01*
X207327344Y-33556026D02*
X207311661Y-33477816D01*
X159291986Y-52080448D02*
X159299865Y-52001072D01*
X146140888Y-88170341D02*
X146190290Y-88232967D01*
X210512452Y-61200000D02*
X210510479Y-61279741D01*
X208187576Y-87753468D02*
X208259984Y-87720006D01*
X96880056Y-25812328D02*
X96800345Y-25809369D01*
X210463368Y-88805184D02*
X210480980Y-88882981D01*
X158639430Y-99406412D02*
X158559816Y-99411342D01*
X145503213Y-90695371D02*
X145428523Y-90723372D01*
X98480980Y-79882981D02*
X98494724Y-79961554D01*
X210236535Y-34102039D02*
X210190290Y-34167032D01*
X159028523Y-96276627D02*
X159103213Y-96304628D01*
X96048163Y-53569078D02*
X95981499Y-53525276D01*
X156899865Y-97998927D02*
X156891986Y-97919551D01*
X210416719Y-61747324D02*
X210387796Y-61821662D01*
X94559816Y-96188657D02*
X94639430Y-96193587D01*
X145717712Y-90589729D02*
X145647985Y-90628467D01*
X157062390Y-42530260D02*
X157028035Y-42458271D01*
X98088449Y-53289765D02*
X98033102Y-53347205D01*
X161503213Y-50704628D02*
X161576426Y-50736289D01*
X157338868Y-70918827D02*
X157284958Y-70860036D01*
X93338868Y-96681172D02*
X93395619Y-96625119D01*
X160409317Y-78664020D02*
X160485878Y-78641633D01*
X207311661Y-60922183D02*
X207327344Y-60843973D01*
X162319107Y-24965595D02*
X162279509Y-25034838D01*
X145197440Y-31615219D02*
X145275449Y-31631867D01*
X144880056Y-90812328D02*
X144800345Y-90809369D01*
X208409317Y-90735979D02*
X208333958Y-90709833D01*
X160409317Y-53735979D02*
X160333958Y-53709833D01*
X207500263Y-88399538D02*
X207541562Y-88331295D01*
X93517083Y-99078231D02*
X93455072Y-99028058D01*
X96110479Y-41879741D02*
X96104564Y-41959288D01*
X145118703Y-90797551D02*
X145039430Y-90806412D01*
X96959816Y-78588657D02*
X97039430Y-78593587D01*
X159397282Y-52784672D02*
X159370206Y-52709641D01*
X156911661Y-69522183D02*
X156927344Y-69443973D01*
X162279509Y-25034838D02*
X162236535Y-25102039D01*
X148499000Y-35833333D02*
X147500000Y-35833333D01*
X162088449Y-51110234D02*
X162140888Y-51170341D01*
X98355232Y-51505521D02*
X98387796Y-51578337D01*
X95288041Y-24239883D02*
X95288041Y-24160116D01*
X207299865Y-89398927D02*
X207291986Y-89319551D01*
X95684958Y-81260036D02*
X95634022Y-81198650D01*
X161914232Y-22946471D02*
X161974982Y-22998162D01*
X207981499Y-62525276D02*
X207917083Y-62478231D01*
X159247985Y-68371532D02*
X159317712Y-68410270D01*
X104666666Y-75001000D02*
X104666666Y-76000000D01*
X157455072Y-68571941D02*
X157517083Y-68521768D01*
X156899865Y-69998927D02*
X156891986Y-69919551D01*
X157859984Y-43279993D02*
X157787576Y-43246531D01*
X159176426Y-43263710D02*
X159103213Y-43295371D01*
X159299865Y-52001072D02*
X159311661Y-51922183D01*
X93933958Y-99309833D02*
X93859984Y-99279993D01*
X158163451Y-99376939D02*
X158085878Y-99358366D01*
X159346875Y-23766635D02*
X159370206Y-23690358D01*
X97352540Y-22652353D02*
X97428523Y-22676627D01*
X94480056Y-40187671D02*
X94559816Y-40188657D01*
X160187576Y-78753468D02*
X160259984Y-78720006D01*
X143795619Y-32025119D02*
X143855072Y-31971941D01*
X207586184Y-62134821D02*
X207541562Y-62068704D01*
X158333333Y-48000000D02*
X149500000Y-48000000D01*
X208563451Y-59623060D02*
X208641849Y-59608346D01*
X209275449Y-59631867D02*
X209352540Y-59652353D01*
X158163451Y-71376939D02*
X158085878Y-71358366D01*
X209197440Y-31615219D02*
X209275449Y-31631867D01*
X96048163Y-78830921D02*
X96116911Y-78790470D01*
X144333958Y-62709833D02*
X144259984Y-62679993D01*
X158333333Y-47001500D02*
X158333333Y-48000000D01*
X143500263Y-34000461D02*
X143462390Y-33930260D01*
X97118703Y-81797551D02*
X97039430Y-81806412D01*
X207586184Y-90134821D02*
X207541562Y-90068704D01*
X143370206Y-88690358D02*
X143397282Y-88615327D01*
X97914232Y-50946471D02*
X97974982Y-50998162D01*
X97717712Y-53589729D02*
X97647985Y-53628467D01*
X159346875Y-52633364D02*
X159327344Y-52556026D01*
X93028035Y-70458271D02*
X92997282Y-70384672D01*
X192333333Y-75001000D02*
X192333333Y-74999000D01*
X96333958Y-81709833D02*
X96259984Y-81679993D01*
X160333958Y-78690166D02*
X160409317Y-78664020D01*
X144880056Y-31587671D02*
X144959816Y-31588657D01*
X92927344Y-41443973D02*
X92946875Y-41366635D01*
X115000000Y-47001500D02*
X115000000Y-48000000D01*
X93141562Y-68931295D02*
X93186184Y-68865178D01*
X209428523Y-90723372D02*
X209352540Y-90747646D01*
X98494724Y-51961554D02*
X98504564Y-52040711D01*
X207634022Y-32201349D02*
X207684958Y-32139963D01*
X158559816Y-40188657D02*
X158639430Y-40193587D01*
X144187576Y-62646531D02*
X144116911Y-62609529D01*
X92888041Y-41760116D02*
X92891986Y-41680448D01*
X93859984Y-96320006D02*
X93933958Y-96290166D01*
X95855072Y-22971941D02*
X95917083Y-22921768D01*
X97503213Y-81695371D02*
X97428523Y-81723372D01*
X94952540Y-99347646D02*
X94875449Y-99368132D01*
X97352540Y-81747646D02*
X97275449Y-81768132D01*
X96094724Y-70038445D02*
X96080980Y-70117018D01*
X160116911Y-50790470D02*
X160187576Y-50753468D01*
X210088449Y-32110234D02*
X210140888Y-32170341D01*
X92927344Y-42156026D02*
X92911661Y-42077816D01*
X211500000Y-48000000D02*
X202666666Y-48000000D01*
X160080980Y-98117018D02*
X160063368Y-98194815D01*
X208259984Y-31720006D02*
X208333958Y-31690166D01*
X159684958Y-25260036D02*
X159634022Y-25198650D01*
X159327344Y-52556026D02*
X159311661Y-52477816D01*
X209197440Y-87615219D02*
X209275449Y-87631867D01*
X159879509Y-70634838D02*
X159836535Y-70702039D01*
X92927344Y-70156026D02*
X92911661Y-70077816D01*
X96800345Y-25809369D02*
X96720878Y-25802472D01*
X146279509Y-90034838D02*
X146236535Y-90102039D01*
X157581499Y-68474723D02*
X157648163Y-68430921D01*
X160333958Y-22690166D02*
X160409317Y-22664020D01*
X160094724Y-42038445D02*
X160080980Y-42117018D01*
X96720878Y-78597527D02*
X96800345Y-78590630D01*
X96063368Y-98194815D02*
X96041930Y-98271647D01*
X97503213Y-22704628D02*
X97576426Y-22736289D01*
X98480980Y-51882981D02*
X98494724Y-51961554D01*
X95684958Y-53260036D02*
X95634022Y-53198650D01*
X96094724Y-42038445D02*
X96080980Y-42117018D01*
X95919107Y-97034404D02*
X95955232Y-97105521D01*
X92970206Y-98309641D02*
X92946875Y-98233364D01*
X144187576Y-31753468D02*
X144259984Y-31720006D01*
X160800345Y-22590630D02*
X160880056Y-22587671D01*
X208259984Y-90679993D02*
X208187576Y-90646531D01*
X210463368Y-60805184D02*
X210480980Y-60882981D01*
X146510479Y-33120258D02*
X146512452Y-33200000D01*
X93141562Y-40931295D02*
X93186184Y-40865178D01*
X159981499Y-81525276D02*
X159917083Y-81478231D01*
X211500000Y-76000000D02*
X202666666Y-76000000D01*
X98441930Y-52671647D02*
X98416719Y-52747324D01*
X143327344Y-88843973D02*
X143346875Y-88766635D01*
X159176426Y-96336289D02*
X159247985Y-96371532D01*
X149500000Y-102000000D02*
X211500000Y-102000000D01*
X96641849Y-78608346D02*
X96720878Y-78597527D01*
X208333958Y-34709833D02*
X208259984Y-34679993D01*
X95919107Y-70565595D02*
X95879509Y-70634838D01*
X95299865Y-52001072D02*
X95311661Y-51922183D01*
X160485878Y-25758366D02*
X160409317Y-25735979D01*
X144880056Y-62812328D02*
X144800345Y-62809369D01*
X143981499Y-90525276D02*
X143917083Y-90478231D01*
X159574982Y-71001837D02*
X159514232Y-71053528D01*
X98088449Y-25289765D02*
X98033102Y-25347205D01*
X207428035Y-89858271D02*
X207397282Y-89784672D01*
X157062390Y-98530260D02*
X157028035Y-98458271D01*
X159462390Y-23469739D02*
X159500263Y-23399538D01*
X157395619Y-68625119D02*
X157455072Y-68571941D01*
X161428523Y-22676627D02*
X161503213Y-22704628D01*
X208259984Y-59720006D02*
X208333958Y-59690166D01*
X210236535Y-62102039D02*
X210190290Y-62167032D01*
X92891986Y-69919551D02*
X92888041Y-69839883D01*
X207370206Y-89709641D02*
X207346875Y-89633364D01*
X209717712Y-34589729D02*
X209647985Y-34628467D01*
X96116911Y-25609529D02*
X96048163Y-25569078D01*
X156927344Y-41443973D02*
X156946875Y-41366635D01*
X160094724Y-70038445D02*
X160080980Y-70117018D01*
X168666666Y-48000000D02*
X161333333Y-48000000D01*
X93186184Y-98734821D02*
X93141562Y-98668704D01*
X207981499Y-90525276D02*
X207917083Y-90478231D01*
X94718703Y-43397551D02*
X94639430Y-43406412D01*
X210480980Y-61517018D02*
X210463368Y-61594815D01*
X207462390Y-89930260D02*
X207428035Y-89858271D01*
X92888041Y-69839883D02*
X92888041Y-69760116D01*
X97039430Y-50593587D02*
X97118703Y-50602448D01*
X144333958Y-87690166D02*
X144409317Y-87664020D01*
X159740888Y-98829658D02*
X159688449Y-98889765D01*
X157338868Y-42918827D02*
X157284958Y-42860036D01*
X94163451Y-96223060D02*
X94241849Y-96208346D01*
X162355232Y-52894478D02*
X162319107Y-52965595D01*
X209647985Y-87771532D02*
X209717712Y-87810270D01*
X159291986Y-80080448D02*
X159299865Y-80001072D01*
X147500000Y-27166666D02*
X147500000Y-20000000D01*
X144259984Y-62679993D02*
X144187576Y-62646531D01*
X94400345Y-40190630D02*
X94480056Y-40187671D01*
X93234022Y-96801349D02*
X93284958Y-96739963D01*
X144116911Y-34609529D02*
X144048163Y-34569078D01*
X156899865Y-69601072D02*
X156911661Y-69522183D01*
X95955232Y-98494478D02*
X95919107Y-98565595D01*
X95397282Y-79615327D02*
X95428035Y-79541728D01*
X95028523Y-96276627D02*
X95103213Y-96304628D01*
X157395619Y-70974880D02*
X157338868Y-70918827D01*
X148501000Y-83166666D02*
X148499000Y-83166666D01*
X209850999Y-87897847D02*
X209914232Y-87946471D01*
X159370206Y-79690358D02*
X159397282Y-79615327D01*
X95917083Y-25478231D02*
X95855072Y-25428058D01*
X146236535Y-90102039D02*
X146190290Y-90167032D01*
X157517083Y-71078231D02*
X157455072Y-71028058D01*
X145717712Y-59810270D02*
X145785439Y-59852410D01*
X95317712Y-43189729D02*
X95247985Y-43228467D01*
X107666666Y-74000000D02*
X115000000Y-74000000D01*
X94009317Y-43335979D02*
X93933958Y-43309833D01*
X98463368Y-23805184D02*
X98480980Y-23882981D01*
X146236535Y-34102039D02*
X146190290Y-34167032D01*
X94875449Y-71368132D02*
X94797440Y-71384780D01*
X159919107Y-69034404D02*
X159955232Y-69105521D01*
X158875449Y-71368132D02*
X158797440Y-71384780D01*
X160563451Y-50623060D02*
X160641849Y-50608346D01*
X202666666Y-46000000D02*
X211500000Y-46000000D01*
X160800345Y-78590630D02*
X160880056Y-78587671D01*
X161503213Y-78704628D02*
X161576426Y-78736289D01*
X159028523Y-40276627D02*
X159103213Y-40304628D01*
X143291986Y-61080448D02*
X143299865Y-61001072D01*
X189333333Y-46999500D02*
X189333333Y-47001500D01*
X143428035Y-88541728D02*
X143462390Y-88469739D01*
X95795619Y-81374880D02*
X95738868Y-81318827D01*
X210387796Y-88578337D02*
X210416719Y-88652675D01*
X160485878Y-78641633D02*
X160563451Y-78623060D01*
X97850999Y-25502152D02*
X97785439Y-25547589D01*
X149500000Y-55166666D02*
X148501000Y-55166666D01*
X85500000Y-74000000D02*
X94333333Y-74000000D01*
X146416719Y-33747324D02*
X146387796Y-33821662D01*
X93933958Y-40290166D02*
X94009317Y-40264020D01*
X98236535Y-81102039D02*
X98190290Y-81167032D01*
X94320878Y-43402472D02*
X94241849Y-43391653D01*
X158718703Y-99397551D02*
X158639430Y-99406412D01*
X146494724Y-61438445D02*
X146480980Y-61517018D01*
X145914232Y-90453528D02*
X145850999Y-90502152D01*
X189333333Y-75001000D02*
X189333333Y-76000000D01*
X207291986Y-33080448D02*
X207299865Y-33001072D01*
X144959816Y-87588657D02*
X145039430Y-87593587D01*
X95919107Y-42565595D02*
X95879509Y-42634838D01*
X144485878Y-31641633D02*
X144563451Y-31623060D01*
X95955232Y-69105521D02*
X95987796Y-69178337D01*
X143541562Y-90068704D02*
X143500263Y-90000461D01*
X95291986Y-24080448D02*
X95299865Y-24001072D01*
X207397282Y-88615327D02*
X207428035Y-88541728D01*
X145974982Y-87998162D02*
X146033102Y-88052794D01*
X93581499Y-43125276D02*
X93517083Y-43078231D01*
X93028035Y-97141728D02*
X93062390Y-97069739D01*
X161785439Y-81547589D02*
X161717712Y-81589729D01*
X210494724Y-60961554D02*
X210504564Y-61040711D01*
X202666666Y-74000000D02*
X211500000Y-74000000D01*
X143981499Y-34525276D02*
X143917083Y-34478231D01*
X158085878Y-99358366D02*
X158009317Y-99335979D01*
X95514232Y-43053528D02*
X95450999Y-43102152D01*
X160409317Y-50664020D02*
X160485878Y-50641633D01*
X96187576Y-78753468D02*
X96259984Y-78720006D01*
X210190290Y-62167032D02*
X210140888Y-62229658D01*
X159299865Y-80398927D02*
X159291986Y-80319551D01*
X128333333Y-74999000D02*
X128333333Y-74000000D01*
X146463368Y-89594815D02*
X146441930Y-89671647D01*
X95288041Y-52160116D02*
X95291986Y-52080448D01*
X97785439Y-25547589D02*
X97717712Y-25589729D01*
X93100263Y-70600461D02*
X93062390Y-70530260D01*
X162494724Y-23961554D02*
X162504564Y-24040711D01*
X199666666Y-46999500D02*
X199666666Y-47001500D01*
X160048163Y-22830921D02*
X160116911Y-22790470D01*
X158320878Y-71402472D02*
X158241849Y-71391653D01*
X209717712Y-31810270D02*
X209785439Y-31852410D01*
X97647985Y-50771532D02*
X97717712Y-50810270D01*
X161647985Y-50771532D02*
X161717712Y-50810270D01*
X145039430Y-90806412D02*
X144959816Y-90811342D01*
X94480056Y-71412328D02*
X94400345Y-71409369D01*
X148499000Y-83166666D02*
X147500000Y-83166666D01*
X146355232Y-32505521D02*
X146387796Y-32578337D01*
X159740888Y-68770341D02*
X159790290Y-68832967D01*
X207917083Y-34478231D02*
X207855072Y-34428058D01*
X96641849Y-25791653D02*
X96563451Y-25776939D01*
X161974982Y-81401837D02*
X161914232Y-81453528D01*
X97118703Y-50602448D02*
X97197440Y-50615219D01*
X98033102Y-81347205D02*
X97974982Y-81401837D01*
X156970206Y-70309641D02*
X156946875Y-70233364D01*
X93395619Y-96625119D02*
X93455072Y-96571941D01*
X93234022Y-98798650D02*
X93186184Y-98734821D01*
X97428523Y-78676627D02*
X97503213Y-78704628D01*
X159919107Y-70565595D02*
X159879509Y-70634838D01*
X158480056Y-40187671D02*
X158559816Y-40188657D01*
X161503213Y-25695371D02*
X161428523Y-25723372D01*
X157028035Y-70458271D02*
X156997282Y-70384672D01*
X209039430Y-90806412D02*
X208959816Y-90811342D01*
X157787576Y-99246531D02*
X157716911Y-99209529D01*
X144959816Y-62811342D02*
X144880056Y-62812328D01*
X145850999Y-62502152D02*
X145785439Y-62547589D01*
X143346875Y-89633364D02*
X143327344Y-89556026D01*
X171666666Y-47001500D02*
X171666666Y-46999500D01*
X144187576Y-59753468D02*
X144259984Y-59720006D01*
X96112452Y-97800000D02*
X96110479Y-97879741D01*
X96880056Y-78587671D02*
X96959816Y-78588657D01*
X95397282Y-24784672D02*
X95370206Y-24709641D01*
X95738868Y-25318827D02*
X95684958Y-25260036D01*
X159028523Y-43323372D02*
X158952540Y-43347646D01*
X157716911Y-99209529D02*
X157648163Y-99169078D01*
X208563451Y-31623060D02*
X208641849Y-31608346D01*
X189333333Y-46000000D02*
X189333333Y-46999500D01*
X93787576Y-99246531D02*
X93716911Y-99209529D01*
X96187576Y-50753468D02*
X96259984Y-50720006D01*
X97039430Y-22593587D02*
X97118703Y-22602448D01*
X160063368Y-70194815D02*
X160041930Y-70271647D01*
X95955232Y-70494478D02*
X95919107Y-70565595D01*
X144641849Y-90791653D02*
X144563451Y-90776939D01*
X94559816Y-68188657D02*
X94639430Y-68193587D01*
X143634022Y-32201349D02*
X143684958Y-32139963D01*
X98512452Y-80200000D02*
X98510479Y-80279741D01*
X95633102Y-98947205D02*
X95574982Y-99001837D01*
X144048163Y-34569078D02*
X143981499Y-34525276D01*
X210510479Y-89279741D02*
X210504564Y-89359288D01*
X156911661Y-41522183D02*
X156927344Y-41443973D01*
X161914232Y-53453528D02*
X161850999Y-53502152D01*
X159428035Y-23541728D02*
X159462390Y-23469739D01*
X209039430Y-34806412D02*
X208959816Y-34811342D01*
X210319107Y-88434404D02*
X210355232Y-88505521D01*
X143500263Y-88399538D02*
X143541562Y-88331295D01*
X162416719Y-80747324D02*
X162387796Y-80821662D01*
X145275449Y-62768132D02*
X145197440Y-62784780D01*
X207684958Y-34260036D02*
X207634022Y-34198650D01*
X209118703Y-31602448D02*
X209197440Y-31615219D01*
X157933958Y-68290166D02*
X158009317Y-68264020D01*
X143738868Y-34318827D02*
X143684958Y-34260036D01*
X161118703Y-81797551D02*
X161039430Y-81806412D01*
X98033102Y-51052794D02*
X98088449Y-51110234D01*
X95634022Y-23201349D02*
X95684958Y-23139963D01*
X207327344Y-60843973D02*
X207346875Y-60766635D01*
X160104564Y-69959288D02*
X160094724Y-70038445D01*
X207855072Y-87971941D02*
X207917083Y-87921768D01*
X95836535Y-98702039D02*
X95790290Y-98767032D01*
X96800345Y-22590630D02*
X96880056Y-22587671D01*
X145914232Y-87946471D02*
X145974982Y-87998162D01*
X160409317Y-22664020D02*
X160485878Y-22641633D01*
X209118703Y-87602448D02*
X209197440Y-87615219D01*
X160880056Y-25812328D02*
X160800345Y-25809369D01*
X157455072Y-96571941D02*
X157517083Y-96521768D01*
X160485878Y-50641633D02*
X160563451Y-50623060D01*
X159795619Y-79025119D02*
X159855072Y-78971941D01*
X144259984Y-87720006D02*
X144333958Y-87690166D01*
X94085878Y-40241633D02*
X94163451Y-40223060D01*
X159795619Y-25374880D02*
X159738868Y-25318827D01*
X97785439Y-53547589D02*
X97717712Y-53589729D01*
X157284958Y-96739963D02*
X157338868Y-96681172D01*
X157141562Y-40931295D02*
X157186184Y-40865178D01*
X96041930Y-42271647D02*
X96016719Y-42347324D01*
X162140888Y-23170341D02*
X162190290Y-23232967D01*
X210236535Y-32297960D02*
X210279509Y-32365161D01*
X207917083Y-87921768D02*
X207981499Y-87874723D01*
X160048163Y-78830921D02*
X160116911Y-78790470D01*
X143684958Y-34260036D02*
X143634022Y-34198650D01*
X96959816Y-53811342D02*
X96880056Y-53812328D01*
X210140888Y-60170341D02*
X210190290Y-60232967D01*
X95738868Y-79081172D02*
X95795619Y-79025119D01*
X95740888Y-96770341D02*
X95790290Y-96832967D01*
X161333333Y-47001500D02*
X161333333Y-46999500D01*
X144048163Y-90569078D02*
X143981499Y-90525276D01*
X160080980Y-41482981D02*
X160094724Y-41561554D01*
X96800345Y-81809369D02*
X96720878Y-81802472D01*
X159981499Y-25525276D02*
X159917083Y-25478231D01*
X158241849Y-71391653D02*
X158163451Y-71376939D01*
X96104564Y-69640711D02*
X96110479Y-69720258D01*
X208187576Y-31753468D02*
X208259984Y-31720006D01*
X209576426Y-90663710D02*
X209503213Y-90695371D01*
X95317712Y-96410270D02*
X95385439Y-96452410D01*
X179000000Y-74999000D02*
X179000000Y-75001000D01*
X162463368Y-80594815D02*
X162441930Y-80671647D01*
X98387796Y-80821662D02*
X98355232Y-80894478D01*
X92888041Y-97839883D02*
X92888041Y-97760116D01*
X97197440Y-81784780D02*
X97118703Y-81797551D01*
X98510479Y-24279741D02*
X98504564Y-24359288D01*
X92970206Y-70309641D02*
X92946875Y-70233364D01*
X161914232Y-81453528D02*
X161850999Y-81502152D01*
X138666666Y-47001500D02*
X138666666Y-46999500D01*
X95103213Y-71295371D02*
X95028523Y-71323372D01*
X159574982Y-40598162D02*
X159633102Y-40652794D01*
X208187576Y-62646531D02*
X208116911Y-62609529D01*
X210441930Y-88728352D02*
X210463368Y-88805184D01*
X96641849Y-81791653D02*
X96563451Y-81776939D01*
X158875449Y-96231867D02*
X158952540Y-96252353D01*
X207684958Y-90260036D02*
X207634022Y-90198650D01*
X146387796Y-61821662D02*
X146355232Y-61894478D01*
X157234022Y-40801349D02*
X157284958Y-40739963D01*
X146441930Y-33671647D02*
X146416719Y-33747324D01*
X92899865Y-41998927D02*
X92891986Y-41919551D01*
X93284958Y-98860036D02*
X93234022Y-98798650D01*
X97914232Y-78946471D02*
X97974982Y-78998162D01*
X160409317Y-25735979D02*
X160333958Y-25709833D01*
X95346875Y-79766635D02*
X95370206Y-79690358D01*
X208720878Y-62802472D02*
X208641849Y-62791653D01*
X168666666Y-76000000D02*
X161333333Y-76000000D01*
X210033102Y-62347205D02*
X209974982Y-62401837D01*
X209039430Y-59593587D02*
X209118703Y-59602448D01*
X158400345Y-71409369D02*
X158320878Y-71402472D01*
X93338868Y-40681172D02*
X93395619Y-40625119D01*
X93234022Y-40801349D02*
X93284958Y-40739963D01*
X159176426Y-99263710D02*
X159103213Y-99295371D01*
X95028523Y-40276627D02*
X95103213Y-40304628D01*
X158875449Y-68231867D02*
X158952540Y-68252353D01*
X96409317Y-50664020D02*
X96485878Y-50641633D01*
X159428035Y-80858271D02*
X159397282Y-80784672D01*
X95247985Y-43228467D02*
X95176426Y-43263710D01*
X96041930Y-41328352D02*
X96063368Y-41405184D01*
X209850999Y-59897847D02*
X209914232Y-59946471D01*
X143311661Y-89477816D02*
X143299865Y-89398927D01*
X161717712Y-78810270D02*
X161785439Y-78852410D01*
X144720878Y-31597527D02*
X144800345Y-31590630D01*
X162088449Y-79110234D02*
X162140888Y-79170341D01*
X146480980Y-61517018D02*
X146463368Y-61594815D01*
X157338868Y-68681172D02*
X157395619Y-68625119D01*
X162279509Y-79365161D02*
X162319107Y-79434404D01*
X161785439Y-50852410D02*
X161850999Y-50897847D01*
X146190290Y-60232967D02*
X146236535Y-60297960D01*
X158085878Y-71358366D02*
X158009317Y-71335979D01*
X143684958Y-32139963D02*
X143738868Y-32081172D01*
X160048163Y-50830921D02*
X160116911Y-50790470D01*
X207462390Y-32469739D02*
X207500263Y-32399538D01*
X160016719Y-70347324D02*
X159987796Y-70421662D01*
X96080980Y-70117018D02*
X96063368Y-70194815D01*
X95370206Y-52709641D02*
X95346875Y-52633364D01*
X143462390Y-60469739D02*
X143500263Y-60399538D01*
X158241849Y-68208346D02*
X158320878Y-68197527D01*
X143586184Y-90134821D02*
X143541562Y-90068704D01*
X162033102Y-23052794D02*
X162088449Y-23110234D01*
X97576426Y-53663710D02*
X97503213Y-53695371D01*
X159500263Y-79399538D02*
X159541562Y-79331295D01*
X95574982Y-96598162D02*
X95633102Y-96652794D01*
X143795619Y-60025119D02*
X143855072Y-59971941D01*
X143586184Y-62134821D02*
X143541562Y-62068704D01*
X159955232Y-41105521D02*
X159987796Y-41178337D01*
X96485878Y-50641633D02*
X96563451Y-50623060D01*
X85500000Y-102000000D02*
X147500000Y-102000000D01*
X145197440Y-87615219D02*
X145275449Y-87631867D01*
X94639430Y-43406412D02*
X94559816Y-43411342D01*
X149500000Y-20000000D02*
X149500000Y-27166666D01*
X210088449Y-90289765D02*
X210033102Y-90347205D01*
X159955232Y-42494478D02*
X159919107Y-42565595D01*
X147500000Y-83166666D02*
X147500000Y-76000000D01*
X162480980Y-79882981D02*
X162494724Y-79961554D01*
X145785439Y-90547589D02*
X145717712Y-90589729D01*
X98190290Y-79232967D02*
X98236535Y-79297960D01*
X161118703Y-25797551D02*
X161039430Y-25806412D01*
X145647985Y-90628467D02*
X145576426Y-90663710D01*
X96080980Y-41482981D02*
X96094724Y-41561554D01*
X143291986Y-89080448D02*
X143299865Y-89001072D01*
X96409317Y-81735979D02*
X96333958Y-81709833D01*
X159500263Y-53000461D02*
X159462390Y-52930260D01*
X162190290Y-53167032D02*
X162140888Y-53229658D01*
X162463368Y-23805184D02*
X162480980Y-23882981D01*
X159370206Y-80709641D02*
X159346875Y-80633364D01*
X162319107Y-23434404D02*
X162355232Y-23505521D01*
X92899865Y-69998927D02*
X92891986Y-69919551D01*
X159299865Y-80001072D02*
X159311661Y-79922183D01*
X158400345Y-99409369D02*
X158320878Y-99402472D01*
X125333333Y-48000000D02*
X118000000Y-48000000D01*
X93648163Y-96430921D02*
X93716911Y-96390470D01*
X96641849Y-50608346D02*
X96720878Y-50597527D01*
X159981499Y-22874723D02*
X160048163Y-22830921D01*
X146140888Y-34229658D02*
X146088449Y-34289765D01*
X161647985Y-53628467D02*
X161576426Y-53663710D01*
X210510479Y-33120258D02*
X210512452Y-33200000D01*
X209197440Y-59615219D02*
X209275449Y-59631867D01*
X95514232Y-40546471D02*
X95574982Y-40598162D01*
X96080980Y-97482981D02*
X96094724Y-97561554D01*
X95385439Y-43147589D02*
X95317712Y-43189729D01*
X95790290Y-40832967D02*
X95836535Y-40897960D01*
X208333958Y-87690166D02*
X208409317Y-87664020D01*
X157787576Y-96353468D02*
X157859984Y-96320006D01*
X143288041Y-33239883D02*
X143288041Y-33160116D01*
X158639430Y-43406412D02*
X158559816Y-43411342D01*
X144800345Y-34809369D02*
X144720878Y-34802472D01*
X208800345Y-87590630D02*
X208880056Y-87587671D01*
X94797440Y-96215219D02*
X94875449Y-96231867D01*
X148501000Y-27166666D02*
X148499000Y-27166666D01*
X159836535Y-70702039D02*
X159790290Y-70767032D01*
X93141562Y-70668704D02*
X93100263Y-70600461D01*
X93100263Y-68999538D02*
X93141562Y-68931295D01*
X92899865Y-69601072D02*
X92911661Y-69522183D01*
X161428523Y-81723372D02*
X161352540Y-81747646D01*
X146088449Y-62289765D02*
X146033102Y-62347205D01*
X96333958Y-78690166D02*
X96409317Y-78664020D01*
X107666666Y-74999000D02*
X107666666Y-74000000D01*
X143795619Y-88025119D02*
X143855072Y-87971941D01*
X208409317Y-59664020D02*
X208485878Y-59641633D01*
X96104564Y-97959288D02*
X96094724Y-98038445D01*
X207738868Y-90318827D02*
X207684958Y-90260036D01*
X209428523Y-31676627D02*
X209503213Y-31704628D01*
X95450999Y-99102152D02*
X95385439Y-99147589D01*
X159738868Y-51081172D02*
X159795619Y-51025119D01*
X162441930Y-80671647D02*
X162416719Y-80747324D01*
X158085878Y-68241633D02*
X158163451Y-68223060D01*
X161039430Y-81806412D02*
X160959816Y-81811342D01*
X98088449Y-79110234D02*
X98140888Y-79170341D01*
X95462390Y-23469739D02*
X95500263Y-23399538D01*
X159634022Y-25198650D02*
X159586184Y-25134821D01*
X94163451Y-71376939D02*
X94085878Y-71358366D01*
X168666666Y-75001000D02*
X168666666Y-76000000D01*
X209647985Y-62628467D02*
X209576426Y-62663710D01*
X202666666Y-48000000D02*
X202666666Y-47001500D01*
X159370206Y-24709641D02*
X159346875Y-24633364D01*
X209974982Y-31998162D02*
X210033102Y-32052794D01*
X98387796Y-23578337D02*
X98416719Y-23652675D01*
X94333333Y-46000000D02*
X94333333Y-46999500D01*
X147500000Y-91833333D02*
X147500000Y-86166666D01*
X159879509Y-98634838D02*
X159836535Y-98702039D01*
X128333333Y-48000000D02*
X128333333Y-47001500D01*
X210236535Y-88297960D02*
X210279509Y-88365161D01*
X145974982Y-59998162D02*
X146033102Y-60052794D01*
X209717712Y-90589729D02*
X209647985Y-90628467D01*
X160116911Y-22790470D02*
X160187576Y-22753468D01*
X160110479Y-97720258D02*
X160112452Y-97800000D01*
X95633102Y-70947205D02*
X95574982Y-71001837D01*
X209352540Y-87652353D02*
X209428523Y-87676627D01*
X93648163Y-43169078D02*
X93581499Y-43125276D01*
X157648163Y-96430921D02*
X157716911Y-96390470D01*
X93787576Y-43246531D02*
X93716911Y-43209529D01*
X143299865Y-89001072D02*
X143311661Y-88922183D01*
X94085878Y-68241633D02*
X94163451Y-68223060D01*
X159288041Y-24239883D02*
X159288041Y-24160116D01*
X95688449Y-40710234D02*
X95740888Y-40770341D01*
X146140888Y-90229658D02*
X146088449Y-90289765D01*
X160959816Y-53811342D02*
X160880056Y-53812328D01*
X104666666Y-46999500D02*
X104666666Y-47001500D01*
X146279509Y-60365161D02*
X146319107Y-60434404D01*
X162190290Y-81167032D02*
X162140888Y-81229658D01*
X157933958Y-43309833D02*
X157859984Y-43279993D01*
X144563451Y-62776939D02*
X144485878Y-62758366D01*
X159688449Y-70889765D02*
X159633102Y-70947205D01*
X93455072Y-99028058D02*
X93395619Y-98974880D01*
X94320878Y-40197527D02*
X94400345Y-40190630D01*
X208880056Y-90812328D02*
X208800345Y-90809369D01*
X159103213Y-43295371D02*
X159028523Y-43323372D01*
X95879509Y-40965161D02*
X95919107Y-41034404D01*
X182000000Y-48000000D02*
X182000000Y-47001500D01*
X146033102Y-34347205D02*
X145974982Y-34401837D01*
X146441930Y-32728352D02*
X146463368Y-32805184D01*
X115000000Y-48000000D02*
X107666666Y-48000000D01*
X143299865Y-61398927D02*
X143291986Y-61319551D01*
X95317712Y-68410270D02*
X95385439Y-68452410D01*
X157859984Y-40320006D02*
X157933958Y-40290166D01*
X98416719Y-79652675D02*
X98441930Y-79728352D01*
X210494724Y-32961554D02*
X210504564Y-33040711D01*
X95428035Y-24858271D02*
X95397282Y-24784672D01*
X143541562Y-32331295D02*
X143586184Y-32265178D01*
X159795619Y-81374880D02*
X159738868Y-81318827D01*
X148501000Y-86166666D02*
X149500000Y-86166666D01*
X156927344Y-70156026D02*
X156911661Y-70077816D01*
X96259984Y-81679993D02*
X96187576Y-81646531D01*
X143500263Y-32399538D02*
X143541562Y-32331295D01*
X97039430Y-78593587D02*
X97118703Y-78602448D01*
X161275449Y-81768132D02*
X161197440Y-81784780D01*
X158085878Y-43358366D02*
X158009317Y-43335979D01*
X159514232Y-99053528D02*
X159450999Y-99102152D01*
X143327344Y-60843973D02*
X143346875Y-60766635D01*
X98140888Y-81229658D02*
X98088449Y-81289765D01*
X144485878Y-59641633D02*
X144563451Y-59623060D01*
X138666666Y-74999000D02*
X138666666Y-74000000D01*
X104666666Y-47001500D02*
X104666666Y-48000000D01*
X159740888Y-96770341D02*
X159790290Y-96832967D01*
X209850999Y-31897847D02*
X209914232Y-31946471D01*
X146319107Y-61965595D02*
X146279509Y-62034838D01*
X92946875Y-97366635D02*
X92970206Y-97290358D01*
X159790290Y-42767032D02*
X159740888Y-42829658D01*
X96800345Y-50590630D02*
X96880056Y-50587671D01*
X97914232Y-81453528D02*
X97850999Y-81502152D01*
X93716911Y-71209529D02*
X93648163Y-71169078D01*
X156946875Y-42233364D02*
X156927344Y-42156026D01*
X160110479Y-41720258D02*
X160112452Y-41800000D01*
X210441930Y-89671647D02*
X210416719Y-89747324D01*
X158320878Y-68197527D02*
X158400345Y-68190630D01*
X145118703Y-34797551D02*
X145039430Y-34806412D01*
X147500000Y-102000000D02*
X147500000Y-94833333D01*
X208720878Y-87597527D02*
X208800345Y-87590630D01*
X93716911Y-68390470D02*
X93787576Y-68353468D01*
X92970206Y-97290358D02*
X92997282Y-97215327D01*
X98140888Y-51170341D02*
X98190290Y-51232967D01*
X159987796Y-97178337D02*
X160016719Y-97252675D01*
X209785439Y-90547589D02*
X209717712Y-90589729D01*
X98463368Y-51805184D02*
X98480980Y-51882981D01*
X207397282Y-33784672D02*
X207370206Y-33709641D01*
X93517083Y-96521768D02*
X93581499Y-96474723D01*
X209850999Y-34502152D02*
X209785439Y-34547589D01*
X94718703Y-40202448D02*
X94797440Y-40215219D01*
X159346875Y-80633364D02*
X159327344Y-80556026D01*
X160110479Y-97879741D02*
X160104564Y-97959288D01*
X95836535Y-68897960D02*
X95879509Y-68965161D01*
X207462390Y-88469739D02*
X207500263Y-88399538D01*
X210480980Y-32882981D02*
X210494724Y-32961554D01*
X162355232Y-24894478D02*
X162319107Y-24965595D01*
X160800345Y-25809369D02*
X160720878Y-25802472D01*
X148499000Y-58166666D02*
X148501000Y-58166666D01*
X157648163Y-43169078D02*
X157581499Y-43125276D01*
X161850999Y-22897847D02*
X161914232Y-22946471D01*
X159514232Y-96546471D02*
X159574982Y-96598162D01*
X145352540Y-62747646D02*
X145275449Y-62768132D01*
X138666666Y-76000000D02*
X138666666Y-75001000D01*
X161275449Y-78631867D02*
X161352540Y-78652353D01*
X95462390Y-80930260D02*
X95428035Y-80858271D01*
X208259984Y-62679993D02*
X208187576Y-62646531D01*
X98355232Y-52894478D02*
X98319107Y-52965595D01*
X144800345Y-31590630D02*
X144880056Y-31587671D01*
X95688449Y-68710234D02*
X95740888Y-68770341D01*
X207291986Y-89080448D02*
X207299865Y-89001072D01*
X115000000Y-76000000D02*
X107666666Y-76000000D01*
X148499000Y-94833333D02*
X148501000Y-94833333D01*
X209914232Y-59946471D02*
X209974982Y-59998162D01*
X143981499Y-62525276D02*
X143917083Y-62478231D01*
X147500000Y-46000000D02*
X147500000Y-38833333D01*
X97352540Y-25747646D02*
X97275449Y-25768132D01*
X157517083Y-43078231D02*
X157455072Y-43028058D01*
X146441930Y-88728352D02*
X146463368Y-88805184D01*
X162512452Y-80200000D02*
X162510479Y-80279741D01*
X135666666Y-46999500D02*
X135666666Y-47001500D01*
X208409317Y-31664020D02*
X208485878Y-31641633D01*
X98279509Y-23365161D02*
X98319107Y-23434404D01*
X157284958Y-98860036D02*
X157234022Y-98798650D01*
X159586184Y-23265178D02*
X159634022Y-23201349D01*
X159879509Y-68965161D02*
X159919107Y-69034404D01*
X159688449Y-42889765D02*
X159633102Y-42947205D01*
X159103213Y-40304628D02*
X159176426Y-40336289D01*
X96116911Y-81609529D02*
X96048163Y-81569078D01*
X160063368Y-69405184D02*
X160080980Y-69482981D01*
X98480980Y-24517018D02*
X98463368Y-24594815D01*
X95385439Y-71147589D02*
X95317712Y-71189729D01*
X159574982Y-99001837D02*
X159514232Y-99053528D01*
X157186184Y-42734821D02*
X157141562Y-42668704D01*
X97275449Y-25768132D02*
X97197440Y-25784780D01*
X209503213Y-59704628D02*
X209576426Y-59736289D01*
X207346875Y-60766635D02*
X207370206Y-60690358D01*
X93338868Y-98918827D02*
X93284958Y-98860036D01*
X182000000Y-74000000D02*
X189333333Y-74000000D01*
X162463368Y-79805184D02*
X162480980Y-79882981D01*
X210190290Y-88232967D02*
X210236535Y-88297960D01*
X98510479Y-52120258D02*
X98512452Y-52200000D01*
X157062390Y-70530260D02*
X157028035Y-70458271D01*
X207795619Y-90374880D02*
X207738868Y-90318827D01*
X95299865Y-24001072D02*
X95311661Y-23922183D01*
X98088449Y-81289765D02*
X98033102Y-81347205D01*
X210463368Y-61594815D02*
X210441930Y-61671647D01*
X210504564Y-61040711D02*
X210510479Y-61120258D01*
X95919107Y-41034404D02*
X95955232Y-41105521D01*
X94241849Y-40208346D02*
X94320878Y-40197527D01*
X93581499Y-99125276D02*
X93517083Y-99078231D01*
X94241849Y-99391653D02*
X94163451Y-99376939D01*
X160563451Y-81776939D02*
X160485878Y-81758366D01*
X157338868Y-96681172D02*
X157395619Y-96625119D01*
X159291986Y-24080448D02*
X159299865Y-24001072D01*
X207981499Y-87874723D02*
X208048163Y-87830921D01*
X143397282Y-33784672D02*
X143370206Y-33709641D01*
X210494724Y-89438445D02*
X210480980Y-89517018D01*
X160041930Y-97328352D02*
X160063368Y-97405184D01*
X159103213Y-96304628D02*
X159176426Y-96336289D01*
X209914232Y-90453528D02*
X209850999Y-90502152D01*
X144259984Y-59720006D02*
X144333958Y-59690166D01*
X209352540Y-59652353D02*
X209428523Y-59676627D01*
X146088449Y-90289765D02*
X146033102Y-90347205D01*
X144259984Y-31720006D02*
X144333958Y-31690166D01*
X145197440Y-62784780D02*
X145118703Y-62797551D01*
X207795619Y-32025119D02*
X207855072Y-31971941D01*
X145428523Y-34723372D02*
X145352540Y-34747646D01*
X95370206Y-24709641D02*
X95346875Y-24633364D01*
X210355232Y-61894478D02*
X210319107Y-61965595D01*
X146510479Y-61120258D02*
X146512452Y-61200000D01*
X145850999Y-31897847D02*
X145914232Y-31946471D01*
X93716911Y-96390470D02*
X93787576Y-96353468D01*
X162504564Y-80040711D02*
X162510479Y-80120258D01*
X96333958Y-50690166D02*
X96409317Y-50664020D01*
X159541562Y-25068704D02*
X159500263Y-25000461D01*
X145974982Y-31998162D02*
X146033102Y-32052794D01*
X159428035Y-52858271D02*
X159397282Y-52784672D01*
X208333958Y-31690166D02*
X208409317Y-31664020D01*
X95346875Y-23766635D02*
X95370206Y-23690358D01*
X160959816Y-22588657D02*
X161039430Y-22593587D01*
X160880056Y-78587671D02*
X160959816Y-78588657D01*
X143917083Y-59921768D02*
X143981499Y-59874723D01*
X207299865Y-89001072D02*
X207311661Y-88922183D01*
X98279509Y-79365161D02*
X98319107Y-79434404D01*
X94718703Y-71397551D02*
X94639430Y-71406412D01*
X143541562Y-62068704D02*
X143500263Y-62000461D01*
X95790290Y-70767032D02*
X95740888Y-70829658D01*
X160187576Y-50753468D02*
X160259984Y-50720006D01*
X92891986Y-69680448D02*
X92899865Y-69601072D01*
X207327344Y-89556026D02*
X207311661Y-89477816D01*
X143981499Y-59874723D02*
X144048163Y-59830921D01*
X95917083Y-50921768D02*
X95981499Y-50874723D01*
X95574982Y-43001837D02*
X95514232Y-43053528D01*
X207346875Y-32766635D02*
X207370206Y-32690358D01*
X159385439Y-99147589D02*
X159317712Y-99189729D01*
X208116911Y-90609529D02*
X208048163Y-90569078D01*
X96563451Y-81776939D02*
X96485878Y-81758366D01*
X159317712Y-43189729D02*
X159247985Y-43228467D01*
X158952540Y-71347646D02*
X158875449Y-71368132D01*
X207288041Y-61239883D02*
X207288041Y-61160116D01*
X94875449Y-40231867D02*
X94952540Y-40252353D01*
X95586184Y-53134821D02*
X95541562Y-53068704D01*
X93395619Y-98974880D02*
X93338868Y-98918827D01*
X158009317Y-99335979D02*
X157933958Y-99309833D01*
X143855072Y-90428058D02*
X143795619Y-90374880D01*
X182000000Y-47001500D02*
X182000000Y-46999500D01*
X159311661Y-51922183D02*
X159327344Y-51843973D01*
X145647985Y-87771532D02*
X145717712Y-87810270D01*
X162236535Y-23297960D02*
X162279509Y-23365161D01*
X159317712Y-40410270D02*
X159385439Y-40452410D01*
X95917083Y-53478231D02*
X95855072Y-53428058D01*
X192333333Y-47001500D02*
X192333333Y-46999500D01*
X93186184Y-68865178D02*
X93234022Y-68801349D01*
X98416719Y-52747324D02*
X98387796Y-52821662D01*
X159634022Y-51201349D02*
X159684958Y-51139963D01*
X128333333Y-46999500D02*
X128333333Y-46000000D01*
X95634022Y-25198650D02*
X95586184Y-25134821D01*
X128333333Y-74000000D02*
X135666666Y-74000000D01*
X207428035Y-33858271D02*
X207397282Y-33784672D01*
X207299865Y-33001072D02*
X207311661Y-32922183D01*
X93859984Y-68320006D02*
X93933958Y-68290166D01*
X160094724Y-41561554D02*
X160104564Y-41640711D01*
X143795619Y-90374880D02*
X143738868Y-90318827D01*
X144959816Y-34811342D02*
X144880056Y-34812328D01*
X146512452Y-89200000D02*
X146510479Y-89279741D01*
X157062390Y-69069739D02*
X157100263Y-68999538D01*
X156888041Y-97839883D02*
X156888041Y-97760116D01*
X146441930Y-60728352D02*
X146463368Y-60805184D01*
X94320878Y-99402472D02*
X94241849Y-99391653D01*
X98190290Y-51232967D02*
X98236535Y-51297960D01*
X207855072Y-90428058D02*
X207795619Y-90374880D01*
X161647985Y-81628467D02*
X161576426Y-81663710D01*
X95317712Y-99189729D02*
X95247985Y-99228467D01*
X145647985Y-31771532D02*
X145717712Y-31810270D01*
X162480980Y-24517018D02*
X162463368Y-24594815D01*
X149500000Y-91833333D02*
X148501000Y-91833333D01*
X96116911Y-50790470D02*
X96187576Y-50753468D01*
X162510479Y-80120258D02*
X162512452Y-80200000D01*
X94333333Y-74000000D02*
X94333333Y-74999000D01*
X148501000Y-55166666D02*
X148499000Y-55166666D01*
X118000000Y-76000000D02*
X118000000Y-75001000D01*
X208880056Y-87587671D02*
X208959816Y-87588657D01*
X161333333Y-46000000D02*
X168666666Y-46000000D01*
X157395619Y-42974880D02*
X157338868Y-42918827D01*
X144259984Y-90679993D02*
X144187576Y-90646531D01*
X97647985Y-53628467D02*
X97576426Y-53663710D01*
X159836535Y-68897960D02*
X159879509Y-68965161D01*
X107666666Y-47001500D02*
X107666666Y-46999500D01*
X159855072Y-81428058D02*
X159795619Y-81374880D01*
X149500000Y-76000000D02*
X149500000Y-83166666D01*
X96959816Y-22588657D02*
X97039430Y-22593587D01*
X145576426Y-31736289D02*
X145647985Y-31771532D01*
X199666666Y-48000000D02*
X192333333Y-48000000D01*
X158400345Y-68190630D02*
X158480056Y-68187671D01*
X95311661Y-79922183D02*
X95327344Y-79843973D01*
X97647985Y-78771532D02*
X97717712Y-78810270D01*
X159176426Y-40336289D02*
X159247985Y-40371532D01*
X161974982Y-22998162D02*
X162033102Y-23052794D01*
X143634022Y-60201349D02*
X143684958Y-60139963D01*
X207855072Y-62428058D02*
X207795619Y-62374880D01*
X125333333Y-47001500D02*
X125333333Y-48000000D01*
X149500000Y-58166666D02*
X149500000Y-63833333D01*
X144800345Y-59590630D02*
X144880056Y-59587671D01*
X96063368Y-70194815D02*
X96041930Y-70271647D01*
X161974982Y-50998162D02*
X162033102Y-51052794D01*
X209576426Y-59736289D02*
X209647985Y-59771532D01*
X210190290Y-32232967D02*
X210236535Y-32297960D01*
X97785439Y-50852410D02*
X97850999Y-50897847D01*
X158320878Y-99402472D02*
X158241849Y-99391653D01*
X156891986Y-97680448D02*
X156899865Y-97601072D01*
X207917083Y-62478231D02*
X207855072Y-62428058D01*
X93234022Y-70798650D02*
X93186184Y-70734821D01*
X96259984Y-53679993D02*
X96187576Y-53646531D01*
X96880056Y-22587671D02*
X96959816Y-22588657D01*
X210279509Y-60365161D02*
X210319107Y-60434404D01*
X128333333Y-47001500D02*
X128333333Y-46999500D01*
X210416719Y-32652675D02*
X210441930Y-32728352D01*
X97352540Y-53747646D02*
X97275449Y-53768132D01*
X93284958Y-96739963D02*
X93338868Y-96681172D01*
X146463368Y-61594815D02*
X146441930Y-61671647D01*
X118000000Y-74000000D02*
X125333333Y-74000000D01*
X125333333Y-74000000D02*
X125333333Y-74999000D01*
X125333333Y-46000000D02*
X125333333Y-46999500D01*
X207288041Y-33239883D02*
X207288041Y-33160116D01*
X161118703Y-22602448D02*
X161197440Y-22615219D01*
X159327344Y-79843973D02*
X159346875Y-79766635D01*
X98088449Y-23110234D02*
X98140888Y-23170341D01*
X93455072Y-68571941D02*
X93517083Y-68521768D01*
X162033102Y-53347205D02*
X161974982Y-53401837D01*
X92891986Y-97680448D02*
X92899865Y-97601072D01*
X95288041Y-52239883D02*
X95288041Y-52160116D01*
X144048163Y-59830921D02*
X144116911Y-59790470D01*
X160259984Y-81679993D02*
X160187576Y-81646531D01*
X207541562Y-88331295D02*
X207586184Y-88265178D01*
X143917083Y-62478231D02*
X143855072Y-62428058D01*
X159541562Y-53068704D02*
X159500263Y-53000461D01*
X209850999Y-90502152D02*
X209785439Y-90547589D01*
X158952540Y-96252353D02*
X159028523Y-96276627D01*
X158559816Y-43411342D02*
X158480056Y-43412328D01*
X97118703Y-22602448D02*
X97197440Y-22615219D01*
X145914232Y-59946471D02*
X145974982Y-59998162D01*
X208563451Y-62776939D02*
X208485878Y-62758366D01*
X125333333Y-46999500D02*
X125333333Y-47001500D01*
X159176426Y-68336289D02*
X159247985Y-68371532D01*
X94320878Y-71402472D02*
X94241849Y-71391653D01*
X208720878Y-31597527D02*
X208800345Y-31590630D01*
X210140888Y-88170341D02*
X210190290Y-88232967D01*
X146319107Y-33965595D02*
X146279509Y-34034838D01*
X93028035Y-41141728D02*
X93062390Y-41069739D01*
X210510479Y-61279741D02*
X210504564Y-61359288D01*
X208048163Y-87830921D02*
X208116911Y-87790470D01*
X95541562Y-25068704D02*
X95500263Y-25000461D01*
X145275449Y-90768132D02*
X145197440Y-90784780D01*
X95288041Y-80160116D02*
X95291986Y-80080448D01*
X144720878Y-62802472D02*
X144641849Y-62791653D01*
X160112452Y-97800000D02*
X160110479Y-97879741D01*
X146463368Y-32805184D02*
X146480980Y-32882981D01*
X148501000Y-91833333D02*
X148499000Y-91833333D01*
X149500000Y-74000000D02*
X158333333Y-74000000D01*
X157455072Y-99028058D02*
X157395619Y-98974880D01*
X157100263Y-70600461D02*
X157062390Y-70530260D01*
X159288041Y-52160116D02*
X159291986Y-52080448D01*
X157338868Y-40681172D02*
X157395619Y-40625119D01*
X115000000Y-74999000D02*
X115000000Y-75001000D01*
X202666666Y-76000000D02*
X202666666Y-75001000D01*
X158333333Y-75001000D02*
X158333333Y-76000000D01*
X145717712Y-62589729D02*
X145647985Y-62628467D01*
X156891986Y-41680448D02*
X156899865Y-41601072D01*
X145118703Y-59602448D02*
X145197440Y-59615219D01*
X207428035Y-60541728D02*
X207462390Y-60469739D01*
X149500000Y-63833333D02*
X148501000Y-63833333D01*
X97850999Y-50897847D02*
X97914232Y-50946471D01*
X96259984Y-50720006D02*
X96333958Y-50690166D01*
X209914232Y-31946471D02*
X209974982Y-31998162D01*
X147500000Y-94833333D02*
X148499000Y-94833333D01*
X156911661Y-97522183D02*
X156927344Y-97443973D01*
X159385439Y-68452410D02*
X159450999Y-68497847D01*
X146463368Y-60805184D02*
X146480980Y-60882981D01*
X159397282Y-80784672D02*
X159370206Y-80709641D01*
X97576426Y-81663710D02*
X97503213Y-81695371D01*
X143541562Y-34068704D02*
X143500263Y-34000461D01*
X95176426Y-71263710D02*
X95103213Y-71295371D01*
X156970206Y-41290358D02*
X156997282Y-41215327D01*
X96080980Y-98117018D02*
X96063368Y-98194815D01*
X145785439Y-31852410D02*
X145850999Y-31897847D01*
X146033102Y-90347205D02*
X145974982Y-90401837D01*
X95790290Y-98767032D02*
X95740888Y-98829658D01*
X94559816Y-71411342D02*
X94480056Y-71412328D01*
X162441930Y-79728352D02*
X162463368Y-79805184D01*
X161197440Y-81784780D02*
X161118703Y-81797551D01*
X158875449Y-99368132D02*
X158797440Y-99384780D01*
X209503213Y-31704628D02*
X209576426Y-31736289D01*
X157648163Y-71169078D02*
X157581499Y-71125276D01*
X162236535Y-25102039D02*
X162190290Y-25167032D01*
X210463368Y-89594815D02*
X210441930Y-89671647D01*
X97503213Y-53695371D02*
X97428523Y-53723372D01*
X207634022Y-60201349D02*
X207684958Y-60139963D01*
X144720878Y-90802472D02*
X144641849Y-90791653D01*
X179000000Y-46000000D02*
X179000000Y-46999500D01*
X208116911Y-31790470D02*
X208187576Y-31753468D01*
X145503213Y-62695371D02*
X145428523Y-62723372D01*
X94718703Y-68202448D02*
X94797440Y-68215219D01*
X159955232Y-97105521D02*
X159987796Y-97178337D01*
X159987796Y-70421662D02*
X159955232Y-70494478D01*
X146480980Y-60882981D02*
X146494724Y-60961554D01*
X92970206Y-41290358D02*
X92997282Y-41215327D01*
X95327344Y-80556026D02*
X95311661Y-80477816D01*
X159633102Y-98947205D02*
X159574982Y-99001837D01*
X93648163Y-99169078D02*
X93581499Y-99125276D01*
X158333333Y-74000000D02*
X158333333Y-74999000D01*
X161647985Y-22771532D02*
X161717712Y-22810270D01*
X159574982Y-43001837D02*
X159514232Y-43053528D01*
X147500000Y-66833333D02*
X148499000Y-66833333D01*
X158009317Y-96264020D02*
X158085878Y-96241633D01*
X98463368Y-24594815D02*
X98441930Y-24671647D01*
X159247985Y-99228467D02*
X159176426Y-99263710D01*
X207738868Y-60081172D02*
X207795619Y-60025119D01*
X209785439Y-31852410D02*
X209850999Y-31897847D01*
X209352540Y-90747646D02*
X209275449Y-90768132D01*
X93787576Y-71246531D02*
X93716911Y-71209529D01*
X104666666Y-76000000D02*
X97333333Y-76000000D01*
X146510479Y-33279741D02*
X146504564Y-33359288D01*
X158241849Y-96208346D02*
X158320878Y-96197527D01*
X157284958Y-42860036D02*
X157234022Y-42798650D01*
X96641849Y-53791653D02*
X96563451Y-53776939D01*
X92946875Y-69366635D02*
X92970206Y-69290358D01*
X207541562Y-60331295D02*
X207586184Y-60265178D01*
X96094724Y-69561554D02*
X96104564Y-69640711D01*
X160187576Y-25646531D02*
X160116911Y-25609529D01*
X162236535Y-51297960D02*
X162279509Y-51365161D01*
X93859984Y-40320006D02*
X93933958Y-40290166D01*
X144880056Y-87587671D02*
X144959816Y-87588657D01*
X93933958Y-43309833D02*
X93859984Y-43279993D01*
X210140888Y-34229658D02*
X210088449Y-34289765D01*
X160485878Y-53758366D02*
X160409317Y-53735979D01*
X96048163Y-50830921D02*
X96116911Y-50790470D01*
X92911661Y-69522183D02*
X92927344Y-69443973D01*
X145275449Y-87631867D02*
X145352540Y-87652353D01*
X93859984Y-43279993D02*
X93787576Y-43246531D01*
X160110479Y-69879741D02*
X160104564Y-69959288D01*
X148501000Y-63833333D02*
X148499000Y-63833333D01*
X94163451Y-43376939D02*
X94085878Y-43358366D01*
X160259984Y-50720006D02*
X160333958Y-50690166D01*
X210504564Y-33359288D02*
X210494724Y-33438445D01*
X98504564Y-52359288D02*
X98494724Y-52438445D01*
X209974982Y-59998162D02*
X210033102Y-60052794D01*
X145974982Y-34401837D02*
X145914232Y-34453528D01*
X145275449Y-59631867D02*
X145352540Y-59652353D01*
X210355232Y-88505521D02*
X210387796Y-88578337D01*
X159879509Y-96965161D02*
X159919107Y-97034404D01*
X157455072Y-43028058D02*
X157395619Y-42974880D01*
X93517083Y-40521768D02*
X93581499Y-40474723D01*
X95634022Y-51201349D02*
X95684958Y-51139963D01*
X96110479Y-41720258D02*
X96112452Y-41800000D01*
X161576426Y-50736289D02*
X161647985Y-50771532D01*
X162441930Y-24671647D02*
X162416719Y-24747324D01*
X94400345Y-43409369D02*
X94320878Y-43402472D01*
X160116911Y-78790470D02*
X160187576Y-78753468D01*
X209647985Y-34628467D02*
X209576426Y-34663710D01*
X171666666Y-74999000D02*
X171666666Y-74000000D01*
X159740888Y-40770341D02*
X159790290Y-40832967D01*
X146355232Y-33894478D02*
X146319107Y-33965595D01*
X96959816Y-81811342D02*
X96880056Y-81812328D01*
X211500000Y-46000000D02*
X211500000Y-20000000D01*
X159103213Y-71295371D02*
X159028523Y-71323372D01*
X95955232Y-42494478D02*
X95919107Y-42565595D01*
X96080980Y-42117018D02*
X96063368Y-42194815D01*
X143541562Y-88331295D02*
X143586184Y-88265178D01*
X159385439Y-43147589D02*
X159317712Y-43189729D01*
X92997282Y-98384672D02*
X92970206Y-98309641D01*
X162494724Y-79961554D02*
X162504564Y-80040711D01*
X208959816Y-62811342D02*
X208880056Y-62812328D01*
X207346875Y-61633364D02*
X207327344Y-61556026D01*
X93338868Y-70918827D02*
X93284958Y-70860036D01*
X159688449Y-98889765D02*
X159633102Y-98947205D01*
X161197440Y-78615219D02*
X161275449Y-78631867D01*
X98140888Y-53229658D02*
X98088449Y-53289765D01*
X92927344Y-69443973D02*
X92946875Y-69366635D01*
X209785439Y-87852410D02*
X209850999Y-87897847D01*
X145118703Y-62797551D02*
X145039430Y-62806412D01*
X207541562Y-32331295D02*
X207586184Y-32265178D01*
X192333333Y-48000000D02*
X192333333Y-47001500D01*
X145197440Y-34784780D02*
X145118703Y-34797551D01*
X161576426Y-22736289D02*
X161647985Y-22771532D01*
X94400345Y-99409369D02*
X94320878Y-99402472D01*
X207634022Y-62198650D02*
X207586184Y-62134821D01*
X94333333Y-74999000D02*
X94333333Y-75001000D01*
X97850999Y-22897847D02*
X97914232Y-22946471D01*
X96720878Y-22597527D02*
X96800345Y-22590630D01*
X162387796Y-24821662D02*
X162355232Y-24894478D01*
X158009317Y-68264020D02*
X158085878Y-68241633D01*
X98441930Y-51728352D02*
X98463368Y-51805184D01*
X209785439Y-59852410D02*
X209850999Y-59897847D01*
X160041930Y-98271647D02*
X160016719Y-98347324D01*
X95836535Y-70702039D02*
X95790290Y-70767032D01*
X162140888Y-53229658D02*
X162088449Y-53289765D01*
X97352540Y-50652353D02*
X97428523Y-50676627D01*
X98140888Y-25229658D02*
X98088449Y-25289765D01*
X135666666Y-47001500D02*
X135666666Y-48000000D01*
X159541562Y-51331295D02*
X159586184Y-51265178D01*
X92888041Y-69760116D02*
X92891986Y-69680448D01*
X161717712Y-81589729D02*
X161647985Y-81628467D01*
X145647985Y-62628467D02*
X145576426Y-62663710D01*
X161785439Y-53547589D02*
X161717712Y-53589729D01*
X98494724Y-80438445D02*
X98480980Y-80517018D01*
X146504564Y-89040711D02*
X146510479Y-89120258D01*
X145428523Y-62723372D02*
X145352540Y-62747646D01*
X145039430Y-31593587D02*
X145118703Y-31602448D01*
X96104564Y-41640711D02*
X96110479Y-41720258D01*
X207370206Y-32690358D02*
X207397282Y-32615327D01*
X208485878Y-87641633D02*
X208563451Y-87623060D01*
X208485878Y-90758366D02*
X208409317Y-90735979D01*
X107666666Y-46999500D02*
X107666666Y-46000000D01*
X160048163Y-81569078D02*
X159981499Y-81525276D01*
X209576426Y-34663710D02*
X209503213Y-34695371D01*
X209428523Y-62723372D02*
X209352540Y-62747646D01*
X159311661Y-23922183D02*
X159327344Y-23843973D01*
X210319107Y-61965595D02*
X210279509Y-62034838D01*
X97974982Y-53401837D02*
X97914232Y-53453528D01*
X159955232Y-69105521D02*
X159987796Y-69178337D01*
X209576426Y-62663710D02*
X209503213Y-62695371D01*
X145914232Y-34453528D02*
X145850999Y-34502152D01*
X144333958Y-31690166D02*
X144409317Y-31664020D01*
X159919107Y-42565595D02*
X159879509Y-42634838D01*
X199666666Y-47001500D02*
X199666666Y-48000000D01*
X159987796Y-41178337D02*
X160016719Y-41252675D01*
X161576426Y-53663710D02*
X161503213Y-53695371D01*
X143327344Y-89556026D02*
X143311661Y-89477816D01*
X159028523Y-99323372D02*
X158952540Y-99347646D01*
X94241849Y-43391653D02*
X94163451Y-43376939D01*
X207299865Y-61001072D02*
X207311661Y-60922183D01*
X95299865Y-80001072D02*
X95311661Y-79922183D01*
X98387796Y-79578337D02*
X98416719Y-79652675D01*
X159855072Y-25428058D02*
X159795619Y-25374880D01*
X148499000Y-63833333D02*
X147500000Y-63833333D01*
X95500263Y-81000461D02*
X95462390Y-80930260D01*
X159981499Y-53525276D02*
X159917083Y-53478231D01*
X162463368Y-52594815D02*
X162441930Y-52671647D01*
X156888041Y-69839883D02*
X156888041Y-69760116D01*
X92927344Y-98156026D02*
X92911661Y-98077816D01*
X148501000Y-58166666D02*
X149500000Y-58166666D01*
X96116911Y-22790470D02*
X96187576Y-22753468D01*
X159370206Y-23690358D02*
X159397282Y-23615327D01*
X146190290Y-34167032D02*
X146140888Y-34229658D01*
X210319107Y-33965595D02*
X210279509Y-34034838D01*
X95291986Y-52319551D02*
X95288041Y-52239883D01*
X159327344Y-24556026D02*
X159311661Y-24477816D01*
X98355232Y-80894478D02*
X98319107Y-80965595D01*
X160104564Y-41959288D02*
X160094724Y-42038445D01*
X162140888Y-25229658D02*
X162088449Y-25289765D01*
X161197440Y-53784780D02*
X161118703Y-53797551D01*
X157234022Y-96801349D02*
X157284958Y-96739963D01*
X160641849Y-78608346D02*
X160720878Y-78597527D01*
X97647985Y-22771532D02*
X97717712Y-22810270D01*
X159103213Y-68304628D02*
X159176426Y-68336289D01*
X209197440Y-34784780D02*
X209118703Y-34797551D01*
X146355232Y-60505521D02*
X146387796Y-60578337D01*
X159684958Y-81260036D02*
X159634022Y-81198650D01*
X95327344Y-24556026D02*
X95311661Y-24477816D01*
X143370206Y-33709641D02*
X143346875Y-33633364D01*
X208959816Y-87588657D02*
X209039430Y-87593587D01*
X156927344Y-69443973D02*
X156946875Y-69366635D01*
X210387796Y-60578337D02*
X210416719Y-60652675D01*
X94952540Y-40252353D02*
X95028523Y-40276627D01*
X160016719Y-97252675D02*
X160041930Y-97328352D01*
X156911661Y-98077816D02*
X156899865Y-97998927D01*
X146510479Y-89120258D02*
X146512452Y-89200000D01*
X159462390Y-51469739D02*
X159500263Y-51399538D01*
X159514232Y-71053528D02*
X159450999Y-71102152D01*
X95176426Y-99263710D02*
X95103213Y-99295371D01*
X207299865Y-61398927D02*
X207291986Y-61319551D01*
X143346875Y-32766635D02*
X143370206Y-32690358D01*
X143288041Y-89160116D02*
X143291986Y-89080448D01*
X144116911Y-87790470D02*
X144187576Y-87753468D01*
X161717712Y-22810270D02*
X161785439Y-22852410D01*
X94009317Y-40264020D02*
X94085878Y-40241633D01*
X145352540Y-34747646D02*
X145275449Y-34768132D01*
X156911661Y-42077816D02*
X156899865Y-41998927D01*
X207738868Y-62318827D02*
X207684958Y-62260036D01*
X207541562Y-62068704D02*
X207500263Y-62000461D01*
X97428523Y-50676627D02*
X97503213Y-50704628D01*
X208563451Y-87623060D02*
X208641849Y-87608346D01*
X94163451Y-68223060D02*
X94241849Y-68208346D01*
X210236535Y-60297960D02*
X210279509Y-60365161D01*
X210512452Y-89200000D02*
X210510479Y-89279741D01*
X208880056Y-34812328D02*
X208800345Y-34809369D01*
X95514232Y-96546471D02*
X95574982Y-96598162D01*
X199666666Y-75001000D02*
X199666666Y-76000000D01*
X161785439Y-78852410D02*
X161850999Y-78897847D01*
X158559816Y-68188657D02*
X158639430Y-68193587D01*
X97333333Y-46999500D02*
X97333333Y-46000000D01*
X162355232Y-51505521D02*
X162387796Y-51578337D01*
X162088449Y-81289765D02*
X162033102Y-81347205D01*
X179000000Y-47001500D02*
X179000000Y-48000000D01*
X104666666Y-46000000D02*
X104666666Y-46999500D01*
X95311661Y-52477816D02*
X95299865Y-52398927D01*
X94400345Y-96190630D02*
X94480056Y-96187671D01*
X159428035Y-24858271D02*
X159397282Y-24784672D01*
X143370206Y-32690358D02*
X143397282Y-32615327D01*
X159462390Y-52930260D02*
X159428035Y-52858271D01*
X161039430Y-53806412D02*
X160959816Y-53811342D01*
X94009317Y-68264020D02*
X94085878Y-68241633D01*
X210088449Y-88110234D02*
X210140888Y-88170341D01*
X146512452Y-33200000D02*
X146510479Y-33279741D01*
X107666666Y-75001000D02*
X107666666Y-74999000D01*
X95684958Y-25260036D02*
X95634022Y-25198650D01*
X208563451Y-34776939D02*
X208485878Y-34758366D01*
X208187576Y-90646531D02*
X208116911Y-90609529D01*
X210510479Y-33279741D02*
X210504564Y-33359288D01*
X159500263Y-23399538D02*
X159541562Y-23331295D01*
X98319107Y-51434404D02*
X98355232Y-51505521D01*
X161275449Y-25768132D02*
X161197440Y-25784780D01*
X210088449Y-62289765D02*
X210033102Y-62347205D01*
X92946875Y-42233364D02*
X92927344Y-42156026D01*
X157933958Y-96290166D02*
X158009317Y-96264020D01*
X207684958Y-88139963D02*
X207738868Y-88081172D01*
X94639430Y-40193587D02*
X94718703Y-40202448D01*
X97275449Y-22631867D02*
X97352540Y-22652353D01*
X148499000Y-30166666D02*
X148501000Y-30166666D01*
X135666666Y-48000000D02*
X128333333Y-48000000D01*
X98236535Y-25102039D02*
X98190290Y-25167032D01*
X159836535Y-42702039D02*
X159790290Y-42767032D01*
X143346875Y-88766635D02*
X143370206Y-88690358D01*
X162387796Y-79578337D02*
X162416719Y-79652675D01*
X159500263Y-81000461D02*
X159462390Y-80930260D01*
X96016719Y-97252675D02*
X96041930Y-97328352D01*
X192333333Y-76000000D02*
X192333333Y-75001000D01*
X93581499Y-68474723D02*
X93648163Y-68430921D01*
X148501000Y-94833333D02*
X149500000Y-94833333D01*
X138666666Y-74000000D02*
X147500000Y-74000000D01*
X98441930Y-24671647D02*
X98416719Y-24747324D01*
X146463368Y-88805184D02*
X146480980Y-88882981D01*
X210355232Y-60505521D02*
X210387796Y-60578337D01*
X159541562Y-79331295D02*
X159586184Y-79265178D01*
X95634022Y-53198650D02*
X95586184Y-53134821D01*
X162355232Y-80894478D02*
X162319107Y-80965595D01*
X207299865Y-33398927D02*
X207291986Y-33319551D01*
X98355232Y-23505521D02*
X98387796Y-23578337D01*
X159385439Y-71147589D02*
X159317712Y-71189729D01*
X159633102Y-42947205D02*
X159574982Y-43001837D01*
X207311661Y-89477816D02*
X207299865Y-89398927D01*
X95633102Y-42947205D02*
X95574982Y-43001837D01*
X161352540Y-81747646D02*
X161275449Y-81768132D01*
X93859984Y-71279993D02*
X93787576Y-71246531D01*
X159462390Y-24930260D02*
X159428035Y-24858271D01*
X168666666Y-47001500D02*
X168666666Y-48000000D01*
X160485878Y-22641633D02*
X160563451Y-22623060D01*
X145503213Y-31704628D02*
X145576426Y-31736289D01*
X171666666Y-76000000D02*
X171666666Y-75001000D01*
X96720878Y-25802472D02*
X96641849Y-25791653D01*
X207500263Y-60399538D02*
X207541562Y-60331295D01*
X160104564Y-41640711D02*
X160110479Y-41720258D01*
X210416719Y-60652675D02*
X210441930Y-60728352D01*
X161118703Y-53797551D02*
X161039430Y-53806412D01*
X159397282Y-79615327D02*
X159428035Y-79541728D01*
X95299865Y-80398927D02*
X95291986Y-80319551D01*
X92899865Y-41601072D02*
X92911661Y-41522183D01*
X207586184Y-88265178D02*
X207634022Y-88201349D01*
X207586184Y-34134821D02*
X207541562Y-34068704D01*
X159500263Y-25000461D02*
X159462390Y-24930260D01*
X159299865Y-24398927D02*
X159291986Y-24319551D01*
X160080980Y-42117018D02*
X160063368Y-42194815D01*
X207288041Y-61160116D02*
X207291986Y-61080448D01*
X207541562Y-34068704D02*
X207500263Y-34000461D01*
X160016719Y-42347324D02*
X159987796Y-42421662D01*
X162033102Y-79052794D02*
X162088449Y-79110234D01*
X157234022Y-68801349D02*
X157284958Y-68739963D01*
X159981499Y-50874723D02*
X160048163Y-50830921D01*
X147500000Y-86166666D02*
X148499000Y-86166666D01*
X182000000Y-75001000D02*
X182000000Y-74999000D01*
X207541562Y-90068704D02*
X207500263Y-90000461D01*
X94797440Y-71384780D02*
X94718703Y-71397551D01*
X145576426Y-62663710D02*
X145503213Y-62695371D01*
X208959816Y-31588657D02*
X209039430Y-31593587D01*
X148499000Y-55166666D02*
X147500000Y-55166666D01*
X94639430Y-99406412D02*
X94559816Y-99411342D01*
X162512452Y-24200000D02*
X162510479Y-24279741D01*
X157028035Y-41141728D02*
X157062390Y-41069739D01*
X159987796Y-98421662D02*
X159955232Y-98494478D01*
X156891986Y-41919551D02*
X156888041Y-41839883D01*
X97850999Y-53502152D02*
X97785439Y-53547589D01*
X161850999Y-81502152D02*
X161785439Y-81547589D01*
X118000000Y-46000000D02*
X125333333Y-46000000D01*
X160959816Y-78588657D02*
X161039430Y-78593587D01*
X209039430Y-87593587D02*
X209118703Y-87602448D01*
X94333333Y-46999500D02*
X94333333Y-47001500D01*
X207327344Y-61556026D02*
X207311661Y-61477816D01*
X144409317Y-34735979D02*
X144333958Y-34709833D01*
X146279509Y-88365161D02*
X146319107Y-88434404D01*
X162236535Y-81102039D02*
X162190290Y-81167032D01*
X98494724Y-23961554D02*
X98504564Y-24040711D01*
X160110479Y-41879741D02*
X160104564Y-41959288D01*
X95346875Y-80633364D02*
X95327344Y-80556026D01*
X94009317Y-96264020D02*
X94085878Y-96241633D01*
X115000000Y-46999500D02*
X115000000Y-47001500D01*
X95176426Y-43263710D02*
X95103213Y-43295371D01*
X95795619Y-23025119D02*
X95855072Y-22971941D01*
X146140888Y-62229658D02*
X146088449Y-62289765D01*
X161974982Y-53401837D02*
X161914232Y-53453528D01*
X158718703Y-43397551D02*
X158639430Y-43406412D01*
X95574982Y-40598162D02*
X95633102Y-40652794D01*
X138666666Y-48000000D02*
X138666666Y-47001500D01*
X146387796Y-89821662D02*
X146355232Y-89894478D01*
X207397282Y-89784672D02*
X207370206Y-89709641D01*
X157859984Y-71279993D02*
X157787576Y-71246531D01*
X209275449Y-62768132D02*
X209197440Y-62784780D01*
X96080980Y-69482981D02*
X96094724Y-69561554D01*
X143288041Y-61160116D02*
X143291986Y-61080448D01*
X156888041Y-41839883D02*
X156888041Y-41760116D01*
X143327344Y-32843973D02*
X143346875Y-32766635D01*
X208409317Y-87664020D02*
X208485878Y-87641633D01*
X162190290Y-23232967D02*
X162236535Y-23297960D01*
X162441930Y-52671647D02*
X162416719Y-52747324D01*
X208959816Y-90811342D02*
X208880056Y-90812328D01*
X162480980Y-23882981D02*
X162494724Y-23961554D01*
X210504564Y-33040711D02*
X210510479Y-33120258D01*
X95462390Y-52930260D02*
X95428035Y-52858271D01*
X158718703Y-40202448D02*
X158797440Y-40215219D01*
X93455072Y-43028058D02*
X93395619Y-42974880D01*
X156888041Y-69760116D02*
X156891986Y-69680448D01*
X162190290Y-51232967D02*
X162236535Y-51297960D01*
X208641849Y-90791653D02*
X208563451Y-90776939D01*
X160041930Y-69328352D02*
X160063368Y-69405184D01*
X85500000Y-48000000D02*
X85500000Y-74000000D01*
X207291986Y-61080448D02*
X207299865Y-61001072D01*
X207397282Y-32615327D02*
X207428035Y-32541728D01*
X156946875Y-98233364D02*
X156927344Y-98156026D01*
X96104564Y-69959288D02*
X96094724Y-70038445D01*
X210236535Y-90102039D02*
X210190290Y-90167032D01*
X159450999Y-40497847D02*
X159514232Y-40546471D01*
X210279509Y-34034838D02*
X210236535Y-34102039D01*
X145039430Y-34806412D02*
X144959816Y-34811342D01*
X98279509Y-25034838D02*
X98236535Y-25102039D01*
X159541562Y-23331295D02*
X159586184Y-23265178D01*
X207586184Y-60265178D02*
X207634022Y-60201349D01*
X96800345Y-78590630D02*
X96880056Y-78587671D01*
X144409317Y-62735979D02*
X144333958Y-62709833D01*
X144333958Y-59690166D02*
X144409317Y-59664020D01*
X94085878Y-99358366D02*
X94009317Y-99335979D01*
X98416719Y-51652675D02*
X98441930Y-51728352D01*
X144259984Y-34679993D02*
X144187576Y-34646531D01*
X97785439Y-22852410D02*
X97850999Y-22897847D01*
X159684958Y-51139963D02*
X159738868Y-51081172D01*
X94163451Y-99376939D02*
X94085878Y-99358366D01*
X97118703Y-25797551D02*
X97039430Y-25806412D01*
X161503213Y-22704628D02*
X161576426Y-22736289D01*
X98279509Y-81034838D02*
X98236535Y-81102039D01*
X157141562Y-96931295D02*
X157186184Y-96865178D01*
X95317712Y-40410270D02*
X95385439Y-40452410D01*
X146416719Y-32652675D02*
X146441930Y-32728352D01*
X146480980Y-33517018D02*
X146463368Y-33594815D01*
X95981499Y-50874723D02*
X96048163Y-50830921D01*
X160333958Y-81709833D02*
X160259984Y-81679993D01*
X149500000Y-94833333D02*
X149500000Y-102000000D01*
X160333958Y-53709833D02*
X160259984Y-53679993D01*
X159327344Y-51843973D02*
X159346875Y-51766635D01*
X209197440Y-90784780D02*
X209118703Y-90797551D01*
X143855072Y-62428058D02*
X143795619Y-62374880D01*
X104666666Y-74999000D02*
X104666666Y-75001000D01*
X199666666Y-76000000D02*
X192333333Y-76000000D01*
X95103213Y-99295371D02*
X95028523Y-99323372D01*
X92997282Y-97215327D02*
X93028035Y-97141728D01*
X96409317Y-25735979D02*
X96333958Y-25709833D01*
X97503213Y-50704628D02*
X97576426Y-50736289D01*
X161333333Y-74999000D02*
X161333333Y-74000000D01*
X95879509Y-68965161D02*
X95919107Y-69034404D01*
X98319107Y-24965595D02*
X98279509Y-25034838D01*
X97785439Y-78852410D02*
X97850999Y-78897847D01*
X158875449Y-40231867D02*
X158952540Y-40252353D01*
X143738868Y-32081172D02*
X143795619Y-32025119D01*
X160048163Y-25569078D02*
X159981499Y-25525276D01*
X98387796Y-24821662D02*
X98355232Y-24894478D01*
X95795619Y-25374880D02*
X95738868Y-25318827D01*
X96094724Y-97561554D02*
X96104564Y-97640711D01*
X158400345Y-43409369D02*
X158320878Y-43402472D01*
X157100263Y-96999538D02*
X157141562Y-96931295D01*
X145785439Y-62547589D02*
X145717712Y-62589729D01*
X207917083Y-59921768D02*
X207981499Y-59874723D01*
X95103213Y-43295371D02*
X95028523Y-43323372D01*
X98140888Y-79170341D02*
X98190290Y-79232967D01*
X98510479Y-52279741D02*
X98504564Y-52359288D01*
X209197440Y-62784780D02*
X209118703Y-62797551D01*
X160063368Y-98194815D02*
X160041930Y-98271647D01*
X210504564Y-89040711D02*
X210510479Y-89120258D01*
X143634022Y-88201349D02*
X143684958Y-88139963D01*
X95633102Y-96652794D02*
X95688449Y-96710234D01*
X158320878Y-43402472D02*
X158241849Y-43391653D01*
X96563451Y-78623060D02*
X96641849Y-78608346D01*
X208116911Y-87790470D02*
X208187576Y-87753468D01*
X209974982Y-62401837D02*
X209914232Y-62453528D01*
X210355232Y-33894478D02*
X210319107Y-33965595D01*
X93517083Y-71078231D02*
X93455072Y-71028058D01*
X93062390Y-69069739D02*
X93100263Y-68999538D01*
X85500000Y-76000000D02*
X85500000Y-102000000D01*
X156997282Y-70384672D02*
X156970206Y-70309641D01*
X95684958Y-51139963D02*
X95738868Y-51081172D01*
X94333333Y-47001500D02*
X94333333Y-48000000D01*
X160959816Y-25811342D02*
X160880056Y-25812328D01*
X95385439Y-96452410D02*
X95450999Y-96497847D01*
X199666666Y-46000000D02*
X199666666Y-46999500D01*
X95684958Y-79139963D02*
X95738868Y-79081172D01*
X93234022Y-68801349D02*
X93284958Y-68739963D01*
X97974982Y-81401837D02*
X97914232Y-81453528D01*
X93648163Y-71169078D02*
X93581499Y-71125276D01*
X161576426Y-81663710D02*
X161503213Y-81695371D01*
X144800345Y-90809369D02*
X144720878Y-90802472D01*
X93186184Y-42734821D02*
X93141562Y-42668704D01*
X162416719Y-79652675D02*
X162441930Y-79728352D01*
X149500000Y-38833333D02*
X149500000Y-46000000D01*
X143738868Y-88081172D02*
X143795619Y-88025119D01*
X209647985Y-59771532D02*
X209717712Y-59810270D01*
X159500263Y-51399538D02*
X159541562Y-51331295D01*
X156891986Y-97919551D02*
X156888041Y-97839883D01*
X96259984Y-22720006D02*
X96333958Y-22690166D01*
X96720878Y-50597527D02*
X96800345Y-50590630D01*
X146510479Y-61279741D02*
X146504564Y-61359288D01*
X93338868Y-68681172D02*
X93395619Y-68625119D01*
X207795619Y-62374880D02*
X207738868Y-62318827D01*
X158241849Y-40208346D02*
X158320878Y-40197527D01*
X209717712Y-62589729D02*
X209647985Y-62628467D01*
X143462390Y-61930260D02*
X143428035Y-61858271D01*
X144563451Y-59623060D02*
X144641849Y-59608346D01*
X92888041Y-41839883D02*
X92888041Y-41760116D01*
X158480056Y-68187671D02*
X158559816Y-68188657D01*
X93395619Y-70974880D02*
X93338868Y-70918827D01*
X146236535Y-88297960D02*
X146279509Y-88365161D01*
X97914232Y-22946471D02*
X97974982Y-22998162D01*
X210033102Y-90347205D02*
X209974982Y-90401837D01*
X98033102Y-79052794D02*
X98088449Y-79110234D01*
X95514232Y-68546471D02*
X95574982Y-68598162D01*
X157186184Y-98734821D02*
X157141562Y-98668704D01*
X158163451Y-68223060D02*
X158241849Y-68208346D01*
X208048163Y-34569078D02*
X207981499Y-34525276D01*
X207311661Y-61477816D02*
X207299865Y-61398927D01*
X95633102Y-68652794D02*
X95688449Y-68710234D01*
X210510479Y-89120258D02*
X210512452Y-89200000D01*
X143291986Y-33080448D02*
X143299865Y-33001072D01*
X161914232Y-25453528D02*
X161850999Y-25502152D01*
X93062390Y-70530260D02*
X93028035Y-70458271D01*
X207586184Y-32265178D02*
X207634022Y-32201349D01*
X144880056Y-59587671D02*
X144959816Y-59588657D01*
X159738868Y-53318827D02*
X159684958Y-53260036D01*
X211500000Y-20000000D02*
X149500000Y-20000000D01*
X93581499Y-96474723D02*
X93648163Y-96430921D01*
X158797440Y-40215219D02*
X158875449Y-40231867D01*
X162279509Y-51365161D02*
X162319107Y-51434404D01*
X209118703Y-59602448D02*
X209197440Y-59615219D01*
X93859984Y-99279993D02*
X93787576Y-99246531D01*
X115000000Y-46000000D02*
X115000000Y-46999500D01*
X95795619Y-79025119D02*
X95855072Y-78971941D01*
X143327344Y-33556026D02*
X143311661Y-33477816D01*
X207738868Y-88081172D02*
X207795619Y-88025119D01*
X207462390Y-61930260D02*
X207428035Y-61858271D01*
X146387796Y-32578337D02*
X146416719Y-32652675D01*
X161428523Y-53723372D02*
X161352540Y-53747646D01*
X145974982Y-90401837D02*
X145914232Y-90453528D01*
X95855072Y-53428058D02*
X95795619Y-53374880D01*
X95462390Y-24930260D02*
X95428035Y-24858271D01*
X161503213Y-81695371D02*
X161428523Y-81723372D01*
X144720878Y-59597527D02*
X144800345Y-59590630D01*
X207500263Y-90000461D02*
X207462390Y-89930260D01*
X96041930Y-69328352D02*
X96063368Y-69405184D01*
X107666666Y-76000000D02*
X107666666Y-75001000D01*
X146510479Y-89279741D02*
X146504564Y-89359288D01*
X162088449Y-25289765D02*
X162033102Y-25347205D01*
X157581499Y-43125276D02*
X157517083Y-43078231D01*
X144563451Y-34776939D02*
X144485878Y-34758366D01*
X210279509Y-88365161D02*
X210319107Y-88434404D01*
X94952540Y-71347646D02*
X94875449Y-71368132D01*
X96063368Y-42194815D02*
X96041930Y-42271647D01*
X144116911Y-31790470D02*
X144187576Y-31753468D01*
X207795619Y-60025119D02*
X207855072Y-59971941D01*
X98140888Y-23170341D02*
X98190290Y-23232967D01*
X145576426Y-90663710D02*
X145503213Y-90695371D01*
X98236535Y-51297960D02*
X98279509Y-51365161D01*
X144563451Y-87623060D02*
X144641849Y-87608346D01*
X158009317Y-71335979D02*
X157933958Y-71309833D01*
X159790290Y-40832967D02*
X159836535Y-40897960D01*
X143462390Y-32469739D02*
X143500263Y-32399538D01*
X93100263Y-42600461D02*
X93062390Y-42530260D01*
X159688449Y-40710234D02*
X159740888Y-40770341D01*
X95586184Y-81134821D02*
X95541562Y-81068704D01*
X146319107Y-60434404D02*
X146355232Y-60505521D01*
X161717712Y-53589729D02*
X161647985Y-53628467D01*
X209503213Y-34695371D02*
X209428523Y-34723372D01*
X96485878Y-25758366D02*
X96409317Y-25735979D01*
X208187576Y-34646531D02*
X208116911Y-34609529D01*
X210510479Y-61120258D02*
X210512452Y-61200000D01*
X168666666Y-74999000D02*
X168666666Y-75001000D01*
X208333958Y-62709833D02*
X208259984Y-62679993D01*
X157284958Y-40739963D02*
X157338868Y-40681172D01*
X143634022Y-62198650D02*
X143586184Y-62134821D01*
X160333958Y-25709833D02*
X160259984Y-25679993D01*
X158085878Y-40241633D02*
X158163451Y-40223060D01*
X160048163Y-53569078D02*
X159981499Y-53525276D01*
X157517083Y-40521768D02*
X157581499Y-40474723D01*
X96409317Y-22664020D02*
X96485878Y-22641633D01*
X161275449Y-53768132D02*
X161197440Y-53784780D01*
X95176426Y-96336289D02*
X95247985Y-96371532D01*
X209785439Y-34547589D02*
X209717712Y-34589729D01*
X159397282Y-51615327D02*
X159428035Y-51541728D01*
X210319107Y-32434404D02*
X210355232Y-32505521D01*
X159028523Y-68276627D02*
X159103213Y-68304628D01*
X95541562Y-53068704D02*
X95500263Y-53000461D01*
X157787576Y-43246531D02*
X157716911Y-43209529D01*
X149500000Y-27166666D02*
X148501000Y-27166666D01*
X162441930Y-51728352D02*
X162463368Y-51805184D01*
X144409317Y-31664020D02*
X144485878Y-31641633D01*
X94875449Y-99368132D02*
X94797440Y-99384780D01*
X161039430Y-25806412D02*
X160959816Y-25811342D01*
X210033102Y-88052794D02*
X210088449Y-88110234D01*
X147500000Y-38833333D02*
X148499000Y-38833333D01*
X97576426Y-22736289D02*
X97647985Y-22771532D01*
X146441930Y-61671647D02*
X146416719Y-61747324D01*
X156997282Y-69215327D02*
X157028035Y-69141728D01*
X98512452Y-24200000D02*
X98510479Y-24279741D01*
X96333958Y-25709833D02*
X96259984Y-25679993D01*
X93028035Y-42458271D02*
X92997282Y-42384672D01*
X144333958Y-34709833D02*
X144259984Y-34679993D01*
X156970206Y-97290358D02*
X156997282Y-97215327D01*
X160259984Y-25679993D02*
X160187576Y-25646531D01*
X161039430Y-22593587D02*
X161118703Y-22602448D01*
X209503213Y-62695371D02*
X209428523Y-62723372D01*
X145118703Y-31602448D02*
X145197440Y-31615219D01*
X149500000Y-83166666D02*
X148501000Y-83166666D01*
X96187576Y-53646531D02*
X96116911Y-53609529D01*
X158480056Y-71412328D02*
X158400345Y-71409369D01*
X95028523Y-99323372D02*
X94952540Y-99347646D01*
X162387796Y-52821662D02*
X162355232Y-52894478D01*
X162190290Y-25167032D02*
X162140888Y-25229658D01*
X93141562Y-42668704D02*
X93100263Y-42600461D01*
X95574982Y-99001837D02*
X95514232Y-99053528D01*
X156970206Y-42309641D02*
X156946875Y-42233364D01*
X96563451Y-22623060D02*
X96641849Y-22608346D01*
X160104564Y-97959288D02*
X160094724Y-98038445D01*
X92911661Y-41522183D02*
X92927344Y-41443973D01*
X95917083Y-78921768D02*
X95981499Y-78874723D01*
X182000000Y-46999500D02*
X182000000Y-46000000D01*
X160094724Y-98038445D02*
X160080980Y-98117018D01*
X146279509Y-32365161D02*
X146319107Y-32434404D01*
X159740888Y-42829658D02*
X159688449Y-42889765D01*
X94480056Y-99412328D02*
X94400345Y-99409369D01*
X125333333Y-75001000D02*
X125333333Y-76000000D01*
X96110479Y-69720258D02*
X96112452Y-69800000D01*
X96116911Y-78790470D02*
X96187576Y-78753468D01*
X97647985Y-25628467D02*
X97576426Y-25663710D01*
X162510479Y-80279741D02*
X162504564Y-80359288D01*
X208048163Y-59830921D02*
X208116911Y-59790470D01*
X128333333Y-76000000D02*
X128333333Y-75001000D01*
X160880056Y-50587671D02*
X160959816Y-50588657D01*
X98504564Y-24359288D02*
X98494724Y-24438445D01*
X210387796Y-32578337D02*
X210416719Y-32652675D01*
X143684958Y-62260036D02*
X143634022Y-62198650D01*
X160641849Y-22608346D02*
X160720878Y-22597527D01*
X97717712Y-81589729D02*
X97647985Y-81628467D01*
X157787576Y-68353468D02*
X157859984Y-68320006D01*
X158952540Y-68252353D02*
X159028523Y-68276627D01*
X97974982Y-78998162D02*
X98033102Y-79052794D01*
X143299865Y-61001072D02*
X143311661Y-60922183D01*
X98190290Y-25167032D02*
X98140888Y-25229658D01*
X159311661Y-24477816D02*
X159299865Y-24398927D01*
X159855072Y-22971941D02*
X159917083Y-22921768D01*
X143346875Y-33633364D02*
X143327344Y-33556026D01*
X158163451Y-43376939D02*
X158085878Y-43358366D01*
X210088449Y-60110234D02*
X210140888Y-60170341D01*
X143917083Y-31921768D02*
X143981499Y-31874723D01*
X143397282Y-61784672D02*
X143370206Y-61709641D01*
X171666666Y-46999500D02*
X171666666Y-46000000D01*
X98279509Y-51365161D02*
X98319107Y-51434404D01*
X98355232Y-79505521D02*
X98387796Y-79578337D01*
X143634022Y-90198650D02*
X143586184Y-90134821D01*
X97333333Y-48000000D02*
X97333333Y-47001500D01*
X159450999Y-99102152D02*
X159385439Y-99147589D01*
X144187576Y-34646531D02*
X144116911Y-34609529D01*
X95346875Y-51766635D02*
X95370206Y-51690358D01*
X159327344Y-80556026D02*
X159311661Y-80477816D01*
X144720878Y-87597527D02*
X144800345Y-87590630D01*
X182000000Y-76000000D02*
X182000000Y-75001000D01*
X96333958Y-53709833D02*
X96259984Y-53679993D01*
X94333333Y-48000000D02*
X85500000Y-48000000D01*
X98504564Y-24040711D02*
X98510479Y-24120258D01*
X162033102Y-25347205D02*
X161974982Y-25401837D01*
X160116911Y-25609529D02*
X160048163Y-25569078D01*
X158639430Y-68193587D02*
X158718703Y-68202448D01*
X207346875Y-88766635D02*
X207370206Y-88690358D01*
X149500000Y-30166666D02*
X149500000Y-35833333D01*
X189333333Y-74000000D02*
X189333333Y-74999000D01*
X146494724Y-88961554D02*
X146504564Y-89040711D01*
X85500000Y-46000000D02*
X94333333Y-46000000D01*
X209576426Y-87736289D02*
X209647985Y-87771532D01*
X95291986Y-80319551D02*
X95288041Y-80239883D01*
X209428523Y-87676627D02*
X209503213Y-87704628D01*
X146140888Y-60170341D02*
X146190290Y-60232967D01*
X157859984Y-96320006D02*
X157933958Y-96290166D01*
X157716911Y-96390470D02*
X157787576Y-96353468D01*
X159397282Y-23615327D02*
X159428035Y-23541728D01*
X162319107Y-79434404D02*
X162355232Y-79505521D01*
X160112452Y-69800000D02*
X160110479Y-69879741D01*
X143738868Y-90318827D02*
X143684958Y-90260036D01*
X97275449Y-50631867D02*
X97352540Y-50652353D01*
X162504564Y-52359288D02*
X162494724Y-52438445D01*
X159385439Y-96452410D02*
X159450999Y-96497847D01*
X146088449Y-34289765D02*
X146033102Y-34347205D01*
X208409317Y-62735979D02*
X208333958Y-62709833D01*
X162279509Y-81034838D02*
X162236535Y-81102039D01*
X96720878Y-53802472D02*
X96641849Y-53791653D01*
X95740888Y-42829658D02*
X95688449Y-42889765D01*
X162504564Y-80359288D02*
X162494724Y-80438445D01*
X93100263Y-40999538D02*
X93141562Y-40931295D01*
X96259984Y-78720006D02*
X96333958Y-78690166D01*
X159288041Y-24160116D02*
X159291986Y-24080448D01*
X107666666Y-46000000D02*
X115000000Y-46000000D01*
X161974982Y-78998162D02*
X162033102Y-79052794D01*
X210441930Y-32728352D02*
X210463368Y-32805184D01*
X98504564Y-80040711D02*
X98510479Y-80120258D01*
X208641849Y-59608346D02*
X208720878Y-59597527D01*
X94559816Y-99411342D02*
X94480056Y-99412328D01*
X158480056Y-96187671D02*
X158559816Y-96188657D01*
X95299865Y-52398927D02*
X95291986Y-52319551D01*
X97576426Y-25663710D02*
X97503213Y-25695371D01*
X207397282Y-60615327D02*
X207428035Y-60541728D01*
X158480056Y-99412328D02*
X158400345Y-99409369D01*
X160187576Y-81646531D02*
X160116911Y-81609529D01*
X160641849Y-53791653D02*
X160563451Y-53776939D01*
X93062390Y-97069739D02*
X93100263Y-96999538D01*
X94639430Y-96193587D02*
X94718703Y-96202448D01*
X160041930Y-41328352D02*
X160063368Y-41405184D01*
X93028035Y-69141728D02*
X93062390Y-69069739D01*
X146033102Y-60052794D02*
X146088449Y-60110234D01*
X208116911Y-34609529D02*
X208048163Y-34569078D01*
X146416719Y-88652675D02*
X146441930Y-88728352D01*
X159633102Y-68652794D02*
X159688449Y-68710234D01*
X95291986Y-52080448D02*
X95299865Y-52001072D01*
X95500263Y-51399538D02*
X95541562Y-51331295D01*
X159247985Y-43228467D02*
X159176426Y-43263710D01*
X209275449Y-34768132D02*
X209197440Y-34784780D01*
X182000000Y-46000000D02*
X189333333Y-46000000D01*
X95586184Y-79265178D02*
X95634022Y-79201349D01*
X94952540Y-43347646D02*
X94875449Y-43368132D01*
X145717712Y-31810270D02*
X145785439Y-31852410D01*
X189333333Y-74999000D02*
X189333333Y-75001000D01*
X159688449Y-96710234D02*
X159740888Y-96770341D01*
X125333333Y-76000000D02*
X118000000Y-76000000D01*
X148501000Y-66833333D02*
X149500000Y-66833333D01*
X98319107Y-52965595D02*
X98279509Y-53034838D01*
X95981499Y-81525276D02*
X95917083Y-81478231D01*
X94952540Y-96252353D02*
X95028523Y-96276627D01*
X159919107Y-41034404D02*
X159955232Y-41105521D01*
X159288041Y-52239883D02*
X159288041Y-52160116D01*
X98190290Y-81167032D02*
X98140888Y-81229658D01*
X161974982Y-25401837D02*
X161914232Y-25453528D01*
X96720878Y-81802472D02*
X96641849Y-81791653D01*
X148501000Y-38833333D02*
X149500000Y-38833333D01*
X208116911Y-59790470D02*
X208187576Y-59753468D01*
X98504564Y-52040711D02*
X98510479Y-52120258D01*
X98441930Y-80671647D02*
X98416719Y-80747324D01*
X182000000Y-74999000D02*
X182000000Y-74000000D01*
X207500263Y-62000461D02*
X207462390Y-61930260D01*
X207684958Y-32139963D02*
X207738868Y-32081172D01*
X210480980Y-33517018D02*
X210463368Y-33594815D01*
X95327344Y-52556026D02*
X95311661Y-52477816D01*
X209850999Y-62502152D02*
X209785439Y-62547589D01*
X94009317Y-71335979D02*
X93933958Y-71309833D01*
X145717712Y-34589729D02*
X145647985Y-34628467D01*
X209039430Y-62806412D02*
X208959816Y-62811342D01*
X208485878Y-59641633D02*
X208563451Y-59623060D01*
X160409317Y-81735979D02*
X160333958Y-81709833D01*
X209914232Y-62453528D02*
X209850999Y-62502152D01*
X95879509Y-70634838D02*
X95836535Y-70702039D01*
X98279509Y-53034838D02*
X98236535Y-53102039D01*
X162494724Y-24438445D02*
X162480980Y-24517018D01*
X209974982Y-34401837D02*
X209914232Y-34453528D01*
X162088449Y-53289765D02*
X162033102Y-53347205D01*
X146088449Y-60110234D02*
X146140888Y-60170341D01*
X156970206Y-69290358D02*
X156997282Y-69215327D01*
X156888041Y-41760116D02*
X156891986Y-41680448D01*
X138666666Y-75001000D02*
X138666666Y-74999000D01*
X202666666Y-46999500D02*
X202666666Y-46000000D01*
X210463368Y-32805184D02*
X210480980Y-32882981D01*
X168666666Y-74000000D02*
X168666666Y-74999000D01*
X143738868Y-62318827D02*
X143684958Y-62260036D01*
X207370206Y-33709641D02*
X207346875Y-33633364D01*
X207462390Y-33930260D02*
X207428035Y-33858271D01*
X159428035Y-51541728D02*
X159462390Y-51469739D01*
X146355232Y-61894478D02*
X146319107Y-61965595D01*
X95397282Y-52784672D02*
X95370206Y-52709641D01*
X209576426Y-31736289D02*
X209647985Y-31771532D01*
X207634022Y-88201349D02*
X207684958Y-88139963D01*
X160720878Y-53802472D02*
X160641849Y-53791653D01*
X156997282Y-98384672D02*
X156970206Y-98309641D01*
X159574982Y-96598162D02*
X159633102Y-96652794D01*
X157234022Y-98798650D02*
X157186184Y-98734821D01*
X143288041Y-89239883D02*
X143288041Y-89160116D01*
X192333333Y-46999500D02*
X192333333Y-46000000D01*
X94875449Y-96231867D02*
X94952540Y-96252353D01*
X156911661Y-70077816D02*
X156899865Y-69998927D01*
X143397282Y-89784672D02*
X143370206Y-89709641D01*
X97974982Y-50998162D02*
X98033102Y-51052794D01*
X95450999Y-96497847D02*
X95514232Y-96546471D01*
X210140888Y-90229658D02*
X210088449Y-90289765D01*
X93395619Y-68625119D02*
X93455072Y-68571941D01*
X159634022Y-79201349D02*
X159684958Y-79139963D01*
X158163451Y-96223060D02*
X158241849Y-96208346D01*
X95176426Y-68336289D02*
X95247985Y-68371532D01*
X207428035Y-32541728D02*
X207462390Y-32469739D01*
X96116911Y-53609529D02*
X96048163Y-53569078D01*
X96959816Y-50588657D02*
X97039430Y-50593587D01*
X144116911Y-59790470D02*
X144187576Y-59753468D01*
X95385439Y-40452410D02*
X95450999Y-40497847D01*
X143500263Y-90000461D02*
X143462390Y-89930260D01*
X157028035Y-98458271D02*
X156997282Y-98384672D01*
X94085878Y-43358366D02*
X94009317Y-43335979D01*
X159855072Y-53428058D02*
X159795619Y-53374880D01*
X156946875Y-41366635D02*
X156970206Y-41290358D01*
X146319107Y-32434404D02*
X146355232Y-32505521D01*
X95103213Y-40304628D02*
X95176426Y-40336289D01*
X96409317Y-78664020D02*
X96485878Y-78641633D01*
X157395619Y-98974880D02*
X157338868Y-98918827D01*
X160187576Y-22753468D02*
X160259984Y-22720006D01*
X93933958Y-68290166D02*
X94009317Y-68264020D01*
X146494724Y-89438445D02*
X146480980Y-89517018D01*
X159790290Y-96832967D02*
X159836535Y-96897960D01*
X157716911Y-71209529D02*
X157648163Y-71169078D01*
X158797440Y-43384780D02*
X158718703Y-43397551D01*
X93284958Y-40739963D02*
X93338868Y-40681172D01*
X95541562Y-51331295D02*
X95586184Y-51265178D01*
X158559816Y-99411342D02*
X158480056Y-99412328D01*
X97647985Y-81628467D02*
X97576426Y-81663710D01*
X159955232Y-98494478D02*
X159919107Y-98565595D01*
X156997282Y-42384672D02*
X156970206Y-42309641D01*
X160259984Y-53679993D02*
X160187576Y-53646531D01*
X96112452Y-41800000D02*
X96110479Y-41879741D01*
X147500000Y-55166666D02*
X147500000Y-48000000D01*
X157716911Y-40390470D02*
X157787576Y-40353468D01*
X210088449Y-34289765D02*
X210033102Y-34347205D01*
X98416719Y-23652675D02*
X98441930Y-23728352D01*
X144800345Y-62809369D02*
X144720878Y-62802472D01*
X161647985Y-78771532D02*
X161717712Y-78810270D01*
X97197440Y-78615219D02*
X97275449Y-78631867D01*
X95311661Y-24477816D02*
X95299865Y-24398927D01*
X143299865Y-33398927D02*
X143291986Y-33319551D01*
X210387796Y-61821662D02*
X210355232Y-61894478D01*
X146236535Y-62102039D02*
X146190290Y-62167032D01*
X143855072Y-34428058D02*
X143795619Y-34374880D01*
X95514232Y-99053528D02*
X95450999Y-99102152D01*
X160112452Y-41800000D02*
X160110479Y-41879741D01*
X98494724Y-24438445D02*
X98480980Y-24517018D01*
X94952540Y-68252353D02*
X95028523Y-68276627D01*
X96063368Y-97405184D02*
X96080980Y-97482981D01*
X93787576Y-40353468D02*
X93859984Y-40320006D01*
X162140888Y-81229658D02*
X162088449Y-81289765D01*
X147500000Y-35833333D02*
X147500000Y-30166666D01*
X161333333Y-48000000D02*
X161333333Y-47001500D01*
X147500000Y-30166666D02*
X148499000Y-30166666D01*
X97914232Y-25453528D02*
X97850999Y-25502152D01*
X98236535Y-53102039D02*
X98190290Y-53167032D01*
X161333333Y-76000000D02*
X161333333Y-75001000D01*
X93395619Y-42974880D02*
X93338868Y-42918827D01*
X143634022Y-34198650D02*
X143586184Y-34134821D01*
X162140888Y-79170341D02*
X162190290Y-79232967D01*
X162494724Y-80438445D02*
X162480980Y-80517018D01*
X161576426Y-25663710D02*
X161503213Y-25695371D01*
X159684958Y-53260036D02*
X159634022Y-53198650D01*
X159291986Y-80319551D02*
X159288041Y-80239883D01*
X95028523Y-71323372D02*
X94952540Y-71347646D01*
X143795619Y-34374880D02*
X143738868Y-34318827D01*
X115000000Y-75001000D02*
X115000000Y-76000000D01*
X159917083Y-53478231D02*
X159855072Y-53428058D01*
X107666666Y-48000000D02*
X107666666Y-47001500D01*
X98088449Y-51110234D02*
X98140888Y-51170341D01*
X95247985Y-71228467D02*
X95176426Y-71263710D01*
X97785439Y-81547589D02*
X97717712Y-81589729D01*
X97197440Y-50615219D02*
X97275449Y-50631867D01*
X97428523Y-22676627D02*
X97503213Y-22704628D01*
X160720878Y-50597527D02*
X160800345Y-50590630D01*
X143311661Y-88922183D02*
X143327344Y-88843973D01*
X146387796Y-60578337D02*
X146416719Y-60652675D01*
X144485878Y-87641633D02*
X144563451Y-87623060D01*
X157234022Y-70798650D02*
X157186184Y-70734821D01*
X96063368Y-41405184D02*
X96080980Y-41482981D01*
X159738868Y-25318827D02*
X159684958Y-25260036D01*
X97118703Y-53797551D02*
X97039430Y-53806412D01*
X93581499Y-71125276D02*
X93517083Y-71078231D01*
X159855072Y-78971941D02*
X159917083Y-78921768D01*
X94718703Y-99397551D02*
X94639430Y-99406412D01*
X159836535Y-96897960D02*
X159879509Y-96965161D01*
X157933958Y-40290166D02*
X158009317Y-40264020D01*
X98441930Y-23728352D02*
X98463368Y-23805184D01*
X96016719Y-69252675D02*
X96041930Y-69328352D01*
X143291986Y-89319551D02*
X143288041Y-89239883D01*
X211500000Y-74000000D02*
X211500000Y-48000000D01*
X148499000Y-38833333D02*
X148501000Y-38833333D01*
X157716911Y-68390470D02*
X157787576Y-68353468D01*
X158639430Y-40193587D02*
X158718703Y-40202448D01*
X199666666Y-74000000D02*
X199666666Y-74999000D01*
X95450999Y-68497847D02*
X95514232Y-68546471D01*
X162319107Y-52965595D02*
X162279509Y-53034838D01*
X146504564Y-33040711D02*
X146510479Y-33120258D01*
X159684958Y-23139963D02*
X159738868Y-23081172D01*
X94797440Y-68215219D02*
X94875449Y-68231867D01*
X146387796Y-88578337D02*
X146416719Y-88652675D01*
X95987796Y-69178337D02*
X96016719Y-69252675D01*
X97850999Y-78897847D02*
X97914232Y-78946471D01*
X98033102Y-53347205D02*
X97974982Y-53401837D01*
X161850999Y-53502152D02*
X161785439Y-53547589D01*
X95879509Y-42634838D02*
X95836535Y-42702039D01*
X210480980Y-88882981D02*
X210494724Y-88961554D01*
X96016719Y-42347324D02*
X95987796Y-42421662D01*
X95299865Y-24398927D02*
X95291986Y-24319551D01*
X210416719Y-89747324D02*
X210387796Y-89821662D01*
X210504564Y-89359288D02*
X210494724Y-89438445D01*
X162416719Y-51652675D02*
X162441930Y-51728352D01*
X207288041Y-89239883D02*
X207288041Y-89160116D01*
X159917083Y-25478231D02*
X159855072Y-25428058D01*
X92946875Y-41366635D02*
X92970206Y-41290358D01*
X160800345Y-53809369D02*
X160720878Y-53802472D01*
X160259984Y-78720006D02*
X160333958Y-78690166D01*
X159684958Y-79139963D02*
X159738868Y-79081172D01*
X157062390Y-97069739D02*
X157100263Y-96999538D01*
X149500000Y-66833333D02*
X149500000Y-74000000D01*
X98387796Y-52821662D02*
X98355232Y-52894478D01*
X144641849Y-87608346D02*
X144720878Y-87597527D01*
X159385439Y-40452410D02*
X159450999Y-40497847D01*
X159176426Y-71263710D02*
X159103213Y-71295371D01*
X96563451Y-50623060D02*
X96641849Y-50608346D01*
X93141562Y-98668704D02*
X93100263Y-98600461D01*
X97576426Y-78736289D02*
X97647985Y-78771532D01*
X159634022Y-53198650D02*
X159586184Y-53134821D01*
X161428523Y-25723372D02*
X161352540Y-25747646D01*
X96563451Y-53776939D02*
X96485878Y-53758366D01*
X208048163Y-31830921D02*
X208116911Y-31790470D01*
X146480980Y-89517018D02*
X146463368Y-89594815D01*
X98033102Y-25347205D02*
X97974982Y-25401837D01*
X95397282Y-80784672D02*
X95370206Y-80709641D01*
X160080980Y-70117018D02*
X160063368Y-70194815D01*
X95955232Y-97105521D02*
X95987796Y-97178337D01*
X95917083Y-81478231D02*
X95855072Y-81428058D01*
X210480980Y-89517018D02*
X210463368Y-89594815D01*
X96063368Y-69405184D02*
X96080980Y-69482981D01*
X208641849Y-31608346D02*
X208720878Y-31597527D01*
X146190290Y-62167032D02*
X146140888Y-62229658D01*
X95919107Y-69034404D02*
X95955232Y-69105521D01*
X208959816Y-59588657D02*
X209039430Y-59593587D01*
X146190290Y-32232967D02*
X146236535Y-32297960D01*
X146236535Y-60297960D02*
X146279509Y-60365161D01*
X158400345Y-40190630D02*
X158480056Y-40187671D01*
X145576426Y-34663710D02*
X145503213Y-34695371D01*
X95385439Y-68452410D02*
X95450999Y-68497847D01*
X147500000Y-76000000D02*
X138666666Y-76000000D01*
X94639430Y-68193587D02*
X94718703Y-68202448D01*
X160880056Y-22587671D02*
X160959816Y-22588657D01*
X93062390Y-41069739D02*
X93100263Y-40999538D01*
X162190290Y-79232967D02*
X162236535Y-79297960D01*
X146504564Y-33359288D02*
X146494724Y-33438445D01*
X95790290Y-96832967D02*
X95836535Y-96897960D01*
X92891986Y-97919551D02*
X92888041Y-97839883D01*
X147500000Y-48000000D02*
X138666666Y-48000000D01*
X161785439Y-25547589D02*
X161717712Y-25589729D01*
X145576426Y-87736289D02*
X145647985Y-87771532D01*
X158241849Y-99391653D02*
X158163451Y-99376939D01*
X143299865Y-33001072D02*
X143311661Y-32922183D01*
X94797440Y-99384780D02*
X94718703Y-99397551D01*
X144187576Y-90646531D02*
X144116911Y-90609529D01*
X95500263Y-53000461D02*
X95462390Y-52930260D01*
X161717712Y-50810270D02*
X161785439Y-50852410D01*
X160016719Y-41252675D02*
X160041930Y-41328352D01*
X138666666Y-46999500D02*
X138666666Y-46000000D01*
X156899865Y-41998927D02*
X156891986Y-41919551D01*
X159790290Y-68832967D02*
X159836535Y-68897960D01*
X93186184Y-40865178D02*
X93234022Y-40801349D01*
X97039430Y-53806412D02*
X96959816Y-53811342D01*
X96016719Y-41252675D02*
X96041930Y-41328352D01*
X157648163Y-99169078D02*
X157581499Y-99125276D01*
X93517083Y-68521768D02*
X93581499Y-68474723D01*
X95385439Y-99147589D02*
X95317712Y-99189729D01*
X93284958Y-70860036D02*
X93234022Y-70798650D01*
X161039430Y-78593587D02*
X161118703Y-78602448D01*
X95428035Y-80858271D02*
X95397282Y-80784672D01*
X146190290Y-88232967D02*
X146236535Y-88297960D01*
X210441930Y-61671647D02*
X210416719Y-61747324D01*
X97197440Y-25784780D02*
X97118703Y-25797551D01*
X97333333Y-76000000D02*
X97333333Y-75001000D01*
X97352540Y-78652353D02*
X97428523Y-78676627D01*
X157284958Y-70860036D02*
X157234022Y-70798650D01*
X96333958Y-22690166D02*
X96409317Y-22664020D01*
X159317712Y-68410270D02*
X159385439Y-68452410D01*
X157028035Y-97141728D02*
X157062390Y-97069739D01*
X145039430Y-59593587D02*
X145118703Y-59602448D01*
X143428035Y-33858271D02*
X143397282Y-33784672D01*
X209428523Y-34723372D02*
X209352540Y-34747646D01*
X161785439Y-22852410D02*
X161850999Y-22897847D01*
X145785439Y-59852410D02*
X145850999Y-59897847D01*
X159247985Y-71228467D02*
X159176426Y-71263710D01*
X160116911Y-81609529D02*
X160048163Y-81569078D01*
X143311661Y-32922183D02*
X143327344Y-32843973D01*
X95291986Y-80080448D02*
X95299865Y-80001072D01*
X95346875Y-24633364D02*
X95327344Y-24556026D01*
X156891986Y-69919551D02*
X156888041Y-69839883D01*
X145352540Y-87652353D02*
X145428523Y-87676627D01*
X94480056Y-96187671D02*
X94559816Y-96188657D01*
X156888041Y-97760116D02*
X156891986Y-97680448D01*
X148499000Y-86166666D02*
X148501000Y-86166666D01*
X159633102Y-96652794D02*
X159688449Y-96710234D01*
X92946875Y-98233364D02*
X92927344Y-98156026D01*
X146279509Y-62034838D02*
X146236535Y-62102039D01*
X146494724Y-32961554D02*
X146504564Y-33040711D01*
X118000000Y-75001000D02*
X118000000Y-74999000D01*
X145197440Y-59615219D02*
X145275449Y-59631867D01*
X162355232Y-79505521D02*
X162387796Y-79578337D01*
X159317712Y-71189729D02*
X159247985Y-71228467D01*
X143370206Y-60690358D02*
X143397282Y-60615327D01*
X135666666Y-75001000D02*
X135666666Y-76000000D01*
X143586184Y-32265178D02*
X143634022Y-32201349D01*
X95500263Y-23399538D02*
X95541562Y-23331295D01*
X161197440Y-50615219D02*
X161275449Y-50631867D01*
X144563451Y-31623060D02*
X144641849Y-31608346D01*
X96110479Y-69879741D02*
X96104564Y-69959288D01*
X159981499Y-78874723D02*
X160048163Y-78830921D01*
X147500000Y-63833333D02*
X147500000Y-58166666D01*
X147500000Y-58166666D02*
X148499000Y-58166666D01*
X162387796Y-51578337D02*
X162416719Y-51652675D01*
X96880056Y-50587671D02*
X96959816Y-50588657D01*
X149500000Y-35833333D02*
X148501000Y-35833333D01*
X92997282Y-42384672D02*
X92970206Y-42309641D01*
X159247985Y-96371532D02*
X159317712Y-96410270D01*
X147500000Y-20000000D02*
X85500000Y-20000000D01*
X95428035Y-79541728D02*
X95462390Y-79469739D01*
X160259984Y-22720006D02*
X160333958Y-22690166D01*
X161275449Y-50631867D02*
X161352540Y-50652353D01*
X210494724Y-33438445D02*
X210480980Y-33517018D01*
X160333958Y-50690166D02*
X160409317Y-50664020D01*
X209352540Y-31652353D02*
X209428523Y-31676627D01*
X98463368Y-79805184D02*
X98480980Y-79882981D01*
X146236535Y-32297960D02*
X146279509Y-32365161D01*
X162140888Y-51170341D02*
X162190290Y-51232967D01*
X179000000Y-75001000D02*
X179000000Y-76000000D01*
X210319107Y-60434404D02*
X210355232Y-60505521D01*
X95790290Y-68832967D02*
X95836535Y-68897960D01*
X96880056Y-81812328D02*
X96800345Y-81809369D01*
X159514232Y-40546471D02*
X159574982Y-40598162D01*
X202666666Y-47001500D02*
X202666666Y-46999500D01*
X159919107Y-98565595D02*
X159879509Y-98634838D01*
X94480056Y-43412328D02*
X94400345Y-43409369D01*
X161914232Y-50946471D02*
X161974982Y-50998162D01*
X144409317Y-90735979D02*
X144333958Y-90709833D01*
X95450999Y-43102152D02*
X95385439Y-43147589D01*
X98494724Y-79961554D02*
X98504564Y-80040711D01*
X96016719Y-98347324D02*
X95987796Y-98421662D01*
X144563451Y-90776939D02*
X144485878Y-90758366D01*
X93455072Y-71028058D02*
X93395619Y-70974880D01*
X158797440Y-68215219D02*
X158875449Y-68231867D01*
X160187576Y-53646531D02*
X160116911Y-53609529D01*
X96094724Y-41561554D02*
X96104564Y-41640711D01*
X160720878Y-25802472D02*
X160641849Y-25791653D01*
X168666666Y-46999500D02*
X168666666Y-47001500D01*
X95955232Y-41105521D02*
X95987796Y-41178337D01*
X95855072Y-25428058D02*
X95795619Y-25374880D01*
X95462390Y-51469739D02*
X95500263Y-51399538D01*
X146441930Y-89671647D02*
X146416719Y-89747324D01*
X96048163Y-25569078D02*
X95981499Y-25525276D01*
X179000000Y-76000000D02*
X171666666Y-76000000D01*
X95836535Y-42702039D02*
X95790290Y-42767032D01*
X160720878Y-78597527D02*
X160800345Y-78590630D01*
X97850999Y-81502152D02*
X97785439Y-81547589D01*
X162387796Y-23578337D02*
X162416719Y-23652675D01*
X157581499Y-96474723D02*
X157648163Y-96430921D01*
X162504564Y-24040711D02*
X162510479Y-24120258D01*
X95981499Y-53525276D02*
X95917083Y-53478231D01*
X95987796Y-70421662D02*
X95955232Y-70494478D01*
X95684958Y-23139963D02*
X95738868Y-23081172D01*
X156946875Y-97366635D02*
X156970206Y-97290358D01*
X145717712Y-87810270D02*
X145785439Y-87852410D01*
X159462390Y-80930260D02*
X159428035Y-80858271D01*
X159291986Y-52319551D02*
X159288041Y-52239883D01*
X157100263Y-68999538D02*
X157141562Y-68931295D01*
X207397282Y-61784672D02*
X207370206Y-61709641D01*
X157100263Y-42600461D02*
X157062390Y-42530260D01*
X207370206Y-61709641D02*
X207346875Y-61633364D01*
X157186184Y-68865178D02*
X157234022Y-68801349D01*
X95795619Y-53374880D02*
X95738868Y-53318827D01*
X97275449Y-78631867D02*
X97352540Y-78652353D01*
X159879509Y-42634838D02*
X159836535Y-42702039D01*
X160041930Y-42271647D02*
X160016719Y-42347324D01*
X161647985Y-25628467D02*
X161576426Y-25663710D01*
X95541562Y-23331295D02*
X95586184Y-23265178D01*
X209275449Y-87631867D02*
X209352540Y-87652353D01*
X159586184Y-79265178D02*
X159634022Y-79201349D01*
X192333333Y-74999000D02*
X192333333Y-74000000D01*
X162512452Y-52200000D02*
X162510479Y-52279741D01*
X146463368Y-33594815D02*
X146441930Y-33671647D01*
X210480980Y-60882981D02*
X210494724Y-60961554D01*
X157581499Y-71125276D02*
X157517083Y-71078231D01*
X208048163Y-90569078D02*
X207981499Y-90525276D01*
X207428035Y-61858271D02*
X207397282Y-61784672D01*
X160094724Y-69561554D02*
X160104564Y-69640711D01*
X162510479Y-52120258D02*
X162512452Y-52200000D01*
X95879509Y-96965161D02*
X95919107Y-97034404D01*
X145118703Y-87602448D02*
X145197440Y-87615219D01*
X207370206Y-88690358D02*
X207397282Y-88615327D01*
X199666666Y-74999000D02*
X199666666Y-75001000D01*
X95586184Y-23265178D02*
X95634022Y-23201349D01*
X95397282Y-23615327D02*
X95428035Y-23541728D01*
X158718703Y-71397551D02*
X158639430Y-71406412D01*
X95740888Y-68770341D02*
X95790290Y-68832967D01*
X145850999Y-34502152D02*
X145785439Y-34547589D01*
X159586184Y-81134821D02*
X159541562Y-81068704D01*
X210494724Y-61438445D02*
X210480980Y-61517018D01*
X143462390Y-89930260D02*
X143428035Y-89858271D01*
X98463368Y-52594815D02*
X98441930Y-52671647D01*
X97039430Y-81806412D02*
X96959816Y-81811342D01*
X145974982Y-62401837D02*
X145914232Y-62453528D01*
X97428523Y-81723372D02*
X97352540Y-81747646D01*
X92891986Y-41680448D02*
X92899865Y-41601072D01*
X157284958Y-68739963D02*
X157338868Y-68681172D01*
X93062390Y-98530260D02*
X93028035Y-98458271D01*
X93933958Y-71309833D02*
X93859984Y-71279993D01*
X159462390Y-79469739D02*
X159500263Y-79399538D01*
X115000000Y-74000000D02*
X115000000Y-74999000D01*
X143397282Y-88615327D02*
X143428035Y-88541728D01*
X95919107Y-98565595D02*
X95879509Y-98634838D01*
X95247985Y-68371532D02*
X95317712Y-68410270D01*
X158333333Y-76000000D02*
X149500000Y-76000000D01*
X143855072Y-31971941D02*
X143917083Y-31921768D01*
X95574982Y-71001837D02*
X95514232Y-71053528D01*
X143346875Y-61633364D02*
X143327344Y-61556026D01*
X96104564Y-97640711D02*
X96110479Y-97720258D01*
X144048163Y-62569078D02*
X143981499Y-62525276D01*
X144409317Y-87664020D02*
X144485878Y-87641633D01*
X159738868Y-79081172D02*
X159795619Y-79025119D01*
X161428523Y-50676627D02*
X161503213Y-50704628D01*
X145647985Y-34628467D02*
X145576426Y-34663710D01*
X208880056Y-62812328D02*
X208800345Y-62809369D01*
X162510479Y-24120258D02*
X162512452Y-24200000D01*
X92899865Y-97601072D02*
X92911661Y-97522183D01*
X160094724Y-97561554D02*
X160104564Y-97640711D01*
X98480980Y-52517018D02*
X98463368Y-52594815D01*
X159247985Y-40371532D02*
X159317712Y-40410270D01*
X95790290Y-42767032D02*
X95740888Y-42829658D01*
X143541562Y-60331295D02*
X143586184Y-60265178D01*
X95740888Y-98829658D02*
X95688449Y-98889765D01*
X159299865Y-24001072D02*
X159311661Y-23922183D01*
X98480980Y-23882981D02*
X98494724Y-23961554D01*
X93455072Y-40571941D02*
X93517083Y-40521768D01*
X96110479Y-97879741D02*
X96104564Y-97959288D01*
X161850999Y-50897847D02*
X161914232Y-50946471D01*
X157581499Y-40474723D02*
X157648163Y-40430921D01*
X92911661Y-97522183D02*
X92927344Y-97443973D01*
X146512452Y-61200000D02*
X146510479Y-61279741D01*
X93581499Y-40474723D02*
X93648163Y-40430921D01*
X162416719Y-24747324D02*
X162387796Y-24821662D01*
X207795619Y-88025119D02*
X207855072Y-87971941D01*
X209503213Y-87704628D02*
X209576426Y-87736289D01*
X146494724Y-33438445D02*
X146480980Y-33517018D01*
X95370206Y-23690358D02*
X95397282Y-23615327D01*
X98355232Y-24894478D02*
X98319107Y-24965595D01*
X210416719Y-33747324D02*
X210387796Y-33821662D01*
X210355232Y-32505521D02*
X210387796Y-32578337D01*
X98236535Y-23297960D02*
X98279509Y-23365161D01*
X93284958Y-42860036D02*
X93234022Y-42798650D01*
X145785439Y-87852410D02*
X145850999Y-87897847D01*
X207634022Y-90198650D02*
X207586184Y-90134821D01*
X144720878Y-34802472D02*
X144641849Y-34791653D01*
X159688449Y-68710234D02*
X159740888Y-68770341D01*
X96485878Y-53758366D02*
X96409317Y-53735979D01*
X95738868Y-53318827D02*
X95684958Y-53260036D01*
X95987796Y-42421662D02*
X95955232Y-42494478D01*
X207855072Y-59971941D02*
X207917083Y-59921768D01*
X157716911Y-43209529D02*
X157648163Y-43169078D01*
X207370206Y-60690358D02*
X207397282Y-60615327D01*
X210387796Y-33821662D02*
X210355232Y-33894478D01*
X93787576Y-68353468D02*
X93859984Y-68320006D01*
X159397282Y-24784672D02*
X159370206Y-24709641D01*
X208563451Y-90776939D02*
X208485878Y-90758366D01*
X92927344Y-97443973D02*
X92946875Y-97366635D01*
X98033102Y-23052794D02*
X98088449Y-23110234D01*
X159836535Y-98702039D02*
X159790290Y-98767032D01*
X160063368Y-41405184D02*
X160080980Y-41482981D01*
X128333333Y-75001000D02*
X128333333Y-74999000D01*
X92888041Y-97760116D02*
X92891986Y-97680448D01*
X156946875Y-70233364D02*
X156927344Y-70156026D01*
X95291986Y-24319551D02*
X95288041Y-24239883D01*
X92946875Y-70233364D02*
X92927344Y-70156026D01*
X94009317Y-99335979D02*
X93933958Y-99309833D01*
X143311661Y-60922183D02*
X143327344Y-60843973D01*
X209785439Y-62547589D02*
X209717712Y-62589729D01*
X143586184Y-60265178D02*
X143634022Y-60201349D01*
X143311661Y-61477816D02*
X143299865Y-61398927D01*
X156891986Y-69680448D02*
X156899865Y-69601072D01*
X207311661Y-33477816D02*
X207299865Y-33398927D01*
X209914232Y-34453528D02*
X209850999Y-34502152D01*
X157141562Y-98668704D02*
X157100263Y-98600461D01*
X159738868Y-23081172D02*
X159795619Y-23025119D01*
X98494724Y-52438445D02*
X98480980Y-52517018D01*
X143462390Y-33930260D02*
X143428035Y-33858271D01*
X92997282Y-70384672D02*
X92970206Y-70309641D01*
X161914232Y-78946471D02*
X161974982Y-78998162D01*
X96800345Y-53809369D02*
X96720878Y-53802472D01*
X161503213Y-53695371D02*
X161428523Y-53723372D01*
X143370206Y-89709641D02*
X143346875Y-89633364D01*
X160016719Y-98347324D02*
X159987796Y-98421662D01*
X98463368Y-80594815D02*
X98441930Y-80671647D01*
X157933958Y-99309833D02*
X157859984Y-99279993D01*
X162416719Y-23652675D02*
X162441930Y-23728352D01*
X159317712Y-99189729D02*
X159247985Y-99228467D01*
X157028035Y-69141728D02*
X157062390Y-69069739D01*
X159450999Y-96497847D02*
X159514232Y-96546471D01*
X158400345Y-96190630D02*
X158480056Y-96187671D01*
X95987796Y-98421662D02*
X95955232Y-98494478D01*
X143288041Y-61239883D02*
X143288041Y-61160116D01*
X161717712Y-25589729D02*
X161647985Y-25628467D01*
X157517083Y-96521768D02*
X157581499Y-96474723D01*
X145428523Y-59676627D02*
X145503213Y-59704628D01*
X138666666Y-46000000D02*
X147500000Y-46000000D01*
X209428523Y-59676627D02*
X209503213Y-59704628D01*
X157186184Y-40865178D02*
X157234022Y-40801349D01*
X145914232Y-62453528D02*
X145850999Y-62502152D01*
X159370206Y-52709641D02*
X159346875Y-52633364D01*
X207500263Y-32399538D02*
X207541562Y-32331295D01*
X95311661Y-23922183D02*
X95327344Y-23843973D01*
X162510479Y-52279741D02*
X162504564Y-52359288D01*
X157100263Y-40999538D02*
X157141562Y-40931295D01*
X143428035Y-60541728D02*
X143462390Y-60469739D01*
X160641849Y-81791653D02*
X160563451Y-81776939D01*
X146319107Y-89965595D02*
X146279509Y-90034838D01*
X143917083Y-34478231D02*
X143855072Y-34428058D01*
X96104564Y-41959288D02*
X96094724Y-42038445D01*
X95428035Y-52858271D02*
X95397282Y-52784672D01*
X143981499Y-87874723D02*
X144048163Y-87830921D01*
X157517083Y-68521768D02*
X157581499Y-68474723D01*
X145914232Y-31946471D02*
X145974982Y-31998162D01*
X157787576Y-71246531D02*
X157716911Y-71209529D01*
X149500000Y-46000000D02*
X158333333Y-46000000D01*
X161576426Y-78736289D02*
X161647985Y-78771532D01*
X146088449Y-32110234D02*
X146140888Y-32170341D01*
X95450999Y-40497847D02*
X95514232Y-40546471D01*
X157933958Y-71309833D02*
X157859984Y-71279993D01*
X146355232Y-89894478D02*
X146319107Y-89965595D01*
X96959816Y-25811342D02*
X96880056Y-25812328D01*
X143397282Y-60615327D02*
X143428035Y-60541728D01*
X210279509Y-32365161D02*
X210319107Y-32434404D01*
X97428523Y-53723372D02*
X97352540Y-53747646D01*
X95795619Y-51025119D02*
X95855072Y-50971941D01*
X143462390Y-88469739D02*
X143500263Y-88399538D01*
X210033102Y-32052794D02*
X210088449Y-32110234D01*
X144641849Y-34791653D02*
X144563451Y-34776939D01*
X209039430Y-31593587D02*
X209118703Y-31602448D01*
X98319107Y-23434404D02*
X98355232Y-23505521D01*
X202666666Y-74999000D02*
X202666666Y-74000000D01*
X157581499Y-99125276D02*
X157517083Y-99078231D01*
X144800345Y-87590630D02*
X144880056Y-87587671D01*
X159795619Y-53374880D02*
X159738868Y-53318827D01*
X95586184Y-51265178D02*
X95634022Y-51201349D01*
X156970206Y-98309641D02*
X156946875Y-98233364D01*
X208641849Y-62791653D02*
X208563451Y-62776939D01*
X159428035Y-79541728D02*
X159462390Y-79469739D01*
X162480980Y-80517018D02*
X162463368Y-80594815D01*
X161275449Y-22631867D02*
X161352540Y-22652353D01*
X208485878Y-31641633D02*
X208563451Y-31623060D01*
X98441930Y-79728352D02*
X98463368Y-79805184D01*
X159633102Y-70947205D02*
X159574982Y-71001837D01*
X207917083Y-31921768D02*
X207981499Y-31874723D01*
X95634022Y-81198650D02*
X95586184Y-81134821D01*
X162480980Y-51882981D02*
X162494724Y-51961554D01*
X159541562Y-81068704D02*
X159500263Y-81000461D01*
X96110479Y-97720258D02*
X96112452Y-97800000D01*
X156997282Y-97215327D02*
X157028035Y-97141728D01*
X97717712Y-25589729D02*
X97647985Y-25628467D01*
X94085878Y-71358366D02*
X94009317Y-71335979D01*
X161850999Y-25502152D02*
X161785439Y-25547589D01*
X208959816Y-34811342D02*
X208880056Y-34812328D01*
X143684958Y-60139963D02*
X143738868Y-60081172D01*
X158639430Y-71406412D02*
X158559816Y-71411342D01*
X210279509Y-90034838D02*
X210236535Y-90102039D01*
X208800345Y-62809369D02*
X208720878Y-62802472D01*
X145850999Y-87897847D02*
X145914232Y-87946471D01*
X207917083Y-90478231D02*
X207855072Y-90428058D01*
X210190290Y-90167032D02*
X210140888Y-90229658D01*
X158009317Y-40264020D02*
X158085878Y-40241633D01*
X98510479Y-24120258D02*
X98512452Y-24200000D01*
X96041930Y-97328352D02*
X96063368Y-97405184D01*
X95028523Y-68276627D02*
X95103213Y-68304628D01*
X144880056Y-34812328D02*
X144800345Y-34809369D01*
X146416719Y-89747324D02*
X146387796Y-89821662D01*
X93100263Y-98600461D02*
X93062390Y-98530260D01*
X162319107Y-80965595D02*
X162279509Y-81034838D01*
X208485878Y-34758366D02*
X208409317Y-34735979D01*
X159586184Y-25134821D02*
X159541562Y-25068704D01*
X162463368Y-51805184D02*
X162480980Y-51882981D01*
X161352540Y-22652353D02*
X161428523Y-22676627D01*
X145428523Y-31676627D02*
X145503213Y-31704628D01*
X208880056Y-31587671D02*
X208959816Y-31588657D01*
X189333333Y-47001500D02*
X189333333Y-48000000D01*
X210190290Y-60232967D02*
X210236535Y-60297960D01*
X159346875Y-24633364D02*
X159327344Y-24556026D01*
X160563451Y-25776939D02*
X160485878Y-25758366D01*
X149500000Y-86166666D02*
X149500000Y-91833333D01*
X146494724Y-60961554D02*
X146504564Y-61040711D01*
X160116911Y-53609529D02*
X160048163Y-53569078D01*
X146033102Y-88052794D02*
X146088449Y-88110234D01*
X157455072Y-40571941D02*
X157517083Y-40521768D01*
X158009317Y-43335979D02*
X157933958Y-43309833D01*
X189333333Y-48000000D02*
X182000000Y-48000000D01*
X159514232Y-43053528D02*
X159450999Y-43102152D01*
X143586184Y-88265178D02*
X143634022Y-88201349D01*
X162033102Y-51052794D02*
X162088449Y-51110234D01*
X157648163Y-40430921D02*
X157716911Y-40390470D01*
X156899865Y-97601072D02*
X156911661Y-97522183D01*
X97333333Y-75001000D02*
X97333333Y-74999000D01*
X208800345Y-59590630D02*
X208880056Y-59587671D01*
X159311661Y-52477816D02*
X159299865Y-52398927D01*
X96485878Y-22641633D02*
X96563451Y-22623060D01*
X192333333Y-46000000D02*
X199666666Y-46000000D01*
X208641849Y-87608346D02*
X208720878Y-87597527D01*
X157028035Y-42458271D02*
X156997282Y-42384672D01*
X158320878Y-96197527D02*
X158400345Y-96190630D01*
X160880056Y-53812328D02*
X160800345Y-53809369D01*
X210355232Y-89894478D02*
X210319107Y-89965595D01*
X160720878Y-81802472D02*
X160641849Y-81791653D01*
X208880056Y-59587671D02*
X208959816Y-59588657D01*
X95836535Y-96897960D02*
X95879509Y-96965161D01*
X162033102Y-81347205D02*
X161974982Y-81401837D01*
X143327344Y-61556026D02*
X143311661Y-61477816D01*
X159103213Y-99295371D02*
X159028523Y-99323372D01*
X96094724Y-98038445D02*
X96080980Y-98117018D01*
X94320878Y-68197527D02*
X94400345Y-68190630D01*
X118000000Y-47001500D02*
X118000000Y-46999500D01*
X146088449Y-88110234D02*
X146140888Y-88170341D01*
X162088449Y-23110234D02*
X162140888Y-23170341D01*
X209647985Y-90628467D02*
X209576426Y-90663710D01*
X158163451Y-40223060D02*
X158241849Y-40208346D01*
X208720878Y-34802472D02*
X208641849Y-34791653D01*
X207291986Y-89319551D02*
X207288041Y-89239883D01*
X162480980Y-52517018D02*
X162463368Y-52594815D01*
X161118703Y-78602448D02*
X161197440Y-78615219D01*
X96485878Y-81758366D02*
X96409317Y-81735979D01*
X207288041Y-89160116D02*
X207291986Y-89080448D01*
X96041930Y-70271647D02*
X96016719Y-70347324D01*
X159740888Y-70829658D02*
X159688449Y-70889765D01*
X92911661Y-70077816D02*
X92899865Y-69998927D01*
X146480980Y-32882981D02*
X146494724Y-32961554D01*
X160485878Y-81758366D02*
X160409317Y-81735979D01*
X161197440Y-25784780D02*
X161118703Y-25797551D01*
X210279509Y-62034838D02*
X210236535Y-62102039D01*
X207855072Y-34428058D02*
X207795619Y-34374880D01*
X159879509Y-40965161D02*
X159919107Y-41034404D01*
X157859984Y-99279993D02*
X157787576Y-99246531D01*
X159346875Y-51766635D02*
X159370206Y-51690358D01*
X95633102Y-40652794D02*
X95688449Y-40710234D01*
X208409317Y-34735979D02*
X208333958Y-34709833D01*
X93186184Y-70734821D02*
X93141562Y-70668704D01*
X161428523Y-78676627D02*
X161503213Y-78704628D01*
X97333333Y-74999000D02*
X97333333Y-74000000D01*
X95370206Y-79690358D02*
X95397282Y-79615327D01*
X95327344Y-79843973D02*
X95346875Y-79766635D01*
X93338868Y-42918827D02*
X93284958Y-42860036D01*
X157186184Y-70734821D02*
X157141562Y-70668704D01*
X159288041Y-80160116D02*
X159291986Y-80080448D01*
X93141562Y-96931295D02*
X93186184Y-96865178D01*
X146355232Y-88505521D02*
X146387796Y-88578337D01*
X97974982Y-22998162D02*
X98033102Y-23052794D01*
X145503213Y-34695371D02*
X145428523Y-34723372D01*
X94559816Y-40188657D02*
X94639430Y-40193587D01*
X97914232Y-53453528D02*
X97850999Y-53502152D01*
X98510479Y-80120258D02*
X98512452Y-80200000D01*
X143370206Y-61709641D02*
X143346875Y-61633364D01*
X158797440Y-96215219D02*
X158875449Y-96231867D01*
X96485878Y-78641633D02*
X96563451Y-78623060D01*
X97197440Y-53784780D02*
X97118703Y-53797551D01*
X143311661Y-33477816D02*
X143299865Y-33398927D01*
X98190290Y-53167032D02*
X98140888Y-53229658D01*
X94875449Y-68231867D02*
X94952540Y-68252353D01*
X189333333Y-76000000D02*
X182000000Y-76000000D01*
X94559816Y-43411342D02*
X94480056Y-43412328D01*
X171666666Y-46000000D02*
X179000000Y-46000000D01*
X156927344Y-42156026D02*
X156911661Y-42077816D01*
X159327344Y-23843973D02*
X159346875Y-23766635D01*
X159514232Y-68546471D02*
X159574982Y-68598162D01*
X157141562Y-42668704D02*
X157100263Y-42600461D01*
X160110479Y-69720258D02*
X160112452Y-69800000D01*
X143288041Y-33160116D02*
X143291986Y-33080448D01*
X97428523Y-25723372D02*
X97352540Y-25747646D01*
X158480056Y-43412328D02*
X158400345Y-43409369D01*
X159987796Y-42421662D02*
X159955232Y-42494478D01*
X157338868Y-98918827D02*
X157284958Y-98860036D01*
X160080980Y-69482981D02*
X160094724Y-69561554D01*
X93648163Y-68430921D02*
X93716911Y-68390470D01*
X161333333Y-75001000D02*
X161333333Y-74999000D01*
X95317712Y-71189729D02*
X95247985Y-71228467D01*
X160563451Y-22623060D02*
X160641849Y-22608346D01*
X146033102Y-32052794D02*
X146088449Y-32110234D01*
X143291986Y-61319551D02*
X143288041Y-61239883D01*
X158333333Y-74999000D02*
X158333333Y-75001000D01*
X210033102Y-34347205D02*
X209974982Y-34401837D01*
X96041930Y-98271647D02*
X96016719Y-98347324D01*
X144485878Y-34758366D02*
X144409317Y-34735979D01*
X168666666Y-46000000D02*
X168666666Y-46999500D01*
X146480980Y-88882981D02*
X146494724Y-88961554D01*
X159917083Y-78921768D02*
X159981499Y-78874723D01*
X160016719Y-69252675D02*
X160041930Y-69328352D01*
X144959816Y-90811342D02*
X144880056Y-90812328D01*
X207684958Y-60139963D02*
X207738868Y-60081172D01*
X158952540Y-99347646D02*
X158875449Y-99368132D01*
X158639430Y-96193587D02*
X158718703Y-96202448D01*
X158320878Y-40197527D02*
X158400345Y-40190630D01*
X98480980Y-80517018D02*
X98463368Y-80594815D01*
X207291986Y-61319551D02*
X207288041Y-61239883D01*
X209503213Y-90695371D02*
X209428523Y-90723372D01*
X158718703Y-96202448D02*
X158797440Y-96215219D01*
X162504564Y-24359288D02*
X162494724Y-24438445D01*
X157859984Y-68320006D02*
X157933958Y-68290166D01*
X95981499Y-25525276D02*
X95917083Y-25478231D01*
X143500263Y-62000461D02*
X143462390Y-61930260D01*
X92997282Y-69215327D02*
X93028035Y-69141728D01*
X159311661Y-80477816D02*
X159299865Y-80398927D01*
X97576426Y-50736289D02*
X97647985Y-50771532D01*
X159311661Y-79922183D02*
X159327344Y-79843973D01*
X95247985Y-99228467D02*
X95176426Y-99263710D01*
X159795619Y-23025119D02*
X159855072Y-22971941D01*
X160104564Y-97640711D02*
X160110479Y-97720258D01*
X160563451Y-78623060D02*
X160641849Y-78608346D01*
X207327344Y-88843973D02*
X207346875Y-88766635D01*
X208259984Y-34679993D02*
X208187576Y-34646531D01*
X208800345Y-31590630D02*
X208880056Y-31587671D01*
X145039430Y-62806412D02*
X144959816Y-62811342D01*
X143299865Y-89398927D02*
X143291986Y-89319551D01*
X157186184Y-96865178D02*
X157234022Y-96801349D01*
X92891986Y-41919551D02*
X92888041Y-41839883D01*
X95586184Y-25134821D02*
X95541562Y-25068704D01*
X94333333Y-75001000D02*
X94333333Y-76000000D01*
X156927344Y-98156026D02*
X156911661Y-98077816D01*
X95247985Y-40371532D02*
X95317712Y-40410270D01*
X145503213Y-87704628D02*
X145576426Y-87736289D01*
X143428035Y-32541728D02*
X143462390Y-32469739D01*
X96409317Y-53735979D02*
X96333958Y-53709833D01*
X97333333Y-47001500D02*
X97333333Y-46999500D01*
X96016719Y-70347324D02*
X95987796Y-70421662D01*
X98387796Y-51578337D02*
X98416719Y-51652675D01*
X159919107Y-97034404D02*
X159955232Y-97105521D01*
X208641849Y-34791653D02*
X208563451Y-34776939D01*
X162416719Y-52747324D02*
X162387796Y-52821662D01*
X97275449Y-53768132D02*
X97197440Y-53784780D01*
X159855072Y-50971941D02*
X159917083Y-50921768D01*
X208800345Y-90809369D02*
X208720878Y-90802472D01*
X92899865Y-97998927D02*
X92891986Y-97919551D01*
X95288041Y-24160116D02*
X95291986Y-24080448D01*
X143428035Y-61858271D02*
X143397282Y-61784672D01*
X96187576Y-22753468D02*
X96259984Y-22720006D01*
X161352540Y-25747646D02*
X161275449Y-25768132D01*
X207634022Y-34198650D02*
X207586184Y-34134821D01*
X95247985Y-96371532D02*
X95317712Y-96410270D01*
X148499000Y-66833333D02*
X148501000Y-66833333D01*
X93648163Y-40430921D02*
X93716911Y-40390470D01*
X209275449Y-31631867D02*
X209352540Y-31652353D01*
X118000000Y-48000000D02*
X118000000Y-47001500D01*
X143346875Y-60766635D02*
X143370206Y-60690358D01*
X96259984Y-25679993D02*
X96187576Y-25646531D01*
X96880056Y-53812328D02*
X96800345Y-53809369D01*
X157100263Y-98600461D02*
X157062390Y-98530260D01*
X94241849Y-71391653D02*
X94163451Y-71376939D01*
X95103213Y-68304628D02*
X95176426Y-68336289D01*
X95514232Y-71053528D02*
X95450999Y-71102152D01*
X208187576Y-59753468D02*
X208259984Y-59720006D01*
X210494724Y-88961554D02*
X210504564Y-89040711D01*
X95370206Y-51690358D02*
X95397282Y-51615327D01*
X210416719Y-88652675D02*
X210441930Y-88728352D01*
X95176426Y-40336289D02*
X95247985Y-40371532D01*
X135666666Y-76000000D02*
X128333333Y-76000000D01*
X158952540Y-43347646D02*
X158875449Y-43368132D01*
X208800345Y-34809369D02*
X208720878Y-34802472D01*
X93234022Y-42798650D02*
X93186184Y-42734821D01*
X95500263Y-79399538D02*
X95541562Y-79331295D01*
X158797440Y-71384780D02*
X158718703Y-71397551D01*
X94400345Y-71409369D02*
X94320878Y-71402472D01*
X93517083Y-43078231D02*
X93455072Y-43028058D01*
X159634022Y-81198650D02*
X159586184Y-81134821D01*
X95740888Y-70829658D02*
X95688449Y-70889765D01*
X95634022Y-79201349D02*
X95684958Y-79139963D01*
X97717712Y-50810270D02*
X97785439Y-50852410D01*
X171666666Y-48000000D02*
X171666666Y-47001500D01*
X144641849Y-59608346D02*
X144720878Y-59597527D01*
X158718703Y-68202448D02*
X158797440Y-68215219D01*
X159574982Y-68598162D02*
X159633102Y-68652794D01*
X128333333Y-46000000D02*
X135666666Y-46000000D01*
X97333333Y-74000000D02*
X104666666Y-74000000D01*
X96187576Y-81646531D02*
X96116911Y-81609529D01*
X157648163Y-68430921D02*
X157716911Y-68390470D01*
X95462390Y-79469739D02*
X95500263Y-79399538D01*
X143586184Y-34134821D02*
X143541562Y-34068704D01*
X162236535Y-53102039D02*
X162190290Y-53167032D01*
X143855072Y-59971941D02*
X143917083Y-59921768D01*
X98236535Y-79297960D02*
X98279509Y-79365161D01*
X210441930Y-33671647D02*
X210416719Y-33747324D01*
X146190290Y-90167032D02*
X146140888Y-90229658D01*
X162463368Y-24594815D02*
X162441930Y-24671647D01*
X210140888Y-32170341D02*
X210190290Y-32232967D01*
X92911661Y-42077816D02*
X92899865Y-41998927D01*
X156946875Y-69366635D02*
X156970206Y-69290358D01*
X145850999Y-90502152D02*
X145785439Y-90547589D01*
X95574982Y-68598162D02*
X95633102Y-68652794D01*
X93787576Y-96353468D02*
X93859984Y-96320006D01*
X98504564Y-80359288D02*
X98494724Y-80438445D01*
X143917083Y-90478231D02*
X143855072Y-90428058D01*
X211500000Y-102000000D02*
X211500000Y-76000000D01*
X209275449Y-90768132D02*
X209197440Y-90784780D01*
X143291986Y-33319551D02*
X143288041Y-33239883D01*
X145275449Y-31631867D02*
X145352540Y-31652353D01*
X143981499Y-31874723D02*
X144048163Y-31830921D01*
X207500263Y-34000461D02*
X207462390Y-33930260D01*
X146504564Y-61359288D02*
X146494724Y-61438445D01*
X97197440Y-22615219D02*
X97275449Y-22631867D01*
X148499000Y-27166666D02*
X147500000Y-27166666D01*
X95288041Y-80239883D02*
X95288041Y-80160116D01*
X161352540Y-53747646D02*
X161275449Y-53768132D01*
X207684958Y-62260036D02*
X207634022Y-62198650D01*
X144048163Y-87830921D02*
X144116911Y-87790470D01*
X208485878Y-62758366D02*
X208409317Y-62735979D01*
X95370206Y-80709641D02*
X95346875Y-80633364D01*
X144959816Y-59588657D02*
X145039430Y-59593587D01*
X209118703Y-90797551D02*
X209039430Y-90806412D01*
X95688449Y-70889765D02*
X95633102Y-70947205D01*
X146279509Y-34034838D02*
X146236535Y-34102039D01*
M02*
