%TF.GenerationSoftware,KiCad,Pcbnew,7.0.9*%
%TF.CreationDate,2024-06-08T21:24:25-04:00*%
%TF.ProjectId,Jackless-Panel,4a61636b-6c65-4737-932d-50616e656c2e,rev?*%
%TF.SameCoordinates,Original*%
%TF.FileFunction,Copper,L2,Bot*%
%TF.FilePolarity,Positive*%
%FSLAX46Y46*%
G04 Gerber Fmt 4.6, Leading zero omitted, Abs format (unit mm)*
G04 Created by KiCad (PCBNEW 7.0.9) date 2024-06-08 21:24:25*
%MOMM*%
%LPD*%
G01*
G04 APERTURE LIST*
%TA.AperFunction,ComponentPad*%
%ADD10R,1.800000X1.800000*%
%TD*%
%TA.AperFunction,ComponentPad*%
%ADD11C,1.800000*%
%TD*%
%TA.AperFunction,ComponentPad*%
%ADD12R,1.700000X1.700000*%
%TD*%
%TA.AperFunction,ComponentPad*%
%ADD13O,1.700000X1.700000*%
%TD*%
%TA.AperFunction,ComponentPad*%
%ADD14R,1.500000X1.050000*%
%TD*%
%TA.AperFunction,ComponentPad*%
%ADD15O,1.500000X1.050000*%
%TD*%
%TA.AperFunction,ComponentPad*%
%ADD16R,1.400000X1.400000*%
%TD*%
%TA.AperFunction,ComponentPad*%
%ADD17C,1.400000*%
%TD*%
%TA.AperFunction,ComponentPad*%
%ADD18C,1.600000*%
%TD*%
%TA.AperFunction,ComponentPad*%
%ADD19O,1.600000X1.600000*%
%TD*%
%TA.AperFunction,ComponentPad*%
%ADD20R,2.400000X2.400000*%
%TD*%
%TA.AperFunction,ComponentPad*%
%ADD21C,2.400000*%
%TD*%
%TA.AperFunction,ComponentPad*%
%ADD22R,1.905000X2.000000*%
%TD*%
%TA.AperFunction,ComponentPad*%
%ADD23O,1.905000X2.000000*%
%TD*%
%TA.AperFunction,ViaPad*%
%ADD24C,0.800000*%
%TD*%
%TA.AperFunction,Conductor*%
%ADD25C,0.250000*%
%TD*%
%TA.AperFunction,Conductor*%
%ADD26C,0.500000*%
%TD*%
G04 APERTURE END LIST*
D10*
%TO.P,D1,1,K*%
%TO.N,Board_2-/Ctrl_GND*%
X101025000Y-52750000D03*
D11*
%TO.P,D1,2,A*%
%TO.N,Board_2-Net-(D1-A)*%
X103565000Y-52750000D03*
%TD*%
D12*
%TO.P,Out1,1,Pin_1*%
%TO.N,Board_5-/Signal_Gnd*%
X156750000Y-83080000D03*
D13*
%TO.P,Out1,2,Pin_2*%
%TO.N,Board_5-/L_out*%
X156750000Y-80540000D03*
%TO.P,Out1,3,Pin_3*%
%TO.N,Board_5-/R_out*%
X156750000Y-78000000D03*
%TD*%
D14*
%TO.P,QL1,1,S*%
%TO.N,Board_3-/Ctrl_GND*%
X157610000Y-62520000D03*
D15*
%TO.P,QL1,2,G*%
%TO.N,Board_3-Net-(QL1-G)*%
X157610000Y-61250000D03*
%TO.P,QL1,3,D*%
%TO.N,Board_3-Net-(QL1-D)*%
X157610000Y-59980000D03*
%TD*%
D12*
%TO.P,J1,1,Pin_1*%
%TO.N,Board_0-/Control*%
X88000000Y-33000000D03*
%TD*%
%TO.P,J3,1,Pin_1*%
%TO.N,Board_0-/9V*%
X90500000Y-39500000D03*
D13*
%TO.P,J3,2,Pin_2*%
%TO.N,Board_0-/Ctrl_GND*%
X87960000Y-39500000D03*
%TD*%
D16*
%TO.P,Left/Mono1,1*%
%TO.N,Board_1-/5V*%
X192120000Y-41857500D03*
D17*
%TO.P,Left/Mono1,4*%
%TO.N,Board_1-/L_out*%
X192120000Y-34237500D03*
%TO.P,Left/Mono1,6*%
%TO.N,Board_1-Net-(Left/Mono1-Pad11)*%
X192120000Y-29157500D03*
%TO.P,Left/Mono1,8*%
%TO.N,Board_1-/L_Return*%
X192120000Y-24077500D03*
%TO.P,Left/Mono1,9*%
%TO.N,Board_1-/L_Send*%
X184500000Y-24077500D03*
%TO.P,Left/Mono1,11*%
%TO.N,Board_1-Net-(Left/Mono1-Pad11)*%
X184500000Y-29157500D03*
%TO.P,Left/Mono1,13*%
%TO.N,Board_1-/L_in*%
X184500000Y-34237500D03*
%TO.P,Left/Mono1,16*%
%TO.N,Board_1-Net-(QL1-D)*%
X184500000Y-41857500D03*
%TD*%
D10*
%TO.P,D1,1,K*%
%TO.N,Board_4-/Ctrl_GND*%
X101025000Y-80750000D03*
D11*
%TO.P,D1,2,A*%
%TO.N,Board_4-Net-(D1-A)*%
X103565000Y-80750000D03*
%TD*%
D18*
%TO.P,LGate1,1*%
%TO.N,Board_0-/Control*%
X97690000Y-30500000D03*
D19*
%TO.P,LGate1,2*%
%TO.N,Board_0-Net-(QL1-G)*%
X105310000Y-30500000D03*
%TD*%
D16*
%TO.P,Left/Mono1,1*%
%TO.N,Board_4-/5V*%
X128120000Y-97857500D03*
D17*
%TO.P,Left/Mono1,4*%
%TO.N,Board_4-/L_out*%
X128120000Y-90237500D03*
%TO.P,Left/Mono1,6*%
%TO.N,Board_4-Net-(Left/Mono1-Pad11)*%
X128120000Y-85157500D03*
%TO.P,Left/Mono1,8*%
%TO.N,Board_4-/L_Return*%
X128120000Y-80077500D03*
%TO.P,Left/Mono1,9*%
%TO.N,Board_4-/L_Send*%
X120500000Y-80077500D03*
%TO.P,Left/Mono1,11*%
%TO.N,Board_4-Net-(Left/Mono1-Pad11)*%
X120500000Y-85157500D03*
%TO.P,Left/Mono1,13*%
%TO.N,Board_4-/L_in*%
X120500000Y-90237500D03*
%TO.P,Left/Mono1,16*%
%TO.N,Board_4-Net-(QL1-D)*%
X120500000Y-97857500D03*
%TD*%
D18*
%TO.P,LeftPD1,1*%
%TO.N,Board_5-Net-(QL1-G)*%
X169310000Y-90000000D03*
D19*
%TO.P,LeftPD1,2*%
%TO.N,Board_5-/Ctrl_GND*%
X161690000Y-90000000D03*
%TD*%
D16*
%TO.P,Left/Mono1,1*%
%TO.N,Board_2-/5V*%
X128120000Y-69857500D03*
D17*
%TO.P,Left/Mono1,4*%
%TO.N,Board_2-/L_out*%
X128120000Y-62237500D03*
%TO.P,Left/Mono1,6*%
%TO.N,Board_2-Net-(Left/Mono1-Pad11)*%
X128120000Y-57157500D03*
%TO.P,Left/Mono1,8*%
%TO.N,Board_2-/L_Return*%
X128120000Y-52077500D03*
%TO.P,Left/Mono1,9*%
%TO.N,Board_2-/L_Send*%
X120500000Y-52077500D03*
%TO.P,Left/Mono1,11*%
%TO.N,Board_2-Net-(Left/Mono1-Pad11)*%
X120500000Y-57157500D03*
%TO.P,Left/Mono1,13*%
%TO.N,Board_2-/L_in*%
X120500000Y-62237500D03*
%TO.P,Left/Mono1,16*%
%TO.N,Board_2-Net-(QL1-D)*%
X120500000Y-69857500D03*
%TD*%
D10*
%TO.P,D1,1,K*%
%TO.N,Board_5-/Ctrl_GND*%
X165025000Y-80750000D03*
D11*
%TO.P,D1,2,A*%
%TO.N,Board_5-Net-(D1-A)*%
X167565000Y-80750000D03*
%TD*%
D18*
%TO.P,LGate1,1*%
%TO.N,Board_1-/Control*%
X161690000Y-30500000D03*
D19*
%TO.P,LGate1,2*%
%TO.N,Board_1-Net-(QL1-G)*%
X169310000Y-30500000D03*
%TD*%
D20*
%TO.P,J5,1,Pin_1*%
%TO.N,Board_0-/L_Send*%
X133500000Y-25000000D03*
D21*
%TO.P,J5,2,Pin_2*%
%TO.N,Board_0-/Signal_Gnd*%
X137000000Y-25000000D03*
%TO.P,J5,3,Pin_3*%
%TO.N,Board_0-/R_send*%
X140500000Y-25000000D03*
%TO.P,J5,4,Pin_4*%
%TO.N,Board_0-/Signal_Gnd*%
X144000000Y-25000000D03*
%TD*%
D18*
%TO.P,LeftPD1,1*%
%TO.N,Board_2-Net-(QL1-G)*%
X105310000Y-62000000D03*
D19*
%TO.P,LeftPD1,2*%
%TO.N,Board_2-/Ctrl_GND*%
X97690000Y-62000000D03*
%TD*%
D18*
%TO.P,RLed1,1*%
%TO.N,Board_4-/Control*%
X98690000Y-93750000D03*
D19*
%TO.P,RLed1,2*%
%TO.N,Board_4-Net-(D1-A)*%
X106310000Y-93750000D03*
%TD*%
D18*
%TO.P,LeftPD1,1*%
%TO.N,Board_0-Net-(QL1-G)*%
X105310000Y-34000000D03*
D19*
%TO.P,LeftPD1,2*%
%TO.N,Board_0-/Ctrl_GND*%
X97690000Y-34000000D03*
%TD*%
D16*
%TO.P,Right1,1*%
%TO.N,Board_1-Net-(QL1-D)*%
X180762500Y-41857500D03*
D17*
%TO.P,Right1,4*%
%TO.N,Board_1-/R_out*%
X180762500Y-34237500D03*
%TO.P,Right1,6*%
%TO.N,Board_1-Net-(Right1-Pad11)*%
X180762500Y-29157500D03*
%TO.P,Right1,8*%
%TO.N,Board_1-/R_Return*%
X180762500Y-24077500D03*
%TO.P,Right1,9*%
%TO.N,Board_1-/R_send*%
X173142500Y-24077500D03*
%TO.P,Right1,11*%
%TO.N,Board_1-Net-(Right1-Pad11)*%
X173142500Y-29157500D03*
%TO.P,Right1,13*%
%TO.N,Board_1-/R_in*%
X173142500Y-34237500D03*
%TO.P,Right1,16*%
%TO.N,Board_1-/5V*%
X173142500Y-41857500D03*
%TD*%
D18*
%TO.P,RLed1,1*%
%TO.N,Board_2-/Control*%
X98690000Y-65750000D03*
D19*
%TO.P,RLed1,2*%
%TO.N,Board_2-Net-(D1-A)*%
X106310000Y-65750000D03*
%TD*%
D12*
%TO.P,In1,1,Pin_1*%
%TO.N,Board_2-/Signal_Gnd*%
X87500000Y-55080000D03*
D13*
%TO.P,In1,2,Pin_2*%
%TO.N,Board_2-/L_in*%
X87500000Y-52540000D03*
%TO.P,In1,3,Pin_3*%
%TO.N,Board_2-/R_in*%
X87500000Y-50000000D03*
%TD*%
D12*
%TO.P,In1,1,Pin_1*%
%TO.N,Board_3-/Signal_Gnd*%
X151500000Y-55080000D03*
D13*
%TO.P,In1,2,Pin_2*%
%TO.N,Board_3-/L_in*%
X151500000Y-52540000D03*
%TO.P,In1,3,Pin_3*%
%TO.N,Board_3-/R_in*%
X151500000Y-50000000D03*
%TD*%
D12*
%TO.P,J1,1,Pin_1*%
%TO.N,Board_5-/Control*%
X152000000Y-89000000D03*
%TD*%
D16*
%TO.P,Left/Mono1,1*%
%TO.N,Board_3-/5V*%
X192120000Y-69857500D03*
D17*
%TO.P,Left/Mono1,4*%
%TO.N,Board_3-/L_out*%
X192120000Y-62237500D03*
%TO.P,Left/Mono1,6*%
%TO.N,Board_3-Net-(Left/Mono1-Pad11)*%
X192120000Y-57157500D03*
%TO.P,Left/Mono1,8*%
%TO.N,Board_3-/L_Return*%
X192120000Y-52077500D03*
%TO.P,Left/Mono1,9*%
%TO.N,Board_3-/L_Send*%
X184500000Y-52077500D03*
%TO.P,Left/Mono1,11*%
%TO.N,Board_3-Net-(Left/Mono1-Pad11)*%
X184500000Y-57157500D03*
%TO.P,Left/Mono1,13*%
%TO.N,Board_3-/L_in*%
X184500000Y-62237500D03*
%TO.P,Left/Mono1,16*%
%TO.N,Board_3-Net-(QL1-D)*%
X184500000Y-69857500D03*
%TD*%
D20*
%TO.P,J5,1,Pin_1*%
%TO.N,Board_5-/L_Send*%
X197500000Y-81000000D03*
D21*
%TO.P,J5,2,Pin_2*%
%TO.N,Board_5-/Signal_Gnd*%
X201000000Y-81000000D03*
%TO.P,J5,3,Pin_3*%
%TO.N,Board_5-/R_send*%
X204500000Y-81000000D03*
%TO.P,J5,4,Pin_4*%
%TO.N,Board_5-/Signal_Gnd*%
X208000000Y-81000000D03*
%TD*%
D12*
%TO.P,In1,1,Pin_1*%
%TO.N,Board_4-/Signal_Gnd*%
X87500000Y-83080000D03*
D13*
%TO.P,In1,2,Pin_2*%
%TO.N,Board_4-/L_in*%
X87500000Y-80540000D03*
%TO.P,In1,3,Pin_3*%
%TO.N,Board_4-/R_in*%
X87500000Y-78000000D03*
%TD*%
D18*
%TO.P,LGate1,1*%
%TO.N,Board_4-/Control*%
X97690000Y-86500000D03*
D19*
%TO.P,LGate1,2*%
%TO.N,Board_4-Net-(QL1-G)*%
X105310000Y-86500000D03*
%TD*%
D16*
%TO.P,Left/Mono1,1*%
%TO.N,Board_5-/5V*%
X192120000Y-97857500D03*
D17*
%TO.P,Left/Mono1,4*%
%TO.N,Board_5-/L_out*%
X192120000Y-90237500D03*
%TO.P,Left/Mono1,6*%
%TO.N,Board_5-Net-(Left/Mono1-Pad11)*%
X192120000Y-85157500D03*
%TO.P,Left/Mono1,8*%
%TO.N,Board_5-/L_Return*%
X192120000Y-80077500D03*
%TO.P,Left/Mono1,9*%
%TO.N,Board_5-/L_Send*%
X184500000Y-80077500D03*
%TO.P,Left/Mono1,11*%
%TO.N,Board_5-Net-(Left/Mono1-Pad11)*%
X184500000Y-85157500D03*
%TO.P,Left/Mono1,13*%
%TO.N,Board_5-/L_in*%
X184500000Y-90237500D03*
%TO.P,Left/Mono1,16*%
%TO.N,Board_5-Net-(QL1-D)*%
X184500000Y-97857500D03*
%TD*%
D18*
%TO.P,RLed1,1*%
%TO.N,Board_0-/Control*%
X98690000Y-37750000D03*
D19*
%TO.P,RLed1,2*%
%TO.N,Board_0-Net-(D1-A)*%
X106310000Y-37750000D03*
%TD*%
D20*
%TO.P,J5,1,Pin_1*%
%TO.N,Board_2-/L_Send*%
X133500000Y-53000000D03*
D21*
%TO.P,J5,2,Pin_2*%
%TO.N,Board_2-/Signal_Gnd*%
X137000000Y-53000000D03*
%TO.P,J5,3,Pin_3*%
%TO.N,Board_2-/R_send*%
X140500000Y-53000000D03*
%TO.P,J5,4,Pin_4*%
%TO.N,Board_2-/Signal_Gnd*%
X144000000Y-53000000D03*
%TD*%
D18*
%TO.P,LeftPD1,1*%
%TO.N,Board_1-Net-(QL1-G)*%
X169310000Y-34000000D03*
D19*
%TO.P,LeftPD1,2*%
%TO.N,Board_1-/Ctrl_GND*%
X161690000Y-34000000D03*
%TD*%
D12*
%TO.P,J2,1,Pin_1*%
%TO.N,Board_4-/9V*%
X90500000Y-99500000D03*
D13*
%TO.P,J2,2,Pin_2*%
%TO.N,Board_4-/Ctrl_GND*%
X87960000Y-99500000D03*
%TD*%
D18*
%TO.P,RLed1,1*%
%TO.N,Board_1-/Control*%
X162690000Y-37750000D03*
D19*
%TO.P,RLed1,2*%
%TO.N,Board_1-Net-(D1-A)*%
X170310000Y-37750000D03*
%TD*%
D12*
%TO.P,Out1,1,Pin_1*%
%TO.N,Board_0-/Signal_Gnd*%
X92750000Y-27080000D03*
D13*
%TO.P,Out1,2,Pin_2*%
%TO.N,Board_0-/L_out*%
X92750000Y-24540000D03*
%TO.P,Out1,3,Pin_3*%
%TO.N,Board_0-/R_out*%
X92750000Y-22000000D03*
%TD*%
D12*
%TO.P,J1,1,Pin_1*%
%TO.N,Board_3-/Control*%
X152000000Y-61000000D03*
%TD*%
D10*
%TO.P,D1,1,K*%
%TO.N,Board_3-/Ctrl_GND*%
X165025000Y-52750000D03*
D11*
%TO.P,D1,2,A*%
%TO.N,Board_3-Net-(D1-A)*%
X167565000Y-52750000D03*
%TD*%
D20*
%TO.P,J4,1,Pin_1*%
%TO.N,Board_4-/Signal_Gnd*%
X144250000Y-97600000D03*
D21*
%TO.P,J4,2,Pin_2*%
%TO.N,Board_4-/R_Return*%
X140750000Y-97600000D03*
%TO.P,J4,3,Pin_3*%
%TO.N,Board_4-/Signal_Gnd*%
X137250000Y-97600000D03*
%TO.P,J4,4,Pin_4*%
%TO.N,Board_4-/L_Return*%
X133750000Y-97600000D03*
%TD*%
D12*
%TO.P,Out1,1,Pin_1*%
%TO.N,Board_4-/Signal_Gnd*%
X92750000Y-83080000D03*
D13*
%TO.P,Out1,2,Pin_2*%
%TO.N,Board_4-/L_out*%
X92750000Y-80540000D03*
%TO.P,Out1,3,Pin_3*%
%TO.N,Board_4-/R_out*%
X92750000Y-78000000D03*
%TD*%
D16*
%TO.P,Right1,1*%
%TO.N,Board_4-Net-(QL1-D)*%
X116762500Y-97857500D03*
D17*
%TO.P,Right1,4*%
%TO.N,Board_4-/R_out*%
X116762500Y-90237500D03*
%TO.P,Right1,6*%
%TO.N,Board_4-Net-(Right1-Pad11)*%
X116762500Y-85157500D03*
%TO.P,Right1,8*%
%TO.N,Board_4-/R_Return*%
X116762500Y-80077500D03*
%TO.P,Right1,9*%
%TO.N,Board_4-/R_send*%
X109142500Y-80077500D03*
%TO.P,Right1,11*%
%TO.N,Board_4-Net-(Right1-Pad11)*%
X109142500Y-85157500D03*
%TO.P,Right1,13*%
%TO.N,Board_4-/R_in*%
X109142500Y-90237500D03*
%TO.P,Right1,16*%
%TO.N,Board_4-/5V*%
X109142500Y-97857500D03*
%TD*%
D18*
%TO.P,LeftPD1,1*%
%TO.N,Board_3-Net-(QL1-G)*%
X169310000Y-62000000D03*
D19*
%TO.P,LeftPD1,2*%
%TO.N,Board_3-/Ctrl_GND*%
X161690000Y-62000000D03*
%TD*%
D12*
%TO.P,Out1,1,Pin_1*%
%TO.N,Board_1-/Signal_Gnd*%
X156750000Y-27080000D03*
D13*
%TO.P,Out1,2,Pin_2*%
%TO.N,Board_1-/L_out*%
X156750000Y-24540000D03*
%TO.P,Out1,3,Pin_3*%
%TO.N,Board_1-/R_out*%
X156750000Y-22000000D03*
%TD*%
D12*
%TO.P,Out1,1,Pin_1*%
%TO.N,Board_3-/Signal_Gnd*%
X156750000Y-55080000D03*
D13*
%TO.P,Out1,2,Pin_2*%
%TO.N,Board_3-/L_out*%
X156750000Y-52540000D03*
%TO.P,Out1,3,Pin_3*%
%TO.N,Board_3-/R_out*%
X156750000Y-50000000D03*
%TD*%
D12*
%TO.P,J2,1,Pin_1*%
%TO.N,Board_2-/9V*%
X90500000Y-71500000D03*
D13*
%TO.P,J2,2,Pin_2*%
%TO.N,Board_2-/Ctrl_GND*%
X87960000Y-71500000D03*
%TD*%
D12*
%TO.P,J3,1,Pin_1*%
%TO.N,Board_4-/9V*%
X90500000Y-95500000D03*
D13*
%TO.P,J3,2,Pin_2*%
%TO.N,Board_4-/Ctrl_GND*%
X87960000Y-95500000D03*
%TD*%
D12*
%TO.P,Out1,1,Pin_1*%
%TO.N,Board_2-/Signal_Gnd*%
X92750000Y-55080000D03*
D13*
%TO.P,Out1,2,Pin_2*%
%TO.N,Board_2-/L_out*%
X92750000Y-52540000D03*
%TO.P,Out1,3,Pin_3*%
%TO.N,Board_2-/R_out*%
X92750000Y-50000000D03*
%TD*%
D12*
%TO.P,In1,1,Pin_1*%
%TO.N,Board_5-/Signal_Gnd*%
X151500000Y-83080000D03*
D13*
%TO.P,In1,2,Pin_2*%
%TO.N,Board_5-/L_in*%
X151500000Y-80540000D03*
%TO.P,In1,3,Pin_3*%
%TO.N,Board_5-/R_in*%
X151500000Y-78000000D03*
%TD*%
D12*
%TO.P,J1,1,Pin_1*%
%TO.N,Board_2-/Control*%
X88000000Y-61000000D03*
%TD*%
D20*
%TO.P,J4,1,Pin_1*%
%TO.N,Board_2-/Signal_Gnd*%
X144250000Y-69600000D03*
D21*
%TO.P,J4,2,Pin_2*%
%TO.N,Board_2-/R_Return*%
X140750000Y-69600000D03*
%TO.P,J4,3,Pin_3*%
%TO.N,Board_2-/Signal_Gnd*%
X137250000Y-69600000D03*
%TO.P,J4,4,Pin_4*%
%TO.N,Board_2-/L_Return*%
X133750000Y-69600000D03*
%TD*%
D12*
%TO.P,J2,1,Pin_1*%
%TO.N,Board_5-/9V*%
X154500000Y-99500000D03*
D13*
%TO.P,J2,2,Pin_2*%
%TO.N,Board_5-/Ctrl_GND*%
X151960000Y-99500000D03*
%TD*%
D12*
%TO.P,In1,1,Pin_1*%
%TO.N,Board_1-/Signal_Gnd*%
X151500000Y-27080000D03*
D13*
%TO.P,In1,2,Pin_2*%
%TO.N,Board_1-/L_in*%
X151500000Y-24540000D03*
%TO.P,In1,3,Pin_3*%
%TO.N,Board_1-/R_in*%
X151500000Y-22000000D03*
%TD*%
D12*
%TO.P,J3,1,Pin_1*%
%TO.N,Board_3-/9V*%
X154500000Y-67500000D03*
D13*
%TO.P,J3,2,Pin_2*%
%TO.N,Board_3-/Ctrl_GND*%
X151960000Y-67500000D03*
%TD*%
D18*
%TO.P,LGate1,1*%
%TO.N,Board_3-/Control*%
X161690000Y-58500000D03*
D19*
%TO.P,LGate1,2*%
%TO.N,Board_3-Net-(QL1-G)*%
X169310000Y-58500000D03*
%TD*%
D22*
%TO.P,U1,1,IN*%
%TO.N,Board_3-/9V*%
X168500000Y-70200000D03*
D23*
%TO.P,U1,2,GND*%
%TO.N,Board_3-/Ctrl_GND*%
X165960000Y-70200000D03*
%TO.P,U1,3,OUT*%
%TO.N,Board_3-/5V*%
X163420000Y-70200000D03*
%TD*%
D20*
%TO.P,J5,1,Pin_1*%
%TO.N,Board_1-/L_Send*%
X197500000Y-25000000D03*
D21*
%TO.P,J5,2,Pin_2*%
%TO.N,Board_1-/Signal_Gnd*%
X201000000Y-25000000D03*
%TO.P,J5,3,Pin_3*%
%TO.N,Board_1-/R_send*%
X204500000Y-25000000D03*
%TO.P,J5,4,Pin_4*%
%TO.N,Board_1-/Signal_Gnd*%
X208000000Y-25000000D03*
%TD*%
D12*
%TO.P,J1,1,Pin_1*%
%TO.N,Board_4-/Control*%
X88000000Y-89000000D03*
%TD*%
D14*
%TO.P,QL1,1,S*%
%TO.N,Board_5-/Ctrl_GND*%
X157610000Y-90520000D03*
D15*
%TO.P,QL1,2,G*%
%TO.N,Board_5-Net-(QL1-G)*%
X157610000Y-89250000D03*
%TO.P,QL1,3,D*%
%TO.N,Board_5-Net-(QL1-D)*%
X157610000Y-87980000D03*
%TD*%
D22*
%TO.P,U1,1,IN*%
%TO.N,Board_5-/9V*%
X168500000Y-98200000D03*
D23*
%TO.P,U1,2,GND*%
%TO.N,Board_5-/Ctrl_GND*%
X165960000Y-98200000D03*
%TO.P,U1,3,OUT*%
%TO.N,Board_5-/5V*%
X163420000Y-98200000D03*
%TD*%
D14*
%TO.P,QL1,1,S*%
%TO.N,Board_4-/Ctrl_GND*%
X93610000Y-90520000D03*
D15*
%TO.P,QL1,2,G*%
%TO.N,Board_4-Net-(QL1-G)*%
X93610000Y-89250000D03*
%TO.P,QL1,3,D*%
%TO.N,Board_4-Net-(QL1-D)*%
X93610000Y-87980000D03*
%TD*%
D12*
%TO.P,J2,1,Pin_1*%
%TO.N,Board_0-/9V*%
X90500000Y-43500000D03*
D13*
%TO.P,J2,2,Pin_2*%
%TO.N,Board_0-/Ctrl_GND*%
X87960000Y-43500000D03*
%TD*%
D16*
%TO.P,Right1,1*%
%TO.N,Board_3-Net-(QL1-D)*%
X180762500Y-69857500D03*
D17*
%TO.P,Right1,4*%
%TO.N,Board_3-/R_out*%
X180762500Y-62237500D03*
%TO.P,Right1,6*%
%TO.N,Board_3-Net-(Right1-Pad11)*%
X180762500Y-57157500D03*
%TO.P,Right1,8*%
%TO.N,Board_3-/R_Return*%
X180762500Y-52077500D03*
%TO.P,Right1,9*%
%TO.N,Board_3-/R_send*%
X173142500Y-52077500D03*
%TO.P,Right1,11*%
%TO.N,Board_3-Net-(Right1-Pad11)*%
X173142500Y-57157500D03*
%TO.P,Right1,13*%
%TO.N,Board_3-/R_in*%
X173142500Y-62237500D03*
%TO.P,Right1,16*%
%TO.N,Board_3-/5V*%
X173142500Y-69857500D03*
%TD*%
D10*
%TO.P,D1,1,K*%
%TO.N,Board_1-/Ctrl_GND*%
X165025000Y-24750000D03*
D11*
%TO.P,D1,2,A*%
%TO.N,Board_1-Net-(D1-A)*%
X167565000Y-24750000D03*
%TD*%
D18*
%TO.P,LGate1,1*%
%TO.N,Board_5-/Control*%
X161690000Y-86500000D03*
D19*
%TO.P,LGate1,2*%
%TO.N,Board_5-Net-(QL1-G)*%
X169310000Y-86500000D03*
%TD*%
D20*
%TO.P,J5,1,Pin_1*%
%TO.N,Board_3-/L_Send*%
X197500000Y-53000000D03*
D21*
%TO.P,J5,2,Pin_2*%
%TO.N,Board_3-/Signal_Gnd*%
X201000000Y-53000000D03*
%TO.P,J5,3,Pin_3*%
%TO.N,Board_3-/R_send*%
X204500000Y-53000000D03*
%TO.P,J5,4,Pin_4*%
%TO.N,Board_3-/Signal_Gnd*%
X208000000Y-53000000D03*
%TD*%
D22*
%TO.P,U1,1,IN*%
%TO.N,Board_0-/9V*%
X104500000Y-42200000D03*
D23*
%TO.P,U1,2,GND*%
%TO.N,Board_0-/Ctrl_GND*%
X101960000Y-42200000D03*
%TO.P,U1,3,OUT*%
%TO.N,Board_0-/5V*%
X99420000Y-42200000D03*
%TD*%
D10*
%TO.P,D1,1,K*%
%TO.N,Board_0-/Ctrl_GND*%
X101025000Y-24750000D03*
D11*
%TO.P,D1,2,A*%
%TO.N,Board_0-Net-(D1-A)*%
X103565000Y-24750000D03*
%TD*%
D22*
%TO.P,U1,1,IN*%
%TO.N,Board_2-/9V*%
X104500000Y-70200000D03*
D23*
%TO.P,U1,2,GND*%
%TO.N,Board_2-/Ctrl_GND*%
X101960000Y-70200000D03*
%TO.P,U1,3,OUT*%
%TO.N,Board_2-/5V*%
X99420000Y-70200000D03*
%TD*%
D18*
%TO.P,LeftPD1,1*%
%TO.N,Board_4-Net-(QL1-G)*%
X105310000Y-90000000D03*
D19*
%TO.P,LeftPD1,2*%
%TO.N,Board_4-/Ctrl_GND*%
X97690000Y-90000000D03*
%TD*%
D20*
%TO.P,J4,1,Pin_1*%
%TO.N,Board_1-/Signal_Gnd*%
X208250000Y-41600000D03*
D21*
%TO.P,J4,2,Pin_2*%
%TO.N,Board_1-/R_Return*%
X204750000Y-41600000D03*
%TO.P,J4,3,Pin_3*%
%TO.N,Board_1-/Signal_Gnd*%
X201250000Y-41600000D03*
%TO.P,J4,4,Pin_4*%
%TO.N,Board_1-/L_Return*%
X197750000Y-41600000D03*
%TD*%
D18*
%TO.P,RLed1,1*%
%TO.N,Board_5-/Control*%
X162690000Y-93750000D03*
D19*
%TO.P,RLed1,2*%
%TO.N,Board_5-Net-(D1-A)*%
X170310000Y-93750000D03*
%TD*%
D14*
%TO.P,QL1,1,S*%
%TO.N,Board_1-/Ctrl_GND*%
X157610000Y-34520000D03*
D15*
%TO.P,QL1,2,G*%
%TO.N,Board_1-Net-(QL1-G)*%
X157610000Y-33250000D03*
%TO.P,QL1,3,D*%
%TO.N,Board_1-Net-(QL1-D)*%
X157610000Y-31980000D03*
%TD*%
D20*
%TO.P,J4,1,Pin_1*%
%TO.N,Board_3-/Signal_Gnd*%
X208250000Y-69600000D03*
D21*
%TO.P,J4,2,Pin_2*%
%TO.N,Board_3-/R_Return*%
X204750000Y-69600000D03*
%TO.P,J4,3,Pin_3*%
%TO.N,Board_3-/Signal_Gnd*%
X201250000Y-69600000D03*
%TO.P,J4,4,Pin_4*%
%TO.N,Board_3-/L_Return*%
X197750000Y-69600000D03*
%TD*%
D20*
%TO.P,J4,1,Pin_1*%
%TO.N,Board_0-/Signal_Gnd*%
X144250000Y-41600000D03*
D21*
%TO.P,J4,2,Pin_2*%
%TO.N,Board_0-/R_Return*%
X140750000Y-41600000D03*
%TO.P,J4,3,Pin_3*%
%TO.N,Board_0-/Signal_Gnd*%
X137250000Y-41600000D03*
%TO.P,J4,4,Pin_4*%
%TO.N,Board_0-/L_Return*%
X133750000Y-41600000D03*
%TD*%
D18*
%TO.P,RLed1,1*%
%TO.N,Board_3-/Control*%
X162690000Y-65750000D03*
D19*
%TO.P,RLed1,2*%
%TO.N,Board_3-Net-(D1-A)*%
X170310000Y-65750000D03*
%TD*%
D22*
%TO.P,U1,1,IN*%
%TO.N,Board_4-/9V*%
X104500000Y-98200000D03*
D23*
%TO.P,U1,2,GND*%
%TO.N,Board_4-/Ctrl_GND*%
X101960000Y-98200000D03*
%TO.P,U1,3,OUT*%
%TO.N,Board_4-/5V*%
X99420000Y-98200000D03*
%TD*%
D12*
%TO.P,In1,1,Pin_1*%
%TO.N,Board_0-/Signal_Gnd*%
X87500000Y-27080000D03*
D13*
%TO.P,In1,2,Pin_2*%
%TO.N,Board_0-/L_in*%
X87500000Y-24540000D03*
%TO.P,In1,3,Pin_3*%
%TO.N,Board_0-/R_in*%
X87500000Y-22000000D03*
%TD*%
D12*
%TO.P,J3,1,Pin_1*%
%TO.N,Board_1-/9V*%
X154500000Y-39500000D03*
D13*
%TO.P,J3,2,Pin_2*%
%TO.N,Board_1-/Ctrl_GND*%
X151960000Y-39500000D03*
%TD*%
D16*
%TO.P,Right1,1*%
%TO.N,Board_2-Net-(QL1-D)*%
X116762500Y-69857500D03*
D17*
%TO.P,Right1,4*%
%TO.N,Board_2-/R_out*%
X116762500Y-62237500D03*
%TO.P,Right1,6*%
%TO.N,Board_2-Net-(Right1-Pad11)*%
X116762500Y-57157500D03*
%TO.P,Right1,8*%
%TO.N,Board_2-/R_Return*%
X116762500Y-52077500D03*
%TO.P,Right1,9*%
%TO.N,Board_2-/R_send*%
X109142500Y-52077500D03*
%TO.P,Right1,11*%
%TO.N,Board_2-Net-(Right1-Pad11)*%
X109142500Y-57157500D03*
%TO.P,Right1,13*%
%TO.N,Board_2-/R_in*%
X109142500Y-62237500D03*
%TO.P,Right1,16*%
%TO.N,Board_2-/5V*%
X109142500Y-69857500D03*
%TD*%
D20*
%TO.P,J4,1,Pin_1*%
%TO.N,Board_5-/Signal_Gnd*%
X208250000Y-97600000D03*
D21*
%TO.P,J4,2,Pin_2*%
%TO.N,Board_5-/R_Return*%
X204750000Y-97600000D03*
%TO.P,J4,3,Pin_3*%
%TO.N,Board_5-/Signal_Gnd*%
X201250000Y-97600000D03*
%TO.P,J4,4,Pin_4*%
%TO.N,Board_5-/L_Return*%
X197750000Y-97600000D03*
%TD*%
D14*
%TO.P,QL1,1,S*%
%TO.N,Board_2-/Ctrl_GND*%
X93610000Y-62520000D03*
D15*
%TO.P,QL1,2,G*%
%TO.N,Board_2-Net-(QL1-G)*%
X93610000Y-61250000D03*
%TO.P,QL1,3,D*%
%TO.N,Board_2-Net-(QL1-D)*%
X93610000Y-59980000D03*
%TD*%
D12*
%TO.P,J2,1,Pin_1*%
%TO.N,Board_3-/9V*%
X154500000Y-71500000D03*
D13*
%TO.P,J2,2,Pin_2*%
%TO.N,Board_3-/Ctrl_GND*%
X151960000Y-71500000D03*
%TD*%
D12*
%TO.P,J3,1,Pin_1*%
%TO.N,Board_2-/9V*%
X90500000Y-67500000D03*
D13*
%TO.P,J3,2,Pin_2*%
%TO.N,Board_2-/Ctrl_GND*%
X87960000Y-67500000D03*
%TD*%
D16*
%TO.P,Right1,1*%
%TO.N,Board_0-Net-(QL1-D)*%
X116762500Y-41857500D03*
D17*
%TO.P,Right1,4*%
%TO.N,Board_0-/R_out*%
X116762500Y-34237500D03*
%TO.P,Right1,6*%
%TO.N,Board_0-Net-(Right1-Pad11)*%
X116762500Y-29157500D03*
%TO.P,Right1,8*%
%TO.N,Board_0-/R_Return*%
X116762500Y-24077500D03*
%TO.P,Right1,9*%
%TO.N,Board_0-/R_send*%
X109142500Y-24077500D03*
%TO.P,Right1,11*%
%TO.N,Board_0-Net-(Right1-Pad11)*%
X109142500Y-29157500D03*
%TO.P,Right1,13*%
%TO.N,Board_0-/R_in*%
X109142500Y-34237500D03*
%TO.P,Right1,16*%
%TO.N,Board_0-/5V*%
X109142500Y-41857500D03*
%TD*%
D22*
%TO.P,U1,1,IN*%
%TO.N,Board_1-/9V*%
X168500000Y-42200000D03*
D23*
%TO.P,U1,2,GND*%
%TO.N,Board_1-/Ctrl_GND*%
X165960000Y-42200000D03*
%TO.P,U1,3,OUT*%
%TO.N,Board_1-/5V*%
X163420000Y-42200000D03*
%TD*%
D14*
%TO.P,QL1,1,S*%
%TO.N,Board_0-/Ctrl_GND*%
X93610000Y-34520000D03*
D15*
%TO.P,QL1,2,G*%
%TO.N,Board_0-Net-(QL1-G)*%
X93610000Y-33250000D03*
%TO.P,QL1,3,D*%
%TO.N,Board_0-Net-(QL1-D)*%
X93610000Y-31980000D03*
%TD*%
D12*
%TO.P,J3,1,Pin_1*%
%TO.N,Board_5-/9V*%
X154500000Y-95500000D03*
D13*
%TO.P,J3,2,Pin_2*%
%TO.N,Board_5-/Ctrl_GND*%
X151960000Y-95500000D03*
%TD*%
D18*
%TO.P,LGate1,1*%
%TO.N,Board_2-/Control*%
X97690000Y-58500000D03*
D19*
%TO.P,LGate1,2*%
%TO.N,Board_2-Net-(QL1-G)*%
X105310000Y-58500000D03*
%TD*%
D12*
%TO.P,J2,1,Pin_1*%
%TO.N,Board_1-/9V*%
X154500000Y-43500000D03*
D13*
%TO.P,J2,2,Pin_2*%
%TO.N,Board_1-/Ctrl_GND*%
X151960000Y-43500000D03*
%TD*%
D20*
%TO.P,J5,1,Pin_1*%
%TO.N,Board_4-/L_Send*%
X133500000Y-81000000D03*
D21*
%TO.P,J5,2,Pin_2*%
%TO.N,Board_4-/Signal_Gnd*%
X137000000Y-81000000D03*
%TO.P,J5,3,Pin_3*%
%TO.N,Board_4-/R_send*%
X140500000Y-81000000D03*
%TO.P,J5,4,Pin_4*%
%TO.N,Board_4-/Signal_Gnd*%
X144000000Y-81000000D03*
%TD*%
D16*
%TO.P,Left/Mono1,1*%
%TO.N,Board_0-/5V*%
X128120000Y-41857500D03*
D17*
%TO.P,Left/Mono1,4*%
%TO.N,Board_0-/L_out*%
X128120000Y-34237500D03*
%TO.P,Left/Mono1,6*%
%TO.N,Board_0-Net-(Left/Mono1-Pad11)*%
X128120000Y-29157500D03*
%TO.P,Left/Mono1,8*%
%TO.N,Board_0-/L_Return*%
X128120000Y-24077500D03*
%TO.P,Left/Mono1,9*%
%TO.N,Board_0-/L_Send*%
X120500000Y-24077500D03*
%TO.P,Left/Mono1,11*%
%TO.N,Board_0-Net-(Left/Mono1-Pad11)*%
X120500000Y-29157500D03*
%TO.P,Left/Mono1,13*%
%TO.N,Board_0-/L_in*%
X120500000Y-34237500D03*
%TO.P,Left/Mono1,16*%
%TO.N,Board_0-Net-(QL1-D)*%
X120500000Y-41857500D03*
%TD*%
D12*
%TO.P,J1,1,Pin_1*%
%TO.N,Board_1-/Control*%
X152000000Y-33000000D03*
%TD*%
D16*
%TO.P,Right1,1*%
%TO.N,Board_5-Net-(QL1-D)*%
X180762500Y-97857500D03*
D17*
%TO.P,Right1,4*%
%TO.N,Board_5-/R_out*%
X180762500Y-90237500D03*
%TO.P,Right1,6*%
%TO.N,Board_5-Net-(Right1-Pad11)*%
X180762500Y-85157500D03*
%TO.P,Right1,8*%
%TO.N,Board_5-/R_Return*%
X180762500Y-80077500D03*
%TO.P,Right1,9*%
%TO.N,Board_5-/R_send*%
X173142500Y-80077500D03*
%TO.P,Right1,11*%
%TO.N,Board_5-Net-(Right1-Pad11)*%
X173142500Y-85157500D03*
%TO.P,Right1,13*%
%TO.N,Board_5-/R_in*%
X173142500Y-90237500D03*
%TO.P,Right1,16*%
%TO.N,Board_5-/5V*%
X173142500Y-97857500D03*
%TD*%
D24*
%TO.N,Board_5-/R_out*%
X169500000Y-77500000D03*
X171669591Y-77474500D03*
%TO.N,Board_5-/R_Return*%
X195000000Y-82250000D03*
%TO.N,Board_5-/L_out*%
X185250000Y-77500000D03*
%TO.N,Board_5-/L_in*%
X181500000Y-76750000D03*
%TO.N,Board_4-/R_out*%
X105500000Y-77500000D03*
X107669591Y-77474500D03*
%TO.N,Board_4-/R_Return*%
X131000000Y-82250000D03*
%TO.N,Board_4-/L_out*%
X121250000Y-77500000D03*
%TO.N,Board_4-/L_in*%
X117500000Y-76750000D03*
%TO.N,Board_3-/R_out*%
X169500000Y-49500000D03*
X171669591Y-49474500D03*
%TO.N,Board_3-/R_Return*%
X195000000Y-54250000D03*
%TO.N,Board_3-/L_out*%
X185250000Y-49500000D03*
%TO.N,Board_3-/L_in*%
X181500000Y-48750000D03*
%TO.N,Board_2-/R_out*%
X105500000Y-49500000D03*
X107669591Y-49474500D03*
%TO.N,Board_2-/R_Return*%
X131000000Y-54250000D03*
%TO.N,Board_2-/L_out*%
X121250000Y-49500000D03*
%TO.N,Board_2-/L_in*%
X117500000Y-48750000D03*
%TO.N,Board_1-/R_out*%
X171669591Y-21474500D03*
X169500000Y-21500000D03*
%TO.N,Board_1-/R_Return*%
X195000000Y-26250000D03*
%TO.N,Board_1-/L_out*%
X185250000Y-21500000D03*
%TO.N,Board_1-/L_in*%
X181500000Y-20750000D03*
%TO.N,Board_0-/R_out*%
X105500000Y-21500000D03*
X107669591Y-21474500D03*
%TO.N,Board_0-/R_Return*%
X131000000Y-26250000D03*
%TO.N,Board_0-/L_out*%
X121250000Y-21500000D03*
%TO.N,Board_0-/L_in*%
X117500000Y-20750000D03*
%TD*%
D25*
%TO.N,Board_5-Net-(Right1-Pad11)*%
X173142500Y-85157500D02*
X180762500Y-85157500D01*
D26*
%TO.N,Board_5-Net-(QL1-G)*%
X157610000Y-89250000D02*
X159750000Y-89250000D01*
X166750000Y-90000000D02*
X169310000Y-90000000D01*
X159750000Y-89250000D02*
X160500000Y-88500000D01*
X160500000Y-88500000D02*
X165250000Y-88500000D01*
X169310000Y-86500000D02*
X169310000Y-90000000D01*
X165250000Y-88500000D02*
X166750000Y-90000000D01*
D25*
%TO.N,Board_5-Net-(Left/Mono1-Pad11)*%
X184500000Y-85157500D02*
X192120000Y-85157500D01*
%TO.N,Board_5-/Signal_Gnd*%
X170000000Y-84250000D02*
X171250000Y-83000000D01*
X160830000Y-83080000D02*
X162000000Y-84250000D01*
X203200000Y-83200000D02*
X199700000Y-83200000D01*
X151500000Y-83080000D02*
X160830000Y-83080000D01*
X201250000Y-99150000D02*
X202100000Y-100000000D01*
X201000000Y-81000000D02*
X203200000Y-83200000D01*
X205800000Y-83200000D02*
X208000000Y-81000000D01*
X199700000Y-83200000D02*
X199500000Y-83000000D01*
X207700000Y-100000000D02*
X208250000Y-99450000D01*
X206700000Y-96050000D02*
X208250000Y-97600000D01*
X162000000Y-84250000D02*
X170000000Y-84250000D01*
X151500000Y-83080000D02*
X155500000Y-83080000D01*
X206700000Y-84100000D02*
X206700000Y-96050000D01*
X205800000Y-83200000D02*
X206700000Y-84100000D01*
X208250000Y-99450000D02*
X208250000Y-97600000D01*
X203200000Y-83200000D02*
X205800000Y-83200000D01*
X201250000Y-97600000D02*
X201250000Y-99150000D01*
X171250000Y-83000000D02*
X199500000Y-83000000D01*
X202100000Y-100000000D02*
X207700000Y-100000000D01*
%TO.N,Board_5-/R_send*%
X201725000Y-78225000D02*
X204500000Y-81000000D01*
X173142500Y-80077500D02*
X174995000Y-78225000D01*
X174995000Y-78225000D02*
X201725000Y-78225000D01*
%TO.N,Board_5-/R_out*%
X171750000Y-77500000D02*
X171695091Y-77500000D01*
X171695091Y-77500000D02*
X171669591Y-77474500D01*
X169500000Y-77500000D02*
X171750000Y-77500000D01*
%TO.N,Board_5-/R_Return*%
X180762500Y-80077500D02*
X182935000Y-82250000D01*
X204500000Y-97350000D02*
X204750000Y-97600000D01*
X182935000Y-82250000D02*
X195000000Y-82250000D01*
%TO.N,Board_5-/L_out*%
X180474695Y-76750000D02*
X181224695Y-77500000D01*
X159000000Y-78290000D02*
X159000000Y-76750000D01*
X156750000Y-80540000D02*
X159000000Y-78290000D01*
X181224695Y-77500000D02*
X185250000Y-77500000D01*
X159000000Y-76750000D02*
X180474695Y-76750000D01*
%TO.N,Board_5-/L_in*%
X151500000Y-80540000D02*
X153000000Y-79040000D01*
X153000000Y-77000000D02*
X153750000Y-76250000D01*
X153000000Y-79040000D02*
X153000000Y-77000000D01*
X181000000Y-76250000D02*
X181500000Y-76750000D01*
X153750000Y-76250000D02*
X181000000Y-76250000D01*
%TO.N,Board_5-/L_Send*%
X196500000Y-79000000D02*
X197500000Y-80000000D01*
X184500000Y-80077500D02*
X185577500Y-79000000D01*
X185577500Y-79000000D02*
X196500000Y-79000000D01*
X197500000Y-80000000D02*
X197500000Y-81000000D01*
D26*
%TO.N,Board_5-/Ctrl_GND*%
X153710000Y-101250000D02*
X163250000Y-101250000D01*
X151960000Y-95500000D02*
X151960000Y-92540000D01*
X161170000Y-90520000D02*
X161690000Y-90000000D01*
X153980000Y-90520000D02*
X157610000Y-90520000D01*
X165000000Y-99160000D02*
X165960000Y-98200000D01*
X163250000Y-101250000D02*
X165000000Y-99500000D01*
X151960000Y-99500000D02*
X153710000Y-101250000D01*
X151960000Y-92540000D02*
X153980000Y-90520000D01*
X151960000Y-95500000D02*
X151960000Y-99500000D01*
X157610000Y-90520000D02*
X161170000Y-90520000D01*
X165000000Y-99500000D02*
X165000000Y-99160000D01*
%TO.N,Board_5-/9V*%
X154500000Y-95500000D02*
X154500000Y-99500000D01*
%TO.N,Board_5-/5V*%
X171890000Y-96605000D02*
X163895000Y-96605000D01*
X192120000Y-99630000D02*
X192120000Y-97857500D01*
X173142500Y-97857500D02*
X171890000Y-96605000D01*
X175535000Y-100250000D02*
X191500000Y-100250000D01*
X163420000Y-97080000D02*
X163420000Y-98200000D01*
X163895000Y-96605000D02*
X163420000Y-97080000D01*
X191500000Y-100250000D02*
X192120000Y-99630000D01*
X173142500Y-97857500D02*
X175535000Y-100250000D01*
D25*
%TO.N,Board_4-Net-(Right1-Pad11)*%
X109142500Y-85157500D02*
X116762500Y-85157500D01*
D26*
%TO.N,Board_4-Net-(QL1-G)*%
X95750000Y-89250000D02*
X96500000Y-88500000D01*
X101250000Y-88500000D02*
X102750000Y-90000000D01*
X105310000Y-86500000D02*
X105310000Y-90000000D01*
X93610000Y-89250000D02*
X95750000Y-89250000D01*
X96500000Y-88500000D02*
X101250000Y-88500000D01*
X102750000Y-90000000D02*
X105310000Y-90000000D01*
D25*
%TO.N,Board_4-Net-(Left/Mono1-Pad11)*%
X120500000Y-85157500D02*
X128120000Y-85157500D01*
%TO.N,Board_4-/Signal_Gnd*%
X87500000Y-83080000D02*
X96830000Y-83080000D01*
X137000000Y-81000000D02*
X139200000Y-83200000D01*
X139200000Y-83200000D02*
X135700000Y-83200000D01*
X137250000Y-97600000D02*
X137250000Y-99150000D01*
X139200000Y-83200000D02*
X141800000Y-83200000D01*
X98000000Y-84250000D02*
X106000000Y-84250000D01*
X106000000Y-84250000D02*
X107250000Y-83000000D01*
X144250000Y-99450000D02*
X144250000Y-97600000D01*
X142700000Y-84100000D02*
X142700000Y-96050000D01*
X87500000Y-83080000D02*
X91500000Y-83080000D01*
X135700000Y-83200000D02*
X135500000Y-83000000D01*
X142700000Y-96050000D02*
X144250000Y-97600000D01*
X143700000Y-100000000D02*
X144250000Y-99450000D01*
X141800000Y-83200000D02*
X144000000Y-81000000D01*
X141800000Y-83200000D02*
X142700000Y-84100000D01*
X107250000Y-83000000D02*
X135500000Y-83000000D01*
X138100000Y-100000000D02*
X143700000Y-100000000D01*
X96830000Y-83080000D02*
X98000000Y-84250000D01*
X137250000Y-99150000D02*
X138100000Y-100000000D01*
%TO.N,Board_4-/R_send*%
X109142500Y-80077500D02*
X110995000Y-78225000D01*
X137725000Y-78225000D02*
X140500000Y-81000000D01*
X110995000Y-78225000D02*
X137725000Y-78225000D01*
%TO.N,Board_4-/R_out*%
X107750000Y-77500000D02*
X107695091Y-77500000D01*
X107695091Y-77500000D02*
X107669591Y-77474500D01*
X105500000Y-77500000D02*
X107750000Y-77500000D01*
%TO.N,Board_4-/R_Return*%
X118935000Y-82250000D02*
X131000000Y-82250000D01*
X140500000Y-97350000D02*
X140750000Y-97600000D01*
X116762500Y-80077500D02*
X118935000Y-82250000D01*
%TO.N,Board_4-/L_out*%
X116474695Y-76750000D02*
X117224695Y-77500000D01*
X95000000Y-78290000D02*
X95000000Y-76750000D01*
X117224695Y-77500000D02*
X121250000Y-77500000D01*
X95000000Y-76750000D02*
X116474695Y-76750000D01*
X92750000Y-80540000D02*
X95000000Y-78290000D01*
%TO.N,Board_4-/L_in*%
X117000000Y-76250000D02*
X117500000Y-76750000D01*
X87500000Y-80540000D02*
X89000000Y-79040000D01*
X89000000Y-79040000D02*
X89000000Y-77000000D01*
X89750000Y-76250000D02*
X117000000Y-76250000D01*
X89000000Y-77000000D02*
X89750000Y-76250000D01*
%TO.N,Board_4-/L_Send*%
X133500000Y-80000000D02*
X133500000Y-81000000D01*
X120500000Y-80077500D02*
X121577500Y-79000000D01*
X121577500Y-79000000D02*
X132500000Y-79000000D01*
X132500000Y-79000000D02*
X133500000Y-80000000D01*
D26*
%TO.N,Board_4-/Ctrl_GND*%
X99250000Y-101250000D02*
X101000000Y-99500000D01*
X89980000Y-90520000D02*
X93610000Y-90520000D01*
X87960000Y-99500000D02*
X89710000Y-101250000D01*
X87960000Y-92540000D02*
X89980000Y-90520000D01*
X101000000Y-99500000D02*
X101000000Y-99160000D01*
X97170000Y-90520000D02*
X97690000Y-90000000D01*
X93610000Y-90520000D02*
X97170000Y-90520000D01*
X89710000Y-101250000D02*
X99250000Y-101250000D01*
X87960000Y-95500000D02*
X87960000Y-92540000D01*
X87960000Y-95500000D02*
X87960000Y-99500000D01*
X101000000Y-99160000D02*
X101960000Y-98200000D01*
%TO.N,Board_4-/9V*%
X90500000Y-95500000D02*
X90500000Y-99500000D01*
%TO.N,Board_4-/5V*%
X99895000Y-96605000D02*
X99420000Y-97080000D01*
X109142500Y-97857500D02*
X107890000Y-96605000D01*
X109142500Y-97857500D02*
X111535000Y-100250000D01*
X111535000Y-100250000D02*
X127500000Y-100250000D01*
X107890000Y-96605000D02*
X99895000Y-96605000D01*
X128120000Y-99630000D02*
X128120000Y-97857500D01*
X127500000Y-100250000D02*
X128120000Y-99630000D01*
X99420000Y-97080000D02*
X99420000Y-98200000D01*
D25*
%TO.N,Board_3-Net-(Right1-Pad11)*%
X173142500Y-57157500D02*
X180762500Y-57157500D01*
D26*
%TO.N,Board_3-Net-(QL1-G)*%
X160500000Y-60500000D02*
X165250000Y-60500000D01*
X166750000Y-62000000D02*
X169310000Y-62000000D01*
X157610000Y-61250000D02*
X159750000Y-61250000D01*
X165250000Y-60500000D02*
X166750000Y-62000000D01*
X169310000Y-58500000D02*
X169310000Y-62000000D01*
X159750000Y-61250000D02*
X160500000Y-60500000D01*
D25*
%TO.N,Board_3-Net-(Left/Mono1-Pad11)*%
X184500000Y-57157500D02*
X192120000Y-57157500D01*
%TO.N,Board_3-/Signal_Gnd*%
X162000000Y-56250000D02*
X170000000Y-56250000D01*
X199700000Y-55200000D02*
X199500000Y-55000000D01*
X171250000Y-55000000D02*
X199500000Y-55000000D01*
X206700000Y-56100000D02*
X206700000Y-68050000D01*
X151500000Y-55080000D02*
X155500000Y-55080000D01*
X205800000Y-55200000D02*
X208000000Y-53000000D01*
X160830000Y-55080000D02*
X162000000Y-56250000D01*
X170000000Y-56250000D02*
X171250000Y-55000000D01*
X205800000Y-55200000D02*
X206700000Y-56100000D01*
X201250000Y-71150000D02*
X202100000Y-72000000D01*
X206700000Y-68050000D02*
X208250000Y-69600000D01*
X207700000Y-72000000D02*
X208250000Y-71450000D01*
X151500000Y-55080000D02*
X160830000Y-55080000D01*
X202100000Y-72000000D02*
X207700000Y-72000000D01*
X203200000Y-55200000D02*
X205800000Y-55200000D01*
X201000000Y-53000000D02*
X203200000Y-55200000D01*
X203200000Y-55200000D02*
X199700000Y-55200000D01*
X208250000Y-71450000D02*
X208250000Y-69600000D01*
X201250000Y-69600000D02*
X201250000Y-71150000D01*
%TO.N,Board_3-/R_send*%
X173142500Y-52077500D02*
X174995000Y-50225000D01*
X174995000Y-50225000D02*
X201725000Y-50225000D01*
X201725000Y-50225000D02*
X204500000Y-53000000D01*
%TO.N,Board_3-/R_out*%
X171750000Y-49500000D02*
X171695091Y-49500000D01*
X171695091Y-49500000D02*
X171669591Y-49474500D01*
X169500000Y-49500000D02*
X171750000Y-49500000D01*
%TO.N,Board_3-/R_Return*%
X180762500Y-52077500D02*
X182935000Y-54250000D01*
X204500000Y-69350000D02*
X204750000Y-69600000D01*
X182935000Y-54250000D02*
X195000000Y-54250000D01*
%TO.N,Board_3-/L_out*%
X180474695Y-48750000D02*
X181224695Y-49500000D01*
X159000000Y-48750000D02*
X180474695Y-48750000D01*
X156750000Y-52540000D02*
X159000000Y-50290000D01*
X159000000Y-50290000D02*
X159000000Y-48750000D01*
X181224695Y-49500000D02*
X185250000Y-49500000D01*
%TO.N,Board_3-/L_in*%
X153000000Y-49000000D02*
X153750000Y-48250000D01*
X151500000Y-52540000D02*
X153000000Y-51040000D01*
X153000000Y-51040000D02*
X153000000Y-49000000D01*
X181000000Y-48250000D02*
X181500000Y-48750000D01*
X153750000Y-48250000D02*
X181000000Y-48250000D01*
%TO.N,Board_3-/L_Send*%
X196500000Y-51000000D02*
X197500000Y-52000000D01*
X197500000Y-52000000D02*
X197500000Y-53000000D01*
X184500000Y-52077500D02*
X185577500Y-51000000D01*
X185577500Y-51000000D02*
X196500000Y-51000000D01*
D26*
%TO.N,Board_3-/Ctrl_GND*%
X165000000Y-71500000D02*
X165000000Y-71160000D01*
X153980000Y-62520000D02*
X157610000Y-62520000D01*
X157610000Y-62520000D02*
X161170000Y-62520000D01*
X151960000Y-67500000D02*
X151960000Y-71500000D01*
X163250000Y-73250000D02*
X165000000Y-71500000D01*
X151960000Y-67500000D02*
X151960000Y-64540000D01*
X151960000Y-64540000D02*
X153980000Y-62520000D01*
X153710000Y-73250000D02*
X163250000Y-73250000D01*
X151960000Y-71500000D02*
X153710000Y-73250000D01*
X165000000Y-71160000D02*
X165960000Y-70200000D01*
X161170000Y-62520000D02*
X161690000Y-62000000D01*
%TO.N,Board_3-/9V*%
X154500000Y-67500000D02*
X154500000Y-71500000D01*
%TO.N,Board_3-/5V*%
X173142500Y-69857500D02*
X171890000Y-68605000D01*
X163895000Y-68605000D02*
X163420000Y-69080000D01*
X171890000Y-68605000D02*
X163895000Y-68605000D01*
X175535000Y-72250000D02*
X191500000Y-72250000D01*
X192120000Y-71630000D02*
X192120000Y-69857500D01*
X163420000Y-69080000D02*
X163420000Y-70200000D01*
X173142500Y-69857500D02*
X175535000Y-72250000D01*
X191500000Y-72250000D02*
X192120000Y-71630000D01*
D25*
%TO.N,Board_2-Net-(Right1-Pad11)*%
X109142500Y-57157500D02*
X116762500Y-57157500D01*
D26*
%TO.N,Board_2-Net-(QL1-G)*%
X96500000Y-60500000D02*
X101250000Y-60500000D01*
X101250000Y-60500000D02*
X102750000Y-62000000D01*
X105310000Y-58500000D02*
X105310000Y-62000000D01*
X102750000Y-62000000D02*
X105310000Y-62000000D01*
X95750000Y-61250000D02*
X96500000Y-60500000D01*
X93610000Y-61250000D02*
X95750000Y-61250000D01*
D25*
%TO.N,Board_2-Net-(Left/Mono1-Pad11)*%
X120500000Y-57157500D02*
X128120000Y-57157500D01*
%TO.N,Board_2-/Signal_Gnd*%
X137250000Y-71150000D02*
X138100000Y-72000000D01*
X141800000Y-55200000D02*
X142700000Y-56100000D01*
X107250000Y-55000000D02*
X135500000Y-55000000D01*
X137000000Y-53000000D02*
X139200000Y-55200000D01*
X137250000Y-69600000D02*
X137250000Y-71150000D01*
X139200000Y-55200000D02*
X141800000Y-55200000D01*
X87500000Y-55080000D02*
X96830000Y-55080000D01*
X87500000Y-55080000D02*
X91500000Y-55080000D01*
X142700000Y-56100000D02*
X142700000Y-68050000D01*
X138100000Y-72000000D02*
X143700000Y-72000000D01*
X144250000Y-71450000D02*
X144250000Y-69600000D01*
X143700000Y-72000000D02*
X144250000Y-71450000D01*
X98000000Y-56250000D02*
X106000000Y-56250000D01*
X106000000Y-56250000D02*
X107250000Y-55000000D01*
X96830000Y-55080000D02*
X98000000Y-56250000D01*
X135700000Y-55200000D02*
X135500000Y-55000000D01*
X139200000Y-55200000D02*
X135700000Y-55200000D01*
X141800000Y-55200000D02*
X144000000Y-53000000D01*
X142700000Y-68050000D02*
X144250000Y-69600000D01*
%TO.N,Board_2-/R_send*%
X109142500Y-52077500D02*
X110995000Y-50225000D01*
X110995000Y-50225000D02*
X137725000Y-50225000D01*
X137725000Y-50225000D02*
X140500000Y-53000000D01*
%TO.N,Board_2-/R_out*%
X107750000Y-49500000D02*
X107695091Y-49500000D01*
X107695091Y-49500000D02*
X107669591Y-49474500D01*
X105500000Y-49500000D02*
X107750000Y-49500000D01*
%TO.N,Board_2-/R_Return*%
X116762500Y-52077500D02*
X118935000Y-54250000D01*
X118935000Y-54250000D02*
X131000000Y-54250000D01*
X140500000Y-69350000D02*
X140750000Y-69600000D01*
%TO.N,Board_2-/L_out*%
X116474695Y-48750000D02*
X117224695Y-49500000D01*
X95000000Y-48750000D02*
X116474695Y-48750000D01*
X92750000Y-52540000D02*
X95000000Y-50290000D01*
X117224695Y-49500000D02*
X121250000Y-49500000D01*
X95000000Y-50290000D02*
X95000000Y-48750000D01*
%TO.N,Board_2-/L_in*%
X89000000Y-49000000D02*
X89750000Y-48250000D01*
X89000000Y-51040000D02*
X89000000Y-49000000D01*
X117000000Y-48250000D02*
X117500000Y-48750000D01*
X87500000Y-52540000D02*
X89000000Y-51040000D01*
X89750000Y-48250000D02*
X117000000Y-48250000D01*
%TO.N,Board_2-/L_Send*%
X133500000Y-52000000D02*
X133500000Y-53000000D01*
X121577500Y-51000000D02*
X132500000Y-51000000D01*
X132500000Y-51000000D02*
X133500000Y-52000000D01*
X120500000Y-52077500D02*
X121577500Y-51000000D01*
D26*
%TO.N,Board_2-/Ctrl_GND*%
X93610000Y-62520000D02*
X97170000Y-62520000D01*
X89980000Y-62520000D02*
X93610000Y-62520000D01*
X101000000Y-71500000D02*
X101000000Y-71160000D01*
X99250000Y-73250000D02*
X101000000Y-71500000D01*
X87960000Y-71500000D02*
X89710000Y-73250000D01*
X87960000Y-64540000D02*
X89980000Y-62520000D01*
X89710000Y-73250000D02*
X99250000Y-73250000D01*
X87960000Y-67500000D02*
X87960000Y-64540000D01*
X101000000Y-71160000D02*
X101960000Y-70200000D01*
X87960000Y-67500000D02*
X87960000Y-71500000D01*
X97170000Y-62520000D02*
X97690000Y-62000000D01*
%TO.N,Board_2-/9V*%
X90500000Y-67500000D02*
X90500000Y-71500000D01*
%TO.N,Board_2-/5V*%
X109142500Y-69857500D02*
X107890000Y-68605000D01*
X127500000Y-72250000D02*
X128120000Y-71630000D01*
X111535000Y-72250000D02*
X127500000Y-72250000D01*
X109142500Y-69857500D02*
X111535000Y-72250000D01*
X107890000Y-68605000D02*
X99895000Y-68605000D01*
X128120000Y-71630000D02*
X128120000Y-69857500D01*
X99420000Y-69080000D02*
X99420000Y-70200000D01*
X99895000Y-68605000D02*
X99420000Y-69080000D01*
D25*
%TO.N,Board_1-Net-(Right1-Pad11)*%
X173142500Y-29157500D02*
X180762500Y-29157500D01*
D26*
%TO.N,Board_1-Net-(QL1-G)*%
X159750000Y-33250000D02*
X160500000Y-32500000D01*
X166750000Y-34000000D02*
X169310000Y-34000000D01*
X165250000Y-32500000D02*
X166750000Y-34000000D01*
X157610000Y-33250000D02*
X159750000Y-33250000D01*
X160500000Y-32500000D02*
X165250000Y-32500000D01*
X169310000Y-30500000D02*
X169310000Y-34000000D01*
D25*
%TO.N,Board_1-Net-(Left/Mono1-Pad11)*%
X184500000Y-29157500D02*
X192120000Y-29157500D01*
%TO.N,Board_1-/Signal_Gnd*%
X201250000Y-41600000D02*
X201250000Y-43150000D01*
X170000000Y-28250000D02*
X171250000Y-27000000D01*
X206700000Y-28100000D02*
X206700000Y-40050000D01*
X162000000Y-28250000D02*
X170000000Y-28250000D01*
X206700000Y-40050000D02*
X208250000Y-41600000D01*
X171250000Y-27000000D02*
X199500000Y-27000000D01*
X203200000Y-27200000D02*
X199700000Y-27200000D01*
X201000000Y-25000000D02*
X203200000Y-27200000D01*
X201250000Y-43150000D02*
X202100000Y-44000000D01*
X205800000Y-27200000D02*
X206700000Y-28100000D01*
X202100000Y-44000000D02*
X207700000Y-44000000D01*
X205800000Y-27200000D02*
X208000000Y-25000000D01*
X203200000Y-27200000D02*
X205800000Y-27200000D01*
X160830000Y-27080000D02*
X162000000Y-28250000D01*
X199700000Y-27200000D02*
X199500000Y-27000000D01*
X208250000Y-43450000D02*
X208250000Y-41600000D01*
X207700000Y-44000000D02*
X208250000Y-43450000D01*
X151500000Y-27080000D02*
X160830000Y-27080000D01*
X151500000Y-27080000D02*
X155500000Y-27080000D01*
%TO.N,Board_1-/R_send*%
X201725000Y-22225000D02*
X204500000Y-25000000D01*
X173142500Y-24077500D02*
X174995000Y-22225000D01*
X174995000Y-22225000D02*
X201725000Y-22225000D01*
%TO.N,Board_1-/R_out*%
X171750000Y-21500000D02*
X171695091Y-21500000D01*
X169500000Y-21500000D02*
X171750000Y-21500000D01*
X171695091Y-21500000D02*
X171669591Y-21474500D01*
%TO.N,Board_1-/R_Return*%
X182935000Y-26250000D02*
X195000000Y-26250000D01*
X180762500Y-24077500D02*
X182935000Y-26250000D01*
X204500000Y-41350000D02*
X204750000Y-41600000D01*
%TO.N,Board_1-/L_out*%
X159000000Y-20750000D02*
X180474695Y-20750000D01*
X181224695Y-21500000D02*
X185250000Y-21500000D01*
X180474695Y-20750000D02*
X181224695Y-21500000D01*
X159000000Y-22290000D02*
X159000000Y-20750000D01*
X156750000Y-24540000D02*
X159000000Y-22290000D01*
%TO.N,Board_1-/L_in*%
X153750000Y-20250000D02*
X181000000Y-20250000D01*
X181000000Y-20250000D02*
X181500000Y-20750000D01*
X151500000Y-24540000D02*
X153000000Y-23040000D01*
X153000000Y-21000000D02*
X153750000Y-20250000D01*
X153000000Y-23040000D02*
X153000000Y-21000000D01*
%TO.N,Board_1-/L_Send*%
X184500000Y-24077500D02*
X185577500Y-23000000D01*
X197500000Y-24000000D02*
X197500000Y-25000000D01*
X196500000Y-23000000D02*
X197500000Y-24000000D01*
X185577500Y-23000000D02*
X196500000Y-23000000D01*
D26*
%TO.N,Board_1-/Ctrl_GND*%
X163250000Y-45250000D02*
X165000000Y-43500000D01*
X153980000Y-34520000D02*
X157610000Y-34520000D01*
X151960000Y-39500000D02*
X151960000Y-43500000D01*
X157610000Y-34520000D02*
X161170000Y-34520000D01*
X151960000Y-36540000D02*
X153980000Y-34520000D01*
X165000000Y-43160000D02*
X165960000Y-42200000D01*
X161170000Y-34520000D02*
X161690000Y-34000000D01*
X151960000Y-39500000D02*
X151960000Y-36540000D01*
X153710000Y-45250000D02*
X163250000Y-45250000D01*
X165000000Y-43500000D02*
X165000000Y-43160000D01*
X151960000Y-43500000D02*
X153710000Y-45250000D01*
%TO.N,Board_1-/9V*%
X154500000Y-39500000D02*
X154500000Y-43500000D01*
%TO.N,Board_1-/5V*%
X192120000Y-43630000D02*
X192120000Y-41857500D01*
X171890000Y-40605000D02*
X163895000Y-40605000D01*
X163895000Y-40605000D02*
X163420000Y-41080000D01*
X173142500Y-41857500D02*
X175535000Y-44250000D01*
X173142500Y-41857500D02*
X171890000Y-40605000D01*
X191500000Y-44250000D02*
X192120000Y-43630000D01*
X163420000Y-41080000D02*
X163420000Y-42200000D01*
X175535000Y-44250000D02*
X191500000Y-44250000D01*
D25*
%TO.N,Board_0-Net-(Right1-Pad11)*%
X109142500Y-29157500D02*
X116762500Y-29157500D01*
D26*
%TO.N,Board_0-Net-(QL1-G)*%
X101250000Y-32500000D02*
X102750000Y-34000000D01*
X96500000Y-32500000D02*
X101250000Y-32500000D01*
X105310000Y-30500000D02*
X105310000Y-34000000D01*
X93610000Y-33250000D02*
X95750000Y-33250000D01*
X102750000Y-34000000D02*
X105310000Y-34000000D01*
X95750000Y-33250000D02*
X96500000Y-32500000D01*
D25*
%TO.N,Board_0-Net-(Left/Mono1-Pad11)*%
X120500000Y-29157500D02*
X128120000Y-29157500D01*
%TO.N,Board_0-/Signal_Gnd*%
X141800000Y-27200000D02*
X142700000Y-28100000D01*
X98000000Y-28250000D02*
X106000000Y-28250000D01*
X106000000Y-28250000D02*
X107250000Y-27000000D01*
X141800000Y-27200000D02*
X144000000Y-25000000D01*
X144250000Y-43450000D02*
X144250000Y-41600000D01*
X135700000Y-27200000D02*
X135500000Y-27000000D01*
X137250000Y-43150000D02*
X138100000Y-44000000D01*
X96830000Y-27080000D02*
X98000000Y-28250000D01*
X138100000Y-44000000D02*
X143700000Y-44000000D01*
X87500000Y-27080000D02*
X96830000Y-27080000D01*
X142700000Y-40050000D02*
X144250000Y-41600000D01*
X143700000Y-44000000D02*
X144250000Y-43450000D01*
X107250000Y-27000000D02*
X135500000Y-27000000D01*
X137000000Y-25000000D02*
X139200000Y-27200000D01*
X87500000Y-27080000D02*
X91500000Y-27080000D01*
X142700000Y-28100000D02*
X142700000Y-40050000D01*
X139200000Y-27200000D02*
X141800000Y-27200000D01*
X137250000Y-41600000D02*
X137250000Y-43150000D01*
X139200000Y-27200000D02*
X135700000Y-27200000D01*
%TO.N,Board_0-/R_send*%
X110995000Y-22225000D02*
X137725000Y-22225000D01*
X137725000Y-22225000D02*
X140500000Y-25000000D01*
X109142500Y-24077500D02*
X110995000Y-22225000D01*
%TO.N,Board_0-/R_out*%
X107695091Y-21500000D02*
X107669591Y-21474500D01*
X107750000Y-21500000D02*
X107695091Y-21500000D01*
X105500000Y-21500000D02*
X107750000Y-21500000D01*
%TO.N,Board_0-/R_Return*%
X118935000Y-26250000D02*
X131000000Y-26250000D01*
X140500000Y-41350000D02*
X140750000Y-41600000D01*
X116762500Y-24077500D02*
X118935000Y-26250000D01*
%TO.N,Board_0-/L_out*%
X116474695Y-20750000D02*
X117224695Y-21500000D01*
X95000000Y-20750000D02*
X116474695Y-20750000D01*
X95000000Y-22290000D02*
X95000000Y-20750000D01*
X92750000Y-24540000D02*
X95000000Y-22290000D01*
X117224695Y-21500000D02*
X121250000Y-21500000D01*
%TO.N,Board_0-/L_in*%
X89000000Y-21000000D02*
X89750000Y-20250000D01*
X117000000Y-20250000D02*
X117500000Y-20750000D01*
X89750000Y-20250000D02*
X117000000Y-20250000D01*
X89000000Y-23040000D02*
X89000000Y-21000000D01*
X87500000Y-24540000D02*
X89000000Y-23040000D01*
%TO.N,Board_0-/L_Send*%
X133500000Y-24000000D02*
X133500000Y-25000000D01*
X120500000Y-24077500D02*
X121577500Y-23000000D01*
X132500000Y-23000000D02*
X133500000Y-24000000D01*
X121577500Y-23000000D02*
X132500000Y-23000000D01*
D26*
%TO.N,Board_0-/Ctrl_GND*%
X87960000Y-36540000D02*
X89980000Y-34520000D01*
X101000000Y-43160000D02*
X101960000Y-42200000D01*
X89980000Y-34520000D02*
X93610000Y-34520000D01*
X87960000Y-43500000D02*
X89710000Y-45250000D01*
X87960000Y-39500000D02*
X87960000Y-43500000D01*
X93610000Y-34520000D02*
X97170000Y-34520000D01*
X101000000Y-43500000D02*
X101000000Y-43160000D01*
X89710000Y-45250000D02*
X99250000Y-45250000D01*
X97170000Y-34520000D02*
X97690000Y-34000000D01*
X99250000Y-45250000D02*
X101000000Y-43500000D01*
X87960000Y-39500000D02*
X87960000Y-36540000D01*
%TO.N,Board_0-/9V*%
X90500000Y-39500000D02*
X90500000Y-43500000D01*
%TO.N,Board_0-/5V*%
X109142500Y-41857500D02*
X111535000Y-44250000D01*
X99895000Y-40605000D02*
X99420000Y-41080000D01*
X107890000Y-40605000D02*
X99895000Y-40605000D01*
X109142500Y-41857500D02*
X107890000Y-40605000D01*
X127500000Y-44250000D02*
X128120000Y-43630000D01*
X99420000Y-41080000D02*
X99420000Y-42200000D01*
X111535000Y-44250000D02*
X127500000Y-44250000D01*
X128120000Y-43630000D02*
X128120000Y-41857500D01*
%TD*%
M02*
