%TF.GenerationSoftware,KiCad,Pcbnew,7.0.9*%
%TF.CreationDate,2024-06-08T21:24:25-04:00*%
%TF.ProjectId,Jackless-Panel,4a61636b-6c65-4737-932d-50616e656c2e,rev?*%
%TF.SameCoordinates,Original*%
%TF.FileFunction,Copper,L1,Top*%
%TF.FilePolarity,Positive*%
%FSLAX46Y46*%
G04 Gerber Fmt 4.6, Leading zero omitted, Abs format (unit mm)*
G04 Created by KiCad (PCBNEW 7.0.9) date 2024-06-08 21:24:25*
%MOMM*%
%LPD*%
G01*
G04 APERTURE LIST*
%TA.AperFunction,ComponentPad*%
%ADD10R,1.800000X1.800000*%
%TD*%
%TA.AperFunction,ComponentPad*%
%ADD11C,1.800000*%
%TD*%
%TA.AperFunction,ComponentPad*%
%ADD12R,1.700000X1.700000*%
%TD*%
%TA.AperFunction,ComponentPad*%
%ADD13O,1.700000X1.700000*%
%TD*%
%TA.AperFunction,ComponentPad*%
%ADD14R,1.500000X1.050000*%
%TD*%
%TA.AperFunction,ComponentPad*%
%ADD15O,1.500000X1.050000*%
%TD*%
%TA.AperFunction,ComponentPad*%
%ADD16R,1.400000X1.400000*%
%TD*%
%TA.AperFunction,ComponentPad*%
%ADD17C,1.400000*%
%TD*%
%TA.AperFunction,ComponentPad*%
%ADD18C,1.600000*%
%TD*%
%TA.AperFunction,ComponentPad*%
%ADD19O,1.600000X1.600000*%
%TD*%
%TA.AperFunction,ComponentPad*%
%ADD20R,2.400000X2.400000*%
%TD*%
%TA.AperFunction,ComponentPad*%
%ADD21C,2.400000*%
%TD*%
%TA.AperFunction,ComponentPad*%
%ADD22R,1.905000X2.000000*%
%TD*%
%TA.AperFunction,ComponentPad*%
%ADD23O,1.905000X2.000000*%
%TD*%
%TA.AperFunction,ViaPad*%
%ADD24C,0.800000*%
%TD*%
%TA.AperFunction,Conductor*%
%ADD25C,0.500000*%
%TD*%
%TA.AperFunction,Conductor*%
%ADD26C,0.250000*%
%TD*%
G04 APERTURE END LIST*
D10*
%TO.P,D1,1,K*%
%TO.N,Board_2-/Ctrl_GND*%
X101025000Y-52750000D03*
D11*
%TO.P,D1,2,A*%
%TO.N,Board_2-Net-(D1-A)*%
X103565000Y-52750000D03*
%TD*%
D12*
%TO.P,Out1,1,Pin_1*%
%TO.N,Board_5-/Signal_Gnd*%
X156750000Y-83080000D03*
D13*
%TO.P,Out1,2,Pin_2*%
%TO.N,Board_5-/L_out*%
X156750000Y-80540000D03*
%TO.P,Out1,3,Pin_3*%
%TO.N,Board_5-/R_out*%
X156750000Y-78000000D03*
%TD*%
D14*
%TO.P,QL1,1,S*%
%TO.N,Board_3-/Ctrl_GND*%
X157610000Y-62520000D03*
D15*
%TO.P,QL1,2,G*%
%TO.N,Board_3-Net-(QL1-G)*%
X157610000Y-61250000D03*
%TO.P,QL1,3,D*%
%TO.N,Board_3-Net-(QL1-D)*%
X157610000Y-59980000D03*
%TD*%
D12*
%TO.P,J1,1,Pin_1*%
%TO.N,Board_0-/Control*%
X88000000Y-33000000D03*
%TD*%
%TO.P,J3,1,Pin_1*%
%TO.N,Board_0-/9V*%
X90500000Y-39500000D03*
D13*
%TO.P,J3,2,Pin_2*%
%TO.N,Board_0-/Ctrl_GND*%
X87960000Y-39500000D03*
%TD*%
D16*
%TO.P,Left/Mono1,1*%
%TO.N,Board_1-/5V*%
X192120000Y-41857500D03*
D17*
%TO.P,Left/Mono1,4*%
%TO.N,Board_1-/L_out*%
X192120000Y-34237500D03*
%TO.P,Left/Mono1,6*%
%TO.N,Board_1-Net-(Left/Mono1-Pad11)*%
X192120000Y-29157500D03*
%TO.P,Left/Mono1,8*%
%TO.N,Board_1-/L_Return*%
X192120000Y-24077500D03*
%TO.P,Left/Mono1,9*%
%TO.N,Board_1-/L_Send*%
X184500000Y-24077500D03*
%TO.P,Left/Mono1,11*%
%TO.N,Board_1-Net-(Left/Mono1-Pad11)*%
X184500000Y-29157500D03*
%TO.P,Left/Mono1,13*%
%TO.N,Board_1-/L_in*%
X184500000Y-34237500D03*
%TO.P,Left/Mono1,16*%
%TO.N,Board_1-Net-(QL1-D)*%
X184500000Y-41857500D03*
%TD*%
D10*
%TO.P,D1,1,K*%
%TO.N,Board_4-/Ctrl_GND*%
X101025000Y-80750000D03*
D11*
%TO.P,D1,2,A*%
%TO.N,Board_4-Net-(D1-A)*%
X103565000Y-80750000D03*
%TD*%
D18*
%TO.P,LGate1,1*%
%TO.N,Board_0-/Control*%
X97690000Y-30500000D03*
D19*
%TO.P,LGate1,2*%
%TO.N,Board_0-Net-(QL1-G)*%
X105310000Y-30500000D03*
%TD*%
D16*
%TO.P,Left/Mono1,1*%
%TO.N,Board_4-/5V*%
X128120000Y-97857500D03*
D17*
%TO.P,Left/Mono1,4*%
%TO.N,Board_4-/L_out*%
X128120000Y-90237500D03*
%TO.P,Left/Mono1,6*%
%TO.N,Board_4-Net-(Left/Mono1-Pad11)*%
X128120000Y-85157500D03*
%TO.P,Left/Mono1,8*%
%TO.N,Board_4-/L_Return*%
X128120000Y-80077500D03*
%TO.P,Left/Mono1,9*%
%TO.N,Board_4-/L_Send*%
X120500000Y-80077500D03*
%TO.P,Left/Mono1,11*%
%TO.N,Board_4-Net-(Left/Mono1-Pad11)*%
X120500000Y-85157500D03*
%TO.P,Left/Mono1,13*%
%TO.N,Board_4-/L_in*%
X120500000Y-90237500D03*
%TO.P,Left/Mono1,16*%
%TO.N,Board_4-Net-(QL1-D)*%
X120500000Y-97857500D03*
%TD*%
D18*
%TO.P,LeftPD1,1*%
%TO.N,Board_5-Net-(QL1-G)*%
X169310000Y-90000000D03*
D19*
%TO.P,LeftPD1,2*%
%TO.N,Board_5-/Ctrl_GND*%
X161690000Y-90000000D03*
%TD*%
D16*
%TO.P,Left/Mono1,1*%
%TO.N,Board_2-/5V*%
X128120000Y-69857500D03*
D17*
%TO.P,Left/Mono1,4*%
%TO.N,Board_2-/L_out*%
X128120000Y-62237500D03*
%TO.P,Left/Mono1,6*%
%TO.N,Board_2-Net-(Left/Mono1-Pad11)*%
X128120000Y-57157500D03*
%TO.P,Left/Mono1,8*%
%TO.N,Board_2-/L_Return*%
X128120000Y-52077500D03*
%TO.P,Left/Mono1,9*%
%TO.N,Board_2-/L_Send*%
X120500000Y-52077500D03*
%TO.P,Left/Mono1,11*%
%TO.N,Board_2-Net-(Left/Mono1-Pad11)*%
X120500000Y-57157500D03*
%TO.P,Left/Mono1,13*%
%TO.N,Board_2-/L_in*%
X120500000Y-62237500D03*
%TO.P,Left/Mono1,16*%
%TO.N,Board_2-Net-(QL1-D)*%
X120500000Y-69857500D03*
%TD*%
D10*
%TO.P,D1,1,K*%
%TO.N,Board_5-/Ctrl_GND*%
X165025000Y-80750000D03*
D11*
%TO.P,D1,2,A*%
%TO.N,Board_5-Net-(D1-A)*%
X167565000Y-80750000D03*
%TD*%
D18*
%TO.P,LGate1,1*%
%TO.N,Board_1-/Control*%
X161690000Y-30500000D03*
D19*
%TO.P,LGate1,2*%
%TO.N,Board_1-Net-(QL1-G)*%
X169310000Y-30500000D03*
%TD*%
D20*
%TO.P,J5,1,Pin_1*%
%TO.N,Board_0-/L_Send*%
X133500000Y-25000000D03*
D21*
%TO.P,J5,2,Pin_2*%
%TO.N,Board_0-/Signal_Gnd*%
X137000000Y-25000000D03*
%TO.P,J5,3,Pin_3*%
%TO.N,Board_0-/R_send*%
X140500000Y-25000000D03*
%TO.P,J5,4,Pin_4*%
%TO.N,Board_0-/Signal_Gnd*%
X144000000Y-25000000D03*
%TD*%
D18*
%TO.P,LeftPD1,1*%
%TO.N,Board_2-Net-(QL1-G)*%
X105310000Y-62000000D03*
D19*
%TO.P,LeftPD1,2*%
%TO.N,Board_2-/Ctrl_GND*%
X97690000Y-62000000D03*
%TD*%
D18*
%TO.P,RLed1,1*%
%TO.N,Board_4-/Control*%
X98690000Y-93750000D03*
D19*
%TO.P,RLed1,2*%
%TO.N,Board_4-Net-(D1-A)*%
X106310000Y-93750000D03*
%TD*%
D18*
%TO.P,LeftPD1,1*%
%TO.N,Board_0-Net-(QL1-G)*%
X105310000Y-34000000D03*
D19*
%TO.P,LeftPD1,2*%
%TO.N,Board_0-/Ctrl_GND*%
X97690000Y-34000000D03*
%TD*%
D16*
%TO.P,Right1,1*%
%TO.N,Board_1-Net-(QL1-D)*%
X180762500Y-41857500D03*
D17*
%TO.P,Right1,4*%
%TO.N,Board_1-/R_out*%
X180762500Y-34237500D03*
%TO.P,Right1,6*%
%TO.N,Board_1-Net-(Right1-Pad11)*%
X180762500Y-29157500D03*
%TO.P,Right1,8*%
%TO.N,Board_1-/R_Return*%
X180762500Y-24077500D03*
%TO.P,Right1,9*%
%TO.N,Board_1-/R_send*%
X173142500Y-24077500D03*
%TO.P,Right1,11*%
%TO.N,Board_1-Net-(Right1-Pad11)*%
X173142500Y-29157500D03*
%TO.P,Right1,13*%
%TO.N,Board_1-/R_in*%
X173142500Y-34237500D03*
%TO.P,Right1,16*%
%TO.N,Board_1-/5V*%
X173142500Y-41857500D03*
%TD*%
D18*
%TO.P,RLed1,1*%
%TO.N,Board_2-/Control*%
X98690000Y-65750000D03*
D19*
%TO.P,RLed1,2*%
%TO.N,Board_2-Net-(D1-A)*%
X106310000Y-65750000D03*
%TD*%
D12*
%TO.P,In1,1,Pin_1*%
%TO.N,Board_2-/Signal_Gnd*%
X87500000Y-55080000D03*
D13*
%TO.P,In1,2,Pin_2*%
%TO.N,Board_2-/L_in*%
X87500000Y-52540000D03*
%TO.P,In1,3,Pin_3*%
%TO.N,Board_2-/R_in*%
X87500000Y-50000000D03*
%TD*%
D12*
%TO.P,In1,1,Pin_1*%
%TO.N,Board_3-/Signal_Gnd*%
X151500000Y-55080000D03*
D13*
%TO.P,In1,2,Pin_2*%
%TO.N,Board_3-/L_in*%
X151500000Y-52540000D03*
%TO.P,In1,3,Pin_3*%
%TO.N,Board_3-/R_in*%
X151500000Y-50000000D03*
%TD*%
D12*
%TO.P,J1,1,Pin_1*%
%TO.N,Board_5-/Control*%
X152000000Y-89000000D03*
%TD*%
D16*
%TO.P,Left/Mono1,1*%
%TO.N,Board_3-/5V*%
X192120000Y-69857500D03*
D17*
%TO.P,Left/Mono1,4*%
%TO.N,Board_3-/L_out*%
X192120000Y-62237500D03*
%TO.P,Left/Mono1,6*%
%TO.N,Board_3-Net-(Left/Mono1-Pad11)*%
X192120000Y-57157500D03*
%TO.P,Left/Mono1,8*%
%TO.N,Board_3-/L_Return*%
X192120000Y-52077500D03*
%TO.P,Left/Mono1,9*%
%TO.N,Board_3-/L_Send*%
X184500000Y-52077500D03*
%TO.P,Left/Mono1,11*%
%TO.N,Board_3-Net-(Left/Mono1-Pad11)*%
X184500000Y-57157500D03*
%TO.P,Left/Mono1,13*%
%TO.N,Board_3-/L_in*%
X184500000Y-62237500D03*
%TO.P,Left/Mono1,16*%
%TO.N,Board_3-Net-(QL1-D)*%
X184500000Y-69857500D03*
%TD*%
D20*
%TO.P,J5,1,Pin_1*%
%TO.N,Board_5-/L_Send*%
X197500000Y-81000000D03*
D21*
%TO.P,J5,2,Pin_2*%
%TO.N,Board_5-/Signal_Gnd*%
X201000000Y-81000000D03*
%TO.P,J5,3,Pin_3*%
%TO.N,Board_5-/R_send*%
X204500000Y-81000000D03*
%TO.P,J5,4,Pin_4*%
%TO.N,Board_5-/Signal_Gnd*%
X208000000Y-81000000D03*
%TD*%
D12*
%TO.P,In1,1,Pin_1*%
%TO.N,Board_4-/Signal_Gnd*%
X87500000Y-83080000D03*
D13*
%TO.P,In1,2,Pin_2*%
%TO.N,Board_4-/L_in*%
X87500000Y-80540000D03*
%TO.P,In1,3,Pin_3*%
%TO.N,Board_4-/R_in*%
X87500000Y-78000000D03*
%TD*%
D18*
%TO.P,LGate1,1*%
%TO.N,Board_4-/Control*%
X97690000Y-86500000D03*
D19*
%TO.P,LGate1,2*%
%TO.N,Board_4-Net-(QL1-G)*%
X105310000Y-86500000D03*
%TD*%
D16*
%TO.P,Left/Mono1,1*%
%TO.N,Board_5-/5V*%
X192120000Y-97857500D03*
D17*
%TO.P,Left/Mono1,4*%
%TO.N,Board_5-/L_out*%
X192120000Y-90237500D03*
%TO.P,Left/Mono1,6*%
%TO.N,Board_5-Net-(Left/Mono1-Pad11)*%
X192120000Y-85157500D03*
%TO.P,Left/Mono1,8*%
%TO.N,Board_5-/L_Return*%
X192120000Y-80077500D03*
%TO.P,Left/Mono1,9*%
%TO.N,Board_5-/L_Send*%
X184500000Y-80077500D03*
%TO.P,Left/Mono1,11*%
%TO.N,Board_5-Net-(Left/Mono1-Pad11)*%
X184500000Y-85157500D03*
%TO.P,Left/Mono1,13*%
%TO.N,Board_5-/L_in*%
X184500000Y-90237500D03*
%TO.P,Left/Mono1,16*%
%TO.N,Board_5-Net-(QL1-D)*%
X184500000Y-97857500D03*
%TD*%
D18*
%TO.P,RLed1,1*%
%TO.N,Board_0-/Control*%
X98690000Y-37750000D03*
D19*
%TO.P,RLed1,2*%
%TO.N,Board_0-Net-(D1-A)*%
X106310000Y-37750000D03*
%TD*%
D20*
%TO.P,J5,1,Pin_1*%
%TO.N,Board_2-/L_Send*%
X133500000Y-53000000D03*
D21*
%TO.P,J5,2,Pin_2*%
%TO.N,Board_2-/Signal_Gnd*%
X137000000Y-53000000D03*
%TO.P,J5,3,Pin_3*%
%TO.N,Board_2-/R_send*%
X140500000Y-53000000D03*
%TO.P,J5,4,Pin_4*%
%TO.N,Board_2-/Signal_Gnd*%
X144000000Y-53000000D03*
%TD*%
D18*
%TO.P,LeftPD1,1*%
%TO.N,Board_1-Net-(QL1-G)*%
X169310000Y-34000000D03*
D19*
%TO.P,LeftPD1,2*%
%TO.N,Board_1-/Ctrl_GND*%
X161690000Y-34000000D03*
%TD*%
D12*
%TO.P,J2,1,Pin_1*%
%TO.N,Board_4-/9V*%
X90500000Y-99500000D03*
D13*
%TO.P,J2,2,Pin_2*%
%TO.N,Board_4-/Ctrl_GND*%
X87960000Y-99500000D03*
%TD*%
D18*
%TO.P,RLed1,1*%
%TO.N,Board_1-/Control*%
X162690000Y-37750000D03*
D19*
%TO.P,RLed1,2*%
%TO.N,Board_1-Net-(D1-A)*%
X170310000Y-37750000D03*
%TD*%
D12*
%TO.P,Out1,1,Pin_1*%
%TO.N,Board_0-/Signal_Gnd*%
X92750000Y-27080000D03*
D13*
%TO.P,Out1,2,Pin_2*%
%TO.N,Board_0-/L_out*%
X92750000Y-24540000D03*
%TO.P,Out1,3,Pin_3*%
%TO.N,Board_0-/R_out*%
X92750000Y-22000000D03*
%TD*%
D12*
%TO.P,J1,1,Pin_1*%
%TO.N,Board_3-/Control*%
X152000000Y-61000000D03*
%TD*%
D10*
%TO.P,D1,1,K*%
%TO.N,Board_3-/Ctrl_GND*%
X165025000Y-52750000D03*
D11*
%TO.P,D1,2,A*%
%TO.N,Board_3-Net-(D1-A)*%
X167565000Y-52750000D03*
%TD*%
D20*
%TO.P,J4,1,Pin_1*%
%TO.N,Board_4-/Signal_Gnd*%
X144250000Y-97600000D03*
D21*
%TO.P,J4,2,Pin_2*%
%TO.N,Board_4-/R_Return*%
X140750000Y-97600000D03*
%TO.P,J4,3,Pin_3*%
%TO.N,Board_4-/Signal_Gnd*%
X137250000Y-97600000D03*
%TO.P,J4,4,Pin_4*%
%TO.N,Board_4-/L_Return*%
X133750000Y-97600000D03*
%TD*%
D12*
%TO.P,Out1,1,Pin_1*%
%TO.N,Board_4-/Signal_Gnd*%
X92750000Y-83080000D03*
D13*
%TO.P,Out1,2,Pin_2*%
%TO.N,Board_4-/L_out*%
X92750000Y-80540000D03*
%TO.P,Out1,3,Pin_3*%
%TO.N,Board_4-/R_out*%
X92750000Y-78000000D03*
%TD*%
D16*
%TO.P,Right1,1*%
%TO.N,Board_4-Net-(QL1-D)*%
X116762500Y-97857500D03*
D17*
%TO.P,Right1,4*%
%TO.N,Board_4-/R_out*%
X116762500Y-90237500D03*
%TO.P,Right1,6*%
%TO.N,Board_4-Net-(Right1-Pad11)*%
X116762500Y-85157500D03*
%TO.P,Right1,8*%
%TO.N,Board_4-/R_Return*%
X116762500Y-80077500D03*
%TO.P,Right1,9*%
%TO.N,Board_4-/R_send*%
X109142500Y-80077500D03*
%TO.P,Right1,11*%
%TO.N,Board_4-Net-(Right1-Pad11)*%
X109142500Y-85157500D03*
%TO.P,Right1,13*%
%TO.N,Board_4-/R_in*%
X109142500Y-90237500D03*
%TO.P,Right1,16*%
%TO.N,Board_4-/5V*%
X109142500Y-97857500D03*
%TD*%
D18*
%TO.P,LeftPD1,1*%
%TO.N,Board_3-Net-(QL1-G)*%
X169310000Y-62000000D03*
D19*
%TO.P,LeftPD1,2*%
%TO.N,Board_3-/Ctrl_GND*%
X161690000Y-62000000D03*
%TD*%
D12*
%TO.P,Out1,1,Pin_1*%
%TO.N,Board_1-/Signal_Gnd*%
X156750000Y-27080000D03*
D13*
%TO.P,Out1,2,Pin_2*%
%TO.N,Board_1-/L_out*%
X156750000Y-24540000D03*
%TO.P,Out1,3,Pin_3*%
%TO.N,Board_1-/R_out*%
X156750000Y-22000000D03*
%TD*%
D12*
%TO.P,Out1,1,Pin_1*%
%TO.N,Board_3-/Signal_Gnd*%
X156750000Y-55080000D03*
D13*
%TO.P,Out1,2,Pin_2*%
%TO.N,Board_3-/L_out*%
X156750000Y-52540000D03*
%TO.P,Out1,3,Pin_3*%
%TO.N,Board_3-/R_out*%
X156750000Y-50000000D03*
%TD*%
D12*
%TO.P,J2,1,Pin_1*%
%TO.N,Board_2-/9V*%
X90500000Y-71500000D03*
D13*
%TO.P,J2,2,Pin_2*%
%TO.N,Board_2-/Ctrl_GND*%
X87960000Y-71500000D03*
%TD*%
D12*
%TO.P,J3,1,Pin_1*%
%TO.N,Board_4-/9V*%
X90500000Y-95500000D03*
D13*
%TO.P,J3,2,Pin_2*%
%TO.N,Board_4-/Ctrl_GND*%
X87960000Y-95500000D03*
%TD*%
D12*
%TO.P,Out1,1,Pin_1*%
%TO.N,Board_2-/Signal_Gnd*%
X92750000Y-55080000D03*
D13*
%TO.P,Out1,2,Pin_2*%
%TO.N,Board_2-/L_out*%
X92750000Y-52540000D03*
%TO.P,Out1,3,Pin_3*%
%TO.N,Board_2-/R_out*%
X92750000Y-50000000D03*
%TD*%
D12*
%TO.P,In1,1,Pin_1*%
%TO.N,Board_5-/Signal_Gnd*%
X151500000Y-83080000D03*
D13*
%TO.P,In1,2,Pin_2*%
%TO.N,Board_5-/L_in*%
X151500000Y-80540000D03*
%TO.P,In1,3,Pin_3*%
%TO.N,Board_5-/R_in*%
X151500000Y-78000000D03*
%TD*%
D12*
%TO.P,J1,1,Pin_1*%
%TO.N,Board_2-/Control*%
X88000000Y-61000000D03*
%TD*%
D20*
%TO.P,J4,1,Pin_1*%
%TO.N,Board_2-/Signal_Gnd*%
X144250000Y-69600000D03*
D21*
%TO.P,J4,2,Pin_2*%
%TO.N,Board_2-/R_Return*%
X140750000Y-69600000D03*
%TO.P,J4,3,Pin_3*%
%TO.N,Board_2-/Signal_Gnd*%
X137250000Y-69600000D03*
%TO.P,J4,4,Pin_4*%
%TO.N,Board_2-/L_Return*%
X133750000Y-69600000D03*
%TD*%
D12*
%TO.P,J2,1,Pin_1*%
%TO.N,Board_5-/9V*%
X154500000Y-99500000D03*
D13*
%TO.P,J2,2,Pin_2*%
%TO.N,Board_5-/Ctrl_GND*%
X151960000Y-99500000D03*
%TD*%
D12*
%TO.P,In1,1,Pin_1*%
%TO.N,Board_1-/Signal_Gnd*%
X151500000Y-27080000D03*
D13*
%TO.P,In1,2,Pin_2*%
%TO.N,Board_1-/L_in*%
X151500000Y-24540000D03*
%TO.P,In1,3,Pin_3*%
%TO.N,Board_1-/R_in*%
X151500000Y-22000000D03*
%TD*%
D12*
%TO.P,J3,1,Pin_1*%
%TO.N,Board_3-/9V*%
X154500000Y-67500000D03*
D13*
%TO.P,J3,2,Pin_2*%
%TO.N,Board_3-/Ctrl_GND*%
X151960000Y-67500000D03*
%TD*%
D18*
%TO.P,LGate1,1*%
%TO.N,Board_3-/Control*%
X161690000Y-58500000D03*
D19*
%TO.P,LGate1,2*%
%TO.N,Board_3-Net-(QL1-G)*%
X169310000Y-58500000D03*
%TD*%
D22*
%TO.P,U1,1,IN*%
%TO.N,Board_3-/9V*%
X168500000Y-70200000D03*
D23*
%TO.P,U1,2,GND*%
%TO.N,Board_3-/Ctrl_GND*%
X165960000Y-70200000D03*
%TO.P,U1,3,OUT*%
%TO.N,Board_3-/5V*%
X163420000Y-70200000D03*
%TD*%
D20*
%TO.P,J5,1,Pin_1*%
%TO.N,Board_1-/L_Send*%
X197500000Y-25000000D03*
D21*
%TO.P,J5,2,Pin_2*%
%TO.N,Board_1-/Signal_Gnd*%
X201000000Y-25000000D03*
%TO.P,J5,3,Pin_3*%
%TO.N,Board_1-/R_send*%
X204500000Y-25000000D03*
%TO.P,J5,4,Pin_4*%
%TO.N,Board_1-/Signal_Gnd*%
X208000000Y-25000000D03*
%TD*%
D12*
%TO.P,J1,1,Pin_1*%
%TO.N,Board_4-/Control*%
X88000000Y-89000000D03*
%TD*%
D14*
%TO.P,QL1,1,S*%
%TO.N,Board_5-/Ctrl_GND*%
X157610000Y-90520000D03*
D15*
%TO.P,QL1,2,G*%
%TO.N,Board_5-Net-(QL1-G)*%
X157610000Y-89250000D03*
%TO.P,QL1,3,D*%
%TO.N,Board_5-Net-(QL1-D)*%
X157610000Y-87980000D03*
%TD*%
D22*
%TO.P,U1,1,IN*%
%TO.N,Board_5-/9V*%
X168500000Y-98200000D03*
D23*
%TO.P,U1,2,GND*%
%TO.N,Board_5-/Ctrl_GND*%
X165960000Y-98200000D03*
%TO.P,U1,3,OUT*%
%TO.N,Board_5-/5V*%
X163420000Y-98200000D03*
%TD*%
D14*
%TO.P,QL1,1,S*%
%TO.N,Board_4-/Ctrl_GND*%
X93610000Y-90520000D03*
D15*
%TO.P,QL1,2,G*%
%TO.N,Board_4-Net-(QL1-G)*%
X93610000Y-89250000D03*
%TO.P,QL1,3,D*%
%TO.N,Board_4-Net-(QL1-D)*%
X93610000Y-87980000D03*
%TD*%
D12*
%TO.P,J2,1,Pin_1*%
%TO.N,Board_0-/9V*%
X90500000Y-43500000D03*
D13*
%TO.P,J2,2,Pin_2*%
%TO.N,Board_0-/Ctrl_GND*%
X87960000Y-43500000D03*
%TD*%
D16*
%TO.P,Right1,1*%
%TO.N,Board_3-Net-(QL1-D)*%
X180762500Y-69857500D03*
D17*
%TO.P,Right1,4*%
%TO.N,Board_3-/R_out*%
X180762500Y-62237500D03*
%TO.P,Right1,6*%
%TO.N,Board_3-Net-(Right1-Pad11)*%
X180762500Y-57157500D03*
%TO.P,Right1,8*%
%TO.N,Board_3-/R_Return*%
X180762500Y-52077500D03*
%TO.P,Right1,9*%
%TO.N,Board_3-/R_send*%
X173142500Y-52077500D03*
%TO.P,Right1,11*%
%TO.N,Board_3-Net-(Right1-Pad11)*%
X173142500Y-57157500D03*
%TO.P,Right1,13*%
%TO.N,Board_3-/R_in*%
X173142500Y-62237500D03*
%TO.P,Right1,16*%
%TO.N,Board_3-/5V*%
X173142500Y-69857500D03*
%TD*%
D10*
%TO.P,D1,1,K*%
%TO.N,Board_1-/Ctrl_GND*%
X165025000Y-24750000D03*
D11*
%TO.P,D1,2,A*%
%TO.N,Board_1-Net-(D1-A)*%
X167565000Y-24750000D03*
%TD*%
D18*
%TO.P,LGate1,1*%
%TO.N,Board_5-/Control*%
X161690000Y-86500000D03*
D19*
%TO.P,LGate1,2*%
%TO.N,Board_5-Net-(QL1-G)*%
X169310000Y-86500000D03*
%TD*%
D20*
%TO.P,J5,1,Pin_1*%
%TO.N,Board_3-/L_Send*%
X197500000Y-53000000D03*
D21*
%TO.P,J5,2,Pin_2*%
%TO.N,Board_3-/Signal_Gnd*%
X201000000Y-53000000D03*
%TO.P,J5,3,Pin_3*%
%TO.N,Board_3-/R_send*%
X204500000Y-53000000D03*
%TO.P,J5,4,Pin_4*%
%TO.N,Board_3-/Signal_Gnd*%
X208000000Y-53000000D03*
%TD*%
D22*
%TO.P,U1,1,IN*%
%TO.N,Board_0-/9V*%
X104500000Y-42200000D03*
D23*
%TO.P,U1,2,GND*%
%TO.N,Board_0-/Ctrl_GND*%
X101960000Y-42200000D03*
%TO.P,U1,3,OUT*%
%TO.N,Board_0-/5V*%
X99420000Y-42200000D03*
%TD*%
D10*
%TO.P,D1,1,K*%
%TO.N,Board_0-/Ctrl_GND*%
X101025000Y-24750000D03*
D11*
%TO.P,D1,2,A*%
%TO.N,Board_0-Net-(D1-A)*%
X103565000Y-24750000D03*
%TD*%
D22*
%TO.P,U1,1,IN*%
%TO.N,Board_2-/9V*%
X104500000Y-70200000D03*
D23*
%TO.P,U1,2,GND*%
%TO.N,Board_2-/Ctrl_GND*%
X101960000Y-70200000D03*
%TO.P,U1,3,OUT*%
%TO.N,Board_2-/5V*%
X99420000Y-70200000D03*
%TD*%
D18*
%TO.P,LeftPD1,1*%
%TO.N,Board_4-Net-(QL1-G)*%
X105310000Y-90000000D03*
D19*
%TO.P,LeftPD1,2*%
%TO.N,Board_4-/Ctrl_GND*%
X97690000Y-90000000D03*
%TD*%
D20*
%TO.P,J4,1,Pin_1*%
%TO.N,Board_1-/Signal_Gnd*%
X208250000Y-41600000D03*
D21*
%TO.P,J4,2,Pin_2*%
%TO.N,Board_1-/R_Return*%
X204750000Y-41600000D03*
%TO.P,J4,3,Pin_3*%
%TO.N,Board_1-/Signal_Gnd*%
X201250000Y-41600000D03*
%TO.P,J4,4,Pin_4*%
%TO.N,Board_1-/L_Return*%
X197750000Y-41600000D03*
%TD*%
D18*
%TO.P,RLed1,1*%
%TO.N,Board_5-/Control*%
X162690000Y-93750000D03*
D19*
%TO.P,RLed1,2*%
%TO.N,Board_5-Net-(D1-A)*%
X170310000Y-93750000D03*
%TD*%
D14*
%TO.P,QL1,1,S*%
%TO.N,Board_1-/Ctrl_GND*%
X157610000Y-34520000D03*
D15*
%TO.P,QL1,2,G*%
%TO.N,Board_1-Net-(QL1-G)*%
X157610000Y-33250000D03*
%TO.P,QL1,3,D*%
%TO.N,Board_1-Net-(QL1-D)*%
X157610000Y-31980000D03*
%TD*%
D20*
%TO.P,J4,1,Pin_1*%
%TO.N,Board_3-/Signal_Gnd*%
X208250000Y-69600000D03*
D21*
%TO.P,J4,2,Pin_2*%
%TO.N,Board_3-/R_Return*%
X204750000Y-69600000D03*
%TO.P,J4,3,Pin_3*%
%TO.N,Board_3-/Signal_Gnd*%
X201250000Y-69600000D03*
%TO.P,J4,4,Pin_4*%
%TO.N,Board_3-/L_Return*%
X197750000Y-69600000D03*
%TD*%
D20*
%TO.P,J4,1,Pin_1*%
%TO.N,Board_0-/Signal_Gnd*%
X144250000Y-41600000D03*
D21*
%TO.P,J4,2,Pin_2*%
%TO.N,Board_0-/R_Return*%
X140750000Y-41600000D03*
%TO.P,J4,3,Pin_3*%
%TO.N,Board_0-/Signal_Gnd*%
X137250000Y-41600000D03*
%TO.P,J4,4,Pin_4*%
%TO.N,Board_0-/L_Return*%
X133750000Y-41600000D03*
%TD*%
D18*
%TO.P,RLed1,1*%
%TO.N,Board_3-/Control*%
X162690000Y-65750000D03*
D19*
%TO.P,RLed1,2*%
%TO.N,Board_3-Net-(D1-A)*%
X170310000Y-65750000D03*
%TD*%
D22*
%TO.P,U1,1,IN*%
%TO.N,Board_4-/9V*%
X104500000Y-98200000D03*
D23*
%TO.P,U1,2,GND*%
%TO.N,Board_4-/Ctrl_GND*%
X101960000Y-98200000D03*
%TO.P,U1,3,OUT*%
%TO.N,Board_4-/5V*%
X99420000Y-98200000D03*
%TD*%
D12*
%TO.P,In1,1,Pin_1*%
%TO.N,Board_0-/Signal_Gnd*%
X87500000Y-27080000D03*
D13*
%TO.P,In1,2,Pin_2*%
%TO.N,Board_0-/L_in*%
X87500000Y-24540000D03*
%TO.P,In1,3,Pin_3*%
%TO.N,Board_0-/R_in*%
X87500000Y-22000000D03*
%TD*%
D12*
%TO.P,J3,1,Pin_1*%
%TO.N,Board_1-/9V*%
X154500000Y-39500000D03*
D13*
%TO.P,J3,2,Pin_2*%
%TO.N,Board_1-/Ctrl_GND*%
X151960000Y-39500000D03*
%TD*%
D16*
%TO.P,Right1,1*%
%TO.N,Board_2-Net-(QL1-D)*%
X116762500Y-69857500D03*
D17*
%TO.P,Right1,4*%
%TO.N,Board_2-/R_out*%
X116762500Y-62237500D03*
%TO.P,Right1,6*%
%TO.N,Board_2-Net-(Right1-Pad11)*%
X116762500Y-57157500D03*
%TO.P,Right1,8*%
%TO.N,Board_2-/R_Return*%
X116762500Y-52077500D03*
%TO.P,Right1,9*%
%TO.N,Board_2-/R_send*%
X109142500Y-52077500D03*
%TO.P,Right1,11*%
%TO.N,Board_2-Net-(Right1-Pad11)*%
X109142500Y-57157500D03*
%TO.P,Right1,13*%
%TO.N,Board_2-/R_in*%
X109142500Y-62237500D03*
%TO.P,Right1,16*%
%TO.N,Board_2-/5V*%
X109142500Y-69857500D03*
%TD*%
D20*
%TO.P,J4,1,Pin_1*%
%TO.N,Board_5-/Signal_Gnd*%
X208250000Y-97600000D03*
D21*
%TO.P,J4,2,Pin_2*%
%TO.N,Board_5-/R_Return*%
X204750000Y-97600000D03*
%TO.P,J4,3,Pin_3*%
%TO.N,Board_5-/Signal_Gnd*%
X201250000Y-97600000D03*
%TO.P,J4,4,Pin_4*%
%TO.N,Board_5-/L_Return*%
X197750000Y-97600000D03*
%TD*%
D14*
%TO.P,QL1,1,S*%
%TO.N,Board_2-/Ctrl_GND*%
X93610000Y-62520000D03*
D15*
%TO.P,QL1,2,G*%
%TO.N,Board_2-Net-(QL1-G)*%
X93610000Y-61250000D03*
%TO.P,QL1,3,D*%
%TO.N,Board_2-Net-(QL1-D)*%
X93610000Y-59980000D03*
%TD*%
D12*
%TO.P,J2,1,Pin_1*%
%TO.N,Board_3-/9V*%
X154500000Y-71500000D03*
D13*
%TO.P,J2,2,Pin_2*%
%TO.N,Board_3-/Ctrl_GND*%
X151960000Y-71500000D03*
%TD*%
D12*
%TO.P,J3,1,Pin_1*%
%TO.N,Board_2-/9V*%
X90500000Y-67500000D03*
D13*
%TO.P,J3,2,Pin_2*%
%TO.N,Board_2-/Ctrl_GND*%
X87960000Y-67500000D03*
%TD*%
D16*
%TO.P,Right1,1*%
%TO.N,Board_0-Net-(QL1-D)*%
X116762500Y-41857500D03*
D17*
%TO.P,Right1,4*%
%TO.N,Board_0-/R_out*%
X116762500Y-34237500D03*
%TO.P,Right1,6*%
%TO.N,Board_0-Net-(Right1-Pad11)*%
X116762500Y-29157500D03*
%TO.P,Right1,8*%
%TO.N,Board_0-/R_Return*%
X116762500Y-24077500D03*
%TO.P,Right1,9*%
%TO.N,Board_0-/R_send*%
X109142500Y-24077500D03*
%TO.P,Right1,11*%
%TO.N,Board_0-Net-(Right1-Pad11)*%
X109142500Y-29157500D03*
%TO.P,Right1,13*%
%TO.N,Board_0-/R_in*%
X109142500Y-34237500D03*
%TO.P,Right1,16*%
%TO.N,Board_0-/5V*%
X109142500Y-41857500D03*
%TD*%
D22*
%TO.P,U1,1,IN*%
%TO.N,Board_1-/9V*%
X168500000Y-42200000D03*
D23*
%TO.P,U1,2,GND*%
%TO.N,Board_1-/Ctrl_GND*%
X165960000Y-42200000D03*
%TO.P,U1,3,OUT*%
%TO.N,Board_1-/5V*%
X163420000Y-42200000D03*
%TD*%
D14*
%TO.P,QL1,1,S*%
%TO.N,Board_0-/Ctrl_GND*%
X93610000Y-34520000D03*
D15*
%TO.P,QL1,2,G*%
%TO.N,Board_0-Net-(QL1-G)*%
X93610000Y-33250000D03*
%TO.P,QL1,3,D*%
%TO.N,Board_0-Net-(QL1-D)*%
X93610000Y-31980000D03*
%TD*%
D12*
%TO.P,J3,1,Pin_1*%
%TO.N,Board_5-/9V*%
X154500000Y-95500000D03*
D13*
%TO.P,J3,2,Pin_2*%
%TO.N,Board_5-/Ctrl_GND*%
X151960000Y-95500000D03*
%TD*%
D18*
%TO.P,LGate1,1*%
%TO.N,Board_2-/Control*%
X97690000Y-58500000D03*
D19*
%TO.P,LGate1,2*%
%TO.N,Board_2-Net-(QL1-G)*%
X105310000Y-58500000D03*
%TD*%
D12*
%TO.P,J2,1,Pin_1*%
%TO.N,Board_1-/9V*%
X154500000Y-43500000D03*
D13*
%TO.P,J2,2,Pin_2*%
%TO.N,Board_1-/Ctrl_GND*%
X151960000Y-43500000D03*
%TD*%
D20*
%TO.P,J5,1,Pin_1*%
%TO.N,Board_4-/L_Send*%
X133500000Y-81000000D03*
D21*
%TO.P,J5,2,Pin_2*%
%TO.N,Board_4-/Signal_Gnd*%
X137000000Y-81000000D03*
%TO.P,J5,3,Pin_3*%
%TO.N,Board_4-/R_send*%
X140500000Y-81000000D03*
%TO.P,J5,4,Pin_4*%
%TO.N,Board_4-/Signal_Gnd*%
X144000000Y-81000000D03*
%TD*%
D16*
%TO.P,Left/Mono1,1*%
%TO.N,Board_0-/5V*%
X128120000Y-41857500D03*
D17*
%TO.P,Left/Mono1,4*%
%TO.N,Board_0-/L_out*%
X128120000Y-34237500D03*
%TO.P,Left/Mono1,6*%
%TO.N,Board_0-Net-(Left/Mono1-Pad11)*%
X128120000Y-29157500D03*
%TO.P,Left/Mono1,8*%
%TO.N,Board_0-/L_Return*%
X128120000Y-24077500D03*
%TO.P,Left/Mono1,9*%
%TO.N,Board_0-/L_Send*%
X120500000Y-24077500D03*
%TO.P,Left/Mono1,11*%
%TO.N,Board_0-Net-(Left/Mono1-Pad11)*%
X120500000Y-29157500D03*
%TO.P,Left/Mono1,13*%
%TO.N,Board_0-/L_in*%
X120500000Y-34237500D03*
%TO.P,Left/Mono1,16*%
%TO.N,Board_0-Net-(QL1-D)*%
X120500000Y-41857500D03*
%TD*%
D12*
%TO.P,J1,1,Pin_1*%
%TO.N,Board_1-/Control*%
X152000000Y-33000000D03*
%TD*%
D16*
%TO.P,Right1,1*%
%TO.N,Board_5-Net-(QL1-D)*%
X180762500Y-97857500D03*
D17*
%TO.P,Right1,4*%
%TO.N,Board_5-/R_out*%
X180762500Y-90237500D03*
%TO.P,Right1,6*%
%TO.N,Board_5-Net-(Right1-Pad11)*%
X180762500Y-85157500D03*
%TO.P,Right1,8*%
%TO.N,Board_5-/R_Return*%
X180762500Y-80077500D03*
%TO.P,Right1,9*%
%TO.N,Board_5-/R_send*%
X173142500Y-80077500D03*
%TO.P,Right1,11*%
%TO.N,Board_5-Net-(Right1-Pad11)*%
X173142500Y-85157500D03*
%TO.P,Right1,13*%
%TO.N,Board_5-/R_in*%
X173142500Y-90237500D03*
%TO.P,Right1,16*%
%TO.N,Board_5-/5V*%
X173142500Y-97857500D03*
%TD*%
D24*
%TO.N,Board_5-/R_out*%
X169500000Y-77500000D03*
X171669591Y-77474500D03*
%TO.N,Board_5-/R_Return*%
X195000000Y-82250000D03*
%TO.N,Board_5-/L_out*%
X185250000Y-77500000D03*
%TO.N,Board_5-/L_in*%
X181500000Y-76750000D03*
%TO.N,Board_4-/R_out*%
X105500000Y-77500000D03*
X107669591Y-77474500D03*
%TO.N,Board_4-/R_Return*%
X131000000Y-82250000D03*
%TO.N,Board_4-/L_out*%
X121250000Y-77500000D03*
%TO.N,Board_4-/L_in*%
X117500000Y-76750000D03*
%TO.N,Board_3-/R_out*%
X169500000Y-49500000D03*
X171669591Y-49474500D03*
%TO.N,Board_3-/R_Return*%
X195000000Y-54250000D03*
%TO.N,Board_3-/L_out*%
X185250000Y-49500000D03*
%TO.N,Board_3-/L_in*%
X181500000Y-48750000D03*
%TO.N,Board_2-/R_out*%
X105500000Y-49500000D03*
X107669591Y-49474500D03*
%TO.N,Board_2-/R_Return*%
X131000000Y-54250000D03*
%TO.N,Board_2-/L_out*%
X121250000Y-49500000D03*
%TO.N,Board_2-/L_in*%
X117500000Y-48750000D03*
%TO.N,Board_1-/R_out*%
X171669591Y-21474500D03*
X169500000Y-21500000D03*
%TO.N,Board_1-/R_Return*%
X195000000Y-26250000D03*
%TO.N,Board_1-/L_out*%
X185250000Y-21500000D03*
%TO.N,Board_1-/L_in*%
X181500000Y-20750000D03*
%TO.N,Board_0-/R_out*%
X105500000Y-21500000D03*
X107669591Y-21474500D03*
%TO.N,Board_0-/R_Return*%
X131000000Y-26250000D03*
%TO.N,Board_0-/L_out*%
X121250000Y-21500000D03*
%TO.N,Board_0-/L_in*%
X117500000Y-20750000D03*
%TD*%
D25*
%TO.N,Board_5-Net-(QL1-D)*%
X161100000Y-94600000D02*
X161100000Y-95600000D01*
X157610000Y-87980000D02*
X158860000Y-87980000D01*
X158860000Y-87980000D02*
X159100000Y-88220000D01*
X159100000Y-88220000D02*
X159100000Y-92600000D01*
X161100000Y-95600000D02*
X178505000Y-95600000D01*
X178505000Y-95600000D02*
X180762500Y-97857500D01*
X159100000Y-92600000D02*
X161100000Y-94600000D01*
X184500000Y-97857500D02*
X180762500Y-97857500D01*
D26*
%TO.N,Board_5-Net-(D1-A)*%
X170500000Y-85136396D02*
X170500000Y-92400000D01*
X170000000Y-84636396D02*
X170500000Y-85136396D01*
X169250000Y-80750000D02*
X170000000Y-81500000D01*
X167565000Y-80750000D02*
X169250000Y-80750000D01*
X170000000Y-81500000D02*
X170000000Y-84636396D01*
X170500000Y-92400000D02*
X170500000Y-92560000D01*
X170500000Y-92400000D02*
X170310000Y-92590000D01*
X170310000Y-92590000D02*
X170310000Y-93750000D01*
%TO.N,Board_5-/R_out*%
X177000000Y-77500000D02*
X178500000Y-79000000D01*
X178500000Y-87975000D02*
X180762500Y-90237500D01*
X178500000Y-79000000D02*
X178500000Y-87975000D01*
X169000000Y-77000000D02*
X169500000Y-77500000D01*
X157750000Y-77000000D02*
X156750000Y-78000000D01*
X158250000Y-77000000D02*
X168500000Y-77000000D01*
X168500000Y-77000000D02*
X169000000Y-77000000D01*
X158250000Y-77000000D02*
X157750000Y-77000000D01*
X171695091Y-77500000D02*
X177000000Y-77500000D01*
X171669591Y-77474500D02*
X171695091Y-77500000D01*
%TO.N,Board_5-/R_in*%
X171500000Y-85500000D02*
X171500000Y-88595000D01*
X171500000Y-88595000D02*
X173142500Y-90237500D01*
X151500000Y-78000000D02*
X153000000Y-76500000D01*
X153000000Y-76500000D02*
X169750000Y-76500000D01*
X171000000Y-85000000D02*
X171500000Y-85500000D01*
X169750000Y-76500000D02*
X171000000Y-77750000D01*
X171000000Y-77750000D02*
X171000000Y-85000000D01*
%TO.N,Board_5-/R_Return*%
X204300000Y-95400000D02*
X204750000Y-95850000D01*
X195000000Y-87500000D02*
X202900000Y-95400000D01*
X195000000Y-82250000D02*
X195000000Y-87500000D01*
X202900000Y-95400000D02*
X204300000Y-95400000D01*
X204750000Y-95850000D02*
X204750000Y-97600000D01*
%TO.N,Board_5-/L_out*%
X185250000Y-77500000D02*
X189250000Y-77500000D01*
X190250000Y-88367500D02*
X192120000Y-90237500D01*
X189250000Y-77500000D02*
X190250000Y-78500000D01*
X190250000Y-78500000D02*
X190250000Y-88367500D01*
%TO.N,Board_5-/L_in*%
X182750000Y-78000000D02*
X182750000Y-88487500D01*
X182750000Y-88487500D02*
X184500000Y-90237500D01*
X181500000Y-76750000D02*
X182750000Y-78000000D01*
%TO.N,Board_5-/L_Return*%
X192120000Y-80077500D02*
X194000000Y-81957500D01*
X194000000Y-81957500D02*
X194000000Y-88250000D01*
X197750000Y-92000000D02*
X197750000Y-97600000D01*
X194000000Y-88250000D02*
X197750000Y-92000000D01*
%TO.N,Board_5-/Ctrl_GND*%
X164675000Y-80750000D02*
X164225000Y-81200000D01*
X164225000Y-81200000D02*
X164225000Y-87465000D01*
X164225000Y-87465000D02*
X161690000Y-90000000D01*
X165025000Y-80750000D02*
X164675000Y-80750000D01*
D25*
%TO.N,Board_5-/Control*%
X160250000Y-86250000D02*
X160500000Y-86500000D01*
X161690000Y-92490000D02*
X161690000Y-92750000D01*
X161690000Y-86500000D02*
X160000000Y-88190000D01*
X161690000Y-92750000D02*
X162690000Y-93750000D01*
X160000000Y-88190000D02*
X160000000Y-90800000D01*
X152500000Y-86250000D02*
X160250000Y-86250000D01*
X161690000Y-92490000D02*
X160000000Y-90800000D01*
X160500000Y-86500000D02*
X161690000Y-86500000D01*
X152000000Y-89000000D02*
X152000000Y-86750000D01*
X152000000Y-86750000D02*
X152500000Y-86250000D01*
%TO.N,Board_5-/9V*%
X165700000Y-101000000D02*
X168500000Y-98200000D01*
X156000000Y-101000000D02*
X165700000Y-101000000D01*
X154500000Y-99500000D02*
X156000000Y-101000000D01*
%TO.N,Board_4-Net-(QL1-D)*%
X114505000Y-95600000D02*
X116762500Y-97857500D01*
X95100000Y-92600000D02*
X97100000Y-94600000D01*
X97100000Y-94600000D02*
X97100000Y-95600000D01*
X93610000Y-87980000D02*
X94860000Y-87980000D01*
X97100000Y-95600000D02*
X114505000Y-95600000D01*
X95100000Y-88220000D02*
X95100000Y-92600000D01*
X94860000Y-87980000D02*
X95100000Y-88220000D01*
X120500000Y-97857500D02*
X116762500Y-97857500D01*
D26*
%TO.N,Board_4-Net-(D1-A)*%
X106500000Y-85136396D02*
X106500000Y-92400000D01*
X105250000Y-80750000D02*
X106000000Y-81500000D01*
X106500000Y-92400000D02*
X106500000Y-92560000D01*
X106000000Y-84636396D02*
X106500000Y-85136396D01*
X106500000Y-92400000D02*
X106310000Y-92590000D01*
X106000000Y-81500000D02*
X106000000Y-84636396D01*
X106310000Y-92590000D02*
X106310000Y-93750000D01*
X103565000Y-80750000D02*
X105250000Y-80750000D01*
%TO.N,Board_4-/R_out*%
X114500000Y-87975000D02*
X116762500Y-90237500D01*
X104500000Y-77000000D02*
X105000000Y-77000000D01*
X93750000Y-77000000D02*
X92750000Y-78000000D01*
X107695091Y-77500000D02*
X113000000Y-77500000D01*
X94250000Y-77000000D02*
X104500000Y-77000000D01*
X94250000Y-77000000D02*
X93750000Y-77000000D01*
X107669591Y-77474500D02*
X107695091Y-77500000D01*
X105000000Y-77000000D02*
X105500000Y-77500000D01*
X114500000Y-79000000D02*
X114500000Y-87975000D01*
X113000000Y-77500000D02*
X114500000Y-79000000D01*
%TO.N,Board_4-/R_in*%
X107000000Y-77750000D02*
X107000000Y-85000000D01*
X107500000Y-85500000D02*
X107500000Y-88595000D01*
X89000000Y-76500000D02*
X105750000Y-76500000D01*
X107000000Y-85000000D02*
X107500000Y-85500000D01*
X107500000Y-88595000D02*
X109142500Y-90237500D01*
X87500000Y-78000000D02*
X89000000Y-76500000D01*
X105750000Y-76500000D02*
X107000000Y-77750000D01*
%TO.N,Board_4-/R_Return*%
X131000000Y-87500000D02*
X138900000Y-95400000D01*
X138900000Y-95400000D02*
X140300000Y-95400000D01*
X140300000Y-95400000D02*
X140750000Y-95850000D01*
X131000000Y-82250000D02*
X131000000Y-87500000D01*
X140750000Y-95850000D02*
X140750000Y-97600000D01*
%TO.N,Board_4-/L_out*%
X126250000Y-88367500D02*
X128120000Y-90237500D01*
X121250000Y-77500000D02*
X125250000Y-77500000D01*
X126250000Y-78500000D02*
X126250000Y-88367500D01*
X125250000Y-77500000D02*
X126250000Y-78500000D01*
%TO.N,Board_4-/L_in*%
X117500000Y-76750000D02*
X118750000Y-78000000D01*
X118750000Y-78000000D02*
X118750000Y-88487500D01*
X118750000Y-88487500D02*
X120500000Y-90237500D01*
%TO.N,Board_4-/L_Return*%
X128120000Y-80077500D02*
X130000000Y-81957500D01*
X130000000Y-88250000D02*
X133750000Y-92000000D01*
X133750000Y-92000000D02*
X133750000Y-97600000D01*
X130000000Y-81957500D02*
X130000000Y-88250000D01*
%TO.N,Board_4-/Ctrl_GND*%
X100225000Y-87465000D02*
X97690000Y-90000000D01*
X100225000Y-81200000D02*
X100225000Y-87465000D01*
X101025000Y-80750000D02*
X100675000Y-80750000D01*
X100675000Y-80750000D02*
X100225000Y-81200000D01*
D25*
%TO.N,Board_4-/Control*%
X96250000Y-86250000D02*
X96500000Y-86500000D01*
X96000000Y-88190000D02*
X96000000Y-90800000D01*
X97690000Y-92490000D02*
X97690000Y-92750000D01*
X97690000Y-92750000D02*
X98690000Y-93750000D01*
X88000000Y-89000000D02*
X88000000Y-86750000D01*
X97690000Y-86500000D02*
X96000000Y-88190000D01*
X88000000Y-86750000D02*
X88500000Y-86250000D01*
X96500000Y-86500000D02*
X97690000Y-86500000D01*
X88500000Y-86250000D02*
X96250000Y-86250000D01*
X97690000Y-92490000D02*
X96000000Y-90800000D01*
%TO.N,Board_4-/9V*%
X101700000Y-101000000D02*
X104500000Y-98200000D01*
X92000000Y-101000000D02*
X101700000Y-101000000D01*
X90500000Y-99500000D02*
X92000000Y-101000000D01*
%TO.N,Board_3-Net-(QL1-D)*%
X161100000Y-66600000D02*
X161100000Y-67600000D01*
X161100000Y-67600000D02*
X178505000Y-67600000D01*
X157610000Y-59980000D02*
X158860000Y-59980000D01*
X159100000Y-60220000D02*
X159100000Y-64600000D01*
X158860000Y-59980000D02*
X159100000Y-60220000D01*
X184500000Y-69857500D02*
X180762500Y-69857500D01*
X178505000Y-67600000D02*
X180762500Y-69857500D01*
X159100000Y-64600000D02*
X161100000Y-66600000D01*
D26*
%TO.N,Board_3-Net-(D1-A)*%
X170310000Y-64590000D02*
X170310000Y-65750000D01*
X170000000Y-56636396D02*
X170500000Y-57136396D01*
X169250000Y-52750000D02*
X170000000Y-53500000D01*
X170500000Y-64400000D02*
X170500000Y-64560000D01*
X170000000Y-53500000D02*
X170000000Y-56636396D01*
X167565000Y-52750000D02*
X169250000Y-52750000D01*
X170500000Y-57136396D02*
X170500000Y-64400000D01*
X170500000Y-64400000D02*
X170310000Y-64590000D01*
%TO.N,Board_3-/R_out*%
X171695091Y-49500000D02*
X177000000Y-49500000D01*
X158250000Y-49000000D02*
X157750000Y-49000000D01*
X169000000Y-49000000D02*
X169500000Y-49500000D01*
X158250000Y-49000000D02*
X168500000Y-49000000D01*
X157750000Y-49000000D02*
X156750000Y-50000000D01*
X171669591Y-49474500D02*
X171695091Y-49500000D01*
X178500000Y-59975000D02*
X180762500Y-62237500D01*
X177000000Y-49500000D02*
X178500000Y-51000000D01*
X168500000Y-49000000D02*
X169000000Y-49000000D01*
X178500000Y-51000000D02*
X178500000Y-59975000D01*
%TO.N,Board_3-/R_in*%
X153000000Y-48500000D02*
X169750000Y-48500000D01*
X171500000Y-60595000D02*
X173142500Y-62237500D01*
X171000000Y-57000000D02*
X171500000Y-57500000D01*
X171000000Y-49750000D02*
X171000000Y-57000000D01*
X169750000Y-48500000D02*
X171000000Y-49750000D01*
X151500000Y-50000000D02*
X153000000Y-48500000D01*
X171500000Y-57500000D02*
X171500000Y-60595000D01*
%TO.N,Board_3-/R_Return*%
X204300000Y-67400000D02*
X204750000Y-67850000D01*
X195000000Y-59500000D02*
X202900000Y-67400000D01*
X204750000Y-67850000D02*
X204750000Y-69600000D01*
X195000000Y-54250000D02*
X195000000Y-59500000D01*
X202900000Y-67400000D02*
X204300000Y-67400000D01*
%TO.N,Board_3-/L_out*%
X190250000Y-60367500D02*
X192120000Y-62237500D01*
X190250000Y-50500000D02*
X190250000Y-60367500D01*
X185250000Y-49500000D02*
X189250000Y-49500000D01*
X189250000Y-49500000D02*
X190250000Y-50500000D01*
%TO.N,Board_3-/L_in*%
X182750000Y-60487500D02*
X184500000Y-62237500D01*
X182750000Y-50000000D02*
X182750000Y-60487500D01*
X181500000Y-48750000D02*
X182750000Y-50000000D01*
%TO.N,Board_3-/L_Return*%
X194000000Y-60250000D02*
X197750000Y-64000000D01*
X197750000Y-64000000D02*
X197750000Y-69600000D01*
X194000000Y-53957500D02*
X194000000Y-60250000D01*
X192120000Y-52077500D02*
X194000000Y-53957500D01*
%TO.N,Board_3-/Ctrl_GND*%
X164225000Y-53200000D02*
X164225000Y-59465000D01*
X164225000Y-59465000D02*
X161690000Y-62000000D01*
X165025000Y-52750000D02*
X164675000Y-52750000D01*
X164675000Y-52750000D02*
X164225000Y-53200000D01*
D25*
%TO.N,Board_3-/Control*%
X160250000Y-58250000D02*
X160500000Y-58500000D01*
X160000000Y-60190000D02*
X160000000Y-62800000D01*
X152000000Y-61000000D02*
X152000000Y-58750000D01*
X152500000Y-58250000D02*
X160250000Y-58250000D01*
X161690000Y-64490000D02*
X160000000Y-62800000D01*
X152000000Y-58750000D02*
X152500000Y-58250000D01*
X161690000Y-64490000D02*
X161690000Y-64750000D01*
X160500000Y-58500000D02*
X161690000Y-58500000D01*
X161690000Y-64750000D02*
X162690000Y-65750000D01*
X161690000Y-58500000D02*
X160000000Y-60190000D01*
%TO.N,Board_3-/9V*%
X165700000Y-73000000D02*
X168500000Y-70200000D01*
X156000000Y-73000000D02*
X165700000Y-73000000D01*
X154500000Y-71500000D02*
X156000000Y-73000000D01*
%TO.N,Board_2-Net-(QL1-D)*%
X94860000Y-59980000D02*
X95100000Y-60220000D01*
X95100000Y-60220000D02*
X95100000Y-64600000D01*
X120500000Y-69857500D02*
X116762500Y-69857500D01*
X93610000Y-59980000D02*
X94860000Y-59980000D01*
X95100000Y-64600000D02*
X97100000Y-66600000D01*
X97100000Y-66600000D02*
X97100000Y-67600000D01*
X114505000Y-67600000D02*
X116762500Y-69857500D01*
X97100000Y-67600000D02*
X114505000Y-67600000D01*
D26*
%TO.N,Board_2-Net-(D1-A)*%
X106310000Y-64590000D02*
X106310000Y-65750000D01*
X106500000Y-64400000D02*
X106310000Y-64590000D01*
X106000000Y-56636396D02*
X106500000Y-57136396D01*
X106500000Y-64400000D02*
X106500000Y-64560000D01*
X103565000Y-52750000D02*
X105250000Y-52750000D01*
X106000000Y-53500000D02*
X106000000Y-56636396D01*
X106500000Y-57136396D02*
X106500000Y-64400000D01*
X105250000Y-52750000D02*
X106000000Y-53500000D01*
%TO.N,Board_2-/R_out*%
X94250000Y-49000000D02*
X93750000Y-49000000D01*
X107669591Y-49474500D02*
X107695091Y-49500000D01*
X94250000Y-49000000D02*
X104500000Y-49000000D01*
X114500000Y-51000000D02*
X114500000Y-59975000D01*
X113000000Y-49500000D02*
X114500000Y-51000000D01*
X105000000Y-49000000D02*
X105500000Y-49500000D01*
X107695091Y-49500000D02*
X113000000Y-49500000D01*
X93750000Y-49000000D02*
X92750000Y-50000000D01*
X104500000Y-49000000D02*
X105000000Y-49000000D01*
X114500000Y-59975000D02*
X116762500Y-62237500D01*
%TO.N,Board_2-/R_in*%
X107500000Y-60595000D02*
X109142500Y-62237500D01*
X89000000Y-48500000D02*
X105750000Y-48500000D01*
X87500000Y-50000000D02*
X89000000Y-48500000D01*
X105750000Y-48500000D02*
X107000000Y-49750000D01*
X107000000Y-57000000D02*
X107500000Y-57500000D01*
X107500000Y-57500000D02*
X107500000Y-60595000D01*
X107000000Y-49750000D02*
X107000000Y-57000000D01*
%TO.N,Board_2-/R_Return*%
X140750000Y-67850000D02*
X140750000Y-69600000D01*
X131000000Y-59500000D02*
X138900000Y-67400000D01*
X138900000Y-67400000D02*
X140300000Y-67400000D01*
X140300000Y-67400000D02*
X140750000Y-67850000D01*
X131000000Y-54250000D02*
X131000000Y-59500000D01*
%TO.N,Board_2-/L_out*%
X126250000Y-50500000D02*
X126250000Y-60367500D01*
X121250000Y-49500000D02*
X125250000Y-49500000D01*
X126250000Y-60367500D02*
X128120000Y-62237500D01*
X125250000Y-49500000D02*
X126250000Y-50500000D01*
%TO.N,Board_2-/L_in*%
X118750000Y-60487500D02*
X120500000Y-62237500D01*
X117500000Y-48750000D02*
X118750000Y-50000000D01*
X118750000Y-50000000D02*
X118750000Y-60487500D01*
%TO.N,Board_2-/L_Return*%
X130000000Y-60250000D02*
X133750000Y-64000000D01*
X130000000Y-53957500D02*
X130000000Y-60250000D01*
X133750000Y-64000000D02*
X133750000Y-69600000D01*
X128120000Y-52077500D02*
X130000000Y-53957500D01*
%TO.N,Board_2-/Ctrl_GND*%
X101025000Y-52750000D02*
X100675000Y-52750000D01*
X100225000Y-53200000D02*
X100225000Y-59465000D01*
X100225000Y-59465000D02*
X97690000Y-62000000D01*
X100675000Y-52750000D02*
X100225000Y-53200000D01*
D25*
%TO.N,Board_2-/Control*%
X97690000Y-58500000D02*
X96000000Y-60190000D01*
X88000000Y-61000000D02*
X88000000Y-58750000D01*
X97690000Y-64490000D02*
X97690000Y-64750000D01*
X88500000Y-58250000D02*
X96250000Y-58250000D01*
X97690000Y-64490000D02*
X96000000Y-62800000D01*
X96000000Y-60190000D02*
X96000000Y-62800000D01*
X97690000Y-64750000D02*
X98690000Y-65750000D01*
X88000000Y-58750000D02*
X88500000Y-58250000D01*
X96500000Y-58500000D02*
X97690000Y-58500000D01*
X96250000Y-58250000D02*
X96500000Y-58500000D01*
%TO.N,Board_2-/9V*%
X92000000Y-73000000D02*
X101700000Y-73000000D01*
X101700000Y-73000000D02*
X104500000Y-70200000D01*
X90500000Y-71500000D02*
X92000000Y-73000000D01*
%TO.N,Board_1-Net-(QL1-D)*%
X159100000Y-32220000D02*
X159100000Y-36600000D01*
X178505000Y-39600000D02*
X180762500Y-41857500D01*
X157610000Y-31980000D02*
X158860000Y-31980000D01*
X158860000Y-31980000D02*
X159100000Y-32220000D01*
X161100000Y-38600000D02*
X161100000Y-39600000D01*
X159100000Y-36600000D02*
X161100000Y-38600000D01*
X161100000Y-39600000D02*
X178505000Y-39600000D01*
X184500000Y-41857500D02*
X180762500Y-41857500D01*
D26*
%TO.N,Board_1-Net-(D1-A)*%
X170000000Y-28636396D02*
X170500000Y-29136396D01*
X170310000Y-36590000D02*
X170310000Y-37750000D01*
X167565000Y-24750000D02*
X169250000Y-24750000D01*
X170500000Y-36400000D02*
X170310000Y-36590000D01*
X170000000Y-25500000D02*
X170000000Y-28636396D01*
X169250000Y-24750000D02*
X170000000Y-25500000D01*
X170500000Y-36400000D02*
X170500000Y-36560000D01*
X170500000Y-29136396D02*
X170500000Y-36400000D01*
%TO.N,Board_1-/R_out*%
X178500000Y-23000000D02*
X178500000Y-31975000D01*
X177000000Y-21500000D02*
X178500000Y-23000000D01*
X178500000Y-31975000D02*
X180762500Y-34237500D01*
X171669591Y-21474500D02*
X171695091Y-21500000D01*
X171695091Y-21500000D02*
X177000000Y-21500000D01*
X157750000Y-21000000D02*
X156750000Y-22000000D01*
X168500000Y-21000000D02*
X169000000Y-21000000D01*
X158250000Y-21000000D02*
X168500000Y-21000000D01*
X158250000Y-21000000D02*
X157750000Y-21000000D01*
X169000000Y-21000000D02*
X169500000Y-21500000D01*
%TO.N,Board_1-/R_in*%
X169750000Y-20500000D02*
X171000000Y-21750000D01*
X171500000Y-32595000D02*
X173142500Y-34237500D01*
X151500000Y-22000000D02*
X153000000Y-20500000D01*
X153000000Y-20500000D02*
X169750000Y-20500000D01*
X171000000Y-29000000D02*
X171500000Y-29500000D01*
X171500000Y-29500000D02*
X171500000Y-32595000D01*
X171000000Y-21750000D02*
X171000000Y-29000000D01*
%TO.N,Board_1-/R_Return*%
X195000000Y-26250000D02*
X195000000Y-31500000D01*
X204750000Y-39850000D02*
X204750000Y-41600000D01*
X202900000Y-39400000D02*
X204300000Y-39400000D01*
X204300000Y-39400000D02*
X204750000Y-39850000D01*
X195000000Y-31500000D02*
X202900000Y-39400000D01*
%TO.N,Board_1-/L_out*%
X185250000Y-21500000D02*
X189250000Y-21500000D01*
X190250000Y-32367500D02*
X192120000Y-34237500D01*
X189250000Y-21500000D02*
X190250000Y-22500000D01*
X190250000Y-22500000D02*
X190250000Y-32367500D01*
%TO.N,Board_1-/L_in*%
X181500000Y-20750000D02*
X182750000Y-22000000D01*
X182750000Y-22000000D02*
X182750000Y-32487500D01*
X182750000Y-32487500D02*
X184500000Y-34237500D01*
%TO.N,Board_1-/L_Return*%
X194000000Y-32250000D02*
X197750000Y-36000000D01*
X194000000Y-25957500D02*
X194000000Y-32250000D01*
X197750000Y-36000000D02*
X197750000Y-41600000D01*
X192120000Y-24077500D02*
X194000000Y-25957500D01*
%TO.N,Board_1-/Ctrl_GND*%
X164675000Y-24750000D02*
X164225000Y-25200000D01*
X165025000Y-24750000D02*
X164675000Y-24750000D01*
X164225000Y-25200000D02*
X164225000Y-31465000D01*
X164225000Y-31465000D02*
X161690000Y-34000000D01*
D25*
%TO.N,Board_1-/Control*%
X152000000Y-33000000D02*
X152000000Y-30750000D01*
X161690000Y-36490000D02*
X161690000Y-36750000D01*
X160000000Y-32190000D02*
X160000000Y-34800000D01*
X152000000Y-30750000D02*
X152500000Y-30250000D01*
X160250000Y-30250000D02*
X160500000Y-30500000D01*
X161690000Y-36750000D02*
X162690000Y-37750000D01*
X161690000Y-30500000D02*
X160000000Y-32190000D01*
X161690000Y-36490000D02*
X160000000Y-34800000D01*
X160500000Y-30500000D02*
X161690000Y-30500000D01*
X152500000Y-30250000D02*
X160250000Y-30250000D01*
%TO.N,Board_1-/9V*%
X154500000Y-43500000D02*
X156000000Y-45000000D01*
X156000000Y-45000000D02*
X165700000Y-45000000D01*
X165700000Y-45000000D02*
X168500000Y-42200000D01*
%TO.N,Board_0-Net-(QL1-D)*%
X95100000Y-36600000D02*
X97100000Y-38600000D01*
X97100000Y-39600000D02*
X114505000Y-39600000D01*
X97100000Y-38600000D02*
X97100000Y-39600000D01*
X93610000Y-31980000D02*
X94860000Y-31980000D01*
X95100000Y-32220000D02*
X95100000Y-36600000D01*
X94860000Y-31980000D02*
X95100000Y-32220000D01*
X120500000Y-41857500D02*
X116762500Y-41857500D01*
X114505000Y-39600000D02*
X116762500Y-41857500D01*
D26*
%TO.N,Board_0-Net-(D1-A)*%
X105250000Y-24750000D02*
X106000000Y-25500000D01*
X106500000Y-36400000D02*
X106500000Y-36560000D01*
X106000000Y-28636396D02*
X106500000Y-29136396D01*
X106310000Y-36590000D02*
X106310000Y-37750000D01*
X106500000Y-36400000D02*
X106310000Y-36590000D01*
X103565000Y-24750000D02*
X105250000Y-24750000D01*
X106500000Y-29136396D02*
X106500000Y-36400000D01*
X106000000Y-25500000D02*
X106000000Y-28636396D01*
%TO.N,Board_0-/R_out*%
X107669591Y-21474500D02*
X107695091Y-21500000D01*
X114500000Y-23000000D02*
X114500000Y-31975000D01*
X94250000Y-21000000D02*
X93750000Y-21000000D01*
X105000000Y-21000000D02*
X105500000Y-21500000D01*
X113000000Y-21500000D02*
X114500000Y-23000000D01*
X93750000Y-21000000D02*
X92750000Y-22000000D01*
X104500000Y-21000000D02*
X105000000Y-21000000D01*
X107695091Y-21500000D02*
X113000000Y-21500000D01*
X94250000Y-21000000D02*
X104500000Y-21000000D01*
X114500000Y-31975000D02*
X116762500Y-34237500D01*
%TO.N,Board_0-/R_in*%
X89000000Y-20500000D02*
X105750000Y-20500000D01*
X107000000Y-29000000D02*
X107500000Y-29500000D01*
X105750000Y-20500000D02*
X107000000Y-21750000D01*
X87500000Y-22000000D02*
X89000000Y-20500000D01*
X107000000Y-21750000D02*
X107000000Y-29000000D01*
X107500000Y-29500000D02*
X107500000Y-32595000D01*
X107500000Y-32595000D02*
X109142500Y-34237500D01*
%TO.N,Board_0-/R_Return*%
X131000000Y-31500000D02*
X138900000Y-39400000D01*
X140750000Y-39850000D02*
X140750000Y-41600000D01*
X140300000Y-39400000D02*
X140750000Y-39850000D01*
X138900000Y-39400000D02*
X140300000Y-39400000D01*
X131000000Y-26250000D02*
X131000000Y-31500000D01*
%TO.N,Board_0-/L_out*%
X126250000Y-32367500D02*
X128120000Y-34237500D01*
X126250000Y-22500000D02*
X126250000Y-32367500D01*
X121250000Y-21500000D02*
X125250000Y-21500000D01*
X125250000Y-21500000D02*
X126250000Y-22500000D01*
%TO.N,Board_0-/L_in*%
X118750000Y-22000000D02*
X118750000Y-32487500D01*
X117500000Y-20750000D02*
X118750000Y-22000000D01*
X118750000Y-32487500D02*
X120500000Y-34237500D01*
%TO.N,Board_0-/L_Return*%
X130000000Y-32250000D02*
X133750000Y-36000000D01*
X133750000Y-36000000D02*
X133750000Y-41600000D01*
X128120000Y-24077500D02*
X130000000Y-25957500D01*
X130000000Y-25957500D02*
X130000000Y-32250000D01*
%TO.N,Board_0-/Ctrl_GND*%
X101025000Y-24750000D02*
X100675000Y-24750000D01*
X100675000Y-24750000D02*
X100225000Y-25200000D01*
X100225000Y-25200000D02*
X100225000Y-31465000D01*
X100225000Y-31465000D02*
X97690000Y-34000000D01*
D25*
%TO.N,Board_0-/Control*%
X97690000Y-36490000D02*
X96000000Y-34800000D01*
X97690000Y-30500000D02*
X96000000Y-32190000D01*
X97690000Y-36490000D02*
X97690000Y-36750000D01*
X96000000Y-32190000D02*
X96000000Y-34800000D01*
X97690000Y-36750000D02*
X98690000Y-37750000D01*
X88000000Y-33000000D02*
X88000000Y-30750000D01*
X88000000Y-30750000D02*
X88500000Y-30250000D01*
X96500000Y-30500000D02*
X97690000Y-30500000D01*
X96250000Y-30250000D02*
X96500000Y-30500000D01*
X88500000Y-30250000D02*
X96250000Y-30250000D01*
%TO.N,Board_0-/9V*%
X90500000Y-43500000D02*
X92000000Y-45000000D01*
X92000000Y-45000000D02*
X101700000Y-45000000D01*
X101700000Y-45000000D02*
X104500000Y-42200000D01*
%TD*%
M02*
