M48
; DRILL file {KiCad 7.0.9} date Sat Jun  8 21:24:23 2024
; FORMAT={-:-/ absolute / inch / decimal}
; #@! TF.CreationDate,2024-06-08T21:24:23-04:00
; #@! TF.GenerationSoftware,Kicad,Pcbnew,7.0.9
; #@! TF.FileFunction,NonPlated,1,2,NPTH
FMAT,2
INCH
; #@! TA.AperFunction,NonPlated,NPTH,ComponentDrill
T1C0.0197
%
G90
G05
T1
X3.7139Y-1.811
X3.7139Y-1.8898
X3.7139Y-2.9134
X3.7139Y-2.9921
X3.7533Y-1.811
X3.7533Y-1.8898
X3.7533Y-2.9134
X3.7533Y-2.9921
X3.7927Y-1.811
X3.7927Y-1.8898
X3.7927Y-2.9134
X3.7927Y-2.9921
X3.832Y-1.811
X3.832Y-1.8898
X3.832Y-2.9134
X3.832Y-2.9921
X4.1207Y-1.811
X4.1207Y-1.8898
X4.1207Y-2.9134
X4.1207Y-2.9921
X4.1601Y-1.811
X4.1601Y-1.8898
X4.1601Y-2.9134
X4.1601Y-2.9921
X4.1995Y-1.811
X4.1995Y-1.8898
X4.1995Y-2.9134
X4.1995Y-2.9921
X4.2388Y-1.811
X4.2388Y-1.8898
X4.2388Y-2.9134
X4.2388Y-2.9921
X4.5276Y-1.811
X4.5276Y-1.8898
X4.5276Y-2.9134
X4.5276Y-2.9921
X4.5669Y-1.811
X4.5669Y-1.8898
X4.5669Y-2.9134
X4.5669Y-2.9921
X4.6063Y-1.811
X4.6063Y-1.8898
X4.6063Y-2.9134
X4.6063Y-2.9921
X4.6457Y-1.811
X4.6457Y-1.8898
X4.6457Y-2.9134
X4.6457Y-2.9921
X4.9344Y-1.811
X4.9344Y-1.8898
X4.9344Y-2.9134
X4.9344Y-2.9921
X4.9738Y-1.811
X4.9738Y-1.8898
X4.9738Y-2.9134
X4.9738Y-2.9921
X5.0131Y-1.811
X5.0131Y-1.8898
X5.0131Y-2.9134
X5.0131Y-2.9921
X5.0525Y-1.811
X5.0525Y-1.8898
X5.0525Y-2.9134
X5.0525Y-2.9921
X5.3412Y-1.811
X5.3412Y-1.8898
X5.3412Y-2.9134
X5.3412Y-2.9921
X5.3806Y-1.811
X5.3806Y-1.8898
X5.3806Y-2.9134
X5.3806Y-2.9921
X5.4199Y-1.811
X5.4199Y-1.8898
X5.4199Y-2.9134
X5.4199Y-2.9921
X5.4593Y-1.811
X5.4593Y-1.8898
X5.4593Y-2.9134
X5.4593Y-2.9921
X5.8071Y-1.0696
X5.8071Y-1.1089
X5.8071Y-1.1483
X5.8071Y-1.1877
X5.8071Y-1.4108
X5.8071Y-1.4501
X5.8071Y-1.4895
X5.8071Y-1.5289
X5.8071Y-2.1719
X5.8071Y-2.2113
X5.8071Y-2.2507
X5.8071Y-2.29
X5.8071Y-2.5131
X5.8071Y-2.5525
X5.8071Y-2.5919
X5.8071Y-2.6312
X5.8071Y-3.2743
X5.8071Y-3.3136
X5.8071Y-3.353
X5.8071Y-3.3924
X5.8071Y-3.6155
X5.8071Y-3.6549
X5.8071Y-3.6942
X5.8071Y-3.7336
X5.8858Y-1.0696
X5.8858Y-1.1089
X5.8858Y-1.1483
X5.8858Y-1.1877
X5.8858Y-1.4108
X5.8858Y-1.4501
X5.8858Y-1.4895
X5.8858Y-1.5289
X5.8858Y-2.1719
X5.8858Y-2.2113
X5.8858Y-2.2507
X5.8858Y-2.29
X5.8858Y-2.5131
X5.8858Y-2.5525
X5.8858Y-2.5919
X5.8858Y-2.6312
X5.8858Y-3.2743
X5.8858Y-3.3136
X5.8858Y-3.353
X5.8858Y-3.3924
X5.8858Y-3.6155
X5.8858Y-3.6549
X5.8858Y-3.6942
X5.8858Y-3.7336
X6.2336Y-1.811
X6.2336Y-1.8898
X6.2336Y-2.9134
X6.2336Y-2.9921
X6.273Y-1.811
X6.273Y-1.8898
X6.273Y-2.9134
X6.273Y-2.9921
X6.3123Y-1.811
X6.3123Y-1.8898
X6.3123Y-2.9134
X6.3123Y-2.9921
X6.3517Y-1.811
X6.3517Y-1.8898
X6.3517Y-2.9134
X6.3517Y-2.9921
X6.6404Y-1.811
X6.6404Y-1.8898
X6.6404Y-2.9134
X6.6404Y-2.9921
X6.6798Y-1.811
X6.6798Y-1.8898
X6.6798Y-2.9134
X6.6798Y-2.9921
X6.7192Y-1.811
X6.7192Y-1.8898
X6.7192Y-2.9134
X6.7192Y-2.9921
X6.7585Y-1.811
X6.7585Y-1.8898
X6.7585Y-2.9134
X6.7585Y-2.9921
X7.0472Y-1.811
X7.0472Y-1.8898
X7.0472Y-2.9134
X7.0472Y-2.9921
X7.0866Y-1.811
X7.0866Y-1.8898
X7.0866Y-2.9134
X7.0866Y-2.9921
X7.126Y-1.811
X7.126Y-1.8898
X7.126Y-2.9134
X7.126Y-2.9921
X7.1654Y-1.811
X7.1654Y-1.8898
X7.1654Y-2.9134
X7.1654Y-2.9921
X7.4541Y-1.811
X7.4541Y-1.8898
X7.4541Y-2.9134
X7.4541Y-2.9921
X7.4934Y-1.811
X7.4934Y-1.8898
X7.4934Y-2.9134
X7.4934Y-2.9921
X7.5328Y-1.811
X7.5328Y-1.8898
X7.5328Y-2.9134
X7.5328Y-2.9921
X7.5722Y-1.811
X7.5722Y-1.8898
X7.5722Y-2.9134
X7.5722Y-2.9921
X7.8609Y-1.811
X7.8609Y-1.8898
X7.8609Y-2.9134
X7.8609Y-2.9921
X7.9003Y-1.811
X7.9003Y-1.8898
X7.9003Y-2.9134
X7.9003Y-2.9921
X7.9396Y-1.811
X7.9396Y-1.8898
X7.9396Y-2.9134
X7.9396Y-2.9921
X7.979Y-1.811
X7.979Y-1.8898
X7.979Y-2.9134
X7.979Y-2.9921
T0
M30
