%TF.GenerationSoftware,KiCad,Pcbnew,7.0.9*%
%TF.CreationDate,2023-12-28T11:44:19-05:00*%
%TF.ProjectId,PedalboardMain,50656461-6c62-46f6-9172-644d61696e2e,rev?*%
%TF.SameCoordinates,Original*%
%TF.FileFunction,Legend,Bot*%
%TF.FilePolarity,Positive*%
%FSLAX46Y46*%
G04 Gerber Fmt 4.6, Leading zero omitted, Abs format (unit mm)*
G04 Created by KiCad (PCBNEW 7.0.9) date 2023-12-28 11:44:19*
%MOMM*%
%LPD*%
G01*
G04 APERTURE LIST*
%ADD10C,0.150000*%
G04 APERTURE END LIST*
D10*
X165404819Y-98928333D02*
X164928628Y-98595000D01*
X165404819Y-98356905D02*
X164404819Y-98356905D01*
X164404819Y-98356905D02*
X164404819Y-98737857D01*
X164404819Y-98737857D02*
X164452438Y-98833095D01*
X164452438Y-98833095D02*
X164500057Y-98880714D01*
X164500057Y-98880714D02*
X164595295Y-98928333D01*
X164595295Y-98928333D02*
X164738152Y-98928333D01*
X164738152Y-98928333D02*
X164833390Y-98880714D01*
X164833390Y-98880714D02*
X164881009Y-98833095D01*
X164881009Y-98833095D02*
X164928628Y-98737857D01*
X164928628Y-98737857D02*
X164928628Y-98356905D01*
X165404819Y-99404524D02*
X165404819Y-99595000D01*
X165404819Y-99595000D02*
X165357200Y-99690238D01*
X165357200Y-99690238D02*
X165309580Y-99737857D01*
X165309580Y-99737857D02*
X165166723Y-99833095D01*
X165166723Y-99833095D02*
X164976247Y-99880714D01*
X164976247Y-99880714D02*
X164595295Y-99880714D01*
X164595295Y-99880714D02*
X164500057Y-99833095D01*
X164500057Y-99833095D02*
X164452438Y-99785476D01*
X164452438Y-99785476D02*
X164404819Y-99690238D01*
X164404819Y-99690238D02*
X164404819Y-99499762D01*
X164404819Y-99499762D02*
X164452438Y-99404524D01*
X164452438Y-99404524D02*
X164500057Y-99356905D01*
X164500057Y-99356905D02*
X164595295Y-99309286D01*
X164595295Y-99309286D02*
X164833390Y-99309286D01*
X164833390Y-99309286D02*
X164928628Y-99356905D01*
X164928628Y-99356905D02*
X164976247Y-99404524D01*
X164976247Y-99404524D02*
X165023866Y-99499762D01*
X165023866Y-99499762D02*
X165023866Y-99690238D01*
X165023866Y-99690238D02*
X164976247Y-99785476D01*
X164976247Y-99785476D02*
X164928628Y-99833095D01*
X164928628Y-99833095D02*
X164833390Y-99880714D01*
X178404819Y-99178333D02*
X177928628Y-98845000D01*
X178404819Y-98606905D02*
X177404819Y-98606905D01*
X177404819Y-98606905D02*
X177404819Y-98987857D01*
X177404819Y-98987857D02*
X177452438Y-99083095D01*
X177452438Y-99083095D02*
X177500057Y-99130714D01*
X177500057Y-99130714D02*
X177595295Y-99178333D01*
X177595295Y-99178333D02*
X177738152Y-99178333D01*
X177738152Y-99178333D02*
X177833390Y-99130714D01*
X177833390Y-99130714D02*
X177881009Y-99083095D01*
X177881009Y-99083095D02*
X177928628Y-98987857D01*
X177928628Y-98987857D02*
X177928628Y-98606905D01*
X177833390Y-99749762D02*
X177785771Y-99654524D01*
X177785771Y-99654524D02*
X177738152Y-99606905D01*
X177738152Y-99606905D02*
X177642914Y-99559286D01*
X177642914Y-99559286D02*
X177595295Y-99559286D01*
X177595295Y-99559286D02*
X177500057Y-99606905D01*
X177500057Y-99606905D02*
X177452438Y-99654524D01*
X177452438Y-99654524D02*
X177404819Y-99749762D01*
X177404819Y-99749762D02*
X177404819Y-99940238D01*
X177404819Y-99940238D02*
X177452438Y-100035476D01*
X177452438Y-100035476D02*
X177500057Y-100083095D01*
X177500057Y-100083095D02*
X177595295Y-100130714D01*
X177595295Y-100130714D02*
X177642914Y-100130714D01*
X177642914Y-100130714D02*
X177738152Y-100083095D01*
X177738152Y-100083095D02*
X177785771Y-100035476D01*
X177785771Y-100035476D02*
X177833390Y-99940238D01*
X177833390Y-99940238D02*
X177833390Y-99749762D01*
X177833390Y-99749762D02*
X177881009Y-99654524D01*
X177881009Y-99654524D02*
X177928628Y-99606905D01*
X177928628Y-99606905D02*
X178023866Y-99559286D01*
X178023866Y-99559286D02*
X178214342Y-99559286D01*
X178214342Y-99559286D02*
X178309580Y-99606905D01*
X178309580Y-99606905D02*
X178357200Y-99654524D01*
X178357200Y-99654524D02*
X178404819Y-99749762D01*
X178404819Y-99749762D02*
X178404819Y-99940238D01*
X178404819Y-99940238D02*
X178357200Y-100035476D01*
X178357200Y-100035476D02*
X178309580Y-100083095D01*
X178309580Y-100083095D02*
X178214342Y-100130714D01*
X178214342Y-100130714D02*
X178023866Y-100130714D01*
X178023866Y-100130714D02*
X177928628Y-100083095D01*
X177928628Y-100083095D02*
X177881009Y-100035476D01*
X177881009Y-100035476D02*
X177833390Y-99940238D01*
M02*
