%TF.GenerationSoftware,KiCad,Pcbnew,7.0.9*%
%TF.CreationDate,2023-12-28T11:44:17-05:00*%
%TF.ProjectId,PedalboardMain,50656461-6c62-46f6-9172-644d61696e2e,rev?*%
%TF.SameCoordinates,Original*%
%TF.FileFunction,Drillmap*%
%TF.FilePolarity,Positive*%
%FSLAX45Y45*%
G04 Gerber Fmt 4.5, Leading zero omitted, Abs format (unit mm)*
G04 Created by KiCad (PCBNEW 7.0.9) date 2023-12-28 11:44:17*
%MOMM*%
%LPD*%
G01*
G04 APERTURE LIST*
%ADD10C,0.100000*%
%ADD11C,0.200000*%
G04 APERTURE END LIST*
D10*
X18500000Y-12000000D02*
X11375000Y-12001040D01*
X11375000Y-7750000D02*
G75*
G03*
X11075000Y-8050000I0J-300000D01*
G01*
X18512500Y-7750000D02*
X18500000Y-12000000D01*
X11387500Y-7750000D02*
X18512500Y-7750000D01*
X11073960Y-11700000D02*
G75*
G03*
X11375000Y-12001040I301040J0D01*
G01*
X11073960Y-11700000D02*
X11075000Y-8050000D01*
D11*
X11329737Y-12317524D02*
X11329737Y-12117524D01*
X11329737Y-12117524D02*
X11377356Y-12117524D01*
X11377356Y-12117524D02*
X11405927Y-12127047D01*
X11405927Y-12127047D02*
X11424975Y-12146095D01*
X11424975Y-12146095D02*
X11434499Y-12165143D01*
X11434499Y-12165143D02*
X11444023Y-12203238D01*
X11444023Y-12203238D02*
X11444023Y-12231809D01*
X11444023Y-12231809D02*
X11434499Y-12269904D01*
X11434499Y-12269904D02*
X11424975Y-12288952D01*
X11424975Y-12288952D02*
X11405927Y-12308000D01*
X11405927Y-12308000D02*
X11377356Y-12317524D01*
X11377356Y-12317524D02*
X11329737Y-12317524D01*
X11529737Y-12317524D02*
X11529737Y-12184190D01*
X11529737Y-12222285D02*
X11539261Y-12203238D01*
X11539261Y-12203238D02*
X11548785Y-12193714D01*
X11548785Y-12193714D02*
X11567832Y-12184190D01*
X11567832Y-12184190D02*
X11586880Y-12184190D01*
X11653546Y-12317524D02*
X11653546Y-12184190D01*
X11653546Y-12117524D02*
X11644023Y-12127047D01*
X11644023Y-12127047D02*
X11653546Y-12136571D01*
X11653546Y-12136571D02*
X11663070Y-12127047D01*
X11663070Y-12127047D02*
X11653546Y-12117524D01*
X11653546Y-12117524D02*
X11653546Y-12136571D01*
X11777356Y-12317524D02*
X11758308Y-12308000D01*
X11758308Y-12308000D02*
X11748785Y-12288952D01*
X11748785Y-12288952D02*
X11748785Y-12117524D01*
X11882118Y-12317524D02*
X11863070Y-12308000D01*
X11863070Y-12308000D02*
X11853546Y-12288952D01*
X11853546Y-12288952D02*
X11853546Y-12117524D01*
X12110689Y-12317524D02*
X12110689Y-12117524D01*
X12110689Y-12117524D02*
X12177356Y-12260381D01*
X12177356Y-12260381D02*
X12244023Y-12117524D01*
X12244023Y-12117524D02*
X12244023Y-12317524D01*
X12424975Y-12317524D02*
X12424975Y-12212762D01*
X12424975Y-12212762D02*
X12415451Y-12193714D01*
X12415451Y-12193714D02*
X12396404Y-12184190D01*
X12396404Y-12184190D02*
X12358308Y-12184190D01*
X12358308Y-12184190D02*
X12339261Y-12193714D01*
X12424975Y-12308000D02*
X12405927Y-12317524D01*
X12405927Y-12317524D02*
X12358308Y-12317524D01*
X12358308Y-12317524D02*
X12339261Y-12308000D01*
X12339261Y-12308000D02*
X12329737Y-12288952D01*
X12329737Y-12288952D02*
X12329737Y-12269904D01*
X12329737Y-12269904D02*
X12339261Y-12250857D01*
X12339261Y-12250857D02*
X12358308Y-12241333D01*
X12358308Y-12241333D02*
X12405927Y-12241333D01*
X12405927Y-12241333D02*
X12424975Y-12231809D01*
X12520213Y-12184190D02*
X12520213Y-12384190D01*
X12520213Y-12193714D02*
X12539261Y-12184190D01*
X12539261Y-12184190D02*
X12577356Y-12184190D01*
X12577356Y-12184190D02*
X12596404Y-12193714D01*
X12596404Y-12193714D02*
X12605927Y-12203238D01*
X12605927Y-12203238D02*
X12615451Y-12222285D01*
X12615451Y-12222285D02*
X12615451Y-12279428D01*
X12615451Y-12279428D02*
X12605927Y-12298476D01*
X12605927Y-12298476D02*
X12596404Y-12308000D01*
X12596404Y-12308000D02*
X12577356Y-12317524D01*
X12577356Y-12317524D02*
X12539261Y-12317524D01*
X12539261Y-12317524D02*
X12520213Y-12308000D01*
X12701166Y-12298476D02*
X12710689Y-12308000D01*
X12710689Y-12308000D02*
X12701166Y-12317524D01*
X12701166Y-12317524D02*
X12691642Y-12308000D01*
X12691642Y-12308000D02*
X12701166Y-12298476D01*
X12701166Y-12298476D02*
X12701166Y-12317524D01*
X12701166Y-12193714D02*
X12710689Y-12203238D01*
X12710689Y-12203238D02*
X12701166Y-12212762D01*
X12701166Y-12212762D02*
X12691642Y-12203238D01*
X12691642Y-12203238D02*
X12701166Y-12193714D01*
X12701166Y-12193714D02*
X12701166Y-12212762D01*
M02*
