%TF.GenerationSoftware,KiCad,Pcbnew,7.0.9*%
%TF.CreationDate,2023-12-28T11:44:19-05:00*%
%TF.ProjectId,PedalboardMain,50656461-6c62-46f6-9172-644d61696e2e,rev?*%
%TF.SameCoordinates,Original*%
%TF.FileFunction,Soldermask,Top*%
%TF.FilePolarity,Negative*%
%FSLAX46Y46*%
G04 Gerber Fmt 4.6, Leading zero omitted, Abs format (unit mm)*
G04 Created by KiCad (PCBNEW 7.0.9) date 2023-12-28 11:44:19*
%MOMM*%
%LPD*%
G01*
G04 APERTURE LIST*
%ADD10C,3.000000*%
%ADD11C,1.600000*%
%ADD12O,1.600000X1.600000*%
%ADD13R,1.500000X1.050000*%
%ADD14O,1.500000X1.050000*%
%ADD15R,1.800000X1.800000*%
%ADD16C,1.800000*%
%ADD17R,1.700000X1.700000*%
%ADD18O,1.700000X1.700000*%
%ADD19R,1.400000X1.400000*%
%ADD20C,1.400000*%
%ADD21R,2.000000X1.905000*%
%ADD22O,2.000000X1.905000*%
G04 APERTURE END LIST*
D10*
%TO.C,Send1*%
X175825000Y-101135000D03*
X175825000Y-117365000D03*
X182175000Y-101135000D03*
X182175000Y-117365000D03*
X169475000Y-101135000D03*
X169475000Y-117365000D03*
%TD*%
%TO.C,Return1*%
X175825000Y-80385000D03*
X175825000Y-96615000D03*
X182175000Y-80385000D03*
X182175000Y-96615000D03*
X169475000Y-80385000D03*
X169475000Y-96615000D03*
%TD*%
D11*
%TO.C,R7*%
X155520000Y-107920000D03*
D12*
X155520000Y-118080000D03*
%TD*%
D13*
%TO.C,QL1*%
X151500000Y-104040000D03*
D14*
X151500000Y-102770000D03*
X151500000Y-101500000D03*
%TD*%
D11*
%TO.C,R4*%
X135500000Y-118330000D03*
D12*
X135500000Y-108170000D03*
%TD*%
D11*
%TO.C,R5*%
X144000000Y-107920000D03*
D12*
X144000000Y-118080000D03*
%TD*%
D15*
%TO.C,D1*%
X125775000Y-116500000D03*
D16*
X123235000Y-116500000D03*
%TD*%
D13*
%TO.C,QR1*%
X139860000Y-104270000D03*
D14*
X139860000Y-103000000D03*
X139860000Y-101730000D03*
%TD*%
D11*
%TO.C,R3*%
X148000000Y-118080000D03*
D12*
X148000000Y-107920000D03*
%TD*%
D17*
%TO.C,J3*%
X114250000Y-111250000D03*
D18*
X116790000Y-111250000D03*
%TD*%
D13*
%TO.C,QLED1*%
X131750000Y-104520000D03*
D14*
X131750000Y-103250000D03*
X131750000Y-101980000D03*
%TD*%
D19*
%TO.C,Right1*%
X139275000Y-98200000D03*
D20*
X139275000Y-90580000D03*
X139275000Y-85500000D03*
X139275000Y-80420000D03*
X131655000Y-80420000D03*
X131655000Y-85500000D03*
X131655000Y-90580000D03*
X131655000Y-98200000D03*
%TD*%
D11*
%TO.C,R2*%
X138750000Y-118330000D03*
D12*
X138750000Y-108170000D03*
%TD*%
D11*
%TO.C,RLed1*%
X132250000Y-108170000D03*
D12*
X132250000Y-118330000D03*
%TD*%
D19*
%TO.C,Left/Mono1*%
X151512500Y-98107500D03*
D20*
X151512500Y-90487500D03*
X151512500Y-85407500D03*
X151512500Y-80327500D03*
X143892500Y-80327500D03*
X143892500Y-85407500D03*
X143892500Y-90487500D03*
X143892500Y-98107500D03*
%TD*%
D21*
%TO.C,U1*%
X125195000Y-109040000D03*
D22*
X125195000Y-106500000D03*
X125195000Y-103960000D03*
%TD*%
D17*
%TO.C,In1*%
X114500000Y-87000000D03*
D18*
X114500000Y-84460000D03*
X114500000Y-81920000D03*
%TD*%
D17*
%TO.C,J1*%
X114750000Y-105250000D03*
%TD*%
D11*
%TO.C,R6*%
X152020000Y-118080000D03*
D12*
X152020000Y-107920000D03*
%TD*%
D17*
%TO.C,J2*%
X114250000Y-117250000D03*
D18*
X116790000Y-117250000D03*
%TD*%
D17*
%TO.C,Out1*%
X114500000Y-97290000D03*
D18*
X114500000Y-94750000D03*
X114500000Y-92210000D03*
%TD*%
M02*
