%TF.GenerationSoftware,KiCad,Pcbnew,7.0.9*%
%TF.CreationDate,2024-06-09T17:36:51-04:00*%
%TF.ProjectId,Jackless-Panel,4a61636b-6c65-4737-932d-50616e656c2e,rev?*%
%TF.SameCoordinates,Original*%
%TF.FileFunction,Profile,NP*%
%FSLAX46Y46*%
G04 Gerber Fmt 4.6, Leading zero omitted, Abs format (unit mm)*
G04 Created by KiCad (PCBNEW 7.0.9) date 2024-06-09 17:36:51*
%MOMM*%
%LPD*%
G01*
G04 APERTURE LIST*
%TA.AperFunction,Profile*%
%ADD10C,0.100000*%
%TD*%
G04 APERTURE END LIST*
D10*
X97704564Y-52040711D02*
X97710479Y-52120258D01*
X92517083Y-39221768D02*
X92581499Y-39174723D01*
X94488041Y-52239883D02*
X94488041Y-52160116D01*
X120770206Y-62609641D02*
X120746875Y-62533364D01*
X93952540Y-66952353D02*
X94028523Y-66976627D01*
X123117712Y-32710270D02*
X123185439Y-32752410D01*
X160616911Y-25609529D02*
X160548163Y-25569078D01*
X96000345Y-25809369D02*
X95920878Y-25802472D01*
X159175449Y-42068132D02*
X159097440Y-42084780D01*
X121195619Y-35274880D02*
X121138868Y-35218827D01*
X159988449Y-69589765D02*
X159933102Y-69647205D01*
X161141849Y-25791653D02*
X161063451Y-25776939D01*
X144317712Y-63189729D02*
X144247985Y-63228467D01*
X142141562Y-32931295D02*
X142186184Y-32865178D01*
X123488449Y-63189765D02*
X123433102Y-63247205D01*
X208463451Y-35376939D02*
X208385878Y-35358366D01*
X94995619Y-51025119D02*
X95055072Y-50971941D01*
X141911661Y-34077816D02*
X141899865Y-33998927D01*
X93875449Y-70068132D02*
X93797440Y-70084780D01*
X157227344Y-68143973D02*
X157246875Y-68066635D01*
X158309317Y-70035979D02*
X158233958Y-70009833D01*
X95685878Y-53758366D02*
X95609317Y-53735979D01*
X147500000Y-20000000D02*
X84200000Y-20000000D01*
X189180980Y-33782981D02*
X189194724Y-33861554D01*
X143952540Y-32252353D02*
X144028523Y-32276627D01*
X162285439Y-50852410D02*
X162350999Y-50897847D01*
X84200000Y-46000000D02*
X93250000Y-46000000D01*
X162474982Y-50998162D02*
X162533102Y-51052794D01*
X210404564Y-33959288D02*
X210394724Y-34038445D01*
X160136535Y-41402039D02*
X160090290Y-41467032D01*
X207755072Y-32571941D02*
X207817083Y-32521768D01*
X92284958Y-39439963D02*
X92338868Y-39381172D01*
X209252540Y-63347646D02*
X209175449Y-63368132D01*
X209874982Y-60598162D02*
X209933102Y-60652794D01*
X144790290Y-60832967D02*
X144836535Y-60897960D01*
X97710479Y-52120258D02*
X97712452Y-52200000D01*
X161141849Y-50608346D02*
X161220878Y-50597527D01*
X121733958Y-35609833D02*
X121659984Y-35579993D01*
X188550999Y-32797847D02*
X188614232Y-32846471D01*
X186495619Y-35274880D02*
X186438868Y-35218827D01*
X207695619Y-62974880D02*
X207638868Y-62918827D01*
X160616911Y-22790470D02*
X160687576Y-22753468D01*
X209097440Y-60215219D02*
X209175449Y-60231867D01*
X162819107Y-52965595D02*
X162779509Y-53034838D01*
X117350000Y-47001500D02*
X117350000Y-46999500D01*
X159870206Y-24709641D02*
X159846875Y-24633364D01*
X123374982Y-60898162D02*
X123433102Y-60952794D01*
X162963368Y-51805184D02*
X162980980Y-51882981D01*
X186384958Y-61039963D02*
X186438868Y-60981172D01*
X93400345Y-70109369D02*
X93320878Y-70102472D01*
X158550000Y-47001500D02*
X158550000Y-48000000D01*
X143009317Y-60264020D02*
X143085878Y-60241633D01*
X159547985Y-39071532D02*
X159617712Y-39110270D01*
X186555072Y-63328058D02*
X186495619Y-63274880D01*
X121034022Y-63098650D02*
X120986184Y-63034821D01*
X94574982Y-39298162D02*
X94633102Y-39352794D01*
X160380980Y-68182981D02*
X160394724Y-68261554D01*
X97616719Y-51652675D02*
X97641930Y-51728352D01*
X94511661Y-51922183D02*
X94527344Y-51843973D01*
X207211661Y-62077816D02*
X207199865Y-61998927D01*
X210412452Y-33800000D02*
X210410479Y-33879741D01*
X185999865Y-62298927D02*
X185991986Y-62219551D01*
X94491986Y-52080448D02*
X94499865Y-52001072D01*
X208859816Y-63411342D02*
X208780056Y-63412328D01*
X187897440Y-35684780D02*
X187818703Y-35697551D01*
X123679509Y-62934838D02*
X123636535Y-63002039D01*
X209750999Y-35102152D02*
X209685439Y-35147589D01*
X210410479Y-61879741D02*
X210404564Y-61959288D01*
X148499000Y-63833333D02*
X147500000Y-63833333D01*
X209814232Y-35053528D02*
X209750999Y-35102152D01*
X188733102Y-63247205D02*
X188674982Y-63301837D01*
X209328523Y-63323372D02*
X209252540Y-63347646D01*
X159811661Y-52477816D02*
X159799865Y-52398927D01*
X123841930Y-62571647D02*
X123816719Y-62647324D01*
X210394724Y-33561554D02*
X210404564Y-33640711D01*
X142141562Y-60931295D02*
X142186184Y-60865178D01*
X95387576Y-25646531D02*
X95316911Y-25609529D01*
X162690290Y-53167032D02*
X162640888Y-53229658D01*
X182650000Y-46999500D02*
X182650000Y-46000000D01*
X188674982Y-35301837D02*
X188614232Y-35353528D01*
X208620878Y-63402472D02*
X208541849Y-63391653D01*
X96847985Y-50771532D02*
X96917712Y-50810270D01*
X157948163Y-41869078D02*
X157881499Y-41825276D01*
X161380056Y-53812328D02*
X161300345Y-53809369D01*
X143320878Y-63402472D02*
X143241849Y-63391653D01*
X158385878Y-38941633D02*
X158463451Y-38923060D01*
X161697440Y-25784780D02*
X161618703Y-25797551D01*
X162588449Y-53289765D02*
X162533102Y-53347205D01*
X123904564Y-62259288D02*
X123894724Y-62338445D01*
X93718703Y-42097551D02*
X93639430Y-42106412D01*
X121885878Y-35658366D02*
X121809317Y-35635979D01*
X162350999Y-50897847D02*
X162414232Y-50946471D01*
X94527344Y-24556026D02*
X94511661Y-24477816D01*
X94546875Y-51766635D02*
X94570206Y-51690358D01*
X92395619Y-41674880D02*
X92338868Y-41618827D01*
X144514232Y-63053528D02*
X144450999Y-63102152D01*
X161928523Y-22676627D02*
X162003213Y-22704628D01*
X162887796Y-52821662D02*
X162855232Y-52894478D01*
X162147985Y-50771532D02*
X162217712Y-50810270D01*
X160184958Y-53260036D02*
X160134022Y-53198650D01*
X157199865Y-40301072D02*
X157211661Y-40222183D01*
X210341930Y-34271647D02*
X210316719Y-34347324D01*
X120699865Y-62298927D02*
X120691986Y-62219551D01*
X158541849Y-70091653D02*
X158463451Y-70076939D01*
X123314232Y-35353528D02*
X123250999Y-35402152D01*
X188979509Y-34934838D02*
X188936535Y-35002039D01*
X159962390Y-52930260D02*
X159928035Y-52858271D01*
X161220878Y-22597527D02*
X161300345Y-22590630D01*
X94987796Y-69121662D02*
X94955232Y-69194478D01*
X121138868Y-63218827D02*
X121084958Y-63160036D01*
X91997282Y-67915327D02*
X92028035Y-67841728D01*
X157881499Y-41825276D02*
X157817083Y-41778231D01*
X145104564Y-61640711D02*
X145110479Y-61720258D01*
X97680980Y-24517018D02*
X97663368Y-24594815D01*
X95248163Y-22830921D02*
X95316911Y-22790470D01*
X187659816Y-63711342D02*
X187580056Y-63712328D01*
X148499000Y-27166666D02*
X147500000Y-27166666D01*
X141997282Y-33215327D02*
X142028035Y-33141728D01*
X207881499Y-63125276D02*
X207817083Y-63078231D01*
X121034022Y-33101349D02*
X121084958Y-33039963D01*
X141970206Y-61290358D02*
X141997282Y-61215327D01*
X160184958Y-25260036D02*
X160134022Y-25198650D01*
X145104564Y-61959288D02*
X145094724Y-62038445D01*
X96917712Y-53589729D02*
X96847985Y-53628467D01*
X93250000Y-47001500D02*
X93250000Y-48000000D01*
X187897440Y-60515219D02*
X187975449Y-60531867D01*
X185999865Y-34298927D02*
X185991986Y-34219551D01*
X186384958Y-63160036D02*
X186334022Y-63098650D01*
X94103213Y-41995371D02*
X94028523Y-42023372D01*
X142787576Y-32353468D02*
X142859984Y-32320006D01*
X187341849Y-35691653D02*
X187263451Y-35676939D01*
X96080056Y-22587671D02*
X96159816Y-22588657D01*
X185999865Y-33901072D02*
X186011661Y-33822183D01*
X148499000Y-30166666D02*
X148501000Y-30166666D01*
X207211661Y-33522183D02*
X207227344Y-33443973D01*
X123910479Y-62020258D02*
X123912452Y-62100000D01*
X142517083Y-35078231D02*
X142455072Y-35028058D01*
X144688449Y-32710234D02*
X144740888Y-32770341D01*
X159814232Y-41753528D02*
X159750999Y-41802152D01*
X157199865Y-68698927D02*
X157191986Y-68619551D01*
X127900000Y-47001500D02*
X127900000Y-46999500D01*
X163004564Y-52359288D02*
X162994724Y-52438445D01*
X91899865Y-40301072D02*
X91911661Y-40222183D01*
X158309317Y-66964020D02*
X158385878Y-66941633D01*
X160985878Y-22641633D02*
X161063451Y-22623060D01*
X120746875Y-33666635D02*
X120770206Y-33590358D01*
X144028523Y-35323372D02*
X143952540Y-35347646D01*
X144836535Y-60897960D02*
X144879509Y-60965161D01*
X148501000Y-38833333D02*
X149500000Y-38833333D01*
X161220878Y-50597527D02*
X161300345Y-50590630D01*
X144385439Y-35147589D02*
X144317712Y-35189729D01*
X142186184Y-34734821D02*
X142141562Y-34668704D01*
X210136535Y-34702039D02*
X210090290Y-34767032D01*
X141911661Y-33522183D02*
X141927344Y-33443973D01*
X142517083Y-63078231D02*
X142455072Y-63028058D01*
X144317712Y-32410270D02*
X144385439Y-32452410D01*
X127900000Y-46999500D02*
X127900000Y-46000000D01*
X95016719Y-67952675D02*
X95041930Y-68028352D01*
X94700263Y-25000461D02*
X94662390Y-24930260D01*
X186617083Y-32821768D02*
X186681499Y-32774723D01*
X92716911Y-69909529D02*
X92648163Y-69869078D01*
X160041562Y-25068704D02*
X160000263Y-25000461D01*
X203750000Y-46000000D02*
X212800000Y-46000000D01*
X158620878Y-66897527D02*
X158700345Y-66890630D01*
X143480056Y-32187671D02*
X143559816Y-32188657D01*
X187580056Y-35712328D02*
X187500345Y-35709369D01*
X96397440Y-25784780D02*
X96318703Y-25797551D01*
X189180980Y-62417018D02*
X189163368Y-62494815D01*
X92338868Y-67381172D02*
X92395619Y-67325119D01*
X95117083Y-50921768D02*
X95181499Y-50874723D01*
X210040888Y-32770341D02*
X210090290Y-32832967D01*
X123540888Y-63129658D02*
X123488449Y-63189765D01*
X157948163Y-67130921D02*
X158016911Y-67090470D01*
X159827344Y-52556026D02*
X159811661Y-52477816D01*
X93241849Y-66908346D02*
X93320878Y-66897527D01*
X120727344Y-34456026D02*
X120711661Y-34377816D01*
X189019107Y-61334404D02*
X189055232Y-61405521D01*
X93163451Y-70076939D02*
X93085878Y-70058366D01*
X120828035Y-34758271D02*
X120797282Y-34684672D01*
X185988041Y-62139883D02*
X185988041Y-62060116D01*
X210410479Y-61720258D02*
X210412452Y-61800000D01*
X93559816Y-70111342D02*
X93480056Y-70112328D01*
X160000263Y-25000461D02*
X159962390Y-24930260D01*
X92581499Y-67174723D02*
X92648163Y-67130921D01*
X159403213Y-39004628D02*
X159476426Y-39036289D01*
X122200345Y-32490630D02*
X122280056Y-32487671D01*
X189194724Y-34338445D02*
X189180980Y-34417018D01*
X207328035Y-62458271D02*
X207297282Y-62384672D01*
X94740888Y-67470341D02*
X94790290Y-67532967D01*
X95063368Y-68894815D02*
X95041930Y-68971647D01*
X121963451Y-35676939D02*
X121885878Y-35658366D01*
X148501000Y-66833333D02*
X149500000Y-66833333D01*
X207755072Y-63028058D02*
X207695619Y-62974880D01*
X160136535Y-67597960D02*
X160179509Y-67665161D01*
X92859984Y-41979993D02*
X92787576Y-41946531D01*
X159799865Y-24001072D02*
X159811661Y-23922183D01*
X144919107Y-62565595D02*
X144879509Y-62634838D01*
X157584958Y-41560036D02*
X157534022Y-41498650D01*
X120699865Y-61901072D02*
X120711661Y-61822183D01*
X210404564Y-33640711D02*
X210410479Y-33720258D01*
X160404564Y-40340711D02*
X160410479Y-40420258D01*
X91911661Y-40222183D02*
X91927344Y-40143973D01*
X159018703Y-38902448D02*
X159097440Y-38915219D01*
X123816719Y-62647324D02*
X123787796Y-62721662D01*
X145063368Y-33405184D02*
X145080980Y-33482981D01*
X92141562Y-69368704D02*
X92100263Y-69300461D01*
X122597440Y-60515219D02*
X122675449Y-60531867D01*
X158939430Y-42106412D02*
X158859816Y-42111342D01*
X95080980Y-68817018D02*
X95063368Y-68894815D01*
X209547985Y-32371532D02*
X209617712Y-32410270D01*
X186241562Y-62968704D02*
X186200263Y-62900461D01*
X162147985Y-22771532D02*
X162217712Y-22810270D01*
X94570206Y-51690358D02*
X94597282Y-51615327D01*
X159750999Y-39197847D02*
X159814232Y-39246471D01*
X160548163Y-53569078D02*
X160481499Y-53525276D01*
X189204564Y-61940711D02*
X189210479Y-62020258D01*
X160412452Y-40500000D02*
X160410479Y-40579741D01*
X142455072Y-35028058D02*
X142395619Y-34974880D01*
X203750000Y-47001500D02*
X203750000Y-46999500D01*
X144103213Y-60304628D02*
X144176426Y-60336289D01*
X123433102Y-63247205D02*
X123374982Y-63301837D01*
X94514232Y-41753528D02*
X94450999Y-41802152D01*
X161550000Y-46000000D02*
X169100000Y-46000000D01*
X92648163Y-69869078D02*
X92581499Y-69825276D01*
X189087796Y-62721662D02*
X189055232Y-62794478D01*
X189210479Y-62179741D02*
X189204564Y-62259288D01*
X187109317Y-32564020D02*
X187185878Y-32541633D01*
X207227344Y-62156026D02*
X207211661Y-62077816D01*
X207584958Y-32739963D02*
X207638868Y-32681172D01*
X97587796Y-24821662D02*
X97555232Y-24894478D01*
X162819107Y-51434404D02*
X162855232Y-51505521D01*
X161618703Y-50602448D02*
X161697440Y-50615219D01*
X94879509Y-69334838D02*
X94836535Y-69402039D01*
X144987796Y-33178337D02*
X145016719Y-33252675D01*
X160090290Y-39532967D02*
X160136535Y-39597960D01*
X122597440Y-63684780D02*
X122518703Y-63697551D01*
X162217712Y-53589729D02*
X162147985Y-53628467D01*
X143797440Y-32215219D02*
X143875449Y-32231867D01*
X207270206Y-34309641D02*
X207246875Y-34233364D01*
X162533102Y-23052794D02*
X162588449Y-23110234D01*
X93320878Y-38897527D02*
X93400345Y-38890630D01*
X185991986Y-33980448D02*
X185999865Y-33901072D01*
X159814232Y-69753528D02*
X159750999Y-69802152D01*
X157246875Y-40066635D02*
X157270206Y-39990358D01*
X207211661Y-61522183D02*
X207227344Y-61443973D01*
X96239430Y-50593587D02*
X96318703Y-50602448D01*
X122752540Y-32552353D02*
X122828523Y-32576627D01*
X162779509Y-53034838D02*
X162736535Y-53102039D01*
X91911661Y-68222183D02*
X91927344Y-68143973D01*
X209617712Y-32410270D02*
X209685439Y-32452410D01*
X186241562Y-61231295D02*
X186286184Y-61165178D01*
X92141562Y-39631295D02*
X92186184Y-39565178D01*
X97288449Y-51110234D02*
X97340888Y-51170341D01*
X147500000Y-27166666D02*
X147500000Y-20000000D01*
X187185878Y-35658366D02*
X187109317Y-35635979D01*
X161697440Y-50615219D02*
X161775449Y-50631867D01*
X207400263Y-62600461D02*
X207362390Y-62530260D01*
X94317712Y-41889729D02*
X94247985Y-41928467D01*
X96239430Y-22593587D02*
X96318703Y-22602448D01*
X144514232Y-60546471D02*
X144574982Y-60598162D01*
X207328035Y-61141728D02*
X207362390Y-61069739D01*
X123755232Y-34794478D02*
X123719107Y-34865595D01*
X186495619Y-32925119D02*
X186555072Y-32871941D01*
X121084958Y-33039963D02*
X121138868Y-32981172D01*
X159328523Y-66976627D02*
X159403213Y-67004628D01*
X145094724Y-34038445D02*
X145080980Y-34117018D01*
X143875449Y-60231867D02*
X143952540Y-60252353D01*
X91997282Y-41084672D02*
X91970206Y-41009641D01*
X123433102Y-35247205D02*
X123374982Y-35301837D01*
X93952540Y-70047646D02*
X93875449Y-70068132D01*
X159846875Y-24633364D02*
X159827344Y-24556026D01*
X209750999Y-32497847D02*
X209814232Y-32546471D01*
X142338868Y-60681172D02*
X142395619Y-60625119D01*
X208700345Y-60190630D02*
X208780056Y-60187671D01*
X160481499Y-53525276D02*
X160417083Y-53478231D01*
X96397440Y-50615219D02*
X96475449Y-50631867D01*
X92933958Y-42009833D02*
X92859984Y-41979993D01*
X123540888Y-35129658D02*
X123488449Y-35189765D01*
X207486184Y-32865178D02*
X207534022Y-32801349D01*
X142933958Y-63309833D02*
X142859984Y-63279993D01*
X162994724Y-51961554D02*
X163004564Y-52040711D01*
X97680980Y-52517018D02*
X97663368Y-52594815D01*
X121138868Y-35218827D02*
X121084958Y-35160036D01*
X120900263Y-62900461D02*
X120862390Y-62830260D01*
X123719107Y-61334404D02*
X123755232Y-61405521D01*
X94028523Y-42023372D02*
X93952540Y-42047646D01*
X163010479Y-24120258D02*
X163012452Y-24200000D01*
X210363368Y-61405184D02*
X210380980Y-61482981D01*
X120986184Y-61165178D02*
X121034022Y-61101349D01*
X160355072Y-50971941D02*
X160417083Y-50921768D01*
X144247985Y-35228467D02*
X144176426Y-35263710D01*
X123636535Y-63002039D02*
X123590290Y-63067032D01*
X187818703Y-63697551D02*
X187739430Y-63706412D01*
X142716911Y-60390470D02*
X142787576Y-60353468D01*
X159870206Y-51690358D02*
X159897282Y-51615327D01*
X94740888Y-39470341D02*
X94790290Y-39532967D01*
X161220878Y-25802472D02*
X161141849Y-25791653D01*
X123841930Y-33628352D02*
X123863368Y-33705184D01*
X123880980Y-34417018D02*
X123863368Y-34494815D01*
X93875449Y-42068132D02*
X93797440Y-42084780D01*
X188485439Y-32752410D02*
X188550999Y-32797847D01*
X186681499Y-32774723D02*
X186748163Y-32730921D01*
X122518703Y-32502448D02*
X122597440Y-32515219D01*
X160219107Y-67734404D02*
X160255232Y-67805521D01*
X159750999Y-41802152D02*
X159685439Y-41847589D01*
X207695619Y-32625119D02*
X207755072Y-32571941D01*
X143875449Y-63368132D02*
X143797440Y-63384780D01*
X148499000Y-66833333D02*
X148501000Y-66833333D01*
X97340888Y-23170341D02*
X97390290Y-23232967D01*
X157486184Y-69434821D02*
X157441562Y-69368704D01*
X186748163Y-32730921D02*
X186816911Y-32690470D01*
X95055072Y-53428058D02*
X94995619Y-53374880D01*
X96239430Y-53806412D02*
X96159816Y-53811342D01*
X141970206Y-62309641D02*
X141946875Y-62233364D01*
X207486184Y-62734821D02*
X207441562Y-62668704D01*
X123047985Y-35528467D02*
X122976426Y-35563710D01*
X189116719Y-33552675D02*
X189141930Y-33628352D01*
X210287796Y-33178337D02*
X210316719Y-33252675D01*
X189194724Y-62338445D02*
X189180980Y-62417018D01*
X123540888Y-61070341D02*
X123590290Y-61132967D01*
X209547985Y-63228467D02*
X209476426Y-63263710D01*
X92062390Y-69230260D02*
X92028035Y-69158271D01*
X120900263Y-61299538D02*
X120941562Y-61231295D01*
X160687576Y-25646531D02*
X160616911Y-25609529D01*
X143718703Y-35397551D02*
X143639430Y-35406412D01*
X97479509Y-51365161D02*
X97519107Y-51434404D01*
X106800000Y-46000000D02*
X114350000Y-46000000D01*
X187739430Y-35706412D02*
X187659816Y-35711342D01*
X143952540Y-63347646D02*
X143875449Y-63368132D01*
X186097282Y-61515327D02*
X186128035Y-61441728D01*
X97587796Y-51578337D02*
X97616719Y-51652675D01*
X208016911Y-63209529D02*
X207948163Y-63169078D01*
X160363368Y-68894815D02*
X160341930Y-68971647D01*
X141891986Y-33919551D02*
X141888041Y-33839883D01*
X161852540Y-25747646D02*
X161775449Y-25768132D01*
X163004564Y-52040711D02*
X163010479Y-52120258D01*
X141946875Y-33366635D02*
X141970206Y-33290358D01*
X97390290Y-51232967D02*
X97436535Y-51297960D01*
X162640888Y-53229658D02*
X162588449Y-53289765D01*
X159870206Y-23690358D02*
X159897282Y-23615327D01*
X95055072Y-25428058D02*
X94995619Y-25374880D01*
X159476426Y-69963710D02*
X159403213Y-69995371D01*
X95841849Y-50608346D02*
X95920878Y-50597527D01*
X189116719Y-34647324D02*
X189087796Y-34721662D01*
X145110479Y-33720258D02*
X145112452Y-33800000D01*
X207191986Y-61919551D02*
X207188041Y-61839883D01*
X208700345Y-32190630D02*
X208780056Y-32187671D01*
X157191986Y-40380448D02*
X157199865Y-40301072D01*
X159811661Y-24477816D02*
X159799865Y-24398927D01*
X142859984Y-60320006D02*
X142933958Y-60290166D01*
X157486184Y-67565178D02*
X157534022Y-67501349D01*
X160687576Y-50753468D02*
X160759984Y-50720006D01*
X189204564Y-62259288D02*
X189194724Y-62338445D01*
X163004564Y-24359288D02*
X162994724Y-24438445D01*
X160295619Y-51025119D02*
X160355072Y-50971941D01*
X122120878Y-35702472D02*
X122041849Y-35691653D01*
X94662390Y-51469739D02*
X94700263Y-51399538D01*
X93875449Y-38931867D02*
X93952540Y-38952353D01*
X142338868Y-62918827D02*
X142284958Y-62860036D01*
X123904564Y-34259288D02*
X123894724Y-34338445D01*
X97704564Y-24359288D02*
X97694724Y-24438445D01*
X200750000Y-46000000D02*
X200750000Y-46999500D01*
X92338868Y-41618827D02*
X92284958Y-41560036D01*
X123047985Y-32671532D02*
X123117712Y-32710270D01*
X157297282Y-67915327D02*
X157328035Y-67841728D01*
X120688041Y-62139883D02*
X120688041Y-62060116D01*
X188276426Y-35563710D02*
X188203213Y-35595371D01*
X157948163Y-39130921D02*
X158016911Y-39090470D01*
X159788041Y-52160116D02*
X159791986Y-52080448D01*
X159617712Y-39110270D02*
X159685439Y-39152410D01*
X122976426Y-60636289D02*
X123047985Y-60671532D01*
X161300345Y-25809369D02*
X161220878Y-25802472D01*
X106800000Y-48000000D02*
X106800000Y-47001500D01*
X120986184Y-33165178D02*
X121034022Y-33101349D01*
X208541849Y-63391653D02*
X208463451Y-63376939D01*
X162980980Y-51882981D02*
X162994724Y-51961554D01*
X160548163Y-50830921D02*
X160616911Y-50790470D01*
X121809317Y-32564020D02*
X121885878Y-32541633D01*
X122675449Y-60531867D02*
X122752540Y-60552353D01*
X120699865Y-34298927D02*
X120691986Y-34219551D01*
X120797282Y-61515327D02*
X120828035Y-61441728D01*
X160759984Y-53679993D02*
X160687576Y-53646531D01*
X141888041Y-61839883D02*
X141888041Y-61760116D01*
X97710479Y-24279741D02*
X97704564Y-24359288D01*
X94836535Y-41402039D02*
X94790290Y-41467032D01*
X207362390Y-33069739D02*
X207400263Y-32999538D01*
X94919107Y-41265595D02*
X94879509Y-41334838D01*
X208233958Y-35309833D02*
X208159984Y-35279993D01*
X157199865Y-68301072D02*
X157211661Y-68222183D01*
X159988449Y-41589765D02*
X159933102Y-41647205D01*
X159750999Y-67197847D02*
X159814232Y-67246471D01*
X145041930Y-61328352D02*
X145063368Y-61405184D01*
X162474982Y-22998162D02*
X162533102Y-23052794D01*
X147500000Y-74000000D02*
X147500000Y-66833333D01*
X92100263Y-41300461D02*
X92062390Y-41230260D01*
X96250000Y-46000000D02*
X103800000Y-46000000D01*
X144955232Y-33105521D02*
X144987796Y-33178337D01*
X142787576Y-60353468D02*
X142859984Y-60320006D01*
X187109317Y-63635979D02*
X187033958Y-63609833D01*
X157755072Y-67271941D02*
X157817083Y-67221768D01*
X212800000Y-46000000D02*
X212800000Y-20000000D01*
X208385878Y-60241633D02*
X208463451Y-60223060D01*
X123590290Y-35067032D02*
X123540888Y-35129658D01*
X121084958Y-61039963D02*
X121138868Y-60981172D01*
X159988449Y-67410234D02*
X160040888Y-67470341D01*
X186748163Y-60730921D02*
X186816911Y-60690470D01*
X91888041Y-40539883D02*
X91888041Y-40460116D01*
X209988449Y-62889765D02*
X209933102Y-62947205D01*
X92859984Y-39020006D02*
X92933958Y-38990166D01*
X147500000Y-48000000D02*
X138450000Y-48000000D01*
X159018703Y-66902448D02*
X159097440Y-66915219D01*
X188347985Y-32671532D02*
X188417712Y-32710270D01*
X122675449Y-35668132D02*
X122597440Y-35684780D01*
X186027344Y-34456026D02*
X186011661Y-34377816D01*
X159403213Y-67004628D02*
X159476426Y-67036289D01*
X93875449Y-66931867D02*
X93952540Y-66952353D01*
X95316911Y-50790470D02*
X95387576Y-50753468D01*
X143085878Y-63358366D02*
X143009317Y-63335979D01*
X121733958Y-60590166D02*
X121809317Y-60564020D01*
X92100263Y-69300461D02*
X92062390Y-69230260D01*
X208780056Y-63412328D02*
X208700345Y-63409369D01*
X158309317Y-42035979D02*
X158233958Y-42009833D01*
X186681499Y-63425276D02*
X186617083Y-63378231D01*
X138450000Y-48000000D02*
X138450000Y-47001500D01*
X188979509Y-61265161D02*
X189019107Y-61334404D01*
X84200000Y-20000000D02*
X84200000Y-46000000D01*
X144633102Y-60652794D02*
X144688449Y-60710234D01*
X186162390Y-34830260D02*
X186128035Y-34758271D01*
X157246875Y-68066635D02*
X157270206Y-67990358D01*
X144790290Y-34767032D02*
X144740888Y-34829658D01*
X157191986Y-68619551D02*
X157188041Y-68539883D01*
X142933958Y-60290166D02*
X143009317Y-60264020D01*
X97390290Y-23232967D02*
X97436535Y-23297960D01*
X92716911Y-41909529D02*
X92648163Y-41869078D01*
X187739430Y-60493587D02*
X187818703Y-60502448D01*
X97663368Y-51805184D02*
X97680980Y-51882981D01*
X95041930Y-40971647D02*
X95016719Y-41047324D01*
X145041930Y-62271647D02*
X145016719Y-62347324D01*
X97340888Y-25229658D02*
X97288449Y-25289765D01*
X162217712Y-50810270D02*
X162285439Y-50852410D01*
X94514232Y-39246471D02*
X94574982Y-39298162D01*
X93559816Y-38888657D02*
X93639430Y-38893587D01*
X157817083Y-41778231D02*
X157755072Y-41728058D01*
X94995619Y-23025119D02*
X95055072Y-22971941D01*
X91891986Y-40619551D02*
X91888041Y-40539883D01*
X207297282Y-62384672D02*
X207270206Y-62309641D01*
X160404564Y-68659288D02*
X160394724Y-68738445D01*
X143952540Y-60252353D02*
X144028523Y-60276627D01*
X94597282Y-52784672D02*
X94570206Y-52709641D01*
X210341930Y-62271647D02*
X210316719Y-62347324D01*
X94938868Y-51081172D02*
X94995619Y-51025119D01*
X141891986Y-61680448D02*
X141899865Y-61601072D01*
X158780056Y-70112328D02*
X158700345Y-70109369D01*
X207199865Y-61601072D02*
X207211661Y-61522183D01*
X159799865Y-24398927D02*
X159791986Y-24319551D01*
X209328523Y-32276627D02*
X209403213Y-32304628D01*
X144317712Y-60410270D02*
X144385439Y-60452410D01*
X92284958Y-69560036D02*
X92234022Y-69498650D01*
X207199865Y-33601072D02*
X207211661Y-33522183D01*
X121963451Y-60523060D02*
X122041849Y-60508346D01*
X123863368Y-61705184D02*
X123880980Y-61782981D01*
X160040888Y-39470341D02*
X160090290Y-39532967D01*
X160219107Y-39734404D02*
X160255232Y-39805521D01*
X143559816Y-60188657D02*
X143639430Y-60193587D01*
X157188041Y-68539883D02*
X157188041Y-68460116D01*
X121659984Y-32620006D02*
X121733958Y-32590166D01*
X120986184Y-35034821D02*
X120941562Y-34968704D01*
X208309317Y-63335979D02*
X208233958Y-63309833D01*
X120688041Y-62060116D02*
X120691986Y-61980448D01*
X160417083Y-22921768D02*
X160481499Y-22874723D01*
X95841849Y-25791653D02*
X95763451Y-25776939D01*
X122976426Y-32636289D02*
X123047985Y-32671532D01*
X158016911Y-39090470D02*
X158087576Y-39053468D01*
X208620878Y-32197527D02*
X208700345Y-32190630D01*
X158700345Y-42109369D02*
X158620878Y-42102472D01*
X157441562Y-69368704D02*
X157400263Y-69300461D01*
X200750000Y-46999500D02*
X200750000Y-47001500D01*
X160316719Y-67952675D02*
X160341930Y-68028352D01*
X145094724Y-61561554D02*
X145104564Y-61640711D01*
X159988449Y-39410234D02*
X160040888Y-39470341D01*
X159403213Y-41995371D02*
X159328523Y-42023372D01*
X157328035Y-67841728D02*
X157362390Y-67769739D01*
X162588449Y-23110234D02*
X162640888Y-23170341D01*
X142028035Y-34458271D02*
X141997282Y-34384672D01*
X159814232Y-67246471D02*
X159874982Y-67298162D01*
X208463451Y-60223060D02*
X208541849Y-60208346D01*
X143241849Y-63391653D02*
X143163451Y-63376939D01*
X93085878Y-42058366D02*
X93009317Y-42035979D01*
X97704564Y-24040711D02*
X97710479Y-24120258D01*
X210136535Y-62702039D02*
X210090290Y-62767032D01*
X186241562Y-33231295D02*
X186286184Y-33165178D01*
X200750000Y-48000000D02*
X193200000Y-48000000D01*
X210179509Y-32965161D02*
X210219107Y-33034404D01*
X94919107Y-67734404D02*
X94955232Y-67805521D01*
X143797440Y-60215219D02*
X143875449Y-60231867D01*
X96703213Y-25695371D02*
X96628523Y-25723372D01*
X162855232Y-51505521D02*
X162887796Y-51578337D01*
X188840888Y-33070341D02*
X188890290Y-33132967D01*
X94028523Y-66976627D02*
X94103213Y-67004628D01*
X161928523Y-53723372D02*
X161852540Y-53747646D01*
X187033958Y-35609833D02*
X186959984Y-35579993D01*
X94700263Y-23399538D02*
X94741562Y-23331295D01*
X162533102Y-53347205D02*
X162474982Y-53401837D01*
X95387576Y-22753468D02*
X95459984Y-22720006D01*
X95094724Y-40738445D02*
X95080980Y-40817018D01*
X95763451Y-22623060D02*
X95841849Y-22608346D01*
X123894724Y-62338445D02*
X123880980Y-62417018D01*
X158939430Y-38893587D02*
X159018703Y-38902448D01*
X94499865Y-52001072D02*
X94511661Y-51922183D01*
X121659984Y-60620006D02*
X121733958Y-60590166D01*
X96318703Y-50602448D02*
X96397440Y-50615219D01*
X92455072Y-67271941D02*
X92517083Y-67221768D01*
X144103213Y-32304628D02*
X144176426Y-32336289D01*
X160380980Y-68817018D02*
X160363368Y-68894815D01*
X207584958Y-60739963D02*
X207638868Y-60681172D01*
X209988449Y-60710234D02*
X210040888Y-60770341D01*
X143639430Y-32193587D02*
X143718703Y-32202448D01*
X94919107Y-39734404D02*
X94955232Y-39805521D01*
X207270206Y-62309641D02*
X207246875Y-62233364D01*
X158087576Y-67053468D02*
X158159984Y-67020006D01*
X144450999Y-35102152D02*
X144385439Y-35147589D01*
X95248163Y-25569078D02*
X95181499Y-25525276D01*
X209018703Y-63397551D02*
X208939430Y-63406412D01*
X91888041Y-68460116D02*
X91891986Y-68380448D01*
X92933958Y-38990166D02*
X93009317Y-38964020D01*
X120986184Y-63034821D02*
X120941562Y-62968704D01*
X189019107Y-62865595D02*
X188979509Y-62934838D01*
X210255232Y-61105521D02*
X210287796Y-61178337D01*
X94741562Y-53068704D02*
X94700263Y-53000461D01*
X210316719Y-33252675D02*
X210341930Y-33328352D01*
X210341930Y-61328352D02*
X210363368Y-61405184D01*
X188203213Y-63595371D02*
X188128523Y-63623372D01*
X189194724Y-61861554D02*
X189204564Y-61940711D01*
X208159984Y-63279993D02*
X208087576Y-63246531D01*
X123755232Y-62794478D02*
X123719107Y-62865595D01*
X123636535Y-35002039D02*
X123590290Y-35067032D01*
X93639430Y-70106412D02*
X93559816Y-70111342D01*
X189210479Y-34020258D02*
X189212452Y-34100000D01*
X94488041Y-24160116D02*
X94491986Y-24080448D01*
X145094724Y-62038445D02*
X145080980Y-62117018D01*
X188936535Y-63002039D02*
X188890290Y-63067032D01*
X95016719Y-69047324D02*
X94987796Y-69121662D01*
X97050999Y-50897847D02*
X97114232Y-50946471D01*
X97233102Y-53347205D02*
X97174982Y-53401837D01*
X145041930Y-33328352D02*
X145063368Y-33405184D01*
X188788449Y-61010234D02*
X188840888Y-61070341D01*
X162916719Y-24747324D02*
X162887796Y-24821662D01*
X94688449Y-67410234D02*
X94740888Y-67470341D01*
X210179509Y-34634838D02*
X210136535Y-34702039D01*
X159846875Y-23766635D02*
X159870206Y-23690358D01*
X145080980Y-62117018D02*
X145063368Y-62194815D01*
X161539430Y-25806412D02*
X161459816Y-25811342D01*
X123679509Y-34934838D02*
X123636535Y-35002039D01*
X91911661Y-40777816D02*
X91899865Y-40698927D01*
X160000263Y-51399538D02*
X160041562Y-51331295D01*
X142062390Y-33069739D02*
X142100263Y-32999538D01*
X157881499Y-39174723D02*
X157948163Y-39130921D01*
X92141562Y-67631295D02*
X92186184Y-67565178D01*
X95181499Y-25525276D02*
X95117083Y-25478231D01*
X97663368Y-23805184D02*
X97680980Y-23882981D01*
X120691986Y-62219551D02*
X120688041Y-62139883D01*
X210380980Y-62117018D02*
X210363368Y-62194815D01*
X210179509Y-62634838D02*
X210136535Y-62702039D01*
X207534022Y-62798650D02*
X207486184Y-62734821D01*
X95094724Y-68261554D02*
X95104564Y-68340711D01*
X207227344Y-34156026D02*
X207211661Y-34077816D01*
X188203213Y-60604628D02*
X188276426Y-60636289D01*
X141888041Y-33839883D02*
X141888041Y-33760116D01*
X188417712Y-32710270D02*
X188485439Y-32752410D01*
X144919107Y-61034404D02*
X144955232Y-61105521D01*
X144955232Y-62494478D02*
X144919107Y-62565595D01*
X203750000Y-48000000D02*
X203750000Y-47001500D01*
X93639430Y-38893587D02*
X93718703Y-38902448D01*
X149500000Y-48000000D02*
X149500000Y-55166666D01*
X120727344Y-61743973D02*
X120746875Y-61666635D01*
X95459984Y-25679993D02*
X95387576Y-25646531D01*
X157486184Y-39565178D02*
X157534022Y-39501349D01*
X209476426Y-60336289D02*
X209547985Y-60371532D01*
X141899865Y-33601072D02*
X141911661Y-33522183D01*
X94740888Y-41529658D02*
X94688449Y-41589765D01*
X92455072Y-39271941D02*
X92517083Y-39221768D01*
X207328035Y-34458271D02*
X207297282Y-34384672D01*
X97340888Y-51170341D02*
X97390290Y-51232967D01*
X94741562Y-23331295D02*
X94786184Y-23265178D01*
X121255072Y-32871941D02*
X121317083Y-32821768D01*
X208087576Y-60353468D02*
X208159984Y-60320006D01*
X210380980Y-33482981D02*
X210394724Y-33561554D01*
X208159984Y-60320006D02*
X208233958Y-60290166D01*
X123314232Y-60846471D02*
X123374982Y-60898162D01*
X187185878Y-63658366D02*
X187109317Y-63635979D01*
X162980980Y-52517018D02*
X162963368Y-52594815D01*
X144317712Y-35189729D02*
X144247985Y-35228467D01*
X186162390Y-33369739D02*
X186200263Y-33299538D01*
X97436535Y-53102039D02*
X97390290Y-53167032D01*
X162887796Y-51578337D02*
X162916719Y-51652675D01*
X141899865Y-61998927D02*
X141891986Y-61919551D01*
X210255232Y-33105521D02*
X210287796Y-33178337D01*
X121809317Y-35635979D02*
X121733958Y-35609833D01*
X212800000Y-48000000D02*
X203750000Y-48000000D01*
X96250000Y-48000000D02*
X96250000Y-47001500D01*
X190200000Y-48000000D02*
X182650000Y-48000000D01*
X208233958Y-32290166D02*
X208309317Y-32264020D01*
X149500000Y-20000000D02*
X149500000Y-27166666D01*
X94786184Y-25134821D02*
X94741562Y-25068704D01*
X97555232Y-24894478D02*
X97519107Y-24965595D01*
X95080980Y-40182981D02*
X95094724Y-40261554D01*
X93400345Y-38890630D02*
X93480056Y-38887671D01*
X160041562Y-53068704D02*
X160000263Y-53000461D01*
X93480056Y-42112328D02*
X93400345Y-42109369D01*
X94317712Y-69889729D02*
X94247985Y-69928467D01*
X187341849Y-60508346D02*
X187420878Y-60497527D01*
X94786184Y-53134821D02*
X94741562Y-53068704D01*
X93250000Y-46000000D02*
X93250000Y-46999500D01*
X186959984Y-32620006D02*
X187033958Y-32590166D01*
X95316911Y-53609529D02*
X95248163Y-53569078D01*
X96847985Y-25628467D02*
X96776426Y-25663710D01*
X123787796Y-62721662D02*
X123755232Y-62794478D01*
X92517083Y-69778231D02*
X92455072Y-69728058D01*
X122280056Y-60487671D02*
X122359816Y-60488657D01*
X157638868Y-69618827D02*
X157584958Y-69560036D01*
X95181499Y-22874723D02*
X95248163Y-22830921D01*
X94786184Y-23265178D02*
X94834022Y-23201349D01*
X120770206Y-34609641D02*
X120746875Y-34533364D01*
X93400345Y-66890630D02*
X93480056Y-66887671D01*
X186046875Y-62533364D02*
X186027344Y-62456026D01*
X207199865Y-61998927D02*
X207191986Y-61919551D01*
X135450000Y-46999500D02*
X135450000Y-47001500D01*
X143718703Y-32202448D02*
X143797440Y-32215219D01*
X94741562Y-51331295D02*
X94786184Y-51265178D01*
X93085878Y-70058366D02*
X93009317Y-70035979D01*
X161775449Y-22631867D02*
X161852540Y-22652353D01*
X94834022Y-51201349D02*
X94884958Y-51139963D01*
X186555072Y-32871941D02*
X186617083Y-32821768D01*
X186555072Y-60871941D02*
X186617083Y-60821768D01*
X95920878Y-25802472D02*
X95841849Y-25791653D01*
X188614232Y-32846471D02*
X188674982Y-32898162D01*
X94028523Y-70023372D02*
X93952540Y-70047646D01*
X157534022Y-67501349D02*
X157584958Y-67439963D01*
X188936535Y-61197960D02*
X188979509Y-61265161D01*
X96159816Y-50588657D02*
X96239430Y-50593587D01*
X209750999Y-63102152D02*
X209685439Y-63147589D01*
X186286184Y-35034821D02*
X186241562Y-34968704D01*
X95609317Y-50664020D02*
X95685878Y-50641633D01*
X144879509Y-62634838D02*
X144836535Y-62702039D01*
X142284958Y-62860036D02*
X142234022Y-62798650D01*
X97519107Y-23434404D02*
X97555232Y-23505521D01*
X92787576Y-39053468D02*
X92859984Y-39020006D01*
X160219107Y-41265595D02*
X160179509Y-41334838D01*
X185988041Y-34060116D02*
X185991986Y-33980448D01*
X94628035Y-52858271D02*
X94597282Y-52784672D01*
X159928035Y-52858271D02*
X159897282Y-52784672D01*
X142787576Y-35246531D02*
X142716911Y-35209529D01*
X161775449Y-53768132D02*
X161697440Y-53784780D01*
X94247985Y-69928467D02*
X94176426Y-69963710D01*
X92787576Y-67053468D02*
X92859984Y-67020006D01*
X149500000Y-63833333D02*
X148501000Y-63833333D01*
X209476426Y-32336289D02*
X209547985Y-32371532D01*
X159547985Y-69928467D02*
X159476426Y-69963710D01*
X161618703Y-53797551D02*
X161539430Y-53806412D01*
X94546875Y-52633364D02*
X94527344Y-52556026D01*
X160355072Y-53428058D02*
X160295619Y-53374880D01*
X159933102Y-41647205D02*
X159874982Y-41701837D01*
X158233958Y-70009833D02*
X158159984Y-69979993D01*
X187659816Y-35711342D02*
X187580056Y-35712328D01*
X157486184Y-41434821D02*
X157441562Y-41368704D01*
X143559816Y-35411342D02*
X143480056Y-35412328D01*
X91899865Y-68698927D02*
X91891986Y-68619551D01*
X209874982Y-35001837D02*
X209814232Y-35053528D01*
X188890290Y-35067032D02*
X188840888Y-35129658D01*
X159791986Y-52319551D02*
X159788041Y-52239883D01*
X97663368Y-24594815D02*
X97641930Y-24671647D01*
X163004564Y-24040711D02*
X163010479Y-24120258D01*
X188485439Y-60752410D02*
X188550999Y-60797847D01*
X193200000Y-46000000D02*
X200750000Y-46000000D01*
X94633102Y-41647205D02*
X94574982Y-41701837D01*
X95016719Y-41047324D02*
X94987796Y-41121662D01*
X93085878Y-66941633D02*
X93163451Y-66923060D01*
X143559816Y-63411342D02*
X143480056Y-63412328D01*
X161928523Y-25723372D02*
X161852540Y-25747646D01*
X186887576Y-32653468D02*
X186959984Y-32620006D01*
X122439430Y-63706412D02*
X122359816Y-63711342D01*
X94247985Y-67071532D02*
X94317712Y-67110270D01*
X207881499Y-60474723D02*
X207948163Y-60430921D01*
X158620878Y-70102472D02*
X158541849Y-70091653D01*
X106800000Y-46999500D02*
X106800000Y-46000000D01*
X158233958Y-42009833D02*
X158159984Y-41979993D01*
X162941930Y-51728352D02*
X162963368Y-51805184D01*
X210219107Y-62565595D02*
X210179509Y-62634838D01*
X157246875Y-40933364D02*
X157227344Y-40856026D01*
X97050999Y-25502152D02*
X96985439Y-25547589D01*
X193200000Y-47001500D02*
X193200000Y-46999500D01*
X95459984Y-53679993D02*
X95387576Y-53646531D01*
X159928035Y-51541728D02*
X159962390Y-51469739D01*
X158385878Y-42058366D02*
X158309317Y-42035979D01*
X96703213Y-50704628D02*
X96776426Y-50736289D01*
X95920878Y-50597527D02*
X96000345Y-50590630D01*
X92234022Y-41498650D02*
X92186184Y-41434821D01*
X160616911Y-53609529D02*
X160548163Y-53569078D01*
X159962390Y-23469739D02*
X160000263Y-23399538D01*
X97555232Y-52894478D02*
X97519107Y-52965595D01*
X141970206Y-34309641D02*
X141946875Y-34233364D01*
X161550000Y-48000000D02*
X161550000Y-47001500D01*
X141888041Y-33760116D02*
X141891986Y-33680448D01*
X96985439Y-50852410D02*
X97050999Y-50897847D01*
X189180980Y-34417018D02*
X189163368Y-34494815D01*
X122828523Y-32576627D02*
X122903213Y-32604628D01*
X208087576Y-35246531D02*
X208016911Y-35209529D01*
X210341930Y-33328352D02*
X210363368Y-33405184D01*
X95763451Y-25776939D02*
X95685878Y-25758366D01*
X92395619Y-69674880D02*
X92338868Y-69618827D01*
X159175449Y-66931867D02*
X159252540Y-66952353D01*
X92028035Y-67841728D02*
X92062390Y-67769739D01*
X94385439Y-41847589D02*
X94317712Y-41889729D01*
X94836535Y-39597960D02*
X94879509Y-39665161D01*
X160041562Y-23331295D02*
X160086184Y-23265178D01*
X189212452Y-34100000D02*
X189210479Y-34179741D01*
X157638868Y-67381172D02*
X157695619Y-67325119D01*
X207270206Y-61290358D02*
X207297282Y-61215327D01*
X162855232Y-52894478D02*
X162819107Y-52965595D01*
X95841849Y-22608346D02*
X95920878Y-22597527D01*
X97340888Y-53229658D02*
X97288449Y-53289765D01*
X210255232Y-34494478D02*
X210219107Y-34565595D01*
X97616719Y-23652675D02*
X97641930Y-23728352D01*
X188052540Y-32552353D02*
X188128523Y-32576627D01*
X95459984Y-50720006D02*
X95533958Y-50690166D01*
X160687576Y-22753468D02*
X160759984Y-22720006D01*
X159874982Y-39298162D02*
X159933102Y-39352794D01*
X95316911Y-25609529D02*
X95248163Y-25569078D01*
X93480056Y-38887671D02*
X93559816Y-38888657D01*
X159476426Y-39036289D02*
X159547985Y-39071532D01*
X160481499Y-25525276D02*
X160417083Y-25478231D01*
X207948163Y-60430921D02*
X208016911Y-60390470D01*
X186748163Y-63469078D02*
X186681499Y-63425276D01*
X157188041Y-40460116D02*
X157191986Y-40380448D01*
X187033958Y-63609833D02*
X186959984Y-63579993D01*
X142284958Y-32739963D02*
X142338868Y-32681172D01*
X160394724Y-40261554D02*
X160404564Y-40340711D01*
X143797440Y-63384780D02*
X143718703Y-63397551D01*
X160341930Y-40971647D02*
X160316719Y-41047324D01*
X120828035Y-33441728D02*
X120862390Y-33369739D01*
X210090290Y-60832967D02*
X210136535Y-60897960D01*
X97641930Y-23728352D02*
X97663368Y-23805184D01*
X96475449Y-25768132D02*
X96397440Y-25784780D01*
X97680980Y-23882981D02*
X97694724Y-23961554D01*
X97114232Y-25453528D02*
X97050999Y-25502152D01*
X157695619Y-41674880D02*
X157638868Y-41618827D01*
X159962390Y-24930260D02*
X159928035Y-24858271D01*
X159617712Y-69889729D02*
X159547985Y-69928467D01*
X142455072Y-60571941D02*
X142517083Y-60521768D01*
X162414232Y-22946471D02*
X162474982Y-22998162D01*
X179650000Y-46000000D02*
X179650000Y-46999500D01*
X162350999Y-25502152D02*
X162285439Y-25547589D01*
X159328523Y-38976627D02*
X159403213Y-39004628D01*
X157191986Y-68380448D02*
X157199865Y-68301072D01*
X209403213Y-32304628D02*
X209476426Y-32336289D01*
X208385878Y-63358366D02*
X208309317Y-63335979D01*
X141946875Y-61366635D02*
X141970206Y-61290358D01*
X159788041Y-24239883D02*
X159788041Y-24160116D01*
X207246875Y-61366635D02*
X207270206Y-61290358D01*
X162994724Y-23961554D02*
X163004564Y-24040711D01*
X123787796Y-61478337D02*
X123816719Y-61552675D01*
X161063451Y-22623060D02*
X161141849Y-22608346D01*
X159791986Y-52080448D02*
X159799865Y-52001072D01*
X123374982Y-32898162D02*
X123433102Y-32952794D01*
X159252540Y-66952353D02*
X159328523Y-66976627D01*
X189087796Y-33478337D02*
X189116719Y-33552675D01*
X96917712Y-50810270D02*
X96985439Y-50852410D01*
X210136535Y-60897960D02*
X210179509Y-60965161D01*
X186046875Y-34533364D02*
X186027344Y-34456026D01*
X209175449Y-63368132D02*
X209097440Y-63384780D01*
X162819107Y-23434404D02*
X162855232Y-23505521D01*
X158859816Y-38888657D02*
X158939430Y-38893587D01*
X96776426Y-22736289D02*
X96847985Y-22771532D01*
X188128523Y-35623372D02*
X188052540Y-35647646D01*
X94546875Y-23766635D02*
X94570206Y-23690358D01*
X159874982Y-69701837D02*
X159814232Y-69753528D01*
X210040888Y-34829658D02*
X209988449Y-34889765D01*
X147500000Y-66833333D02*
X148499000Y-66833333D01*
X189019107Y-34865595D02*
X188979509Y-34934838D01*
X189055232Y-34794478D02*
X189019107Y-34865595D01*
X189210479Y-34179741D02*
X189204564Y-34259288D01*
X122359816Y-32488657D02*
X122439430Y-32493587D01*
X207638868Y-60681172D02*
X207695619Y-60625119D01*
X147500000Y-46000000D02*
X147500000Y-38833333D01*
X97390290Y-25167032D02*
X97340888Y-25229658D01*
X97114232Y-22946471D02*
X97174982Y-22998162D01*
X208463451Y-63376939D02*
X208385878Y-63358366D01*
X210410479Y-33720258D02*
X210412452Y-33800000D01*
X122280056Y-63712328D02*
X122200345Y-63709369D01*
X208620878Y-35402472D02*
X208541849Y-35391653D01*
X95181499Y-53525276D02*
X95117083Y-53478231D01*
X123185439Y-32752410D02*
X123250999Y-32797847D01*
X123488449Y-61010234D02*
X123540888Y-61070341D01*
X120688041Y-34060116D02*
X120691986Y-33980448D01*
X161618703Y-25797551D02*
X161539430Y-25806412D01*
X144836535Y-34702039D02*
X144790290Y-34767032D01*
X92581499Y-69825276D02*
X92517083Y-69778231D01*
X121195619Y-32925119D02*
X121255072Y-32871941D01*
X207188041Y-61839883D02*
X207188041Y-61760116D01*
X93797440Y-66915219D02*
X93875449Y-66931867D01*
X159897282Y-23615327D02*
X159928035Y-23541728D01*
X207191986Y-33680448D02*
X207199865Y-33601072D01*
X210040888Y-60770341D02*
X210090290Y-60832967D01*
X158233958Y-38990166D02*
X158309317Y-38964020D01*
X144028523Y-63323372D02*
X143952540Y-63347646D01*
X160041562Y-51331295D02*
X160086184Y-51265178D01*
X121138868Y-60981172D02*
X121195619Y-60925119D01*
X144955232Y-34494478D02*
X144919107Y-34565595D01*
X172100000Y-46999500D02*
X172100000Y-46000000D01*
X97587796Y-23578337D02*
X97616719Y-23652675D01*
X123787796Y-33478337D02*
X123816719Y-33552675D01*
X162285439Y-22852410D02*
X162350999Y-22897847D01*
X189163368Y-33705184D02*
X189180980Y-33782981D01*
X123816719Y-34647324D02*
X123787796Y-34721662D01*
X158939430Y-70106412D02*
X158859816Y-70111342D01*
X121381499Y-63425276D02*
X121317083Y-63378231D01*
X208541849Y-60208346D02*
X208620878Y-60197527D01*
X162588449Y-51110234D02*
X162640888Y-51170341D01*
X142517083Y-60521768D02*
X142581499Y-60474723D01*
X160341930Y-68028352D02*
X160363368Y-68105184D01*
X162076426Y-22736289D02*
X162147985Y-22771532D01*
X162916719Y-23652675D02*
X162941930Y-23728352D01*
X121516911Y-63509529D02*
X121448163Y-63469078D01*
X144028523Y-32276627D02*
X144103213Y-32304628D01*
X157948163Y-69869078D02*
X157881499Y-69825276D01*
X121448163Y-63469078D02*
X121381499Y-63425276D01*
X157328035Y-41158271D02*
X157297282Y-41084672D01*
X186959984Y-60620006D02*
X187033958Y-60590166D01*
X141997282Y-61215327D02*
X142028035Y-61141728D01*
X163010479Y-52279741D02*
X163004564Y-52359288D01*
X120711661Y-61822183D02*
X120727344Y-61743973D01*
X149500000Y-46000000D02*
X158550000Y-46000000D01*
X210404564Y-61959288D02*
X210394724Y-62038445D01*
X144574982Y-63001837D02*
X144514232Y-63053528D01*
X94491986Y-24080448D02*
X94499865Y-24001072D01*
X145016719Y-62347324D02*
X144987796Y-62421662D01*
X149500000Y-66833333D02*
X149500000Y-74000000D01*
X96628523Y-22676627D02*
X96703213Y-22704628D01*
X207695619Y-60625119D02*
X207755072Y-60571941D01*
X124900000Y-46999500D02*
X124900000Y-47001500D01*
X207191986Y-61680448D02*
X207199865Y-61601072D01*
X188417712Y-63489729D02*
X188347985Y-63528467D01*
X142859984Y-63279993D02*
X142787576Y-63246531D01*
X141891986Y-61919551D02*
X141888041Y-61839883D01*
X210380980Y-34117018D02*
X210363368Y-34194815D01*
X95080980Y-68182981D02*
X95094724Y-68261554D01*
X95080980Y-40817018D02*
X95063368Y-40894815D01*
X120862390Y-33369739D02*
X120900263Y-33299538D01*
X120699865Y-33901072D02*
X120711661Y-33822183D01*
X161141849Y-53791653D02*
X161063451Y-53776939D01*
X142062390Y-34530260D02*
X142028035Y-34458271D01*
X145110479Y-61879741D02*
X145104564Y-61959288D01*
X144740888Y-60770341D02*
X144790290Y-60832967D01*
X93952540Y-38952353D02*
X94028523Y-38976627D01*
X157584958Y-39439963D02*
X157638868Y-39381172D01*
X123679509Y-61265161D02*
X123719107Y-61334404D01*
X94790290Y-67532967D02*
X94836535Y-67597960D01*
X190200000Y-46999500D02*
X190200000Y-47001500D01*
X207486184Y-60865178D02*
X207534022Y-60801349D01*
X187580056Y-32487671D02*
X187659816Y-32488657D01*
X187420878Y-60497527D02*
X187500345Y-60490630D01*
X162887796Y-23578337D02*
X162916719Y-23652675D01*
X161063451Y-53776939D02*
X160985878Y-53758366D01*
X94574982Y-41701837D02*
X94514232Y-41753528D01*
X160238868Y-25318827D02*
X160184958Y-25260036D01*
X188276426Y-60636289D02*
X188347985Y-60671532D01*
X121317083Y-63378231D02*
X121255072Y-63328058D01*
X185991986Y-61980448D02*
X185999865Y-61901072D01*
X188550999Y-60797847D02*
X188614232Y-60846471D01*
X159874982Y-67298162D02*
X159933102Y-67352794D01*
X96628523Y-50676627D02*
X96703213Y-50704628D01*
X209252540Y-32252353D02*
X209328523Y-32276627D01*
X158159984Y-39020006D02*
X158233958Y-38990166D01*
X96628523Y-53723372D02*
X96552540Y-53747646D01*
X144633102Y-32652794D02*
X144688449Y-32710234D01*
X92648163Y-67130921D02*
X92716911Y-67090470D01*
X123894724Y-33861554D02*
X123904564Y-33940711D01*
X96552540Y-50652353D02*
X96628523Y-50676627D01*
X160412452Y-68500000D02*
X160410479Y-68579741D01*
X158463451Y-42076939D02*
X158385878Y-42058366D01*
X207948163Y-32430921D02*
X208016911Y-32390470D01*
X207584958Y-34860036D02*
X207534022Y-34798650D01*
X186128035Y-61441728D02*
X186162390Y-61369739D01*
X94834022Y-23201349D02*
X94884958Y-23139963D01*
X187109317Y-35635979D02*
X187033958Y-35609833D01*
X94786184Y-51265178D02*
X94834022Y-51201349D01*
X207188041Y-33760116D02*
X207191986Y-33680448D01*
X97114232Y-50946471D02*
X97174982Y-50998162D01*
X91927344Y-68856026D02*
X91911661Y-68777816D01*
X157328035Y-39841728D02*
X157362390Y-39769739D01*
X160341930Y-40028352D02*
X160363368Y-40105184D01*
X94688449Y-39410234D02*
X94740888Y-39470341D01*
X186097282Y-34684672D02*
X186070206Y-34609641D01*
X162779509Y-51365161D02*
X162819107Y-51434404D01*
X159685439Y-41847589D02*
X159617712Y-41889729D01*
X138450000Y-46999500D02*
X138450000Y-46000000D01*
X97174982Y-22998162D02*
X97233102Y-23052794D01*
X144879509Y-32965161D02*
X144919107Y-33034404D01*
X209617712Y-63189729D02*
X209547985Y-63228467D01*
X141888041Y-61760116D02*
X141891986Y-61680448D01*
X207441562Y-60931295D02*
X207486184Y-60865178D01*
X190200000Y-47001500D02*
X190200000Y-48000000D01*
X160909317Y-53735979D02*
X160833958Y-53709833D01*
X187975449Y-35668132D02*
X187897440Y-35684780D01*
X97479509Y-23365161D02*
X97519107Y-23434404D01*
X189180980Y-61782981D02*
X189194724Y-61861554D01*
X144688449Y-62889765D02*
X144633102Y-62947205D01*
X208159984Y-35279993D02*
X208087576Y-35246531D01*
X96397440Y-22615219D02*
X96475449Y-22631867D01*
X207441562Y-34668704D02*
X207400263Y-34600461D01*
X188128523Y-32576627D02*
X188203213Y-32604628D01*
X142859984Y-32320006D02*
X142933958Y-32290166D01*
X95609317Y-25735979D02*
X95533958Y-25709833D01*
X103800000Y-48000000D02*
X96250000Y-48000000D01*
X141927344Y-61443973D02*
X141946875Y-61366635D01*
X121885878Y-32541633D02*
X121963451Y-32523060D01*
X148501000Y-35833333D02*
X148499000Y-35833333D01*
X186887576Y-35546531D02*
X186816911Y-35509529D01*
X159799865Y-52001072D02*
X159811661Y-51922183D01*
X189055232Y-33405521D02*
X189087796Y-33478337D01*
X161539430Y-53806412D02*
X161459816Y-53811342D01*
X161550000Y-47001500D02*
X161550000Y-46999500D01*
X210412452Y-61800000D02*
X210410479Y-61879741D01*
X123863368Y-62494815D02*
X123841930Y-62571647D01*
X162855232Y-24894478D02*
X162819107Y-24965595D01*
X207199865Y-33998927D02*
X207191986Y-33919551D01*
X162916719Y-51652675D02*
X162941930Y-51728352D01*
X94987796Y-67878337D02*
X95016719Y-67952675D01*
X188550999Y-63402152D02*
X188485439Y-63447589D01*
X92100263Y-39699538D02*
X92141562Y-39631295D01*
X209175449Y-32231867D02*
X209252540Y-32252353D01*
X144028523Y-60276627D02*
X144103213Y-60304628D01*
X159750999Y-69802152D02*
X159685439Y-69847589D01*
X160000263Y-23399538D02*
X160041562Y-23331295D01*
X97233102Y-51052794D02*
X97288449Y-51110234D01*
X142100263Y-34600461D02*
X142062390Y-34530260D01*
X157755072Y-69728058D02*
X157695619Y-69674880D01*
X94633102Y-69647205D02*
X94574982Y-69701837D01*
X162736535Y-23297960D02*
X162779509Y-23365161D01*
X158550000Y-48000000D02*
X149500000Y-48000000D01*
X93250000Y-48000000D02*
X84200000Y-48000000D01*
X94884958Y-51139963D02*
X94938868Y-51081172D01*
X144790290Y-62767032D02*
X144740888Y-62829658D01*
X208700345Y-35409369D02*
X208620878Y-35402472D01*
X209328523Y-35323372D02*
X209252540Y-35347646D01*
X123433102Y-60952794D02*
X123488449Y-61010234D01*
X187818703Y-32502448D02*
X187897440Y-32515219D01*
X143718703Y-63397551D02*
X143639430Y-63406412D01*
X94662390Y-24930260D02*
X94628035Y-24858271D01*
X159933102Y-39352794D02*
X159988449Y-39410234D01*
X94511661Y-24477816D02*
X94499865Y-24398927D01*
X121587576Y-35546531D02*
X121516911Y-35509529D01*
X120727344Y-62456026D02*
X120711661Y-62377816D01*
X207881499Y-35125276D02*
X207817083Y-35078231D01*
X208859816Y-60188657D02*
X208939430Y-60193587D01*
X159933102Y-67352794D02*
X159988449Y-67410234D01*
X123590290Y-61132967D02*
X123636535Y-61197960D01*
X122976426Y-35563710D02*
X122903213Y-35595371D01*
X208939430Y-63406412D02*
X208859816Y-63411342D01*
X186959984Y-35579993D02*
X186887576Y-35546531D01*
X207362390Y-34530260D02*
X207328035Y-34458271D01*
X93241849Y-70091653D02*
X93163451Y-70076939D01*
X187818703Y-35697551D02*
X187739430Y-35706412D01*
X97479509Y-25034838D02*
X97436535Y-25102039D01*
X186286184Y-63034821D02*
X186241562Y-62968704D01*
X92234022Y-67501349D02*
X92284958Y-67439963D01*
X92186184Y-67565178D02*
X92234022Y-67501349D01*
X123185439Y-60752410D02*
X123250999Y-60797847D01*
X93241849Y-42091653D02*
X93163451Y-42076939D01*
X91946875Y-40933364D02*
X91927344Y-40856026D01*
X145080980Y-33482981D02*
X145094724Y-33561554D01*
X92186184Y-39565178D02*
X92234022Y-39501349D01*
X160287796Y-39878337D02*
X160316719Y-39952675D01*
X123904564Y-33940711D02*
X123910479Y-34020258D01*
X94938868Y-53318827D02*
X94884958Y-53260036D01*
X94955232Y-41194478D02*
X94919107Y-41265595D01*
X95104564Y-68659288D02*
X95094724Y-68738445D01*
X210179509Y-60965161D02*
X210219107Y-61034404D01*
X122903213Y-32604628D02*
X122976426Y-32636289D01*
X97288449Y-23110234D02*
X97340888Y-23170341D01*
X122041849Y-35691653D02*
X121963451Y-35676939D01*
X122903213Y-60604628D02*
X122976426Y-60636289D01*
X94176426Y-67036289D02*
X94247985Y-67071532D01*
X158463451Y-38923060D02*
X158541849Y-38908346D01*
X159799865Y-52398927D02*
X159791986Y-52319551D01*
X120797282Y-33515327D02*
X120828035Y-33441728D01*
X189141930Y-33628352D02*
X189163368Y-33705184D01*
X161220878Y-53802472D02*
X161141849Y-53791653D01*
X95685878Y-25758366D02*
X95609317Y-25735979D01*
X148501000Y-55166666D02*
X148499000Y-55166666D01*
X97555232Y-23505521D02*
X97587796Y-23578337D01*
X121195619Y-60925119D02*
X121255072Y-60871941D01*
X97519107Y-24965595D02*
X97479509Y-25034838D01*
X157211661Y-68777816D02*
X157199865Y-68698927D01*
X123904564Y-61940711D02*
X123910479Y-62020258D01*
X94499865Y-52398927D02*
X94491986Y-52319551D01*
X158087576Y-41946531D02*
X158016911Y-41909529D01*
X123185439Y-63447589D02*
X123117712Y-63489729D01*
X94597282Y-23615327D02*
X94628035Y-23541728D01*
X143480056Y-35412328D02*
X143400345Y-35409369D01*
X94176426Y-69963710D02*
X94103213Y-69995371D01*
X92933958Y-70009833D02*
X92859984Y-69979993D01*
X95117083Y-22921768D02*
X95181499Y-22874723D01*
X142234022Y-60801349D02*
X142284958Y-60739963D01*
X209547985Y-35228467D02*
X209476426Y-35263710D01*
X143320878Y-35402472D02*
X143241849Y-35391653D01*
X158700345Y-66890630D02*
X158780056Y-66887671D01*
X160548163Y-22830921D02*
X160616911Y-22790470D01*
X186959984Y-63579993D02*
X186887576Y-63546531D01*
X143163451Y-63376939D02*
X143085878Y-63358366D01*
X144247985Y-63228467D02*
X144176426Y-63263710D01*
X159933102Y-69647205D02*
X159874982Y-69701837D01*
X207227344Y-33443973D02*
X207246875Y-33366635D01*
X160179509Y-39665161D02*
X160219107Y-39734404D01*
X159685439Y-69847589D02*
X159617712Y-69889729D01*
X123250999Y-63402152D02*
X123185439Y-63447589D01*
X96703213Y-22704628D02*
X96776426Y-22736289D01*
X158159984Y-41979993D02*
X158087576Y-41946531D01*
X96318703Y-25797551D02*
X96239430Y-25806412D01*
X162588449Y-25289765D02*
X162533102Y-25347205D01*
X96847985Y-22771532D02*
X96917712Y-22810270D01*
X145104564Y-33959288D02*
X145094724Y-34038445D01*
X121034022Y-35098650D02*
X120986184Y-35034821D01*
X123880980Y-33782981D02*
X123894724Y-33861554D01*
X121963451Y-32523060D02*
X122041849Y-32508346D01*
X188203213Y-35595371D02*
X188128523Y-35623372D01*
X106800000Y-47001500D02*
X106800000Y-46999500D01*
X157188041Y-40539883D02*
X157188041Y-40460116D01*
X186200263Y-62900461D02*
X186162390Y-62830260D01*
X158700345Y-70109369D02*
X158620878Y-70102472D01*
X160909317Y-50664020D02*
X160985878Y-50641633D01*
X157817083Y-69778231D02*
X157755072Y-69728058D01*
X144176426Y-63263710D02*
X144103213Y-63295371D01*
X186748163Y-35469078D02*
X186681499Y-35425276D01*
X208385878Y-32241633D02*
X208463451Y-32223060D01*
X162533102Y-25347205D02*
X162474982Y-25401837D01*
X159476426Y-41963710D02*
X159403213Y-41995371D01*
X157211661Y-68222183D02*
X157227344Y-68143973D01*
X96159816Y-53811342D02*
X96080056Y-53812328D01*
X207246875Y-62233364D02*
X207227344Y-62156026D01*
X97050999Y-53502152D02*
X96985439Y-53547589D01*
X144247985Y-32371532D02*
X144317712Y-32410270D01*
X144987796Y-34421662D02*
X144955232Y-34494478D01*
X93320878Y-42102472D02*
X93241849Y-42091653D01*
X144836535Y-32897960D02*
X144879509Y-32965161D01*
X160355072Y-22971941D02*
X160417083Y-22921768D01*
X93718703Y-38902448D02*
X93797440Y-38915219D01*
X169100000Y-47001500D02*
X169100000Y-48000000D01*
X162963368Y-24594815D02*
X162941930Y-24671647D01*
X186816911Y-32690470D02*
X186887576Y-32653468D01*
X97694724Y-23961554D02*
X97704564Y-24040711D01*
X95110479Y-68579741D02*
X95104564Y-68659288D01*
X147500000Y-35833333D02*
X147500000Y-30166666D01*
X94574982Y-67298162D02*
X94633102Y-67352794D01*
X209874982Y-63001837D02*
X209814232Y-63053528D01*
X122280056Y-32487671D02*
X122359816Y-32488657D01*
X122041849Y-60508346D02*
X122120878Y-60497527D01*
X209252540Y-60252353D02*
X209328523Y-60276627D01*
X144385439Y-63147589D02*
X144317712Y-63189729D01*
X161775449Y-50631867D02*
X161852540Y-50652353D01*
X187420878Y-63702472D02*
X187341849Y-63691653D01*
X91970206Y-69009641D02*
X91946875Y-68933364D01*
X188052540Y-35647646D02*
X187975449Y-35668132D01*
X144450999Y-32497847D02*
X144514232Y-32546471D01*
X162076426Y-25663710D02*
X162003213Y-25695371D01*
X188203213Y-32604628D02*
X188276426Y-32636289D01*
X145110479Y-33879741D02*
X145104564Y-33959288D01*
X123816719Y-61552675D02*
X123841930Y-61628352D01*
X92062390Y-67769739D02*
X92100263Y-67699538D01*
X160759984Y-50720006D02*
X160833958Y-50690166D01*
X186286184Y-61165178D02*
X186334022Y-61101349D01*
X187659816Y-32488657D02*
X187739430Y-32493587D01*
X160394724Y-68261554D02*
X160404564Y-68340711D01*
X94628035Y-24858271D02*
X94597282Y-24784672D01*
X186438868Y-63218827D02*
X186384958Y-63160036D01*
X172100000Y-47001500D02*
X172100000Y-46999500D01*
X122120878Y-60497527D02*
X122200345Y-60490630D01*
X123719107Y-33334404D02*
X123755232Y-33405521D01*
X160287796Y-41121662D02*
X160255232Y-41194478D01*
X186200263Y-33299538D02*
X186241562Y-33231295D01*
X121963451Y-63676939D02*
X121885878Y-63658366D01*
X122752540Y-35647646D02*
X122675449Y-35668132D01*
X207246875Y-34233364D02*
X207227344Y-34156026D01*
X121659984Y-35579993D02*
X121587576Y-35546531D01*
X161697440Y-22615219D02*
X161775449Y-22631867D01*
X160410479Y-68579741D02*
X160404564Y-68659288D01*
X210090290Y-32832967D02*
X210136535Y-32897960D01*
X121084958Y-63160036D02*
X121034022Y-63098650D01*
X144688449Y-60710234D02*
X144740888Y-60770341D01*
X162980980Y-24517018D02*
X162963368Y-24594815D01*
X121317083Y-32821768D02*
X121381499Y-32774723D01*
X93009317Y-66964020D02*
X93085878Y-66941633D01*
X189163368Y-61705184D02*
X189180980Y-61782981D01*
X186887576Y-63546531D02*
X186816911Y-63509529D01*
X158233958Y-66990166D02*
X158309317Y-66964020D01*
X188936535Y-35002039D02*
X188890290Y-35067032D01*
X162941930Y-24671647D02*
X162916719Y-24747324D01*
X162779509Y-25034838D02*
X162736535Y-25102039D01*
X158780056Y-66887671D02*
X158859816Y-66888657D01*
X95110479Y-40420258D02*
X95112452Y-40500000D01*
X160134022Y-23201349D02*
X160184958Y-23139963D01*
X94938868Y-23081172D02*
X94995619Y-23025119D01*
X94527344Y-51843973D02*
X94546875Y-51766635D01*
X91927344Y-68143973D02*
X91946875Y-68066635D01*
X97694724Y-52438445D02*
X97680980Y-52517018D01*
X97641930Y-52671647D02*
X97616719Y-52747324D01*
X97390290Y-53167032D02*
X97340888Y-53229658D01*
X144574982Y-32598162D02*
X144633102Y-32652794D01*
X209988449Y-34889765D02*
X209933102Y-34947205D01*
X96776426Y-25663710D02*
X96703213Y-25695371D01*
X158016911Y-67090470D02*
X158087576Y-67053468D01*
X160341930Y-68971647D02*
X160316719Y-69047324D01*
X208541849Y-32208346D02*
X208620878Y-32197527D01*
X97436535Y-25102039D02*
X97390290Y-25167032D01*
X94662390Y-23469739D02*
X94700263Y-23399538D01*
X93163451Y-42076939D02*
X93085878Y-42058366D01*
X91946875Y-68933364D02*
X91927344Y-68856026D01*
X145041930Y-34271647D02*
X145016719Y-34347324D01*
X142716911Y-32390470D02*
X142787576Y-32353468D01*
X160219107Y-69265595D02*
X160179509Y-69334838D01*
X144247985Y-60371532D02*
X144317712Y-60410270D01*
X209476426Y-63263710D02*
X209403213Y-63295371D01*
X97050999Y-22897847D02*
X97114232Y-22946471D01*
X209018703Y-35397551D02*
X208939430Y-35406412D01*
X96000345Y-22590630D02*
X96080056Y-22587671D01*
X123841930Y-34571647D02*
X123816719Y-34647324D01*
X123719107Y-34865595D02*
X123679509Y-34934838D01*
X162414232Y-53453528D02*
X162350999Y-53502152D01*
X160363368Y-68105184D02*
X160380980Y-68182981D01*
X142338868Y-32681172D02*
X142395619Y-32625119D01*
X161063451Y-50623060D02*
X161141849Y-50608346D01*
X145080980Y-61482981D02*
X145094724Y-61561554D01*
X94570206Y-23690358D02*
X94597282Y-23615327D01*
X120900263Y-33299538D02*
X120941562Y-33231295D01*
X208780056Y-32187671D02*
X208859816Y-32188657D01*
X143085878Y-60241633D02*
X143163451Y-60223060D01*
X94995619Y-25374880D02*
X94938868Y-25318827D01*
X188674982Y-60898162D02*
X188733102Y-60952794D01*
X94597282Y-51615327D02*
X94628035Y-51541728D01*
X123314232Y-32846471D02*
X123374982Y-32898162D01*
X144987796Y-61178337D02*
X145016719Y-61252675D01*
X122903213Y-35595371D02*
X122828523Y-35623372D01*
X120727344Y-33743973D02*
X120746875Y-33666635D01*
X210363368Y-34194815D02*
X210341930Y-34271647D01*
X161852540Y-50652353D02*
X161928523Y-50676627D01*
X160000263Y-53000461D02*
X159962390Y-52930260D01*
X144740888Y-32770341D02*
X144790290Y-32832967D01*
X169100000Y-46999500D02*
X169100000Y-47001500D01*
X186384958Y-35160036D02*
X186334022Y-35098650D01*
X186816911Y-63509529D02*
X186748163Y-63469078D01*
X123894724Y-34338445D02*
X123880980Y-34417018D01*
X93480056Y-66887671D02*
X93559816Y-66888657D01*
X120941562Y-61231295D02*
X120986184Y-61165178D01*
X142338868Y-34918827D02*
X142284958Y-34860036D01*
X97555232Y-51505521D02*
X97587796Y-51578337D01*
X92787576Y-69946531D02*
X92716911Y-69909529D01*
X159874982Y-41701837D02*
X159814232Y-41753528D01*
X208859816Y-35411342D02*
X208780056Y-35412328D01*
X188417712Y-35489729D02*
X188347985Y-35528467D01*
X121317083Y-35378231D02*
X121255072Y-35328058D01*
X142028035Y-33141728D02*
X142062390Y-33069739D01*
X207534022Y-34798650D02*
X207486184Y-34734821D01*
X96475449Y-53768132D02*
X96397440Y-53784780D01*
X160316719Y-39952675D02*
X160341930Y-40028352D01*
X143875449Y-32231867D02*
X143952540Y-32252353D01*
X157297282Y-69084672D02*
X157270206Y-69009641D01*
X143718703Y-60202448D02*
X143797440Y-60215219D01*
X187500345Y-60490630D02*
X187580056Y-60487671D01*
X210394724Y-62038445D02*
X210380980Y-62117018D01*
X187580056Y-60487671D02*
X187659816Y-60488657D01*
X143009317Y-32264020D02*
X143085878Y-32241633D01*
X122200345Y-60490630D02*
X122280056Y-60487671D01*
X94700263Y-51399538D02*
X94741562Y-51331295D01*
X91997282Y-69084672D02*
X91970206Y-69009641D01*
X159328523Y-70023372D02*
X159252540Y-70047646D01*
X210394724Y-61561554D02*
X210404564Y-61640711D01*
X95920878Y-53802472D02*
X95841849Y-53791653D01*
X93009317Y-38964020D02*
X93085878Y-38941633D01*
X142395619Y-62974880D02*
X142338868Y-62918827D01*
X142234022Y-34798650D02*
X142186184Y-34734821D01*
X160040888Y-41529658D02*
X159988449Y-41589765D01*
X161459816Y-50588657D02*
X161539430Y-50593587D01*
X203750000Y-46999500D02*
X203750000Y-46000000D01*
X188485439Y-63447589D02*
X188417712Y-63489729D01*
X123488449Y-33010234D02*
X123540888Y-33070341D01*
X95248163Y-53569078D02*
X95181499Y-53525276D01*
X96985439Y-53547589D02*
X96917712Y-53589729D01*
X186027344Y-33743973D02*
X186046875Y-33666635D01*
X159791986Y-24319551D02*
X159788041Y-24239883D01*
X144955232Y-61105521D02*
X144987796Y-61178337D01*
X188614232Y-60846471D02*
X188674982Y-60898162D01*
X96250000Y-46999500D02*
X96250000Y-46000000D01*
X193200000Y-46999500D02*
X193200000Y-46000000D01*
X187975449Y-32531867D02*
X188052540Y-32552353D01*
X160759984Y-22720006D02*
X160833958Y-22690166D01*
X114350000Y-46999500D02*
X114350000Y-47001500D01*
X91970206Y-67990358D02*
X91997282Y-67915327D01*
X210316719Y-62347324D02*
X210287796Y-62421662D01*
X186070206Y-61590358D02*
X186097282Y-61515327D01*
X97519107Y-51434404D02*
X97555232Y-51505521D01*
X207246875Y-33366635D02*
X207270206Y-33290358D01*
X157362390Y-39769739D02*
X157400263Y-39699538D01*
X92517083Y-41778231D02*
X92455072Y-41728058D01*
X121255072Y-63328058D02*
X121195619Y-63274880D01*
X160481499Y-50874723D02*
X160548163Y-50830921D01*
X95533958Y-53709833D02*
X95459984Y-53679993D01*
X188733102Y-35247205D02*
X188674982Y-35301837D01*
X157211661Y-40777816D02*
X157199865Y-40698927D01*
X188788449Y-63189765D02*
X188733102Y-63247205D01*
X209685439Y-32452410D02*
X209750999Y-32497847D01*
X157270206Y-39990358D02*
X157297282Y-39915327D01*
X94176426Y-39036289D02*
X94247985Y-39071532D01*
X207817083Y-32521768D02*
X207881499Y-32474723D01*
X186816911Y-60690470D02*
X186887576Y-60653468D01*
X138450000Y-46000000D02*
X147500000Y-46000000D01*
X122280056Y-35712328D02*
X122200345Y-35709369D01*
X95387576Y-53646531D02*
X95316911Y-53609529D01*
X94597282Y-24784672D02*
X94570206Y-24709641D01*
X124900000Y-46000000D02*
X124900000Y-46999500D01*
X121516911Y-60690470D02*
X121587576Y-60653468D01*
X208541849Y-35391653D02*
X208463451Y-35376939D01*
X91891986Y-40380448D02*
X91899865Y-40301072D01*
X148499000Y-55166666D02*
X147500000Y-55166666D01*
X188674982Y-32898162D02*
X188733102Y-32952794D01*
X94385439Y-39152410D02*
X94450999Y-39197847D01*
X94546875Y-24633364D02*
X94527344Y-24556026D01*
X186617083Y-35378231D02*
X186555072Y-35328058D01*
X94884958Y-25260036D02*
X94834022Y-25198650D01*
X210287796Y-61178337D02*
X210316719Y-61252675D01*
X120770206Y-61590358D02*
X120797282Y-61515327D01*
X157297282Y-39915327D02*
X157328035Y-39841728D01*
X160394724Y-68738445D02*
X160380980Y-68817018D01*
X162980980Y-23882981D02*
X162994724Y-23961554D01*
X186887576Y-60653468D02*
X186959984Y-60620006D01*
X187185878Y-60541633D02*
X187263451Y-60523060D01*
X123590290Y-63067032D02*
X123540888Y-63129658D01*
X162963368Y-52594815D02*
X162941930Y-52671647D01*
X141997282Y-62384672D02*
X141970206Y-62309641D01*
X95063368Y-68105184D02*
X95080980Y-68182981D01*
X120900263Y-34900461D02*
X120862390Y-34830260D01*
X123912452Y-34100000D02*
X123910479Y-34179741D01*
X159547985Y-41928467D02*
X159476426Y-41963710D01*
X161539430Y-22593587D02*
X161618703Y-22602448D01*
X97174982Y-50998162D02*
X97233102Y-51052794D01*
X121448163Y-32730921D02*
X121516911Y-32690470D01*
X162217712Y-25589729D02*
X162147985Y-25628467D01*
X160179509Y-69334838D02*
X160136535Y-69402039D01*
X96318703Y-22602448D02*
X96397440Y-22615219D01*
X94987796Y-39878337D02*
X95016719Y-39952675D01*
X186046875Y-33666635D02*
X186070206Y-33590358D01*
X160909317Y-25735979D02*
X160833958Y-25709833D01*
X121809317Y-63635979D02*
X121733958Y-63609833D01*
X95685878Y-22641633D02*
X95763451Y-22623060D01*
X144103213Y-35295371D02*
X144028523Y-35323372D01*
X157695619Y-69674880D02*
X157638868Y-69618827D01*
X94176426Y-41963710D02*
X94103213Y-41995371D01*
X148499000Y-35833333D02*
X147500000Y-35833333D01*
X94879509Y-39665161D02*
X94919107Y-39734404D01*
X161852540Y-53747646D02*
X161775449Y-53768132D01*
X159685439Y-67152410D02*
X159750999Y-67197847D01*
X95533958Y-25709833D02*
X95459984Y-25679993D01*
X96475449Y-22631867D02*
X96552540Y-22652353D01*
X93797440Y-42084780D02*
X93718703Y-42097551D01*
X209988449Y-32710234D02*
X210040888Y-32770341D01*
X162414232Y-50946471D02*
X162474982Y-50998162D01*
X188890290Y-61132967D02*
X188936535Y-61197960D01*
X143400345Y-32190630D02*
X143480056Y-32187671D01*
X158780056Y-42112328D02*
X158700345Y-42109369D01*
X158620878Y-38897527D02*
X158700345Y-38890630D01*
X95110479Y-68420258D02*
X95112452Y-68500000D01*
X142716911Y-35209529D02*
X142648163Y-35169078D01*
X94514232Y-69753528D02*
X94450999Y-69802152D01*
X149500000Y-35833333D02*
X148501000Y-35833333D01*
X157817083Y-67221768D02*
X157881499Y-67174723D01*
X93320878Y-70102472D02*
X93241849Y-70091653D01*
X92062390Y-39769739D02*
X92100263Y-39699538D01*
X91970206Y-41009641D02*
X91946875Y-40933364D01*
X93797440Y-70084780D02*
X93718703Y-70097551D01*
X159928035Y-23541728D02*
X159962390Y-23469739D01*
X160833958Y-50690166D02*
X160909317Y-50664020D01*
X161539430Y-50593587D02*
X161618703Y-50602448D01*
X158385878Y-70058366D02*
X158309317Y-70035979D01*
X162147985Y-53628467D02*
X162076426Y-53663710D01*
X169100000Y-46000000D02*
X169100000Y-46999500D01*
X208780056Y-35412328D02*
X208700345Y-35409369D01*
X158385878Y-66941633D02*
X158463451Y-66923060D01*
X93797440Y-38915219D02*
X93875449Y-38931867D01*
X207534022Y-32801349D02*
X207584958Y-32739963D01*
X160316719Y-41047324D02*
X160287796Y-41121662D01*
X160136535Y-69402039D02*
X160090290Y-69467032D01*
X162003213Y-50704628D02*
X162076426Y-50736289D01*
X186027344Y-61743973D02*
X186046875Y-61666635D01*
X97288449Y-25289765D02*
X97233102Y-25347205D01*
X186200263Y-34900461D02*
X186162390Y-34830260D01*
X95041930Y-68028352D02*
X95063368Y-68105184D01*
X210316719Y-61252675D02*
X210341930Y-61328352D01*
X159827344Y-23843973D02*
X159846875Y-23766635D01*
X143875449Y-35368132D02*
X143797440Y-35384780D01*
X160295619Y-25374880D02*
X160238868Y-25318827D01*
X161459816Y-25811342D02*
X161380056Y-25812328D01*
X92100263Y-67699538D02*
X92141562Y-67631295D01*
X157362390Y-69230260D02*
X157328035Y-69158271D01*
X157638868Y-41618827D02*
X157584958Y-41560036D01*
X186438868Y-32981172D02*
X186495619Y-32925119D01*
X160380980Y-40817018D02*
X160363368Y-40894815D01*
X92648163Y-41869078D02*
X92581499Y-41825276D01*
X94700263Y-53000461D02*
X94662390Y-52930260D01*
X159791986Y-24080448D02*
X159799865Y-24001072D01*
X94450999Y-67197847D02*
X94514232Y-67246471D01*
X122976426Y-63563710D02*
X122903213Y-63595371D01*
X149500000Y-58166666D02*
X149500000Y-63833333D01*
X95763451Y-50623060D02*
X95841849Y-50608346D01*
X123374982Y-63301837D02*
X123314232Y-63353528D01*
X209874982Y-32598162D02*
X209933102Y-32652794D01*
X208780056Y-60187671D02*
X208859816Y-60188657D01*
X207486184Y-34734821D02*
X207441562Y-34668704D01*
X160086184Y-23265178D02*
X160134022Y-23201349D01*
X159685439Y-39152410D02*
X159750999Y-39197847D01*
X97704564Y-52359288D02*
X97694724Y-52438445D01*
X157534022Y-41498650D02*
X157486184Y-41434821D01*
X159328523Y-42023372D02*
X159252540Y-42047646D01*
X207188041Y-33839883D02*
X207188041Y-33760116D01*
X159811661Y-23922183D02*
X159827344Y-23843973D01*
X94633102Y-39352794D02*
X94688449Y-39410234D01*
X158463451Y-66923060D02*
X158541849Y-66908346D01*
X160090290Y-41467032D02*
X160040888Y-41529658D01*
X149500000Y-55166666D02*
X148501000Y-55166666D01*
X163012452Y-24200000D02*
X163010479Y-24279741D01*
X209685439Y-35147589D02*
X209617712Y-35189729D01*
X186128035Y-34758271D02*
X186097282Y-34684672D01*
X157400263Y-41300461D02*
X157362390Y-41230260D01*
X159175449Y-70068132D02*
X159097440Y-70084780D01*
X187341849Y-63691653D02*
X187263451Y-63676939D01*
X93163451Y-38923060D02*
X93241849Y-38908346D01*
X95112452Y-40500000D02*
X95110479Y-40579741D01*
X95110479Y-40579741D02*
X95104564Y-40659288D01*
X162003213Y-53695371D02*
X161928523Y-53723372D01*
X207211661Y-34077816D02*
X207199865Y-33998927D01*
X142859984Y-35279993D02*
X142787576Y-35246531D01*
X148501000Y-63833333D02*
X148499000Y-63833333D01*
X162640888Y-23170341D02*
X162690290Y-23232967D01*
X188890290Y-63067032D02*
X188840888Y-63129658D01*
X143952540Y-35347646D02*
X143875449Y-35368132D01*
X186681499Y-35425276D02*
X186617083Y-35378231D01*
X160985878Y-50641633D02*
X161063451Y-50623060D01*
X188788449Y-35189765D02*
X188733102Y-35247205D01*
X120711661Y-34377816D02*
X120699865Y-34298927D01*
X148501000Y-30166666D02*
X149500000Y-30166666D01*
X172100000Y-48000000D02*
X172100000Y-47001500D01*
X188614232Y-35353528D02*
X188550999Y-35402152D01*
X144740888Y-62829658D02*
X144688449Y-62889765D01*
X144450999Y-63102152D02*
X144385439Y-63147589D01*
X143163451Y-60223060D02*
X143241849Y-60208346D01*
X92284958Y-67439963D02*
X92338868Y-67381172D01*
X92648163Y-39130921D02*
X92716911Y-39090470D01*
X160287796Y-69121662D02*
X160255232Y-69194478D01*
X97174982Y-25401837D02*
X97114232Y-25453528D01*
X160355072Y-25428058D02*
X160295619Y-25374880D01*
X96475449Y-50631867D02*
X96552540Y-50652353D01*
X95387576Y-50753468D02*
X95459984Y-50720006D01*
X96080056Y-53812328D02*
X96000345Y-53809369D01*
X209328523Y-60276627D02*
X209403213Y-60304628D01*
X142395619Y-34974880D02*
X142338868Y-34918827D01*
X122752540Y-63647646D02*
X122675449Y-63668132D01*
X158159984Y-69979993D02*
X158087576Y-69946531D01*
X94995619Y-53374880D02*
X94938868Y-53318827D01*
X121587576Y-60653468D02*
X121659984Y-60620006D01*
X157362390Y-67769739D02*
X157400263Y-67699538D01*
X187739430Y-63706412D02*
X187659816Y-63711342D01*
X142100263Y-60999538D02*
X142141562Y-60931295D01*
X84200000Y-48000000D02*
X84200000Y-74000000D01*
X158939430Y-66893587D02*
X159018703Y-66902448D01*
X189087796Y-61478337D02*
X189116719Y-61552675D01*
X149500000Y-38833333D02*
X149500000Y-46000000D01*
X94955232Y-39805521D02*
X94987796Y-39878337D01*
X96776426Y-53663710D02*
X96703213Y-53695371D01*
X145063368Y-62194815D02*
X145041930Y-62271647D01*
X122041849Y-32508346D02*
X122120878Y-32497527D01*
X189116719Y-61552675D02*
X189141930Y-61628352D01*
X96917712Y-25589729D02*
X96847985Y-25628467D01*
X93559816Y-42111342D02*
X93480056Y-42112328D01*
X145016719Y-61252675D02*
X145041930Y-61328352D01*
X209097440Y-35384780D02*
X209018703Y-35397551D01*
X160417083Y-50921768D02*
X160481499Y-50874723D01*
X209933102Y-32652794D02*
X209988449Y-32710234D01*
X158541849Y-38908346D02*
X158620878Y-38897527D01*
X144176426Y-32336289D02*
X144247985Y-32371532D01*
X138450000Y-47001500D02*
X138450000Y-46999500D01*
X122828523Y-35623372D02*
X122752540Y-35647646D01*
X143480056Y-60187671D02*
X143559816Y-60188657D01*
X210255232Y-62494478D02*
X210219107Y-62565595D01*
X162474982Y-53401837D02*
X162414232Y-53453528D01*
X94527344Y-23843973D02*
X94546875Y-23766635D01*
X185999865Y-61901072D02*
X186011661Y-61822183D01*
X187185878Y-32541633D02*
X187263451Y-32523060D01*
X189141930Y-61628352D02*
X189163368Y-61705184D01*
X84200000Y-74000000D02*
X147500000Y-74000000D01*
X186162390Y-62830260D02*
X186128035Y-62758271D01*
X207695619Y-34974880D02*
X207638868Y-34918827D01*
X142581499Y-60474723D02*
X142648163Y-60430921D01*
X208385878Y-35358366D02*
X208309317Y-35335979D01*
X162076426Y-53663710D02*
X162003213Y-53695371D01*
X157211661Y-40222183D02*
X157227344Y-40143973D01*
X121317083Y-60821768D02*
X121381499Y-60774723D01*
X162217712Y-22810270D02*
X162285439Y-22852410D01*
X96552540Y-53747646D02*
X96475449Y-53768132D01*
X159018703Y-70097551D02*
X158939430Y-70106412D01*
X96917712Y-22810270D02*
X96985439Y-22852410D01*
X160040888Y-69529658D02*
X159988449Y-69589765D01*
X159811661Y-51922183D02*
X159827344Y-51843973D01*
X158700345Y-38890630D02*
X158780056Y-38887671D01*
X135450000Y-46000000D02*
X135450000Y-46999500D01*
X186555072Y-35328058D02*
X186495619Y-35274880D01*
X95055072Y-22971941D02*
X95117083Y-22921768D01*
X186070206Y-34609641D02*
X186046875Y-34533364D01*
X158780056Y-38887671D02*
X158859816Y-38888657D01*
X158016911Y-69909529D02*
X157948163Y-69869078D01*
X159962390Y-51469739D02*
X160000263Y-51399538D01*
X160179509Y-67665161D02*
X160219107Y-67734404D01*
X162855232Y-23505521D02*
X162887796Y-23578337D01*
X123314232Y-63353528D02*
X123250999Y-63402152D01*
X144574982Y-35001837D02*
X144514232Y-35053528D01*
X158859816Y-42111342D02*
X158780056Y-42112328D01*
X186241562Y-34968704D02*
X186200263Y-34900461D01*
X94628035Y-51541728D02*
X94662390Y-51469739D01*
X163010479Y-24279741D02*
X163004564Y-24359288D01*
X97616719Y-52747324D02*
X97587796Y-52821662D01*
X143639430Y-60193587D02*
X143718703Y-60202448D01*
X96000345Y-50590630D02*
X96080056Y-50587671D01*
X91899865Y-68301072D02*
X91911661Y-68222183D01*
X142234022Y-32801349D02*
X142284958Y-32739963D01*
X144103213Y-63295371D02*
X144028523Y-63323372D01*
X157695619Y-39325119D02*
X157755072Y-39271941D01*
X200750000Y-47001500D02*
X200750000Y-48000000D01*
X157227344Y-68856026D02*
X157211661Y-68777816D01*
X96159816Y-22588657D02*
X96239430Y-22593587D01*
X158309317Y-38964020D02*
X158385878Y-38941633D01*
X161300345Y-53809369D02*
X161220878Y-53802472D01*
X207328035Y-33141728D02*
X207362390Y-33069739D01*
X95533958Y-50690166D02*
X95609317Y-50664020D01*
X160287796Y-67878337D02*
X160316719Y-67952675D01*
X143085878Y-35358366D02*
X143009317Y-35335979D01*
X142455072Y-63028058D02*
X142395619Y-62974880D01*
X172100000Y-46000000D02*
X179650000Y-46000000D01*
X189204564Y-33940711D02*
X189210479Y-34020258D01*
X188840888Y-61070341D02*
X188890290Y-61132967D01*
X162690290Y-23232967D02*
X162736535Y-23297960D01*
X210380980Y-61482981D02*
X210394724Y-61561554D01*
X162916719Y-52747324D02*
X162887796Y-52821662D01*
X95063368Y-40105184D02*
X95080980Y-40182981D01*
X158087576Y-69946531D02*
X158016911Y-69909529D01*
X143241849Y-35391653D02*
X143163451Y-35376939D01*
X141946875Y-34233364D02*
X141927344Y-34156026D01*
X207441562Y-32931295D02*
X207486184Y-32865178D01*
X144450999Y-60497847D02*
X144514232Y-60546471D01*
X95063368Y-40894815D02*
X95041930Y-40971647D01*
X160833958Y-25709833D02*
X160759984Y-25679993D01*
X209018703Y-60202448D02*
X209097440Y-60215219D01*
X186011661Y-33822183D02*
X186027344Y-33743973D01*
X161459816Y-53811342D02*
X161380056Y-53812328D01*
X159928035Y-24858271D02*
X159897282Y-24784672D01*
X187033958Y-60590166D02*
X187109317Y-60564020D01*
X145063368Y-61405184D02*
X145080980Y-61482981D01*
X160410479Y-68420258D02*
X160412452Y-68500000D01*
X92787576Y-41946531D02*
X92716911Y-41909529D01*
X123863368Y-33705184D02*
X123880980Y-33782981D01*
X120746875Y-34533364D02*
X120727344Y-34456026D01*
X94741562Y-25068704D02*
X94700263Y-25000461D01*
X144176426Y-35263710D02*
X144103213Y-35295371D01*
X145094724Y-33561554D02*
X145104564Y-33640711D01*
X143639430Y-35406412D02*
X143559816Y-35411342D01*
X209617712Y-35189729D02*
X209547985Y-35228467D01*
X187739430Y-32493587D02*
X187818703Y-32502448D01*
X94570206Y-52709641D02*
X94546875Y-52633364D01*
X95016719Y-39952675D02*
X95041930Y-40028352D01*
X142648163Y-32430921D02*
X142716911Y-32390470D01*
X94491986Y-24319551D02*
X94488041Y-24239883D01*
X207188041Y-61760116D02*
X207191986Y-61680448D01*
X120862390Y-62830260D02*
X120828035Y-62758271D01*
X92859984Y-69979993D02*
X92787576Y-69946531D01*
X187975449Y-63668132D02*
X187897440Y-63684780D01*
X162474982Y-25401837D02*
X162414232Y-25453528D01*
X159617712Y-41889729D02*
X159547985Y-41928467D01*
X91891986Y-68380448D02*
X91899865Y-68301072D01*
X161380056Y-50587671D02*
X161459816Y-50588657D01*
X159175449Y-38931867D02*
X159252540Y-38952353D01*
X121587576Y-63546531D02*
X121516911Y-63509529D01*
X95055072Y-50971941D02*
X95117083Y-50921768D01*
X157227344Y-40856026D02*
X157211661Y-40777816D01*
X159403213Y-69995371D02*
X159328523Y-70023372D01*
X97712452Y-24200000D02*
X97710479Y-24279741D01*
X123863368Y-34494815D02*
X123841930Y-34571647D01*
X145112452Y-33800000D02*
X145110479Y-33879741D01*
X94317712Y-67110270D02*
X94385439Y-67152410D01*
X142581499Y-32474723D02*
X142648163Y-32430921D01*
X208700345Y-63409369D02*
X208620878Y-63402472D01*
X160380980Y-40182981D02*
X160394724Y-40261554D01*
X159097440Y-42084780D02*
X159018703Y-42097551D01*
X91911661Y-68777816D02*
X91899865Y-68698927D01*
X94836535Y-67597960D02*
X94879509Y-67665161D01*
X185991986Y-62219551D02*
X185988041Y-62139883D01*
X142186184Y-60865178D02*
X142234022Y-60801349D01*
X94919107Y-69265595D02*
X94879509Y-69334838D01*
X160134022Y-51201349D02*
X160184958Y-51139963D01*
X127900000Y-46000000D02*
X135450000Y-46000000D01*
X161141849Y-22608346D02*
X161220878Y-22597527D01*
X187500345Y-63709369D02*
X187420878Y-63702472D01*
X92859984Y-67020006D02*
X92933958Y-66990166D01*
X162819107Y-24965595D02*
X162779509Y-25034838D01*
X94028523Y-38976627D02*
X94103213Y-39004628D01*
X123250999Y-35402152D02*
X123185439Y-35447589D01*
X145016719Y-34347324D02*
X144987796Y-34421662D01*
X121195619Y-63274880D02*
X121138868Y-63218827D01*
X160316719Y-69047324D02*
X160287796Y-69121662D01*
X114350000Y-47001500D02*
X114350000Y-48000000D01*
X186334022Y-63098650D02*
X186286184Y-63034821D01*
X91927344Y-40856026D02*
X91911661Y-40777816D01*
X123117712Y-35489729D02*
X123047985Y-35528467D01*
X117350000Y-46000000D02*
X124900000Y-46000000D01*
X208463451Y-32223060D02*
X208541849Y-32208346D01*
X161300345Y-50590630D02*
X161380056Y-50587671D01*
X159097440Y-70084780D02*
X159018703Y-70097551D01*
X123540888Y-33070341D02*
X123590290Y-33132967D01*
X92186184Y-69434821D02*
X92141562Y-69368704D01*
X210090290Y-34767032D02*
X210040888Y-34829658D01*
X96776426Y-50736289D02*
X96847985Y-50771532D01*
X142517083Y-32521768D02*
X142581499Y-32474723D01*
X123841930Y-61628352D02*
X123863368Y-61705184D01*
X97436535Y-23297960D02*
X97479509Y-23365161D01*
X188550999Y-35402152D02*
X188485439Y-35447589D01*
X97694724Y-51961554D02*
X97704564Y-52040711D01*
X95094724Y-68738445D02*
X95080980Y-68817018D01*
X97174982Y-53401837D02*
X97114232Y-53453528D01*
X158159984Y-67020006D02*
X158233958Y-66990166D01*
X185991986Y-34219551D02*
X185988041Y-34139883D01*
X147500000Y-55166666D02*
X147500000Y-48000000D01*
X189141930Y-34571647D02*
X189116719Y-34647324D01*
X162640888Y-25229658D02*
X162588449Y-25289765D01*
X210090290Y-62767032D02*
X210040888Y-62829658D01*
X160179509Y-41334838D02*
X160136535Y-41402039D01*
X121448163Y-60730921D02*
X121516911Y-60690470D01*
X93480056Y-70112328D02*
X93400345Y-70109369D01*
X142284958Y-34860036D02*
X142234022Y-34798650D01*
X96000345Y-53809369D02*
X95920878Y-53802472D01*
X162994724Y-24438445D02*
X162980980Y-24517018D01*
X144574982Y-60598162D02*
X144633102Y-60652794D01*
X189163368Y-62494815D02*
X189141930Y-62571647D01*
X142395619Y-32625119D02*
X142455072Y-32571941D01*
X182650000Y-48000000D02*
X182650000Y-47001500D01*
X148499000Y-58166666D02*
X148501000Y-58166666D01*
X162003213Y-25695371D02*
X161928523Y-25723372D01*
X157227344Y-40143973D02*
X157246875Y-40066635D01*
X160255232Y-69194478D02*
X160219107Y-69265595D01*
X143320878Y-60197527D02*
X143400345Y-60190630D01*
X94527344Y-52556026D02*
X94511661Y-52477816D01*
X162350999Y-22897847D02*
X162414232Y-22946471D01*
X91899865Y-40698927D02*
X91891986Y-40619551D01*
X160985878Y-53758366D02*
X160909317Y-53735979D01*
X122200345Y-35709369D02*
X122120878Y-35702472D01*
X189019107Y-33334404D02*
X189055232Y-33405521D01*
X157188041Y-68460116D02*
X157191986Y-68380448D01*
X160833958Y-22690166D02*
X160909317Y-22664020D01*
X97694724Y-24438445D02*
X97680980Y-24517018D01*
X92028035Y-41158271D02*
X91997282Y-41084672D01*
X148501000Y-58166666D02*
X149500000Y-58166666D01*
X187420878Y-32497527D02*
X187500345Y-32490630D01*
X207584958Y-62860036D02*
X207534022Y-62798650D01*
X97288449Y-53289765D02*
X97233102Y-53347205D01*
X143400345Y-63409369D02*
X143320878Y-63402472D01*
X123433102Y-32952794D02*
X123488449Y-33010234D01*
X207400263Y-34600461D02*
X207362390Y-34530260D01*
X158016911Y-41909529D02*
X157948163Y-41869078D01*
X94103213Y-67004628D02*
X94176426Y-67036289D01*
X160255232Y-41194478D02*
X160219107Y-41265595D01*
X96318703Y-53797551D02*
X96239430Y-53806412D01*
X160090290Y-67532967D02*
X160136535Y-67597960D01*
X121255072Y-35328058D02*
X121195619Y-35274880D01*
X160548163Y-25569078D02*
X160481499Y-25525276D01*
X142141562Y-34668704D02*
X142100263Y-34600461D01*
X159252540Y-70047646D02*
X159175449Y-70068132D01*
X95041930Y-68971647D02*
X95016719Y-69047324D01*
X189055232Y-61405521D02*
X189087796Y-61478337D01*
X162736535Y-25102039D02*
X162690290Y-25167032D01*
X159846875Y-52633364D02*
X159827344Y-52556026D01*
X186128035Y-33441728D02*
X186162390Y-33369739D01*
X92395619Y-39325119D02*
X92455072Y-39271941D01*
X157400263Y-39699538D02*
X157441562Y-39631295D01*
X123910479Y-34179741D02*
X123904564Y-34259288D01*
X162690290Y-25167032D02*
X162640888Y-25229658D01*
X207297282Y-61215327D02*
X207328035Y-61141728D01*
X142787576Y-63246531D02*
X142716911Y-63209529D01*
X92455072Y-69728058D02*
X92395619Y-69674880D01*
X189116719Y-62647324D02*
X189087796Y-62721662D01*
X97710479Y-24120258D02*
X97712452Y-24200000D01*
X162736535Y-53102039D02*
X162690290Y-53167032D01*
X142395619Y-60625119D02*
X142455072Y-60571941D01*
X208087576Y-32353468D02*
X208159984Y-32320006D01*
X93085878Y-38941633D02*
X93163451Y-38923060D01*
X157441562Y-67631295D02*
X157486184Y-67565178D01*
X188052540Y-60552353D02*
X188128523Y-60576627D01*
X157755072Y-39271941D02*
X157817083Y-39221768D01*
X122518703Y-60502448D02*
X122597440Y-60515219D01*
X147500000Y-38833333D02*
X148499000Y-38833333D01*
X123787796Y-34721662D02*
X123755232Y-34794478D01*
X160295619Y-53374880D02*
X160238868Y-53318827D01*
X143009317Y-35335979D02*
X142933958Y-35309833D01*
X123047985Y-60671532D02*
X123117712Y-60710270D01*
X162994724Y-52438445D02*
X162980980Y-52517018D01*
X162941930Y-52671647D02*
X162916719Y-52747324D01*
X120797282Y-34684672D02*
X120770206Y-34609641D01*
X160040888Y-67470341D02*
X160090290Y-67532967D01*
X186070206Y-33590358D02*
X186097282Y-33515327D01*
X121733958Y-63609833D02*
X121659984Y-63579993D01*
X94987796Y-41121662D02*
X94955232Y-41194478D01*
X123910479Y-34020258D02*
X123912452Y-34100000D01*
X142933958Y-32290166D02*
X143009317Y-32264020D01*
X141899865Y-61601072D02*
X141911661Y-61522183D01*
X121516911Y-32690470D02*
X121587576Y-32653468D01*
X94385439Y-69847589D02*
X94317712Y-69889729D01*
X209933102Y-34947205D02*
X209874982Y-35001837D01*
X96397440Y-53784780D02*
X96318703Y-53797551D01*
X94879509Y-67665161D02*
X94919107Y-67734404D01*
X91891986Y-68619551D02*
X91888041Y-68539883D01*
X210219107Y-61034404D02*
X210255232Y-61105521D01*
X92234022Y-69498650D02*
X92186184Y-69434821D01*
X209403213Y-63295371D02*
X209328523Y-63323372D01*
X94247985Y-39071532D02*
X94317712Y-39110270D01*
X93718703Y-70097551D02*
X93639430Y-70106412D01*
X187263451Y-63676939D02*
X187185878Y-63658366D01*
X208233958Y-63309833D02*
X208159984Y-63279993D01*
X160833958Y-53709833D02*
X160759984Y-53679993D01*
X143163451Y-35376939D02*
X143085878Y-35358366D01*
X144633102Y-62947205D02*
X144574982Y-63001837D01*
X210363368Y-33405184D02*
X210380980Y-33482981D01*
X207948163Y-35169078D02*
X207881499Y-35125276D01*
X209252540Y-35347646D02*
X209175449Y-35368132D01*
X209547985Y-60371532D02*
X209617712Y-60410270D01*
X123590290Y-33132967D02*
X123636535Y-33197960D01*
X208859816Y-32188657D02*
X208939430Y-32193587D01*
X162963368Y-23805184D02*
X162980980Y-23882981D01*
X157881499Y-69825276D02*
X157817083Y-69778231D01*
X96159816Y-25811342D02*
X96080056Y-25812328D01*
X157270206Y-41009641D02*
X157246875Y-40933364D01*
X120746875Y-62533364D02*
X120727344Y-62456026D01*
X145016719Y-33252675D02*
X145041930Y-33328352D01*
X94884958Y-53260036D02*
X94834022Y-53198650D01*
X208159984Y-32320006D02*
X208233958Y-32290166D01*
X96080056Y-25812328D02*
X96000345Y-25809369D01*
X94688449Y-41589765D02*
X94633102Y-41647205D01*
X123912452Y-62100000D02*
X123910479Y-62179741D01*
X210219107Y-34565595D02*
X210179509Y-34634838D01*
X157191986Y-40619551D02*
X157188041Y-40539883D01*
X188788449Y-33010234D02*
X188840888Y-33070341D01*
X186816911Y-35509529D02*
X186748163Y-35469078D01*
X96239430Y-25806412D02*
X96159816Y-25811342D01*
X96847985Y-53628467D02*
X96776426Y-53663710D01*
X189141930Y-62571647D02*
X189116719Y-62647324D01*
X186128035Y-62758271D02*
X186097282Y-62684672D01*
X120797282Y-62684672D02*
X120770206Y-62609641D01*
X95094724Y-40261554D02*
X95104564Y-40340711D01*
X189163368Y-34494815D02*
X189141930Y-34571647D01*
X193200000Y-48000000D02*
X193200000Y-47001500D01*
X160687576Y-53646531D02*
X160616911Y-53609529D01*
X162414232Y-25453528D02*
X162350999Y-25502152D01*
X91946875Y-40066635D02*
X91970206Y-39990358D01*
X141911661Y-61522183D02*
X141927344Y-61443973D01*
X103800000Y-47001500D02*
X103800000Y-48000000D01*
X123374982Y-35301837D02*
X123314232Y-35353528D01*
X145104564Y-33640711D02*
X145110479Y-33720258D01*
X97233102Y-23052794D02*
X97288449Y-23110234D01*
X145080980Y-34117018D02*
X145063368Y-34194815D01*
X95763451Y-53776939D02*
X95685878Y-53758366D01*
X135450000Y-48000000D02*
X127900000Y-48000000D01*
X162533102Y-51052794D02*
X162588449Y-51110234D01*
X92141562Y-41368704D02*
X92100263Y-41300461D01*
X120828035Y-61441728D02*
X120862390Y-61369739D01*
X186617083Y-63378231D02*
X186555072Y-63328058D01*
X94103213Y-69995371D02*
X94028523Y-70023372D01*
X187500345Y-35709369D02*
X187420878Y-35702472D01*
X207948163Y-63169078D02*
X207881499Y-63125276D01*
X143797440Y-35384780D02*
X143718703Y-35397551D01*
X122903213Y-63595371D02*
X122828523Y-63623372D01*
X122359816Y-63711342D02*
X122280056Y-63712328D01*
X124900000Y-48000000D02*
X117350000Y-48000000D01*
X94317712Y-39110270D02*
X94385439Y-39152410D01*
X162147985Y-25628467D02*
X162076426Y-25663710D01*
X121448163Y-35469078D02*
X121381499Y-35425276D01*
X144740888Y-34829658D02*
X144688449Y-34889765D01*
X97519107Y-52965595D02*
X97479509Y-53034838D01*
X91927344Y-40143973D02*
X91946875Y-40066635D01*
X95609317Y-53735979D02*
X95533958Y-53709833D01*
X92284958Y-41560036D02*
X92234022Y-41498650D01*
X93718703Y-66902448D02*
X93797440Y-66915219D01*
X92028035Y-69158271D02*
X91997282Y-69084672D01*
X186097282Y-62684672D02*
X186070206Y-62609641D01*
X186617083Y-60821768D02*
X186681499Y-60774723D01*
X158859816Y-66888657D02*
X158939430Y-66893587D01*
X121084958Y-35160036D02*
X121034022Y-35098650D01*
X94834022Y-53198650D02*
X94786184Y-53134821D01*
X96552540Y-22652353D02*
X96628523Y-22676627D01*
X120828035Y-62758271D02*
X120797282Y-62684672D01*
X209617712Y-60410270D02*
X209685439Y-60452410D01*
X160238868Y-51081172D02*
X160295619Y-51025119D01*
X144987796Y-62421662D02*
X144955232Y-62494478D01*
X121381499Y-32774723D02*
X121448163Y-32730921D01*
X122120878Y-63702472D02*
X122041849Y-63691653D01*
X120941562Y-34968704D02*
X120900263Y-34900461D01*
X208620878Y-60197527D02*
X208700345Y-60190630D01*
X207817083Y-35078231D02*
X207755072Y-35028058D01*
X144385439Y-60452410D02*
X144450999Y-60497847D01*
X92062390Y-41230260D02*
X92028035Y-41158271D01*
X158463451Y-70076939D02*
X158385878Y-70058366D01*
X123679509Y-33265161D02*
X123719107Y-33334404D01*
X144836535Y-62702039D02*
X144790290Y-62767032D01*
X94740888Y-69529658D02*
X94688449Y-69589765D01*
X127900000Y-48000000D02*
X127900000Y-47001500D01*
X120941562Y-33231295D02*
X120986184Y-33165178D01*
X157199865Y-40698927D02*
X157191986Y-40619551D01*
X120770206Y-33590358D02*
X120797282Y-33515327D01*
X159252540Y-38952353D02*
X159328523Y-38976627D01*
X142284958Y-60739963D02*
X142338868Y-60681172D01*
X94790290Y-41467032D02*
X94740888Y-41529658D01*
X161697440Y-53784780D02*
X161618703Y-53797551D01*
X93952540Y-42047646D02*
X93875449Y-42068132D01*
X160404564Y-68340711D02*
X160410479Y-68420258D01*
X143559816Y-32188657D02*
X143639430Y-32193587D01*
X92186184Y-41434821D02*
X92141562Y-41368704D01*
X122828523Y-60576627D02*
X122903213Y-60604628D01*
X142716911Y-63209529D02*
X142648163Y-63169078D01*
X94628035Y-23541728D02*
X94662390Y-23469739D01*
X188614232Y-63353528D02*
X188550999Y-63402152D01*
X120691986Y-33980448D02*
X120699865Y-33901072D01*
X96552540Y-25747646D02*
X96475449Y-25768132D01*
X144879509Y-60965161D02*
X144919107Y-61034404D01*
X162690290Y-51232967D02*
X162736535Y-51297960D01*
X158550000Y-46999500D02*
X158550000Y-47001500D01*
X142648163Y-60430921D02*
X142716911Y-60390470D01*
X123719107Y-62865595D02*
X123679509Y-62934838D01*
X208939430Y-32193587D02*
X209018703Y-32202448D01*
X94499865Y-24001072D02*
X94511661Y-23922183D01*
X96080056Y-50587671D02*
X96159816Y-50588657D01*
X188417712Y-60710270D02*
X188485439Y-60752410D01*
X144514232Y-32546471D02*
X144574982Y-32598162D01*
X158087576Y-39053468D02*
X158159984Y-39020006D01*
X209933102Y-60652794D02*
X209988449Y-60710234D01*
X162285439Y-53547589D02*
X162217712Y-53589729D01*
X94511661Y-23922183D02*
X94527344Y-23843973D01*
X122518703Y-35697551D02*
X122439430Y-35706412D01*
X161928523Y-50676627D02*
X162003213Y-50704628D01*
X117350000Y-48000000D02*
X117350000Y-47001500D01*
X94103213Y-39004628D02*
X94176426Y-39036289D01*
X160295619Y-23025119D02*
X160355072Y-22971941D01*
X187263451Y-60523060D02*
X187341849Y-60508346D01*
X145112452Y-61800000D02*
X145110479Y-61879741D01*
X209175449Y-60231867D02*
X209252540Y-60252353D01*
X161618703Y-22602448D02*
X161697440Y-22615219D01*
X95181499Y-50874723D02*
X95248163Y-50830921D01*
X208939430Y-35406412D02*
X208859816Y-35411342D01*
X186200263Y-61299538D02*
X186241562Y-61231295D01*
X94385439Y-67152410D02*
X94450999Y-67197847D01*
X92338868Y-39381172D02*
X92395619Y-39325119D01*
X97436535Y-51297960D02*
X97479509Y-51365161D01*
X188840888Y-35129658D02*
X188788449Y-35189765D01*
X207638868Y-34918827D02*
X207584958Y-34860036D01*
X187263451Y-35676939D02*
X187185878Y-35658366D01*
X188733102Y-32952794D02*
X188788449Y-33010234D01*
X161775449Y-25768132D02*
X161697440Y-25784780D01*
X185988041Y-34139883D02*
X185988041Y-34060116D01*
X121809317Y-60564020D02*
X121885878Y-60541633D01*
X141927344Y-33443973D02*
X141946875Y-33366635D01*
X209933102Y-62947205D02*
X209874982Y-63001837D01*
X207297282Y-34384672D02*
X207270206Y-34309641D01*
X208016911Y-60390470D02*
X208087576Y-60353468D01*
X207755072Y-35028058D02*
X207695619Y-34974880D01*
X209097440Y-63384780D02*
X209018703Y-63397551D01*
X190200000Y-46000000D02*
X190200000Y-46999500D01*
X94790290Y-39532967D02*
X94836535Y-39597960D01*
X122359816Y-60488657D02*
X122439430Y-60493587D01*
X157584958Y-67439963D02*
X157638868Y-67381172D01*
X210287796Y-62421662D02*
X210255232Y-62494478D01*
X94247985Y-41928467D02*
X94176426Y-41963710D01*
X209750999Y-60497847D02*
X209814232Y-60546471D01*
X159252540Y-42047646D02*
X159175449Y-42068132D01*
X144385439Y-32452410D02*
X144450999Y-32497847D01*
X207270206Y-33290358D02*
X207297282Y-33215327D01*
X97663368Y-52594815D02*
X97641930Y-52671647D01*
X188979509Y-62934838D02*
X188936535Y-63002039D01*
X148499000Y-38833333D02*
X148501000Y-38833333D01*
X142141562Y-62668704D02*
X142100263Y-62600461D01*
X207362390Y-62530260D02*
X207328035Y-62458271D01*
X209403213Y-60304628D02*
X209476426Y-60336289D01*
X207638868Y-62918827D02*
X207584958Y-62860036D01*
X208016911Y-35209529D02*
X207948163Y-35169078D01*
X92338868Y-69618827D02*
X92284958Y-69560036D01*
X121138868Y-32981172D02*
X121195619Y-32925119D01*
X92581499Y-41825276D02*
X92517083Y-41778231D01*
X162003213Y-22704628D02*
X162076426Y-22736289D01*
X186011661Y-62377816D02*
X185999865Y-62298927D01*
X123250999Y-32797847D02*
X123314232Y-32846471D01*
X157270206Y-69009641D02*
X157246875Y-68933364D01*
X121255072Y-60871941D02*
X121317083Y-60821768D01*
X141946875Y-62233364D02*
X141927344Y-62156026D01*
X158541849Y-42091653D02*
X158463451Y-42076939D01*
X120711661Y-62377816D02*
X120699865Y-62298927D01*
X159846875Y-51766635D02*
X159870206Y-51690358D01*
X159547985Y-67071532D02*
X159617712Y-67110270D01*
X94662390Y-52930260D02*
X94628035Y-52858271D01*
X210040888Y-62829658D02*
X209988449Y-62889765D01*
X188840888Y-63129658D02*
X188788449Y-63189765D01*
X97710479Y-52279741D02*
X97704564Y-52359288D01*
X209097440Y-32215219D02*
X209175449Y-32231867D01*
X159097440Y-66915219D02*
X159175449Y-66931867D01*
X209685439Y-63147589D02*
X209617712Y-63189729D01*
X210394724Y-34038445D02*
X210380980Y-34117018D01*
X96985439Y-22852410D02*
X97050999Y-22897847D01*
X93639430Y-42106412D02*
X93559816Y-42111342D01*
X160184958Y-23139963D02*
X160238868Y-23081172D01*
X210410479Y-33879741D02*
X210404564Y-33959288D01*
X160363368Y-40894815D02*
X160341930Y-40971647D01*
X207534022Y-60801349D02*
X207584958Y-60739963D01*
X121659984Y-63579993D02*
X121587576Y-63546531D01*
X188674982Y-63301837D02*
X188614232Y-63353528D01*
X161300345Y-22590630D02*
X161380056Y-22587671D01*
X122041849Y-63691653D02*
X121963451Y-63676939D01*
X97641930Y-24671647D02*
X97616719Y-24747324D01*
X94450999Y-69802152D02*
X94385439Y-69847589D01*
X157246875Y-68933364D02*
X157227344Y-68856026D01*
X160134022Y-25198650D02*
X160086184Y-25134821D01*
X186011661Y-34377816D02*
X185999865Y-34298927D01*
X159827344Y-24556026D02*
X159811661Y-24477816D01*
X94938868Y-25318827D02*
X94884958Y-25260036D01*
X122675449Y-32531867D02*
X122752540Y-32552353D01*
X159897282Y-24784672D02*
X159870206Y-24709641D01*
X142028035Y-61141728D02*
X142062390Y-61069739D01*
X160090290Y-69467032D02*
X160040888Y-69529658D01*
X186438868Y-35218827D02*
X186384958Y-35160036D01*
X91970206Y-39990358D02*
X91997282Y-39915327D01*
X207638868Y-32681172D02*
X207695619Y-32625119D01*
X160086184Y-51265178D02*
X160134022Y-51201349D01*
X122597440Y-32515219D02*
X122675449Y-32531867D01*
X186286184Y-33165178D02*
X186334022Y-33101349D01*
X207441562Y-62668704D02*
X207400263Y-62600461D01*
X160410479Y-40579741D02*
X160404564Y-40659288D01*
X207755072Y-60571941D02*
X207817083Y-60521768D01*
X207227344Y-61443973D02*
X207246875Y-61366635D01*
X143639430Y-63406412D02*
X143559816Y-63411342D01*
X93241849Y-38908346D02*
X93320878Y-38897527D01*
X187500345Y-32490630D02*
X187580056Y-32487671D01*
X141997282Y-34384672D02*
X141970206Y-34309641D01*
X185988041Y-62060116D02*
X185991986Y-61980448D01*
X95104564Y-40659288D02*
X95094724Y-40738445D01*
X189055232Y-62794478D02*
X189019107Y-62865595D01*
X157400263Y-67699538D02*
X157441562Y-67631295D01*
X93009317Y-42035979D02*
X92933958Y-42009833D01*
X188890290Y-33132967D02*
X188936535Y-33197960D01*
X143241849Y-32208346D02*
X143320878Y-32197527D01*
X159827344Y-51843973D02*
X159846875Y-51766635D01*
X97616719Y-24747324D02*
X97587796Y-24821662D01*
X123636535Y-33197960D02*
X123679509Y-33265161D01*
X142234022Y-62798650D02*
X142186184Y-62734821D01*
X189194724Y-33861554D02*
X189204564Y-33940711D01*
X97114232Y-53453528D02*
X97050999Y-53502152D01*
X162941930Y-23728352D02*
X162963368Y-23805184D01*
X94450999Y-41802152D02*
X94385439Y-41847589D01*
X159018703Y-42097551D02*
X158939430Y-42106412D01*
X142028035Y-62458271D02*
X141997282Y-62384672D01*
X157584958Y-69560036D02*
X157534022Y-69498650D01*
X157270206Y-67990358D02*
X157297282Y-67915327D01*
X179650000Y-48000000D02*
X172100000Y-48000000D01*
X162887796Y-24821662D02*
X162855232Y-24894478D01*
X142648163Y-35169078D02*
X142581499Y-35125276D01*
X157297282Y-41084672D02*
X157270206Y-41009641D01*
X122439430Y-60493587D02*
X122518703Y-60502448D01*
X120691986Y-34219551D02*
X120688041Y-34139883D01*
X143480056Y-63412328D02*
X143400345Y-63409369D01*
X160759984Y-25679993D02*
X160687576Y-25646531D01*
X103800000Y-46999500D02*
X103800000Y-47001500D01*
X160394724Y-40738445D02*
X160380980Y-40817018D01*
X157441562Y-41368704D02*
X157400263Y-41300461D01*
X158859816Y-70111342D02*
X158780056Y-70112328D01*
X141927344Y-34156026D02*
X141911661Y-34077816D01*
X124900000Y-47001500D02*
X124900000Y-48000000D01*
X186162390Y-61369739D02*
X186200263Y-61299538D01*
X159897282Y-52784672D02*
X159870206Y-52709641D01*
X147500000Y-30166666D02*
X148499000Y-30166666D01*
X144790290Y-32832967D02*
X144836535Y-32897960D01*
X95316911Y-22790470D02*
X95387576Y-22753468D01*
X95685878Y-50641633D02*
X95763451Y-50623060D01*
X160238868Y-53318827D02*
X160184958Y-53260036D01*
X144919107Y-34565595D02*
X144879509Y-34634838D01*
X160184958Y-51139963D02*
X160238868Y-51081172D01*
X97587796Y-52821662D02*
X97555232Y-52894478D01*
X120711661Y-33822183D02*
X120727344Y-33743973D01*
X144633102Y-34947205D02*
X144574982Y-35001837D01*
X120862390Y-61369739D02*
X120900263Y-61299538D01*
X122120878Y-32497527D02*
X122200345Y-32490630D01*
X141899865Y-33998927D02*
X141891986Y-33919551D01*
X210136535Y-32897960D02*
X210179509Y-32965161D01*
X142186184Y-32865178D02*
X142234022Y-32801349D01*
X121885878Y-60541633D02*
X121963451Y-60523060D01*
X123117712Y-63489729D02*
X123047985Y-63528467D01*
X162076426Y-50736289D02*
X162147985Y-50771532D01*
X143320878Y-32197527D02*
X143400345Y-32190630D01*
X142186184Y-62734821D02*
X142141562Y-62668704D01*
X120746875Y-61666635D02*
X120770206Y-61590358D01*
X141970206Y-33290358D02*
X141997282Y-33215327D01*
X94488041Y-24239883D02*
X94488041Y-24160116D01*
X186027344Y-62456026D02*
X186011661Y-62377816D01*
X160255232Y-39805521D02*
X160287796Y-39878337D01*
X161063451Y-25776939D02*
X160985878Y-25758366D01*
X157534022Y-69498650D02*
X157486184Y-69434821D01*
X144879509Y-34634838D02*
X144836535Y-34702039D01*
X122200345Y-63709369D02*
X122120878Y-63702472D01*
X122359816Y-35711342D02*
X122280056Y-35712328D01*
X159870206Y-52709641D02*
X159846875Y-52633364D01*
X145063368Y-34194815D02*
X145041930Y-34271647D01*
X122518703Y-63697551D02*
X122439430Y-63706412D01*
X208939430Y-60193587D02*
X209018703Y-60202448D01*
X97641930Y-51728352D02*
X97663368Y-51805184D01*
X187897440Y-32515219D02*
X187975449Y-32531867D01*
X122597440Y-35684780D02*
X122518703Y-35697551D01*
X148501000Y-27166666D02*
X148499000Y-27166666D01*
X187818703Y-60502448D02*
X187897440Y-60515219D01*
X94570206Y-24709641D02*
X94546875Y-24633364D01*
X93400345Y-42109369D02*
X93320878Y-42102472D01*
X95248163Y-50830921D02*
X95316911Y-50790470D01*
X97479509Y-53034838D02*
X97436535Y-53102039D01*
X162350999Y-53502152D02*
X162285439Y-53547589D01*
X96628523Y-25723372D02*
X96552540Y-25747646D01*
X121381499Y-60774723D02*
X121448163Y-60730921D01*
X207817083Y-60521768D02*
X207881499Y-60474723D01*
X95041930Y-40028352D02*
X95063368Y-40105184D01*
X157817083Y-39221768D02*
X157881499Y-39174723D01*
X207362390Y-61069739D02*
X207400263Y-60999538D01*
X187341849Y-32508346D02*
X187420878Y-32497527D01*
X97680980Y-51882981D02*
X97694724Y-51961554D01*
X142062390Y-61069739D02*
X142100263Y-60999538D01*
X123117712Y-60710270D02*
X123185439Y-60752410D01*
X163012452Y-52200000D02*
X163010479Y-52279741D01*
X161852540Y-22652353D02*
X161928523Y-22676627D01*
X123816719Y-33552675D02*
X123841930Y-33628352D01*
X143163451Y-32223060D02*
X143241849Y-32208346D01*
X144514232Y-35053528D02*
X144450999Y-35102152D01*
X143241849Y-60208346D02*
X143320878Y-60197527D01*
X95104564Y-40340711D02*
X95110479Y-40420258D01*
X95117083Y-25478231D02*
X95055072Y-25428058D01*
X121587576Y-32653468D02*
X121659984Y-32620006D01*
X188052540Y-63647646D02*
X187975449Y-63668132D01*
X160481499Y-22874723D02*
X160548163Y-22830921D01*
X122439430Y-35706412D02*
X122359816Y-35711342D01*
X188276426Y-32636289D02*
X188347985Y-32671532D01*
X188128523Y-60576627D02*
X188203213Y-60604628D01*
X94491986Y-52319551D02*
X94488041Y-52239883D01*
X160363368Y-40105184D02*
X160380980Y-40182981D01*
X95920878Y-22597527D02*
X96000345Y-22590630D01*
X123250999Y-60797847D02*
X123314232Y-60846471D01*
X94450999Y-39197847D02*
X94514232Y-39246471D01*
X145110479Y-61720258D02*
X145112452Y-61800000D01*
X207297282Y-33215327D02*
X207328035Y-33141728D01*
X141927344Y-62156026D02*
X141911661Y-62077816D01*
X149500000Y-27166666D02*
X148501000Y-27166666D01*
X95533958Y-22690166D02*
X95609317Y-22664020D01*
X188733102Y-60952794D02*
X188788449Y-61010234D01*
X161380056Y-22587671D02*
X161459816Y-22588657D01*
X143400345Y-35409369D02*
X143320878Y-35402472D01*
X160616911Y-50790470D02*
X160687576Y-50753468D01*
X186334022Y-35098650D02*
X186286184Y-35034821D01*
X91997282Y-39915327D02*
X92028035Y-39841728D01*
X188347985Y-60671532D02*
X188417712Y-60710270D01*
X147500000Y-63833333D02*
X147500000Y-58166666D01*
X186334022Y-61101349D02*
X186384958Y-61039963D01*
X121516911Y-35509529D02*
X121448163Y-35469078D01*
X209685439Y-60452410D02*
X209750999Y-60497847D01*
X187580056Y-63712328D02*
X187500345Y-63709369D01*
X144176426Y-60336289D02*
X144247985Y-60371532D01*
X94834022Y-25198650D02*
X94786184Y-25134821D01*
X207400263Y-32999538D02*
X207441562Y-32931295D01*
X159476426Y-67036289D02*
X159547985Y-67071532D01*
X142933958Y-35309833D02*
X142859984Y-35279993D01*
X103800000Y-46000000D02*
X103800000Y-46999500D01*
X162640888Y-51170341D02*
X162690290Y-51232967D01*
X159788041Y-24160116D02*
X159791986Y-24080448D01*
X209476426Y-35263710D02*
X209403213Y-35295371D01*
X123755232Y-33405521D02*
X123787796Y-33478337D01*
X92716911Y-39090470D02*
X92787576Y-39053468D01*
X123047985Y-63528467D02*
X122976426Y-63563710D01*
X208309317Y-60264020D02*
X208385878Y-60241633D01*
X141891986Y-33680448D02*
X141899865Y-33601072D01*
X157638868Y-39381172D02*
X157695619Y-39325119D01*
X188128523Y-63623372D02*
X188052540Y-63647646D01*
X94511661Y-52477816D02*
X94499865Y-52398927D01*
X123910479Y-62179741D02*
X123904564Y-62259288D01*
X142581499Y-63125276D02*
X142517083Y-63078231D01*
X186334022Y-33101349D02*
X186384958Y-33039963D01*
X188276426Y-63563710D02*
X188203213Y-63595371D01*
X160985878Y-25758366D02*
X160909317Y-25735979D01*
X182650000Y-47001500D02*
X182650000Y-46999500D01*
X94688449Y-69589765D02*
X94633102Y-69647205D01*
X92517083Y-67221768D02*
X92581499Y-67174723D01*
X122752540Y-60552353D02*
X122828523Y-60576627D01*
X93559816Y-66888657D02*
X93639430Y-66893587D01*
X96985439Y-25547589D02*
X96917712Y-25589729D01*
X158620878Y-42102472D02*
X158541849Y-42091653D01*
X188347985Y-35528467D02*
X188276426Y-35563710D01*
X207817083Y-63078231D02*
X207755072Y-63028058D01*
X157534022Y-39501349D02*
X157584958Y-39439963D01*
X92716911Y-67090470D02*
X92787576Y-67053468D01*
X149500000Y-74000000D02*
X212800000Y-74000000D01*
X142100263Y-62600461D02*
X142062390Y-62530260D01*
X157328035Y-69158271D02*
X157297282Y-69084672D01*
X147500000Y-58166666D02*
X148499000Y-58166666D01*
X94488041Y-52160116D02*
X94491986Y-52080448D01*
X94633102Y-67352794D02*
X94688449Y-67410234D01*
X158550000Y-46000000D02*
X158550000Y-46999500D01*
X207400263Y-60999538D02*
X207441562Y-60931295D01*
X93250000Y-46999500D02*
X93250000Y-47001500D01*
X144919107Y-33034404D02*
X144955232Y-33105521D01*
X122675449Y-63668132D02*
X122597440Y-63684780D01*
X186011661Y-61822183D02*
X186027344Y-61743973D01*
X161459816Y-22588657D02*
X161539430Y-22593587D01*
X91888041Y-40460116D02*
X91891986Y-40380448D01*
X188485439Y-35447589D02*
X188417712Y-35489729D01*
X141911661Y-62077816D02*
X141899865Y-61998927D01*
X92933958Y-66990166D02*
X93009317Y-66964020D01*
X160136535Y-39597960D02*
X160179509Y-39665161D01*
X122439430Y-32493587D02*
X122518703Y-32502448D01*
X187659816Y-60488657D02*
X187739430Y-60493587D01*
X144688449Y-34889765D02*
X144633102Y-34947205D01*
X212800000Y-74000000D02*
X212800000Y-48000000D01*
X97233102Y-25347205D02*
X97174982Y-25401837D01*
X209175449Y-35368132D02*
X209097440Y-35384780D01*
X208233958Y-60290166D02*
X208309317Y-60264020D01*
X123488449Y-35189765D02*
X123433102Y-35247205D01*
X123894724Y-61861554D02*
X123904564Y-61940711D01*
X186070206Y-62609641D02*
X186046875Y-62533364D01*
X188979509Y-33265161D02*
X189019107Y-33334404D01*
X121381499Y-35425276D02*
X121317083Y-35378231D01*
X160255232Y-67805521D02*
X160287796Y-67878337D01*
X160238868Y-23081172D02*
X160295619Y-23025119D01*
X210404564Y-61640711D02*
X210410479Y-61720258D01*
X121885878Y-63658366D02*
X121809317Y-63635979D01*
X95841849Y-53791653D02*
X95763451Y-53776939D01*
X160086184Y-25134821D02*
X160041562Y-25068704D01*
X142455072Y-32571941D02*
X142517083Y-32521768D01*
X94884958Y-23139963D02*
X94938868Y-23081172D01*
X96250000Y-47001500D02*
X96250000Y-46999500D01*
X212800000Y-20000000D02*
X149500000Y-20000000D01*
X92028035Y-39841728D02*
X92062390Y-39769739D01*
X95459984Y-22720006D02*
X95533958Y-22690166D01*
X179650000Y-46999500D02*
X179650000Y-47001500D01*
X187263451Y-32523060D02*
X187341849Y-32508346D01*
X135450000Y-47001500D02*
X135450000Y-48000000D01*
X159897282Y-51615327D02*
X159928035Y-51541728D01*
X162736535Y-51297960D02*
X162779509Y-51365161D01*
X209814232Y-63053528D02*
X209750999Y-63102152D01*
X159097440Y-38915219D02*
X159175449Y-38931867D01*
X162779509Y-23365161D02*
X162819107Y-23434404D01*
X149500000Y-30166666D02*
X149500000Y-35833333D01*
X123636535Y-61197960D02*
X123679509Y-61265161D01*
X143085878Y-32241633D02*
X143163451Y-32223060D01*
X123880980Y-62417018D02*
X123863368Y-62494815D01*
X157400263Y-69300461D02*
X157362390Y-69230260D01*
X94499865Y-24398927D02*
X94491986Y-24319551D01*
X142062390Y-62530260D02*
X142028035Y-62458271D01*
X188347985Y-63528467D02*
X188276426Y-63563710D01*
X123880980Y-61782981D02*
X123894724Y-61861554D01*
X209403213Y-35295371D02*
X209328523Y-35323372D01*
X186384958Y-33039963D02*
X186438868Y-32981172D01*
X210316719Y-34347324D02*
X210287796Y-34421662D01*
X93163451Y-66923060D02*
X93241849Y-66908346D01*
X123185439Y-35447589D02*
X123117712Y-35489729D01*
X157441562Y-39631295D02*
X157486184Y-39565178D01*
X210287796Y-34421662D02*
X210255232Y-34494478D01*
X210363368Y-62194815D02*
X210341930Y-62271647D01*
X160417083Y-53478231D02*
X160355072Y-53428058D01*
X208087576Y-63246531D02*
X208016911Y-63209529D01*
X114350000Y-46000000D02*
X114350000Y-46999500D01*
X94955232Y-69194478D02*
X94919107Y-69265595D01*
X209018703Y-32202448D02*
X209097440Y-32215219D01*
X207881499Y-32474723D02*
X207948163Y-32430921D01*
X179650000Y-47001500D02*
X179650000Y-48000000D01*
X95609317Y-22664020D02*
X95685878Y-22641633D01*
X160404564Y-40659288D02*
X160394724Y-40738445D01*
X92395619Y-67325119D02*
X92455072Y-67271941D01*
X189210479Y-62020258D02*
X189212452Y-62100000D01*
X114350000Y-48000000D02*
X106800000Y-48000000D01*
X96703213Y-53695371D02*
X96628523Y-53723372D01*
X117350000Y-46999500D02*
X117350000Y-46000000D01*
X94514232Y-67246471D02*
X94574982Y-67298162D01*
X95104564Y-68340711D02*
X95110479Y-68420258D01*
X187033958Y-32590166D02*
X187109317Y-32564020D01*
X188936535Y-33197960D02*
X188979509Y-33265161D01*
X160410479Y-40420258D02*
X160412452Y-40500000D01*
X186046875Y-61666635D02*
X186070206Y-61590358D01*
X94790290Y-69467032D02*
X94740888Y-69529658D01*
X186495619Y-63274880D02*
X186438868Y-63218827D01*
X186495619Y-60925119D02*
X186555072Y-60871941D01*
X157881499Y-67174723D02*
X157948163Y-67130921D01*
X159788041Y-52239883D02*
X159788041Y-52160116D01*
X92234022Y-39501349D02*
X92284958Y-39439963D01*
X169100000Y-48000000D02*
X161550000Y-48000000D01*
X120862390Y-34830260D02*
X120828035Y-34758271D01*
X157695619Y-67325119D02*
X157755072Y-67271941D01*
X120941562Y-62968704D02*
X120900263Y-62900461D01*
X187975449Y-60531867D02*
X188052540Y-60552353D01*
X187109317Y-60564020D02*
X187185878Y-60541633D01*
X91888041Y-68539883D02*
X91888041Y-68460116D01*
X158541849Y-66908346D02*
X158620878Y-66897527D01*
X142581499Y-35125276D02*
X142517083Y-35078231D01*
X160086184Y-53134821D02*
X160041562Y-53068704D01*
X182650000Y-46000000D02*
X190200000Y-46000000D01*
X121733958Y-32590166D02*
X121809317Y-32564020D01*
X91946875Y-68066635D02*
X91970206Y-67990358D01*
X157362390Y-41230260D02*
X157328035Y-41158271D01*
X123755232Y-61405521D02*
X123787796Y-61478337D01*
X207191986Y-33919551D02*
X207188041Y-33839883D01*
X208309317Y-35335979D02*
X208233958Y-35309833D01*
X189204564Y-34259288D02*
X189194724Y-34338445D01*
X122828523Y-63623372D02*
X122752540Y-63647646D01*
X92455072Y-41728058D02*
X92395619Y-41674880D01*
X95112452Y-68500000D02*
X95110479Y-68579741D01*
X210219107Y-33034404D02*
X210255232Y-33105521D01*
X189087796Y-34721662D02*
X189055232Y-34794478D01*
X94955232Y-67805521D02*
X94987796Y-67878337D01*
X160417083Y-25478231D02*
X160355072Y-25428058D01*
X161380056Y-25812328D02*
X161300345Y-25809369D01*
X142100263Y-32999538D02*
X142141562Y-32931295D01*
X187420878Y-35702472D02*
X187341849Y-35691653D01*
X120688041Y-34139883D02*
X120688041Y-34060116D01*
X92581499Y-39174723D02*
X92648163Y-39130921D01*
X95117083Y-53478231D02*
X95055072Y-53428058D01*
X187897440Y-63684780D02*
X187818703Y-63697551D01*
X94574982Y-69701837D02*
X94514232Y-69753528D01*
X142648163Y-63169078D02*
X142581499Y-63125276D01*
X93009317Y-70035979D02*
X92933958Y-70009833D01*
X186681499Y-60774723D02*
X186748163Y-60730921D01*
X163010479Y-52120258D02*
X163012452Y-52200000D01*
X143400345Y-60190630D02*
X143480056Y-60187671D01*
X161550000Y-46999500D02*
X161550000Y-46000000D01*
X121034022Y-61101349D02*
X121084958Y-61039963D01*
X94836535Y-69402039D02*
X94790290Y-69467032D01*
X94879509Y-41334838D02*
X94836535Y-41402039D01*
X93639430Y-66893587D02*
X93718703Y-66902448D01*
X159617712Y-67110270D02*
X159685439Y-67152410D01*
X160909317Y-22664020D02*
X160985878Y-22641633D01*
X157755072Y-41728058D02*
X157695619Y-41674880D01*
X160134022Y-53198650D02*
X160086184Y-53134821D01*
X209814232Y-32546471D02*
X209874982Y-32598162D01*
X208016911Y-32390470D02*
X208087576Y-32353468D01*
X186438868Y-60981172D02*
X186495619Y-60925119D01*
X189212452Y-62100000D02*
X189210479Y-62179741D01*
X97712452Y-52200000D02*
X97710479Y-52279741D01*
X209814232Y-60546471D02*
X209874982Y-60598162D01*
X93320878Y-66897527D02*
X93400345Y-66890630D01*
X120691986Y-61980448D02*
X120699865Y-61901072D01*
X159814232Y-39246471D02*
X159874982Y-39298162D01*
X208309317Y-32264020D02*
X208385878Y-32241633D01*
X143009317Y-63335979D02*
X142933958Y-63309833D01*
X162285439Y-25547589D02*
X162217712Y-25589729D01*
X186097282Y-33515327D02*
X186128035Y-33441728D01*
M02*
