M48
; DRILL file {KiCad 7.0.9} date Sun Jun  9 17:36:49 2024
; FORMAT={-:-/ absolute / inch / decimal}
; #@! TF.CreationDate,2024-06-09T17:36:49-04:00
; #@! TF.GenerationSoftware,Kicad,Pcbnew,7.0.9
; #@! TF.FileFunction,NonPlated,1,2,NPTH
FMAT,2
INCH
; #@! TA.AperFunction,NonPlated,NPTH,ComponentDrill
T1C0.0197
%
G90
G05
T1
X3.6713Y-1.811
X3.6713Y-1.8898
X3.7106Y-1.811
X3.7106Y-1.8898
X3.75Y-1.811
X3.75Y-1.8898
X3.7894Y-1.811
X3.7894Y-1.8898
X4.0866Y-1.811
X4.0866Y-1.8898
X4.126Y-1.811
X4.126Y-1.8898
X4.1654Y-1.811
X4.1654Y-1.8898
X4.2047Y-1.811
X4.2047Y-1.8898
X4.502Y-1.811
X4.502Y-1.8898
X4.5413Y-1.811
X4.5413Y-1.8898
X4.5807Y-1.811
X4.5807Y-1.8898
X4.6201Y-1.811
X4.6201Y-1.8898
X4.9173Y-1.811
X4.9173Y-1.8898
X4.9567Y-1.811
X4.9567Y-1.8898
X4.9961Y-1.811
X4.9961Y-1.8898
X5.0354Y-1.811
X5.0354Y-1.8898
X5.3327Y-1.811
X5.3327Y-1.8898
X5.372Y-1.811
X5.372Y-1.8898
X5.4114Y-1.811
X5.4114Y-1.8898
X5.4508Y-1.811
X5.4508Y-1.8898
X5.8071Y-1.0696
X5.8071Y-1.1089
X5.8071Y-1.1483
X5.8071Y-1.1877
X5.8071Y-1.4108
X5.8071Y-1.4501
X5.8071Y-1.4895
X5.8071Y-1.5289
X5.8071Y-2.1719
X5.8071Y-2.2113
X5.8071Y-2.2507
X5.8071Y-2.29
X5.8071Y-2.5131
X5.8071Y-2.5525
X5.8071Y-2.5919
X5.8071Y-2.6312
X5.8858Y-1.0696
X5.8858Y-1.1089
X5.8858Y-1.1483
X5.8858Y-1.1877
X5.8858Y-1.4108
X5.8858Y-1.4501
X5.8858Y-1.4895
X5.8858Y-1.5289
X5.8858Y-2.1719
X5.8858Y-2.2113
X5.8858Y-2.2507
X5.8858Y-2.29
X5.8858Y-2.5131
X5.8858Y-2.5525
X5.8858Y-2.5919
X5.8858Y-2.6312
X6.2421Y-1.811
X6.2421Y-1.8898
X6.2815Y-1.811
X6.2815Y-1.8898
X6.3209Y-1.811
X6.3209Y-1.8898
X6.3602Y-1.811
X6.3602Y-1.8898
X6.6575Y-1.811
X6.6575Y-1.8898
X6.6969Y-1.811
X6.6969Y-1.8898
X6.7362Y-1.811
X6.7362Y-1.8898
X6.7756Y-1.811
X6.7756Y-1.8898
X7.0728Y-1.811
X7.0728Y-1.8898
X7.1122Y-1.811
X7.1122Y-1.8898
X7.1516Y-1.811
X7.1516Y-1.8898
X7.1909Y-1.811
X7.1909Y-1.8898
X7.4882Y-1.811
X7.4882Y-1.8898
X7.5276Y-1.811
X7.5276Y-1.8898
X7.5669Y-1.811
X7.5669Y-1.8898
X7.6063Y-1.811
X7.6063Y-1.8898
X7.9035Y-1.811
X7.9035Y-1.8898
X7.9429Y-1.811
X7.9429Y-1.8898
X7.9823Y-1.811
X7.9823Y-1.8898
X8.0217Y-1.811
X8.0217Y-1.8898
T0
M30
