%TF.GenerationSoftware,KiCad,Pcbnew,7.0.9*%
%TF.CreationDate,2024-06-09T17:36:51-04:00*%
%TF.ProjectId,Jackless-Panel,4a61636b-6c65-4737-932d-50616e656c2e,rev?*%
%TF.SameCoordinates,Original*%
%TF.FileFunction,Copper,L2,Bot*%
%TF.FilePolarity,Positive*%
%FSLAX46Y46*%
G04 Gerber Fmt 4.6, Leading zero omitted, Abs format (unit mm)*
G04 Created by KiCad (PCBNEW 7.0.9) date 2024-06-09 17:36:51*
%MOMM*%
%LPD*%
G01*
G04 APERTURE LIST*
%TA.AperFunction,ComponentPad*%
%ADD10C,1.600000*%
%TD*%
%TA.AperFunction,ComponentPad*%
%ADD11O,1.600000X1.600000*%
%TD*%
%TA.AperFunction,ComponentPad*%
%ADD12R,1.700000X1.700000*%
%TD*%
%TA.AperFunction,ComponentPad*%
%ADD13R,1.500000X1.050000*%
%TD*%
%TA.AperFunction,ComponentPad*%
%ADD14O,1.500000X1.050000*%
%TD*%
%TA.AperFunction,ComponentPad*%
%ADD15O,1.700000X1.700000*%
%TD*%
%TA.AperFunction,ComponentPad*%
%ADD16R,1.950000X1.950000*%
%TD*%
%TA.AperFunction,ComponentPad*%
%ADD17C,1.950000*%
%TD*%
%TA.AperFunction,ComponentPad*%
%ADD18R,1.800000X1.800000*%
%TD*%
%TA.AperFunction,ComponentPad*%
%ADD19C,1.800000*%
%TD*%
%TA.AperFunction,ComponentPad*%
%ADD20R,1.400000X1.400000*%
%TD*%
%TA.AperFunction,ComponentPad*%
%ADD21C,1.400000*%
%TD*%
%TA.AperFunction,ComponentPad*%
%ADD22R,1.905000X2.000000*%
%TD*%
%TA.AperFunction,ComponentPad*%
%ADD23O,1.905000X2.000000*%
%TD*%
%TA.AperFunction,Conductor*%
%ADD24C,0.500000*%
%TD*%
%TA.AperFunction,Conductor*%
%ADD25C,0.250000*%
%TD*%
G04 APERTURE END LIST*
D10*
%TO.P,LeftPD1,1*%
%TO.N,Board_1-Net-(QL1-G)*%
X169310000Y-34000000D03*
D11*
%TO.P,LeftPD1,2*%
%TO.N,Board_1-/Ctrl_GND*%
X161690000Y-34000000D03*
%TD*%
D12*
%TO.P,J1,1,Pin_1*%
%TO.N,Board_2-/Control*%
X87300000Y-61000000D03*
%TD*%
D13*
%TO.P,QL1,1,S*%
%TO.N,Board_2-/Ctrl_GND*%
X92310000Y-62520000D03*
D14*
%TO.P,QL1,2,G*%
%TO.N,Board_2-Net-(QL1-G)*%
X92310000Y-61250000D03*
%TO.P,QL1,3,D*%
%TO.N,Board_2-Net-(QL1-D)*%
X92310000Y-59980000D03*
%TD*%
D13*
%TO.P,QL1,1,S*%
%TO.N,Board_1-/Ctrl_GND*%
X157610000Y-34520000D03*
D14*
%TO.P,QL1,2,G*%
%TO.N,Board_1-Net-(QL1-G)*%
X157610000Y-33250000D03*
%TO.P,QL1,3,D*%
%TO.N,Board_1-Net-(QL1-D)*%
X157610000Y-31980000D03*
%TD*%
D12*
%TO.P,J1,1,Pin_1*%
%TO.N,Board_0-/Control*%
X87300000Y-33000000D03*
%TD*%
%TO.P,Out1,1,Pin_1*%
%TO.N,Board_0-/Signal_Gnd*%
X91450000Y-27080000D03*
D15*
%TO.P,Out1,2,Pin_2*%
%TO.N,Board_0-/L_out*%
X91450000Y-24540000D03*
%TO.P,Out1,3,Pin_3*%
%TO.N,Board_0-/R_out*%
X91450000Y-22000000D03*
%TD*%
D12*
%TO.P,In1,1,Pin_1*%
%TO.N,Board_0-/Signal_Gnd*%
X86200000Y-27080000D03*
D15*
%TO.P,In1,2,Pin_2*%
%TO.N,Board_0-/L_in*%
X86200000Y-24540000D03*
%TO.P,In1,3,Pin_3*%
%TO.N,Board_0-/R_in*%
X86200000Y-22000000D03*
%TD*%
D16*
%TO.P,J5,1,Pin_1*%
%TO.N,Board_0-/Signal_Gnd*%
X145000000Y-40700000D03*
D17*
%TO.P,J5,2,Pin_2*%
%TO.N,Board_0-/R_send*%
X140000000Y-40700000D03*
%TO.P,J5,3,Pin_3*%
%TO.N,Board_0-/Signal_Gnd*%
X135000000Y-40700000D03*
%TO.P,J5,4,Pin_4*%
%TO.N,Board_0-/L_Send*%
X130000000Y-40700000D03*
%TD*%
D18*
%TO.P,D1,1,K*%
%TO.N,Board_3-/Ctrl_GND*%
X165925000Y-51400000D03*
D19*
%TO.P,D1,2,A*%
%TO.N,Board_3-Net-(D1-A)*%
X168465000Y-51400000D03*
%TD*%
D10*
%TO.P,LGate1,1*%
%TO.N,Board_2-/Control*%
X96390000Y-58500000D03*
D11*
%TO.P,LGate1,2*%
%TO.N,Board_2-Net-(QL1-G)*%
X104010000Y-58500000D03*
%TD*%
D20*
%TO.P,Left/Mono1,1*%
%TO.N,Board_1-/5V*%
X193542500Y-29962500D03*
D21*
%TO.P,Left/Mono1,4*%
%TO.N,Board_1-/L_out*%
X201162500Y-29962500D03*
%TO.P,Left/Mono1,6*%
%TO.N,Board_1-Net-(Left/Mono1-Pad11)*%
X206242500Y-29962500D03*
%TO.P,Left/Mono1,8*%
%TO.N,Board_1-/L_Return*%
X211322500Y-29962500D03*
%TO.P,Left/Mono1,9*%
%TO.N,Board_1-/L_Send*%
X211322500Y-22342500D03*
%TO.P,Left/Mono1,11*%
%TO.N,Board_1-Net-(Left/Mono1-Pad11)*%
X206242500Y-22342500D03*
%TO.P,Left/Mono1,13*%
%TO.N,Board_1-/L_in*%
X201162500Y-22342500D03*
%TO.P,Left/Mono1,16*%
%TO.N,Board_1-Net-(QL1-D)*%
X193542500Y-22342500D03*
%TD*%
D12*
%TO.P,In1,1,Pin_1*%
%TO.N,Board_3-/Signal_Gnd*%
X151500000Y-55080000D03*
D15*
%TO.P,In1,2,Pin_2*%
%TO.N,Board_3-/L_in*%
X151500000Y-52540000D03*
%TO.P,In1,3,Pin_3*%
%TO.N,Board_3-/R_in*%
X151500000Y-50000000D03*
%TD*%
D10*
%TO.P,LGate1,1*%
%TO.N,Board_0-/Control*%
X96390000Y-30500000D03*
D11*
%TO.P,LGate1,2*%
%TO.N,Board_0-Net-(QL1-G)*%
X104010000Y-30500000D03*
%TD*%
D10*
%TO.P,RLed1,1*%
%TO.N,Board_2-/Control*%
X97390000Y-65750000D03*
D11*
%TO.P,RLed1,2*%
%TO.N,Board_2-Net-(D1-A)*%
X105010000Y-65750000D03*
%TD*%
D20*
%TO.P,Right1,1*%
%TO.N,Board_1-/5V*%
X172442500Y-30062500D03*
D21*
%TO.P,Right1,4*%
%TO.N,Board_1-/R_out*%
X180062500Y-30062500D03*
%TO.P,Right1,6*%
%TO.N,Board_1-Net-(Right1-Pad11)*%
X185142500Y-30062500D03*
%TO.P,Right1,8*%
%TO.N,Board_1-/R_Return*%
X190222500Y-30062500D03*
%TO.P,Right1,9*%
%TO.N,Board_1-/R_send*%
X190222500Y-22442500D03*
%TO.P,Right1,11*%
%TO.N,Board_1-Net-(Right1-Pad11)*%
X185142500Y-22442500D03*
%TO.P,Right1,13*%
%TO.N,Board_1-/R_in*%
X180062500Y-22442500D03*
%TO.P,Right1,16*%
%TO.N,Board_1-Net-(QL1-D)*%
X172442500Y-22442500D03*
%TD*%
D10*
%TO.P,RLed1,1*%
%TO.N,Board_3-/Control*%
X162690000Y-65750000D03*
D11*
%TO.P,RLed1,2*%
%TO.N,Board_3-Net-(D1-A)*%
X170310000Y-65750000D03*
%TD*%
D10*
%TO.P,LGate1,1*%
%TO.N,Board_3-/Control*%
X161690000Y-58500000D03*
D11*
%TO.P,LGate1,2*%
%TO.N,Board_3-Net-(QL1-G)*%
X169310000Y-58500000D03*
%TD*%
D20*
%TO.P,Right1,1*%
%TO.N,Board_2-/5V*%
X107142500Y-58062500D03*
D21*
%TO.P,Right1,4*%
%TO.N,Board_2-/R_out*%
X114762500Y-58062500D03*
%TO.P,Right1,6*%
%TO.N,Board_2-Net-(Right1-Pad11)*%
X119842500Y-58062500D03*
%TO.P,Right1,8*%
%TO.N,Board_2-/R_Return*%
X124922500Y-58062500D03*
%TO.P,Right1,9*%
%TO.N,Board_2-/R_send*%
X124922500Y-50442500D03*
%TO.P,Right1,11*%
%TO.N,Board_2-Net-(Right1-Pad11)*%
X119842500Y-50442500D03*
%TO.P,Right1,13*%
%TO.N,Board_2-/R_in*%
X114762500Y-50442500D03*
%TO.P,Right1,16*%
%TO.N,Board_2-Net-(QL1-D)*%
X107142500Y-50442500D03*
%TD*%
D20*
%TO.P,Left/Mono1,1*%
%TO.N,Board_2-/5V*%
X128242500Y-57962500D03*
D21*
%TO.P,Left/Mono1,4*%
%TO.N,Board_2-/L_out*%
X135862500Y-57962500D03*
%TO.P,Left/Mono1,6*%
%TO.N,Board_2-Net-(Left/Mono1-Pad11)*%
X140942500Y-57962500D03*
%TO.P,Left/Mono1,8*%
%TO.N,Board_2-/L_Return*%
X146022500Y-57962500D03*
%TO.P,Left/Mono1,9*%
%TO.N,Board_2-/L_Send*%
X146022500Y-50342500D03*
%TO.P,Left/Mono1,11*%
%TO.N,Board_2-Net-(Left/Mono1-Pad11)*%
X140942500Y-50342500D03*
%TO.P,Left/Mono1,13*%
%TO.N,Board_2-/L_in*%
X135862500Y-50342500D03*
%TO.P,Left/Mono1,16*%
%TO.N,Board_2-Net-(QL1-D)*%
X128242500Y-50342500D03*
%TD*%
D12*
%TO.P,J3,1,Pin_1*%
%TO.N,Board_1-/9V*%
X154775000Y-39200000D03*
D15*
%TO.P,J3,2,Pin_2*%
%TO.N,Board_1-/Ctrl_GND*%
X152235000Y-39200000D03*
%TD*%
D12*
%TO.P,J3,1,Pin_1*%
%TO.N,Board_3-/9V*%
X154775000Y-67200000D03*
D15*
%TO.P,J3,2,Pin_2*%
%TO.N,Board_3-/Ctrl_GND*%
X152235000Y-67200000D03*
%TD*%
D10*
%TO.P,RLed1,1*%
%TO.N,Board_0-/Control*%
X97390000Y-37750000D03*
D11*
%TO.P,RLed1,2*%
%TO.N,Board_0-Net-(D1-A)*%
X105010000Y-37750000D03*
%TD*%
D12*
%TO.P,J2,1,Pin_1*%
%TO.N,Board_0-/9V*%
X89475000Y-43200000D03*
D15*
%TO.P,J2,2,Pin_2*%
%TO.N,Board_0-/Ctrl_GND*%
X86935000Y-43200000D03*
%TD*%
D10*
%TO.P,LeftPD1,1*%
%TO.N,Board_3-Net-(QL1-G)*%
X169310000Y-62000000D03*
D11*
%TO.P,LeftPD1,2*%
%TO.N,Board_3-/Ctrl_GND*%
X161690000Y-62000000D03*
%TD*%
D16*
%TO.P,J4,1,Pin_1*%
%TO.N,Board_0-/Signal_Gnd*%
X124200000Y-40800000D03*
D17*
%TO.P,J4,2,Pin_2*%
%TO.N,Board_0-/R_Return*%
X119200000Y-40800000D03*
%TO.P,J4,3,Pin_3*%
%TO.N,Board_0-/Signal_Gnd*%
X114200000Y-40800000D03*
%TO.P,J4,4,Pin_4*%
%TO.N,Board_0-/L_Return*%
X109200000Y-40800000D03*
%TD*%
D20*
%TO.P,Right1,1*%
%TO.N,Board_3-/5V*%
X172442500Y-58062500D03*
D21*
%TO.P,Right1,4*%
%TO.N,Board_3-/R_out*%
X180062500Y-58062500D03*
%TO.P,Right1,6*%
%TO.N,Board_3-Net-(Right1-Pad11)*%
X185142500Y-58062500D03*
%TO.P,Right1,8*%
%TO.N,Board_3-/R_Return*%
X190222500Y-58062500D03*
%TO.P,Right1,9*%
%TO.N,Board_3-/R_send*%
X190222500Y-50442500D03*
%TO.P,Right1,11*%
%TO.N,Board_3-Net-(Right1-Pad11)*%
X185142500Y-50442500D03*
%TO.P,Right1,13*%
%TO.N,Board_3-/R_in*%
X180062500Y-50442500D03*
%TO.P,Right1,16*%
%TO.N,Board_3-Net-(QL1-D)*%
X172442500Y-50442500D03*
%TD*%
D18*
%TO.P,D1,1,K*%
%TO.N,Board_1-/Ctrl_GND*%
X165925000Y-23400000D03*
D19*
%TO.P,D1,2,A*%
%TO.N,Board_1-Net-(D1-A)*%
X168465000Y-23400000D03*
%TD*%
D12*
%TO.P,J2,1,Pin_1*%
%TO.N,Board_1-/9V*%
X154775000Y-43200000D03*
D15*
%TO.P,J2,2,Pin_2*%
%TO.N,Board_1-/Ctrl_GND*%
X152235000Y-43200000D03*
%TD*%
D13*
%TO.P,QL1,1,S*%
%TO.N,Board_3-/Ctrl_GND*%
X157610000Y-62520000D03*
D14*
%TO.P,QL1,2,G*%
%TO.N,Board_3-Net-(QL1-G)*%
X157610000Y-61250000D03*
%TO.P,QL1,3,D*%
%TO.N,Board_3-Net-(QL1-D)*%
X157610000Y-59980000D03*
%TD*%
D12*
%TO.P,J2,1,Pin_1*%
%TO.N,Board_2-/9V*%
X89475000Y-71200000D03*
D15*
%TO.P,J2,2,Pin_2*%
%TO.N,Board_2-/Ctrl_GND*%
X86935000Y-71200000D03*
%TD*%
D12*
%TO.P,In1,1,Pin_1*%
%TO.N,Board_1-/Signal_Gnd*%
X151500000Y-27080000D03*
D15*
%TO.P,In1,2,Pin_2*%
%TO.N,Board_1-/L_in*%
X151500000Y-24540000D03*
%TO.P,In1,3,Pin_3*%
%TO.N,Board_1-/R_in*%
X151500000Y-22000000D03*
%TD*%
D12*
%TO.P,Out1,1,Pin_1*%
%TO.N,Board_3-/Signal_Gnd*%
X156750000Y-55080000D03*
D15*
%TO.P,Out1,2,Pin_2*%
%TO.N,Board_3-/L_out*%
X156750000Y-52540000D03*
%TO.P,Out1,3,Pin_3*%
%TO.N,Board_3-/R_out*%
X156750000Y-50000000D03*
%TD*%
D12*
%TO.P,Out1,1,Pin_1*%
%TO.N,Board_1-/Signal_Gnd*%
X156750000Y-27080000D03*
D15*
%TO.P,Out1,2,Pin_2*%
%TO.N,Board_1-/L_out*%
X156750000Y-24540000D03*
%TO.P,Out1,3,Pin_3*%
%TO.N,Board_1-/R_out*%
X156750000Y-22000000D03*
%TD*%
D12*
%TO.P,Out1,1,Pin_1*%
%TO.N,Board_2-/Signal_Gnd*%
X91450000Y-55080000D03*
D15*
%TO.P,Out1,2,Pin_2*%
%TO.N,Board_2-/L_out*%
X91450000Y-52540000D03*
%TO.P,Out1,3,Pin_3*%
%TO.N,Board_2-/R_out*%
X91450000Y-50000000D03*
%TD*%
D12*
%TO.P,J3,1,Pin_1*%
%TO.N,Board_0-/9V*%
X89475000Y-39200000D03*
D15*
%TO.P,J3,2,Pin_2*%
%TO.N,Board_0-/Ctrl_GND*%
X86935000Y-39200000D03*
%TD*%
D12*
%TO.P,J1,1,Pin_1*%
%TO.N,Board_1-/Control*%
X152600000Y-33000000D03*
%TD*%
D16*
%TO.P,J5,1,Pin_1*%
%TO.N,Board_1-/Signal_Gnd*%
X210300000Y-40700000D03*
D17*
%TO.P,J5,2,Pin_2*%
%TO.N,Board_1-/R_send*%
X205300000Y-40700000D03*
%TO.P,J5,3,Pin_3*%
%TO.N,Board_1-/Signal_Gnd*%
X200300000Y-40700000D03*
%TO.P,J5,4,Pin_4*%
%TO.N,Board_1-/L_Send*%
X195300000Y-40700000D03*
%TD*%
D10*
%TO.P,LGate1,1*%
%TO.N,Board_1-/Control*%
X161690000Y-30500000D03*
D11*
%TO.P,LGate1,2*%
%TO.N,Board_1-Net-(QL1-G)*%
X169310000Y-30500000D03*
%TD*%
D22*
%TO.P,U1,1,IN*%
%TO.N,Board_0-/9V*%
X98360000Y-43245000D03*
D23*
%TO.P,U1,2,GND*%
%TO.N,Board_0-/Ctrl_GND*%
X100900000Y-43245000D03*
%TO.P,U1,3,OUT*%
%TO.N,Board_0-/5V*%
X103440000Y-43245000D03*
%TD*%
D18*
%TO.P,D1,1,K*%
%TO.N,Board_2-/Ctrl_GND*%
X100625000Y-51400000D03*
D19*
%TO.P,D1,2,A*%
%TO.N,Board_2-Net-(D1-A)*%
X103165000Y-51400000D03*
%TD*%
D13*
%TO.P,QL1,1,S*%
%TO.N,Board_0-/Ctrl_GND*%
X92310000Y-34520000D03*
D14*
%TO.P,QL1,2,G*%
%TO.N,Board_0-Net-(QL1-G)*%
X92310000Y-33250000D03*
%TO.P,QL1,3,D*%
%TO.N,Board_0-Net-(QL1-D)*%
X92310000Y-31980000D03*
%TD*%
D10*
%TO.P,LeftPD1,1*%
%TO.N,Board_0-Net-(QL1-G)*%
X104010000Y-34000000D03*
D11*
%TO.P,LeftPD1,2*%
%TO.N,Board_0-/Ctrl_GND*%
X96390000Y-34000000D03*
%TD*%
D12*
%TO.P,J2,1,Pin_1*%
%TO.N,Board_3-/9V*%
X154775000Y-71200000D03*
D15*
%TO.P,J2,2,Pin_2*%
%TO.N,Board_3-/Ctrl_GND*%
X152235000Y-71200000D03*
%TD*%
D16*
%TO.P,J5,1,Pin_1*%
%TO.N,Board_3-/Signal_Gnd*%
X210300000Y-68700000D03*
D17*
%TO.P,J5,2,Pin_2*%
%TO.N,Board_3-/R_send*%
X205300000Y-68700000D03*
%TO.P,J5,3,Pin_3*%
%TO.N,Board_3-/Signal_Gnd*%
X200300000Y-68700000D03*
%TO.P,J5,4,Pin_4*%
%TO.N,Board_3-/L_Send*%
X195300000Y-68700000D03*
%TD*%
D20*
%TO.P,Right1,1*%
%TO.N,Board_0-/5V*%
X107142500Y-30062500D03*
D21*
%TO.P,Right1,4*%
%TO.N,Board_0-/R_out*%
X114762500Y-30062500D03*
%TO.P,Right1,6*%
%TO.N,Board_0-Net-(Right1-Pad11)*%
X119842500Y-30062500D03*
%TO.P,Right1,8*%
%TO.N,Board_0-/R_Return*%
X124922500Y-30062500D03*
%TO.P,Right1,9*%
%TO.N,Board_0-/R_send*%
X124922500Y-22442500D03*
%TO.P,Right1,11*%
%TO.N,Board_0-Net-(Right1-Pad11)*%
X119842500Y-22442500D03*
%TO.P,Right1,13*%
%TO.N,Board_0-/R_in*%
X114762500Y-22442500D03*
%TO.P,Right1,16*%
%TO.N,Board_0-Net-(QL1-D)*%
X107142500Y-22442500D03*
%TD*%
D12*
%TO.P,J1,1,Pin_1*%
%TO.N,Board_3-/Control*%
X152600000Y-61000000D03*
%TD*%
D16*
%TO.P,J5,1,Pin_1*%
%TO.N,Board_2-/Signal_Gnd*%
X145000000Y-68700000D03*
D17*
%TO.P,J5,2,Pin_2*%
%TO.N,Board_2-/R_send*%
X140000000Y-68700000D03*
%TO.P,J5,3,Pin_3*%
%TO.N,Board_2-/Signal_Gnd*%
X135000000Y-68700000D03*
%TO.P,J5,4,Pin_4*%
%TO.N,Board_2-/L_Send*%
X130000000Y-68700000D03*
%TD*%
D10*
%TO.P,LeftPD1,1*%
%TO.N,Board_2-Net-(QL1-G)*%
X104010000Y-62000000D03*
D11*
%TO.P,LeftPD1,2*%
%TO.N,Board_2-/Ctrl_GND*%
X96390000Y-62000000D03*
%TD*%
D22*
%TO.P,U1,1,IN*%
%TO.N,Board_3-/9V*%
X163660000Y-71245000D03*
D23*
%TO.P,U1,2,GND*%
%TO.N,Board_3-/Ctrl_GND*%
X166200000Y-71245000D03*
%TO.P,U1,3,OUT*%
%TO.N,Board_3-/5V*%
X168740000Y-71245000D03*
%TD*%
D16*
%TO.P,J4,1,Pin_1*%
%TO.N,Board_2-/Signal_Gnd*%
X124200000Y-68800000D03*
D17*
%TO.P,J4,2,Pin_2*%
%TO.N,Board_2-/R_Return*%
X119200000Y-68800000D03*
%TO.P,J4,3,Pin_3*%
%TO.N,Board_2-/Signal_Gnd*%
X114200000Y-68800000D03*
%TO.P,J4,4,Pin_4*%
%TO.N,Board_2-/L_Return*%
X109200000Y-68800000D03*
%TD*%
D22*
%TO.P,U1,1,IN*%
%TO.N,Board_2-/9V*%
X98360000Y-71245000D03*
D23*
%TO.P,U1,2,GND*%
%TO.N,Board_2-/Ctrl_GND*%
X100900000Y-71245000D03*
%TO.P,U1,3,OUT*%
%TO.N,Board_2-/5V*%
X103440000Y-71245000D03*
%TD*%
D16*
%TO.P,J4,1,Pin_1*%
%TO.N,Board_1-/Signal_Gnd*%
X189500000Y-40800000D03*
D17*
%TO.P,J4,2,Pin_2*%
%TO.N,Board_1-/R_Return*%
X184500000Y-40800000D03*
%TO.P,J4,3,Pin_3*%
%TO.N,Board_1-/Signal_Gnd*%
X179500000Y-40800000D03*
%TO.P,J4,4,Pin_4*%
%TO.N,Board_1-/L_Return*%
X174500000Y-40800000D03*
%TD*%
D22*
%TO.P,U1,1,IN*%
%TO.N,Board_1-/9V*%
X163660000Y-43245000D03*
D23*
%TO.P,U1,2,GND*%
%TO.N,Board_1-/Ctrl_GND*%
X166200000Y-43245000D03*
%TO.P,U1,3,OUT*%
%TO.N,Board_1-/5V*%
X168740000Y-43245000D03*
%TD*%
D12*
%TO.P,J3,1,Pin_1*%
%TO.N,Board_2-/9V*%
X89475000Y-67200000D03*
D15*
%TO.P,J3,2,Pin_2*%
%TO.N,Board_2-/Ctrl_GND*%
X86935000Y-67200000D03*
%TD*%
D12*
%TO.P,In1,1,Pin_1*%
%TO.N,Board_2-/Signal_Gnd*%
X86200000Y-55080000D03*
D15*
%TO.P,In1,2,Pin_2*%
%TO.N,Board_2-/L_in*%
X86200000Y-52540000D03*
%TO.P,In1,3,Pin_3*%
%TO.N,Board_2-/R_in*%
X86200000Y-50000000D03*
%TD*%
D18*
%TO.P,D1,1,K*%
%TO.N,Board_0-/Ctrl_GND*%
X100625000Y-23400000D03*
D19*
%TO.P,D1,2,A*%
%TO.N,Board_0-Net-(D1-A)*%
X103165000Y-23400000D03*
%TD*%
D16*
%TO.P,J4,1,Pin_1*%
%TO.N,Board_3-/Signal_Gnd*%
X189500000Y-68800000D03*
D17*
%TO.P,J4,2,Pin_2*%
%TO.N,Board_3-/R_Return*%
X184500000Y-68800000D03*
%TO.P,J4,3,Pin_3*%
%TO.N,Board_3-/Signal_Gnd*%
X179500000Y-68800000D03*
%TO.P,J4,4,Pin_4*%
%TO.N,Board_3-/L_Return*%
X174500000Y-68800000D03*
%TD*%
D20*
%TO.P,Left/Mono1,1*%
%TO.N,Board_3-/5V*%
X193542500Y-57962500D03*
D21*
%TO.P,Left/Mono1,4*%
%TO.N,Board_3-/L_out*%
X201162500Y-57962500D03*
%TO.P,Left/Mono1,6*%
%TO.N,Board_3-Net-(Left/Mono1-Pad11)*%
X206242500Y-57962500D03*
%TO.P,Left/Mono1,8*%
%TO.N,Board_3-/L_Return*%
X211322500Y-57962500D03*
%TO.P,Left/Mono1,9*%
%TO.N,Board_3-/L_Send*%
X211322500Y-50342500D03*
%TO.P,Left/Mono1,11*%
%TO.N,Board_3-Net-(Left/Mono1-Pad11)*%
X206242500Y-50342500D03*
%TO.P,Left/Mono1,13*%
%TO.N,Board_3-/L_in*%
X201162500Y-50342500D03*
%TO.P,Left/Mono1,16*%
%TO.N,Board_3-Net-(QL1-D)*%
X193542500Y-50342500D03*
%TD*%
D20*
%TO.P,Left/Mono1,1*%
%TO.N,Board_0-/5V*%
X128242500Y-29962500D03*
D21*
%TO.P,Left/Mono1,4*%
%TO.N,Board_0-/L_out*%
X135862500Y-29962500D03*
%TO.P,Left/Mono1,6*%
%TO.N,Board_0-Net-(Left/Mono1-Pad11)*%
X140942500Y-29962500D03*
%TO.P,Left/Mono1,8*%
%TO.N,Board_0-/L_Return*%
X146022500Y-29962500D03*
%TO.P,Left/Mono1,9*%
%TO.N,Board_0-/L_Send*%
X146022500Y-22342500D03*
%TO.P,Left/Mono1,11*%
%TO.N,Board_0-Net-(Left/Mono1-Pad11)*%
X140942500Y-22342500D03*
%TO.P,Left/Mono1,13*%
%TO.N,Board_0-/L_in*%
X135862500Y-22342500D03*
%TO.P,Left/Mono1,16*%
%TO.N,Board_0-Net-(QL1-D)*%
X128242500Y-22342500D03*
%TD*%
D10*
%TO.P,RLed1,1*%
%TO.N,Board_1-/Control*%
X162690000Y-37750000D03*
D11*
%TO.P,RLed1,2*%
%TO.N,Board_1-Net-(D1-A)*%
X170310000Y-37750000D03*
%TD*%
D24*
%TO.N,Board_3-Net-(QL1-G)*%
X160500000Y-60500000D02*
X165250000Y-60500000D01*
X166750000Y-62000000D02*
X169310000Y-62000000D01*
X169310000Y-58500000D02*
X169310000Y-62000000D01*
X159750000Y-61250000D02*
X160500000Y-60500000D01*
X165250000Y-60500000D02*
X166750000Y-62000000D01*
X157610000Y-61250000D02*
X159750000Y-61250000D01*
%TO.N,Board_3-Net-(QL1-D)*%
X170400000Y-56500000D02*
X172500000Y-54400000D01*
X172500000Y-54200000D02*
X191900000Y-54200000D01*
X161090000Y-56500000D02*
X170400000Y-56500000D01*
X172442500Y-54142500D02*
X172500000Y-54200000D01*
X157610000Y-59980000D02*
X161090000Y-56500000D01*
X193542500Y-52557500D02*
X193542500Y-50342500D01*
X172442500Y-50442500D02*
X172442500Y-54142500D01*
X191900000Y-54200000D02*
X193542500Y-52557500D01*
X172500000Y-54400000D02*
X172500000Y-54200000D01*
%TO.N,Board_3-/Signal_Gnd*%
X175050000Y-73250000D02*
X179500000Y-68800000D01*
X150800000Y-73500000D02*
X174800000Y-73500000D01*
X175050000Y-73250000D02*
X185050000Y-73250000D01*
X185050000Y-73250000D02*
X185150000Y-73150000D01*
X193100000Y-73100000D02*
X194900000Y-73100000D01*
X185150000Y-73150000D02*
X189500000Y-68800000D01*
X150100000Y-56480000D02*
X150100000Y-72800000D01*
X150100000Y-72800000D02*
X150800000Y-73500000D01*
X194900000Y-73100000D02*
X205900000Y-73100000D01*
X185200000Y-73100000D02*
X193100000Y-73100000D01*
X195900000Y-73100000D02*
X200300000Y-68700000D01*
X151500000Y-55080000D02*
X156750000Y-55080000D01*
X205900000Y-73100000D02*
X210300000Y-68700000D01*
X174800000Y-73500000D02*
X175050000Y-73250000D01*
X150100000Y-56480000D02*
X151500000Y-55080000D01*
X194900000Y-73100000D02*
X195900000Y-73100000D01*
X185150000Y-73150000D02*
X185200000Y-73100000D01*
D25*
%TO.N,Board_3-/L_out*%
X156750000Y-52540000D02*
X160440000Y-48850000D01*
X196450000Y-48850000D02*
X201162500Y-53562500D01*
X160440000Y-48850000D02*
X196450000Y-48850000D01*
X201162500Y-53562500D02*
X201162500Y-57962500D01*
%TO.N,Board_3-/L_in*%
X199220000Y-48400000D02*
X201162500Y-50342500D01*
X155640000Y-48400000D02*
X199220000Y-48400000D01*
X151500000Y-52540000D02*
X155640000Y-48400000D01*
D24*
%TO.N,Board_3-/Ctrl_GND*%
X157610000Y-62520000D02*
X161170000Y-62520000D01*
X156915000Y-62520000D02*
X152235000Y-67200000D01*
X152235000Y-67200000D02*
X152235000Y-71200000D01*
X161170000Y-62520000D02*
X161690000Y-62000000D01*
X157610000Y-62520000D02*
X156915000Y-62520000D01*
%TO.N,Board_3-/5V*%
X192600000Y-55000000D02*
X174305000Y-55000000D01*
X174305000Y-55000000D02*
X172442500Y-56862500D01*
X193542500Y-55942500D02*
X193542500Y-57962500D01*
X192600000Y-55000000D02*
X193542500Y-55942500D01*
X172442500Y-56862500D02*
X172442500Y-58062500D01*
%TO.N,Board_2-Net-(QL1-G)*%
X92310000Y-61250000D02*
X94450000Y-61250000D01*
X95200000Y-60500000D02*
X99950000Y-60500000D01*
X99950000Y-60500000D02*
X101450000Y-62000000D01*
X94450000Y-61250000D02*
X95200000Y-60500000D01*
X101450000Y-62000000D02*
X104010000Y-62000000D01*
X104010000Y-58500000D02*
X104010000Y-62000000D01*
%TO.N,Board_2-Net-(QL1-D)*%
X126600000Y-54200000D02*
X128242500Y-52557500D01*
X95790000Y-56500000D02*
X105100000Y-56500000D01*
X107142500Y-50442500D02*
X107142500Y-54142500D01*
X92310000Y-59980000D02*
X95790000Y-56500000D01*
X105100000Y-56500000D02*
X107200000Y-54400000D01*
X107142500Y-54142500D02*
X107200000Y-54200000D01*
X107200000Y-54200000D02*
X126600000Y-54200000D01*
X107200000Y-54400000D02*
X107200000Y-54200000D01*
X128242500Y-52557500D02*
X128242500Y-50342500D01*
%TO.N,Board_2-/Signal_Gnd*%
X119850000Y-73150000D02*
X124200000Y-68800000D01*
X119850000Y-73150000D02*
X119900000Y-73100000D01*
X109750000Y-73250000D02*
X114200000Y-68800000D01*
X109500000Y-73500000D02*
X109750000Y-73250000D01*
X127800000Y-73100000D02*
X129600000Y-73100000D01*
X129600000Y-73100000D02*
X140600000Y-73100000D01*
X130600000Y-73100000D02*
X135000000Y-68700000D01*
X119900000Y-73100000D02*
X127800000Y-73100000D01*
X86200000Y-55080000D02*
X91450000Y-55080000D01*
X119750000Y-73250000D02*
X119850000Y-73150000D01*
X84800000Y-56480000D02*
X86200000Y-55080000D01*
X85500000Y-73500000D02*
X109500000Y-73500000D01*
X84800000Y-56480000D02*
X84800000Y-72800000D01*
X109750000Y-73250000D02*
X119750000Y-73250000D01*
X129600000Y-73100000D02*
X130600000Y-73100000D01*
X140600000Y-73100000D02*
X145000000Y-68700000D01*
X84800000Y-72800000D02*
X85500000Y-73500000D01*
D25*
%TO.N,Board_2-/L_out*%
X131150000Y-48850000D02*
X135862500Y-53562500D01*
X95140000Y-48850000D02*
X131150000Y-48850000D01*
X135862500Y-53562500D02*
X135862500Y-57962500D01*
X91450000Y-52540000D02*
X95140000Y-48850000D01*
%TO.N,Board_2-/L_in*%
X86200000Y-52540000D02*
X90340000Y-48400000D01*
X90340000Y-48400000D02*
X133920000Y-48400000D01*
X133920000Y-48400000D02*
X135862500Y-50342500D01*
D24*
%TO.N,Board_2-/Ctrl_GND*%
X91615000Y-62520000D02*
X86935000Y-67200000D01*
X92310000Y-62520000D02*
X95870000Y-62520000D01*
X86935000Y-67200000D02*
X86935000Y-71200000D01*
X95870000Y-62520000D02*
X96390000Y-62000000D01*
X92310000Y-62520000D02*
X91615000Y-62520000D01*
%TO.N,Board_2-/5V*%
X127300000Y-55000000D02*
X109005000Y-55000000D01*
X127300000Y-55000000D02*
X128242500Y-55942500D01*
X107142500Y-56862500D02*
X107142500Y-58062500D01*
X109005000Y-55000000D02*
X107142500Y-56862500D01*
X128242500Y-55942500D02*
X128242500Y-57962500D01*
%TO.N,Board_1-Net-(QL1-G)*%
X166750000Y-34000000D02*
X169310000Y-34000000D01*
X160500000Y-32500000D02*
X165250000Y-32500000D01*
X157610000Y-33250000D02*
X159750000Y-33250000D01*
X169310000Y-30500000D02*
X169310000Y-34000000D01*
X165250000Y-32500000D02*
X166750000Y-34000000D01*
X159750000Y-33250000D02*
X160500000Y-32500000D01*
%TO.N,Board_1-Net-(QL1-D)*%
X170400000Y-28500000D02*
X172500000Y-26400000D01*
X193542500Y-24557500D02*
X193542500Y-22342500D01*
X172442500Y-22442500D02*
X172442500Y-26142500D01*
X161090000Y-28500000D02*
X170400000Y-28500000D01*
X172442500Y-26142500D02*
X172500000Y-26200000D01*
X157610000Y-31980000D02*
X161090000Y-28500000D01*
X191900000Y-26200000D02*
X193542500Y-24557500D01*
X172500000Y-26400000D02*
X172500000Y-26200000D01*
X172500000Y-26200000D02*
X191900000Y-26200000D01*
%TO.N,Board_1-/Signal_Gnd*%
X185200000Y-45100000D02*
X193100000Y-45100000D01*
X185150000Y-45150000D02*
X189500000Y-40800000D01*
X150100000Y-44800000D02*
X150800000Y-45500000D01*
X194900000Y-45100000D02*
X195900000Y-45100000D01*
X205900000Y-45100000D02*
X210300000Y-40700000D01*
X151500000Y-27080000D02*
X156750000Y-27080000D01*
X174800000Y-45500000D02*
X175050000Y-45250000D01*
X150800000Y-45500000D02*
X174800000Y-45500000D01*
X175050000Y-45250000D02*
X179500000Y-40800000D01*
X185050000Y-45250000D02*
X185150000Y-45150000D01*
X185150000Y-45150000D02*
X185200000Y-45100000D01*
X195900000Y-45100000D02*
X200300000Y-40700000D01*
X175050000Y-45250000D02*
X185050000Y-45250000D01*
X150100000Y-28480000D02*
X150100000Y-44800000D01*
X150100000Y-28480000D02*
X151500000Y-27080000D01*
X194900000Y-45100000D02*
X205900000Y-45100000D01*
X193100000Y-45100000D02*
X194900000Y-45100000D01*
D25*
%TO.N,Board_1-/L_out*%
X160440000Y-20850000D02*
X196450000Y-20850000D01*
X156750000Y-24540000D02*
X160440000Y-20850000D01*
X196450000Y-20850000D02*
X201162500Y-25562500D01*
X201162500Y-25562500D02*
X201162500Y-29962500D01*
%TO.N,Board_1-/L_in*%
X151500000Y-24540000D02*
X155640000Y-20400000D01*
X155640000Y-20400000D02*
X199220000Y-20400000D01*
X199220000Y-20400000D02*
X201162500Y-22342500D01*
D24*
%TO.N,Board_1-/Ctrl_GND*%
X156915000Y-34520000D02*
X152235000Y-39200000D01*
X161170000Y-34520000D02*
X161690000Y-34000000D01*
X152235000Y-39200000D02*
X152235000Y-43200000D01*
X157610000Y-34520000D02*
X161170000Y-34520000D01*
X157610000Y-34520000D02*
X156915000Y-34520000D01*
%TO.N,Board_1-/5V*%
X193542500Y-27942500D02*
X193542500Y-29962500D01*
X192600000Y-27000000D02*
X193542500Y-27942500D01*
X174305000Y-27000000D02*
X172442500Y-28862500D01*
X192600000Y-27000000D02*
X174305000Y-27000000D01*
X172442500Y-28862500D02*
X172442500Y-30062500D01*
%TO.N,Board_0-Net-(QL1-G)*%
X104010000Y-30500000D02*
X104010000Y-34000000D01*
X94450000Y-33250000D02*
X95200000Y-32500000D01*
X95200000Y-32500000D02*
X99950000Y-32500000D01*
X101450000Y-34000000D02*
X104010000Y-34000000D01*
X92310000Y-33250000D02*
X94450000Y-33250000D01*
X99950000Y-32500000D02*
X101450000Y-34000000D01*
%TO.N,Board_0-Net-(QL1-D)*%
X105100000Y-28500000D02*
X107200000Y-26400000D01*
X107200000Y-26200000D02*
X126600000Y-26200000D01*
X126600000Y-26200000D02*
X128242500Y-24557500D01*
X128242500Y-24557500D02*
X128242500Y-22342500D01*
X107200000Y-26400000D02*
X107200000Y-26200000D01*
X95790000Y-28500000D02*
X105100000Y-28500000D01*
X92310000Y-31980000D02*
X95790000Y-28500000D01*
X107142500Y-26142500D02*
X107200000Y-26200000D01*
X107142500Y-22442500D02*
X107142500Y-26142500D01*
%TO.N,Board_0-/Signal_Gnd*%
X86200000Y-27080000D02*
X91450000Y-27080000D01*
X129600000Y-45100000D02*
X130600000Y-45100000D01*
X84800000Y-44800000D02*
X85500000Y-45500000D01*
X85500000Y-45500000D02*
X109500000Y-45500000D01*
X109500000Y-45500000D02*
X109750000Y-45250000D01*
X119750000Y-45250000D02*
X119850000Y-45150000D01*
X119900000Y-45100000D02*
X127800000Y-45100000D01*
X119850000Y-45150000D02*
X119900000Y-45100000D01*
X119850000Y-45150000D02*
X124200000Y-40800000D01*
X140600000Y-45100000D02*
X145000000Y-40700000D01*
X84800000Y-28480000D02*
X84800000Y-44800000D01*
X130600000Y-45100000D02*
X135000000Y-40700000D01*
X129600000Y-45100000D02*
X140600000Y-45100000D01*
X127800000Y-45100000D02*
X129600000Y-45100000D01*
X109750000Y-45250000D02*
X119750000Y-45250000D01*
X84800000Y-28480000D02*
X86200000Y-27080000D01*
X109750000Y-45250000D02*
X114200000Y-40800000D01*
D25*
%TO.N,Board_0-/L_out*%
X135862500Y-25562500D02*
X135862500Y-29962500D01*
X95140000Y-20850000D02*
X131150000Y-20850000D01*
X131150000Y-20850000D02*
X135862500Y-25562500D01*
X91450000Y-24540000D02*
X95140000Y-20850000D01*
%TO.N,Board_0-/L_in*%
X90340000Y-20400000D02*
X133920000Y-20400000D01*
X86200000Y-24540000D02*
X90340000Y-20400000D01*
X133920000Y-20400000D02*
X135862500Y-22342500D01*
D24*
%TO.N,Board_0-/Ctrl_GND*%
X92310000Y-34520000D02*
X95870000Y-34520000D01*
X95870000Y-34520000D02*
X96390000Y-34000000D01*
X91615000Y-34520000D02*
X86935000Y-39200000D01*
X86935000Y-39200000D02*
X86935000Y-43200000D01*
X92310000Y-34520000D02*
X91615000Y-34520000D01*
%TO.N,Board_0-/5V*%
X107142500Y-28862500D02*
X107142500Y-30062500D01*
X127300000Y-27000000D02*
X128242500Y-27942500D01*
X128242500Y-27942500D02*
X128242500Y-29962500D01*
X109005000Y-27000000D02*
X107142500Y-28862500D01*
X127300000Y-27000000D02*
X109005000Y-27000000D01*
%TD*%
M02*
