M48
; DRILL file {KiCad 7.0.9} date Thu Dec 28 11:44:17 2023
; FORMAT={-:-/ absolute / inch / decimal}
; #@! TF.CreationDate,2023-12-28T11:44:17-05:00
; #@! TF.GenerationSoftware,Kicad,Pcbnew,7.0.9
; #@! TF.FileFunction,Plated,1,2,PTH
FMAT,2
INCH
; #@! TA.AperFunction,Plated,PTH,ViaDrill
T1C0.0157
; #@! TA.AperFunction,Plated,PTH,ComponentDrill
T2C0.0276
; #@! TA.AperFunction,Plated,PTH,ComponentDrill
T3C0.0295
; #@! TA.AperFunction,Plated,PTH,ComponentDrill
T4C0.0315
; #@! TA.AperFunction,Plated,PTH,ComponentDrill
T5C0.0354
; #@! TA.AperFunction,Plated,PTH,ComponentDrill
T6C0.0394
; #@! TA.AperFunction,Plated,PTH,ComponentDrill
T7C0.0433
; #@! TA.AperFunction,Plated,PTH,ComponentDrill
T8C0.0551
%
G90
G05
T1
X5.0295Y-4.1142
X5.1476Y-3.4547
X6.752Y-3.6909
T2
X5.1833Y-3.1661
X5.1833Y-3.3661
X5.1833Y-3.5661
X5.1833Y-3.8661
X5.4833Y-3.1661
X5.4833Y-3.3661
X5.4833Y-3.5661
X5.4833Y-3.8661
X5.6651Y-3.1625
X5.6651Y-3.3625
X5.6651Y-3.5625
X5.6651Y-3.8625
X5.9651Y-3.1625
X5.9651Y-3.3625
X5.9651Y-3.5625
X5.9651Y-3.8625
T3
X5.187Y-4.015
X5.187Y-4.065
X5.187Y-4.115
X5.5063Y-4.0051
X5.5063Y-4.0551
X5.5063Y-4.1051
X5.9646Y-3.9961
X5.9646Y-4.0461
X5.9646Y-4.0961
T4
X5.2067Y-4.2587
X5.2067Y-4.6587
X5.3346Y-4.2587
X5.3346Y-4.6587
X5.4626Y-4.2587
X5.4626Y-4.6587
X5.6693Y-4.2488
X5.6693Y-4.6488
X5.8268Y-4.2488
X5.8268Y-4.6488
X5.985Y-4.2488
X5.985Y-4.6488
X6.1228Y-4.2488
X6.1228Y-4.6488
T5
X4.8518Y-4.5866
X4.9518Y-4.5866
T6
X4.498Y-4.3799
X4.498Y-4.6161
X4.5079Y-3.2252
X4.5079Y-3.3252
X4.5079Y-3.4252
X4.5079Y-3.6303
X4.5079Y-3.7303
X4.5079Y-3.8303
X4.5177Y-4.1437
X4.598Y-4.3799
X4.598Y-4.6161
T7
X4.9289Y-4.0929
X4.9289Y-4.1929
X4.9289Y-4.2929
T8
X6.6722Y-3.1648
X6.6722Y-3.8037
X6.6722Y-3.9817
X6.6722Y-4.6207
X6.9222Y-3.1648
X6.9222Y-3.8037
X6.9222Y-3.9817
X6.9222Y-4.6207
X7.1722Y-3.1648
X7.1722Y-3.8037
X7.1722Y-3.9817
X7.1722Y-4.6207
T0
M30
