%TF.GenerationSoftware,KiCad,Pcbnew,7.0.9*%
%TF.CreationDate,2024-06-08T14:56:11-04:00*%
%TF.ProjectId,IO-Panel,494f2d50-616e-4656-9c2e-6b696361645f,rev?*%
%TF.SameCoordinates,Original*%
%TF.FileFunction,Legend,Top*%
%TF.FilePolarity,Positive*%
%FSLAX46Y46*%
G04 Gerber Fmt 4.6, Leading zero omitted, Abs format (unit mm)*
G04 Created by KiCad (PCBNEW 7.0.9) date 2024-06-08 14:56:11*
%MOMM*%
%LPD*%
G01*
G04 APERTURE LIST*
%ADD10C,0.150000*%
%ADD11C,0.120000*%
G04 APERTURE END LIST*
D10*
X124396898Y-52869819D02*
X124587374Y-52869819D01*
X124587374Y-52869819D02*
X124682612Y-52822200D01*
X124682612Y-52822200D02*
X124730231Y-52774580D01*
X124730231Y-52774580D02*
X124825469Y-52631723D01*
X124825469Y-52631723D02*
X124873088Y-52441247D01*
X124873088Y-52441247D02*
X124873088Y-52060295D01*
X124873088Y-52060295D02*
X124825469Y-51965057D01*
X124825469Y-51965057D02*
X124777850Y-51917438D01*
X124777850Y-51917438D02*
X124682612Y-51869819D01*
X124682612Y-51869819D02*
X124492136Y-51869819D01*
X124492136Y-51869819D02*
X124396898Y-51917438D01*
X124396898Y-51917438D02*
X124349279Y-51965057D01*
X124349279Y-51965057D02*
X124301660Y-52060295D01*
X124301660Y-52060295D02*
X124301660Y-52298390D01*
X124301660Y-52298390D02*
X124349279Y-52393628D01*
X124349279Y-52393628D02*
X124396898Y-52441247D01*
X124396898Y-52441247D02*
X124492136Y-52488866D01*
X124492136Y-52488866D02*
X124682612Y-52488866D01*
X124682612Y-52488866D02*
X124777850Y-52441247D01*
X124777850Y-52441247D02*
X124825469Y-52393628D01*
X124825469Y-52393628D02*
X124873088Y-52298390D01*
X125206422Y-52203152D02*
X125444517Y-52869819D01*
X125444517Y-52869819D02*
X125682612Y-52203152D01*
X127349279Y-51917438D02*
X127254041Y-51869819D01*
X127254041Y-51869819D02*
X127111184Y-51869819D01*
X127111184Y-51869819D02*
X126968327Y-51917438D01*
X126968327Y-51917438D02*
X126873089Y-52012676D01*
X126873089Y-52012676D02*
X126825470Y-52107914D01*
X126825470Y-52107914D02*
X126777851Y-52298390D01*
X126777851Y-52298390D02*
X126777851Y-52441247D01*
X126777851Y-52441247D02*
X126825470Y-52631723D01*
X126825470Y-52631723D02*
X126873089Y-52726961D01*
X126873089Y-52726961D02*
X126968327Y-52822200D01*
X126968327Y-52822200D02*
X127111184Y-52869819D01*
X127111184Y-52869819D02*
X127206422Y-52869819D01*
X127206422Y-52869819D02*
X127349279Y-52822200D01*
X127349279Y-52822200D02*
X127396898Y-52774580D01*
X127396898Y-52774580D02*
X127396898Y-52441247D01*
X127396898Y-52441247D02*
X127206422Y-52441247D01*
X127825470Y-52203152D02*
X127825470Y-52869819D01*
X127825470Y-52298390D02*
X127873089Y-52250771D01*
X127873089Y-52250771D02*
X127968327Y-52203152D01*
X127968327Y-52203152D02*
X128111184Y-52203152D01*
X128111184Y-52203152D02*
X128206422Y-52250771D01*
X128206422Y-52250771D02*
X128254041Y-52346009D01*
X128254041Y-52346009D02*
X128254041Y-52869819D01*
X129158803Y-52869819D02*
X129158803Y-51869819D01*
X129158803Y-52822200D02*
X129063565Y-52869819D01*
X129063565Y-52869819D02*
X128873089Y-52869819D01*
X128873089Y-52869819D02*
X128777851Y-52822200D01*
X128777851Y-52822200D02*
X128730232Y-52774580D01*
X128730232Y-52774580D02*
X128682613Y-52679342D01*
X128682613Y-52679342D02*
X128682613Y-52393628D01*
X128682613Y-52393628D02*
X128730232Y-52298390D01*
X128730232Y-52298390D02*
X128777851Y-52250771D01*
X128777851Y-52250771D02*
X128873089Y-52203152D01*
X128873089Y-52203152D02*
X129063565Y-52203152D01*
X129063565Y-52203152D02*
X129158803Y-52250771D01*
X124396898Y-141469819D02*
X124587374Y-141469819D01*
X124587374Y-141469819D02*
X124682612Y-141422200D01*
X124682612Y-141422200D02*
X124730231Y-141374580D01*
X124730231Y-141374580D02*
X124825469Y-141231723D01*
X124825469Y-141231723D02*
X124873088Y-141041247D01*
X124873088Y-141041247D02*
X124873088Y-140660295D01*
X124873088Y-140660295D02*
X124825469Y-140565057D01*
X124825469Y-140565057D02*
X124777850Y-140517438D01*
X124777850Y-140517438D02*
X124682612Y-140469819D01*
X124682612Y-140469819D02*
X124492136Y-140469819D01*
X124492136Y-140469819D02*
X124396898Y-140517438D01*
X124396898Y-140517438D02*
X124349279Y-140565057D01*
X124349279Y-140565057D02*
X124301660Y-140660295D01*
X124301660Y-140660295D02*
X124301660Y-140898390D01*
X124301660Y-140898390D02*
X124349279Y-140993628D01*
X124349279Y-140993628D02*
X124396898Y-141041247D01*
X124396898Y-141041247D02*
X124492136Y-141088866D01*
X124492136Y-141088866D02*
X124682612Y-141088866D01*
X124682612Y-141088866D02*
X124777850Y-141041247D01*
X124777850Y-141041247D02*
X124825469Y-140993628D01*
X124825469Y-140993628D02*
X124873088Y-140898390D01*
X125206422Y-140803152D02*
X125444517Y-141469819D01*
X125444517Y-141469819D02*
X125682612Y-140803152D01*
X127349279Y-140517438D02*
X127254041Y-140469819D01*
X127254041Y-140469819D02*
X127111184Y-140469819D01*
X127111184Y-140469819D02*
X126968327Y-140517438D01*
X126968327Y-140517438D02*
X126873089Y-140612676D01*
X126873089Y-140612676D02*
X126825470Y-140707914D01*
X126825470Y-140707914D02*
X126777851Y-140898390D01*
X126777851Y-140898390D02*
X126777851Y-141041247D01*
X126777851Y-141041247D02*
X126825470Y-141231723D01*
X126825470Y-141231723D02*
X126873089Y-141326961D01*
X126873089Y-141326961D02*
X126968327Y-141422200D01*
X126968327Y-141422200D02*
X127111184Y-141469819D01*
X127111184Y-141469819D02*
X127206422Y-141469819D01*
X127206422Y-141469819D02*
X127349279Y-141422200D01*
X127349279Y-141422200D02*
X127396898Y-141374580D01*
X127396898Y-141374580D02*
X127396898Y-141041247D01*
X127396898Y-141041247D02*
X127206422Y-141041247D01*
X127825470Y-140803152D02*
X127825470Y-141469819D01*
X127825470Y-140898390D02*
X127873089Y-140850771D01*
X127873089Y-140850771D02*
X127968327Y-140803152D01*
X127968327Y-140803152D02*
X128111184Y-140803152D01*
X128111184Y-140803152D02*
X128206422Y-140850771D01*
X128206422Y-140850771D02*
X128254041Y-140946009D01*
X128254041Y-140946009D02*
X128254041Y-141469819D01*
X129158803Y-141469819D02*
X129158803Y-140469819D01*
X129158803Y-141422200D02*
X129063565Y-141469819D01*
X129063565Y-141469819D02*
X128873089Y-141469819D01*
X128873089Y-141469819D02*
X128777851Y-141422200D01*
X128777851Y-141422200D02*
X128730232Y-141374580D01*
X128730232Y-141374580D02*
X128682613Y-141279342D01*
X128682613Y-141279342D02*
X128682613Y-140993628D01*
X128682613Y-140993628D02*
X128730232Y-140898390D01*
X128730232Y-140898390D02*
X128777851Y-140850771D01*
X128777851Y-140850771D02*
X128873089Y-140803152D01*
X128873089Y-140803152D02*
X129063565Y-140803152D01*
X129063565Y-140803152D02*
X129158803Y-140850771D01*
X128945707Y-79654819D02*
X128612374Y-79178628D01*
X128374279Y-79654819D02*
X128374279Y-78654819D01*
X128374279Y-78654819D02*
X128755231Y-78654819D01*
X128755231Y-78654819D02*
X128850469Y-78702438D01*
X128850469Y-78702438D02*
X128898088Y-78750057D01*
X128898088Y-78750057D02*
X128945707Y-78845295D01*
X128945707Y-78845295D02*
X128945707Y-78988152D01*
X128945707Y-78988152D02*
X128898088Y-79083390D01*
X128898088Y-79083390D02*
X128850469Y-79131009D01*
X128850469Y-79131009D02*
X128755231Y-79178628D01*
X128755231Y-79178628D02*
X128374279Y-79178628D01*
X128850469Y-82874819D02*
X128374279Y-82874819D01*
X128374279Y-82874819D02*
X128374279Y-81874819D01*
X128898088Y-85142438D02*
X128802850Y-85094819D01*
X128802850Y-85094819D02*
X128659993Y-85094819D01*
X128659993Y-85094819D02*
X128517136Y-85142438D01*
X128517136Y-85142438D02*
X128421898Y-85237676D01*
X128421898Y-85237676D02*
X128374279Y-85332914D01*
X128374279Y-85332914D02*
X128326660Y-85523390D01*
X128326660Y-85523390D02*
X128326660Y-85666247D01*
X128326660Y-85666247D02*
X128374279Y-85856723D01*
X128374279Y-85856723D02*
X128421898Y-85951961D01*
X128421898Y-85951961D02*
X128517136Y-86047200D01*
X128517136Y-86047200D02*
X128659993Y-86094819D01*
X128659993Y-86094819D02*
X128755231Y-86094819D01*
X128755231Y-86094819D02*
X128898088Y-86047200D01*
X128898088Y-86047200D02*
X128945707Y-85999580D01*
X128945707Y-85999580D02*
X128945707Y-85666247D01*
X128945707Y-85666247D02*
X128755231Y-85666247D01*
X129374279Y-85428152D02*
X129374279Y-86094819D01*
X129374279Y-85523390D02*
X129421898Y-85475771D01*
X129421898Y-85475771D02*
X129517136Y-85428152D01*
X129517136Y-85428152D02*
X129659993Y-85428152D01*
X129659993Y-85428152D02*
X129755231Y-85475771D01*
X129755231Y-85475771D02*
X129802850Y-85571009D01*
X129802850Y-85571009D02*
X129802850Y-86094819D01*
X130707612Y-86094819D02*
X130707612Y-85094819D01*
X130707612Y-86047200D02*
X130612374Y-86094819D01*
X130612374Y-86094819D02*
X130421898Y-86094819D01*
X130421898Y-86094819D02*
X130326660Y-86047200D01*
X130326660Y-86047200D02*
X130279041Y-85999580D01*
X130279041Y-85999580D02*
X130231422Y-85904342D01*
X130231422Y-85904342D02*
X130231422Y-85618628D01*
X130231422Y-85618628D02*
X130279041Y-85523390D01*
X130279041Y-85523390D02*
X130326660Y-85475771D01*
X130326660Y-85475771D02*
X130421898Y-85428152D01*
X130421898Y-85428152D02*
X130612374Y-85428152D01*
X130612374Y-85428152D02*
X130707612Y-85475771D01*
X124745707Y-89674580D02*
X124698088Y-89722200D01*
X124698088Y-89722200D02*
X124555231Y-89769819D01*
X124555231Y-89769819D02*
X124459993Y-89769819D01*
X124459993Y-89769819D02*
X124317136Y-89722200D01*
X124317136Y-89722200D02*
X124221898Y-89626961D01*
X124221898Y-89626961D02*
X124174279Y-89531723D01*
X124174279Y-89531723D02*
X124126660Y-89341247D01*
X124126660Y-89341247D02*
X124126660Y-89198390D01*
X124126660Y-89198390D02*
X124174279Y-89007914D01*
X124174279Y-89007914D02*
X124221898Y-88912676D01*
X124221898Y-88912676D02*
X124317136Y-88817438D01*
X124317136Y-88817438D02*
X124459993Y-88769819D01*
X124459993Y-88769819D02*
X124555231Y-88769819D01*
X124555231Y-88769819D02*
X124698088Y-88817438D01*
X124698088Y-88817438D02*
X124745707Y-88865057D01*
X125031422Y-89103152D02*
X125412374Y-89103152D01*
X125174279Y-88769819D02*
X125174279Y-89626961D01*
X125174279Y-89626961D02*
X125221898Y-89722200D01*
X125221898Y-89722200D02*
X125317136Y-89769819D01*
X125317136Y-89769819D02*
X125412374Y-89769819D01*
X125745708Y-89769819D02*
X125745708Y-89103152D01*
X125745708Y-89293628D02*
X125793327Y-89198390D01*
X125793327Y-89198390D02*
X125840946Y-89150771D01*
X125840946Y-89150771D02*
X125936184Y-89103152D01*
X125936184Y-89103152D02*
X126031422Y-89103152D01*
X126507613Y-89769819D02*
X126412375Y-89722200D01*
X126412375Y-89722200D02*
X126364756Y-89626961D01*
X126364756Y-89626961D02*
X126364756Y-88769819D01*
X124745707Y-45374580D02*
X124698088Y-45422200D01*
X124698088Y-45422200D02*
X124555231Y-45469819D01*
X124555231Y-45469819D02*
X124459993Y-45469819D01*
X124459993Y-45469819D02*
X124317136Y-45422200D01*
X124317136Y-45422200D02*
X124221898Y-45326961D01*
X124221898Y-45326961D02*
X124174279Y-45231723D01*
X124174279Y-45231723D02*
X124126660Y-45041247D01*
X124126660Y-45041247D02*
X124126660Y-44898390D01*
X124126660Y-44898390D02*
X124174279Y-44707914D01*
X124174279Y-44707914D02*
X124221898Y-44612676D01*
X124221898Y-44612676D02*
X124317136Y-44517438D01*
X124317136Y-44517438D02*
X124459993Y-44469819D01*
X124459993Y-44469819D02*
X124555231Y-44469819D01*
X124555231Y-44469819D02*
X124698088Y-44517438D01*
X124698088Y-44517438D02*
X124745707Y-44565057D01*
X125031422Y-44803152D02*
X125412374Y-44803152D01*
X125174279Y-44469819D02*
X125174279Y-45326961D01*
X125174279Y-45326961D02*
X125221898Y-45422200D01*
X125221898Y-45422200D02*
X125317136Y-45469819D01*
X125317136Y-45469819D02*
X125412374Y-45469819D01*
X125745708Y-45469819D02*
X125745708Y-44803152D01*
X125745708Y-44993628D02*
X125793327Y-44898390D01*
X125793327Y-44898390D02*
X125840946Y-44850771D01*
X125840946Y-44850771D02*
X125936184Y-44803152D01*
X125936184Y-44803152D02*
X126031422Y-44803152D01*
X126507613Y-45469819D02*
X126412375Y-45422200D01*
X126412375Y-45422200D02*
X126364756Y-45326961D01*
X126364756Y-45326961D02*
X126364756Y-44469819D01*
X128945707Y-35354819D02*
X128612374Y-34878628D01*
X128374279Y-35354819D02*
X128374279Y-34354819D01*
X128374279Y-34354819D02*
X128755231Y-34354819D01*
X128755231Y-34354819D02*
X128850469Y-34402438D01*
X128850469Y-34402438D02*
X128898088Y-34450057D01*
X128898088Y-34450057D02*
X128945707Y-34545295D01*
X128945707Y-34545295D02*
X128945707Y-34688152D01*
X128945707Y-34688152D02*
X128898088Y-34783390D01*
X128898088Y-34783390D02*
X128850469Y-34831009D01*
X128850469Y-34831009D02*
X128755231Y-34878628D01*
X128755231Y-34878628D02*
X128374279Y-34878628D01*
X128850469Y-38574819D02*
X128374279Y-38574819D01*
X128374279Y-38574819D02*
X128374279Y-37574819D01*
X128898088Y-40842438D02*
X128802850Y-40794819D01*
X128802850Y-40794819D02*
X128659993Y-40794819D01*
X128659993Y-40794819D02*
X128517136Y-40842438D01*
X128517136Y-40842438D02*
X128421898Y-40937676D01*
X128421898Y-40937676D02*
X128374279Y-41032914D01*
X128374279Y-41032914D02*
X128326660Y-41223390D01*
X128326660Y-41223390D02*
X128326660Y-41366247D01*
X128326660Y-41366247D02*
X128374279Y-41556723D01*
X128374279Y-41556723D02*
X128421898Y-41651961D01*
X128421898Y-41651961D02*
X128517136Y-41747200D01*
X128517136Y-41747200D02*
X128659993Y-41794819D01*
X128659993Y-41794819D02*
X128755231Y-41794819D01*
X128755231Y-41794819D02*
X128898088Y-41747200D01*
X128898088Y-41747200D02*
X128945707Y-41699580D01*
X128945707Y-41699580D02*
X128945707Y-41366247D01*
X128945707Y-41366247D02*
X128755231Y-41366247D01*
X129374279Y-41128152D02*
X129374279Y-41794819D01*
X129374279Y-41223390D02*
X129421898Y-41175771D01*
X129421898Y-41175771D02*
X129517136Y-41128152D01*
X129517136Y-41128152D02*
X129659993Y-41128152D01*
X129659993Y-41128152D02*
X129755231Y-41175771D01*
X129755231Y-41175771D02*
X129802850Y-41271009D01*
X129802850Y-41271009D02*
X129802850Y-41794819D01*
X130707612Y-41794819D02*
X130707612Y-40794819D01*
X130707612Y-41747200D02*
X130612374Y-41794819D01*
X130612374Y-41794819D02*
X130421898Y-41794819D01*
X130421898Y-41794819D02*
X130326660Y-41747200D01*
X130326660Y-41747200D02*
X130279041Y-41699580D01*
X130279041Y-41699580D02*
X130231422Y-41604342D01*
X130231422Y-41604342D02*
X130231422Y-41318628D01*
X130231422Y-41318628D02*
X130279041Y-41223390D01*
X130279041Y-41223390D02*
X130326660Y-41175771D01*
X130326660Y-41175771D02*
X130421898Y-41128152D01*
X130421898Y-41128152D02*
X130612374Y-41128152D01*
X130612374Y-41128152D02*
X130707612Y-41175771D01*
X124396898Y-97169819D02*
X124587374Y-97169819D01*
X124587374Y-97169819D02*
X124682612Y-97122200D01*
X124682612Y-97122200D02*
X124730231Y-97074580D01*
X124730231Y-97074580D02*
X124825469Y-96931723D01*
X124825469Y-96931723D02*
X124873088Y-96741247D01*
X124873088Y-96741247D02*
X124873088Y-96360295D01*
X124873088Y-96360295D02*
X124825469Y-96265057D01*
X124825469Y-96265057D02*
X124777850Y-96217438D01*
X124777850Y-96217438D02*
X124682612Y-96169819D01*
X124682612Y-96169819D02*
X124492136Y-96169819D01*
X124492136Y-96169819D02*
X124396898Y-96217438D01*
X124396898Y-96217438D02*
X124349279Y-96265057D01*
X124349279Y-96265057D02*
X124301660Y-96360295D01*
X124301660Y-96360295D02*
X124301660Y-96598390D01*
X124301660Y-96598390D02*
X124349279Y-96693628D01*
X124349279Y-96693628D02*
X124396898Y-96741247D01*
X124396898Y-96741247D02*
X124492136Y-96788866D01*
X124492136Y-96788866D02*
X124682612Y-96788866D01*
X124682612Y-96788866D02*
X124777850Y-96741247D01*
X124777850Y-96741247D02*
X124825469Y-96693628D01*
X124825469Y-96693628D02*
X124873088Y-96598390D01*
X125206422Y-96503152D02*
X125444517Y-97169819D01*
X125444517Y-97169819D02*
X125682612Y-96503152D01*
X127349279Y-96217438D02*
X127254041Y-96169819D01*
X127254041Y-96169819D02*
X127111184Y-96169819D01*
X127111184Y-96169819D02*
X126968327Y-96217438D01*
X126968327Y-96217438D02*
X126873089Y-96312676D01*
X126873089Y-96312676D02*
X126825470Y-96407914D01*
X126825470Y-96407914D02*
X126777851Y-96598390D01*
X126777851Y-96598390D02*
X126777851Y-96741247D01*
X126777851Y-96741247D02*
X126825470Y-96931723D01*
X126825470Y-96931723D02*
X126873089Y-97026961D01*
X126873089Y-97026961D02*
X126968327Y-97122200D01*
X126968327Y-97122200D02*
X127111184Y-97169819D01*
X127111184Y-97169819D02*
X127206422Y-97169819D01*
X127206422Y-97169819D02*
X127349279Y-97122200D01*
X127349279Y-97122200D02*
X127396898Y-97074580D01*
X127396898Y-97074580D02*
X127396898Y-96741247D01*
X127396898Y-96741247D02*
X127206422Y-96741247D01*
X127825470Y-96503152D02*
X127825470Y-97169819D01*
X127825470Y-96598390D02*
X127873089Y-96550771D01*
X127873089Y-96550771D02*
X127968327Y-96503152D01*
X127968327Y-96503152D02*
X128111184Y-96503152D01*
X128111184Y-96503152D02*
X128206422Y-96550771D01*
X128206422Y-96550771D02*
X128254041Y-96646009D01*
X128254041Y-96646009D02*
X128254041Y-97169819D01*
X129158803Y-97169819D02*
X129158803Y-96169819D01*
X129158803Y-97122200D02*
X129063565Y-97169819D01*
X129063565Y-97169819D02*
X128873089Y-97169819D01*
X128873089Y-97169819D02*
X128777851Y-97122200D01*
X128777851Y-97122200D02*
X128730232Y-97074580D01*
X128730232Y-97074580D02*
X128682613Y-96979342D01*
X128682613Y-96979342D02*
X128682613Y-96693628D01*
X128682613Y-96693628D02*
X128730232Y-96598390D01*
X128730232Y-96598390D02*
X128777851Y-96550771D01*
X128777851Y-96550771D02*
X128873089Y-96503152D01*
X128873089Y-96503152D02*
X129063565Y-96503152D01*
X129063565Y-96503152D02*
X129158803Y-96550771D01*
X124745707Y-133974580D02*
X124698088Y-134022200D01*
X124698088Y-134022200D02*
X124555231Y-134069819D01*
X124555231Y-134069819D02*
X124459993Y-134069819D01*
X124459993Y-134069819D02*
X124317136Y-134022200D01*
X124317136Y-134022200D02*
X124221898Y-133926961D01*
X124221898Y-133926961D02*
X124174279Y-133831723D01*
X124174279Y-133831723D02*
X124126660Y-133641247D01*
X124126660Y-133641247D02*
X124126660Y-133498390D01*
X124126660Y-133498390D02*
X124174279Y-133307914D01*
X124174279Y-133307914D02*
X124221898Y-133212676D01*
X124221898Y-133212676D02*
X124317136Y-133117438D01*
X124317136Y-133117438D02*
X124459993Y-133069819D01*
X124459993Y-133069819D02*
X124555231Y-133069819D01*
X124555231Y-133069819D02*
X124698088Y-133117438D01*
X124698088Y-133117438D02*
X124745707Y-133165057D01*
X125031422Y-133403152D02*
X125412374Y-133403152D01*
X125174279Y-133069819D02*
X125174279Y-133926961D01*
X125174279Y-133926961D02*
X125221898Y-134022200D01*
X125221898Y-134022200D02*
X125317136Y-134069819D01*
X125317136Y-134069819D02*
X125412374Y-134069819D01*
X125745708Y-134069819D02*
X125745708Y-133403152D01*
X125745708Y-133593628D02*
X125793327Y-133498390D01*
X125793327Y-133498390D02*
X125840946Y-133450771D01*
X125840946Y-133450771D02*
X125936184Y-133403152D01*
X125936184Y-133403152D02*
X126031422Y-133403152D01*
X126507613Y-134069819D02*
X126412375Y-134022200D01*
X126412375Y-134022200D02*
X126364756Y-133926961D01*
X126364756Y-133926961D02*
X126364756Y-133069819D01*
X128945707Y-123954819D02*
X128612374Y-123478628D01*
X128374279Y-123954819D02*
X128374279Y-122954819D01*
X128374279Y-122954819D02*
X128755231Y-122954819D01*
X128755231Y-122954819D02*
X128850469Y-123002438D01*
X128850469Y-123002438D02*
X128898088Y-123050057D01*
X128898088Y-123050057D02*
X128945707Y-123145295D01*
X128945707Y-123145295D02*
X128945707Y-123288152D01*
X128945707Y-123288152D02*
X128898088Y-123383390D01*
X128898088Y-123383390D02*
X128850469Y-123431009D01*
X128850469Y-123431009D02*
X128755231Y-123478628D01*
X128755231Y-123478628D02*
X128374279Y-123478628D01*
X128850469Y-127174819D02*
X128374279Y-127174819D01*
X128374279Y-127174819D02*
X128374279Y-126174819D01*
X128898088Y-129442438D02*
X128802850Y-129394819D01*
X128802850Y-129394819D02*
X128659993Y-129394819D01*
X128659993Y-129394819D02*
X128517136Y-129442438D01*
X128517136Y-129442438D02*
X128421898Y-129537676D01*
X128421898Y-129537676D02*
X128374279Y-129632914D01*
X128374279Y-129632914D02*
X128326660Y-129823390D01*
X128326660Y-129823390D02*
X128326660Y-129966247D01*
X128326660Y-129966247D02*
X128374279Y-130156723D01*
X128374279Y-130156723D02*
X128421898Y-130251961D01*
X128421898Y-130251961D02*
X128517136Y-130347200D01*
X128517136Y-130347200D02*
X128659993Y-130394819D01*
X128659993Y-130394819D02*
X128755231Y-130394819D01*
X128755231Y-130394819D02*
X128898088Y-130347200D01*
X128898088Y-130347200D02*
X128945707Y-130299580D01*
X128945707Y-130299580D02*
X128945707Y-129966247D01*
X128945707Y-129966247D02*
X128755231Y-129966247D01*
X129374279Y-129728152D02*
X129374279Y-130394819D01*
X129374279Y-129823390D02*
X129421898Y-129775771D01*
X129421898Y-129775771D02*
X129517136Y-129728152D01*
X129517136Y-129728152D02*
X129659993Y-129728152D01*
X129659993Y-129728152D02*
X129755231Y-129775771D01*
X129755231Y-129775771D02*
X129802850Y-129871009D01*
X129802850Y-129871009D02*
X129802850Y-130394819D01*
X130707612Y-130394819D02*
X130707612Y-129394819D01*
X130707612Y-130347200D02*
X130612374Y-130394819D01*
X130612374Y-130394819D02*
X130421898Y-130394819D01*
X130421898Y-130394819D02*
X130326660Y-130347200D01*
X130326660Y-130347200D02*
X130279041Y-130299580D01*
X130279041Y-130299580D02*
X130231422Y-130204342D01*
X130231422Y-130204342D02*
X130231422Y-129918628D01*
X130231422Y-129918628D02*
X130279041Y-129823390D01*
X130279041Y-129823390D02*
X130326660Y-129775771D01*
X130326660Y-129775771D02*
X130421898Y-129728152D01*
X130421898Y-129728152D02*
X130612374Y-129728152D01*
X130612374Y-129728152D02*
X130707612Y-129775771D01*
X131604166Y-44654819D02*
X131270833Y-44178628D01*
X131032738Y-44654819D02*
X131032738Y-43654819D01*
X131032738Y-43654819D02*
X131413690Y-43654819D01*
X131413690Y-43654819D02*
X131508928Y-43702438D01*
X131508928Y-43702438D02*
X131556547Y-43750057D01*
X131556547Y-43750057D02*
X131604166Y-43845295D01*
X131604166Y-43845295D02*
X131604166Y-43988152D01*
X131604166Y-43988152D02*
X131556547Y-44083390D01*
X131556547Y-44083390D02*
X131508928Y-44131009D01*
X131508928Y-44131009D02*
X131413690Y-44178628D01*
X131413690Y-44178628D02*
X131032738Y-44178628D01*
X132556547Y-43702438D02*
X132461309Y-43654819D01*
X132461309Y-43654819D02*
X132318452Y-43654819D01*
X132318452Y-43654819D02*
X132175595Y-43702438D01*
X132175595Y-43702438D02*
X132080357Y-43797676D01*
X132080357Y-43797676D02*
X132032738Y-43892914D01*
X132032738Y-43892914D02*
X131985119Y-44083390D01*
X131985119Y-44083390D02*
X131985119Y-44226247D01*
X131985119Y-44226247D02*
X132032738Y-44416723D01*
X132032738Y-44416723D02*
X132080357Y-44511961D01*
X132080357Y-44511961D02*
X132175595Y-44607200D01*
X132175595Y-44607200D02*
X132318452Y-44654819D01*
X132318452Y-44654819D02*
X132413690Y-44654819D01*
X132413690Y-44654819D02*
X132556547Y-44607200D01*
X132556547Y-44607200D02*
X132604166Y-44559580D01*
X132604166Y-44559580D02*
X132604166Y-44226247D01*
X132604166Y-44226247D02*
X132413690Y-44226247D01*
X133461309Y-44654819D02*
X133461309Y-44131009D01*
X133461309Y-44131009D02*
X133413690Y-44035771D01*
X133413690Y-44035771D02*
X133318452Y-43988152D01*
X133318452Y-43988152D02*
X133127976Y-43988152D01*
X133127976Y-43988152D02*
X133032738Y-44035771D01*
X133461309Y-44607200D02*
X133366071Y-44654819D01*
X133366071Y-44654819D02*
X133127976Y-44654819D01*
X133127976Y-44654819D02*
X133032738Y-44607200D01*
X133032738Y-44607200D02*
X132985119Y-44511961D01*
X132985119Y-44511961D02*
X132985119Y-44416723D01*
X132985119Y-44416723D02*
X133032738Y-44321485D01*
X133032738Y-44321485D02*
X133127976Y-44273866D01*
X133127976Y-44273866D02*
X133366071Y-44273866D01*
X133366071Y-44273866D02*
X133461309Y-44226247D01*
X133794643Y-43988152D02*
X134175595Y-43988152D01*
X133937500Y-43654819D02*
X133937500Y-44511961D01*
X133937500Y-44511961D02*
X133985119Y-44607200D01*
X133985119Y-44607200D02*
X134080357Y-44654819D01*
X134080357Y-44654819D02*
X134175595Y-44654819D01*
X134889881Y-44607200D02*
X134794643Y-44654819D01*
X134794643Y-44654819D02*
X134604167Y-44654819D01*
X134604167Y-44654819D02*
X134508929Y-44607200D01*
X134508929Y-44607200D02*
X134461310Y-44511961D01*
X134461310Y-44511961D02*
X134461310Y-44131009D01*
X134461310Y-44131009D02*
X134508929Y-44035771D01*
X134508929Y-44035771D02*
X134604167Y-43988152D01*
X134604167Y-43988152D02*
X134794643Y-43988152D01*
X134794643Y-43988152D02*
X134889881Y-44035771D01*
X134889881Y-44035771D02*
X134937500Y-44131009D01*
X134937500Y-44131009D02*
X134937500Y-44226247D01*
X134937500Y-44226247D02*
X134461310Y-44321485D01*
X135889881Y-44654819D02*
X135318453Y-44654819D01*
X135604167Y-44654819D02*
X135604167Y-43654819D01*
X135604167Y-43654819D02*
X135508929Y-43797676D01*
X135508929Y-43797676D02*
X135413691Y-43892914D01*
X135413691Y-43892914D02*
X135318453Y-43940533D01*
X128185118Y-73154819D02*
X127851785Y-72678628D01*
X127613690Y-73154819D02*
X127613690Y-72154819D01*
X127613690Y-72154819D02*
X127994642Y-72154819D01*
X127994642Y-72154819D02*
X128089880Y-72202438D01*
X128089880Y-72202438D02*
X128137499Y-72250057D01*
X128137499Y-72250057D02*
X128185118Y-72345295D01*
X128185118Y-72345295D02*
X128185118Y-72488152D01*
X128185118Y-72488152D02*
X128137499Y-72583390D01*
X128137499Y-72583390D02*
X128089880Y-72631009D01*
X128089880Y-72631009D02*
X127994642Y-72678628D01*
X127994642Y-72678628D02*
X127613690Y-72678628D01*
X129089880Y-73154819D02*
X128613690Y-73154819D01*
X128613690Y-73154819D02*
X128613690Y-72154819D01*
X129804166Y-73107200D02*
X129708928Y-73154819D01*
X129708928Y-73154819D02*
X129518452Y-73154819D01*
X129518452Y-73154819D02*
X129423214Y-73107200D01*
X129423214Y-73107200D02*
X129375595Y-73011961D01*
X129375595Y-73011961D02*
X129375595Y-72631009D01*
X129375595Y-72631009D02*
X129423214Y-72535771D01*
X129423214Y-72535771D02*
X129518452Y-72488152D01*
X129518452Y-72488152D02*
X129708928Y-72488152D01*
X129708928Y-72488152D02*
X129804166Y-72535771D01*
X129804166Y-72535771D02*
X129851785Y-72631009D01*
X129851785Y-72631009D02*
X129851785Y-72726247D01*
X129851785Y-72726247D02*
X129375595Y-72821485D01*
X130708928Y-73154819D02*
X130708928Y-72154819D01*
X130708928Y-73107200D02*
X130613690Y-73154819D01*
X130613690Y-73154819D02*
X130423214Y-73154819D01*
X130423214Y-73154819D02*
X130327976Y-73107200D01*
X130327976Y-73107200D02*
X130280357Y-73059580D01*
X130280357Y-73059580D02*
X130232738Y-72964342D01*
X130232738Y-72964342D02*
X130232738Y-72678628D01*
X130232738Y-72678628D02*
X130280357Y-72583390D01*
X130280357Y-72583390D02*
X130327976Y-72535771D01*
X130327976Y-72535771D02*
X130423214Y-72488152D01*
X130423214Y-72488152D02*
X130613690Y-72488152D01*
X130613690Y-72488152D02*
X130708928Y-72535771D01*
X131708928Y-73154819D02*
X131137500Y-73154819D01*
X131423214Y-73154819D02*
X131423214Y-72154819D01*
X131423214Y-72154819D02*
X131327976Y-72297676D01*
X131327976Y-72297676D02*
X131232738Y-72392914D01*
X131232738Y-72392914D02*
X131137500Y-72440533D01*
X131604166Y-88954819D02*
X131270833Y-88478628D01*
X131032738Y-88954819D02*
X131032738Y-87954819D01*
X131032738Y-87954819D02*
X131413690Y-87954819D01*
X131413690Y-87954819D02*
X131508928Y-88002438D01*
X131508928Y-88002438D02*
X131556547Y-88050057D01*
X131556547Y-88050057D02*
X131604166Y-88145295D01*
X131604166Y-88145295D02*
X131604166Y-88288152D01*
X131604166Y-88288152D02*
X131556547Y-88383390D01*
X131556547Y-88383390D02*
X131508928Y-88431009D01*
X131508928Y-88431009D02*
X131413690Y-88478628D01*
X131413690Y-88478628D02*
X131032738Y-88478628D01*
X132556547Y-88002438D02*
X132461309Y-87954819D01*
X132461309Y-87954819D02*
X132318452Y-87954819D01*
X132318452Y-87954819D02*
X132175595Y-88002438D01*
X132175595Y-88002438D02*
X132080357Y-88097676D01*
X132080357Y-88097676D02*
X132032738Y-88192914D01*
X132032738Y-88192914D02*
X131985119Y-88383390D01*
X131985119Y-88383390D02*
X131985119Y-88526247D01*
X131985119Y-88526247D02*
X132032738Y-88716723D01*
X132032738Y-88716723D02*
X132080357Y-88811961D01*
X132080357Y-88811961D02*
X132175595Y-88907200D01*
X132175595Y-88907200D02*
X132318452Y-88954819D01*
X132318452Y-88954819D02*
X132413690Y-88954819D01*
X132413690Y-88954819D02*
X132556547Y-88907200D01*
X132556547Y-88907200D02*
X132604166Y-88859580D01*
X132604166Y-88859580D02*
X132604166Y-88526247D01*
X132604166Y-88526247D02*
X132413690Y-88526247D01*
X133461309Y-88954819D02*
X133461309Y-88431009D01*
X133461309Y-88431009D02*
X133413690Y-88335771D01*
X133413690Y-88335771D02*
X133318452Y-88288152D01*
X133318452Y-88288152D02*
X133127976Y-88288152D01*
X133127976Y-88288152D02*
X133032738Y-88335771D01*
X133461309Y-88907200D02*
X133366071Y-88954819D01*
X133366071Y-88954819D02*
X133127976Y-88954819D01*
X133127976Y-88954819D02*
X133032738Y-88907200D01*
X133032738Y-88907200D02*
X132985119Y-88811961D01*
X132985119Y-88811961D02*
X132985119Y-88716723D01*
X132985119Y-88716723D02*
X133032738Y-88621485D01*
X133032738Y-88621485D02*
X133127976Y-88573866D01*
X133127976Y-88573866D02*
X133366071Y-88573866D01*
X133366071Y-88573866D02*
X133461309Y-88526247D01*
X133794643Y-88288152D02*
X134175595Y-88288152D01*
X133937500Y-87954819D02*
X133937500Y-88811961D01*
X133937500Y-88811961D02*
X133985119Y-88907200D01*
X133985119Y-88907200D02*
X134080357Y-88954819D01*
X134080357Y-88954819D02*
X134175595Y-88954819D01*
X134889881Y-88907200D02*
X134794643Y-88954819D01*
X134794643Y-88954819D02*
X134604167Y-88954819D01*
X134604167Y-88954819D02*
X134508929Y-88907200D01*
X134508929Y-88907200D02*
X134461310Y-88811961D01*
X134461310Y-88811961D02*
X134461310Y-88431009D01*
X134461310Y-88431009D02*
X134508929Y-88335771D01*
X134508929Y-88335771D02*
X134604167Y-88288152D01*
X134604167Y-88288152D02*
X134794643Y-88288152D01*
X134794643Y-88288152D02*
X134889881Y-88335771D01*
X134889881Y-88335771D02*
X134937500Y-88431009D01*
X134937500Y-88431009D02*
X134937500Y-88526247D01*
X134937500Y-88526247D02*
X134461310Y-88621485D01*
X135889881Y-88954819D02*
X135318453Y-88954819D01*
X135604167Y-88954819D02*
X135604167Y-87954819D01*
X135604167Y-87954819D02*
X135508929Y-88097676D01*
X135508929Y-88097676D02*
X135413691Y-88192914D01*
X135413691Y-88192914D02*
X135318453Y-88240533D01*
X133904405Y-21154819D02*
X133904405Y-20154819D01*
X133904405Y-20154819D02*
X134142500Y-20154819D01*
X134142500Y-20154819D02*
X134285357Y-20202438D01*
X134285357Y-20202438D02*
X134380595Y-20297676D01*
X134380595Y-20297676D02*
X134428214Y-20392914D01*
X134428214Y-20392914D02*
X134475833Y-20583390D01*
X134475833Y-20583390D02*
X134475833Y-20726247D01*
X134475833Y-20726247D02*
X134428214Y-20916723D01*
X134428214Y-20916723D02*
X134380595Y-21011961D01*
X134380595Y-21011961D02*
X134285357Y-21107200D01*
X134285357Y-21107200D02*
X134142500Y-21154819D01*
X134142500Y-21154819D02*
X133904405Y-21154819D01*
X134856786Y-20250057D02*
X134904405Y-20202438D01*
X134904405Y-20202438D02*
X134999643Y-20154819D01*
X134999643Y-20154819D02*
X135237738Y-20154819D01*
X135237738Y-20154819D02*
X135332976Y-20202438D01*
X135332976Y-20202438D02*
X135380595Y-20250057D01*
X135380595Y-20250057D02*
X135428214Y-20345295D01*
X135428214Y-20345295D02*
X135428214Y-20440533D01*
X135428214Y-20440533D02*
X135380595Y-20583390D01*
X135380595Y-20583390D02*
X134809167Y-21154819D01*
X134809167Y-21154819D02*
X135428214Y-21154819D01*
X128185118Y-120454819D02*
X127851785Y-119978628D01*
X127613690Y-120454819D02*
X127613690Y-119454819D01*
X127613690Y-119454819D02*
X127994642Y-119454819D01*
X127994642Y-119454819D02*
X128089880Y-119502438D01*
X128089880Y-119502438D02*
X128137499Y-119550057D01*
X128137499Y-119550057D02*
X128185118Y-119645295D01*
X128185118Y-119645295D02*
X128185118Y-119788152D01*
X128185118Y-119788152D02*
X128137499Y-119883390D01*
X128137499Y-119883390D02*
X128089880Y-119931009D01*
X128089880Y-119931009D02*
X127994642Y-119978628D01*
X127994642Y-119978628D02*
X127613690Y-119978628D01*
X129089880Y-120454819D02*
X128613690Y-120454819D01*
X128613690Y-120454819D02*
X128613690Y-119454819D01*
X129804166Y-120407200D02*
X129708928Y-120454819D01*
X129708928Y-120454819D02*
X129518452Y-120454819D01*
X129518452Y-120454819D02*
X129423214Y-120407200D01*
X129423214Y-120407200D02*
X129375595Y-120311961D01*
X129375595Y-120311961D02*
X129375595Y-119931009D01*
X129375595Y-119931009D02*
X129423214Y-119835771D01*
X129423214Y-119835771D02*
X129518452Y-119788152D01*
X129518452Y-119788152D02*
X129708928Y-119788152D01*
X129708928Y-119788152D02*
X129804166Y-119835771D01*
X129804166Y-119835771D02*
X129851785Y-119931009D01*
X129851785Y-119931009D02*
X129851785Y-120026247D01*
X129851785Y-120026247D02*
X129375595Y-120121485D01*
X130708928Y-120454819D02*
X130708928Y-119454819D01*
X130708928Y-120407200D02*
X130613690Y-120454819D01*
X130613690Y-120454819D02*
X130423214Y-120454819D01*
X130423214Y-120454819D02*
X130327976Y-120407200D01*
X130327976Y-120407200D02*
X130280357Y-120359580D01*
X130280357Y-120359580D02*
X130232738Y-120264342D01*
X130232738Y-120264342D02*
X130232738Y-119978628D01*
X130232738Y-119978628D02*
X130280357Y-119883390D01*
X130280357Y-119883390D02*
X130327976Y-119835771D01*
X130327976Y-119835771D02*
X130423214Y-119788152D01*
X130423214Y-119788152D02*
X130613690Y-119788152D01*
X130613690Y-119788152D02*
X130708928Y-119835771D01*
X131137500Y-119550057D02*
X131185119Y-119502438D01*
X131185119Y-119502438D02*
X131280357Y-119454819D01*
X131280357Y-119454819D02*
X131518452Y-119454819D01*
X131518452Y-119454819D02*
X131613690Y-119502438D01*
X131613690Y-119502438D02*
X131661309Y-119550057D01*
X131661309Y-119550057D02*
X131708928Y-119645295D01*
X131708928Y-119645295D02*
X131708928Y-119740533D01*
X131708928Y-119740533D02*
X131661309Y-119883390D01*
X131661309Y-119883390D02*
X131089881Y-120454819D01*
X131089881Y-120454819D02*
X131708928Y-120454819D01*
X162073214Y-94469104D02*
X162549404Y-94469104D01*
X161977976Y-94754819D02*
X162311309Y-93754819D01*
X162311309Y-93754819D02*
X162644642Y-94754819D01*
X163501785Y-94754819D02*
X162930357Y-94754819D01*
X163216071Y-94754819D02*
X163216071Y-93754819D01*
X163216071Y-93754819D02*
X163120833Y-93897676D01*
X163120833Y-93897676D02*
X163025595Y-93992914D01*
X163025595Y-93992914D02*
X162930357Y-94040533D01*
X163132738Y-73231009D02*
X163275595Y-73278628D01*
X163275595Y-73278628D02*
X163323214Y-73326247D01*
X163323214Y-73326247D02*
X163370833Y-73421485D01*
X163370833Y-73421485D02*
X163370833Y-73564342D01*
X163370833Y-73564342D02*
X163323214Y-73659580D01*
X163323214Y-73659580D02*
X163275595Y-73707200D01*
X163275595Y-73707200D02*
X163180357Y-73754819D01*
X163180357Y-73754819D02*
X162799405Y-73754819D01*
X162799405Y-73754819D02*
X162799405Y-72754819D01*
X162799405Y-72754819D02*
X163132738Y-72754819D01*
X163132738Y-72754819D02*
X163227976Y-72802438D01*
X163227976Y-72802438D02*
X163275595Y-72850057D01*
X163275595Y-72850057D02*
X163323214Y-72945295D01*
X163323214Y-72945295D02*
X163323214Y-73040533D01*
X163323214Y-73040533D02*
X163275595Y-73135771D01*
X163275595Y-73135771D02*
X163227976Y-73183390D01*
X163227976Y-73183390D02*
X163132738Y-73231009D01*
X163132738Y-73231009D02*
X162799405Y-73231009D01*
X164323214Y-73754819D02*
X163751786Y-73754819D01*
X164037500Y-73754819D02*
X164037500Y-72754819D01*
X164037500Y-72754819D02*
X163942262Y-72897676D01*
X163942262Y-72897676D02*
X163847024Y-72992914D01*
X163847024Y-72992914D02*
X163751786Y-73040533D01*
X129367319Y-56961904D02*
X130176842Y-56961904D01*
X130176842Y-56961904D02*
X130272080Y-56914285D01*
X130272080Y-56914285D02*
X130319700Y-56866666D01*
X130319700Y-56866666D02*
X130367319Y-56771428D01*
X130367319Y-56771428D02*
X130367319Y-56580952D01*
X130367319Y-56580952D02*
X130319700Y-56485714D01*
X130319700Y-56485714D02*
X130272080Y-56438095D01*
X130272080Y-56438095D02*
X130176842Y-56390476D01*
X130176842Y-56390476D02*
X129367319Y-56390476D01*
X130367319Y-55390476D02*
X130367319Y-55961904D01*
X130367319Y-55676190D02*
X129367319Y-55676190D01*
X129367319Y-55676190D02*
X129510176Y-55771428D01*
X129510176Y-55771428D02*
X129605414Y-55866666D01*
X129605414Y-55866666D02*
X129653033Y-55961904D01*
X128185118Y-76154819D02*
X127851785Y-75678628D01*
X127613690Y-76154819D02*
X127613690Y-75154819D01*
X127613690Y-75154819D02*
X127994642Y-75154819D01*
X127994642Y-75154819D02*
X128089880Y-75202438D01*
X128089880Y-75202438D02*
X128137499Y-75250057D01*
X128137499Y-75250057D02*
X128185118Y-75345295D01*
X128185118Y-75345295D02*
X128185118Y-75488152D01*
X128185118Y-75488152D02*
X128137499Y-75583390D01*
X128137499Y-75583390D02*
X128089880Y-75631009D01*
X128089880Y-75631009D02*
X127994642Y-75678628D01*
X127994642Y-75678628D02*
X127613690Y-75678628D01*
X129089880Y-76154819D02*
X128613690Y-76154819D01*
X128613690Y-76154819D02*
X128613690Y-75154819D01*
X129804166Y-76107200D02*
X129708928Y-76154819D01*
X129708928Y-76154819D02*
X129518452Y-76154819D01*
X129518452Y-76154819D02*
X129423214Y-76107200D01*
X129423214Y-76107200D02*
X129375595Y-76011961D01*
X129375595Y-76011961D02*
X129375595Y-75631009D01*
X129375595Y-75631009D02*
X129423214Y-75535771D01*
X129423214Y-75535771D02*
X129518452Y-75488152D01*
X129518452Y-75488152D02*
X129708928Y-75488152D01*
X129708928Y-75488152D02*
X129804166Y-75535771D01*
X129804166Y-75535771D02*
X129851785Y-75631009D01*
X129851785Y-75631009D02*
X129851785Y-75726247D01*
X129851785Y-75726247D02*
X129375595Y-75821485D01*
X130708928Y-76154819D02*
X130708928Y-75154819D01*
X130708928Y-76107200D02*
X130613690Y-76154819D01*
X130613690Y-76154819D02*
X130423214Y-76154819D01*
X130423214Y-76154819D02*
X130327976Y-76107200D01*
X130327976Y-76107200D02*
X130280357Y-76059580D01*
X130280357Y-76059580D02*
X130232738Y-75964342D01*
X130232738Y-75964342D02*
X130232738Y-75678628D01*
X130232738Y-75678628D02*
X130280357Y-75583390D01*
X130280357Y-75583390D02*
X130327976Y-75535771D01*
X130327976Y-75535771D02*
X130423214Y-75488152D01*
X130423214Y-75488152D02*
X130613690Y-75488152D01*
X130613690Y-75488152D02*
X130708928Y-75535771D01*
X131137500Y-75250057D02*
X131185119Y-75202438D01*
X131185119Y-75202438D02*
X131280357Y-75154819D01*
X131280357Y-75154819D02*
X131518452Y-75154819D01*
X131518452Y-75154819D02*
X131613690Y-75202438D01*
X131613690Y-75202438D02*
X131661309Y-75250057D01*
X131661309Y-75250057D02*
X131708928Y-75345295D01*
X131708928Y-75345295D02*
X131708928Y-75440533D01*
X131708928Y-75440533D02*
X131661309Y-75583390D01*
X131661309Y-75583390D02*
X131089881Y-76154819D01*
X131089881Y-76154819D02*
X131708928Y-76154819D01*
X133904405Y-109754819D02*
X133904405Y-108754819D01*
X133904405Y-108754819D02*
X134142500Y-108754819D01*
X134142500Y-108754819D02*
X134285357Y-108802438D01*
X134285357Y-108802438D02*
X134380595Y-108897676D01*
X134380595Y-108897676D02*
X134428214Y-108992914D01*
X134428214Y-108992914D02*
X134475833Y-109183390D01*
X134475833Y-109183390D02*
X134475833Y-109326247D01*
X134475833Y-109326247D02*
X134428214Y-109516723D01*
X134428214Y-109516723D02*
X134380595Y-109611961D01*
X134380595Y-109611961D02*
X134285357Y-109707200D01*
X134285357Y-109707200D02*
X134142500Y-109754819D01*
X134142500Y-109754819D02*
X133904405Y-109754819D01*
X134856786Y-108850057D02*
X134904405Y-108802438D01*
X134904405Y-108802438D02*
X134999643Y-108754819D01*
X134999643Y-108754819D02*
X135237738Y-108754819D01*
X135237738Y-108754819D02*
X135332976Y-108802438D01*
X135332976Y-108802438D02*
X135380595Y-108850057D01*
X135380595Y-108850057D02*
X135428214Y-108945295D01*
X135428214Y-108945295D02*
X135428214Y-109040533D01*
X135428214Y-109040533D02*
X135380595Y-109183390D01*
X135380595Y-109183390D02*
X134809167Y-109754819D01*
X134809167Y-109754819D02*
X135428214Y-109754819D01*
X163132738Y-117531009D02*
X163275595Y-117578628D01*
X163275595Y-117578628D02*
X163323214Y-117626247D01*
X163323214Y-117626247D02*
X163370833Y-117721485D01*
X163370833Y-117721485D02*
X163370833Y-117864342D01*
X163370833Y-117864342D02*
X163323214Y-117959580D01*
X163323214Y-117959580D02*
X163275595Y-118007200D01*
X163275595Y-118007200D02*
X163180357Y-118054819D01*
X163180357Y-118054819D02*
X162799405Y-118054819D01*
X162799405Y-118054819D02*
X162799405Y-117054819D01*
X162799405Y-117054819D02*
X163132738Y-117054819D01*
X163132738Y-117054819D02*
X163227976Y-117102438D01*
X163227976Y-117102438D02*
X163275595Y-117150057D01*
X163275595Y-117150057D02*
X163323214Y-117245295D01*
X163323214Y-117245295D02*
X163323214Y-117340533D01*
X163323214Y-117340533D02*
X163275595Y-117435771D01*
X163275595Y-117435771D02*
X163227976Y-117483390D01*
X163227976Y-117483390D02*
X163132738Y-117531009D01*
X163132738Y-117531009D02*
X162799405Y-117531009D01*
X164323214Y-118054819D02*
X163751786Y-118054819D01*
X164037500Y-118054819D02*
X164037500Y-117054819D01*
X164037500Y-117054819D02*
X163942262Y-117197676D01*
X163942262Y-117197676D02*
X163847024Y-117292914D01*
X163847024Y-117292914D02*
X163751786Y-117340533D01*
X124127976Y-130709819D02*
X124318452Y-130709819D01*
X124318452Y-130709819D02*
X124413690Y-130757438D01*
X124413690Y-130757438D02*
X124508928Y-130852676D01*
X124508928Y-130852676D02*
X124556547Y-131043152D01*
X124556547Y-131043152D02*
X124556547Y-131376485D01*
X124556547Y-131376485D02*
X124508928Y-131566961D01*
X124508928Y-131566961D02*
X124413690Y-131662200D01*
X124413690Y-131662200D02*
X124318452Y-131709819D01*
X124318452Y-131709819D02*
X124127976Y-131709819D01*
X124127976Y-131709819D02*
X124032738Y-131662200D01*
X124032738Y-131662200D02*
X123937500Y-131566961D01*
X123937500Y-131566961D02*
X123889881Y-131376485D01*
X123889881Y-131376485D02*
X123889881Y-131043152D01*
X123889881Y-131043152D02*
X123937500Y-130852676D01*
X123937500Y-130852676D02*
X124032738Y-130757438D01*
X124032738Y-130757438D02*
X124127976Y-130709819D01*
X125413690Y-131043152D02*
X125413690Y-131709819D01*
X124985119Y-131043152D02*
X124985119Y-131566961D01*
X124985119Y-131566961D02*
X125032738Y-131662200D01*
X125032738Y-131662200D02*
X125127976Y-131709819D01*
X125127976Y-131709819D02*
X125270833Y-131709819D01*
X125270833Y-131709819D02*
X125366071Y-131662200D01*
X125366071Y-131662200D02*
X125413690Y-131614580D01*
X125747024Y-131043152D02*
X126127976Y-131043152D01*
X125889881Y-130709819D02*
X125889881Y-131566961D01*
X125889881Y-131566961D02*
X125937500Y-131662200D01*
X125937500Y-131662200D02*
X126032738Y-131709819D01*
X126032738Y-131709819D02*
X126127976Y-131709819D01*
X126985119Y-131709819D02*
X126413691Y-131709819D01*
X126699405Y-131709819D02*
X126699405Y-130709819D01*
X126699405Y-130709819D02*
X126604167Y-130852676D01*
X126604167Y-130852676D02*
X126508929Y-130947914D01*
X126508929Y-130947914D02*
X126413691Y-130995533D01*
X163132738Y-28931009D02*
X163275595Y-28978628D01*
X163275595Y-28978628D02*
X163323214Y-29026247D01*
X163323214Y-29026247D02*
X163370833Y-29121485D01*
X163370833Y-29121485D02*
X163370833Y-29264342D01*
X163370833Y-29264342D02*
X163323214Y-29359580D01*
X163323214Y-29359580D02*
X163275595Y-29407200D01*
X163275595Y-29407200D02*
X163180357Y-29454819D01*
X163180357Y-29454819D02*
X162799405Y-29454819D01*
X162799405Y-29454819D02*
X162799405Y-28454819D01*
X162799405Y-28454819D02*
X163132738Y-28454819D01*
X163132738Y-28454819D02*
X163227976Y-28502438D01*
X163227976Y-28502438D02*
X163275595Y-28550057D01*
X163275595Y-28550057D02*
X163323214Y-28645295D01*
X163323214Y-28645295D02*
X163323214Y-28740533D01*
X163323214Y-28740533D02*
X163275595Y-28835771D01*
X163275595Y-28835771D02*
X163227976Y-28883390D01*
X163227976Y-28883390D02*
X163132738Y-28931009D01*
X163132738Y-28931009D02*
X162799405Y-28931009D01*
X164323214Y-29454819D02*
X163751786Y-29454819D01*
X164037500Y-29454819D02*
X164037500Y-28454819D01*
X164037500Y-28454819D02*
X163942262Y-28597676D01*
X163942262Y-28597676D02*
X163847024Y-28692914D01*
X163847024Y-28692914D02*
X163751786Y-28740533D01*
X132270833Y-136854819D02*
X131937500Y-136378628D01*
X131699405Y-136854819D02*
X131699405Y-135854819D01*
X131699405Y-135854819D02*
X132080357Y-135854819D01*
X132080357Y-135854819D02*
X132175595Y-135902438D01*
X132175595Y-135902438D02*
X132223214Y-135950057D01*
X132223214Y-135950057D02*
X132270833Y-136045295D01*
X132270833Y-136045295D02*
X132270833Y-136188152D01*
X132270833Y-136188152D02*
X132223214Y-136283390D01*
X132223214Y-136283390D02*
X132175595Y-136331009D01*
X132175595Y-136331009D02*
X132080357Y-136378628D01*
X132080357Y-136378628D02*
X131699405Y-136378628D01*
X132699405Y-136854819D02*
X132699405Y-135854819D01*
X132699405Y-135854819D02*
X133080357Y-135854819D01*
X133080357Y-135854819D02*
X133175595Y-135902438D01*
X133175595Y-135902438D02*
X133223214Y-135950057D01*
X133223214Y-135950057D02*
X133270833Y-136045295D01*
X133270833Y-136045295D02*
X133270833Y-136188152D01*
X133270833Y-136188152D02*
X133223214Y-136283390D01*
X133223214Y-136283390D02*
X133175595Y-136331009D01*
X133175595Y-136331009D02*
X133080357Y-136378628D01*
X133080357Y-136378628D02*
X132699405Y-136378628D01*
X133699405Y-136854819D02*
X133699405Y-135854819D01*
X133699405Y-135854819D02*
X133937500Y-135854819D01*
X133937500Y-135854819D02*
X134080357Y-135902438D01*
X134080357Y-135902438D02*
X134175595Y-135997676D01*
X134175595Y-135997676D02*
X134223214Y-136092914D01*
X134223214Y-136092914D02*
X134270833Y-136283390D01*
X134270833Y-136283390D02*
X134270833Y-136426247D01*
X134270833Y-136426247D02*
X134223214Y-136616723D01*
X134223214Y-136616723D02*
X134175595Y-136711961D01*
X134175595Y-136711961D02*
X134080357Y-136807200D01*
X134080357Y-136807200D02*
X133937500Y-136854819D01*
X133937500Y-136854819D02*
X133699405Y-136854819D01*
X135223214Y-136854819D02*
X134651786Y-136854819D01*
X134937500Y-136854819D02*
X134937500Y-135854819D01*
X134937500Y-135854819D02*
X134842262Y-135997676D01*
X134842262Y-135997676D02*
X134747024Y-136092914D01*
X134747024Y-136092914D02*
X134651786Y-136140533D01*
X139970951Y-80504819D02*
X139494761Y-80504819D01*
X139494761Y-80504819D02*
X139494761Y-79504819D01*
X140685237Y-80457200D02*
X140589999Y-80504819D01*
X140589999Y-80504819D02*
X140399523Y-80504819D01*
X140399523Y-80504819D02*
X140304285Y-80457200D01*
X140304285Y-80457200D02*
X140256666Y-80361961D01*
X140256666Y-80361961D02*
X140256666Y-79981009D01*
X140256666Y-79981009D02*
X140304285Y-79885771D01*
X140304285Y-79885771D02*
X140399523Y-79838152D01*
X140399523Y-79838152D02*
X140589999Y-79838152D01*
X140589999Y-79838152D02*
X140685237Y-79885771D01*
X140685237Y-79885771D02*
X140732856Y-79981009D01*
X140732856Y-79981009D02*
X140732856Y-80076247D01*
X140732856Y-80076247D02*
X140256666Y-80171485D01*
X141018571Y-79838152D02*
X141399523Y-79838152D01*
X141161428Y-80504819D02*
X141161428Y-79647676D01*
X141161428Y-79647676D02*
X141209047Y-79552438D01*
X141209047Y-79552438D02*
X141304285Y-79504819D01*
X141304285Y-79504819D02*
X141399523Y-79504819D01*
X141590000Y-79838152D02*
X141970952Y-79838152D01*
X141732857Y-79504819D02*
X141732857Y-80361961D01*
X141732857Y-80361961D02*
X141780476Y-80457200D01*
X141780476Y-80457200D02*
X141875714Y-80504819D01*
X141875714Y-80504819D02*
X141970952Y-80504819D01*
X143018571Y-79457200D02*
X142161429Y-80742914D01*
X143351905Y-80504819D02*
X143351905Y-79504819D01*
X143351905Y-79504819D02*
X143685238Y-80219104D01*
X143685238Y-80219104D02*
X144018571Y-79504819D01*
X144018571Y-79504819D02*
X144018571Y-80504819D01*
X144637619Y-80504819D02*
X144542381Y-80457200D01*
X144542381Y-80457200D02*
X144494762Y-80409580D01*
X144494762Y-80409580D02*
X144447143Y-80314342D01*
X144447143Y-80314342D02*
X144447143Y-80028628D01*
X144447143Y-80028628D02*
X144494762Y-79933390D01*
X144494762Y-79933390D02*
X144542381Y-79885771D01*
X144542381Y-79885771D02*
X144637619Y-79838152D01*
X144637619Y-79838152D02*
X144780476Y-79838152D01*
X144780476Y-79838152D02*
X144875714Y-79885771D01*
X144875714Y-79885771D02*
X144923333Y-79933390D01*
X144923333Y-79933390D02*
X144970952Y-80028628D01*
X144970952Y-80028628D02*
X144970952Y-80314342D01*
X144970952Y-80314342D02*
X144923333Y-80409580D01*
X144923333Y-80409580D02*
X144875714Y-80457200D01*
X144875714Y-80457200D02*
X144780476Y-80504819D01*
X144780476Y-80504819D02*
X144637619Y-80504819D01*
X145399524Y-79838152D02*
X145399524Y-80504819D01*
X145399524Y-79933390D02*
X145447143Y-79885771D01*
X145447143Y-79885771D02*
X145542381Y-79838152D01*
X145542381Y-79838152D02*
X145685238Y-79838152D01*
X145685238Y-79838152D02*
X145780476Y-79885771D01*
X145780476Y-79885771D02*
X145828095Y-79981009D01*
X145828095Y-79981009D02*
X145828095Y-80504819D01*
X146447143Y-80504819D02*
X146351905Y-80457200D01*
X146351905Y-80457200D02*
X146304286Y-80409580D01*
X146304286Y-80409580D02*
X146256667Y-80314342D01*
X146256667Y-80314342D02*
X146256667Y-80028628D01*
X146256667Y-80028628D02*
X146304286Y-79933390D01*
X146304286Y-79933390D02*
X146351905Y-79885771D01*
X146351905Y-79885771D02*
X146447143Y-79838152D01*
X146447143Y-79838152D02*
X146590000Y-79838152D01*
X146590000Y-79838152D02*
X146685238Y-79885771D01*
X146685238Y-79885771D02*
X146732857Y-79933390D01*
X146732857Y-79933390D02*
X146780476Y-80028628D01*
X146780476Y-80028628D02*
X146780476Y-80314342D01*
X146780476Y-80314342D02*
X146732857Y-80409580D01*
X146732857Y-80409580D02*
X146685238Y-80457200D01*
X146685238Y-80457200D02*
X146590000Y-80504819D01*
X146590000Y-80504819D02*
X146447143Y-80504819D01*
X147732857Y-80504819D02*
X147161429Y-80504819D01*
X147447143Y-80504819D02*
X147447143Y-79504819D01*
X147447143Y-79504819D02*
X147351905Y-79647676D01*
X147351905Y-79647676D02*
X147256667Y-79742914D01*
X147256667Y-79742914D02*
X147161429Y-79790533D01*
X124127976Y-86409819D02*
X124318452Y-86409819D01*
X124318452Y-86409819D02*
X124413690Y-86457438D01*
X124413690Y-86457438D02*
X124508928Y-86552676D01*
X124508928Y-86552676D02*
X124556547Y-86743152D01*
X124556547Y-86743152D02*
X124556547Y-87076485D01*
X124556547Y-87076485D02*
X124508928Y-87266961D01*
X124508928Y-87266961D02*
X124413690Y-87362200D01*
X124413690Y-87362200D02*
X124318452Y-87409819D01*
X124318452Y-87409819D02*
X124127976Y-87409819D01*
X124127976Y-87409819D02*
X124032738Y-87362200D01*
X124032738Y-87362200D02*
X123937500Y-87266961D01*
X123937500Y-87266961D02*
X123889881Y-87076485D01*
X123889881Y-87076485D02*
X123889881Y-86743152D01*
X123889881Y-86743152D02*
X123937500Y-86552676D01*
X123937500Y-86552676D02*
X124032738Y-86457438D01*
X124032738Y-86457438D02*
X124127976Y-86409819D01*
X125413690Y-86743152D02*
X125413690Y-87409819D01*
X124985119Y-86743152D02*
X124985119Y-87266961D01*
X124985119Y-87266961D02*
X125032738Y-87362200D01*
X125032738Y-87362200D02*
X125127976Y-87409819D01*
X125127976Y-87409819D02*
X125270833Y-87409819D01*
X125270833Y-87409819D02*
X125366071Y-87362200D01*
X125366071Y-87362200D02*
X125413690Y-87314580D01*
X125747024Y-86743152D02*
X126127976Y-86743152D01*
X125889881Y-86409819D02*
X125889881Y-87266961D01*
X125889881Y-87266961D02*
X125937500Y-87362200D01*
X125937500Y-87362200D02*
X126032738Y-87409819D01*
X126032738Y-87409819D02*
X126127976Y-87409819D01*
X126985119Y-87409819D02*
X126413691Y-87409819D01*
X126699405Y-87409819D02*
X126699405Y-86409819D01*
X126699405Y-86409819D02*
X126604167Y-86552676D01*
X126604167Y-86552676D02*
X126508929Y-86647914D01*
X126508929Y-86647914D02*
X126413691Y-86695533D01*
X140787557Y-135900000D02*
X140739938Y-135995238D01*
X140739938Y-135995238D02*
X140644700Y-136090476D01*
X140644700Y-136090476D02*
X140501842Y-136233333D01*
X140501842Y-136233333D02*
X140454223Y-136328571D01*
X140454223Y-136328571D02*
X140454223Y-136423809D01*
X140692319Y-136376190D02*
X140644700Y-136471428D01*
X140644700Y-136471428D02*
X140549461Y-136566666D01*
X140549461Y-136566666D02*
X140358985Y-136614285D01*
X140358985Y-136614285D02*
X140025652Y-136614285D01*
X140025652Y-136614285D02*
X139835176Y-136566666D01*
X139835176Y-136566666D02*
X139739938Y-136471428D01*
X139739938Y-136471428D02*
X139692319Y-136376190D01*
X139692319Y-136376190D02*
X139692319Y-136185714D01*
X139692319Y-136185714D02*
X139739938Y-136090476D01*
X139739938Y-136090476D02*
X139835176Y-135995238D01*
X139835176Y-135995238D02*
X140025652Y-135947619D01*
X140025652Y-135947619D02*
X140358985Y-135947619D01*
X140358985Y-135947619D02*
X140549461Y-135995238D01*
X140549461Y-135995238D02*
X140644700Y-136090476D01*
X140644700Y-136090476D02*
X140692319Y-136185714D01*
X140692319Y-136185714D02*
X140692319Y-136376190D01*
X140692319Y-135042857D02*
X140692319Y-135519047D01*
X140692319Y-135519047D02*
X139692319Y-135519047D01*
X140692319Y-134185714D02*
X140692319Y-134757142D01*
X140692319Y-134471428D02*
X139692319Y-134471428D01*
X139692319Y-134471428D02*
X139835176Y-134566666D01*
X139835176Y-134566666D02*
X139930414Y-134661904D01*
X139930414Y-134661904D02*
X139978033Y-134757142D01*
X131604166Y-133254819D02*
X131270833Y-132778628D01*
X131032738Y-133254819D02*
X131032738Y-132254819D01*
X131032738Y-132254819D02*
X131413690Y-132254819D01*
X131413690Y-132254819D02*
X131508928Y-132302438D01*
X131508928Y-132302438D02*
X131556547Y-132350057D01*
X131556547Y-132350057D02*
X131604166Y-132445295D01*
X131604166Y-132445295D02*
X131604166Y-132588152D01*
X131604166Y-132588152D02*
X131556547Y-132683390D01*
X131556547Y-132683390D02*
X131508928Y-132731009D01*
X131508928Y-132731009D02*
X131413690Y-132778628D01*
X131413690Y-132778628D02*
X131032738Y-132778628D01*
X132556547Y-132302438D02*
X132461309Y-132254819D01*
X132461309Y-132254819D02*
X132318452Y-132254819D01*
X132318452Y-132254819D02*
X132175595Y-132302438D01*
X132175595Y-132302438D02*
X132080357Y-132397676D01*
X132080357Y-132397676D02*
X132032738Y-132492914D01*
X132032738Y-132492914D02*
X131985119Y-132683390D01*
X131985119Y-132683390D02*
X131985119Y-132826247D01*
X131985119Y-132826247D02*
X132032738Y-133016723D01*
X132032738Y-133016723D02*
X132080357Y-133111961D01*
X132080357Y-133111961D02*
X132175595Y-133207200D01*
X132175595Y-133207200D02*
X132318452Y-133254819D01*
X132318452Y-133254819D02*
X132413690Y-133254819D01*
X132413690Y-133254819D02*
X132556547Y-133207200D01*
X132556547Y-133207200D02*
X132604166Y-133159580D01*
X132604166Y-133159580D02*
X132604166Y-132826247D01*
X132604166Y-132826247D02*
X132413690Y-132826247D01*
X133461309Y-133254819D02*
X133461309Y-132731009D01*
X133461309Y-132731009D02*
X133413690Y-132635771D01*
X133413690Y-132635771D02*
X133318452Y-132588152D01*
X133318452Y-132588152D02*
X133127976Y-132588152D01*
X133127976Y-132588152D02*
X133032738Y-132635771D01*
X133461309Y-133207200D02*
X133366071Y-133254819D01*
X133366071Y-133254819D02*
X133127976Y-133254819D01*
X133127976Y-133254819D02*
X133032738Y-133207200D01*
X133032738Y-133207200D02*
X132985119Y-133111961D01*
X132985119Y-133111961D02*
X132985119Y-133016723D01*
X132985119Y-133016723D02*
X133032738Y-132921485D01*
X133032738Y-132921485D02*
X133127976Y-132873866D01*
X133127976Y-132873866D02*
X133366071Y-132873866D01*
X133366071Y-132873866D02*
X133461309Y-132826247D01*
X133794643Y-132588152D02*
X134175595Y-132588152D01*
X133937500Y-132254819D02*
X133937500Y-133111961D01*
X133937500Y-133111961D02*
X133985119Y-133207200D01*
X133985119Y-133207200D02*
X134080357Y-133254819D01*
X134080357Y-133254819D02*
X134175595Y-133254819D01*
X134889881Y-133207200D02*
X134794643Y-133254819D01*
X134794643Y-133254819D02*
X134604167Y-133254819D01*
X134604167Y-133254819D02*
X134508929Y-133207200D01*
X134508929Y-133207200D02*
X134461310Y-133111961D01*
X134461310Y-133111961D02*
X134461310Y-132731009D01*
X134461310Y-132731009D02*
X134508929Y-132635771D01*
X134508929Y-132635771D02*
X134604167Y-132588152D01*
X134604167Y-132588152D02*
X134794643Y-132588152D01*
X134794643Y-132588152D02*
X134889881Y-132635771D01*
X134889881Y-132635771D02*
X134937500Y-132731009D01*
X134937500Y-132731009D02*
X134937500Y-132826247D01*
X134937500Y-132826247D02*
X134461310Y-132921485D01*
X135889881Y-133254819D02*
X135318453Y-133254819D01*
X135604167Y-133254819D02*
X135604167Y-132254819D01*
X135604167Y-132254819D02*
X135508929Y-132397676D01*
X135508929Y-132397676D02*
X135413691Y-132492914D01*
X135413691Y-132492914D02*
X135318453Y-132540533D01*
X162073214Y-50169104D02*
X162549404Y-50169104D01*
X161977976Y-50454819D02*
X162311309Y-49454819D01*
X162311309Y-49454819D02*
X162644642Y-50454819D01*
X163501785Y-50454819D02*
X162930357Y-50454819D01*
X163216071Y-50454819D02*
X163216071Y-49454819D01*
X163216071Y-49454819D02*
X163120833Y-49597676D01*
X163120833Y-49597676D02*
X163025595Y-49692914D01*
X163025595Y-49692914D02*
X162930357Y-49740533D01*
X129367319Y-145561904D02*
X130176842Y-145561904D01*
X130176842Y-145561904D02*
X130272080Y-145514285D01*
X130272080Y-145514285D02*
X130319700Y-145466666D01*
X130319700Y-145466666D02*
X130367319Y-145371428D01*
X130367319Y-145371428D02*
X130367319Y-145180952D01*
X130367319Y-145180952D02*
X130319700Y-145085714D01*
X130319700Y-145085714D02*
X130272080Y-145038095D01*
X130272080Y-145038095D02*
X130176842Y-144990476D01*
X130176842Y-144990476D02*
X129367319Y-144990476D01*
X130367319Y-143990476D02*
X130367319Y-144561904D01*
X130367319Y-144276190D02*
X129367319Y-144276190D01*
X129367319Y-144276190D02*
X129510176Y-144371428D01*
X129510176Y-144371428D02*
X129605414Y-144466666D01*
X129605414Y-144466666D02*
X129653033Y-144561904D01*
X132270833Y-48254819D02*
X131937500Y-47778628D01*
X131699405Y-48254819D02*
X131699405Y-47254819D01*
X131699405Y-47254819D02*
X132080357Y-47254819D01*
X132080357Y-47254819D02*
X132175595Y-47302438D01*
X132175595Y-47302438D02*
X132223214Y-47350057D01*
X132223214Y-47350057D02*
X132270833Y-47445295D01*
X132270833Y-47445295D02*
X132270833Y-47588152D01*
X132270833Y-47588152D02*
X132223214Y-47683390D01*
X132223214Y-47683390D02*
X132175595Y-47731009D01*
X132175595Y-47731009D02*
X132080357Y-47778628D01*
X132080357Y-47778628D02*
X131699405Y-47778628D01*
X132699405Y-48254819D02*
X132699405Y-47254819D01*
X132699405Y-47254819D02*
X133080357Y-47254819D01*
X133080357Y-47254819D02*
X133175595Y-47302438D01*
X133175595Y-47302438D02*
X133223214Y-47350057D01*
X133223214Y-47350057D02*
X133270833Y-47445295D01*
X133270833Y-47445295D02*
X133270833Y-47588152D01*
X133270833Y-47588152D02*
X133223214Y-47683390D01*
X133223214Y-47683390D02*
X133175595Y-47731009D01*
X133175595Y-47731009D02*
X133080357Y-47778628D01*
X133080357Y-47778628D02*
X132699405Y-47778628D01*
X133699405Y-48254819D02*
X133699405Y-47254819D01*
X133699405Y-47254819D02*
X133937500Y-47254819D01*
X133937500Y-47254819D02*
X134080357Y-47302438D01*
X134080357Y-47302438D02*
X134175595Y-47397676D01*
X134175595Y-47397676D02*
X134223214Y-47492914D01*
X134223214Y-47492914D02*
X134270833Y-47683390D01*
X134270833Y-47683390D02*
X134270833Y-47826247D01*
X134270833Y-47826247D02*
X134223214Y-48016723D01*
X134223214Y-48016723D02*
X134175595Y-48111961D01*
X134175595Y-48111961D02*
X134080357Y-48207200D01*
X134080357Y-48207200D02*
X133937500Y-48254819D01*
X133937500Y-48254819D02*
X133699405Y-48254819D01*
X135223214Y-48254819D02*
X134651786Y-48254819D01*
X134937500Y-48254819D02*
X134937500Y-47254819D01*
X134937500Y-47254819D02*
X134842262Y-47397676D01*
X134842262Y-47397676D02*
X134747024Y-47492914D01*
X134747024Y-47492914D02*
X134651786Y-47540533D01*
X129367319Y-101261904D02*
X130176842Y-101261904D01*
X130176842Y-101261904D02*
X130272080Y-101214285D01*
X130272080Y-101214285D02*
X130319700Y-101166666D01*
X130319700Y-101166666D02*
X130367319Y-101071428D01*
X130367319Y-101071428D02*
X130367319Y-100880952D01*
X130367319Y-100880952D02*
X130319700Y-100785714D01*
X130319700Y-100785714D02*
X130272080Y-100738095D01*
X130272080Y-100738095D02*
X130176842Y-100690476D01*
X130176842Y-100690476D02*
X129367319Y-100690476D01*
X130367319Y-99690476D02*
X130367319Y-100261904D01*
X130367319Y-99976190D02*
X129367319Y-99976190D01*
X129367319Y-99976190D02*
X129510176Y-100071428D01*
X129510176Y-100071428D02*
X129605414Y-100166666D01*
X129605414Y-100166666D02*
X129653033Y-100261904D01*
X128185118Y-31854819D02*
X127851785Y-31378628D01*
X127613690Y-31854819D02*
X127613690Y-30854819D01*
X127613690Y-30854819D02*
X127994642Y-30854819D01*
X127994642Y-30854819D02*
X128089880Y-30902438D01*
X128089880Y-30902438D02*
X128137499Y-30950057D01*
X128137499Y-30950057D02*
X128185118Y-31045295D01*
X128185118Y-31045295D02*
X128185118Y-31188152D01*
X128185118Y-31188152D02*
X128137499Y-31283390D01*
X128137499Y-31283390D02*
X128089880Y-31331009D01*
X128089880Y-31331009D02*
X127994642Y-31378628D01*
X127994642Y-31378628D02*
X127613690Y-31378628D01*
X129089880Y-31854819D02*
X128613690Y-31854819D01*
X128613690Y-31854819D02*
X128613690Y-30854819D01*
X129804166Y-31807200D02*
X129708928Y-31854819D01*
X129708928Y-31854819D02*
X129518452Y-31854819D01*
X129518452Y-31854819D02*
X129423214Y-31807200D01*
X129423214Y-31807200D02*
X129375595Y-31711961D01*
X129375595Y-31711961D02*
X129375595Y-31331009D01*
X129375595Y-31331009D02*
X129423214Y-31235771D01*
X129423214Y-31235771D02*
X129518452Y-31188152D01*
X129518452Y-31188152D02*
X129708928Y-31188152D01*
X129708928Y-31188152D02*
X129804166Y-31235771D01*
X129804166Y-31235771D02*
X129851785Y-31331009D01*
X129851785Y-31331009D02*
X129851785Y-31426247D01*
X129851785Y-31426247D02*
X129375595Y-31521485D01*
X130708928Y-31854819D02*
X130708928Y-30854819D01*
X130708928Y-31807200D02*
X130613690Y-31854819D01*
X130613690Y-31854819D02*
X130423214Y-31854819D01*
X130423214Y-31854819D02*
X130327976Y-31807200D01*
X130327976Y-31807200D02*
X130280357Y-31759580D01*
X130280357Y-31759580D02*
X130232738Y-31664342D01*
X130232738Y-31664342D02*
X130232738Y-31378628D01*
X130232738Y-31378628D02*
X130280357Y-31283390D01*
X130280357Y-31283390D02*
X130327976Y-31235771D01*
X130327976Y-31235771D02*
X130423214Y-31188152D01*
X130423214Y-31188152D02*
X130613690Y-31188152D01*
X130613690Y-31188152D02*
X130708928Y-31235771D01*
X131137500Y-30950057D02*
X131185119Y-30902438D01*
X131185119Y-30902438D02*
X131280357Y-30854819D01*
X131280357Y-30854819D02*
X131518452Y-30854819D01*
X131518452Y-30854819D02*
X131613690Y-30902438D01*
X131613690Y-30902438D02*
X131661309Y-30950057D01*
X131661309Y-30950057D02*
X131708928Y-31045295D01*
X131708928Y-31045295D02*
X131708928Y-31140533D01*
X131708928Y-31140533D02*
X131661309Y-31283390D01*
X131661309Y-31283390D02*
X131089881Y-31854819D01*
X131089881Y-31854819D02*
X131708928Y-31854819D01*
X140787557Y-91600000D02*
X140739938Y-91695238D01*
X140739938Y-91695238D02*
X140644700Y-91790476D01*
X140644700Y-91790476D02*
X140501842Y-91933333D01*
X140501842Y-91933333D02*
X140454223Y-92028571D01*
X140454223Y-92028571D02*
X140454223Y-92123809D01*
X140692319Y-92076190D02*
X140644700Y-92171428D01*
X140644700Y-92171428D02*
X140549461Y-92266666D01*
X140549461Y-92266666D02*
X140358985Y-92314285D01*
X140358985Y-92314285D02*
X140025652Y-92314285D01*
X140025652Y-92314285D02*
X139835176Y-92266666D01*
X139835176Y-92266666D02*
X139739938Y-92171428D01*
X139739938Y-92171428D02*
X139692319Y-92076190D01*
X139692319Y-92076190D02*
X139692319Y-91885714D01*
X139692319Y-91885714D02*
X139739938Y-91790476D01*
X139739938Y-91790476D02*
X139835176Y-91695238D01*
X139835176Y-91695238D02*
X140025652Y-91647619D01*
X140025652Y-91647619D02*
X140358985Y-91647619D01*
X140358985Y-91647619D02*
X140549461Y-91695238D01*
X140549461Y-91695238D02*
X140644700Y-91790476D01*
X140644700Y-91790476D02*
X140692319Y-91885714D01*
X140692319Y-91885714D02*
X140692319Y-92076190D01*
X140692319Y-90742857D02*
X140692319Y-91219047D01*
X140692319Y-91219047D02*
X139692319Y-91219047D01*
X140692319Y-89885714D02*
X140692319Y-90457142D01*
X140692319Y-90171428D02*
X139692319Y-90171428D01*
X139692319Y-90171428D02*
X139835176Y-90266666D01*
X139835176Y-90266666D02*
X139930414Y-90361904D01*
X139930414Y-90361904D02*
X139978033Y-90457142D01*
X136547080Y-100734343D02*
X136594700Y-100781962D01*
X136594700Y-100781962D02*
X136642319Y-100924819D01*
X136642319Y-100924819D02*
X136642319Y-101020057D01*
X136642319Y-101020057D02*
X136594700Y-101162914D01*
X136594700Y-101162914D02*
X136499461Y-101258152D01*
X136499461Y-101258152D02*
X136404223Y-101305771D01*
X136404223Y-101305771D02*
X136213747Y-101353390D01*
X136213747Y-101353390D02*
X136070890Y-101353390D01*
X136070890Y-101353390D02*
X135880414Y-101305771D01*
X135880414Y-101305771D02*
X135785176Y-101258152D01*
X135785176Y-101258152D02*
X135689938Y-101162914D01*
X135689938Y-101162914D02*
X135642319Y-101020057D01*
X135642319Y-101020057D02*
X135642319Y-100924819D01*
X135642319Y-100924819D02*
X135689938Y-100781962D01*
X135689938Y-100781962D02*
X135737557Y-100734343D01*
X136642319Y-99781962D02*
X136642319Y-100353390D01*
X136642319Y-100067676D02*
X135642319Y-100067676D01*
X135642319Y-100067676D02*
X135785176Y-100162914D01*
X135785176Y-100162914D02*
X135880414Y-100258152D01*
X135880414Y-100258152D02*
X135928033Y-100353390D01*
X128185118Y-28854819D02*
X127851785Y-28378628D01*
X127613690Y-28854819D02*
X127613690Y-27854819D01*
X127613690Y-27854819D02*
X127994642Y-27854819D01*
X127994642Y-27854819D02*
X128089880Y-27902438D01*
X128089880Y-27902438D02*
X128137499Y-27950057D01*
X128137499Y-27950057D02*
X128185118Y-28045295D01*
X128185118Y-28045295D02*
X128185118Y-28188152D01*
X128185118Y-28188152D02*
X128137499Y-28283390D01*
X128137499Y-28283390D02*
X128089880Y-28331009D01*
X128089880Y-28331009D02*
X127994642Y-28378628D01*
X127994642Y-28378628D02*
X127613690Y-28378628D01*
X129089880Y-28854819D02*
X128613690Y-28854819D01*
X128613690Y-28854819D02*
X128613690Y-27854819D01*
X129804166Y-28807200D02*
X129708928Y-28854819D01*
X129708928Y-28854819D02*
X129518452Y-28854819D01*
X129518452Y-28854819D02*
X129423214Y-28807200D01*
X129423214Y-28807200D02*
X129375595Y-28711961D01*
X129375595Y-28711961D02*
X129375595Y-28331009D01*
X129375595Y-28331009D02*
X129423214Y-28235771D01*
X129423214Y-28235771D02*
X129518452Y-28188152D01*
X129518452Y-28188152D02*
X129708928Y-28188152D01*
X129708928Y-28188152D02*
X129804166Y-28235771D01*
X129804166Y-28235771D02*
X129851785Y-28331009D01*
X129851785Y-28331009D02*
X129851785Y-28426247D01*
X129851785Y-28426247D02*
X129375595Y-28521485D01*
X130708928Y-28854819D02*
X130708928Y-27854819D01*
X130708928Y-28807200D02*
X130613690Y-28854819D01*
X130613690Y-28854819D02*
X130423214Y-28854819D01*
X130423214Y-28854819D02*
X130327976Y-28807200D01*
X130327976Y-28807200D02*
X130280357Y-28759580D01*
X130280357Y-28759580D02*
X130232738Y-28664342D01*
X130232738Y-28664342D02*
X130232738Y-28378628D01*
X130232738Y-28378628D02*
X130280357Y-28283390D01*
X130280357Y-28283390D02*
X130327976Y-28235771D01*
X130327976Y-28235771D02*
X130423214Y-28188152D01*
X130423214Y-28188152D02*
X130613690Y-28188152D01*
X130613690Y-28188152D02*
X130708928Y-28235771D01*
X131708928Y-28854819D02*
X131137500Y-28854819D01*
X131423214Y-28854819D02*
X131423214Y-27854819D01*
X131423214Y-27854819D02*
X131327976Y-27997676D01*
X131327976Y-27997676D02*
X131232738Y-28092914D01*
X131232738Y-28092914D02*
X131137500Y-28140533D01*
X125413452Y-26154819D02*
X124937262Y-26154819D01*
X124937262Y-26154819D02*
X124937262Y-25154819D01*
X125746786Y-25631009D02*
X126080119Y-25631009D01*
X126222976Y-26154819D02*
X125746786Y-26154819D01*
X125746786Y-26154819D02*
X125746786Y-25154819D01*
X125746786Y-25154819D02*
X126222976Y-25154819D01*
X126651548Y-26154819D02*
X126651548Y-25154819D01*
X126651548Y-25154819D02*
X126889643Y-25154819D01*
X126889643Y-25154819D02*
X127032500Y-25202438D01*
X127032500Y-25202438D02*
X127127738Y-25297676D01*
X127127738Y-25297676D02*
X127175357Y-25392914D01*
X127175357Y-25392914D02*
X127222976Y-25583390D01*
X127222976Y-25583390D02*
X127222976Y-25726247D01*
X127222976Y-25726247D02*
X127175357Y-25916723D01*
X127175357Y-25916723D02*
X127127738Y-26011961D01*
X127127738Y-26011961D02*
X127032500Y-26107200D01*
X127032500Y-26107200D02*
X126889643Y-26154819D01*
X126889643Y-26154819D02*
X126651548Y-26154819D01*
X127984881Y-25631009D02*
X128127738Y-25678628D01*
X128127738Y-25678628D02*
X128175357Y-25726247D01*
X128175357Y-25726247D02*
X128222976Y-25821485D01*
X128222976Y-25821485D02*
X128222976Y-25964342D01*
X128222976Y-25964342D02*
X128175357Y-26059580D01*
X128175357Y-26059580D02*
X128127738Y-26107200D01*
X128127738Y-26107200D02*
X128032500Y-26154819D01*
X128032500Y-26154819D02*
X127651548Y-26154819D01*
X127651548Y-26154819D02*
X127651548Y-25154819D01*
X127651548Y-25154819D02*
X127984881Y-25154819D01*
X127984881Y-25154819D02*
X128080119Y-25202438D01*
X128080119Y-25202438D02*
X128127738Y-25250057D01*
X128127738Y-25250057D02*
X128175357Y-25345295D01*
X128175357Y-25345295D02*
X128175357Y-25440533D01*
X128175357Y-25440533D02*
X128127738Y-25535771D01*
X128127738Y-25535771D02*
X128080119Y-25583390D01*
X128080119Y-25583390D02*
X127984881Y-25631009D01*
X127984881Y-25631009D02*
X127651548Y-25631009D01*
X129175357Y-26154819D02*
X128603929Y-26154819D01*
X128889643Y-26154819D02*
X128889643Y-25154819D01*
X128889643Y-25154819D02*
X128794405Y-25297676D01*
X128794405Y-25297676D02*
X128699167Y-25392914D01*
X128699167Y-25392914D02*
X128603929Y-25440533D01*
X162073214Y-138769104D02*
X162549404Y-138769104D01*
X161977976Y-139054819D02*
X162311309Y-138054819D01*
X162311309Y-138054819D02*
X162644642Y-139054819D01*
X163501785Y-139054819D02*
X162930357Y-139054819D01*
X163216071Y-139054819D02*
X163216071Y-138054819D01*
X163216071Y-138054819D02*
X163120833Y-138197676D01*
X163120833Y-138197676D02*
X163025595Y-138292914D01*
X163025595Y-138292914D02*
X162930357Y-138340533D01*
X124127976Y-42109819D02*
X124318452Y-42109819D01*
X124318452Y-42109819D02*
X124413690Y-42157438D01*
X124413690Y-42157438D02*
X124508928Y-42252676D01*
X124508928Y-42252676D02*
X124556547Y-42443152D01*
X124556547Y-42443152D02*
X124556547Y-42776485D01*
X124556547Y-42776485D02*
X124508928Y-42966961D01*
X124508928Y-42966961D02*
X124413690Y-43062200D01*
X124413690Y-43062200D02*
X124318452Y-43109819D01*
X124318452Y-43109819D02*
X124127976Y-43109819D01*
X124127976Y-43109819D02*
X124032738Y-43062200D01*
X124032738Y-43062200D02*
X123937500Y-42966961D01*
X123937500Y-42966961D02*
X123889881Y-42776485D01*
X123889881Y-42776485D02*
X123889881Y-42443152D01*
X123889881Y-42443152D02*
X123937500Y-42252676D01*
X123937500Y-42252676D02*
X124032738Y-42157438D01*
X124032738Y-42157438D02*
X124127976Y-42109819D01*
X125413690Y-42443152D02*
X125413690Y-43109819D01*
X124985119Y-42443152D02*
X124985119Y-42966961D01*
X124985119Y-42966961D02*
X125032738Y-43062200D01*
X125032738Y-43062200D02*
X125127976Y-43109819D01*
X125127976Y-43109819D02*
X125270833Y-43109819D01*
X125270833Y-43109819D02*
X125366071Y-43062200D01*
X125366071Y-43062200D02*
X125413690Y-43014580D01*
X125747024Y-42443152D02*
X126127976Y-42443152D01*
X125889881Y-42109819D02*
X125889881Y-42966961D01*
X125889881Y-42966961D02*
X125937500Y-43062200D01*
X125937500Y-43062200D02*
X126032738Y-43109819D01*
X126032738Y-43109819D02*
X126127976Y-43109819D01*
X126985119Y-43109819D02*
X126413691Y-43109819D01*
X126699405Y-43109819D02*
X126699405Y-42109819D01*
X126699405Y-42109819D02*
X126604167Y-42252676D01*
X126604167Y-42252676D02*
X126508929Y-42347914D01*
X126508929Y-42347914D02*
X126413691Y-42395533D01*
X133904405Y-65454819D02*
X133904405Y-64454819D01*
X133904405Y-64454819D02*
X134142500Y-64454819D01*
X134142500Y-64454819D02*
X134285357Y-64502438D01*
X134285357Y-64502438D02*
X134380595Y-64597676D01*
X134380595Y-64597676D02*
X134428214Y-64692914D01*
X134428214Y-64692914D02*
X134475833Y-64883390D01*
X134475833Y-64883390D02*
X134475833Y-65026247D01*
X134475833Y-65026247D02*
X134428214Y-65216723D01*
X134428214Y-65216723D02*
X134380595Y-65311961D01*
X134380595Y-65311961D02*
X134285357Y-65407200D01*
X134285357Y-65407200D02*
X134142500Y-65454819D01*
X134142500Y-65454819D02*
X133904405Y-65454819D01*
X134856786Y-64550057D02*
X134904405Y-64502438D01*
X134904405Y-64502438D02*
X134999643Y-64454819D01*
X134999643Y-64454819D02*
X135237738Y-64454819D01*
X135237738Y-64454819D02*
X135332976Y-64502438D01*
X135332976Y-64502438D02*
X135380595Y-64550057D01*
X135380595Y-64550057D02*
X135428214Y-64645295D01*
X135428214Y-64645295D02*
X135428214Y-64740533D01*
X135428214Y-64740533D02*
X135380595Y-64883390D01*
X135380595Y-64883390D02*
X134809167Y-65454819D01*
X134809167Y-65454819D02*
X135428214Y-65454819D01*
X136547080Y-145034343D02*
X136594700Y-145081962D01*
X136594700Y-145081962D02*
X136642319Y-145224819D01*
X136642319Y-145224819D02*
X136642319Y-145320057D01*
X136642319Y-145320057D02*
X136594700Y-145462914D01*
X136594700Y-145462914D02*
X136499461Y-145558152D01*
X136499461Y-145558152D02*
X136404223Y-145605771D01*
X136404223Y-145605771D02*
X136213747Y-145653390D01*
X136213747Y-145653390D02*
X136070890Y-145653390D01*
X136070890Y-145653390D02*
X135880414Y-145605771D01*
X135880414Y-145605771D02*
X135785176Y-145558152D01*
X135785176Y-145558152D02*
X135689938Y-145462914D01*
X135689938Y-145462914D02*
X135642319Y-145320057D01*
X135642319Y-145320057D02*
X135642319Y-145224819D01*
X135642319Y-145224819D02*
X135689938Y-145081962D01*
X135689938Y-145081962D02*
X135737557Y-145034343D01*
X136642319Y-144081962D02*
X136642319Y-144653390D01*
X136642319Y-144367676D02*
X135642319Y-144367676D01*
X135642319Y-144367676D02*
X135785176Y-144462914D01*
X135785176Y-144462914D02*
X135880414Y-144558152D01*
X135880414Y-144558152D02*
X135928033Y-144653390D01*
X140787557Y-47300000D02*
X140739938Y-47395238D01*
X140739938Y-47395238D02*
X140644700Y-47490476D01*
X140644700Y-47490476D02*
X140501842Y-47633333D01*
X140501842Y-47633333D02*
X140454223Y-47728571D01*
X140454223Y-47728571D02*
X140454223Y-47823809D01*
X140692319Y-47776190D02*
X140644700Y-47871428D01*
X140644700Y-47871428D02*
X140549461Y-47966666D01*
X140549461Y-47966666D02*
X140358985Y-48014285D01*
X140358985Y-48014285D02*
X140025652Y-48014285D01*
X140025652Y-48014285D02*
X139835176Y-47966666D01*
X139835176Y-47966666D02*
X139739938Y-47871428D01*
X139739938Y-47871428D02*
X139692319Y-47776190D01*
X139692319Y-47776190D02*
X139692319Y-47585714D01*
X139692319Y-47585714D02*
X139739938Y-47490476D01*
X139739938Y-47490476D02*
X139835176Y-47395238D01*
X139835176Y-47395238D02*
X140025652Y-47347619D01*
X140025652Y-47347619D02*
X140358985Y-47347619D01*
X140358985Y-47347619D02*
X140549461Y-47395238D01*
X140549461Y-47395238D02*
X140644700Y-47490476D01*
X140644700Y-47490476D02*
X140692319Y-47585714D01*
X140692319Y-47585714D02*
X140692319Y-47776190D01*
X140692319Y-46442857D02*
X140692319Y-46919047D01*
X140692319Y-46919047D02*
X139692319Y-46919047D01*
X140692319Y-45585714D02*
X140692319Y-46157142D01*
X140692319Y-45871428D02*
X139692319Y-45871428D01*
X139692319Y-45871428D02*
X139835176Y-45966666D01*
X139835176Y-45966666D02*
X139930414Y-46061904D01*
X139930414Y-46061904D02*
X139978033Y-46157142D01*
X125413452Y-114754819D02*
X124937262Y-114754819D01*
X124937262Y-114754819D02*
X124937262Y-113754819D01*
X125746786Y-114231009D02*
X126080119Y-114231009D01*
X126222976Y-114754819D02*
X125746786Y-114754819D01*
X125746786Y-114754819D02*
X125746786Y-113754819D01*
X125746786Y-113754819D02*
X126222976Y-113754819D01*
X126651548Y-114754819D02*
X126651548Y-113754819D01*
X126651548Y-113754819D02*
X126889643Y-113754819D01*
X126889643Y-113754819D02*
X127032500Y-113802438D01*
X127032500Y-113802438D02*
X127127738Y-113897676D01*
X127127738Y-113897676D02*
X127175357Y-113992914D01*
X127175357Y-113992914D02*
X127222976Y-114183390D01*
X127222976Y-114183390D02*
X127222976Y-114326247D01*
X127222976Y-114326247D02*
X127175357Y-114516723D01*
X127175357Y-114516723D02*
X127127738Y-114611961D01*
X127127738Y-114611961D02*
X127032500Y-114707200D01*
X127032500Y-114707200D02*
X126889643Y-114754819D01*
X126889643Y-114754819D02*
X126651548Y-114754819D01*
X127984881Y-114231009D02*
X128127738Y-114278628D01*
X128127738Y-114278628D02*
X128175357Y-114326247D01*
X128175357Y-114326247D02*
X128222976Y-114421485D01*
X128222976Y-114421485D02*
X128222976Y-114564342D01*
X128222976Y-114564342D02*
X128175357Y-114659580D01*
X128175357Y-114659580D02*
X128127738Y-114707200D01*
X128127738Y-114707200D02*
X128032500Y-114754819D01*
X128032500Y-114754819D02*
X127651548Y-114754819D01*
X127651548Y-114754819D02*
X127651548Y-113754819D01*
X127651548Y-113754819D02*
X127984881Y-113754819D01*
X127984881Y-113754819D02*
X128080119Y-113802438D01*
X128080119Y-113802438D02*
X128127738Y-113850057D01*
X128127738Y-113850057D02*
X128175357Y-113945295D01*
X128175357Y-113945295D02*
X128175357Y-114040533D01*
X128175357Y-114040533D02*
X128127738Y-114135771D01*
X128127738Y-114135771D02*
X128080119Y-114183390D01*
X128080119Y-114183390D02*
X127984881Y-114231009D01*
X127984881Y-114231009D02*
X127651548Y-114231009D01*
X129175357Y-114754819D02*
X128603929Y-114754819D01*
X128889643Y-114754819D02*
X128889643Y-113754819D01*
X128889643Y-113754819D02*
X128794405Y-113897676D01*
X128794405Y-113897676D02*
X128699167Y-113992914D01*
X128699167Y-113992914D02*
X128603929Y-114040533D01*
X139970951Y-36204819D02*
X139494761Y-36204819D01*
X139494761Y-36204819D02*
X139494761Y-35204819D01*
X140685237Y-36157200D02*
X140589999Y-36204819D01*
X140589999Y-36204819D02*
X140399523Y-36204819D01*
X140399523Y-36204819D02*
X140304285Y-36157200D01*
X140304285Y-36157200D02*
X140256666Y-36061961D01*
X140256666Y-36061961D02*
X140256666Y-35681009D01*
X140256666Y-35681009D02*
X140304285Y-35585771D01*
X140304285Y-35585771D02*
X140399523Y-35538152D01*
X140399523Y-35538152D02*
X140589999Y-35538152D01*
X140589999Y-35538152D02*
X140685237Y-35585771D01*
X140685237Y-35585771D02*
X140732856Y-35681009D01*
X140732856Y-35681009D02*
X140732856Y-35776247D01*
X140732856Y-35776247D02*
X140256666Y-35871485D01*
X141018571Y-35538152D02*
X141399523Y-35538152D01*
X141161428Y-36204819D02*
X141161428Y-35347676D01*
X141161428Y-35347676D02*
X141209047Y-35252438D01*
X141209047Y-35252438D02*
X141304285Y-35204819D01*
X141304285Y-35204819D02*
X141399523Y-35204819D01*
X141590000Y-35538152D02*
X141970952Y-35538152D01*
X141732857Y-35204819D02*
X141732857Y-36061961D01*
X141732857Y-36061961D02*
X141780476Y-36157200D01*
X141780476Y-36157200D02*
X141875714Y-36204819D01*
X141875714Y-36204819D02*
X141970952Y-36204819D01*
X143018571Y-35157200D02*
X142161429Y-36442914D01*
X143351905Y-36204819D02*
X143351905Y-35204819D01*
X143351905Y-35204819D02*
X143685238Y-35919104D01*
X143685238Y-35919104D02*
X144018571Y-35204819D01*
X144018571Y-35204819D02*
X144018571Y-36204819D01*
X144637619Y-36204819D02*
X144542381Y-36157200D01*
X144542381Y-36157200D02*
X144494762Y-36109580D01*
X144494762Y-36109580D02*
X144447143Y-36014342D01*
X144447143Y-36014342D02*
X144447143Y-35728628D01*
X144447143Y-35728628D02*
X144494762Y-35633390D01*
X144494762Y-35633390D02*
X144542381Y-35585771D01*
X144542381Y-35585771D02*
X144637619Y-35538152D01*
X144637619Y-35538152D02*
X144780476Y-35538152D01*
X144780476Y-35538152D02*
X144875714Y-35585771D01*
X144875714Y-35585771D02*
X144923333Y-35633390D01*
X144923333Y-35633390D02*
X144970952Y-35728628D01*
X144970952Y-35728628D02*
X144970952Y-36014342D01*
X144970952Y-36014342D02*
X144923333Y-36109580D01*
X144923333Y-36109580D02*
X144875714Y-36157200D01*
X144875714Y-36157200D02*
X144780476Y-36204819D01*
X144780476Y-36204819D02*
X144637619Y-36204819D01*
X145399524Y-35538152D02*
X145399524Y-36204819D01*
X145399524Y-35633390D02*
X145447143Y-35585771D01*
X145447143Y-35585771D02*
X145542381Y-35538152D01*
X145542381Y-35538152D02*
X145685238Y-35538152D01*
X145685238Y-35538152D02*
X145780476Y-35585771D01*
X145780476Y-35585771D02*
X145828095Y-35681009D01*
X145828095Y-35681009D02*
X145828095Y-36204819D01*
X146447143Y-36204819D02*
X146351905Y-36157200D01*
X146351905Y-36157200D02*
X146304286Y-36109580D01*
X146304286Y-36109580D02*
X146256667Y-36014342D01*
X146256667Y-36014342D02*
X146256667Y-35728628D01*
X146256667Y-35728628D02*
X146304286Y-35633390D01*
X146304286Y-35633390D02*
X146351905Y-35585771D01*
X146351905Y-35585771D02*
X146447143Y-35538152D01*
X146447143Y-35538152D02*
X146590000Y-35538152D01*
X146590000Y-35538152D02*
X146685238Y-35585771D01*
X146685238Y-35585771D02*
X146732857Y-35633390D01*
X146732857Y-35633390D02*
X146780476Y-35728628D01*
X146780476Y-35728628D02*
X146780476Y-36014342D01*
X146780476Y-36014342D02*
X146732857Y-36109580D01*
X146732857Y-36109580D02*
X146685238Y-36157200D01*
X146685238Y-36157200D02*
X146590000Y-36204819D01*
X146590000Y-36204819D02*
X146447143Y-36204819D01*
X147732857Y-36204819D02*
X147161429Y-36204819D01*
X147447143Y-36204819D02*
X147447143Y-35204819D01*
X147447143Y-35204819D02*
X147351905Y-35347676D01*
X147351905Y-35347676D02*
X147256667Y-35442914D01*
X147256667Y-35442914D02*
X147161429Y-35490533D01*
X136547080Y-56434343D02*
X136594700Y-56481962D01*
X136594700Y-56481962D02*
X136642319Y-56624819D01*
X136642319Y-56624819D02*
X136642319Y-56720057D01*
X136642319Y-56720057D02*
X136594700Y-56862914D01*
X136594700Y-56862914D02*
X136499461Y-56958152D01*
X136499461Y-56958152D02*
X136404223Y-57005771D01*
X136404223Y-57005771D02*
X136213747Y-57053390D01*
X136213747Y-57053390D02*
X136070890Y-57053390D01*
X136070890Y-57053390D02*
X135880414Y-57005771D01*
X135880414Y-57005771D02*
X135785176Y-56958152D01*
X135785176Y-56958152D02*
X135689938Y-56862914D01*
X135689938Y-56862914D02*
X135642319Y-56720057D01*
X135642319Y-56720057D02*
X135642319Y-56624819D01*
X135642319Y-56624819D02*
X135689938Y-56481962D01*
X135689938Y-56481962D02*
X135737557Y-56434343D01*
X136642319Y-55481962D02*
X136642319Y-56053390D01*
X136642319Y-55767676D02*
X135642319Y-55767676D01*
X135642319Y-55767676D02*
X135785176Y-55862914D01*
X135785176Y-55862914D02*
X135880414Y-55958152D01*
X135880414Y-55958152D02*
X135928033Y-56053390D01*
X128185118Y-117454819D02*
X127851785Y-116978628D01*
X127613690Y-117454819D02*
X127613690Y-116454819D01*
X127613690Y-116454819D02*
X127994642Y-116454819D01*
X127994642Y-116454819D02*
X128089880Y-116502438D01*
X128089880Y-116502438D02*
X128137499Y-116550057D01*
X128137499Y-116550057D02*
X128185118Y-116645295D01*
X128185118Y-116645295D02*
X128185118Y-116788152D01*
X128185118Y-116788152D02*
X128137499Y-116883390D01*
X128137499Y-116883390D02*
X128089880Y-116931009D01*
X128089880Y-116931009D02*
X127994642Y-116978628D01*
X127994642Y-116978628D02*
X127613690Y-116978628D01*
X129089880Y-117454819D02*
X128613690Y-117454819D01*
X128613690Y-117454819D02*
X128613690Y-116454819D01*
X129804166Y-117407200D02*
X129708928Y-117454819D01*
X129708928Y-117454819D02*
X129518452Y-117454819D01*
X129518452Y-117454819D02*
X129423214Y-117407200D01*
X129423214Y-117407200D02*
X129375595Y-117311961D01*
X129375595Y-117311961D02*
X129375595Y-116931009D01*
X129375595Y-116931009D02*
X129423214Y-116835771D01*
X129423214Y-116835771D02*
X129518452Y-116788152D01*
X129518452Y-116788152D02*
X129708928Y-116788152D01*
X129708928Y-116788152D02*
X129804166Y-116835771D01*
X129804166Y-116835771D02*
X129851785Y-116931009D01*
X129851785Y-116931009D02*
X129851785Y-117026247D01*
X129851785Y-117026247D02*
X129375595Y-117121485D01*
X130708928Y-117454819D02*
X130708928Y-116454819D01*
X130708928Y-117407200D02*
X130613690Y-117454819D01*
X130613690Y-117454819D02*
X130423214Y-117454819D01*
X130423214Y-117454819D02*
X130327976Y-117407200D01*
X130327976Y-117407200D02*
X130280357Y-117359580D01*
X130280357Y-117359580D02*
X130232738Y-117264342D01*
X130232738Y-117264342D02*
X130232738Y-116978628D01*
X130232738Y-116978628D02*
X130280357Y-116883390D01*
X130280357Y-116883390D02*
X130327976Y-116835771D01*
X130327976Y-116835771D02*
X130423214Y-116788152D01*
X130423214Y-116788152D02*
X130613690Y-116788152D01*
X130613690Y-116788152D02*
X130708928Y-116835771D01*
X131708928Y-117454819D02*
X131137500Y-117454819D01*
X131423214Y-117454819D02*
X131423214Y-116454819D01*
X131423214Y-116454819D02*
X131327976Y-116597676D01*
X131327976Y-116597676D02*
X131232738Y-116692914D01*
X131232738Y-116692914D02*
X131137500Y-116740533D01*
X132270833Y-92554819D02*
X131937500Y-92078628D01*
X131699405Y-92554819D02*
X131699405Y-91554819D01*
X131699405Y-91554819D02*
X132080357Y-91554819D01*
X132080357Y-91554819D02*
X132175595Y-91602438D01*
X132175595Y-91602438D02*
X132223214Y-91650057D01*
X132223214Y-91650057D02*
X132270833Y-91745295D01*
X132270833Y-91745295D02*
X132270833Y-91888152D01*
X132270833Y-91888152D02*
X132223214Y-91983390D01*
X132223214Y-91983390D02*
X132175595Y-92031009D01*
X132175595Y-92031009D02*
X132080357Y-92078628D01*
X132080357Y-92078628D02*
X131699405Y-92078628D01*
X132699405Y-92554819D02*
X132699405Y-91554819D01*
X132699405Y-91554819D02*
X133080357Y-91554819D01*
X133080357Y-91554819D02*
X133175595Y-91602438D01*
X133175595Y-91602438D02*
X133223214Y-91650057D01*
X133223214Y-91650057D02*
X133270833Y-91745295D01*
X133270833Y-91745295D02*
X133270833Y-91888152D01*
X133270833Y-91888152D02*
X133223214Y-91983390D01*
X133223214Y-91983390D02*
X133175595Y-92031009D01*
X133175595Y-92031009D02*
X133080357Y-92078628D01*
X133080357Y-92078628D02*
X132699405Y-92078628D01*
X133699405Y-92554819D02*
X133699405Y-91554819D01*
X133699405Y-91554819D02*
X133937500Y-91554819D01*
X133937500Y-91554819D02*
X134080357Y-91602438D01*
X134080357Y-91602438D02*
X134175595Y-91697676D01*
X134175595Y-91697676D02*
X134223214Y-91792914D01*
X134223214Y-91792914D02*
X134270833Y-91983390D01*
X134270833Y-91983390D02*
X134270833Y-92126247D01*
X134270833Y-92126247D02*
X134223214Y-92316723D01*
X134223214Y-92316723D02*
X134175595Y-92411961D01*
X134175595Y-92411961D02*
X134080357Y-92507200D01*
X134080357Y-92507200D02*
X133937500Y-92554819D01*
X133937500Y-92554819D02*
X133699405Y-92554819D01*
X135223214Y-92554819D02*
X134651786Y-92554819D01*
X134937500Y-92554819D02*
X134937500Y-91554819D01*
X134937500Y-91554819D02*
X134842262Y-91697676D01*
X134842262Y-91697676D02*
X134747024Y-91792914D01*
X134747024Y-91792914D02*
X134651786Y-91840533D01*
X139970951Y-124804819D02*
X139494761Y-124804819D01*
X139494761Y-124804819D02*
X139494761Y-123804819D01*
X140685237Y-124757200D02*
X140589999Y-124804819D01*
X140589999Y-124804819D02*
X140399523Y-124804819D01*
X140399523Y-124804819D02*
X140304285Y-124757200D01*
X140304285Y-124757200D02*
X140256666Y-124661961D01*
X140256666Y-124661961D02*
X140256666Y-124281009D01*
X140256666Y-124281009D02*
X140304285Y-124185771D01*
X140304285Y-124185771D02*
X140399523Y-124138152D01*
X140399523Y-124138152D02*
X140589999Y-124138152D01*
X140589999Y-124138152D02*
X140685237Y-124185771D01*
X140685237Y-124185771D02*
X140732856Y-124281009D01*
X140732856Y-124281009D02*
X140732856Y-124376247D01*
X140732856Y-124376247D02*
X140256666Y-124471485D01*
X141018571Y-124138152D02*
X141399523Y-124138152D01*
X141161428Y-124804819D02*
X141161428Y-123947676D01*
X141161428Y-123947676D02*
X141209047Y-123852438D01*
X141209047Y-123852438D02*
X141304285Y-123804819D01*
X141304285Y-123804819D02*
X141399523Y-123804819D01*
X141590000Y-124138152D02*
X141970952Y-124138152D01*
X141732857Y-123804819D02*
X141732857Y-124661961D01*
X141732857Y-124661961D02*
X141780476Y-124757200D01*
X141780476Y-124757200D02*
X141875714Y-124804819D01*
X141875714Y-124804819D02*
X141970952Y-124804819D01*
X143018571Y-123757200D02*
X142161429Y-125042914D01*
X143351905Y-124804819D02*
X143351905Y-123804819D01*
X143351905Y-123804819D02*
X143685238Y-124519104D01*
X143685238Y-124519104D02*
X144018571Y-123804819D01*
X144018571Y-123804819D02*
X144018571Y-124804819D01*
X144637619Y-124804819D02*
X144542381Y-124757200D01*
X144542381Y-124757200D02*
X144494762Y-124709580D01*
X144494762Y-124709580D02*
X144447143Y-124614342D01*
X144447143Y-124614342D02*
X144447143Y-124328628D01*
X144447143Y-124328628D02*
X144494762Y-124233390D01*
X144494762Y-124233390D02*
X144542381Y-124185771D01*
X144542381Y-124185771D02*
X144637619Y-124138152D01*
X144637619Y-124138152D02*
X144780476Y-124138152D01*
X144780476Y-124138152D02*
X144875714Y-124185771D01*
X144875714Y-124185771D02*
X144923333Y-124233390D01*
X144923333Y-124233390D02*
X144970952Y-124328628D01*
X144970952Y-124328628D02*
X144970952Y-124614342D01*
X144970952Y-124614342D02*
X144923333Y-124709580D01*
X144923333Y-124709580D02*
X144875714Y-124757200D01*
X144875714Y-124757200D02*
X144780476Y-124804819D01*
X144780476Y-124804819D02*
X144637619Y-124804819D01*
X145399524Y-124138152D02*
X145399524Y-124804819D01*
X145399524Y-124233390D02*
X145447143Y-124185771D01*
X145447143Y-124185771D02*
X145542381Y-124138152D01*
X145542381Y-124138152D02*
X145685238Y-124138152D01*
X145685238Y-124138152D02*
X145780476Y-124185771D01*
X145780476Y-124185771D02*
X145828095Y-124281009D01*
X145828095Y-124281009D02*
X145828095Y-124804819D01*
X146447143Y-124804819D02*
X146351905Y-124757200D01*
X146351905Y-124757200D02*
X146304286Y-124709580D01*
X146304286Y-124709580D02*
X146256667Y-124614342D01*
X146256667Y-124614342D02*
X146256667Y-124328628D01*
X146256667Y-124328628D02*
X146304286Y-124233390D01*
X146304286Y-124233390D02*
X146351905Y-124185771D01*
X146351905Y-124185771D02*
X146447143Y-124138152D01*
X146447143Y-124138152D02*
X146590000Y-124138152D01*
X146590000Y-124138152D02*
X146685238Y-124185771D01*
X146685238Y-124185771D02*
X146732857Y-124233390D01*
X146732857Y-124233390D02*
X146780476Y-124328628D01*
X146780476Y-124328628D02*
X146780476Y-124614342D01*
X146780476Y-124614342D02*
X146732857Y-124709580D01*
X146732857Y-124709580D02*
X146685238Y-124757200D01*
X146685238Y-124757200D02*
X146590000Y-124804819D01*
X146590000Y-124804819D02*
X146447143Y-124804819D01*
X147732857Y-124804819D02*
X147161429Y-124804819D01*
X147447143Y-124804819D02*
X147447143Y-123804819D01*
X147447143Y-123804819D02*
X147351905Y-123947676D01*
X147351905Y-123947676D02*
X147256667Y-124042914D01*
X147256667Y-124042914D02*
X147161429Y-124090533D01*
X125413452Y-70454819D02*
X124937262Y-70454819D01*
X124937262Y-70454819D02*
X124937262Y-69454819D01*
X125746786Y-69931009D02*
X126080119Y-69931009D01*
X126222976Y-70454819D02*
X125746786Y-70454819D01*
X125746786Y-70454819D02*
X125746786Y-69454819D01*
X125746786Y-69454819D02*
X126222976Y-69454819D01*
X126651548Y-70454819D02*
X126651548Y-69454819D01*
X126651548Y-69454819D02*
X126889643Y-69454819D01*
X126889643Y-69454819D02*
X127032500Y-69502438D01*
X127032500Y-69502438D02*
X127127738Y-69597676D01*
X127127738Y-69597676D02*
X127175357Y-69692914D01*
X127175357Y-69692914D02*
X127222976Y-69883390D01*
X127222976Y-69883390D02*
X127222976Y-70026247D01*
X127222976Y-70026247D02*
X127175357Y-70216723D01*
X127175357Y-70216723D02*
X127127738Y-70311961D01*
X127127738Y-70311961D02*
X127032500Y-70407200D01*
X127032500Y-70407200D02*
X126889643Y-70454819D01*
X126889643Y-70454819D02*
X126651548Y-70454819D01*
X127984881Y-69931009D02*
X128127738Y-69978628D01*
X128127738Y-69978628D02*
X128175357Y-70026247D01*
X128175357Y-70026247D02*
X128222976Y-70121485D01*
X128222976Y-70121485D02*
X128222976Y-70264342D01*
X128222976Y-70264342D02*
X128175357Y-70359580D01*
X128175357Y-70359580D02*
X128127738Y-70407200D01*
X128127738Y-70407200D02*
X128032500Y-70454819D01*
X128032500Y-70454819D02*
X127651548Y-70454819D01*
X127651548Y-70454819D02*
X127651548Y-69454819D01*
X127651548Y-69454819D02*
X127984881Y-69454819D01*
X127984881Y-69454819D02*
X128080119Y-69502438D01*
X128080119Y-69502438D02*
X128127738Y-69550057D01*
X128127738Y-69550057D02*
X128175357Y-69645295D01*
X128175357Y-69645295D02*
X128175357Y-69740533D01*
X128175357Y-69740533D02*
X128127738Y-69835771D01*
X128127738Y-69835771D02*
X128080119Y-69883390D01*
X128080119Y-69883390D02*
X127984881Y-69931009D01*
X127984881Y-69931009D02*
X127651548Y-69931009D01*
X129175357Y-70454819D02*
X128603929Y-70454819D01*
X128889643Y-70454819D02*
X128889643Y-69454819D01*
X128889643Y-69454819D02*
X128794405Y-69597676D01*
X128794405Y-69597676D02*
X128699167Y-69692914D01*
X128699167Y-69692914D02*
X128603929Y-69740533D01*
D11*
%TO.C,RGate1*%
X136707500Y-49170000D02*
X136707500Y-48840000D01*
X136707500Y-46430000D02*
X136707500Y-46760000D01*
X130167500Y-49170000D02*
X136707500Y-49170000D01*
X130167500Y-48840000D02*
X130167500Y-49170000D01*
X130167500Y-46760000D02*
X130167500Y-46430000D01*
X130167500Y-46430000D02*
X136707500Y-46430000D01*
%TO.C,RLed1*%
X126367500Y-71130000D02*
X126367500Y-71460000D01*
X126367500Y-73870000D02*
X126367500Y-73540000D01*
X132907500Y-71130000D02*
X126367500Y-71130000D01*
X132907500Y-71460000D02*
X132907500Y-71130000D01*
X132907500Y-73540000D02*
X132907500Y-73870000D01*
X132907500Y-73870000D02*
X126367500Y-73870000D01*
%TO.C,RGate1*%
X136707500Y-93470000D02*
X136707500Y-93140000D01*
X136707500Y-90730000D02*
X136707500Y-91060000D01*
X130167500Y-93470000D02*
X136707500Y-93470000D01*
X130167500Y-93140000D02*
X130167500Y-93470000D01*
X130167500Y-91060000D02*
X130167500Y-90730000D01*
X130167500Y-90730000D02*
X136707500Y-90730000D01*
%TO.C,J2*%
X129107500Y-146770000D02*
X129107500Y-149430000D01*
X126507500Y-149370000D02*
X126507500Y-146770000D01*
X126507500Y-146770000D02*
X129107500Y-146770000D01*
X123907500Y-149430000D02*
X129107500Y-149430000D01*
X123907500Y-149370000D02*
X126507500Y-149370000D01*
X123907500Y-149370000D02*
X123907500Y-149430000D01*
X123907500Y-148100000D02*
X123907500Y-146770000D01*
X123907500Y-146770000D02*
X125237500Y-146770000D01*
X129107500Y-58170000D02*
X129107500Y-60830000D01*
X126507500Y-60770000D02*
X126507500Y-58170000D01*
X126507500Y-58170000D02*
X129107500Y-58170000D01*
X123907500Y-60830000D02*
X129107500Y-60830000D01*
X123907500Y-60770000D02*
X126507500Y-60770000D01*
X123907500Y-60770000D02*
X123907500Y-60830000D01*
X123907500Y-59500000D02*
X123907500Y-58170000D01*
X123907500Y-58170000D02*
X125237500Y-58170000D01*
%TO.C,D2*%
X137142500Y-23200000D02*
G75*
G03*
X137142500Y-23200000I-2500000J0D01*
G01*
X137202500Y-21655170D02*
G75*
G03*
X131652500Y-23200462I-2560000J-1544830D01*
G01*
X131652501Y-23199538D02*
G75*
G03*
X137202499Y-24744830I2989999J-462D01*
G01*
X137202500Y-24745000D02*
X137202500Y-21655000D01*
%TO.C,RLed2*%
X126367500Y-118630000D02*
X126367500Y-118960000D01*
X126367500Y-121370000D02*
X126367500Y-121040000D01*
X132907500Y-118630000D02*
X126367500Y-118630000D01*
X132907500Y-118960000D02*
X132907500Y-118630000D01*
X132907500Y-121040000D02*
X132907500Y-121370000D01*
X132907500Y-121370000D02*
X126367500Y-121370000D01*
%TO.C,A1*%
X149992500Y-91080000D02*
X152992500Y-91080000D01*
X149992500Y-99980000D02*
X149992500Y-91080000D01*
X149992500Y-100020000D02*
X152992500Y-100020000D01*
X152992500Y-86330000D02*
X157112500Y-86330000D01*
X152992500Y-91080000D02*
X152992500Y-86330000D01*
X152992500Y-104770000D02*
X152992500Y-100020000D01*
X157112500Y-104770000D02*
X152992500Y-104770000D01*
X159912500Y-86330000D02*
X163512500Y-86330000D01*
X163512500Y-104770000D02*
X159912500Y-104770000D01*
X166212500Y-86330000D02*
X169812500Y-86330000D01*
X169812500Y-104770000D02*
X166212500Y-104770000D01*
X174232500Y-86330000D02*
X172612500Y-86330000D01*
X174232500Y-89930000D02*
X174232500Y-86330000D01*
X174232500Y-89930000D02*
X183082500Y-89930000D01*
X174232500Y-101170000D02*
X183082500Y-101170000D01*
X174232500Y-104770000D02*
X172612500Y-104770000D01*
X174232500Y-104770000D02*
X174232500Y-101170000D01*
X183082500Y-101170000D02*
X183082500Y-89930000D01*
%TO.C,B1*%
X183082500Y-80420000D02*
X183082500Y-69180000D01*
X174232500Y-84020000D02*
X174232500Y-80420000D01*
X174232500Y-84020000D02*
X172612500Y-84020000D01*
X174232500Y-80420000D02*
X183082500Y-80420000D01*
X174232500Y-69180000D02*
X183082500Y-69180000D01*
X174232500Y-69180000D02*
X174232500Y-65580000D01*
X174232500Y-65580000D02*
X172612500Y-65580000D01*
X169812500Y-84020000D02*
X166212500Y-84020000D01*
X166212500Y-65580000D02*
X169812500Y-65580000D01*
X163512500Y-84020000D02*
X159912500Y-84020000D01*
X159912500Y-65580000D02*
X163512500Y-65580000D01*
X157112500Y-84020000D02*
X152992500Y-84020000D01*
X152992500Y-84020000D02*
X152992500Y-79270000D01*
X152992500Y-70330000D02*
X152992500Y-65580000D01*
X152992500Y-65580000D02*
X157112500Y-65580000D01*
X149992500Y-79270000D02*
X152992500Y-79270000D01*
X149992500Y-79230000D02*
X149992500Y-70330000D01*
X149992500Y-70330000D02*
X152992500Y-70330000D01*
%TO.C,U1*%
X130912500Y-51080000D02*
X135553500Y-51080000D01*
X130912500Y-54349000D02*
X132422500Y-54349000D01*
X130912500Y-58050000D02*
X132422500Y-58050000D01*
X135553500Y-61320000D02*
X135553500Y-51080000D01*
X132422500Y-61320000D02*
X132422500Y-51080000D01*
X130912500Y-61320000D02*
X130912500Y-51080000D01*
X130912500Y-61320000D02*
X135553500Y-61320000D01*
%TO.C,RLed2*%
X126367500Y-74330000D02*
X126367500Y-74660000D01*
X126367500Y-77070000D02*
X126367500Y-76740000D01*
X132907500Y-74330000D02*
X126367500Y-74330000D01*
X132907500Y-74660000D02*
X132907500Y-74330000D01*
X132907500Y-76740000D02*
X132907500Y-77070000D01*
X132907500Y-77070000D02*
X126367500Y-77070000D01*
%TO.C,D2*%
X137142500Y-111800000D02*
G75*
G03*
X137142500Y-111800000I-2500000J0D01*
G01*
X137202500Y-110255170D02*
G75*
G03*
X131652500Y-111800462I-2560000J-1544830D01*
G01*
X131652501Y-111799538D02*
G75*
G03*
X137202499Y-113344830I2989999J-462D01*
G01*
X137202500Y-113345000D02*
X137202500Y-110255000D01*
%TO.C,B1*%
X183082500Y-124720000D02*
X183082500Y-113480000D01*
X174232500Y-128320000D02*
X174232500Y-124720000D01*
X174232500Y-128320000D02*
X172612500Y-128320000D01*
X174232500Y-124720000D02*
X183082500Y-124720000D01*
X174232500Y-113480000D02*
X183082500Y-113480000D01*
X174232500Y-113480000D02*
X174232500Y-109880000D01*
X174232500Y-109880000D02*
X172612500Y-109880000D01*
X169812500Y-128320000D02*
X166212500Y-128320000D01*
X166212500Y-109880000D02*
X169812500Y-109880000D01*
X163512500Y-128320000D02*
X159912500Y-128320000D01*
X159912500Y-109880000D02*
X163512500Y-109880000D01*
X157112500Y-128320000D02*
X152992500Y-128320000D01*
X152992500Y-128320000D02*
X152992500Y-123570000D01*
X152992500Y-114630000D02*
X152992500Y-109880000D01*
X152992500Y-109880000D02*
X157112500Y-109880000D01*
X149992500Y-123570000D02*
X152992500Y-123570000D01*
X149992500Y-123530000D02*
X149992500Y-114630000D01*
X149992500Y-114630000D02*
X152992500Y-114630000D01*
%TO.C,Out1*%
X124107500Y-127655000D02*
X124107500Y-122515000D01*
X126767500Y-122515000D02*
X124107500Y-122515000D01*
X126767500Y-127655000D02*
X124107500Y-127655000D01*
X126767500Y-127655000D02*
X126767500Y-122515000D01*
X126767500Y-128925000D02*
X126767500Y-130255000D01*
X126767500Y-130255000D02*
X125437500Y-130255000D01*
%TO.C,B1*%
X183082500Y-36120000D02*
X183082500Y-24880000D01*
X174232500Y-39720000D02*
X174232500Y-36120000D01*
X174232500Y-39720000D02*
X172612500Y-39720000D01*
X174232500Y-36120000D02*
X183082500Y-36120000D01*
X174232500Y-24880000D02*
X183082500Y-24880000D01*
X174232500Y-24880000D02*
X174232500Y-21280000D01*
X174232500Y-21280000D02*
X172612500Y-21280000D01*
X169812500Y-39720000D02*
X166212500Y-39720000D01*
X166212500Y-21280000D02*
X169812500Y-21280000D01*
X163512500Y-39720000D02*
X159912500Y-39720000D01*
X159912500Y-21280000D02*
X163512500Y-21280000D01*
X157112500Y-39720000D02*
X152992500Y-39720000D01*
X152992500Y-39720000D02*
X152992500Y-34970000D01*
X152992500Y-26030000D02*
X152992500Y-21280000D01*
X152992500Y-21280000D02*
X157112500Y-21280000D01*
X149992500Y-34970000D02*
X152992500Y-34970000D01*
X149992500Y-34930000D02*
X149992500Y-26030000D01*
X149992500Y-26030000D02*
X152992500Y-26030000D01*
%TO.C,J3*%
X129107500Y-97970000D02*
X129107500Y-100630000D01*
X126507500Y-100570000D02*
X126507500Y-97970000D01*
X126507500Y-97970000D02*
X129107500Y-97970000D01*
X123907500Y-100630000D02*
X129107500Y-100630000D01*
X123907500Y-100570000D02*
X126507500Y-100570000D01*
X123907500Y-100570000D02*
X123907500Y-100630000D01*
X123907500Y-99300000D02*
X123907500Y-97970000D01*
X123907500Y-97970000D02*
X125237500Y-97970000D01*
%TO.C,J1*%
X126707500Y-90570000D02*
X126767500Y-90570000D01*
X126767500Y-93230000D02*
X126767500Y-90570000D01*
X126707500Y-93230000D02*
X126707500Y-90570000D01*
X126707500Y-93230000D02*
X126767500Y-93230000D01*
X125437500Y-93230000D02*
X124107500Y-93230000D01*
X124107500Y-93230000D02*
X124107500Y-91900000D01*
%TO.C,RPD1*%
X130167500Y-131430000D02*
X130167500Y-131760000D01*
X130167500Y-134170000D02*
X130167500Y-133840000D01*
X136707500Y-131430000D02*
X130167500Y-131430000D01*
X136707500Y-131760000D02*
X136707500Y-131430000D01*
X136707500Y-133840000D02*
X136707500Y-134170000D01*
X136707500Y-134170000D02*
X130167500Y-134170000D01*
%TO.C,Left/Mono1*%
X138400000Y-64717500D02*
X138400000Y-85307500D01*
X138400000Y-85307500D02*
X148780000Y-85307500D01*
X142100000Y-84247500D02*
X142100000Y-85307500D01*
X143230000Y-82897500D02*
X143230000Y-84097500D01*
X143230000Y-83467500D02*
X142130000Y-83467500D01*
X143230000Y-84097500D02*
X143930000Y-84097500D01*
X143930000Y-82897500D02*
X143230000Y-82897500D01*
X143930000Y-83297500D02*
X143230000Y-83697500D01*
X143930000Y-83467500D02*
X145030000Y-83467500D01*
X143930000Y-84097500D02*
X143930000Y-82897500D01*
X145100000Y-84247500D02*
X142100000Y-84247500D01*
X145100000Y-85307500D02*
X145100000Y-84267500D01*
X148780000Y-64717500D02*
X138400000Y-64717500D01*
X148780000Y-85307500D02*
X148780000Y-64717500D01*
X148940000Y-84157500D02*
X148940000Y-85457500D01*
X148940000Y-85457500D02*
X147730000Y-85457500D01*
%TO.C,J3*%
X129107500Y-142270000D02*
X129107500Y-144930000D01*
X126507500Y-144870000D02*
X126507500Y-142270000D01*
X126507500Y-142270000D02*
X129107500Y-142270000D01*
X123907500Y-144930000D02*
X129107500Y-144930000D01*
X123907500Y-144870000D02*
X126507500Y-144870000D01*
X123907500Y-144870000D02*
X123907500Y-144930000D01*
X123907500Y-143600000D02*
X123907500Y-142270000D01*
X123907500Y-142270000D02*
X125237500Y-142270000D01*
%TO.C,Out1*%
X124107500Y-83355000D02*
X124107500Y-78215000D01*
X126767500Y-78215000D02*
X124107500Y-78215000D01*
X126767500Y-83355000D02*
X124107500Y-83355000D01*
X126767500Y-83355000D02*
X126767500Y-78215000D01*
X126767500Y-84625000D02*
X126767500Y-85955000D01*
X126767500Y-85955000D02*
X125437500Y-85955000D01*
%TO.C,QL1*%
X145635978Y-133561522D02*
G75*
G03*
X141197500Y-135400000I-1838478J-1838478D01*
G01*
X141197500Y-135400000D02*
G75*
G03*
X145635978Y-137238478I2600000J0D01*
G01*
X145647500Y-137200000D02*
X145647500Y-133600000D01*
%TO.C,RGate1*%
X136707500Y-137770000D02*
X136707500Y-137440000D01*
X136707500Y-135030000D02*
X136707500Y-135360000D01*
X130167500Y-137770000D02*
X136707500Y-137770000D01*
X130167500Y-137440000D02*
X130167500Y-137770000D01*
X130167500Y-135360000D02*
X130167500Y-135030000D01*
X130167500Y-135030000D02*
X136707500Y-135030000D01*
%TO.C,A1*%
X183082500Y-56870000D02*
X183082500Y-45630000D01*
X174232500Y-60470000D02*
X174232500Y-56870000D01*
X174232500Y-60470000D02*
X172612500Y-60470000D01*
X174232500Y-56870000D02*
X183082500Y-56870000D01*
X174232500Y-45630000D02*
X183082500Y-45630000D01*
X174232500Y-45630000D02*
X174232500Y-42030000D01*
X174232500Y-42030000D02*
X172612500Y-42030000D01*
X169812500Y-60470000D02*
X166212500Y-60470000D01*
X166212500Y-42030000D02*
X169812500Y-42030000D01*
X163512500Y-60470000D02*
X159912500Y-60470000D01*
X159912500Y-42030000D02*
X163512500Y-42030000D01*
X157112500Y-60470000D02*
X152992500Y-60470000D01*
X152992500Y-60470000D02*
X152992500Y-55720000D01*
X152992500Y-46780000D02*
X152992500Y-42030000D01*
X152992500Y-42030000D02*
X157112500Y-42030000D01*
X149992500Y-55720000D02*
X152992500Y-55720000D01*
X149992500Y-55680000D02*
X149992500Y-46780000D01*
X149992500Y-46780000D02*
X152992500Y-46780000D01*
%TO.C,U1*%
X130912500Y-139680000D02*
X135553500Y-139680000D01*
X130912500Y-142949000D02*
X132422500Y-142949000D01*
X130912500Y-146650000D02*
X132422500Y-146650000D01*
X135553500Y-149920000D02*
X135553500Y-139680000D01*
X132422500Y-149920000D02*
X132422500Y-139680000D01*
X130912500Y-149920000D02*
X130912500Y-139680000D01*
X130912500Y-149920000D02*
X135553500Y-149920000D01*
%TO.C,RPD1*%
X130167500Y-42830000D02*
X130167500Y-43160000D01*
X130167500Y-45570000D02*
X130167500Y-45240000D01*
X136707500Y-42830000D02*
X130167500Y-42830000D01*
X136707500Y-43160000D02*
X136707500Y-42830000D01*
X136707500Y-45240000D02*
X136707500Y-45570000D01*
X136707500Y-45570000D02*
X130167500Y-45570000D01*
%TO.C,U1*%
X130912500Y-95380000D02*
X135553500Y-95380000D01*
X130912500Y-98649000D02*
X132422500Y-98649000D01*
X130912500Y-102350000D02*
X132422500Y-102350000D01*
X135553500Y-105620000D02*
X135553500Y-95380000D01*
X132422500Y-105620000D02*
X132422500Y-95380000D01*
X130912500Y-105620000D02*
X130912500Y-95380000D01*
X130912500Y-105620000D02*
X135553500Y-105620000D01*
%TO.C,RLed2*%
X126367500Y-30030000D02*
X126367500Y-30360000D01*
X126367500Y-32770000D02*
X126367500Y-32440000D01*
X132907500Y-30030000D02*
X126367500Y-30030000D01*
X132907500Y-30360000D02*
X132907500Y-30030000D01*
X132907500Y-32440000D02*
X132907500Y-32770000D01*
X132907500Y-32770000D02*
X126367500Y-32770000D01*
%TO.C,QL1*%
X145635978Y-89261522D02*
G75*
G03*
X141197500Y-91100000I-1838478J-1838478D01*
G01*
X141197500Y-91100000D02*
G75*
G03*
X145635978Y-92938478I2600000J0D01*
G01*
X145647500Y-92900000D02*
X145647500Y-89300000D01*
%TO.C,C1*%
X147557500Y-100567677D02*
G75*
G03*
X147557500Y-100567677I-5120000J0D01*
G01*
X141838500Y-95486677D02*
X143036500Y-95486677D01*
X141575500Y-95526677D02*
X143299500Y-95526677D01*
X141375500Y-95566677D02*
X143499500Y-95566677D01*
X141207500Y-95606677D02*
X143667500Y-95606677D01*
X141059500Y-95646677D02*
X143815500Y-95646677D01*
X140927500Y-95686677D02*
X143947500Y-95686677D01*
X140807500Y-95726677D02*
X144067500Y-95726677D01*
X140695500Y-95766677D02*
X144179500Y-95766677D01*
X140591500Y-95806677D02*
X144283500Y-95806677D01*
X140493500Y-95846677D02*
X144381500Y-95846677D01*
X140400500Y-95886677D02*
X144474500Y-95886677D01*
X140312500Y-95926677D02*
X144562500Y-95926677D01*
X140228500Y-95966677D02*
X144646500Y-95966677D01*
X140148500Y-96006677D02*
X144726500Y-96006677D01*
X140072500Y-96046677D02*
X144802500Y-96046677D01*
X139998500Y-96086677D02*
X144876500Y-96086677D01*
X139927500Y-96126677D02*
X144947500Y-96126677D01*
X139858500Y-96166677D02*
X145016500Y-96166677D01*
X139792500Y-96206677D02*
X145082500Y-96206677D01*
X139728500Y-96246677D02*
X145146500Y-96246677D01*
X139667500Y-96286677D02*
X145207500Y-96286677D01*
X139607500Y-96326677D02*
X145267500Y-96326677D01*
X139548500Y-96366677D02*
X145326500Y-96366677D01*
X139492500Y-96406677D02*
X145382500Y-96406677D01*
X139437500Y-96446677D02*
X145437500Y-96446677D01*
X139383500Y-96486677D02*
X145491500Y-96486677D01*
X139331500Y-96526677D02*
X145543500Y-96526677D01*
X139281500Y-96566677D02*
X145593500Y-96566677D01*
X139231500Y-96606677D02*
X145643500Y-96606677D01*
X139183500Y-96646677D02*
X145691500Y-96646677D01*
X139136500Y-96686677D02*
X145738500Y-96686677D01*
X139090500Y-96726677D02*
X145784500Y-96726677D01*
X139045500Y-96766677D02*
X145829500Y-96766677D01*
X139001500Y-96806677D02*
X145873500Y-96806677D01*
X138959500Y-96846677D02*
X145915500Y-96846677D01*
X138917500Y-96886677D02*
X145957500Y-96886677D01*
X138876500Y-96926677D02*
X145998500Y-96926677D01*
X138836500Y-96966677D02*
X146038500Y-96966677D01*
X138797500Y-97006677D02*
X146077500Y-97006677D01*
X138758500Y-97046677D02*
X146116500Y-97046677D01*
X138721500Y-97086677D02*
X146153500Y-97086677D01*
X138684500Y-97126677D02*
X146190500Y-97126677D01*
X138648500Y-97166677D02*
X146226500Y-97166677D01*
X138613500Y-97206677D02*
X146261500Y-97206677D01*
X138579500Y-97246677D02*
X146295500Y-97246677D01*
X138545500Y-97286677D02*
X146329500Y-97286677D01*
X138512500Y-97326677D02*
X146362500Y-97326677D01*
X138480500Y-97366677D02*
X146394500Y-97366677D01*
X138448500Y-97406677D02*
X146426500Y-97406677D01*
X138417500Y-97446677D02*
X146457500Y-97446677D01*
X138387500Y-97486677D02*
X146487500Y-97486677D01*
X138357500Y-97526677D02*
X146517500Y-97526677D01*
X138327500Y-97566677D02*
X146547500Y-97566677D01*
X143678500Y-97606677D02*
X146575500Y-97606677D01*
X138299500Y-97606677D02*
X141196500Y-97606677D01*
X143678500Y-97646677D02*
X146603500Y-97646677D01*
X138271500Y-97646677D02*
X141196500Y-97646677D01*
X143678500Y-97686677D02*
X146631500Y-97686677D01*
X138243500Y-97686677D02*
X141196500Y-97686677D01*
X143678500Y-97726677D02*
X146658500Y-97726677D01*
X138216500Y-97726677D02*
X141196500Y-97726677D01*
X143678500Y-97766677D02*
X146684500Y-97766677D01*
X138190500Y-97766677D02*
X141196500Y-97766677D01*
X143678500Y-97806677D02*
X146710500Y-97806677D01*
X138164500Y-97806677D02*
X141196500Y-97806677D01*
X143678500Y-97846677D02*
X146735500Y-97846677D01*
X138139500Y-97846677D02*
X141196500Y-97846677D01*
X143678500Y-97886677D02*
X146760500Y-97886677D01*
X138114500Y-97886677D02*
X141196500Y-97886677D01*
X143678500Y-97926677D02*
X146784500Y-97926677D01*
X138090500Y-97926677D02*
X141196500Y-97926677D01*
X143678500Y-97966677D02*
X146808500Y-97966677D01*
X138066500Y-97966677D02*
X141196500Y-97966677D01*
X143678500Y-98006677D02*
X146832500Y-98006677D01*
X138042500Y-98006677D02*
X141196500Y-98006677D01*
X143678500Y-98046677D02*
X146854500Y-98046677D01*
X138020500Y-98046677D02*
X141196500Y-98046677D01*
X143678500Y-98086677D02*
X146877500Y-98086677D01*
X137997500Y-98086677D02*
X141196500Y-98086677D01*
X143678500Y-98126677D02*
X146899500Y-98126677D01*
X137975500Y-98126677D02*
X141196500Y-98126677D01*
X143678500Y-98166677D02*
X146920500Y-98166677D01*
X137954500Y-98166677D02*
X141196500Y-98166677D01*
X143678500Y-98206677D02*
X146941500Y-98206677D01*
X137933500Y-98206677D02*
X141196500Y-98206677D01*
X143678500Y-98246677D02*
X146962500Y-98246677D01*
X137912500Y-98246677D02*
X141196500Y-98246677D01*
X143678500Y-98286677D02*
X146982500Y-98286677D01*
X137892500Y-98286677D02*
X141196500Y-98286677D01*
X143678500Y-98326677D02*
X147001500Y-98326677D01*
X137873500Y-98326677D02*
X141196500Y-98326677D01*
X143678500Y-98366677D02*
X147021500Y-98366677D01*
X137853500Y-98366677D02*
X141196500Y-98366677D01*
X143678500Y-98406677D02*
X147040500Y-98406677D01*
X137834500Y-98406677D02*
X141196500Y-98406677D01*
X143678500Y-98446677D02*
X147058500Y-98446677D01*
X137816500Y-98446677D02*
X141196500Y-98446677D01*
X143678500Y-98486677D02*
X147076500Y-98486677D01*
X137798500Y-98486677D02*
X141196500Y-98486677D01*
X143678500Y-98526677D02*
X147094500Y-98526677D01*
X137780500Y-98526677D02*
X141196500Y-98526677D01*
X143678500Y-98566677D02*
X147111500Y-98566677D01*
X137763500Y-98566677D02*
X141196500Y-98566677D01*
X143678500Y-98606677D02*
X147127500Y-98606677D01*
X137747500Y-98606677D02*
X141196500Y-98606677D01*
X143678500Y-98646677D02*
X147144500Y-98646677D01*
X137730500Y-98646677D02*
X141196500Y-98646677D01*
X143678500Y-98686677D02*
X147160500Y-98686677D01*
X137714500Y-98686677D02*
X141196500Y-98686677D01*
X143678500Y-98726677D02*
X147175500Y-98726677D01*
X137699500Y-98726677D02*
X141196500Y-98726677D01*
X143678500Y-98766677D02*
X147191500Y-98766677D01*
X137683500Y-98766677D02*
X141196500Y-98766677D01*
X143678500Y-98806677D02*
X147205500Y-98806677D01*
X137669500Y-98806677D02*
X141196500Y-98806677D01*
X143678500Y-98846677D02*
X147220500Y-98846677D01*
X137654500Y-98846677D02*
X141196500Y-98846677D01*
X143678500Y-98886677D02*
X147234500Y-98886677D01*
X137640500Y-98886677D02*
X141196500Y-98886677D01*
X143678500Y-98926677D02*
X147248500Y-98926677D01*
X137626500Y-98926677D02*
X141196500Y-98926677D01*
X143678500Y-98966677D02*
X147261500Y-98966677D01*
X137613500Y-98966677D02*
X141196500Y-98966677D01*
X143678500Y-99006677D02*
X147274500Y-99006677D01*
X137600500Y-99006677D02*
X141196500Y-99006677D01*
X143678500Y-99046677D02*
X147287500Y-99046677D01*
X137587500Y-99046677D02*
X141196500Y-99046677D01*
X143678500Y-99086677D02*
X147299500Y-99086677D01*
X137575500Y-99086677D02*
X141196500Y-99086677D01*
X143678500Y-99126677D02*
X147311500Y-99126677D01*
X137563500Y-99126677D02*
X141196500Y-99126677D01*
X143678500Y-99166677D02*
X147322500Y-99166677D01*
X137552500Y-99166677D02*
X141196500Y-99166677D01*
X143678500Y-99206677D02*
X147334500Y-99206677D01*
X137540500Y-99206677D02*
X141196500Y-99206677D01*
X143678500Y-99246677D02*
X147344500Y-99246677D01*
X137530500Y-99246677D02*
X141196500Y-99246677D01*
X143678500Y-99286677D02*
X147355500Y-99286677D01*
X137519500Y-99286677D02*
X141196500Y-99286677D01*
X143678500Y-99326677D02*
X147365500Y-99326677D01*
X137509500Y-99326677D02*
X141196500Y-99326677D01*
X143678500Y-99366677D02*
X147375500Y-99366677D01*
X137499500Y-99366677D02*
X141196500Y-99366677D01*
X143678500Y-99406677D02*
X147384500Y-99406677D01*
X137490500Y-99406677D02*
X141196500Y-99406677D01*
X143678500Y-99446677D02*
X147393500Y-99446677D01*
X137481500Y-99446677D02*
X141196500Y-99446677D01*
X143678500Y-99486677D02*
X147402500Y-99486677D01*
X137472500Y-99486677D02*
X141196500Y-99486677D01*
X143678500Y-99526677D02*
X147411500Y-99526677D01*
X137463500Y-99526677D02*
X141196500Y-99526677D01*
X143678500Y-99566677D02*
X147419500Y-99566677D01*
X137455500Y-99566677D02*
X141196500Y-99566677D01*
X143678500Y-99606677D02*
X147427500Y-99606677D01*
X137447500Y-99606677D02*
X141196500Y-99606677D01*
X143678500Y-99646677D02*
X147434500Y-99646677D01*
X137440500Y-99646677D02*
X141196500Y-99646677D01*
X143678500Y-99686677D02*
X147441500Y-99686677D01*
X137433500Y-99686677D02*
X141196500Y-99686677D01*
X143678500Y-99726677D02*
X147448500Y-99726677D01*
X137426500Y-99726677D02*
X141196500Y-99726677D01*
X143678500Y-99766677D02*
X147455500Y-99766677D01*
X137419500Y-99766677D02*
X141196500Y-99766677D01*
X143678500Y-99806677D02*
X147461500Y-99806677D01*
X137413500Y-99806677D02*
X141196500Y-99806677D01*
X143678500Y-99846677D02*
X147467500Y-99846677D01*
X137407500Y-99846677D02*
X141196500Y-99846677D01*
X143678500Y-99887677D02*
X147472500Y-99887677D01*
X137402500Y-99887677D02*
X141196500Y-99887677D01*
X143678500Y-99927677D02*
X147477500Y-99927677D01*
X137397500Y-99927677D02*
X141196500Y-99927677D01*
X143678500Y-99967677D02*
X147482500Y-99967677D01*
X137392500Y-99967677D02*
X141196500Y-99967677D01*
X143678500Y-100007677D02*
X147487500Y-100007677D01*
X137387500Y-100007677D02*
X141196500Y-100007677D01*
X143678500Y-100047677D02*
X147491500Y-100047677D01*
X137383500Y-100047677D02*
X141196500Y-100047677D01*
X137379500Y-100087677D02*
X147495500Y-100087677D01*
X137375500Y-100127677D02*
X147499500Y-100127677D01*
X137372500Y-100167677D02*
X147502500Y-100167677D01*
X137369500Y-100207677D02*
X147505500Y-100207677D01*
X137367500Y-100247677D02*
X147507500Y-100247677D01*
X137364500Y-100287677D02*
X147510500Y-100287677D01*
X137362500Y-100327677D02*
X147512500Y-100327677D01*
X137360500Y-100367677D02*
X147514500Y-100367677D01*
X137359500Y-100407677D02*
X147515500Y-100407677D01*
X137358500Y-100447677D02*
X147516500Y-100447677D01*
X137357500Y-100487677D02*
X147517500Y-100487677D01*
X137357500Y-100527677D02*
X147517500Y-100527677D01*
X137357500Y-100567677D02*
X147517500Y-100567677D01*
X139062500Y-105547323D02*
X140062500Y-105547323D01*
X139562500Y-106047323D02*
X139562500Y-105047323D01*
%TO.C,J3*%
X129107500Y-53670000D02*
X129107500Y-56330000D01*
X126507500Y-56270000D02*
X126507500Y-53670000D01*
X126507500Y-53670000D02*
X129107500Y-53670000D01*
X123907500Y-56330000D02*
X129107500Y-56330000D01*
X123907500Y-56270000D02*
X126507500Y-56270000D01*
X123907500Y-56270000D02*
X123907500Y-56330000D01*
X123907500Y-55000000D02*
X123907500Y-53670000D01*
X123907500Y-53670000D02*
X125237500Y-53670000D01*
%TO.C,J2*%
X129107500Y-102470000D02*
X129107500Y-105130000D01*
X126507500Y-105070000D02*
X126507500Y-102470000D01*
X126507500Y-102470000D02*
X129107500Y-102470000D01*
X123907500Y-105130000D02*
X129107500Y-105130000D01*
X123907500Y-105070000D02*
X126507500Y-105070000D01*
X123907500Y-105070000D02*
X123907500Y-105130000D01*
X123907500Y-103800000D02*
X123907500Y-102470000D01*
X123907500Y-102470000D02*
X125237500Y-102470000D01*
%TO.C,J1*%
X126707500Y-46270000D02*
X126767500Y-46270000D01*
X126767500Y-48930000D02*
X126767500Y-46270000D01*
X126707500Y-48930000D02*
X126707500Y-46270000D01*
X126707500Y-48930000D02*
X126767500Y-48930000D01*
X125437500Y-48930000D02*
X124107500Y-48930000D01*
X124107500Y-48930000D02*
X124107500Y-47600000D01*
%TO.C,RLed1*%
X126367500Y-26830000D02*
X126367500Y-27160000D01*
X126367500Y-29570000D02*
X126367500Y-29240000D01*
X132907500Y-26830000D02*
X126367500Y-26830000D01*
X132907500Y-27160000D02*
X132907500Y-26830000D01*
X132907500Y-29240000D02*
X132907500Y-29570000D01*
X132907500Y-29570000D02*
X126367500Y-29570000D01*
%TO.C,LEDB1*%
X129532500Y-23200000D02*
G75*
G03*
X129532500Y-23200000I-2500000J0D01*
G01*
X124472500Y-24744830D02*
G75*
G03*
X130022500Y-23199538I2560000J1544830D01*
G01*
X130022499Y-23200462D02*
G75*
G03*
X124472501Y-21655170I-2989999J462D01*
G01*
X124472500Y-21655000D02*
X124472500Y-24745000D01*
%TO.C,A1*%
X183082500Y-145470000D02*
X183082500Y-134230000D01*
X174232500Y-149070000D02*
X174232500Y-145470000D01*
X174232500Y-149070000D02*
X172612500Y-149070000D01*
X174232500Y-145470000D02*
X183082500Y-145470000D01*
X174232500Y-134230000D02*
X183082500Y-134230000D01*
X174232500Y-134230000D02*
X174232500Y-130630000D01*
X174232500Y-130630000D02*
X172612500Y-130630000D01*
X169812500Y-149070000D02*
X166212500Y-149070000D01*
X166212500Y-130630000D02*
X169812500Y-130630000D01*
X163512500Y-149070000D02*
X159912500Y-149070000D01*
X159912500Y-130630000D02*
X163512500Y-130630000D01*
X157112500Y-149070000D02*
X152992500Y-149070000D01*
X152992500Y-149070000D02*
X152992500Y-144320000D01*
X152992500Y-135380000D02*
X152992500Y-130630000D01*
X152992500Y-130630000D02*
X157112500Y-130630000D01*
X149992500Y-144320000D02*
X152992500Y-144320000D01*
X149992500Y-144280000D02*
X149992500Y-135380000D01*
X149992500Y-135380000D02*
X152992500Y-135380000D01*
%TO.C,Out1*%
X124107500Y-39055000D02*
X124107500Y-33915000D01*
X126767500Y-33915000D02*
X124107500Y-33915000D01*
X126767500Y-39055000D02*
X124107500Y-39055000D01*
X126767500Y-39055000D02*
X126767500Y-33915000D01*
X126767500Y-40325000D02*
X126767500Y-41655000D01*
X126767500Y-41655000D02*
X125437500Y-41655000D01*
%TO.C,D2*%
X137142500Y-67500000D02*
G75*
G03*
X137142500Y-67500000I-2500000J0D01*
G01*
X137202500Y-65955170D02*
G75*
G03*
X131652500Y-67500462I-2560000J-1544830D01*
G01*
X131652501Y-67499538D02*
G75*
G03*
X137202499Y-69044830I2989999J-462D01*
G01*
X137202500Y-69045000D02*
X137202500Y-65955000D01*
%TO.C,C1*%
X147557500Y-144867677D02*
G75*
G03*
X147557500Y-144867677I-5120000J0D01*
G01*
X141838500Y-139786677D02*
X143036500Y-139786677D01*
X141575500Y-139826677D02*
X143299500Y-139826677D01*
X141375500Y-139866677D02*
X143499500Y-139866677D01*
X141207500Y-139906677D02*
X143667500Y-139906677D01*
X141059500Y-139946677D02*
X143815500Y-139946677D01*
X140927500Y-139986677D02*
X143947500Y-139986677D01*
X140807500Y-140026677D02*
X144067500Y-140026677D01*
X140695500Y-140066677D02*
X144179500Y-140066677D01*
X140591500Y-140106677D02*
X144283500Y-140106677D01*
X140493500Y-140146677D02*
X144381500Y-140146677D01*
X140400500Y-140186677D02*
X144474500Y-140186677D01*
X140312500Y-140226677D02*
X144562500Y-140226677D01*
X140228500Y-140266677D02*
X144646500Y-140266677D01*
X140148500Y-140306677D02*
X144726500Y-140306677D01*
X140072500Y-140346677D02*
X144802500Y-140346677D01*
X139998500Y-140386677D02*
X144876500Y-140386677D01*
X139927500Y-140426677D02*
X144947500Y-140426677D01*
X139858500Y-140466677D02*
X145016500Y-140466677D01*
X139792500Y-140506677D02*
X145082500Y-140506677D01*
X139728500Y-140546677D02*
X145146500Y-140546677D01*
X139667500Y-140586677D02*
X145207500Y-140586677D01*
X139607500Y-140626677D02*
X145267500Y-140626677D01*
X139548500Y-140666677D02*
X145326500Y-140666677D01*
X139492500Y-140706677D02*
X145382500Y-140706677D01*
X139437500Y-140746677D02*
X145437500Y-140746677D01*
X139383500Y-140786677D02*
X145491500Y-140786677D01*
X139331500Y-140826677D02*
X145543500Y-140826677D01*
X139281500Y-140866677D02*
X145593500Y-140866677D01*
X139231500Y-140906677D02*
X145643500Y-140906677D01*
X139183500Y-140946677D02*
X145691500Y-140946677D01*
X139136500Y-140986677D02*
X145738500Y-140986677D01*
X139090500Y-141026677D02*
X145784500Y-141026677D01*
X139045500Y-141066677D02*
X145829500Y-141066677D01*
X139001500Y-141106677D02*
X145873500Y-141106677D01*
X138959500Y-141146677D02*
X145915500Y-141146677D01*
X138917500Y-141186677D02*
X145957500Y-141186677D01*
X138876500Y-141226677D02*
X145998500Y-141226677D01*
X138836500Y-141266677D02*
X146038500Y-141266677D01*
X138797500Y-141306677D02*
X146077500Y-141306677D01*
X138758500Y-141346677D02*
X146116500Y-141346677D01*
X138721500Y-141386677D02*
X146153500Y-141386677D01*
X138684500Y-141426677D02*
X146190500Y-141426677D01*
X138648500Y-141466677D02*
X146226500Y-141466677D01*
X138613500Y-141506677D02*
X146261500Y-141506677D01*
X138579500Y-141546677D02*
X146295500Y-141546677D01*
X138545500Y-141586677D02*
X146329500Y-141586677D01*
X138512500Y-141626677D02*
X146362500Y-141626677D01*
X138480500Y-141666677D02*
X146394500Y-141666677D01*
X138448500Y-141706677D02*
X146426500Y-141706677D01*
X138417500Y-141746677D02*
X146457500Y-141746677D01*
X138387500Y-141786677D02*
X146487500Y-141786677D01*
X138357500Y-141826677D02*
X146517500Y-141826677D01*
X138327500Y-141866677D02*
X146547500Y-141866677D01*
X143678500Y-141906677D02*
X146575500Y-141906677D01*
X138299500Y-141906677D02*
X141196500Y-141906677D01*
X143678500Y-141946677D02*
X146603500Y-141946677D01*
X138271500Y-141946677D02*
X141196500Y-141946677D01*
X143678500Y-141986677D02*
X146631500Y-141986677D01*
X138243500Y-141986677D02*
X141196500Y-141986677D01*
X143678500Y-142026677D02*
X146658500Y-142026677D01*
X138216500Y-142026677D02*
X141196500Y-142026677D01*
X143678500Y-142066677D02*
X146684500Y-142066677D01*
X138190500Y-142066677D02*
X141196500Y-142066677D01*
X143678500Y-142106677D02*
X146710500Y-142106677D01*
X138164500Y-142106677D02*
X141196500Y-142106677D01*
X143678500Y-142146677D02*
X146735500Y-142146677D01*
X138139500Y-142146677D02*
X141196500Y-142146677D01*
X143678500Y-142186677D02*
X146760500Y-142186677D01*
X138114500Y-142186677D02*
X141196500Y-142186677D01*
X143678500Y-142226677D02*
X146784500Y-142226677D01*
X138090500Y-142226677D02*
X141196500Y-142226677D01*
X143678500Y-142266677D02*
X146808500Y-142266677D01*
X138066500Y-142266677D02*
X141196500Y-142266677D01*
X143678500Y-142306677D02*
X146832500Y-142306677D01*
X138042500Y-142306677D02*
X141196500Y-142306677D01*
X143678500Y-142346677D02*
X146854500Y-142346677D01*
X138020500Y-142346677D02*
X141196500Y-142346677D01*
X143678500Y-142386677D02*
X146877500Y-142386677D01*
X137997500Y-142386677D02*
X141196500Y-142386677D01*
X143678500Y-142426677D02*
X146899500Y-142426677D01*
X137975500Y-142426677D02*
X141196500Y-142426677D01*
X143678500Y-142466677D02*
X146920500Y-142466677D01*
X137954500Y-142466677D02*
X141196500Y-142466677D01*
X143678500Y-142506677D02*
X146941500Y-142506677D01*
X137933500Y-142506677D02*
X141196500Y-142506677D01*
X143678500Y-142546677D02*
X146962500Y-142546677D01*
X137912500Y-142546677D02*
X141196500Y-142546677D01*
X143678500Y-142586677D02*
X146982500Y-142586677D01*
X137892500Y-142586677D02*
X141196500Y-142586677D01*
X143678500Y-142626677D02*
X147001500Y-142626677D01*
X137873500Y-142626677D02*
X141196500Y-142626677D01*
X143678500Y-142666677D02*
X147021500Y-142666677D01*
X137853500Y-142666677D02*
X141196500Y-142666677D01*
X143678500Y-142706677D02*
X147040500Y-142706677D01*
X137834500Y-142706677D02*
X141196500Y-142706677D01*
X143678500Y-142746677D02*
X147058500Y-142746677D01*
X137816500Y-142746677D02*
X141196500Y-142746677D01*
X143678500Y-142786677D02*
X147076500Y-142786677D01*
X137798500Y-142786677D02*
X141196500Y-142786677D01*
X143678500Y-142826677D02*
X147094500Y-142826677D01*
X137780500Y-142826677D02*
X141196500Y-142826677D01*
X143678500Y-142866677D02*
X147111500Y-142866677D01*
X137763500Y-142866677D02*
X141196500Y-142866677D01*
X143678500Y-142906677D02*
X147127500Y-142906677D01*
X137747500Y-142906677D02*
X141196500Y-142906677D01*
X143678500Y-142946677D02*
X147144500Y-142946677D01*
X137730500Y-142946677D02*
X141196500Y-142946677D01*
X143678500Y-142986677D02*
X147160500Y-142986677D01*
X137714500Y-142986677D02*
X141196500Y-142986677D01*
X143678500Y-143026677D02*
X147175500Y-143026677D01*
X137699500Y-143026677D02*
X141196500Y-143026677D01*
X143678500Y-143066677D02*
X147191500Y-143066677D01*
X137683500Y-143066677D02*
X141196500Y-143066677D01*
X143678500Y-143106677D02*
X147205500Y-143106677D01*
X137669500Y-143106677D02*
X141196500Y-143106677D01*
X143678500Y-143146677D02*
X147220500Y-143146677D01*
X137654500Y-143146677D02*
X141196500Y-143146677D01*
X143678500Y-143186677D02*
X147234500Y-143186677D01*
X137640500Y-143186677D02*
X141196500Y-143186677D01*
X143678500Y-143226677D02*
X147248500Y-143226677D01*
X137626500Y-143226677D02*
X141196500Y-143226677D01*
X143678500Y-143266677D02*
X147261500Y-143266677D01*
X137613500Y-143266677D02*
X141196500Y-143266677D01*
X143678500Y-143306677D02*
X147274500Y-143306677D01*
X137600500Y-143306677D02*
X141196500Y-143306677D01*
X143678500Y-143346677D02*
X147287500Y-143346677D01*
X137587500Y-143346677D02*
X141196500Y-143346677D01*
X143678500Y-143386677D02*
X147299500Y-143386677D01*
X137575500Y-143386677D02*
X141196500Y-143386677D01*
X143678500Y-143426677D02*
X147311500Y-143426677D01*
X137563500Y-143426677D02*
X141196500Y-143426677D01*
X143678500Y-143466677D02*
X147322500Y-143466677D01*
X137552500Y-143466677D02*
X141196500Y-143466677D01*
X143678500Y-143506677D02*
X147334500Y-143506677D01*
X137540500Y-143506677D02*
X141196500Y-143506677D01*
X143678500Y-143546677D02*
X147344500Y-143546677D01*
X137530500Y-143546677D02*
X141196500Y-143546677D01*
X143678500Y-143586677D02*
X147355500Y-143586677D01*
X137519500Y-143586677D02*
X141196500Y-143586677D01*
X143678500Y-143626677D02*
X147365500Y-143626677D01*
X137509500Y-143626677D02*
X141196500Y-143626677D01*
X143678500Y-143666677D02*
X147375500Y-143666677D01*
X137499500Y-143666677D02*
X141196500Y-143666677D01*
X143678500Y-143706677D02*
X147384500Y-143706677D01*
X137490500Y-143706677D02*
X141196500Y-143706677D01*
X143678500Y-143746677D02*
X147393500Y-143746677D01*
X137481500Y-143746677D02*
X141196500Y-143746677D01*
X143678500Y-143786677D02*
X147402500Y-143786677D01*
X137472500Y-143786677D02*
X141196500Y-143786677D01*
X143678500Y-143826677D02*
X147411500Y-143826677D01*
X137463500Y-143826677D02*
X141196500Y-143826677D01*
X143678500Y-143866677D02*
X147419500Y-143866677D01*
X137455500Y-143866677D02*
X141196500Y-143866677D01*
X143678500Y-143906677D02*
X147427500Y-143906677D01*
X137447500Y-143906677D02*
X141196500Y-143906677D01*
X143678500Y-143946677D02*
X147434500Y-143946677D01*
X137440500Y-143946677D02*
X141196500Y-143946677D01*
X143678500Y-143986677D02*
X147441500Y-143986677D01*
X137433500Y-143986677D02*
X141196500Y-143986677D01*
X143678500Y-144026677D02*
X147448500Y-144026677D01*
X137426500Y-144026677D02*
X141196500Y-144026677D01*
X143678500Y-144066677D02*
X147455500Y-144066677D01*
X137419500Y-144066677D02*
X141196500Y-144066677D01*
X143678500Y-144106677D02*
X147461500Y-144106677D01*
X137413500Y-144106677D02*
X141196500Y-144106677D01*
X143678500Y-144146677D02*
X147467500Y-144146677D01*
X137407500Y-144146677D02*
X141196500Y-144146677D01*
X143678500Y-144187677D02*
X147472500Y-144187677D01*
X137402500Y-144187677D02*
X141196500Y-144187677D01*
X143678500Y-144227677D02*
X147477500Y-144227677D01*
X137397500Y-144227677D02*
X141196500Y-144227677D01*
X143678500Y-144267677D02*
X147482500Y-144267677D01*
X137392500Y-144267677D02*
X141196500Y-144267677D01*
X143678500Y-144307677D02*
X147487500Y-144307677D01*
X137387500Y-144307677D02*
X141196500Y-144307677D01*
X143678500Y-144347677D02*
X147491500Y-144347677D01*
X137383500Y-144347677D02*
X141196500Y-144347677D01*
X137379500Y-144387677D02*
X147495500Y-144387677D01*
X137375500Y-144427677D02*
X147499500Y-144427677D01*
X137372500Y-144467677D02*
X147502500Y-144467677D01*
X137369500Y-144507677D02*
X147505500Y-144507677D01*
X137367500Y-144547677D02*
X147507500Y-144547677D01*
X137364500Y-144587677D02*
X147510500Y-144587677D01*
X137362500Y-144627677D02*
X147512500Y-144627677D01*
X137360500Y-144667677D02*
X147514500Y-144667677D01*
X137359500Y-144707677D02*
X147515500Y-144707677D01*
X137358500Y-144747677D02*
X147516500Y-144747677D01*
X137357500Y-144787677D02*
X147517500Y-144787677D01*
X137357500Y-144827677D02*
X147517500Y-144827677D01*
X137357500Y-144867677D02*
X147517500Y-144867677D01*
X139062500Y-149847323D02*
X140062500Y-149847323D01*
X139562500Y-150347323D02*
X139562500Y-149347323D01*
%TO.C,J1*%
X126707500Y-134870000D02*
X126767500Y-134870000D01*
X126767500Y-137530000D02*
X126767500Y-134870000D01*
X126707500Y-137530000D02*
X126707500Y-134870000D01*
X126707500Y-137530000D02*
X126767500Y-137530000D01*
X125437500Y-137530000D02*
X124107500Y-137530000D01*
X124107500Y-137530000D02*
X124107500Y-136200000D01*
%TO.C,QL1*%
X145635978Y-44961522D02*
G75*
G03*
X141197500Y-46800000I-1838478J-1838478D01*
G01*
X141197500Y-46800000D02*
G75*
G03*
X145635978Y-48638478I2600000J0D01*
G01*
X145647500Y-48600000D02*
X145647500Y-45000000D01*
%TO.C,LEDB1*%
X129532500Y-111800000D02*
G75*
G03*
X129532500Y-111800000I-2500000J0D01*
G01*
X124472500Y-113344830D02*
G75*
G03*
X130022500Y-111799538I2560000J1544830D01*
G01*
X130022499Y-111800462D02*
G75*
G03*
X124472501Y-110255170I-2989999J462D01*
G01*
X124472500Y-110255000D02*
X124472500Y-113345000D01*
%TO.C,Left/Mono1*%
X138400000Y-20417500D02*
X138400000Y-41007500D01*
X138400000Y-41007500D02*
X148780000Y-41007500D01*
X142100000Y-39947500D02*
X142100000Y-41007500D01*
X143230000Y-38597500D02*
X143230000Y-39797500D01*
X143230000Y-39167500D02*
X142130000Y-39167500D01*
X143230000Y-39797500D02*
X143930000Y-39797500D01*
X143930000Y-38597500D02*
X143230000Y-38597500D01*
X143930000Y-38997500D02*
X143230000Y-39397500D01*
X143930000Y-39167500D02*
X145030000Y-39167500D01*
X143930000Y-39797500D02*
X143930000Y-38597500D01*
X145100000Y-39947500D02*
X142100000Y-39947500D01*
X145100000Y-41007500D02*
X145100000Y-39967500D01*
X148780000Y-20417500D02*
X138400000Y-20417500D01*
X148780000Y-41007500D02*
X148780000Y-20417500D01*
X148940000Y-39857500D02*
X148940000Y-41157500D01*
X148940000Y-41157500D02*
X147730000Y-41157500D01*
%TO.C,C1*%
X147557500Y-56267677D02*
G75*
G03*
X147557500Y-56267677I-5120000J0D01*
G01*
X141838500Y-51186677D02*
X143036500Y-51186677D01*
X141575500Y-51226677D02*
X143299500Y-51226677D01*
X141375500Y-51266677D02*
X143499500Y-51266677D01*
X141207500Y-51306677D02*
X143667500Y-51306677D01*
X141059500Y-51346677D02*
X143815500Y-51346677D01*
X140927500Y-51386677D02*
X143947500Y-51386677D01*
X140807500Y-51426677D02*
X144067500Y-51426677D01*
X140695500Y-51466677D02*
X144179500Y-51466677D01*
X140591500Y-51506677D02*
X144283500Y-51506677D01*
X140493500Y-51546677D02*
X144381500Y-51546677D01*
X140400500Y-51586677D02*
X144474500Y-51586677D01*
X140312500Y-51626677D02*
X144562500Y-51626677D01*
X140228500Y-51666677D02*
X144646500Y-51666677D01*
X140148500Y-51706677D02*
X144726500Y-51706677D01*
X140072500Y-51746677D02*
X144802500Y-51746677D01*
X139998500Y-51786677D02*
X144876500Y-51786677D01*
X139927500Y-51826677D02*
X144947500Y-51826677D01*
X139858500Y-51866677D02*
X145016500Y-51866677D01*
X139792500Y-51906677D02*
X145082500Y-51906677D01*
X139728500Y-51946677D02*
X145146500Y-51946677D01*
X139667500Y-51986677D02*
X145207500Y-51986677D01*
X139607500Y-52026677D02*
X145267500Y-52026677D01*
X139548500Y-52066677D02*
X145326500Y-52066677D01*
X139492500Y-52106677D02*
X145382500Y-52106677D01*
X139437500Y-52146677D02*
X145437500Y-52146677D01*
X139383500Y-52186677D02*
X145491500Y-52186677D01*
X139331500Y-52226677D02*
X145543500Y-52226677D01*
X139281500Y-52266677D02*
X145593500Y-52266677D01*
X139231500Y-52306677D02*
X145643500Y-52306677D01*
X139183500Y-52346677D02*
X145691500Y-52346677D01*
X139136500Y-52386677D02*
X145738500Y-52386677D01*
X139090500Y-52426677D02*
X145784500Y-52426677D01*
X139045500Y-52466677D02*
X145829500Y-52466677D01*
X139001500Y-52506677D02*
X145873500Y-52506677D01*
X138959500Y-52546677D02*
X145915500Y-52546677D01*
X138917500Y-52586677D02*
X145957500Y-52586677D01*
X138876500Y-52626677D02*
X145998500Y-52626677D01*
X138836500Y-52666677D02*
X146038500Y-52666677D01*
X138797500Y-52706677D02*
X146077500Y-52706677D01*
X138758500Y-52746677D02*
X146116500Y-52746677D01*
X138721500Y-52786677D02*
X146153500Y-52786677D01*
X138684500Y-52826677D02*
X146190500Y-52826677D01*
X138648500Y-52866677D02*
X146226500Y-52866677D01*
X138613500Y-52906677D02*
X146261500Y-52906677D01*
X138579500Y-52946677D02*
X146295500Y-52946677D01*
X138545500Y-52986677D02*
X146329500Y-52986677D01*
X138512500Y-53026677D02*
X146362500Y-53026677D01*
X138480500Y-53066677D02*
X146394500Y-53066677D01*
X138448500Y-53106677D02*
X146426500Y-53106677D01*
X138417500Y-53146677D02*
X146457500Y-53146677D01*
X138387500Y-53186677D02*
X146487500Y-53186677D01*
X138357500Y-53226677D02*
X146517500Y-53226677D01*
X138327500Y-53266677D02*
X146547500Y-53266677D01*
X143678500Y-53306677D02*
X146575500Y-53306677D01*
X138299500Y-53306677D02*
X141196500Y-53306677D01*
X143678500Y-53346677D02*
X146603500Y-53346677D01*
X138271500Y-53346677D02*
X141196500Y-53346677D01*
X143678500Y-53386677D02*
X146631500Y-53386677D01*
X138243500Y-53386677D02*
X141196500Y-53386677D01*
X143678500Y-53426677D02*
X146658500Y-53426677D01*
X138216500Y-53426677D02*
X141196500Y-53426677D01*
X143678500Y-53466677D02*
X146684500Y-53466677D01*
X138190500Y-53466677D02*
X141196500Y-53466677D01*
X143678500Y-53506677D02*
X146710500Y-53506677D01*
X138164500Y-53506677D02*
X141196500Y-53506677D01*
X143678500Y-53546677D02*
X146735500Y-53546677D01*
X138139500Y-53546677D02*
X141196500Y-53546677D01*
X143678500Y-53586677D02*
X146760500Y-53586677D01*
X138114500Y-53586677D02*
X141196500Y-53586677D01*
X143678500Y-53626677D02*
X146784500Y-53626677D01*
X138090500Y-53626677D02*
X141196500Y-53626677D01*
X143678500Y-53666677D02*
X146808500Y-53666677D01*
X138066500Y-53666677D02*
X141196500Y-53666677D01*
X143678500Y-53706677D02*
X146832500Y-53706677D01*
X138042500Y-53706677D02*
X141196500Y-53706677D01*
X143678500Y-53746677D02*
X146854500Y-53746677D01*
X138020500Y-53746677D02*
X141196500Y-53746677D01*
X143678500Y-53786677D02*
X146877500Y-53786677D01*
X137997500Y-53786677D02*
X141196500Y-53786677D01*
X143678500Y-53826677D02*
X146899500Y-53826677D01*
X137975500Y-53826677D02*
X141196500Y-53826677D01*
X143678500Y-53866677D02*
X146920500Y-53866677D01*
X137954500Y-53866677D02*
X141196500Y-53866677D01*
X143678500Y-53906677D02*
X146941500Y-53906677D01*
X137933500Y-53906677D02*
X141196500Y-53906677D01*
X143678500Y-53946677D02*
X146962500Y-53946677D01*
X137912500Y-53946677D02*
X141196500Y-53946677D01*
X143678500Y-53986677D02*
X146982500Y-53986677D01*
X137892500Y-53986677D02*
X141196500Y-53986677D01*
X143678500Y-54026677D02*
X147001500Y-54026677D01*
X137873500Y-54026677D02*
X141196500Y-54026677D01*
X143678500Y-54066677D02*
X147021500Y-54066677D01*
X137853500Y-54066677D02*
X141196500Y-54066677D01*
X143678500Y-54106677D02*
X147040500Y-54106677D01*
X137834500Y-54106677D02*
X141196500Y-54106677D01*
X143678500Y-54146677D02*
X147058500Y-54146677D01*
X137816500Y-54146677D02*
X141196500Y-54146677D01*
X143678500Y-54186677D02*
X147076500Y-54186677D01*
X137798500Y-54186677D02*
X141196500Y-54186677D01*
X143678500Y-54226677D02*
X147094500Y-54226677D01*
X137780500Y-54226677D02*
X141196500Y-54226677D01*
X143678500Y-54266677D02*
X147111500Y-54266677D01*
X137763500Y-54266677D02*
X141196500Y-54266677D01*
X143678500Y-54306677D02*
X147127500Y-54306677D01*
X137747500Y-54306677D02*
X141196500Y-54306677D01*
X143678500Y-54346677D02*
X147144500Y-54346677D01*
X137730500Y-54346677D02*
X141196500Y-54346677D01*
X143678500Y-54386677D02*
X147160500Y-54386677D01*
X137714500Y-54386677D02*
X141196500Y-54386677D01*
X143678500Y-54426677D02*
X147175500Y-54426677D01*
X137699500Y-54426677D02*
X141196500Y-54426677D01*
X143678500Y-54466677D02*
X147191500Y-54466677D01*
X137683500Y-54466677D02*
X141196500Y-54466677D01*
X143678500Y-54506677D02*
X147205500Y-54506677D01*
X137669500Y-54506677D02*
X141196500Y-54506677D01*
X143678500Y-54546677D02*
X147220500Y-54546677D01*
X137654500Y-54546677D02*
X141196500Y-54546677D01*
X143678500Y-54586677D02*
X147234500Y-54586677D01*
X137640500Y-54586677D02*
X141196500Y-54586677D01*
X143678500Y-54626677D02*
X147248500Y-54626677D01*
X137626500Y-54626677D02*
X141196500Y-54626677D01*
X143678500Y-54666677D02*
X147261500Y-54666677D01*
X137613500Y-54666677D02*
X141196500Y-54666677D01*
X143678500Y-54706677D02*
X147274500Y-54706677D01*
X137600500Y-54706677D02*
X141196500Y-54706677D01*
X143678500Y-54746677D02*
X147287500Y-54746677D01*
X137587500Y-54746677D02*
X141196500Y-54746677D01*
X143678500Y-54786677D02*
X147299500Y-54786677D01*
X137575500Y-54786677D02*
X141196500Y-54786677D01*
X143678500Y-54826677D02*
X147311500Y-54826677D01*
X137563500Y-54826677D02*
X141196500Y-54826677D01*
X143678500Y-54866677D02*
X147322500Y-54866677D01*
X137552500Y-54866677D02*
X141196500Y-54866677D01*
X143678500Y-54906677D02*
X147334500Y-54906677D01*
X137540500Y-54906677D02*
X141196500Y-54906677D01*
X143678500Y-54946677D02*
X147344500Y-54946677D01*
X137530500Y-54946677D02*
X141196500Y-54946677D01*
X143678500Y-54986677D02*
X147355500Y-54986677D01*
X137519500Y-54986677D02*
X141196500Y-54986677D01*
X143678500Y-55026677D02*
X147365500Y-55026677D01*
X137509500Y-55026677D02*
X141196500Y-55026677D01*
X143678500Y-55066677D02*
X147375500Y-55066677D01*
X137499500Y-55066677D02*
X141196500Y-55066677D01*
X143678500Y-55106677D02*
X147384500Y-55106677D01*
X137490500Y-55106677D02*
X141196500Y-55106677D01*
X143678500Y-55146677D02*
X147393500Y-55146677D01*
X137481500Y-55146677D02*
X141196500Y-55146677D01*
X143678500Y-55186677D02*
X147402500Y-55186677D01*
X137472500Y-55186677D02*
X141196500Y-55186677D01*
X143678500Y-55226677D02*
X147411500Y-55226677D01*
X137463500Y-55226677D02*
X141196500Y-55226677D01*
X143678500Y-55266677D02*
X147419500Y-55266677D01*
X137455500Y-55266677D02*
X141196500Y-55266677D01*
X143678500Y-55306677D02*
X147427500Y-55306677D01*
X137447500Y-55306677D02*
X141196500Y-55306677D01*
X143678500Y-55346677D02*
X147434500Y-55346677D01*
X137440500Y-55346677D02*
X141196500Y-55346677D01*
X143678500Y-55386677D02*
X147441500Y-55386677D01*
X137433500Y-55386677D02*
X141196500Y-55386677D01*
X143678500Y-55426677D02*
X147448500Y-55426677D01*
X137426500Y-55426677D02*
X141196500Y-55426677D01*
X143678500Y-55466677D02*
X147455500Y-55466677D01*
X137419500Y-55466677D02*
X141196500Y-55466677D01*
X143678500Y-55506677D02*
X147461500Y-55506677D01*
X137413500Y-55506677D02*
X141196500Y-55506677D01*
X143678500Y-55546677D02*
X147467500Y-55546677D01*
X137407500Y-55546677D02*
X141196500Y-55546677D01*
X143678500Y-55587677D02*
X147472500Y-55587677D01*
X137402500Y-55587677D02*
X141196500Y-55587677D01*
X143678500Y-55627677D02*
X147477500Y-55627677D01*
X137397500Y-55627677D02*
X141196500Y-55627677D01*
X143678500Y-55667677D02*
X147482500Y-55667677D01*
X137392500Y-55667677D02*
X141196500Y-55667677D01*
X143678500Y-55707677D02*
X147487500Y-55707677D01*
X137387500Y-55707677D02*
X141196500Y-55707677D01*
X143678500Y-55747677D02*
X147491500Y-55747677D01*
X137383500Y-55747677D02*
X141196500Y-55747677D01*
X137379500Y-55787677D02*
X147495500Y-55787677D01*
X137375500Y-55827677D02*
X147499500Y-55827677D01*
X137372500Y-55867677D02*
X147502500Y-55867677D01*
X137369500Y-55907677D02*
X147505500Y-55907677D01*
X137367500Y-55947677D02*
X147507500Y-55947677D01*
X137364500Y-55987677D02*
X147510500Y-55987677D01*
X137362500Y-56027677D02*
X147512500Y-56027677D01*
X137360500Y-56067677D02*
X147514500Y-56067677D01*
X137359500Y-56107677D02*
X147515500Y-56107677D01*
X137358500Y-56147677D02*
X147516500Y-56147677D01*
X137357500Y-56187677D02*
X147517500Y-56187677D01*
X137357500Y-56227677D02*
X147517500Y-56227677D01*
X137357500Y-56267677D02*
X147517500Y-56267677D01*
X139062500Y-61247323D02*
X140062500Y-61247323D01*
X139562500Y-61747323D02*
X139562500Y-60747323D01*
%TO.C,RLed1*%
X126367500Y-115430000D02*
X126367500Y-115760000D01*
X126367500Y-118170000D02*
X126367500Y-117840000D01*
X132907500Y-115430000D02*
X126367500Y-115430000D01*
X132907500Y-115760000D02*
X132907500Y-115430000D01*
X132907500Y-117840000D02*
X132907500Y-118170000D01*
X132907500Y-118170000D02*
X126367500Y-118170000D01*
%TO.C,RPD1*%
X130167500Y-87130000D02*
X130167500Y-87460000D01*
X130167500Y-89870000D02*
X130167500Y-89540000D01*
X136707500Y-87130000D02*
X130167500Y-87130000D01*
X136707500Y-87460000D02*
X136707500Y-87130000D01*
X136707500Y-89540000D02*
X136707500Y-89870000D01*
X136707500Y-89870000D02*
X130167500Y-89870000D01*
%TO.C,Left/Mono1*%
X138400000Y-109017500D02*
X138400000Y-129607500D01*
X138400000Y-129607500D02*
X148780000Y-129607500D01*
X142100000Y-128547500D02*
X142100000Y-129607500D01*
X143230000Y-127197500D02*
X143230000Y-128397500D01*
X143230000Y-127767500D02*
X142130000Y-127767500D01*
X143230000Y-128397500D02*
X143930000Y-128397500D01*
X143930000Y-127197500D02*
X143230000Y-127197500D01*
X143930000Y-127597500D02*
X143230000Y-127997500D01*
X143930000Y-127767500D02*
X145030000Y-127767500D01*
X143930000Y-128397500D02*
X143930000Y-127197500D01*
X145100000Y-128547500D02*
X142100000Y-128547500D01*
X145100000Y-129607500D02*
X145100000Y-128567500D01*
X148780000Y-109017500D02*
X138400000Y-109017500D01*
X148780000Y-129607500D02*
X148780000Y-109017500D01*
X148940000Y-128457500D02*
X148940000Y-129757500D01*
X148940000Y-129757500D02*
X147730000Y-129757500D01*
%TO.C,LEDB1*%
X129532500Y-67500000D02*
G75*
G03*
X129532500Y-67500000I-2500000J0D01*
G01*
X124472500Y-69044830D02*
G75*
G03*
X130022500Y-67499538I2560000J1544830D01*
G01*
X130022499Y-67500462D02*
G75*
G03*
X124472501Y-65955170I-2989999J462D01*
G01*
X124472500Y-65955000D02*
X124472500Y-69045000D01*
%TD*%
M02*
