%TF.GenerationSoftware,KiCad,Pcbnew,7.0.9*%
%TF.CreationDate,2024-06-08T14:56:11-04:00*%
%TF.ProjectId,IO-Panel,494f2d50-616e-4656-9c2e-6b696361645f,rev?*%
%TF.SameCoordinates,Original*%
%TF.FileFunction,Profile,NP*%
%FSLAX46Y46*%
G04 Gerber Fmt 4.6, Leading zero omitted, Abs format (unit mm)*
G04 Created by KiCad (PCBNEW 7.0.9) date 2024-06-08 14:56:11*
%MOMM*%
%LPD*%
G01*
G04 APERTURE LIST*
%TA.AperFunction,Profile*%
%ADD10C,0.100000*%
%TD*%
G04 APERTURE END LIST*
D10*
X144827500Y-108600000D02*
X144827500Y-107601000D01*
X134482500Y-107599000D02*
X134482500Y-106600000D01*
X162517500Y-63301500D02*
X162517500Y-64300000D01*
X165517500Y-107599000D02*
X165517500Y-106600000D01*
X155172500Y-106600000D02*
X162517500Y-106600000D01*
X174362500Y-106600000D02*
X174362500Y-64300000D01*
X134482500Y-106600000D02*
X141827500Y-106600000D01*
X122637500Y-64300000D02*
X122637500Y-106600000D01*
X144827500Y-63299500D02*
X144827500Y-62300000D01*
X131482500Y-63299500D02*
X131482500Y-63301500D01*
X144827500Y-62300000D02*
X152172500Y-62300000D01*
X131482500Y-108600000D02*
X122637500Y-108600000D01*
X174362500Y-62300000D02*
X174362500Y-20000000D01*
X141827500Y-107601000D02*
X141827500Y-108600000D01*
X155172500Y-107601000D02*
X155172500Y-107599000D01*
X174362500Y-150900000D02*
X174362500Y-108600000D01*
X141827500Y-107599000D02*
X141827500Y-107601000D01*
X174362500Y-20000000D02*
X122637500Y-20000000D01*
X131482500Y-62300000D02*
X131482500Y-63299500D01*
X144827500Y-107599000D02*
X144827500Y-106600000D01*
X144827500Y-63301500D02*
X144827500Y-63299500D01*
X152172500Y-63299500D02*
X152172500Y-63301500D01*
X131482500Y-63301500D02*
X131482500Y-64300000D01*
X144827500Y-64300000D02*
X144827500Y-63301500D01*
X144827500Y-106600000D02*
X152172500Y-106600000D01*
X122637500Y-150900000D02*
X174362500Y-150900000D01*
X155172500Y-63301500D02*
X155172500Y-63299500D01*
X162517500Y-64300000D02*
X155172500Y-64300000D01*
X152172500Y-62300000D02*
X152172500Y-63299500D01*
X152172500Y-107599000D02*
X152172500Y-107601000D01*
X134482500Y-62300000D02*
X141827500Y-62300000D01*
X165517500Y-63301500D02*
X165517500Y-63299500D01*
X141827500Y-64300000D02*
X134482500Y-64300000D01*
X174362500Y-64300000D02*
X165517500Y-64300000D01*
X141827500Y-63301500D02*
X141827500Y-64300000D01*
X131482500Y-64300000D02*
X122637500Y-64300000D01*
X155172500Y-62300000D02*
X162517500Y-62300000D01*
X134482500Y-63301500D02*
X134482500Y-63299500D01*
X131482500Y-106600000D02*
X131482500Y-107599000D01*
X134482500Y-63299500D02*
X134482500Y-62300000D01*
X155172500Y-108600000D02*
X155172500Y-107601000D01*
X152172500Y-107601000D02*
X152172500Y-108600000D01*
X165517500Y-64300000D02*
X165517500Y-63301500D01*
X122637500Y-106600000D02*
X131482500Y-106600000D01*
X162517500Y-106600000D02*
X162517500Y-107599000D01*
X141827500Y-62300000D02*
X141827500Y-63299500D01*
X152172500Y-64300000D02*
X144827500Y-64300000D01*
X141827500Y-106600000D02*
X141827500Y-107599000D01*
X131482500Y-107601000D02*
X131482500Y-108600000D01*
X165517500Y-62300000D02*
X174362500Y-62300000D01*
X155172500Y-64300000D02*
X155172500Y-63301500D01*
X162517500Y-108600000D02*
X155172500Y-108600000D01*
X152172500Y-106600000D02*
X152172500Y-107599000D01*
X162517500Y-62300000D02*
X162517500Y-63299500D01*
X122637500Y-62300000D02*
X131482500Y-62300000D01*
X134482500Y-64300000D02*
X134482500Y-63301500D01*
X152172500Y-63301500D02*
X152172500Y-64300000D01*
X162517500Y-63299500D02*
X162517500Y-63301500D01*
X141827500Y-108600000D02*
X134482500Y-108600000D01*
X162517500Y-107599000D02*
X162517500Y-107601000D01*
X165517500Y-63299500D02*
X165517500Y-62300000D01*
X165517500Y-106600000D02*
X174362500Y-106600000D01*
X174362500Y-108600000D02*
X165517500Y-108600000D01*
X134482500Y-108600000D02*
X134482500Y-107601000D01*
X165517500Y-107601000D02*
X165517500Y-107599000D01*
X134482500Y-107601000D02*
X134482500Y-107599000D01*
X165517500Y-108600000D02*
X165517500Y-107601000D01*
X131482500Y-107599000D02*
X131482500Y-107601000D01*
X122637500Y-20000000D02*
X122637500Y-62300000D01*
X162517500Y-107601000D02*
X162517500Y-108600000D01*
X122637500Y-108600000D02*
X122637500Y-150900000D01*
X152172500Y-108600000D02*
X144827500Y-108600000D01*
X141827500Y-63299500D02*
X141827500Y-63301500D01*
X144827500Y-107601000D02*
X144827500Y-107599000D01*
X155172500Y-107599000D02*
X155172500Y-106600000D01*
X155172500Y-63299500D02*
X155172500Y-62300000D01*
M02*
