M48
; DRILL file {KiCad 7.0.9} date Sat Jun  8 14:56:08 2024
; FORMAT={-:-/ absolute / inch / decimal}
; #@! TF.CreationDate,2024-06-08T14:56:08-04:00
; #@! TF.GenerationSoftware,Kicad,Pcbnew,7.0.9
; #@! TF.FileFunction,Plated,1,2,PTH
FMAT,2
INCH
; #@! TA.AperFunction,Plated,PTH,ComponentDrill
T1C0.0276
; #@! TA.AperFunction,Plated,PTH,ComponentDrill
T2C0.0295
; #@! TA.AperFunction,Plated,PTH,ComponentDrill
T3C0.0315
; #@! TA.AperFunction,Plated,PTH,ComponentDrill
T4C0.0354
; #@! TA.AperFunction,Plated,PTH,ComponentDrill
T5C0.0394
; #@! TA.AperFunction,Plated,PTH,ComponentDrill
T6C0.0433
; #@! TA.AperFunction,Plated,PTH,ComponentDrill
T7C0.0551
%
G90
G05
T1
X5.5031Y-0.8594
X5.5031Y-1.0594
X5.5031Y-1.2594
X5.5031Y-1.5594
X5.5031Y-2.6034
X5.5031Y-2.8034
X5.5031Y-3.0034
X5.5031Y-3.3034
X5.5031Y-4.3475
X5.5031Y-4.5475
X5.5031Y-4.7475
X5.5031Y-5.0475
X5.8031Y-0.8594
X5.8031Y-1.0594
X5.8031Y-1.2594
X5.8031Y-1.5594
X5.8031Y-2.6034
X5.8031Y-2.8034
X5.8031Y-3.0034
X5.8031Y-3.3034
X5.8031Y-4.3475
X5.8031Y-4.5475
X5.8031Y-4.7475
X5.8031Y-5.0475
T2
X5.6613Y-1.7925
X5.6613Y-1.8425
X5.6613Y-1.8925
X5.6613Y-3.5366
X5.6613Y-3.5866
X5.6613Y-3.6366
X5.6613Y-5.2807
X5.6613Y-5.3307
X5.6613Y-5.3807
T3
X4.9538Y-1.1102
X4.9538Y-1.2362
X4.9538Y-2.8543
X4.9538Y-2.9803
X4.9538Y-4.5984
X4.9538Y-4.7244
X5.1034Y-1.7402
X5.1034Y-1.8819
X5.1034Y-3.4843
X5.1034Y-3.626
X5.1034Y-5.2283
X5.1034Y-5.3701
X5.2538Y-1.1102
X5.2538Y-1.2362
X5.2538Y-2.8543
X5.2538Y-2.9803
X5.2538Y-4.5984
X5.2538Y-4.7244
X5.4034Y-1.7402
X5.4034Y-1.8819
X5.4034Y-3.4843
X5.4034Y-3.626
X5.4034Y-5.2283
X5.4034Y-5.3701
T4
X4.9513Y-0.9134
X4.9513Y-2.6575
X4.9513Y-4.4016
X5.0513Y-0.9134
X5.0513Y-2.6575
X5.0513Y-4.4016
X5.2509Y-0.9134
X5.2509Y-2.6575
X5.2509Y-4.4016
X5.3509Y-0.9134
X5.3509Y-2.6575
X5.3509Y-4.4016
T5
X4.9306Y-2.1654
X4.9306Y-2.3425
X4.9306Y-3.9094
X4.9306Y-4.0866
X4.9306Y-5.6535
X4.9306Y-5.8307
X4.9385Y-1.3876
X4.9385Y-1.4876
X4.9385Y-1.5876
X4.9385Y-1.874
X4.9385Y-3.1317
X4.9385Y-3.2317
X4.9385Y-3.3317
X4.9385Y-3.6181
X4.9385Y-4.8758
X4.9385Y-4.9758
X4.9385Y-5.0758
X4.9385Y-5.3622
X5.0306Y-2.1654
X5.0306Y-2.3425
X5.0306Y-3.9094
X5.0306Y-4.0866
X5.0306Y-5.6535
X5.0306Y-5.8307
X5.6078Y-2.1464
X5.6078Y-2.2842
X5.6078Y-3.8905
X5.6078Y-4.0283
X5.6078Y-5.6346
X5.6078Y-5.7723
X6.3818Y-1.9843
X6.3818Y-3.7283
X6.3818Y-5.4724
X6.3952Y-1.1811
X6.3952Y-2.9252
X6.3952Y-4.6693
X6.4818Y-1.9843
X6.4818Y-3.7283
X6.4818Y-5.4724
X6.4952Y-1.1811
X6.4952Y-2.9252
X6.4952Y-4.6693
X6.5818Y-1.9843
X6.5818Y-3.7283
X6.5818Y-5.4724
X6.5952Y-1.1811
X6.5952Y-2.9252
X6.5952Y-4.6693
T6
X5.2828Y-2.1126
X5.2828Y-2.2126
X5.2828Y-2.3126
X5.2828Y-3.8567
X5.2828Y-3.9567
X5.2828Y-4.0567
X5.2828Y-5.6008
X5.2828Y-5.7008
X5.2828Y-5.8008
T7
X6.2406Y-0.8813
X6.2406Y-1.5203
X6.2406Y-1.6982
X6.2406Y-2.3372
X6.2406Y-2.6254
X6.2406Y-3.2644
X6.2406Y-3.4423
X6.2406Y-4.0813
X6.2406Y-4.3695
X6.2406Y-5.0085
X6.2406Y-5.1864
X6.2406Y-5.8254
X6.4906Y-0.8813
X6.4906Y-1.5203
X6.4906Y-1.6982
X6.4906Y-2.3372
X6.4906Y-2.6254
X6.4906Y-3.2644
X6.4906Y-3.4423
X6.4906Y-4.0813
X6.4906Y-4.3695
X6.4906Y-5.0085
X6.4906Y-5.1864
X6.4906Y-5.8254
X6.7406Y-0.8813
X6.7406Y-1.5203
X6.7406Y-1.6982
X6.7406Y-2.3372
X6.7406Y-2.6254
X6.7406Y-3.2644
X6.7406Y-3.4423
X6.7406Y-4.0813
X6.7406Y-4.3695
X6.7406Y-5.0085
X6.7406Y-5.1864
X6.7406Y-5.8254
T0
M30
