M48
; DRILL file {KiCad 7.0.9} date Sat Jun  8 14:56:08 2024
; FORMAT={-:-/ absolute / inch / decimal}
; #@! TF.CreationDate,2024-06-08T14:56:08-04:00
; #@! TF.GenerationSoftware,Kicad,Pcbnew,7.0.9
; #@! TF.FileFunction,NonPlated,1,2,NPTH
FMAT,2
INCH
; #@! TA.AperFunction,NonPlated,NPTH,ComponentDrill
T1C0.0197
%
G90
G05
T1
X5.1765Y-2.4528
X5.1765Y-2.5315
X5.1765Y-4.1969
X5.1765Y-4.2756
X5.2158Y-2.4528
X5.2158Y-2.5315
X5.2158Y-4.1969
X5.2158Y-4.2756
X5.2552Y-2.4528
X5.2552Y-2.5315
X5.2552Y-4.1969
X5.2552Y-4.2756
X5.2946Y-2.4528
X5.2946Y-2.5315
X5.2946Y-4.1969
X5.2946Y-4.2756
X5.5838Y-2.4528
X5.5838Y-2.5315
X5.5838Y-4.1969
X5.5838Y-4.2756
X5.6231Y-2.4528
X5.6231Y-2.5315
X5.6231Y-4.1969
X5.6231Y-4.2756
X5.6625Y-2.4528
X5.6625Y-2.5315
X5.6625Y-4.1969
X5.6625Y-4.2756
X5.7019Y-2.4528
X5.7019Y-2.5315
X5.7019Y-4.1969
X5.7019Y-4.2756
X5.991Y-2.4528
X5.991Y-2.5315
X5.991Y-4.1969
X5.991Y-4.2756
X6.0304Y-2.4528
X6.0304Y-2.5315
X6.0304Y-4.1969
X6.0304Y-4.2756
X6.0698Y-2.4528
X6.0698Y-2.5315
X6.0698Y-4.1969
X6.0698Y-4.2756
X6.1092Y-2.4528
X6.1092Y-2.5315
X6.1092Y-4.1969
X6.1092Y-4.2756
X6.3983Y-2.4528
X6.3983Y-2.5315
X6.3983Y-4.1969
X6.3983Y-4.2756
X6.4377Y-2.4528
X6.4377Y-2.5315
X6.4377Y-4.1969
X6.4377Y-4.2756
X6.4771Y-2.4528
X6.4771Y-2.5315
X6.4771Y-4.1969
X6.4771Y-4.2756
X6.5164Y-2.4528
X6.5164Y-2.5315
X6.5164Y-4.1969
X6.5164Y-4.2756
T0
M30
