%TF.GenerationSoftware,KiCad,Pcbnew,7.0.9*%
%TF.CreationDate,2024-06-08T14:56:09-04:00*%
%TF.ProjectId,IO-Panel,494f2d50-616e-4656-9c2e-6b696361645f,rev?*%
%TF.SameCoordinates,Original*%
%TF.FileFunction,Drillmap*%
%TF.FilePolarity,Positive*%
%FSLAX45Y45*%
G04 Gerber Fmt 4.5, Leading zero omitted, Abs format (unit mm)*
G04 Created by KiCad (PCBNEW 7.0.9) date 2024-06-08 14:56:09*
%MOMM*%
%LPD*%
G01*
G04 APERTURE LIST*
%ADD10C,0.100000*%
%ADD11C,0.200000*%
G04 APERTURE END LIST*
D10*
X14482750Y-10860000D02*
X14482750Y-10760100D01*
X13448250Y-10759900D02*
X13448250Y-10660000D01*
X16251750Y-6330150D02*
X16251750Y-6430000D01*
X16551750Y-10759900D02*
X16551750Y-10660000D01*
X15517250Y-10660000D02*
X16251750Y-10660000D01*
X17436250Y-10660000D02*
X17436250Y-6430000D01*
X13448250Y-10660000D02*
X14182750Y-10660000D01*
X12263750Y-6430000D02*
X12263750Y-10660000D01*
X14482750Y-6329950D02*
X14482750Y-6230000D01*
X13148250Y-6329950D02*
X13148250Y-6330150D01*
X14482750Y-6230000D02*
X15217250Y-6230000D01*
X13148250Y-10860000D02*
X12263750Y-10860000D01*
X17436250Y-6230000D02*
X17436250Y-2000000D01*
X14182750Y-10760100D02*
X14182750Y-10860000D01*
X15517250Y-10760100D02*
X15517250Y-10759900D01*
X17436250Y-15090000D02*
X17436250Y-10860000D01*
X14182750Y-10759900D02*
X14182750Y-10760100D01*
X17436250Y-2000000D02*
X12263750Y-2000000D01*
X13148250Y-6230000D02*
X13148250Y-6329950D01*
X14482750Y-10759900D02*
X14482750Y-10660000D01*
X14482750Y-6330150D02*
X14482750Y-6329950D01*
X15217250Y-6329950D02*
X15217250Y-6330150D01*
X13148250Y-6330150D02*
X13148250Y-6430000D01*
X14482750Y-6430000D02*
X14482750Y-6330150D01*
X14482750Y-10660000D02*
X15217250Y-10660000D01*
X12263750Y-15090000D02*
X17436250Y-15090000D01*
X15517250Y-6330150D02*
X15517250Y-6329950D01*
X16251750Y-6430000D02*
X15517250Y-6430000D01*
X15217250Y-6230000D02*
X15217250Y-6329950D01*
X15217250Y-10759900D02*
X15217250Y-10760100D01*
X13448250Y-6230000D02*
X14182750Y-6230000D01*
X16551750Y-6330150D02*
X16551750Y-6329950D01*
X14182750Y-6430000D02*
X13448250Y-6430000D01*
X17436250Y-6430000D02*
X16551750Y-6430000D01*
X14182750Y-6330150D02*
X14182750Y-6430000D01*
X13148250Y-6430000D02*
X12263750Y-6430000D01*
X15517250Y-6230000D02*
X16251750Y-6230000D01*
X13448250Y-6330150D02*
X13448250Y-6329950D01*
X13148250Y-10660000D02*
X13148250Y-10759900D01*
X13448250Y-6329950D02*
X13448250Y-6230000D01*
X15517250Y-10860000D02*
X15517250Y-10760100D01*
X15217250Y-10760100D02*
X15217250Y-10860000D01*
X16551750Y-6430000D02*
X16551750Y-6330150D01*
X12263750Y-10660000D02*
X13148250Y-10660000D01*
X16251750Y-10660000D02*
X16251750Y-10759900D01*
X14182750Y-6230000D02*
X14182750Y-6329950D01*
X15217250Y-6430000D02*
X14482750Y-6430000D01*
X14182750Y-10660000D02*
X14182750Y-10759900D01*
X13148250Y-10760100D02*
X13148250Y-10860000D01*
X16551750Y-6230000D02*
X17436250Y-6230000D01*
X15517250Y-6430000D02*
X15517250Y-6330150D01*
X16251750Y-10860000D02*
X15517250Y-10860000D01*
X15217250Y-10660000D02*
X15217250Y-10759900D01*
X16251750Y-6230000D02*
X16251750Y-6329950D01*
X12263750Y-6230000D02*
X13148250Y-6230000D01*
X13448250Y-6430000D02*
X13448250Y-6330150D01*
X15217250Y-6330150D02*
X15217250Y-6430000D01*
X16251750Y-6329950D02*
X16251750Y-6330150D01*
X14182750Y-10860000D02*
X13448250Y-10860000D01*
X16251750Y-10759900D02*
X16251750Y-10760100D01*
X16551750Y-6329950D02*
X16551750Y-6230000D01*
X16551750Y-10660000D02*
X17436250Y-10660000D01*
X17436250Y-10860000D02*
X16551750Y-10860000D01*
X13448250Y-10860000D02*
X13448250Y-10760100D01*
X16551750Y-10760100D02*
X16551750Y-10759900D01*
X13448250Y-10760100D02*
X13448250Y-10759900D01*
X16551750Y-10860000D02*
X16551750Y-10760100D01*
X13148250Y-10759900D02*
X13148250Y-10760100D01*
X12263750Y-2000000D02*
X12263750Y-6230000D01*
X16251750Y-10760100D02*
X16251750Y-10860000D01*
X12263750Y-10860000D02*
X12263750Y-15090000D01*
X15217250Y-10860000D02*
X14482750Y-10860000D01*
X14182750Y-6329950D02*
X14182750Y-6330150D01*
X14482750Y-10760100D02*
X14482750Y-10759900D01*
X15517250Y-10759900D02*
X15517250Y-10660000D01*
X15517250Y-6329950D02*
X15517250Y-6230000D01*
D11*
D10*
X13123250Y-6205000D02*
X13173250Y-6255000D01*
X13173250Y-6205000D02*
X13123250Y-6255000D01*
X13123250Y-6405000D02*
X13173250Y-6455000D01*
X13173250Y-6405000D02*
X13123250Y-6455000D01*
X13123250Y-10635000D02*
X13173250Y-10685000D01*
X13173250Y-10635000D02*
X13123250Y-10685000D01*
X13123250Y-10835000D02*
X13173250Y-10885000D01*
X13173250Y-10835000D02*
X13123250Y-10885000D01*
X13223250Y-6205000D02*
X13273250Y-6255000D01*
X13273250Y-6205000D02*
X13223250Y-6255000D01*
X13223250Y-6405000D02*
X13273250Y-6455000D01*
X13273250Y-6405000D02*
X13223250Y-6455000D01*
X13223250Y-10635000D02*
X13273250Y-10685000D01*
X13273250Y-10635000D02*
X13223250Y-10685000D01*
X13223250Y-10835000D02*
X13273250Y-10885000D01*
X13273250Y-10835000D02*
X13223250Y-10885000D01*
X13323250Y-6205000D02*
X13373250Y-6255000D01*
X13373250Y-6205000D02*
X13323250Y-6255000D01*
X13323250Y-6405000D02*
X13373250Y-6455000D01*
X13373250Y-6405000D02*
X13323250Y-6455000D01*
X13323250Y-10635000D02*
X13373250Y-10685000D01*
X13373250Y-10635000D02*
X13323250Y-10685000D01*
X13323250Y-10835000D02*
X13373250Y-10885000D01*
X13373250Y-10835000D02*
X13323250Y-10885000D01*
X13423250Y-6205000D02*
X13473250Y-6255000D01*
X13473250Y-6205000D02*
X13423250Y-6255000D01*
X13423250Y-6405000D02*
X13473250Y-6455000D01*
X13473250Y-6405000D02*
X13423250Y-6455000D01*
X13423250Y-10635000D02*
X13473250Y-10685000D01*
X13473250Y-10635000D02*
X13423250Y-10685000D01*
X13423250Y-10835000D02*
X13473250Y-10885000D01*
X13473250Y-10835000D02*
X13423250Y-10885000D01*
X14157750Y-6205000D02*
X14207750Y-6255000D01*
X14207750Y-6205000D02*
X14157750Y-6255000D01*
X14157750Y-6405000D02*
X14207750Y-6455000D01*
X14207750Y-6405000D02*
X14157750Y-6455000D01*
X14157750Y-10635000D02*
X14207750Y-10685000D01*
X14207750Y-10635000D02*
X14157750Y-10685000D01*
X14157750Y-10835000D02*
X14207750Y-10885000D01*
X14207750Y-10835000D02*
X14157750Y-10885000D01*
X14257750Y-6205000D02*
X14307750Y-6255000D01*
X14307750Y-6205000D02*
X14257750Y-6255000D01*
X14257750Y-6405000D02*
X14307750Y-6455000D01*
X14307750Y-6405000D02*
X14257750Y-6455000D01*
X14257750Y-10635000D02*
X14307750Y-10685000D01*
X14307750Y-10635000D02*
X14257750Y-10685000D01*
X14257750Y-10835000D02*
X14307750Y-10885000D01*
X14307750Y-10835000D02*
X14257750Y-10885000D01*
X14357750Y-6205000D02*
X14407750Y-6255000D01*
X14407750Y-6205000D02*
X14357750Y-6255000D01*
X14357750Y-6405000D02*
X14407750Y-6455000D01*
X14407750Y-6405000D02*
X14357750Y-6455000D01*
X14357750Y-10635000D02*
X14407750Y-10685000D01*
X14407750Y-10635000D02*
X14357750Y-10685000D01*
X14357750Y-10835000D02*
X14407750Y-10885000D01*
X14407750Y-10835000D02*
X14357750Y-10885000D01*
X14457750Y-6205000D02*
X14507750Y-6255000D01*
X14507750Y-6205000D02*
X14457750Y-6255000D01*
X14457750Y-6405000D02*
X14507750Y-6455000D01*
X14507750Y-6405000D02*
X14457750Y-6455000D01*
X14457750Y-10635000D02*
X14507750Y-10685000D01*
X14507750Y-10635000D02*
X14457750Y-10685000D01*
X14457750Y-10835000D02*
X14507750Y-10885000D01*
X14507750Y-10835000D02*
X14457750Y-10885000D01*
X15192250Y-6205000D02*
X15242250Y-6255000D01*
X15242250Y-6205000D02*
X15192250Y-6255000D01*
X15192250Y-6405000D02*
X15242250Y-6455000D01*
X15242250Y-6405000D02*
X15192250Y-6455000D01*
X15192250Y-10635000D02*
X15242250Y-10685000D01*
X15242250Y-10635000D02*
X15192250Y-10685000D01*
X15192250Y-10835000D02*
X15242250Y-10885000D01*
X15242250Y-10835000D02*
X15192250Y-10885000D01*
X15292250Y-6205000D02*
X15342250Y-6255000D01*
X15342250Y-6205000D02*
X15292250Y-6255000D01*
X15292250Y-6405000D02*
X15342250Y-6455000D01*
X15342250Y-6405000D02*
X15292250Y-6455000D01*
X15292250Y-10635000D02*
X15342250Y-10685000D01*
X15342250Y-10635000D02*
X15292250Y-10685000D01*
X15292250Y-10835000D02*
X15342250Y-10885000D01*
X15342250Y-10835000D02*
X15292250Y-10885000D01*
X15392250Y-6205000D02*
X15442250Y-6255000D01*
X15442250Y-6205000D02*
X15392250Y-6255000D01*
X15392250Y-6405000D02*
X15442250Y-6455000D01*
X15442250Y-6405000D02*
X15392250Y-6455000D01*
X15392250Y-10635000D02*
X15442250Y-10685000D01*
X15442250Y-10635000D02*
X15392250Y-10685000D01*
X15392250Y-10835000D02*
X15442250Y-10885000D01*
X15442250Y-10835000D02*
X15392250Y-10885000D01*
X15492250Y-6205000D02*
X15542250Y-6255000D01*
X15542250Y-6205000D02*
X15492250Y-6255000D01*
X15492250Y-6405000D02*
X15542250Y-6455000D01*
X15542250Y-6405000D02*
X15492250Y-6455000D01*
X15492250Y-10635000D02*
X15542250Y-10685000D01*
X15542250Y-10635000D02*
X15492250Y-10685000D01*
X15492250Y-10835000D02*
X15542250Y-10885000D01*
X15542250Y-10835000D02*
X15492250Y-10885000D01*
X16226750Y-6205000D02*
X16276750Y-6255000D01*
X16276750Y-6205000D02*
X16226750Y-6255000D01*
X16226750Y-6405000D02*
X16276750Y-6455000D01*
X16276750Y-6405000D02*
X16226750Y-6455000D01*
X16226750Y-10635000D02*
X16276750Y-10685000D01*
X16276750Y-10635000D02*
X16226750Y-10685000D01*
X16226750Y-10835000D02*
X16276750Y-10885000D01*
X16276750Y-10835000D02*
X16226750Y-10885000D01*
X16326750Y-6205000D02*
X16376750Y-6255000D01*
X16376750Y-6205000D02*
X16326750Y-6255000D01*
X16326750Y-6405000D02*
X16376750Y-6455000D01*
X16376750Y-6405000D02*
X16326750Y-6455000D01*
X16326750Y-10635000D02*
X16376750Y-10685000D01*
X16376750Y-10635000D02*
X16326750Y-10685000D01*
X16326750Y-10835000D02*
X16376750Y-10885000D01*
X16376750Y-10835000D02*
X16326750Y-10885000D01*
X16426750Y-6205000D02*
X16476750Y-6255000D01*
X16476750Y-6205000D02*
X16426750Y-6255000D01*
X16426750Y-6405000D02*
X16476750Y-6455000D01*
X16476750Y-6405000D02*
X16426750Y-6455000D01*
X16426750Y-10635000D02*
X16476750Y-10685000D01*
X16476750Y-10635000D02*
X16426750Y-10685000D01*
X16426750Y-10835000D02*
X16476750Y-10885000D01*
X16476750Y-10835000D02*
X16426750Y-10885000D01*
X16526750Y-6205000D02*
X16576750Y-6255000D01*
X16576750Y-6205000D02*
X16526750Y-6255000D01*
X16526750Y-6405000D02*
X16576750Y-6455000D01*
X16576750Y-6405000D02*
X16526750Y-6455000D01*
X16526750Y-10635000D02*
X16576750Y-10685000D01*
X16576750Y-10635000D02*
X16526750Y-10685000D01*
X16526750Y-10835000D02*
X16576750Y-10885000D01*
X16576750Y-10835000D02*
X16526750Y-10885000D01*
D11*
X12519527Y-15406484D02*
X12519527Y-15206484D01*
X12519527Y-15206484D02*
X12567146Y-15206484D01*
X12567146Y-15206484D02*
X12595717Y-15216008D01*
X12595717Y-15216008D02*
X12614765Y-15235055D01*
X12614765Y-15235055D02*
X12624289Y-15254103D01*
X12624289Y-15254103D02*
X12633812Y-15292198D01*
X12633812Y-15292198D02*
X12633812Y-15320769D01*
X12633812Y-15320769D02*
X12624289Y-15358865D01*
X12624289Y-15358865D02*
X12614765Y-15377912D01*
X12614765Y-15377912D02*
X12595717Y-15396960D01*
X12595717Y-15396960D02*
X12567146Y-15406484D01*
X12567146Y-15406484D02*
X12519527Y-15406484D01*
X12719527Y-15406484D02*
X12719527Y-15273150D01*
X12719527Y-15311246D02*
X12729051Y-15292198D01*
X12729051Y-15292198D02*
X12738574Y-15282674D01*
X12738574Y-15282674D02*
X12757622Y-15273150D01*
X12757622Y-15273150D02*
X12776670Y-15273150D01*
X12843336Y-15406484D02*
X12843336Y-15273150D01*
X12843336Y-15206484D02*
X12833812Y-15216008D01*
X12833812Y-15216008D02*
X12843336Y-15225531D01*
X12843336Y-15225531D02*
X12852860Y-15216008D01*
X12852860Y-15216008D02*
X12843336Y-15206484D01*
X12843336Y-15206484D02*
X12843336Y-15225531D01*
X12967146Y-15406484D02*
X12948098Y-15396960D01*
X12948098Y-15396960D02*
X12938574Y-15377912D01*
X12938574Y-15377912D02*
X12938574Y-15206484D01*
X13071908Y-15406484D02*
X13052860Y-15396960D01*
X13052860Y-15396960D02*
X13043336Y-15377912D01*
X13043336Y-15377912D02*
X13043336Y-15206484D01*
X13300479Y-15406484D02*
X13300479Y-15206484D01*
X13300479Y-15206484D02*
X13367146Y-15349341D01*
X13367146Y-15349341D02*
X13433812Y-15206484D01*
X13433812Y-15206484D02*
X13433812Y-15406484D01*
X13614765Y-15406484D02*
X13614765Y-15301722D01*
X13614765Y-15301722D02*
X13605241Y-15282674D01*
X13605241Y-15282674D02*
X13586193Y-15273150D01*
X13586193Y-15273150D02*
X13548098Y-15273150D01*
X13548098Y-15273150D02*
X13529051Y-15282674D01*
X13614765Y-15396960D02*
X13595717Y-15406484D01*
X13595717Y-15406484D02*
X13548098Y-15406484D01*
X13548098Y-15406484D02*
X13529051Y-15396960D01*
X13529051Y-15396960D02*
X13519527Y-15377912D01*
X13519527Y-15377912D02*
X13519527Y-15358865D01*
X13519527Y-15358865D02*
X13529051Y-15339817D01*
X13529051Y-15339817D02*
X13548098Y-15330293D01*
X13548098Y-15330293D02*
X13595717Y-15330293D01*
X13595717Y-15330293D02*
X13614765Y-15320769D01*
X13710003Y-15273150D02*
X13710003Y-15473150D01*
X13710003Y-15282674D02*
X13729051Y-15273150D01*
X13729051Y-15273150D02*
X13767146Y-15273150D01*
X13767146Y-15273150D02*
X13786193Y-15282674D01*
X13786193Y-15282674D02*
X13795717Y-15292198D01*
X13795717Y-15292198D02*
X13805241Y-15311246D01*
X13805241Y-15311246D02*
X13805241Y-15368388D01*
X13805241Y-15368388D02*
X13795717Y-15387436D01*
X13795717Y-15387436D02*
X13786193Y-15396960D01*
X13786193Y-15396960D02*
X13767146Y-15406484D01*
X13767146Y-15406484D02*
X13729051Y-15406484D01*
X13729051Y-15406484D02*
X13710003Y-15396960D01*
X13890955Y-15387436D02*
X13900479Y-15396960D01*
X13900479Y-15396960D02*
X13890955Y-15406484D01*
X13890955Y-15406484D02*
X13881432Y-15396960D01*
X13881432Y-15396960D02*
X13890955Y-15387436D01*
X13890955Y-15387436D02*
X13890955Y-15406484D01*
X13890955Y-15282674D02*
X13900479Y-15292198D01*
X13900479Y-15292198D02*
X13890955Y-15301722D01*
X13890955Y-15301722D02*
X13881432Y-15292198D01*
X13881432Y-15292198D02*
X13890955Y-15282674D01*
X13890955Y-15282674D02*
X13890955Y-15301722D01*
D10*
X12208750Y-15710000D02*
X12258750Y-15760000D01*
X12258750Y-15710000D02*
X12208750Y-15760000D01*
D11*
X12557622Y-15626484D02*
X12576670Y-15626484D01*
X12576670Y-15626484D02*
X12595717Y-15636008D01*
X12595717Y-15636008D02*
X12605241Y-15645531D01*
X12605241Y-15645531D02*
X12614765Y-15664579D01*
X12614765Y-15664579D02*
X12624289Y-15702674D01*
X12624289Y-15702674D02*
X12624289Y-15750293D01*
X12624289Y-15750293D02*
X12614765Y-15788388D01*
X12614765Y-15788388D02*
X12605241Y-15807436D01*
X12605241Y-15807436D02*
X12595717Y-15816960D01*
X12595717Y-15816960D02*
X12576670Y-15826484D01*
X12576670Y-15826484D02*
X12557622Y-15826484D01*
X12557622Y-15826484D02*
X12538574Y-15816960D01*
X12538574Y-15816960D02*
X12529051Y-15807436D01*
X12529051Y-15807436D02*
X12519527Y-15788388D01*
X12519527Y-15788388D02*
X12510003Y-15750293D01*
X12510003Y-15750293D02*
X12510003Y-15702674D01*
X12510003Y-15702674D02*
X12519527Y-15664579D01*
X12519527Y-15664579D02*
X12529051Y-15645531D01*
X12529051Y-15645531D02*
X12538574Y-15636008D01*
X12538574Y-15636008D02*
X12557622Y-15626484D01*
X12710003Y-15807436D02*
X12719527Y-15816960D01*
X12719527Y-15816960D02*
X12710003Y-15826484D01*
X12710003Y-15826484D02*
X12700479Y-15816960D01*
X12700479Y-15816960D02*
X12710003Y-15807436D01*
X12710003Y-15807436D02*
X12710003Y-15826484D01*
X12900479Y-15626484D02*
X12805241Y-15626484D01*
X12805241Y-15626484D02*
X12795717Y-15721722D01*
X12795717Y-15721722D02*
X12805241Y-15712198D01*
X12805241Y-15712198D02*
X12824289Y-15702674D01*
X12824289Y-15702674D02*
X12871908Y-15702674D01*
X12871908Y-15702674D02*
X12890955Y-15712198D01*
X12890955Y-15712198D02*
X12900479Y-15721722D01*
X12900479Y-15721722D02*
X12910003Y-15740769D01*
X12910003Y-15740769D02*
X12910003Y-15788388D01*
X12910003Y-15788388D02*
X12900479Y-15807436D01*
X12900479Y-15807436D02*
X12890955Y-15816960D01*
X12890955Y-15816960D02*
X12871908Y-15826484D01*
X12871908Y-15826484D02*
X12824289Y-15826484D01*
X12824289Y-15826484D02*
X12805241Y-15816960D01*
X12805241Y-15816960D02*
X12795717Y-15807436D01*
X13033812Y-15626484D02*
X13052860Y-15626484D01*
X13052860Y-15626484D02*
X13071908Y-15636008D01*
X13071908Y-15636008D02*
X13081432Y-15645531D01*
X13081432Y-15645531D02*
X13090955Y-15664579D01*
X13090955Y-15664579D02*
X13100479Y-15702674D01*
X13100479Y-15702674D02*
X13100479Y-15750293D01*
X13100479Y-15750293D02*
X13090955Y-15788388D01*
X13090955Y-15788388D02*
X13081432Y-15807436D01*
X13081432Y-15807436D02*
X13071908Y-15816960D01*
X13071908Y-15816960D02*
X13052860Y-15826484D01*
X13052860Y-15826484D02*
X13033812Y-15826484D01*
X13033812Y-15826484D02*
X13014765Y-15816960D01*
X13014765Y-15816960D02*
X13005241Y-15807436D01*
X13005241Y-15807436D02*
X12995717Y-15788388D01*
X12995717Y-15788388D02*
X12986193Y-15750293D01*
X12986193Y-15750293D02*
X12986193Y-15702674D01*
X12986193Y-15702674D02*
X12995717Y-15664579D01*
X12995717Y-15664579D02*
X13005241Y-15645531D01*
X13005241Y-15645531D02*
X13014765Y-15636008D01*
X13014765Y-15636008D02*
X13033812Y-15626484D01*
X13224289Y-15626484D02*
X13243336Y-15626484D01*
X13243336Y-15626484D02*
X13262384Y-15636008D01*
X13262384Y-15636008D02*
X13271908Y-15645531D01*
X13271908Y-15645531D02*
X13281432Y-15664579D01*
X13281432Y-15664579D02*
X13290955Y-15702674D01*
X13290955Y-15702674D02*
X13290955Y-15750293D01*
X13290955Y-15750293D02*
X13281432Y-15788388D01*
X13281432Y-15788388D02*
X13271908Y-15807436D01*
X13271908Y-15807436D02*
X13262384Y-15816960D01*
X13262384Y-15816960D02*
X13243336Y-15826484D01*
X13243336Y-15826484D02*
X13224289Y-15826484D01*
X13224289Y-15826484D02*
X13205241Y-15816960D01*
X13205241Y-15816960D02*
X13195717Y-15807436D01*
X13195717Y-15807436D02*
X13186193Y-15788388D01*
X13186193Y-15788388D02*
X13176670Y-15750293D01*
X13176670Y-15750293D02*
X13176670Y-15702674D01*
X13176670Y-15702674D02*
X13186193Y-15664579D01*
X13186193Y-15664579D02*
X13195717Y-15645531D01*
X13195717Y-15645531D02*
X13205241Y-15636008D01*
X13205241Y-15636008D02*
X13224289Y-15626484D01*
X13376670Y-15826484D02*
X13376670Y-15693150D01*
X13376670Y-15712198D02*
X13386193Y-15702674D01*
X13386193Y-15702674D02*
X13405241Y-15693150D01*
X13405241Y-15693150D02*
X13433813Y-15693150D01*
X13433813Y-15693150D02*
X13452860Y-15702674D01*
X13452860Y-15702674D02*
X13462384Y-15721722D01*
X13462384Y-15721722D02*
X13462384Y-15826484D01*
X13462384Y-15721722D02*
X13471908Y-15702674D01*
X13471908Y-15702674D02*
X13490955Y-15693150D01*
X13490955Y-15693150D02*
X13519527Y-15693150D01*
X13519527Y-15693150D02*
X13538574Y-15702674D01*
X13538574Y-15702674D02*
X13548098Y-15721722D01*
X13548098Y-15721722D02*
X13548098Y-15826484D01*
X13643336Y-15826484D02*
X13643336Y-15693150D01*
X13643336Y-15712198D02*
X13652860Y-15702674D01*
X13652860Y-15702674D02*
X13671908Y-15693150D01*
X13671908Y-15693150D02*
X13700479Y-15693150D01*
X13700479Y-15693150D02*
X13719527Y-15702674D01*
X13719527Y-15702674D02*
X13729051Y-15721722D01*
X13729051Y-15721722D02*
X13729051Y-15826484D01*
X13729051Y-15721722D02*
X13738574Y-15702674D01*
X13738574Y-15702674D02*
X13757622Y-15693150D01*
X13757622Y-15693150D02*
X13786193Y-15693150D01*
X13786193Y-15693150D02*
X13805241Y-15702674D01*
X13805241Y-15702674D02*
X13814765Y-15721722D01*
X13814765Y-15721722D02*
X13814765Y-15826484D01*
X14205241Y-15616960D02*
X14033813Y-15874103D01*
X14462384Y-15626484D02*
X14481432Y-15626484D01*
X14481432Y-15626484D02*
X14500479Y-15636008D01*
X14500479Y-15636008D02*
X14510003Y-15645531D01*
X14510003Y-15645531D02*
X14519527Y-15664579D01*
X14519527Y-15664579D02*
X14529051Y-15702674D01*
X14529051Y-15702674D02*
X14529051Y-15750293D01*
X14529051Y-15750293D02*
X14519527Y-15788388D01*
X14519527Y-15788388D02*
X14510003Y-15807436D01*
X14510003Y-15807436D02*
X14500479Y-15816960D01*
X14500479Y-15816960D02*
X14481432Y-15826484D01*
X14481432Y-15826484D02*
X14462384Y-15826484D01*
X14462384Y-15826484D02*
X14443336Y-15816960D01*
X14443336Y-15816960D02*
X14433813Y-15807436D01*
X14433813Y-15807436D02*
X14424289Y-15788388D01*
X14424289Y-15788388D02*
X14414765Y-15750293D01*
X14414765Y-15750293D02*
X14414765Y-15702674D01*
X14414765Y-15702674D02*
X14424289Y-15664579D01*
X14424289Y-15664579D02*
X14433813Y-15645531D01*
X14433813Y-15645531D02*
X14443336Y-15636008D01*
X14443336Y-15636008D02*
X14462384Y-15626484D01*
X14614765Y-15807436D02*
X14624289Y-15816960D01*
X14624289Y-15816960D02*
X14614765Y-15826484D01*
X14614765Y-15826484D02*
X14605241Y-15816960D01*
X14605241Y-15816960D02*
X14614765Y-15807436D01*
X14614765Y-15807436D02*
X14614765Y-15826484D01*
X14748098Y-15626484D02*
X14767146Y-15626484D01*
X14767146Y-15626484D02*
X14786194Y-15636008D01*
X14786194Y-15636008D02*
X14795717Y-15645531D01*
X14795717Y-15645531D02*
X14805241Y-15664579D01*
X14805241Y-15664579D02*
X14814765Y-15702674D01*
X14814765Y-15702674D02*
X14814765Y-15750293D01*
X14814765Y-15750293D02*
X14805241Y-15788388D01*
X14805241Y-15788388D02*
X14795717Y-15807436D01*
X14795717Y-15807436D02*
X14786194Y-15816960D01*
X14786194Y-15816960D02*
X14767146Y-15826484D01*
X14767146Y-15826484D02*
X14748098Y-15826484D01*
X14748098Y-15826484D02*
X14729051Y-15816960D01*
X14729051Y-15816960D02*
X14719527Y-15807436D01*
X14719527Y-15807436D02*
X14710003Y-15788388D01*
X14710003Y-15788388D02*
X14700479Y-15750293D01*
X14700479Y-15750293D02*
X14700479Y-15702674D01*
X14700479Y-15702674D02*
X14710003Y-15664579D01*
X14710003Y-15664579D02*
X14719527Y-15645531D01*
X14719527Y-15645531D02*
X14729051Y-15636008D01*
X14729051Y-15636008D02*
X14748098Y-15626484D01*
X15005241Y-15826484D02*
X14890956Y-15826484D01*
X14948098Y-15826484D02*
X14948098Y-15626484D01*
X14948098Y-15626484D02*
X14929051Y-15655055D01*
X14929051Y-15655055D02*
X14910003Y-15674103D01*
X14910003Y-15674103D02*
X14890956Y-15683627D01*
X15100479Y-15826484D02*
X15138575Y-15826484D01*
X15138575Y-15826484D02*
X15157622Y-15816960D01*
X15157622Y-15816960D02*
X15167146Y-15807436D01*
X15167146Y-15807436D02*
X15186194Y-15778865D01*
X15186194Y-15778865D02*
X15195717Y-15740769D01*
X15195717Y-15740769D02*
X15195717Y-15664579D01*
X15195717Y-15664579D02*
X15186194Y-15645531D01*
X15186194Y-15645531D02*
X15176670Y-15636008D01*
X15176670Y-15636008D02*
X15157622Y-15626484D01*
X15157622Y-15626484D02*
X15119527Y-15626484D01*
X15119527Y-15626484D02*
X15100479Y-15636008D01*
X15100479Y-15636008D02*
X15090956Y-15645531D01*
X15090956Y-15645531D02*
X15081432Y-15664579D01*
X15081432Y-15664579D02*
X15081432Y-15712198D01*
X15081432Y-15712198D02*
X15090956Y-15731246D01*
X15090956Y-15731246D02*
X15100479Y-15740769D01*
X15100479Y-15740769D02*
X15119527Y-15750293D01*
X15119527Y-15750293D02*
X15157622Y-15750293D01*
X15157622Y-15750293D02*
X15176670Y-15740769D01*
X15176670Y-15740769D02*
X15186194Y-15731246D01*
X15186194Y-15731246D02*
X15195717Y-15712198D01*
X15262384Y-15626484D02*
X15395717Y-15626484D01*
X15395717Y-15626484D02*
X15310003Y-15826484D01*
X15462384Y-15626484D02*
X15462384Y-15664579D01*
X15538575Y-15626484D02*
X15538575Y-15664579D01*
X15833813Y-15902674D02*
X15824289Y-15893150D01*
X15824289Y-15893150D02*
X15805241Y-15864579D01*
X15805241Y-15864579D02*
X15795718Y-15845531D01*
X15795718Y-15845531D02*
X15786194Y-15816960D01*
X15786194Y-15816960D02*
X15776670Y-15769341D01*
X15776670Y-15769341D02*
X15776670Y-15731246D01*
X15776670Y-15731246D02*
X15786194Y-15683627D01*
X15786194Y-15683627D02*
X15795718Y-15655055D01*
X15795718Y-15655055D02*
X15805241Y-15636008D01*
X15805241Y-15636008D02*
X15824289Y-15607436D01*
X15824289Y-15607436D02*
X15833813Y-15597912D01*
X15995718Y-15626484D02*
X15957622Y-15626484D01*
X15957622Y-15626484D02*
X15938575Y-15636008D01*
X15938575Y-15636008D02*
X15929051Y-15645531D01*
X15929051Y-15645531D02*
X15910003Y-15674103D01*
X15910003Y-15674103D02*
X15900479Y-15712198D01*
X15900479Y-15712198D02*
X15900479Y-15788388D01*
X15900479Y-15788388D02*
X15910003Y-15807436D01*
X15910003Y-15807436D02*
X15919527Y-15816960D01*
X15919527Y-15816960D02*
X15938575Y-15826484D01*
X15938575Y-15826484D02*
X15976670Y-15826484D01*
X15976670Y-15826484D02*
X15995718Y-15816960D01*
X15995718Y-15816960D02*
X16005241Y-15807436D01*
X16005241Y-15807436D02*
X16014765Y-15788388D01*
X16014765Y-15788388D02*
X16014765Y-15740769D01*
X16014765Y-15740769D02*
X16005241Y-15721722D01*
X16005241Y-15721722D02*
X15995718Y-15712198D01*
X15995718Y-15712198D02*
X15976670Y-15702674D01*
X15976670Y-15702674D02*
X15938575Y-15702674D01*
X15938575Y-15702674D02*
X15919527Y-15712198D01*
X15919527Y-15712198D02*
X15910003Y-15721722D01*
X15910003Y-15721722D02*
X15900479Y-15740769D01*
X16186194Y-15693150D02*
X16186194Y-15826484D01*
X16138575Y-15616960D02*
X16090956Y-15759817D01*
X16090956Y-15759817D02*
X16214765Y-15759817D01*
X16443337Y-15826484D02*
X16443337Y-15626484D01*
X16529051Y-15826484D02*
X16529051Y-15721722D01*
X16529051Y-15721722D02*
X16519527Y-15702674D01*
X16519527Y-15702674D02*
X16500480Y-15693150D01*
X16500480Y-15693150D02*
X16471908Y-15693150D01*
X16471908Y-15693150D02*
X16452860Y-15702674D01*
X16452860Y-15702674D02*
X16443337Y-15712198D01*
X16652860Y-15826484D02*
X16633813Y-15816960D01*
X16633813Y-15816960D02*
X16624289Y-15807436D01*
X16624289Y-15807436D02*
X16614765Y-15788388D01*
X16614765Y-15788388D02*
X16614765Y-15731246D01*
X16614765Y-15731246D02*
X16624289Y-15712198D01*
X16624289Y-15712198D02*
X16633813Y-15702674D01*
X16633813Y-15702674D02*
X16652860Y-15693150D01*
X16652860Y-15693150D02*
X16681432Y-15693150D01*
X16681432Y-15693150D02*
X16700480Y-15702674D01*
X16700480Y-15702674D02*
X16710003Y-15712198D01*
X16710003Y-15712198D02*
X16719527Y-15731246D01*
X16719527Y-15731246D02*
X16719527Y-15788388D01*
X16719527Y-15788388D02*
X16710003Y-15807436D01*
X16710003Y-15807436D02*
X16700480Y-15816960D01*
X16700480Y-15816960D02*
X16681432Y-15826484D01*
X16681432Y-15826484D02*
X16652860Y-15826484D01*
X16833813Y-15826484D02*
X16814765Y-15816960D01*
X16814765Y-15816960D02*
X16805242Y-15797912D01*
X16805242Y-15797912D02*
X16805242Y-15626484D01*
X16986194Y-15816960D02*
X16967146Y-15826484D01*
X16967146Y-15826484D02*
X16929051Y-15826484D01*
X16929051Y-15826484D02*
X16910003Y-15816960D01*
X16910003Y-15816960D02*
X16900480Y-15797912D01*
X16900480Y-15797912D02*
X16900480Y-15721722D01*
X16900480Y-15721722D02*
X16910003Y-15702674D01*
X16910003Y-15702674D02*
X16929051Y-15693150D01*
X16929051Y-15693150D02*
X16967146Y-15693150D01*
X16967146Y-15693150D02*
X16986194Y-15702674D01*
X16986194Y-15702674D02*
X16995718Y-15721722D01*
X16995718Y-15721722D02*
X16995718Y-15740769D01*
X16995718Y-15740769D02*
X16900480Y-15759817D01*
X17071908Y-15816960D02*
X17090956Y-15826484D01*
X17090956Y-15826484D02*
X17129051Y-15826484D01*
X17129051Y-15826484D02*
X17148099Y-15816960D01*
X17148099Y-15816960D02*
X17157623Y-15797912D01*
X17157623Y-15797912D02*
X17157623Y-15788388D01*
X17157623Y-15788388D02*
X17148099Y-15769341D01*
X17148099Y-15769341D02*
X17129051Y-15759817D01*
X17129051Y-15759817D02*
X17100480Y-15759817D01*
X17100480Y-15759817D02*
X17081432Y-15750293D01*
X17081432Y-15750293D02*
X17071908Y-15731246D01*
X17071908Y-15731246D02*
X17071908Y-15721722D01*
X17071908Y-15721722D02*
X17081432Y-15702674D01*
X17081432Y-15702674D02*
X17100480Y-15693150D01*
X17100480Y-15693150D02*
X17129051Y-15693150D01*
X17129051Y-15693150D02*
X17148099Y-15702674D01*
X17224289Y-15902674D02*
X17233813Y-15893150D01*
X17233813Y-15893150D02*
X17252861Y-15864579D01*
X17252861Y-15864579D02*
X17262384Y-15845531D01*
X17262384Y-15845531D02*
X17271908Y-15816960D01*
X17271908Y-15816960D02*
X17281432Y-15769341D01*
X17281432Y-15769341D02*
X17281432Y-15731246D01*
X17281432Y-15731246D02*
X17271908Y-15683627D01*
X17271908Y-15683627D02*
X17262384Y-15655055D01*
X17262384Y-15655055D02*
X17252861Y-15636008D01*
X17252861Y-15636008D02*
X17233813Y-15607436D01*
X17233813Y-15607436D02*
X17224289Y-15597912D01*
X17586194Y-15902674D02*
X17576670Y-15893150D01*
X17576670Y-15893150D02*
X17557623Y-15864579D01*
X17557623Y-15864579D02*
X17548099Y-15845531D01*
X17548099Y-15845531D02*
X17538575Y-15816960D01*
X17538575Y-15816960D02*
X17529051Y-15769341D01*
X17529051Y-15769341D02*
X17529051Y-15731246D01*
X17529051Y-15731246D02*
X17538575Y-15683627D01*
X17538575Y-15683627D02*
X17548099Y-15655055D01*
X17548099Y-15655055D02*
X17557623Y-15636008D01*
X17557623Y-15636008D02*
X17576670Y-15607436D01*
X17576670Y-15607436D02*
X17586194Y-15597912D01*
X17662384Y-15693150D02*
X17662384Y-15826484D01*
X17662384Y-15712198D02*
X17671908Y-15702674D01*
X17671908Y-15702674D02*
X17690956Y-15693150D01*
X17690956Y-15693150D02*
X17719527Y-15693150D01*
X17719527Y-15693150D02*
X17738575Y-15702674D01*
X17738575Y-15702674D02*
X17748099Y-15721722D01*
X17748099Y-15721722D02*
X17748099Y-15826484D01*
X17871908Y-15826484D02*
X17852861Y-15816960D01*
X17852861Y-15816960D02*
X17843337Y-15807436D01*
X17843337Y-15807436D02*
X17833813Y-15788388D01*
X17833813Y-15788388D02*
X17833813Y-15731246D01*
X17833813Y-15731246D02*
X17843337Y-15712198D01*
X17843337Y-15712198D02*
X17852861Y-15702674D01*
X17852861Y-15702674D02*
X17871908Y-15693150D01*
X17871908Y-15693150D02*
X17900480Y-15693150D01*
X17900480Y-15693150D02*
X17919527Y-15702674D01*
X17919527Y-15702674D02*
X17929051Y-15712198D01*
X17929051Y-15712198D02*
X17938575Y-15731246D01*
X17938575Y-15731246D02*
X17938575Y-15788388D01*
X17938575Y-15788388D02*
X17929051Y-15807436D01*
X17929051Y-15807436D02*
X17919527Y-15816960D01*
X17919527Y-15816960D02*
X17900480Y-15826484D01*
X17900480Y-15826484D02*
X17871908Y-15826484D01*
X17995718Y-15693150D02*
X18071908Y-15693150D01*
X18024289Y-15626484D02*
X18024289Y-15797912D01*
X18024289Y-15797912D02*
X18033813Y-15816960D01*
X18033813Y-15816960D02*
X18052861Y-15826484D01*
X18052861Y-15826484D02*
X18071908Y-15826484D01*
X18290956Y-15693150D02*
X18290956Y-15893150D01*
X18290956Y-15702674D02*
X18310004Y-15693150D01*
X18310004Y-15693150D02*
X18348099Y-15693150D01*
X18348099Y-15693150D02*
X18367146Y-15702674D01*
X18367146Y-15702674D02*
X18376670Y-15712198D01*
X18376670Y-15712198D02*
X18386194Y-15731246D01*
X18386194Y-15731246D02*
X18386194Y-15788388D01*
X18386194Y-15788388D02*
X18376670Y-15807436D01*
X18376670Y-15807436D02*
X18367146Y-15816960D01*
X18367146Y-15816960D02*
X18348099Y-15826484D01*
X18348099Y-15826484D02*
X18310004Y-15826484D01*
X18310004Y-15826484D02*
X18290956Y-15816960D01*
X18500480Y-15826484D02*
X18481432Y-15816960D01*
X18481432Y-15816960D02*
X18471908Y-15797912D01*
X18471908Y-15797912D02*
X18471908Y-15626484D01*
X18662385Y-15826484D02*
X18662385Y-15721722D01*
X18662385Y-15721722D02*
X18652861Y-15702674D01*
X18652861Y-15702674D02*
X18633813Y-15693150D01*
X18633813Y-15693150D02*
X18595718Y-15693150D01*
X18595718Y-15693150D02*
X18576670Y-15702674D01*
X18662385Y-15816960D02*
X18643337Y-15826484D01*
X18643337Y-15826484D02*
X18595718Y-15826484D01*
X18595718Y-15826484D02*
X18576670Y-15816960D01*
X18576670Y-15816960D02*
X18567146Y-15797912D01*
X18567146Y-15797912D02*
X18567146Y-15778865D01*
X18567146Y-15778865D02*
X18576670Y-15759817D01*
X18576670Y-15759817D02*
X18595718Y-15750293D01*
X18595718Y-15750293D02*
X18643337Y-15750293D01*
X18643337Y-15750293D02*
X18662385Y-15740769D01*
X18729051Y-15693150D02*
X18805242Y-15693150D01*
X18757623Y-15626484D02*
X18757623Y-15797912D01*
X18757623Y-15797912D02*
X18767146Y-15816960D01*
X18767146Y-15816960D02*
X18786194Y-15826484D01*
X18786194Y-15826484D02*
X18805242Y-15826484D01*
X18948099Y-15816960D02*
X18929051Y-15826484D01*
X18929051Y-15826484D02*
X18890956Y-15826484D01*
X18890956Y-15826484D02*
X18871908Y-15816960D01*
X18871908Y-15816960D02*
X18862385Y-15797912D01*
X18862385Y-15797912D02*
X18862385Y-15721722D01*
X18862385Y-15721722D02*
X18871908Y-15702674D01*
X18871908Y-15702674D02*
X18890956Y-15693150D01*
X18890956Y-15693150D02*
X18929051Y-15693150D01*
X18929051Y-15693150D02*
X18948099Y-15702674D01*
X18948099Y-15702674D02*
X18957623Y-15721722D01*
X18957623Y-15721722D02*
X18957623Y-15740769D01*
X18957623Y-15740769D02*
X18862385Y-15759817D01*
X19129051Y-15826484D02*
X19129051Y-15626484D01*
X19129051Y-15816960D02*
X19110004Y-15826484D01*
X19110004Y-15826484D02*
X19071908Y-15826484D01*
X19071908Y-15826484D02*
X19052861Y-15816960D01*
X19052861Y-15816960D02*
X19043337Y-15807436D01*
X19043337Y-15807436D02*
X19033813Y-15788388D01*
X19033813Y-15788388D02*
X19033813Y-15731246D01*
X19033813Y-15731246D02*
X19043337Y-15712198D01*
X19043337Y-15712198D02*
X19052861Y-15702674D01*
X19052861Y-15702674D02*
X19071908Y-15693150D01*
X19071908Y-15693150D02*
X19110004Y-15693150D01*
X19110004Y-15693150D02*
X19129051Y-15702674D01*
X19205242Y-15902674D02*
X19214766Y-15893150D01*
X19214766Y-15893150D02*
X19233813Y-15864579D01*
X19233813Y-15864579D02*
X19243337Y-15845531D01*
X19243337Y-15845531D02*
X19252861Y-15816960D01*
X19252861Y-15816960D02*
X19262385Y-15769341D01*
X19262385Y-15769341D02*
X19262385Y-15731246D01*
X19262385Y-15731246D02*
X19252861Y-15683627D01*
X19252861Y-15683627D02*
X19243337Y-15655055D01*
X19243337Y-15655055D02*
X19233813Y-15636008D01*
X19233813Y-15636008D02*
X19214766Y-15607436D01*
X19214766Y-15607436D02*
X19205242Y-15597912D01*
M02*
