%TF.GenerationSoftware,KiCad,Pcbnew,7.0.9*%
%TF.CreationDate,2024-06-08T14:56:09-04:00*%
%TF.ProjectId,IO-Panel,494f2d50-616e-4656-9c2e-6b696361645f,rev?*%
%TF.SameCoordinates,Original*%
%TF.FileFunction,Drillmap*%
%TF.FilePolarity,Positive*%
%FSLAX45Y45*%
G04 Gerber Fmt 4.5, Leading zero omitted, Abs format (unit mm)*
G04 Created by KiCad (PCBNEW 7.0.9) date 2024-06-08 14:56:09*
%MOMM*%
%LPD*%
G01*
G04 APERTURE LIST*
%ADD10C,0.100000*%
%ADD11C,0.200000*%
%ADD12C,0.110000*%
%ADD13C,0.140000*%
G04 APERTURE END LIST*
D10*
X14482750Y-10860000D02*
X14482750Y-10760100D01*
X13448250Y-10759900D02*
X13448250Y-10660000D01*
X16251750Y-6330150D02*
X16251750Y-6430000D01*
X16551750Y-10759900D02*
X16551750Y-10660000D01*
X15517250Y-10660000D02*
X16251750Y-10660000D01*
X17436250Y-10660000D02*
X17436250Y-6430000D01*
X13448250Y-10660000D02*
X14182750Y-10660000D01*
X12263750Y-6430000D02*
X12263750Y-10660000D01*
X14482750Y-6329950D02*
X14482750Y-6230000D01*
X13148250Y-6329950D02*
X13148250Y-6330150D01*
X14482750Y-6230000D02*
X15217250Y-6230000D01*
X13148250Y-10860000D02*
X12263750Y-10860000D01*
X17436250Y-6230000D02*
X17436250Y-2000000D01*
X14182750Y-10760100D02*
X14182750Y-10860000D01*
X15517250Y-10760100D02*
X15517250Y-10759900D01*
X17436250Y-15090000D02*
X17436250Y-10860000D01*
X14182750Y-10759900D02*
X14182750Y-10760100D01*
X17436250Y-2000000D02*
X12263750Y-2000000D01*
X13148250Y-6230000D02*
X13148250Y-6329950D01*
X14482750Y-10759900D02*
X14482750Y-10660000D01*
X14482750Y-6330150D02*
X14482750Y-6329950D01*
X15217250Y-6329950D02*
X15217250Y-6330150D01*
X13148250Y-6330150D02*
X13148250Y-6430000D01*
X14482750Y-6430000D02*
X14482750Y-6330150D01*
X14482750Y-10660000D02*
X15217250Y-10660000D01*
X12263750Y-15090000D02*
X17436250Y-15090000D01*
X15517250Y-6330150D02*
X15517250Y-6329950D01*
X16251750Y-6430000D02*
X15517250Y-6430000D01*
X15217250Y-6230000D02*
X15217250Y-6329950D01*
X15217250Y-10759900D02*
X15217250Y-10760100D01*
X13448250Y-6230000D02*
X14182750Y-6230000D01*
X16551750Y-6330150D02*
X16551750Y-6329950D01*
X14182750Y-6430000D02*
X13448250Y-6430000D01*
X17436250Y-6430000D02*
X16551750Y-6430000D01*
X14182750Y-6330150D02*
X14182750Y-6430000D01*
X13148250Y-6430000D02*
X12263750Y-6430000D01*
X15517250Y-6230000D02*
X16251750Y-6230000D01*
X13448250Y-6330150D02*
X13448250Y-6329950D01*
X13148250Y-10660000D02*
X13148250Y-10759900D01*
X13448250Y-6329950D02*
X13448250Y-6230000D01*
X15517250Y-10860000D02*
X15517250Y-10760100D01*
X15217250Y-10760100D02*
X15217250Y-10860000D01*
X16551750Y-6430000D02*
X16551750Y-6330150D01*
X12263750Y-10660000D02*
X13148250Y-10660000D01*
X16251750Y-10660000D02*
X16251750Y-10759900D01*
X14182750Y-6230000D02*
X14182750Y-6329950D01*
X15217250Y-6430000D02*
X14482750Y-6430000D01*
X14182750Y-10660000D02*
X14182750Y-10759900D01*
X13148250Y-10760100D02*
X13148250Y-10860000D01*
X16551750Y-6230000D02*
X17436250Y-6230000D01*
X15517250Y-6430000D02*
X15517250Y-6330150D01*
X16251750Y-10860000D02*
X15517250Y-10860000D01*
X15217250Y-10660000D02*
X15217250Y-10759900D01*
X16251750Y-6230000D02*
X16251750Y-6329950D01*
X12263750Y-6230000D02*
X13148250Y-6230000D01*
X13448250Y-6430000D02*
X13448250Y-6330150D01*
X15217250Y-6330150D02*
X15217250Y-6430000D01*
X16251750Y-6329950D02*
X16251750Y-6330150D01*
X14182750Y-10860000D02*
X13448250Y-10860000D01*
X16251750Y-10759900D02*
X16251750Y-10760100D01*
X16551750Y-6329950D02*
X16551750Y-6230000D01*
X16551750Y-10660000D02*
X17436250Y-10660000D01*
X17436250Y-10860000D02*
X16551750Y-10860000D01*
X13448250Y-10860000D02*
X13448250Y-10760100D01*
X16551750Y-10760100D02*
X16551750Y-10759900D01*
X13448250Y-10760100D02*
X13448250Y-10759900D01*
X16551750Y-10860000D02*
X16551750Y-10760100D01*
X13148250Y-10759900D02*
X13148250Y-10760100D01*
X12263750Y-2000000D02*
X12263750Y-6230000D01*
X16251750Y-10760100D02*
X16251750Y-10860000D01*
X12263750Y-10860000D02*
X12263750Y-15090000D01*
X15217250Y-10860000D02*
X14482750Y-10860000D01*
X14182750Y-6329950D02*
X14182750Y-6330150D01*
X14482750Y-10760100D02*
X14482750Y-10759900D01*
X15517250Y-10759900D02*
X15517250Y-10660000D01*
X15517250Y-6329950D02*
X15517250Y-6230000D01*
D11*
D10*
X13943000Y-2147750D02*
X14013000Y-2217750D01*
X14013000Y-2147750D02*
X13943000Y-2217750D01*
X13943000Y-2655750D02*
X14013000Y-2725750D01*
X14013000Y-2655750D02*
X13943000Y-2725750D01*
X13943000Y-3163750D02*
X14013000Y-3233750D01*
X14013000Y-3163750D02*
X13943000Y-3233750D01*
X13943000Y-3925750D02*
X14013000Y-3995750D01*
X14013000Y-3925750D02*
X13943000Y-3995750D01*
X13943000Y-6577750D02*
X14013000Y-6647750D01*
X14013000Y-6577750D02*
X13943000Y-6647750D01*
X13943000Y-7085750D02*
X14013000Y-7155750D01*
X14013000Y-7085750D02*
X13943000Y-7155750D01*
X13943000Y-7593750D02*
X14013000Y-7663750D01*
X14013000Y-7593750D02*
X13943000Y-7663750D01*
X13943000Y-8355750D02*
X14013000Y-8425750D01*
X14013000Y-8355750D02*
X13943000Y-8425750D01*
X13943000Y-11007750D02*
X14013000Y-11077750D01*
X14013000Y-11007750D02*
X13943000Y-11077750D01*
X13943000Y-11515750D02*
X14013000Y-11585750D01*
X14013000Y-11515750D02*
X13943000Y-11585750D01*
X13943000Y-12023750D02*
X14013000Y-12093750D01*
X14013000Y-12023750D02*
X13943000Y-12093750D01*
X13943000Y-12785750D02*
X14013000Y-12855750D01*
X14013000Y-12785750D02*
X13943000Y-12855750D01*
X14705000Y-2147750D02*
X14775000Y-2217750D01*
X14775000Y-2147750D02*
X14705000Y-2217750D01*
X14705000Y-2655750D02*
X14775000Y-2725750D01*
X14775000Y-2655750D02*
X14705000Y-2725750D01*
X14705000Y-3163750D02*
X14775000Y-3233750D01*
X14775000Y-3163750D02*
X14705000Y-3233750D01*
X14705000Y-3925750D02*
X14775000Y-3995750D01*
X14775000Y-3925750D02*
X14705000Y-3995750D01*
X14705000Y-6577750D02*
X14775000Y-6647750D01*
X14775000Y-6577750D02*
X14705000Y-6647750D01*
X14705000Y-7085750D02*
X14775000Y-7155750D01*
X14775000Y-7085750D02*
X14705000Y-7155750D01*
X14705000Y-7593750D02*
X14775000Y-7663750D01*
X14775000Y-7593750D02*
X14705000Y-7663750D01*
X14705000Y-8355750D02*
X14775000Y-8425750D01*
X14775000Y-8355750D02*
X14705000Y-8425750D01*
X14705000Y-11007750D02*
X14775000Y-11077750D01*
X14775000Y-11007750D02*
X14705000Y-11077750D01*
X14705000Y-11515750D02*
X14775000Y-11585750D01*
X14775000Y-11515750D02*
X14705000Y-11585750D01*
X14705000Y-12023750D02*
X14775000Y-12093750D01*
X14775000Y-12023750D02*
X14705000Y-12093750D01*
X14705000Y-12785750D02*
X14775000Y-12855750D01*
X14775000Y-12785750D02*
X14705000Y-12855750D01*
X14417250Y-4553000D02*
G75*
G03*
X14417250Y-4553000I-37500J0D01*
G01*
X14417250Y-4680000D02*
G75*
G03*
X14417250Y-4680000I-37500J0D01*
G01*
X14417250Y-4807000D02*
G75*
G03*
X14417250Y-4807000I-37500J0D01*
G01*
X14417250Y-8983000D02*
G75*
G03*
X14417250Y-8983000I-37500J0D01*
G01*
X14417250Y-9110000D02*
G75*
G03*
X14417250Y-9110000I-37500J0D01*
G01*
X14417250Y-9237000D02*
G75*
G03*
X14417250Y-9237000I-37500J0D01*
G01*
X14417250Y-13413000D02*
G75*
G03*
X14417250Y-13413000I-37500J0D01*
G01*
X14417250Y-13540000D02*
G75*
G03*
X14417250Y-13540000I-37500J0D01*
G01*
X14417250Y-13667000D02*
G75*
G03*
X14417250Y-13667000I-37500J0D01*
G01*
X12582750Y-2780000D02*
X12582750Y-2860000D01*
X12542750Y-2820000D02*
X12622750Y-2820000D01*
X12582750Y-3100000D02*
X12582750Y-3180000D01*
X12542750Y-3140000D02*
X12622750Y-3140000D01*
X12582750Y-7210000D02*
X12582750Y-7290000D01*
X12542750Y-7250000D02*
X12622750Y-7250000D01*
X12582750Y-7530000D02*
X12582750Y-7610000D01*
X12542750Y-7570000D02*
X12622750Y-7570000D01*
X12582750Y-11640000D02*
X12582750Y-11720000D01*
X12542750Y-11680000D02*
X12622750Y-11680000D01*
X12582750Y-11960000D02*
X12582750Y-12040000D01*
X12542750Y-12000000D02*
X12622750Y-12000000D01*
X12962750Y-4380000D02*
X12962750Y-4460000D01*
X12922750Y-4420000D02*
X13002750Y-4420000D01*
X12962750Y-4740000D02*
X12962750Y-4820000D01*
X12922750Y-4780000D02*
X13002750Y-4780000D01*
X12962750Y-8810000D02*
X12962750Y-8890000D01*
X12922750Y-8850000D02*
X13002750Y-8850000D01*
X12962750Y-9170000D02*
X12962750Y-9250000D01*
X12922750Y-9210000D02*
X13002750Y-9210000D01*
X12962750Y-13240000D02*
X12962750Y-13320000D01*
X12922750Y-13280000D02*
X13002750Y-13280000D01*
X12962750Y-13600000D02*
X12962750Y-13680000D01*
X12922750Y-13640000D02*
X13002750Y-13640000D01*
X13344750Y-2780000D02*
X13344750Y-2860000D01*
X13304750Y-2820000D02*
X13384750Y-2820000D01*
X13344750Y-3100000D02*
X13344750Y-3180000D01*
X13304750Y-3140000D02*
X13384750Y-3140000D01*
X13344750Y-7210000D02*
X13344750Y-7290000D01*
X13304750Y-7250000D02*
X13384750Y-7250000D01*
X13344750Y-7530000D02*
X13344750Y-7610000D01*
X13304750Y-7570000D02*
X13384750Y-7570000D01*
X13344750Y-11640000D02*
X13344750Y-11720000D01*
X13304750Y-11680000D02*
X13384750Y-11680000D01*
X13344750Y-11960000D02*
X13344750Y-12040000D01*
X13304750Y-12000000D02*
X13384750Y-12000000D01*
X13724750Y-4380000D02*
X13724750Y-4460000D01*
X13684750Y-4420000D02*
X13764750Y-4420000D01*
X13724750Y-4740000D02*
X13724750Y-4820000D01*
X13684750Y-4780000D02*
X13764750Y-4780000D01*
X13724750Y-8810000D02*
X13724750Y-8890000D01*
X13684750Y-8850000D02*
X13764750Y-8850000D01*
X13724750Y-9170000D02*
X13724750Y-9250000D01*
X13684750Y-9210000D02*
X13764750Y-9210000D01*
X13724750Y-13240000D02*
X13724750Y-13320000D01*
X13684750Y-13280000D02*
X13764750Y-13280000D01*
X13724750Y-13600000D02*
X13724750Y-13680000D01*
X13684750Y-13640000D02*
X13764750Y-13640000D01*
X12608070Y-2351820D02*
X12608070Y-2288180D01*
X12544430Y-2288180D01*
X12544430Y-2351820D01*
X12608070Y-2351820D01*
X12608070Y-6781820D02*
X12608070Y-6718180D01*
X12544430Y-6718180D01*
X12544430Y-6781820D01*
X12608070Y-6781820D01*
X12608070Y-11211820D02*
X12608070Y-11148180D01*
X12544430Y-11148180D01*
X12544430Y-11211820D01*
X12608070Y-11211820D01*
X12862070Y-2351820D02*
X12862070Y-2288180D01*
X12798430Y-2288180D01*
X12798430Y-2351820D01*
X12862070Y-2351820D01*
X12862070Y-6781820D02*
X12862070Y-6718180D01*
X12798430Y-6718180D01*
X12798430Y-6781820D01*
X12862070Y-6781820D01*
X12862070Y-11211820D02*
X12862070Y-11148180D01*
X12798430Y-11148180D01*
X12798430Y-11211820D01*
X12862070Y-11211820D01*
X13369070Y-2351820D02*
X13369070Y-2288180D01*
X13305430Y-2288180D01*
X13305430Y-2351820D01*
X13369070Y-2351820D01*
X13369070Y-6781820D02*
X13369070Y-6718180D01*
X13305430Y-6718180D01*
X13305430Y-6781820D01*
X13369070Y-6781820D01*
X13369070Y-11211820D02*
X13369070Y-11148180D01*
X13305430Y-11148180D01*
X13305430Y-11211820D01*
X13369070Y-11211820D01*
X13623070Y-2351820D02*
X13623070Y-2288180D01*
X13559430Y-2288180D01*
X13559430Y-2351820D01*
X13623070Y-2351820D01*
X13623070Y-6781820D02*
X13623070Y-6718180D01*
X13559430Y-6718180D01*
X13559430Y-6781820D01*
X13623070Y-6781820D01*
X13623070Y-11211820D02*
X13623070Y-11148180D01*
X13559430Y-11148180D01*
X13559430Y-11211820D01*
X13623070Y-11211820D01*
X12523750Y-5550000D02*
X12573750Y-5500000D01*
X12523750Y-5450000D01*
X12473750Y-5500000D01*
X12523750Y-5550000D01*
X12523750Y-6000000D02*
X12573750Y-5950000D01*
X12523750Y-5900000D01*
X12473750Y-5950000D01*
X12523750Y-6000000D01*
X12523750Y-9980000D02*
X12573750Y-9930000D01*
X12523750Y-9880000D01*
X12473750Y-9930000D01*
X12523750Y-9980000D01*
X12523750Y-10430000D02*
X12573750Y-10380000D01*
X12523750Y-10330000D01*
X12473750Y-10380000D01*
X12523750Y-10430000D01*
X12523750Y-14410000D02*
X12573750Y-14360000D01*
X12523750Y-14310000D01*
X12473750Y-14360000D01*
X12523750Y-14410000D01*
X12523750Y-14860000D02*
X12573750Y-14810000D01*
X12523750Y-14760000D01*
X12473750Y-14810000D01*
X12523750Y-14860000D01*
X12543750Y-3574500D02*
X12593750Y-3524500D01*
X12543750Y-3474500D01*
X12493750Y-3524500D01*
X12543750Y-3574500D01*
X12543750Y-3828500D02*
X12593750Y-3778500D01*
X12543750Y-3728500D01*
X12493750Y-3778500D01*
X12543750Y-3828500D01*
X12543750Y-4082500D02*
X12593750Y-4032500D01*
X12543750Y-3982500D01*
X12493750Y-4032500D01*
X12543750Y-4082500D01*
X12543750Y-4810000D02*
X12593750Y-4760000D01*
X12543750Y-4710000D01*
X12493750Y-4760000D01*
X12543750Y-4810000D01*
X12543750Y-8004500D02*
X12593750Y-7954500D01*
X12543750Y-7904500D01*
X12493750Y-7954500D01*
X12543750Y-8004500D01*
X12543750Y-8258500D02*
X12593750Y-8208500D01*
X12543750Y-8158500D01*
X12493750Y-8208500D01*
X12543750Y-8258500D01*
X12543750Y-8512500D02*
X12593750Y-8462500D01*
X12543750Y-8412500D01*
X12493750Y-8462500D01*
X12543750Y-8512500D01*
X12543750Y-9240000D02*
X12593750Y-9190000D01*
X12543750Y-9140000D01*
X12493750Y-9190000D01*
X12543750Y-9240000D01*
X12543750Y-12434500D02*
X12593750Y-12384500D01*
X12543750Y-12334500D01*
X12493750Y-12384500D01*
X12543750Y-12434500D01*
X12543750Y-12688500D02*
X12593750Y-12638500D01*
X12543750Y-12588500D01*
X12493750Y-12638500D01*
X12543750Y-12688500D01*
X12543750Y-12942500D02*
X12593750Y-12892500D01*
X12543750Y-12842500D01*
X12493750Y-12892500D01*
X12543750Y-12942500D01*
X12543750Y-13670000D02*
X12593750Y-13620000D01*
X12543750Y-13570000D01*
X12493750Y-13620000D01*
X12543750Y-13670000D01*
X12777750Y-5550000D02*
X12827750Y-5500000D01*
X12777750Y-5450000D01*
X12727750Y-5500000D01*
X12777750Y-5550000D01*
X12777750Y-6000000D02*
X12827750Y-5950000D01*
X12777750Y-5900000D01*
X12727750Y-5950000D01*
X12777750Y-6000000D01*
X12777750Y-9980000D02*
X12827750Y-9930000D01*
X12777750Y-9880000D01*
X12727750Y-9930000D01*
X12777750Y-9980000D01*
X12777750Y-10430000D02*
X12827750Y-10380000D01*
X12777750Y-10330000D01*
X12727750Y-10380000D01*
X12777750Y-10430000D01*
X12777750Y-14410000D02*
X12827750Y-14360000D01*
X12777750Y-14310000D01*
X12727750Y-14360000D01*
X12777750Y-14410000D01*
X12777750Y-14860000D02*
X12827750Y-14810000D01*
X12777750Y-14760000D01*
X12727750Y-14810000D01*
X12777750Y-14860000D01*
X14243750Y-5501768D02*
X14293750Y-5451768D01*
X14243750Y-5401768D01*
X14193750Y-5451768D01*
X14243750Y-5501768D01*
X14243750Y-5851768D02*
X14293750Y-5801768D01*
X14243750Y-5751768D01*
X14193750Y-5801768D01*
X14243750Y-5851768D01*
X14243750Y-9931768D02*
X14293750Y-9881768D01*
X14243750Y-9831768D01*
X14193750Y-9881768D01*
X14243750Y-9931768D01*
X14243750Y-10281768D02*
X14293750Y-10231768D01*
X14243750Y-10181768D01*
X14193750Y-10231768D01*
X14243750Y-10281768D01*
X14243750Y-14361768D02*
X14293750Y-14311768D01*
X14243750Y-14261768D01*
X14193750Y-14311768D01*
X14243750Y-14361768D01*
X14243750Y-14711768D02*
X14293750Y-14661768D01*
X14243750Y-14611768D01*
X14193750Y-14661768D01*
X14243750Y-14711768D01*
X16209750Y-5090000D02*
X16259750Y-5040000D01*
X16209750Y-4990000D01*
X16159750Y-5040000D01*
X16209750Y-5090000D01*
X16209750Y-9520000D02*
X16259750Y-9470000D01*
X16209750Y-9420000D01*
X16159750Y-9470000D01*
X16209750Y-9520000D01*
X16209750Y-13950000D02*
X16259750Y-13900000D01*
X16209750Y-13850000D01*
X16159750Y-13900000D01*
X16209750Y-13950000D01*
X16243750Y-3050000D02*
X16293750Y-3000000D01*
X16243750Y-2950000D01*
X16193750Y-3000000D01*
X16243750Y-3050000D01*
X16243750Y-7480000D02*
X16293750Y-7430000D01*
X16243750Y-7380000D01*
X16193750Y-7430000D01*
X16243750Y-7480000D01*
X16243750Y-11910000D02*
X16293750Y-11860000D01*
X16243750Y-11810000D01*
X16193750Y-11860000D01*
X16243750Y-11910000D01*
X16463750Y-5090000D02*
X16513750Y-5040000D01*
X16463750Y-4990000D01*
X16413750Y-5040000D01*
X16463750Y-5090000D01*
X16463750Y-9520000D02*
X16513750Y-9470000D01*
X16463750Y-9420000D01*
X16413750Y-9470000D01*
X16463750Y-9520000D01*
X16463750Y-13950000D02*
X16513750Y-13900000D01*
X16463750Y-13850000D01*
X16413750Y-13900000D01*
X16463750Y-13950000D01*
X16497750Y-3050000D02*
X16547750Y-3000000D01*
X16497750Y-2950000D01*
X16447750Y-3000000D01*
X16497750Y-3050000D01*
X16497750Y-7480000D02*
X16547750Y-7430000D01*
X16497750Y-7380000D01*
X16447750Y-7430000D01*
X16497750Y-7480000D01*
X16497750Y-11910000D02*
X16547750Y-11860000D01*
X16497750Y-11810000D01*
X16447750Y-11860000D01*
X16497750Y-11910000D01*
X16717750Y-5090000D02*
X16767750Y-5040000D01*
X16717750Y-4990000D01*
X16667750Y-5040000D01*
X16717750Y-5090000D01*
X16717750Y-9520000D02*
X16767750Y-9470000D01*
X16717750Y-9420000D01*
X16667750Y-9470000D01*
X16717750Y-9520000D01*
X16717750Y-13950000D02*
X16767750Y-13900000D01*
X16717750Y-13850000D01*
X16667750Y-13900000D01*
X16717750Y-13950000D01*
X16751750Y-3050000D02*
X16801750Y-3000000D01*
X16751750Y-2950000D01*
X16701750Y-3000000D01*
X16751750Y-3050000D01*
X16751750Y-7480000D02*
X16801750Y-7430000D01*
X16751750Y-7380000D01*
X16701750Y-7430000D01*
X16751750Y-7480000D01*
X16751750Y-11910000D02*
X16801750Y-11860000D01*
X16751750Y-11810000D01*
X16701750Y-11860000D01*
X16751750Y-11910000D01*
D12*
X13363250Y-5311000D02*
X13473250Y-5421000D01*
X13473250Y-5311000D02*
X13363250Y-5421000D01*
X13473250Y-5366000D02*
G75*
G03*
X13473250Y-5366000I-55000J0D01*
G01*
X13363250Y-5565000D02*
X13473250Y-5675000D01*
X13473250Y-5565000D02*
X13363250Y-5675000D01*
X13473250Y-5620000D02*
G75*
G03*
X13473250Y-5620000I-55000J0D01*
G01*
X13363250Y-5819000D02*
X13473250Y-5929000D01*
X13473250Y-5819000D02*
X13363250Y-5929000D01*
X13473250Y-5874000D02*
G75*
G03*
X13473250Y-5874000I-55000J0D01*
G01*
X13363250Y-9741000D02*
X13473250Y-9851000D01*
X13473250Y-9741000D02*
X13363250Y-9851000D01*
X13473250Y-9796000D02*
G75*
G03*
X13473250Y-9796000I-55000J0D01*
G01*
X13363250Y-9995000D02*
X13473250Y-10105000D01*
X13473250Y-9995000D02*
X13363250Y-10105000D01*
X13473250Y-10050000D02*
G75*
G03*
X13473250Y-10050000I-55000J0D01*
G01*
X13363250Y-10249000D02*
X13473250Y-10359000D01*
X13473250Y-10249000D02*
X13363250Y-10359000D01*
X13473250Y-10304000D02*
G75*
G03*
X13473250Y-10304000I-55000J0D01*
G01*
X13363250Y-14171000D02*
X13473250Y-14281000D01*
X13473250Y-14171000D02*
X13363250Y-14281000D01*
X13473250Y-14226000D02*
G75*
G03*
X13473250Y-14226000I-55000J0D01*
G01*
X13363250Y-14425000D02*
X13473250Y-14535000D01*
X13473250Y-14425000D02*
X13363250Y-14535000D01*
X13473250Y-14480000D02*
G75*
G03*
X13473250Y-14480000I-55000J0D01*
G01*
X13363250Y-14679000D02*
X13473250Y-14789000D01*
X13473250Y-14679000D02*
X13363250Y-14789000D01*
X13473250Y-14734000D02*
G75*
G03*
X13473250Y-14734000I-55000J0D01*
G01*
D13*
X15781250Y-2168500D02*
X15921250Y-2308500D01*
X15921250Y-2168500D02*
X15781250Y-2308500D01*
X15851250Y-2168500D02*
X15851250Y-2308500D01*
X15781250Y-2238500D02*
X15921250Y-2238500D01*
X15781250Y-3791500D02*
X15921250Y-3931500D01*
X15921250Y-3791500D02*
X15781250Y-3931500D01*
X15851250Y-3791500D02*
X15851250Y-3931500D01*
X15781250Y-3861500D02*
X15921250Y-3861500D01*
X15781250Y-4243500D02*
X15921250Y-4383500D01*
X15921250Y-4243500D02*
X15781250Y-4383500D01*
X15851250Y-4243500D02*
X15851250Y-4383500D01*
X15781250Y-4313500D02*
X15921250Y-4313500D01*
X15781250Y-5866500D02*
X15921250Y-6006500D01*
X15921250Y-5866500D02*
X15781250Y-6006500D01*
X15851250Y-5866500D02*
X15851250Y-6006500D01*
X15781250Y-5936500D02*
X15921250Y-5936500D01*
X15781250Y-6598500D02*
X15921250Y-6738500D01*
X15921250Y-6598500D02*
X15781250Y-6738500D01*
X15851250Y-6598500D02*
X15851250Y-6738500D01*
X15781250Y-6668500D02*
X15921250Y-6668500D01*
X15781250Y-8221500D02*
X15921250Y-8361500D01*
X15921250Y-8221500D02*
X15781250Y-8361500D01*
X15851250Y-8221500D02*
X15851250Y-8361500D01*
X15781250Y-8291500D02*
X15921250Y-8291500D01*
X15781250Y-8673500D02*
X15921250Y-8813500D01*
X15921250Y-8673500D02*
X15781250Y-8813500D01*
X15851250Y-8673500D02*
X15851250Y-8813500D01*
X15781250Y-8743500D02*
X15921250Y-8743500D01*
X15781250Y-10296500D02*
X15921250Y-10436500D01*
X15921250Y-10296500D02*
X15781250Y-10436500D01*
X15851250Y-10296500D02*
X15851250Y-10436500D01*
X15781250Y-10366500D02*
X15921250Y-10366500D01*
X15781250Y-11028500D02*
X15921250Y-11168500D01*
X15921250Y-11028500D02*
X15781250Y-11168500D01*
X15851250Y-11028500D02*
X15851250Y-11168500D01*
X15781250Y-11098500D02*
X15921250Y-11098500D01*
X15781250Y-12651500D02*
X15921250Y-12791500D01*
X15921250Y-12651500D02*
X15781250Y-12791500D01*
X15851250Y-12651500D02*
X15851250Y-12791500D01*
X15781250Y-12721500D02*
X15921250Y-12721500D01*
X15781250Y-13103500D02*
X15921250Y-13243500D01*
X15921250Y-13103500D02*
X15781250Y-13243500D01*
X15851250Y-13103500D02*
X15851250Y-13243500D01*
X15781250Y-13173500D02*
X15921250Y-13173500D01*
X15781250Y-14726500D02*
X15921250Y-14866500D01*
X15921250Y-14726500D02*
X15781250Y-14866500D01*
X15851250Y-14726500D02*
X15851250Y-14866500D01*
X15781250Y-14796500D02*
X15921250Y-14796500D01*
X16416250Y-2168500D02*
X16556250Y-2308500D01*
X16556250Y-2168500D02*
X16416250Y-2308500D01*
X16486250Y-2168500D02*
X16486250Y-2308500D01*
X16416250Y-2238500D02*
X16556250Y-2238500D01*
X16416250Y-3791500D02*
X16556250Y-3931500D01*
X16556250Y-3791500D02*
X16416250Y-3931500D01*
X16486250Y-3791500D02*
X16486250Y-3931500D01*
X16416250Y-3861500D02*
X16556250Y-3861500D01*
X16416250Y-4243500D02*
X16556250Y-4383500D01*
X16556250Y-4243500D02*
X16416250Y-4383500D01*
X16486250Y-4243500D02*
X16486250Y-4383500D01*
X16416250Y-4313500D02*
X16556250Y-4313500D01*
X16416250Y-5866500D02*
X16556250Y-6006500D01*
X16556250Y-5866500D02*
X16416250Y-6006500D01*
X16486250Y-5866500D02*
X16486250Y-6006500D01*
X16416250Y-5936500D02*
X16556250Y-5936500D01*
X16416250Y-6598500D02*
X16556250Y-6738500D01*
X16556250Y-6598500D02*
X16416250Y-6738500D01*
X16486250Y-6598500D02*
X16486250Y-6738500D01*
X16416250Y-6668500D02*
X16556250Y-6668500D01*
X16416250Y-8221500D02*
X16556250Y-8361500D01*
X16556250Y-8221500D02*
X16416250Y-8361500D01*
X16486250Y-8221500D02*
X16486250Y-8361500D01*
X16416250Y-8291500D02*
X16556250Y-8291500D01*
X16416250Y-8673500D02*
X16556250Y-8813500D01*
X16556250Y-8673500D02*
X16416250Y-8813500D01*
X16486250Y-8673500D02*
X16486250Y-8813500D01*
X16416250Y-8743500D02*
X16556250Y-8743500D01*
X16416250Y-10296500D02*
X16556250Y-10436500D01*
X16556250Y-10296500D02*
X16416250Y-10436500D01*
X16486250Y-10296500D02*
X16486250Y-10436500D01*
X16416250Y-10366500D02*
X16556250Y-10366500D01*
X16416250Y-11028500D02*
X16556250Y-11168500D01*
X16556250Y-11028500D02*
X16416250Y-11168500D01*
X16486250Y-11028500D02*
X16486250Y-11168500D01*
X16416250Y-11098500D02*
X16556250Y-11098500D01*
X16416250Y-12651500D02*
X16556250Y-12791500D01*
X16556250Y-12651500D02*
X16416250Y-12791500D01*
X16486250Y-12651500D02*
X16486250Y-12791500D01*
X16416250Y-12721500D02*
X16556250Y-12721500D01*
X16416250Y-13103500D02*
X16556250Y-13243500D01*
X16556250Y-13103500D02*
X16416250Y-13243500D01*
X16486250Y-13103500D02*
X16486250Y-13243500D01*
X16416250Y-13173500D02*
X16556250Y-13173500D01*
X16416250Y-14726500D02*
X16556250Y-14866500D01*
X16556250Y-14726500D02*
X16416250Y-14866500D01*
X16486250Y-14726500D02*
X16486250Y-14866500D01*
X16416250Y-14796500D02*
X16556250Y-14796500D01*
X17051250Y-2168500D02*
X17191250Y-2308500D01*
X17191250Y-2168500D02*
X17051250Y-2308500D01*
X17121250Y-2168500D02*
X17121250Y-2308500D01*
X17051250Y-2238500D02*
X17191250Y-2238500D01*
X17051250Y-3791500D02*
X17191250Y-3931500D01*
X17191250Y-3791500D02*
X17051250Y-3931500D01*
X17121250Y-3791500D02*
X17121250Y-3931500D01*
X17051250Y-3861500D02*
X17191250Y-3861500D01*
X17051250Y-4243500D02*
X17191250Y-4383500D01*
X17191250Y-4243500D02*
X17051250Y-4383500D01*
X17121250Y-4243500D02*
X17121250Y-4383500D01*
X17051250Y-4313500D02*
X17191250Y-4313500D01*
X17051250Y-5866500D02*
X17191250Y-6006500D01*
X17191250Y-5866500D02*
X17051250Y-6006500D01*
X17121250Y-5866500D02*
X17121250Y-6006500D01*
X17051250Y-5936500D02*
X17191250Y-5936500D01*
X17051250Y-6598500D02*
X17191250Y-6738500D01*
X17191250Y-6598500D02*
X17051250Y-6738500D01*
X17121250Y-6598500D02*
X17121250Y-6738500D01*
X17051250Y-6668500D02*
X17191250Y-6668500D01*
X17051250Y-8221500D02*
X17191250Y-8361500D01*
X17191250Y-8221500D02*
X17051250Y-8361500D01*
X17121250Y-8221500D02*
X17121250Y-8361500D01*
X17051250Y-8291500D02*
X17191250Y-8291500D01*
X17051250Y-8673500D02*
X17191250Y-8813500D01*
X17191250Y-8673500D02*
X17051250Y-8813500D01*
X17121250Y-8673500D02*
X17121250Y-8813500D01*
X17051250Y-8743500D02*
X17191250Y-8743500D01*
X17051250Y-10296500D02*
X17191250Y-10436500D01*
X17191250Y-10296500D02*
X17051250Y-10436500D01*
X17121250Y-10296500D02*
X17121250Y-10436500D01*
X17051250Y-10366500D02*
X17191250Y-10366500D01*
X17051250Y-11028500D02*
X17191250Y-11168500D01*
X17191250Y-11028500D02*
X17051250Y-11168500D01*
X17121250Y-11028500D02*
X17121250Y-11168500D01*
X17051250Y-11098500D02*
X17191250Y-11098500D01*
X17051250Y-12651500D02*
X17191250Y-12791500D01*
X17191250Y-12651500D02*
X17051250Y-12791500D01*
X17121250Y-12651500D02*
X17121250Y-12791500D01*
X17051250Y-12721500D02*
X17191250Y-12721500D01*
X17051250Y-13103500D02*
X17191250Y-13243500D01*
X17191250Y-13103500D02*
X17051250Y-13243500D01*
X17121250Y-13103500D02*
X17121250Y-13243500D01*
X17051250Y-13173500D02*
X17191250Y-13173500D01*
X17051250Y-14726500D02*
X17191250Y-14866500D01*
X17191250Y-14726500D02*
X17051250Y-14866500D01*
X17121250Y-14726500D02*
X17121250Y-14866500D01*
X17051250Y-14796500D02*
X17191250Y-14796500D01*
D11*
X12519527Y-15406484D02*
X12519527Y-15206484D01*
X12519527Y-15206484D02*
X12567146Y-15206484D01*
X12567146Y-15206484D02*
X12595717Y-15216008D01*
X12595717Y-15216008D02*
X12614765Y-15235055D01*
X12614765Y-15235055D02*
X12624289Y-15254103D01*
X12624289Y-15254103D02*
X12633812Y-15292198D01*
X12633812Y-15292198D02*
X12633812Y-15320769D01*
X12633812Y-15320769D02*
X12624289Y-15358865D01*
X12624289Y-15358865D02*
X12614765Y-15377912D01*
X12614765Y-15377912D02*
X12595717Y-15396960D01*
X12595717Y-15396960D02*
X12567146Y-15406484D01*
X12567146Y-15406484D02*
X12519527Y-15406484D01*
X12719527Y-15406484D02*
X12719527Y-15273150D01*
X12719527Y-15311246D02*
X12729051Y-15292198D01*
X12729051Y-15292198D02*
X12738574Y-15282674D01*
X12738574Y-15282674D02*
X12757622Y-15273150D01*
X12757622Y-15273150D02*
X12776670Y-15273150D01*
X12843336Y-15406484D02*
X12843336Y-15273150D01*
X12843336Y-15206484D02*
X12833812Y-15216008D01*
X12833812Y-15216008D02*
X12843336Y-15225531D01*
X12843336Y-15225531D02*
X12852860Y-15216008D01*
X12852860Y-15216008D02*
X12843336Y-15206484D01*
X12843336Y-15206484D02*
X12843336Y-15225531D01*
X12967146Y-15406484D02*
X12948098Y-15396960D01*
X12948098Y-15396960D02*
X12938574Y-15377912D01*
X12938574Y-15377912D02*
X12938574Y-15206484D01*
X13071908Y-15406484D02*
X13052860Y-15396960D01*
X13052860Y-15396960D02*
X13043336Y-15377912D01*
X13043336Y-15377912D02*
X13043336Y-15206484D01*
X13300479Y-15406484D02*
X13300479Y-15206484D01*
X13300479Y-15206484D02*
X13367146Y-15349341D01*
X13367146Y-15349341D02*
X13433812Y-15206484D01*
X13433812Y-15206484D02*
X13433812Y-15406484D01*
X13614765Y-15406484D02*
X13614765Y-15301722D01*
X13614765Y-15301722D02*
X13605241Y-15282674D01*
X13605241Y-15282674D02*
X13586193Y-15273150D01*
X13586193Y-15273150D02*
X13548098Y-15273150D01*
X13548098Y-15273150D02*
X13529051Y-15282674D01*
X13614765Y-15396960D02*
X13595717Y-15406484D01*
X13595717Y-15406484D02*
X13548098Y-15406484D01*
X13548098Y-15406484D02*
X13529051Y-15396960D01*
X13529051Y-15396960D02*
X13519527Y-15377912D01*
X13519527Y-15377912D02*
X13519527Y-15358865D01*
X13519527Y-15358865D02*
X13529051Y-15339817D01*
X13529051Y-15339817D02*
X13548098Y-15330293D01*
X13548098Y-15330293D02*
X13595717Y-15330293D01*
X13595717Y-15330293D02*
X13614765Y-15320769D01*
X13710003Y-15273150D02*
X13710003Y-15473150D01*
X13710003Y-15282674D02*
X13729051Y-15273150D01*
X13729051Y-15273150D02*
X13767146Y-15273150D01*
X13767146Y-15273150D02*
X13786193Y-15282674D01*
X13786193Y-15282674D02*
X13795717Y-15292198D01*
X13795717Y-15292198D02*
X13805241Y-15311246D01*
X13805241Y-15311246D02*
X13805241Y-15368388D01*
X13805241Y-15368388D02*
X13795717Y-15387436D01*
X13795717Y-15387436D02*
X13786193Y-15396960D01*
X13786193Y-15396960D02*
X13767146Y-15406484D01*
X13767146Y-15406484D02*
X13729051Y-15406484D01*
X13729051Y-15406484D02*
X13710003Y-15396960D01*
X13890955Y-15387436D02*
X13900479Y-15396960D01*
X13900479Y-15396960D02*
X13890955Y-15406484D01*
X13890955Y-15406484D02*
X13881432Y-15396960D01*
X13881432Y-15396960D02*
X13890955Y-15387436D01*
X13890955Y-15387436D02*
X13890955Y-15406484D01*
X13890955Y-15282674D02*
X13900479Y-15292198D01*
X13900479Y-15292198D02*
X13890955Y-15301722D01*
X13890955Y-15301722D02*
X13881432Y-15292198D01*
X13881432Y-15292198D02*
X13890955Y-15282674D01*
X13890955Y-15282674D02*
X13890955Y-15301722D01*
D10*
X12188750Y-15700000D02*
X12258750Y-15770000D01*
X12258750Y-15700000D02*
X12188750Y-15770000D01*
D11*
X12557622Y-15626484D02*
X12576670Y-15626484D01*
X12576670Y-15626484D02*
X12595717Y-15636008D01*
X12595717Y-15636008D02*
X12605241Y-15645531D01*
X12605241Y-15645531D02*
X12614765Y-15664579D01*
X12614765Y-15664579D02*
X12624289Y-15702674D01*
X12624289Y-15702674D02*
X12624289Y-15750293D01*
X12624289Y-15750293D02*
X12614765Y-15788388D01*
X12614765Y-15788388D02*
X12605241Y-15807436D01*
X12605241Y-15807436D02*
X12595717Y-15816960D01*
X12595717Y-15816960D02*
X12576670Y-15826484D01*
X12576670Y-15826484D02*
X12557622Y-15826484D01*
X12557622Y-15826484D02*
X12538574Y-15816960D01*
X12538574Y-15816960D02*
X12529051Y-15807436D01*
X12529051Y-15807436D02*
X12519527Y-15788388D01*
X12519527Y-15788388D02*
X12510003Y-15750293D01*
X12510003Y-15750293D02*
X12510003Y-15702674D01*
X12510003Y-15702674D02*
X12519527Y-15664579D01*
X12519527Y-15664579D02*
X12529051Y-15645531D01*
X12529051Y-15645531D02*
X12538574Y-15636008D01*
X12538574Y-15636008D02*
X12557622Y-15626484D01*
X12710003Y-15807436D02*
X12719527Y-15816960D01*
X12719527Y-15816960D02*
X12710003Y-15826484D01*
X12710003Y-15826484D02*
X12700479Y-15816960D01*
X12700479Y-15816960D02*
X12710003Y-15807436D01*
X12710003Y-15807436D02*
X12710003Y-15826484D01*
X12786193Y-15626484D02*
X12919527Y-15626484D01*
X12919527Y-15626484D02*
X12833812Y-15826484D01*
X13033812Y-15626484D02*
X13052860Y-15626484D01*
X13052860Y-15626484D02*
X13071908Y-15636008D01*
X13071908Y-15636008D02*
X13081432Y-15645531D01*
X13081432Y-15645531D02*
X13090955Y-15664579D01*
X13090955Y-15664579D02*
X13100479Y-15702674D01*
X13100479Y-15702674D02*
X13100479Y-15750293D01*
X13100479Y-15750293D02*
X13090955Y-15788388D01*
X13090955Y-15788388D02*
X13081432Y-15807436D01*
X13081432Y-15807436D02*
X13071908Y-15816960D01*
X13071908Y-15816960D02*
X13052860Y-15826484D01*
X13052860Y-15826484D02*
X13033812Y-15826484D01*
X13033812Y-15826484D02*
X13014765Y-15816960D01*
X13014765Y-15816960D02*
X13005241Y-15807436D01*
X13005241Y-15807436D02*
X12995717Y-15788388D01*
X12995717Y-15788388D02*
X12986193Y-15750293D01*
X12986193Y-15750293D02*
X12986193Y-15702674D01*
X12986193Y-15702674D02*
X12995717Y-15664579D01*
X12995717Y-15664579D02*
X13005241Y-15645531D01*
X13005241Y-15645531D02*
X13014765Y-15636008D01*
X13014765Y-15636008D02*
X13033812Y-15626484D01*
X13224289Y-15626484D02*
X13243336Y-15626484D01*
X13243336Y-15626484D02*
X13262384Y-15636008D01*
X13262384Y-15636008D02*
X13271908Y-15645531D01*
X13271908Y-15645531D02*
X13281432Y-15664579D01*
X13281432Y-15664579D02*
X13290955Y-15702674D01*
X13290955Y-15702674D02*
X13290955Y-15750293D01*
X13290955Y-15750293D02*
X13281432Y-15788388D01*
X13281432Y-15788388D02*
X13271908Y-15807436D01*
X13271908Y-15807436D02*
X13262384Y-15816960D01*
X13262384Y-15816960D02*
X13243336Y-15826484D01*
X13243336Y-15826484D02*
X13224289Y-15826484D01*
X13224289Y-15826484D02*
X13205241Y-15816960D01*
X13205241Y-15816960D02*
X13195717Y-15807436D01*
X13195717Y-15807436D02*
X13186193Y-15788388D01*
X13186193Y-15788388D02*
X13176670Y-15750293D01*
X13176670Y-15750293D02*
X13176670Y-15702674D01*
X13176670Y-15702674D02*
X13186193Y-15664579D01*
X13186193Y-15664579D02*
X13195717Y-15645531D01*
X13195717Y-15645531D02*
X13205241Y-15636008D01*
X13205241Y-15636008D02*
X13224289Y-15626484D01*
X13376670Y-15826484D02*
X13376670Y-15693150D01*
X13376670Y-15712198D02*
X13386193Y-15702674D01*
X13386193Y-15702674D02*
X13405241Y-15693150D01*
X13405241Y-15693150D02*
X13433813Y-15693150D01*
X13433813Y-15693150D02*
X13452860Y-15702674D01*
X13452860Y-15702674D02*
X13462384Y-15721722D01*
X13462384Y-15721722D02*
X13462384Y-15826484D01*
X13462384Y-15721722D02*
X13471908Y-15702674D01*
X13471908Y-15702674D02*
X13490955Y-15693150D01*
X13490955Y-15693150D02*
X13519527Y-15693150D01*
X13519527Y-15693150D02*
X13538574Y-15702674D01*
X13538574Y-15702674D02*
X13548098Y-15721722D01*
X13548098Y-15721722D02*
X13548098Y-15826484D01*
X13643336Y-15826484D02*
X13643336Y-15693150D01*
X13643336Y-15712198D02*
X13652860Y-15702674D01*
X13652860Y-15702674D02*
X13671908Y-15693150D01*
X13671908Y-15693150D02*
X13700479Y-15693150D01*
X13700479Y-15693150D02*
X13719527Y-15702674D01*
X13719527Y-15702674D02*
X13729051Y-15721722D01*
X13729051Y-15721722D02*
X13729051Y-15826484D01*
X13729051Y-15721722D02*
X13738574Y-15702674D01*
X13738574Y-15702674D02*
X13757622Y-15693150D01*
X13757622Y-15693150D02*
X13786193Y-15693150D01*
X13786193Y-15693150D02*
X13805241Y-15702674D01*
X13805241Y-15702674D02*
X13814765Y-15721722D01*
X13814765Y-15721722D02*
X13814765Y-15826484D01*
X14205241Y-15616960D02*
X14033813Y-15874103D01*
X14462384Y-15626484D02*
X14481432Y-15626484D01*
X14481432Y-15626484D02*
X14500479Y-15636008D01*
X14500479Y-15636008D02*
X14510003Y-15645531D01*
X14510003Y-15645531D02*
X14519527Y-15664579D01*
X14519527Y-15664579D02*
X14529051Y-15702674D01*
X14529051Y-15702674D02*
X14529051Y-15750293D01*
X14529051Y-15750293D02*
X14519527Y-15788388D01*
X14519527Y-15788388D02*
X14510003Y-15807436D01*
X14510003Y-15807436D02*
X14500479Y-15816960D01*
X14500479Y-15816960D02*
X14481432Y-15826484D01*
X14481432Y-15826484D02*
X14462384Y-15826484D01*
X14462384Y-15826484D02*
X14443336Y-15816960D01*
X14443336Y-15816960D02*
X14433813Y-15807436D01*
X14433813Y-15807436D02*
X14424289Y-15788388D01*
X14424289Y-15788388D02*
X14414765Y-15750293D01*
X14414765Y-15750293D02*
X14414765Y-15702674D01*
X14414765Y-15702674D02*
X14424289Y-15664579D01*
X14424289Y-15664579D02*
X14433813Y-15645531D01*
X14433813Y-15645531D02*
X14443336Y-15636008D01*
X14443336Y-15636008D02*
X14462384Y-15626484D01*
X14614765Y-15807436D02*
X14624289Y-15816960D01*
X14624289Y-15816960D02*
X14614765Y-15826484D01*
X14614765Y-15826484D02*
X14605241Y-15816960D01*
X14605241Y-15816960D02*
X14614765Y-15807436D01*
X14614765Y-15807436D02*
X14614765Y-15826484D01*
X14748098Y-15626484D02*
X14767146Y-15626484D01*
X14767146Y-15626484D02*
X14786194Y-15636008D01*
X14786194Y-15636008D02*
X14795717Y-15645531D01*
X14795717Y-15645531D02*
X14805241Y-15664579D01*
X14805241Y-15664579D02*
X14814765Y-15702674D01*
X14814765Y-15702674D02*
X14814765Y-15750293D01*
X14814765Y-15750293D02*
X14805241Y-15788388D01*
X14805241Y-15788388D02*
X14795717Y-15807436D01*
X14795717Y-15807436D02*
X14786194Y-15816960D01*
X14786194Y-15816960D02*
X14767146Y-15826484D01*
X14767146Y-15826484D02*
X14748098Y-15826484D01*
X14748098Y-15826484D02*
X14729051Y-15816960D01*
X14729051Y-15816960D02*
X14719527Y-15807436D01*
X14719527Y-15807436D02*
X14710003Y-15788388D01*
X14710003Y-15788388D02*
X14700479Y-15750293D01*
X14700479Y-15750293D02*
X14700479Y-15702674D01*
X14700479Y-15702674D02*
X14710003Y-15664579D01*
X14710003Y-15664579D02*
X14719527Y-15645531D01*
X14719527Y-15645531D02*
X14729051Y-15636008D01*
X14729051Y-15636008D02*
X14748098Y-15626484D01*
X14890956Y-15645531D02*
X14900479Y-15636008D01*
X14900479Y-15636008D02*
X14919527Y-15626484D01*
X14919527Y-15626484D02*
X14967146Y-15626484D01*
X14967146Y-15626484D02*
X14986194Y-15636008D01*
X14986194Y-15636008D02*
X14995717Y-15645531D01*
X14995717Y-15645531D02*
X15005241Y-15664579D01*
X15005241Y-15664579D02*
X15005241Y-15683627D01*
X15005241Y-15683627D02*
X14995717Y-15712198D01*
X14995717Y-15712198D02*
X14881432Y-15826484D01*
X14881432Y-15826484D02*
X15005241Y-15826484D01*
X15071908Y-15626484D02*
X15205241Y-15626484D01*
X15205241Y-15626484D02*
X15119527Y-15826484D01*
X15367146Y-15626484D02*
X15329051Y-15626484D01*
X15329051Y-15626484D02*
X15310003Y-15636008D01*
X15310003Y-15636008D02*
X15300479Y-15645531D01*
X15300479Y-15645531D02*
X15281432Y-15674103D01*
X15281432Y-15674103D02*
X15271908Y-15712198D01*
X15271908Y-15712198D02*
X15271908Y-15788388D01*
X15271908Y-15788388D02*
X15281432Y-15807436D01*
X15281432Y-15807436D02*
X15290956Y-15816960D01*
X15290956Y-15816960D02*
X15310003Y-15826484D01*
X15310003Y-15826484D02*
X15348098Y-15826484D01*
X15348098Y-15826484D02*
X15367146Y-15816960D01*
X15367146Y-15816960D02*
X15376670Y-15807436D01*
X15376670Y-15807436D02*
X15386194Y-15788388D01*
X15386194Y-15788388D02*
X15386194Y-15740769D01*
X15386194Y-15740769D02*
X15376670Y-15721722D01*
X15376670Y-15721722D02*
X15367146Y-15712198D01*
X15367146Y-15712198D02*
X15348098Y-15702674D01*
X15348098Y-15702674D02*
X15310003Y-15702674D01*
X15310003Y-15702674D02*
X15290956Y-15712198D01*
X15290956Y-15712198D02*
X15281432Y-15721722D01*
X15281432Y-15721722D02*
X15271908Y-15740769D01*
X15462384Y-15626484D02*
X15462384Y-15664579D01*
X15538575Y-15626484D02*
X15538575Y-15664579D01*
X15833813Y-15902674D02*
X15824289Y-15893150D01*
X15824289Y-15893150D02*
X15805241Y-15864579D01*
X15805241Y-15864579D02*
X15795718Y-15845531D01*
X15795718Y-15845531D02*
X15786194Y-15816960D01*
X15786194Y-15816960D02*
X15776670Y-15769341D01*
X15776670Y-15769341D02*
X15776670Y-15731246D01*
X15776670Y-15731246D02*
X15786194Y-15683627D01*
X15786194Y-15683627D02*
X15795718Y-15655055D01*
X15795718Y-15655055D02*
X15805241Y-15636008D01*
X15805241Y-15636008D02*
X15824289Y-15607436D01*
X15824289Y-15607436D02*
X15833813Y-15597912D01*
X15900479Y-15645531D02*
X15910003Y-15636008D01*
X15910003Y-15636008D02*
X15929051Y-15626484D01*
X15929051Y-15626484D02*
X15976670Y-15626484D01*
X15976670Y-15626484D02*
X15995718Y-15636008D01*
X15995718Y-15636008D02*
X16005241Y-15645531D01*
X16005241Y-15645531D02*
X16014765Y-15664579D01*
X16014765Y-15664579D02*
X16014765Y-15683627D01*
X16014765Y-15683627D02*
X16005241Y-15712198D01*
X16005241Y-15712198D02*
X15890956Y-15826484D01*
X15890956Y-15826484D02*
X16014765Y-15826484D01*
X16186194Y-15693150D02*
X16186194Y-15826484D01*
X16138575Y-15616960D02*
X16090956Y-15759817D01*
X16090956Y-15759817D02*
X16214765Y-15759817D01*
X16443337Y-15826484D02*
X16443337Y-15626484D01*
X16529051Y-15826484D02*
X16529051Y-15721722D01*
X16529051Y-15721722D02*
X16519527Y-15702674D01*
X16519527Y-15702674D02*
X16500480Y-15693150D01*
X16500480Y-15693150D02*
X16471908Y-15693150D01*
X16471908Y-15693150D02*
X16452860Y-15702674D01*
X16452860Y-15702674D02*
X16443337Y-15712198D01*
X16652860Y-15826484D02*
X16633813Y-15816960D01*
X16633813Y-15816960D02*
X16624289Y-15807436D01*
X16624289Y-15807436D02*
X16614765Y-15788388D01*
X16614765Y-15788388D02*
X16614765Y-15731246D01*
X16614765Y-15731246D02*
X16624289Y-15712198D01*
X16624289Y-15712198D02*
X16633813Y-15702674D01*
X16633813Y-15702674D02*
X16652860Y-15693150D01*
X16652860Y-15693150D02*
X16681432Y-15693150D01*
X16681432Y-15693150D02*
X16700480Y-15702674D01*
X16700480Y-15702674D02*
X16710003Y-15712198D01*
X16710003Y-15712198D02*
X16719527Y-15731246D01*
X16719527Y-15731246D02*
X16719527Y-15788388D01*
X16719527Y-15788388D02*
X16710003Y-15807436D01*
X16710003Y-15807436D02*
X16700480Y-15816960D01*
X16700480Y-15816960D02*
X16681432Y-15826484D01*
X16681432Y-15826484D02*
X16652860Y-15826484D01*
X16833813Y-15826484D02*
X16814765Y-15816960D01*
X16814765Y-15816960D02*
X16805242Y-15797912D01*
X16805242Y-15797912D02*
X16805242Y-15626484D01*
X16986194Y-15816960D02*
X16967146Y-15826484D01*
X16967146Y-15826484D02*
X16929051Y-15826484D01*
X16929051Y-15826484D02*
X16910003Y-15816960D01*
X16910003Y-15816960D02*
X16900480Y-15797912D01*
X16900480Y-15797912D02*
X16900480Y-15721722D01*
X16900480Y-15721722D02*
X16910003Y-15702674D01*
X16910003Y-15702674D02*
X16929051Y-15693150D01*
X16929051Y-15693150D02*
X16967146Y-15693150D01*
X16967146Y-15693150D02*
X16986194Y-15702674D01*
X16986194Y-15702674D02*
X16995718Y-15721722D01*
X16995718Y-15721722D02*
X16995718Y-15740769D01*
X16995718Y-15740769D02*
X16900480Y-15759817D01*
X17071908Y-15816960D02*
X17090956Y-15826484D01*
X17090956Y-15826484D02*
X17129051Y-15826484D01*
X17129051Y-15826484D02*
X17148099Y-15816960D01*
X17148099Y-15816960D02*
X17157623Y-15797912D01*
X17157623Y-15797912D02*
X17157623Y-15788388D01*
X17157623Y-15788388D02*
X17148099Y-15769341D01*
X17148099Y-15769341D02*
X17129051Y-15759817D01*
X17129051Y-15759817D02*
X17100480Y-15759817D01*
X17100480Y-15759817D02*
X17081432Y-15750293D01*
X17081432Y-15750293D02*
X17071908Y-15731246D01*
X17071908Y-15731246D02*
X17071908Y-15721722D01*
X17071908Y-15721722D02*
X17081432Y-15702674D01*
X17081432Y-15702674D02*
X17100480Y-15693150D01*
X17100480Y-15693150D02*
X17129051Y-15693150D01*
X17129051Y-15693150D02*
X17148099Y-15702674D01*
X17224289Y-15902674D02*
X17233813Y-15893150D01*
X17233813Y-15893150D02*
X17252861Y-15864579D01*
X17252861Y-15864579D02*
X17262384Y-15845531D01*
X17262384Y-15845531D02*
X17271908Y-15816960D01*
X17271908Y-15816960D02*
X17281432Y-15769341D01*
X17281432Y-15769341D02*
X17281432Y-15731246D01*
X17281432Y-15731246D02*
X17271908Y-15683627D01*
X17271908Y-15683627D02*
X17262384Y-15655055D01*
X17262384Y-15655055D02*
X17252861Y-15636008D01*
X17252861Y-15636008D02*
X17233813Y-15607436D01*
X17233813Y-15607436D02*
X17224289Y-15597912D01*
D10*
X12258750Y-15999000D02*
G75*
G03*
X12258750Y-15999000I-37500J0D01*
G01*
D11*
X12557622Y-15890484D02*
X12576670Y-15890484D01*
X12576670Y-15890484D02*
X12595717Y-15900008D01*
X12595717Y-15900008D02*
X12605241Y-15909531D01*
X12605241Y-15909531D02*
X12614765Y-15928579D01*
X12614765Y-15928579D02*
X12624289Y-15966674D01*
X12624289Y-15966674D02*
X12624289Y-16014293D01*
X12624289Y-16014293D02*
X12614765Y-16052388D01*
X12614765Y-16052388D02*
X12605241Y-16071436D01*
X12605241Y-16071436D02*
X12595717Y-16080960D01*
X12595717Y-16080960D02*
X12576670Y-16090484D01*
X12576670Y-16090484D02*
X12557622Y-16090484D01*
X12557622Y-16090484D02*
X12538574Y-16080960D01*
X12538574Y-16080960D02*
X12529051Y-16071436D01*
X12529051Y-16071436D02*
X12519527Y-16052388D01*
X12519527Y-16052388D02*
X12510003Y-16014293D01*
X12510003Y-16014293D02*
X12510003Y-15966674D01*
X12510003Y-15966674D02*
X12519527Y-15928579D01*
X12519527Y-15928579D02*
X12529051Y-15909531D01*
X12529051Y-15909531D02*
X12538574Y-15900008D01*
X12538574Y-15900008D02*
X12557622Y-15890484D01*
X12710003Y-16071436D02*
X12719527Y-16080960D01*
X12719527Y-16080960D02*
X12710003Y-16090484D01*
X12710003Y-16090484D02*
X12700479Y-16080960D01*
X12700479Y-16080960D02*
X12710003Y-16071436D01*
X12710003Y-16071436D02*
X12710003Y-16090484D01*
X12786193Y-15890484D02*
X12919527Y-15890484D01*
X12919527Y-15890484D02*
X12833812Y-16090484D01*
X13090955Y-15890484D02*
X12995717Y-15890484D01*
X12995717Y-15890484D02*
X12986193Y-15985722D01*
X12986193Y-15985722D02*
X12995717Y-15976198D01*
X12995717Y-15976198D02*
X13014765Y-15966674D01*
X13014765Y-15966674D02*
X13062384Y-15966674D01*
X13062384Y-15966674D02*
X13081432Y-15976198D01*
X13081432Y-15976198D02*
X13090955Y-15985722D01*
X13090955Y-15985722D02*
X13100479Y-16004769D01*
X13100479Y-16004769D02*
X13100479Y-16052388D01*
X13100479Y-16052388D02*
X13090955Y-16071436D01*
X13090955Y-16071436D02*
X13081432Y-16080960D01*
X13081432Y-16080960D02*
X13062384Y-16090484D01*
X13062384Y-16090484D02*
X13014765Y-16090484D01*
X13014765Y-16090484D02*
X12995717Y-16080960D01*
X12995717Y-16080960D02*
X12986193Y-16071436D01*
X13224289Y-15890484D02*
X13243336Y-15890484D01*
X13243336Y-15890484D02*
X13262384Y-15900008D01*
X13262384Y-15900008D02*
X13271908Y-15909531D01*
X13271908Y-15909531D02*
X13281432Y-15928579D01*
X13281432Y-15928579D02*
X13290955Y-15966674D01*
X13290955Y-15966674D02*
X13290955Y-16014293D01*
X13290955Y-16014293D02*
X13281432Y-16052388D01*
X13281432Y-16052388D02*
X13271908Y-16071436D01*
X13271908Y-16071436D02*
X13262384Y-16080960D01*
X13262384Y-16080960D02*
X13243336Y-16090484D01*
X13243336Y-16090484D02*
X13224289Y-16090484D01*
X13224289Y-16090484D02*
X13205241Y-16080960D01*
X13205241Y-16080960D02*
X13195717Y-16071436D01*
X13195717Y-16071436D02*
X13186193Y-16052388D01*
X13186193Y-16052388D02*
X13176670Y-16014293D01*
X13176670Y-16014293D02*
X13176670Y-15966674D01*
X13176670Y-15966674D02*
X13186193Y-15928579D01*
X13186193Y-15928579D02*
X13195717Y-15909531D01*
X13195717Y-15909531D02*
X13205241Y-15900008D01*
X13205241Y-15900008D02*
X13224289Y-15890484D01*
X13376670Y-16090484D02*
X13376670Y-15957150D01*
X13376670Y-15976198D02*
X13386193Y-15966674D01*
X13386193Y-15966674D02*
X13405241Y-15957150D01*
X13405241Y-15957150D02*
X13433813Y-15957150D01*
X13433813Y-15957150D02*
X13452860Y-15966674D01*
X13452860Y-15966674D02*
X13462384Y-15985722D01*
X13462384Y-15985722D02*
X13462384Y-16090484D01*
X13462384Y-15985722D02*
X13471908Y-15966674D01*
X13471908Y-15966674D02*
X13490955Y-15957150D01*
X13490955Y-15957150D02*
X13519527Y-15957150D01*
X13519527Y-15957150D02*
X13538574Y-15966674D01*
X13538574Y-15966674D02*
X13548098Y-15985722D01*
X13548098Y-15985722D02*
X13548098Y-16090484D01*
X13643336Y-16090484D02*
X13643336Y-15957150D01*
X13643336Y-15976198D02*
X13652860Y-15966674D01*
X13652860Y-15966674D02*
X13671908Y-15957150D01*
X13671908Y-15957150D02*
X13700479Y-15957150D01*
X13700479Y-15957150D02*
X13719527Y-15966674D01*
X13719527Y-15966674D02*
X13729051Y-15985722D01*
X13729051Y-15985722D02*
X13729051Y-16090484D01*
X13729051Y-15985722D02*
X13738574Y-15966674D01*
X13738574Y-15966674D02*
X13757622Y-15957150D01*
X13757622Y-15957150D02*
X13786193Y-15957150D01*
X13786193Y-15957150D02*
X13805241Y-15966674D01*
X13805241Y-15966674D02*
X13814765Y-15985722D01*
X13814765Y-15985722D02*
X13814765Y-16090484D01*
X14205241Y-15880960D02*
X14033813Y-16138103D01*
X14462384Y-15890484D02*
X14481432Y-15890484D01*
X14481432Y-15890484D02*
X14500479Y-15900008D01*
X14500479Y-15900008D02*
X14510003Y-15909531D01*
X14510003Y-15909531D02*
X14519527Y-15928579D01*
X14519527Y-15928579D02*
X14529051Y-15966674D01*
X14529051Y-15966674D02*
X14529051Y-16014293D01*
X14529051Y-16014293D02*
X14519527Y-16052388D01*
X14519527Y-16052388D02*
X14510003Y-16071436D01*
X14510003Y-16071436D02*
X14500479Y-16080960D01*
X14500479Y-16080960D02*
X14481432Y-16090484D01*
X14481432Y-16090484D02*
X14462384Y-16090484D01*
X14462384Y-16090484D02*
X14443336Y-16080960D01*
X14443336Y-16080960D02*
X14433813Y-16071436D01*
X14433813Y-16071436D02*
X14424289Y-16052388D01*
X14424289Y-16052388D02*
X14414765Y-16014293D01*
X14414765Y-16014293D02*
X14414765Y-15966674D01*
X14414765Y-15966674D02*
X14424289Y-15928579D01*
X14424289Y-15928579D02*
X14433813Y-15909531D01*
X14433813Y-15909531D02*
X14443336Y-15900008D01*
X14443336Y-15900008D02*
X14462384Y-15890484D01*
X14614765Y-16071436D02*
X14624289Y-16080960D01*
X14624289Y-16080960D02*
X14614765Y-16090484D01*
X14614765Y-16090484D02*
X14605241Y-16080960D01*
X14605241Y-16080960D02*
X14614765Y-16071436D01*
X14614765Y-16071436D02*
X14614765Y-16090484D01*
X14748098Y-15890484D02*
X14767146Y-15890484D01*
X14767146Y-15890484D02*
X14786194Y-15900008D01*
X14786194Y-15900008D02*
X14795717Y-15909531D01*
X14795717Y-15909531D02*
X14805241Y-15928579D01*
X14805241Y-15928579D02*
X14814765Y-15966674D01*
X14814765Y-15966674D02*
X14814765Y-16014293D01*
X14814765Y-16014293D02*
X14805241Y-16052388D01*
X14805241Y-16052388D02*
X14795717Y-16071436D01*
X14795717Y-16071436D02*
X14786194Y-16080960D01*
X14786194Y-16080960D02*
X14767146Y-16090484D01*
X14767146Y-16090484D02*
X14748098Y-16090484D01*
X14748098Y-16090484D02*
X14729051Y-16080960D01*
X14729051Y-16080960D02*
X14719527Y-16071436D01*
X14719527Y-16071436D02*
X14710003Y-16052388D01*
X14710003Y-16052388D02*
X14700479Y-16014293D01*
X14700479Y-16014293D02*
X14700479Y-15966674D01*
X14700479Y-15966674D02*
X14710003Y-15928579D01*
X14710003Y-15928579D02*
X14719527Y-15909531D01*
X14719527Y-15909531D02*
X14729051Y-15900008D01*
X14729051Y-15900008D02*
X14748098Y-15890484D01*
X14890956Y-15909531D02*
X14900479Y-15900008D01*
X14900479Y-15900008D02*
X14919527Y-15890484D01*
X14919527Y-15890484D02*
X14967146Y-15890484D01*
X14967146Y-15890484D02*
X14986194Y-15900008D01*
X14986194Y-15900008D02*
X14995717Y-15909531D01*
X14995717Y-15909531D02*
X15005241Y-15928579D01*
X15005241Y-15928579D02*
X15005241Y-15947627D01*
X15005241Y-15947627D02*
X14995717Y-15976198D01*
X14995717Y-15976198D02*
X14881432Y-16090484D01*
X14881432Y-16090484D02*
X15005241Y-16090484D01*
X15100479Y-16090484D02*
X15138575Y-16090484D01*
X15138575Y-16090484D02*
X15157622Y-16080960D01*
X15157622Y-16080960D02*
X15167146Y-16071436D01*
X15167146Y-16071436D02*
X15186194Y-16042865D01*
X15186194Y-16042865D02*
X15195717Y-16004769D01*
X15195717Y-16004769D02*
X15195717Y-15928579D01*
X15195717Y-15928579D02*
X15186194Y-15909531D01*
X15186194Y-15909531D02*
X15176670Y-15900008D01*
X15176670Y-15900008D02*
X15157622Y-15890484D01*
X15157622Y-15890484D02*
X15119527Y-15890484D01*
X15119527Y-15890484D02*
X15100479Y-15900008D01*
X15100479Y-15900008D02*
X15090956Y-15909531D01*
X15090956Y-15909531D02*
X15081432Y-15928579D01*
X15081432Y-15928579D02*
X15081432Y-15976198D01*
X15081432Y-15976198D02*
X15090956Y-15995246D01*
X15090956Y-15995246D02*
X15100479Y-16004769D01*
X15100479Y-16004769D02*
X15119527Y-16014293D01*
X15119527Y-16014293D02*
X15157622Y-16014293D01*
X15157622Y-16014293D02*
X15176670Y-16004769D01*
X15176670Y-16004769D02*
X15186194Y-15995246D01*
X15186194Y-15995246D02*
X15195717Y-15976198D01*
X15376670Y-15890484D02*
X15281432Y-15890484D01*
X15281432Y-15890484D02*
X15271908Y-15985722D01*
X15271908Y-15985722D02*
X15281432Y-15976198D01*
X15281432Y-15976198D02*
X15300479Y-15966674D01*
X15300479Y-15966674D02*
X15348098Y-15966674D01*
X15348098Y-15966674D02*
X15367146Y-15976198D01*
X15367146Y-15976198D02*
X15376670Y-15985722D01*
X15376670Y-15985722D02*
X15386194Y-16004769D01*
X15386194Y-16004769D02*
X15386194Y-16052388D01*
X15386194Y-16052388D02*
X15376670Y-16071436D01*
X15376670Y-16071436D02*
X15367146Y-16080960D01*
X15367146Y-16080960D02*
X15348098Y-16090484D01*
X15348098Y-16090484D02*
X15300479Y-16090484D01*
X15300479Y-16090484D02*
X15281432Y-16080960D01*
X15281432Y-16080960D02*
X15271908Y-16071436D01*
X15462384Y-15890484D02*
X15462384Y-15928579D01*
X15538575Y-15890484D02*
X15538575Y-15928579D01*
X15833813Y-16166674D02*
X15824289Y-16157150D01*
X15824289Y-16157150D02*
X15805241Y-16128579D01*
X15805241Y-16128579D02*
X15795718Y-16109531D01*
X15795718Y-16109531D02*
X15786194Y-16080960D01*
X15786194Y-16080960D02*
X15776670Y-16033341D01*
X15776670Y-16033341D02*
X15776670Y-15995246D01*
X15776670Y-15995246D02*
X15786194Y-15947627D01*
X15786194Y-15947627D02*
X15795718Y-15919055D01*
X15795718Y-15919055D02*
X15805241Y-15900008D01*
X15805241Y-15900008D02*
X15824289Y-15871436D01*
X15824289Y-15871436D02*
X15833813Y-15861912D01*
X15919527Y-16090484D02*
X15957622Y-16090484D01*
X15957622Y-16090484D02*
X15976670Y-16080960D01*
X15976670Y-16080960D02*
X15986194Y-16071436D01*
X15986194Y-16071436D02*
X16005241Y-16042865D01*
X16005241Y-16042865D02*
X16014765Y-16004769D01*
X16014765Y-16004769D02*
X16014765Y-15928579D01*
X16014765Y-15928579D02*
X16005241Y-15909531D01*
X16005241Y-15909531D02*
X15995718Y-15900008D01*
X15995718Y-15900008D02*
X15976670Y-15890484D01*
X15976670Y-15890484D02*
X15938575Y-15890484D01*
X15938575Y-15890484D02*
X15919527Y-15900008D01*
X15919527Y-15900008D02*
X15910003Y-15909531D01*
X15910003Y-15909531D02*
X15900479Y-15928579D01*
X15900479Y-15928579D02*
X15900479Y-15976198D01*
X15900479Y-15976198D02*
X15910003Y-15995246D01*
X15910003Y-15995246D02*
X15919527Y-16004769D01*
X15919527Y-16004769D02*
X15938575Y-16014293D01*
X15938575Y-16014293D02*
X15976670Y-16014293D01*
X15976670Y-16014293D02*
X15995718Y-16004769D01*
X15995718Y-16004769D02*
X16005241Y-15995246D01*
X16005241Y-15995246D02*
X16014765Y-15976198D01*
X16252860Y-16090484D02*
X16252860Y-15890484D01*
X16338575Y-16090484D02*
X16338575Y-15985722D01*
X16338575Y-15985722D02*
X16329051Y-15966674D01*
X16329051Y-15966674D02*
X16310003Y-15957150D01*
X16310003Y-15957150D02*
X16281432Y-15957150D01*
X16281432Y-15957150D02*
X16262384Y-15966674D01*
X16262384Y-15966674D02*
X16252860Y-15976198D01*
X16462384Y-16090484D02*
X16443337Y-16080960D01*
X16443337Y-16080960D02*
X16433813Y-16071436D01*
X16433813Y-16071436D02*
X16424289Y-16052388D01*
X16424289Y-16052388D02*
X16424289Y-15995246D01*
X16424289Y-15995246D02*
X16433813Y-15976198D01*
X16433813Y-15976198D02*
X16443337Y-15966674D01*
X16443337Y-15966674D02*
X16462384Y-15957150D01*
X16462384Y-15957150D02*
X16490956Y-15957150D01*
X16490956Y-15957150D02*
X16510003Y-15966674D01*
X16510003Y-15966674D02*
X16519527Y-15976198D01*
X16519527Y-15976198D02*
X16529051Y-15995246D01*
X16529051Y-15995246D02*
X16529051Y-16052388D01*
X16529051Y-16052388D02*
X16519527Y-16071436D01*
X16519527Y-16071436D02*
X16510003Y-16080960D01*
X16510003Y-16080960D02*
X16490956Y-16090484D01*
X16490956Y-16090484D02*
X16462384Y-16090484D01*
X16643337Y-16090484D02*
X16624289Y-16080960D01*
X16624289Y-16080960D02*
X16614765Y-16061912D01*
X16614765Y-16061912D02*
X16614765Y-15890484D01*
X16795718Y-16080960D02*
X16776670Y-16090484D01*
X16776670Y-16090484D02*
X16738575Y-16090484D01*
X16738575Y-16090484D02*
X16719527Y-16080960D01*
X16719527Y-16080960D02*
X16710003Y-16061912D01*
X16710003Y-16061912D02*
X16710003Y-15985722D01*
X16710003Y-15985722D02*
X16719527Y-15966674D01*
X16719527Y-15966674D02*
X16738575Y-15957150D01*
X16738575Y-15957150D02*
X16776670Y-15957150D01*
X16776670Y-15957150D02*
X16795718Y-15966674D01*
X16795718Y-15966674D02*
X16805242Y-15985722D01*
X16805242Y-15985722D02*
X16805242Y-16004769D01*
X16805242Y-16004769D02*
X16710003Y-16023817D01*
X16881432Y-16080960D02*
X16900480Y-16090484D01*
X16900480Y-16090484D02*
X16938575Y-16090484D01*
X16938575Y-16090484D02*
X16957623Y-16080960D01*
X16957623Y-16080960D02*
X16967146Y-16061912D01*
X16967146Y-16061912D02*
X16967146Y-16052388D01*
X16967146Y-16052388D02*
X16957623Y-16033341D01*
X16957623Y-16033341D02*
X16938575Y-16023817D01*
X16938575Y-16023817D02*
X16910003Y-16023817D01*
X16910003Y-16023817D02*
X16890956Y-16014293D01*
X16890956Y-16014293D02*
X16881432Y-15995246D01*
X16881432Y-15995246D02*
X16881432Y-15985722D01*
X16881432Y-15985722D02*
X16890956Y-15966674D01*
X16890956Y-15966674D02*
X16910003Y-15957150D01*
X16910003Y-15957150D02*
X16938575Y-15957150D01*
X16938575Y-15957150D02*
X16957623Y-15966674D01*
X17033813Y-16166674D02*
X17043337Y-16157150D01*
X17043337Y-16157150D02*
X17062384Y-16128579D01*
X17062384Y-16128579D02*
X17071908Y-16109531D01*
X17071908Y-16109531D02*
X17081432Y-16080960D01*
X17081432Y-16080960D02*
X17090956Y-16033341D01*
X17090956Y-16033341D02*
X17090956Y-15995246D01*
X17090956Y-15995246D02*
X17081432Y-15947627D01*
X17081432Y-15947627D02*
X17071908Y-15919055D01*
X17071908Y-15919055D02*
X17062384Y-15900008D01*
X17062384Y-15900008D02*
X17043337Y-15871436D01*
X17043337Y-15871436D02*
X17033813Y-15861912D01*
D10*
X12218750Y-16223000D02*
X12218750Y-16303000D01*
X12178750Y-16263000D02*
X12258750Y-16263000D01*
D11*
X12557622Y-16154484D02*
X12576670Y-16154484D01*
X12576670Y-16154484D02*
X12595717Y-16164008D01*
X12595717Y-16164008D02*
X12605241Y-16173531D01*
X12605241Y-16173531D02*
X12614765Y-16192579D01*
X12614765Y-16192579D02*
X12624289Y-16230674D01*
X12624289Y-16230674D02*
X12624289Y-16278293D01*
X12624289Y-16278293D02*
X12614765Y-16316388D01*
X12614765Y-16316388D02*
X12605241Y-16335436D01*
X12605241Y-16335436D02*
X12595717Y-16344960D01*
X12595717Y-16344960D02*
X12576670Y-16354484D01*
X12576670Y-16354484D02*
X12557622Y-16354484D01*
X12557622Y-16354484D02*
X12538574Y-16344960D01*
X12538574Y-16344960D02*
X12529051Y-16335436D01*
X12529051Y-16335436D02*
X12519527Y-16316388D01*
X12519527Y-16316388D02*
X12510003Y-16278293D01*
X12510003Y-16278293D02*
X12510003Y-16230674D01*
X12510003Y-16230674D02*
X12519527Y-16192579D01*
X12519527Y-16192579D02*
X12529051Y-16173531D01*
X12529051Y-16173531D02*
X12538574Y-16164008D01*
X12538574Y-16164008D02*
X12557622Y-16154484D01*
X12710003Y-16335436D02*
X12719527Y-16344960D01*
X12719527Y-16344960D02*
X12710003Y-16354484D01*
X12710003Y-16354484D02*
X12700479Y-16344960D01*
X12700479Y-16344960D02*
X12710003Y-16335436D01*
X12710003Y-16335436D02*
X12710003Y-16354484D01*
X12833812Y-16240198D02*
X12814765Y-16230674D01*
X12814765Y-16230674D02*
X12805241Y-16221150D01*
X12805241Y-16221150D02*
X12795717Y-16202103D01*
X12795717Y-16202103D02*
X12795717Y-16192579D01*
X12795717Y-16192579D02*
X12805241Y-16173531D01*
X12805241Y-16173531D02*
X12814765Y-16164008D01*
X12814765Y-16164008D02*
X12833812Y-16154484D01*
X12833812Y-16154484D02*
X12871908Y-16154484D01*
X12871908Y-16154484D02*
X12890955Y-16164008D01*
X12890955Y-16164008D02*
X12900479Y-16173531D01*
X12900479Y-16173531D02*
X12910003Y-16192579D01*
X12910003Y-16192579D02*
X12910003Y-16202103D01*
X12910003Y-16202103D02*
X12900479Y-16221150D01*
X12900479Y-16221150D02*
X12890955Y-16230674D01*
X12890955Y-16230674D02*
X12871908Y-16240198D01*
X12871908Y-16240198D02*
X12833812Y-16240198D01*
X12833812Y-16240198D02*
X12814765Y-16249722D01*
X12814765Y-16249722D02*
X12805241Y-16259246D01*
X12805241Y-16259246D02*
X12795717Y-16278293D01*
X12795717Y-16278293D02*
X12795717Y-16316388D01*
X12795717Y-16316388D02*
X12805241Y-16335436D01*
X12805241Y-16335436D02*
X12814765Y-16344960D01*
X12814765Y-16344960D02*
X12833812Y-16354484D01*
X12833812Y-16354484D02*
X12871908Y-16354484D01*
X12871908Y-16354484D02*
X12890955Y-16344960D01*
X12890955Y-16344960D02*
X12900479Y-16335436D01*
X12900479Y-16335436D02*
X12910003Y-16316388D01*
X12910003Y-16316388D02*
X12910003Y-16278293D01*
X12910003Y-16278293D02*
X12900479Y-16259246D01*
X12900479Y-16259246D02*
X12890955Y-16249722D01*
X12890955Y-16249722D02*
X12871908Y-16240198D01*
X13033812Y-16154484D02*
X13052860Y-16154484D01*
X13052860Y-16154484D02*
X13071908Y-16164008D01*
X13071908Y-16164008D02*
X13081432Y-16173531D01*
X13081432Y-16173531D02*
X13090955Y-16192579D01*
X13090955Y-16192579D02*
X13100479Y-16230674D01*
X13100479Y-16230674D02*
X13100479Y-16278293D01*
X13100479Y-16278293D02*
X13090955Y-16316388D01*
X13090955Y-16316388D02*
X13081432Y-16335436D01*
X13081432Y-16335436D02*
X13071908Y-16344960D01*
X13071908Y-16344960D02*
X13052860Y-16354484D01*
X13052860Y-16354484D02*
X13033812Y-16354484D01*
X13033812Y-16354484D02*
X13014765Y-16344960D01*
X13014765Y-16344960D02*
X13005241Y-16335436D01*
X13005241Y-16335436D02*
X12995717Y-16316388D01*
X12995717Y-16316388D02*
X12986193Y-16278293D01*
X12986193Y-16278293D02*
X12986193Y-16230674D01*
X12986193Y-16230674D02*
X12995717Y-16192579D01*
X12995717Y-16192579D02*
X13005241Y-16173531D01*
X13005241Y-16173531D02*
X13014765Y-16164008D01*
X13014765Y-16164008D02*
X13033812Y-16154484D01*
X13224289Y-16154484D02*
X13243336Y-16154484D01*
X13243336Y-16154484D02*
X13262384Y-16164008D01*
X13262384Y-16164008D02*
X13271908Y-16173531D01*
X13271908Y-16173531D02*
X13281432Y-16192579D01*
X13281432Y-16192579D02*
X13290955Y-16230674D01*
X13290955Y-16230674D02*
X13290955Y-16278293D01*
X13290955Y-16278293D02*
X13281432Y-16316388D01*
X13281432Y-16316388D02*
X13271908Y-16335436D01*
X13271908Y-16335436D02*
X13262384Y-16344960D01*
X13262384Y-16344960D02*
X13243336Y-16354484D01*
X13243336Y-16354484D02*
X13224289Y-16354484D01*
X13224289Y-16354484D02*
X13205241Y-16344960D01*
X13205241Y-16344960D02*
X13195717Y-16335436D01*
X13195717Y-16335436D02*
X13186193Y-16316388D01*
X13186193Y-16316388D02*
X13176670Y-16278293D01*
X13176670Y-16278293D02*
X13176670Y-16230674D01*
X13176670Y-16230674D02*
X13186193Y-16192579D01*
X13186193Y-16192579D02*
X13195717Y-16173531D01*
X13195717Y-16173531D02*
X13205241Y-16164008D01*
X13205241Y-16164008D02*
X13224289Y-16154484D01*
X13376670Y-16354484D02*
X13376670Y-16221150D01*
X13376670Y-16240198D02*
X13386193Y-16230674D01*
X13386193Y-16230674D02*
X13405241Y-16221150D01*
X13405241Y-16221150D02*
X13433813Y-16221150D01*
X13433813Y-16221150D02*
X13452860Y-16230674D01*
X13452860Y-16230674D02*
X13462384Y-16249722D01*
X13462384Y-16249722D02*
X13462384Y-16354484D01*
X13462384Y-16249722D02*
X13471908Y-16230674D01*
X13471908Y-16230674D02*
X13490955Y-16221150D01*
X13490955Y-16221150D02*
X13519527Y-16221150D01*
X13519527Y-16221150D02*
X13538574Y-16230674D01*
X13538574Y-16230674D02*
X13548098Y-16249722D01*
X13548098Y-16249722D02*
X13548098Y-16354484D01*
X13643336Y-16354484D02*
X13643336Y-16221150D01*
X13643336Y-16240198D02*
X13652860Y-16230674D01*
X13652860Y-16230674D02*
X13671908Y-16221150D01*
X13671908Y-16221150D02*
X13700479Y-16221150D01*
X13700479Y-16221150D02*
X13719527Y-16230674D01*
X13719527Y-16230674D02*
X13729051Y-16249722D01*
X13729051Y-16249722D02*
X13729051Y-16354484D01*
X13729051Y-16249722D02*
X13738574Y-16230674D01*
X13738574Y-16230674D02*
X13757622Y-16221150D01*
X13757622Y-16221150D02*
X13786193Y-16221150D01*
X13786193Y-16221150D02*
X13805241Y-16230674D01*
X13805241Y-16230674D02*
X13814765Y-16249722D01*
X13814765Y-16249722D02*
X13814765Y-16354484D01*
X14205241Y-16144960D02*
X14033813Y-16402103D01*
X14462384Y-16154484D02*
X14481432Y-16154484D01*
X14481432Y-16154484D02*
X14500479Y-16164008D01*
X14500479Y-16164008D02*
X14510003Y-16173531D01*
X14510003Y-16173531D02*
X14519527Y-16192579D01*
X14519527Y-16192579D02*
X14529051Y-16230674D01*
X14529051Y-16230674D02*
X14529051Y-16278293D01*
X14529051Y-16278293D02*
X14519527Y-16316388D01*
X14519527Y-16316388D02*
X14510003Y-16335436D01*
X14510003Y-16335436D02*
X14500479Y-16344960D01*
X14500479Y-16344960D02*
X14481432Y-16354484D01*
X14481432Y-16354484D02*
X14462384Y-16354484D01*
X14462384Y-16354484D02*
X14443336Y-16344960D01*
X14443336Y-16344960D02*
X14433813Y-16335436D01*
X14433813Y-16335436D02*
X14424289Y-16316388D01*
X14424289Y-16316388D02*
X14414765Y-16278293D01*
X14414765Y-16278293D02*
X14414765Y-16230674D01*
X14414765Y-16230674D02*
X14424289Y-16192579D01*
X14424289Y-16192579D02*
X14433813Y-16173531D01*
X14433813Y-16173531D02*
X14443336Y-16164008D01*
X14443336Y-16164008D02*
X14462384Y-16154484D01*
X14614765Y-16335436D02*
X14624289Y-16344960D01*
X14624289Y-16344960D02*
X14614765Y-16354484D01*
X14614765Y-16354484D02*
X14605241Y-16344960D01*
X14605241Y-16344960D02*
X14614765Y-16335436D01*
X14614765Y-16335436D02*
X14614765Y-16354484D01*
X14748098Y-16154484D02*
X14767146Y-16154484D01*
X14767146Y-16154484D02*
X14786194Y-16164008D01*
X14786194Y-16164008D02*
X14795717Y-16173531D01*
X14795717Y-16173531D02*
X14805241Y-16192579D01*
X14805241Y-16192579D02*
X14814765Y-16230674D01*
X14814765Y-16230674D02*
X14814765Y-16278293D01*
X14814765Y-16278293D02*
X14805241Y-16316388D01*
X14805241Y-16316388D02*
X14795717Y-16335436D01*
X14795717Y-16335436D02*
X14786194Y-16344960D01*
X14786194Y-16344960D02*
X14767146Y-16354484D01*
X14767146Y-16354484D02*
X14748098Y-16354484D01*
X14748098Y-16354484D02*
X14729051Y-16344960D01*
X14729051Y-16344960D02*
X14719527Y-16335436D01*
X14719527Y-16335436D02*
X14710003Y-16316388D01*
X14710003Y-16316388D02*
X14700479Y-16278293D01*
X14700479Y-16278293D02*
X14700479Y-16230674D01*
X14700479Y-16230674D02*
X14710003Y-16192579D01*
X14710003Y-16192579D02*
X14719527Y-16173531D01*
X14719527Y-16173531D02*
X14729051Y-16164008D01*
X14729051Y-16164008D02*
X14748098Y-16154484D01*
X14881432Y-16154484D02*
X15005241Y-16154484D01*
X15005241Y-16154484D02*
X14938575Y-16230674D01*
X14938575Y-16230674D02*
X14967146Y-16230674D01*
X14967146Y-16230674D02*
X14986194Y-16240198D01*
X14986194Y-16240198D02*
X14995717Y-16249722D01*
X14995717Y-16249722D02*
X15005241Y-16268769D01*
X15005241Y-16268769D02*
X15005241Y-16316388D01*
X15005241Y-16316388D02*
X14995717Y-16335436D01*
X14995717Y-16335436D02*
X14986194Y-16344960D01*
X14986194Y-16344960D02*
X14967146Y-16354484D01*
X14967146Y-16354484D02*
X14910003Y-16354484D01*
X14910003Y-16354484D02*
X14890956Y-16344960D01*
X14890956Y-16344960D02*
X14881432Y-16335436D01*
X15195717Y-16354484D02*
X15081432Y-16354484D01*
X15138575Y-16354484D02*
X15138575Y-16154484D01*
X15138575Y-16154484D02*
X15119527Y-16183055D01*
X15119527Y-16183055D02*
X15100479Y-16202103D01*
X15100479Y-16202103D02*
X15081432Y-16211627D01*
X15376670Y-16154484D02*
X15281432Y-16154484D01*
X15281432Y-16154484D02*
X15271908Y-16249722D01*
X15271908Y-16249722D02*
X15281432Y-16240198D01*
X15281432Y-16240198D02*
X15300479Y-16230674D01*
X15300479Y-16230674D02*
X15348098Y-16230674D01*
X15348098Y-16230674D02*
X15367146Y-16240198D01*
X15367146Y-16240198D02*
X15376670Y-16249722D01*
X15376670Y-16249722D02*
X15386194Y-16268769D01*
X15386194Y-16268769D02*
X15386194Y-16316388D01*
X15386194Y-16316388D02*
X15376670Y-16335436D01*
X15376670Y-16335436D02*
X15367146Y-16344960D01*
X15367146Y-16344960D02*
X15348098Y-16354484D01*
X15348098Y-16354484D02*
X15300479Y-16354484D01*
X15300479Y-16354484D02*
X15281432Y-16344960D01*
X15281432Y-16344960D02*
X15271908Y-16335436D01*
X15462384Y-16154484D02*
X15462384Y-16192579D01*
X15538575Y-16154484D02*
X15538575Y-16192579D01*
X15833813Y-16430674D02*
X15824289Y-16421150D01*
X15824289Y-16421150D02*
X15805241Y-16392579D01*
X15805241Y-16392579D02*
X15795718Y-16373531D01*
X15795718Y-16373531D02*
X15786194Y-16344960D01*
X15786194Y-16344960D02*
X15776670Y-16297341D01*
X15776670Y-16297341D02*
X15776670Y-16259246D01*
X15776670Y-16259246D02*
X15786194Y-16211627D01*
X15786194Y-16211627D02*
X15795718Y-16183055D01*
X15795718Y-16183055D02*
X15805241Y-16164008D01*
X15805241Y-16164008D02*
X15824289Y-16135436D01*
X15824289Y-16135436D02*
X15833813Y-16125912D01*
X15900479Y-16173531D02*
X15910003Y-16164008D01*
X15910003Y-16164008D02*
X15929051Y-16154484D01*
X15929051Y-16154484D02*
X15976670Y-16154484D01*
X15976670Y-16154484D02*
X15995718Y-16164008D01*
X15995718Y-16164008D02*
X16005241Y-16173531D01*
X16005241Y-16173531D02*
X16014765Y-16192579D01*
X16014765Y-16192579D02*
X16014765Y-16211627D01*
X16014765Y-16211627D02*
X16005241Y-16240198D01*
X16005241Y-16240198D02*
X15890956Y-16354484D01*
X15890956Y-16354484D02*
X16014765Y-16354484D01*
X16186194Y-16221150D02*
X16186194Y-16354484D01*
X16138575Y-16144960D02*
X16090956Y-16287817D01*
X16090956Y-16287817D02*
X16214765Y-16287817D01*
X16443337Y-16354484D02*
X16443337Y-16154484D01*
X16529051Y-16354484D02*
X16529051Y-16249722D01*
X16529051Y-16249722D02*
X16519527Y-16230674D01*
X16519527Y-16230674D02*
X16500480Y-16221150D01*
X16500480Y-16221150D02*
X16471908Y-16221150D01*
X16471908Y-16221150D02*
X16452860Y-16230674D01*
X16452860Y-16230674D02*
X16443337Y-16240198D01*
X16652860Y-16354484D02*
X16633813Y-16344960D01*
X16633813Y-16344960D02*
X16624289Y-16335436D01*
X16624289Y-16335436D02*
X16614765Y-16316388D01*
X16614765Y-16316388D02*
X16614765Y-16259246D01*
X16614765Y-16259246D02*
X16624289Y-16240198D01*
X16624289Y-16240198D02*
X16633813Y-16230674D01*
X16633813Y-16230674D02*
X16652860Y-16221150D01*
X16652860Y-16221150D02*
X16681432Y-16221150D01*
X16681432Y-16221150D02*
X16700480Y-16230674D01*
X16700480Y-16230674D02*
X16710003Y-16240198D01*
X16710003Y-16240198D02*
X16719527Y-16259246D01*
X16719527Y-16259246D02*
X16719527Y-16316388D01*
X16719527Y-16316388D02*
X16710003Y-16335436D01*
X16710003Y-16335436D02*
X16700480Y-16344960D01*
X16700480Y-16344960D02*
X16681432Y-16354484D01*
X16681432Y-16354484D02*
X16652860Y-16354484D01*
X16833813Y-16354484D02*
X16814765Y-16344960D01*
X16814765Y-16344960D02*
X16805242Y-16325912D01*
X16805242Y-16325912D02*
X16805242Y-16154484D01*
X16986194Y-16344960D02*
X16967146Y-16354484D01*
X16967146Y-16354484D02*
X16929051Y-16354484D01*
X16929051Y-16354484D02*
X16910003Y-16344960D01*
X16910003Y-16344960D02*
X16900480Y-16325912D01*
X16900480Y-16325912D02*
X16900480Y-16249722D01*
X16900480Y-16249722D02*
X16910003Y-16230674D01*
X16910003Y-16230674D02*
X16929051Y-16221150D01*
X16929051Y-16221150D02*
X16967146Y-16221150D01*
X16967146Y-16221150D02*
X16986194Y-16230674D01*
X16986194Y-16230674D02*
X16995718Y-16249722D01*
X16995718Y-16249722D02*
X16995718Y-16268769D01*
X16995718Y-16268769D02*
X16900480Y-16287817D01*
X17071908Y-16344960D02*
X17090956Y-16354484D01*
X17090956Y-16354484D02*
X17129051Y-16354484D01*
X17129051Y-16354484D02*
X17148099Y-16344960D01*
X17148099Y-16344960D02*
X17157623Y-16325912D01*
X17157623Y-16325912D02*
X17157623Y-16316388D01*
X17157623Y-16316388D02*
X17148099Y-16297341D01*
X17148099Y-16297341D02*
X17129051Y-16287817D01*
X17129051Y-16287817D02*
X17100480Y-16287817D01*
X17100480Y-16287817D02*
X17081432Y-16278293D01*
X17081432Y-16278293D02*
X17071908Y-16259246D01*
X17071908Y-16259246D02*
X17071908Y-16249722D01*
X17071908Y-16249722D02*
X17081432Y-16230674D01*
X17081432Y-16230674D02*
X17100480Y-16221150D01*
X17100480Y-16221150D02*
X17129051Y-16221150D01*
X17129051Y-16221150D02*
X17148099Y-16230674D01*
X17224289Y-16430674D02*
X17233813Y-16421150D01*
X17233813Y-16421150D02*
X17252861Y-16392579D01*
X17252861Y-16392579D02*
X17262384Y-16373531D01*
X17262384Y-16373531D02*
X17271908Y-16344960D01*
X17271908Y-16344960D02*
X17281432Y-16297341D01*
X17281432Y-16297341D02*
X17281432Y-16259246D01*
X17281432Y-16259246D02*
X17271908Y-16211627D01*
X17271908Y-16211627D02*
X17262384Y-16183055D01*
X17262384Y-16183055D02*
X17252861Y-16164008D01*
X17252861Y-16164008D02*
X17233813Y-16135436D01*
X17233813Y-16135436D02*
X17224289Y-16125912D01*
D10*
X12245570Y-16558820D02*
X12245570Y-16495180D01*
X12181930Y-16495180D01*
X12181930Y-16558820D01*
X12245570Y-16558820D01*
D11*
X12557622Y-16418484D02*
X12576670Y-16418484D01*
X12576670Y-16418484D02*
X12595717Y-16428008D01*
X12595717Y-16428008D02*
X12605241Y-16437531D01*
X12605241Y-16437531D02*
X12614765Y-16456579D01*
X12614765Y-16456579D02*
X12624289Y-16494674D01*
X12624289Y-16494674D02*
X12624289Y-16542293D01*
X12624289Y-16542293D02*
X12614765Y-16580388D01*
X12614765Y-16580388D02*
X12605241Y-16599436D01*
X12605241Y-16599436D02*
X12595717Y-16608960D01*
X12595717Y-16608960D02*
X12576670Y-16618484D01*
X12576670Y-16618484D02*
X12557622Y-16618484D01*
X12557622Y-16618484D02*
X12538574Y-16608960D01*
X12538574Y-16608960D02*
X12529051Y-16599436D01*
X12529051Y-16599436D02*
X12519527Y-16580388D01*
X12519527Y-16580388D02*
X12510003Y-16542293D01*
X12510003Y-16542293D02*
X12510003Y-16494674D01*
X12510003Y-16494674D02*
X12519527Y-16456579D01*
X12519527Y-16456579D02*
X12529051Y-16437531D01*
X12529051Y-16437531D02*
X12538574Y-16428008D01*
X12538574Y-16428008D02*
X12557622Y-16418484D01*
X12710003Y-16599436D02*
X12719527Y-16608960D01*
X12719527Y-16608960D02*
X12710003Y-16618484D01*
X12710003Y-16618484D02*
X12700479Y-16608960D01*
X12700479Y-16608960D02*
X12710003Y-16599436D01*
X12710003Y-16599436D02*
X12710003Y-16618484D01*
X12814765Y-16618484D02*
X12852860Y-16618484D01*
X12852860Y-16618484D02*
X12871908Y-16608960D01*
X12871908Y-16608960D02*
X12881432Y-16599436D01*
X12881432Y-16599436D02*
X12900479Y-16570865D01*
X12900479Y-16570865D02*
X12910003Y-16532769D01*
X12910003Y-16532769D02*
X12910003Y-16456579D01*
X12910003Y-16456579D02*
X12900479Y-16437531D01*
X12900479Y-16437531D02*
X12890955Y-16428008D01*
X12890955Y-16428008D02*
X12871908Y-16418484D01*
X12871908Y-16418484D02*
X12833812Y-16418484D01*
X12833812Y-16418484D02*
X12814765Y-16428008D01*
X12814765Y-16428008D02*
X12805241Y-16437531D01*
X12805241Y-16437531D02*
X12795717Y-16456579D01*
X12795717Y-16456579D02*
X12795717Y-16504198D01*
X12795717Y-16504198D02*
X12805241Y-16523246D01*
X12805241Y-16523246D02*
X12814765Y-16532769D01*
X12814765Y-16532769D02*
X12833812Y-16542293D01*
X12833812Y-16542293D02*
X12871908Y-16542293D01*
X12871908Y-16542293D02*
X12890955Y-16532769D01*
X12890955Y-16532769D02*
X12900479Y-16523246D01*
X12900479Y-16523246D02*
X12910003Y-16504198D01*
X13033812Y-16418484D02*
X13052860Y-16418484D01*
X13052860Y-16418484D02*
X13071908Y-16428008D01*
X13071908Y-16428008D02*
X13081432Y-16437531D01*
X13081432Y-16437531D02*
X13090955Y-16456579D01*
X13090955Y-16456579D02*
X13100479Y-16494674D01*
X13100479Y-16494674D02*
X13100479Y-16542293D01*
X13100479Y-16542293D02*
X13090955Y-16580388D01*
X13090955Y-16580388D02*
X13081432Y-16599436D01*
X13081432Y-16599436D02*
X13071908Y-16608960D01*
X13071908Y-16608960D02*
X13052860Y-16618484D01*
X13052860Y-16618484D02*
X13033812Y-16618484D01*
X13033812Y-16618484D02*
X13014765Y-16608960D01*
X13014765Y-16608960D02*
X13005241Y-16599436D01*
X13005241Y-16599436D02*
X12995717Y-16580388D01*
X12995717Y-16580388D02*
X12986193Y-16542293D01*
X12986193Y-16542293D02*
X12986193Y-16494674D01*
X12986193Y-16494674D02*
X12995717Y-16456579D01*
X12995717Y-16456579D02*
X13005241Y-16437531D01*
X13005241Y-16437531D02*
X13014765Y-16428008D01*
X13014765Y-16428008D02*
X13033812Y-16418484D01*
X13224289Y-16418484D02*
X13243336Y-16418484D01*
X13243336Y-16418484D02*
X13262384Y-16428008D01*
X13262384Y-16428008D02*
X13271908Y-16437531D01*
X13271908Y-16437531D02*
X13281432Y-16456579D01*
X13281432Y-16456579D02*
X13290955Y-16494674D01*
X13290955Y-16494674D02*
X13290955Y-16542293D01*
X13290955Y-16542293D02*
X13281432Y-16580388D01*
X13281432Y-16580388D02*
X13271908Y-16599436D01*
X13271908Y-16599436D02*
X13262384Y-16608960D01*
X13262384Y-16608960D02*
X13243336Y-16618484D01*
X13243336Y-16618484D02*
X13224289Y-16618484D01*
X13224289Y-16618484D02*
X13205241Y-16608960D01*
X13205241Y-16608960D02*
X13195717Y-16599436D01*
X13195717Y-16599436D02*
X13186193Y-16580388D01*
X13186193Y-16580388D02*
X13176670Y-16542293D01*
X13176670Y-16542293D02*
X13176670Y-16494674D01*
X13176670Y-16494674D02*
X13186193Y-16456579D01*
X13186193Y-16456579D02*
X13195717Y-16437531D01*
X13195717Y-16437531D02*
X13205241Y-16428008D01*
X13205241Y-16428008D02*
X13224289Y-16418484D01*
X13376670Y-16618484D02*
X13376670Y-16485150D01*
X13376670Y-16504198D02*
X13386193Y-16494674D01*
X13386193Y-16494674D02*
X13405241Y-16485150D01*
X13405241Y-16485150D02*
X13433813Y-16485150D01*
X13433813Y-16485150D02*
X13452860Y-16494674D01*
X13452860Y-16494674D02*
X13462384Y-16513722D01*
X13462384Y-16513722D02*
X13462384Y-16618484D01*
X13462384Y-16513722D02*
X13471908Y-16494674D01*
X13471908Y-16494674D02*
X13490955Y-16485150D01*
X13490955Y-16485150D02*
X13519527Y-16485150D01*
X13519527Y-16485150D02*
X13538574Y-16494674D01*
X13538574Y-16494674D02*
X13548098Y-16513722D01*
X13548098Y-16513722D02*
X13548098Y-16618484D01*
X13643336Y-16618484D02*
X13643336Y-16485150D01*
X13643336Y-16504198D02*
X13652860Y-16494674D01*
X13652860Y-16494674D02*
X13671908Y-16485150D01*
X13671908Y-16485150D02*
X13700479Y-16485150D01*
X13700479Y-16485150D02*
X13719527Y-16494674D01*
X13719527Y-16494674D02*
X13729051Y-16513722D01*
X13729051Y-16513722D02*
X13729051Y-16618484D01*
X13729051Y-16513722D02*
X13738574Y-16494674D01*
X13738574Y-16494674D02*
X13757622Y-16485150D01*
X13757622Y-16485150D02*
X13786193Y-16485150D01*
X13786193Y-16485150D02*
X13805241Y-16494674D01*
X13805241Y-16494674D02*
X13814765Y-16513722D01*
X13814765Y-16513722D02*
X13814765Y-16618484D01*
X14205241Y-16408960D02*
X14033813Y-16666103D01*
X14462384Y-16418484D02*
X14481432Y-16418484D01*
X14481432Y-16418484D02*
X14500479Y-16428008D01*
X14500479Y-16428008D02*
X14510003Y-16437531D01*
X14510003Y-16437531D02*
X14519527Y-16456579D01*
X14519527Y-16456579D02*
X14529051Y-16494674D01*
X14529051Y-16494674D02*
X14529051Y-16542293D01*
X14529051Y-16542293D02*
X14519527Y-16580388D01*
X14519527Y-16580388D02*
X14510003Y-16599436D01*
X14510003Y-16599436D02*
X14500479Y-16608960D01*
X14500479Y-16608960D02*
X14481432Y-16618484D01*
X14481432Y-16618484D02*
X14462384Y-16618484D01*
X14462384Y-16618484D02*
X14443336Y-16608960D01*
X14443336Y-16608960D02*
X14433813Y-16599436D01*
X14433813Y-16599436D02*
X14424289Y-16580388D01*
X14424289Y-16580388D02*
X14414765Y-16542293D01*
X14414765Y-16542293D02*
X14414765Y-16494674D01*
X14414765Y-16494674D02*
X14424289Y-16456579D01*
X14424289Y-16456579D02*
X14433813Y-16437531D01*
X14433813Y-16437531D02*
X14443336Y-16428008D01*
X14443336Y-16428008D02*
X14462384Y-16418484D01*
X14614765Y-16599436D02*
X14624289Y-16608960D01*
X14624289Y-16608960D02*
X14614765Y-16618484D01*
X14614765Y-16618484D02*
X14605241Y-16608960D01*
X14605241Y-16608960D02*
X14614765Y-16599436D01*
X14614765Y-16599436D02*
X14614765Y-16618484D01*
X14748098Y-16418484D02*
X14767146Y-16418484D01*
X14767146Y-16418484D02*
X14786194Y-16428008D01*
X14786194Y-16428008D02*
X14795717Y-16437531D01*
X14795717Y-16437531D02*
X14805241Y-16456579D01*
X14805241Y-16456579D02*
X14814765Y-16494674D01*
X14814765Y-16494674D02*
X14814765Y-16542293D01*
X14814765Y-16542293D02*
X14805241Y-16580388D01*
X14805241Y-16580388D02*
X14795717Y-16599436D01*
X14795717Y-16599436D02*
X14786194Y-16608960D01*
X14786194Y-16608960D02*
X14767146Y-16618484D01*
X14767146Y-16618484D02*
X14748098Y-16618484D01*
X14748098Y-16618484D02*
X14729051Y-16608960D01*
X14729051Y-16608960D02*
X14719527Y-16599436D01*
X14719527Y-16599436D02*
X14710003Y-16580388D01*
X14710003Y-16580388D02*
X14700479Y-16542293D01*
X14700479Y-16542293D02*
X14700479Y-16494674D01*
X14700479Y-16494674D02*
X14710003Y-16456579D01*
X14710003Y-16456579D02*
X14719527Y-16437531D01*
X14719527Y-16437531D02*
X14729051Y-16428008D01*
X14729051Y-16428008D02*
X14748098Y-16418484D01*
X14881432Y-16418484D02*
X15005241Y-16418484D01*
X15005241Y-16418484D02*
X14938575Y-16494674D01*
X14938575Y-16494674D02*
X14967146Y-16494674D01*
X14967146Y-16494674D02*
X14986194Y-16504198D01*
X14986194Y-16504198D02*
X14995717Y-16513722D01*
X14995717Y-16513722D02*
X15005241Y-16532769D01*
X15005241Y-16532769D02*
X15005241Y-16580388D01*
X15005241Y-16580388D02*
X14995717Y-16599436D01*
X14995717Y-16599436D02*
X14986194Y-16608960D01*
X14986194Y-16608960D02*
X14967146Y-16618484D01*
X14967146Y-16618484D02*
X14910003Y-16618484D01*
X14910003Y-16618484D02*
X14890956Y-16608960D01*
X14890956Y-16608960D02*
X14881432Y-16599436D01*
X15186194Y-16418484D02*
X15090956Y-16418484D01*
X15090956Y-16418484D02*
X15081432Y-16513722D01*
X15081432Y-16513722D02*
X15090956Y-16504198D01*
X15090956Y-16504198D02*
X15110003Y-16494674D01*
X15110003Y-16494674D02*
X15157622Y-16494674D01*
X15157622Y-16494674D02*
X15176670Y-16504198D01*
X15176670Y-16504198D02*
X15186194Y-16513722D01*
X15186194Y-16513722D02*
X15195717Y-16532769D01*
X15195717Y-16532769D02*
X15195717Y-16580388D01*
X15195717Y-16580388D02*
X15186194Y-16599436D01*
X15186194Y-16599436D02*
X15176670Y-16608960D01*
X15176670Y-16608960D02*
X15157622Y-16618484D01*
X15157622Y-16618484D02*
X15110003Y-16618484D01*
X15110003Y-16618484D02*
X15090956Y-16608960D01*
X15090956Y-16608960D02*
X15081432Y-16599436D01*
X15367146Y-16485150D02*
X15367146Y-16618484D01*
X15319527Y-16408960D02*
X15271908Y-16551817D01*
X15271908Y-16551817D02*
X15395717Y-16551817D01*
X15462384Y-16418484D02*
X15462384Y-16456579D01*
X15538575Y-16418484D02*
X15538575Y-16456579D01*
X15833813Y-16694674D02*
X15824289Y-16685150D01*
X15824289Y-16685150D02*
X15805241Y-16656579D01*
X15805241Y-16656579D02*
X15795718Y-16637531D01*
X15795718Y-16637531D02*
X15786194Y-16608960D01*
X15786194Y-16608960D02*
X15776670Y-16561341D01*
X15776670Y-16561341D02*
X15776670Y-16523246D01*
X15776670Y-16523246D02*
X15786194Y-16475627D01*
X15786194Y-16475627D02*
X15795718Y-16447055D01*
X15795718Y-16447055D02*
X15805241Y-16428008D01*
X15805241Y-16428008D02*
X15824289Y-16399436D01*
X15824289Y-16399436D02*
X15833813Y-16389912D01*
X16014765Y-16618484D02*
X15900479Y-16618484D01*
X15957622Y-16618484D02*
X15957622Y-16418484D01*
X15957622Y-16418484D02*
X15938575Y-16447055D01*
X15938575Y-16447055D02*
X15919527Y-16466103D01*
X15919527Y-16466103D02*
X15900479Y-16475627D01*
X16090956Y-16437531D02*
X16100479Y-16428008D01*
X16100479Y-16428008D02*
X16119527Y-16418484D01*
X16119527Y-16418484D02*
X16167146Y-16418484D01*
X16167146Y-16418484D02*
X16186194Y-16428008D01*
X16186194Y-16428008D02*
X16195718Y-16437531D01*
X16195718Y-16437531D02*
X16205241Y-16456579D01*
X16205241Y-16456579D02*
X16205241Y-16475627D01*
X16205241Y-16475627D02*
X16195718Y-16504198D01*
X16195718Y-16504198D02*
X16081432Y-16618484D01*
X16081432Y-16618484D02*
X16205241Y-16618484D01*
X16443337Y-16618484D02*
X16443337Y-16418484D01*
X16529051Y-16618484D02*
X16529051Y-16513722D01*
X16529051Y-16513722D02*
X16519527Y-16494674D01*
X16519527Y-16494674D02*
X16500480Y-16485150D01*
X16500480Y-16485150D02*
X16471908Y-16485150D01*
X16471908Y-16485150D02*
X16452860Y-16494674D01*
X16452860Y-16494674D02*
X16443337Y-16504198D01*
X16652860Y-16618484D02*
X16633813Y-16608960D01*
X16633813Y-16608960D02*
X16624289Y-16599436D01*
X16624289Y-16599436D02*
X16614765Y-16580388D01*
X16614765Y-16580388D02*
X16614765Y-16523246D01*
X16614765Y-16523246D02*
X16624289Y-16504198D01*
X16624289Y-16504198D02*
X16633813Y-16494674D01*
X16633813Y-16494674D02*
X16652860Y-16485150D01*
X16652860Y-16485150D02*
X16681432Y-16485150D01*
X16681432Y-16485150D02*
X16700480Y-16494674D01*
X16700480Y-16494674D02*
X16710003Y-16504198D01*
X16710003Y-16504198D02*
X16719527Y-16523246D01*
X16719527Y-16523246D02*
X16719527Y-16580388D01*
X16719527Y-16580388D02*
X16710003Y-16599436D01*
X16710003Y-16599436D02*
X16700480Y-16608960D01*
X16700480Y-16608960D02*
X16681432Y-16618484D01*
X16681432Y-16618484D02*
X16652860Y-16618484D01*
X16833813Y-16618484D02*
X16814765Y-16608960D01*
X16814765Y-16608960D02*
X16805242Y-16589912D01*
X16805242Y-16589912D02*
X16805242Y-16418484D01*
X16986194Y-16608960D02*
X16967146Y-16618484D01*
X16967146Y-16618484D02*
X16929051Y-16618484D01*
X16929051Y-16618484D02*
X16910003Y-16608960D01*
X16910003Y-16608960D02*
X16900480Y-16589912D01*
X16900480Y-16589912D02*
X16900480Y-16513722D01*
X16900480Y-16513722D02*
X16910003Y-16494674D01*
X16910003Y-16494674D02*
X16929051Y-16485150D01*
X16929051Y-16485150D02*
X16967146Y-16485150D01*
X16967146Y-16485150D02*
X16986194Y-16494674D01*
X16986194Y-16494674D02*
X16995718Y-16513722D01*
X16995718Y-16513722D02*
X16995718Y-16532769D01*
X16995718Y-16532769D02*
X16900480Y-16551817D01*
X17071908Y-16608960D02*
X17090956Y-16618484D01*
X17090956Y-16618484D02*
X17129051Y-16618484D01*
X17129051Y-16618484D02*
X17148099Y-16608960D01*
X17148099Y-16608960D02*
X17157623Y-16589912D01*
X17157623Y-16589912D02*
X17157623Y-16580388D01*
X17157623Y-16580388D02*
X17148099Y-16561341D01*
X17148099Y-16561341D02*
X17129051Y-16551817D01*
X17129051Y-16551817D02*
X17100480Y-16551817D01*
X17100480Y-16551817D02*
X17081432Y-16542293D01*
X17081432Y-16542293D02*
X17071908Y-16523246D01*
X17071908Y-16523246D02*
X17071908Y-16513722D01*
X17071908Y-16513722D02*
X17081432Y-16494674D01*
X17081432Y-16494674D02*
X17100480Y-16485150D01*
X17100480Y-16485150D02*
X17129051Y-16485150D01*
X17129051Y-16485150D02*
X17148099Y-16494674D01*
X17224289Y-16694674D02*
X17233813Y-16685150D01*
X17233813Y-16685150D02*
X17252861Y-16656579D01*
X17252861Y-16656579D02*
X17262384Y-16637531D01*
X17262384Y-16637531D02*
X17271908Y-16608960D01*
X17271908Y-16608960D02*
X17281432Y-16561341D01*
X17281432Y-16561341D02*
X17281432Y-16523246D01*
X17281432Y-16523246D02*
X17271908Y-16475627D01*
X17271908Y-16475627D02*
X17262384Y-16447055D01*
X17262384Y-16447055D02*
X17252861Y-16428008D01*
X17252861Y-16428008D02*
X17233813Y-16399436D01*
X17233813Y-16399436D02*
X17224289Y-16389912D01*
D10*
X12208750Y-16841000D02*
X12258750Y-16791000D01*
X12208750Y-16741000D01*
X12158750Y-16791000D01*
X12208750Y-16841000D01*
D11*
X12624289Y-16882484D02*
X12510003Y-16882484D01*
X12567146Y-16882484D02*
X12567146Y-16682484D01*
X12567146Y-16682484D02*
X12548098Y-16711055D01*
X12548098Y-16711055D02*
X12529051Y-16730103D01*
X12529051Y-16730103D02*
X12510003Y-16739627D01*
X12710003Y-16863436D02*
X12719527Y-16872960D01*
X12719527Y-16872960D02*
X12710003Y-16882484D01*
X12710003Y-16882484D02*
X12700479Y-16872960D01*
X12700479Y-16872960D02*
X12710003Y-16863436D01*
X12710003Y-16863436D02*
X12710003Y-16882484D01*
X12843336Y-16682484D02*
X12862384Y-16682484D01*
X12862384Y-16682484D02*
X12881432Y-16692008D01*
X12881432Y-16692008D02*
X12890955Y-16701531D01*
X12890955Y-16701531D02*
X12900479Y-16720579D01*
X12900479Y-16720579D02*
X12910003Y-16758674D01*
X12910003Y-16758674D02*
X12910003Y-16806293D01*
X12910003Y-16806293D02*
X12900479Y-16844389D01*
X12900479Y-16844389D02*
X12890955Y-16863436D01*
X12890955Y-16863436D02*
X12881432Y-16872960D01*
X12881432Y-16872960D02*
X12862384Y-16882484D01*
X12862384Y-16882484D02*
X12843336Y-16882484D01*
X12843336Y-16882484D02*
X12824289Y-16872960D01*
X12824289Y-16872960D02*
X12814765Y-16863436D01*
X12814765Y-16863436D02*
X12805241Y-16844389D01*
X12805241Y-16844389D02*
X12795717Y-16806293D01*
X12795717Y-16806293D02*
X12795717Y-16758674D01*
X12795717Y-16758674D02*
X12805241Y-16720579D01*
X12805241Y-16720579D02*
X12814765Y-16701531D01*
X12814765Y-16701531D02*
X12824289Y-16692008D01*
X12824289Y-16692008D02*
X12843336Y-16682484D01*
X13033812Y-16682484D02*
X13052860Y-16682484D01*
X13052860Y-16682484D02*
X13071908Y-16692008D01*
X13071908Y-16692008D02*
X13081432Y-16701531D01*
X13081432Y-16701531D02*
X13090955Y-16720579D01*
X13090955Y-16720579D02*
X13100479Y-16758674D01*
X13100479Y-16758674D02*
X13100479Y-16806293D01*
X13100479Y-16806293D02*
X13090955Y-16844389D01*
X13090955Y-16844389D02*
X13081432Y-16863436D01*
X13081432Y-16863436D02*
X13071908Y-16872960D01*
X13071908Y-16872960D02*
X13052860Y-16882484D01*
X13052860Y-16882484D02*
X13033812Y-16882484D01*
X13033812Y-16882484D02*
X13014765Y-16872960D01*
X13014765Y-16872960D02*
X13005241Y-16863436D01*
X13005241Y-16863436D02*
X12995717Y-16844389D01*
X12995717Y-16844389D02*
X12986193Y-16806293D01*
X12986193Y-16806293D02*
X12986193Y-16758674D01*
X12986193Y-16758674D02*
X12995717Y-16720579D01*
X12995717Y-16720579D02*
X13005241Y-16701531D01*
X13005241Y-16701531D02*
X13014765Y-16692008D01*
X13014765Y-16692008D02*
X13033812Y-16682484D01*
X13224289Y-16682484D02*
X13243336Y-16682484D01*
X13243336Y-16682484D02*
X13262384Y-16692008D01*
X13262384Y-16692008D02*
X13271908Y-16701531D01*
X13271908Y-16701531D02*
X13281432Y-16720579D01*
X13281432Y-16720579D02*
X13290955Y-16758674D01*
X13290955Y-16758674D02*
X13290955Y-16806293D01*
X13290955Y-16806293D02*
X13281432Y-16844389D01*
X13281432Y-16844389D02*
X13271908Y-16863436D01*
X13271908Y-16863436D02*
X13262384Y-16872960D01*
X13262384Y-16872960D02*
X13243336Y-16882484D01*
X13243336Y-16882484D02*
X13224289Y-16882484D01*
X13224289Y-16882484D02*
X13205241Y-16872960D01*
X13205241Y-16872960D02*
X13195717Y-16863436D01*
X13195717Y-16863436D02*
X13186193Y-16844389D01*
X13186193Y-16844389D02*
X13176670Y-16806293D01*
X13176670Y-16806293D02*
X13176670Y-16758674D01*
X13176670Y-16758674D02*
X13186193Y-16720579D01*
X13186193Y-16720579D02*
X13195717Y-16701531D01*
X13195717Y-16701531D02*
X13205241Y-16692008D01*
X13205241Y-16692008D02*
X13224289Y-16682484D01*
X13376670Y-16882484D02*
X13376670Y-16749150D01*
X13376670Y-16768198D02*
X13386193Y-16758674D01*
X13386193Y-16758674D02*
X13405241Y-16749150D01*
X13405241Y-16749150D02*
X13433813Y-16749150D01*
X13433813Y-16749150D02*
X13452860Y-16758674D01*
X13452860Y-16758674D02*
X13462384Y-16777722D01*
X13462384Y-16777722D02*
X13462384Y-16882484D01*
X13462384Y-16777722D02*
X13471908Y-16758674D01*
X13471908Y-16758674D02*
X13490955Y-16749150D01*
X13490955Y-16749150D02*
X13519527Y-16749150D01*
X13519527Y-16749150D02*
X13538574Y-16758674D01*
X13538574Y-16758674D02*
X13548098Y-16777722D01*
X13548098Y-16777722D02*
X13548098Y-16882484D01*
X13643336Y-16882484D02*
X13643336Y-16749150D01*
X13643336Y-16768198D02*
X13652860Y-16758674D01*
X13652860Y-16758674D02*
X13671908Y-16749150D01*
X13671908Y-16749150D02*
X13700479Y-16749150D01*
X13700479Y-16749150D02*
X13719527Y-16758674D01*
X13719527Y-16758674D02*
X13729051Y-16777722D01*
X13729051Y-16777722D02*
X13729051Y-16882484D01*
X13729051Y-16777722D02*
X13738574Y-16758674D01*
X13738574Y-16758674D02*
X13757622Y-16749150D01*
X13757622Y-16749150D02*
X13786193Y-16749150D01*
X13786193Y-16749150D02*
X13805241Y-16758674D01*
X13805241Y-16758674D02*
X13814765Y-16777722D01*
X13814765Y-16777722D02*
X13814765Y-16882484D01*
X14205241Y-16672960D02*
X14033813Y-16930103D01*
X14462384Y-16682484D02*
X14481432Y-16682484D01*
X14481432Y-16682484D02*
X14500479Y-16692008D01*
X14500479Y-16692008D02*
X14510003Y-16701531D01*
X14510003Y-16701531D02*
X14519527Y-16720579D01*
X14519527Y-16720579D02*
X14529051Y-16758674D01*
X14529051Y-16758674D02*
X14529051Y-16806293D01*
X14529051Y-16806293D02*
X14519527Y-16844389D01*
X14519527Y-16844389D02*
X14510003Y-16863436D01*
X14510003Y-16863436D02*
X14500479Y-16872960D01*
X14500479Y-16872960D02*
X14481432Y-16882484D01*
X14481432Y-16882484D02*
X14462384Y-16882484D01*
X14462384Y-16882484D02*
X14443336Y-16872960D01*
X14443336Y-16872960D02*
X14433813Y-16863436D01*
X14433813Y-16863436D02*
X14424289Y-16844389D01*
X14424289Y-16844389D02*
X14414765Y-16806293D01*
X14414765Y-16806293D02*
X14414765Y-16758674D01*
X14414765Y-16758674D02*
X14424289Y-16720579D01*
X14424289Y-16720579D02*
X14433813Y-16701531D01*
X14433813Y-16701531D02*
X14443336Y-16692008D01*
X14443336Y-16692008D02*
X14462384Y-16682484D01*
X14614765Y-16863436D02*
X14624289Y-16872960D01*
X14624289Y-16872960D02*
X14614765Y-16882484D01*
X14614765Y-16882484D02*
X14605241Y-16872960D01*
X14605241Y-16872960D02*
X14614765Y-16863436D01*
X14614765Y-16863436D02*
X14614765Y-16882484D01*
X14748098Y-16682484D02*
X14767146Y-16682484D01*
X14767146Y-16682484D02*
X14786194Y-16692008D01*
X14786194Y-16692008D02*
X14795717Y-16701531D01*
X14795717Y-16701531D02*
X14805241Y-16720579D01*
X14805241Y-16720579D02*
X14814765Y-16758674D01*
X14814765Y-16758674D02*
X14814765Y-16806293D01*
X14814765Y-16806293D02*
X14805241Y-16844389D01*
X14805241Y-16844389D02*
X14795717Y-16863436D01*
X14795717Y-16863436D02*
X14786194Y-16872960D01*
X14786194Y-16872960D02*
X14767146Y-16882484D01*
X14767146Y-16882484D02*
X14748098Y-16882484D01*
X14748098Y-16882484D02*
X14729051Y-16872960D01*
X14729051Y-16872960D02*
X14719527Y-16863436D01*
X14719527Y-16863436D02*
X14710003Y-16844389D01*
X14710003Y-16844389D02*
X14700479Y-16806293D01*
X14700479Y-16806293D02*
X14700479Y-16758674D01*
X14700479Y-16758674D02*
X14710003Y-16720579D01*
X14710003Y-16720579D02*
X14719527Y-16701531D01*
X14719527Y-16701531D02*
X14729051Y-16692008D01*
X14729051Y-16692008D02*
X14748098Y-16682484D01*
X14881432Y-16682484D02*
X15005241Y-16682484D01*
X15005241Y-16682484D02*
X14938575Y-16758674D01*
X14938575Y-16758674D02*
X14967146Y-16758674D01*
X14967146Y-16758674D02*
X14986194Y-16768198D01*
X14986194Y-16768198D02*
X14995717Y-16777722D01*
X14995717Y-16777722D02*
X15005241Y-16796770D01*
X15005241Y-16796770D02*
X15005241Y-16844389D01*
X15005241Y-16844389D02*
X14995717Y-16863436D01*
X14995717Y-16863436D02*
X14986194Y-16872960D01*
X14986194Y-16872960D02*
X14967146Y-16882484D01*
X14967146Y-16882484D02*
X14910003Y-16882484D01*
X14910003Y-16882484D02*
X14890956Y-16872960D01*
X14890956Y-16872960D02*
X14881432Y-16863436D01*
X15100479Y-16882484D02*
X15138575Y-16882484D01*
X15138575Y-16882484D02*
X15157622Y-16872960D01*
X15157622Y-16872960D02*
X15167146Y-16863436D01*
X15167146Y-16863436D02*
X15186194Y-16834865D01*
X15186194Y-16834865D02*
X15195717Y-16796770D01*
X15195717Y-16796770D02*
X15195717Y-16720579D01*
X15195717Y-16720579D02*
X15186194Y-16701531D01*
X15186194Y-16701531D02*
X15176670Y-16692008D01*
X15176670Y-16692008D02*
X15157622Y-16682484D01*
X15157622Y-16682484D02*
X15119527Y-16682484D01*
X15119527Y-16682484D02*
X15100479Y-16692008D01*
X15100479Y-16692008D02*
X15090956Y-16701531D01*
X15090956Y-16701531D02*
X15081432Y-16720579D01*
X15081432Y-16720579D02*
X15081432Y-16768198D01*
X15081432Y-16768198D02*
X15090956Y-16787246D01*
X15090956Y-16787246D02*
X15100479Y-16796770D01*
X15100479Y-16796770D02*
X15119527Y-16806293D01*
X15119527Y-16806293D02*
X15157622Y-16806293D01*
X15157622Y-16806293D02*
X15176670Y-16796770D01*
X15176670Y-16796770D02*
X15186194Y-16787246D01*
X15186194Y-16787246D02*
X15195717Y-16768198D01*
X15367146Y-16749150D02*
X15367146Y-16882484D01*
X15319527Y-16672960D02*
X15271908Y-16815817D01*
X15271908Y-16815817D02*
X15395717Y-16815817D01*
X15462384Y-16682484D02*
X15462384Y-16720579D01*
X15538575Y-16682484D02*
X15538575Y-16720579D01*
X15833813Y-16958674D02*
X15824289Y-16949150D01*
X15824289Y-16949150D02*
X15805241Y-16920579D01*
X15805241Y-16920579D02*
X15795718Y-16901531D01*
X15795718Y-16901531D02*
X15786194Y-16872960D01*
X15786194Y-16872960D02*
X15776670Y-16825341D01*
X15776670Y-16825341D02*
X15776670Y-16787246D01*
X15776670Y-16787246D02*
X15786194Y-16739627D01*
X15786194Y-16739627D02*
X15795718Y-16711055D01*
X15795718Y-16711055D02*
X15805241Y-16692008D01*
X15805241Y-16692008D02*
X15824289Y-16663436D01*
X15824289Y-16663436D02*
X15833813Y-16653912D01*
X15995718Y-16749150D02*
X15995718Y-16882484D01*
X15948098Y-16672960D02*
X15900479Y-16815817D01*
X15900479Y-16815817D02*
X16024289Y-16815817D01*
X16129051Y-16768198D02*
X16110003Y-16758674D01*
X16110003Y-16758674D02*
X16100479Y-16749150D01*
X16100479Y-16749150D02*
X16090956Y-16730103D01*
X16090956Y-16730103D02*
X16090956Y-16720579D01*
X16090956Y-16720579D02*
X16100479Y-16701531D01*
X16100479Y-16701531D02*
X16110003Y-16692008D01*
X16110003Y-16692008D02*
X16129051Y-16682484D01*
X16129051Y-16682484D02*
X16167146Y-16682484D01*
X16167146Y-16682484D02*
X16186194Y-16692008D01*
X16186194Y-16692008D02*
X16195718Y-16701531D01*
X16195718Y-16701531D02*
X16205241Y-16720579D01*
X16205241Y-16720579D02*
X16205241Y-16730103D01*
X16205241Y-16730103D02*
X16195718Y-16749150D01*
X16195718Y-16749150D02*
X16186194Y-16758674D01*
X16186194Y-16758674D02*
X16167146Y-16768198D01*
X16167146Y-16768198D02*
X16129051Y-16768198D01*
X16129051Y-16768198D02*
X16110003Y-16777722D01*
X16110003Y-16777722D02*
X16100479Y-16787246D01*
X16100479Y-16787246D02*
X16090956Y-16806293D01*
X16090956Y-16806293D02*
X16090956Y-16844389D01*
X16090956Y-16844389D02*
X16100479Y-16863436D01*
X16100479Y-16863436D02*
X16110003Y-16872960D01*
X16110003Y-16872960D02*
X16129051Y-16882484D01*
X16129051Y-16882484D02*
X16167146Y-16882484D01*
X16167146Y-16882484D02*
X16186194Y-16872960D01*
X16186194Y-16872960D02*
X16195718Y-16863436D01*
X16195718Y-16863436D02*
X16205241Y-16844389D01*
X16205241Y-16844389D02*
X16205241Y-16806293D01*
X16205241Y-16806293D02*
X16195718Y-16787246D01*
X16195718Y-16787246D02*
X16186194Y-16777722D01*
X16186194Y-16777722D02*
X16167146Y-16768198D01*
X16443337Y-16882484D02*
X16443337Y-16682484D01*
X16529051Y-16882484D02*
X16529051Y-16777722D01*
X16529051Y-16777722D02*
X16519527Y-16758674D01*
X16519527Y-16758674D02*
X16500480Y-16749150D01*
X16500480Y-16749150D02*
X16471908Y-16749150D01*
X16471908Y-16749150D02*
X16452860Y-16758674D01*
X16452860Y-16758674D02*
X16443337Y-16768198D01*
X16652860Y-16882484D02*
X16633813Y-16872960D01*
X16633813Y-16872960D02*
X16624289Y-16863436D01*
X16624289Y-16863436D02*
X16614765Y-16844389D01*
X16614765Y-16844389D02*
X16614765Y-16787246D01*
X16614765Y-16787246D02*
X16624289Y-16768198D01*
X16624289Y-16768198D02*
X16633813Y-16758674D01*
X16633813Y-16758674D02*
X16652860Y-16749150D01*
X16652860Y-16749150D02*
X16681432Y-16749150D01*
X16681432Y-16749150D02*
X16700480Y-16758674D01*
X16700480Y-16758674D02*
X16710003Y-16768198D01*
X16710003Y-16768198D02*
X16719527Y-16787246D01*
X16719527Y-16787246D02*
X16719527Y-16844389D01*
X16719527Y-16844389D02*
X16710003Y-16863436D01*
X16710003Y-16863436D02*
X16700480Y-16872960D01*
X16700480Y-16872960D02*
X16681432Y-16882484D01*
X16681432Y-16882484D02*
X16652860Y-16882484D01*
X16833813Y-16882484D02*
X16814765Y-16872960D01*
X16814765Y-16872960D02*
X16805242Y-16853912D01*
X16805242Y-16853912D02*
X16805242Y-16682484D01*
X16986194Y-16872960D02*
X16967146Y-16882484D01*
X16967146Y-16882484D02*
X16929051Y-16882484D01*
X16929051Y-16882484D02*
X16910003Y-16872960D01*
X16910003Y-16872960D02*
X16900480Y-16853912D01*
X16900480Y-16853912D02*
X16900480Y-16777722D01*
X16900480Y-16777722D02*
X16910003Y-16758674D01*
X16910003Y-16758674D02*
X16929051Y-16749150D01*
X16929051Y-16749150D02*
X16967146Y-16749150D01*
X16967146Y-16749150D02*
X16986194Y-16758674D01*
X16986194Y-16758674D02*
X16995718Y-16777722D01*
X16995718Y-16777722D02*
X16995718Y-16796770D01*
X16995718Y-16796770D02*
X16900480Y-16815817D01*
X17071908Y-16872960D02*
X17090956Y-16882484D01*
X17090956Y-16882484D02*
X17129051Y-16882484D01*
X17129051Y-16882484D02*
X17148099Y-16872960D01*
X17148099Y-16872960D02*
X17157623Y-16853912D01*
X17157623Y-16853912D02*
X17157623Y-16844389D01*
X17157623Y-16844389D02*
X17148099Y-16825341D01*
X17148099Y-16825341D02*
X17129051Y-16815817D01*
X17129051Y-16815817D02*
X17100480Y-16815817D01*
X17100480Y-16815817D02*
X17081432Y-16806293D01*
X17081432Y-16806293D02*
X17071908Y-16787246D01*
X17071908Y-16787246D02*
X17071908Y-16777722D01*
X17071908Y-16777722D02*
X17081432Y-16758674D01*
X17081432Y-16758674D02*
X17100480Y-16749150D01*
X17100480Y-16749150D02*
X17129051Y-16749150D01*
X17129051Y-16749150D02*
X17148099Y-16758674D01*
X17224289Y-16958674D02*
X17233813Y-16949150D01*
X17233813Y-16949150D02*
X17252861Y-16920579D01*
X17252861Y-16920579D02*
X17262384Y-16901531D01*
X17262384Y-16901531D02*
X17271908Y-16872960D01*
X17271908Y-16872960D02*
X17281432Y-16825341D01*
X17281432Y-16825341D02*
X17281432Y-16787246D01*
X17281432Y-16787246D02*
X17271908Y-16739627D01*
X17271908Y-16739627D02*
X17262384Y-16711055D01*
X17262384Y-16711055D02*
X17252861Y-16692008D01*
X17252861Y-16692008D02*
X17233813Y-16663436D01*
X17233813Y-16663436D02*
X17224289Y-16653912D01*
D12*
X12148750Y-17000000D02*
X12258750Y-17110000D01*
X12258750Y-17000000D02*
X12148750Y-17110000D01*
X12258750Y-17055000D02*
G75*
G03*
X12258750Y-17055000I-55000J0D01*
G01*
D11*
X12624289Y-17146484D02*
X12510003Y-17146484D01*
X12567146Y-17146484D02*
X12567146Y-16946484D01*
X12567146Y-16946484D02*
X12548098Y-16975055D01*
X12548098Y-16975055D02*
X12529051Y-16994103D01*
X12529051Y-16994103D02*
X12510003Y-17003627D01*
X12710003Y-17127436D02*
X12719527Y-17136960D01*
X12719527Y-17136960D02*
X12710003Y-17146484D01*
X12710003Y-17146484D02*
X12700479Y-17136960D01*
X12700479Y-17136960D02*
X12710003Y-17127436D01*
X12710003Y-17127436D02*
X12710003Y-17146484D01*
X12910003Y-17146484D02*
X12795717Y-17146484D01*
X12852860Y-17146484D02*
X12852860Y-16946484D01*
X12852860Y-16946484D02*
X12833812Y-16975055D01*
X12833812Y-16975055D02*
X12814765Y-16994103D01*
X12814765Y-16994103D02*
X12795717Y-17003627D01*
X13033812Y-16946484D02*
X13052860Y-16946484D01*
X13052860Y-16946484D02*
X13071908Y-16956008D01*
X13071908Y-16956008D02*
X13081432Y-16965531D01*
X13081432Y-16965531D02*
X13090955Y-16984579D01*
X13090955Y-16984579D02*
X13100479Y-17022674D01*
X13100479Y-17022674D02*
X13100479Y-17070293D01*
X13100479Y-17070293D02*
X13090955Y-17108389D01*
X13090955Y-17108389D02*
X13081432Y-17127436D01*
X13081432Y-17127436D02*
X13071908Y-17136960D01*
X13071908Y-17136960D02*
X13052860Y-17146484D01*
X13052860Y-17146484D02*
X13033812Y-17146484D01*
X13033812Y-17146484D02*
X13014765Y-17136960D01*
X13014765Y-17136960D02*
X13005241Y-17127436D01*
X13005241Y-17127436D02*
X12995717Y-17108389D01*
X12995717Y-17108389D02*
X12986193Y-17070293D01*
X12986193Y-17070293D02*
X12986193Y-17022674D01*
X12986193Y-17022674D02*
X12995717Y-16984579D01*
X12995717Y-16984579D02*
X13005241Y-16965531D01*
X13005241Y-16965531D02*
X13014765Y-16956008D01*
X13014765Y-16956008D02*
X13033812Y-16946484D01*
X13224289Y-16946484D02*
X13243336Y-16946484D01*
X13243336Y-16946484D02*
X13262384Y-16956008D01*
X13262384Y-16956008D02*
X13271908Y-16965531D01*
X13271908Y-16965531D02*
X13281432Y-16984579D01*
X13281432Y-16984579D02*
X13290955Y-17022674D01*
X13290955Y-17022674D02*
X13290955Y-17070293D01*
X13290955Y-17070293D02*
X13281432Y-17108389D01*
X13281432Y-17108389D02*
X13271908Y-17127436D01*
X13271908Y-17127436D02*
X13262384Y-17136960D01*
X13262384Y-17136960D02*
X13243336Y-17146484D01*
X13243336Y-17146484D02*
X13224289Y-17146484D01*
X13224289Y-17146484D02*
X13205241Y-17136960D01*
X13205241Y-17136960D02*
X13195717Y-17127436D01*
X13195717Y-17127436D02*
X13186193Y-17108389D01*
X13186193Y-17108389D02*
X13176670Y-17070293D01*
X13176670Y-17070293D02*
X13176670Y-17022674D01*
X13176670Y-17022674D02*
X13186193Y-16984579D01*
X13186193Y-16984579D02*
X13195717Y-16965531D01*
X13195717Y-16965531D02*
X13205241Y-16956008D01*
X13205241Y-16956008D02*
X13224289Y-16946484D01*
X13376670Y-17146484D02*
X13376670Y-17013150D01*
X13376670Y-17032198D02*
X13386193Y-17022674D01*
X13386193Y-17022674D02*
X13405241Y-17013150D01*
X13405241Y-17013150D02*
X13433813Y-17013150D01*
X13433813Y-17013150D02*
X13452860Y-17022674D01*
X13452860Y-17022674D02*
X13462384Y-17041722D01*
X13462384Y-17041722D02*
X13462384Y-17146484D01*
X13462384Y-17041722D02*
X13471908Y-17022674D01*
X13471908Y-17022674D02*
X13490955Y-17013150D01*
X13490955Y-17013150D02*
X13519527Y-17013150D01*
X13519527Y-17013150D02*
X13538574Y-17022674D01*
X13538574Y-17022674D02*
X13548098Y-17041722D01*
X13548098Y-17041722D02*
X13548098Y-17146484D01*
X13643336Y-17146484D02*
X13643336Y-17013150D01*
X13643336Y-17032198D02*
X13652860Y-17022674D01*
X13652860Y-17022674D02*
X13671908Y-17013150D01*
X13671908Y-17013150D02*
X13700479Y-17013150D01*
X13700479Y-17013150D02*
X13719527Y-17022674D01*
X13719527Y-17022674D02*
X13729051Y-17041722D01*
X13729051Y-17041722D02*
X13729051Y-17146484D01*
X13729051Y-17041722D02*
X13738574Y-17022674D01*
X13738574Y-17022674D02*
X13757622Y-17013150D01*
X13757622Y-17013150D02*
X13786193Y-17013150D01*
X13786193Y-17013150D02*
X13805241Y-17022674D01*
X13805241Y-17022674D02*
X13814765Y-17041722D01*
X13814765Y-17041722D02*
X13814765Y-17146484D01*
X14205241Y-16936960D02*
X14033813Y-17194103D01*
X14462384Y-16946484D02*
X14481432Y-16946484D01*
X14481432Y-16946484D02*
X14500479Y-16956008D01*
X14500479Y-16956008D02*
X14510003Y-16965531D01*
X14510003Y-16965531D02*
X14519527Y-16984579D01*
X14519527Y-16984579D02*
X14529051Y-17022674D01*
X14529051Y-17022674D02*
X14529051Y-17070293D01*
X14529051Y-17070293D02*
X14519527Y-17108389D01*
X14519527Y-17108389D02*
X14510003Y-17127436D01*
X14510003Y-17127436D02*
X14500479Y-17136960D01*
X14500479Y-17136960D02*
X14481432Y-17146484D01*
X14481432Y-17146484D02*
X14462384Y-17146484D01*
X14462384Y-17146484D02*
X14443336Y-17136960D01*
X14443336Y-17136960D02*
X14433813Y-17127436D01*
X14433813Y-17127436D02*
X14424289Y-17108389D01*
X14424289Y-17108389D02*
X14414765Y-17070293D01*
X14414765Y-17070293D02*
X14414765Y-17022674D01*
X14414765Y-17022674D02*
X14424289Y-16984579D01*
X14424289Y-16984579D02*
X14433813Y-16965531D01*
X14433813Y-16965531D02*
X14443336Y-16956008D01*
X14443336Y-16956008D02*
X14462384Y-16946484D01*
X14614765Y-17127436D02*
X14624289Y-17136960D01*
X14624289Y-17136960D02*
X14614765Y-17146484D01*
X14614765Y-17146484D02*
X14605241Y-17136960D01*
X14605241Y-17136960D02*
X14614765Y-17127436D01*
X14614765Y-17127436D02*
X14614765Y-17146484D01*
X14748098Y-16946484D02*
X14767146Y-16946484D01*
X14767146Y-16946484D02*
X14786194Y-16956008D01*
X14786194Y-16956008D02*
X14795717Y-16965531D01*
X14795717Y-16965531D02*
X14805241Y-16984579D01*
X14805241Y-16984579D02*
X14814765Y-17022674D01*
X14814765Y-17022674D02*
X14814765Y-17070293D01*
X14814765Y-17070293D02*
X14805241Y-17108389D01*
X14805241Y-17108389D02*
X14795717Y-17127436D01*
X14795717Y-17127436D02*
X14786194Y-17136960D01*
X14786194Y-17136960D02*
X14767146Y-17146484D01*
X14767146Y-17146484D02*
X14748098Y-17146484D01*
X14748098Y-17146484D02*
X14729051Y-17136960D01*
X14729051Y-17136960D02*
X14719527Y-17127436D01*
X14719527Y-17127436D02*
X14710003Y-17108389D01*
X14710003Y-17108389D02*
X14700479Y-17070293D01*
X14700479Y-17070293D02*
X14700479Y-17022674D01*
X14700479Y-17022674D02*
X14710003Y-16984579D01*
X14710003Y-16984579D02*
X14719527Y-16965531D01*
X14719527Y-16965531D02*
X14729051Y-16956008D01*
X14729051Y-16956008D02*
X14748098Y-16946484D01*
X14986194Y-17013150D02*
X14986194Y-17146484D01*
X14938575Y-16936960D02*
X14890956Y-17079817D01*
X14890956Y-17079817D02*
X15014765Y-17079817D01*
X15071908Y-16946484D02*
X15195717Y-16946484D01*
X15195717Y-16946484D02*
X15129051Y-17022674D01*
X15129051Y-17022674D02*
X15157622Y-17022674D01*
X15157622Y-17022674D02*
X15176670Y-17032198D01*
X15176670Y-17032198D02*
X15186194Y-17041722D01*
X15186194Y-17041722D02*
X15195717Y-17060770D01*
X15195717Y-17060770D02*
X15195717Y-17108389D01*
X15195717Y-17108389D02*
X15186194Y-17127436D01*
X15186194Y-17127436D02*
X15176670Y-17136960D01*
X15176670Y-17136960D02*
X15157622Y-17146484D01*
X15157622Y-17146484D02*
X15100479Y-17146484D01*
X15100479Y-17146484D02*
X15081432Y-17136960D01*
X15081432Y-17136960D02*
X15071908Y-17127436D01*
X15262384Y-16946484D02*
X15386194Y-16946484D01*
X15386194Y-16946484D02*
X15319527Y-17022674D01*
X15319527Y-17022674D02*
X15348098Y-17022674D01*
X15348098Y-17022674D02*
X15367146Y-17032198D01*
X15367146Y-17032198D02*
X15376670Y-17041722D01*
X15376670Y-17041722D02*
X15386194Y-17060770D01*
X15386194Y-17060770D02*
X15386194Y-17108389D01*
X15386194Y-17108389D02*
X15376670Y-17127436D01*
X15376670Y-17127436D02*
X15367146Y-17136960D01*
X15367146Y-17136960D02*
X15348098Y-17146484D01*
X15348098Y-17146484D02*
X15290956Y-17146484D01*
X15290956Y-17146484D02*
X15271908Y-17136960D01*
X15271908Y-17136960D02*
X15262384Y-17127436D01*
X15462384Y-16946484D02*
X15462384Y-16984579D01*
X15538575Y-16946484D02*
X15538575Y-16984579D01*
X15833813Y-17222674D02*
X15824289Y-17213150D01*
X15824289Y-17213150D02*
X15805241Y-17184579D01*
X15805241Y-17184579D02*
X15795718Y-17165531D01*
X15795718Y-17165531D02*
X15786194Y-17136960D01*
X15786194Y-17136960D02*
X15776670Y-17089341D01*
X15776670Y-17089341D02*
X15776670Y-17051246D01*
X15776670Y-17051246D02*
X15786194Y-17003627D01*
X15786194Y-17003627D02*
X15795718Y-16975055D01*
X15795718Y-16975055D02*
X15805241Y-16956008D01*
X15805241Y-16956008D02*
X15824289Y-16927436D01*
X15824289Y-16927436D02*
X15833813Y-16917912D01*
X15919527Y-17146484D02*
X15957622Y-17146484D01*
X15957622Y-17146484D02*
X15976670Y-17136960D01*
X15976670Y-17136960D02*
X15986194Y-17127436D01*
X15986194Y-17127436D02*
X16005241Y-17098865D01*
X16005241Y-17098865D02*
X16014765Y-17060770D01*
X16014765Y-17060770D02*
X16014765Y-16984579D01*
X16014765Y-16984579D02*
X16005241Y-16965531D01*
X16005241Y-16965531D02*
X15995718Y-16956008D01*
X15995718Y-16956008D02*
X15976670Y-16946484D01*
X15976670Y-16946484D02*
X15938575Y-16946484D01*
X15938575Y-16946484D02*
X15919527Y-16956008D01*
X15919527Y-16956008D02*
X15910003Y-16965531D01*
X15910003Y-16965531D02*
X15900479Y-16984579D01*
X15900479Y-16984579D02*
X15900479Y-17032198D01*
X15900479Y-17032198D02*
X15910003Y-17051246D01*
X15910003Y-17051246D02*
X15919527Y-17060770D01*
X15919527Y-17060770D02*
X15938575Y-17070293D01*
X15938575Y-17070293D02*
X15976670Y-17070293D01*
X15976670Y-17070293D02*
X15995718Y-17060770D01*
X15995718Y-17060770D02*
X16005241Y-17051246D01*
X16005241Y-17051246D02*
X16014765Y-17032198D01*
X16252860Y-17146484D02*
X16252860Y-16946484D01*
X16338575Y-17146484D02*
X16338575Y-17041722D01*
X16338575Y-17041722D02*
X16329051Y-17022674D01*
X16329051Y-17022674D02*
X16310003Y-17013150D01*
X16310003Y-17013150D02*
X16281432Y-17013150D01*
X16281432Y-17013150D02*
X16262384Y-17022674D01*
X16262384Y-17022674D02*
X16252860Y-17032198D01*
X16462384Y-17146484D02*
X16443337Y-17136960D01*
X16443337Y-17136960D02*
X16433813Y-17127436D01*
X16433813Y-17127436D02*
X16424289Y-17108389D01*
X16424289Y-17108389D02*
X16424289Y-17051246D01*
X16424289Y-17051246D02*
X16433813Y-17032198D01*
X16433813Y-17032198D02*
X16443337Y-17022674D01*
X16443337Y-17022674D02*
X16462384Y-17013150D01*
X16462384Y-17013150D02*
X16490956Y-17013150D01*
X16490956Y-17013150D02*
X16510003Y-17022674D01*
X16510003Y-17022674D02*
X16519527Y-17032198D01*
X16519527Y-17032198D02*
X16529051Y-17051246D01*
X16529051Y-17051246D02*
X16529051Y-17108389D01*
X16529051Y-17108389D02*
X16519527Y-17127436D01*
X16519527Y-17127436D02*
X16510003Y-17136960D01*
X16510003Y-17136960D02*
X16490956Y-17146484D01*
X16490956Y-17146484D02*
X16462384Y-17146484D01*
X16643337Y-17146484D02*
X16624289Y-17136960D01*
X16624289Y-17136960D02*
X16614765Y-17117912D01*
X16614765Y-17117912D02*
X16614765Y-16946484D01*
X16795718Y-17136960D02*
X16776670Y-17146484D01*
X16776670Y-17146484D02*
X16738575Y-17146484D01*
X16738575Y-17146484D02*
X16719527Y-17136960D01*
X16719527Y-17136960D02*
X16710003Y-17117912D01*
X16710003Y-17117912D02*
X16710003Y-17041722D01*
X16710003Y-17041722D02*
X16719527Y-17022674D01*
X16719527Y-17022674D02*
X16738575Y-17013150D01*
X16738575Y-17013150D02*
X16776670Y-17013150D01*
X16776670Y-17013150D02*
X16795718Y-17022674D01*
X16795718Y-17022674D02*
X16805242Y-17041722D01*
X16805242Y-17041722D02*
X16805242Y-17060770D01*
X16805242Y-17060770D02*
X16710003Y-17079817D01*
X16881432Y-17136960D02*
X16900480Y-17146484D01*
X16900480Y-17146484D02*
X16938575Y-17146484D01*
X16938575Y-17146484D02*
X16957623Y-17136960D01*
X16957623Y-17136960D02*
X16967146Y-17117912D01*
X16967146Y-17117912D02*
X16967146Y-17108389D01*
X16967146Y-17108389D02*
X16957623Y-17089341D01*
X16957623Y-17089341D02*
X16938575Y-17079817D01*
X16938575Y-17079817D02*
X16910003Y-17079817D01*
X16910003Y-17079817D02*
X16890956Y-17070293D01*
X16890956Y-17070293D02*
X16881432Y-17051246D01*
X16881432Y-17051246D02*
X16881432Y-17041722D01*
X16881432Y-17041722D02*
X16890956Y-17022674D01*
X16890956Y-17022674D02*
X16910003Y-17013150D01*
X16910003Y-17013150D02*
X16938575Y-17013150D01*
X16938575Y-17013150D02*
X16957623Y-17022674D01*
X17033813Y-17222674D02*
X17043337Y-17213150D01*
X17043337Y-17213150D02*
X17062384Y-17184579D01*
X17062384Y-17184579D02*
X17071908Y-17165531D01*
X17071908Y-17165531D02*
X17081432Y-17136960D01*
X17081432Y-17136960D02*
X17090956Y-17089341D01*
X17090956Y-17089341D02*
X17090956Y-17051246D01*
X17090956Y-17051246D02*
X17081432Y-17003627D01*
X17081432Y-17003627D02*
X17071908Y-16975055D01*
X17071908Y-16975055D02*
X17062384Y-16956008D01*
X17062384Y-16956008D02*
X17043337Y-16927436D01*
X17043337Y-16927436D02*
X17033813Y-16917912D01*
D13*
X12118750Y-17249000D02*
X12258750Y-17389000D01*
X12258750Y-17249000D02*
X12118750Y-17389000D01*
X12188750Y-17249000D02*
X12188750Y-17389000D01*
X12118750Y-17319000D02*
X12258750Y-17319000D01*
D11*
X12624289Y-17410484D02*
X12510003Y-17410484D01*
X12567146Y-17410484D02*
X12567146Y-17210484D01*
X12567146Y-17210484D02*
X12548098Y-17239055D01*
X12548098Y-17239055D02*
X12529051Y-17258103D01*
X12529051Y-17258103D02*
X12510003Y-17267627D01*
X12710003Y-17391436D02*
X12719527Y-17400960D01*
X12719527Y-17400960D02*
X12710003Y-17410484D01*
X12710003Y-17410484D02*
X12700479Y-17400960D01*
X12700479Y-17400960D02*
X12710003Y-17391436D01*
X12710003Y-17391436D02*
X12710003Y-17410484D01*
X12890955Y-17277150D02*
X12890955Y-17410484D01*
X12843336Y-17200960D02*
X12795717Y-17343817D01*
X12795717Y-17343817D02*
X12919527Y-17343817D01*
X13033812Y-17210484D02*
X13052860Y-17210484D01*
X13052860Y-17210484D02*
X13071908Y-17220008D01*
X13071908Y-17220008D02*
X13081432Y-17229531D01*
X13081432Y-17229531D02*
X13090955Y-17248579D01*
X13090955Y-17248579D02*
X13100479Y-17286674D01*
X13100479Y-17286674D02*
X13100479Y-17334293D01*
X13100479Y-17334293D02*
X13090955Y-17372389D01*
X13090955Y-17372389D02*
X13081432Y-17391436D01*
X13081432Y-17391436D02*
X13071908Y-17400960D01*
X13071908Y-17400960D02*
X13052860Y-17410484D01*
X13052860Y-17410484D02*
X13033812Y-17410484D01*
X13033812Y-17410484D02*
X13014765Y-17400960D01*
X13014765Y-17400960D02*
X13005241Y-17391436D01*
X13005241Y-17391436D02*
X12995717Y-17372389D01*
X12995717Y-17372389D02*
X12986193Y-17334293D01*
X12986193Y-17334293D02*
X12986193Y-17286674D01*
X12986193Y-17286674D02*
X12995717Y-17248579D01*
X12995717Y-17248579D02*
X13005241Y-17229531D01*
X13005241Y-17229531D02*
X13014765Y-17220008D01*
X13014765Y-17220008D02*
X13033812Y-17210484D01*
X13224289Y-17210484D02*
X13243336Y-17210484D01*
X13243336Y-17210484D02*
X13262384Y-17220008D01*
X13262384Y-17220008D02*
X13271908Y-17229531D01*
X13271908Y-17229531D02*
X13281432Y-17248579D01*
X13281432Y-17248579D02*
X13290955Y-17286674D01*
X13290955Y-17286674D02*
X13290955Y-17334293D01*
X13290955Y-17334293D02*
X13281432Y-17372389D01*
X13281432Y-17372389D02*
X13271908Y-17391436D01*
X13271908Y-17391436D02*
X13262384Y-17400960D01*
X13262384Y-17400960D02*
X13243336Y-17410484D01*
X13243336Y-17410484D02*
X13224289Y-17410484D01*
X13224289Y-17410484D02*
X13205241Y-17400960D01*
X13205241Y-17400960D02*
X13195717Y-17391436D01*
X13195717Y-17391436D02*
X13186193Y-17372389D01*
X13186193Y-17372389D02*
X13176670Y-17334293D01*
X13176670Y-17334293D02*
X13176670Y-17286674D01*
X13176670Y-17286674D02*
X13186193Y-17248579D01*
X13186193Y-17248579D02*
X13195717Y-17229531D01*
X13195717Y-17229531D02*
X13205241Y-17220008D01*
X13205241Y-17220008D02*
X13224289Y-17210484D01*
X13376670Y-17410484D02*
X13376670Y-17277150D01*
X13376670Y-17296198D02*
X13386193Y-17286674D01*
X13386193Y-17286674D02*
X13405241Y-17277150D01*
X13405241Y-17277150D02*
X13433813Y-17277150D01*
X13433813Y-17277150D02*
X13452860Y-17286674D01*
X13452860Y-17286674D02*
X13462384Y-17305722D01*
X13462384Y-17305722D02*
X13462384Y-17410484D01*
X13462384Y-17305722D02*
X13471908Y-17286674D01*
X13471908Y-17286674D02*
X13490955Y-17277150D01*
X13490955Y-17277150D02*
X13519527Y-17277150D01*
X13519527Y-17277150D02*
X13538574Y-17286674D01*
X13538574Y-17286674D02*
X13548098Y-17305722D01*
X13548098Y-17305722D02*
X13548098Y-17410484D01*
X13643336Y-17410484D02*
X13643336Y-17277150D01*
X13643336Y-17296198D02*
X13652860Y-17286674D01*
X13652860Y-17286674D02*
X13671908Y-17277150D01*
X13671908Y-17277150D02*
X13700479Y-17277150D01*
X13700479Y-17277150D02*
X13719527Y-17286674D01*
X13719527Y-17286674D02*
X13729051Y-17305722D01*
X13729051Y-17305722D02*
X13729051Y-17410484D01*
X13729051Y-17305722D02*
X13738574Y-17286674D01*
X13738574Y-17286674D02*
X13757622Y-17277150D01*
X13757622Y-17277150D02*
X13786193Y-17277150D01*
X13786193Y-17277150D02*
X13805241Y-17286674D01*
X13805241Y-17286674D02*
X13814765Y-17305722D01*
X13814765Y-17305722D02*
X13814765Y-17410484D01*
X14205241Y-17200960D02*
X14033813Y-17458103D01*
X14462384Y-17210484D02*
X14481432Y-17210484D01*
X14481432Y-17210484D02*
X14500479Y-17220008D01*
X14500479Y-17220008D02*
X14510003Y-17229531D01*
X14510003Y-17229531D02*
X14519527Y-17248579D01*
X14519527Y-17248579D02*
X14529051Y-17286674D01*
X14529051Y-17286674D02*
X14529051Y-17334293D01*
X14529051Y-17334293D02*
X14519527Y-17372389D01*
X14519527Y-17372389D02*
X14510003Y-17391436D01*
X14510003Y-17391436D02*
X14500479Y-17400960D01*
X14500479Y-17400960D02*
X14481432Y-17410484D01*
X14481432Y-17410484D02*
X14462384Y-17410484D01*
X14462384Y-17410484D02*
X14443336Y-17400960D01*
X14443336Y-17400960D02*
X14433813Y-17391436D01*
X14433813Y-17391436D02*
X14424289Y-17372389D01*
X14424289Y-17372389D02*
X14414765Y-17334293D01*
X14414765Y-17334293D02*
X14414765Y-17286674D01*
X14414765Y-17286674D02*
X14424289Y-17248579D01*
X14424289Y-17248579D02*
X14433813Y-17229531D01*
X14433813Y-17229531D02*
X14443336Y-17220008D01*
X14443336Y-17220008D02*
X14462384Y-17210484D01*
X14614765Y-17391436D02*
X14624289Y-17400960D01*
X14624289Y-17400960D02*
X14614765Y-17410484D01*
X14614765Y-17410484D02*
X14605241Y-17400960D01*
X14605241Y-17400960D02*
X14614765Y-17391436D01*
X14614765Y-17391436D02*
X14614765Y-17410484D01*
X14748098Y-17210484D02*
X14767146Y-17210484D01*
X14767146Y-17210484D02*
X14786194Y-17220008D01*
X14786194Y-17220008D02*
X14795717Y-17229531D01*
X14795717Y-17229531D02*
X14805241Y-17248579D01*
X14805241Y-17248579D02*
X14814765Y-17286674D01*
X14814765Y-17286674D02*
X14814765Y-17334293D01*
X14814765Y-17334293D02*
X14805241Y-17372389D01*
X14805241Y-17372389D02*
X14795717Y-17391436D01*
X14795717Y-17391436D02*
X14786194Y-17400960D01*
X14786194Y-17400960D02*
X14767146Y-17410484D01*
X14767146Y-17410484D02*
X14748098Y-17410484D01*
X14748098Y-17410484D02*
X14729051Y-17400960D01*
X14729051Y-17400960D02*
X14719527Y-17391436D01*
X14719527Y-17391436D02*
X14710003Y-17372389D01*
X14710003Y-17372389D02*
X14700479Y-17334293D01*
X14700479Y-17334293D02*
X14700479Y-17286674D01*
X14700479Y-17286674D02*
X14710003Y-17248579D01*
X14710003Y-17248579D02*
X14719527Y-17229531D01*
X14719527Y-17229531D02*
X14729051Y-17220008D01*
X14729051Y-17220008D02*
X14748098Y-17210484D01*
X14995717Y-17210484D02*
X14900479Y-17210484D01*
X14900479Y-17210484D02*
X14890956Y-17305722D01*
X14890956Y-17305722D02*
X14900479Y-17296198D01*
X14900479Y-17296198D02*
X14919527Y-17286674D01*
X14919527Y-17286674D02*
X14967146Y-17286674D01*
X14967146Y-17286674D02*
X14986194Y-17296198D01*
X14986194Y-17296198D02*
X14995717Y-17305722D01*
X14995717Y-17305722D02*
X15005241Y-17324770D01*
X15005241Y-17324770D02*
X15005241Y-17372389D01*
X15005241Y-17372389D02*
X14995717Y-17391436D01*
X14995717Y-17391436D02*
X14986194Y-17400960D01*
X14986194Y-17400960D02*
X14967146Y-17410484D01*
X14967146Y-17410484D02*
X14919527Y-17410484D01*
X14919527Y-17410484D02*
X14900479Y-17400960D01*
X14900479Y-17400960D02*
X14890956Y-17391436D01*
X15186194Y-17210484D02*
X15090956Y-17210484D01*
X15090956Y-17210484D02*
X15081432Y-17305722D01*
X15081432Y-17305722D02*
X15090956Y-17296198D01*
X15090956Y-17296198D02*
X15110003Y-17286674D01*
X15110003Y-17286674D02*
X15157622Y-17286674D01*
X15157622Y-17286674D02*
X15176670Y-17296198D01*
X15176670Y-17296198D02*
X15186194Y-17305722D01*
X15186194Y-17305722D02*
X15195717Y-17324770D01*
X15195717Y-17324770D02*
X15195717Y-17372389D01*
X15195717Y-17372389D02*
X15186194Y-17391436D01*
X15186194Y-17391436D02*
X15176670Y-17400960D01*
X15176670Y-17400960D02*
X15157622Y-17410484D01*
X15157622Y-17410484D02*
X15110003Y-17410484D01*
X15110003Y-17410484D02*
X15090956Y-17400960D01*
X15090956Y-17400960D02*
X15081432Y-17391436D01*
X15386194Y-17410484D02*
X15271908Y-17410484D01*
X15329051Y-17410484D02*
X15329051Y-17210484D01*
X15329051Y-17210484D02*
X15310003Y-17239055D01*
X15310003Y-17239055D02*
X15290956Y-17258103D01*
X15290956Y-17258103D02*
X15271908Y-17267627D01*
X15462384Y-17210484D02*
X15462384Y-17248579D01*
X15538575Y-17210484D02*
X15538575Y-17248579D01*
X15833813Y-17486674D02*
X15824289Y-17477150D01*
X15824289Y-17477150D02*
X15805241Y-17448579D01*
X15805241Y-17448579D02*
X15795718Y-17429531D01*
X15795718Y-17429531D02*
X15786194Y-17400960D01*
X15786194Y-17400960D02*
X15776670Y-17353341D01*
X15776670Y-17353341D02*
X15776670Y-17315246D01*
X15776670Y-17315246D02*
X15786194Y-17267627D01*
X15786194Y-17267627D02*
X15795718Y-17239055D01*
X15795718Y-17239055D02*
X15805241Y-17220008D01*
X15805241Y-17220008D02*
X15824289Y-17191436D01*
X15824289Y-17191436D02*
X15833813Y-17181912D01*
X15890956Y-17210484D02*
X16014765Y-17210484D01*
X16014765Y-17210484D02*
X15948098Y-17286674D01*
X15948098Y-17286674D02*
X15976670Y-17286674D01*
X15976670Y-17286674D02*
X15995718Y-17296198D01*
X15995718Y-17296198D02*
X16005241Y-17305722D01*
X16005241Y-17305722D02*
X16014765Y-17324770D01*
X16014765Y-17324770D02*
X16014765Y-17372389D01*
X16014765Y-17372389D02*
X16005241Y-17391436D01*
X16005241Y-17391436D02*
X15995718Y-17400960D01*
X15995718Y-17400960D02*
X15976670Y-17410484D01*
X15976670Y-17410484D02*
X15919527Y-17410484D01*
X15919527Y-17410484D02*
X15900479Y-17400960D01*
X15900479Y-17400960D02*
X15890956Y-17391436D01*
X16186194Y-17210484D02*
X16148098Y-17210484D01*
X16148098Y-17210484D02*
X16129051Y-17220008D01*
X16129051Y-17220008D02*
X16119527Y-17229531D01*
X16119527Y-17229531D02*
X16100479Y-17258103D01*
X16100479Y-17258103D02*
X16090956Y-17296198D01*
X16090956Y-17296198D02*
X16090956Y-17372389D01*
X16090956Y-17372389D02*
X16100479Y-17391436D01*
X16100479Y-17391436D02*
X16110003Y-17400960D01*
X16110003Y-17400960D02*
X16129051Y-17410484D01*
X16129051Y-17410484D02*
X16167146Y-17410484D01*
X16167146Y-17410484D02*
X16186194Y-17400960D01*
X16186194Y-17400960D02*
X16195718Y-17391436D01*
X16195718Y-17391436D02*
X16205241Y-17372389D01*
X16205241Y-17372389D02*
X16205241Y-17324770D01*
X16205241Y-17324770D02*
X16195718Y-17305722D01*
X16195718Y-17305722D02*
X16186194Y-17296198D01*
X16186194Y-17296198D02*
X16167146Y-17286674D01*
X16167146Y-17286674D02*
X16129051Y-17286674D01*
X16129051Y-17286674D02*
X16110003Y-17296198D01*
X16110003Y-17296198D02*
X16100479Y-17305722D01*
X16100479Y-17305722D02*
X16090956Y-17324770D01*
X16443337Y-17410484D02*
X16443337Y-17210484D01*
X16529051Y-17410484D02*
X16529051Y-17305722D01*
X16529051Y-17305722D02*
X16519527Y-17286674D01*
X16519527Y-17286674D02*
X16500480Y-17277150D01*
X16500480Y-17277150D02*
X16471908Y-17277150D01*
X16471908Y-17277150D02*
X16452860Y-17286674D01*
X16452860Y-17286674D02*
X16443337Y-17296198D01*
X16652860Y-17410484D02*
X16633813Y-17400960D01*
X16633813Y-17400960D02*
X16624289Y-17391436D01*
X16624289Y-17391436D02*
X16614765Y-17372389D01*
X16614765Y-17372389D02*
X16614765Y-17315246D01*
X16614765Y-17315246D02*
X16624289Y-17296198D01*
X16624289Y-17296198D02*
X16633813Y-17286674D01*
X16633813Y-17286674D02*
X16652860Y-17277150D01*
X16652860Y-17277150D02*
X16681432Y-17277150D01*
X16681432Y-17277150D02*
X16700480Y-17286674D01*
X16700480Y-17286674D02*
X16710003Y-17296198D01*
X16710003Y-17296198D02*
X16719527Y-17315246D01*
X16719527Y-17315246D02*
X16719527Y-17372389D01*
X16719527Y-17372389D02*
X16710003Y-17391436D01*
X16710003Y-17391436D02*
X16700480Y-17400960D01*
X16700480Y-17400960D02*
X16681432Y-17410484D01*
X16681432Y-17410484D02*
X16652860Y-17410484D01*
X16833813Y-17410484D02*
X16814765Y-17400960D01*
X16814765Y-17400960D02*
X16805242Y-17381912D01*
X16805242Y-17381912D02*
X16805242Y-17210484D01*
X16986194Y-17400960D02*
X16967146Y-17410484D01*
X16967146Y-17410484D02*
X16929051Y-17410484D01*
X16929051Y-17410484D02*
X16910003Y-17400960D01*
X16910003Y-17400960D02*
X16900480Y-17381912D01*
X16900480Y-17381912D02*
X16900480Y-17305722D01*
X16900480Y-17305722D02*
X16910003Y-17286674D01*
X16910003Y-17286674D02*
X16929051Y-17277150D01*
X16929051Y-17277150D02*
X16967146Y-17277150D01*
X16967146Y-17277150D02*
X16986194Y-17286674D01*
X16986194Y-17286674D02*
X16995718Y-17305722D01*
X16995718Y-17305722D02*
X16995718Y-17324770D01*
X16995718Y-17324770D02*
X16900480Y-17343817D01*
X17071908Y-17400960D02*
X17090956Y-17410484D01*
X17090956Y-17410484D02*
X17129051Y-17410484D01*
X17129051Y-17410484D02*
X17148099Y-17400960D01*
X17148099Y-17400960D02*
X17157623Y-17381912D01*
X17157623Y-17381912D02*
X17157623Y-17372389D01*
X17157623Y-17372389D02*
X17148099Y-17353341D01*
X17148099Y-17353341D02*
X17129051Y-17343817D01*
X17129051Y-17343817D02*
X17100480Y-17343817D01*
X17100480Y-17343817D02*
X17081432Y-17334293D01*
X17081432Y-17334293D02*
X17071908Y-17315246D01*
X17071908Y-17315246D02*
X17071908Y-17305722D01*
X17071908Y-17305722D02*
X17081432Y-17286674D01*
X17081432Y-17286674D02*
X17100480Y-17277150D01*
X17100480Y-17277150D02*
X17129051Y-17277150D01*
X17129051Y-17277150D02*
X17148099Y-17286674D01*
X17224289Y-17486674D02*
X17233813Y-17477150D01*
X17233813Y-17477150D02*
X17252861Y-17448579D01*
X17252861Y-17448579D02*
X17262384Y-17429531D01*
X17262384Y-17429531D02*
X17271908Y-17400960D01*
X17271908Y-17400960D02*
X17281432Y-17353341D01*
X17281432Y-17353341D02*
X17281432Y-17315246D01*
X17281432Y-17315246D02*
X17271908Y-17267627D01*
X17271908Y-17267627D02*
X17262384Y-17239055D01*
X17262384Y-17239055D02*
X17252861Y-17220008D01*
X17252861Y-17220008D02*
X17233813Y-17191436D01*
X17233813Y-17191436D02*
X17224289Y-17181912D01*
M02*
