%TF.GenerationSoftware,KiCad,Pcbnew,7.0.9*%
%TF.CreationDate,2024-06-08T14:56:11-04:00*%
%TF.ProjectId,IO-Panel,494f2d50-616e-4656-9c2e-6b696361645f,rev?*%
%TF.SameCoordinates,Original*%
%TF.FileFunction,Copper,L1,Top*%
%TF.FilePolarity,Positive*%
%FSLAX46Y46*%
G04 Gerber Fmt 4.6, Leading zero omitted, Abs format (unit mm)*
G04 Created by KiCad (PCBNEW 7.0.9) date 2024-06-08 14:56:11*
%MOMM*%
%LPD*%
G01*
G04 APERTURE LIST*
%TA.AperFunction,ComponentPad*%
%ADD10O,1.700000X1.700000*%
%TD*%
%TA.AperFunction,ComponentPad*%
%ADD11R,1.700000X1.700000*%
%TD*%
%TA.AperFunction,ComponentPad*%
%ADD12O,1.600000X1.600000*%
%TD*%
%TA.AperFunction,ComponentPad*%
%ADD13C,1.600000*%
%TD*%
%TA.AperFunction,ComponentPad*%
%ADD14C,1.800000*%
%TD*%
%TA.AperFunction,ComponentPad*%
%ADD15R,1.800000X1.800000*%
%TD*%
%TA.AperFunction,ComponentPad*%
%ADD16C,3.000000*%
%TD*%
%TA.AperFunction,ComponentPad*%
%ADD17O,2.000000X1.905000*%
%TD*%
%TA.AperFunction,ComponentPad*%
%ADD18R,2.000000X1.905000*%
%TD*%
%TA.AperFunction,ComponentPad*%
%ADD19C,1.400000*%
%TD*%
%TA.AperFunction,ComponentPad*%
%ADD20R,1.400000X1.400000*%
%TD*%
%TA.AperFunction,ComponentPad*%
%ADD21O,1.500000X1.050000*%
%TD*%
%TA.AperFunction,ComponentPad*%
%ADD22R,1.500000X1.050000*%
%TD*%
%TA.AperFunction,ComponentPad*%
%ADD23C,2.000000*%
%TD*%
%TA.AperFunction,ComponentPad*%
%ADD24R,2.000000X2.000000*%
%TD*%
%TA.AperFunction,Conductor*%
%ADD25C,0.250000*%
%TD*%
%TA.AperFunction,Conductor*%
%ADD26C,0.500000*%
%TD*%
%TA.AperFunction,Conductor*%
%ADD27C,0.750000*%
%TD*%
G04 APERTURE END LIST*
D10*
%TO.P,Out3,3,Pin_3*%
%TO.N,Board_2-Net-(Out3-Pin_3)*%
X167517500Y-118600000D03*
%TO.P,Out3,2,Pin_2*%
%TO.N,Board_2-Net-(Out3-Pin_2)*%
X164977500Y-118600000D03*
D11*
%TO.P,Out3,1,Pin_1*%
%TO.N,Board_2-/Signal_Gnd*%
X162437500Y-118600000D03*
%TD*%
D10*
%TO.P,Out2,3,Pin_3*%
%TO.N,Board_2-Net-(Out2-Pin_3)*%
X167177500Y-139000000D03*
%TO.P,Out2,2,Pin_2*%
%TO.N,Board_2-/A*%
X164637500Y-139000000D03*
D11*
%TO.P,Out2,1,Pin_1*%
%TO.N,Board_2-/Signal_Gnd*%
X162097500Y-139000000D03*
%TD*%
D10*
%TO.P,Out3,3,Pin_3*%
%TO.N,Board_1-Net-(Out3-Pin_3)*%
X167517500Y-74300000D03*
%TO.P,Out3,2,Pin_2*%
%TO.N,Board_1-Net-(Out3-Pin_2)*%
X164977500Y-74300000D03*
D11*
%TO.P,Out3,1,Pin_1*%
%TO.N,Board_1-/Signal_Gnd*%
X162437500Y-74300000D03*
%TD*%
D10*
%TO.P,Out3,3,Pin_3*%
%TO.N,Board_0-Net-(Out3-Pin_3)*%
X167517500Y-30000000D03*
%TO.P,Out3,2,Pin_2*%
%TO.N,Board_0-Net-(Out3-Pin_2)*%
X164977500Y-30000000D03*
D11*
%TO.P,Out3,1,Pin_1*%
%TO.N,Board_0-/Signal_Gnd*%
X162437500Y-30000000D03*
%TD*%
D10*
%TO.P,Out2,3,Pin_3*%
%TO.N,Board_1-Net-(Out2-Pin_3)*%
X167177500Y-94700000D03*
%TO.P,Out2,2,Pin_2*%
%TO.N,Board_1-/A*%
X164637500Y-94700000D03*
D11*
%TO.P,Out2,1,Pin_1*%
%TO.N,Board_1-/Signal_Gnd*%
X162097500Y-94700000D03*
%TD*%
D10*
%TO.P,Out2,3,Pin_3*%
%TO.N,Board_0-Net-(Out2-Pin_3)*%
X167177500Y-50400000D03*
%TO.P,Out2,2,Pin_2*%
%TO.N,Board_0-/A*%
X164637500Y-50400000D03*
D11*
%TO.P,Out2,1,Pin_1*%
%TO.N,Board_0-/Signal_Gnd*%
X162097500Y-50400000D03*
%TD*%
D12*
%TO.P,RGate1,2*%
%TO.N,Board_0-Net-(QL1-G)*%
X137247500Y-47800000D03*
D13*
%TO.P,RGate1,1*%
%TO.N,Board_0-/Control*%
X129627500Y-47800000D03*
%TD*%
D12*
%TO.P,RLed1,2*%
%TO.N,Board_1-Net-(LEDB1-A)*%
X125827500Y-72500000D03*
D13*
%TO.P,RLed1,1*%
%TO.N,Board_1-Net-(Left/Mono1-Pad9)*%
X133447500Y-72500000D03*
%TD*%
D12*
%TO.P,RGate1,2*%
%TO.N,Board_1-Net-(QL1-G)*%
X137247500Y-92100000D03*
D13*
%TO.P,RGate1,1*%
%TO.N,Board_1-/Control*%
X129627500Y-92100000D03*
%TD*%
D10*
%TO.P,J2,2,Pin_2*%
%TO.N,Board_2-/Ctrl_GND*%
X127777500Y-148100000D03*
D11*
%TO.P,J2,1,Pin_1*%
%TO.N,Board_2-/9V*%
X125237500Y-148100000D03*
%TD*%
D10*
%TO.P,J2,2,Pin_2*%
%TO.N,Board_0-/Ctrl_GND*%
X127777500Y-59500000D03*
D11*
%TO.P,J2,1,Pin_1*%
%TO.N,Board_0-/9V*%
X125237500Y-59500000D03*
%TD*%
D14*
%TO.P,D2,2,A*%
%TO.N,Board_0-Net-(D2-A)*%
X133372500Y-23200000D03*
D15*
%TO.P,D2,1,K*%
%TO.N,Board_0-/Ctrl_GND*%
X135912500Y-23200000D03*
%TD*%
D12*
%TO.P,RLed2,2*%
%TO.N,Board_2-Net-(D2-A)*%
X125827500Y-120000000D03*
D13*
%TO.P,RLed2,1*%
%TO.N,Board_2-Net-(Left/Mono1-Pad11)*%
X133447500Y-120000000D03*
%TD*%
D16*
%TO.P,A1,R*%
%TO.N,Board_1-Net-(Out2-Pin_3)*%
X164862500Y-87435000D03*
%TO.P,A1,RN*%
%TO.N,Board_1-Net-(A1-PadRN)*%
X164862500Y-103665000D03*
%TO.P,A1,S*%
%TO.N,Board_1-/Signal_Gnd*%
X171212500Y-87435000D03*
%TO.P,A1,SN*%
%TO.N,Board_1-Net-(A1-PadRN)*%
X171212500Y-103665000D03*
%TO.P,A1,T*%
%TO.N,Board_1-/A*%
X158512500Y-87435000D03*
%TO.P,A1,TN*%
%TO.N,Board_1-Net-(A1-PadRN)*%
X158512500Y-103665000D03*
%TD*%
%TO.P,B1,TN*%
%TO.N,Board_1-Net-(B1-PadRN)*%
X158512500Y-82915000D03*
%TO.P,B1,T*%
%TO.N,Board_1-Net-(Out3-Pin_2)*%
X158512500Y-66685000D03*
%TO.P,B1,SN*%
%TO.N,Board_1-Net-(B1-PadRN)*%
X171212500Y-82915000D03*
%TO.P,B1,S*%
%TO.N,Board_1-/Signal_Gnd*%
X171212500Y-66685000D03*
%TO.P,B1,RN*%
%TO.N,Board_1-Net-(B1-PadRN)*%
X164862500Y-82915000D03*
%TO.P,B1,R*%
%TO.N,Board_1-Net-(Out3-Pin_3)*%
X164862500Y-66685000D03*
%TD*%
D17*
%TO.P,U1,3,OUT*%
%TO.N,Board_0-/5V*%
X134182500Y-53660000D03*
%TO.P,U1,2,GND*%
%TO.N,Board_0-/Ctrl_GND*%
X134182500Y-56200000D03*
D18*
%TO.P,U1,1,IN*%
%TO.N,Board_0-/9V*%
X134182500Y-58740000D03*
%TD*%
D12*
%TO.P,RLed2,2*%
%TO.N,Board_1-Net-(D2-A)*%
X125827500Y-75700000D03*
D13*
%TO.P,RLed2,1*%
%TO.N,Board_1-Net-(Left/Mono1-Pad11)*%
X133447500Y-75700000D03*
%TD*%
D14*
%TO.P,D2,2,A*%
%TO.N,Board_2-Net-(D2-A)*%
X133372500Y-111800000D03*
D15*
%TO.P,D2,1,K*%
%TO.N,Board_2-/Ctrl_GND*%
X135912500Y-111800000D03*
%TD*%
D16*
%TO.P,B1,TN*%
%TO.N,Board_2-Net-(B1-PadRN)*%
X158512500Y-127215000D03*
%TO.P,B1,T*%
%TO.N,Board_2-Net-(Out3-Pin_2)*%
X158512500Y-110985000D03*
%TO.P,B1,SN*%
%TO.N,Board_2-Net-(B1-PadRN)*%
X171212500Y-127215000D03*
%TO.P,B1,S*%
%TO.N,Board_2-/Signal_Gnd*%
X171212500Y-110985000D03*
%TO.P,B1,RN*%
%TO.N,Board_2-Net-(B1-PadRN)*%
X164862500Y-127215000D03*
%TO.P,B1,R*%
%TO.N,Board_2-Net-(Out3-Pin_3)*%
X164862500Y-110985000D03*
%TD*%
D10*
%TO.P,Out1,3,Pin_3*%
%TO.N,Board_2-/L_out*%
X125437500Y-123845000D03*
%TO.P,Out1,2,Pin_2*%
X125437500Y-126385000D03*
D11*
%TO.P,Out1,1,Pin_1*%
%TO.N,Board_2-/Signal_Gnd*%
X125437500Y-128925000D03*
%TD*%
D16*
%TO.P,B1,TN*%
%TO.N,Board_0-Net-(B1-PadRN)*%
X158512500Y-38615000D03*
%TO.P,B1,T*%
%TO.N,Board_0-Net-(Out3-Pin_2)*%
X158512500Y-22385000D03*
%TO.P,B1,SN*%
%TO.N,Board_0-Net-(B1-PadRN)*%
X171212500Y-38615000D03*
%TO.P,B1,S*%
%TO.N,Board_0-/Signal_Gnd*%
X171212500Y-22385000D03*
%TO.P,B1,RN*%
%TO.N,Board_0-Net-(B1-PadRN)*%
X164862500Y-38615000D03*
%TO.P,B1,R*%
%TO.N,Board_0-Net-(Out3-Pin_3)*%
X164862500Y-22385000D03*
%TD*%
D10*
%TO.P,J3,2,Pin_2*%
%TO.N,Board_1-/Ctrl_GND*%
X127777500Y-99300000D03*
D11*
%TO.P,J3,1,Pin_1*%
%TO.N,Board_1-/9V*%
X125237500Y-99300000D03*
%TD*%
%TO.P,J1,1,Pin_1*%
%TO.N,Board_1-/Control*%
X125437500Y-91900000D03*
%TD*%
D12*
%TO.P,RPD1,2*%
%TO.N,Board_2-/Ctrl_GND*%
X129627500Y-132800000D03*
D13*
%TO.P,RPD1,1*%
%TO.N,Board_2-Net-(QL1-G)*%
X137247500Y-132800000D03*
%TD*%
D19*
%TO.P,Left/Mono1,16*%
%TO.N,Board_1-/5V*%
X139780000Y-83907500D03*
%TO.P,Left/Mono1,13*%
X139780000Y-76287500D03*
%TO.P,Left/Mono1,11*%
%TO.N,Board_1-Net-(Left/Mono1-Pad11)*%
X139780000Y-71207500D03*
%TO.P,Left/Mono1,9*%
%TO.N,Board_1-Net-(Left/Mono1-Pad9)*%
X139780000Y-66127500D03*
%TO.P,Left/Mono1,8*%
%TO.N,Board_1-/B*%
X147400000Y-66127500D03*
%TO.P,Left/Mono1,6*%
%TO.N,Board_1-/A*%
X147400000Y-71207500D03*
%TO.P,Left/Mono1,4*%
%TO.N,Board_1-/L_out*%
X147400000Y-76287500D03*
D20*
%TO.P,Left/Mono1,1*%
%TO.N,Board_1-Net-(QL1-D)*%
X147400000Y-83907500D03*
%TD*%
D10*
%TO.P,J3,2,Pin_2*%
%TO.N,Board_2-/Ctrl_GND*%
X127777500Y-143600000D03*
D11*
%TO.P,J3,1,Pin_1*%
%TO.N,Board_2-/9V*%
X125237500Y-143600000D03*
%TD*%
D10*
%TO.P,Out1,3,Pin_3*%
%TO.N,Board_1-/L_out*%
X125437500Y-79545000D03*
%TO.P,Out1,2,Pin_2*%
X125437500Y-82085000D03*
D11*
%TO.P,Out1,1,Pin_1*%
%TO.N,Board_1-/Signal_Gnd*%
X125437500Y-84625000D03*
%TD*%
D21*
%TO.P,QL1,3,D*%
%TO.N,Board_2-Net-(QL1-D)*%
X143797500Y-134130000D03*
%TO.P,QL1,2,G*%
%TO.N,Board_2-Net-(QL1-G)*%
X143797500Y-135400000D03*
D22*
%TO.P,QL1,1,S*%
%TO.N,Board_2-/Ctrl_GND*%
X143797500Y-136670000D03*
%TD*%
D12*
%TO.P,RGate1,2*%
%TO.N,Board_2-Net-(QL1-G)*%
X137247500Y-136400000D03*
D13*
%TO.P,RGate1,1*%
%TO.N,Board_2-/Control*%
X129627500Y-136400000D03*
%TD*%
D16*
%TO.P,A1,TN*%
%TO.N,Board_0-Net-(A1-PadRN)*%
X158512500Y-59365000D03*
%TO.P,A1,T*%
%TO.N,Board_0-/A*%
X158512500Y-43135000D03*
%TO.P,A1,SN*%
%TO.N,Board_0-Net-(A1-PadRN)*%
X171212500Y-59365000D03*
%TO.P,A1,S*%
%TO.N,Board_0-/Signal_Gnd*%
X171212500Y-43135000D03*
%TO.P,A1,RN*%
%TO.N,Board_0-Net-(A1-PadRN)*%
X164862500Y-59365000D03*
%TO.P,A1,R*%
%TO.N,Board_0-Net-(Out2-Pin_3)*%
X164862500Y-43135000D03*
%TD*%
D17*
%TO.P,U1,3,OUT*%
%TO.N,Board_2-/5V*%
X134182500Y-142260000D03*
%TO.P,U1,2,GND*%
%TO.N,Board_2-/Ctrl_GND*%
X134182500Y-144800000D03*
D18*
%TO.P,U1,1,IN*%
%TO.N,Board_2-/9V*%
X134182500Y-147340000D03*
%TD*%
D12*
%TO.P,RPD1,2*%
%TO.N,Board_0-/Ctrl_GND*%
X129627500Y-44200000D03*
D13*
%TO.P,RPD1,1*%
%TO.N,Board_0-Net-(QL1-G)*%
X137247500Y-44200000D03*
%TD*%
D17*
%TO.P,U1,3,OUT*%
%TO.N,Board_1-/5V*%
X134182500Y-97960000D03*
%TO.P,U1,2,GND*%
%TO.N,Board_1-/Ctrl_GND*%
X134182500Y-100500000D03*
D18*
%TO.P,U1,1,IN*%
%TO.N,Board_1-/9V*%
X134182500Y-103040000D03*
%TD*%
D12*
%TO.P,RLed2,2*%
%TO.N,Board_0-Net-(D2-A)*%
X125827500Y-31400000D03*
D13*
%TO.P,RLed2,1*%
%TO.N,Board_0-Net-(Left/Mono1-Pad11)*%
X133447500Y-31400000D03*
%TD*%
D21*
%TO.P,QL1,3,D*%
%TO.N,Board_1-Net-(QL1-D)*%
X143797500Y-89830000D03*
%TO.P,QL1,2,G*%
%TO.N,Board_1-Net-(QL1-G)*%
X143797500Y-91100000D03*
D22*
%TO.P,QL1,1,S*%
%TO.N,Board_1-/Ctrl_GND*%
X143797500Y-92370000D03*
%TD*%
D23*
%TO.P,C1,2*%
%TO.N,Board_1-/Ctrl_GND*%
X142437500Y-98817677D03*
D24*
%TO.P,C1,1*%
%TO.N,Board_1-/9V*%
X142437500Y-102317677D03*
%TD*%
D10*
%TO.P,J3,2,Pin_2*%
%TO.N,Board_0-/Ctrl_GND*%
X127777500Y-55000000D03*
D11*
%TO.P,J3,1,Pin_1*%
%TO.N,Board_0-/9V*%
X125237500Y-55000000D03*
%TD*%
D10*
%TO.P,J2,2,Pin_2*%
%TO.N,Board_1-/Ctrl_GND*%
X127777500Y-103800000D03*
D11*
%TO.P,J2,1,Pin_1*%
%TO.N,Board_1-/9V*%
X125237500Y-103800000D03*
%TD*%
%TO.P,J1,1,Pin_1*%
%TO.N,Board_0-/Control*%
X125437500Y-47600000D03*
%TD*%
D12*
%TO.P,RLed1,2*%
%TO.N,Board_0-Net-(LEDB1-A)*%
X125827500Y-28200000D03*
D13*
%TO.P,RLed1,1*%
%TO.N,Board_0-Net-(Left/Mono1-Pad9)*%
X133447500Y-28200000D03*
%TD*%
D14*
%TO.P,LEDB1,2,A*%
%TO.N,Board_0-Net-(LEDB1-A)*%
X128302500Y-23200000D03*
D15*
%TO.P,LEDB1,1,K*%
%TO.N,Board_0-/Ctrl_GND*%
X125762500Y-23200000D03*
%TD*%
D16*
%TO.P,A1,TN*%
%TO.N,Board_2-Net-(A1-PadRN)*%
X158512500Y-147965000D03*
%TO.P,A1,T*%
%TO.N,Board_2-/A*%
X158512500Y-131735000D03*
%TO.P,A1,SN*%
%TO.N,Board_2-Net-(A1-PadRN)*%
X171212500Y-147965000D03*
%TO.P,A1,S*%
%TO.N,Board_2-/Signal_Gnd*%
X171212500Y-131735000D03*
%TO.P,A1,RN*%
%TO.N,Board_2-Net-(A1-PadRN)*%
X164862500Y-147965000D03*
%TO.P,A1,R*%
%TO.N,Board_2-Net-(Out2-Pin_3)*%
X164862500Y-131735000D03*
%TD*%
D10*
%TO.P,Out1,3,Pin_3*%
%TO.N,Board_0-/L_out*%
X125437500Y-35245000D03*
%TO.P,Out1,2,Pin_2*%
X125437500Y-37785000D03*
D11*
%TO.P,Out1,1,Pin_1*%
%TO.N,Board_0-/Signal_Gnd*%
X125437500Y-40325000D03*
%TD*%
D14*
%TO.P,D2,2,A*%
%TO.N,Board_1-Net-(D2-A)*%
X133372500Y-67500000D03*
D15*
%TO.P,D2,1,K*%
%TO.N,Board_1-/Ctrl_GND*%
X135912500Y-67500000D03*
%TD*%
D23*
%TO.P,C1,2*%
%TO.N,Board_2-/Ctrl_GND*%
X142437500Y-143117677D03*
D24*
%TO.P,C1,1*%
%TO.N,Board_2-/9V*%
X142437500Y-146617677D03*
%TD*%
D11*
%TO.P,J1,1,Pin_1*%
%TO.N,Board_2-/Control*%
X125437500Y-136200000D03*
%TD*%
D21*
%TO.P,QL1,3,D*%
%TO.N,Board_0-Net-(QL1-D)*%
X143797500Y-45530000D03*
%TO.P,QL1,2,G*%
%TO.N,Board_0-Net-(QL1-G)*%
X143797500Y-46800000D03*
D22*
%TO.P,QL1,1,S*%
%TO.N,Board_0-/Ctrl_GND*%
X143797500Y-48070000D03*
%TD*%
D14*
%TO.P,LEDB1,2,A*%
%TO.N,Board_2-Net-(LEDB1-A)*%
X128302500Y-111800000D03*
D15*
%TO.P,LEDB1,1,K*%
%TO.N,Board_2-/Ctrl_GND*%
X125762500Y-111800000D03*
%TD*%
D19*
%TO.P,Left/Mono1,16*%
%TO.N,Board_0-/5V*%
X139780000Y-39607500D03*
%TO.P,Left/Mono1,13*%
X139780000Y-31987500D03*
%TO.P,Left/Mono1,11*%
%TO.N,Board_0-Net-(Left/Mono1-Pad11)*%
X139780000Y-26907500D03*
%TO.P,Left/Mono1,9*%
%TO.N,Board_0-Net-(Left/Mono1-Pad9)*%
X139780000Y-21827500D03*
%TO.P,Left/Mono1,8*%
%TO.N,Board_0-/B*%
X147400000Y-21827500D03*
%TO.P,Left/Mono1,6*%
%TO.N,Board_0-/A*%
X147400000Y-26907500D03*
%TO.P,Left/Mono1,4*%
%TO.N,Board_0-/L_out*%
X147400000Y-31987500D03*
D20*
%TO.P,Left/Mono1,1*%
%TO.N,Board_0-Net-(QL1-D)*%
X147400000Y-39607500D03*
%TD*%
D23*
%TO.P,C1,2*%
%TO.N,Board_0-/Ctrl_GND*%
X142437500Y-54517677D03*
D24*
%TO.P,C1,1*%
%TO.N,Board_0-/9V*%
X142437500Y-58017677D03*
%TD*%
D12*
%TO.P,RLed1,2*%
%TO.N,Board_2-Net-(LEDB1-A)*%
X125827500Y-116800000D03*
D13*
%TO.P,RLed1,1*%
%TO.N,Board_2-Net-(Left/Mono1-Pad9)*%
X133447500Y-116800000D03*
%TD*%
D12*
%TO.P,RPD1,2*%
%TO.N,Board_1-/Ctrl_GND*%
X129627500Y-88500000D03*
D13*
%TO.P,RPD1,1*%
%TO.N,Board_1-Net-(QL1-G)*%
X137247500Y-88500000D03*
%TD*%
D19*
%TO.P,Left/Mono1,16*%
%TO.N,Board_2-/5V*%
X139780000Y-128207500D03*
%TO.P,Left/Mono1,13*%
X139780000Y-120587500D03*
%TO.P,Left/Mono1,11*%
%TO.N,Board_2-Net-(Left/Mono1-Pad11)*%
X139780000Y-115507500D03*
%TO.P,Left/Mono1,9*%
%TO.N,Board_2-Net-(Left/Mono1-Pad9)*%
X139780000Y-110427500D03*
%TO.P,Left/Mono1,8*%
%TO.N,Board_2-/B*%
X147400000Y-110427500D03*
%TO.P,Left/Mono1,6*%
%TO.N,Board_2-/A*%
X147400000Y-115507500D03*
%TO.P,Left/Mono1,4*%
%TO.N,Board_2-/L_out*%
X147400000Y-120587500D03*
D20*
%TO.P,Left/Mono1,1*%
%TO.N,Board_2-Net-(QL1-D)*%
X147400000Y-128207500D03*
%TD*%
D14*
%TO.P,LEDB1,2,A*%
%TO.N,Board_1-Net-(LEDB1-A)*%
X128302500Y-67500000D03*
D15*
%TO.P,LEDB1,1,K*%
%TO.N,Board_1-/Ctrl_GND*%
X125762500Y-67500000D03*
%TD*%
D25*
%TO.N,Board_2-Net-(QL1-G)*%
X137247500Y-132800000D02*
X137247500Y-133000000D01*
D26*
X140237500Y-135400000D02*
X143797500Y-135400000D01*
D25*
X137247500Y-132800000D02*
X137247500Y-136400000D01*
D26*
X137247500Y-136400000D02*
X139237500Y-136400000D01*
X139237500Y-136400000D02*
X140237500Y-135400000D01*
D27*
%TO.N,Board_2-Net-(QL1-D)*%
X143797500Y-134130000D02*
X143797500Y-131810000D01*
X143797500Y-131810000D02*
X147400000Y-128207500D01*
D25*
%TO.N,Board_2-Net-(B1-PadRN)*%
X158512500Y-127215000D02*
X164862500Y-127215000D01*
X171212500Y-127215000D02*
X164862500Y-127215000D01*
%TO.N,Board_2-Net-(A1-PadRN)*%
X164862500Y-147965000D02*
X171212500Y-147965000D01*
X158512500Y-147965000D02*
X164862500Y-147965000D01*
%TO.N,Board_2-/Signal_Gnd*%
X125437500Y-128925000D02*
X128437500Y-125925000D01*
X164682500Y-142200000D02*
X162082500Y-139600000D01*
X171212500Y-110985000D02*
X173637500Y-113410000D01*
X128437500Y-125925000D02*
X128437500Y-125000000D01*
X130037500Y-123400000D02*
X135037500Y-123400000D01*
X162297500Y-120140000D02*
X162297500Y-118800000D01*
X171212500Y-141425000D02*
X170437500Y-142200000D01*
X138237500Y-118800000D02*
X143637500Y-118800000D01*
X171212500Y-131735000D02*
X171212500Y-141425000D01*
X162297500Y-118800000D02*
X170112500Y-110985000D01*
X135037500Y-123400000D02*
X137637500Y-120800000D01*
X147237500Y-122400000D02*
X159797500Y-122400000D01*
X137637500Y-120800000D02*
X137637500Y-119400000D01*
X173637500Y-129310000D02*
X171212500Y-131735000D01*
X143637500Y-118800000D02*
X147237500Y-122400000D01*
X161597500Y-120600000D02*
X161837500Y-120600000D01*
X170112500Y-110985000D02*
X171212500Y-110985000D01*
X161837500Y-120600000D02*
X162297500Y-120140000D01*
X170437500Y-142200000D02*
X164682500Y-142200000D01*
X137637500Y-119400000D02*
X138237500Y-118800000D01*
X128437500Y-125000000D02*
X130037500Y-123400000D01*
X159797500Y-122400000D02*
X161597500Y-120600000D01*
X173637500Y-113410000D02*
X173637500Y-129310000D01*
%TO.N,Board_2-/L_out*%
X144812500Y-118000000D02*
X147400000Y-120587500D01*
X135037500Y-122400000D02*
X136637500Y-120800000D01*
X138237500Y-118000000D02*
X144812500Y-118000000D01*
X126882500Y-122400000D02*
X135037500Y-122400000D01*
X136637500Y-119600000D02*
X138237500Y-118000000D01*
X125437500Y-123845000D02*
X126882500Y-122400000D01*
X136637500Y-120800000D02*
X136637500Y-119600000D01*
X125437500Y-126385000D02*
X125437500Y-123845000D01*
D27*
%TO.N,Board_2-/Ctrl_GND*%
X142437500Y-138030000D02*
X143797500Y-136670000D01*
X142437500Y-143117677D02*
X142437500Y-138030000D01*
D25*
%TO.N,Board_2-/Control*%
X129427500Y-136200000D02*
X129627500Y-136400000D01*
X125437500Y-136200000D02*
X129427500Y-136200000D01*
D26*
%TO.N,Board_1-Net-(QL1-G)*%
X139237500Y-92100000D02*
X140237500Y-91100000D01*
D25*
X137247500Y-88500000D02*
X137247500Y-92100000D01*
D26*
X137247500Y-92100000D02*
X139237500Y-92100000D01*
X140237500Y-91100000D02*
X143797500Y-91100000D01*
D25*
X137247500Y-88500000D02*
X137247500Y-88700000D01*
D27*
%TO.N,Board_1-Net-(QL1-D)*%
X143797500Y-89830000D02*
X143797500Y-87510000D01*
X143797500Y-87510000D02*
X147400000Y-83907500D01*
D25*
%TO.N,Board_1-Net-(B1-PadRN)*%
X158512500Y-82915000D02*
X164862500Y-82915000D01*
X171212500Y-82915000D02*
X164862500Y-82915000D01*
%TO.N,Board_1-Net-(A1-PadRN)*%
X158512500Y-103665000D02*
X164862500Y-103665000D01*
X164862500Y-103665000D02*
X171212500Y-103665000D01*
%TO.N,Board_1-/Signal_Gnd*%
X164682500Y-97900000D02*
X162082500Y-95300000D01*
X137637500Y-76500000D02*
X137637500Y-75100000D01*
X161837500Y-76300000D02*
X162297500Y-75840000D01*
X135037500Y-79100000D02*
X137637500Y-76500000D01*
X137637500Y-75100000D02*
X138237500Y-74500000D01*
X171212500Y-87435000D02*
X171212500Y-97125000D01*
X147237500Y-78100000D02*
X159797500Y-78100000D01*
X143637500Y-74500000D02*
X147237500Y-78100000D01*
X173637500Y-69110000D02*
X173637500Y-85010000D01*
X128437500Y-81625000D02*
X128437500Y-80700000D01*
X162297500Y-75840000D02*
X162297500Y-74500000D01*
X128437500Y-80700000D02*
X130037500Y-79100000D01*
X173637500Y-85010000D02*
X171212500Y-87435000D01*
X170437500Y-97900000D02*
X164682500Y-97900000D01*
X162297500Y-74500000D02*
X170112500Y-66685000D01*
X138237500Y-74500000D02*
X143637500Y-74500000D01*
X171212500Y-97125000D02*
X170437500Y-97900000D01*
X171212500Y-66685000D02*
X173637500Y-69110000D01*
X130037500Y-79100000D02*
X135037500Y-79100000D01*
X161597500Y-76300000D02*
X161837500Y-76300000D01*
X170112500Y-66685000D02*
X171212500Y-66685000D01*
X125437500Y-84625000D02*
X128437500Y-81625000D01*
X159797500Y-78100000D02*
X161597500Y-76300000D01*
%TO.N,Board_1-/L_out*%
X136637500Y-75300000D02*
X138237500Y-73700000D01*
X126882500Y-78100000D02*
X135037500Y-78100000D01*
X138237500Y-73700000D02*
X144812500Y-73700000D01*
X125437500Y-82085000D02*
X125437500Y-79545000D01*
X144812500Y-73700000D02*
X147400000Y-76287500D01*
X135037500Y-78100000D02*
X136637500Y-76500000D01*
X125437500Y-79545000D02*
X126882500Y-78100000D01*
X136637500Y-76500000D02*
X136637500Y-75300000D01*
D27*
%TO.N,Board_1-/Ctrl_GND*%
X142437500Y-93730000D02*
X143797500Y-92370000D01*
X142437500Y-98817677D02*
X142437500Y-93730000D01*
D25*
%TO.N,Board_1-/Control*%
X129427500Y-91900000D02*
X129627500Y-92100000D01*
X125437500Y-91900000D02*
X129427500Y-91900000D01*
D26*
%TO.N,Board_0-Net-(QL1-G)*%
X140237500Y-46800000D02*
X143797500Y-46800000D01*
X137247500Y-47800000D02*
X139237500Y-47800000D01*
X139237500Y-47800000D02*
X140237500Y-46800000D01*
D25*
X137247500Y-44200000D02*
X137247500Y-47800000D01*
X137247500Y-44200000D02*
X137247500Y-44400000D01*
D27*
%TO.N,Board_0-Net-(QL1-D)*%
X143797500Y-43210000D02*
X147400000Y-39607500D01*
X143797500Y-45530000D02*
X143797500Y-43210000D01*
D25*
%TO.N,Board_0-Net-(B1-PadRN)*%
X158512500Y-38615000D02*
X164862500Y-38615000D01*
X171212500Y-38615000D02*
X164862500Y-38615000D01*
%TO.N,Board_0-Net-(A1-PadRN)*%
X158512500Y-59365000D02*
X164862500Y-59365000D01*
X164862500Y-59365000D02*
X171212500Y-59365000D01*
%TO.N,Board_0-/Signal_Gnd*%
X171212500Y-22385000D02*
X173637500Y-24810000D01*
X161597500Y-32000000D02*
X161837500Y-32000000D01*
X137637500Y-30800000D02*
X138237500Y-30200000D01*
X147237500Y-33800000D02*
X159797500Y-33800000D01*
X171212500Y-43135000D02*
X171212500Y-52825000D01*
X138237500Y-30200000D02*
X143637500Y-30200000D01*
X173637500Y-24810000D02*
X173637500Y-40710000D01*
X170437500Y-53600000D02*
X164682500Y-53600000D01*
X171212500Y-52825000D02*
X170437500Y-53600000D01*
X159797500Y-33800000D02*
X161597500Y-32000000D01*
X125437500Y-40325000D02*
X128437500Y-37325000D01*
X128437500Y-37325000D02*
X128437500Y-36400000D01*
X135037500Y-34800000D02*
X137637500Y-32200000D01*
X137637500Y-32200000D02*
X137637500Y-30800000D01*
X162297500Y-30200000D02*
X170112500Y-22385000D01*
X173637500Y-40710000D02*
X171212500Y-43135000D01*
X128437500Y-36400000D02*
X130037500Y-34800000D01*
X164682500Y-53600000D02*
X162082500Y-51000000D01*
X162297500Y-31540000D02*
X162297500Y-30200000D01*
X130037500Y-34800000D02*
X135037500Y-34800000D01*
X170112500Y-22385000D02*
X171212500Y-22385000D01*
X143637500Y-30200000D02*
X147237500Y-33800000D01*
X161837500Y-32000000D02*
X162297500Y-31540000D01*
%TO.N,Board_0-/L_out*%
X135037500Y-33800000D02*
X136637500Y-32200000D01*
X136637500Y-32200000D02*
X136637500Y-31000000D01*
X125437500Y-37785000D02*
X125437500Y-35245000D01*
X144812500Y-29400000D02*
X147400000Y-31987500D01*
X138237500Y-29400000D02*
X144812500Y-29400000D01*
X125437500Y-35245000D02*
X126882500Y-33800000D01*
X126882500Y-33800000D02*
X135037500Y-33800000D01*
X136637500Y-31000000D02*
X138237500Y-29400000D01*
D27*
%TO.N,Board_0-/Ctrl_GND*%
X142437500Y-54517677D02*
X142437500Y-49430000D01*
X142437500Y-49430000D02*
X143797500Y-48070000D01*
D25*
%TO.N,Board_0-/Control*%
X129427500Y-47600000D02*
X129627500Y-47800000D01*
X125437500Y-47600000D02*
X129427500Y-47600000D01*
%TD*%
M02*
