M48
; DRILL file {KiCad 7.0.9} date Sun Jun  9 17:36:49 2024
; FORMAT={-:-/ absolute / inch / decimal}
; #@! TF.CreationDate,2024-06-09T17:36:49-04:00
; #@! TF.GenerationSoftware,Kicad,Pcbnew,7.0.9
; #@! TF.FileFunction,Plated,1,2,PTH
FMAT,2
INCH
; #@! TA.AperFunction,Plated,PTH,ComponentDrill
T1C0.0276
; #@! TA.AperFunction,Plated,PTH,ComponentDrill
T2C0.0295
; #@! TA.AperFunction,Plated,PTH,ComponentDrill
T3C0.0315
; #@! TA.AperFunction,Plated,PTH,ComponentDrill
T4C0.0354
; #@! TA.AperFunction,Plated,PTH,ComponentDrill
T5C0.0394
; #@! TA.AperFunction,Plated,PTH,ComponentDrill
T6C0.0433
; #@! TA.AperFunction,Plated,PTH,ComponentDrill
T7C0.0512
%
G90
G05
T1
X4.2182Y-0.8836
X4.2182Y-1.1836
X4.2182Y-1.9859
X4.2182Y-2.2859
X4.5182Y-0.8836
X4.5182Y-1.1836
X4.5182Y-1.9859
X4.5182Y-2.2859
X4.7182Y-0.8836
X4.7182Y-1.1836
X4.7182Y-1.9859
X4.7182Y-2.2859
X4.9182Y-0.8836
X4.9182Y-1.1836
X4.9182Y-1.9859
X4.9182Y-2.2859
X5.0489Y-0.8796
X5.0489Y-1.1796
X5.0489Y-1.982
X5.0489Y-2.282
X5.3489Y-0.8796
X5.3489Y-1.1796
X5.3489Y-1.982
X5.3489Y-2.282
X5.5489Y-0.8796
X5.5489Y-1.1796
X5.5489Y-1.982
X5.5489Y-2.282
X5.7489Y-0.8796
X5.7489Y-1.1796
X5.7489Y-1.982
X5.7489Y-2.282
X6.7891Y-0.8836
X6.7891Y-1.1836
X6.7891Y-1.9859
X6.7891Y-2.2859
X7.0891Y-0.8836
X7.0891Y-1.1836
X7.0891Y-1.9859
X7.0891Y-2.2859
X7.2891Y-0.8836
X7.2891Y-1.1836
X7.2891Y-1.9859
X7.2891Y-2.2859
X7.4891Y-0.8836
X7.4891Y-1.1836
X7.4891Y-1.9859
X7.4891Y-2.2859
X7.6198Y-0.8796
X7.6198Y-1.1796
X7.6198Y-1.982
X7.6198Y-2.282
X7.9198Y-0.8796
X7.9198Y-1.1796
X7.9198Y-1.982
X7.9198Y-2.282
X8.1198Y-0.8796
X8.1198Y-1.1796
X8.1198Y-1.982
X8.1198Y-2.282
X8.3198Y-0.8796
X8.3198Y-1.1796
X8.3198Y-1.982
X8.3198Y-2.282
T2
X3.6343Y-1.2591
X3.6343Y-1.3091
X3.6343Y-1.3591
X3.6343Y-2.3614
X3.6343Y-2.4114
X3.6343Y-2.4614
X6.2051Y-1.2591
X6.2051Y-1.3091
X6.2051Y-1.3591
X6.2051Y-2.3614
X6.2051Y-2.4114
X6.2051Y-2.4614
T3
X3.7949Y-1.2008
X3.7949Y-1.3386
X3.7949Y-2.3031
X3.7949Y-2.4409
X3.8343Y-1.4862
X3.8343Y-2.5886
X4.0949Y-1.2008
X4.0949Y-1.3386
X4.0949Y-2.3031
X4.0949Y-2.4409
X4.1343Y-1.4862
X4.1343Y-2.5886
X6.3657Y-1.2008
X6.3657Y-1.3386
X6.3657Y-2.3031
X6.3657Y-2.4409
X6.4051Y-1.4862
X6.4051Y-2.5886
X6.6657Y-1.2008
X6.6657Y-1.3386
X6.6657Y-2.3031
X6.6657Y-2.4409
X6.7051Y-1.4862
X6.7051Y-2.5886
T4
X3.9616Y-0.9213
X3.9616Y-2.0236
X4.0616Y-0.9213
X4.0616Y-2.0236
X6.5325Y-0.9213
X6.5325Y-2.0236
X6.6325Y-0.9213
X6.6325Y-2.0236
T5
X3.3937Y-0.8661
X3.3937Y-0.9661
X3.3937Y-1.0661
X3.3937Y-1.9685
X3.3937Y-2.0685
X3.3937Y-2.1685
X3.4226Y-1.5433
X3.4226Y-1.7008
X3.4226Y-2.6457
X3.4226Y-2.8031
X3.437Y-1.2992
X3.437Y-2.4016
X3.5226Y-1.5433
X3.5226Y-1.7008
X3.5226Y-2.6457
X3.5226Y-2.8031
X3.6004Y-0.8661
X3.6004Y-0.9661
X3.6004Y-1.0661
X3.6004Y-1.9685
X3.6004Y-2.0685
X3.6004Y-2.1685
X5.9646Y-0.8661
X5.9646Y-0.9661
X5.9646Y-1.0661
X5.9646Y-1.9685
X5.9646Y-2.0685
X5.9646Y-2.1685
X5.9935Y-1.5433
X5.9935Y-1.7008
X5.9935Y-2.6457
X5.9935Y-2.8031
X6.0079Y-1.2992
X6.0079Y-2.4016
X6.0935Y-1.5433
X6.0935Y-1.7008
X6.0935Y-2.6457
X6.0935Y-2.8031
X6.1713Y-0.8661
X6.1713Y-0.9661
X6.1713Y-1.0661
X6.1713Y-1.9685
X6.1713Y-2.0685
X6.1713Y-2.1685
T6
X3.8724Y-1.7026
X3.8724Y-2.8049
X3.9724Y-1.7026
X3.9724Y-2.8049
X4.0724Y-1.7026
X4.0724Y-2.8049
X6.4433Y-1.7026
X6.4433Y-2.8049
X6.5433Y-1.7026
X6.5433Y-2.8049
X6.6433Y-1.7026
X6.6433Y-2.8049
T7
X4.2992Y-1.6063
X4.2992Y-2.7087
X4.4961Y-1.6063
X4.4961Y-2.7087
X4.6929Y-1.6063
X4.6929Y-2.7087
X4.8898Y-1.6063
X4.8898Y-2.7087
X5.1181Y-1.6024
X5.1181Y-2.7047
X5.315Y-1.6024
X5.315Y-2.7047
X5.5118Y-1.6024
X5.5118Y-2.7047
X5.7087Y-1.6024
X5.7087Y-2.7047
X6.8701Y-1.6063
X6.8701Y-2.7087
X7.0669Y-1.6063
X7.0669Y-2.7087
X7.2638Y-1.6063
X7.2638Y-2.7087
X7.4606Y-1.6063
X7.4606Y-2.7087
X7.689Y-1.6024
X7.689Y-2.7047
X7.8858Y-1.6024
X7.8858Y-2.7047
X8.0827Y-1.6024
X8.0827Y-2.7047
X8.2795Y-1.6024
X8.2795Y-2.7047
T0
M30
