%TF.GenerationSoftware,KiCad,Pcbnew,7.0.9*%
%TF.CreationDate,2024-06-09T17:36:51-04:00*%
%TF.ProjectId,Jackless-Panel,4a61636b-6c65-4737-932d-50616e656c2e,rev?*%
%TF.SameCoordinates,Original*%
%TF.FileFunction,Copper,L1,Top*%
%TF.FilePolarity,Positive*%
%FSLAX46Y46*%
G04 Gerber Fmt 4.6, Leading zero omitted, Abs format (unit mm)*
G04 Created by KiCad (PCBNEW 7.0.9) date 2024-06-09 17:36:51*
%MOMM*%
%LPD*%
G01*
G04 APERTURE LIST*
%TA.AperFunction,ComponentPad*%
%ADD10C,1.600000*%
%TD*%
%TA.AperFunction,ComponentPad*%
%ADD11O,1.600000X1.600000*%
%TD*%
%TA.AperFunction,ComponentPad*%
%ADD12R,1.700000X1.700000*%
%TD*%
%TA.AperFunction,ComponentPad*%
%ADD13R,1.500000X1.050000*%
%TD*%
%TA.AperFunction,ComponentPad*%
%ADD14O,1.500000X1.050000*%
%TD*%
%TA.AperFunction,ComponentPad*%
%ADD15O,1.700000X1.700000*%
%TD*%
%TA.AperFunction,ComponentPad*%
%ADD16R,1.950000X1.950000*%
%TD*%
%TA.AperFunction,ComponentPad*%
%ADD17C,1.950000*%
%TD*%
%TA.AperFunction,ComponentPad*%
%ADD18R,1.800000X1.800000*%
%TD*%
%TA.AperFunction,ComponentPad*%
%ADD19C,1.800000*%
%TD*%
%TA.AperFunction,ComponentPad*%
%ADD20R,1.400000X1.400000*%
%TD*%
%TA.AperFunction,ComponentPad*%
%ADD21C,1.400000*%
%TD*%
%TA.AperFunction,ComponentPad*%
%ADD22R,1.905000X2.000000*%
%TD*%
%TA.AperFunction,ComponentPad*%
%ADD23O,1.905000X2.000000*%
%TD*%
%TA.AperFunction,Conductor*%
%ADD24C,0.250000*%
%TD*%
%TA.AperFunction,Conductor*%
%ADD25C,0.750000*%
%TD*%
%TA.AperFunction,Conductor*%
%ADD26C,0.500000*%
%TD*%
%TA.AperFunction,Conductor*%
%ADD27C,1.000000*%
%TD*%
G04 APERTURE END LIST*
D10*
%TO.P,LeftPD1,1*%
%TO.N,Board_1-Net-(QL1-G)*%
X169310000Y-34000000D03*
D11*
%TO.P,LeftPD1,2*%
%TO.N,Board_1-/Ctrl_GND*%
X161690000Y-34000000D03*
%TD*%
D12*
%TO.P,J1,1,Pin_1*%
%TO.N,Board_2-/Control*%
X87300000Y-61000000D03*
%TD*%
D13*
%TO.P,QL1,1,S*%
%TO.N,Board_2-/Ctrl_GND*%
X92310000Y-62520000D03*
D14*
%TO.P,QL1,2,G*%
%TO.N,Board_2-Net-(QL1-G)*%
X92310000Y-61250000D03*
%TO.P,QL1,3,D*%
%TO.N,Board_2-Net-(QL1-D)*%
X92310000Y-59980000D03*
%TD*%
D13*
%TO.P,QL1,1,S*%
%TO.N,Board_1-/Ctrl_GND*%
X157610000Y-34520000D03*
D14*
%TO.P,QL1,2,G*%
%TO.N,Board_1-Net-(QL1-G)*%
X157610000Y-33250000D03*
%TO.P,QL1,3,D*%
%TO.N,Board_1-Net-(QL1-D)*%
X157610000Y-31980000D03*
%TD*%
D12*
%TO.P,J1,1,Pin_1*%
%TO.N,Board_0-/Control*%
X87300000Y-33000000D03*
%TD*%
%TO.P,Out1,1,Pin_1*%
%TO.N,Board_0-/Signal_Gnd*%
X91450000Y-27080000D03*
D15*
%TO.P,Out1,2,Pin_2*%
%TO.N,Board_0-/L_out*%
X91450000Y-24540000D03*
%TO.P,Out1,3,Pin_3*%
%TO.N,Board_0-/R_out*%
X91450000Y-22000000D03*
%TD*%
D12*
%TO.P,In1,1,Pin_1*%
%TO.N,Board_0-/Signal_Gnd*%
X86200000Y-27080000D03*
D15*
%TO.P,In1,2,Pin_2*%
%TO.N,Board_0-/L_in*%
X86200000Y-24540000D03*
%TO.P,In1,3,Pin_3*%
%TO.N,Board_0-/R_in*%
X86200000Y-22000000D03*
%TD*%
D16*
%TO.P,J5,1,Pin_1*%
%TO.N,Board_0-/Signal_Gnd*%
X145000000Y-40700000D03*
D17*
%TO.P,J5,2,Pin_2*%
%TO.N,Board_0-/R_send*%
X140000000Y-40700000D03*
%TO.P,J5,3,Pin_3*%
%TO.N,Board_0-/Signal_Gnd*%
X135000000Y-40700000D03*
%TO.P,J5,4,Pin_4*%
%TO.N,Board_0-/L_Send*%
X130000000Y-40700000D03*
%TD*%
D18*
%TO.P,D1,1,K*%
%TO.N,Board_3-/Ctrl_GND*%
X165925000Y-51400000D03*
D19*
%TO.P,D1,2,A*%
%TO.N,Board_3-Net-(D1-A)*%
X168465000Y-51400000D03*
%TD*%
D10*
%TO.P,LGate1,1*%
%TO.N,Board_2-/Control*%
X96390000Y-58500000D03*
D11*
%TO.P,LGate1,2*%
%TO.N,Board_2-Net-(QL1-G)*%
X104010000Y-58500000D03*
%TD*%
D20*
%TO.P,Left/Mono1,1*%
%TO.N,Board_1-/5V*%
X193542500Y-29962500D03*
D21*
%TO.P,Left/Mono1,4*%
%TO.N,Board_1-/L_out*%
X201162500Y-29962500D03*
%TO.P,Left/Mono1,6*%
%TO.N,Board_1-Net-(Left/Mono1-Pad11)*%
X206242500Y-29962500D03*
%TO.P,Left/Mono1,8*%
%TO.N,Board_1-/L_Return*%
X211322500Y-29962500D03*
%TO.P,Left/Mono1,9*%
%TO.N,Board_1-/L_Send*%
X211322500Y-22342500D03*
%TO.P,Left/Mono1,11*%
%TO.N,Board_1-Net-(Left/Mono1-Pad11)*%
X206242500Y-22342500D03*
%TO.P,Left/Mono1,13*%
%TO.N,Board_1-/L_in*%
X201162500Y-22342500D03*
%TO.P,Left/Mono1,16*%
%TO.N,Board_1-Net-(QL1-D)*%
X193542500Y-22342500D03*
%TD*%
D12*
%TO.P,In1,1,Pin_1*%
%TO.N,Board_3-/Signal_Gnd*%
X151500000Y-55080000D03*
D15*
%TO.P,In1,2,Pin_2*%
%TO.N,Board_3-/L_in*%
X151500000Y-52540000D03*
%TO.P,In1,3,Pin_3*%
%TO.N,Board_3-/R_in*%
X151500000Y-50000000D03*
%TD*%
D10*
%TO.P,LGate1,1*%
%TO.N,Board_0-/Control*%
X96390000Y-30500000D03*
D11*
%TO.P,LGate1,2*%
%TO.N,Board_0-Net-(QL1-G)*%
X104010000Y-30500000D03*
%TD*%
D10*
%TO.P,RLed1,1*%
%TO.N,Board_2-/Control*%
X97390000Y-65750000D03*
D11*
%TO.P,RLed1,2*%
%TO.N,Board_2-Net-(D1-A)*%
X105010000Y-65750000D03*
%TD*%
D20*
%TO.P,Right1,1*%
%TO.N,Board_1-/5V*%
X172442500Y-30062500D03*
D21*
%TO.P,Right1,4*%
%TO.N,Board_1-/R_out*%
X180062500Y-30062500D03*
%TO.P,Right1,6*%
%TO.N,Board_1-Net-(Right1-Pad11)*%
X185142500Y-30062500D03*
%TO.P,Right1,8*%
%TO.N,Board_1-/R_Return*%
X190222500Y-30062500D03*
%TO.P,Right1,9*%
%TO.N,Board_1-/R_send*%
X190222500Y-22442500D03*
%TO.P,Right1,11*%
%TO.N,Board_1-Net-(Right1-Pad11)*%
X185142500Y-22442500D03*
%TO.P,Right1,13*%
%TO.N,Board_1-/R_in*%
X180062500Y-22442500D03*
%TO.P,Right1,16*%
%TO.N,Board_1-Net-(QL1-D)*%
X172442500Y-22442500D03*
%TD*%
D10*
%TO.P,RLed1,1*%
%TO.N,Board_3-/Control*%
X162690000Y-65750000D03*
D11*
%TO.P,RLed1,2*%
%TO.N,Board_3-Net-(D1-A)*%
X170310000Y-65750000D03*
%TD*%
D10*
%TO.P,LGate1,1*%
%TO.N,Board_3-/Control*%
X161690000Y-58500000D03*
D11*
%TO.P,LGate1,2*%
%TO.N,Board_3-Net-(QL1-G)*%
X169310000Y-58500000D03*
%TD*%
D20*
%TO.P,Right1,1*%
%TO.N,Board_2-/5V*%
X107142500Y-58062500D03*
D21*
%TO.P,Right1,4*%
%TO.N,Board_2-/R_out*%
X114762500Y-58062500D03*
%TO.P,Right1,6*%
%TO.N,Board_2-Net-(Right1-Pad11)*%
X119842500Y-58062500D03*
%TO.P,Right1,8*%
%TO.N,Board_2-/R_Return*%
X124922500Y-58062500D03*
%TO.P,Right1,9*%
%TO.N,Board_2-/R_send*%
X124922500Y-50442500D03*
%TO.P,Right1,11*%
%TO.N,Board_2-Net-(Right1-Pad11)*%
X119842500Y-50442500D03*
%TO.P,Right1,13*%
%TO.N,Board_2-/R_in*%
X114762500Y-50442500D03*
%TO.P,Right1,16*%
%TO.N,Board_2-Net-(QL1-D)*%
X107142500Y-50442500D03*
%TD*%
D20*
%TO.P,Left/Mono1,1*%
%TO.N,Board_2-/5V*%
X128242500Y-57962500D03*
D21*
%TO.P,Left/Mono1,4*%
%TO.N,Board_2-/L_out*%
X135862500Y-57962500D03*
%TO.P,Left/Mono1,6*%
%TO.N,Board_2-Net-(Left/Mono1-Pad11)*%
X140942500Y-57962500D03*
%TO.P,Left/Mono1,8*%
%TO.N,Board_2-/L_Return*%
X146022500Y-57962500D03*
%TO.P,Left/Mono1,9*%
%TO.N,Board_2-/L_Send*%
X146022500Y-50342500D03*
%TO.P,Left/Mono1,11*%
%TO.N,Board_2-Net-(Left/Mono1-Pad11)*%
X140942500Y-50342500D03*
%TO.P,Left/Mono1,13*%
%TO.N,Board_2-/L_in*%
X135862500Y-50342500D03*
%TO.P,Left/Mono1,16*%
%TO.N,Board_2-Net-(QL1-D)*%
X128242500Y-50342500D03*
%TD*%
D12*
%TO.P,J3,1,Pin_1*%
%TO.N,Board_1-/9V*%
X154775000Y-39200000D03*
D15*
%TO.P,J3,2,Pin_2*%
%TO.N,Board_1-/Ctrl_GND*%
X152235000Y-39200000D03*
%TD*%
D12*
%TO.P,J3,1,Pin_1*%
%TO.N,Board_3-/9V*%
X154775000Y-67200000D03*
D15*
%TO.P,J3,2,Pin_2*%
%TO.N,Board_3-/Ctrl_GND*%
X152235000Y-67200000D03*
%TD*%
D10*
%TO.P,RLed1,1*%
%TO.N,Board_0-/Control*%
X97390000Y-37750000D03*
D11*
%TO.P,RLed1,2*%
%TO.N,Board_0-Net-(D1-A)*%
X105010000Y-37750000D03*
%TD*%
D12*
%TO.P,J2,1,Pin_1*%
%TO.N,Board_0-/9V*%
X89475000Y-43200000D03*
D15*
%TO.P,J2,2,Pin_2*%
%TO.N,Board_0-/Ctrl_GND*%
X86935000Y-43200000D03*
%TD*%
D10*
%TO.P,LeftPD1,1*%
%TO.N,Board_3-Net-(QL1-G)*%
X169310000Y-62000000D03*
D11*
%TO.P,LeftPD1,2*%
%TO.N,Board_3-/Ctrl_GND*%
X161690000Y-62000000D03*
%TD*%
D16*
%TO.P,J4,1,Pin_1*%
%TO.N,Board_0-/Signal_Gnd*%
X124200000Y-40800000D03*
D17*
%TO.P,J4,2,Pin_2*%
%TO.N,Board_0-/R_Return*%
X119200000Y-40800000D03*
%TO.P,J4,3,Pin_3*%
%TO.N,Board_0-/Signal_Gnd*%
X114200000Y-40800000D03*
%TO.P,J4,4,Pin_4*%
%TO.N,Board_0-/L_Return*%
X109200000Y-40800000D03*
%TD*%
D20*
%TO.P,Right1,1*%
%TO.N,Board_3-/5V*%
X172442500Y-58062500D03*
D21*
%TO.P,Right1,4*%
%TO.N,Board_3-/R_out*%
X180062500Y-58062500D03*
%TO.P,Right1,6*%
%TO.N,Board_3-Net-(Right1-Pad11)*%
X185142500Y-58062500D03*
%TO.P,Right1,8*%
%TO.N,Board_3-/R_Return*%
X190222500Y-58062500D03*
%TO.P,Right1,9*%
%TO.N,Board_3-/R_send*%
X190222500Y-50442500D03*
%TO.P,Right1,11*%
%TO.N,Board_3-Net-(Right1-Pad11)*%
X185142500Y-50442500D03*
%TO.P,Right1,13*%
%TO.N,Board_3-/R_in*%
X180062500Y-50442500D03*
%TO.P,Right1,16*%
%TO.N,Board_3-Net-(QL1-D)*%
X172442500Y-50442500D03*
%TD*%
D18*
%TO.P,D1,1,K*%
%TO.N,Board_1-/Ctrl_GND*%
X165925000Y-23400000D03*
D19*
%TO.P,D1,2,A*%
%TO.N,Board_1-Net-(D1-A)*%
X168465000Y-23400000D03*
%TD*%
D12*
%TO.P,J2,1,Pin_1*%
%TO.N,Board_1-/9V*%
X154775000Y-43200000D03*
D15*
%TO.P,J2,2,Pin_2*%
%TO.N,Board_1-/Ctrl_GND*%
X152235000Y-43200000D03*
%TD*%
D13*
%TO.P,QL1,1,S*%
%TO.N,Board_3-/Ctrl_GND*%
X157610000Y-62520000D03*
D14*
%TO.P,QL1,2,G*%
%TO.N,Board_3-Net-(QL1-G)*%
X157610000Y-61250000D03*
%TO.P,QL1,3,D*%
%TO.N,Board_3-Net-(QL1-D)*%
X157610000Y-59980000D03*
%TD*%
D12*
%TO.P,J2,1,Pin_1*%
%TO.N,Board_2-/9V*%
X89475000Y-71200000D03*
D15*
%TO.P,J2,2,Pin_2*%
%TO.N,Board_2-/Ctrl_GND*%
X86935000Y-71200000D03*
%TD*%
D12*
%TO.P,In1,1,Pin_1*%
%TO.N,Board_1-/Signal_Gnd*%
X151500000Y-27080000D03*
D15*
%TO.P,In1,2,Pin_2*%
%TO.N,Board_1-/L_in*%
X151500000Y-24540000D03*
%TO.P,In1,3,Pin_3*%
%TO.N,Board_1-/R_in*%
X151500000Y-22000000D03*
%TD*%
D12*
%TO.P,Out1,1,Pin_1*%
%TO.N,Board_3-/Signal_Gnd*%
X156750000Y-55080000D03*
D15*
%TO.P,Out1,2,Pin_2*%
%TO.N,Board_3-/L_out*%
X156750000Y-52540000D03*
%TO.P,Out1,3,Pin_3*%
%TO.N,Board_3-/R_out*%
X156750000Y-50000000D03*
%TD*%
D12*
%TO.P,Out1,1,Pin_1*%
%TO.N,Board_1-/Signal_Gnd*%
X156750000Y-27080000D03*
D15*
%TO.P,Out1,2,Pin_2*%
%TO.N,Board_1-/L_out*%
X156750000Y-24540000D03*
%TO.P,Out1,3,Pin_3*%
%TO.N,Board_1-/R_out*%
X156750000Y-22000000D03*
%TD*%
D12*
%TO.P,Out1,1,Pin_1*%
%TO.N,Board_2-/Signal_Gnd*%
X91450000Y-55080000D03*
D15*
%TO.P,Out1,2,Pin_2*%
%TO.N,Board_2-/L_out*%
X91450000Y-52540000D03*
%TO.P,Out1,3,Pin_3*%
%TO.N,Board_2-/R_out*%
X91450000Y-50000000D03*
%TD*%
D12*
%TO.P,J3,1,Pin_1*%
%TO.N,Board_0-/9V*%
X89475000Y-39200000D03*
D15*
%TO.P,J3,2,Pin_2*%
%TO.N,Board_0-/Ctrl_GND*%
X86935000Y-39200000D03*
%TD*%
D12*
%TO.P,J1,1,Pin_1*%
%TO.N,Board_1-/Control*%
X152600000Y-33000000D03*
%TD*%
D16*
%TO.P,J5,1,Pin_1*%
%TO.N,Board_1-/Signal_Gnd*%
X210300000Y-40700000D03*
D17*
%TO.P,J5,2,Pin_2*%
%TO.N,Board_1-/R_send*%
X205300000Y-40700000D03*
%TO.P,J5,3,Pin_3*%
%TO.N,Board_1-/Signal_Gnd*%
X200300000Y-40700000D03*
%TO.P,J5,4,Pin_4*%
%TO.N,Board_1-/L_Send*%
X195300000Y-40700000D03*
%TD*%
D10*
%TO.P,LGate1,1*%
%TO.N,Board_1-/Control*%
X161690000Y-30500000D03*
D11*
%TO.P,LGate1,2*%
%TO.N,Board_1-Net-(QL1-G)*%
X169310000Y-30500000D03*
%TD*%
D22*
%TO.P,U1,1,IN*%
%TO.N,Board_0-/9V*%
X98360000Y-43245000D03*
D23*
%TO.P,U1,2,GND*%
%TO.N,Board_0-/Ctrl_GND*%
X100900000Y-43245000D03*
%TO.P,U1,3,OUT*%
%TO.N,Board_0-/5V*%
X103440000Y-43245000D03*
%TD*%
D18*
%TO.P,D1,1,K*%
%TO.N,Board_2-/Ctrl_GND*%
X100625000Y-51400000D03*
D19*
%TO.P,D1,2,A*%
%TO.N,Board_2-Net-(D1-A)*%
X103165000Y-51400000D03*
%TD*%
D13*
%TO.P,QL1,1,S*%
%TO.N,Board_0-/Ctrl_GND*%
X92310000Y-34520000D03*
D14*
%TO.P,QL1,2,G*%
%TO.N,Board_0-Net-(QL1-G)*%
X92310000Y-33250000D03*
%TO.P,QL1,3,D*%
%TO.N,Board_0-Net-(QL1-D)*%
X92310000Y-31980000D03*
%TD*%
D10*
%TO.P,LeftPD1,1*%
%TO.N,Board_0-Net-(QL1-G)*%
X104010000Y-34000000D03*
D11*
%TO.P,LeftPD1,2*%
%TO.N,Board_0-/Ctrl_GND*%
X96390000Y-34000000D03*
%TD*%
D12*
%TO.P,J2,1,Pin_1*%
%TO.N,Board_3-/9V*%
X154775000Y-71200000D03*
D15*
%TO.P,J2,2,Pin_2*%
%TO.N,Board_3-/Ctrl_GND*%
X152235000Y-71200000D03*
%TD*%
D16*
%TO.P,J5,1,Pin_1*%
%TO.N,Board_3-/Signal_Gnd*%
X210300000Y-68700000D03*
D17*
%TO.P,J5,2,Pin_2*%
%TO.N,Board_3-/R_send*%
X205300000Y-68700000D03*
%TO.P,J5,3,Pin_3*%
%TO.N,Board_3-/Signal_Gnd*%
X200300000Y-68700000D03*
%TO.P,J5,4,Pin_4*%
%TO.N,Board_3-/L_Send*%
X195300000Y-68700000D03*
%TD*%
D20*
%TO.P,Right1,1*%
%TO.N,Board_0-/5V*%
X107142500Y-30062500D03*
D21*
%TO.P,Right1,4*%
%TO.N,Board_0-/R_out*%
X114762500Y-30062500D03*
%TO.P,Right1,6*%
%TO.N,Board_0-Net-(Right1-Pad11)*%
X119842500Y-30062500D03*
%TO.P,Right1,8*%
%TO.N,Board_0-/R_Return*%
X124922500Y-30062500D03*
%TO.P,Right1,9*%
%TO.N,Board_0-/R_send*%
X124922500Y-22442500D03*
%TO.P,Right1,11*%
%TO.N,Board_0-Net-(Right1-Pad11)*%
X119842500Y-22442500D03*
%TO.P,Right1,13*%
%TO.N,Board_0-/R_in*%
X114762500Y-22442500D03*
%TO.P,Right1,16*%
%TO.N,Board_0-Net-(QL1-D)*%
X107142500Y-22442500D03*
%TD*%
D12*
%TO.P,J1,1,Pin_1*%
%TO.N,Board_3-/Control*%
X152600000Y-61000000D03*
%TD*%
D16*
%TO.P,J5,1,Pin_1*%
%TO.N,Board_2-/Signal_Gnd*%
X145000000Y-68700000D03*
D17*
%TO.P,J5,2,Pin_2*%
%TO.N,Board_2-/R_send*%
X140000000Y-68700000D03*
%TO.P,J5,3,Pin_3*%
%TO.N,Board_2-/Signal_Gnd*%
X135000000Y-68700000D03*
%TO.P,J5,4,Pin_4*%
%TO.N,Board_2-/L_Send*%
X130000000Y-68700000D03*
%TD*%
D10*
%TO.P,LeftPD1,1*%
%TO.N,Board_2-Net-(QL1-G)*%
X104010000Y-62000000D03*
D11*
%TO.P,LeftPD1,2*%
%TO.N,Board_2-/Ctrl_GND*%
X96390000Y-62000000D03*
%TD*%
D22*
%TO.P,U1,1,IN*%
%TO.N,Board_3-/9V*%
X163660000Y-71245000D03*
D23*
%TO.P,U1,2,GND*%
%TO.N,Board_3-/Ctrl_GND*%
X166200000Y-71245000D03*
%TO.P,U1,3,OUT*%
%TO.N,Board_3-/5V*%
X168740000Y-71245000D03*
%TD*%
D16*
%TO.P,J4,1,Pin_1*%
%TO.N,Board_2-/Signal_Gnd*%
X124200000Y-68800000D03*
D17*
%TO.P,J4,2,Pin_2*%
%TO.N,Board_2-/R_Return*%
X119200000Y-68800000D03*
%TO.P,J4,3,Pin_3*%
%TO.N,Board_2-/Signal_Gnd*%
X114200000Y-68800000D03*
%TO.P,J4,4,Pin_4*%
%TO.N,Board_2-/L_Return*%
X109200000Y-68800000D03*
%TD*%
D22*
%TO.P,U1,1,IN*%
%TO.N,Board_2-/9V*%
X98360000Y-71245000D03*
D23*
%TO.P,U1,2,GND*%
%TO.N,Board_2-/Ctrl_GND*%
X100900000Y-71245000D03*
%TO.P,U1,3,OUT*%
%TO.N,Board_2-/5V*%
X103440000Y-71245000D03*
%TD*%
D16*
%TO.P,J4,1,Pin_1*%
%TO.N,Board_1-/Signal_Gnd*%
X189500000Y-40800000D03*
D17*
%TO.P,J4,2,Pin_2*%
%TO.N,Board_1-/R_Return*%
X184500000Y-40800000D03*
%TO.P,J4,3,Pin_3*%
%TO.N,Board_1-/Signal_Gnd*%
X179500000Y-40800000D03*
%TO.P,J4,4,Pin_4*%
%TO.N,Board_1-/L_Return*%
X174500000Y-40800000D03*
%TD*%
D22*
%TO.P,U1,1,IN*%
%TO.N,Board_1-/9V*%
X163660000Y-43245000D03*
D23*
%TO.P,U1,2,GND*%
%TO.N,Board_1-/Ctrl_GND*%
X166200000Y-43245000D03*
%TO.P,U1,3,OUT*%
%TO.N,Board_1-/5V*%
X168740000Y-43245000D03*
%TD*%
D12*
%TO.P,J3,1,Pin_1*%
%TO.N,Board_2-/9V*%
X89475000Y-67200000D03*
D15*
%TO.P,J3,2,Pin_2*%
%TO.N,Board_2-/Ctrl_GND*%
X86935000Y-67200000D03*
%TD*%
D12*
%TO.P,In1,1,Pin_1*%
%TO.N,Board_2-/Signal_Gnd*%
X86200000Y-55080000D03*
D15*
%TO.P,In1,2,Pin_2*%
%TO.N,Board_2-/L_in*%
X86200000Y-52540000D03*
%TO.P,In1,3,Pin_3*%
%TO.N,Board_2-/R_in*%
X86200000Y-50000000D03*
%TD*%
D18*
%TO.P,D1,1,K*%
%TO.N,Board_0-/Ctrl_GND*%
X100625000Y-23400000D03*
D19*
%TO.P,D1,2,A*%
%TO.N,Board_0-Net-(D1-A)*%
X103165000Y-23400000D03*
%TD*%
D16*
%TO.P,J4,1,Pin_1*%
%TO.N,Board_3-/Signal_Gnd*%
X189500000Y-68800000D03*
D17*
%TO.P,J4,2,Pin_2*%
%TO.N,Board_3-/R_Return*%
X184500000Y-68800000D03*
%TO.P,J4,3,Pin_3*%
%TO.N,Board_3-/Signal_Gnd*%
X179500000Y-68800000D03*
%TO.P,J4,4,Pin_4*%
%TO.N,Board_3-/L_Return*%
X174500000Y-68800000D03*
%TD*%
D20*
%TO.P,Left/Mono1,1*%
%TO.N,Board_3-/5V*%
X193542500Y-57962500D03*
D21*
%TO.P,Left/Mono1,4*%
%TO.N,Board_3-/L_out*%
X201162500Y-57962500D03*
%TO.P,Left/Mono1,6*%
%TO.N,Board_3-Net-(Left/Mono1-Pad11)*%
X206242500Y-57962500D03*
%TO.P,Left/Mono1,8*%
%TO.N,Board_3-/L_Return*%
X211322500Y-57962500D03*
%TO.P,Left/Mono1,9*%
%TO.N,Board_3-/L_Send*%
X211322500Y-50342500D03*
%TO.P,Left/Mono1,11*%
%TO.N,Board_3-Net-(Left/Mono1-Pad11)*%
X206242500Y-50342500D03*
%TO.P,Left/Mono1,13*%
%TO.N,Board_3-/L_in*%
X201162500Y-50342500D03*
%TO.P,Left/Mono1,16*%
%TO.N,Board_3-Net-(QL1-D)*%
X193542500Y-50342500D03*
%TD*%
D20*
%TO.P,Left/Mono1,1*%
%TO.N,Board_0-/5V*%
X128242500Y-29962500D03*
D21*
%TO.P,Left/Mono1,4*%
%TO.N,Board_0-/L_out*%
X135862500Y-29962500D03*
%TO.P,Left/Mono1,6*%
%TO.N,Board_0-Net-(Left/Mono1-Pad11)*%
X140942500Y-29962500D03*
%TO.P,Left/Mono1,8*%
%TO.N,Board_0-/L_Return*%
X146022500Y-29962500D03*
%TO.P,Left/Mono1,9*%
%TO.N,Board_0-/L_Send*%
X146022500Y-22342500D03*
%TO.P,Left/Mono1,11*%
%TO.N,Board_0-Net-(Left/Mono1-Pad11)*%
X140942500Y-22342500D03*
%TO.P,Left/Mono1,13*%
%TO.N,Board_0-/L_in*%
X135862500Y-22342500D03*
%TO.P,Left/Mono1,16*%
%TO.N,Board_0-Net-(QL1-D)*%
X128242500Y-22342500D03*
%TD*%
D10*
%TO.P,RLed1,1*%
%TO.N,Board_1-/Control*%
X162690000Y-37750000D03*
D11*
%TO.P,RLed1,2*%
%TO.N,Board_1-Net-(D1-A)*%
X170310000Y-37750000D03*
%TD*%
D24*
%TO.N,Board_3-Net-(Right1-Pad11)*%
X185142500Y-50442500D02*
X185142500Y-58062500D01*
%TO.N,Board_3-Net-(Left/Mono1-Pad11)*%
X206242500Y-50342500D02*
X206242500Y-57962500D01*
%TO.N,Board_3-Net-(D1-A)*%
X170500000Y-64400000D02*
X170310000Y-64590000D01*
X168465000Y-51965000D02*
X168465000Y-51400000D01*
X170500000Y-57136396D02*
X170000000Y-56636396D01*
X170000000Y-56636396D02*
X170000000Y-53500000D01*
X170500000Y-64400000D02*
X170500000Y-64560000D01*
X170310000Y-64590000D02*
X170310000Y-65750000D01*
X170000000Y-53500000D02*
X168465000Y-51965000D01*
X170500000Y-64400000D02*
X170500000Y-57136396D01*
%TO.N,Board_3-/R_send*%
X203500000Y-71400000D02*
X204500000Y-70400000D01*
X205300000Y-69700000D02*
X205300000Y-68700000D01*
X204500000Y-70400000D02*
X204600000Y-70400000D01*
X192000000Y-59500000D02*
X193100000Y-60600000D01*
X193100000Y-60600000D02*
X193100000Y-69600000D01*
X194900000Y-71400000D02*
X203500000Y-71400000D01*
X190222500Y-50442500D02*
X192000000Y-52220000D01*
X193100000Y-69600000D02*
X194900000Y-71400000D01*
X192000000Y-52220000D02*
X192000000Y-59500000D01*
X204600000Y-70400000D02*
X205300000Y-69700000D01*
%TO.N,Board_3-/R_out*%
X180062500Y-53512500D02*
X180062500Y-58062500D01*
X158000000Y-48750000D02*
X175300000Y-48750000D01*
X175300000Y-48750000D02*
X180062500Y-53512500D01*
X156750000Y-50000000D02*
X158000000Y-48750000D01*
%TO.N,Board_3-/R_in*%
X180062500Y-50442500D02*
X177920000Y-48300000D01*
X177920000Y-48300000D02*
X176900000Y-48300000D01*
X153200000Y-48300000D02*
X176900000Y-48300000D01*
X151500000Y-50000000D02*
X153200000Y-48300000D01*
%TO.N,Board_3-/R_Return*%
X184500000Y-68800000D02*
X190222500Y-63077500D01*
X190222500Y-63077500D02*
X190222500Y-58062500D01*
%TO.N,Board_3-/L_Send*%
X206000000Y-59800000D02*
X207300000Y-59800000D01*
X209900000Y-57200000D02*
X209900000Y-51765000D01*
X197100000Y-68700000D02*
X206000000Y-59800000D01*
X195300000Y-68700000D02*
X197100000Y-68700000D01*
X209900000Y-51765000D02*
X211322500Y-50342500D01*
X207300000Y-59800000D02*
X209900000Y-57200000D01*
%TO.N,Board_3-/L_Return*%
X212000000Y-71500000D02*
X212000000Y-60900000D01*
X178700000Y-73000000D02*
X210500000Y-73000000D01*
X211322500Y-60177500D02*
X211322500Y-57962500D01*
X210500000Y-73000000D02*
X212000000Y-71500000D01*
X211300000Y-60200000D02*
X211322500Y-60177500D01*
X212000000Y-60900000D02*
X211300000Y-60200000D01*
X174500000Y-68800000D02*
X178700000Y-73000000D01*
%TO.N,Board_3-/Ctrl_GND*%
X164225000Y-53100000D02*
X165925000Y-51400000D01*
D25*
X166200000Y-66510000D02*
X161690000Y-62000000D01*
X166200000Y-71245000D02*
X166200000Y-66510000D01*
D24*
X164225000Y-59465000D02*
X164225000Y-53100000D01*
X161690000Y-62000000D02*
X164225000Y-59465000D01*
D26*
%TO.N,Board_3-/Control*%
X152600000Y-61000000D02*
X152600000Y-62500000D01*
X160000000Y-60190000D02*
X160000000Y-62800000D01*
X161690000Y-58500000D02*
X160000000Y-60190000D01*
X152600000Y-62500000D02*
X155850000Y-65750000D01*
X161690000Y-64750000D02*
X162690000Y-65750000D01*
X155850000Y-65750000D02*
X162690000Y-65750000D01*
X161690000Y-64490000D02*
X161690000Y-64750000D01*
X161690000Y-64490000D02*
X160000000Y-62800000D01*
D27*
%TO.N,Board_3-/9V*%
X163285721Y-71619279D02*
X155194279Y-71619279D01*
D26*
X154775000Y-71200000D02*
X154775000Y-67200000D01*
D27*
X163660000Y-71245000D02*
X163285721Y-71619279D01*
X155194279Y-71619279D02*
X154775000Y-71200000D01*
D26*
%TO.N,Board_3-/5V*%
X172442500Y-67542500D02*
X172442500Y-58062500D01*
X168740000Y-71245000D02*
X172442500Y-67542500D01*
D24*
%TO.N,Board_2-Net-(Right1-Pad11)*%
X119842500Y-50442500D02*
X119842500Y-58062500D01*
%TO.N,Board_2-Net-(Left/Mono1-Pad11)*%
X140942500Y-50342500D02*
X140942500Y-57962500D01*
%TO.N,Board_2-Net-(D1-A)*%
X105200000Y-57136396D02*
X104700000Y-56636396D01*
X103165000Y-51965000D02*
X103165000Y-51400000D01*
X105200000Y-64400000D02*
X105200000Y-57136396D01*
X104700000Y-53500000D02*
X103165000Y-51965000D01*
X104700000Y-56636396D02*
X104700000Y-53500000D01*
X105200000Y-64400000D02*
X105010000Y-64590000D01*
X105200000Y-64400000D02*
X105200000Y-64560000D01*
X105010000Y-64590000D02*
X105010000Y-65750000D01*
%TO.N,Board_2-/R_send*%
X129600000Y-71400000D02*
X138200000Y-71400000D01*
X140000000Y-69700000D02*
X140000000Y-68700000D01*
X138200000Y-71400000D02*
X139200000Y-70400000D01*
X126700000Y-52220000D02*
X126700000Y-59500000D01*
X139300000Y-70400000D02*
X140000000Y-69700000D01*
X126700000Y-59500000D02*
X127800000Y-60600000D01*
X124922500Y-50442500D02*
X126700000Y-52220000D01*
X139200000Y-70400000D02*
X139300000Y-70400000D01*
X127800000Y-69600000D02*
X129600000Y-71400000D01*
X127800000Y-60600000D02*
X127800000Y-69600000D01*
%TO.N,Board_2-/R_out*%
X110000000Y-48750000D02*
X114762500Y-53512500D01*
X91450000Y-50000000D02*
X92700000Y-48750000D01*
X114762500Y-53512500D02*
X114762500Y-58062500D01*
X92700000Y-48750000D02*
X110000000Y-48750000D01*
%TO.N,Board_2-/R_in*%
X112620000Y-48300000D02*
X111600000Y-48300000D01*
X86200000Y-50000000D02*
X87900000Y-48300000D01*
X114762500Y-50442500D02*
X112620000Y-48300000D01*
X87900000Y-48300000D02*
X111600000Y-48300000D01*
%TO.N,Board_2-/R_Return*%
X119200000Y-68800000D02*
X124922500Y-63077500D01*
X124922500Y-63077500D02*
X124922500Y-58062500D01*
%TO.N,Board_2-/L_Send*%
X130000000Y-68700000D02*
X131800000Y-68700000D01*
X144600000Y-57200000D02*
X144600000Y-51765000D01*
X131800000Y-68700000D02*
X140700000Y-59800000D01*
X142000000Y-59800000D02*
X144600000Y-57200000D01*
X144600000Y-51765000D02*
X146022500Y-50342500D01*
X140700000Y-59800000D02*
X142000000Y-59800000D01*
%TO.N,Board_2-/L_Return*%
X113400000Y-73000000D02*
X145200000Y-73000000D01*
X146000000Y-60200000D02*
X146022500Y-60177500D01*
X145200000Y-73000000D02*
X146700000Y-71500000D01*
X109200000Y-68800000D02*
X113400000Y-73000000D01*
X146700000Y-71500000D02*
X146700000Y-60900000D01*
X146022500Y-60177500D02*
X146022500Y-57962500D01*
X146700000Y-60900000D02*
X146000000Y-60200000D01*
D25*
%TO.N,Board_2-/Ctrl_GND*%
X100900000Y-71245000D02*
X100900000Y-66510000D01*
D24*
X96390000Y-62000000D02*
X98925000Y-59465000D01*
X98925000Y-59465000D02*
X98925000Y-53100000D01*
X98925000Y-53100000D02*
X100625000Y-51400000D01*
D25*
X100900000Y-66510000D02*
X96390000Y-62000000D01*
D26*
%TO.N,Board_2-/Control*%
X87300000Y-61000000D02*
X87300000Y-62500000D01*
X90550000Y-65750000D02*
X97390000Y-65750000D01*
X96390000Y-58500000D02*
X94700000Y-60190000D01*
X96390000Y-64750000D02*
X97390000Y-65750000D01*
X96390000Y-64490000D02*
X96390000Y-64750000D01*
X87300000Y-62500000D02*
X90550000Y-65750000D01*
X96390000Y-64490000D02*
X94700000Y-62800000D01*
X94700000Y-60190000D02*
X94700000Y-62800000D01*
%TO.N,Board_2-/9V*%
X89475000Y-71200000D02*
X89475000Y-67200000D01*
D27*
X98360000Y-71245000D02*
X97985721Y-71619279D01*
X97985721Y-71619279D02*
X89894279Y-71619279D01*
X89894279Y-71619279D02*
X89475000Y-71200000D01*
D26*
%TO.N,Board_2-/5V*%
X103440000Y-71245000D02*
X107142500Y-67542500D01*
X107142500Y-67542500D02*
X107142500Y-58062500D01*
D24*
%TO.N,Board_1-Net-(Right1-Pad11)*%
X185142500Y-22442500D02*
X185142500Y-30062500D01*
%TO.N,Board_1-Net-(Left/Mono1-Pad11)*%
X206242500Y-22342500D02*
X206242500Y-29962500D01*
%TO.N,Board_1-Net-(D1-A)*%
X170000000Y-25500000D02*
X168465000Y-23965000D01*
X170500000Y-36400000D02*
X170310000Y-36590000D01*
X170000000Y-28636396D02*
X170000000Y-25500000D01*
X170500000Y-29136396D02*
X170000000Y-28636396D01*
X170310000Y-36590000D02*
X170310000Y-37750000D01*
X170500000Y-36400000D02*
X170500000Y-29136396D01*
X170500000Y-36400000D02*
X170500000Y-36560000D01*
X168465000Y-23965000D02*
X168465000Y-23400000D01*
%TO.N,Board_1-/R_send*%
X192000000Y-31500000D02*
X193100000Y-32600000D01*
X204600000Y-42400000D02*
X205300000Y-41700000D01*
X194900000Y-43400000D02*
X203500000Y-43400000D01*
X204500000Y-42400000D02*
X204600000Y-42400000D01*
X192000000Y-24220000D02*
X192000000Y-31500000D01*
X193100000Y-32600000D02*
X193100000Y-41600000D01*
X193100000Y-41600000D02*
X194900000Y-43400000D01*
X205300000Y-41700000D02*
X205300000Y-40700000D01*
X203500000Y-43400000D02*
X204500000Y-42400000D01*
X190222500Y-22442500D02*
X192000000Y-24220000D01*
%TO.N,Board_1-/R_out*%
X180062500Y-25512500D02*
X180062500Y-30062500D01*
X156750000Y-22000000D02*
X158000000Y-20750000D01*
X158000000Y-20750000D02*
X175300000Y-20750000D01*
X175300000Y-20750000D02*
X180062500Y-25512500D01*
%TO.N,Board_1-/R_in*%
X180062500Y-22442500D02*
X177920000Y-20300000D01*
X153200000Y-20300000D02*
X176900000Y-20300000D01*
X151500000Y-22000000D02*
X153200000Y-20300000D01*
X177920000Y-20300000D02*
X176900000Y-20300000D01*
%TO.N,Board_1-/R_Return*%
X184500000Y-40800000D02*
X190222500Y-35077500D01*
X190222500Y-35077500D02*
X190222500Y-30062500D01*
%TO.N,Board_1-/L_Send*%
X209900000Y-23765000D02*
X211322500Y-22342500D01*
X209900000Y-29200000D02*
X209900000Y-23765000D01*
X207300000Y-31800000D02*
X209900000Y-29200000D01*
X206000000Y-31800000D02*
X207300000Y-31800000D01*
X197100000Y-40700000D02*
X206000000Y-31800000D01*
X195300000Y-40700000D02*
X197100000Y-40700000D01*
%TO.N,Board_1-/L_Return*%
X212000000Y-32900000D02*
X211300000Y-32200000D01*
X211300000Y-32200000D02*
X211322500Y-32177500D01*
X211322500Y-32177500D02*
X211322500Y-29962500D01*
X212000000Y-43500000D02*
X212000000Y-32900000D01*
X174500000Y-40800000D02*
X178700000Y-45000000D01*
X210500000Y-45000000D02*
X212000000Y-43500000D01*
X178700000Y-45000000D02*
X210500000Y-45000000D01*
D25*
%TO.N,Board_1-/Ctrl_GND*%
X166200000Y-38510000D02*
X161690000Y-34000000D01*
D24*
X164225000Y-25100000D02*
X165925000Y-23400000D01*
D25*
X166200000Y-43245000D02*
X166200000Y-38510000D01*
D24*
X164225000Y-31465000D02*
X164225000Y-25100000D01*
X161690000Y-34000000D02*
X164225000Y-31465000D01*
D26*
%TO.N,Board_1-/Control*%
X160000000Y-32190000D02*
X160000000Y-34800000D01*
X161690000Y-36490000D02*
X161690000Y-36750000D01*
X155850000Y-37750000D02*
X162690000Y-37750000D01*
X161690000Y-36750000D02*
X162690000Y-37750000D01*
X152600000Y-34500000D02*
X155850000Y-37750000D01*
X161690000Y-30500000D02*
X160000000Y-32190000D01*
X152600000Y-33000000D02*
X152600000Y-34500000D01*
X161690000Y-36490000D02*
X160000000Y-34800000D01*
%TO.N,Board_1-/9V*%
X154775000Y-43200000D02*
X154775000Y-39200000D01*
D27*
X155194279Y-43619279D02*
X154775000Y-43200000D01*
X163660000Y-43245000D02*
X163285721Y-43619279D01*
X163285721Y-43619279D02*
X155194279Y-43619279D01*
D26*
%TO.N,Board_1-/5V*%
X168740000Y-43245000D02*
X172442500Y-39542500D01*
X172442500Y-39542500D02*
X172442500Y-30062500D01*
D24*
%TO.N,Board_0-Net-(Right1-Pad11)*%
X119842500Y-22442500D02*
X119842500Y-30062500D01*
%TO.N,Board_0-Net-(Left/Mono1-Pad11)*%
X140942500Y-22342500D02*
X140942500Y-29962500D01*
%TO.N,Board_0-Net-(D1-A)*%
X105200000Y-36400000D02*
X105010000Y-36590000D01*
X103165000Y-23965000D02*
X103165000Y-23400000D01*
X105200000Y-29136396D02*
X104700000Y-28636396D01*
X105200000Y-36400000D02*
X105200000Y-36560000D01*
X105200000Y-36400000D02*
X105200000Y-29136396D01*
X104700000Y-28636396D02*
X104700000Y-25500000D01*
X105010000Y-36590000D02*
X105010000Y-37750000D01*
X104700000Y-25500000D02*
X103165000Y-23965000D01*
%TO.N,Board_0-/R_send*%
X124922500Y-22442500D02*
X126700000Y-24220000D01*
X126700000Y-31500000D02*
X127800000Y-32600000D01*
X140000000Y-41700000D02*
X140000000Y-40700000D01*
X138200000Y-43400000D02*
X139200000Y-42400000D01*
X127800000Y-32600000D02*
X127800000Y-41600000D01*
X126700000Y-24220000D02*
X126700000Y-31500000D01*
X139300000Y-42400000D02*
X140000000Y-41700000D01*
X129600000Y-43400000D02*
X138200000Y-43400000D01*
X127800000Y-41600000D02*
X129600000Y-43400000D01*
X139200000Y-42400000D02*
X139300000Y-42400000D01*
%TO.N,Board_0-/R_out*%
X110000000Y-20750000D02*
X114762500Y-25512500D01*
X92700000Y-20750000D02*
X110000000Y-20750000D01*
X114762500Y-25512500D02*
X114762500Y-30062500D01*
X91450000Y-22000000D02*
X92700000Y-20750000D01*
%TO.N,Board_0-/R_in*%
X114762500Y-22442500D02*
X112620000Y-20300000D01*
X112620000Y-20300000D02*
X111600000Y-20300000D01*
X86200000Y-22000000D02*
X87900000Y-20300000D01*
X87900000Y-20300000D02*
X111600000Y-20300000D01*
%TO.N,Board_0-/R_Return*%
X119200000Y-40800000D02*
X124922500Y-35077500D01*
X124922500Y-35077500D02*
X124922500Y-30062500D01*
%TO.N,Board_0-/L_Send*%
X144600000Y-29200000D02*
X144600000Y-23765000D01*
X131800000Y-40700000D02*
X140700000Y-31800000D01*
X144600000Y-23765000D02*
X146022500Y-22342500D01*
X140700000Y-31800000D02*
X142000000Y-31800000D01*
X142000000Y-31800000D02*
X144600000Y-29200000D01*
X130000000Y-40700000D02*
X131800000Y-40700000D01*
%TO.N,Board_0-/L_Return*%
X145200000Y-45000000D02*
X146700000Y-43500000D01*
X113400000Y-45000000D02*
X145200000Y-45000000D01*
X109200000Y-40800000D02*
X113400000Y-45000000D01*
X146022500Y-32177500D02*
X146022500Y-29962500D01*
X146700000Y-43500000D02*
X146700000Y-32900000D01*
X146000000Y-32200000D02*
X146022500Y-32177500D01*
X146700000Y-32900000D02*
X146000000Y-32200000D01*
%TO.N,Board_0-/Ctrl_GND*%
X98925000Y-31465000D02*
X98925000Y-25100000D01*
X96390000Y-34000000D02*
X98925000Y-31465000D01*
D25*
X100900000Y-43245000D02*
X100900000Y-38510000D01*
D24*
X98925000Y-25100000D02*
X100625000Y-23400000D01*
D25*
X100900000Y-38510000D02*
X96390000Y-34000000D01*
D26*
%TO.N,Board_0-/Control*%
X96390000Y-30500000D02*
X94700000Y-32190000D01*
X87300000Y-34500000D02*
X90550000Y-37750000D01*
X90550000Y-37750000D02*
X97390000Y-37750000D01*
X96390000Y-36750000D02*
X97390000Y-37750000D01*
X94700000Y-32190000D02*
X94700000Y-34800000D01*
X96390000Y-36490000D02*
X96390000Y-36750000D01*
X96390000Y-36490000D02*
X94700000Y-34800000D01*
X87300000Y-33000000D02*
X87300000Y-34500000D01*
%TO.N,Board_0-/9V*%
X89475000Y-43200000D02*
X89475000Y-39200000D01*
D27*
X98360000Y-43245000D02*
X97985721Y-43619279D01*
X89894279Y-43619279D02*
X89475000Y-43200000D01*
X97985721Y-43619279D02*
X89894279Y-43619279D01*
D26*
%TO.N,Board_0-/5V*%
X107142500Y-39542500D02*
X107142500Y-30062500D01*
X103440000Y-43245000D02*
X107142500Y-39542500D01*
%TD*%
M02*
