%TF.GenerationSoftware,KiCad,Pcbnew,7.0.9*%
%TF.CreationDate,2024-06-09T17:36:49-04:00*%
%TF.ProjectId,Jackless-Panel,4a61636b-6c65-4737-932d-50616e656c2e,rev?*%
%TF.SameCoordinates,Original*%
%TF.FileFunction,Drillmap*%
%TF.FilePolarity,Positive*%
%FSLAX45Y45*%
G04 Gerber Fmt 4.5, Leading zero omitted, Abs format (unit mm)*
G04 Created by KiCad (PCBNEW 7.0.9) date 2024-06-09 17:36:49*
%MOMM*%
%LPD*%
G01*
G04 APERTURE LIST*
%ADD10C,0.100000*%
%ADD11C,0.200000*%
G04 APERTURE END LIST*
D10*
X9770456Y-5204071D02*
X9771048Y-5212026D01*
X9251708Y-3922177D02*
X9258150Y-3917472D01*
X9448804Y-5223988D02*
X9448804Y-5216012D01*
X12077021Y-6260964D02*
X12074687Y-6253336D01*
X9395254Y-6695235D02*
X9402852Y-6697663D01*
X12311771Y-3271027D02*
X12318544Y-3275241D01*
X16061691Y-2560953D02*
X16054816Y-2556908D01*
X9600035Y-2580937D02*
X9592088Y-2580247D01*
X15917545Y-4206813D02*
X15909744Y-4208478D01*
X12119562Y-3527488D02*
X12113887Y-3521883D01*
X15998845Y-6958976D02*
X15993310Y-6964720D01*
X16114185Y-2579165D02*
X16106345Y-2577694D01*
X14431771Y-6318973D02*
X14424798Y-6322847D01*
X14214156Y-3293129D02*
X14218618Y-3286518D01*
X12348845Y-6318976D02*
X12343310Y-6324720D01*
X20846345Y-3537694D02*
X20838588Y-3535837D01*
X9499562Y-5102512D02*
X9505507Y-5097194D01*
X14191166Y-3407782D02*
X14189986Y-3399893D01*
X9387545Y-7006813D02*
X9379744Y-7008478D01*
X15722734Y-6814397D02*
X15724687Y-6806663D01*
X15830932Y-7003598D02*
X15823396Y-7000983D01*
X9568588Y-5375837D02*
X9560932Y-5373598D01*
X14750000Y-2000000D02*
X8420000Y-2000000D01*
X18918098Y-3378298D02*
X18919472Y-3386155D01*
X14395254Y-3225235D02*
X14402852Y-3227663D01*
X16228544Y-5085241D02*
X16235100Y-5089785D01*
X8420000Y-4600000D02*
X9325000Y-4600000D01*
X16247498Y-5099816D02*
X16253310Y-5105279D01*
X21040456Y-3395929D02*
X21039472Y-3403844D01*
X16013653Y-4140204D02*
X16009029Y-4146703D01*
X20775507Y-3257194D02*
X20781708Y-3252177D01*
X9228496Y-3943996D02*
X9233887Y-3938117D01*
X20925254Y-6334765D02*
X20917545Y-6336813D01*
X20987498Y-6059816D02*
X20993310Y-6065279D01*
X14479029Y-6083297D02*
X14483653Y-6089796D01*
X9771048Y-5212026D02*
X9771245Y-5220000D01*
X16114185Y-5060835D02*
X16122088Y-5059753D01*
X12173396Y-3560983D02*
X12165998Y-3557999D01*
X18855100Y-3279785D02*
X18861423Y-3284647D01*
X18649562Y-3527488D02*
X18643887Y-3521883D01*
X20769562Y-6297488D02*
X20763887Y-6291883D01*
X16061691Y-2279047D02*
X16068758Y-2275347D01*
X20909744Y-6021522D02*
X20917545Y-6023187D01*
X16281911Y-5296560D02*
X16277951Y-5303484D01*
X11735000Y-4700150D02*
X11735000Y-4699950D01*
X15987021Y-2470964D02*
X15984687Y-2463336D01*
X12337498Y-6089816D02*
X12343310Y-6095279D01*
X16296337Y-5180518D02*
X16298098Y-5188298D01*
X18638496Y-6103996D02*
X18643887Y-6098117D01*
X9340035Y-7010937D02*
X9332088Y-7010247D01*
X15855000Y-4700150D02*
X15855000Y-4800000D01*
X14300932Y-6026402D02*
X14308588Y-6024163D01*
X15954798Y-3907153D02*
X15961771Y-3911027D01*
X18655507Y-6332806D02*
X18649562Y-6327488D01*
X12103402Y-6309865D02*
X12098618Y-6303482D01*
X9457498Y-3929816D02*
X9463310Y-3935279D01*
X16038098Y-6818298D02*
X16039472Y-6826155D01*
X9761672Y-5165268D02*
X9764193Y-5172835D01*
X9451166Y-5192218D02*
X9452734Y-5184397D01*
X20721166Y-6207782D02*
X20719987Y-6199893D01*
X21041245Y-3380000D02*
X21041048Y-3387974D01*
X18599987Y-6229893D02*
X18599199Y-6221955D01*
X9449199Y-5208045D02*
X9449987Y-5200107D01*
X20885982Y-6341134D02*
X20878006Y-6341233D01*
X18789744Y-3568478D02*
X18781870Y-3569755D01*
X12367951Y-6293484D02*
X12363653Y-6300204D01*
X20975100Y-3510215D02*
X20968544Y-3514759D01*
X21041048Y-6187974D02*
X21040456Y-6195929D01*
X14849900Y-6383333D02*
X14750000Y-6383333D01*
X20981423Y-3505353D02*
X20975100Y-3510215D01*
X18873310Y-6324720D02*
X18867498Y-6330184D01*
X20932852Y-6332337D02*
X20925254Y-6334765D01*
X15981166Y-5247782D02*
X15979986Y-5239893D01*
X12384193Y-6257165D02*
X12381672Y-6264732D01*
X21039472Y-3356155D02*
X21040456Y-3364071D01*
X14214156Y-6093129D02*
X14218618Y-6086518D01*
X9538758Y-2564653D02*
X9531691Y-2560953D01*
X16269029Y-5316703D02*
X16264089Y-5322966D01*
X18265000Y-4699950D02*
X18265000Y-4600000D01*
X18867498Y-3530184D02*
X18861423Y-3535353D01*
X20862088Y-6340247D02*
X20854185Y-6339165D01*
X9684799Y-5077153D02*
X9691771Y-5081027D01*
X15794816Y-4186908D02*
X15788150Y-4182528D01*
X16138006Y-5381233D02*
X16130034Y-5380937D01*
X14332088Y-6340247D02*
X14324185Y-6339165D01*
X15838588Y-3894163D02*
X15846345Y-3892306D01*
X16169744Y-2578478D02*
X16161870Y-2579755D01*
X16258845Y-5328977D02*
X16253310Y-5334721D01*
X12390456Y-6225929D02*
X12389472Y-6233844D01*
X9371870Y-4209755D02*
X9363943Y-4210641D01*
X12188588Y-3565837D02*
X12180932Y-3563598D01*
X16235100Y-5089785D02*
X16241423Y-5094647D01*
X9452734Y-2455603D02*
X9451166Y-2447782D01*
X9454688Y-5176664D02*
X9457021Y-5169036D01*
X9239562Y-4167488D02*
X9233887Y-4161883D01*
X14451423Y-6305353D02*
X14445100Y-6310215D01*
X16192852Y-2267663D02*
X16200321Y-2270463D01*
X16288780Y-5282166D02*
X16285523Y-5289448D01*
X16214798Y-5077153D02*
X16221771Y-5081027D01*
X16018496Y-5326004D02*
X16013402Y-5319865D01*
X15719986Y-4030107D02*
X15721166Y-4022218D01*
X21034193Y-3427165D02*
X21031672Y-3434732D01*
X12069986Y-6229893D02*
X12069199Y-6221955D01*
X15854185Y-7009165D02*
X15846345Y-7007694D01*
X12331423Y-3535353D02*
X12325100Y-3540215D01*
X18897951Y-3493484D02*
X18893654Y-3500204D01*
X15996239Y-5293026D02*
X15992803Y-5285827D01*
X16122088Y-2259753D02*
X16130034Y-2259063D01*
X9498780Y-6912166D02*
X9495523Y-6919448D01*
X12113887Y-6321883D02*
X12108496Y-6316004D01*
X9199728Y-6791533D02*
X9202804Y-6784173D01*
X15788150Y-4182528D02*
X15781708Y-4177823D01*
X14510456Y-6164071D02*
X14511048Y-6172026D01*
X9768098Y-2451702D02*
X9766337Y-2459482D01*
X9524816Y-2283092D02*
X9531691Y-2279047D01*
X18765982Y-6371134D02*
X18758006Y-6371233D01*
X14849900Y-2716667D02*
X14750000Y-2716667D01*
X14199728Y-3321533D02*
X14202803Y-3314173D01*
X20788150Y-6312528D02*
X20781708Y-6307823D01*
X12103402Y-3310135D02*
X12108496Y-3303996D01*
X14197021Y-6129036D02*
X14199728Y-6121533D01*
X16018496Y-2526004D02*
X16013402Y-2519865D01*
X14510456Y-6195929D02*
X14509472Y-6203844D01*
X9691771Y-5358973D02*
X9684799Y-5362847D01*
X9325000Y-4700150D02*
X9325000Y-4800000D01*
X18789744Y-6051522D02*
X18797545Y-6053187D01*
X18599987Y-3429893D02*
X18599199Y-3421955D01*
X18638496Y-6316004D02*
X18633402Y-6309865D01*
X9410321Y-4199537D02*
X9402852Y-4202337D01*
X14278758Y-3235347D02*
X14285998Y-3232001D01*
X18734185Y-3569165D02*
X18726345Y-3567694D01*
X9608006Y-2258767D02*
X9615982Y-2258866D01*
X18599987Y-3390107D02*
X18601166Y-3382218D01*
X14849900Y-3016667D02*
X14850100Y-3016667D01*
X20721166Y-3352218D02*
X20722734Y-3344397D01*
X12391048Y-6202026D02*
X12391245Y-6210000D01*
X14251708Y-3507823D02*
X14245507Y-3502806D01*
X14468845Y-3271023D02*
X14474089Y-3277034D01*
X15981423Y-4175353D02*
X15975100Y-4180215D01*
X15719986Y-6869893D02*
X15719199Y-6861955D01*
X12790000Y-4700150D02*
X12790000Y-4699950D01*
X16300456Y-5235929D02*
X16299472Y-5243845D01*
X9189987Y-4030107D02*
X9191166Y-4022218D01*
X15830932Y-6696402D02*
X15838588Y-6694163D01*
X16098588Y-2264163D02*
X16106345Y-2262306D01*
X12074687Y-3366663D02*
X12077021Y-3359036D01*
X14402852Y-3532337D02*
X14395254Y-3534765D01*
X14483653Y-6089796D02*
X14487951Y-6096516D01*
X14850100Y-3883333D02*
X14950000Y-3883333D01*
X16122088Y-5059753D02*
X16130034Y-5059063D01*
X14438544Y-3514759D02*
X14431771Y-3518973D01*
X14218618Y-3473482D02*
X14214156Y-3466870D01*
X21013654Y-3470204D02*
X21009029Y-3476703D01*
X14191166Y-3352218D02*
X14192734Y-3344397D01*
X14251708Y-6307823D02*
X14245507Y-6302806D01*
X14431771Y-3241027D02*
X14438544Y-3245241D01*
X12790000Y-4699950D02*
X12790000Y-4600000D01*
X9501672Y-6795267D02*
X9504193Y-6802835D01*
X9470026Y-2500046D02*
X9466239Y-2493026D01*
X18661708Y-3282177D02*
X18668150Y-3277472D01*
X9271691Y-6990953D02*
X9264816Y-6986908D01*
X16004156Y-2506870D02*
X16000026Y-2500046D01*
X20375000Y-4600000D02*
X21280000Y-4600000D01*
X15862088Y-6689753D02*
X15870034Y-6689063D01*
X14348006Y-3218767D02*
X14355982Y-3218866D01*
X18758006Y-3571233D02*
X18750035Y-3570937D01*
X9639744Y-2578478D02*
X9631870Y-2579755D01*
X18918098Y-6241702D02*
X18916337Y-6249481D01*
X9233887Y-6738117D02*
X9239562Y-6732512D01*
X9511708Y-5092177D02*
X9518150Y-5087472D01*
X21004089Y-3277034D02*
X21009029Y-3283297D01*
X12354089Y-6312966D02*
X12348845Y-6318976D01*
X15794816Y-6713092D02*
X15801691Y-6709047D01*
X15982734Y-5255603D02*
X15981166Y-5247782D01*
X9324185Y-6690835D02*
X9332088Y-6689753D01*
X12072734Y-3445603D02*
X12071166Y-3437782D01*
X18901911Y-6133440D02*
X18905523Y-6140552D01*
X9316345Y-7007694D02*
X9308588Y-7005837D01*
X12082803Y-3475827D02*
X12079728Y-3468467D01*
X18598804Y-6213988D02*
X18598804Y-6206012D01*
X21041048Y-6172026D02*
X21041245Y-6180000D01*
X9355982Y-7011134D02*
X9348006Y-7011233D01*
X16000026Y-2500046D02*
X15996239Y-2493026D01*
X9258150Y-6717472D02*
X9264816Y-6713092D01*
X15940321Y-3900463D02*
X15947643Y-3903629D01*
X12220034Y-3249063D02*
X12228006Y-3248767D01*
X18919472Y-3433844D02*
X18918098Y-3441702D01*
X20732804Y-6245827D02*
X20729728Y-6238467D01*
X9474089Y-6747034D02*
X9479029Y-6753297D01*
X9506337Y-6889481D02*
X9504193Y-6897165D01*
X12196345Y-3567694D02*
X12188588Y-3565837D01*
X14850100Y-6683333D02*
X14950000Y-6683333D01*
X20775507Y-6302806D02*
X20769562Y-6297488D01*
X16013653Y-6759796D02*
X16017951Y-6766516D01*
X9285998Y-4197999D02*
X9278758Y-4194653D01*
X15979986Y-2400107D02*
X15981166Y-2392218D01*
X14491911Y-6256559D02*
X14487951Y-6263484D01*
X15758496Y-4156004D02*
X15753402Y-4149865D01*
X12069986Y-6190107D02*
X12071166Y-6182218D01*
X21040456Y-3364071D02*
X21041048Y-3372026D01*
X16040456Y-4034071D02*
X16041048Y-4042026D01*
X9191166Y-4022218D02*
X9192734Y-4014397D01*
X15901870Y-3890245D02*
X15909744Y-3891522D01*
X12381672Y-6264732D02*
X12378780Y-6272166D01*
X14506337Y-3340518D02*
X14508098Y-3348298D01*
X9214156Y-6936870D02*
X9210026Y-6930046D01*
X12259744Y-6051522D02*
X12267545Y-6053187D01*
X15893943Y-4210641D02*
X15885982Y-4211134D01*
X9508098Y-6881702D02*
X9506337Y-6889481D01*
X20954799Y-3237153D02*
X20961771Y-3241027D01*
X18624156Y-6296870D02*
X18620026Y-6290046D01*
X16214798Y-2277153D02*
X16221771Y-2281027D01*
X9457021Y-5169036D02*
X9459728Y-5161533D01*
X15975100Y-3919785D02*
X15981423Y-3924647D01*
X16054816Y-5356908D02*
X16048150Y-5352528D01*
X18920456Y-6194071D02*
X18921048Y-6202026D01*
X16041245Y-4050000D02*
X16041048Y-4057974D01*
X14245507Y-3502806D02*
X14239562Y-3497488D01*
X20375000Y-4700150D02*
X20375000Y-4699950D01*
X14410321Y-6030463D02*
X14417643Y-6033629D01*
X12343310Y-6324720D02*
X12337498Y-6330184D01*
X9451423Y-4175353D02*
X9445100Y-4180215D01*
X16155000Y-4600000D02*
X16910000Y-4600000D01*
X9264816Y-6986908D02*
X9258150Y-6982528D01*
X18908780Y-6272166D02*
X18905523Y-6279448D01*
X18921048Y-6217974D02*
X18920456Y-6225929D01*
X18710932Y-3256402D02*
X18718588Y-3254163D01*
X20722734Y-6215603D02*
X20721166Y-6207782D01*
X20758496Y-3273996D02*
X20763887Y-3268117D01*
X9758780Y-2482166D02*
X9755523Y-2489448D01*
X16281911Y-5143440D02*
X16285523Y-5150552D01*
X16161870Y-5060245D02*
X16169744Y-5061522D01*
X9487951Y-6933484D02*
X9483654Y-6940204D01*
X14498780Y-3317834D02*
X14501672Y-3325267D01*
X16009029Y-3953297D02*
X16013653Y-3959796D01*
X12259744Y-6368478D02*
X12251870Y-6369755D01*
X16221771Y-5358973D02*
X16214798Y-5362847D01*
X14379744Y-3221522D02*
X14387545Y-3223187D01*
X20727021Y-3430964D02*
X20724688Y-3423336D01*
X16253310Y-2305279D02*
X16258845Y-2311023D01*
X9332088Y-3889753D02*
X9340035Y-3889063D01*
X18599199Y-3398045D02*
X18599987Y-3390107D01*
X15981423Y-6975353D02*
X15975100Y-6980215D01*
X15724687Y-4006663D02*
X15727021Y-3999036D01*
X20721166Y-6152218D02*
X20722734Y-6144397D01*
X9623943Y-5059359D02*
X9631870Y-5060245D01*
X12275254Y-3255235D02*
X12282852Y-3257663D01*
X16277951Y-5303484D02*
X16273653Y-5310204D01*
X9191166Y-6822218D02*
X9192734Y-6814397D01*
X20961771Y-3241027D02*
X20968544Y-3245241D01*
X18624156Y-6123129D02*
X18628618Y-6116518D01*
X9214156Y-3963129D02*
X9218618Y-3956518D01*
X9728845Y-5111023D02*
X9734089Y-5117034D01*
X14750000Y-2716667D02*
X14750000Y-2000000D01*
X18718588Y-3565837D02*
X18710932Y-3563598D01*
X16169744Y-5061522D02*
X16177545Y-5063187D01*
X20740026Y-6260046D02*
X20736239Y-6253026D01*
X9431771Y-4188973D02*
X9424799Y-4192847D01*
X9623943Y-2259359D02*
X9631870Y-2260245D01*
X14451423Y-6054647D02*
X14457498Y-6059816D01*
X20732804Y-6114173D02*
X20736239Y-6106974D01*
X12375523Y-3479448D02*
X12371911Y-3486559D01*
X18649562Y-3292512D02*
X18655507Y-3287194D01*
X12108496Y-3303996D02*
X12113887Y-3298117D01*
X15932852Y-6697663D02*
X15940321Y-6700463D01*
X14509472Y-3403844D02*
X14508098Y-3411702D01*
X14387545Y-6023187D02*
X14395254Y-6025235D01*
X9199728Y-4108467D02*
X9197021Y-4100964D01*
X12343310Y-3524720D02*
X12337498Y-3530184D01*
X9395254Y-7004765D02*
X9387545Y-7006813D01*
X15984687Y-2463336D02*
X15982734Y-2455603D01*
X20975100Y-3249785D02*
X20981423Y-3254647D01*
X14233887Y-6068117D02*
X14239562Y-6062512D01*
X20870035Y-6019063D02*
X20878006Y-6018767D01*
X16048150Y-5352528D02*
X16041708Y-5347823D01*
X9639744Y-5061522D02*
X9647545Y-5063187D01*
X9293396Y-4200983D02*
X9285998Y-4197999D01*
X12354089Y-3512966D02*
X12348845Y-3518976D01*
X20748618Y-3286518D02*
X20753402Y-3280135D01*
X14293396Y-6330983D02*
X14285998Y-6327999D01*
X16299472Y-5196155D02*
X16300456Y-5204071D01*
X9768098Y-5251702D02*
X9766337Y-5259482D01*
X12113887Y-3521883D02*
X12108496Y-3516004D01*
X12090026Y-6290046D02*
X12086239Y-6283026D01*
X12371911Y-6133440D02*
X12375523Y-6140552D01*
X9402852Y-4202337D02*
X9395254Y-4204765D01*
X16301048Y-2412026D02*
X16301245Y-2420000D01*
X21036337Y-6140518D02*
X21038098Y-6148298D01*
X12098618Y-6116518D02*
X12103402Y-6110135D01*
X16035507Y-5097194D02*
X16041708Y-5092177D01*
X14424798Y-3522847D02*
X14417643Y-3526371D01*
X12363653Y-6300204D02*
X12359029Y-6306703D01*
X18781870Y-6369755D02*
X18773943Y-6370641D01*
X14271691Y-6039047D02*
X14278758Y-6035347D01*
X15987021Y-5169036D02*
X15989728Y-5161533D01*
X9474089Y-3947034D02*
X9479029Y-3953297D01*
X16122088Y-2580247D02*
X16114185Y-2579165D01*
X12384193Y-3362835D02*
X12386337Y-3370518D01*
X12388098Y-3441702D02*
X12386337Y-3449481D01*
X9387545Y-4206813D02*
X9379744Y-4208478D01*
X18848544Y-3275241D02*
X18855100Y-3279785D01*
X18668150Y-3277472D02*
X18674816Y-3273092D01*
X12251870Y-3250245D02*
X12259744Y-3251522D01*
X16021911Y-6773440D02*
X16025523Y-6780552D01*
X15975100Y-4180215D02*
X15968544Y-4184759D01*
X20769562Y-3262512D02*
X20775507Y-3257194D01*
X14387545Y-6336813D02*
X14379744Y-6338478D01*
X14849900Y-6683333D02*
X14850100Y-6683333D01*
X9734089Y-2317034D02*
X9739029Y-2323297D01*
X15748618Y-6943482D02*
X15744156Y-6936870D01*
X18674816Y-3273092D02*
X18681691Y-3269047D01*
X9505507Y-5342806D02*
X9499562Y-5337488D01*
X9623943Y-5380641D02*
X9615982Y-5381134D01*
X14197021Y-6230964D02*
X14194687Y-6223336D01*
X20748618Y-6273482D02*
X20744156Y-6266870D01*
X12304798Y-3552847D02*
X12297643Y-3556371D01*
X18911672Y-3355267D02*
X18914193Y-3362835D01*
X21028780Y-3317834D02*
X21031672Y-3325267D01*
X18919472Y-6233844D02*
X18918098Y-6241702D01*
X12354089Y-6107034D02*
X12359029Y-6113297D01*
X20954799Y-6322847D02*
X20947643Y-6326371D01*
X9206239Y-6923026D02*
X9202804Y-6915827D01*
X12090026Y-6129954D02*
X12094156Y-6123129D01*
X16068758Y-2564653D02*
X16061691Y-2560953D01*
X14371870Y-3539755D02*
X14363943Y-3540641D01*
X9747951Y-5136516D02*
X9751911Y-5143440D01*
X10680000Y-4600000D02*
X11435000Y-4600000D01*
X18773943Y-3570641D02*
X18765982Y-3571134D01*
X14395254Y-6334765D02*
X14387545Y-6336813D01*
X18609728Y-6151533D02*
X18612804Y-6144173D01*
X9758780Y-5157834D02*
X9761672Y-5165268D01*
X20801691Y-6320953D02*
X20794816Y-6316908D01*
X16036337Y-6889481D02*
X16034193Y-6897165D01*
X14189199Y-3391955D02*
X14188804Y-3383988D01*
X16185254Y-2574765D02*
X16177545Y-2576813D01*
X16300456Y-5204071D02*
X16301048Y-5212026D01*
X14194687Y-3336663D02*
X14197021Y-3329036D01*
X9739029Y-5123297D02*
X9743654Y-5129796D01*
X16264089Y-5322966D02*
X16258845Y-5328977D01*
X15987021Y-2369036D02*
X15989728Y-2361533D01*
X9505507Y-2542806D02*
X9499562Y-2537488D01*
X15947643Y-6996371D02*
X15940321Y-6999537D01*
X9584185Y-5060835D02*
X9592088Y-5059753D01*
X18911672Y-3464732D02*
X18908780Y-3472166D01*
X14511048Y-3372026D02*
X14511245Y-3380000D01*
X20719199Y-6191955D02*
X20718804Y-6183988D01*
X20870035Y-3219063D02*
X20878006Y-3218767D01*
X15719199Y-4038045D02*
X15719986Y-4030107D01*
X15981166Y-2447782D02*
X15979986Y-2439893D01*
X14285998Y-6032001D02*
X14293396Y-6029017D01*
X15748618Y-6756518D02*
X15753402Y-6750135D01*
X16068758Y-5075347D02*
X16075998Y-5072001D01*
X18920456Y-6225929D02*
X18919472Y-6233844D01*
X16300456Y-2435929D02*
X16299472Y-2443845D01*
X16029562Y-5102512D02*
X16035507Y-5097194D01*
X12212088Y-3570247D02*
X12204185Y-3569165D01*
X9466239Y-5146974D02*
X9470026Y-5139954D01*
X9387545Y-3893187D02*
X9395254Y-3895235D01*
X14233887Y-6291883D02*
X14228496Y-6286004D01*
X12390456Y-3425929D02*
X12389472Y-3433844D01*
X9770456Y-2435929D02*
X9769472Y-2443845D01*
X20075000Y-4600000D02*
X20075000Y-4699950D01*
X9233887Y-4161883D02*
X9228496Y-4156004D01*
X12304798Y-3267153D02*
X12311771Y-3271027D01*
X15729728Y-6791533D02*
X15732803Y-6784173D01*
X12068804Y-6213988D02*
X12068804Y-6206012D01*
X18827643Y-3556371D02*
X18820321Y-3559537D01*
X15794816Y-3913092D02*
X15801691Y-3909047D01*
X15978804Y-5216012D02*
X15979199Y-5208045D01*
X15961771Y-3911027D02*
X15968544Y-3915241D01*
X12297643Y-6063629D02*
X12304798Y-6067153D01*
X16130034Y-2580937D02*
X16122088Y-2580247D01*
X10680000Y-4800000D02*
X10680000Y-4700150D01*
X12098618Y-3316518D02*
X12103402Y-3310135D01*
X20854185Y-6339165D02*
X20846345Y-6337694D01*
X16298098Y-5188298D02*
X16299472Y-5196155D01*
X16054816Y-5083092D02*
X16061691Y-5079047D01*
X12180932Y-3256402D02*
X12188588Y-3254163D01*
X12267545Y-6053187D02*
X12275254Y-6055235D01*
X12069986Y-3429893D02*
X12069199Y-3421955D01*
X12079728Y-6151533D02*
X12082803Y-6144173D01*
X16075998Y-5367999D02*
X16068758Y-5364653D01*
X14188804Y-6183988D02*
X14188804Y-6176012D01*
X9771048Y-2427974D02*
X9770456Y-2435929D01*
X9483654Y-4140204D02*
X9479029Y-4146703D01*
X20736239Y-3306974D02*
X20740026Y-3299954D01*
X9491911Y-4126559D02*
X9487951Y-4133484D01*
X20823396Y-3530983D02*
X20815998Y-3527999D01*
X15719986Y-6830107D02*
X15721166Y-6822218D01*
X15998845Y-4158976D02*
X15993310Y-4164720D01*
X15975100Y-6719785D02*
X15981423Y-6724647D01*
X14504193Y-6132835D02*
X14506337Y-6140518D01*
X16247498Y-2299816D02*
X16253310Y-2305279D01*
X14750000Y-7400000D02*
X14750000Y-6683333D01*
X9210026Y-4130046D02*
X9206239Y-4123026D01*
X9625000Y-4600000D02*
X10380000Y-4600000D01*
X14495523Y-3310552D02*
X14498780Y-3317834D01*
X14278758Y-6035347D02*
X14285998Y-6032001D01*
X18710932Y-6363598D02*
X18703396Y-6360983D01*
X15775507Y-6727194D02*
X15781708Y-6722177D01*
X21280000Y-4600000D02*
X21280000Y-2000000D01*
X20838588Y-6024163D02*
X20846345Y-6022306D01*
X12359029Y-3506703D02*
X12354089Y-3512966D01*
X12108496Y-6103996D02*
X12113887Y-6098117D01*
X15998845Y-6741023D02*
X16004089Y-6747034D01*
X18674816Y-6073092D02*
X18681691Y-6069047D01*
X9188804Y-4053988D02*
X9188804Y-4046012D01*
X20998845Y-6288976D02*
X20993310Y-6294720D01*
X9285998Y-3902001D02*
X9293396Y-3899017D01*
X14750000Y-4800000D02*
X13845000Y-4800000D01*
X15901870Y-6690245D02*
X15909744Y-6691522D01*
X18834799Y-3267153D02*
X18841771Y-3271027D01*
X12267545Y-3566813D02*
X12259744Y-3568478D01*
X18602734Y-3445603D02*
X18601166Y-3437782D01*
X15940321Y-6700463D02*
X15947643Y-6703629D01*
X9387545Y-6693187D02*
X9395254Y-6695235D01*
X9531691Y-5079047D02*
X9538758Y-5075347D01*
X14308588Y-6335837D02*
X14300932Y-6333598D01*
X12173396Y-6059017D02*
X12180932Y-6056402D01*
X9210026Y-6930046D02*
X9206239Y-6923026D01*
X20878006Y-6341233D02*
X20870035Y-6340937D01*
X15830932Y-4203598D02*
X15823396Y-4200983D01*
X18668150Y-6342528D02*
X18661708Y-6337823D01*
X13845000Y-4800000D02*
X13845000Y-4700150D01*
X18897951Y-6126516D02*
X18901911Y-6133440D01*
X8420000Y-2000000D02*
X8420000Y-4600000D01*
X14463310Y-6065279D02*
X14468845Y-6071023D01*
X18616239Y-3483026D02*
X18612804Y-3475827D01*
X15724687Y-6806663D02*
X15727021Y-6799036D01*
X14479029Y-3476703D02*
X14474089Y-3482966D01*
X15719199Y-6861955D02*
X15718804Y-6853988D01*
X14293396Y-6029017D02*
X14300932Y-6026402D01*
X9739029Y-2323297D02*
X9743654Y-2329796D01*
X9271691Y-4190953D02*
X9264816Y-4186908D01*
X18773943Y-6049359D02*
X18781870Y-6050245D01*
X9766337Y-5180518D02*
X9768098Y-5188298D01*
X9504193Y-4097165D02*
X9501672Y-4104732D01*
X14504193Y-6227165D02*
X14501672Y-6234732D01*
X9734089Y-2522966D02*
X9728845Y-2528977D01*
X16221771Y-5081027D02*
X16228544Y-5085241D01*
X9451423Y-3924647D02*
X9457498Y-3929816D01*
X9355982Y-3888866D02*
X9363943Y-3889359D01*
X15781708Y-4177823D02*
X15775507Y-4172806D01*
X9499562Y-2302512D02*
X9505507Y-2297194D01*
X9189199Y-4061955D02*
X9188804Y-4053988D01*
X20729728Y-6238467D02*
X20727021Y-6230964D01*
X16040456Y-6865929D02*
X16039472Y-6873844D01*
X14395254Y-6025235D02*
X14402852Y-6027663D01*
X9459728Y-5278467D02*
X9457021Y-5270964D01*
X21034193Y-6227165D02*
X21031672Y-6234732D01*
X9493887Y-5108117D02*
X9499562Y-5102512D01*
X14189199Y-6168045D02*
X14189986Y-6160107D01*
X15878006Y-7011233D02*
X15870034Y-7010937D01*
X20719987Y-6160107D02*
X20721166Y-6152218D01*
X15979986Y-2439893D02*
X15979199Y-2431955D01*
X20932852Y-3227663D02*
X20940321Y-3230463D01*
X14431771Y-6041027D02*
X14438544Y-6045241D01*
X9228496Y-6956004D02*
X9223402Y-6949865D01*
X20719987Y-3360107D02*
X20721166Y-3352218D01*
X12196345Y-6052306D02*
X12204185Y-6050835D01*
X12386337Y-6170518D02*
X12388098Y-6178298D01*
X16004089Y-3947034D02*
X16009029Y-3953297D01*
X16021911Y-3973440D02*
X16025523Y-3980552D01*
X14355982Y-6018866D02*
X14363943Y-6019359D01*
X15718804Y-6853988D02*
X15718804Y-6846012D01*
X12165998Y-3262001D02*
X12173396Y-3259017D01*
X12098618Y-3503482D02*
X12094156Y-3496870D01*
X20830932Y-6333598D02*
X20823396Y-6330983D01*
X12068804Y-6206012D02*
X12069199Y-6198045D01*
X16041708Y-2292177D02*
X16048150Y-2287472D01*
X9584185Y-2579165D02*
X9576345Y-2577694D01*
X12297643Y-3263629D02*
X12304798Y-3267153D01*
X15801691Y-3909047D02*
X15808758Y-3905347D01*
X20862088Y-3219753D02*
X20870035Y-3219063D01*
X15870034Y-4210937D02*
X15862088Y-4210247D01*
X15744156Y-6936870D02*
X15740026Y-6930046D01*
X20075000Y-4699950D02*
X20075000Y-4700150D01*
X16031672Y-6795267D02*
X16034193Y-6802835D01*
X14509472Y-6156155D02*
X14510456Y-6164071D01*
X15998845Y-3941023D02*
X16004089Y-3947034D01*
X15940321Y-4199537D02*
X15932852Y-4202337D01*
X15732803Y-6784173D02*
X15736239Y-6776974D01*
X16258845Y-2311023D02*
X16264089Y-2317034D01*
X14202803Y-3445827D02*
X14199728Y-3438467D01*
X15981423Y-6724647D02*
X15987498Y-6729816D01*
X20846345Y-6022306D02*
X20854185Y-6020835D01*
X14324185Y-6339165D02*
X14316345Y-6337694D01*
X9308588Y-4205837D02*
X9300932Y-4203598D01*
X9770456Y-2404071D02*
X9771048Y-2412026D01*
X21013654Y-6270204D02*
X21009029Y-6276703D01*
X18624156Y-3323129D02*
X18628618Y-3316518D01*
X20075000Y-4800000D02*
X19320000Y-4800000D01*
X21017951Y-3296516D02*
X21021911Y-3303440D01*
X9491911Y-6773440D02*
X9495523Y-6780552D01*
X14379744Y-6021522D02*
X14387545Y-6023187D01*
X9670321Y-2569537D02*
X9662852Y-2572337D01*
X16285523Y-5150552D02*
X16288780Y-5157834D01*
X18884089Y-3307034D02*
X18889029Y-3313297D01*
X9402852Y-6697663D02*
X9410321Y-6700463D01*
X16192852Y-5372337D02*
X16185254Y-5374765D01*
X18703396Y-3560983D02*
X18695998Y-3557999D01*
X9470026Y-2339954D02*
X9474156Y-2333130D01*
X16253310Y-5334721D02*
X16247498Y-5340184D01*
X9538758Y-2275347D02*
X9545998Y-2272001D01*
X9509472Y-4073844D02*
X9508098Y-4081702D01*
X9576345Y-2262306D02*
X9584185Y-2260835D01*
X12389472Y-6233844D02*
X12388098Y-6241702D01*
X15893943Y-3889359D02*
X15901870Y-3890245D01*
X9449987Y-5200107D02*
X9451166Y-5192218D01*
X12165998Y-6062001D02*
X12173396Y-6059017D01*
X9631870Y-5060245D02*
X9639744Y-5061522D01*
X9245507Y-6727194D02*
X9251708Y-6722177D01*
X14410321Y-3230463D02*
X14417643Y-3233629D01*
X16038098Y-6881702D02*
X16036337Y-6889481D01*
X20758496Y-6073996D02*
X20763887Y-6068117D01*
X20998845Y-6071023D02*
X21004089Y-6077034D01*
X14363943Y-3219359D02*
X14371870Y-3220245D01*
X9491911Y-3973440D02*
X9495523Y-3980552D01*
X20727021Y-6230964D02*
X20724688Y-6223336D01*
X15808758Y-6705347D02*
X15815998Y-6702001D01*
X14445100Y-3510215D02*
X14438544Y-3514759D01*
X9524816Y-2556908D02*
X9518150Y-2552528D01*
X20901870Y-6339755D02*
X20893943Y-6340641D01*
X9188804Y-6846012D02*
X9189199Y-6838045D01*
X9293396Y-3899017D02*
X9300932Y-3896402D01*
X12098618Y-6303482D02*
X12094156Y-6296870D01*
X18901911Y-6286559D02*
X18897951Y-6293484D01*
X21025523Y-6110552D02*
X21028780Y-6117834D01*
X9474156Y-5306870D02*
X9470026Y-5300046D01*
X21031672Y-3325267D02*
X21034193Y-3332835D01*
X21034193Y-6132835D02*
X21036337Y-6140518D01*
X18820321Y-6359537D02*
X18812852Y-6362337D01*
X18919472Y-6186155D02*
X18920456Y-6194071D01*
X20815998Y-6327999D02*
X20808758Y-6324653D01*
X12375523Y-6279448D02*
X12371911Y-6286559D01*
X12363653Y-3500204D02*
X12359029Y-3506703D01*
X9363943Y-7010641D02*
X9355982Y-7011134D01*
X18921048Y-3402026D02*
X18921245Y-3410000D01*
X9448804Y-2416012D02*
X9449199Y-2408045D01*
X14509472Y-6203844D02*
X14508098Y-6211702D01*
X18893654Y-6300204D02*
X18889029Y-6306703D01*
X9501672Y-6904732D02*
X9498780Y-6912166D01*
X9705100Y-5089785D02*
X9711423Y-5094647D01*
X9723310Y-5334721D02*
X9717498Y-5340184D01*
X14504193Y-3332835D02*
X14506337Y-3340518D01*
X18878845Y-6101023D02*
X18884089Y-6107034D01*
X16291672Y-2474732D02*
X16288780Y-2482166D01*
X9468845Y-6741023D02*
X9474089Y-6747034D01*
X21017951Y-3463484D02*
X21013654Y-3470204D01*
X15984687Y-2376664D02*
X15987021Y-2369036D01*
X14508098Y-6211702D02*
X14506337Y-6219481D01*
X16153943Y-2580641D02*
X16145982Y-2581134D01*
X12367951Y-3493484D02*
X12363653Y-3500204D01*
X9191166Y-4077782D02*
X9189987Y-4069893D01*
X16000026Y-5139954D02*
X16004156Y-5133130D01*
X14206239Y-3306974D02*
X14210026Y-3299954D01*
X15788150Y-3917472D02*
X15794816Y-3913092D01*
X9214156Y-6763129D02*
X9218618Y-6756518D01*
X9518150Y-2552528D02*
X9511708Y-2547823D01*
X9766337Y-2380518D02*
X9768098Y-2388298D01*
X12069199Y-6221955D02*
X12068804Y-6213988D01*
X21038098Y-6211702D02*
X21036337Y-6219481D01*
X21017951Y-6263484D02*
X21013654Y-6270204D01*
X20753402Y-6279865D02*
X20748618Y-6273482D01*
X9509472Y-6826155D02*
X9510456Y-6834071D01*
X20722734Y-3415603D02*
X20721166Y-3407782D01*
X18820321Y-6060463D02*
X18827643Y-6063629D01*
X14188804Y-3383988D02*
X14188804Y-3376012D01*
X18841771Y-3271027D02*
X18848544Y-3275241D01*
X14491911Y-6103440D02*
X14495523Y-6110552D01*
X14495523Y-6249448D02*
X14491911Y-6256559D01*
X20375000Y-4800000D02*
X20375000Y-4700150D01*
X9363943Y-3889359D02*
X9371870Y-3890245D01*
X14950000Y-4800000D02*
X14950000Y-5516667D01*
X12072734Y-6174397D02*
X12074687Y-6166663D01*
X9545998Y-2567999D02*
X9538758Y-2564653D01*
X15748618Y-3956518D02*
X15753402Y-3950135D01*
X20947643Y-6033629D02*
X20954799Y-6037153D01*
X14189986Y-3360107D02*
X14191166Y-3352218D01*
X9474089Y-4152966D02*
X9468845Y-4158976D01*
X9245507Y-3927194D02*
X9251708Y-3922177D01*
X20732804Y-3445827D02*
X20729728Y-3438467D01*
X9734089Y-5117034D02*
X9739029Y-5123297D01*
X9474156Y-2333130D02*
X9478618Y-2326518D01*
X12125507Y-3287194D02*
X12131708Y-3282177D01*
X20808758Y-6035347D02*
X20815998Y-6032001D01*
X21038098Y-3348298D02*
X21039472Y-3356155D01*
X20815998Y-6032001D02*
X20823396Y-6029017D01*
X12331423Y-6084647D02*
X12337498Y-6089816D01*
X18718588Y-6365837D02*
X18710932Y-6363598D01*
X16298098Y-5251702D02*
X16296337Y-5259482D01*
X14431771Y-3518973D02*
X14424798Y-3522847D01*
X18616239Y-3336974D02*
X18620026Y-3329954D01*
X9743654Y-5310204D02*
X9739029Y-5316703D01*
X16288780Y-5157834D02*
X16291672Y-5165268D01*
X14189986Y-6199893D02*
X14189199Y-6191955D01*
X21025523Y-3310552D02*
X21028780Y-3317834D01*
X12180932Y-3563598D02*
X12173396Y-3560983D01*
X21280000Y-4800000D02*
X20375000Y-4800000D01*
X9625000Y-4800000D02*
X9625000Y-4700150D01*
X19020000Y-4800000D02*
X18265000Y-4800000D01*
X20823396Y-3229017D02*
X20830932Y-3226402D01*
X14950000Y-2000000D02*
X14950000Y-2716667D01*
X9478618Y-2513482D02*
X9474156Y-2506870D01*
X9755523Y-2489448D02*
X9751911Y-2496560D01*
X9508098Y-4018298D02*
X9509472Y-4026155D01*
X9340035Y-3889063D02*
X9348006Y-3888767D01*
X16004156Y-5306870D02*
X16000026Y-5300046D01*
X9348006Y-4211233D02*
X9340035Y-4210937D01*
X9431771Y-6988973D02*
X9424799Y-6992847D01*
X18734185Y-6050835D02*
X18742088Y-6049753D01*
X9478618Y-5313482D02*
X9474156Y-5306870D01*
X9325000Y-4600000D02*
X9325000Y-4699950D01*
X18695998Y-3262001D02*
X18703396Y-3259017D01*
X9531691Y-5360953D02*
X9524816Y-5356908D01*
X9684799Y-2562847D02*
X9677643Y-2566371D01*
X12378780Y-6272166D02*
X12375523Y-6279448D01*
X9251708Y-6977823D02*
X9245507Y-6972806D01*
X12228006Y-6048767D02*
X12235982Y-6048866D01*
X15763887Y-6961883D02*
X15758496Y-6956004D01*
X9518150Y-2287472D02*
X9524816Y-2283092D01*
X9478618Y-2326518D02*
X9483402Y-2320135D01*
X12077021Y-3460964D02*
X12074687Y-3453336D01*
X9340035Y-6689063D02*
X9348006Y-6688767D01*
X18604688Y-6253336D02*
X18602734Y-6245603D01*
X20719987Y-6199893D02*
X20719199Y-6191955D01*
X13545000Y-4699950D02*
X13545000Y-4700150D01*
X14371870Y-3220245D02*
X14379744Y-3221522D01*
X9474156Y-5133130D02*
X9478618Y-5126518D01*
X9308588Y-7005837D02*
X9300932Y-7003598D01*
X16177545Y-2263187D02*
X16185254Y-2265235D01*
X9483402Y-5120135D02*
X9488496Y-5113996D01*
X18655507Y-3287194D02*
X18661708Y-3282177D01*
X18655507Y-6087194D02*
X18661708Y-6082177D01*
X9592088Y-2580247D02*
X9584185Y-2579165D01*
X18861423Y-3284647D02*
X18867498Y-3289816D01*
X9402852Y-7002337D02*
X9395254Y-7004765D01*
X15753402Y-6750135D02*
X15758496Y-6743996D01*
X18893654Y-6119796D02*
X18897951Y-6126516D01*
X9615982Y-5058866D02*
X9623943Y-5059359D01*
X20975100Y-6310215D02*
X20968544Y-6314759D01*
X18628618Y-3503482D02*
X18624156Y-3496870D01*
X9560932Y-5066402D02*
X9568588Y-5064163D01*
X14487951Y-6263484D02*
X14483653Y-6270204D01*
X14228496Y-6286004D02*
X14223402Y-6279865D01*
X9751911Y-2343440D02*
X9755523Y-2350552D01*
X9278758Y-3905347D02*
X9285998Y-3902001D01*
X16021911Y-4126559D02*
X16017951Y-4133484D01*
X18598804Y-3406012D02*
X18599199Y-3398045D01*
X9462804Y-5285827D02*
X9459728Y-5278467D01*
X15992803Y-5285827D02*
X15989728Y-5278467D01*
X14278758Y-3524653D02*
X14271691Y-3520953D01*
X16177545Y-5376813D02*
X16169744Y-5378478D01*
X9424799Y-6992847D02*
X9417643Y-6996371D01*
X9278758Y-6705347D02*
X9285998Y-6702001D01*
X14950000Y-6383333D02*
X14850100Y-6383333D01*
X20947643Y-3233629D02*
X20954799Y-3237153D01*
X15954798Y-6992847D02*
X15947643Y-6996371D01*
X16161870Y-5379755D02*
X16153943Y-5380641D01*
X9454688Y-5263336D02*
X9452734Y-5255603D01*
X16035507Y-5342806D02*
X16029562Y-5337488D01*
X15993310Y-4164720D02*
X15987498Y-4170184D01*
X15823396Y-7000983D02*
X15815998Y-6997999D01*
X18765982Y-3571134D02*
X18758006Y-3571233D01*
X15748618Y-4143482D02*
X15744156Y-4136870D01*
X14355982Y-3541134D02*
X14348006Y-3541233D01*
X9189987Y-6869893D02*
X9189199Y-6861955D01*
X20987498Y-3500184D02*
X20981423Y-3505353D01*
X18889029Y-3506703D02*
X18884089Y-3512966D01*
X15979199Y-5231955D02*
X15978804Y-5223988D01*
X9766337Y-2459482D02*
X9764193Y-2467165D01*
X16300456Y-2404071D02*
X16301048Y-2412026D01*
X18848544Y-6075241D02*
X18855100Y-6079785D01*
X19320000Y-4600000D02*
X20075000Y-4600000D01*
X9463310Y-4164720D02*
X9457498Y-4170184D01*
X9501672Y-4104732D02*
X9498780Y-4112166D01*
X9308588Y-6694163D02*
X9316345Y-6692306D01*
X14355982Y-6341134D02*
X14348006Y-6341233D01*
X16192852Y-2572337D02*
X16185254Y-2574765D01*
X18688758Y-3265347D02*
X18695998Y-3262001D01*
X12243943Y-6370641D02*
X12235982Y-6371134D01*
X9424799Y-6707153D02*
X9431771Y-6711027D01*
X20788150Y-6047472D02*
X20794816Y-6043092D01*
X15862088Y-7010247D02*
X15854185Y-7009165D01*
X10680000Y-4699950D02*
X10680000Y-4600000D01*
X15823396Y-4200983D02*
X15815998Y-4197999D01*
X16294193Y-5172835D02*
X16296337Y-5180518D01*
X21021911Y-6256559D02*
X21017951Y-6263484D01*
X15724687Y-4093336D02*
X15722734Y-4085603D01*
X9705100Y-2550215D02*
X9698544Y-2554759D01*
X19320000Y-4700150D02*
X19320000Y-4699950D01*
X9545998Y-5367999D02*
X9538758Y-5364653D01*
X15992803Y-5154173D02*
X15996239Y-5146974D01*
X15838588Y-4205837D02*
X15830932Y-4203598D01*
X9670321Y-5070463D02*
X9677643Y-5073629D01*
X9592088Y-5059753D02*
X9600035Y-5059063D01*
X9223402Y-4149865D02*
X9218618Y-4143482D01*
X16061691Y-5360953D02*
X16054816Y-5356908D01*
X15996239Y-2346974D02*
X16000026Y-2339954D01*
X9755523Y-5289448D02*
X9751911Y-5296560D01*
X14197021Y-3430964D02*
X14194687Y-3423336D01*
X16155000Y-4800000D02*
X16155000Y-4700150D01*
X14188804Y-3376012D02*
X14189199Y-3368045D01*
X9698544Y-5085241D02*
X9705100Y-5089785D01*
X18918098Y-3441702D02*
X18916337Y-3449481D01*
X12282852Y-3257663D02*
X12290321Y-3260463D01*
X20808758Y-3524653D02*
X20801691Y-3520953D01*
X21034193Y-3332835D02*
X21036337Y-3340518D01*
X9576345Y-2577694D02*
X9568588Y-2575837D01*
X9239562Y-6967488D02*
X9233887Y-6961883D01*
X15917545Y-6693187D02*
X15925254Y-6695235D01*
X9202804Y-6784173D02*
X9206239Y-6776974D01*
X9438544Y-4184759D02*
X9431771Y-4188973D01*
X9483654Y-3959796D02*
X9487951Y-3966516D01*
X16004156Y-2333130D02*
X16008618Y-2326518D01*
X18921245Y-3410000D02*
X18921048Y-3417974D01*
X15763887Y-6738117D02*
X15769562Y-6732512D01*
X20727021Y-6129036D02*
X20729728Y-6121533D01*
X16285523Y-5289448D02*
X16281911Y-5296560D01*
X9584185Y-2260835D02*
X9592088Y-2259753D01*
X9734089Y-5322966D02*
X9728845Y-5328977D01*
X21025523Y-3449448D02*
X21021911Y-3456559D01*
X9761672Y-2365268D02*
X9764193Y-2372835D01*
X18805254Y-3255235D02*
X18812852Y-3257663D01*
X9545998Y-5072001D02*
X9553396Y-5069017D01*
X16068758Y-2275347D02*
X16075998Y-2272001D01*
X15987498Y-3929816D02*
X15993310Y-3935279D01*
X9531691Y-2560953D02*
X9524816Y-2556908D01*
X9348006Y-3888767D02*
X9355982Y-3888866D01*
X15947643Y-3903629D02*
X15954798Y-3907153D01*
X16048150Y-2552528D02*
X16041708Y-2547823D01*
X20794816Y-6043092D02*
X20801691Y-6039047D01*
X18674816Y-6346908D02*
X18668150Y-6342528D01*
X15718804Y-4046012D02*
X15719199Y-4038045D01*
X18703396Y-6360983D02*
X18695998Y-6357999D01*
X14228496Y-3273996D02*
X14233887Y-3268117D01*
X16039472Y-4026155D02*
X16040456Y-4034071D01*
X14379744Y-6338478D02*
X14371870Y-6339755D01*
X16034193Y-4097165D02*
X16031672Y-4104732D01*
X12082803Y-3344173D02*
X12086239Y-3336974D01*
X21009029Y-6083297D02*
X21013654Y-6089796D01*
X9764193Y-2372835D02*
X9766337Y-2380518D01*
X9647545Y-2576813D02*
X9639744Y-2578478D01*
X9768098Y-2388298D02*
X9769472Y-2396155D01*
X9711423Y-2545353D02*
X9705100Y-2550215D01*
X15769562Y-4167488D02*
X15763887Y-4161883D01*
X15996239Y-2493026D02*
X15992803Y-2485827D01*
X15961771Y-6988973D02*
X15954798Y-6992847D01*
X14245507Y-6057194D02*
X14251708Y-6052177D01*
X16241423Y-2294647D02*
X16247498Y-2299816D01*
X17965000Y-4600000D02*
X17965000Y-4699950D01*
X16235100Y-2550215D02*
X16228544Y-2554759D01*
X15932852Y-3897663D02*
X15940321Y-3900463D01*
X15719199Y-6838045D02*
X15719986Y-6830107D01*
X20940321Y-3230463D02*
X20947643Y-3233629D01*
X20838588Y-6335837D02*
X20830932Y-6333598D01*
X14194687Y-6136663D02*
X14197021Y-6129036D01*
X15978804Y-2423988D02*
X15978804Y-2416012D01*
X20724688Y-6136663D02*
X20727021Y-6129036D01*
X16299472Y-2396155D02*
X16300456Y-2404071D01*
X12378780Y-6147834D02*
X12381672Y-6155267D01*
X16106345Y-2262306D02*
X16114185Y-2260835D01*
X15979199Y-5208045D02*
X15979986Y-5200107D01*
X12337498Y-3289816D02*
X12343310Y-3295279D01*
X15925254Y-6695235D02*
X15932852Y-6697663D01*
X18908780Y-3347834D02*
X18911672Y-3355267D01*
X9691771Y-5081027D02*
X9698544Y-5085241D01*
X21013654Y-6089796D02*
X21017951Y-6096516D01*
X18604688Y-3453336D02*
X18602734Y-3445603D01*
X20917545Y-6336813D02*
X20909744Y-6338478D01*
X16281911Y-2343440D02*
X16285523Y-2350552D01*
X15885982Y-3888866D02*
X15893943Y-3889359D01*
X9677643Y-2273629D02*
X9684799Y-2277153D01*
X18812852Y-3562337D02*
X18805254Y-3564765D01*
X9454688Y-2376664D02*
X9457021Y-2369036D01*
X15987498Y-6970184D02*
X15981423Y-6975353D01*
X21004089Y-3482966D02*
X20998845Y-3488976D01*
X14750000Y-6683333D02*
X14849900Y-6683333D01*
X18901911Y-3486559D02*
X18897951Y-3493484D01*
X18905523Y-3479448D02*
X18901911Y-3486559D01*
X18921048Y-3417974D02*
X18920456Y-3425929D01*
X12235982Y-3248866D02*
X12243943Y-3249359D01*
X20763887Y-6068117D02*
X20769562Y-6062512D01*
X14750000Y-4600000D02*
X14750000Y-3883333D01*
X9739029Y-2516703D02*
X9734089Y-2522966D01*
X9711423Y-2294647D02*
X9717498Y-2299816D01*
X20846345Y-6337694D02*
X20838588Y-6335837D01*
X21041048Y-3372026D02*
X21041245Y-3380000D01*
X12228006Y-6371233D02*
X12220034Y-6370937D01*
X20862088Y-3540247D02*
X20854185Y-3539165D01*
X9518150Y-5352528D02*
X9511708Y-5347823D01*
X12318544Y-3275241D02*
X12325100Y-3279785D01*
X12348845Y-6101023D02*
X12354089Y-6107034D01*
X12068804Y-3406012D02*
X12069199Y-3398045D01*
X16161870Y-2579755D02*
X16153943Y-2580641D01*
X14483653Y-3470204D02*
X14479029Y-3476703D01*
X9258150Y-6982528D02*
X9251708Y-6977823D01*
X12119562Y-3292512D02*
X12125507Y-3287194D01*
X20718804Y-6183988D02*
X20718804Y-6176012D01*
X9379744Y-6691522D02*
X9387545Y-6693187D01*
X15989728Y-2361533D02*
X15992803Y-2354173D01*
X20719199Y-3368045D02*
X20719987Y-3360107D01*
X21004089Y-6077034D02*
X21009029Y-6083297D01*
X15823396Y-3899017D02*
X15830932Y-3896402D01*
X14402852Y-6332337D02*
X14395254Y-6334765D01*
X16004156Y-5133130D02*
X16008618Y-5126518D01*
X12113887Y-6098117D02*
X12119562Y-6092512D01*
X14495523Y-3449448D02*
X14491911Y-3456559D01*
X17210000Y-4699950D02*
X17210000Y-4600000D01*
X9758780Y-2357834D02*
X9761672Y-2365268D01*
X12378780Y-3347834D02*
X12381672Y-3355267D01*
X16228544Y-2285241D02*
X16235100Y-2289785D01*
X18916337Y-3370518D02*
X18918098Y-3378298D01*
X12381672Y-3464732D02*
X12378780Y-3472166D01*
X15893943Y-7010641D02*
X15885982Y-7011134D01*
X12138150Y-6342528D02*
X12131708Y-6337823D01*
X20854185Y-6020835D02*
X20862088Y-6019753D01*
X16258845Y-5111023D02*
X16264089Y-5117034D01*
X14251708Y-6052177D02*
X14258150Y-6047472D01*
X16034193Y-6802835D02*
X16036337Y-6810518D01*
X16207643Y-2273629D02*
X16214798Y-2277153D01*
X16291672Y-2365268D02*
X16294193Y-2372835D01*
X12151691Y-6350953D02*
X12144816Y-6346908D01*
X14402852Y-3227663D02*
X14410321Y-3230463D01*
X15794816Y-6986908D02*
X15788150Y-6982528D01*
X12144816Y-6346908D02*
X12138150Y-6342528D01*
X15732803Y-4115827D02*
X15729728Y-4108467D01*
X18695998Y-6062001D02*
X18703396Y-6059017D01*
X14199728Y-6121533D02*
X14202803Y-6114173D01*
X16301048Y-5227974D02*
X16300456Y-5235929D01*
X12071166Y-6182218D02*
X12072734Y-6174397D01*
X14950000Y-4600000D02*
X15855000Y-4600000D01*
X21040456Y-6195929D02*
X21039472Y-6203844D01*
X14457498Y-6300184D02*
X14451423Y-6305353D01*
X9449199Y-2408045D02*
X9449987Y-2400107D01*
X14501672Y-6234732D02*
X14498780Y-6242166D01*
X14950000Y-6683333D02*
X14950000Y-7400000D01*
X9662852Y-2267663D02*
X9670321Y-2270463D01*
X20769562Y-6062512D02*
X20775507Y-6057194D01*
X12490000Y-4699950D02*
X12490000Y-4700150D01*
X20719199Y-6168045D02*
X20719987Y-6160107D01*
X18841771Y-6348973D02*
X18834799Y-6352847D01*
X14285998Y-6327999D02*
X14278758Y-6324653D01*
X14189199Y-6191955D02*
X14188804Y-6183988D01*
X21038098Y-3411702D02*
X21036337Y-3419481D01*
X9508098Y-6818298D02*
X9509472Y-6826155D01*
X9508098Y-4081702D02*
X9506337Y-4089481D01*
X12086239Y-3336974D02*
X12090026Y-3329954D01*
X12069986Y-3390107D02*
X12071166Y-3382218D01*
X16114185Y-5379165D02*
X16106345Y-5377694D01*
X14206239Y-3453026D02*
X14202803Y-3445827D01*
X14511048Y-6187974D02*
X14510456Y-6195929D01*
X14474089Y-6077034D02*
X14479029Y-6083297D01*
X9395254Y-3895235D02*
X9402852Y-3897663D01*
X15758496Y-3943996D02*
X15763887Y-3938117D01*
X12367951Y-6126516D02*
X12371911Y-6133440D01*
X9479029Y-6753297D02*
X9483654Y-6759796D01*
X19020000Y-4699950D02*
X19020000Y-4700150D01*
X20748618Y-6086518D02*
X20753402Y-6080135D01*
X18758006Y-3248767D02*
X18765982Y-3248866D01*
X18742088Y-6049753D02*
X18750035Y-6049063D01*
X16288780Y-2357834D02*
X16291672Y-2365268D01*
X16106345Y-5377694D02*
X16098588Y-5375837D01*
X9457498Y-4170184D02*
X9451423Y-4175353D01*
X16023887Y-2531883D02*
X16018496Y-2526004D01*
X18827643Y-6063629D02*
X18834799Y-6067153D01*
X12131708Y-6337823D02*
X12125507Y-6332806D01*
X18599199Y-6198045D02*
X18599987Y-6190107D01*
X18855100Y-6079785D02*
X18861423Y-6084647D01*
X15987498Y-6729816D02*
X15993310Y-6735279D01*
X9662852Y-5067663D02*
X9670321Y-5070463D01*
X20925254Y-3225235D02*
X20932852Y-3227663D01*
X15815998Y-3902001D02*
X15823396Y-3899017D01*
X9662852Y-5372337D02*
X9655254Y-5374765D01*
X14463310Y-3265279D02*
X14468845Y-3271023D01*
X9264816Y-6713092D02*
X9271691Y-6709047D01*
X12389472Y-3386155D02*
X12390456Y-3394071D01*
X9655254Y-5065235D02*
X9662852Y-5067663D01*
X16041245Y-6850000D02*
X16041048Y-6857974D01*
X15846345Y-4207694D02*
X15838588Y-4205837D01*
X20794816Y-3243092D02*
X20801691Y-3239047D01*
X20758496Y-3486004D02*
X20753402Y-3479865D01*
X18612804Y-6144173D02*
X18616239Y-6136974D01*
X9483402Y-2320135D02*
X9488496Y-2313996D01*
X18710932Y-3563598D02*
X18703396Y-3560983D01*
X9478618Y-5126518D02*
X9483402Y-5120135D01*
X20718804Y-3376012D02*
X20719199Y-3368045D01*
X9711423Y-5094647D02*
X9717498Y-5099816D01*
X9192734Y-6885603D02*
X9191166Y-6877782D01*
X15732803Y-3984173D02*
X15736239Y-3976974D01*
X16034193Y-4002835D02*
X16036337Y-4010518D01*
X9468845Y-3941023D02*
X9474089Y-3947034D01*
X18609728Y-3468467D02*
X18607021Y-3460964D01*
X16277951Y-5136516D02*
X16281911Y-5143440D01*
X15968544Y-4184759D02*
X15961771Y-4188973D01*
X13845000Y-4699950D02*
X13845000Y-4600000D01*
X9717498Y-2299816D02*
X9723310Y-2305279D01*
X14487951Y-3296516D02*
X14491911Y-3303440D01*
X20961771Y-6318973D02*
X20954799Y-6322847D01*
X14188804Y-6176012D02*
X14189199Y-6168045D01*
X20744156Y-6093129D02*
X20748618Y-6086518D01*
X19020000Y-4700150D02*
X19020000Y-4800000D01*
X16090932Y-5373598D02*
X16083396Y-5370983D01*
X18797545Y-3566813D02*
X18789744Y-3568478D01*
X9747951Y-2336516D02*
X9751911Y-2343440D01*
X18918098Y-6178298D02*
X18919472Y-6186155D01*
X14468845Y-6288976D02*
X14463310Y-6294720D01*
X20815998Y-3527999D02*
X20808758Y-3524653D01*
X9639744Y-2261522D02*
X9647545Y-2263187D01*
X20744156Y-3466870D02*
X20740026Y-3460046D01*
X18812852Y-3257663D02*
X18820321Y-3260463D01*
X14285998Y-3232001D02*
X14293396Y-3229017D01*
X9560932Y-2573598D02*
X9553396Y-2570983D01*
X10380000Y-4800000D02*
X9625000Y-4800000D01*
X14192734Y-6144397D02*
X14194687Y-6136663D01*
X12188588Y-3254163D02*
X12196345Y-3252306D01*
X14850100Y-3583333D02*
X14849900Y-3583333D01*
X18688758Y-3554653D02*
X18681691Y-3550953D01*
X15979986Y-5200107D02*
X15981166Y-5192218D01*
X18905523Y-3340552D02*
X18908780Y-3347834D01*
X16153943Y-5380641D02*
X16145982Y-5381134D01*
X16155000Y-4700150D02*
X16155000Y-4699950D01*
X21041245Y-6180000D02*
X21041048Y-6187974D01*
X12386337Y-6249481D02*
X12384193Y-6257165D01*
X16285523Y-2489448D02*
X16281911Y-2496560D01*
X20719987Y-3399893D02*
X20719199Y-3391955D01*
X16291672Y-5165268D02*
X16294193Y-5172835D01*
X9498780Y-6787834D02*
X9501672Y-6795267D01*
X18855100Y-6340215D02*
X18848544Y-6344759D01*
X9210026Y-3969954D02*
X9214156Y-3963129D01*
X20917545Y-3223187D02*
X20925254Y-3225235D01*
X14402852Y-6027663D02*
X14410321Y-6030463D01*
X15975100Y-6980215D02*
X15968544Y-6984759D01*
X16000026Y-2339954D02*
X16004156Y-2333130D01*
X9723310Y-5105279D02*
X9728845Y-5111023D01*
X14210026Y-3460046D02*
X14206239Y-3453026D01*
X15775507Y-6972806D02*
X15769562Y-6967488D01*
X9463310Y-6964720D02*
X9457498Y-6970184D01*
X16273653Y-2329796D02*
X16277951Y-2336516D01*
X15855000Y-4800000D02*
X14950000Y-4800000D01*
X9325000Y-4800000D02*
X8420000Y-4800000D01*
X9488496Y-5113996D02*
X9493887Y-5108117D01*
X14479029Y-6276703D02*
X14474089Y-6282966D01*
X20870035Y-3540937D02*
X20862088Y-3540247D01*
X20932852Y-3532337D02*
X20925254Y-3534765D01*
X12343310Y-6095279D02*
X12348845Y-6101023D01*
X18781870Y-3250245D02*
X18789744Y-3251522D01*
X14371870Y-6339755D02*
X14363943Y-6340641D01*
X9466239Y-2493026D02*
X9462804Y-2485827D01*
X15993310Y-3935279D02*
X15998845Y-3941023D01*
X9451166Y-2447782D02*
X9449987Y-2439893D01*
X12158758Y-3554653D02*
X12151691Y-3550953D01*
X12072734Y-6245603D02*
X12071166Y-6237782D01*
X20788150Y-3512528D02*
X20781708Y-3507823D01*
X20885982Y-6018866D02*
X20893943Y-6019359D01*
X15993310Y-6735279D02*
X15998845Y-6741023D01*
X12359029Y-6113297D02*
X12363653Y-6119796D01*
X12297643Y-3556371D02*
X12290321Y-3559537D01*
X20893943Y-6340641D02*
X20885982Y-6341134D01*
X18695998Y-3557999D02*
X18688758Y-3554653D01*
X20736239Y-3453026D02*
X20732804Y-3445827D01*
X9324185Y-7009165D02*
X9316345Y-7007694D01*
X18781870Y-3569755D02*
X18773943Y-3570641D01*
X9747951Y-2503484D02*
X9743654Y-2510204D01*
X18628618Y-6303482D02*
X18624156Y-6296870D01*
X9223402Y-6750135D02*
X9228496Y-6743996D01*
X9218618Y-6756518D02*
X9223402Y-6750135D01*
X12318544Y-6075241D02*
X12325100Y-6079785D01*
X9324185Y-4209165D02*
X9316345Y-4207694D01*
X9194688Y-4093336D02*
X9192734Y-4085603D01*
X14508098Y-3348298D02*
X14509472Y-3356155D01*
X9218618Y-3956518D02*
X9223402Y-3950135D01*
X16028780Y-3987834D02*
X16031672Y-3995267D01*
X12390456Y-3394071D02*
X12391048Y-3402026D01*
X9493887Y-5331883D02*
X9488496Y-5326004D01*
X9495523Y-4119448D02*
X9491911Y-4126559D01*
X9510456Y-6865929D02*
X9509472Y-6873844D01*
X21017951Y-6096516D02*
X21021911Y-6103440D01*
X12290321Y-3260463D02*
X12297643Y-3263629D01*
X9728845Y-2311023D02*
X9734089Y-2317034D01*
X12204185Y-3569165D02*
X12196345Y-3567694D01*
X12290321Y-6060463D02*
X12297643Y-6063629D01*
X9417643Y-6703629D02*
X9424799Y-6707153D01*
X15846345Y-3892306D02*
X15854185Y-3890835D01*
X15979986Y-5239893D02*
X15979199Y-5231955D01*
X12079728Y-3351533D02*
X12082803Y-3344173D01*
X18914193Y-3362835D02*
X18916337Y-3370518D01*
X16122088Y-5380247D02*
X16114185Y-5379165D01*
X9568588Y-2575837D02*
X9560932Y-2573598D01*
X14850100Y-5516667D02*
X14849900Y-5516667D01*
X9755523Y-2350552D02*
X9758780Y-2357834D01*
X12119562Y-6092512D02*
X12125507Y-6087194D01*
X9751911Y-2496560D02*
X9747951Y-2503484D01*
X15721166Y-6877782D02*
X15719986Y-6869893D01*
X12390456Y-6194071D02*
X12391048Y-6202026D01*
X9449987Y-5239893D02*
X9449199Y-5231955D01*
X15808758Y-4194653D02*
X15801691Y-4190953D01*
X12318544Y-6344759D02*
X12311771Y-6348973D01*
X9459728Y-2361533D02*
X9462804Y-2354173D01*
X14348006Y-3541233D02*
X14340034Y-3540937D01*
X9417643Y-6996371D02*
X9410321Y-6999537D01*
X9293396Y-7000983D02*
X9285998Y-6997999D01*
X9511708Y-2292177D02*
X9518150Y-2287472D01*
X14223402Y-6080135D02*
X14228496Y-6073996D01*
X20954799Y-3522847D02*
X20947643Y-3526371D01*
X14332088Y-3540247D02*
X14324185Y-3539165D01*
X15870034Y-6689063D02*
X15878006Y-6688767D01*
X16054816Y-2283092D02*
X16061691Y-2279047D01*
X18695998Y-6357999D02*
X18688758Y-6354653D01*
X14316345Y-6337694D02*
X14308588Y-6335837D01*
X14424798Y-6322847D02*
X14417643Y-6326371D01*
X15993310Y-6964720D02*
X15987498Y-6970184D01*
X20722734Y-3344397D02*
X20724688Y-3336663D01*
X16017951Y-3966516D02*
X16021911Y-3973440D01*
X15968544Y-6984759D02*
X15961771Y-6988973D01*
X12325100Y-6340215D02*
X12318544Y-6344759D01*
X9670321Y-2270463D02*
X9677643Y-2273629D01*
X15815998Y-4197999D02*
X15808758Y-4194653D01*
X9631870Y-2579755D02*
X9623943Y-2580641D01*
X16258845Y-2528977D02*
X16253310Y-2534721D01*
X9684799Y-2277153D02*
X9691771Y-2281027D01*
X14510456Y-3395929D02*
X14509472Y-3403844D01*
X12103402Y-3509865D02*
X12098618Y-3503482D01*
X12388098Y-3378298D02*
X12389472Y-3386155D01*
X12196345Y-3252306D02*
X12204185Y-3250835D01*
X18820321Y-3559537D02*
X18812852Y-3562337D01*
X10680000Y-4700150D02*
X10680000Y-4699950D01*
X15718804Y-4053988D02*
X15718804Y-4046012D01*
X18620026Y-6290046D02*
X18616239Y-6283026D01*
X15870034Y-7010937D02*
X15862088Y-7010247D01*
X16090932Y-5066402D02*
X16098588Y-5064163D01*
X15781708Y-6977823D02*
X15775507Y-6972806D01*
X14417643Y-6326371D02*
X14410321Y-6329537D01*
X18674816Y-3546908D02*
X18668150Y-3542528D01*
X20838588Y-3224163D02*
X20846345Y-3222306D01*
X16253310Y-2534721D02*
X16247498Y-2540184D01*
X15947643Y-4196371D02*
X15940321Y-4199537D01*
X15721166Y-6822218D02*
X15722734Y-6814397D01*
X9615982Y-5381134D02*
X9608006Y-5381233D01*
X20724688Y-6223336D02*
X20722734Y-6215603D01*
X9705100Y-5350215D02*
X9698544Y-5354759D01*
X14424798Y-3237153D02*
X14431771Y-3241027D01*
X14498780Y-3442166D02*
X14495523Y-3449448D01*
X9332088Y-4210247D02*
X9324185Y-4209165D01*
X14483653Y-3289796D02*
X14487951Y-3296516D01*
X16035507Y-2297194D02*
X16041708Y-2292177D01*
X9371870Y-3890245D02*
X9379744Y-3891522D01*
X16910000Y-4700150D02*
X16910000Y-4800000D01*
X16296337Y-2459482D02*
X16294193Y-2467165D01*
X18681691Y-3269047D02*
X18688758Y-3265347D01*
X9769472Y-2396155D02*
X9770456Y-2404071D01*
X9511048Y-6857974D02*
X9510456Y-6865929D01*
X14750000Y-3583333D02*
X14750000Y-3016667D01*
X9457498Y-6729816D02*
X9463310Y-6735279D01*
X20987498Y-6300184D02*
X20981423Y-6305353D01*
X12228006Y-3248767D02*
X12235982Y-3248866D01*
X12204185Y-6050835D02*
X12212088Y-6049753D01*
X20925254Y-6025235D02*
X20932852Y-6027663D01*
X14438544Y-6314759D02*
X14431771Y-6318973D01*
X16177545Y-5063187D02*
X16185254Y-5065235D01*
X18742088Y-6370247D02*
X18734185Y-6369165D01*
X9197021Y-6900964D02*
X9194688Y-6893336D01*
X18805254Y-3564765D02*
X18797545Y-3566813D01*
X14445100Y-3249785D02*
X14451423Y-3254647D01*
X16207643Y-2566371D02*
X16200321Y-2569537D01*
X18820321Y-3260463D02*
X18827643Y-3263629D01*
X14511048Y-3387974D02*
X14510456Y-3395929D01*
X12381672Y-6155267D02*
X12384193Y-6162835D01*
X9206239Y-6776974D02*
X9210026Y-6769954D01*
X16075998Y-5072001D02*
X16083396Y-5069017D01*
X18628618Y-6116518D02*
X18633402Y-6110135D01*
X18765982Y-3248866D02*
X18773943Y-3249359D01*
X16039472Y-6826155D02*
X16040456Y-6834071D01*
X9462804Y-2485827D02*
X9459728Y-2478467D01*
X18643887Y-6321883D02*
X18638496Y-6316004D01*
X17210000Y-4700150D02*
X17210000Y-4699950D01*
X12212088Y-6049753D02*
X12220034Y-6049063D01*
X12371911Y-3333440D02*
X12375523Y-3340552D01*
X16028780Y-4112166D02*
X16025523Y-4119448D01*
X18620026Y-3329954D02*
X18624156Y-3323129D01*
X12196345Y-6367694D02*
X12188588Y-6365837D01*
X12275254Y-3564765D02*
X12267545Y-3566813D01*
X20724688Y-3423336D02*
X20722734Y-3415603D01*
X12165998Y-3557999D02*
X12158758Y-3554653D01*
X16169744Y-2261522D02*
X16177545Y-2263187D01*
X16041048Y-6857974D02*
X16040456Y-6865929D01*
X21009029Y-3283297D02*
X21013654Y-3289796D01*
X12108496Y-6316004D02*
X12103402Y-6309865D01*
X14468845Y-6071023D02*
X14474089Y-6077034D01*
X16298098Y-2451702D02*
X16296337Y-2459482D01*
X12131708Y-3282177D02*
X12138150Y-3277472D01*
X9300932Y-6696402D02*
X9308588Y-6694163D01*
X18916337Y-6170518D02*
X18918098Y-6178298D01*
X18688758Y-6354653D02*
X18681691Y-6350953D01*
X15823396Y-6699017D02*
X15830932Y-6696402D01*
X18893654Y-3500204D02*
X18889029Y-3506703D01*
X16294193Y-2467165D02*
X16291672Y-2474732D01*
X16277951Y-2503484D02*
X16273653Y-2510204D01*
X15878006Y-6688767D02*
X15885982Y-6688866D01*
X9511048Y-4042026D02*
X9511245Y-4050000D01*
X16013402Y-2320135D02*
X16018496Y-2313996D01*
X9493887Y-2308117D02*
X9499562Y-2302512D01*
X9452734Y-5184397D02*
X9454688Y-5176664D01*
X9192734Y-6814397D02*
X9194688Y-6806663D01*
X9769472Y-5243845D02*
X9768098Y-5251702D01*
X9764193Y-5267165D02*
X9761672Y-5274732D01*
X9739029Y-5316703D02*
X9734089Y-5322966D01*
X14457498Y-3259816D02*
X14463310Y-3265279D01*
X20998845Y-3488976D02*
X20993310Y-3494720D01*
X9677643Y-2566371D02*
X9670321Y-2569537D01*
X15801691Y-6709047D02*
X15808758Y-6705347D01*
X16034193Y-6897165D02*
X16031672Y-6904732D01*
X20854185Y-3220835D02*
X20862088Y-3219753D01*
X9743654Y-2510204D02*
X9739029Y-2516703D01*
X9466239Y-2346974D02*
X9470026Y-2339954D01*
X9316345Y-4207694D02*
X9308588Y-4205837D01*
X9194688Y-6893336D02*
X9192734Y-6885603D01*
X14504193Y-3427165D02*
X14501672Y-3434732D01*
X14271691Y-3239047D02*
X14278758Y-3235347D01*
X16021911Y-6926559D02*
X16017951Y-6933484D01*
X14424798Y-6037153D02*
X14431771Y-6041027D01*
X20947643Y-6326371D02*
X20940321Y-6329537D01*
X9705100Y-2289785D02*
X9711423Y-2294647D01*
X20901870Y-3539755D02*
X20893943Y-3540641D01*
X9600035Y-2259063D02*
X9608006Y-2258767D01*
X12384193Y-3457165D02*
X12381672Y-3464732D01*
X12371911Y-3486559D02*
X12367951Y-3493484D01*
X16241423Y-5345353D02*
X16235100Y-5350215D01*
X16036337Y-6810518D02*
X16038098Y-6818298D01*
X14233887Y-3268117D02*
X14239562Y-3262512D01*
X16106345Y-5062306D02*
X16114185Y-5060835D01*
X14508098Y-6148298D02*
X14509472Y-6156155D01*
X9457021Y-2369036D02*
X9459728Y-2361533D01*
X12090026Y-3329954D02*
X12094156Y-3323129D01*
X20878006Y-3218767D02*
X20885982Y-3218866D01*
X14308588Y-6024163D02*
X14316345Y-6022306D01*
X9499562Y-2537488D02*
X9493887Y-2531883D01*
X18867498Y-6089816D02*
X18873310Y-6095279D01*
X9459728Y-5161533D02*
X9462804Y-5154173D01*
X12331423Y-3284647D02*
X12337498Y-3289816D01*
X14498780Y-6117834D02*
X14501672Y-6125267D01*
X12290321Y-3559537D02*
X12282852Y-3562337D01*
X12072734Y-3374397D02*
X12074687Y-3366663D01*
X21036337Y-3419481D02*
X21034193Y-3427165D01*
X16185254Y-5065235D02*
X16192852Y-5067663D01*
X16000026Y-5300046D02*
X15996239Y-5293026D01*
X14474089Y-3277034D02*
X14479029Y-3283297D01*
X16910000Y-4699950D02*
X16910000Y-4700150D01*
X18638496Y-3516004D02*
X18633402Y-3509865D01*
X18681691Y-6350953D02*
X18674816Y-6346908D01*
X12389472Y-3433844D02*
X12388098Y-3441702D01*
X9348006Y-6688767D02*
X9355982Y-6688866D01*
X12094156Y-6123129D02*
X12098618Y-6116518D01*
X14233887Y-3491883D02*
X14228496Y-3486004D01*
X9755523Y-5150552D02*
X9758780Y-5157834D01*
X9278758Y-6994653D02*
X9271691Y-6990953D01*
X15987498Y-4170184D02*
X15981423Y-4175353D01*
X20885982Y-3541134D02*
X20878006Y-3541233D01*
X18841771Y-3548973D02*
X18834799Y-3552847D01*
X12131708Y-3537823D02*
X12125507Y-3532806D01*
X14202803Y-3314173D02*
X14206239Y-3306974D01*
X20753402Y-3479865D02*
X20748618Y-3473482D01*
X9647545Y-5376813D02*
X9639744Y-5378478D01*
X16031672Y-3995267D02*
X16034193Y-4002835D01*
X14387545Y-3223187D02*
X14395254Y-3225235D01*
X15729728Y-6908467D02*
X15727021Y-6900964D01*
X14371870Y-6020245D02*
X14379744Y-6021522D01*
X18750035Y-6049063D02*
X18758006Y-6048767D01*
X21039472Y-6203844D02*
X21038098Y-6211702D01*
X18758006Y-6048767D02*
X18765982Y-6048866D01*
X14300932Y-3226402D02*
X14308588Y-3224163D01*
X12220034Y-6049063D02*
X12228006Y-6048767D01*
X9470026Y-5139954D02*
X9474156Y-5133130D01*
X9199728Y-6908467D02*
X9197021Y-6900964D01*
X15932852Y-7002337D02*
X15925254Y-7004765D01*
X21039472Y-6156155D02*
X21040456Y-6164071D01*
X9592088Y-5380247D02*
X9584185Y-5379165D01*
X9300932Y-3896402D02*
X9308588Y-3894163D01*
X14239562Y-6297488D02*
X14233887Y-6291883D01*
X14223402Y-3479865D02*
X14218618Y-3473482D01*
X16004089Y-4152966D02*
X15998845Y-4158976D01*
X16145982Y-5058866D02*
X16153943Y-5059359D01*
X20375000Y-4699950D02*
X20375000Y-4600000D01*
X18848544Y-6344759D02*
X18841771Y-6348973D01*
X12348845Y-3301023D02*
X12354089Y-3307034D01*
X9524816Y-5356908D02*
X9518150Y-5352528D01*
X9698544Y-5354759D02*
X9691771Y-5358973D01*
X18602734Y-3374397D02*
X18604688Y-3366663D01*
X15979199Y-2431955D02*
X15978804Y-2423988D01*
X14495523Y-6110552D02*
X14498780Y-6117834D01*
X18861423Y-6084647D02*
X18867498Y-6089816D01*
X9625000Y-4699950D02*
X9625000Y-4600000D01*
X19320000Y-4699950D02*
X19320000Y-4600000D01*
X18797545Y-3253187D02*
X18805254Y-3255235D01*
X16075998Y-2272001D02*
X16083396Y-2269017D01*
X11435000Y-4699950D02*
X11435000Y-4700150D01*
X9197021Y-6799036D02*
X9199728Y-6791533D01*
X21031672Y-6234732D02*
X21028780Y-6242166D01*
X18607021Y-6159036D02*
X18609728Y-6151533D01*
X9751911Y-5143440D02*
X9755523Y-5150552D01*
X20724688Y-3336663D02*
X20727021Y-3329036D01*
X15736239Y-3976974D02*
X15740026Y-3969954D01*
X9251708Y-4177823D02*
X9245507Y-4172806D01*
X12125507Y-6332806D02*
X12119562Y-6327488D01*
X16048150Y-5087472D02*
X16054816Y-5083092D01*
X9553396Y-5370983D02*
X9545998Y-5367999D01*
X18873310Y-3524720D02*
X18867498Y-3530184D01*
X15721166Y-4077782D02*
X15719986Y-4069893D01*
X18878845Y-6318976D02*
X18873310Y-6324720D01*
X20968544Y-3245241D02*
X20975100Y-3249785D01*
X15727021Y-3999036D02*
X15729728Y-3991533D01*
X9417643Y-3903629D02*
X9424799Y-3907153D01*
X20781708Y-3252177D02*
X20788150Y-3247472D01*
X18681691Y-6069047D02*
X18688758Y-6065347D01*
X13845000Y-4600000D02*
X14750000Y-4600000D01*
X12228006Y-3571233D02*
X12220034Y-3570937D01*
X9538758Y-5364653D02*
X9531691Y-5360953D01*
X9459728Y-2478467D02*
X9457021Y-2470964D01*
X12490000Y-4600000D02*
X12490000Y-4699950D01*
X12151691Y-6069047D02*
X12158758Y-6065347D01*
X20854185Y-3539165D02*
X20846345Y-3537694D01*
X9189199Y-4038045D02*
X9189987Y-4030107D01*
X14849900Y-5516667D02*
X14750000Y-5516667D01*
X18867498Y-3289816D02*
X18873310Y-3295279D01*
X9438544Y-3915241D02*
X9445100Y-3919785D01*
X9454688Y-2463336D02*
X9452734Y-2455603D01*
X18661708Y-3537823D02*
X18655507Y-3532806D01*
X9488496Y-2526004D02*
X9483402Y-2519865D01*
X21028780Y-6117834D02*
X21031672Y-6125267D01*
X12077021Y-6159036D02*
X12079728Y-6151533D01*
X15729728Y-3991533D02*
X15732803Y-3984173D01*
X16039472Y-6873844D02*
X16038098Y-6881702D01*
X16298098Y-2388298D02*
X16299472Y-2396155D01*
X18688758Y-6065347D02*
X18695998Y-6062001D01*
X18718588Y-6054163D02*
X18726345Y-6052306D01*
X12359029Y-6306703D02*
X12354089Y-6312966D01*
X16296337Y-5259482D02*
X16294193Y-5267165D01*
X14199728Y-6238467D02*
X14197021Y-6230964D01*
X9506337Y-6810518D02*
X9508098Y-6818298D01*
X12090026Y-3490046D02*
X12086239Y-3483026D01*
X12391245Y-3410000D02*
X12391048Y-3417974D01*
X15954798Y-4192847D02*
X15947643Y-4196371D01*
X16153943Y-2259359D02*
X16161870Y-2260245D01*
X9717498Y-5099816D02*
X9723310Y-5105279D01*
X12144816Y-3273092D02*
X12151691Y-3269047D01*
X16221771Y-2558973D02*
X16214798Y-2562847D01*
X16017951Y-6933484D02*
X16013653Y-6940204D01*
X9631870Y-2260245D02*
X9639744Y-2261522D01*
X9498780Y-3987834D02*
X9501672Y-3995267D01*
X18604688Y-3366663D02*
X18607021Y-3359036D01*
X16090932Y-2573598D02*
X16083396Y-2570983D01*
X12180932Y-6363598D02*
X12173396Y-6360983D01*
X9568588Y-2264163D02*
X9576345Y-2262306D01*
X14410321Y-3529537D02*
X14402852Y-3532337D01*
X15769562Y-6967488D02*
X15763887Y-6961883D01*
X9417643Y-4196371D02*
X9410321Y-4199537D01*
X14849900Y-3583333D02*
X14750000Y-3583333D01*
X9487951Y-3966516D02*
X9491911Y-3973440D01*
X16185254Y-5374765D02*
X16177545Y-5376813D01*
X15968544Y-6715241D02*
X15975100Y-6719785D01*
X9553396Y-2570983D02*
X9545998Y-2567999D01*
X9647545Y-2263187D02*
X9655254Y-2265235D01*
X9379744Y-4208478D02*
X9371870Y-4209755D01*
X20998845Y-3271023D02*
X21004089Y-3277034D01*
X16241423Y-5094647D02*
X16247498Y-5099816D01*
X18889029Y-6113297D02*
X18893654Y-6119796D01*
X14340034Y-3219063D02*
X14348006Y-3218767D01*
X15878006Y-4211233D02*
X15870034Y-4210937D01*
X15862088Y-3889753D02*
X15870034Y-3889063D01*
X9511048Y-6842026D02*
X9511245Y-6850000D01*
X14271691Y-3520953D02*
X14264816Y-3516908D01*
X9451423Y-6975353D02*
X9445100Y-6980215D01*
X14950000Y-3583333D02*
X14850100Y-3583333D01*
X15781708Y-6722177D02*
X15788150Y-6717472D01*
X9332088Y-7010247D02*
X9324185Y-7009165D01*
X9206239Y-3976974D02*
X9210026Y-3969954D01*
X9197021Y-4100964D02*
X9194688Y-4093336D01*
X9379744Y-7008478D02*
X9371870Y-7009755D01*
X15992803Y-2354173D02*
X15996239Y-2346974D01*
X16083396Y-5069017D02*
X16090932Y-5066402D01*
X16153943Y-5059359D02*
X16161870Y-5060245D01*
X15838588Y-7005837D02*
X15830932Y-7003598D01*
X16214798Y-5362847D02*
X16207643Y-5366371D01*
X16910000Y-4600000D02*
X16910000Y-4699950D01*
X20878006Y-3541233D02*
X20870035Y-3540937D01*
X15838588Y-6694163D02*
X15846345Y-6692306D01*
X9379744Y-3891522D02*
X9387545Y-3893187D01*
X20753402Y-3280135D02*
X20758496Y-3273996D01*
X16031672Y-4104732D02*
X16028780Y-4112166D01*
X16013653Y-6940204D02*
X16009029Y-6946703D01*
X16200321Y-5070463D02*
X16207643Y-5073629D01*
X18602734Y-6174397D02*
X18604688Y-6166663D01*
X9728845Y-2528977D02*
X9723310Y-2534721D01*
X18620026Y-3490046D02*
X18616239Y-3483026D01*
X9504193Y-6802835D02*
X9506337Y-6810518D01*
X21031672Y-6125267D02*
X21034193Y-6132835D01*
X15982734Y-2384397D02*
X15984687Y-2376664D01*
X14387545Y-3536813D02*
X14379744Y-3538478D01*
X16029562Y-2537488D02*
X16023887Y-2531883D01*
X16145982Y-2581134D02*
X16138006Y-2581233D01*
X9210026Y-6769954D02*
X9214156Y-6763129D01*
X15736239Y-6923026D02*
X15732803Y-6915827D01*
X15763887Y-4161883D02*
X15758496Y-4156004D01*
X18643887Y-3298117D02*
X18649562Y-3292512D01*
X16038098Y-4081702D02*
X16036337Y-4089481D01*
X9264816Y-4186908D02*
X9258150Y-4182528D01*
X9470026Y-5300046D02*
X9466239Y-5293026D01*
X15979199Y-2408045D02*
X15979986Y-2400107D01*
X9445100Y-6719785D02*
X9451423Y-6724647D01*
X12297643Y-6356371D02*
X12290321Y-6359537D01*
X14950000Y-5816667D02*
X14950000Y-6383333D01*
X9576345Y-5062306D02*
X9584185Y-5060835D01*
X12337498Y-6330184D02*
X12331423Y-6335353D01*
X20987498Y-3259816D02*
X20993310Y-3265279D01*
X20878006Y-6018767D02*
X20885982Y-6018866D01*
X20748618Y-3473482D02*
X20744156Y-3466870D01*
X16008618Y-2326518D02*
X16013402Y-2320135D01*
X15968544Y-3915241D02*
X15975100Y-3919785D01*
X9770456Y-5235929D02*
X9769472Y-5243845D01*
X15753402Y-4149865D02*
X15748618Y-4143482D01*
X15932852Y-4202337D02*
X15925254Y-4204765D01*
X20718804Y-3383988D02*
X20718804Y-3376012D01*
X15981166Y-2392218D02*
X15982734Y-2384397D01*
X9463310Y-3935279D02*
X9468845Y-3941023D01*
X15846345Y-6692306D02*
X15854185Y-6690835D01*
X16009029Y-4146703D02*
X16004089Y-4152966D01*
X14950000Y-5516667D02*
X14850100Y-5516667D01*
X16301245Y-2420000D02*
X16301048Y-2427974D01*
X20968544Y-3514759D02*
X20961771Y-3518973D01*
X18612804Y-3475827D02*
X18609728Y-3468467D01*
X15740026Y-4130046D02*
X15736239Y-4123026D01*
X15917545Y-7006813D02*
X15909744Y-7008478D01*
X18734185Y-6369165D02*
X18726345Y-6367694D01*
X9316345Y-3892306D02*
X9324185Y-3890835D01*
X9511245Y-4050000D02*
X9511048Y-4057974D01*
X9511048Y-4057974D02*
X9510456Y-4065929D01*
X16200321Y-5369537D02*
X16192852Y-5372337D01*
X20721166Y-3407782D02*
X20719987Y-3399893D01*
X14285998Y-3527999D02*
X14278758Y-3524653D01*
X14850100Y-6383333D02*
X14849900Y-6383333D01*
X16264089Y-2317034D02*
X16269029Y-2323297D01*
X18889029Y-6306703D02*
X18884089Y-6312966D01*
X14395254Y-3534765D02*
X14387545Y-3536813D01*
X18668150Y-3542528D02*
X18661708Y-3537823D01*
X16098588Y-5064163D02*
X16106345Y-5062306D01*
X18878845Y-3518976D02*
X18873310Y-3524720D01*
X12071166Y-3437782D02*
X12069986Y-3429893D01*
X14850100Y-3016667D02*
X14950000Y-3016667D01*
X17210000Y-4800000D02*
X17210000Y-4700150D01*
X18861423Y-3535353D02*
X18855100Y-3540215D01*
X14474089Y-6282966D02*
X14468845Y-6288976D01*
X14445100Y-6310215D02*
X14438544Y-6314759D01*
X14316345Y-6022306D02*
X14324185Y-6020835D01*
X9228496Y-6743996D02*
X9233887Y-6738117D01*
X9264816Y-3913092D02*
X9271691Y-3909047D01*
X16028780Y-6912166D02*
X16025523Y-6919448D01*
X9717498Y-2540184D02*
X9711423Y-2545353D01*
X16035507Y-2542806D02*
X16029562Y-2537488D01*
X9647545Y-5063187D02*
X9655254Y-5065235D01*
X9538758Y-5075347D02*
X9545998Y-5072001D01*
X9608006Y-5381233D02*
X9600035Y-5380937D01*
X20932852Y-6027663D02*
X20940321Y-6030463D01*
X14239562Y-3497488D02*
X14233887Y-3491883D01*
X12275254Y-6364765D02*
X12267545Y-6366813D01*
X15815998Y-6997999D02*
X15808758Y-6994653D01*
X9499562Y-5337488D02*
X9493887Y-5331883D01*
X12158758Y-6065347D02*
X12165998Y-6062001D01*
X15736239Y-6776974D02*
X15740026Y-6769954D01*
X18773943Y-6370641D02*
X18765982Y-6371134D01*
X14210026Y-6099954D02*
X14214156Y-6093129D01*
X8420000Y-4800000D02*
X8420000Y-7400000D01*
X15893943Y-6689359D02*
X15901870Y-6690245D01*
X18908780Y-6147834D02*
X18911672Y-6155267D01*
X14950000Y-3883333D02*
X14950000Y-4600000D01*
X9495523Y-3980552D02*
X9498780Y-3987834D01*
X9677643Y-5366371D02*
X9670321Y-5369537D01*
X14506337Y-6219481D02*
X14504193Y-6227165D01*
X12204185Y-3250835D02*
X12212088Y-3249753D01*
X18911672Y-6155267D02*
X18914193Y-6162835D01*
X9691771Y-2558973D02*
X9684799Y-2562847D01*
X9355982Y-4211134D02*
X9348006Y-4211233D01*
X14501672Y-6125267D02*
X14504193Y-6132835D01*
X20909744Y-3538478D02*
X20901870Y-3539755D01*
X16041708Y-5092177D02*
X16048150Y-5087472D01*
X20993310Y-3265279D02*
X20998845Y-3271023D01*
X15854185Y-3890835D02*
X15862088Y-3889753D01*
X14417643Y-3233629D02*
X14424798Y-3237153D01*
X13845000Y-4700150D02*
X13845000Y-4699950D01*
X12282852Y-3562337D02*
X12275254Y-3564765D01*
X14348006Y-6018767D02*
X14355982Y-6018866D01*
X21025523Y-6249448D02*
X21021911Y-6256559D01*
X16247498Y-5340184D02*
X16241423Y-5345353D01*
X9452734Y-2384397D02*
X9454688Y-2376664D01*
X18599987Y-6190107D02*
X18601166Y-6182218D01*
X18718588Y-3254163D02*
X18726345Y-3252306D01*
X18914193Y-6162835D02*
X18916337Y-6170518D01*
X8420000Y-7400000D02*
X14750000Y-7400000D01*
X18616239Y-6283026D02*
X18612804Y-6275827D01*
X20769562Y-3497488D02*
X20763887Y-3491883D01*
X14258150Y-6047472D02*
X14264816Y-6043092D01*
X20838588Y-3535837D02*
X20830932Y-3533598D01*
X16207643Y-5366371D02*
X16200321Y-5369537D01*
X15721166Y-4022218D02*
X15722734Y-4014397D01*
X12131708Y-6082177D02*
X12138150Y-6077472D01*
X16221771Y-2281027D02*
X16228544Y-2285241D01*
X9655254Y-5374765D02*
X9647545Y-5376813D01*
X15901870Y-7009755D02*
X15893943Y-7010641D01*
X9691771Y-2281027D02*
X9698544Y-2285241D01*
X16004089Y-6952966D02*
X15998845Y-6958976D01*
X15981166Y-5192218D02*
X15982734Y-5184397D01*
X15870034Y-3889063D02*
X15878006Y-3888767D01*
X13545000Y-4600000D02*
X13545000Y-4699950D01*
X18655507Y-3532806D02*
X18649562Y-3527488D01*
X9505507Y-2297194D02*
X9511708Y-2292177D01*
X18607021Y-3460964D02*
X18604688Y-3453336D01*
X15878006Y-3888767D02*
X15885982Y-3888866D01*
X15801691Y-6990953D02*
X15794816Y-6986908D01*
X15996239Y-5146974D02*
X16000026Y-5139954D01*
X16017951Y-6766516D02*
X16021911Y-6773440D01*
X16285523Y-2350552D02*
X16288780Y-2357834D01*
X12331423Y-6335353D02*
X12325100Y-6340215D01*
X14457498Y-3500184D02*
X14451423Y-3505353D01*
X15885982Y-4211134D02*
X15878006Y-4211233D01*
X18624156Y-3496870D02*
X18620026Y-3490046D01*
X9462804Y-5154173D02*
X9466239Y-5146974D01*
X16301048Y-2427974D02*
X16300456Y-2435929D01*
X9761672Y-5274732D02*
X9758780Y-5282166D01*
X14363943Y-6019359D02*
X14371870Y-6020245D01*
X9600035Y-5059063D02*
X9608006Y-5058767D01*
X9189987Y-6830107D02*
X9191166Y-6822218D01*
X14223402Y-3280135D02*
X14228496Y-3273996D01*
X14410321Y-6329537D02*
X14402852Y-6332337D01*
X15769562Y-3932512D02*
X15775507Y-3927194D01*
X20075000Y-4700150D02*
X20075000Y-4800000D01*
X15722734Y-6885603D02*
X15721166Y-6877782D01*
X9615982Y-2258866D02*
X9623943Y-2259359D01*
X15830932Y-3896402D02*
X15838588Y-3894163D01*
X16130034Y-5380937D02*
X16122088Y-5380247D01*
X20732804Y-3314173D02*
X20736239Y-3306974D01*
X9553396Y-5069017D02*
X9560932Y-5066402D01*
X16028780Y-6787834D02*
X16031672Y-6795267D01*
X14308588Y-3535837D02*
X14300932Y-3533598D01*
X14245507Y-6302806D02*
X14239562Y-6297488D01*
X17210000Y-4600000D02*
X17965000Y-4600000D01*
X18920456Y-3394071D02*
X18921048Y-3402026D01*
X18884089Y-6107034D02*
X18889029Y-6113297D01*
X16269029Y-2323297D02*
X16273653Y-2329796D01*
X21038098Y-6148298D02*
X21039472Y-6156155D01*
X16291672Y-5274732D02*
X16288780Y-5282166D01*
X9506337Y-4010518D02*
X9508098Y-4018298D01*
X15808758Y-6994653D02*
X15801691Y-6990953D01*
X14324185Y-3539165D02*
X14316345Y-3537694D01*
X14194687Y-3423336D02*
X14192734Y-3415603D01*
X20744156Y-3293129D02*
X20748618Y-3286518D01*
X14445100Y-6049785D02*
X14451423Y-6054647D01*
X9506337Y-4089481D02*
X9504193Y-4097165D01*
X16083396Y-2570983D02*
X16075998Y-2567999D01*
X20901870Y-6020245D02*
X20909744Y-6021522D01*
X18601166Y-3382218D02*
X18602734Y-3374397D01*
X16145982Y-5381134D02*
X16138006Y-5381233D01*
X15992803Y-2485827D02*
X15989728Y-2478467D01*
X18703396Y-6059017D02*
X18710932Y-6056402D01*
X14506337Y-6140518D02*
X14508098Y-6148298D01*
X16041048Y-6842026D02*
X16041245Y-6850000D01*
X9278758Y-4194653D02*
X9271691Y-4190953D01*
X12386337Y-3370518D02*
X12388098Y-3378298D01*
X12074687Y-3453336D02*
X12072734Y-3445603D01*
X9474156Y-2506870D02*
X9470026Y-2500046D01*
X14417643Y-3526371D02*
X14410321Y-3529537D01*
X14509472Y-3356155D02*
X14510456Y-3364071D01*
X14363943Y-3540641D02*
X14355982Y-3541134D01*
X20961771Y-3518973D02*
X20954799Y-3522847D01*
X18773943Y-3249359D02*
X18781870Y-3250245D01*
X9457021Y-5270964D02*
X9454688Y-5263336D01*
X9501672Y-3995267D02*
X9504193Y-4002835D01*
X14264816Y-3243092D02*
X14271691Y-3239047D01*
X9449199Y-2431955D02*
X9448804Y-2423988D01*
X20718804Y-6176012D02*
X20719199Y-6168045D01*
X12086239Y-6283026D02*
X12082803Y-6275827D01*
X9285998Y-6997999D02*
X9278758Y-6994653D01*
X18797545Y-6366813D02*
X18789744Y-6368478D01*
X16247498Y-2540184D02*
X16241423Y-2545353D01*
X15961771Y-4188973D02*
X15954798Y-4192847D01*
X9189199Y-6838045D02*
X9189987Y-6830107D01*
X16138006Y-5058767D02*
X16145982Y-5058866D01*
X15917545Y-3893187D02*
X15925254Y-3895235D01*
X12158758Y-6354653D02*
X12151691Y-6350953D01*
X9505507Y-5097194D02*
X9511708Y-5092177D01*
X15722734Y-4085603D02*
X15721166Y-4077782D01*
X15940321Y-6999537D02*
X15932852Y-7002337D01*
X9771245Y-2420000D02*
X9771048Y-2427974D01*
X12386337Y-3449481D02*
X12384193Y-3457165D01*
X14511245Y-3380000D02*
X14511048Y-3387974D01*
X9431771Y-6711027D02*
X9438544Y-6715241D01*
X14258150Y-3247472D02*
X14264816Y-3243092D01*
X20870035Y-6340937D02*
X20862088Y-6340247D01*
X16038098Y-4018298D02*
X16039472Y-4026155D01*
X15909744Y-4208478D02*
X15901870Y-4209755D01*
X9191166Y-6877782D02*
X9189987Y-6869893D01*
X9483654Y-6759796D02*
X9487951Y-6766516D01*
X18599199Y-6221955D02*
X18598804Y-6213988D01*
X14218618Y-6086518D02*
X14223402Y-6080135D01*
X9491911Y-6926559D02*
X9487951Y-6933484D01*
X16013402Y-5120135D02*
X16018496Y-5113996D01*
X12790000Y-4600000D02*
X13545000Y-4600000D01*
X16114185Y-2260835D02*
X16122088Y-2259753D01*
X18750035Y-6370937D02*
X18742088Y-6370247D01*
X9285998Y-6702001D02*
X9293396Y-6699017D01*
X16281911Y-2496560D02*
X16277951Y-2503484D01*
X9402852Y-3897663D02*
X9410321Y-3900463D01*
X12325100Y-3540215D02*
X12318544Y-3544759D01*
X14501672Y-3434732D02*
X14498780Y-3442166D01*
X12119562Y-6327488D02*
X12113887Y-6321883D01*
X16031672Y-6904732D02*
X16028780Y-6912166D01*
X11435000Y-4700150D02*
X11435000Y-4800000D01*
X18633402Y-6309865D02*
X18628618Y-6303482D01*
X9192734Y-4085603D02*
X9191166Y-4077782D01*
X12311771Y-3548973D02*
X12304798Y-3552847D01*
X11735000Y-4600000D02*
X12490000Y-4600000D01*
X20846345Y-3222306D02*
X20854185Y-3220835D01*
X16130034Y-5059063D02*
X16138006Y-5058767D01*
X15909744Y-7008478D02*
X15901870Y-7009755D01*
X12354089Y-3307034D02*
X12359029Y-3313297D01*
X9218618Y-6943482D02*
X9214156Y-6936870D01*
X21009029Y-3476703D02*
X21004089Y-3482966D01*
X9677643Y-5073629D02*
X9684799Y-5077153D01*
X14251708Y-3252177D02*
X14258150Y-3247472D01*
X12384193Y-6162835D02*
X12386337Y-6170518D01*
X9743654Y-2329796D02*
X9747951Y-2336516D01*
X18855100Y-3540215D02*
X18848544Y-3544759D01*
X9769472Y-5196155D02*
X9770456Y-5204071D01*
X9509472Y-6873844D02*
X9508098Y-6881702D01*
X9717498Y-5340184D02*
X9711423Y-5345353D01*
X15815998Y-6702001D02*
X15823396Y-6699017D01*
X18599199Y-3421955D02*
X18598804Y-3413988D01*
X14750000Y-5516667D02*
X14750000Y-4800000D01*
X18914193Y-3457165D02*
X18911672Y-3464732D01*
X16264089Y-2522966D02*
X16258845Y-2528977D01*
X21009029Y-6276703D02*
X21004089Y-6282966D01*
X16017951Y-4133484D02*
X16013653Y-4140204D01*
X12144816Y-6073092D02*
X12151691Y-6069047D01*
X9348006Y-7011233D02*
X9340035Y-7010937D01*
X14228496Y-3486004D02*
X14223402Y-3479865D01*
X9600035Y-5380937D02*
X9592088Y-5380247D01*
X16299472Y-2443845D02*
X16298098Y-2451702D01*
X14457498Y-6059816D02*
X14463310Y-6065279D01*
X18916337Y-6249481D02*
X18914193Y-6257165D01*
X14239562Y-3262512D02*
X14245507Y-3257194D01*
X18265000Y-4800000D02*
X18265000Y-4700150D01*
X14849900Y-5816667D02*
X14850100Y-5816667D01*
X16200321Y-2569537D02*
X16192852Y-2572337D01*
X15722734Y-4014397D02*
X15724687Y-4006663D01*
X16025523Y-6919448D02*
X16021911Y-6926559D01*
X14332088Y-6019753D02*
X14340034Y-6019063D01*
X9452734Y-5255603D02*
X9451166Y-5247782D01*
X16235100Y-2289785D02*
X16241423Y-2294647D01*
X9189987Y-4069893D02*
X9189199Y-4061955D01*
X16098588Y-5375837D02*
X16090932Y-5373598D01*
X12220034Y-3570937D02*
X12212088Y-3570247D01*
X18901911Y-3333440D02*
X18905523Y-3340552D01*
X15718804Y-6846012D02*
X15719199Y-6838045D01*
X16083396Y-2269017D02*
X16090932Y-2266402D01*
X9769472Y-2443845D02*
X9768098Y-2451702D01*
X9202804Y-4115827D02*
X9199728Y-4108467D01*
X14850100Y-5816667D02*
X14950000Y-5816667D01*
X18742088Y-3249753D02*
X18750035Y-3249063D01*
X20758496Y-6286004D02*
X20753402Y-6279865D01*
X9728845Y-5328977D02*
X9723310Y-5334721D01*
X14340034Y-6340937D02*
X14332088Y-6340247D01*
X12343310Y-3295279D02*
X12348845Y-3301023D01*
X20740026Y-3460046D02*
X20736239Y-3453026D01*
X15801691Y-4190953D02*
X15794816Y-4186908D01*
X9410321Y-6700463D02*
X9417643Y-6703629D01*
X16025523Y-4119448D02*
X16021911Y-4126559D01*
X9631870Y-5379755D02*
X9623943Y-5380641D01*
X16009029Y-6753297D02*
X16013653Y-6759796D01*
X12125507Y-3532806D02*
X12119562Y-3527488D01*
X16054816Y-2556908D02*
X16048150Y-2552528D01*
X14214156Y-3466870D02*
X14210026Y-3460046D01*
X15925254Y-7004765D02*
X15917545Y-7006813D01*
X9504193Y-6897165D02*
X9501672Y-6904732D01*
X18905523Y-6140552D02*
X18908780Y-6147834D01*
X16273653Y-2510204D02*
X16269029Y-2516703D01*
X15984687Y-5263336D02*
X15982734Y-5255603D01*
X18612804Y-3344173D02*
X18616239Y-3336974D01*
X9239562Y-3932512D02*
X9245507Y-3927194D01*
X15740026Y-3969954D02*
X15744156Y-3963129D01*
X12391048Y-3417974D02*
X12390456Y-3425929D01*
X16269029Y-2516703D02*
X16264089Y-2522966D01*
X20729728Y-6121533D02*
X20732804Y-6114173D01*
X14278758Y-6324653D02*
X14271691Y-6320953D01*
X9245507Y-6972806D02*
X9239562Y-6967488D01*
X18911672Y-6264732D02*
X18908780Y-6272166D01*
X9771048Y-2412026D02*
X9771245Y-2420000D01*
X16273653Y-5310204D02*
X16269029Y-5316703D01*
X14239562Y-6062512D02*
X14245507Y-6057194D01*
X20808758Y-3235347D02*
X20815998Y-3232001D01*
X9308588Y-3894163D02*
X9316345Y-3892306D01*
X15744156Y-6763129D02*
X15748618Y-6756518D01*
X18805254Y-6055235D02*
X18812852Y-6057663D01*
X15775507Y-3927194D02*
X15781708Y-3922177D01*
X12251870Y-6050245D02*
X12259744Y-6051522D01*
X14750000Y-3883333D02*
X14849900Y-3883333D01*
X12378780Y-3472166D02*
X12375523Y-3479448D01*
X16029562Y-5337488D02*
X16023887Y-5331883D01*
X14300932Y-3533598D02*
X14293396Y-3530983D01*
X12304798Y-6067153D02*
X12311771Y-6071027D01*
X16299472Y-5243845D02*
X16298098Y-5251702D01*
X16294193Y-5267165D02*
X16291672Y-5274732D01*
X12079728Y-3468467D02*
X12077021Y-3460964D01*
X16004089Y-6747034D02*
X16009029Y-6753297D01*
X18607021Y-3359036D02*
X18609728Y-3351533D01*
X12173396Y-6360983D02*
X12165998Y-6357999D01*
X9498780Y-4112166D02*
X9495523Y-4119448D01*
X12391048Y-3402026D02*
X12391245Y-3410000D01*
X14293396Y-3229017D02*
X14300932Y-3226402D01*
X14189986Y-6160107D02*
X14191166Y-6152218D01*
X12151691Y-3269047D02*
X12158758Y-3265347D01*
X9438544Y-6984759D02*
X9431771Y-6988973D01*
X20993310Y-3494720D02*
X20987498Y-3500184D01*
X9639744Y-5378478D02*
X9631870Y-5379755D01*
X9487951Y-6766516D02*
X9491911Y-6773440D01*
X9189199Y-6861955D02*
X9188804Y-6853988D01*
X21021911Y-6103440D02*
X21025523Y-6110552D01*
X9223402Y-6949865D02*
X9218618Y-6943482D01*
X20940321Y-6329537D02*
X20932852Y-6332337D01*
X9424799Y-3907153D02*
X9431771Y-3911027D01*
X9371870Y-7009755D02*
X9363943Y-7010641D01*
X18726345Y-6367694D02*
X18718588Y-6365837D01*
X20823396Y-6330983D02*
X20815998Y-6327999D01*
X16083396Y-5370983D02*
X16075998Y-5367999D01*
X14316345Y-3537694D02*
X14308588Y-3535837D01*
X14463310Y-6294720D02*
X14457498Y-6300184D01*
X21036337Y-3340518D02*
X21038098Y-3348298D01*
X20794816Y-3516908D02*
X20788150Y-3512528D01*
X20925254Y-3534765D02*
X20917545Y-3536813D01*
X20954799Y-6037153D02*
X20961771Y-6041027D01*
X12359029Y-3313297D02*
X12363653Y-3319796D01*
X20885982Y-3218866D02*
X20893943Y-3219359D01*
X16296337Y-2380518D02*
X16298098Y-2388298D01*
X15788150Y-6982528D02*
X15781708Y-6977823D01*
X9615982Y-2581134D02*
X9608006Y-2581233D01*
X15727021Y-4100964D02*
X15724687Y-4093336D01*
X12074687Y-6253336D02*
X12072734Y-6245603D01*
X14501672Y-3325267D02*
X14504193Y-3332835D01*
X9488496Y-5326004D02*
X9483402Y-5319865D01*
X20815998Y-3232001D02*
X20823396Y-3229017D01*
X9608006Y-2581233D02*
X9600035Y-2580937D01*
X9468845Y-4158976D02*
X9463310Y-4164720D01*
X12391245Y-6210000D02*
X12391048Y-6217974D01*
X21021911Y-3456559D02*
X21017951Y-3463484D01*
X15719199Y-4061955D02*
X15718804Y-4053988D01*
X18878845Y-3301023D02*
X18884089Y-3307034D01*
X18681691Y-3550953D02*
X18674816Y-3546908D01*
X9623943Y-2580641D02*
X9615982Y-2581134D01*
X9684799Y-5362847D02*
X9677643Y-5366371D01*
X18914193Y-6257165D02*
X18911672Y-6264732D01*
X18612804Y-6275827D02*
X18609728Y-6268467D01*
X12079728Y-6268467D02*
X12077021Y-6260964D01*
X9509472Y-4026155D02*
X9510456Y-4034071D01*
X18916337Y-3449481D02*
X18914193Y-3457165D01*
X19320000Y-4800000D02*
X19320000Y-4700150D01*
X16068758Y-5364653D02*
X16061691Y-5360953D01*
X16241423Y-2545353D02*
X16235100Y-2550215D01*
X9194688Y-4006663D02*
X9197021Y-3999036D01*
X14191166Y-6152218D02*
X14192734Y-6144397D01*
X10380000Y-4700150D02*
X10380000Y-4800000D01*
X12337498Y-3530184D02*
X12331423Y-3535353D01*
X14510456Y-3364071D02*
X14511048Y-3372026D01*
X9723310Y-2305279D02*
X9728845Y-2311023D01*
X14508098Y-3411702D02*
X14506337Y-3419481D01*
X9576345Y-5377694D02*
X9568588Y-5375837D01*
X13545000Y-4800000D02*
X12790000Y-4800000D01*
X16253310Y-5105279D02*
X16258845Y-5111023D01*
X9214156Y-4136870D02*
X9210026Y-4130046D01*
X12082803Y-6144173D02*
X12086239Y-6136974D01*
X18661708Y-6337823D02*
X18655507Y-6332806D01*
X9410321Y-6999537D02*
X9402852Y-7002337D01*
X18750035Y-3570937D02*
X18742088Y-3570247D01*
X20794816Y-6316908D02*
X20788150Y-6312528D01*
X14379744Y-3538478D02*
X14371870Y-3539755D01*
X12290321Y-6359537D02*
X12282852Y-6362337D01*
X12235982Y-6371134D02*
X12228006Y-6371233D01*
X12490000Y-4800000D02*
X11735000Y-4800000D01*
X9431771Y-3911027D02*
X9438544Y-3915241D01*
X16214798Y-2562847D02*
X16207643Y-2566371D01*
X12144816Y-3546908D02*
X12138150Y-3542528D01*
X14474089Y-3482966D02*
X14468845Y-3488976D01*
X9751911Y-5296560D02*
X9747951Y-5303484D01*
X9192734Y-4014397D02*
X9194688Y-4006663D01*
X9560932Y-5373598D02*
X9553396Y-5370983D01*
X9228496Y-4156004D02*
X9223402Y-4149865D01*
X9371870Y-6690245D02*
X9379744Y-6691522D01*
X9202804Y-6915827D02*
X9199728Y-6908467D01*
X18609728Y-6268467D02*
X18607021Y-6260964D01*
X18661708Y-6082177D02*
X18668150Y-6077472D01*
X15885982Y-6688866D02*
X15893943Y-6689359D01*
X12108496Y-3516004D02*
X12103402Y-3509865D01*
X9483402Y-5319865D02*
X9478618Y-5313482D01*
X9655254Y-2265235D02*
X9662852Y-2267663D01*
X12082803Y-6275827D02*
X12079728Y-6268467D01*
X20961771Y-6041027D02*
X20968544Y-6045241D01*
X16023887Y-5108117D02*
X16029562Y-5102512D01*
X14498780Y-6242166D02*
X14495523Y-6249448D01*
X12138150Y-3277472D02*
X12144816Y-3273092D01*
X12212088Y-6370247D02*
X12204185Y-6369165D01*
X12094156Y-3496870D02*
X12090026Y-3490046D01*
X20862088Y-6019753D02*
X20870035Y-6019063D01*
X20781708Y-3507823D02*
X20775507Y-3502806D01*
X14438544Y-6045241D02*
X14445100Y-6049785D01*
X9206239Y-4123026D02*
X9202804Y-4115827D01*
X15846345Y-7007694D02*
X15838588Y-7005837D01*
X12367951Y-3326516D02*
X12371911Y-3333440D01*
X14483653Y-6270204D02*
X14479029Y-6276703D01*
X9474089Y-6952966D02*
X9468845Y-6958976D01*
X12790000Y-4800000D02*
X12790000Y-4700150D01*
X12094156Y-3323129D02*
X12098618Y-3316518D01*
X15719986Y-4069893D02*
X15719199Y-4061955D01*
X12077021Y-3359036D02*
X12079728Y-3351533D01*
X15925254Y-3895235D02*
X15932852Y-3897663D01*
X14228496Y-6073996D02*
X14233887Y-6068117D01*
X9479029Y-4146703D02*
X9474089Y-4152966D01*
X16169744Y-5378478D02*
X16161870Y-5379755D01*
X9395254Y-4204765D02*
X9387545Y-4206813D01*
X16040456Y-6834071D02*
X16041048Y-6842026D01*
X14355982Y-3218866D02*
X14363943Y-3219359D01*
X9218618Y-4143482D02*
X9214156Y-4136870D01*
X12282852Y-6057663D02*
X12290321Y-6060463D01*
X14271691Y-6320953D02*
X14264816Y-6316908D01*
X9462804Y-2354173D02*
X9466239Y-2346974D01*
X18861423Y-6335353D02*
X18855100Y-6340215D01*
X12069199Y-3398045D02*
X12069986Y-3390107D01*
X9655254Y-2574765D02*
X9647545Y-2576813D01*
X14487951Y-6096516D02*
X14491911Y-6103440D01*
X16269029Y-5123297D02*
X16273653Y-5129796D01*
X15855000Y-4699950D02*
X15855000Y-4700150D01*
X14264816Y-6043092D02*
X14271691Y-6039047D01*
X12371911Y-6286559D02*
X12367951Y-6293484D01*
X20893943Y-3219359D02*
X20901870Y-3220245D01*
X9449987Y-2400107D02*
X9451166Y-2392218D01*
X9608006Y-5058767D02*
X9615982Y-5058866D01*
X18841771Y-6071027D02*
X18848544Y-6075241D01*
X14451423Y-3254647D02*
X14457498Y-3259816D01*
X15808758Y-3905347D02*
X15815998Y-3902001D01*
X20993310Y-6065279D02*
X20998845Y-6071023D01*
X16228544Y-5354759D02*
X16221771Y-5358973D01*
X9451166Y-2392218D02*
X9452734Y-2384397D01*
X12251870Y-3569755D02*
X12243943Y-3570641D01*
X16192852Y-5067663D02*
X16200321Y-5070463D01*
X11735000Y-4800000D02*
X11735000Y-4700150D01*
X9410321Y-3900463D02*
X9417643Y-3903629D01*
X16029562Y-2302512D02*
X16035507Y-2297194D01*
X18726345Y-6052306D02*
X18734185Y-6050835D01*
X14511245Y-6180000D02*
X14511048Y-6187974D01*
X20917545Y-6023187D02*
X20925254Y-6025235D01*
X16161870Y-2260245D02*
X16169744Y-2261522D01*
X9518150Y-5087472D02*
X9524816Y-5083092D01*
X20893943Y-3540641D02*
X20885982Y-3541134D01*
X18620026Y-6129954D02*
X18624156Y-6123129D01*
X9438544Y-6715241D02*
X9445100Y-6719785D01*
X9233887Y-3938117D02*
X9239562Y-3932512D01*
X9743654Y-5129796D02*
X9747951Y-5136516D01*
X18884089Y-3512966D02*
X18878845Y-3518976D01*
X20763887Y-3491883D02*
X20758496Y-3486004D01*
X18726345Y-3567694D02*
X18718588Y-3565837D01*
X18873310Y-3295279D02*
X18878845Y-3301023D01*
X16177545Y-2576813D02*
X16169744Y-2578478D01*
X18598804Y-3413988D02*
X18598804Y-3406012D01*
X12180932Y-6056402D02*
X12188588Y-6054163D01*
X14192734Y-3344397D02*
X14194687Y-3336663D01*
X20993310Y-6294720D02*
X20987498Y-6300184D01*
X20729728Y-3438467D02*
X20727021Y-3430964D01*
X20801691Y-6039047D02*
X20808758Y-6035347D01*
X20775507Y-3502806D02*
X20769562Y-3497488D01*
X20909744Y-6338478D02*
X20901870Y-6339755D01*
X19020000Y-4600000D02*
X19020000Y-4699950D01*
X9479029Y-3953297D02*
X9483654Y-3959796D01*
X12235982Y-6048866D02*
X12243943Y-6049359D01*
X15758496Y-6743996D02*
X15763887Y-6738117D01*
X21028780Y-6242166D02*
X21025523Y-6249448D01*
X9424799Y-4192847D02*
X9417643Y-4196371D01*
X20975100Y-6049785D02*
X20981423Y-6054647D01*
X15925254Y-4204765D02*
X15917545Y-4206813D01*
X14438544Y-3245241D02*
X14445100Y-3249785D01*
X20727021Y-3329036D02*
X20729728Y-3321533D01*
X9766337Y-5259482D02*
X9764193Y-5267165D01*
X18897951Y-6293484D02*
X18893654Y-6300204D01*
X14849900Y-3883333D02*
X14850100Y-3883333D01*
X14214156Y-6266870D02*
X14210026Y-6260046D01*
X20736239Y-6253026D02*
X20732804Y-6245827D01*
X20940321Y-6030463D02*
X20947643Y-6033629D01*
X20763887Y-6291883D02*
X20758496Y-6286004D01*
X20801691Y-3520953D02*
X20794816Y-3516908D01*
X9233887Y-6961883D02*
X9228496Y-6956004D01*
X12113887Y-3298117D02*
X12119562Y-3292512D01*
X9258150Y-4182528D02*
X9251708Y-4177823D01*
X16200321Y-2270463D02*
X16207643Y-2273629D01*
X18601166Y-6237782D02*
X18599987Y-6229893D01*
X12325100Y-3279785D02*
X12331423Y-3284647D01*
X15727021Y-6900964D02*
X15724687Y-6893336D01*
X12125507Y-6087194D02*
X12131708Y-6082177D01*
X14194687Y-6223336D02*
X14192734Y-6215603D01*
X15854185Y-4209165D02*
X15846345Y-4207694D01*
X12071166Y-6237782D02*
X12069986Y-6229893D01*
X15984687Y-5176664D02*
X15987021Y-5169036D01*
X15954798Y-6707153D02*
X15961771Y-6711027D01*
X9466239Y-5293026D02*
X9462804Y-5285827D01*
X21004089Y-6282966D02*
X20998845Y-6288976D01*
X18884089Y-6312966D02*
X18878845Y-6318976D01*
X9771048Y-5227974D02*
X9770456Y-5235929D01*
X20909744Y-3221522D02*
X20917545Y-3223187D01*
X15909744Y-6691522D02*
X15917545Y-6693187D01*
X20968544Y-6314759D02*
X20961771Y-6318973D01*
X21039472Y-3403844D02*
X21038098Y-3411702D01*
X9698544Y-2285241D02*
X9705100Y-2289785D01*
X9363943Y-4210641D02*
X9355982Y-4211134D01*
X16018496Y-2313996D02*
X16023887Y-2308117D01*
X21041048Y-3387974D02*
X21040456Y-3395929D01*
X16036337Y-4089481D02*
X16034193Y-4097165D01*
X20753402Y-6080135D02*
X20758496Y-6073996D01*
X12165998Y-6357999D02*
X12158758Y-6354653D01*
X18867498Y-6330184D02*
X18861423Y-6335353D01*
X16130034Y-2259063D02*
X16138006Y-2258767D01*
X12204185Y-6369165D02*
X12196345Y-6367694D01*
X9764193Y-2467165D02*
X9761672Y-2474732D01*
X9445100Y-6980215D02*
X9438544Y-6984759D01*
X15724687Y-6893336D02*
X15722734Y-6885603D01*
X16013402Y-2519865D02*
X16008618Y-2513482D01*
X18601166Y-3437782D02*
X18599987Y-3429893D01*
X15982734Y-2455603D02*
X15981166Y-2447782D01*
X9493887Y-2531883D02*
X9488496Y-2526004D01*
X12267545Y-3253187D02*
X12275254Y-3255235D01*
X15989728Y-2478467D02*
X15987021Y-2470964D01*
X14202803Y-6114173D02*
X14206239Y-6106974D01*
X16009029Y-6946703D02*
X16004089Y-6952966D01*
X18643887Y-3521883D02*
X18638496Y-3516004D01*
X9197021Y-3999036D02*
X9199728Y-3991533D01*
X20763887Y-3268117D02*
X20769562Y-3262512D01*
X16008618Y-5126518D02*
X16013402Y-5120135D01*
X12259744Y-3251522D02*
X12267545Y-3253187D01*
X18628618Y-3316518D02*
X18633402Y-3310135D01*
X20744156Y-6266870D02*
X20740026Y-6260046D01*
X16041048Y-4057974D02*
X16040456Y-4065929D01*
X20775507Y-6057194D02*
X20781708Y-6052177D01*
X20722734Y-6144397D02*
X20724688Y-6136663D01*
X14363943Y-6340641D02*
X14355982Y-6341134D01*
X9324185Y-3890835D02*
X9332088Y-3889753D01*
X18750035Y-3249063D02*
X18758006Y-3248767D01*
X14199728Y-3438467D02*
X14197021Y-3430964D01*
X18598804Y-6206012D02*
X18599199Y-6198045D01*
X9510456Y-4065929D02*
X9509472Y-4073844D01*
X18905523Y-6279448D02*
X18901911Y-6286559D01*
X15740026Y-6769954D02*
X15744156Y-6763129D01*
X9300932Y-4203598D02*
X9293396Y-4200983D01*
X18889029Y-3313297D02*
X18893654Y-3319796D01*
X14324185Y-3220835D02*
X14332088Y-3219753D01*
X15982734Y-5184397D02*
X15984687Y-5176664D01*
X9761672Y-2474732D02*
X9758780Y-2482166D01*
X12363653Y-3319796D02*
X12367951Y-3326516D01*
X14223402Y-6279865D02*
X14218618Y-6273482D01*
X18919472Y-3386155D02*
X18920456Y-3394071D01*
X9711423Y-5345353D02*
X9705100Y-5350215D01*
X16294193Y-2372835D02*
X16296337Y-2380518D01*
X9445100Y-4180215D02*
X9438544Y-4184759D01*
X15901870Y-4209755D02*
X15893943Y-4210641D01*
X14202803Y-6245827D02*
X14199728Y-6238467D01*
X15758496Y-6956004D02*
X15753402Y-6949865D01*
X15727021Y-6799036D02*
X15729728Y-6791533D01*
X17965000Y-4800000D02*
X17210000Y-4800000D01*
X16288780Y-2482166D02*
X16285523Y-2489448D01*
X14264816Y-3516908D02*
X14258150Y-3512528D01*
X15729728Y-4108467D02*
X15727021Y-4100964D01*
X12243943Y-6049359D02*
X12251870Y-6050245D01*
X12069199Y-3421955D02*
X12068804Y-3413988D01*
X14348006Y-6341233D02*
X14340034Y-6340937D01*
X16075998Y-2567999D02*
X16068758Y-2564653D01*
X10380000Y-4699950D02*
X10380000Y-4700150D01*
X16039472Y-4073844D02*
X16038098Y-4081702D01*
X15744156Y-4136870D02*
X15740026Y-4130046D01*
X15885982Y-7011134D02*
X15878006Y-7011233D01*
X14192734Y-3415603D02*
X14191166Y-3407782D01*
X12490000Y-4700150D02*
X12490000Y-4800000D01*
X18616239Y-6136974D02*
X18620026Y-6129954D01*
X15989728Y-5278467D02*
X15987021Y-5270964D01*
X14750000Y-3016667D02*
X14849900Y-3016667D01*
X14479029Y-3283297D02*
X14483653Y-3289796D01*
X9531691Y-2279047D02*
X9538758Y-2275347D01*
X9568588Y-5064163D02*
X9576345Y-5062306D01*
X16023887Y-5331883D02*
X16018496Y-5326004D01*
X14491911Y-3456559D02*
X14487951Y-3463484D01*
X16018496Y-5113996D02*
X16023887Y-5108117D01*
X9758780Y-5282166D02*
X9755523Y-5289448D01*
X12071166Y-3382218D02*
X12072734Y-3374397D01*
X14463310Y-3494720D02*
X14457498Y-3500184D01*
X12086239Y-6136974D02*
X12090026Y-6129954D01*
X12212088Y-3249753D02*
X12220034Y-3249063D01*
X14189986Y-3399893D02*
X14189199Y-3391955D01*
X21013654Y-3289796D02*
X21017951Y-3296516D01*
X14218618Y-3286518D02*
X14223402Y-3280135D01*
X12188588Y-6054163D02*
X12196345Y-6052306D01*
X12311771Y-6348973D02*
X12304798Y-6352847D01*
X16207643Y-5073629D02*
X16214798Y-5077153D01*
X14332088Y-3219753D02*
X14340034Y-3219063D01*
X14218618Y-6273482D02*
X14214156Y-6266870D01*
X12074687Y-6166663D02*
X12077021Y-6159036D01*
X14197021Y-3329036D02*
X14199728Y-3321533D01*
X9448804Y-2423988D02*
X9448804Y-2416012D01*
X18602734Y-6245603D02*
X18601166Y-6237782D01*
X16025523Y-3980552D02*
X16028780Y-3987834D01*
X16106345Y-2577694D02*
X16098588Y-2575837D01*
X15753402Y-6949865D02*
X15748618Y-6943482D01*
X14487951Y-3463484D02*
X14483653Y-3470204D01*
X12220034Y-6370937D02*
X12212088Y-6370247D01*
X12235982Y-3571134D02*
X12228006Y-3571233D01*
X15987021Y-5270964D02*
X15984687Y-5263336D01*
X14506337Y-3419481D02*
X14504193Y-3427165D01*
X12251870Y-6369755D02*
X12243943Y-6370641D01*
X20893943Y-6019359D02*
X20901870Y-6020245D01*
X9764193Y-5172835D02*
X9766337Y-5180518D01*
X18789744Y-3251522D02*
X18797545Y-3253187D01*
X12259744Y-3568478D02*
X12251870Y-3569755D01*
X14850100Y-2716667D02*
X14849900Y-2716667D01*
X18781870Y-6050245D02*
X18789744Y-6051522D01*
X9457021Y-2470964D02*
X9454688Y-2463336D01*
X9340035Y-4210937D02*
X9332088Y-4210247D01*
X9524816Y-5083092D02*
X9531691Y-5079047D01*
X9747951Y-5303484D02*
X9743654Y-5310204D01*
X16235100Y-5350215D02*
X16228544Y-5354759D01*
X9662852Y-2572337D02*
X9655254Y-2574765D01*
X12138150Y-6077472D02*
X12144816Y-6073092D01*
X20781708Y-6052177D02*
X20788150Y-6047472D01*
X9504193Y-4002835D02*
X9506337Y-4010518D01*
X15781708Y-3922177D02*
X15788150Y-3917472D01*
X20736239Y-6106974D02*
X20740026Y-6099954D01*
X18734185Y-3250835D02*
X18742088Y-3249753D01*
X9768098Y-5188298D02*
X9769472Y-5196155D01*
X14206239Y-6106974D02*
X14210026Y-6099954D01*
X12311771Y-6071027D02*
X12318544Y-6075241D01*
X16301245Y-5220000D02*
X16301048Y-5227974D01*
X16185254Y-2265235D02*
X16192852Y-2267663D01*
X12381672Y-3355267D02*
X12384193Y-3362835D01*
X14316345Y-3222306D02*
X14324185Y-3220835D01*
X14451423Y-3505353D02*
X14445100Y-3510215D01*
X14324185Y-6020835D02*
X14332088Y-6019753D01*
X9510456Y-4034071D02*
X9511048Y-4042026D01*
X9511708Y-2547823D02*
X9505507Y-2542806D01*
X12158758Y-3265347D02*
X12165998Y-3262001D01*
X18805254Y-6364765D02*
X18797545Y-6366813D01*
X16048150Y-2287472D02*
X16054816Y-2283092D01*
X12243943Y-3570641D02*
X12235982Y-3571134D01*
X18827643Y-3263629D02*
X18834799Y-3267153D01*
X18812852Y-6057663D02*
X18820321Y-6060463D01*
X9449199Y-5231955D02*
X9448804Y-5223988D01*
X16036337Y-4010518D02*
X16038098Y-4018298D01*
X9592088Y-2259753D02*
X9600035Y-2259063D01*
X12325100Y-6079785D02*
X12331423Y-6084647D01*
X9445100Y-3919785D02*
X9451423Y-3924647D01*
X14511048Y-6172026D02*
X14511245Y-6180000D01*
X20729728Y-3321533D02*
X20732804Y-3314173D01*
X14192734Y-6215603D02*
X14191166Y-6207782D01*
X14950000Y-2716667D02*
X14850100Y-2716667D01*
X9553396Y-2269017D02*
X9560932Y-2266402D01*
X18873310Y-6095279D02*
X18878845Y-6101023D01*
X16138006Y-2258767D02*
X16145982Y-2258866D01*
X14340034Y-3540937D02*
X14332088Y-3540247D01*
X16061691Y-5079047D02*
X16068758Y-5075347D01*
X18633402Y-3509865D02*
X18628618Y-3503482D01*
X9199728Y-3991533D02*
X9202804Y-3984173D01*
X18834799Y-6067153D02*
X18841771Y-6071027D01*
X14750000Y-6383333D02*
X14750000Y-5816667D01*
X18633402Y-6110135D02*
X18638496Y-6103996D01*
X12151691Y-3550953D02*
X12144816Y-3546908D01*
X20968544Y-6045241D02*
X20975100Y-6049785D01*
X18758006Y-6371233D02*
X18750035Y-6370937D01*
X14417643Y-6033629D02*
X14424798Y-6037153D01*
X9483402Y-2519865D02*
X9478618Y-2513482D01*
X20740026Y-3299954D02*
X20744156Y-3293129D01*
X15947643Y-6703629D02*
X15954798Y-6707153D01*
X14293396Y-3530983D02*
X14285998Y-3527999D01*
X10380000Y-4600000D02*
X10380000Y-4699950D01*
X16264089Y-5117034D02*
X16269029Y-5123297D01*
X15978804Y-2416012D02*
X15979199Y-2408045D01*
X20947643Y-3526371D02*
X20940321Y-3529537D01*
X12375523Y-3340552D02*
X12378780Y-3347834D01*
X9271691Y-3909047D02*
X9278758Y-3905347D01*
X12304798Y-6352847D02*
X12297643Y-6356371D01*
X20830932Y-6026402D02*
X20838588Y-6024163D01*
X14189199Y-3368045D02*
X14189986Y-3360107D01*
X15763887Y-3938117D02*
X15769562Y-3932512D01*
X18812852Y-6362337D02*
X18805254Y-6364765D01*
X9451166Y-5247782D02*
X9449987Y-5239893D01*
X12391048Y-6217974D02*
X12390456Y-6225929D01*
X14258150Y-6312528D02*
X14251708Y-6307823D01*
X18633402Y-3310135D02*
X18638496Y-3303996D01*
X18827643Y-6356371D02*
X18820321Y-6359537D01*
X16098588Y-2575837D02*
X16090932Y-2573598D01*
X18265000Y-4700150D02*
X18265000Y-4699950D01*
X9468845Y-6958976D02*
X9463310Y-6964720D01*
X9251708Y-6722177D02*
X9258150Y-6717472D01*
X12275254Y-6055235D02*
X12282852Y-6057663D01*
X9355982Y-6688866D02*
X9363943Y-6689359D01*
X9698544Y-2554759D02*
X9691771Y-2558973D01*
X15862088Y-4210247D02*
X15854185Y-4209165D01*
X18834799Y-3552847D02*
X18827643Y-3556371D01*
X20781708Y-6307823D02*
X20775507Y-6302806D01*
X15753402Y-3950135D02*
X15758496Y-3943996D01*
X9271691Y-6709047D02*
X9278758Y-6705347D01*
X14950000Y-7400000D02*
X21280000Y-7400000D01*
X14210026Y-6260046D02*
X14206239Y-6253026D01*
X15732803Y-6915827D02*
X15729728Y-6908467D01*
X14750000Y-5816667D02*
X14849900Y-5816667D01*
X9448804Y-5216012D02*
X9449199Y-5208045D01*
X9463310Y-6735279D02*
X9468845Y-6741023D01*
X15855000Y-4600000D02*
X15855000Y-4699950D01*
X20740026Y-6099954D02*
X20744156Y-6093129D01*
X9325000Y-4699950D02*
X9325000Y-4700150D01*
X14491911Y-3303440D02*
X14495523Y-3310552D01*
X12267545Y-6366813D02*
X12259744Y-6368478D01*
X18601166Y-6182218D02*
X18602734Y-6174397D01*
X16145982Y-2258866D02*
X16153943Y-2259359D01*
X9188804Y-4046012D02*
X9189199Y-4038045D01*
X18848544Y-3544759D02*
X18841771Y-3548973D01*
X14191166Y-6207782D02*
X14189986Y-6199893D01*
X9293396Y-6699017D02*
X9300932Y-6696402D01*
X16013653Y-3959796D02*
X16017951Y-3966516D01*
X12243943Y-3249359D02*
X12251870Y-3250245D01*
X18765982Y-6048866D02*
X18773943Y-6049359D01*
X14468845Y-3488976D02*
X14463310Y-3494720D01*
X21280000Y-7400000D02*
X21280000Y-4800000D01*
X9723310Y-2534721D02*
X9717498Y-2540184D01*
X20917545Y-3536813D02*
X20909744Y-3538478D01*
X20823396Y-6029017D02*
X20830932Y-6026402D01*
X12348845Y-3518976D02*
X12343310Y-3524720D01*
X12389472Y-6186155D02*
X12390456Y-6194071D01*
X18607021Y-6260964D02*
X18604688Y-6253336D01*
X18897951Y-3326516D02*
X18901911Y-3333440D01*
X12138150Y-3542528D02*
X12131708Y-3537823D01*
X16025523Y-6780552D02*
X16028780Y-6787834D01*
X16023887Y-2308117D02*
X16029562Y-2302512D01*
X21040456Y-6164071D02*
X21041048Y-6172026D01*
X12188588Y-6365837D02*
X12180932Y-6363598D01*
X9584185Y-5379165D02*
X9576345Y-5377694D01*
X16008618Y-2513482D02*
X16004156Y-2506870D01*
X14245507Y-3257194D02*
X14251708Y-3252177D01*
X9488496Y-2313996D02*
X9493887Y-2308117D01*
X9625000Y-4700150D02*
X9625000Y-4699950D01*
X21280000Y-2000000D02*
X14950000Y-2000000D01*
X9202804Y-3984173D02*
X9206239Y-3976974D01*
X9545998Y-2272001D02*
X9553396Y-2269017D01*
X17965000Y-4699950D02*
X17965000Y-4700150D01*
X18726345Y-3252306D02*
X18734185Y-3250835D01*
X13545000Y-4700150D02*
X13545000Y-4800000D01*
X15989728Y-5161533D02*
X15992803Y-5154173D01*
X16273653Y-5129796D02*
X16277951Y-5136516D01*
X20981423Y-6305353D02*
X20975100Y-6310215D01*
X15909744Y-3891522D02*
X15917545Y-3893187D01*
X16277951Y-2336516D02*
X16281911Y-2343440D01*
X14950000Y-3016667D02*
X14950000Y-3583333D01*
X12363653Y-6119796D02*
X12367951Y-6126516D01*
X14308588Y-3224163D02*
X14316345Y-3222306D01*
X12388098Y-6241702D02*
X12386337Y-6249481D01*
X15740026Y-6930046D02*
X15736239Y-6923026D01*
X9449987Y-2439893D02*
X9449199Y-2431955D01*
X14206239Y-6253026D02*
X14202803Y-6245827D01*
X18834799Y-6352847D02*
X18827643Y-6356371D01*
X12388098Y-6178298D02*
X12389472Y-6186155D01*
X20940321Y-3529537D02*
X20932852Y-3532337D01*
X18638496Y-3303996D02*
X18643887Y-3298117D01*
X21031672Y-3434732D02*
X21028780Y-3442166D01*
X9316345Y-6692306D02*
X9324185Y-6690835D01*
X12318544Y-3544759D02*
X12311771Y-3548973D01*
X15744156Y-3963129D02*
X15748618Y-3956518D01*
X21028780Y-3442166D02*
X21025523Y-3449448D01*
X21036337Y-6219481D02*
X21034193Y-6227165D01*
X16041708Y-5347823D02*
X16035507Y-5342806D01*
X20808758Y-6324653D02*
X20801691Y-6320953D01*
X11435000Y-4600000D02*
X11435000Y-4699950D01*
X9495523Y-6919448D02*
X9491911Y-6926559D01*
X20901870Y-3220245D02*
X20909744Y-3221522D01*
X20788150Y-3247472D02*
X20794816Y-3243092D01*
X17965000Y-4700150D02*
X17965000Y-4800000D01*
X9560932Y-2266402D02*
X9568588Y-2264163D01*
X16040456Y-4065929D02*
X16039472Y-4073844D01*
X9239562Y-6732512D02*
X9245507Y-6727194D01*
X18921048Y-6202026D02*
X18921245Y-6210000D01*
X11435000Y-4800000D02*
X10680000Y-4800000D01*
X9670321Y-5369537D02*
X9662852Y-5372337D01*
X11735000Y-4699950D02*
X11735000Y-4600000D01*
X9451423Y-6724647D02*
X9457498Y-6729816D01*
X9510456Y-6834071D02*
X9511048Y-6842026D01*
X18703396Y-3259017D02*
X18710932Y-3256402D01*
X18893654Y-3319796D02*
X18897951Y-3326516D01*
X16041048Y-4042026D02*
X16041245Y-4050000D01*
X18604688Y-6166663D02*
X18607021Y-6159036D01*
X9479029Y-6946703D02*
X9474089Y-6952966D01*
X18649562Y-6327488D02*
X18643887Y-6321883D01*
X18649562Y-6092512D02*
X18655507Y-6087194D01*
X15788150Y-6717472D02*
X15794816Y-6713092D01*
X15978804Y-5223988D02*
X15978804Y-5216012D01*
X9223402Y-3950135D02*
X9228496Y-3943996D01*
X16910000Y-4800000D02*
X16155000Y-4800000D01*
X12086239Y-3483026D02*
X12082803Y-3475827D01*
X15769562Y-6732512D02*
X15775507Y-6727194D01*
X12094156Y-6296870D02*
X12090026Y-6290046D01*
X18797545Y-6053187D02*
X18805254Y-6055235D01*
X18710932Y-6056402D02*
X18718588Y-6054163D01*
X9188804Y-6853988D02*
X9188804Y-6846012D01*
X15854185Y-6690835D02*
X15862088Y-6689753D01*
X14258150Y-3512528D02*
X14251708Y-3507823D01*
X16008618Y-5313482D02*
X16004156Y-5306870D01*
X18265000Y-4600000D02*
X19020000Y-4600000D01*
X12173396Y-3259017D02*
X12180932Y-3256402D01*
X9194688Y-6806663D02*
X9197021Y-6799036D01*
X15736239Y-4123026D02*
X15732803Y-4115827D01*
X12375523Y-6140552D02*
X12378780Y-6147834D01*
X20719199Y-3391955D02*
X20718804Y-3383988D01*
X20830932Y-3533598D02*
X20823396Y-3530983D01*
X18920456Y-3425929D02*
X18919472Y-3433844D01*
X12282852Y-6362337D02*
X12275254Y-6364765D01*
X9245507Y-4172806D02*
X9239562Y-4167488D01*
X9511245Y-6850000D02*
X9511048Y-6857974D01*
X21021911Y-3303440D02*
X21025523Y-3310552D01*
X18908780Y-3472166D02*
X18905523Y-3479448D01*
X9495523Y-6780552D02*
X9498780Y-6787834D01*
X16041708Y-2547823D02*
X16035507Y-2542806D01*
X16138006Y-2581233D02*
X16130034Y-2580937D01*
X14210026Y-3299954D02*
X14214156Y-3293129D01*
X18742088Y-3570247D02*
X18734185Y-3569165D01*
X12068804Y-3413988D02*
X12068804Y-3406012D01*
X9258150Y-3917472D02*
X9264816Y-3913092D01*
X9511708Y-5347823D02*
X9505507Y-5342806D01*
X18789744Y-6368478D02*
X18781870Y-6369755D01*
X9457498Y-6970184D02*
X9451423Y-6975353D01*
X14264816Y-6316908D02*
X14258150Y-6312528D01*
X9300932Y-7003598D02*
X9293396Y-7000983D01*
X18668150Y-6077472D02*
X18674816Y-6073092D01*
X16301048Y-5212026D02*
X16301245Y-5220000D01*
X14340034Y-6019063D02*
X14348006Y-6018767D01*
X16155000Y-4699950D02*
X16155000Y-4600000D01*
X12103402Y-6110135D02*
X12108496Y-6103996D01*
X9483654Y-6940204D02*
X9479029Y-6946703D01*
X9487951Y-4133484D02*
X9483654Y-4140204D01*
X9363943Y-6689359D02*
X9371870Y-6690245D01*
X15961771Y-6711027D02*
X15968544Y-6715241D01*
X16090932Y-2266402D02*
X16098588Y-2264163D01*
X15775507Y-4172806D02*
X15769562Y-4167488D01*
X16013402Y-5319865D02*
X16008618Y-5313482D01*
X20981423Y-3254647D02*
X20987498Y-3259816D01*
X20801691Y-3239047D02*
X20808758Y-3235347D01*
X18643887Y-6098117D02*
X18649562Y-6092512D01*
X18921245Y-6210000D02*
X18921048Y-6217974D01*
X9771245Y-5220000D02*
X9771048Y-5227974D01*
X20981423Y-6054647D02*
X20987498Y-6059816D01*
X9332088Y-6689753D02*
X9340035Y-6689063D01*
X12069199Y-6198045D02*
X12069986Y-6190107D01*
X15981423Y-3924647D02*
X15987498Y-3929816D01*
X20830932Y-3226402D02*
X20838588Y-3224163D01*
X14300932Y-6333598D02*
X14293396Y-6330983D01*
X16228544Y-2554759D02*
X16221771Y-2558973D01*
X18609728Y-3351533D02*
X18612804Y-3344173D01*
D11*
D10*
X9300000Y-4575000D02*
X9350000Y-4625000D01*
X9350000Y-4575000D02*
X9300000Y-4625000D01*
X9300000Y-4775000D02*
X9350000Y-4825000D01*
X9350000Y-4775000D02*
X9300000Y-4825000D01*
X9400000Y-4575000D02*
X9450000Y-4625000D01*
X9450000Y-4575000D02*
X9400000Y-4625000D01*
X9400000Y-4775000D02*
X9450000Y-4825000D01*
X9450000Y-4775000D02*
X9400000Y-4825000D01*
X9500000Y-4575000D02*
X9550000Y-4625000D01*
X9550000Y-4575000D02*
X9500000Y-4625000D01*
X9500000Y-4775000D02*
X9550000Y-4825000D01*
X9550000Y-4775000D02*
X9500000Y-4825000D01*
X9600000Y-4575000D02*
X9650000Y-4625000D01*
X9650000Y-4575000D02*
X9600000Y-4625000D01*
X9600000Y-4775000D02*
X9650000Y-4825000D01*
X9650000Y-4775000D02*
X9600000Y-4825000D01*
X10355000Y-4575000D02*
X10405000Y-4625000D01*
X10405000Y-4575000D02*
X10355000Y-4625000D01*
X10355000Y-4775000D02*
X10405000Y-4825000D01*
X10405000Y-4775000D02*
X10355000Y-4825000D01*
X10455000Y-4575000D02*
X10505000Y-4625000D01*
X10505000Y-4575000D02*
X10455000Y-4625000D01*
X10455000Y-4775000D02*
X10505000Y-4825000D01*
X10505000Y-4775000D02*
X10455000Y-4825000D01*
X10555000Y-4575000D02*
X10605000Y-4625000D01*
X10605000Y-4575000D02*
X10555000Y-4625000D01*
X10555000Y-4775000D02*
X10605000Y-4825000D01*
X10605000Y-4775000D02*
X10555000Y-4825000D01*
X10655000Y-4575000D02*
X10705000Y-4625000D01*
X10705000Y-4575000D02*
X10655000Y-4625000D01*
X10655000Y-4775000D02*
X10705000Y-4825000D01*
X10705000Y-4775000D02*
X10655000Y-4825000D01*
X11410000Y-4575000D02*
X11460000Y-4625000D01*
X11460000Y-4575000D02*
X11410000Y-4625000D01*
X11410000Y-4775000D02*
X11460000Y-4825000D01*
X11460000Y-4775000D02*
X11410000Y-4825000D01*
X11510000Y-4575000D02*
X11560000Y-4625000D01*
X11560000Y-4575000D02*
X11510000Y-4625000D01*
X11510000Y-4775000D02*
X11560000Y-4825000D01*
X11560000Y-4775000D02*
X11510000Y-4825000D01*
X11610000Y-4575000D02*
X11660000Y-4625000D01*
X11660000Y-4575000D02*
X11610000Y-4625000D01*
X11610000Y-4775000D02*
X11660000Y-4825000D01*
X11660000Y-4775000D02*
X11610000Y-4825000D01*
X11710000Y-4575000D02*
X11760000Y-4625000D01*
X11760000Y-4575000D02*
X11710000Y-4625000D01*
X11710000Y-4775000D02*
X11760000Y-4825000D01*
X11760000Y-4775000D02*
X11710000Y-4825000D01*
X12465000Y-4575000D02*
X12515000Y-4625000D01*
X12515000Y-4575000D02*
X12465000Y-4625000D01*
X12465000Y-4775000D02*
X12515000Y-4825000D01*
X12515000Y-4775000D02*
X12465000Y-4825000D01*
X12565000Y-4575000D02*
X12615000Y-4625000D01*
X12615000Y-4575000D02*
X12565000Y-4625000D01*
X12565000Y-4775000D02*
X12615000Y-4825000D01*
X12615000Y-4775000D02*
X12565000Y-4825000D01*
X12665000Y-4575000D02*
X12715000Y-4625000D01*
X12715000Y-4575000D02*
X12665000Y-4625000D01*
X12665000Y-4775000D02*
X12715000Y-4825000D01*
X12715000Y-4775000D02*
X12665000Y-4825000D01*
X12765000Y-4575000D02*
X12815000Y-4625000D01*
X12815000Y-4575000D02*
X12765000Y-4625000D01*
X12765000Y-4775000D02*
X12815000Y-4825000D01*
X12815000Y-4775000D02*
X12765000Y-4825000D01*
X13520000Y-4575000D02*
X13570000Y-4625000D01*
X13570000Y-4575000D02*
X13520000Y-4625000D01*
X13520000Y-4775000D02*
X13570000Y-4825000D01*
X13570000Y-4775000D02*
X13520000Y-4825000D01*
X13620000Y-4575000D02*
X13670000Y-4625000D01*
X13670000Y-4575000D02*
X13620000Y-4625000D01*
X13620000Y-4775000D02*
X13670000Y-4825000D01*
X13670000Y-4775000D02*
X13620000Y-4825000D01*
X13720000Y-4575000D02*
X13770000Y-4625000D01*
X13770000Y-4575000D02*
X13720000Y-4625000D01*
X13720000Y-4775000D02*
X13770000Y-4825000D01*
X13770000Y-4775000D02*
X13720000Y-4825000D01*
X13820000Y-4575000D02*
X13870000Y-4625000D01*
X13870000Y-4575000D02*
X13820000Y-4625000D01*
X13820000Y-4775000D02*
X13870000Y-4825000D01*
X13870000Y-4775000D02*
X13820000Y-4825000D01*
X14725000Y-2691667D02*
X14775000Y-2741667D01*
X14775000Y-2691667D02*
X14725000Y-2741667D01*
X14725000Y-2791667D02*
X14775000Y-2841667D01*
X14775000Y-2791667D02*
X14725000Y-2841667D01*
X14725000Y-2891667D02*
X14775000Y-2941667D01*
X14775000Y-2891667D02*
X14725000Y-2941667D01*
X14725000Y-2991667D02*
X14775000Y-3041667D01*
X14775000Y-2991667D02*
X14725000Y-3041667D01*
X14725000Y-3558333D02*
X14775000Y-3608333D01*
X14775000Y-3558333D02*
X14725000Y-3608333D01*
X14725000Y-3658333D02*
X14775000Y-3708333D01*
X14775000Y-3658333D02*
X14725000Y-3708333D01*
X14725000Y-3758333D02*
X14775000Y-3808333D01*
X14775000Y-3758333D02*
X14725000Y-3808333D01*
X14725000Y-3858333D02*
X14775000Y-3908333D01*
X14775000Y-3858333D02*
X14725000Y-3908333D01*
X14725000Y-5491667D02*
X14775000Y-5541667D01*
X14775000Y-5491667D02*
X14725000Y-5541667D01*
X14725000Y-5591667D02*
X14775000Y-5641667D01*
X14775000Y-5591667D02*
X14725000Y-5641667D01*
X14725000Y-5691667D02*
X14775000Y-5741667D01*
X14775000Y-5691667D02*
X14725000Y-5741667D01*
X14725000Y-5791667D02*
X14775000Y-5841667D01*
X14775000Y-5791667D02*
X14725000Y-5841667D01*
X14725000Y-6358333D02*
X14775000Y-6408333D01*
X14775000Y-6358333D02*
X14725000Y-6408333D01*
X14725000Y-6458333D02*
X14775000Y-6508333D01*
X14775000Y-6458333D02*
X14725000Y-6508333D01*
X14725000Y-6558333D02*
X14775000Y-6608333D01*
X14775000Y-6558333D02*
X14725000Y-6608333D01*
X14725000Y-6658333D02*
X14775000Y-6708333D01*
X14775000Y-6658333D02*
X14725000Y-6708333D01*
X14925000Y-2691667D02*
X14975000Y-2741667D01*
X14975000Y-2691667D02*
X14925000Y-2741667D01*
X14925000Y-2791667D02*
X14975000Y-2841667D01*
X14975000Y-2791667D02*
X14925000Y-2841667D01*
X14925000Y-2891667D02*
X14975000Y-2941667D01*
X14975000Y-2891667D02*
X14925000Y-2941667D01*
X14925000Y-2991667D02*
X14975000Y-3041667D01*
X14975000Y-2991667D02*
X14925000Y-3041667D01*
X14925000Y-3558333D02*
X14975000Y-3608333D01*
X14975000Y-3558333D02*
X14925000Y-3608333D01*
X14925000Y-3658333D02*
X14975000Y-3708333D01*
X14975000Y-3658333D02*
X14925000Y-3708333D01*
X14925000Y-3758333D02*
X14975000Y-3808333D01*
X14975000Y-3758333D02*
X14925000Y-3808333D01*
X14925000Y-3858333D02*
X14975000Y-3908333D01*
X14975000Y-3858333D02*
X14925000Y-3908333D01*
X14925000Y-5491667D02*
X14975000Y-5541667D01*
X14975000Y-5491667D02*
X14925000Y-5541667D01*
X14925000Y-5591667D02*
X14975000Y-5641667D01*
X14975000Y-5591667D02*
X14925000Y-5641667D01*
X14925000Y-5691667D02*
X14975000Y-5741667D01*
X14975000Y-5691667D02*
X14925000Y-5741667D01*
X14925000Y-5791667D02*
X14975000Y-5841667D01*
X14975000Y-5791667D02*
X14925000Y-5841667D01*
X14925000Y-6358333D02*
X14975000Y-6408333D01*
X14975000Y-6358333D02*
X14925000Y-6408333D01*
X14925000Y-6458333D02*
X14975000Y-6508333D01*
X14975000Y-6458333D02*
X14925000Y-6508333D01*
X14925000Y-6558333D02*
X14975000Y-6608333D01*
X14975000Y-6558333D02*
X14925000Y-6608333D01*
X14925000Y-6658333D02*
X14975000Y-6708333D01*
X14975000Y-6658333D02*
X14925000Y-6708333D01*
X15830000Y-4575000D02*
X15880000Y-4625000D01*
X15880000Y-4575000D02*
X15830000Y-4625000D01*
X15830000Y-4775000D02*
X15880000Y-4825000D01*
X15880000Y-4775000D02*
X15830000Y-4825000D01*
X15930000Y-4575000D02*
X15980000Y-4625000D01*
X15980000Y-4575000D02*
X15930000Y-4625000D01*
X15930000Y-4775000D02*
X15980000Y-4825000D01*
X15980000Y-4775000D02*
X15930000Y-4825000D01*
X16030000Y-4575000D02*
X16080000Y-4625000D01*
X16080000Y-4575000D02*
X16030000Y-4625000D01*
X16030000Y-4775000D02*
X16080000Y-4825000D01*
X16080000Y-4775000D02*
X16030000Y-4825000D01*
X16130000Y-4575000D02*
X16180000Y-4625000D01*
X16180000Y-4575000D02*
X16130000Y-4625000D01*
X16130000Y-4775000D02*
X16180000Y-4825000D01*
X16180000Y-4775000D02*
X16130000Y-4825000D01*
X16885000Y-4575000D02*
X16935000Y-4625000D01*
X16935000Y-4575000D02*
X16885000Y-4625000D01*
X16885000Y-4775000D02*
X16935000Y-4825000D01*
X16935000Y-4775000D02*
X16885000Y-4825000D01*
X16985000Y-4575000D02*
X17035000Y-4625000D01*
X17035000Y-4575000D02*
X16985000Y-4625000D01*
X16985000Y-4775000D02*
X17035000Y-4825000D01*
X17035000Y-4775000D02*
X16985000Y-4825000D01*
X17085000Y-4575000D02*
X17135000Y-4625000D01*
X17135000Y-4575000D02*
X17085000Y-4625000D01*
X17085000Y-4775000D02*
X17135000Y-4825000D01*
X17135000Y-4775000D02*
X17085000Y-4825000D01*
X17185000Y-4575000D02*
X17235000Y-4625000D01*
X17235000Y-4575000D02*
X17185000Y-4625000D01*
X17185000Y-4775000D02*
X17235000Y-4825000D01*
X17235000Y-4775000D02*
X17185000Y-4825000D01*
X17940000Y-4575000D02*
X17990000Y-4625000D01*
X17990000Y-4575000D02*
X17940000Y-4625000D01*
X17940000Y-4775000D02*
X17990000Y-4825000D01*
X17990000Y-4775000D02*
X17940000Y-4825000D01*
X18040000Y-4575000D02*
X18090000Y-4625000D01*
X18090000Y-4575000D02*
X18040000Y-4625000D01*
X18040000Y-4775000D02*
X18090000Y-4825000D01*
X18090000Y-4775000D02*
X18040000Y-4825000D01*
X18140000Y-4575000D02*
X18190000Y-4625000D01*
X18190000Y-4575000D02*
X18140000Y-4625000D01*
X18140000Y-4775000D02*
X18190000Y-4825000D01*
X18190000Y-4775000D02*
X18140000Y-4825000D01*
X18240000Y-4575000D02*
X18290000Y-4625000D01*
X18290000Y-4575000D02*
X18240000Y-4625000D01*
X18240000Y-4775000D02*
X18290000Y-4825000D01*
X18290000Y-4775000D02*
X18240000Y-4825000D01*
X18995000Y-4575000D02*
X19045000Y-4625000D01*
X19045000Y-4575000D02*
X18995000Y-4625000D01*
X18995000Y-4775000D02*
X19045000Y-4825000D01*
X19045000Y-4775000D02*
X18995000Y-4825000D01*
X19095000Y-4575000D02*
X19145000Y-4625000D01*
X19145000Y-4575000D02*
X19095000Y-4625000D01*
X19095000Y-4775000D02*
X19145000Y-4825000D01*
X19145000Y-4775000D02*
X19095000Y-4825000D01*
X19195000Y-4575000D02*
X19245000Y-4625000D01*
X19245000Y-4575000D02*
X19195000Y-4625000D01*
X19195000Y-4775000D02*
X19245000Y-4825000D01*
X19245000Y-4775000D02*
X19195000Y-4825000D01*
X19295000Y-4575000D02*
X19345000Y-4625000D01*
X19345000Y-4575000D02*
X19295000Y-4625000D01*
X19295000Y-4775000D02*
X19345000Y-4825000D01*
X19345000Y-4775000D02*
X19295000Y-4825000D01*
X20050000Y-4575000D02*
X20100000Y-4625000D01*
X20100000Y-4575000D02*
X20050000Y-4625000D01*
X20050000Y-4775000D02*
X20100000Y-4825000D01*
X20100000Y-4775000D02*
X20050000Y-4825000D01*
X20150000Y-4575000D02*
X20200000Y-4625000D01*
X20200000Y-4575000D02*
X20150000Y-4625000D01*
X20150000Y-4775000D02*
X20200000Y-4825000D01*
X20200000Y-4775000D02*
X20150000Y-4825000D01*
X20250000Y-4575000D02*
X20300000Y-4625000D01*
X20300000Y-4575000D02*
X20250000Y-4625000D01*
X20250000Y-4775000D02*
X20300000Y-4825000D01*
X20300000Y-4775000D02*
X20250000Y-4825000D01*
X20350000Y-4575000D02*
X20400000Y-4625000D01*
X20400000Y-4575000D02*
X20350000Y-4625000D01*
X20350000Y-4775000D02*
X20400000Y-4825000D01*
X20400000Y-4775000D02*
X20350000Y-4825000D01*
D11*
X8675777Y-7716484D02*
X8675777Y-7516484D01*
X8675777Y-7516484D02*
X8723396Y-7516484D01*
X8723396Y-7516484D02*
X8751967Y-7526008D01*
X8751967Y-7526008D02*
X8771015Y-7545055D01*
X8771015Y-7545055D02*
X8780539Y-7564103D01*
X8780539Y-7564103D02*
X8790063Y-7602198D01*
X8790063Y-7602198D02*
X8790063Y-7630769D01*
X8790063Y-7630769D02*
X8780539Y-7668865D01*
X8780539Y-7668865D02*
X8771015Y-7687912D01*
X8771015Y-7687912D02*
X8751967Y-7706960D01*
X8751967Y-7706960D02*
X8723396Y-7716484D01*
X8723396Y-7716484D02*
X8675777Y-7716484D01*
X8875777Y-7716484D02*
X8875777Y-7583150D01*
X8875777Y-7621246D02*
X8885301Y-7602198D01*
X8885301Y-7602198D02*
X8894824Y-7592674D01*
X8894824Y-7592674D02*
X8913872Y-7583150D01*
X8913872Y-7583150D02*
X8932920Y-7583150D01*
X8999586Y-7716484D02*
X8999586Y-7583150D01*
X8999586Y-7516484D02*
X8990063Y-7526008D01*
X8990063Y-7526008D02*
X8999586Y-7535531D01*
X8999586Y-7535531D02*
X9009110Y-7526008D01*
X9009110Y-7526008D02*
X8999586Y-7516484D01*
X8999586Y-7516484D02*
X8999586Y-7535531D01*
X9123396Y-7716484D02*
X9104348Y-7706960D01*
X9104348Y-7706960D02*
X9094824Y-7687912D01*
X9094824Y-7687912D02*
X9094824Y-7516484D01*
X9228158Y-7716484D02*
X9209110Y-7706960D01*
X9209110Y-7706960D02*
X9199586Y-7687912D01*
X9199586Y-7687912D02*
X9199586Y-7516484D01*
X9456729Y-7716484D02*
X9456729Y-7516484D01*
X9456729Y-7516484D02*
X9523396Y-7659341D01*
X9523396Y-7659341D02*
X9590063Y-7516484D01*
X9590063Y-7516484D02*
X9590063Y-7716484D01*
X9771015Y-7716484D02*
X9771015Y-7611722D01*
X9771015Y-7611722D02*
X9761491Y-7592674D01*
X9761491Y-7592674D02*
X9742444Y-7583150D01*
X9742444Y-7583150D02*
X9704348Y-7583150D01*
X9704348Y-7583150D02*
X9685301Y-7592674D01*
X9771015Y-7706960D02*
X9751967Y-7716484D01*
X9751967Y-7716484D02*
X9704348Y-7716484D01*
X9704348Y-7716484D02*
X9685301Y-7706960D01*
X9685301Y-7706960D02*
X9675777Y-7687912D01*
X9675777Y-7687912D02*
X9675777Y-7668865D01*
X9675777Y-7668865D02*
X9685301Y-7649817D01*
X9685301Y-7649817D02*
X9704348Y-7640293D01*
X9704348Y-7640293D02*
X9751967Y-7640293D01*
X9751967Y-7640293D02*
X9771015Y-7630769D01*
X9866253Y-7583150D02*
X9866253Y-7783150D01*
X9866253Y-7592674D02*
X9885301Y-7583150D01*
X9885301Y-7583150D02*
X9923396Y-7583150D01*
X9923396Y-7583150D02*
X9942444Y-7592674D01*
X9942444Y-7592674D02*
X9951967Y-7602198D01*
X9951967Y-7602198D02*
X9961491Y-7621246D01*
X9961491Y-7621246D02*
X9961491Y-7678388D01*
X9961491Y-7678388D02*
X9951967Y-7697436D01*
X9951967Y-7697436D02*
X9942444Y-7706960D01*
X9942444Y-7706960D02*
X9923396Y-7716484D01*
X9923396Y-7716484D02*
X9885301Y-7716484D01*
X9885301Y-7716484D02*
X9866253Y-7706960D01*
X10047205Y-7697436D02*
X10056729Y-7706960D01*
X10056729Y-7706960D02*
X10047205Y-7716484D01*
X10047205Y-7716484D02*
X10037682Y-7706960D01*
X10037682Y-7706960D02*
X10047205Y-7697436D01*
X10047205Y-7697436D02*
X10047205Y-7716484D01*
X10047205Y-7592674D02*
X10056729Y-7602198D01*
X10056729Y-7602198D02*
X10047205Y-7611722D01*
X10047205Y-7611722D02*
X10037682Y-7602198D01*
X10037682Y-7602198D02*
X10047205Y-7592674D01*
X10047205Y-7592674D02*
X10047205Y-7611722D01*
D10*
X8365000Y-8020000D02*
X8415000Y-8070000D01*
X8415000Y-8020000D02*
X8365000Y-8070000D01*
D11*
X8713872Y-7936484D02*
X8732920Y-7936484D01*
X8732920Y-7936484D02*
X8751967Y-7946008D01*
X8751967Y-7946008D02*
X8761491Y-7955531D01*
X8761491Y-7955531D02*
X8771015Y-7974579D01*
X8771015Y-7974579D02*
X8780539Y-8012674D01*
X8780539Y-8012674D02*
X8780539Y-8060293D01*
X8780539Y-8060293D02*
X8771015Y-8098388D01*
X8771015Y-8098388D02*
X8761491Y-8117436D01*
X8761491Y-8117436D02*
X8751967Y-8126960D01*
X8751967Y-8126960D02*
X8732920Y-8136484D01*
X8732920Y-8136484D02*
X8713872Y-8136484D01*
X8713872Y-8136484D02*
X8694824Y-8126960D01*
X8694824Y-8126960D02*
X8685301Y-8117436D01*
X8685301Y-8117436D02*
X8675777Y-8098388D01*
X8675777Y-8098388D02*
X8666253Y-8060293D01*
X8666253Y-8060293D02*
X8666253Y-8012674D01*
X8666253Y-8012674D02*
X8675777Y-7974579D01*
X8675777Y-7974579D02*
X8685301Y-7955531D01*
X8685301Y-7955531D02*
X8694824Y-7946008D01*
X8694824Y-7946008D02*
X8713872Y-7936484D01*
X8866253Y-8117436D02*
X8875777Y-8126960D01*
X8875777Y-8126960D02*
X8866253Y-8136484D01*
X8866253Y-8136484D02*
X8856729Y-8126960D01*
X8856729Y-8126960D02*
X8866253Y-8117436D01*
X8866253Y-8117436D02*
X8866253Y-8136484D01*
X9056729Y-7936484D02*
X8961491Y-7936484D01*
X8961491Y-7936484D02*
X8951967Y-8031722D01*
X8951967Y-8031722D02*
X8961491Y-8022198D01*
X8961491Y-8022198D02*
X8980539Y-8012674D01*
X8980539Y-8012674D02*
X9028158Y-8012674D01*
X9028158Y-8012674D02*
X9047205Y-8022198D01*
X9047205Y-8022198D02*
X9056729Y-8031722D01*
X9056729Y-8031722D02*
X9066253Y-8050769D01*
X9066253Y-8050769D02*
X9066253Y-8098388D01*
X9066253Y-8098388D02*
X9056729Y-8117436D01*
X9056729Y-8117436D02*
X9047205Y-8126960D01*
X9047205Y-8126960D02*
X9028158Y-8136484D01*
X9028158Y-8136484D02*
X8980539Y-8136484D01*
X8980539Y-8136484D02*
X8961491Y-8126960D01*
X8961491Y-8126960D02*
X8951967Y-8117436D01*
X9190063Y-7936484D02*
X9209110Y-7936484D01*
X9209110Y-7936484D02*
X9228158Y-7946008D01*
X9228158Y-7946008D02*
X9237682Y-7955531D01*
X9237682Y-7955531D02*
X9247205Y-7974579D01*
X9247205Y-7974579D02*
X9256729Y-8012674D01*
X9256729Y-8012674D02*
X9256729Y-8060293D01*
X9256729Y-8060293D02*
X9247205Y-8098388D01*
X9247205Y-8098388D02*
X9237682Y-8117436D01*
X9237682Y-8117436D02*
X9228158Y-8126960D01*
X9228158Y-8126960D02*
X9209110Y-8136484D01*
X9209110Y-8136484D02*
X9190063Y-8136484D01*
X9190063Y-8136484D02*
X9171015Y-8126960D01*
X9171015Y-8126960D02*
X9161491Y-8117436D01*
X9161491Y-8117436D02*
X9151967Y-8098388D01*
X9151967Y-8098388D02*
X9142444Y-8060293D01*
X9142444Y-8060293D02*
X9142444Y-8012674D01*
X9142444Y-8012674D02*
X9151967Y-7974579D01*
X9151967Y-7974579D02*
X9161491Y-7955531D01*
X9161491Y-7955531D02*
X9171015Y-7946008D01*
X9171015Y-7946008D02*
X9190063Y-7936484D01*
X9380539Y-7936484D02*
X9399586Y-7936484D01*
X9399586Y-7936484D02*
X9418634Y-7946008D01*
X9418634Y-7946008D02*
X9428158Y-7955531D01*
X9428158Y-7955531D02*
X9437682Y-7974579D01*
X9437682Y-7974579D02*
X9447205Y-8012674D01*
X9447205Y-8012674D02*
X9447205Y-8060293D01*
X9447205Y-8060293D02*
X9437682Y-8098388D01*
X9437682Y-8098388D02*
X9428158Y-8117436D01*
X9428158Y-8117436D02*
X9418634Y-8126960D01*
X9418634Y-8126960D02*
X9399586Y-8136484D01*
X9399586Y-8136484D02*
X9380539Y-8136484D01*
X9380539Y-8136484D02*
X9361491Y-8126960D01*
X9361491Y-8126960D02*
X9351967Y-8117436D01*
X9351967Y-8117436D02*
X9342444Y-8098388D01*
X9342444Y-8098388D02*
X9332920Y-8060293D01*
X9332920Y-8060293D02*
X9332920Y-8012674D01*
X9332920Y-8012674D02*
X9342444Y-7974579D01*
X9342444Y-7974579D02*
X9351967Y-7955531D01*
X9351967Y-7955531D02*
X9361491Y-7946008D01*
X9361491Y-7946008D02*
X9380539Y-7936484D01*
X9532920Y-8136484D02*
X9532920Y-8003150D01*
X9532920Y-8022198D02*
X9542444Y-8012674D01*
X9542444Y-8012674D02*
X9561491Y-8003150D01*
X9561491Y-8003150D02*
X9590063Y-8003150D01*
X9590063Y-8003150D02*
X9609110Y-8012674D01*
X9609110Y-8012674D02*
X9618634Y-8031722D01*
X9618634Y-8031722D02*
X9618634Y-8136484D01*
X9618634Y-8031722D02*
X9628158Y-8012674D01*
X9628158Y-8012674D02*
X9647205Y-8003150D01*
X9647205Y-8003150D02*
X9675777Y-8003150D01*
X9675777Y-8003150D02*
X9694825Y-8012674D01*
X9694825Y-8012674D02*
X9704348Y-8031722D01*
X9704348Y-8031722D02*
X9704348Y-8136484D01*
X9799586Y-8136484D02*
X9799586Y-8003150D01*
X9799586Y-8022198D02*
X9809110Y-8012674D01*
X9809110Y-8012674D02*
X9828158Y-8003150D01*
X9828158Y-8003150D02*
X9856729Y-8003150D01*
X9856729Y-8003150D02*
X9875777Y-8012674D01*
X9875777Y-8012674D02*
X9885301Y-8031722D01*
X9885301Y-8031722D02*
X9885301Y-8136484D01*
X9885301Y-8031722D02*
X9894825Y-8012674D01*
X9894825Y-8012674D02*
X9913872Y-8003150D01*
X9913872Y-8003150D02*
X9942444Y-8003150D01*
X9942444Y-8003150D02*
X9961491Y-8012674D01*
X9961491Y-8012674D02*
X9971015Y-8031722D01*
X9971015Y-8031722D02*
X9971015Y-8136484D01*
X10361491Y-7926960D02*
X10190063Y-8184103D01*
X10618634Y-7936484D02*
X10637682Y-7936484D01*
X10637682Y-7936484D02*
X10656729Y-7946008D01*
X10656729Y-7946008D02*
X10666253Y-7955531D01*
X10666253Y-7955531D02*
X10675777Y-7974579D01*
X10675777Y-7974579D02*
X10685301Y-8012674D01*
X10685301Y-8012674D02*
X10685301Y-8060293D01*
X10685301Y-8060293D02*
X10675777Y-8098388D01*
X10675777Y-8098388D02*
X10666253Y-8117436D01*
X10666253Y-8117436D02*
X10656729Y-8126960D01*
X10656729Y-8126960D02*
X10637682Y-8136484D01*
X10637682Y-8136484D02*
X10618634Y-8136484D01*
X10618634Y-8136484D02*
X10599587Y-8126960D01*
X10599587Y-8126960D02*
X10590063Y-8117436D01*
X10590063Y-8117436D02*
X10580539Y-8098388D01*
X10580539Y-8098388D02*
X10571015Y-8060293D01*
X10571015Y-8060293D02*
X10571015Y-8012674D01*
X10571015Y-8012674D02*
X10580539Y-7974579D01*
X10580539Y-7974579D02*
X10590063Y-7955531D01*
X10590063Y-7955531D02*
X10599587Y-7946008D01*
X10599587Y-7946008D02*
X10618634Y-7936484D01*
X10771015Y-8117436D02*
X10780539Y-8126960D01*
X10780539Y-8126960D02*
X10771015Y-8136484D01*
X10771015Y-8136484D02*
X10761491Y-8126960D01*
X10761491Y-8126960D02*
X10771015Y-8117436D01*
X10771015Y-8117436D02*
X10771015Y-8136484D01*
X10904348Y-7936484D02*
X10923396Y-7936484D01*
X10923396Y-7936484D02*
X10942444Y-7946008D01*
X10942444Y-7946008D02*
X10951968Y-7955531D01*
X10951968Y-7955531D02*
X10961491Y-7974579D01*
X10961491Y-7974579D02*
X10971015Y-8012674D01*
X10971015Y-8012674D02*
X10971015Y-8060293D01*
X10971015Y-8060293D02*
X10961491Y-8098388D01*
X10961491Y-8098388D02*
X10951968Y-8117436D01*
X10951968Y-8117436D02*
X10942444Y-8126960D01*
X10942444Y-8126960D02*
X10923396Y-8136484D01*
X10923396Y-8136484D02*
X10904348Y-8136484D01*
X10904348Y-8136484D02*
X10885301Y-8126960D01*
X10885301Y-8126960D02*
X10875777Y-8117436D01*
X10875777Y-8117436D02*
X10866253Y-8098388D01*
X10866253Y-8098388D02*
X10856729Y-8060293D01*
X10856729Y-8060293D02*
X10856729Y-8012674D01*
X10856729Y-8012674D02*
X10866253Y-7974579D01*
X10866253Y-7974579D02*
X10875777Y-7955531D01*
X10875777Y-7955531D02*
X10885301Y-7946008D01*
X10885301Y-7946008D02*
X10904348Y-7936484D01*
X11161491Y-8136484D02*
X11047206Y-8136484D01*
X11104348Y-8136484D02*
X11104348Y-7936484D01*
X11104348Y-7936484D02*
X11085301Y-7965055D01*
X11085301Y-7965055D02*
X11066253Y-7984103D01*
X11066253Y-7984103D02*
X11047206Y-7993627D01*
X11256729Y-8136484D02*
X11294825Y-8136484D01*
X11294825Y-8136484D02*
X11313872Y-8126960D01*
X11313872Y-8126960D02*
X11323396Y-8117436D01*
X11323396Y-8117436D02*
X11342444Y-8088865D01*
X11342444Y-8088865D02*
X11351967Y-8050769D01*
X11351967Y-8050769D02*
X11351967Y-7974579D01*
X11351967Y-7974579D02*
X11342444Y-7955531D01*
X11342444Y-7955531D02*
X11332920Y-7946008D01*
X11332920Y-7946008D02*
X11313872Y-7936484D01*
X11313872Y-7936484D02*
X11275777Y-7936484D01*
X11275777Y-7936484D02*
X11256729Y-7946008D01*
X11256729Y-7946008D02*
X11247206Y-7955531D01*
X11247206Y-7955531D02*
X11237682Y-7974579D01*
X11237682Y-7974579D02*
X11237682Y-8022198D01*
X11237682Y-8022198D02*
X11247206Y-8041246D01*
X11247206Y-8041246D02*
X11256729Y-8050769D01*
X11256729Y-8050769D02*
X11275777Y-8060293D01*
X11275777Y-8060293D02*
X11313872Y-8060293D01*
X11313872Y-8060293D02*
X11332920Y-8050769D01*
X11332920Y-8050769D02*
X11342444Y-8041246D01*
X11342444Y-8041246D02*
X11351967Y-8022198D01*
X11418634Y-7936484D02*
X11551967Y-7936484D01*
X11551967Y-7936484D02*
X11466253Y-8136484D01*
X11618634Y-7936484D02*
X11618634Y-7974579D01*
X11694825Y-7936484D02*
X11694825Y-7974579D01*
X11990063Y-8212674D02*
X11980539Y-8203150D01*
X11980539Y-8203150D02*
X11961491Y-8174579D01*
X11961491Y-8174579D02*
X11951968Y-8155531D01*
X11951968Y-8155531D02*
X11942444Y-8126960D01*
X11942444Y-8126960D02*
X11932920Y-8079341D01*
X11932920Y-8079341D02*
X11932920Y-8041246D01*
X11932920Y-8041246D02*
X11942444Y-7993627D01*
X11942444Y-7993627D02*
X11951968Y-7965055D01*
X11951968Y-7965055D02*
X11961491Y-7946008D01*
X11961491Y-7946008D02*
X11980539Y-7917436D01*
X11980539Y-7917436D02*
X11990063Y-7907912D01*
X12171015Y-8136484D02*
X12056729Y-8136484D01*
X12113872Y-8136484D02*
X12113872Y-7936484D01*
X12113872Y-7936484D02*
X12094825Y-7965055D01*
X12094825Y-7965055D02*
X12075777Y-7984103D01*
X12075777Y-7984103D02*
X12056729Y-7993627D01*
X12361491Y-8136484D02*
X12247206Y-8136484D01*
X12304348Y-8136484D02*
X12304348Y-7936484D01*
X12304348Y-7936484D02*
X12285301Y-7965055D01*
X12285301Y-7965055D02*
X12266253Y-7984103D01*
X12266253Y-7984103D02*
X12247206Y-7993627D01*
X12437682Y-7955531D02*
X12447206Y-7946008D01*
X12447206Y-7946008D02*
X12466253Y-7936484D01*
X12466253Y-7936484D02*
X12513872Y-7936484D01*
X12513872Y-7936484D02*
X12532920Y-7946008D01*
X12532920Y-7946008D02*
X12542444Y-7955531D01*
X12542444Y-7955531D02*
X12551968Y-7974579D01*
X12551968Y-7974579D02*
X12551968Y-7993627D01*
X12551968Y-7993627D02*
X12542444Y-8022198D01*
X12542444Y-8022198D02*
X12428158Y-8136484D01*
X12428158Y-8136484D02*
X12551968Y-8136484D01*
X12790063Y-8136484D02*
X12790063Y-7936484D01*
X12875777Y-8136484D02*
X12875777Y-8031722D01*
X12875777Y-8031722D02*
X12866253Y-8012674D01*
X12866253Y-8012674D02*
X12847206Y-8003150D01*
X12847206Y-8003150D02*
X12818634Y-8003150D01*
X12818634Y-8003150D02*
X12799587Y-8012674D01*
X12799587Y-8012674D02*
X12790063Y-8022198D01*
X12999587Y-8136484D02*
X12980539Y-8126960D01*
X12980539Y-8126960D02*
X12971015Y-8117436D01*
X12971015Y-8117436D02*
X12961491Y-8098388D01*
X12961491Y-8098388D02*
X12961491Y-8041246D01*
X12961491Y-8041246D02*
X12971015Y-8022198D01*
X12971015Y-8022198D02*
X12980539Y-8012674D01*
X12980539Y-8012674D02*
X12999587Y-8003150D01*
X12999587Y-8003150D02*
X13028158Y-8003150D01*
X13028158Y-8003150D02*
X13047206Y-8012674D01*
X13047206Y-8012674D02*
X13056730Y-8022198D01*
X13056730Y-8022198D02*
X13066253Y-8041246D01*
X13066253Y-8041246D02*
X13066253Y-8098388D01*
X13066253Y-8098388D02*
X13056730Y-8117436D01*
X13056730Y-8117436D02*
X13047206Y-8126960D01*
X13047206Y-8126960D02*
X13028158Y-8136484D01*
X13028158Y-8136484D02*
X12999587Y-8136484D01*
X13180539Y-8136484D02*
X13161491Y-8126960D01*
X13161491Y-8126960D02*
X13151968Y-8107912D01*
X13151968Y-8107912D02*
X13151968Y-7936484D01*
X13332920Y-8126960D02*
X13313872Y-8136484D01*
X13313872Y-8136484D02*
X13275777Y-8136484D01*
X13275777Y-8136484D02*
X13256730Y-8126960D01*
X13256730Y-8126960D02*
X13247206Y-8107912D01*
X13247206Y-8107912D02*
X13247206Y-8031722D01*
X13247206Y-8031722D02*
X13256730Y-8012674D01*
X13256730Y-8012674D02*
X13275777Y-8003150D01*
X13275777Y-8003150D02*
X13313872Y-8003150D01*
X13313872Y-8003150D02*
X13332920Y-8012674D01*
X13332920Y-8012674D02*
X13342444Y-8031722D01*
X13342444Y-8031722D02*
X13342444Y-8050769D01*
X13342444Y-8050769D02*
X13247206Y-8069817D01*
X13418634Y-8126960D02*
X13437682Y-8136484D01*
X13437682Y-8136484D02*
X13475777Y-8136484D01*
X13475777Y-8136484D02*
X13494825Y-8126960D01*
X13494825Y-8126960D02*
X13504349Y-8107912D01*
X13504349Y-8107912D02*
X13504349Y-8098388D01*
X13504349Y-8098388D02*
X13494825Y-8079341D01*
X13494825Y-8079341D02*
X13475777Y-8069817D01*
X13475777Y-8069817D02*
X13447206Y-8069817D01*
X13447206Y-8069817D02*
X13428158Y-8060293D01*
X13428158Y-8060293D02*
X13418634Y-8041246D01*
X13418634Y-8041246D02*
X13418634Y-8031722D01*
X13418634Y-8031722D02*
X13428158Y-8012674D01*
X13428158Y-8012674D02*
X13447206Y-8003150D01*
X13447206Y-8003150D02*
X13475777Y-8003150D01*
X13475777Y-8003150D02*
X13494825Y-8012674D01*
X13571015Y-8212674D02*
X13580539Y-8203150D01*
X13580539Y-8203150D02*
X13599587Y-8174579D01*
X13599587Y-8174579D02*
X13609111Y-8155531D01*
X13609111Y-8155531D02*
X13618634Y-8126960D01*
X13618634Y-8126960D02*
X13628158Y-8079341D01*
X13628158Y-8079341D02*
X13628158Y-8041246D01*
X13628158Y-8041246D02*
X13618634Y-7993627D01*
X13618634Y-7993627D02*
X13609111Y-7965055D01*
X13609111Y-7965055D02*
X13599587Y-7946008D01*
X13599587Y-7946008D02*
X13580539Y-7917436D01*
X13580539Y-7917436D02*
X13571015Y-7907912D01*
X13932920Y-8212674D02*
X13923396Y-8203150D01*
X13923396Y-8203150D02*
X13904349Y-8174579D01*
X13904349Y-8174579D02*
X13894825Y-8155531D01*
X13894825Y-8155531D02*
X13885301Y-8126960D01*
X13885301Y-8126960D02*
X13875777Y-8079341D01*
X13875777Y-8079341D02*
X13875777Y-8041246D01*
X13875777Y-8041246D02*
X13885301Y-7993627D01*
X13885301Y-7993627D02*
X13894825Y-7965055D01*
X13894825Y-7965055D02*
X13904349Y-7946008D01*
X13904349Y-7946008D02*
X13923396Y-7917436D01*
X13923396Y-7917436D02*
X13932920Y-7907912D01*
X14009111Y-8003150D02*
X14009111Y-8136484D01*
X14009111Y-8022198D02*
X14018634Y-8012674D01*
X14018634Y-8012674D02*
X14037682Y-8003150D01*
X14037682Y-8003150D02*
X14066253Y-8003150D01*
X14066253Y-8003150D02*
X14085301Y-8012674D01*
X14085301Y-8012674D02*
X14094825Y-8031722D01*
X14094825Y-8031722D02*
X14094825Y-8136484D01*
X14218634Y-8136484D02*
X14199587Y-8126960D01*
X14199587Y-8126960D02*
X14190063Y-8117436D01*
X14190063Y-8117436D02*
X14180539Y-8098388D01*
X14180539Y-8098388D02*
X14180539Y-8041246D01*
X14180539Y-8041246D02*
X14190063Y-8022198D01*
X14190063Y-8022198D02*
X14199587Y-8012674D01*
X14199587Y-8012674D02*
X14218634Y-8003150D01*
X14218634Y-8003150D02*
X14247206Y-8003150D01*
X14247206Y-8003150D02*
X14266253Y-8012674D01*
X14266253Y-8012674D02*
X14275777Y-8022198D01*
X14275777Y-8022198D02*
X14285301Y-8041246D01*
X14285301Y-8041246D02*
X14285301Y-8098388D01*
X14285301Y-8098388D02*
X14275777Y-8117436D01*
X14275777Y-8117436D02*
X14266253Y-8126960D01*
X14266253Y-8126960D02*
X14247206Y-8136484D01*
X14247206Y-8136484D02*
X14218634Y-8136484D01*
X14342444Y-8003150D02*
X14418634Y-8003150D01*
X14371015Y-7936484D02*
X14371015Y-8107912D01*
X14371015Y-8107912D02*
X14380539Y-8126960D01*
X14380539Y-8126960D02*
X14399587Y-8136484D01*
X14399587Y-8136484D02*
X14418634Y-8136484D01*
X14637682Y-8003150D02*
X14637682Y-8203150D01*
X14637682Y-8012674D02*
X14656730Y-8003150D01*
X14656730Y-8003150D02*
X14694825Y-8003150D01*
X14694825Y-8003150D02*
X14713873Y-8012674D01*
X14713873Y-8012674D02*
X14723396Y-8022198D01*
X14723396Y-8022198D02*
X14732920Y-8041246D01*
X14732920Y-8041246D02*
X14732920Y-8098388D01*
X14732920Y-8098388D02*
X14723396Y-8117436D01*
X14723396Y-8117436D02*
X14713873Y-8126960D01*
X14713873Y-8126960D02*
X14694825Y-8136484D01*
X14694825Y-8136484D02*
X14656730Y-8136484D01*
X14656730Y-8136484D02*
X14637682Y-8126960D01*
X14847206Y-8136484D02*
X14828158Y-8126960D01*
X14828158Y-8126960D02*
X14818634Y-8107912D01*
X14818634Y-8107912D02*
X14818634Y-7936484D01*
X15009111Y-8136484D02*
X15009111Y-8031722D01*
X15009111Y-8031722D02*
X14999587Y-8012674D01*
X14999587Y-8012674D02*
X14980539Y-8003150D01*
X14980539Y-8003150D02*
X14942444Y-8003150D01*
X14942444Y-8003150D02*
X14923396Y-8012674D01*
X15009111Y-8126960D02*
X14990063Y-8136484D01*
X14990063Y-8136484D02*
X14942444Y-8136484D01*
X14942444Y-8136484D02*
X14923396Y-8126960D01*
X14923396Y-8126960D02*
X14913873Y-8107912D01*
X14913873Y-8107912D02*
X14913873Y-8088865D01*
X14913873Y-8088865D02*
X14923396Y-8069817D01*
X14923396Y-8069817D02*
X14942444Y-8060293D01*
X14942444Y-8060293D02*
X14990063Y-8060293D01*
X14990063Y-8060293D02*
X15009111Y-8050769D01*
X15075777Y-8003150D02*
X15151968Y-8003150D01*
X15104349Y-7936484D02*
X15104349Y-8107912D01*
X15104349Y-8107912D02*
X15113873Y-8126960D01*
X15113873Y-8126960D02*
X15132920Y-8136484D01*
X15132920Y-8136484D02*
X15151968Y-8136484D01*
X15294825Y-8126960D02*
X15275777Y-8136484D01*
X15275777Y-8136484D02*
X15237682Y-8136484D01*
X15237682Y-8136484D02*
X15218634Y-8126960D01*
X15218634Y-8126960D02*
X15209111Y-8107912D01*
X15209111Y-8107912D02*
X15209111Y-8031722D01*
X15209111Y-8031722D02*
X15218634Y-8012674D01*
X15218634Y-8012674D02*
X15237682Y-8003150D01*
X15237682Y-8003150D02*
X15275777Y-8003150D01*
X15275777Y-8003150D02*
X15294825Y-8012674D01*
X15294825Y-8012674D02*
X15304349Y-8031722D01*
X15304349Y-8031722D02*
X15304349Y-8050769D01*
X15304349Y-8050769D02*
X15209111Y-8069817D01*
X15475777Y-8136484D02*
X15475777Y-7936484D01*
X15475777Y-8126960D02*
X15456730Y-8136484D01*
X15456730Y-8136484D02*
X15418634Y-8136484D01*
X15418634Y-8136484D02*
X15399587Y-8126960D01*
X15399587Y-8126960D02*
X15390063Y-8117436D01*
X15390063Y-8117436D02*
X15380539Y-8098388D01*
X15380539Y-8098388D02*
X15380539Y-8041246D01*
X15380539Y-8041246D02*
X15390063Y-8022198D01*
X15390063Y-8022198D02*
X15399587Y-8012674D01*
X15399587Y-8012674D02*
X15418634Y-8003150D01*
X15418634Y-8003150D02*
X15456730Y-8003150D01*
X15456730Y-8003150D02*
X15475777Y-8012674D01*
X15551968Y-8212674D02*
X15561492Y-8203150D01*
X15561492Y-8203150D02*
X15580539Y-8174579D01*
X15580539Y-8174579D02*
X15590063Y-8155531D01*
X15590063Y-8155531D02*
X15599587Y-8126960D01*
X15599587Y-8126960D02*
X15609111Y-8079341D01*
X15609111Y-8079341D02*
X15609111Y-8041246D01*
X15609111Y-8041246D02*
X15599587Y-7993627D01*
X15599587Y-7993627D02*
X15590063Y-7965055D01*
X15590063Y-7965055D02*
X15580539Y-7946008D01*
X15580539Y-7946008D02*
X15561492Y-7917436D01*
X15561492Y-7917436D02*
X15551968Y-7907912D01*
M02*
