%TF.GenerationSoftware,KiCad,Pcbnew,7.0.9*%
%TF.CreationDate,2024-06-07T23:52:37-04:00*%
%TF.ProjectId,Coms Board V2,436f6d73-2042-46f6-9172-642056322e6b,rev?*%
%TF.SameCoordinates,Original*%
%TF.FileFunction,Copper,L2,Bot*%
%TF.FilePolarity,Positive*%
%FSLAX46Y46*%
G04 Gerber Fmt 4.6, Leading zero omitted, Abs format (unit mm)*
G04 Created by KiCad (PCBNEW 7.0.9) date 2024-06-07 23:52:37*
%MOMM*%
%LPD*%
G01*
G04 APERTURE LIST*
%TA.AperFunction,ComponentPad*%
%ADD10R,1.500000X1.500000*%
%TD*%
%TA.AperFunction,ComponentPad*%
%ADD11C,1.500000*%
%TD*%
%TA.AperFunction,ComponentPad*%
%ADD12R,1.408000X1.408000*%
%TD*%
%TA.AperFunction,ComponentPad*%
%ADD13C,1.408000*%
%TD*%
%TA.AperFunction,ComponentPad*%
%ADD14R,2.000000X1.905000*%
%TD*%
%TA.AperFunction,ComponentPad*%
%ADD15O,2.000000X1.905000*%
%TD*%
%TA.AperFunction,ComponentPad*%
%ADD16R,3.960000X1.980000*%
%TD*%
%TA.AperFunction,ComponentPad*%
%ADD17O,3.960000X1.980000*%
%TD*%
%TA.AperFunction,ViaPad*%
%ADD18C,0.800000*%
%TD*%
%TA.AperFunction,Conductor*%
%ADD19C,1.000000*%
%TD*%
G04 APERTURE END LIST*
D10*
%TO.P,J3,1*%
%TO.N,+9V*%
X170160000Y-117947500D03*
D11*
%TO.P,J3,2*%
%TO.N,/GPIO15*%
X167620000Y-116677500D03*
%TO.P,J3,3*%
%TO.N,GND*%
X170160000Y-115407500D03*
%TO.P,J3,4*%
%TO.N,/GPIO2*%
X167620000Y-114137500D03*
%TO.P,J3,5*%
%TO.N,/GPIO4*%
X170160000Y-112867500D03*
%TO.P,J3,6*%
%TO.N,/GPIO16*%
X167620000Y-111597500D03*
%TO.P,J3,7*%
%TO.N,/GPIO5*%
X170160000Y-110327500D03*
%TO.P,J3,8*%
%TO.N,/GPIO17*%
X167620000Y-109057500D03*
%TD*%
D10*
%TO.P,J1,1*%
%TO.N,+9V*%
X170160000Y-78577500D03*
D11*
%TO.P,J1,2*%
%TO.N,/GPIO14*%
X167620000Y-77307500D03*
%TO.P,J1,3*%
%TO.N,GND*%
X170160000Y-76037500D03*
%TO.P,J1,4*%
%TO.N,/GPIO27*%
X167620000Y-74767500D03*
%TO.P,J1,5*%
%TO.N,/GPIO26*%
X170160000Y-73497500D03*
%TO.P,J1,6*%
%TO.N,/GPIO25*%
X167620000Y-72227500D03*
%TO.P,J1,7*%
%TO.N,/GPIO33*%
X170160000Y-70957500D03*
%TO.P,J1,8*%
%TO.N,/GPIO32*%
X167620000Y-69687500D03*
%TD*%
D10*
%TO.P,J2,1*%
%TO.N,+9V*%
X170160000Y-98262500D03*
D11*
%TO.P,J2,2*%
%TO.N,/GPIO18*%
X167620000Y-96992500D03*
%TO.P,J2,3*%
%TO.N,GND*%
X170160000Y-95722500D03*
%TO.P,J2,4*%
%TO.N,/GPIO19*%
X167620000Y-94452500D03*
%TO.P,J2,5*%
%TO.N,/GPIO3*%
X170160000Y-93182500D03*
%TO.P,J2,6*%
%TO.N,/GPIO1*%
X167620000Y-91912500D03*
%TO.P,J2,7*%
%TO.N,/GPIO23*%
X170160000Y-90642500D03*
%TO.P,J2,8*%
%TO.N,/GPIO12*%
X167620000Y-89372500D03*
%TD*%
D12*
%TO.P,U1,J2_1,3V3*%
%TO.N,unconnected-(U1-3V3-PadJ2_1)*%
X134847500Y-74650000D03*
D13*
%TO.P,U1,J2_2,EN*%
%TO.N,unconnected-(U1-EN-PadJ2_2)*%
X134847500Y-77190000D03*
%TO.P,U1,J2_3,SENSOR_VP*%
%TO.N,unconnected-(U1-SENSOR_VP-PadJ2_3)*%
X134847500Y-79730000D03*
%TO.P,U1,J2_4,SENSOR_VN*%
%TO.N,unconnected-(U1-SENSOR_VN-PadJ2_4)*%
X134847500Y-82270000D03*
%TO.P,U1,J2_5,IO34*%
%TO.N,unconnected-(U1-IO34-PadJ2_5)*%
X134847500Y-84810000D03*
%TO.P,U1,J2_6,IO35*%
%TO.N,unconnected-(U1-IO35-PadJ2_6)*%
X134847500Y-87350000D03*
%TO.P,U1,J2_7,IO32*%
%TO.N,/GPIO32*%
X134847500Y-89890000D03*
%TO.P,U1,J2_8,IO33*%
%TO.N,/GPIO33*%
X134847500Y-92430000D03*
%TO.P,U1,J2_9,IO25*%
%TO.N,/GPIO25*%
X134847500Y-94970000D03*
%TO.P,U1,J2_10,IO26*%
%TO.N,/GPIO26*%
X134847500Y-97510000D03*
%TO.P,U1,J2_11,IO27*%
%TO.N,/GPIO27*%
X134847500Y-100050000D03*
%TO.P,U1,J2_12,IO14*%
%TO.N,/GPIO14*%
X134847500Y-102590000D03*
%TO.P,U1,J2_13,IO12*%
%TO.N,/GPIO12*%
X134847500Y-105130000D03*
%TO.P,U1,J2_14,GND_J2_14*%
%TO.N,GND*%
X134847500Y-107670000D03*
%TO.P,U1,J2_15,IO13*%
%TO.N,unconnected-(U1-IO13-PadJ2_15)*%
X134847500Y-110210000D03*
%TO.P,U1,J2_16,SD2*%
%TO.N,unconnected-(U1-SD2-PadJ2_16)*%
X134847500Y-112750000D03*
%TO.P,U1,J2_17,SD3*%
%TO.N,unconnected-(U1-SD3-PadJ2_17)*%
X134847500Y-115290000D03*
%TO.P,U1,J2_18,CMD*%
%TO.N,unconnected-(U1-CMD-PadJ2_18)*%
X134847500Y-117830000D03*
%TO.P,U1,J2_19,EXT_5V*%
%TO.N,+5V*%
X134847500Y-120370000D03*
%TO.P,U1,J3_1,GND_J3_1*%
%TO.N,unconnected-(U1-GND_J3_1-PadJ3_1)*%
X160247500Y-74650000D03*
%TO.P,U1,J3_2,IO23*%
%TO.N,/GPIO23*%
X160247500Y-77190000D03*
%TO.P,U1,J3_3,IO22*%
%TO.N,unconnected-(U1-IO22-PadJ3_3)*%
X160247500Y-79730000D03*
%TO.P,U1,J3_4,TXD0*%
%TO.N,/GPIO1*%
X160247500Y-82270000D03*
%TO.P,U1,J3_5,RXD0*%
%TO.N,/GPIO3*%
X160247500Y-84810000D03*
%TO.P,U1,J3_6,IO21*%
%TO.N,unconnected-(U1-IO21-PadJ3_6)*%
X160247500Y-87350000D03*
%TO.P,U1,J3_7,GND_J3_7*%
%TO.N,GND*%
X160247500Y-89890000D03*
%TO.P,U1,J3_8,IO19*%
%TO.N,/GPIO19*%
X160247500Y-92430000D03*
%TO.P,U1,J3_9,IO18*%
%TO.N,/GPIO18*%
X160247500Y-94970000D03*
%TO.P,U1,J3_10,IO5*%
%TO.N,/GPIO5*%
X160247500Y-97510000D03*
%TO.P,U1,J3_11,IO17*%
%TO.N,/GPIO17*%
X160247500Y-100050000D03*
%TO.P,U1,J3_12,IO16*%
%TO.N,/GPIO16*%
X160247500Y-102590000D03*
%TO.P,U1,J3_13,IO4*%
%TO.N,/GPIO4*%
X160247500Y-105130000D03*
%TO.P,U1,J3_14,IO0*%
%TO.N,unconnected-(U1-IO0-PadJ3_14)*%
X160247500Y-107670000D03*
%TO.P,U1,J3_15,IO2*%
%TO.N,/GPIO2*%
X160247500Y-110210000D03*
%TO.P,U1,J3_16,IO15*%
%TO.N,/GPIO15*%
X160247500Y-112750000D03*
%TO.P,U1,J3_17,SD1*%
%TO.N,unconnected-(U1-SD1-PadJ3_17)*%
X160247500Y-115290000D03*
%TO.P,U1,J3_18,SD0*%
%TO.N,unconnected-(U1-SD0-PadJ3_18)*%
X160247500Y-117830000D03*
%TO.P,U1,J3_19,CLK*%
%TO.N,unconnected-(U1-CLK-PadJ3_19)*%
X160247500Y-120370000D03*
%TD*%
D14*
%TO.P,U2,1,VI*%
%TO.N,+9V*%
X161925000Y-61595000D03*
D15*
%TO.P,U2,2,GND*%
%TO.N,GND*%
X161925000Y-59055000D03*
%TO.P,U2,3,VO*%
%TO.N,+5V*%
X161925000Y-56515000D03*
%TD*%
D16*
%TO.P,J4,1,Pin_1*%
%TO.N,+9V*%
X173680000Y-61820000D03*
D17*
%TO.P,J4,2,Pin_2*%
%TO.N,GND*%
X173680000Y-56820000D03*
%TD*%
D18*
%TO.N,+5V*%
X147955000Y-95250000D03*
%TD*%
D19*
%TO.N,GND*%
X171612500Y-115407500D02*
X173355000Y-113665000D01*
X154940000Y-90170000D02*
X155220000Y-89890000D01*
X173172500Y-92710000D02*
X170160000Y-95722500D01*
X173355000Y-92710000D02*
X173355000Y-75565000D01*
X154305000Y-90170000D02*
X154940000Y-90170000D01*
X151130000Y-69037500D02*
X161112500Y-59055000D01*
X151130000Y-105410000D02*
X151130000Y-93345000D01*
X168275000Y-59055000D02*
X171445000Y-59055000D01*
X151130000Y-93345000D02*
X154305000Y-90170000D01*
X161925000Y-59055000D02*
X168275000Y-59055000D01*
X161112500Y-59055000D02*
X161925000Y-59055000D01*
X172247500Y-76037500D02*
X170160000Y-76037500D01*
X168275000Y-60785000D02*
X173355000Y-65865000D01*
X173355000Y-74930000D02*
X172247500Y-76037500D01*
X151130000Y-93345000D02*
X151130000Y-69037500D01*
X170160000Y-115407500D02*
X171612500Y-115407500D01*
X173355000Y-92710000D02*
X173172500Y-92710000D01*
X173355000Y-113665000D02*
X173355000Y-92710000D01*
X134847500Y-107670000D02*
X148870000Y-107670000D01*
X173355000Y-75565000D02*
X173355000Y-74930000D01*
X148870000Y-107670000D02*
X151130000Y-105410000D01*
X171445000Y-59055000D02*
X173680000Y-56820000D01*
X155220000Y-89890000D02*
X160247500Y-89890000D01*
X173355000Y-65865000D02*
X173355000Y-75565000D01*
X168275000Y-59055000D02*
X168275000Y-60785000D01*
%TO.N,+5V*%
X147955000Y-95250000D02*
X147955000Y-69850000D01*
X147955000Y-69850000D02*
X161290000Y-56515000D01*
X161290000Y-56515000D02*
X161925000Y-56515000D01*
%TD*%
M02*
