M48
; DRILL file {KiCad 7.0.9} date Fri Jun  7 23:52:35 2024
; FORMAT={-:-/ absolute / inch / decimal}
; #@! TF.CreationDate,2024-06-07T23:52:35-04:00
; #@! TF.GenerationSoftware,Kicad,Pcbnew,7.0.9
; #@! TF.FileFunction,Plated,1,2,PTH
FMAT,2
INCH
; #@! TA.AperFunction,Plated,PTH,ViaDrill
T1C0.0157
; #@! TA.AperFunction,Plated,PTH,ComponentDrill
T2C0.0299
; #@! TA.AperFunction,Plated,PTH,ComponentDrill
T3C0.0354
; #@! TA.AperFunction,Plated,PTH,ComponentDrill
T4C0.0433
; #@! TA.AperFunction,Plated,PTH,ComponentDrill
T5C0.0520
%
G90
G05
T1
X5.825Y-3.75
T2
X6.5992Y-2.7436
X6.5992Y-2.8436
X6.5992Y-2.9436
X6.5992Y-3.0436
X6.5992Y-3.5186
X6.5992Y-3.6186
X6.5992Y-3.7186
X6.5992Y-3.8186
X6.5992Y-4.2936
X6.5992Y-4.3936
X6.5992Y-4.4936
X6.5992Y-4.5936
X6.6992Y-2.7936
X6.6992Y-2.8936
X6.6992Y-2.9936
X6.6992Y-3.0936
X6.6992Y-3.5686
X6.6992Y-3.6686
X6.6992Y-3.7686
X6.6992Y-3.8686
X6.6992Y-4.3436
X6.6992Y-4.4436
X6.6992Y-4.5436
X6.6992Y-4.6436
T3
X5.309Y-2.939
X5.309Y-3.039
X5.309Y-3.139
X5.309Y-3.239
X5.309Y-3.339
X5.309Y-3.439
X5.309Y-3.539
X5.309Y-3.639
X5.309Y-3.739
X5.309Y-3.839
X5.309Y-3.939
X5.309Y-4.039
X5.309Y-4.139
X5.309Y-4.239
X5.309Y-4.339
X5.309Y-4.439
X5.309Y-4.539
X5.309Y-4.639
X5.309Y-4.739
X6.309Y-2.939
X6.309Y-3.039
X6.309Y-3.139
X6.309Y-3.239
X6.309Y-3.339
X6.309Y-3.439
X6.309Y-3.539
X6.309Y-3.639
X6.309Y-3.739
X6.309Y-3.839
X6.309Y-3.939
X6.309Y-4.039
X6.309Y-4.139
X6.309Y-4.239
X6.309Y-4.339
X6.309Y-4.439
X6.309Y-4.539
X6.309Y-4.639
X6.309Y-4.739
T4
X6.375Y-2.225
X6.375Y-2.325
X6.375Y-2.425
T5
X6.8378Y-2.237
X6.8378Y-2.4339
T0
M30
