%TF.GenerationSoftware,KiCad,Pcbnew,7.0.9*%
%TF.CreationDate,2024-06-08T21:45:48-04:00*%
%TF.ProjectId,V2 Loop Panel,5632204c-6f6f-4702-9050-616e656c2e6b,rev?*%
%TF.SameCoordinates,Original*%
%TF.FileFunction,Profile,NP*%
%FSLAX46Y46*%
G04 Gerber Fmt 4.6, Leading zero omitted, Abs format (unit mm)*
G04 Created by KiCad (PCBNEW 7.0.9) date 2024-06-08 21:45:48*
%MOMM*%
%LPD*%
G01*
G04 APERTURE LIST*
%TA.AperFunction,Profile*%
%ADD10C,0.100000*%
%TD*%
G04 APERTURE END LIST*
D10*
X92564551Y-60578830D02*
X92624864Y-60724439D01*
X148501000Y-76637997D02*
X149507797Y-76637997D01*
X93043561Y-21112038D02*
X92947948Y-21236643D01*
X152510397Y-107020797D02*
X204510399Y-107010399D01*
X204635398Y-64510399D02*
X195108318Y-64510398D01*
X149837377Y-66148426D02*
X149769760Y-66290188D01*
X151148425Y-20326979D02*
X151010397Y-20401923D01*
X148501000Y-29127598D02*
X148499000Y-29127598D01*
X152352845Y-107016671D02*
X152510397Y-107020797D01*
X94904069Y-106983733D02*
X95060326Y-107004305D01*
X148499000Y-94893197D02*
X147410639Y-94893197D01*
X159027079Y-62509094D02*
X159027079Y-63509898D01*
X150622436Y-65178960D02*
X150503005Y-65280963D01*
X150280962Y-20992607D02*
X150178959Y-21112038D01*
X181081238Y-63509898D02*
X181081238Y-63511898D01*
X93480495Y-106349917D02*
X93605532Y-106445862D01*
X149510397Y-67510398D02*
X149508651Y-73637997D01*
X123945840Y-64510398D02*
X115918761Y-64510398D01*
X94444735Y-62363058D02*
X94595851Y-62407821D01*
X92381093Y-104325072D02*
X92401665Y-104481329D01*
X149699949Y-105089229D02*
X149760262Y-105234838D01*
X93246327Y-106139071D02*
X93360650Y-106247560D01*
X149505624Y-84265597D02*
X148501000Y-84265597D01*
X93035481Y-61394504D02*
X93137838Y-61514349D01*
X92511941Y-104940663D02*
X92564551Y-105089229D01*
X149985665Y-105649979D02*
X150074934Y-105779866D01*
X115918761Y-63509898D02*
X115918761Y-62506290D01*
X149985665Y-61139580D02*
X150074934Y-61269467D01*
X92858987Y-21366082D02*
X92776923Y-21499999D01*
X149912321Y-21499999D02*
X149837377Y-21638027D01*
X92701979Y-66148426D02*
X92634362Y-66290188D01*
X147464330Y-76637997D02*
X148499000Y-76637997D01*
X151435293Y-20199257D02*
X151290187Y-20259362D01*
X147410639Y-94893197D02*
X147433073Y-87265597D01*
X101891681Y-64510398D02*
X95374999Y-64510398D01*
X92767919Y-105515598D02*
X92850267Y-105649979D01*
X134972920Y-63511898D02*
X134972920Y-64510398D01*
X173054159Y-63509898D02*
X173054159Y-62506290D01*
X93367607Y-20770564D02*
X93253678Y-20878678D01*
X151143705Y-62182284D02*
X151285958Y-62250135D01*
X151731249Y-62407821D02*
X151884500Y-62444613D01*
X173054159Y-63511898D02*
X173054159Y-63509898D01*
X149547332Y-67041094D02*
X149526831Y-67196812D01*
X92374999Y-22999999D02*
X92364602Y-59500001D01*
X95374999Y-19999999D02*
X95217991Y-20004110D01*
X112918761Y-63509898D02*
X112918761Y-63511898D01*
X149547332Y-22530695D02*
X149526831Y-22686413D01*
X149612619Y-22223541D02*
X149575954Y-22376264D01*
X137972920Y-62501880D02*
X147375001Y-62500000D01*
X150170879Y-61394504D02*
X150273236Y-61514349D01*
X93487038Y-65178960D02*
X93367607Y-65280963D01*
X148501000Y-73637997D02*
X148499000Y-73637997D01*
X150740930Y-106445862D02*
X150870817Y-106535131D01*
X147375001Y-62500000D02*
X147401816Y-53382798D01*
X159027079Y-64510398D02*
X152510397Y-64510398D01*
X152195724Y-62493906D02*
X152352845Y-62506272D01*
X95374999Y-62510398D02*
X101891681Y-62509094D01*
X149504125Y-104167951D02*
X149516491Y-104325072D01*
X149565784Y-60125897D02*
X149602576Y-60279148D01*
X94905695Y-64547333D02*
X94751264Y-64575955D01*
X151886662Y-64575955D02*
X151733939Y-64612620D01*
X137972920Y-63511898D02*
X137972920Y-63509898D01*
X162027079Y-64510398D02*
X162027079Y-63511898D01*
X149514508Y-67353390D02*
X149510397Y-67510398D01*
X149537063Y-59970930D02*
X149565784Y-60125897D01*
X147473154Y-29127598D02*
X147500000Y-20000000D01*
X150876480Y-64994386D02*
X150747041Y-65083347D01*
X94751264Y-64575955D02*
X94598541Y-64612620D01*
X93605532Y-61935463D02*
X93735419Y-62024732D01*
X149647339Y-104940663D02*
X149699949Y-105089229D01*
X150389076Y-65389077D02*
X150280962Y-65503006D01*
X92624864Y-105234838D02*
X92692715Y-105377091D01*
X92368727Y-59657552D02*
X92381093Y-59814673D01*
X151010397Y-64912322D02*
X150876480Y-64994386D01*
X92477221Y-22223541D02*
X92440556Y-22376264D01*
X148499000Y-97893197D02*
X148501000Y-97893197D01*
X148499000Y-39755198D02*
X147441896Y-39755198D01*
X147500000Y-64510399D02*
X137972920Y-64510398D01*
X95374999Y-107020797D02*
X147375001Y-107010399D01*
X94154789Y-20259362D02*
X94013027Y-20326979D01*
X123945840Y-62504684D02*
X123945840Y-63509898D01*
X149514508Y-22842991D02*
X149510397Y-22999999D01*
X94598541Y-20102221D02*
X94447948Y-20146829D01*
X147441896Y-84265597D02*
X147464330Y-76637997D01*
X94749102Y-62444613D02*
X94904069Y-62473334D01*
X94008307Y-106692683D02*
X94150560Y-106760534D01*
X149709655Y-66435294D02*
X149657227Y-66583347D01*
X134972920Y-62502479D02*
X134972920Y-63509898D01*
X147401816Y-53382798D02*
X148499000Y-53382798D01*
X123945840Y-63511898D02*
X123945840Y-64510398D01*
X151884500Y-62444613D02*
X152039467Y-62473334D01*
X151435293Y-64709656D02*
X151290187Y-64769761D01*
X151285958Y-106760534D02*
X151431567Y-106820847D01*
X149502597Y-50382798D02*
X148501000Y-50382798D01*
X149769760Y-21779789D02*
X149709655Y-21924895D01*
X150622436Y-20668561D02*
X150503005Y-20770564D01*
X93035481Y-105904903D02*
X93137838Y-106024748D01*
X149500000Y-104010400D02*
X149504125Y-104167951D01*
X150074934Y-105779866D02*
X150170879Y-105904903D01*
X149502597Y-94893197D02*
X148501000Y-94893197D01*
X95060326Y-62493906D02*
X95217447Y-62506272D01*
X93741082Y-20483987D02*
X93611643Y-20572948D01*
X93246327Y-61628672D02*
X93360650Y-61737161D01*
X93874999Y-20401923D02*
X93741082Y-20483987D01*
X104891681Y-63509898D02*
X104891681Y-62508495D01*
X92511941Y-60430264D02*
X92564551Y-60578830D01*
X93480495Y-61839518D02*
X93605532Y-61935463D01*
X92411934Y-22530695D02*
X92391433Y-22686413D01*
X94444735Y-106873457D02*
X94595851Y-106918220D01*
X148501000Y-84265597D02*
X148499000Y-84265597D01*
X150273236Y-106024748D02*
X150381725Y-106139071D01*
X184081238Y-63509898D02*
X184081238Y-62504085D01*
X152039467Y-106983733D02*
X152195724Y-107004305D01*
X92939536Y-61269467D02*
X93035481Y-61394504D01*
X149508651Y-73637997D02*
X148501000Y-73637997D01*
X126945840Y-62504085D02*
X134972920Y-62502479D01*
X92574257Y-21924895D02*
X92521829Y-22072948D01*
X93735419Y-106535131D02*
X93869800Y-106617479D01*
X192108318Y-63511898D02*
X192108318Y-64510398D01*
X93137838Y-61514349D02*
X93246327Y-61628672D01*
X184081238Y-64510398D02*
X184081238Y-63511898D01*
X149709655Y-21924895D02*
X149657227Y-22072948D01*
X149504125Y-59657552D02*
X149516491Y-59814673D01*
X94150560Y-106760534D02*
X94296169Y-106820847D01*
X150503005Y-65280963D02*
X150389076Y-65389077D01*
X150496048Y-106247560D02*
X150615893Y-106349917D01*
X152510397Y-19999999D02*
X152353389Y-20004110D01*
X159027079Y-63511898D02*
X159027079Y-64510398D01*
X152510397Y-62510398D02*
X159027079Y-62509094D01*
X93137838Y-106024748D02*
X93246327Y-106139071D01*
X94296169Y-62310448D02*
X94444735Y-62363058D01*
X94595851Y-62407821D02*
X94749102Y-62444613D01*
X204510399Y-107010399D02*
X204635398Y-64510399D01*
X149507797Y-76637997D02*
X149505624Y-84265597D01*
X126945840Y-64510398D02*
X126945840Y-63511898D01*
X150381725Y-106139071D02*
X150496048Y-106247560D01*
X149903317Y-105515598D02*
X149985665Y-105649979D01*
X195108318Y-63511898D02*
X195108318Y-63509898D01*
X149903317Y-61005199D02*
X149985665Y-61139580D01*
X152196811Y-64526832D02*
X152041093Y-64547333D01*
X151884500Y-106955012D02*
X152039467Y-106983733D01*
X112918761Y-64510398D02*
X104891681Y-64510398D01*
X150178959Y-21112038D02*
X150083346Y-21236643D01*
X92521829Y-66583347D02*
X92477221Y-66733940D01*
X150747041Y-20572948D02*
X150622436Y-20668561D01*
X159027079Y-63509898D02*
X159027079Y-63511898D01*
X104891681Y-62508495D02*
X112918761Y-62506889D01*
X92692715Y-105377091D02*
X92767919Y-105515598D01*
X147464330Y-32127598D02*
X148499000Y-32127598D01*
X151285958Y-62250135D02*
X151431567Y-62310448D01*
X181081238Y-64510398D02*
X173054159Y-64510398D01*
X93605532Y-106445862D02*
X93735419Y-106535131D01*
X151290187Y-64769761D02*
X151148425Y-64837378D01*
X181081238Y-63511898D02*
X181081238Y-64510398D01*
X149501742Y-53382798D02*
X149500000Y-59500001D01*
X149537063Y-104481329D02*
X149565784Y-104636296D01*
X92521829Y-22072948D02*
X92477221Y-22223541D01*
X148501000Y-97893197D02*
X149501742Y-97893197D01*
X149699949Y-60578830D02*
X149760262Y-60724439D01*
X150273236Y-61514349D02*
X150381725Y-61628672D01*
X92374999Y-67510398D02*
X92364602Y-104010400D01*
X195108318Y-64510398D02*
X195108318Y-63511898D01*
X126945840Y-63509898D02*
X126945840Y-62504085D01*
X162027079Y-63509898D02*
X162027079Y-62508495D01*
X92776923Y-66010398D02*
X92701979Y-66148426D01*
X150870817Y-62024732D02*
X151005198Y-62107080D01*
X92701979Y-21638027D02*
X92634362Y-21779789D01*
X92947948Y-65747042D02*
X92858987Y-65876481D01*
X101891681Y-63511898D02*
X101891681Y-64510398D01*
X137972920Y-63509898D02*
X137972920Y-62501880D01*
X92634362Y-66290188D02*
X92574257Y-66435294D01*
X93741082Y-64994386D02*
X93611643Y-65083347D01*
X148501000Y-39755198D02*
X148499000Y-39755198D01*
X148499000Y-76637997D02*
X148501000Y-76637997D01*
X92467178Y-60279148D02*
X92511941Y-60430264D01*
X149516491Y-104325072D02*
X149537063Y-104481329D01*
X150170879Y-105904903D02*
X150273236Y-106024748D01*
X92401665Y-104481329D02*
X92430386Y-104636296D01*
X94299895Y-20199257D02*
X94154789Y-20259362D01*
X95061413Y-20016433D02*
X94905695Y-20036934D01*
X150747041Y-65083347D02*
X150622436Y-65178960D01*
X93874999Y-64912322D02*
X93741082Y-64994386D01*
X147433073Y-42755198D02*
X148499000Y-42755198D01*
X93145564Y-65503006D02*
X93043561Y-65622437D01*
X149760262Y-105234838D02*
X149828113Y-105377091D01*
X152510397Y-64510398D02*
X152353389Y-64514509D01*
X115918761Y-63511898D02*
X115918761Y-63509898D01*
X173054159Y-64510398D02*
X173054159Y-63511898D01*
X150503005Y-20770564D02*
X150389076Y-20878678D01*
X94299895Y-64709656D02*
X94154789Y-64769761D01*
X147473154Y-73637997D02*
X147500000Y-64510399D01*
X149516491Y-59814673D02*
X149537063Y-59970930D01*
X152041093Y-20036934D02*
X151886662Y-20065556D01*
X148501000Y-42755198D02*
X149504769Y-42755198D01*
X93611643Y-65083347D02*
X93487038Y-65178960D01*
X92440556Y-66886663D02*
X92411934Y-67041094D01*
X151733939Y-20102221D02*
X151583346Y-20146829D01*
X151148425Y-64837378D02*
X151010397Y-64912322D01*
X152195724Y-107004305D02*
X152352845Y-107016671D01*
X112918761Y-62506889D02*
X112918761Y-63509898D01*
X92364602Y-59500001D02*
X92368727Y-59657552D01*
X93869800Y-62107080D02*
X94008307Y-62182284D01*
X92477221Y-66733940D02*
X92440556Y-66886663D01*
X151733939Y-64612620D02*
X151583346Y-64657228D01*
X94905695Y-20036934D02*
X94751264Y-20065556D01*
X104891681Y-64510398D02*
X104891681Y-63511898D01*
X152039467Y-62473334D02*
X152195724Y-62493906D01*
X149510397Y-22999999D02*
X149508651Y-29127598D01*
X204635398Y-20000000D02*
X152510397Y-19999999D01*
X149657227Y-22072948D02*
X149612619Y-22223541D01*
X150381725Y-61628672D02*
X150496048Y-61737161D01*
X150178959Y-65622437D02*
X150083346Y-65747042D01*
X149994385Y-65876481D02*
X149912321Y-66010398D01*
X162027079Y-62508495D02*
X170054159Y-62506889D01*
X149501742Y-97893197D02*
X149500000Y-104010400D01*
X94013027Y-64837378D02*
X93874999Y-64912322D01*
X149565784Y-104636296D02*
X149602576Y-104789547D01*
X101891681Y-62509094D02*
X101891681Y-63509898D01*
X148499000Y-32127598D02*
X148501000Y-32127598D01*
X149602576Y-104789547D02*
X149647339Y-104940663D01*
X126945840Y-63511898D02*
X126945840Y-63509898D01*
X192108318Y-64510398D02*
X184081238Y-64510398D01*
X150496048Y-61737161D02*
X150615893Y-61839518D01*
X92574257Y-66435294D02*
X92521829Y-66583347D01*
X93360650Y-61737161D02*
X93480495Y-61839518D01*
X184081238Y-62504085D02*
X192108318Y-62502479D01*
X170054159Y-62506889D02*
X170054159Y-63509898D01*
X184081238Y-63511898D02*
X184081238Y-63509898D01*
X148501000Y-94893197D02*
X148499000Y-94893197D01*
X147410639Y-50382798D02*
X147433073Y-42755198D01*
X92850267Y-61139580D02*
X92939536Y-61269467D01*
X134972920Y-64510398D02*
X126945840Y-64510398D01*
X149828113Y-105377091D02*
X149903317Y-105515598D01*
X152196811Y-20016433D02*
X152041093Y-20036934D01*
X148501000Y-53382798D02*
X149501742Y-53382798D01*
X94154789Y-64769761D02*
X94013027Y-64837378D01*
X148499000Y-87265597D02*
X148501000Y-87265597D01*
X195108318Y-62501880D02*
X204510399Y-62500000D01*
X151431567Y-106820847D02*
X151580133Y-106873457D01*
X94595851Y-106918220D02*
X94749102Y-106955012D01*
X94296169Y-106820847D02*
X94444735Y-106873457D01*
X93367607Y-65280963D02*
X93253678Y-65389077D01*
X151005198Y-62107080D02*
X151143705Y-62182284D01*
X204510399Y-62500000D02*
X204635398Y-20000000D01*
X149507797Y-32127598D02*
X149505624Y-39755198D01*
X92692715Y-60866692D02*
X92767919Y-61005199D01*
X95217991Y-64514509D02*
X95061413Y-64526832D01*
X150615893Y-61839518D02*
X150740930Y-61935463D01*
X147441896Y-39755198D02*
X147464330Y-32127598D01*
X115918761Y-62506290D02*
X123945840Y-62504684D01*
X92776923Y-21499999D02*
X92701979Y-21638027D01*
X149575954Y-66886663D02*
X149547332Y-67041094D01*
X92401665Y-59970930D02*
X92430386Y-60125897D01*
X93253678Y-20878678D02*
X93145564Y-20992607D01*
X92430386Y-60125897D02*
X92467178Y-60279148D01*
X181081238Y-62504684D02*
X181081238Y-63509898D01*
X92947948Y-21236643D02*
X92858987Y-21366082D01*
X93253678Y-65389077D02*
X93145564Y-65503006D01*
X151731249Y-106918220D02*
X151884500Y-106955012D01*
X149575954Y-22376264D02*
X149547332Y-22530695D01*
X149526831Y-22686413D02*
X149514508Y-22842991D01*
X93360650Y-106247560D02*
X93480495Y-106349917D01*
X92624864Y-60724439D02*
X92692715Y-60866692D01*
X195108318Y-63509898D02*
X195108318Y-62501880D01*
X170054159Y-64510398D02*
X162027079Y-64510398D01*
X150740930Y-61935463D02*
X150870817Y-62024732D01*
X94447948Y-20146829D02*
X94299895Y-20199257D01*
X92391433Y-67196812D02*
X92379110Y-67353390D01*
X151583346Y-20146829D02*
X151435293Y-20199257D01*
X173054159Y-62506290D02*
X181081238Y-62504684D01*
X148501000Y-50382798D02*
X148499000Y-50382798D01*
X92850267Y-105649979D02*
X92939536Y-105779866D01*
X148501000Y-32127598D02*
X149507797Y-32127598D01*
X94447948Y-64657228D02*
X94299895Y-64709656D01*
X192108318Y-62502479D02*
X192108318Y-63509898D01*
X95061413Y-64526832D02*
X94905695Y-64547333D01*
X93869800Y-106617479D02*
X94008307Y-106692683D01*
X150870817Y-106535131D02*
X151005198Y-106617479D01*
X134972920Y-63509898D02*
X134972920Y-63511898D01*
X92767919Y-61005199D02*
X92850267Y-61139580D01*
X148499000Y-73637997D02*
X147473154Y-73637997D01*
X92440556Y-22376264D02*
X92411934Y-22530695D01*
X149602576Y-60279148D02*
X149647339Y-60430264D01*
X93735419Y-62024732D02*
X93869800Y-62107080D01*
X148499000Y-84265597D02*
X147441896Y-84265597D01*
X94150560Y-62250135D02*
X94296169Y-62310448D01*
X92391433Y-22686413D02*
X92379110Y-22842991D01*
X95217447Y-107016671D02*
X95374999Y-107020797D01*
X148499000Y-42755198D02*
X148501000Y-42755198D01*
X93145564Y-20992607D02*
X93043561Y-21112038D01*
X149837377Y-21638027D02*
X149769760Y-21779789D01*
X92939536Y-105779866D02*
X93035481Y-105904903D01*
X148499000Y-53382798D02*
X148501000Y-53382798D01*
X95374999Y-64510398D02*
X95217991Y-64514509D01*
X152353389Y-64514509D02*
X152196811Y-64526832D01*
X92381093Y-59814673D02*
X92401665Y-59970930D01*
X92364602Y-104010400D02*
X92368727Y-104167951D01*
X148499000Y-29127598D02*
X147473154Y-29127598D01*
X92858987Y-65876481D02*
X92776923Y-66010398D01*
X92467178Y-104789547D02*
X92511941Y-104940663D01*
X112918761Y-63511898D02*
X112918761Y-64510398D01*
X149760262Y-60724439D02*
X149828113Y-60866692D01*
X94008307Y-62182284D02*
X94150560Y-62250135D01*
X149769760Y-66290188D02*
X149709655Y-66435294D01*
X149500000Y-59500001D02*
X149504125Y-59657552D01*
X92411934Y-67041094D02*
X92391433Y-67196812D01*
X150083346Y-65747042D02*
X149994385Y-65876481D01*
X149828113Y-60866692D02*
X149903317Y-61005199D01*
X137972920Y-64510398D02*
X137972920Y-63511898D01*
X151580133Y-106873457D02*
X151731249Y-106918220D01*
X101891681Y-63509898D02*
X101891681Y-63511898D01*
X149504769Y-42755198D02*
X149502597Y-50382798D01*
X149504769Y-87265597D02*
X149502597Y-94893197D01*
X92430386Y-104636296D02*
X92467178Y-104789547D01*
X170054159Y-63511898D02*
X170054159Y-64510398D01*
X94751264Y-20065556D02*
X94598541Y-20102221D01*
X92379110Y-67353390D02*
X92374999Y-67510398D01*
X93611643Y-20572948D02*
X93487038Y-20668561D01*
X94013027Y-20326979D02*
X93874999Y-20401923D01*
X148499000Y-50382798D02*
X147410639Y-50382798D01*
X104891681Y-63511898D02*
X104891681Y-63509898D01*
X92634362Y-21779789D02*
X92574257Y-21924895D01*
X149657227Y-66583347D02*
X149612619Y-66733940D01*
X94904069Y-62473334D02*
X95060326Y-62493906D01*
X149912321Y-66010398D02*
X149837377Y-66148426D01*
X151005198Y-106617479D02*
X151143705Y-106692683D01*
X147375001Y-107010399D02*
X147401816Y-97893197D01*
X94598541Y-64612620D02*
X94447948Y-64657228D01*
X123945840Y-63509898D02*
X123945840Y-63511898D01*
X150074934Y-61269467D02*
X150170879Y-61394504D01*
X93043561Y-65622437D02*
X92947948Y-65747042D01*
X92379110Y-22842991D02*
X92374999Y-22999999D01*
X170054159Y-63509898D02*
X170054159Y-63511898D01*
X151886662Y-20065556D02*
X151733939Y-20102221D01*
X192108318Y-63509898D02*
X192108318Y-63511898D01*
X95217447Y-62506272D02*
X95374999Y-62510398D01*
X149994385Y-21366082D02*
X149912321Y-21499999D01*
X150280962Y-65503006D02*
X150178959Y-65622437D01*
X92368727Y-104167951D02*
X92381093Y-104325072D01*
X147433073Y-87265597D02*
X148499000Y-87265597D01*
X94749102Y-106955012D02*
X94904069Y-106983733D01*
X151431567Y-62310448D02*
X151580133Y-62363058D01*
X149508651Y-29127598D02*
X148501000Y-29127598D01*
X115918761Y-64510398D02*
X115918761Y-63511898D01*
X162027079Y-63511898D02*
X162027079Y-63509898D01*
X92564551Y-105089229D02*
X92624864Y-105234838D01*
X95217991Y-20004110D02*
X95061413Y-20016433D01*
X150083346Y-21236643D02*
X149994385Y-21366082D01*
X93487038Y-20668561D02*
X93367607Y-20770564D01*
X152353389Y-20004110D02*
X152196811Y-20016433D01*
X152041093Y-64547333D02*
X151886662Y-64575955D01*
X149612619Y-66733940D02*
X149575954Y-66886663D01*
X151583346Y-64657228D02*
X151435293Y-64709656D01*
X151010397Y-20401923D02*
X150876480Y-20483987D01*
X147401816Y-97893197D02*
X148499000Y-97893197D01*
X150615893Y-106349917D02*
X150740930Y-106445862D01*
X150389076Y-20878678D02*
X150280962Y-20992607D01*
X151143705Y-106692683D02*
X151285958Y-106760534D01*
X149526831Y-67196812D02*
X149514508Y-67353390D01*
X149505624Y-39755198D02*
X148501000Y-39755198D01*
X95060326Y-107004305D02*
X95217447Y-107016671D01*
X149647339Y-60430264D02*
X149699949Y-60578830D01*
X148501000Y-87265597D02*
X149504769Y-87265597D01*
X152352845Y-62506272D02*
X152510397Y-62510398D01*
X150876480Y-20483987D02*
X150747041Y-20572948D01*
X147500000Y-20000000D02*
X95374999Y-19999999D01*
X151290187Y-20259362D02*
X151148425Y-20326979D01*
X151580133Y-62363058D02*
X151731249Y-62407821D01*
M02*
