M48
; DRILL file {KiCad 7.0.9} date Sat Jun  8 21:45:46 2024
; FORMAT={-:-/ absolute / inch / decimal}
; #@! TF.CreationDate,2024-06-08T21:45:46-04:00
; #@! TF.GenerationSoftware,Kicad,Pcbnew,7.0.9
; #@! TF.FileFunction,NonPlated,1,2,NPTH
FMAT,2
INCH
; #@! TA.AperFunction,NonPlated,NPTH,ComponentDrill
T1C0.0197
%
G90
G05
T1
X4.0115Y-2.461
X4.0115Y-2.5398
X4.0509Y-2.461
X4.0509Y-2.5398
X4.0902Y-2.461
X4.0902Y-2.5398
X4.1296Y-2.461
X4.1296Y-2.5398
X4.4456Y-2.4609
X4.4456Y-2.5398
X4.485Y-2.4609
X4.485Y-2.5398
X4.5244Y-2.4609
X4.5244Y-2.5398
X4.5637Y-2.4609
X4.5637Y-2.5398
X4.8798Y-2.4608
X4.8798Y-2.5398
X4.9191Y-2.4608
X4.9191Y-2.5398
X4.9585Y-2.4608
X4.9585Y-2.5398
X4.9979Y-2.4608
X4.9979Y-2.5398
X5.3139Y-2.4607
X5.3139Y-2.5398
X5.3533Y-2.4607
X5.3533Y-2.5398
X5.3926Y-2.4607
X5.3926Y-2.5398
X5.432Y-2.4607
X5.432Y-2.5398
X5.8032Y-2.1017
X5.8032Y-3.8541
X5.8033Y-2.0623
X5.8033Y-3.8147
X5.8035Y-2.0229
X5.8035Y-3.7753
X5.8036Y-1.9836
X5.8036Y-3.736
X5.8045Y-1.6833
X5.8045Y-3.4357
X5.8046Y-1.6439
X5.8046Y-3.3963
X5.8047Y-1.6045
X5.8047Y-3.3569
X5.8048Y-1.5652
X5.8048Y-3.3175
X5.8057Y-1.2649
X5.8057Y-3.0172
X5.8058Y-1.2255
X5.8058Y-2.9779
X5.8059Y-1.1861
X5.8059Y-2.9385
X5.806Y-1.1468
X5.806Y-2.8991
X5.8859Y-2.1017
X5.8859Y-3.8541
X5.8859Y-2.0623
X5.8859Y-3.8147
X5.8859Y-2.0229
X5.8859Y-3.7753
X5.8859Y-1.9836
X5.8859Y-3.736
X5.886Y-1.6833
X5.886Y-3.4357
X5.886Y-1.6439
X5.886Y-3.3963
X5.886Y-1.6045
X5.886Y-3.3569
X5.886Y-1.5652
X5.886Y-3.3175
X5.8861Y-1.2649
X5.8861Y-3.0172
X5.8861Y-1.2255
X5.8861Y-2.9779
X5.8862Y-1.1861
X5.8862Y-2.9385
X5.8862Y-1.1468
X5.8862Y-2.8991
X6.2609Y-2.461
X6.2609Y-2.5398
X6.3003Y-2.461
X6.3003Y-2.5398
X6.3396Y-2.461
X6.3396Y-2.5398
X6.379Y-2.461
X6.379Y-2.5398
X6.695Y-2.4609
X6.695Y-2.5398
X6.7344Y-2.4609
X6.7344Y-2.5398
X6.7738Y-2.4609
X6.7738Y-2.5398
X6.8132Y-2.4609
X6.8132Y-2.5398
X7.1292Y-2.4608
X7.1292Y-2.5398
X7.1686Y-2.4608
X7.1686Y-2.5398
X7.2079Y-2.4608
X7.2079Y-2.5398
X7.2473Y-2.4608
X7.2473Y-2.5398
X7.5633Y-2.4607
X7.5633Y-2.5398
X7.6027Y-2.4607
X7.6027Y-2.5398
X7.6421Y-2.4607
X7.6421Y-2.5398
X7.6814Y-2.4607
X7.6814Y-2.5398
T0
M30
