M48
; DRILL file {KiCad 7.0.9} date Sat Jun  8 21:45:46 2024
; FORMAT={-:-/ absolute / inch / decimal}
; #@! TF.CreationDate,2024-06-08T21:45:46-04:00
; #@! TF.GenerationSoftware,Kicad,Pcbnew,7.0.9
; #@! TF.FileFunction,Plated,1,2,PTH
FMAT,2
INCH
; #@! TA.AperFunction,Plated,PTH,ViaDrill
T1C0.0157
; #@! TA.AperFunction,Plated,PTH,ComponentDrill
T2C0.0276
; #@! TA.AperFunction,Plated,PTH,ComponentDrill
T3C0.0295
; #@! TA.AperFunction,Plated,PTH,ComponentDrill
T4C0.0315
; #@! TA.AperFunction,Plated,PTH,ComponentDrill
T5C0.0354
; #@! TA.AperFunction,Plated,PTH,ComponentDrill
T6C0.0394
; #@! TA.AperFunction,Plated,PTH,ComponentDrill
T7C0.0433
; #@! TA.AperFunction,Plated,PTH,ComponentDrill
T8C0.0551
%
G90
G05
T1
X4.8888Y-2.1535
X4.8888Y-3.9059
X7.1382Y-2.1535
X7.1382Y-3.9059
T2
X4.0558Y-1.1473
X4.0558Y-1.4473
X4.0558Y-2.0922
X4.0558Y-2.3922
X4.0558Y-2.8997
X4.0558Y-3.1997
X4.0558Y-3.8446
X4.0558Y-4.1446
X4.3558Y-1.1473
X4.3558Y-1.4473
X4.3558Y-2.0922
X4.3558Y-2.3922
X4.3558Y-2.8997
X4.3558Y-3.1997
X4.3558Y-3.8446
X4.3558Y-4.1446
X4.5558Y-1.1473
X4.5558Y-1.4473
X4.5558Y-2.0922
X4.5558Y-2.3922
X4.5558Y-2.8997
X4.5558Y-3.1997
X4.5558Y-3.8446
X4.5558Y-4.1446
X4.7558Y-1.1473
X4.7558Y-1.4473
X4.7558Y-2.0922
X4.7558Y-2.3922
X4.7558Y-2.8997
X4.7558Y-3.1997
X4.7558Y-3.8446
X4.7558Y-4.1446
X6.3052Y-1.1473
X6.3052Y-1.4473
X6.3052Y-2.0922
X6.3052Y-2.3922
X6.3052Y-2.8997
X6.3052Y-3.1997
X6.3052Y-3.8446
X6.3052Y-4.1446
X6.6052Y-1.1473
X6.6052Y-1.4473
X6.6052Y-2.0922
X6.6052Y-2.3922
X6.6052Y-2.8997
X6.6052Y-3.1997
X6.6052Y-3.8446
X6.6052Y-4.1446
X6.8052Y-1.1473
X6.8052Y-1.4473
X6.8052Y-2.0922
X6.8052Y-2.3922
X6.8052Y-2.8997
X6.8052Y-3.1997
X6.8052Y-3.8446
X6.8052Y-4.1446
X7.0052Y-1.1473
X7.0052Y-1.4473
X7.0052Y-2.0922
X7.0052Y-2.3922
X7.0052Y-2.8997
X7.0052Y-3.1997
X7.0052Y-3.8446
X7.0052Y-4.1446
T3
X4.512Y-1.8449
X4.512Y-3.5973
X4.562Y-1.8449
X4.562Y-3.5973
X4.612Y-1.8449
X4.612Y-3.5973
X6.7614Y-1.8449
X6.7614Y-3.5973
X6.8114Y-1.8449
X6.8114Y-3.5973
X6.8614Y-1.8449
X6.8614Y-3.5973
T4
X4.0305Y-1.6339
X4.0305Y-3.3862
X4.0774Y-0.9449
X4.0774Y-2.6973
X4.3305Y-1.6339
X4.3305Y-3.3862
X4.3774Y-0.9449
X4.3774Y-2.6973
X4.4317Y-1.6339
X4.4317Y-3.3862
X4.7317Y-1.6339
X4.7317Y-3.3862
X6.2799Y-1.6339
X6.2799Y-3.3862
X6.3268Y-0.9449
X6.3268Y-2.6973
X6.5799Y-1.6339
X6.5799Y-3.3862
X6.6268Y-0.9449
X6.6268Y-2.6973
X6.6811Y-1.6339
X6.6811Y-3.3862
X6.9811Y-1.6339
X6.9811Y-3.3862
T5
X4.5713Y-0.9252
X4.5713Y-2.6776
X4.6713Y-0.9252
X4.6713Y-2.6776
X6.8207Y-0.9252
X6.8207Y-2.6776
X6.9207Y-0.9252
X6.9207Y-2.6776
T6
X3.7352Y-0.9427
X3.7352Y-1.0427
X3.7352Y-1.1427
X3.7352Y-2.6951
X3.7352Y-2.7951
X3.7352Y-2.8951
X3.8533Y-1.7411
X3.8533Y-1.8411
X3.8533Y-2.0167
X3.8533Y-2.1167
X3.8533Y-3.4935
X3.8533Y-3.5935
X3.8533Y-3.7691
X3.8533Y-3.8691
X3.873Y-1.5157
X3.873Y-3.2681
X3.8927Y-0.9427
X3.8927Y-1.0427
X3.8927Y-1.1427
X3.8927Y-2.6951
X3.8927Y-2.7951
X3.8927Y-2.8951
X5.9847Y-0.9427
X5.9847Y-1.0427
X5.9847Y-1.1427
X5.9847Y-2.6951
X5.9847Y-2.7951
X5.9847Y-2.8951
X6.1028Y-1.7411
X6.1028Y-1.8411
X6.1028Y-2.0167
X6.1028Y-2.1167
X6.1028Y-3.4935
X6.1028Y-3.5935
X6.1028Y-3.7691
X6.1028Y-3.8691
X6.1225Y-1.5157
X6.1225Y-3.2681
X6.1421Y-0.9427
X6.1421Y-1.0427
X6.1421Y-1.1427
X6.1421Y-2.6951
X6.1421Y-2.7951
X6.1421Y-2.8951
T7
X4.0864Y-1.8701
X4.0864Y-3.6225
X4.1864Y-1.8701
X4.1864Y-3.6225
X4.2864Y-1.8701
X4.2864Y-3.6225
X6.3358Y-1.8701
X6.3358Y-3.6225
X6.4358Y-1.8701
X6.4358Y-3.6225
X6.5358Y-1.8701
X6.5358Y-3.6225
T8
X5.1909Y-0.901
X5.1909Y-1.54
X5.1909Y-1.7179
X5.1909Y-2.3569
X5.1909Y-2.6534
X5.1909Y-3.2923
X5.1909Y-3.4703
X5.1909Y-4.1093
X5.4409Y-0.901
X5.4409Y-1.54
X5.4409Y-1.7179
X5.4409Y-2.3569
X5.4409Y-2.6534
X5.4409Y-3.2923
X5.4409Y-3.4703
X5.4409Y-4.1093
X5.6909Y-0.901
X5.6909Y-1.54
X5.6909Y-1.7179
X5.6909Y-2.3569
X5.6909Y-2.6534
X5.6909Y-3.2923
X5.6909Y-3.4703
X5.6909Y-4.1093
X7.4404Y-0.901
X7.4404Y-1.54
X7.4404Y-1.7179
X7.4404Y-2.3569
X7.4404Y-2.6534
X7.4404Y-3.2923
X7.4404Y-3.4703
X7.4404Y-4.1093
X7.6904Y-0.901
X7.6904Y-1.54
X7.6904Y-1.7179
X7.6904Y-2.3569
X7.6904Y-2.6534
X7.6904Y-3.2923
X7.6904Y-3.4703
X7.6904Y-4.1093
X7.9404Y-0.901
X7.9404Y-1.54
X7.9404Y-1.7179
X7.9404Y-2.3569
X7.9404Y-2.6534
X7.9404Y-3.2923
X7.9404Y-3.4703
X7.9404Y-4.1093
T0
M30
