%TF.GenerationSoftware,KiCad,Pcbnew,7.0.9*%
%TF.CreationDate,2024-06-08T21:45:46-04:00*%
%TF.ProjectId,V2 Loop Panel,5632204c-6f6f-4702-9050-616e656c2e6b,rev?*%
%TF.SameCoordinates,Original*%
%TF.FileFunction,Drillmap*%
%TF.FilePolarity,Positive*%
%FSLAX45Y45*%
G04 Gerber Fmt 4.5, Leading zero omitted, Abs format (unit mm)*
G04 Created by KiCad (PCBNEW 7.0.9) date 2024-06-08 21:45:46*
%MOMM*%
%LPD*%
G01*
G04 APERTURE LIST*
%ADD10C,0.100000*%
%ADD11C,0.200000*%
G04 APERTURE END LIST*
D10*
X9256455Y-6057883D02*
X9262486Y-6072444D01*
X14850100Y-7663800D02*
X14950780Y-7663800D01*
X9304356Y-2111204D02*
X9294795Y-2123664D01*
X15251040Y-10702080D02*
X20451040Y-10701040D01*
X20463540Y-6451040D02*
X19510832Y-6451040D01*
X14983738Y-6614843D02*
X14976976Y-6629019D01*
X15114842Y-2032698D02*
X15101040Y-2040192D01*
X14850100Y-2912760D02*
X14849900Y-2912760D01*
X15235284Y-10701667D02*
X15251040Y-10702080D01*
X9490407Y-10698373D02*
X9506033Y-10700431D01*
X14849900Y-9489320D02*
X14741064Y-9489320D01*
X15902708Y-6250909D02*
X15902708Y-6350990D01*
X15062244Y-6517896D02*
X15050300Y-6528096D01*
X15028096Y-2099261D02*
X15017896Y-2111204D01*
X18108124Y-6350990D02*
X18108124Y-6351190D01*
X9348050Y-10634992D02*
X9360553Y-10644586D01*
X14951040Y-6751040D02*
X14950865Y-7363800D01*
X12394584Y-6451040D02*
X11591876Y-6451040D01*
X9444474Y-6236306D02*
X9459585Y-6240782D01*
X9238109Y-10432507D02*
X9240167Y-10448133D01*
X14969995Y-10508923D02*
X14976026Y-10523484D01*
X9324633Y-10613907D02*
X9336065Y-10624756D01*
X14950562Y-8426560D02*
X14850100Y-8426560D01*
X9303548Y-6139450D02*
X9313784Y-6151435D01*
X9251194Y-10494066D02*
X9256455Y-10508923D01*
X14998566Y-10564998D02*
X15007493Y-10577987D01*
X11591876Y-6350990D02*
X11591876Y-6250629D01*
X14998566Y-6113958D02*
X15007493Y-6126947D01*
X9285899Y-2136608D02*
X9277692Y-2150000D01*
X14991232Y-2150000D02*
X14983738Y-2163803D01*
X9270198Y-6614843D02*
X9263436Y-6629019D01*
X14746433Y-7663800D02*
X14849900Y-7663800D01*
X15143529Y-2019926D02*
X15129019Y-2025936D01*
X14741064Y-9489320D02*
X14743307Y-8726560D01*
X10189168Y-6451040D02*
X9537500Y-6451040D01*
X9276792Y-10551560D02*
X9285027Y-10564998D01*
X13497292Y-6351190D02*
X13497292Y-6451040D01*
X17305416Y-6350990D02*
X17305416Y-6250629D01*
X9336761Y-2077056D02*
X9325368Y-2087868D01*
X15114370Y-6218228D02*
X15128596Y-6225013D01*
X15173125Y-6240782D02*
X15188450Y-6244461D01*
X17305416Y-6351190D02*
X17305416Y-6350990D01*
X14954733Y-6704109D02*
X14952683Y-6719681D01*
X9237500Y-2300000D02*
X9236460Y-5950000D01*
X9537500Y-2000000D02*
X9521799Y-2000411D01*
X11291876Y-6350990D02*
X11291876Y-6351190D01*
X14954733Y-2253070D02*
X14952683Y-2268641D01*
X14961262Y-2222354D02*
X14957595Y-2237626D01*
X13797292Y-6250188D02*
X14737500Y-6250000D01*
X15017088Y-6139450D02*
X15027324Y-6151435D01*
X9348704Y-6517896D02*
X9336761Y-6528096D01*
X14850100Y-7363800D02*
X14849900Y-7363800D01*
X15074093Y-10644586D02*
X15087082Y-10653513D01*
X14737500Y-6250000D02*
X14740182Y-5338280D01*
X15902708Y-6451040D02*
X15251040Y-6451040D01*
X15219572Y-6249391D02*
X15235284Y-6250627D01*
X9537500Y-6251040D02*
X10189168Y-6250909D01*
X14950412Y-10416795D02*
X14951649Y-10432507D01*
X14956578Y-6012590D02*
X14960258Y-6027915D01*
X9490570Y-6454733D02*
X9475126Y-6457595D01*
X15188666Y-6457595D02*
X15173394Y-6461262D01*
X13797292Y-6351190D02*
X13797292Y-6350990D01*
X16202708Y-6451040D02*
X16202708Y-6351190D01*
X14951451Y-6735339D02*
X14951040Y-6751040D01*
X14953706Y-5997093D02*
X14956578Y-6012590D01*
X14747315Y-2912760D02*
X14750000Y-2000000D01*
X15087648Y-6499439D02*
X15074704Y-6508335D01*
X9475126Y-6457595D02*
X9459854Y-6461262D01*
X9360553Y-6193546D02*
X9373542Y-6202473D01*
X14964734Y-10494066D02*
X14969995Y-10508923D01*
X15038908Y-6538908D02*
X15028096Y-6550301D01*
X9262486Y-10523484D02*
X9269272Y-10537709D01*
X9236873Y-5965755D02*
X9238109Y-5981467D01*
X15101040Y-6491232D02*
X15087648Y-6499439D01*
X9247722Y-2222354D02*
X9244056Y-2237626D01*
X14849900Y-9789320D02*
X14850100Y-9789320D01*
X14849900Y-3975520D02*
X14744190Y-3975520D01*
X14750000Y-6451040D02*
X13797292Y-6451040D01*
X9537500Y-10702080D02*
X14737500Y-10701040D01*
X9415479Y-2025936D02*
X9401303Y-2032698D01*
X12394584Y-6250468D02*
X12394584Y-6350990D01*
X14951451Y-2284299D02*
X14951040Y-2300000D01*
X9459854Y-2010222D02*
X9444795Y-2014683D01*
X14744190Y-8426560D02*
X14746433Y-7663800D01*
X9474910Y-6244461D02*
X9490407Y-6247333D01*
X9400831Y-10669268D02*
X9415056Y-10676053D01*
X14970965Y-6643529D02*
X14965723Y-6658335D01*
X13497292Y-6250248D02*
X13497292Y-6350990D01*
X14740182Y-5338280D02*
X14849900Y-5338280D01*
X12394584Y-6351190D02*
X12394584Y-6451040D01*
X15188450Y-6244461D02*
X15203947Y-6247333D01*
X15143529Y-6470966D02*
X15129019Y-6476976D01*
X15128596Y-10676053D02*
X15143157Y-10682085D01*
X14950260Y-5038280D02*
X14850100Y-5038280D01*
X14976976Y-2177979D02*
X14970965Y-2192490D01*
X15062244Y-2066856D02*
X15050300Y-2077056D01*
X9303548Y-10590490D02*
X9313784Y-10602475D01*
X14950000Y-10401040D02*
X14950412Y-10416795D01*
X15007493Y-10577987D02*
X15017088Y-10590490D01*
X14950260Y-9489320D02*
X14850100Y-9489320D01*
X9506033Y-6249391D02*
X9521745Y-6250627D01*
X9374108Y-2048399D02*
X9361164Y-2057295D01*
X9324633Y-6162867D02*
X9336065Y-6173716D01*
X9387500Y-2040192D02*
X9374108Y-2048399D01*
X10489168Y-6350990D02*
X10489168Y-6250849D01*
X9251194Y-6043026D02*
X9256455Y-6057883D01*
X9348050Y-6183952D02*
X9360553Y-6193546D01*
X9241193Y-2253070D02*
X9239143Y-2268641D01*
X9444474Y-10687346D02*
X9459585Y-10691822D01*
X14850100Y-8426560D02*
X14849900Y-8426560D01*
X15027324Y-10602475D02*
X15038172Y-10613907D01*
X18408124Y-6350990D02*
X18408124Y-6250408D01*
X15203947Y-10698373D02*
X15219572Y-10700431D01*
X9293954Y-6126947D02*
X9303548Y-6139450D01*
X14950865Y-7363800D02*
X14850100Y-7363800D01*
X12694584Y-6250408D02*
X13497292Y-6250248D01*
X9257426Y-2192490D02*
X9252183Y-2207295D01*
X9373542Y-10653513D02*
X9386980Y-10661748D01*
X19210832Y-6351190D02*
X19210832Y-6451040D01*
X9313784Y-6151435D02*
X9324633Y-6162867D01*
X18408124Y-6451040D02*
X18408124Y-6351190D01*
X14970965Y-2192490D02*
X14965723Y-2207295D01*
X14950412Y-5965755D02*
X14951649Y-5981467D01*
X9415056Y-10676053D02*
X9429617Y-10682085D01*
X15050300Y-6528096D02*
X15038908Y-6538908D01*
X15049605Y-10624756D02*
X15061589Y-10634992D01*
X15251040Y-2000000D02*
X15235339Y-2000411D01*
X15902708Y-6351190D02*
X15902708Y-6451040D01*
X15251040Y-6251040D02*
X15902708Y-6250909D01*
X9313784Y-10602475D02*
X9324633Y-10613907D01*
X9429617Y-6231045D02*
X9444474Y-6236306D01*
X9459585Y-6240782D02*
X9474910Y-6244461D01*
X20451040Y-10701040D02*
X20463540Y-6451040D01*
X14950780Y-7663800D02*
X14950562Y-8426560D01*
X12694584Y-6451040D02*
X12694584Y-6351190D01*
X15038172Y-10613907D02*
X15049605Y-10624756D01*
X14990332Y-10551560D02*
X14998566Y-10564998D01*
X19510832Y-6351190D02*
X19510832Y-6350990D01*
X14990332Y-6100520D02*
X14998566Y-6113958D01*
X15219681Y-6452683D02*
X15204109Y-6454733D01*
X15188450Y-10695501D02*
X15203947Y-10698373D01*
X11291876Y-6451040D02*
X10489168Y-6451040D01*
X15017896Y-2111204D02*
X15008335Y-2123664D01*
X9252183Y-6658335D02*
X9247722Y-6673394D01*
X15074704Y-2057295D02*
X15062244Y-2066856D01*
X15902708Y-6350990D02*
X15902708Y-6351190D01*
X10489168Y-6250849D02*
X11291876Y-6250689D01*
X9269272Y-10537709D02*
X9276792Y-10551560D01*
X14746433Y-3212760D02*
X14849900Y-3212760D01*
X15128596Y-6225013D02*
X15143157Y-6231045D01*
X18108124Y-6451040D02*
X17305416Y-6451040D01*
X9360553Y-10644586D02*
X9373542Y-10653513D01*
X15129019Y-6476976D02*
X15114842Y-6483738D01*
X18108124Y-6351190D02*
X18108124Y-6451040D01*
X14950174Y-5338280D02*
X14950000Y-5950000D01*
X14953706Y-10448133D02*
X14956578Y-10463630D01*
X9252183Y-2207295D02*
X9247722Y-2222354D01*
X14850100Y-9789320D02*
X14950174Y-9789320D01*
X14969995Y-6057883D02*
X14976026Y-6072444D01*
X15027324Y-6151435D02*
X15038172Y-6162867D01*
X9237500Y-6751040D02*
X9236460Y-10401040D01*
X19510832Y-6451040D02*
X19510832Y-6351190D01*
X12694584Y-6350990D02*
X12694584Y-6250408D01*
X16202708Y-6350990D02*
X16202708Y-6250849D01*
X9277692Y-6601040D02*
X9270198Y-6614843D01*
X15087082Y-6202473D02*
X15100520Y-6210708D01*
X9270198Y-2163803D02*
X9263436Y-2177979D01*
X9294795Y-6574704D02*
X9285899Y-6587648D01*
X10189168Y-6351190D02*
X10189168Y-6451040D01*
X13797292Y-6350990D02*
X13797292Y-6250188D01*
X9263436Y-6629019D02*
X9257426Y-6643529D01*
X9374108Y-6499439D02*
X9361164Y-6508335D01*
X14850100Y-3975520D02*
X14849900Y-3975520D01*
X14849900Y-7663800D02*
X14850100Y-7663800D01*
X9246718Y-6027915D02*
X9251194Y-6043026D01*
X14951649Y-10432507D02*
X14953706Y-10448133D01*
X15017088Y-10590490D02*
X15027324Y-10602475D01*
X9240167Y-10448133D02*
X9243039Y-10463630D01*
X9429990Y-2019926D02*
X9415479Y-2025936D01*
X9506141Y-2001643D02*
X9490570Y-2003693D01*
X15074704Y-6508335D02*
X15062244Y-6517896D01*
X9387500Y-6491232D02*
X9374108Y-6499439D01*
X14743307Y-4275520D02*
X14849900Y-4275520D01*
X9314556Y-6550301D02*
X9304356Y-6562244D01*
X14976026Y-10523484D02*
X14982811Y-10537709D01*
X15251040Y-6451040D02*
X15235339Y-6451451D01*
X11591876Y-6351190D02*
X11591876Y-6350990D01*
X17305416Y-6451040D02*
X17305416Y-6351190D01*
X15050300Y-2077056D02*
X15038908Y-2087868D01*
X9429990Y-6470966D02*
X9415479Y-6476976D01*
X14747315Y-7363800D02*
X14750000Y-6451040D01*
X14951649Y-5981467D02*
X14953706Y-5997093D01*
X15204109Y-2003693D02*
X15188666Y-2006556D01*
X14850100Y-4275520D02*
X14950477Y-4275520D01*
X9361164Y-6508335D02*
X9348704Y-6517896D01*
X9244056Y-6688666D02*
X9241193Y-6704109D01*
X15173394Y-2010222D02*
X15158335Y-2014683D01*
X15114842Y-6483738D02*
X15101040Y-6491232D01*
X15219572Y-10700431D02*
X15235284Y-10701667D01*
X11291876Y-6250689D02*
X11291876Y-6350990D01*
X9236460Y-5950000D02*
X9236873Y-5965755D01*
X9386980Y-6210708D02*
X9400831Y-6218228D01*
X9247722Y-6673394D02*
X9244056Y-6688666D01*
X15173394Y-6461262D02*
X15158335Y-6465723D01*
X9490570Y-2003693D02*
X9475126Y-2006556D01*
X10489168Y-6451040D02*
X10489168Y-6351190D01*
X15203947Y-6247333D02*
X15219572Y-6249391D01*
X14951040Y-2300000D02*
X14950865Y-2912760D01*
X20463540Y-2000000D02*
X15251040Y-2000000D01*
X14965723Y-2207295D02*
X14961262Y-2222354D01*
X15038172Y-6162867D02*
X15049605Y-6173716D01*
X15017896Y-6562244D02*
X15008335Y-6574704D01*
X14999438Y-6587648D02*
X14991232Y-6601040D01*
X16202708Y-6250849D02*
X17005416Y-6250689D01*
X14950174Y-9789320D02*
X14950000Y-10401040D01*
X9401303Y-6483738D02*
X9387500Y-6491232D01*
X14956578Y-10463630D02*
X14960258Y-10478955D01*
X10189168Y-6250909D02*
X10189168Y-6350990D01*
X14849900Y-3212760D02*
X14850100Y-3212760D01*
X14960258Y-10478955D02*
X14964734Y-10494066D01*
X12694584Y-6351190D02*
X12694584Y-6350990D01*
X19210832Y-6451040D02*
X18408124Y-6451040D01*
X15049605Y-6173716D02*
X15061589Y-6183952D01*
X9257426Y-6643529D02*
X9252183Y-6658335D01*
X9336065Y-6173716D02*
X9348050Y-6183952D01*
X18408124Y-6250408D02*
X19210832Y-6250248D01*
X17005416Y-6250689D02*
X17005416Y-6350990D01*
X18408124Y-6351190D02*
X18408124Y-6350990D01*
X14850100Y-9489320D02*
X14849900Y-9489320D01*
X14741064Y-5038280D02*
X14743307Y-4275520D01*
X9285027Y-6113958D02*
X9293954Y-6126947D01*
X13497292Y-6451040D02*
X12694584Y-6451040D01*
X14982811Y-10537709D02*
X14990332Y-10551560D01*
X15219681Y-2001643D02*
X15204109Y-2003693D01*
X14850100Y-5338280D02*
X14950174Y-5338280D01*
X9415479Y-6476976D02*
X9401303Y-6483738D01*
X14849900Y-8726560D02*
X14850100Y-8726560D01*
X19510832Y-6250188D02*
X20451040Y-6250000D01*
X15143157Y-10682085D02*
X15158013Y-10687346D01*
X9459585Y-10691822D02*
X9474910Y-10695501D01*
X9429617Y-10682085D02*
X9444474Y-10687346D01*
X9336761Y-6528096D02*
X9325368Y-6538908D01*
X15100520Y-6210708D02*
X15114370Y-6218228D01*
X20451040Y-6250000D02*
X20463540Y-2000000D01*
X14950780Y-3212760D02*
X14950562Y-3975520D01*
X9269272Y-6086669D02*
X9276792Y-6100520D01*
X9521799Y-6451451D02*
X9506141Y-6452683D01*
X15061589Y-6183952D02*
X15074093Y-6193546D01*
X14744190Y-3975520D02*
X14746433Y-3212760D01*
X11591876Y-6250629D02*
X12394584Y-6250468D01*
X9277692Y-2150000D02*
X9270198Y-2163803D01*
X14957595Y-6688666D02*
X14954733Y-6704109D01*
X9240167Y-5997093D02*
X9243039Y-6012590D01*
X9325368Y-2087868D02*
X9314556Y-2099261D01*
X9243039Y-6012590D02*
X9246718Y-6027915D01*
X18108124Y-6250468D02*
X18108124Y-6350990D01*
X9294795Y-2123664D02*
X9285899Y-2136608D01*
X9325368Y-6538908D02*
X9314556Y-6550301D01*
X15173125Y-10691822D02*
X15188450Y-10695501D01*
X14957595Y-2237626D02*
X14954733Y-2253070D01*
X14952683Y-2268641D02*
X14951451Y-2284299D01*
X9336065Y-10624756D02*
X9348050Y-10634992D01*
X9262486Y-6072444D02*
X9269272Y-6086669D01*
X19510832Y-6350990D02*
X19510832Y-6250188D01*
X17005416Y-6451040D02*
X16202708Y-6451040D01*
X15074093Y-6193546D02*
X15087082Y-6202473D01*
X9444795Y-2014683D02*
X9429990Y-2019926D01*
X9239143Y-6719681D02*
X9237911Y-6735339D01*
X15158335Y-2014683D02*
X15143529Y-2019926D01*
X17305416Y-6250629D02*
X18108124Y-6250468D01*
X14850100Y-5038280D02*
X14849900Y-5038280D01*
X9285027Y-10564998D02*
X9293954Y-10577987D01*
X14850100Y-3212760D02*
X14950780Y-3212760D01*
X9444795Y-6465723D02*
X9429990Y-6470966D01*
X19210832Y-6250248D02*
X19210832Y-6350990D01*
X9506141Y-6452683D02*
X9490570Y-6454733D01*
X9386980Y-10661748D02*
X9400831Y-10669268D01*
X15087082Y-10653513D02*
X15100520Y-10661748D01*
X13497292Y-6350990D02*
X13497292Y-6351190D01*
X9276792Y-6100520D02*
X9285027Y-6113958D01*
X14849900Y-7363800D02*
X14747315Y-7363800D01*
X9244056Y-2237626D02*
X9241193Y-2253070D01*
X14960258Y-6027915D02*
X14964734Y-6043026D01*
X9373542Y-6202473D02*
X9386980Y-6210708D01*
X14849900Y-8426560D02*
X14744190Y-8426560D01*
X9415056Y-6225013D02*
X9429617Y-6231045D01*
X9239143Y-2268641D02*
X9237911Y-2284299D01*
X9521745Y-10701667D02*
X9537500Y-10702080D01*
X14849900Y-4275520D02*
X14850100Y-4275520D01*
X9314556Y-2099261D02*
X9304356Y-2111204D01*
X14983738Y-2163803D02*
X14976976Y-2177979D01*
X9293954Y-10577987D02*
X9303548Y-10590490D01*
X14849900Y-5338280D02*
X14850100Y-5338280D01*
X9537500Y-6451040D02*
X9521799Y-6451451D01*
X15235339Y-6451451D02*
X15219681Y-6452683D01*
X9238109Y-5981467D02*
X9240167Y-5997093D01*
X9236460Y-10401040D02*
X9236873Y-10416795D01*
X14849900Y-2912760D02*
X14747315Y-2912760D01*
X9285899Y-6587648D02*
X9277692Y-6601040D01*
X9246718Y-10478955D02*
X9251194Y-10494066D01*
X11291876Y-6351190D02*
X11291876Y-6451040D01*
X14976026Y-6072444D02*
X14982811Y-6086669D01*
X9400831Y-6218228D02*
X9415056Y-6225013D01*
X14976976Y-6629019D02*
X14970965Y-6643529D01*
X14950000Y-5950000D02*
X14950412Y-5965755D01*
X9241193Y-6704109D02*
X9239143Y-6719681D01*
X15008335Y-6574704D02*
X14999438Y-6587648D01*
X14982811Y-6086669D02*
X14990332Y-6100520D01*
X13797292Y-6451040D02*
X13797292Y-6351190D01*
X15158013Y-10687346D02*
X15173125Y-10691822D01*
X10189168Y-6350990D02*
X10189168Y-6351190D01*
X14950477Y-4275520D02*
X14950260Y-5038280D01*
X14950477Y-8726560D02*
X14950260Y-9489320D01*
X9243039Y-10463630D02*
X9246718Y-10478955D01*
X17005416Y-6351190D02*
X17005416Y-6451040D01*
X9475126Y-2006556D02*
X9459854Y-2010222D01*
X9237911Y-6735339D02*
X9237500Y-6751040D01*
X9361164Y-2057295D02*
X9348704Y-2066856D01*
X9401303Y-2032698D02*
X9387500Y-2040192D01*
X14849900Y-5038280D02*
X14741064Y-5038280D01*
X10489168Y-6351190D02*
X10489168Y-6350990D01*
X9263436Y-2177979D02*
X9257426Y-2192490D01*
X14965723Y-6658335D02*
X14961262Y-6673394D01*
X9490407Y-6247333D02*
X9506033Y-6249391D01*
X14991232Y-6601040D02*
X14983738Y-6614843D01*
X15100520Y-10661748D02*
X15114370Y-10669268D01*
X14737500Y-10701040D02*
X14740182Y-9789320D01*
X9459854Y-6461262D02*
X9444795Y-6465723D01*
X12394584Y-6350990D02*
X12394584Y-6351190D01*
X15007493Y-6126947D02*
X15017088Y-6139450D01*
X9304356Y-6562244D02*
X9294795Y-6574704D01*
X9237911Y-2284299D02*
X9237500Y-2300000D01*
X17005416Y-6350990D02*
X17005416Y-6351190D01*
X15188666Y-2006556D02*
X15173394Y-2010222D01*
X19210832Y-6350990D02*
X19210832Y-6351190D01*
X9521745Y-6250627D02*
X9537500Y-6251040D01*
X14999438Y-2136608D02*
X14991232Y-2150000D01*
X15028096Y-6550301D02*
X15017896Y-6562244D01*
X9236873Y-10416795D02*
X9238109Y-10432507D01*
X14743307Y-8726560D02*
X14849900Y-8726560D01*
X9474910Y-10695501D02*
X9490407Y-10698373D01*
X15143157Y-6231045D02*
X15158013Y-6236306D01*
X14950865Y-2912760D02*
X14850100Y-2912760D01*
X11591876Y-6451040D02*
X11591876Y-6351190D01*
X16202708Y-6351190D02*
X16202708Y-6350990D01*
X9256455Y-10508923D02*
X9262486Y-10523484D01*
X9521799Y-2000411D02*
X9506141Y-2001643D01*
X15008335Y-2123664D02*
X14999438Y-2136608D01*
X9348704Y-2066856D02*
X9336761Y-2077056D01*
X15235339Y-2000411D02*
X15219681Y-2001643D01*
X15204109Y-6454733D02*
X15188666Y-6457595D01*
X14961262Y-6673394D02*
X14957595Y-6688666D01*
X15158335Y-6465723D02*
X15143529Y-6470966D01*
X15101040Y-2040192D02*
X15087648Y-2048399D01*
X14740182Y-9789320D02*
X14849900Y-9789320D01*
X15061589Y-10634992D02*
X15074093Y-10644586D01*
X15038908Y-2087868D02*
X15028096Y-2099261D01*
X15114370Y-10669268D02*
X15128596Y-10676053D01*
X14952683Y-6719681D02*
X14951451Y-6735339D01*
X14950562Y-3975520D02*
X14850100Y-3975520D01*
X9506033Y-10700431D02*
X9521745Y-10701667D01*
X14964734Y-6043026D02*
X14969995Y-6057883D01*
X14850100Y-8726560D02*
X14950477Y-8726560D01*
X15235284Y-6250627D02*
X15251040Y-6251040D01*
X15087648Y-2048399D02*
X15074704Y-2057295D01*
X14750000Y-2000000D02*
X9537500Y-2000000D01*
X15129019Y-2025936D02*
X15114842Y-2032698D01*
X15158013Y-6236306D02*
X15173125Y-6240782D01*
D11*
D10*
X10164168Y-6225909D02*
X10214168Y-6275909D01*
X10214168Y-6225909D02*
X10164168Y-6275909D01*
X10164168Y-6426040D02*
X10214168Y-6476040D01*
X10214168Y-6426040D02*
X10164168Y-6476040D01*
X10264168Y-6225889D02*
X10314168Y-6275889D01*
X10314168Y-6225889D02*
X10264168Y-6275889D01*
X10264168Y-6426040D02*
X10314168Y-6476040D01*
X10314168Y-6426040D02*
X10264168Y-6476040D01*
X10364168Y-6225869D02*
X10414168Y-6275869D01*
X10414168Y-6225869D02*
X10364168Y-6275869D01*
X10364168Y-6426040D02*
X10414168Y-6476040D01*
X10414168Y-6426040D02*
X10364168Y-6476040D01*
X10464168Y-6225849D02*
X10514168Y-6275849D01*
X10514168Y-6225849D02*
X10464168Y-6275849D01*
X10464168Y-6426040D02*
X10514168Y-6476040D01*
X10514168Y-6426040D02*
X10464168Y-6476040D01*
X11266876Y-6225689D02*
X11316876Y-6275689D01*
X11316876Y-6225689D02*
X11266876Y-6275689D01*
X11266876Y-6426040D02*
X11316876Y-6476040D01*
X11316876Y-6426040D02*
X11266876Y-6476040D01*
X11366876Y-6225669D02*
X11416876Y-6275669D01*
X11416876Y-6225669D02*
X11366876Y-6275669D01*
X11366876Y-6426040D02*
X11416876Y-6476040D01*
X11416876Y-6426040D02*
X11366876Y-6476040D01*
X11466876Y-6225649D02*
X11516876Y-6275649D01*
X11516876Y-6225649D02*
X11466876Y-6275649D01*
X11466876Y-6426040D02*
X11516876Y-6476040D01*
X11516876Y-6426040D02*
X11466876Y-6476040D01*
X11566876Y-6225629D02*
X11616876Y-6275629D01*
X11616876Y-6225629D02*
X11566876Y-6275629D01*
X11566876Y-6426040D02*
X11616876Y-6476040D01*
X11616876Y-6426040D02*
X11566876Y-6476040D01*
X12369584Y-6225468D02*
X12419584Y-6275468D01*
X12419584Y-6225468D02*
X12369584Y-6275468D01*
X12369584Y-6426040D02*
X12419584Y-6476040D01*
X12419584Y-6426040D02*
X12369584Y-6476040D01*
X12469584Y-6225448D02*
X12519584Y-6275448D01*
X12519584Y-6225448D02*
X12469584Y-6275448D01*
X12469584Y-6426040D02*
X12519584Y-6476040D01*
X12519584Y-6426040D02*
X12469584Y-6476040D01*
X12569584Y-6225428D02*
X12619584Y-6275428D01*
X12619584Y-6225428D02*
X12569584Y-6275428D01*
X12569584Y-6426040D02*
X12619584Y-6476040D01*
X12619584Y-6426040D02*
X12569584Y-6476040D01*
X12669584Y-6225408D02*
X12719584Y-6275408D01*
X12719584Y-6225408D02*
X12669584Y-6275408D01*
X12669584Y-6426040D02*
X12719584Y-6476040D01*
X12719584Y-6426040D02*
X12669584Y-6476040D01*
X13472292Y-6225248D02*
X13522292Y-6275248D01*
X13522292Y-6225248D02*
X13472292Y-6275248D01*
X13472292Y-6426040D02*
X13522292Y-6476040D01*
X13522292Y-6426040D02*
X13472292Y-6476040D01*
X13572292Y-6225228D02*
X13622292Y-6275228D01*
X13622292Y-6225228D02*
X13572292Y-6275228D01*
X13572292Y-6426040D02*
X13622292Y-6476040D01*
X13622292Y-6426040D02*
X13572292Y-6476040D01*
X13672292Y-6225208D02*
X13722292Y-6275208D01*
X13722292Y-6225208D02*
X13672292Y-6275208D01*
X13672292Y-6426040D02*
X13722292Y-6476040D01*
X13722292Y-6426040D02*
X13672292Y-6476040D01*
X13772292Y-6225188D02*
X13822292Y-6275188D01*
X13822292Y-6225188D02*
X13772292Y-6275188D01*
X13772292Y-6426040D02*
X13822292Y-6476040D01*
X13822292Y-6426040D02*
X13772292Y-6476040D01*
X14715182Y-5313280D02*
X14765182Y-5363280D01*
X14765182Y-5313280D02*
X14715182Y-5363280D01*
X14715182Y-9764320D02*
X14765182Y-9814320D01*
X14765182Y-9764320D02*
X14715182Y-9814320D01*
X14715476Y-5213280D02*
X14765476Y-5263280D01*
X14765476Y-5213280D02*
X14715476Y-5263280D01*
X14715476Y-9664320D02*
X14765476Y-9714320D01*
X14765476Y-9664320D02*
X14715476Y-9714320D01*
X14715770Y-5113280D02*
X14765770Y-5163280D01*
X14765770Y-5113280D02*
X14715770Y-5163280D01*
X14715770Y-9564320D02*
X14765770Y-9614320D01*
X14765770Y-9564320D02*
X14715770Y-9614320D01*
X14716064Y-5013280D02*
X14766064Y-5063280D01*
X14766064Y-5013280D02*
X14716064Y-5063280D01*
X14716064Y-9464320D02*
X14766064Y-9514320D01*
X14766064Y-9464320D02*
X14716064Y-9514320D01*
X14718307Y-4250520D02*
X14768307Y-4300520D01*
X14768307Y-4250520D02*
X14718307Y-4300520D01*
X14718307Y-8701560D02*
X14768307Y-8751560D01*
X14768307Y-8701560D02*
X14718307Y-8751560D01*
X14718601Y-4150520D02*
X14768601Y-4200520D01*
X14768601Y-4150520D02*
X14718601Y-4200520D01*
X14718601Y-8601560D02*
X14768601Y-8651560D01*
X14768601Y-8601560D02*
X14718601Y-8651560D01*
X14718895Y-4050520D02*
X14768895Y-4100520D01*
X14768895Y-4050520D02*
X14718895Y-4100520D01*
X14718895Y-8501560D02*
X14768895Y-8551560D01*
X14768895Y-8501560D02*
X14718895Y-8551560D01*
X14719190Y-3950520D02*
X14769190Y-4000520D01*
X14769190Y-3950520D02*
X14719190Y-4000520D01*
X14719190Y-8401560D02*
X14769190Y-8451560D01*
X14769190Y-8401560D02*
X14719190Y-8451560D01*
X14721433Y-3187760D02*
X14771433Y-3237760D01*
X14771433Y-3187760D02*
X14721433Y-3237760D01*
X14721433Y-7638800D02*
X14771433Y-7688800D01*
X14771433Y-7638800D02*
X14721433Y-7688800D01*
X14721727Y-3087760D02*
X14771727Y-3137760D01*
X14771727Y-3087760D02*
X14721727Y-3137760D01*
X14721727Y-7538800D02*
X14771727Y-7588800D01*
X14771727Y-7538800D02*
X14721727Y-7588800D01*
X14722021Y-2987760D02*
X14772021Y-3037760D01*
X14772021Y-2987760D02*
X14722021Y-3037760D01*
X14722021Y-7438800D02*
X14772021Y-7488800D01*
X14772021Y-7438800D02*
X14722021Y-7488800D01*
X14722315Y-2887760D02*
X14772315Y-2937760D01*
X14772315Y-2887760D02*
X14722315Y-2937760D01*
X14722315Y-7338800D02*
X14772315Y-7388800D01*
X14772315Y-7338800D02*
X14722315Y-7388800D01*
X14925174Y-5313280D02*
X14975174Y-5363280D01*
X14975174Y-5313280D02*
X14925174Y-5363280D01*
X14925174Y-9764320D02*
X14975174Y-9814320D01*
X14975174Y-9764320D02*
X14925174Y-9814320D01*
X14925203Y-5213280D02*
X14975203Y-5263280D01*
X14975203Y-5213280D02*
X14925203Y-5263280D01*
X14925203Y-9664320D02*
X14975203Y-9714320D01*
X14975203Y-9664320D02*
X14925203Y-9714320D01*
X14925231Y-5113280D02*
X14975231Y-5163280D01*
X14975231Y-5113280D02*
X14925231Y-5163280D01*
X14925231Y-9564320D02*
X14975231Y-9614320D01*
X14975231Y-9564320D02*
X14925231Y-9614320D01*
X14925260Y-5013280D02*
X14975260Y-5063280D01*
X14975260Y-5013280D02*
X14925260Y-5063280D01*
X14925260Y-9464320D02*
X14975260Y-9514320D01*
X14975260Y-9464320D02*
X14925260Y-9514320D01*
X14925477Y-4250520D02*
X14975477Y-4300520D01*
X14975477Y-4250520D02*
X14925477Y-4300520D01*
X14925477Y-8701560D02*
X14975477Y-8751560D01*
X14975477Y-8701560D02*
X14925477Y-8751560D01*
X14925505Y-4150520D02*
X14975505Y-4200520D01*
X14975505Y-4150520D02*
X14925505Y-4200520D01*
X14925505Y-8601560D02*
X14975505Y-8651560D01*
X14975505Y-8601560D02*
X14925505Y-8651560D01*
X14925534Y-4050520D02*
X14975534Y-4100520D01*
X14975534Y-4050520D02*
X14925534Y-4100520D01*
X14925534Y-8501560D02*
X14975534Y-8551560D01*
X14975534Y-8501560D02*
X14925534Y-8551560D01*
X14925562Y-3950520D02*
X14975562Y-4000520D01*
X14975562Y-3950520D02*
X14925562Y-4000520D01*
X14925562Y-8401560D02*
X14975562Y-8451560D01*
X14975562Y-8401560D02*
X14925562Y-8451560D01*
X14925780Y-3187760D02*
X14975780Y-3237760D01*
X14975780Y-3187760D02*
X14925780Y-3237760D01*
X14925780Y-7638800D02*
X14975780Y-7688800D01*
X14975780Y-7638800D02*
X14925780Y-7688800D01*
X14925808Y-3087760D02*
X14975808Y-3137760D01*
X14975808Y-3087760D02*
X14925808Y-3137760D01*
X14925808Y-7538800D02*
X14975808Y-7588800D01*
X14975808Y-7538800D02*
X14925808Y-7588800D01*
X14925837Y-2987760D02*
X14975837Y-3037760D01*
X14975837Y-2987760D02*
X14925837Y-3037760D01*
X14925837Y-7438800D02*
X14975837Y-7488800D01*
X14975837Y-7438800D02*
X14925837Y-7488800D01*
X14925865Y-2887760D02*
X14975865Y-2937760D01*
X14975865Y-2887760D02*
X14925865Y-2937760D01*
X14925865Y-7338800D02*
X14975865Y-7388800D01*
X14975865Y-7338800D02*
X14925865Y-7388800D01*
X15877708Y-6225909D02*
X15927708Y-6275909D01*
X15927708Y-6225909D02*
X15877708Y-6275909D01*
X15877708Y-6426040D02*
X15927708Y-6476040D01*
X15927708Y-6426040D02*
X15877708Y-6476040D01*
X15977708Y-6225889D02*
X16027708Y-6275889D01*
X16027708Y-6225889D02*
X15977708Y-6275889D01*
X15977708Y-6426040D02*
X16027708Y-6476040D01*
X16027708Y-6426040D02*
X15977708Y-6476040D01*
X16077708Y-6225869D02*
X16127708Y-6275869D01*
X16127708Y-6225869D02*
X16077708Y-6275869D01*
X16077708Y-6426040D02*
X16127708Y-6476040D01*
X16127708Y-6426040D02*
X16077708Y-6476040D01*
X16177708Y-6225849D02*
X16227708Y-6275849D01*
X16227708Y-6225849D02*
X16177708Y-6275849D01*
X16177708Y-6426040D02*
X16227708Y-6476040D01*
X16227708Y-6426040D02*
X16177708Y-6476040D01*
X16980416Y-6225689D02*
X17030416Y-6275689D01*
X17030416Y-6225689D02*
X16980416Y-6275689D01*
X16980416Y-6426040D02*
X17030416Y-6476040D01*
X17030416Y-6426040D02*
X16980416Y-6476040D01*
X17080416Y-6225669D02*
X17130416Y-6275669D01*
X17130416Y-6225669D02*
X17080416Y-6275669D01*
X17080416Y-6426040D02*
X17130416Y-6476040D01*
X17130416Y-6426040D02*
X17080416Y-6476040D01*
X17180416Y-6225649D02*
X17230416Y-6275649D01*
X17230416Y-6225649D02*
X17180416Y-6275649D01*
X17180416Y-6426040D02*
X17230416Y-6476040D01*
X17230416Y-6426040D02*
X17180416Y-6476040D01*
X17280416Y-6225629D02*
X17330416Y-6275629D01*
X17330416Y-6225629D02*
X17280416Y-6275629D01*
X17280416Y-6426040D02*
X17330416Y-6476040D01*
X17330416Y-6426040D02*
X17280416Y-6476040D01*
X18083124Y-6225468D02*
X18133124Y-6275468D01*
X18133124Y-6225468D02*
X18083124Y-6275468D01*
X18083124Y-6426040D02*
X18133124Y-6476040D01*
X18133124Y-6426040D02*
X18083124Y-6476040D01*
X18183124Y-6225448D02*
X18233124Y-6275448D01*
X18233124Y-6225448D02*
X18183124Y-6275448D01*
X18183124Y-6426040D02*
X18233124Y-6476040D01*
X18233124Y-6426040D02*
X18183124Y-6476040D01*
X18283124Y-6225428D02*
X18333124Y-6275428D01*
X18333124Y-6225428D02*
X18283124Y-6275428D01*
X18283124Y-6426040D02*
X18333124Y-6476040D01*
X18333124Y-6426040D02*
X18283124Y-6476040D01*
X18383124Y-6225408D02*
X18433124Y-6275408D01*
X18433124Y-6225408D02*
X18383124Y-6275408D01*
X18383124Y-6426040D02*
X18433124Y-6476040D01*
X18433124Y-6426040D02*
X18383124Y-6476040D01*
X19185832Y-6225248D02*
X19235832Y-6275248D01*
X19235832Y-6225248D02*
X19185832Y-6275248D01*
X19185832Y-6426040D02*
X19235832Y-6476040D01*
X19235832Y-6426040D02*
X19185832Y-6476040D01*
X19285832Y-6225228D02*
X19335832Y-6275228D01*
X19335832Y-6225228D02*
X19285832Y-6275228D01*
X19285832Y-6426040D02*
X19335832Y-6476040D01*
X19335832Y-6426040D02*
X19285832Y-6476040D01*
X19385832Y-6225208D02*
X19435832Y-6275208D01*
X19435832Y-6225208D02*
X19385832Y-6275208D01*
X19385832Y-6426040D02*
X19435832Y-6476040D01*
X19435832Y-6426040D02*
X19385832Y-6476040D01*
X19485832Y-6225188D02*
X19535832Y-6275188D01*
X19535832Y-6225188D02*
X19485832Y-6275188D01*
X19485832Y-6426040D02*
X19535832Y-6476040D01*
X19535832Y-6426040D02*
X19485832Y-6476040D01*
D11*
X9492237Y-11018564D02*
X9492237Y-10818564D01*
X9492237Y-10818564D02*
X9539856Y-10818564D01*
X9539856Y-10818564D02*
X9568428Y-10828087D01*
X9568428Y-10828087D02*
X9587475Y-10847135D01*
X9587475Y-10847135D02*
X9596999Y-10866183D01*
X9596999Y-10866183D02*
X9606523Y-10904278D01*
X9606523Y-10904278D02*
X9606523Y-10932849D01*
X9606523Y-10932849D02*
X9596999Y-10970944D01*
X9596999Y-10970944D02*
X9587475Y-10989992D01*
X9587475Y-10989992D02*
X9568428Y-11009040D01*
X9568428Y-11009040D02*
X9539856Y-11018564D01*
X9539856Y-11018564D02*
X9492237Y-11018564D01*
X9692237Y-11018564D02*
X9692237Y-10885230D01*
X9692237Y-10923325D02*
X9701761Y-10904278D01*
X9701761Y-10904278D02*
X9711285Y-10894754D01*
X9711285Y-10894754D02*
X9730332Y-10885230D01*
X9730332Y-10885230D02*
X9749380Y-10885230D01*
X9816047Y-11018564D02*
X9816047Y-10885230D01*
X9816047Y-10818564D02*
X9806523Y-10828087D01*
X9806523Y-10828087D02*
X9816047Y-10837611D01*
X9816047Y-10837611D02*
X9825570Y-10828087D01*
X9825570Y-10828087D02*
X9816047Y-10818564D01*
X9816047Y-10818564D02*
X9816047Y-10837611D01*
X9939856Y-11018564D02*
X9920808Y-11009040D01*
X9920808Y-11009040D02*
X9911285Y-10989992D01*
X9911285Y-10989992D02*
X9911285Y-10818564D01*
X10044618Y-11018564D02*
X10025570Y-11009040D01*
X10025570Y-11009040D02*
X10016047Y-10989992D01*
X10016047Y-10989992D02*
X10016047Y-10818564D01*
X10273189Y-11018564D02*
X10273189Y-10818564D01*
X10273189Y-10818564D02*
X10339856Y-10961421D01*
X10339856Y-10961421D02*
X10406523Y-10818564D01*
X10406523Y-10818564D02*
X10406523Y-11018564D01*
X10587475Y-11018564D02*
X10587475Y-10913802D01*
X10587475Y-10913802D02*
X10577951Y-10894754D01*
X10577951Y-10894754D02*
X10558904Y-10885230D01*
X10558904Y-10885230D02*
X10520808Y-10885230D01*
X10520808Y-10885230D02*
X10501761Y-10894754D01*
X10587475Y-11009040D02*
X10568428Y-11018564D01*
X10568428Y-11018564D02*
X10520808Y-11018564D01*
X10520808Y-11018564D02*
X10501761Y-11009040D01*
X10501761Y-11009040D02*
X10492237Y-10989992D01*
X10492237Y-10989992D02*
X10492237Y-10970944D01*
X10492237Y-10970944D02*
X10501761Y-10951897D01*
X10501761Y-10951897D02*
X10520808Y-10942373D01*
X10520808Y-10942373D02*
X10568428Y-10942373D01*
X10568428Y-10942373D02*
X10587475Y-10932849D01*
X10682713Y-10885230D02*
X10682713Y-11085230D01*
X10682713Y-10894754D02*
X10701761Y-10885230D01*
X10701761Y-10885230D02*
X10739856Y-10885230D01*
X10739856Y-10885230D02*
X10758904Y-10894754D01*
X10758904Y-10894754D02*
X10768428Y-10904278D01*
X10768428Y-10904278D02*
X10777951Y-10923325D01*
X10777951Y-10923325D02*
X10777951Y-10980468D01*
X10777951Y-10980468D02*
X10768428Y-10999516D01*
X10768428Y-10999516D02*
X10758904Y-11009040D01*
X10758904Y-11009040D02*
X10739856Y-11018564D01*
X10739856Y-11018564D02*
X10701761Y-11018564D01*
X10701761Y-11018564D02*
X10682713Y-11009040D01*
X10863666Y-10999516D02*
X10873189Y-11009040D01*
X10873189Y-11009040D02*
X10863666Y-11018564D01*
X10863666Y-11018564D02*
X10854142Y-11009040D01*
X10854142Y-11009040D02*
X10863666Y-10999516D01*
X10863666Y-10999516D02*
X10863666Y-11018564D01*
X10863666Y-10894754D02*
X10873189Y-10904278D01*
X10873189Y-10904278D02*
X10863666Y-10913802D01*
X10863666Y-10913802D02*
X10854142Y-10904278D01*
X10854142Y-10904278D02*
X10863666Y-10894754D01*
X10863666Y-10894754D02*
X10863666Y-10913802D01*
D10*
X9181460Y-11322080D02*
X9231460Y-11372080D01*
X9231460Y-11322080D02*
X9181460Y-11372080D01*
D11*
X9530332Y-11238563D02*
X9549380Y-11238563D01*
X9549380Y-11238563D02*
X9568428Y-11248087D01*
X9568428Y-11248087D02*
X9577951Y-11257611D01*
X9577951Y-11257611D02*
X9587475Y-11276659D01*
X9587475Y-11276659D02*
X9596999Y-11314754D01*
X9596999Y-11314754D02*
X9596999Y-11362373D01*
X9596999Y-11362373D02*
X9587475Y-11400468D01*
X9587475Y-11400468D02*
X9577951Y-11419516D01*
X9577951Y-11419516D02*
X9568428Y-11429040D01*
X9568428Y-11429040D02*
X9549380Y-11438563D01*
X9549380Y-11438563D02*
X9530332Y-11438563D01*
X9530332Y-11438563D02*
X9511285Y-11429040D01*
X9511285Y-11429040D02*
X9501761Y-11419516D01*
X9501761Y-11419516D02*
X9492237Y-11400468D01*
X9492237Y-11400468D02*
X9482713Y-11362373D01*
X9482713Y-11362373D02*
X9482713Y-11314754D01*
X9482713Y-11314754D02*
X9492237Y-11276659D01*
X9492237Y-11276659D02*
X9501761Y-11257611D01*
X9501761Y-11257611D02*
X9511285Y-11248087D01*
X9511285Y-11248087D02*
X9530332Y-11238563D01*
X9682713Y-11419516D02*
X9692237Y-11429040D01*
X9692237Y-11429040D02*
X9682713Y-11438563D01*
X9682713Y-11438563D02*
X9673189Y-11429040D01*
X9673189Y-11429040D02*
X9682713Y-11419516D01*
X9682713Y-11419516D02*
X9682713Y-11438563D01*
X9873189Y-11238563D02*
X9777951Y-11238563D01*
X9777951Y-11238563D02*
X9768428Y-11333802D01*
X9768428Y-11333802D02*
X9777951Y-11324278D01*
X9777951Y-11324278D02*
X9796999Y-11314754D01*
X9796999Y-11314754D02*
X9844618Y-11314754D01*
X9844618Y-11314754D02*
X9863666Y-11324278D01*
X9863666Y-11324278D02*
X9873189Y-11333802D01*
X9873189Y-11333802D02*
X9882713Y-11352849D01*
X9882713Y-11352849D02*
X9882713Y-11400468D01*
X9882713Y-11400468D02*
X9873189Y-11419516D01*
X9873189Y-11419516D02*
X9863666Y-11429040D01*
X9863666Y-11429040D02*
X9844618Y-11438563D01*
X9844618Y-11438563D02*
X9796999Y-11438563D01*
X9796999Y-11438563D02*
X9777951Y-11429040D01*
X9777951Y-11429040D02*
X9768428Y-11419516D01*
X10006523Y-11238563D02*
X10025570Y-11238563D01*
X10025570Y-11238563D02*
X10044618Y-11248087D01*
X10044618Y-11248087D02*
X10054142Y-11257611D01*
X10054142Y-11257611D02*
X10063666Y-11276659D01*
X10063666Y-11276659D02*
X10073189Y-11314754D01*
X10073189Y-11314754D02*
X10073189Y-11362373D01*
X10073189Y-11362373D02*
X10063666Y-11400468D01*
X10063666Y-11400468D02*
X10054142Y-11419516D01*
X10054142Y-11419516D02*
X10044618Y-11429040D01*
X10044618Y-11429040D02*
X10025570Y-11438563D01*
X10025570Y-11438563D02*
X10006523Y-11438563D01*
X10006523Y-11438563D02*
X9987475Y-11429040D01*
X9987475Y-11429040D02*
X9977951Y-11419516D01*
X9977951Y-11419516D02*
X9968428Y-11400468D01*
X9968428Y-11400468D02*
X9958904Y-11362373D01*
X9958904Y-11362373D02*
X9958904Y-11314754D01*
X9958904Y-11314754D02*
X9968428Y-11276659D01*
X9968428Y-11276659D02*
X9977951Y-11257611D01*
X9977951Y-11257611D02*
X9987475Y-11248087D01*
X9987475Y-11248087D02*
X10006523Y-11238563D01*
X10196999Y-11238563D02*
X10216047Y-11238563D01*
X10216047Y-11238563D02*
X10235094Y-11248087D01*
X10235094Y-11248087D02*
X10244618Y-11257611D01*
X10244618Y-11257611D02*
X10254142Y-11276659D01*
X10254142Y-11276659D02*
X10263666Y-11314754D01*
X10263666Y-11314754D02*
X10263666Y-11362373D01*
X10263666Y-11362373D02*
X10254142Y-11400468D01*
X10254142Y-11400468D02*
X10244618Y-11419516D01*
X10244618Y-11419516D02*
X10235094Y-11429040D01*
X10235094Y-11429040D02*
X10216047Y-11438563D01*
X10216047Y-11438563D02*
X10196999Y-11438563D01*
X10196999Y-11438563D02*
X10177951Y-11429040D01*
X10177951Y-11429040D02*
X10168428Y-11419516D01*
X10168428Y-11419516D02*
X10158904Y-11400468D01*
X10158904Y-11400468D02*
X10149380Y-11362373D01*
X10149380Y-11362373D02*
X10149380Y-11314754D01*
X10149380Y-11314754D02*
X10158904Y-11276659D01*
X10158904Y-11276659D02*
X10168428Y-11257611D01*
X10168428Y-11257611D02*
X10177951Y-11248087D01*
X10177951Y-11248087D02*
X10196999Y-11238563D01*
X10349380Y-11438563D02*
X10349380Y-11305230D01*
X10349380Y-11324278D02*
X10358904Y-11314754D01*
X10358904Y-11314754D02*
X10377951Y-11305230D01*
X10377951Y-11305230D02*
X10406523Y-11305230D01*
X10406523Y-11305230D02*
X10425570Y-11314754D01*
X10425570Y-11314754D02*
X10435094Y-11333802D01*
X10435094Y-11333802D02*
X10435094Y-11438563D01*
X10435094Y-11333802D02*
X10444618Y-11314754D01*
X10444618Y-11314754D02*
X10463666Y-11305230D01*
X10463666Y-11305230D02*
X10492237Y-11305230D01*
X10492237Y-11305230D02*
X10511285Y-11314754D01*
X10511285Y-11314754D02*
X10520809Y-11333802D01*
X10520809Y-11333802D02*
X10520809Y-11438563D01*
X10616047Y-11438563D02*
X10616047Y-11305230D01*
X10616047Y-11324278D02*
X10625570Y-11314754D01*
X10625570Y-11314754D02*
X10644618Y-11305230D01*
X10644618Y-11305230D02*
X10673190Y-11305230D01*
X10673190Y-11305230D02*
X10692237Y-11314754D01*
X10692237Y-11314754D02*
X10701761Y-11333802D01*
X10701761Y-11333802D02*
X10701761Y-11438563D01*
X10701761Y-11333802D02*
X10711285Y-11314754D01*
X10711285Y-11314754D02*
X10730332Y-11305230D01*
X10730332Y-11305230D02*
X10758904Y-11305230D01*
X10758904Y-11305230D02*
X10777951Y-11314754D01*
X10777951Y-11314754D02*
X10787475Y-11333802D01*
X10787475Y-11333802D02*
X10787475Y-11438563D01*
X11177951Y-11229040D02*
X11006523Y-11486182D01*
X11435094Y-11238563D02*
X11454142Y-11238563D01*
X11454142Y-11238563D02*
X11473190Y-11248087D01*
X11473190Y-11248087D02*
X11482713Y-11257611D01*
X11482713Y-11257611D02*
X11492237Y-11276659D01*
X11492237Y-11276659D02*
X11501761Y-11314754D01*
X11501761Y-11314754D02*
X11501761Y-11362373D01*
X11501761Y-11362373D02*
X11492237Y-11400468D01*
X11492237Y-11400468D02*
X11482713Y-11419516D01*
X11482713Y-11419516D02*
X11473190Y-11429040D01*
X11473190Y-11429040D02*
X11454142Y-11438563D01*
X11454142Y-11438563D02*
X11435094Y-11438563D01*
X11435094Y-11438563D02*
X11416047Y-11429040D01*
X11416047Y-11429040D02*
X11406523Y-11419516D01*
X11406523Y-11419516D02*
X11396999Y-11400468D01*
X11396999Y-11400468D02*
X11387475Y-11362373D01*
X11387475Y-11362373D02*
X11387475Y-11314754D01*
X11387475Y-11314754D02*
X11396999Y-11276659D01*
X11396999Y-11276659D02*
X11406523Y-11257611D01*
X11406523Y-11257611D02*
X11416047Y-11248087D01*
X11416047Y-11248087D02*
X11435094Y-11238563D01*
X11587475Y-11419516D02*
X11596999Y-11429040D01*
X11596999Y-11429040D02*
X11587475Y-11438563D01*
X11587475Y-11438563D02*
X11577951Y-11429040D01*
X11577951Y-11429040D02*
X11587475Y-11419516D01*
X11587475Y-11419516D02*
X11587475Y-11438563D01*
X11720809Y-11238563D02*
X11739856Y-11238563D01*
X11739856Y-11238563D02*
X11758904Y-11248087D01*
X11758904Y-11248087D02*
X11768428Y-11257611D01*
X11768428Y-11257611D02*
X11777951Y-11276659D01*
X11777951Y-11276659D02*
X11787475Y-11314754D01*
X11787475Y-11314754D02*
X11787475Y-11362373D01*
X11787475Y-11362373D02*
X11777951Y-11400468D01*
X11777951Y-11400468D02*
X11768428Y-11419516D01*
X11768428Y-11419516D02*
X11758904Y-11429040D01*
X11758904Y-11429040D02*
X11739856Y-11438563D01*
X11739856Y-11438563D02*
X11720809Y-11438563D01*
X11720809Y-11438563D02*
X11701761Y-11429040D01*
X11701761Y-11429040D02*
X11692237Y-11419516D01*
X11692237Y-11419516D02*
X11682713Y-11400468D01*
X11682713Y-11400468D02*
X11673190Y-11362373D01*
X11673190Y-11362373D02*
X11673190Y-11314754D01*
X11673190Y-11314754D02*
X11682713Y-11276659D01*
X11682713Y-11276659D02*
X11692237Y-11257611D01*
X11692237Y-11257611D02*
X11701761Y-11248087D01*
X11701761Y-11248087D02*
X11720809Y-11238563D01*
X11977951Y-11438563D02*
X11863666Y-11438563D01*
X11920809Y-11438563D02*
X11920809Y-11238563D01*
X11920809Y-11238563D02*
X11901761Y-11267135D01*
X11901761Y-11267135D02*
X11882713Y-11286182D01*
X11882713Y-11286182D02*
X11863666Y-11295706D01*
X12073190Y-11438563D02*
X12111285Y-11438563D01*
X12111285Y-11438563D02*
X12130332Y-11429040D01*
X12130332Y-11429040D02*
X12139856Y-11419516D01*
X12139856Y-11419516D02*
X12158904Y-11390944D01*
X12158904Y-11390944D02*
X12168428Y-11352849D01*
X12168428Y-11352849D02*
X12168428Y-11276659D01*
X12168428Y-11276659D02*
X12158904Y-11257611D01*
X12158904Y-11257611D02*
X12149380Y-11248087D01*
X12149380Y-11248087D02*
X12130332Y-11238563D01*
X12130332Y-11238563D02*
X12092237Y-11238563D01*
X12092237Y-11238563D02*
X12073190Y-11248087D01*
X12073190Y-11248087D02*
X12063666Y-11257611D01*
X12063666Y-11257611D02*
X12054142Y-11276659D01*
X12054142Y-11276659D02*
X12054142Y-11324278D01*
X12054142Y-11324278D02*
X12063666Y-11343325D01*
X12063666Y-11343325D02*
X12073190Y-11352849D01*
X12073190Y-11352849D02*
X12092237Y-11362373D01*
X12092237Y-11362373D02*
X12130332Y-11362373D01*
X12130332Y-11362373D02*
X12149380Y-11352849D01*
X12149380Y-11352849D02*
X12158904Y-11343325D01*
X12158904Y-11343325D02*
X12168428Y-11324278D01*
X12235094Y-11238563D02*
X12368428Y-11238563D01*
X12368428Y-11238563D02*
X12282713Y-11438563D01*
X12435094Y-11238563D02*
X12435094Y-11276659D01*
X12511285Y-11238563D02*
X12511285Y-11276659D01*
X12806523Y-11514754D02*
X12796999Y-11505230D01*
X12796999Y-11505230D02*
X12777952Y-11476659D01*
X12777952Y-11476659D02*
X12768428Y-11457611D01*
X12768428Y-11457611D02*
X12758904Y-11429040D01*
X12758904Y-11429040D02*
X12749380Y-11381421D01*
X12749380Y-11381421D02*
X12749380Y-11343325D01*
X12749380Y-11343325D02*
X12758904Y-11295706D01*
X12758904Y-11295706D02*
X12768428Y-11267135D01*
X12768428Y-11267135D02*
X12777952Y-11248087D01*
X12777952Y-11248087D02*
X12796999Y-11219516D01*
X12796999Y-11219516D02*
X12806523Y-11209992D01*
X12987475Y-11438563D02*
X12873190Y-11438563D01*
X12930332Y-11438563D02*
X12930332Y-11238563D01*
X12930332Y-11238563D02*
X12911285Y-11267135D01*
X12911285Y-11267135D02*
X12892237Y-11286182D01*
X12892237Y-11286182D02*
X12873190Y-11295706D01*
X13177952Y-11438563D02*
X13063666Y-11438563D01*
X13120809Y-11438563D02*
X13120809Y-11238563D01*
X13120809Y-11238563D02*
X13101761Y-11267135D01*
X13101761Y-11267135D02*
X13082713Y-11286182D01*
X13082713Y-11286182D02*
X13063666Y-11295706D01*
X13254142Y-11257611D02*
X13263666Y-11248087D01*
X13263666Y-11248087D02*
X13282713Y-11238563D01*
X13282713Y-11238563D02*
X13330333Y-11238563D01*
X13330333Y-11238563D02*
X13349380Y-11248087D01*
X13349380Y-11248087D02*
X13358904Y-11257611D01*
X13358904Y-11257611D02*
X13368428Y-11276659D01*
X13368428Y-11276659D02*
X13368428Y-11295706D01*
X13368428Y-11295706D02*
X13358904Y-11324278D01*
X13358904Y-11324278D02*
X13244618Y-11438563D01*
X13244618Y-11438563D02*
X13368428Y-11438563D01*
X13606523Y-11438563D02*
X13606523Y-11238563D01*
X13692237Y-11438563D02*
X13692237Y-11333802D01*
X13692237Y-11333802D02*
X13682714Y-11314754D01*
X13682714Y-11314754D02*
X13663666Y-11305230D01*
X13663666Y-11305230D02*
X13635094Y-11305230D01*
X13635094Y-11305230D02*
X13616047Y-11314754D01*
X13616047Y-11314754D02*
X13606523Y-11324278D01*
X13816047Y-11438563D02*
X13796999Y-11429040D01*
X13796999Y-11429040D02*
X13787475Y-11419516D01*
X13787475Y-11419516D02*
X13777952Y-11400468D01*
X13777952Y-11400468D02*
X13777952Y-11343325D01*
X13777952Y-11343325D02*
X13787475Y-11324278D01*
X13787475Y-11324278D02*
X13796999Y-11314754D01*
X13796999Y-11314754D02*
X13816047Y-11305230D01*
X13816047Y-11305230D02*
X13844618Y-11305230D01*
X13844618Y-11305230D02*
X13863666Y-11314754D01*
X13863666Y-11314754D02*
X13873190Y-11324278D01*
X13873190Y-11324278D02*
X13882714Y-11343325D01*
X13882714Y-11343325D02*
X13882714Y-11400468D01*
X13882714Y-11400468D02*
X13873190Y-11419516D01*
X13873190Y-11419516D02*
X13863666Y-11429040D01*
X13863666Y-11429040D02*
X13844618Y-11438563D01*
X13844618Y-11438563D02*
X13816047Y-11438563D01*
X13996999Y-11438563D02*
X13977952Y-11429040D01*
X13977952Y-11429040D02*
X13968428Y-11409992D01*
X13968428Y-11409992D02*
X13968428Y-11238563D01*
X14149380Y-11429040D02*
X14130333Y-11438563D01*
X14130333Y-11438563D02*
X14092237Y-11438563D01*
X14092237Y-11438563D02*
X14073190Y-11429040D01*
X14073190Y-11429040D02*
X14063666Y-11409992D01*
X14063666Y-11409992D02*
X14063666Y-11333802D01*
X14063666Y-11333802D02*
X14073190Y-11314754D01*
X14073190Y-11314754D02*
X14092237Y-11305230D01*
X14092237Y-11305230D02*
X14130333Y-11305230D01*
X14130333Y-11305230D02*
X14149380Y-11314754D01*
X14149380Y-11314754D02*
X14158904Y-11333802D01*
X14158904Y-11333802D02*
X14158904Y-11352849D01*
X14158904Y-11352849D02*
X14063666Y-11371897D01*
X14235095Y-11429040D02*
X14254142Y-11438563D01*
X14254142Y-11438563D02*
X14292237Y-11438563D01*
X14292237Y-11438563D02*
X14311285Y-11429040D01*
X14311285Y-11429040D02*
X14320809Y-11409992D01*
X14320809Y-11409992D02*
X14320809Y-11400468D01*
X14320809Y-11400468D02*
X14311285Y-11381421D01*
X14311285Y-11381421D02*
X14292237Y-11371897D01*
X14292237Y-11371897D02*
X14263666Y-11371897D01*
X14263666Y-11371897D02*
X14244618Y-11362373D01*
X14244618Y-11362373D02*
X14235095Y-11343325D01*
X14235095Y-11343325D02*
X14235095Y-11333802D01*
X14235095Y-11333802D02*
X14244618Y-11314754D01*
X14244618Y-11314754D02*
X14263666Y-11305230D01*
X14263666Y-11305230D02*
X14292237Y-11305230D01*
X14292237Y-11305230D02*
X14311285Y-11314754D01*
X14387476Y-11514754D02*
X14396999Y-11505230D01*
X14396999Y-11505230D02*
X14416047Y-11476659D01*
X14416047Y-11476659D02*
X14425571Y-11457611D01*
X14425571Y-11457611D02*
X14435095Y-11429040D01*
X14435095Y-11429040D02*
X14444618Y-11381421D01*
X14444618Y-11381421D02*
X14444618Y-11343325D01*
X14444618Y-11343325D02*
X14435095Y-11295706D01*
X14435095Y-11295706D02*
X14425571Y-11267135D01*
X14425571Y-11267135D02*
X14416047Y-11248087D01*
X14416047Y-11248087D02*
X14396999Y-11219516D01*
X14396999Y-11219516D02*
X14387476Y-11209992D01*
X14749380Y-11514754D02*
X14739856Y-11505230D01*
X14739856Y-11505230D02*
X14720809Y-11476659D01*
X14720809Y-11476659D02*
X14711285Y-11457611D01*
X14711285Y-11457611D02*
X14701761Y-11429040D01*
X14701761Y-11429040D02*
X14692237Y-11381421D01*
X14692237Y-11381421D02*
X14692237Y-11343325D01*
X14692237Y-11343325D02*
X14701761Y-11295706D01*
X14701761Y-11295706D02*
X14711285Y-11267135D01*
X14711285Y-11267135D02*
X14720809Y-11248087D01*
X14720809Y-11248087D02*
X14739856Y-11219516D01*
X14739856Y-11219516D02*
X14749380Y-11209992D01*
X14825571Y-11305230D02*
X14825571Y-11438563D01*
X14825571Y-11324278D02*
X14835095Y-11314754D01*
X14835095Y-11314754D02*
X14854142Y-11305230D01*
X14854142Y-11305230D02*
X14882714Y-11305230D01*
X14882714Y-11305230D02*
X14901761Y-11314754D01*
X14901761Y-11314754D02*
X14911285Y-11333802D01*
X14911285Y-11333802D02*
X14911285Y-11438563D01*
X15035095Y-11438563D02*
X15016047Y-11429040D01*
X15016047Y-11429040D02*
X15006523Y-11419516D01*
X15006523Y-11419516D02*
X14996999Y-11400468D01*
X14996999Y-11400468D02*
X14996999Y-11343325D01*
X14996999Y-11343325D02*
X15006523Y-11324278D01*
X15006523Y-11324278D02*
X15016047Y-11314754D01*
X15016047Y-11314754D02*
X15035095Y-11305230D01*
X15035095Y-11305230D02*
X15063666Y-11305230D01*
X15063666Y-11305230D02*
X15082714Y-11314754D01*
X15082714Y-11314754D02*
X15092237Y-11324278D01*
X15092237Y-11324278D02*
X15101761Y-11343325D01*
X15101761Y-11343325D02*
X15101761Y-11400468D01*
X15101761Y-11400468D02*
X15092237Y-11419516D01*
X15092237Y-11419516D02*
X15082714Y-11429040D01*
X15082714Y-11429040D02*
X15063666Y-11438563D01*
X15063666Y-11438563D02*
X15035095Y-11438563D01*
X15158904Y-11305230D02*
X15235095Y-11305230D01*
X15187476Y-11238563D02*
X15187476Y-11409992D01*
X15187476Y-11409992D02*
X15196999Y-11429040D01*
X15196999Y-11429040D02*
X15216047Y-11438563D01*
X15216047Y-11438563D02*
X15235095Y-11438563D01*
X15454142Y-11305230D02*
X15454142Y-11505230D01*
X15454142Y-11314754D02*
X15473190Y-11305230D01*
X15473190Y-11305230D02*
X15511285Y-11305230D01*
X15511285Y-11305230D02*
X15530333Y-11314754D01*
X15530333Y-11314754D02*
X15539857Y-11324278D01*
X15539857Y-11324278D02*
X15549380Y-11343325D01*
X15549380Y-11343325D02*
X15549380Y-11400468D01*
X15549380Y-11400468D02*
X15539857Y-11419516D01*
X15539857Y-11419516D02*
X15530333Y-11429040D01*
X15530333Y-11429040D02*
X15511285Y-11438563D01*
X15511285Y-11438563D02*
X15473190Y-11438563D01*
X15473190Y-11438563D02*
X15454142Y-11429040D01*
X15663666Y-11438563D02*
X15644618Y-11429040D01*
X15644618Y-11429040D02*
X15635095Y-11409992D01*
X15635095Y-11409992D02*
X15635095Y-11238563D01*
X15825571Y-11438563D02*
X15825571Y-11333802D01*
X15825571Y-11333802D02*
X15816047Y-11314754D01*
X15816047Y-11314754D02*
X15796999Y-11305230D01*
X15796999Y-11305230D02*
X15758904Y-11305230D01*
X15758904Y-11305230D02*
X15739857Y-11314754D01*
X15825571Y-11429040D02*
X15806523Y-11438563D01*
X15806523Y-11438563D02*
X15758904Y-11438563D01*
X15758904Y-11438563D02*
X15739857Y-11429040D01*
X15739857Y-11429040D02*
X15730333Y-11409992D01*
X15730333Y-11409992D02*
X15730333Y-11390944D01*
X15730333Y-11390944D02*
X15739857Y-11371897D01*
X15739857Y-11371897D02*
X15758904Y-11362373D01*
X15758904Y-11362373D02*
X15806523Y-11362373D01*
X15806523Y-11362373D02*
X15825571Y-11352849D01*
X15892238Y-11305230D02*
X15968428Y-11305230D01*
X15920809Y-11238563D02*
X15920809Y-11409992D01*
X15920809Y-11409992D02*
X15930333Y-11429040D01*
X15930333Y-11429040D02*
X15949380Y-11438563D01*
X15949380Y-11438563D02*
X15968428Y-11438563D01*
X16111285Y-11429040D02*
X16092238Y-11438563D01*
X16092238Y-11438563D02*
X16054142Y-11438563D01*
X16054142Y-11438563D02*
X16035095Y-11429040D01*
X16035095Y-11429040D02*
X16025571Y-11409992D01*
X16025571Y-11409992D02*
X16025571Y-11333802D01*
X16025571Y-11333802D02*
X16035095Y-11314754D01*
X16035095Y-11314754D02*
X16054142Y-11305230D01*
X16054142Y-11305230D02*
X16092238Y-11305230D01*
X16092238Y-11305230D02*
X16111285Y-11314754D01*
X16111285Y-11314754D02*
X16120809Y-11333802D01*
X16120809Y-11333802D02*
X16120809Y-11352849D01*
X16120809Y-11352849D02*
X16025571Y-11371897D01*
X16292238Y-11438563D02*
X16292238Y-11238563D01*
X16292238Y-11429040D02*
X16273190Y-11438563D01*
X16273190Y-11438563D02*
X16235095Y-11438563D01*
X16235095Y-11438563D02*
X16216047Y-11429040D01*
X16216047Y-11429040D02*
X16206523Y-11419516D01*
X16206523Y-11419516D02*
X16196999Y-11400468D01*
X16196999Y-11400468D02*
X16196999Y-11343325D01*
X16196999Y-11343325D02*
X16206523Y-11324278D01*
X16206523Y-11324278D02*
X16216047Y-11314754D01*
X16216047Y-11314754D02*
X16235095Y-11305230D01*
X16235095Y-11305230D02*
X16273190Y-11305230D01*
X16273190Y-11305230D02*
X16292238Y-11314754D01*
X16368428Y-11514754D02*
X16377952Y-11505230D01*
X16377952Y-11505230D02*
X16396999Y-11476659D01*
X16396999Y-11476659D02*
X16406523Y-11457611D01*
X16406523Y-11457611D02*
X16416047Y-11429040D01*
X16416047Y-11429040D02*
X16425571Y-11381421D01*
X16425571Y-11381421D02*
X16425571Y-11343325D01*
X16425571Y-11343325D02*
X16416047Y-11295706D01*
X16416047Y-11295706D02*
X16406523Y-11267135D01*
X16406523Y-11267135D02*
X16396999Y-11248087D01*
X16396999Y-11248087D02*
X16377952Y-11219516D01*
X16377952Y-11219516D02*
X16368428Y-11209992D01*
M02*
