%TF.GenerationSoftware,KiCad,Pcbnew,7.0.9*%
%TF.CreationDate,2024-06-08T21:45:48-04:00*%
%TF.ProjectId,V2 Loop Panel,5632204c-6f6f-4702-9050-616e656c2e6b,rev?*%
%TF.SameCoordinates,Original*%
%TF.FileFunction,Copper,L2,Bot*%
%TF.FilePolarity,Positive*%
%FSLAX46Y46*%
G04 Gerber Fmt 4.6, Leading zero omitted, Abs format (unit mm)*
G04 Created by KiCad (PCBNEW 7.0.9) date 2024-06-08 21:45:48*
%MOMM*%
%LPD*%
G01*
G04 APERTURE LIST*
G04 Aperture macros list*
%AMRoundRect*
0 Rectangle with rounded corners*
0 $1 Rounding radius*
0 $2 $3 $4 $5 $6 $7 $8 $9 X,Y pos of 4 corners*
0 Add a 4 corners polygon primitive as box body*
4,1,4,$2,$3,$4,$5,$6,$7,$8,$9,$2,$3,0*
0 Add four circle primitives for the rounded corners*
1,1,$1+$1,$2,$3*
1,1,$1+$1,$4,$5*
1,1,$1+$1,$6,$7*
1,1,$1+$1,$8,$9*
0 Add four rect primitives between the rounded corners*
20,1,$1+$1,$2,$3,$4,$5,0*
20,1,$1+$1,$4,$5,$6,$7,0*
20,1,$1+$1,$6,$7,$8,$9,0*
20,1,$1+$1,$8,$9,$2,$3,0*%
G04 Aperture macros list end*
%TA.AperFunction,SMDPad,CuDef*%
%ADD10RoundRect,0.100000X-0.100000X0.130000X-0.100000X-0.130000X0.100000X-0.130000X0.100000X0.130000X0*%
%TD*%
%TA.AperFunction,ComponentPad*%
%ADD11C,1.600000*%
%TD*%
%TA.AperFunction,ComponentPad*%
%ADD12O,1.600000X1.600000*%
%TD*%
%TA.AperFunction,ComponentPad*%
%ADD13R,1.700000X1.700000*%
%TD*%
%TA.AperFunction,ComponentPad*%
%ADD14O,1.700000X1.700000*%
%TD*%
%TA.AperFunction,ComponentPad*%
%ADD15R,1.400000X1.400000*%
%TD*%
%TA.AperFunction,ComponentPad*%
%ADD16C,1.400000*%
%TD*%
%TA.AperFunction,ComponentPad*%
%ADD17R,1.905000X2.000000*%
%TD*%
%TA.AperFunction,ComponentPad*%
%ADD18O,1.905000X2.000000*%
%TD*%
%TA.AperFunction,ComponentPad*%
%ADD19C,3.000000*%
%TD*%
%TA.AperFunction,ComponentPad*%
%ADD20R,1.800000X1.800000*%
%TD*%
%TA.AperFunction,ComponentPad*%
%ADD21C,1.800000*%
%TD*%
%TA.AperFunction,ComponentPad*%
%ADD22R,1.050000X1.500000*%
%TD*%
%TA.AperFunction,ComponentPad*%
%ADD23O,1.050000X1.500000*%
%TD*%
%TA.AperFunction,ViaPad*%
%ADD24C,0.800000*%
%TD*%
%TA.AperFunction,Conductor*%
%ADD25C,0.250000*%
%TD*%
%TA.AperFunction,Conductor*%
%ADD26C,0.500000*%
%TD*%
G04 APERTURE END LIST*
D10*
%TO.P,R8,1*%
%TO.N,Board_0-Net-(R8-Pad1)*%
X141375000Y-41525000D03*
%TO.P,R8,2*%
%TO.N,Board_0-Net-(R8-Pad2)*%
X141375000Y-42165000D03*
%TD*%
%TO.P,R9,1*%
%TO.N,Board_3-Net-(R9-Pad1)*%
X185510398Y-85785399D03*
%TO.P,R9,2*%
%TO.N,Board_3-Net-(R9-Pad2)*%
X185510398Y-86425399D03*
%TD*%
%TO.P,R9,1*%
%TO.N,Board_2-Net-(R9-Pad1)*%
X128375000Y-85785399D03*
%TO.P,R9,2*%
%TO.N,Board_2-Net-(R9-Pad2)*%
X128375000Y-86425399D03*
%TD*%
%TO.P,R9,1*%
%TO.N,Board_0-Net-(R9-Pad1)*%
X128375000Y-41275000D03*
%TO.P,R9,2*%
%TO.N,Board_0-Net-(R9-Pad2)*%
X128375000Y-41915000D03*
%TD*%
%TO.P,R8,1*%
%TO.N,Board_1-Net-(R8-Pad1)*%
X198510398Y-41525000D03*
%TO.P,R8,2*%
%TO.N,Board_1-Net-(R8-Pad2)*%
X198510398Y-42165000D03*
%TD*%
%TO.P,R8,1*%
%TO.N,Board_2-Net-(R8-Pad1)*%
X141375000Y-86035399D03*
%TO.P,R8,2*%
%TO.N,Board_2-Net-(R8-Pad2)*%
X141375000Y-86675399D03*
%TD*%
%TO.P,R9,1*%
%TO.N,Board_1-Net-(R9-Pad1)*%
X185510398Y-41275000D03*
%TO.P,R9,2*%
%TO.N,Board_1-Net-(R9-Pad2)*%
X185510398Y-41915000D03*
%TD*%
%TO.P,R8,1*%
%TO.N,Board_3-Net-(R8-Pad1)*%
X198510398Y-86035399D03*
%TO.P,R8,2*%
%TO.N,Board_3-Net-(R8-Pad2)*%
X198510398Y-86675399D03*
%TD*%
D11*
%TO.P,LGate1,1*%
%TO.N,Board_3-/Control*%
X159510398Y-86010399D03*
D12*
%TO.P,LGate1,2*%
%TO.N,Board_3-Net-(QL1-G)*%
X167130398Y-86010399D03*
%TD*%
D13*
%TO.P,In1,1,Pin_1*%
%TO.N,Board_0-/Signal_Gnd*%
X94875000Y-29025000D03*
D14*
%TO.P,In1,2,Pin_2*%
%TO.N,Board_0-/L_in*%
X94875000Y-26485000D03*
%TO.P,In1,3,Pin_3*%
%TO.N,Board_0-/R_in*%
X94875000Y-23945000D03*
%TD*%
D13*
%TO.P,Out1,1,Pin_1*%
%TO.N,Board_0-/Signal_Gnd*%
X98875000Y-29025000D03*
D14*
%TO.P,Out1,2,Pin_2*%
%TO.N,Board_0-/L_out*%
X98875000Y-26485000D03*
%TO.P,Out1,3,Pin_3*%
%TO.N,Board_0-/R_out*%
X98875000Y-23945000D03*
%TD*%
D13*
%TO.P,In1,1,Pin_1*%
%TO.N,Board_3-/Signal_Gnd*%
X152010398Y-73535399D03*
D14*
%TO.P,In1,2,Pin_2*%
%TO.N,Board_3-/L_in*%
X152010398Y-70995399D03*
%TO.P,In1,3,Pin_3*%
%TO.N,Board_3-/R_in*%
X152010398Y-68455399D03*
%TD*%
D15*
%TO.P,Right1,1*%
%TO.N,Board_0-Net-(QL1-D)*%
X103017500Y-60762500D03*
D16*
%TO.P,Right1,4*%
%TO.N,Board_0-/R_out*%
X110637500Y-60762500D03*
%TO.P,Right1,6*%
%TO.N,Board_0-Net-(Right1-Pad11)*%
X115717500Y-60762500D03*
%TO.P,Right1,8*%
%TO.N,Board_0-/R_Return*%
X120797500Y-60762500D03*
%TO.P,Right1,9*%
%TO.N,Board_0-/R_send*%
X120797500Y-53142500D03*
%TO.P,Right1,11*%
%TO.N,Board_0-Net-(Right1-Pad11)*%
X115717500Y-53142500D03*
%TO.P,Right1,13*%
%TO.N,Board_0-/R_in*%
X110637500Y-53142500D03*
%TO.P,Right1,16*%
%TO.N,Board_0-/5V*%
X103017500Y-53142500D03*
%TD*%
D15*
%TO.P,Left/Mono1,1*%
%TO.N,Board_2-/5V*%
X103017500Y-81272899D03*
D16*
%TO.P,Left/Mono1,4*%
%TO.N,Board_2-/L_out*%
X110637500Y-81272899D03*
%TO.P,Left/Mono1,6*%
%TO.N,Board_2-Net-(Left/Mono1-Pad11)*%
X115717500Y-81272899D03*
%TO.P,Left/Mono1,8*%
%TO.N,Board_2-/L_Return*%
X120797500Y-81272899D03*
%TO.P,Left/Mono1,9*%
%TO.N,Board_2-/L_Send*%
X120797500Y-73652899D03*
%TO.P,Left/Mono1,11*%
%TO.N,Board_2-Net-(Left/Mono1-Pad11)*%
X115717500Y-73652899D03*
%TO.P,Left/Mono1,13*%
%TO.N,Board_2-/L_in*%
X110637500Y-73652899D03*
%TO.P,Left/Mono1,16*%
%TO.N,Board_2-Net-(QL1-D)*%
X103017500Y-73652899D03*
%TD*%
D17*
%TO.P,U1,1,IN*%
%TO.N,Board_2-/9V*%
X103795000Y-92010399D03*
D18*
%TO.P,U1,2,GND*%
%TO.N,Board_2-/Ctrl_GND*%
X106335000Y-92010399D03*
%TO.P,U1,3,OUT*%
%TO.N,Board_2-/5V*%
X108875000Y-92010399D03*
%TD*%
D19*
%TO.P,Send1,R*%
%TO.N,Board_2-/R_send*%
X138200000Y-88145399D03*
%TO.P,Send1,RN*%
%TO.N,Board_2-Net-(R8-Pad2)*%
X138200000Y-104375399D03*
%TO.P,Send1,S*%
%TO.N,Board_2-/Signal_Gnd*%
X144550000Y-88145399D03*
%TO.P,Send1,SN*%
%TO.N,Board_2-unconnected-(Send1-PadSN)*%
X144550000Y-104375399D03*
%TO.P,Send1,T*%
%TO.N,Board_2-/L_Send*%
X131850000Y-88145399D03*
%TO.P,Send1,TN*%
%TO.N,Board_2-Net-(R9-Pad2)*%
X131850000Y-104375399D03*
%TD*%
D20*
%TO.P,D1,1,K*%
%TO.N,Board_2-/Ctrl_GND*%
X118650000Y-68010399D03*
D21*
%TO.P,D1,2,A*%
%TO.N,Board_2-Net-(D1-A)*%
X116110000Y-68010399D03*
%TD*%
D22*
%TO.P,QL1,1,S*%
%TO.N,Board_2-/Ctrl_GND*%
X114605000Y-91370399D03*
D23*
%TO.P,QL1,2,G*%
%TO.N,Board_2-Net-(QL1-G)*%
X115875000Y-91370399D03*
%TO.P,QL1,3,D*%
%TO.N,Board_2-Net-(QL1-D)*%
X117145000Y-91370399D03*
%TD*%
D20*
%TO.P,D1,1,K*%
%TO.N,Board_1-/Ctrl_GND*%
X175785398Y-23500000D03*
D21*
%TO.P,D1,2,A*%
%TO.N,Board_1-Net-(D1-A)*%
X173245398Y-23500000D03*
%TD*%
D13*
%TO.P,In1,1,Pin_1*%
%TO.N,Board_2-/Signal_Gnd*%
X94875000Y-73535399D03*
D14*
%TO.P,In1,2,Pin_2*%
%TO.N,Board_2-/L_in*%
X94875000Y-70995399D03*
%TO.P,In1,3,Pin_3*%
%TO.N,Board_2-/R_in*%
X94875000Y-68455399D03*
%TD*%
D19*
%TO.P,Return1,R*%
%TO.N,Board_1-/R_Return*%
X195335398Y-22885000D03*
%TO.P,Return1,RN*%
%TO.N,Board_1-Net-(R8-Pad1)*%
X195335398Y-39115000D03*
%TO.P,Return1,S*%
%TO.N,Board_1-/Signal_Gnd*%
X201685398Y-22885000D03*
%TO.P,Return1,SN*%
%TO.N,Board_1-unconnected-(Return1-PadSN)*%
X201685398Y-39115000D03*
%TO.P,Return1,T*%
%TO.N,Board_1-/L_Return*%
X188985398Y-22885000D03*
%TO.P,Return1,TN*%
%TO.N,Board_1-Net-(R9-Pad1)*%
X188985398Y-39115000D03*
%TD*%
D22*
%TO.P,QL1,1,S*%
%TO.N,Board_1-/Ctrl_GND*%
X171740398Y-46860000D03*
D23*
%TO.P,QL1,2,G*%
%TO.N,Board_1-Net-(QL1-G)*%
X173010398Y-46860000D03*
%TO.P,QL1,3,D*%
%TO.N,Board_1-Net-(QL1-D)*%
X174280398Y-46860000D03*
%TD*%
D13*
%TO.P,J1,1,Pin_1*%
%TO.N,Board_2-/Control*%
X98375000Y-83010399D03*
%TD*%
%TO.P,J2,1,Pin_1*%
%TO.N,Board_2-/9V*%
X97875000Y-95735399D03*
D14*
%TO.P,J2,2,Pin_2*%
%TO.N,Board_2-/Ctrl_GND*%
X97875000Y-98275399D03*
%TD*%
D13*
%TO.P,J2,1,Pin_1*%
%TO.N,Board_0-/9V*%
X97875000Y-51225000D03*
D14*
%TO.P,J2,2,Pin_2*%
%TO.N,Board_0-/Ctrl_GND*%
X97875000Y-53765000D03*
%TD*%
D11*
%TO.P,RLed1,1*%
%TO.N,Board_0-/Control*%
X103565000Y-24000000D03*
D12*
%TO.P,RLed1,2*%
%TO.N,Board_0-Net-(D1-A)*%
X111185000Y-24000000D03*
%TD*%
D11*
%TO.P,LeftPD1,1*%
%TO.N,Board_1-Net-(QL1-G)*%
X177320398Y-41500000D03*
D12*
%TO.P,LeftPD1,2*%
%TO.N,Board_1-/Ctrl_GND*%
X169700398Y-41500000D03*
%TD*%
D13*
%TO.P,In1,1,Pin_1*%
%TO.N,Board_1-/Signal_Gnd*%
X152010398Y-29025000D03*
D14*
%TO.P,In1,2,Pin_2*%
%TO.N,Board_1-/L_in*%
X152010398Y-26485000D03*
%TO.P,In1,3,Pin_3*%
%TO.N,Board_1-/R_in*%
X152010398Y-23945000D03*
%TD*%
D11*
%TO.P,LeftPD1,1*%
%TO.N,Board_3-Net-(QL1-G)*%
X177320398Y-86010399D03*
D12*
%TO.P,LeftPD1,2*%
%TO.N,Board_3-/Ctrl_GND*%
X169700398Y-86010399D03*
%TD*%
D15*
%TO.P,Right1,1*%
%TO.N,Board_3-Net-(QL1-D)*%
X160152898Y-105272899D03*
D16*
%TO.P,Right1,4*%
%TO.N,Board_3-/R_out*%
X167772898Y-105272899D03*
%TO.P,Right1,6*%
%TO.N,Board_3-Net-(Right1-Pad11)*%
X172852898Y-105272899D03*
%TO.P,Right1,8*%
%TO.N,Board_3-/R_Return*%
X177932898Y-105272899D03*
%TO.P,Right1,9*%
%TO.N,Board_3-/R_send*%
X177932898Y-97652899D03*
%TO.P,Right1,11*%
%TO.N,Board_3-Net-(Right1-Pad11)*%
X172852898Y-97652899D03*
%TO.P,Right1,13*%
%TO.N,Board_3-/R_in*%
X167772898Y-97652899D03*
%TO.P,Right1,16*%
%TO.N,Board_3-/5V*%
X160152898Y-97652899D03*
%TD*%
D15*
%TO.P,Left/Mono1,1*%
%TO.N,Board_3-/5V*%
X160152898Y-81272899D03*
D16*
%TO.P,Left/Mono1,4*%
%TO.N,Board_3-/L_out*%
X167772898Y-81272899D03*
%TO.P,Left/Mono1,6*%
%TO.N,Board_3-Net-(Left/Mono1-Pad11)*%
X172852898Y-81272899D03*
%TO.P,Left/Mono1,8*%
%TO.N,Board_3-/L_Return*%
X177932898Y-81272899D03*
%TO.P,Left/Mono1,9*%
%TO.N,Board_3-/L_Send*%
X177932898Y-73652899D03*
%TO.P,Left/Mono1,11*%
%TO.N,Board_3-Net-(Left/Mono1-Pad11)*%
X172852898Y-73652899D03*
%TO.P,Left/Mono1,13*%
%TO.N,Board_3-/L_in*%
X167772898Y-73652899D03*
%TO.P,Left/Mono1,16*%
%TO.N,Board_3-Net-(QL1-D)*%
X160152898Y-73652899D03*
%TD*%
D13*
%TO.P,Out1,1,Pin_1*%
%TO.N,Board_2-/Signal_Gnd*%
X98875000Y-73535399D03*
D14*
%TO.P,Out1,2,Pin_2*%
%TO.N,Board_2-/L_out*%
X98875000Y-70995399D03*
%TO.P,Out1,3,Pin_3*%
%TO.N,Board_2-/R_out*%
X98875000Y-68455399D03*
%TD*%
D13*
%TO.P,J3,1,Pin_1*%
%TO.N,Board_2-/9V*%
X97875000Y-88735399D03*
D14*
%TO.P,J3,2,Pin_2*%
%TO.N,Board_2-/Ctrl_GND*%
X97875000Y-91275399D03*
%TD*%
D19*
%TO.P,Send1,R*%
%TO.N,Board_3-/R_send*%
X195335398Y-88145399D03*
%TO.P,Send1,RN*%
%TO.N,Board_3-Net-(R8-Pad2)*%
X195335398Y-104375399D03*
%TO.P,Send1,S*%
%TO.N,Board_3-/Signal_Gnd*%
X201685398Y-88145399D03*
%TO.P,Send1,SN*%
%TO.N,Board_3-unconnected-(Send1-PadSN)*%
X201685398Y-104375399D03*
%TO.P,Send1,T*%
%TO.N,Board_3-/L_Send*%
X188985398Y-88145399D03*
%TO.P,Send1,TN*%
%TO.N,Board_3-Net-(R9-Pad2)*%
X188985398Y-104375399D03*
%TD*%
D15*
%TO.P,Left/Mono1,1*%
%TO.N,Board_0-/5V*%
X103017500Y-36762500D03*
D16*
%TO.P,Left/Mono1,4*%
%TO.N,Board_0-/L_out*%
X110637500Y-36762500D03*
%TO.P,Left/Mono1,6*%
%TO.N,Board_0-Net-(Left/Mono1-Pad11)*%
X115717500Y-36762500D03*
%TO.P,Left/Mono1,8*%
%TO.N,Board_0-/L_Return*%
X120797500Y-36762500D03*
%TO.P,Left/Mono1,9*%
%TO.N,Board_0-/L_Send*%
X120797500Y-29142500D03*
%TO.P,Left/Mono1,11*%
%TO.N,Board_0-Net-(Left/Mono1-Pad11)*%
X115717500Y-29142500D03*
%TO.P,Left/Mono1,13*%
%TO.N,Board_0-/L_in*%
X110637500Y-29142500D03*
%TO.P,Left/Mono1,16*%
%TO.N,Board_0-Net-(QL1-D)*%
X103017500Y-29142500D03*
%TD*%
D15*
%TO.P,Right1,1*%
%TO.N,Board_1-Net-(QL1-D)*%
X160152898Y-60762500D03*
D16*
%TO.P,Right1,4*%
%TO.N,Board_1-/R_out*%
X167772898Y-60762500D03*
%TO.P,Right1,6*%
%TO.N,Board_1-Net-(Right1-Pad11)*%
X172852898Y-60762500D03*
%TO.P,Right1,8*%
%TO.N,Board_1-/R_Return*%
X177932898Y-60762500D03*
%TO.P,Right1,9*%
%TO.N,Board_1-/R_send*%
X177932898Y-53142500D03*
%TO.P,Right1,11*%
%TO.N,Board_1-Net-(Right1-Pad11)*%
X172852898Y-53142500D03*
%TO.P,Right1,13*%
%TO.N,Board_1-/R_in*%
X167772898Y-53142500D03*
%TO.P,Right1,16*%
%TO.N,Board_1-/5V*%
X160152898Y-53142500D03*
%TD*%
D13*
%TO.P,J1,1,Pin_1*%
%TO.N,Board_1-/Control*%
X155510398Y-38500000D03*
%TD*%
D15*
%TO.P,Right1,1*%
%TO.N,Board_2-Net-(QL1-D)*%
X103017500Y-105272899D03*
D16*
%TO.P,Right1,4*%
%TO.N,Board_2-/R_out*%
X110637500Y-105272899D03*
%TO.P,Right1,6*%
%TO.N,Board_2-Net-(Right1-Pad11)*%
X115717500Y-105272899D03*
%TO.P,Right1,8*%
%TO.N,Board_2-/R_Return*%
X120797500Y-105272899D03*
%TO.P,Right1,9*%
%TO.N,Board_2-/R_send*%
X120797500Y-97652899D03*
%TO.P,Right1,11*%
%TO.N,Board_2-Net-(Right1-Pad11)*%
X115717500Y-97652899D03*
%TO.P,Right1,13*%
%TO.N,Board_2-/R_in*%
X110637500Y-97652899D03*
%TO.P,Right1,16*%
%TO.N,Board_2-/5V*%
X103017500Y-97652899D03*
%TD*%
D11*
%TO.P,LGate1,1*%
%TO.N,Board_0-/Control*%
X102375000Y-41500000D03*
D12*
%TO.P,LGate1,2*%
%TO.N,Board_0-Net-(QL1-G)*%
X109995000Y-41500000D03*
%TD*%
D11*
%TO.P,LGate1,1*%
%TO.N,Board_2-/Control*%
X102375000Y-86010399D03*
D12*
%TO.P,LGate1,2*%
%TO.N,Board_2-Net-(QL1-G)*%
X109995000Y-86010399D03*
%TD*%
D20*
%TO.P,D1,1,K*%
%TO.N,Board_3-/Ctrl_GND*%
X175785398Y-68010399D03*
D21*
%TO.P,D1,2,A*%
%TO.N,Board_3-Net-(D1-A)*%
X173245398Y-68010399D03*
%TD*%
D13*
%TO.P,J1,1,Pin_1*%
%TO.N,Board_0-/Control*%
X98375000Y-38500000D03*
%TD*%
%TO.P,J2,1,Pin_1*%
%TO.N,Board_1-/9V*%
X155010398Y-51225000D03*
D14*
%TO.P,J2,2,Pin_2*%
%TO.N,Board_1-/Ctrl_GND*%
X155010398Y-53765000D03*
%TD*%
D22*
%TO.P,QL1,1,S*%
%TO.N,Board_0-/Ctrl_GND*%
X114605000Y-46860000D03*
D23*
%TO.P,QL1,2,G*%
%TO.N,Board_0-Net-(QL1-G)*%
X115875000Y-46860000D03*
%TO.P,QL1,3,D*%
%TO.N,Board_0-Net-(QL1-D)*%
X117145000Y-46860000D03*
%TD*%
D17*
%TO.P,U1,1,IN*%
%TO.N,Board_3-/9V*%
X160930398Y-92010399D03*
D18*
%TO.P,U1,2,GND*%
%TO.N,Board_3-/Ctrl_GND*%
X163470398Y-92010399D03*
%TO.P,U1,3,OUT*%
%TO.N,Board_3-/5V*%
X166010398Y-92010399D03*
%TD*%
D13*
%TO.P,J3,1,Pin_1*%
%TO.N,Board_1-/9V*%
X155010398Y-44225000D03*
D14*
%TO.P,J3,2,Pin_2*%
%TO.N,Board_1-/Ctrl_GND*%
X155010398Y-46765000D03*
%TD*%
D20*
%TO.P,D1,1,K*%
%TO.N,Board_0-/Ctrl_GND*%
X118650000Y-23500000D03*
D21*
%TO.P,D1,2,A*%
%TO.N,Board_0-Net-(D1-A)*%
X116110000Y-23500000D03*
%TD*%
D13*
%TO.P,J3,1,Pin_1*%
%TO.N,Board_3-/9V*%
X155010398Y-88735399D03*
D14*
%TO.P,J3,2,Pin_2*%
%TO.N,Board_3-/Ctrl_GND*%
X155010398Y-91275399D03*
%TD*%
D17*
%TO.P,U1,1,IN*%
%TO.N,Board_1-/9V*%
X160930398Y-47500000D03*
D18*
%TO.P,U1,2,GND*%
%TO.N,Board_1-/Ctrl_GND*%
X163470398Y-47500000D03*
%TO.P,U1,3,OUT*%
%TO.N,Board_1-/5V*%
X166010398Y-47500000D03*
%TD*%
D19*
%TO.P,Return1,R*%
%TO.N,Board_2-/R_Return*%
X138200000Y-67395399D03*
%TO.P,Return1,RN*%
%TO.N,Board_2-Net-(R8-Pad1)*%
X138200000Y-83625399D03*
%TO.P,Return1,S*%
%TO.N,Board_2-/Signal_Gnd*%
X144550000Y-67395399D03*
%TO.P,Return1,SN*%
%TO.N,Board_2-unconnected-(Return1-PadSN)*%
X144550000Y-83625399D03*
%TO.P,Return1,T*%
%TO.N,Board_2-/L_Return*%
X131850000Y-67395399D03*
%TO.P,Return1,TN*%
%TO.N,Board_2-Net-(R9-Pad1)*%
X131850000Y-83625399D03*
%TD*%
D13*
%TO.P,Out1,1,Pin_1*%
%TO.N,Board_1-/Signal_Gnd*%
X156010398Y-29025000D03*
D14*
%TO.P,Out1,2,Pin_2*%
%TO.N,Board_1-/L_out*%
X156010398Y-26485000D03*
%TO.P,Out1,3,Pin_3*%
%TO.N,Board_1-/R_out*%
X156010398Y-23945000D03*
%TD*%
D15*
%TO.P,Left/Mono1,1*%
%TO.N,Board_1-/5V*%
X160152898Y-36762500D03*
D16*
%TO.P,Left/Mono1,4*%
%TO.N,Board_1-/L_out*%
X167772898Y-36762500D03*
%TO.P,Left/Mono1,6*%
%TO.N,Board_1-Net-(Left/Mono1-Pad11)*%
X172852898Y-36762500D03*
%TO.P,Left/Mono1,8*%
%TO.N,Board_1-/L_Return*%
X177932898Y-36762500D03*
%TO.P,Left/Mono1,9*%
%TO.N,Board_1-/L_Send*%
X177932898Y-29142500D03*
%TO.P,Left/Mono1,11*%
%TO.N,Board_1-Net-(Left/Mono1-Pad11)*%
X172852898Y-29142500D03*
%TO.P,Left/Mono1,13*%
%TO.N,Board_1-/L_in*%
X167772898Y-29142500D03*
%TO.P,Left/Mono1,16*%
%TO.N,Board_1-Net-(QL1-D)*%
X160152898Y-29142500D03*
%TD*%
D17*
%TO.P,U1,1,IN*%
%TO.N,Board_0-/9V*%
X103795000Y-47500000D03*
D18*
%TO.P,U1,2,GND*%
%TO.N,Board_0-/Ctrl_GND*%
X106335000Y-47500000D03*
%TO.P,U1,3,OUT*%
%TO.N,Board_0-/5V*%
X108875000Y-47500000D03*
%TD*%
D11*
%TO.P,RLed1,1*%
%TO.N,Board_2-/Control*%
X103565000Y-68510399D03*
D12*
%TO.P,RLed1,2*%
%TO.N,Board_2-Net-(D1-A)*%
X111185000Y-68510399D03*
%TD*%
D13*
%TO.P,J3,1,Pin_1*%
%TO.N,Board_0-/9V*%
X97875000Y-44225000D03*
D14*
%TO.P,J3,2,Pin_2*%
%TO.N,Board_0-/Ctrl_GND*%
X97875000Y-46765000D03*
%TD*%
D19*
%TO.P,Return1,R*%
%TO.N,Board_0-/R_Return*%
X138200000Y-22885000D03*
%TO.P,Return1,RN*%
%TO.N,Board_0-Net-(R8-Pad1)*%
X138200000Y-39115000D03*
%TO.P,Return1,S*%
%TO.N,Board_0-/Signal_Gnd*%
X144550000Y-22885000D03*
%TO.P,Return1,SN*%
%TO.N,Board_0-unconnected-(Return1-PadSN)*%
X144550000Y-39115000D03*
%TO.P,Return1,T*%
%TO.N,Board_0-/L_Return*%
X131850000Y-22885000D03*
%TO.P,Return1,TN*%
%TO.N,Board_0-Net-(R9-Pad1)*%
X131850000Y-39115000D03*
%TD*%
D13*
%TO.P,J1,1,Pin_1*%
%TO.N,Board_3-/Control*%
X155510398Y-83010399D03*
%TD*%
D19*
%TO.P,Send1,R*%
%TO.N,Board_0-/R_send*%
X138200000Y-43635000D03*
%TO.P,Send1,RN*%
%TO.N,Board_0-Net-(R8-Pad2)*%
X138200000Y-59865000D03*
%TO.P,Send1,S*%
%TO.N,Board_0-/Signal_Gnd*%
X144550000Y-43635000D03*
%TO.P,Send1,SN*%
%TO.N,Board_0-unconnected-(Send1-PadSN)*%
X144550000Y-59865000D03*
%TO.P,Send1,T*%
%TO.N,Board_0-/L_Send*%
X131850000Y-43635000D03*
%TO.P,Send1,TN*%
%TO.N,Board_0-Net-(R9-Pad2)*%
X131850000Y-59865000D03*
%TD*%
%TO.P,Return1,R*%
%TO.N,Board_3-/R_Return*%
X195335398Y-67395399D03*
%TO.P,Return1,RN*%
%TO.N,Board_3-Net-(R8-Pad1)*%
X195335398Y-83625399D03*
%TO.P,Return1,S*%
%TO.N,Board_3-/Signal_Gnd*%
X201685398Y-67395399D03*
%TO.P,Return1,SN*%
%TO.N,Board_3-unconnected-(Return1-PadSN)*%
X201685398Y-83625399D03*
%TO.P,Return1,T*%
%TO.N,Board_3-/L_Return*%
X188985398Y-67395399D03*
%TO.P,Return1,TN*%
%TO.N,Board_3-Net-(R9-Pad1)*%
X188985398Y-83625399D03*
%TD*%
%TO.P,Send1,R*%
%TO.N,Board_1-/R_send*%
X195335398Y-43635000D03*
%TO.P,Send1,RN*%
%TO.N,Board_1-Net-(R8-Pad2)*%
X195335398Y-59865000D03*
%TO.P,Send1,S*%
%TO.N,Board_1-/Signal_Gnd*%
X201685398Y-43635000D03*
%TO.P,Send1,SN*%
%TO.N,Board_1-unconnected-(Send1-PadSN)*%
X201685398Y-59865000D03*
%TO.P,Send1,T*%
%TO.N,Board_1-/L_Send*%
X188985398Y-43635000D03*
%TO.P,Send1,TN*%
%TO.N,Board_1-Net-(R9-Pad2)*%
X188985398Y-59865000D03*
%TD*%
D11*
%TO.P,RLed1,1*%
%TO.N,Board_1-/Control*%
X160700398Y-24000000D03*
D12*
%TO.P,RLed1,2*%
%TO.N,Board_1-Net-(D1-A)*%
X168320398Y-24000000D03*
%TD*%
D13*
%TO.P,Out1,1,Pin_1*%
%TO.N,Board_3-/Signal_Gnd*%
X156010398Y-73535399D03*
D14*
%TO.P,Out1,2,Pin_2*%
%TO.N,Board_3-/L_out*%
X156010398Y-70995399D03*
%TO.P,Out1,3,Pin_3*%
%TO.N,Board_3-/R_out*%
X156010398Y-68455399D03*
%TD*%
D13*
%TO.P,J2,1,Pin_1*%
%TO.N,Board_3-/9V*%
X155010398Y-95735399D03*
D14*
%TO.P,J2,2,Pin_2*%
%TO.N,Board_3-/Ctrl_GND*%
X155010398Y-98275399D03*
%TD*%
D11*
%TO.P,LGate1,1*%
%TO.N,Board_1-/Control*%
X159510398Y-41500000D03*
D12*
%TO.P,LGate1,2*%
%TO.N,Board_1-Net-(QL1-G)*%
X167130398Y-41500000D03*
%TD*%
D11*
%TO.P,LeftPD1,1*%
%TO.N,Board_2-Net-(QL1-G)*%
X120185000Y-86010399D03*
D12*
%TO.P,LeftPD1,2*%
%TO.N,Board_2-/Ctrl_GND*%
X112565000Y-86010399D03*
%TD*%
D11*
%TO.P,LeftPD1,1*%
%TO.N,Board_0-Net-(QL1-G)*%
X120185000Y-41500000D03*
D12*
%TO.P,LeftPD1,2*%
%TO.N,Board_0-/Ctrl_GND*%
X112565000Y-41500000D03*
%TD*%
D11*
%TO.P,RLed1,1*%
%TO.N,Board_3-/Control*%
X160700398Y-68510399D03*
D12*
%TO.P,RLed1,2*%
%TO.N,Board_3-Net-(D1-A)*%
X168320398Y-68510399D03*
%TD*%
D22*
%TO.P,QL1,1,S*%
%TO.N,Board_3-/Ctrl_GND*%
X171740398Y-91370399D03*
D23*
%TO.P,QL1,2,G*%
%TO.N,Board_3-Net-(QL1-G)*%
X173010398Y-91370399D03*
%TO.P,QL1,3,D*%
%TO.N,Board_3-Net-(QL1-D)*%
X174280398Y-91370399D03*
%TD*%
D24*
%TO.N,Board_3-/Signal_Gnd*%
X181310398Y-99210399D03*
%TO.N,Board_2-/Signal_Gnd*%
X124175000Y-99210399D03*
%TO.N,Board_1-/Signal_Gnd*%
X181310398Y-54700000D03*
%TO.N,Board_0-/Signal_Gnd*%
X124175000Y-54700000D03*
%TD*%
D25*
%TO.N,Board_3-Net-(R9-Pad2)*%
X188985398Y-104375399D02*
X185510398Y-100900399D01*
X185510398Y-100900399D02*
X185510398Y-86425399D01*
%TO.N,Board_3-Net-(R9-Pad1)*%
X185510398Y-85785399D02*
X185510398Y-85010399D01*
X185510398Y-85010399D02*
X186895398Y-83625399D01*
X186895398Y-83625399D02*
X188985398Y-83625399D01*
%TO.N,Board_3-Net-(R8-Pad2)*%
X195335398Y-98585399D02*
X198510398Y-95410399D01*
X198510398Y-95410399D02*
X198510398Y-86675399D01*
X195335398Y-104375399D02*
X195335398Y-98585399D01*
%TO.N,Board_3-Net-(R8-Pad1)*%
X196725398Y-83625399D02*
X195335398Y-83625399D01*
X198510398Y-85410399D02*
X196725398Y-83625399D01*
X198510398Y-86035399D02*
X198510398Y-85410399D01*
%TO.N,Board_3-Net-(QL1-D)*%
X167110398Y-76810399D02*
X170710398Y-80410399D01*
X160152898Y-73652899D02*
X163310398Y-76810399D01*
X170710398Y-80410399D02*
X170710398Y-80579968D01*
X163310398Y-76810399D02*
X167110398Y-76810399D01*
X171710398Y-81579968D02*
X171710398Y-88010399D01*
X174280398Y-90580399D02*
X174280398Y-91370399D01*
X171710398Y-88010399D02*
X174280398Y-90580399D01*
X170710398Y-80579968D02*
X171710398Y-81579968D01*
%TO.N,Board_3-Net-(D1-A)*%
X172745398Y-68510399D02*
X173245398Y-68010399D01*
X168320398Y-68510399D02*
X172745398Y-68510399D01*
%TO.N,Board_3-/Signal_Gnd*%
X204010398Y-85820399D02*
X204010398Y-69720399D01*
X201685398Y-88145399D02*
X204010398Y-85820399D01*
X152010398Y-73535399D02*
X152010398Y-101510399D01*
X152010398Y-101510399D02*
X154010398Y-103510399D01*
X154010398Y-103510399D02*
X177010398Y-103510399D01*
X204010398Y-69720399D02*
X201685398Y-67395399D01*
X177010398Y-103510399D02*
X181310398Y-99210399D01*
%TO.N,Board_3-/L_Send*%
X191910398Y-78210399D02*
X191910398Y-85220399D01*
X191910398Y-85220399D02*
X188985398Y-88145399D01*
X177932898Y-73652899D02*
X187352898Y-73652899D01*
X187352898Y-73652899D02*
X191910398Y-78210399D01*
D26*
%TO.N,Board_3-/Ctrl_GND*%
X153775398Y-98275399D02*
X152910398Y-97410399D01*
X155010398Y-98275399D02*
X153775398Y-98275399D01*
X168910398Y-90010399D02*
X169700398Y-89220399D01*
X169700398Y-89220399D02*
X169700398Y-86010399D01*
X163470398Y-92010399D02*
X163470398Y-91050399D01*
X169670398Y-91370399D02*
X171740398Y-91370399D01*
X168310398Y-90010399D02*
X169670398Y-91370399D01*
X164510398Y-90010399D02*
X168310398Y-90010399D01*
X152910398Y-97410399D02*
X152910398Y-93375399D01*
X163470398Y-91050399D02*
X164510398Y-90010399D01*
X152910398Y-93375399D02*
X155010398Y-91275399D01*
D25*
%TO.N,Board_3-/Control*%
X158310398Y-69410399D02*
X159210398Y-68510399D01*
X156710398Y-86010399D02*
X159510398Y-86010399D01*
X155510398Y-84810399D02*
X156710398Y-86010399D01*
X159210398Y-68510399D02*
X160700398Y-68510399D01*
X155510398Y-77810399D02*
X158310398Y-75010399D01*
X155510398Y-83010399D02*
X155510398Y-84810399D01*
X158310398Y-75010399D02*
X158310398Y-69410399D01*
X155510398Y-83010399D02*
X155510398Y-77810399D01*
D26*
%TO.N,Board_3-/9V*%
X157510398Y-93810399D02*
X155585398Y-95735399D01*
X157510398Y-92210399D02*
X157510398Y-93810399D01*
X157510398Y-92210399D02*
X157710398Y-92010399D01*
X155010398Y-88735399D02*
X156635398Y-88735399D01*
X157510398Y-89610399D02*
X157510398Y-92210399D01*
X155585398Y-95735399D02*
X155010398Y-95735399D01*
X157710398Y-92010399D02*
X160930398Y-92010399D01*
X156635398Y-88735399D02*
X157510398Y-89610399D01*
D25*
%TO.N,Board_2-Net-(R9-Pad2)*%
X131850000Y-104375399D02*
X128375000Y-100900399D01*
X128375000Y-100900399D02*
X128375000Y-86425399D01*
%TO.N,Board_2-Net-(R9-Pad1)*%
X128375000Y-85010399D02*
X129760000Y-83625399D01*
X129760000Y-83625399D02*
X131850000Y-83625399D01*
X128375000Y-85785399D02*
X128375000Y-85010399D01*
%TO.N,Board_2-Net-(R8-Pad2)*%
X141375000Y-95410399D02*
X141375000Y-86675399D01*
X138200000Y-104375399D02*
X138200000Y-98585399D01*
X138200000Y-98585399D02*
X141375000Y-95410399D01*
%TO.N,Board_2-Net-(R8-Pad1)*%
X141375000Y-86035399D02*
X141375000Y-85410399D01*
X141375000Y-85410399D02*
X139590000Y-83625399D01*
X139590000Y-83625399D02*
X138200000Y-83625399D01*
%TO.N,Board_2-Net-(QL1-D)*%
X106175000Y-76810399D02*
X109975000Y-76810399D01*
X117145000Y-90580399D02*
X117145000Y-91370399D01*
X114575000Y-88010399D02*
X117145000Y-90580399D01*
X113575000Y-80410399D02*
X113575000Y-80579968D01*
X103017500Y-73652899D02*
X106175000Y-76810399D01*
X109975000Y-76810399D02*
X113575000Y-80410399D01*
X114575000Y-81579968D02*
X114575000Y-88010399D01*
X113575000Y-80579968D02*
X114575000Y-81579968D01*
%TO.N,Board_2-Net-(D1-A)*%
X115610000Y-68510399D02*
X116110000Y-68010399D01*
X111185000Y-68510399D02*
X115610000Y-68510399D01*
%TO.N,Board_2-/Signal_Gnd*%
X144550000Y-88145399D02*
X146875000Y-85820399D01*
X119875000Y-103510399D02*
X124175000Y-99210399D01*
X146875000Y-69720399D02*
X144550000Y-67395399D01*
X96875000Y-103510399D02*
X119875000Y-103510399D01*
X94875000Y-73535399D02*
X94875000Y-101510399D01*
X146875000Y-85820399D02*
X146875000Y-69720399D01*
X94875000Y-101510399D02*
X96875000Y-103510399D01*
%TO.N,Board_2-/L_Send*%
X120797500Y-73652899D02*
X130217500Y-73652899D01*
X130217500Y-73652899D02*
X134775000Y-78210399D01*
X134775000Y-85220399D02*
X131850000Y-88145399D01*
X134775000Y-78210399D02*
X134775000Y-85220399D01*
D26*
%TO.N,Board_2-/Ctrl_GND*%
X95775000Y-93375399D02*
X97875000Y-91275399D01*
X106335000Y-91050399D02*
X107375000Y-90010399D01*
X95775000Y-97410399D02*
X95775000Y-93375399D01*
X107375000Y-90010399D02*
X111175000Y-90010399D01*
X111775000Y-90010399D02*
X112565000Y-89220399D01*
X111175000Y-90010399D02*
X112535000Y-91370399D01*
X112565000Y-89220399D02*
X112565000Y-86010399D01*
X96640000Y-98275399D02*
X95775000Y-97410399D01*
X112535000Y-91370399D02*
X114605000Y-91370399D01*
X106335000Y-92010399D02*
X106335000Y-91050399D01*
X97875000Y-98275399D02*
X96640000Y-98275399D01*
D25*
%TO.N,Board_2-/Control*%
X98375000Y-84810399D02*
X99575000Y-86010399D01*
X98375000Y-77810399D02*
X101175000Y-75010399D01*
X99575000Y-86010399D02*
X102375000Y-86010399D01*
X98375000Y-83010399D02*
X98375000Y-77810399D01*
X101175000Y-75010399D02*
X101175000Y-69410399D01*
X98375000Y-83010399D02*
X98375000Y-84810399D01*
X102075000Y-68510399D02*
X103565000Y-68510399D01*
X101175000Y-69410399D02*
X102075000Y-68510399D01*
D26*
%TO.N,Board_2-/9V*%
X97875000Y-88735399D02*
X99500000Y-88735399D01*
X98450000Y-95735399D02*
X97875000Y-95735399D01*
X100375000Y-92210399D02*
X100375000Y-93810399D01*
X100375000Y-89610399D02*
X100375000Y-92210399D01*
X100375000Y-93810399D02*
X98450000Y-95735399D01*
X100375000Y-92210399D02*
X100575000Y-92010399D01*
X100575000Y-92010399D02*
X103795000Y-92010399D01*
X99500000Y-88735399D02*
X100375000Y-89610399D01*
D25*
%TO.N,Board_1-Net-(R9-Pad2)*%
X188985398Y-59865000D02*
X185510398Y-56390000D01*
X185510398Y-56390000D02*
X185510398Y-41915000D01*
%TO.N,Board_1-Net-(R9-Pad1)*%
X186895398Y-39115000D02*
X188985398Y-39115000D01*
X185510398Y-40500000D02*
X186895398Y-39115000D01*
X185510398Y-41275000D02*
X185510398Y-40500000D01*
%TO.N,Board_1-Net-(R8-Pad2)*%
X195335398Y-54075000D02*
X198510398Y-50900000D01*
X195335398Y-59865000D02*
X195335398Y-54075000D01*
X198510398Y-50900000D02*
X198510398Y-42165000D01*
%TO.N,Board_1-Net-(R8-Pad1)*%
X196725398Y-39115000D02*
X195335398Y-39115000D01*
X198510398Y-41525000D02*
X198510398Y-40900000D01*
X198510398Y-40900000D02*
X196725398Y-39115000D01*
%TO.N,Board_1-Net-(QL1-D)*%
X174280398Y-46070000D02*
X174280398Y-46860000D01*
X167110398Y-32300000D02*
X170710398Y-35900000D01*
X160152898Y-29142500D02*
X163310398Y-32300000D01*
X171710398Y-43500000D02*
X174280398Y-46070000D01*
X171710398Y-37069569D02*
X171710398Y-43500000D01*
X170710398Y-35900000D02*
X170710398Y-36069569D01*
X170710398Y-36069569D02*
X171710398Y-37069569D01*
X163310398Y-32300000D02*
X167110398Y-32300000D01*
%TO.N,Board_1-Net-(D1-A)*%
X168320398Y-24000000D02*
X172745398Y-24000000D01*
X172745398Y-24000000D02*
X173245398Y-23500000D01*
%TO.N,Board_1-/Signal_Gnd*%
X177010398Y-59000000D02*
X181310398Y-54700000D01*
X204010398Y-41310000D02*
X204010398Y-25210000D01*
X201685398Y-43635000D02*
X204010398Y-41310000D01*
X152010398Y-29025000D02*
X152010398Y-57000000D01*
X152010398Y-57000000D02*
X154010398Y-59000000D01*
X204010398Y-25210000D02*
X201685398Y-22885000D01*
X154010398Y-59000000D02*
X177010398Y-59000000D01*
%TO.N,Board_1-/L_Send*%
X187352898Y-29142500D02*
X191910398Y-33700000D01*
X191910398Y-40710000D02*
X188985398Y-43635000D01*
X177932898Y-29142500D02*
X187352898Y-29142500D01*
X191910398Y-33700000D02*
X191910398Y-40710000D01*
D26*
%TO.N,Board_1-/Ctrl_GND*%
X155010398Y-53765000D02*
X153775398Y-53765000D01*
X164510398Y-45500000D02*
X168310398Y-45500000D01*
X169670398Y-46860000D02*
X171740398Y-46860000D01*
X163470398Y-46540000D02*
X164510398Y-45500000D01*
X163470398Y-47500000D02*
X163470398Y-46540000D01*
X152910398Y-48865000D02*
X155010398Y-46765000D01*
X169700398Y-44710000D02*
X169700398Y-41500000D01*
X168910398Y-45500000D02*
X169700398Y-44710000D01*
X153775398Y-53765000D02*
X152910398Y-52900000D01*
X168310398Y-45500000D02*
X169670398Y-46860000D01*
X152910398Y-52900000D02*
X152910398Y-48865000D01*
D25*
%TO.N,Board_1-/Control*%
X155510398Y-38500000D02*
X155510398Y-40300000D01*
X159210398Y-24000000D02*
X160700398Y-24000000D01*
X158310398Y-24900000D02*
X159210398Y-24000000D01*
X158310398Y-30500000D02*
X158310398Y-24900000D01*
X155510398Y-40300000D02*
X156710398Y-41500000D01*
X155510398Y-33300000D02*
X158310398Y-30500000D01*
X156710398Y-41500000D02*
X159510398Y-41500000D01*
X155510398Y-38500000D02*
X155510398Y-33300000D01*
D26*
%TO.N,Board_1-/9V*%
X157510398Y-47700000D02*
X157510398Y-49300000D01*
X157510398Y-49300000D02*
X155585398Y-51225000D01*
X155585398Y-51225000D02*
X155010398Y-51225000D01*
X157710398Y-47500000D02*
X160930398Y-47500000D01*
X157510398Y-45100000D02*
X157510398Y-47700000D01*
X156635398Y-44225000D02*
X157510398Y-45100000D01*
X155010398Y-44225000D02*
X156635398Y-44225000D01*
X157510398Y-47700000D02*
X157710398Y-47500000D01*
D25*
%TO.N,Board_0-Net-(R9-Pad2)*%
X128375000Y-56390000D02*
X128375000Y-41915000D01*
X131850000Y-59865000D02*
X128375000Y-56390000D01*
%TO.N,Board_0-Net-(R9-Pad1)*%
X128375000Y-41275000D02*
X128375000Y-40500000D01*
X129760000Y-39115000D02*
X131850000Y-39115000D01*
X128375000Y-40500000D02*
X129760000Y-39115000D01*
%TO.N,Board_0-Net-(R8-Pad2)*%
X141375000Y-50900000D02*
X141375000Y-42165000D01*
X138200000Y-54075000D02*
X141375000Y-50900000D01*
X138200000Y-59865000D02*
X138200000Y-54075000D01*
%TO.N,Board_0-Net-(R8-Pad1)*%
X141375000Y-40900000D02*
X139590000Y-39115000D01*
X139590000Y-39115000D02*
X138200000Y-39115000D01*
X141375000Y-41525000D02*
X141375000Y-40900000D01*
%TO.N,Board_0-Net-(QL1-D)*%
X114575000Y-43500000D02*
X117145000Y-46070000D01*
X114575000Y-37069569D02*
X114575000Y-43500000D01*
X113575000Y-35900000D02*
X113575000Y-36069569D01*
X103017500Y-29142500D02*
X106175000Y-32300000D01*
X113575000Y-36069569D02*
X114575000Y-37069569D01*
X109975000Y-32300000D02*
X113575000Y-35900000D01*
X117145000Y-46070000D02*
X117145000Y-46860000D01*
X106175000Y-32300000D02*
X109975000Y-32300000D01*
%TO.N,Board_0-Net-(D1-A)*%
X115610000Y-24000000D02*
X116110000Y-23500000D01*
X111185000Y-24000000D02*
X115610000Y-24000000D01*
%TO.N,Board_0-/Signal_Gnd*%
X94875000Y-57000000D02*
X96875000Y-59000000D01*
X119875000Y-59000000D02*
X124175000Y-54700000D01*
X146875000Y-25210000D02*
X144550000Y-22885000D01*
X144550000Y-43635000D02*
X146875000Y-41310000D01*
X96875000Y-59000000D02*
X119875000Y-59000000D01*
X94875000Y-29025000D02*
X94875000Y-57000000D01*
X146875000Y-41310000D02*
X146875000Y-25210000D01*
%TO.N,Board_0-/L_Send*%
X120797500Y-29142500D02*
X130217500Y-29142500D01*
X134775000Y-33700000D02*
X134775000Y-40710000D01*
X130217500Y-29142500D02*
X134775000Y-33700000D01*
X134775000Y-40710000D02*
X131850000Y-43635000D01*
D26*
%TO.N,Board_0-/Ctrl_GND*%
X112535000Y-46860000D02*
X114605000Y-46860000D01*
X111175000Y-45500000D02*
X112535000Y-46860000D01*
X97875000Y-53765000D02*
X96640000Y-53765000D01*
X95775000Y-52900000D02*
X95775000Y-48865000D01*
X95775000Y-48865000D02*
X97875000Y-46765000D01*
X106335000Y-46540000D02*
X107375000Y-45500000D01*
X106335000Y-47500000D02*
X106335000Y-46540000D01*
X96640000Y-53765000D02*
X95775000Y-52900000D01*
X107375000Y-45500000D02*
X111175000Y-45500000D01*
X112565000Y-44710000D02*
X112565000Y-41500000D01*
X111775000Y-45500000D02*
X112565000Y-44710000D01*
D25*
%TO.N,Board_0-/Control*%
X98375000Y-33300000D02*
X101175000Y-30500000D01*
X98375000Y-38500000D02*
X98375000Y-33300000D01*
X101175000Y-30500000D02*
X101175000Y-24900000D01*
X98375000Y-38500000D02*
X98375000Y-40300000D01*
X101175000Y-24900000D02*
X102075000Y-24000000D01*
X102075000Y-24000000D02*
X103565000Y-24000000D01*
X98375000Y-40300000D02*
X99575000Y-41500000D01*
X99575000Y-41500000D02*
X102375000Y-41500000D01*
D26*
%TO.N,Board_0-/9V*%
X98450000Y-51225000D02*
X97875000Y-51225000D01*
X97875000Y-44225000D02*
X99500000Y-44225000D01*
X99500000Y-44225000D02*
X100375000Y-45100000D01*
X100375000Y-45100000D02*
X100375000Y-47700000D01*
X100375000Y-49300000D02*
X98450000Y-51225000D01*
X100375000Y-47700000D02*
X100375000Y-49300000D01*
X100375000Y-47700000D02*
X100575000Y-47500000D01*
X100575000Y-47500000D02*
X103795000Y-47500000D01*
%TD*%
M02*
